<?xml version="1.0" encoding="utf-8" standalone="no"?>
<!DOCTYPE svg PUBLIC "-//W3C//DTD SVG 1.1//EN"
  "http://www.w3.org/Graphics/SVG/1.1/DTD/svg11.dtd">
<svg xmlns:xlink="http://www.w3.org/1999/xlink" width="720pt" height="360pt" viewBox="0 0 720 360" xmlns="http://www.w3.org/2000/svg" version="1.1">
 <metadata>
  <rdf:RDF xmlns:dc="http://purl.org/dc/elements/1.1/" xmlns:cc="http://creativecommons.org/ns#" xmlns:rdf="http://www.w3.org/1999/02/22-rdf-syntax-ns#">
   <cc:Work>
    <dc:type rdf:resource="http://purl.org/dc/dcmitype/StillImage"/>
    <dc:date>2023-05-23T15:26:02.904145</dc:date>
    <dc:format>image/svg+xml</dc:format>
    <dc:creator>
     <cc:Agent>
      <dc:title>Matplotlib v3.7.1, https://matplotlib.org/</dc:title>
     </cc:Agent>
    </dc:creator>
   </cc:Work>
  </rdf:RDF>
 </metadata>
 <defs>
  <style type="text/css">*{stroke-linejoin: round; stroke-linecap: butt}</style>
 </defs>
 <g id="figure_1">
  <g id="patch_1">
   <path d="M 0 360 
L 720 360 
L 720 0 
L 0 0 
z
" style="fill: #ffffff"/>
  </g>
  <g id="axes_1">
   <g id="patch_2">
    <path d="M 90 320.4 
L 648 320.4 
L 648 43.2 
L 90 43.2 
z
" style="fill: #ffffff"/>
   </g>
   <g id="matplotlib.axis_1">
    <g id="xtick_1">
     <g id="line2d_1">
      <path d="M 115.363636 320.4 
L 115.363636 43.2 
" clip-path="url(#p29f0aeadb3)" style="fill: none; stroke: #b0b0b0; stroke-width: 0.8; stroke-linecap: square"/>
     </g>
     <g id="line2d_2">
      <defs>
       <path id="mcf9a0c3d61" d="M 0 0 
L 0 3.5 
" style="stroke: #000000; stroke-width: 0.8"/>
      </defs>
      <g>
       <use xlink:href="#mcf9a0c3d61" x="115.363636" y="320.4" style="stroke: #000000; stroke-width: 0.8"/>
      </g>
     </g>
     <g id="text_1">
      <!-- 0 -->
      <g transform="translate(112.182386 334.998438) scale(0.1 -0.1)">
       <defs>
        <path id="DejaVuSans-30" d="M 2034 4250 
Q 1547 4250 1301 3770 
Q 1056 3291 1056 2328 
Q 1056 1369 1301 889 
Q 1547 409 2034 409 
Q 2525 409 2770 889 
Q 3016 1369 3016 2328 
Q 3016 3291 2770 3770 
Q 2525 4250 2034 4250 
z
M 2034 4750 
Q 2819 4750 3233 4129 
Q 3647 3509 3647 2328 
Q 3647 1150 3233 529 
Q 2819 -91 2034 -91 
Q 1250 -91 836 529 
Q 422 1150 422 2328 
Q 422 3509 836 4129 
Q 1250 4750 2034 4750 
z
" transform="scale(0.015625)"/>
       </defs>
       <use xlink:href="#DejaVuSans-30"/>
      </g>
     </g>
    </g>
    <g id="xtick_2">
     <g id="line2d_3">
      <path d="M 179.091366 320.4 
L 179.091366 43.2 
" clip-path="url(#p29f0aeadb3)" style="fill: none; stroke: #b0b0b0; stroke-width: 0.8; stroke-linecap: square"/>
     </g>
     <g id="line2d_4">
      <g>
       <use xlink:href="#mcf9a0c3d61" x="179.091366" y="320.4" style="stroke: #000000; stroke-width: 0.8"/>
      </g>
     </g>
     <g id="text_2">
      <!-- 25 -->
      <g transform="translate(172.728866 334.998438) scale(0.1 -0.1)">
       <defs>
        <path id="DejaVuSans-32" d="M 1228 531 
L 3431 531 
L 3431 0 
L 469 0 
L 469 531 
Q 828 903 1448 1529 
Q 2069 2156 2228 2338 
Q 2531 2678 2651 2914 
Q 2772 3150 2772 3378 
Q 2772 3750 2511 3984 
Q 2250 4219 1831 4219 
Q 1534 4219 1204 4116 
Q 875 4013 500 3803 
L 500 4441 
Q 881 4594 1212 4672 
Q 1544 4750 1819 4750 
Q 2544 4750 2975 4387 
Q 3406 4025 3406 3419 
Q 3406 3131 3298 2873 
Q 3191 2616 2906 2266 
Q 2828 2175 2409 1742 
Q 1991 1309 1228 531 
z
" transform="scale(0.015625)"/>
        <path id="DejaVuSans-35" d="M 691 4666 
L 3169 4666 
L 3169 4134 
L 1269 4134 
L 1269 2991 
Q 1406 3038 1543 3061 
Q 1681 3084 1819 3084 
Q 2600 3084 3056 2656 
Q 3513 2228 3513 1497 
Q 3513 744 3044 326 
Q 2575 -91 1722 -91 
Q 1428 -91 1123 -41 
Q 819 9 494 109 
L 494 744 
Q 775 591 1075 516 
Q 1375 441 1709 441 
Q 2250 441 2565 725 
Q 2881 1009 2881 1497 
Q 2881 1984 2565 2268 
Q 2250 2553 1709 2553 
Q 1456 2553 1204 2497 
Q 953 2441 691 2322 
L 691 4666 
z
" transform="scale(0.015625)"/>
       </defs>
       <use xlink:href="#DejaVuSans-32"/>
       <use xlink:href="#DejaVuSans-35" x="63.623047"/>
      </g>
     </g>
    </g>
    <g id="xtick_3">
     <g id="line2d_5">
      <path d="M 242.819095 320.4 
L 242.819095 43.2 
" clip-path="url(#p29f0aeadb3)" style="fill: none; stroke: #b0b0b0; stroke-width: 0.8; stroke-linecap: square"/>
     </g>
     <g id="line2d_6">
      <g>
       <use xlink:href="#mcf9a0c3d61" x="242.819095" y="320.4" style="stroke: #000000; stroke-width: 0.8"/>
      </g>
     </g>
     <g id="text_3">
      <!-- 50 -->
      <g transform="translate(236.456595 334.998438) scale(0.1 -0.1)">
       <use xlink:href="#DejaVuSans-35"/>
       <use xlink:href="#DejaVuSans-30" x="63.623047"/>
      </g>
     </g>
    </g>
    <g id="xtick_4">
     <g id="line2d_7">
      <path d="M 306.546825 320.4 
L 306.546825 43.2 
" clip-path="url(#p29f0aeadb3)" style="fill: none; stroke: #b0b0b0; stroke-width: 0.8; stroke-linecap: square"/>
     </g>
     <g id="line2d_8">
      <g>
       <use xlink:href="#mcf9a0c3d61" x="306.546825" y="320.4" style="stroke: #000000; stroke-width: 0.8"/>
      </g>
     </g>
     <g id="text_4">
      <!-- 75 -->
      <g transform="translate(300.184325 334.998438) scale(0.1 -0.1)">
       <defs>
        <path id="DejaVuSans-37" d="M 525 4666 
L 3525 4666 
L 3525 4397 
L 1831 0 
L 1172 0 
L 2766 4134 
L 525 4134 
L 525 4666 
z
" transform="scale(0.015625)"/>
       </defs>
       <use xlink:href="#DejaVuSans-37"/>
       <use xlink:href="#DejaVuSans-35" x="63.623047"/>
      </g>
     </g>
    </g>
    <g id="xtick_5">
     <g id="line2d_9">
      <path d="M 370.274555 320.4 
L 370.274555 43.2 
" clip-path="url(#p29f0aeadb3)" style="fill: none; stroke: #b0b0b0; stroke-width: 0.8; stroke-linecap: square"/>
     </g>
     <g id="line2d_10">
      <g>
       <use xlink:href="#mcf9a0c3d61" x="370.274555" y="320.4" style="stroke: #000000; stroke-width: 0.8"/>
      </g>
     </g>
     <g id="text_5">
      <!-- 100 -->
      <g transform="translate(360.730805 334.998438) scale(0.1 -0.1)">
       <defs>
        <path id="DejaVuSans-31" d="M 794 531 
L 1825 531 
L 1825 4091 
L 703 3866 
L 703 4441 
L 1819 4666 
L 2450 4666 
L 2450 531 
L 3481 531 
L 3481 0 
L 794 0 
L 794 531 
z
" transform="scale(0.015625)"/>
       </defs>
       <use xlink:href="#DejaVuSans-31"/>
       <use xlink:href="#DejaVuSans-30" x="63.623047"/>
       <use xlink:href="#DejaVuSans-30" x="127.246094"/>
      </g>
     </g>
    </g>
    <g id="xtick_6">
     <g id="line2d_11">
      <path d="M 434.002284 320.4 
L 434.002284 43.2 
" clip-path="url(#p29f0aeadb3)" style="fill: none; stroke: #b0b0b0; stroke-width: 0.8; stroke-linecap: square"/>
     </g>
     <g id="line2d_12">
      <g>
       <use xlink:href="#mcf9a0c3d61" x="434.002284" y="320.4" style="stroke: #000000; stroke-width: 0.8"/>
      </g>
     </g>
     <g id="text_6">
      <!-- 125 -->
      <g transform="translate(424.458534 334.998438) scale(0.1 -0.1)">
       <use xlink:href="#DejaVuSans-31"/>
       <use xlink:href="#DejaVuSans-32" x="63.623047"/>
       <use xlink:href="#DejaVuSans-35" x="127.246094"/>
      </g>
     </g>
    </g>
    <g id="xtick_7">
     <g id="line2d_13">
      <path d="M 497.730014 320.4 
L 497.730014 43.2 
" clip-path="url(#p29f0aeadb3)" style="fill: none; stroke: #b0b0b0; stroke-width: 0.8; stroke-linecap: square"/>
     </g>
     <g id="line2d_14">
      <g>
       <use xlink:href="#mcf9a0c3d61" x="497.730014" y="320.4" style="stroke: #000000; stroke-width: 0.8"/>
      </g>
     </g>
     <g id="text_7">
      <!-- 150 -->
      <g transform="translate(488.186264 334.998438) scale(0.1 -0.1)">
       <use xlink:href="#DejaVuSans-31"/>
       <use xlink:href="#DejaVuSans-35" x="63.623047"/>
       <use xlink:href="#DejaVuSans-30" x="127.246094"/>
      </g>
     </g>
    </g>
    <g id="xtick_8">
     <g id="line2d_15">
      <path d="M 561.457743 320.4 
L 561.457743 43.2 
" clip-path="url(#p29f0aeadb3)" style="fill: none; stroke: #b0b0b0; stroke-width: 0.8; stroke-linecap: square"/>
     </g>
     <g id="line2d_16">
      <g>
       <use xlink:href="#mcf9a0c3d61" x="561.457743" y="320.4" style="stroke: #000000; stroke-width: 0.8"/>
      </g>
     </g>
     <g id="text_8">
      <!-- 175 -->
      <g transform="translate(551.913993 334.998438) scale(0.1 -0.1)">
       <use xlink:href="#DejaVuSans-31"/>
       <use xlink:href="#DejaVuSans-37" x="63.623047"/>
       <use xlink:href="#DejaVuSans-35" x="127.246094"/>
      </g>
     </g>
    </g>
    <g id="xtick_9">
     <g id="line2d_17">
      <path d="M 625.185473 320.4 
L 625.185473 43.2 
" clip-path="url(#p29f0aeadb3)" style="fill: none; stroke: #b0b0b0; stroke-width: 0.8; stroke-linecap: square"/>
     </g>
     <g id="line2d_18">
      <g>
       <use xlink:href="#mcf9a0c3d61" x="625.185473" y="320.4" style="stroke: #000000; stroke-width: 0.8"/>
      </g>
     </g>
     <g id="text_9">
      <!-- 200 -->
      <g transform="translate(615.641723 334.998438) scale(0.1 -0.1)">
       <use xlink:href="#DejaVuSans-32"/>
       <use xlink:href="#DejaVuSans-30" x="63.623047"/>
       <use xlink:href="#DejaVuSans-30" x="127.246094"/>
      </g>
     </g>
    </g>
    <g id="text_10">
     <!-- epoch -->
     <g transform="translate(353.771875 348.676562) scale(0.1 -0.1)">
      <defs>
       <path id="DejaVuSans-65" d="M 3597 1894 
L 3597 1613 
L 953 1613 
Q 991 1019 1311 708 
Q 1631 397 2203 397 
Q 2534 397 2845 478 
Q 3156 559 3463 722 
L 3463 178 
Q 3153 47 2828 -22 
Q 2503 -91 2169 -91 
Q 1331 -91 842 396 
Q 353 884 353 1716 
Q 353 2575 817 3079 
Q 1281 3584 2069 3584 
Q 2775 3584 3186 3129 
Q 3597 2675 3597 1894 
z
M 3022 2063 
Q 3016 2534 2758 2815 
Q 2500 3097 2075 3097 
Q 1594 3097 1305 2825 
Q 1016 2553 972 2059 
L 3022 2063 
z
" transform="scale(0.015625)"/>
       <path id="DejaVuSans-70" d="M 1159 525 
L 1159 -1331 
L 581 -1331 
L 581 3500 
L 1159 3500 
L 1159 2969 
Q 1341 3281 1617 3432 
Q 1894 3584 2278 3584 
Q 2916 3584 3314 3078 
Q 3713 2572 3713 1747 
Q 3713 922 3314 415 
Q 2916 -91 2278 -91 
Q 1894 -91 1617 61 
Q 1341 213 1159 525 
z
M 3116 1747 
Q 3116 2381 2855 2742 
Q 2594 3103 2138 3103 
Q 1681 3103 1420 2742 
Q 1159 2381 1159 1747 
Q 1159 1113 1420 752 
Q 1681 391 2138 391 
Q 2594 391 2855 752 
Q 3116 1113 3116 1747 
z
" transform="scale(0.015625)"/>
       <path id="DejaVuSans-6f" d="M 1959 3097 
Q 1497 3097 1228 2736 
Q 959 2375 959 1747 
Q 959 1119 1226 758 
Q 1494 397 1959 397 
Q 2419 397 2687 759 
Q 2956 1122 2956 1747 
Q 2956 2369 2687 2733 
Q 2419 3097 1959 3097 
z
M 1959 3584 
Q 2709 3584 3137 3096 
Q 3566 2609 3566 1747 
Q 3566 888 3137 398 
Q 2709 -91 1959 -91 
Q 1206 -91 779 398 
Q 353 888 353 1747 
Q 353 2609 779 3096 
Q 1206 3584 1959 3584 
z
" transform="scale(0.015625)"/>
       <path id="DejaVuSans-63" d="M 3122 3366 
L 3122 2828 
Q 2878 2963 2633 3030 
Q 2388 3097 2138 3097 
Q 1578 3097 1268 2742 
Q 959 2388 959 1747 
Q 959 1106 1268 751 
Q 1578 397 2138 397 
Q 2388 397 2633 464 
Q 2878 531 3122 666 
L 3122 134 
Q 2881 22 2623 -34 
Q 2366 -91 2075 -91 
Q 1284 -91 818 406 
Q 353 903 353 1747 
Q 353 2603 823 3093 
Q 1294 3584 2113 3584 
Q 2378 3584 2631 3529 
Q 2884 3475 3122 3366 
z
" transform="scale(0.015625)"/>
       <path id="DejaVuSans-68" d="M 3513 2113 
L 3513 0 
L 2938 0 
L 2938 2094 
Q 2938 2591 2744 2837 
Q 2550 3084 2163 3084 
Q 1697 3084 1428 2787 
Q 1159 2491 1159 1978 
L 1159 0 
L 581 0 
L 581 4863 
L 1159 4863 
L 1159 2956 
Q 1366 3272 1645 3428 
Q 1925 3584 2291 3584 
Q 2894 3584 3203 3211 
Q 3513 2838 3513 2113 
z
" transform="scale(0.015625)"/>
      </defs>
      <use xlink:href="#DejaVuSans-65"/>
      <use xlink:href="#DejaVuSans-70" x="61.523438"/>
      <use xlink:href="#DejaVuSans-6f" x="125"/>
      <use xlink:href="#DejaVuSans-63" x="186.181641"/>
      <use xlink:href="#DejaVuSans-68" x="241.162109"/>
     </g>
    </g>
   </g>
   <g id="matplotlib.axis_2">
    <g id="ytick_1">
     <g id="line2d_19">
      <path d="M 90 318.27938 
L 648 318.27938 
" clip-path="url(#p29f0aeadb3)" style="fill: none; stroke: #b0b0b0; stroke-width: 0.8; stroke-linecap: square"/>
     </g>
     <g id="line2d_20">
      <defs>
       <path id="m25702f3752" d="M 0 0 
L -3.5 0 
" style="stroke: #000000; stroke-width: 0.8"/>
      </defs>
      <g>
       <use xlink:href="#m25702f3752" x="90" y="318.27938" style="stroke: #000000; stroke-width: 0.8"/>
      </g>
     </g>
     <g id="text_11">
      <!-- 0.364 -->
      <g transform="translate(54.371875 322.078599) scale(0.1 -0.1)">
       <defs>
        <path id="DejaVuSans-2e" d="M 684 794 
L 1344 794 
L 1344 0 
L 684 0 
L 684 794 
z
" transform="scale(0.015625)"/>
        <path id="DejaVuSans-33" d="M 2597 2516 
Q 3050 2419 3304 2112 
Q 3559 1806 3559 1356 
Q 3559 666 3084 287 
Q 2609 -91 1734 -91 
Q 1441 -91 1130 -33 
Q 819 25 488 141 
L 488 750 
Q 750 597 1062 519 
Q 1375 441 1716 441 
Q 2309 441 2620 675 
Q 2931 909 2931 1356 
Q 2931 1769 2642 2001 
Q 2353 2234 1838 2234 
L 1294 2234 
L 1294 2753 
L 1863 2753 
Q 2328 2753 2575 2939 
Q 2822 3125 2822 3475 
Q 2822 3834 2567 4026 
Q 2313 4219 1838 4219 
Q 1578 4219 1281 4162 
Q 984 4106 628 3988 
L 628 4550 
Q 988 4650 1302 4700 
Q 1616 4750 1894 4750 
Q 2613 4750 3031 4423 
Q 3450 4097 3450 3541 
Q 3450 3153 3228 2886 
Q 3006 2619 2597 2516 
z
" transform="scale(0.015625)"/>
        <path id="DejaVuSans-36" d="M 2113 2584 
Q 1688 2584 1439 2293 
Q 1191 2003 1191 1497 
Q 1191 994 1439 701 
Q 1688 409 2113 409 
Q 2538 409 2786 701 
Q 3034 994 3034 1497 
Q 3034 2003 2786 2293 
Q 2538 2584 2113 2584 
z
M 3366 4563 
L 3366 3988 
Q 3128 4100 2886 4159 
Q 2644 4219 2406 4219 
Q 1781 4219 1451 3797 
Q 1122 3375 1075 2522 
Q 1259 2794 1537 2939 
Q 1816 3084 2150 3084 
Q 2853 3084 3261 2657 
Q 3669 2231 3669 1497 
Q 3669 778 3244 343 
Q 2819 -91 2113 -91 
Q 1303 -91 875 529 
Q 447 1150 447 2328 
Q 447 3434 972 4092 
Q 1497 4750 2381 4750 
Q 2619 4750 2861 4703 
Q 3103 4656 3366 4563 
z
" transform="scale(0.015625)"/>
        <path id="DejaVuSans-34" d="M 2419 4116 
L 825 1625 
L 2419 1625 
L 2419 4116 
z
M 2253 4666 
L 3047 4666 
L 3047 1625 
L 3713 1625 
L 3713 1100 
L 3047 1100 
L 3047 0 
L 2419 0 
L 2419 1100 
L 313 1100 
L 313 1709 
L 2253 4666 
z
" transform="scale(0.015625)"/>
       </defs>
       <use xlink:href="#DejaVuSans-30"/>
       <use xlink:href="#DejaVuSans-2e" x="63.623047"/>
       <use xlink:href="#DejaVuSans-33" x="95.410156"/>
       <use xlink:href="#DejaVuSans-36" x="159.033203"/>
       <use xlink:href="#DejaVuSans-34" x="222.65625"/>
      </g>
     </g>
    </g>
    <g id="ytick_2">
     <g id="line2d_21">
      <path d="M 90 268.260055 
L 648 268.260055 
" clip-path="url(#p29f0aeadb3)" style="fill: none; stroke: #b0b0b0; stroke-width: 0.8; stroke-linecap: square"/>
     </g>
     <g id="line2d_22">
      <g>
       <use xlink:href="#m25702f3752" x="90" y="268.260055" style="stroke: #000000; stroke-width: 0.8"/>
      </g>
     </g>
     <g id="text_12">
      <!-- 0.366 -->
      <g transform="translate(54.371875 272.059274) scale(0.1 -0.1)">
       <use xlink:href="#DejaVuSans-30"/>
       <use xlink:href="#DejaVuSans-2e" x="63.623047"/>
       <use xlink:href="#DejaVuSans-33" x="95.410156"/>
       <use xlink:href="#DejaVuSans-36" x="159.033203"/>
       <use xlink:href="#DejaVuSans-36" x="222.65625"/>
      </g>
     </g>
    </g>
    <g id="ytick_3">
     <g id="line2d_23">
      <path d="M 90 218.24073 
L 648 218.24073 
" clip-path="url(#p29f0aeadb3)" style="fill: none; stroke: #b0b0b0; stroke-width: 0.8; stroke-linecap: square"/>
     </g>
     <g id="line2d_24">
      <g>
       <use xlink:href="#m25702f3752" x="90" y="218.24073" style="stroke: #000000; stroke-width: 0.8"/>
      </g>
     </g>
     <g id="text_13">
      <!-- 0.368 -->
      <g transform="translate(54.371875 222.039949) scale(0.1 -0.1)">
       <defs>
        <path id="DejaVuSans-38" d="M 2034 2216 
Q 1584 2216 1326 1975 
Q 1069 1734 1069 1313 
Q 1069 891 1326 650 
Q 1584 409 2034 409 
Q 2484 409 2743 651 
Q 3003 894 3003 1313 
Q 3003 1734 2745 1975 
Q 2488 2216 2034 2216 
z
M 1403 2484 
Q 997 2584 770 2862 
Q 544 3141 544 3541 
Q 544 4100 942 4425 
Q 1341 4750 2034 4750 
Q 2731 4750 3128 4425 
Q 3525 4100 3525 3541 
Q 3525 3141 3298 2862 
Q 3072 2584 2669 2484 
Q 3125 2378 3379 2068 
Q 3634 1759 3634 1313 
Q 3634 634 3220 271 
Q 2806 -91 2034 -91 
Q 1263 -91 848 271 
Q 434 634 434 1313 
Q 434 1759 690 2068 
Q 947 2378 1403 2484 
z
M 1172 3481 
Q 1172 3119 1398 2916 
Q 1625 2713 2034 2713 
Q 2441 2713 2670 2916 
Q 2900 3119 2900 3481 
Q 2900 3844 2670 4047 
Q 2441 4250 2034 4250 
Q 1625 4250 1398 4047 
Q 1172 3844 1172 3481 
z
" transform="scale(0.015625)"/>
       </defs>
       <use xlink:href="#DejaVuSans-30"/>
       <use xlink:href="#DejaVuSans-2e" x="63.623047"/>
       <use xlink:href="#DejaVuSans-33" x="95.410156"/>
       <use xlink:href="#DejaVuSans-36" x="159.033203"/>
       <use xlink:href="#DejaVuSans-38" x="222.65625"/>
      </g>
     </g>
    </g>
    <g id="ytick_4">
     <g id="line2d_25">
      <path d="M 90 168.221405 
L 648 168.221405 
" clip-path="url(#p29f0aeadb3)" style="fill: none; stroke: #b0b0b0; stroke-width: 0.8; stroke-linecap: square"/>
     </g>
     <g id="line2d_26">
      <g>
       <use xlink:href="#m25702f3752" x="90" y="168.221405" style="stroke: #000000; stroke-width: 0.8"/>
      </g>
     </g>
     <g id="text_14">
      <!-- 0.370 -->
      <g transform="translate(54.371875 172.020624) scale(0.1 -0.1)">
       <use xlink:href="#DejaVuSans-30"/>
       <use xlink:href="#DejaVuSans-2e" x="63.623047"/>
       <use xlink:href="#DejaVuSans-33" x="95.410156"/>
       <use xlink:href="#DejaVuSans-37" x="159.033203"/>
       <use xlink:href="#DejaVuSans-30" x="222.65625"/>
      </g>
     </g>
    </g>
    <g id="ytick_5">
     <g id="line2d_27">
      <path d="M 90 118.20208 
L 648 118.20208 
" clip-path="url(#p29f0aeadb3)" style="fill: none; stroke: #b0b0b0; stroke-width: 0.8; stroke-linecap: square"/>
     </g>
     <g id="line2d_28">
      <g>
       <use xlink:href="#m25702f3752" x="90" y="118.20208" style="stroke: #000000; stroke-width: 0.8"/>
      </g>
     </g>
     <g id="text_15">
      <!-- 0.372 -->
      <g transform="translate(54.371875 122.001299) scale(0.1 -0.1)">
       <use xlink:href="#DejaVuSans-30"/>
       <use xlink:href="#DejaVuSans-2e" x="63.623047"/>
       <use xlink:href="#DejaVuSans-33" x="95.410156"/>
       <use xlink:href="#DejaVuSans-37" x="159.033203"/>
       <use xlink:href="#DejaVuSans-32" x="222.65625"/>
      </g>
     </g>
    </g>
    <g id="ytick_6">
     <g id="line2d_29">
      <path d="M 90 68.182755 
L 648 68.182755 
" clip-path="url(#p29f0aeadb3)" style="fill: none; stroke: #b0b0b0; stroke-width: 0.8; stroke-linecap: square"/>
     </g>
     <g id="line2d_30">
      <g>
       <use xlink:href="#m25702f3752" x="90" y="68.182755" style="stroke: #000000; stroke-width: 0.8"/>
      </g>
     </g>
     <g id="text_16">
      <!-- 0.374 -->
      <g transform="translate(54.371875 71.981974) scale(0.1 -0.1)">
       <use xlink:href="#DejaVuSans-30"/>
       <use xlink:href="#DejaVuSans-2e" x="63.623047"/>
       <use xlink:href="#DejaVuSans-33" x="95.410156"/>
       <use xlink:href="#DejaVuSans-37" x="159.033203"/>
       <use xlink:href="#DejaVuSans-34" x="222.65625"/>
      </g>
     </g>
    </g>
    <g id="text_17">
     <!-- loss -->
     <g transform="translate(48.292188 191.457812) rotate(-90) scale(0.1 -0.1)">
      <defs>
       <path id="DejaVuSans-6c" d="M 603 4863 
L 1178 4863 
L 1178 0 
L 603 0 
L 603 4863 
z
" transform="scale(0.015625)"/>
       <path id="DejaVuSans-73" d="M 2834 3397 
L 2834 2853 
Q 2591 2978 2328 3040 
Q 2066 3103 1784 3103 
Q 1356 3103 1142 2972 
Q 928 2841 928 2578 
Q 928 2378 1081 2264 
Q 1234 2150 1697 2047 
L 1894 2003 
Q 2506 1872 2764 1633 
Q 3022 1394 3022 966 
Q 3022 478 2636 193 
Q 2250 -91 1575 -91 
Q 1294 -91 989 -36 
Q 684 19 347 128 
L 347 722 
Q 666 556 975 473 
Q 1284 391 1588 391 
Q 1994 391 2212 530 
Q 2431 669 2431 922 
Q 2431 1156 2273 1281 
Q 2116 1406 1581 1522 
L 1381 1569 
Q 847 1681 609 1914 
Q 372 2147 372 2553 
Q 372 3047 722 3315 
Q 1072 3584 1716 3584 
Q 2034 3584 2315 3537 
Q 2597 3491 2834 3397 
z
" transform="scale(0.015625)"/>
      </defs>
      <use xlink:href="#DejaVuSans-6c"/>
      <use xlink:href="#DejaVuSans-6f" x="27.783203"/>
      <use xlink:href="#DejaVuSans-73" x="88.964844"/>
      <use xlink:href="#DejaVuSans-73" x="141.064453"/>
     </g>
    </g>
   </g>
   <g id="line2d_31">
    <path d="M 115.363636 110.074607 
L 117.912746 105.729985 
L 120.461855 93.858859 
L 123.010964 111.322316 
L 125.560073 98.831062 
L 128.109182 106.408995 
L 130.658291 105.608493 
L 133.207401 103.369474 
L 135.75651 88.014601 
L 138.305619 104.884017 
L 140.854728 109.90914 
L 143.403837 120.343984 
L 145.952947 107.701425 
L 148.502056 107.458442 
L 151.051165 80.601389 
L 153.600274 107.102912 
L 156.149383 117.797137 
L 158.698492 91.057848 
L 161.247602 100.303866 
L 163.796711 108.997582 
L 166.34582 110.82517 
L 168.894929 99.26858 
L 171.444038 107.020179 
L 173.993148 110.216223 
L 176.542257 112.636361 
L 179.091366 75.417507 
L 181.640475 89.435975 
L 184.189584 99.674048 
L 186.738693 123.561643 
L 189.287803 85.866513 
L 191.836912 86.524654 
L 194.386021 95.543341 
L 196.93513 109.229384 
L 199.484239 55.8 
L 202.033349 114.918611 
L 204.582458 93.767926 
L 207.131567 96.655397 
L 209.680676 122.992199 
L 212.229785 86.727388 
L 214.778894 97.938883 
L 217.328004 76.709937 
L 219.877113 111.07337 
L 222.426222 114.437862 
L 224.975331 94.629546 
L 227.52444 98.771434 
L 230.07355 99.283487 
L 232.622659 117.958877 
L 235.171768 107.70217 
L 237.720877 115.895014 
L 240.269986 91.866549 
L 242.819095 108.992364 
L 245.368205 93.028543 
L 247.917314 86.98975 
L 250.466423 117.419246 
L 253.015532 109.640815 
L 255.564641 103.362766 
L 258.113751 103.028105 
L 260.66286 89.405416 
L 263.211969 100.562501 
L 265.761078 77.134039 
L 268.310187 88.911997 
L 270.859296 109.166775 
L 273.408406 78.502495 
L 275.957515 86.382293 
L 278.506624 89.840698 
L 281.055733 81.472698 
L 283.604842 90.325173 
L 286.153952 123.214312 
L 288.703061 111.911139 
L 291.25217 105.759053 
L 293.801279 122.431699 
L 296.350388 98.591806 
L 298.899497 104.547121 
L 301.448607 98.681247 
L 303.997716 102.475059 
L 306.546825 116.012033 
L 309.095934 95.576881 
L 311.645043 104.693208 
L 314.194153 102.238039 
L 316.743262 86.767637 
L 319.292371 114.464695 
L 321.84148 116.136506 
L 324.390589 79.86126 
L 326.939698 88.085408 
L 329.488808 92.627547 
L 332.037917 100.762254 
L 334.587026 94.718988 
L 337.136135 89.195229 
L 339.685244 110.983184 
L 342.234354 110.53374 
L 344.783463 91.293378 
L 347.332572 102.404996 
L 349.881681 86.60366 
L 352.43079 114.39985 
L 354.979899 100.835297 
L 357.529009 105.90365 
L 360.078118 105.013707 
L 362.627227 88.71448 
L 365.176336 108.548883 
L 367.725445 109.833115 
L 370.274555 108.972985 
L 372.823664 110.670884 
L 375.372773 108.246273 
L 377.921882 91.443192 
L 380.470991 107.465896 
L 383.020101 104.536686 
L 385.56921 94.194264 
L 388.118319 95.294395 
L 390.667428 98.793049 
L 393.216537 114.169538 
L 395.765646 113.925064 
L 398.314756 109.501436 
L 400.863865 106.663158 
L 403.412974 97.078008 
L 405.962083 108.082297 
L 408.511192 86.447138 
L 411.060302 92.70879 
L 413.609411 110.077588 
L 416.15852 95.816137 
L 418.707629 114.879107 
L 421.256738 104.813955 
L 423.805847 100.154797 
L 426.354957 118.554408 
L 428.904066 103.891962 
L 431.453175 103.852458 
L 434.002284 100.657905 
L 436.551393 98.421122 
L 439.100503 117.946206 
L 441.649612 74.381476 
L 444.198721 99.823118 
L 446.74783 115.052028 
L 449.296939 101.889217 
L 451.846048 99.981131 
L 454.395158 89.107278 
L 456.944267 103.13469 
L 459.493376 96.039741 
L 462.042485 95.84297 
L 464.591594 101.337661 
L 467.140704 112.965059 
L 469.689813 94.98135 
L 472.238922 122.111945 
L 474.788031 109.234602 
L 477.33714 105.607003 
L 479.886249 70.015985 
L 482.435359 91.872512 
L 484.984468 101.364493 
L 487.533577 87.357951 
L 490.082686 102.355803 
L 492.631795 106.878563 
L 495.180905 110.076843 
L 497.730014 63.377933 
L 500.279123 106.633344 
L 502.828232 102.106858 
L 505.377341 100.601259 
L 507.92645 107.291485 
L 510.47556 96.703099 
L 515.573778 104.032832 
L 518.122887 89.891382 
L 520.671996 100.713806 
L 523.221106 103.946372 
L 525.770215 93.772399 
L 528.319324 80.375549 
L 530.868433 92.68792 
L 533.417542 108.926774 
L 535.966651 117.978256 
L 538.515761 101.243747 
L 541.06487 123.489345 
L 543.613979 92.760964 
L 546.163088 102.334188 
L 548.712197 82.554196 
L 551.261307 100.452935 
L 553.810416 111.453497 
L 556.359525 111.860456 
L 558.908634 101.23853 
L 561.457743 98.90187 
L 564.006852 103.147361 
L 566.555962 105.079298 
L 569.105071 106.33446 
L 571.65418 103.37171 
L 574.203289 103.428356 
L 576.752398 95.935393 
L 579.301508 95.780361 
L 581.850617 107.768506 
L 584.399726 118.991927 
L 586.948835 112.45077 
L 589.497944 83.661034 
L 592.047053 112.491019 
L 594.596163 85.871731 
L 597.145272 101.014181 
L 599.694381 118.670682 
L 602.24349 113.555373 
L 604.792599 100.314301 
L 607.341709 92.990531 
L 609.890818 109.938954 
L 612.439927 96.831299 
L 614.989036 99.521998 
L 617.538145 107.473349 
L 620.087254 110.928028 
L 622.636364 87.192484 
L 622.636364 87.192484 
" clip-path="url(#p29f0aeadb3)" style="fill: none; stroke: #1f77b4; stroke-width: 1.5; stroke-linecap: square"/>
   </g>
   <g id="line2d_32">
    <path d="M 115.363636 304.690416 
L 117.912746 290.744992 
L 120.461855 291.010335 
L 123.010964 294.65955 
L 125.560073 298.086651 
L 128.109182 295.802165 
L 130.658291 300.596976 
L 133.207401 287.699508 
L 135.75651 284.858249 
L 138.305619 292.425748 
L 140.854728 303.66333 
L 143.403837 299.235229 
L 145.952947 303.550037 
L 148.502056 295.508499 
L 151.051165 300.718467 
L 153.600274 299.021315 
L 156.149383 302.291893 
L 158.698492 298.854357 
L 163.796711 298.774605 
L 166.34582 299.699579 
L 168.894929 299.988774 
L 171.444038 305.485701 
L 173.993148 300.353993 
L 176.542257 304.506316 
L 179.091366 287.607831 
L 181.640475 288.8779 
L 184.189584 299.845667 
L 186.738693 307.8 
L 189.287803 292.916931 
L 191.836912 297.131862 
L 194.386021 291.662513 
L 196.93513 301.385552 
L 199.484239 281.482577 
L 202.033349 305.951542 
L 204.582458 298.644915 
L 207.131567 290.933565 
L 209.680676 304.672528 
L 212.229785 304.352775 
L 214.778894 295.030732 
L 217.328004 295.807382 
L 219.877113 299.987283 
L 222.426222 300.418838 
L 224.975331 296.845649 
L 227.52444 299.414857 
L 230.07355 292.783514 
L 232.622659 304.732901 
L 235.171768 304.160475 
L 237.720877 300.131135 
L 240.269986 301.277477 
L 242.819095 300.113992 
L 245.368205 306.005207 
L 247.917314 295.88788 
L 250.466423 300.550765 
L 253.015532 290.027224 
L 255.564641 304.410912 
L 258.113751 295.72763 
L 260.66286 290.597414 
L 263.211969 282.528298 
L 265.761078 277.58889 
L 268.310187 290.182256 
L 270.859296 294.490356 
L 273.408406 294.224268 
L 275.957515 295.132099 
L 278.506624 299.194235 
L 281.055733 300.635734 
L 283.604842 292.012826 
L 286.153952 295.491356 
L 288.703061 299.332869 
L 291.25217 293.095814 
L 293.801279 301.135116 
L 296.350388 299.660076 
L 298.899497 300.878717 
L 301.448607 297.971122 
L 303.997716 300.648405 
L 306.546825 299.064545 
L 309.095934 302.322452 
L 311.645043 292.214815 
L 314.194153 291.223504 
L 316.743262 294.325635 
L 319.292371 298.629263 
L 321.84148 301.668038 
L 324.390589 292.968359 
L 329.488808 284.267935 
L 332.037917 289.795421 
L 337.136135 303.802709 
L 339.685244 294.889862 
L 342.234354 292.659041 
L 344.783463 289.688837 
L 347.332572 296.194217 
L 349.881681 291.110212 
L 352.43079 287.669695 
L 354.979899 294.519425 
L 357.529009 304.589049 
L 360.078118 285.950181 
L 362.627227 292.350468 
L 365.176336 304.484701 
L 367.725445 297.618573 
L 370.274555 295.126136 
L 372.823664 287.719633 
L 375.372773 289.162623 
L 377.921882 293.654823 
L 380.470991 301.398223 
L 383.020101 291.813818 
L 385.56921 293.800911 
L 388.118319 300.675983 
L 390.667428 296.446889 
L 395.765646 297.660313 
L 398.314756 305.855392 
L 400.863865 290.454307 
L 403.412974 285.160115 
L 405.962083 290.497537 
L 408.511192 289.732812 
L 411.060302 287.277643 
L 413.609411 303.889915 
L 416.15852 303.742336 
L 418.707629 299.675728 
L 421.256738 306.06707 
L 423.805847 297.445653 
L 426.354957 300.087905 
L 428.904066 303.508298 
L 431.453175 302.783821 
L 434.002284 288.356904 
L 436.551393 289.450326 
L 439.100503 298.486901 
L 441.649612 303.486683 
L 444.198721 302.943325 
L 446.74783 299.935109 
L 449.296939 290.657041 
L 451.846048 288.394916 
L 454.395158 289.469705 
L 456.944267 304.935635 
L 459.493376 301.796983 
L 462.042485 288.049821 
L 464.591594 292.811091 
L 467.140704 302.810654 
L 469.689813 296.306019 
L 472.238922 304.393023 
L 474.788031 292.609103 
L 477.33714 297.506771 
L 479.886249 279.362068 
L 482.435359 298.729139 
L 484.984468 294.893588 
L 487.533577 301.205178 
L 490.082686 301.163439 
L 495.180905 277.49274 
L 497.730014 283.699982 
L 500.279123 296.973849 
L 502.828232 300.834741 
L 505.377341 298.617337 
L 507.92645 292.696308 
L 510.47556 297.959196 
L 513.024669 297.893606 
L 515.573778 296.881426 
L 518.122887 287.091306 
L 520.671996 298.838705 
L 523.221106 295.466759 
L 525.770215 288.88759 
L 528.319324 288.171312 
L 530.868433 291.524624 
L 533.417542 299.59374 
L 535.966651 299.196471 
L 538.515761 289.398152 
L 541.06487 306.420365 
L 543.613979 296.96565 
L 546.163088 291.661768 
L 548.712197 294.945762 
L 551.261307 300.837723 
L 553.810416 296.080179 
L 556.359525 290.746483 
L 558.908634 303.00817 
L 561.457743 285.224214 
L 564.006852 298.47274 
L 566.555962 301.235738 
L 569.105071 300.754989 
L 571.65418 289.896789 
L 574.203289 291.202635 
L 576.752398 287.821745 
L 579.301508 294.498555 
L 581.850617 284.603341 
L 584.399726 298.942308 
L 586.948835 298.341559 
L 589.497944 292.574071 
L 592.047053 300.116973 
L 594.596163 297.422547 
L 597.145272 297.318944 
L 599.694381 299.051874 
L 602.24349 301.939344 
L 604.792599 295.194708 
L 607.341709 290.323126 
L 609.890818 304.901349 
L 612.439927 300.184054 
L 614.989036 292.639662 
L 617.538145 301.070271 
L 620.087254 304.215631 
L 622.636364 292.762644 
L 622.636364 292.762644 
" clip-path="url(#p29f0aeadb3)" style="fill: none; stroke: #ff7f0e; stroke-width: 1.5; stroke-linecap: square"/>
   </g>
   <g id="patch_3">
    <path d="M 90 320.4 
L 90 43.2 
" style="fill: none; stroke: #000000; stroke-width: 0.8; stroke-linejoin: miter; stroke-linecap: square"/>
   </g>
   <g id="patch_4">
    <path d="M 648 320.4 
L 648 43.2 
" style="fill: none; stroke: #000000; stroke-width: 0.8; stroke-linejoin: miter; stroke-linecap: square"/>
   </g>
   <g id="patch_5">
    <path d="M 90 320.4 
L 648 320.4 
" style="fill: none; stroke: #000000; stroke-width: 0.8; stroke-linejoin: miter; stroke-linecap: square"/>
   </g>
   <g id="patch_6">
    <path d="M 90 43.2 
L 648 43.2 
" style="fill: none; stroke: #000000; stroke-width: 0.8; stroke-linejoin: miter; stroke-linecap: square"/>
   </g>
   <g id="text_18">
    <!-- model train and validation loss over time -->
    <g transform="translate(245.555625 37.2) scale(0.12 -0.12)">
     <defs>
      <path id="DejaVuSans-6d" d="M 3328 2828 
Q 3544 3216 3844 3400 
Q 4144 3584 4550 3584 
Q 5097 3584 5394 3201 
Q 5691 2819 5691 2113 
L 5691 0 
L 5113 0 
L 5113 2094 
Q 5113 2597 4934 2840 
Q 4756 3084 4391 3084 
Q 3944 3084 3684 2787 
Q 3425 2491 3425 1978 
L 3425 0 
L 2847 0 
L 2847 2094 
Q 2847 2600 2669 2842 
Q 2491 3084 2119 3084 
Q 1678 3084 1418 2786 
Q 1159 2488 1159 1978 
L 1159 0 
L 581 0 
L 581 3500 
L 1159 3500 
L 1159 2956 
Q 1356 3278 1631 3431 
Q 1906 3584 2284 3584 
Q 2666 3584 2933 3390 
Q 3200 3197 3328 2828 
z
" transform="scale(0.015625)"/>
      <path id="DejaVuSans-64" d="M 2906 2969 
L 2906 4863 
L 3481 4863 
L 3481 0 
L 2906 0 
L 2906 525 
Q 2725 213 2448 61 
Q 2172 -91 1784 -91 
Q 1150 -91 751 415 
Q 353 922 353 1747 
Q 353 2572 751 3078 
Q 1150 3584 1784 3584 
Q 2172 3584 2448 3432 
Q 2725 3281 2906 2969 
z
M 947 1747 
Q 947 1113 1208 752 
Q 1469 391 1925 391 
Q 2381 391 2643 752 
Q 2906 1113 2906 1747 
Q 2906 2381 2643 2742 
Q 2381 3103 1925 3103 
Q 1469 3103 1208 2742 
Q 947 2381 947 1747 
z
" transform="scale(0.015625)"/>
      <path id="DejaVuSans-20" transform="scale(0.015625)"/>
      <path id="DejaVuSans-74" d="M 1172 4494 
L 1172 3500 
L 2356 3500 
L 2356 3053 
L 1172 3053 
L 1172 1153 
Q 1172 725 1289 603 
Q 1406 481 1766 481 
L 2356 481 
L 2356 0 
L 1766 0 
Q 1100 0 847 248 
Q 594 497 594 1153 
L 594 3053 
L 172 3053 
L 172 3500 
L 594 3500 
L 594 4494 
L 1172 4494 
z
" transform="scale(0.015625)"/>
      <path id="DejaVuSans-72" d="M 2631 2963 
Q 2534 3019 2420 3045 
Q 2306 3072 2169 3072 
Q 1681 3072 1420 2755 
Q 1159 2438 1159 1844 
L 1159 0 
L 581 0 
L 581 3500 
L 1159 3500 
L 1159 2956 
Q 1341 3275 1631 3429 
Q 1922 3584 2338 3584 
Q 2397 3584 2469 3576 
Q 2541 3569 2628 3553 
L 2631 2963 
z
" transform="scale(0.015625)"/>
      <path id="DejaVuSans-61" d="M 2194 1759 
Q 1497 1759 1228 1600 
Q 959 1441 959 1056 
Q 959 750 1161 570 
Q 1363 391 1709 391 
Q 2188 391 2477 730 
Q 2766 1069 2766 1631 
L 2766 1759 
L 2194 1759 
z
M 3341 1997 
L 3341 0 
L 2766 0 
L 2766 531 
Q 2569 213 2275 61 
Q 1981 -91 1556 -91 
Q 1019 -91 701 211 
Q 384 513 384 1019 
Q 384 1609 779 1909 
Q 1175 2209 1959 2209 
L 2766 2209 
L 2766 2266 
Q 2766 2663 2505 2880 
Q 2244 3097 1772 3097 
Q 1472 3097 1187 3025 
Q 903 2953 641 2809 
L 641 3341 
Q 956 3463 1253 3523 
Q 1550 3584 1831 3584 
Q 2591 3584 2966 3190 
Q 3341 2797 3341 1997 
z
" transform="scale(0.015625)"/>
      <path id="DejaVuSans-69" d="M 603 3500 
L 1178 3500 
L 1178 0 
L 603 0 
L 603 3500 
z
M 603 4863 
L 1178 4863 
L 1178 4134 
L 603 4134 
L 603 4863 
z
" transform="scale(0.015625)"/>
      <path id="DejaVuSans-6e" d="M 3513 2113 
L 3513 0 
L 2938 0 
L 2938 2094 
Q 2938 2591 2744 2837 
Q 2550 3084 2163 3084 
Q 1697 3084 1428 2787 
Q 1159 2491 1159 1978 
L 1159 0 
L 581 0 
L 581 3500 
L 1159 3500 
L 1159 2956 
Q 1366 3272 1645 3428 
Q 1925 3584 2291 3584 
Q 2894 3584 3203 3211 
Q 3513 2838 3513 2113 
z
" transform="scale(0.015625)"/>
      <path id="DejaVuSans-76" d="M 191 3500 
L 800 3500 
L 1894 563 
L 2988 3500 
L 3597 3500 
L 2284 0 
L 1503 0 
L 191 3500 
z
" transform="scale(0.015625)"/>
     </defs>
     <use xlink:href="#DejaVuSans-6d"/>
     <use xlink:href="#DejaVuSans-6f" x="97.412109"/>
     <use xlink:href="#DejaVuSans-64" x="158.59375"/>
     <use xlink:href="#DejaVuSans-65" x="222.070312"/>
     <use xlink:href="#DejaVuSans-6c" x="283.59375"/>
     <use xlink:href="#DejaVuSans-20" x="311.376953"/>
     <use xlink:href="#DejaVuSans-74" x="343.164062"/>
     <use xlink:href="#DejaVuSans-72" x="382.373047"/>
     <use xlink:href="#DejaVuSans-61" x="423.486328"/>
     <use xlink:href="#DejaVuSans-69" x="484.765625"/>
     <use xlink:href="#DejaVuSans-6e" x="512.548828"/>
     <use xlink:href="#DejaVuSans-20" x="575.927734"/>
     <use xlink:href="#DejaVuSans-61" x="607.714844"/>
     <use xlink:href="#DejaVuSans-6e" x="668.994141"/>
     <use xlink:href="#DejaVuSans-64" x="732.373047"/>
     <use xlink:href="#DejaVuSans-20" x="795.849609"/>
     <use xlink:href="#DejaVuSans-76" x="827.636719"/>
     <use xlink:href="#DejaVuSans-61" x="886.816406"/>
     <use xlink:href="#DejaVuSans-6c" x="948.095703"/>
     <use xlink:href="#DejaVuSans-69" x="975.878906"/>
     <use xlink:href="#DejaVuSans-64" x="1003.662109"/>
     <use xlink:href="#DejaVuSans-61" x="1067.138672"/>
     <use xlink:href="#DejaVuSans-74" x="1128.417969"/>
     <use xlink:href="#DejaVuSans-69" x="1167.626953"/>
     <use xlink:href="#DejaVuSans-6f" x="1195.410156"/>
     <use xlink:href="#DejaVuSans-6e" x="1256.591797"/>
     <use xlink:href="#DejaVuSans-20" x="1319.970703"/>
     <use xlink:href="#DejaVuSans-6c" x="1351.757812"/>
     <use xlink:href="#DejaVuSans-6f" x="1379.541016"/>
     <use xlink:href="#DejaVuSans-73" x="1440.722656"/>
     <use xlink:href="#DejaVuSans-73" x="1492.822266"/>
     <use xlink:href="#DejaVuSans-20" x="1544.921875"/>
     <use xlink:href="#DejaVuSans-6f" x="1576.708984"/>
     <use xlink:href="#DejaVuSans-76" x="1637.890625"/>
     <use xlink:href="#DejaVuSans-65" x="1697.070312"/>
     <use xlink:href="#DejaVuSans-72" x="1758.59375"/>
     <use xlink:href="#DejaVuSans-20" x="1799.707031"/>
     <use xlink:href="#DejaVuSans-74" x="1831.494141"/>
     <use xlink:href="#DejaVuSans-69" x="1870.703125"/>
     <use xlink:href="#DejaVuSans-6d" x="1898.486328"/>
     <use xlink:href="#DejaVuSans-65" x="1995.898438"/>
    </g>
   </g>
   <g id="legend_1">
    <g id="patch_7">
     <path d="M 559.765625 80.55625 
L 641 80.55625 
Q 643 80.55625 643 78.55625 
L 643 50.2 
Q 643 48.2 641 48.2 
L 559.765625 48.2 
Q 557.765625 48.2 557.765625 50.2 
L 557.765625 78.55625 
Q 557.765625 80.55625 559.765625 80.55625 
z
" style="fill: #ffffff; opacity: 0.8; stroke: #cccccc; stroke-linejoin: miter"/>
    </g>
    <g id="line2d_33">
     <path d="M 561.765625 56.298437 
L 571.765625 56.298437 
L 581.765625 56.298437 
" style="fill: none; stroke: #1f77b4; stroke-width: 1.5; stroke-linecap: square"/>
    </g>
    <g id="text_19">
     <!-- train -->
     <g transform="translate(589.765625 59.798437) scale(0.1 -0.1)">
      <use xlink:href="#DejaVuSans-74"/>
      <use xlink:href="#DejaVuSans-72" x="39.208984"/>
      <use xlink:href="#DejaVuSans-61" x="80.322266"/>
      <use xlink:href="#DejaVuSans-69" x="141.601562"/>
      <use xlink:href="#DejaVuSans-6e" x="169.384766"/>
     </g>
    </g>
    <g id="line2d_34">
     <path d="M 561.765625 70.976562 
L 571.765625 70.976562 
L 581.765625 70.976562 
" style="fill: none; stroke: #ff7f0e; stroke-width: 1.5; stroke-linecap: square"/>
    </g>
    <g id="text_20">
     <!-- validation -->
     <g transform="translate(589.765625 74.476562) scale(0.1 -0.1)">
      <use xlink:href="#DejaVuSans-76"/>
      <use xlink:href="#DejaVuSans-61" x="59.179688"/>
      <use xlink:href="#DejaVuSans-6c" x="120.458984"/>
      <use xlink:href="#DejaVuSans-69" x="148.242188"/>
      <use xlink:href="#DejaVuSans-64" x="176.025391"/>
      <use xlink:href="#DejaVuSans-61" x="239.501953"/>
      <use xlink:href="#DejaVuSans-74" x="300.78125"/>
      <use xlink:href="#DejaVuSans-69" x="339.990234"/>
      <use xlink:href="#DejaVuSans-6f" x="367.773438"/>
      <use xlink:href="#DejaVuSans-6e" x="428.955078"/>
     </g>
    </g>
   </g>
  </g>
 </g>
 <defs>
  <clipPath id="p29f0aeadb3">
   <rect x="90" y="43.2" width="558" height="277.2"/>
  </clipPath>
 </defs>
</svg>
