<?xml version="1.0" encoding="utf-8" standalone="no"?>
<!DOCTYPE svg PUBLIC "-//W3C//DTD SVG 1.1//EN"
  "http://www.w3.org/Graphics/SVG/1.1/DTD/svg11.dtd">
<svg xmlns:xlink="http://www.w3.org/1999/xlink" width="720pt" height="360pt" viewBox="0 0 720 360" xmlns="http://www.w3.org/2000/svg" version="1.1">
 <metadata>
  <rdf:RDF xmlns:dc="http://purl.org/dc/elements/1.1/" xmlns:cc="http://creativecommons.org/ns#" xmlns:rdf="http://www.w3.org/1999/02/22-rdf-syntax-ns#">
   <cc:Work>
    <dc:type rdf:resource="http://purl.org/dc/dcmitype/StillImage"/>
    <dc:date>2023-05-24T11:57:44.136013</dc:date>
    <dc:format>image/svg+xml</dc:format>
    <dc:creator>
     <cc:Agent>
      <dc:title>Matplotlib v3.7.1, https://matplotlib.org/</dc:title>
     </cc:Agent>
    </dc:creator>
   </cc:Work>
  </rdf:RDF>
 </metadata>
 <defs>
  <style type="text/css">*{stroke-linejoin: round; stroke-linecap: butt}</style>
 </defs>
 <g id="figure_1">
  <g id="patch_1">
   <path d="M 0 360 
L 720 360 
L 720 0 
L 0 0 
z
" style="fill: #ffffff"/>
  </g>
  <g id="axes_1">
   <g id="patch_2">
    <path d="M 90 320.4 
L 648 320.4 
L 648 43.2 
L 90 43.2 
z
" style="fill: #ffffff"/>
   </g>
   <g id="matplotlib.axis_1">
    <g id="xtick_1">
     <g id="line2d_1">
      <path d="M 115.363636 320.4 
L 115.363636 43.2 
" clip-path="url(#p0e98bc1108)" style="fill: none; stroke: #b0b0b0; stroke-width: 0.8; stroke-linecap: square"/>
     </g>
     <g id="line2d_2">
      <defs>
       <path id="m664003ce1d" d="M 0 0 
L 0 3.5 
" style="stroke: #000000; stroke-width: 0.8"/>
      </defs>
      <g>
       <use xlink:href="#m664003ce1d" x="115.363636" y="320.4" style="stroke: #000000; stroke-width: 0.8"/>
      </g>
     </g>
     <g id="text_1">
      <!-- 0 -->
      <g transform="translate(112.182386 334.998438) scale(0.1 -0.1)">
       <defs>
        <path id="DejaVuSans-30" d="M 2034 4250 
Q 1547 4250 1301 3770 
Q 1056 3291 1056 2328 
Q 1056 1369 1301 889 
Q 1547 409 2034 409 
Q 2525 409 2770 889 
Q 3016 1369 3016 2328 
Q 3016 3291 2770 3770 
Q 2525 4250 2034 4250 
z
M 2034 4750 
Q 2819 4750 3233 4129 
Q 3647 3509 3647 2328 
Q 3647 1150 3233 529 
Q 2819 -91 2034 -91 
Q 1250 -91 836 529 
Q 422 1150 422 2328 
Q 422 3509 836 4129 
Q 1250 4750 2034 4750 
z
" transform="scale(0.015625)"/>
       </defs>
       <use xlink:href="#DejaVuSans-30"/>
      </g>
     </g>
    </g>
    <g id="xtick_2">
     <g id="line2d_3">
      <path d="M 217.021498 320.4 
L 217.021498 43.2 
" clip-path="url(#p0e98bc1108)" style="fill: none; stroke: #b0b0b0; stroke-width: 0.8; stroke-linecap: square"/>
     </g>
     <g id="line2d_4">
      <g>
       <use xlink:href="#m664003ce1d" x="217.021498" y="320.4" style="stroke: #000000; stroke-width: 0.8"/>
      </g>
     </g>
     <g id="text_2">
      <!-- 100 -->
      <g transform="translate(207.477748 334.998438) scale(0.1 -0.1)">
       <defs>
        <path id="DejaVuSans-31" d="M 794 531 
L 1825 531 
L 1825 4091 
L 703 3866 
L 703 4441 
L 1819 4666 
L 2450 4666 
L 2450 531 
L 3481 531 
L 3481 0 
L 794 0 
L 794 531 
z
" transform="scale(0.015625)"/>
       </defs>
       <use xlink:href="#DejaVuSans-31"/>
       <use xlink:href="#DejaVuSans-30" x="63.623047"/>
       <use xlink:href="#DejaVuSans-30" x="127.246094"/>
      </g>
     </g>
    </g>
    <g id="xtick_3">
     <g id="line2d_5">
      <path d="M 318.679359 320.4 
L 318.679359 43.2 
" clip-path="url(#p0e98bc1108)" style="fill: none; stroke: #b0b0b0; stroke-width: 0.8; stroke-linecap: square"/>
     </g>
     <g id="line2d_6">
      <g>
       <use xlink:href="#m664003ce1d" x="318.679359" y="320.4" style="stroke: #000000; stroke-width: 0.8"/>
      </g>
     </g>
     <g id="text_3">
      <!-- 200 -->
      <g transform="translate(309.135609 334.998438) scale(0.1 -0.1)">
       <defs>
        <path id="DejaVuSans-32" d="M 1228 531 
L 3431 531 
L 3431 0 
L 469 0 
L 469 531 
Q 828 903 1448 1529 
Q 2069 2156 2228 2338 
Q 2531 2678 2651 2914 
Q 2772 3150 2772 3378 
Q 2772 3750 2511 3984 
Q 2250 4219 1831 4219 
Q 1534 4219 1204 4116 
Q 875 4013 500 3803 
L 500 4441 
Q 881 4594 1212 4672 
Q 1544 4750 1819 4750 
Q 2544 4750 2975 4387 
Q 3406 4025 3406 3419 
Q 3406 3131 3298 2873 
Q 3191 2616 2906 2266 
Q 2828 2175 2409 1742 
Q 1991 1309 1228 531 
z
" transform="scale(0.015625)"/>
       </defs>
       <use xlink:href="#DejaVuSans-32"/>
       <use xlink:href="#DejaVuSans-30" x="63.623047"/>
       <use xlink:href="#DejaVuSans-30" x="127.246094"/>
      </g>
     </g>
    </g>
    <g id="xtick_4">
     <g id="line2d_7">
      <path d="M 420.33722 320.4 
L 420.33722 43.2 
" clip-path="url(#p0e98bc1108)" style="fill: none; stroke: #b0b0b0; stroke-width: 0.8; stroke-linecap: square"/>
     </g>
     <g id="line2d_8">
      <g>
       <use xlink:href="#m664003ce1d" x="420.33722" y="320.4" style="stroke: #000000; stroke-width: 0.8"/>
      </g>
     </g>
     <g id="text_4">
      <!-- 300 -->
      <g transform="translate(410.79347 334.998438) scale(0.1 -0.1)">
       <defs>
        <path id="DejaVuSans-33" d="M 2597 2516 
Q 3050 2419 3304 2112 
Q 3559 1806 3559 1356 
Q 3559 666 3084 287 
Q 2609 -91 1734 -91 
Q 1441 -91 1130 -33 
Q 819 25 488 141 
L 488 750 
Q 750 597 1062 519 
Q 1375 441 1716 441 
Q 2309 441 2620 675 
Q 2931 909 2931 1356 
Q 2931 1769 2642 2001 
Q 2353 2234 1838 2234 
L 1294 2234 
L 1294 2753 
L 1863 2753 
Q 2328 2753 2575 2939 
Q 2822 3125 2822 3475 
Q 2822 3834 2567 4026 
Q 2313 4219 1838 4219 
Q 1578 4219 1281 4162 
Q 984 4106 628 3988 
L 628 4550 
Q 988 4650 1302 4700 
Q 1616 4750 1894 4750 
Q 2613 4750 3031 4423 
Q 3450 4097 3450 3541 
Q 3450 3153 3228 2886 
Q 3006 2619 2597 2516 
z
" transform="scale(0.015625)"/>
       </defs>
       <use xlink:href="#DejaVuSans-33"/>
       <use xlink:href="#DejaVuSans-30" x="63.623047"/>
       <use xlink:href="#DejaVuSans-30" x="127.246094"/>
      </g>
     </g>
    </g>
    <g id="xtick_5">
     <g id="line2d_9">
      <path d="M 521.995081 320.4 
L 521.995081 43.2 
" clip-path="url(#p0e98bc1108)" style="fill: none; stroke: #b0b0b0; stroke-width: 0.8; stroke-linecap: square"/>
     </g>
     <g id="line2d_10">
      <g>
       <use xlink:href="#m664003ce1d" x="521.995081" y="320.4" style="stroke: #000000; stroke-width: 0.8"/>
      </g>
     </g>
     <g id="text_5">
      <!-- 400 -->
      <g transform="translate(512.451331 334.998438) scale(0.1 -0.1)">
       <defs>
        <path id="DejaVuSans-34" d="M 2419 4116 
L 825 1625 
L 2419 1625 
L 2419 4116 
z
M 2253 4666 
L 3047 4666 
L 3047 1625 
L 3713 1625 
L 3713 1100 
L 3047 1100 
L 3047 0 
L 2419 0 
L 2419 1100 
L 313 1100 
L 313 1709 
L 2253 4666 
z
" transform="scale(0.015625)"/>
       </defs>
       <use xlink:href="#DejaVuSans-34"/>
       <use xlink:href="#DejaVuSans-30" x="63.623047"/>
       <use xlink:href="#DejaVuSans-30" x="127.246094"/>
      </g>
     </g>
    </g>
    <g id="xtick_6">
     <g id="line2d_11">
      <path d="M 623.652942 320.4 
L 623.652942 43.2 
" clip-path="url(#p0e98bc1108)" style="fill: none; stroke: #b0b0b0; stroke-width: 0.8; stroke-linecap: square"/>
     </g>
     <g id="line2d_12">
      <g>
       <use xlink:href="#m664003ce1d" x="623.652942" y="320.4" style="stroke: #000000; stroke-width: 0.8"/>
      </g>
     </g>
     <g id="text_6">
      <!-- 500 -->
      <g transform="translate(614.109192 334.998438) scale(0.1 -0.1)">
       <defs>
        <path id="DejaVuSans-35" d="M 691 4666 
L 3169 4666 
L 3169 4134 
L 1269 4134 
L 1269 2991 
Q 1406 3038 1543 3061 
Q 1681 3084 1819 3084 
Q 2600 3084 3056 2656 
Q 3513 2228 3513 1497 
Q 3513 744 3044 326 
Q 2575 -91 1722 -91 
Q 1428 -91 1123 -41 
Q 819 9 494 109 
L 494 744 
Q 775 591 1075 516 
Q 1375 441 1709 441 
Q 2250 441 2565 725 
Q 2881 1009 2881 1497 
Q 2881 1984 2565 2268 
Q 2250 2553 1709 2553 
Q 1456 2553 1204 2497 
Q 953 2441 691 2322 
L 691 4666 
z
" transform="scale(0.015625)"/>
       </defs>
       <use xlink:href="#DejaVuSans-35"/>
       <use xlink:href="#DejaVuSans-30" x="63.623047"/>
       <use xlink:href="#DejaVuSans-30" x="127.246094"/>
      </g>
     </g>
    </g>
    <g id="text_7">
     <!-- epoch -->
     <g transform="translate(353.771875 348.676562) scale(0.1 -0.1)">
      <defs>
       <path id="DejaVuSans-65" d="M 3597 1894 
L 3597 1613 
L 953 1613 
Q 991 1019 1311 708 
Q 1631 397 2203 397 
Q 2534 397 2845 478 
Q 3156 559 3463 722 
L 3463 178 
Q 3153 47 2828 -22 
Q 2503 -91 2169 -91 
Q 1331 -91 842 396 
Q 353 884 353 1716 
Q 353 2575 817 3079 
Q 1281 3584 2069 3584 
Q 2775 3584 3186 3129 
Q 3597 2675 3597 1894 
z
M 3022 2063 
Q 3016 2534 2758 2815 
Q 2500 3097 2075 3097 
Q 1594 3097 1305 2825 
Q 1016 2553 972 2059 
L 3022 2063 
z
" transform="scale(0.015625)"/>
       <path id="DejaVuSans-70" d="M 1159 525 
L 1159 -1331 
L 581 -1331 
L 581 3500 
L 1159 3500 
L 1159 2969 
Q 1341 3281 1617 3432 
Q 1894 3584 2278 3584 
Q 2916 3584 3314 3078 
Q 3713 2572 3713 1747 
Q 3713 922 3314 415 
Q 2916 -91 2278 -91 
Q 1894 -91 1617 61 
Q 1341 213 1159 525 
z
M 3116 1747 
Q 3116 2381 2855 2742 
Q 2594 3103 2138 3103 
Q 1681 3103 1420 2742 
Q 1159 2381 1159 1747 
Q 1159 1113 1420 752 
Q 1681 391 2138 391 
Q 2594 391 2855 752 
Q 3116 1113 3116 1747 
z
" transform="scale(0.015625)"/>
       <path id="DejaVuSans-6f" d="M 1959 3097 
Q 1497 3097 1228 2736 
Q 959 2375 959 1747 
Q 959 1119 1226 758 
Q 1494 397 1959 397 
Q 2419 397 2687 759 
Q 2956 1122 2956 1747 
Q 2956 2369 2687 2733 
Q 2419 3097 1959 3097 
z
M 1959 3584 
Q 2709 3584 3137 3096 
Q 3566 2609 3566 1747 
Q 3566 888 3137 398 
Q 2709 -91 1959 -91 
Q 1206 -91 779 398 
Q 353 888 353 1747 
Q 353 2609 779 3096 
Q 1206 3584 1959 3584 
z
" transform="scale(0.015625)"/>
       <path id="DejaVuSans-63" d="M 3122 3366 
L 3122 2828 
Q 2878 2963 2633 3030 
Q 2388 3097 2138 3097 
Q 1578 3097 1268 2742 
Q 959 2388 959 1747 
Q 959 1106 1268 751 
Q 1578 397 2138 397 
Q 2388 397 2633 464 
Q 2878 531 3122 666 
L 3122 134 
Q 2881 22 2623 -34 
Q 2366 -91 2075 -91 
Q 1284 -91 818 406 
Q 353 903 353 1747 
Q 353 2603 823 3093 
Q 1294 3584 2113 3584 
Q 2378 3584 2631 3529 
Q 2884 3475 3122 3366 
z
" transform="scale(0.015625)"/>
       <path id="DejaVuSans-68" d="M 3513 2113 
L 3513 0 
L 2938 0 
L 2938 2094 
Q 2938 2591 2744 2837 
Q 2550 3084 2163 3084 
Q 1697 3084 1428 2787 
Q 1159 2491 1159 1978 
L 1159 0 
L 581 0 
L 581 4863 
L 1159 4863 
L 1159 2956 
Q 1366 3272 1645 3428 
Q 1925 3584 2291 3584 
Q 2894 3584 3203 3211 
Q 3513 2838 3513 2113 
z
" transform="scale(0.015625)"/>
      </defs>
      <use xlink:href="#DejaVuSans-65"/>
      <use xlink:href="#DejaVuSans-70" x="61.523438"/>
      <use xlink:href="#DejaVuSans-6f" x="125"/>
      <use xlink:href="#DejaVuSans-63" x="186.181641"/>
      <use xlink:href="#DejaVuSans-68" x="241.162109"/>
     </g>
    </g>
   </g>
   <g id="matplotlib.axis_2">
    <g id="ytick_1">
     <g id="line2d_13">
      <path d="M 90 291.624141 
L 648 291.624141 
" clip-path="url(#p0e98bc1108)" style="fill: none; stroke: #b0b0b0; stroke-width: 0.8; stroke-linecap: square"/>
     </g>
     <g id="line2d_14">
      <defs>
       <path id="m59fea73c67" d="M 0 0 
L -3.5 0 
" style="stroke: #000000; stroke-width: 0.8"/>
      </defs>
      <g>
       <use xlink:href="#m59fea73c67" x="90" y="291.624141" style="stroke: #000000; stroke-width: 0.8"/>
      </g>
     </g>
     <g id="text_8">
      <!-- 0.350 -->
      <g transform="translate(54.371875 295.42336) scale(0.1 -0.1)">
       <defs>
        <path id="DejaVuSans-2e" d="M 684 794 
L 1344 794 
L 1344 0 
L 684 0 
L 684 794 
z
" transform="scale(0.015625)"/>
       </defs>
       <use xlink:href="#DejaVuSans-30"/>
       <use xlink:href="#DejaVuSans-2e" x="63.623047"/>
       <use xlink:href="#DejaVuSans-33" x="95.410156"/>
       <use xlink:href="#DejaVuSans-35" x="159.033203"/>
       <use xlink:href="#DejaVuSans-30" x="222.65625"/>
      </g>
     </g>
    </g>
    <g id="ytick_2">
     <g id="line2d_15">
      <path d="M 90 259.168407 
L 648 259.168407 
" clip-path="url(#p0e98bc1108)" style="fill: none; stroke: #b0b0b0; stroke-width: 0.8; stroke-linecap: square"/>
     </g>
     <g id="line2d_16">
      <g>
       <use xlink:href="#m59fea73c67" x="90" y="259.168407" style="stroke: #000000; stroke-width: 0.8"/>
      </g>
     </g>
     <g id="text_9">
      <!-- 0.375 -->
      <g transform="translate(54.371875 262.967626) scale(0.1 -0.1)">
       <defs>
        <path id="DejaVuSans-37" d="M 525 4666 
L 3525 4666 
L 3525 4397 
L 1831 0 
L 1172 0 
L 2766 4134 
L 525 4134 
L 525 4666 
z
" transform="scale(0.015625)"/>
       </defs>
       <use xlink:href="#DejaVuSans-30"/>
       <use xlink:href="#DejaVuSans-2e" x="63.623047"/>
       <use xlink:href="#DejaVuSans-33" x="95.410156"/>
       <use xlink:href="#DejaVuSans-37" x="159.033203"/>
       <use xlink:href="#DejaVuSans-35" x="222.65625"/>
      </g>
     </g>
    </g>
    <g id="ytick_3">
     <g id="line2d_17">
      <path d="M 90 226.712674 
L 648 226.712674 
" clip-path="url(#p0e98bc1108)" style="fill: none; stroke: #b0b0b0; stroke-width: 0.8; stroke-linecap: square"/>
     </g>
     <g id="line2d_18">
      <g>
       <use xlink:href="#m59fea73c67" x="90" y="226.712674" style="stroke: #000000; stroke-width: 0.8"/>
      </g>
     </g>
     <g id="text_10">
      <!-- 0.400 -->
      <g transform="translate(54.371875 230.511893) scale(0.1 -0.1)">
       <use xlink:href="#DejaVuSans-30"/>
       <use xlink:href="#DejaVuSans-2e" x="63.623047"/>
       <use xlink:href="#DejaVuSans-34" x="95.410156"/>
       <use xlink:href="#DejaVuSans-30" x="159.033203"/>
       <use xlink:href="#DejaVuSans-30" x="222.65625"/>
      </g>
     </g>
    </g>
    <g id="ytick_4">
     <g id="line2d_19">
      <path d="M 90 194.256941 
L 648 194.256941 
" clip-path="url(#p0e98bc1108)" style="fill: none; stroke: #b0b0b0; stroke-width: 0.8; stroke-linecap: square"/>
     </g>
     <g id="line2d_20">
      <g>
       <use xlink:href="#m59fea73c67" x="90" y="194.256941" style="stroke: #000000; stroke-width: 0.8"/>
      </g>
     </g>
     <g id="text_11">
      <!-- 0.425 -->
      <g transform="translate(54.371875 198.05616) scale(0.1 -0.1)">
       <use xlink:href="#DejaVuSans-30"/>
       <use xlink:href="#DejaVuSans-2e" x="63.623047"/>
       <use xlink:href="#DejaVuSans-34" x="95.410156"/>
       <use xlink:href="#DejaVuSans-32" x="159.033203"/>
       <use xlink:href="#DejaVuSans-35" x="222.65625"/>
      </g>
     </g>
    </g>
    <g id="ytick_5">
     <g id="line2d_21">
      <path d="M 90 161.801208 
L 648 161.801208 
" clip-path="url(#p0e98bc1108)" style="fill: none; stroke: #b0b0b0; stroke-width: 0.8; stroke-linecap: square"/>
     </g>
     <g id="line2d_22">
      <g>
       <use xlink:href="#m59fea73c67" x="90" y="161.801208" style="stroke: #000000; stroke-width: 0.8"/>
      </g>
     </g>
     <g id="text_12">
      <!-- 0.450 -->
      <g transform="translate(54.371875 165.600426) scale(0.1 -0.1)">
       <use xlink:href="#DejaVuSans-30"/>
       <use xlink:href="#DejaVuSans-2e" x="63.623047"/>
       <use xlink:href="#DejaVuSans-34" x="95.410156"/>
       <use xlink:href="#DejaVuSans-35" x="159.033203"/>
       <use xlink:href="#DejaVuSans-30" x="222.65625"/>
      </g>
     </g>
    </g>
    <g id="ytick_6">
     <g id="line2d_23">
      <path d="M 90 129.345474 
L 648 129.345474 
" clip-path="url(#p0e98bc1108)" style="fill: none; stroke: #b0b0b0; stroke-width: 0.8; stroke-linecap: square"/>
     </g>
     <g id="line2d_24">
      <g>
       <use xlink:href="#m59fea73c67" x="90" y="129.345474" style="stroke: #000000; stroke-width: 0.8"/>
      </g>
     </g>
     <g id="text_13">
      <!-- 0.475 -->
      <g transform="translate(54.371875 133.144693) scale(0.1 -0.1)">
       <use xlink:href="#DejaVuSans-30"/>
       <use xlink:href="#DejaVuSans-2e" x="63.623047"/>
       <use xlink:href="#DejaVuSans-34" x="95.410156"/>
       <use xlink:href="#DejaVuSans-37" x="159.033203"/>
       <use xlink:href="#DejaVuSans-35" x="222.65625"/>
      </g>
     </g>
    </g>
    <g id="ytick_7">
     <g id="line2d_25">
      <path d="M 90 96.889741 
L 648 96.889741 
" clip-path="url(#p0e98bc1108)" style="fill: none; stroke: #b0b0b0; stroke-width: 0.8; stroke-linecap: square"/>
     </g>
     <g id="line2d_26">
      <g>
       <use xlink:href="#m59fea73c67" x="90" y="96.889741" style="stroke: #000000; stroke-width: 0.8"/>
      </g>
     </g>
     <g id="text_14">
      <!-- 0.500 -->
      <g transform="translate(54.371875 100.68896) scale(0.1 -0.1)">
       <use xlink:href="#DejaVuSans-30"/>
       <use xlink:href="#DejaVuSans-2e" x="63.623047"/>
       <use xlink:href="#DejaVuSans-35" x="95.410156"/>
       <use xlink:href="#DejaVuSans-30" x="159.033203"/>
       <use xlink:href="#DejaVuSans-30" x="222.65625"/>
      </g>
     </g>
    </g>
    <g id="ytick_8">
     <g id="line2d_27">
      <path d="M 90 64.434008 
L 648 64.434008 
" clip-path="url(#p0e98bc1108)" style="fill: none; stroke: #b0b0b0; stroke-width: 0.8; stroke-linecap: square"/>
     </g>
     <g id="line2d_28">
      <g>
       <use xlink:href="#m59fea73c67" x="90" y="64.434008" style="stroke: #000000; stroke-width: 0.8"/>
      </g>
     </g>
     <g id="text_15">
      <!-- 0.525 -->
      <g transform="translate(54.371875 68.233226) scale(0.1 -0.1)">
       <use xlink:href="#DejaVuSans-30"/>
       <use xlink:href="#DejaVuSans-2e" x="63.623047"/>
       <use xlink:href="#DejaVuSans-35" x="95.410156"/>
       <use xlink:href="#DejaVuSans-32" x="159.033203"/>
       <use xlink:href="#DejaVuSans-35" x="222.65625"/>
      </g>
     </g>
    </g>
    <g id="text_16">
     <!-- accruacy -->
     <g transform="translate(48.292187 204.359375) rotate(-90) scale(0.1 -0.1)">
      <defs>
       <path id="DejaVuSans-61" d="M 2194 1759 
Q 1497 1759 1228 1600 
Q 959 1441 959 1056 
Q 959 750 1161 570 
Q 1363 391 1709 391 
Q 2188 391 2477 730 
Q 2766 1069 2766 1631 
L 2766 1759 
L 2194 1759 
z
M 3341 1997 
L 3341 0 
L 2766 0 
L 2766 531 
Q 2569 213 2275 61 
Q 1981 -91 1556 -91 
Q 1019 -91 701 211 
Q 384 513 384 1019 
Q 384 1609 779 1909 
Q 1175 2209 1959 2209 
L 2766 2209 
L 2766 2266 
Q 2766 2663 2505 2880 
Q 2244 3097 1772 3097 
Q 1472 3097 1187 3025 
Q 903 2953 641 2809 
L 641 3341 
Q 956 3463 1253 3523 
Q 1550 3584 1831 3584 
Q 2591 3584 2966 3190 
Q 3341 2797 3341 1997 
z
" transform="scale(0.015625)"/>
       <path id="DejaVuSans-72" d="M 2631 2963 
Q 2534 3019 2420 3045 
Q 2306 3072 2169 3072 
Q 1681 3072 1420 2755 
Q 1159 2438 1159 1844 
L 1159 0 
L 581 0 
L 581 3500 
L 1159 3500 
L 1159 2956 
Q 1341 3275 1631 3429 
Q 1922 3584 2338 3584 
Q 2397 3584 2469 3576 
Q 2541 3569 2628 3553 
L 2631 2963 
z
" transform="scale(0.015625)"/>
       <path id="DejaVuSans-75" d="M 544 1381 
L 544 3500 
L 1119 3500 
L 1119 1403 
Q 1119 906 1312 657 
Q 1506 409 1894 409 
Q 2359 409 2629 706 
Q 2900 1003 2900 1516 
L 2900 3500 
L 3475 3500 
L 3475 0 
L 2900 0 
L 2900 538 
Q 2691 219 2414 64 
Q 2138 -91 1772 -91 
Q 1169 -91 856 284 
Q 544 659 544 1381 
z
M 1991 3584 
L 1991 3584 
z
" transform="scale(0.015625)"/>
       <path id="DejaVuSans-79" d="M 2059 -325 
Q 1816 -950 1584 -1140 
Q 1353 -1331 966 -1331 
L 506 -1331 
L 506 -850 
L 844 -850 
Q 1081 -850 1212 -737 
Q 1344 -625 1503 -206 
L 1606 56 
L 191 3500 
L 800 3500 
L 1894 763 
L 2988 3500 
L 3597 3500 
L 2059 -325 
z
" transform="scale(0.015625)"/>
      </defs>
      <use xlink:href="#DejaVuSans-61"/>
      <use xlink:href="#DejaVuSans-63" x="61.279297"/>
      <use xlink:href="#DejaVuSans-63" x="116.259766"/>
      <use xlink:href="#DejaVuSans-72" x="171.240234"/>
      <use xlink:href="#DejaVuSans-75" x="212.353516"/>
      <use xlink:href="#DejaVuSans-61" x="275.732422"/>
      <use xlink:href="#DejaVuSans-63" x="337.011719"/>
      <use xlink:href="#DejaVuSans-79" x="391.992188"/>
     </g>
    </g>
   </g>
   <g id="line2d_29">
    <path d="M 115.363636 279.350557 
L 116.380215 252.475265 
L 117.396794 255.493337 
L 118.413372 271.240771 
L 119.429951 262.966668 
L 120.446529 271.240771 
L 121.463108 246.377489 
L 122.479687 268.510129 
L 123.496265 252.475265 
L 124.512844 268.818065 
L 125.529422 275.429107 
L 126.546001 264.527046 
L 127.56258 263.007757 
L 128.579158 253.89187 
L 129.595737 271.281821 
L 130.612316 249.80618 
L 131.628894 271.097037 
L 132.645473 267.401422 
L 133.662051 271.97991 
L 134.67863 265.060855 
L 135.695209 259.845912 
L 136.711787 268.571686 
L 137.728366 269.926773 
L 138.744944 257.587524 
L 139.761523 269.598254 
L 140.778102 256.047652 
L 141.79468 280.06919 
L 142.811259 269.536698 
L 143.827837 254.179339 
L 144.844416 253.460745 
L 145.860995 253.39915 
L 146.877573 265.738399 
L 147.894152 267.97632 
L 148.910731 271.384467 
L 149.927309 272.164656 
L 150.943888 274.115147 
L 151.960466 259.88704 
L 152.977045 251.551303 
L 153.993624 262.186479 
L 155.010202 261.734809 
L 156.026781 290.991795 
L 157.043359 266.847068 
L 158.059938 266.374853 
L 159.076517 263.295187 
L 160.093095 269.536698 
L 161.109674 264.424362 
L 162.126253 273.622388 
L 163.142831 270.070468 
L 164.15941 253.89187 
L 165.175988 277.913408 
L 166.192567 260.66719 
L 167.209146 253.39915 
L 168.225724 270.665873 
L 169.242303 251.695076 
L 170.258881 254.672059 
L 171.27546 271.384467 
L 172.292039 270.070468 
L 173.308617 271.692441 
L 174.325196 249.416066 
L 175.341774 274.997981 
L 176.358353 265.389374 
L 177.374932 254.323073 
L 178.39151 261.69372 
L 179.408089 276.619915 
L 180.424668 263.97273 
L 181.441246 262.576593 
L 182.457825 271.528201 
L 183.474403 274.074097 
L 184.490982 258.490903 
L 185.507561 262.905112 
L 186.524139 253.39915 
L 187.540718 253.009075 
L 188.557296 253.31701 
L 190.590454 268.715381 
L 191.607032 297.664432 
L 192.623611 252.290442 
L 193.640189 270.665873 
L 194.656768 268.42799 
L 195.673347 247.999422 
L 196.689925 274.956892 
L 197.706504 270.953341 
L 198.723083 288.220064 
L 199.739661 265.984739 
L 200.75624 254.323073 
L 201.772818 262.124923 
L 202.789397 262.227568 
L 203.805976 278.139243 
L 204.822554 273.601844 
L 205.839133 270.706962 
L 206.855711 261.755354 
L 207.87229 258.018649 
L 208.888869 274.566778 
L 209.905447 263.726351 
L 210.922026 271.795086 
L 211.938604 273.150174 
L 212.955183 256.170842 
L 213.971762 266.806017 
L 214.98834 272.1852 
L 216.004919 268.469079 
L 217.021498 192.031385 
L 218.038076 237.343741 
L 219.054655 273.047528 
L 220.071233 262.124923 
L 221.087812 255.246957 
L 222.104391 266.477499 
L 223.120969 251.551303 
L 224.137548 251.510253 
L 225.154126 261.69372 
L 226.170705 230.630054 
L 227.187284 265.841044 
L 228.203862 260.851975 
L 229.220441 261.262595 
L 230.237019 264.034287 
L 231.253598 246.336399 
L 232.270177 274.402538 
L 233.286755 269.043939 
L 234.303334 277.010029 
L 235.319913 255.903956 
L 236.336491 263.623667 
L 237.35307 274.813158 
L 238.369648 270.706962 
L 239.386227 249.990926 
L 240.402806 273.78659 
L 241.419384 273.293908 
L 242.435963 262.268618 
L 243.452541 280.028101 
L 244.46912 267.935231 
L 245.485699 257.690169 
L 246.502277 259.743267 
L 247.518856 267.196131 
L 248.535435 252.044062 
L 249.552013 265.841044 
L 250.568592 277.523294 
L 251.58517 265.635753 
L 253.618328 281.239454 
L 254.634906 276.39408 
L 255.651485 266.908701 
L 256.668063 275.77817 
L 257.684642 261.262595 
L 258.701221 251.551303 
L 259.717799 269.043939 
L 260.734378 265.738399 
L 261.750956 271.877226 
L 262.767535 259.147902 
L 263.784114 278.796242 
L 264.800692 270.809607 
L 265.817271 260.728785 
L 266.83385 260.030736 
L 267.850428 269.885684 
L 268.867007 277.543838 
L 269.883585 256.376171 
L 270.900164 263.356782 
L 271.916743 257.115271 
L 272.933321 253.39915 
L 273.9499 262.966668 
L 274.966478 280.356619 
L 275.983057 245.80259 
L 276.999636 257.546474 
L 278.016214 271.692441 
L 279.032793 264.711869 
L 280.049371 268.469079 
L 281.06595 260.133342 
L 282.082529 266.908701 
L 283.099107 267.360371 
L 284.115686 260.564545 
L 285.132265 254.980033 
L 286.148843 271.240771 
L 287.165422 261.550024 
L 288.182 283.8264 
L 289.198579 263.685301 
L 290.215158 263.993236 
L 291.231736 258.716738 
L 292.248315 278.221382 
L 293.264893 260.95462 
L 294.281472 253.39915 
L 295.298051 261.591113 
L 296.314629 253.39915 
L 297.331208 259.147902 
L 298.347786 248.676927 
L 299.364365 271.754036 
L 301.397522 253.39915 
L 302.414101 263.110402 
L 303.43068 262.514998 
L 304.447258 252.475265 
L 305.463837 255.554893 
L 306.480415 266.333803 
L 307.496994 265.28669 
L 308.513573 257.259005 
L 309.530151 257.690169 
L 310.54673 287.090851 
L 311.563308 277.194814 
L 312.579887 279.289001 
L 313.596466 264.075376 
L 314.613044 262.042783 
L 315.629623 273.540287 
L 316.646201 278.714102 
L 317.66278 259.004167 
L 318.679359 267.894181 
L 319.695937 280.171873 
L 320.712516 260.523456 
L 321.729095 275.696031 
L 322.745673 259.784356 
L 323.762252 256.191386 
L 324.77883 271.343416 
L 325.795409 272.657415 
L 326.811988 278.344533 
L 327.828566 274.710551 
L 328.845145 267.155042 
L 329.861723 265.738399 
L 330.878302 260.194976 
L 331.894881 265.492019 
L 332.911459 290.930162 
L 333.928038 251.551303 
L 334.944617 267.586206 
L 335.961195 264.075376 
L 336.977774 262.617682 
L 337.994352 250.442634 
L 339.010931 277.297459 
L 340.02751 271.035442 
L 341.044088 247.609347 
L 342.060667 266.764928 
L 343.077245 272.801149 
L 344.093824 245.083996 
L 345.110403 254.323073 
L 346.126981 266.662322 
L 347.14356 261.447379 
L 348.160138 264.855565 
L 349.176717 277.338548 
L 350.193296 261.139405 
L 351.209874 251.941417 
L 352.226453 274.074097 
L 353.243032 258.039194 
L 354.25961 265.101944 
L 355.276189 256.766285 
L 356.292767 260.66719 
L 357.309346 272.842199 
L 358.325925 277.194814 
L 359.342503 267.647801 
L 360.359082 246.644374 
L 361.37566 255.349603 
L 362.392239 254.13825 
L 363.408818 267.647801 
L 364.425396 259.599533 
L 365.441975 265.69731 
L 366.458553 252.475265 
L 367.475132 255.246957 
L 368.491711 250.812204 
L 369.508289 254.384629 
L 370.524868 269.967823 
L 371.541447 269.351874 
L 372.558025 264.280666 
L 373.574604 260.030736 
L 374.591182 260.810925 
L 375.607761 255.246957 
L 376.62434 277.831307 
L 377.640918 258.716738 
L 378.657497 262.905112 
L 379.674075 255.637032 
L 380.690654 249.703496 
L 381.707233 260.523456 
L 382.723811 257.792814 
L 383.74039 277.400104 
L 384.756968 257.936549 
L 385.773547 277.441193 
L 387.806704 257.792814 
L 388.823283 256.868891 
L 389.839862 251.263874 
L 390.85644 263.397871 
L 391.873019 287.973724 
L 392.889597 263.541566 
L 393.906176 268.325306 
L 394.922755 260.236026 
L 395.939333 253.070631 
L 396.955912 270.994392 
L 397.97249 271.446062 
L 398.989069 260.66719 
L 400.005648 267.586206 
L 401.022226 261.016215 
L 402.038805 261.057304 
L 403.055383 253.214365 
L 404.071962 256.90998 
L 405.088541 249.703496 
L 406.105119 255.246957 
L 407.121698 281.978553 
L 408.138277 282.799831 
L 409.154855 271.836137 
L 410.171434 252.003012 
L 411.188012 270.275759 
L 412.204591 265.841044 
L 413.22117 263.644173 
L 414.237748 265.882133 
L 415.254327 264.09592 
L 416.270905 267.586206 
L 417.287484 271.671897 
L 418.304063 274.710551 
L 419.320641 275.388056 
L 420.33722 280.418176 
L 422.370377 245.083996 
L 423.386956 248.143157 
L 424.403534 278.077648 
L 425.420113 266.128512 
L 426.436692 271.240771 
L 427.45327 272.657415 
L 428.469849 279.289001 
L 429.486427 253.255454 
L 430.503006 263.828996 
L 431.519585 269.885684 
L 432.536163 297.027938 
L 433.552742 274.012463 
L 434.56932 286.064282 
L 435.585899 259.496926 
L 436.602478 286.166966 
L 437.619056 259.640661 
L 440.668792 274.217792 
L 441.685371 268.325306 
L 442.701949 255.123768 
L 443.718528 262.617682 
L 444.735107 258.223978 
L 445.751685 264.21911 
L 446.768264 279.53538 
L 447.784842 256.232437 
L 448.801421 252.495771 
L 449.818 262.186479 
L 450.834578 258.039194 
L 451.851157 266.025829 
L 452.867735 268.530635 
L 453.884314 265.882133 
L 454.900893 265.594664 
L 455.917471 261.796404 
L 456.93405 269.680393 
L 457.950629 260.523456 
L 458.967207 256.170842 
L 459.983786 267.68889 
L 461.000364 253.89187 
L 462.016943 266.415942 
L 463.033522 269.434014 
L 464.0501 256.273526 
L 465.066679 250.196255 
L 466.083257 271.97991 
L 467.099836 257.690169 
L 468.116415 270.809607 
L 469.132993 265.594664 
L 470.149572 267.401422 
L 471.16615 272.513719 
L 472.182729 248.779611 
L 473.199308 271.199721 
L 474.215886 269.885684 
L 475.232465 275.737081 
L 476.249044 273.683983 
L 477.265622 254.13825 
L 478.282201 256.478816 
L 479.298779 245.022401 
L 480.315358 266.272208 
L 481.331937 270.563227 
L 482.348515 281.773263 
L 483.365094 261.981189 
L 484.381672 270.111519 
L 485.398251 284.462893 
L 486.41483 279.576431 
L 487.431408 277.051118 
L 488.447987 259.558483 
L 489.464565 258.121333 
L 490.481144 267.68889 
L 491.497723 260.420811 
L 492.514301 266.128512 
L 493.53088 253.89187 
L 494.547459 282.368667 
L 495.564037 269.187634 
L 496.580616 268.407446 
L 497.597194 273.150174 
L 498.613773 255.883412 
L 499.630352 260.133342 
L 500.64693 289.924176 
L 501.663509 251.551303 
L 502.680087 255.246957 
L 503.696666 258.265029 
L 504.713245 260.626101 
L 505.729823 254.240895 
L 506.746402 254.528325 
L 507.762981 265.57412 
L 508.779559 279.206861 
L 509.796138 253.89187 
L 510.812716 262.227568 
L 511.829295 263.890552 
L 512.845874 256.519905 
L 513.862452 254.323073 
L 514.879031 252.475265 
L 515.895609 261.734809 
L 516.912188 269.844634 
L 517.928767 252.003012 
L 518.945345 260.810925 
L 519.961924 260.379722 
L 520.978502 245.083996 
L 521.995081 263.993236 
L 523.01166 249.703496 
L 524.028238 253.39915 
L 525.044817 256.622512 
L 526.061396 279.432735 
L 527.077974 270.070468 
L 528.094553 272.328896 
L 529.111131 286.803421 
L 530.12771 263.890552 
L 531.144289 255.883412 
L 533.177446 276.763649 
L 534.194024 262.042783 
L 535.210603 268.612775 
L 536.227182 260.66719 
L 537.24376 260.092292 
L 538.260339 264.711869 
L 539.276917 263.110402 
L 540.293496 259.455837 
L 541.310075 271.73353 
L 542.326653 272.965389 
L 543.343232 260.174431 
L 544.359811 272.821655 
L 545.376389 278.365116 
L 546.392968 260.092292 
L 547.409546 271.774581 
L 548.426125 266.169563 
L 549.442704 282.081237 
L 550.459282 251.551303 
L 551.475861 272.411035 
L 552.492439 261.262595 
L 553.509018 262.905112 
L 554.525597 280.746695 
L 555.542175 273.683983 
L 556.558754 282.840882 
L 557.575332 269.043939 
L 558.591911 278.898926 
L 559.60849 280.952024 
L 560.625068 250.627419 
L 561.641647 265.53307 
L 562.658226 259.250547 
L 563.674804 263.787946 
L 564.691383 263.890552 
L 565.707961 250.627419 
L 566.72454 266.374853 
L 567.741119 248.779611 
L 568.757697 268.120016 
L 570.790854 254.281945 
L 571.807433 269.783077 
L 572.824012 272.965389 
L 573.84059 266.415942 
L 574.857169 250.627419 
L 575.873747 254.323073 
L 576.890326 255.903956 
L 577.906905 269.105495 
L 578.923483 257.402701 
L 579.940062 266.559638 
L 580.956641 246.931804 
L 581.973219 262.330213 
L 582.989798 257.094765 
L 584.006376 281.773263 
L 585.022955 257.012625 
L 586.039534 255.246957 
L 587.056112 265.307235 
L 588.072691 259.702217 
L 589.089269 270.912252 
L 590.105848 269.680393 
L 591.122427 286.741826 
L 592.139005 259.250547 
L 593.155584 253.39915 
L 594.172163 256.90998 
L 595.188741 259.989647 
L 596.20532 262.124923 
L 597.221898 270.214203 
L 598.238477 271.938821 
L 599.255056 264.568135 
L 600.271634 294.39998 
L 601.288213 272.30839 
L 602.304791 257.89546 
L 603.32137 269.577709 
L 604.337949 269.351874 
L 605.354527 277.584927 
L 606.371106 257.07422 
L 607.387684 257.587524 
L 608.404263 256.663601 
L 609.420842 282.553452 
L 610.43742 264.424362 
L 611.453999 272.000415 
L 612.470578 259.065724 
L 613.487156 255.246957 
L 614.503735 275.49074 
L 615.520313 265.142994 
L 616.536892 257.012625 
L 617.553471 270.953341 
L 618.570049 253.39915 
L 619.586628 274.279349 
L 620.603206 268.42799 
L 621.619785 259.455837 
L 622.636364 262.268618 
L 622.636364 262.268618 
" clip-path="url(#p0e98bc1108)" style="fill: none; stroke: #1f77b4; stroke-width: 1.5; stroke-linecap: square"/>
   </g>
   <g id="line2d_30">
    <path d="M 115.363636 219.639006 
L 116.380215 307.8 
L 117.396794 307.8 
L 118.413372 219.639006 
L 119.429951 307.8 
L 120.446529 219.639006 
L 121.463108 307.8 
L 122.479687 219.639006 
L 123.496265 307.8 
L 124.512844 219.639006 
L 128.579158 219.639006 
L 129.595737 307.8 
L 130.612316 219.639006 
L 131.628894 219.639006 
L 132.645473 307.8 
L 133.662051 219.639006 
L 142.811259 219.639006 
L 143.827837 307.8 
L 144.844416 219.639006 
L 148.910731 219.639006 
L 149.927309 307.8 
L 150.943888 307.8 
L 151.960466 219.639006 
L 153.993624 219.639006 
L 155.010202 307.8 
L 156.026781 219.639006 
L 167.209146 219.639006 
L 168.225724 307.8 
L 169.242303 219.639006 
L 170.258881 307.8 
L 172.292039 307.8 
L 173.308617 219.639006 
L 177.374932 219.639006 
L 178.39151 307.8 
L 179.408089 219.639006 
L 186.524139 219.639006 
L 187.540718 307.8 
L 188.557296 219.639006 
L 189.573875 219.639006 
L 190.590454 307.8 
L 191.607032 219.639006 
L 192.623611 219.639006 
L 193.640189 307.8 
L 194.656768 219.639006 
L 204.822554 219.639006 
L 205.839133 307.8 
L 206.855711 219.639006 
L 207.87229 307.8 
L 208.888869 307.8 
L 209.905447 219.639006 
L 211.938604 219.639006 
L 212.955183 307.8 
L 213.971762 307.8 
L 214.98834 219.639006 
L 216.004919 219.639006 
L 217.021498 55.8 
L 218.038076 307.8 
L 219.054655 307.8 
L 220.071233 219.639006 
L 225.154126 219.639006 
L 226.170705 307.8 
L 227.187284 219.639006 
L 231.253598 219.639006 
L 232.270177 307.8 
L 233.286755 219.639006 
L 238.369648 219.639006 
L 239.386227 307.8 
L 240.402806 219.639006 
L 241.419384 219.639006 
L 242.435963 307.8 
L 243.452541 219.639006 
L 248.535435 219.639006 
L 249.552013 307.8 
L 250.568592 219.639006 
L 251.58517 307.8 
L 252.601749 219.639006 
L 272.933321 219.639006 
L 273.9499 307.8 
L 275.983057 307.8 
L 276.999636 219.639006 
L 278.016214 219.639006 
L 279.032793 307.8 
L 280.049371 219.639006 
L 283.099107 219.639006 
L 284.115686 307.8 
L 285.132265 219.639006 
L 286.148843 307.8 
L 287.165422 219.639006 
L 290.215158 219.639006 
L 291.231736 307.8 
L 292.248315 219.639006 
L 305.463837 219.639006 
L 306.480415 307.8 
L 310.54673 307.8 
L 311.563308 219.639006 
L 312.579887 219.639006 
L 313.596466 307.8 
L 314.613044 307.8 
L 315.629623 219.639006 
L 316.646201 307.8 
L 317.66278 219.639006 
L 321.729095 219.639006 
L 322.745673 307.8 
L 323.762252 307.8 
L 324.77883 219.639006 
L 326.811988 219.639006 
L 327.828566 307.8 
L 328.845145 219.639006 
L 337.994352 219.639006 
L 339.010931 307.8 
L 340.02751 219.639006 
L 349.176717 219.639006 
L 350.193296 307.8 
L 351.209874 219.639006 
L 352.226453 307.8 
L 353.243032 219.639006 
L 356.292767 219.639006 
L 357.309346 307.8 
L 358.325925 307.8 
L 359.342503 219.639006 
L 360.359082 219.639006 
L 361.37566 307.8 
L 362.392239 219.639006 
L 363.408818 307.8 
L 364.425396 219.639006 
L 367.475132 219.639006 
L 368.491711 307.8 
L 369.508289 219.639006 
L 377.640918 219.639006 
L 378.657497 307.8 
L 379.674075 219.639006 
L 388.823283 219.639006 
L 389.839862 307.8 
L 390.85644 219.639006 
L 392.889597 219.639006 
L 393.906176 307.8 
L 394.922755 219.639006 
L 406.105119 219.639006 
L 407.121698 307.8 
L 408.138277 219.639006 
L 410.171434 219.639006 
L 411.188012 307.8 
L 412.204591 219.639006 
L 413.22117 219.639006 
L 414.237748 307.8 
L 415.254327 219.639006 
L 417.287484 219.639006 
L 418.304063 307.8 
L 419.320641 219.639006 
L 422.370377 219.639006 
L 423.386956 307.8 
L 424.403534 219.639006 
L 426.436692 219.639006 
L 427.45327 307.8 
L 428.469849 219.639006 
L 431.519585 219.639006 
L 432.536163 307.8 
L 433.552742 307.8 
L 434.56932 219.639006 
L 435.585899 307.8 
L 436.602478 219.639006 
L 438.635635 219.639006 
L 439.652214 307.8 
L 441.685371 307.8 
L 442.701949 219.639006 
L 449.818 219.639006 
L 450.834578 307.8 
L 451.851157 307.8 
L 452.867735 219.639006 
L 453.884314 307.8 
L 454.900893 307.8 
L 455.917471 219.639006 
L 456.93405 307.8 
L 457.950629 219.639006 
L 461.000364 219.639006 
L 462.016943 307.8 
L 463.033522 219.639006 
L 466.083257 219.639006 
L 467.099836 307.8 
L 468.116415 219.639006 
L 479.298779 219.639006 
L 480.315358 307.8 
L 481.331937 219.639006 
L 482.348515 307.8 
L 483.365094 219.639006 
L 484.381672 307.8 
L 485.398251 307.8 
L 486.41483 219.639006 
L 490.481144 219.639006 
L 491.497723 307.8 
L 492.514301 219.639006 
L 493.53088 219.639006 
L 494.547459 307.8 
L 495.564037 219.639006 
L 496.580616 307.8 
L 497.597194 219.639006 
L 502.680087 219.639006 
L 503.696666 307.8 
L 504.713245 219.639006 
L 515.895609 219.639006 
L 516.912188 307.8 
L 517.928767 219.639006 
L 518.945345 307.8 
L 519.961924 219.639006 
L 523.01166 219.639006 
L 524.028238 307.8 
L 525.044817 219.639006 
L 526.061396 219.639006 
L 527.077974 307.8 
L 528.094553 307.8 
L 529.111131 219.639006 
L 530.12771 219.639006 
L 531.144289 307.8 
L 532.160867 219.639006 
L 540.293496 219.639006 
L 541.310075 307.8 
L 542.326653 219.639006 
L 546.392968 219.639006 
L 547.409546 307.8 
L 548.426125 219.639006 
L 553.509018 219.639006 
L 554.525597 307.8 
L 555.542175 219.639006 
L 569.774276 219.639006 
L 570.790854 307.8 
L 571.807433 219.639006 
L 590.105848 219.639006 
L 591.122427 307.8 
L 592.139005 219.639006 
L 593.155584 219.639006 
L 594.172163 307.8 
L 595.188741 219.639006 
L 596.20532 219.639006 
L 597.221898 307.8 
L 598.238477 219.639006 
L 599.255056 307.8 
L 600.271634 219.639006 
L 601.288213 307.8 
L 602.304791 219.639006 
L 606.371106 219.639006 
L 607.387684 307.8 
L 608.404263 307.8 
L 609.420842 219.639006 
L 614.503735 219.639006 
L 615.520313 307.8 
L 616.536892 307.8 
L 617.553471 219.639006 
L 621.619785 219.639006 
L 622.636364 307.8 
L 622.636364 307.8 
" clip-path="url(#p0e98bc1108)" style="fill: none; stroke: #ff7f0e; stroke-width: 1.5; stroke-linecap: square"/>
   </g>
   <g id="patch_3">
    <path d="M 90 320.4 
L 90 43.2 
" style="fill: none; stroke: #000000; stroke-width: 0.8; stroke-linejoin: miter; stroke-linecap: square"/>
   </g>
   <g id="patch_4">
    <path d="M 648 320.4 
L 648 43.2 
" style="fill: none; stroke: #000000; stroke-width: 0.8; stroke-linejoin: miter; stroke-linecap: square"/>
   </g>
   <g id="patch_5">
    <path d="M 90 320.4 
L 648 320.4 
" style="fill: none; stroke: #000000; stroke-width: 0.8; stroke-linejoin: miter; stroke-linecap: square"/>
   </g>
   <g id="patch_6">
    <path d="M 90 43.2 
L 648 43.2 
" style="fill: none; stroke: #000000; stroke-width: 0.8; stroke-linejoin: miter; stroke-linecap: square"/>
   </g>
   <g id="text_17">
    <!-- model train and validation accracy over time -->
    <g transform="translate(233.87625 37.2) scale(0.12 -0.12)">
     <defs>
      <path id="DejaVuSans-6d" d="M 3328 2828 
Q 3544 3216 3844 3400 
Q 4144 3584 4550 3584 
Q 5097 3584 5394 3201 
Q 5691 2819 5691 2113 
L 5691 0 
L 5113 0 
L 5113 2094 
Q 5113 2597 4934 2840 
Q 4756 3084 4391 3084 
Q 3944 3084 3684 2787 
Q 3425 2491 3425 1978 
L 3425 0 
L 2847 0 
L 2847 2094 
Q 2847 2600 2669 2842 
Q 2491 3084 2119 3084 
Q 1678 3084 1418 2786 
Q 1159 2488 1159 1978 
L 1159 0 
L 581 0 
L 581 3500 
L 1159 3500 
L 1159 2956 
Q 1356 3278 1631 3431 
Q 1906 3584 2284 3584 
Q 2666 3584 2933 3390 
Q 3200 3197 3328 2828 
z
" transform="scale(0.015625)"/>
      <path id="DejaVuSans-64" d="M 2906 2969 
L 2906 4863 
L 3481 4863 
L 3481 0 
L 2906 0 
L 2906 525 
Q 2725 213 2448 61 
Q 2172 -91 1784 -91 
Q 1150 -91 751 415 
Q 353 922 353 1747 
Q 353 2572 751 3078 
Q 1150 3584 1784 3584 
Q 2172 3584 2448 3432 
Q 2725 3281 2906 2969 
z
M 947 1747 
Q 947 1113 1208 752 
Q 1469 391 1925 391 
Q 2381 391 2643 752 
Q 2906 1113 2906 1747 
Q 2906 2381 2643 2742 
Q 2381 3103 1925 3103 
Q 1469 3103 1208 2742 
Q 947 2381 947 1747 
z
" transform="scale(0.015625)"/>
      <path id="DejaVuSans-6c" d="M 603 4863 
L 1178 4863 
L 1178 0 
L 603 0 
L 603 4863 
z
" transform="scale(0.015625)"/>
      <path id="DejaVuSans-20" transform="scale(0.015625)"/>
      <path id="DejaVuSans-74" d="M 1172 4494 
L 1172 3500 
L 2356 3500 
L 2356 3053 
L 1172 3053 
L 1172 1153 
Q 1172 725 1289 603 
Q 1406 481 1766 481 
L 2356 481 
L 2356 0 
L 1766 0 
Q 1100 0 847 248 
Q 594 497 594 1153 
L 594 3053 
L 172 3053 
L 172 3500 
L 594 3500 
L 594 4494 
L 1172 4494 
z
" transform="scale(0.015625)"/>
      <path id="DejaVuSans-69" d="M 603 3500 
L 1178 3500 
L 1178 0 
L 603 0 
L 603 3500 
z
M 603 4863 
L 1178 4863 
L 1178 4134 
L 603 4134 
L 603 4863 
z
" transform="scale(0.015625)"/>
      <path id="DejaVuSans-6e" d="M 3513 2113 
L 3513 0 
L 2938 0 
L 2938 2094 
Q 2938 2591 2744 2837 
Q 2550 3084 2163 3084 
Q 1697 3084 1428 2787 
Q 1159 2491 1159 1978 
L 1159 0 
L 581 0 
L 581 3500 
L 1159 3500 
L 1159 2956 
Q 1366 3272 1645 3428 
Q 1925 3584 2291 3584 
Q 2894 3584 3203 3211 
Q 3513 2838 3513 2113 
z
" transform="scale(0.015625)"/>
      <path id="DejaVuSans-76" d="M 191 3500 
L 800 3500 
L 1894 563 
L 2988 3500 
L 3597 3500 
L 2284 0 
L 1503 0 
L 191 3500 
z
" transform="scale(0.015625)"/>
     </defs>
     <use xlink:href="#DejaVuSans-6d"/>
     <use xlink:href="#DejaVuSans-6f" x="97.412109"/>
     <use xlink:href="#DejaVuSans-64" x="158.59375"/>
     <use xlink:href="#DejaVuSans-65" x="222.070312"/>
     <use xlink:href="#DejaVuSans-6c" x="283.59375"/>
     <use xlink:href="#DejaVuSans-20" x="311.376953"/>
     <use xlink:href="#DejaVuSans-74" x="343.164062"/>
     <use xlink:href="#DejaVuSans-72" x="382.373047"/>
     <use xlink:href="#DejaVuSans-61" x="423.486328"/>
     <use xlink:href="#DejaVuSans-69" x="484.765625"/>
     <use xlink:href="#DejaVuSans-6e" x="512.548828"/>
     <use xlink:href="#DejaVuSans-20" x="575.927734"/>
     <use xlink:href="#DejaVuSans-61" x="607.714844"/>
     <use xlink:href="#DejaVuSans-6e" x="668.994141"/>
     <use xlink:href="#DejaVuSans-64" x="732.373047"/>
     <use xlink:href="#DejaVuSans-20" x="795.849609"/>
     <use xlink:href="#DejaVuSans-76" x="827.636719"/>
     <use xlink:href="#DejaVuSans-61" x="886.816406"/>
     <use xlink:href="#DejaVuSans-6c" x="948.095703"/>
     <use xlink:href="#DejaVuSans-69" x="975.878906"/>
     <use xlink:href="#DejaVuSans-64" x="1003.662109"/>
     <use xlink:href="#DejaVuSans-61" x="1067.138672"/>
     <use xlink:href="#DejaVuSans-74" x="1128.417969"/>
     <use xlink:href="#DejaVuSans-69" x="1167.626953"/>
     <use xlink:href="#DejaVuSans-6f" x="1195.410156"/>
     <use xlink:href="#DejaVuSans-6e" x="1256.591797"/>
     <use xlink:href="#DejaVuSans-20" x="1319.970703"/>
     <use xlink:href="#DejaVuSans-61" x="1351.757812"/>
     <use xlink:href="#DejaVuSans-63" x="1413.037109"/>
     <use xlink:href="#DejaVuSans-63" x="1468.017578"/>
     <use xlink:href="#DejaVuSans-72" x="1522.998047"/>
     <use xlink:href="#DejaVuSans-61" x="1564.111328"/>
     <use xlink:href="#DejaVuSans-63" x="1625.390625"/>
     <use xlink:href="#DejaVuSans-79" x="1680.371094"/>
     <use xlink:href="#DejaVuSans-20" x="1739.550781"/>
     <use xlink:href="#DejaVuSans-6f" x="1771.337891"/>
     <use xlink:href="#DejaVuSans-76" x="1832.519531"/>
     <use xlink:href="#DejaVuSans-65" x="1891.699219"/>
     <use xlink:href="#DejaVuSans-72" x="1953.222656"/>
     <use xlink:href="#DejaVuSans-20" x="1994.335938"/>
     <use xlink:href="#DejaVuSans-74" x="2026.123047"/>
     <use xlink:href="#DejaVuSans-69" x="2065.332031"/>
     <use xlink:href="#DejaVuSans-6d" x="2093.115234"/>
     <use xlink:href="#DejaVuSans-65" x="2190.527344"/>
    </g>
   </g>
   <g id="legend_1">
    <g id="patch_7">
     <path d="M 559.765625 80.55625 
L 641 80.55625 
Q 643 80.55625 643 78.55625 
L 643 50.2 
Q 643 48.2 641 48.2 
L 559.765625 48.2 
Q 557.765625 48.2 557.765625 50.2 
L 557.765625 78.55625 
Q 557.765625 80.55625 559.765625 80.55625 
z
" style="fill: #ffffff; opacity: 0.8; stroke: #cccccc; stroke-linejoin: miter"/>
    </g>
    <g id="line2d_31">
     <path d="M 561.765625 56.298437 
L 571.765625 56.298437 
L 581.765625 56.298437 
" style="fill: none; stroke: #1f77b4; stroke-width: 1.5; stroke-linecap: square"/>
    </g>
    <g id="text_18">
     <!-- train -->
     <g transform="translate(589.765625 59.798437) scale(0.1 -0.1)">
      <use xlink:href="#DejaVuSans-74"/>
      <use xlink:href="#DejaVuSans-72" x="39.208984"/>
      <use xlink:href="#DejaVuSans-61" x="80.322266"/>
      <use xlink:href="#DejaVuSans-69" x="141.601562"/>
      <use xlink:href="#DejaVuSans-6e" x="169.384766"/>
     </g>
    </g>
    <g id="line2d_32">
     <path d="M 561.765625 70.976562 
L 571.765625 70.976562 
L 581.765625 70.976562 
" style="fill: none; stroke: #ff7f0e; stroke-width: 1.5; stroke-linecap: square"/>
    </g>
    <g id="text_19">
     <!-- validation -->
     <g transform="translate(589.765625 74.476562) scale(0.1 -0.1)">
      <use xlink:href="#DejaVuSans-76"/>
      <use xlink:href="#DejaVuSans-61" x="59.179688"/>
      <use xlink:href="#DejaVuSans-6c" x="120.458984"/>
      <use xlink:href="#DejaVuSans-69" x="148.242188"/>
      <use xlink:href="#DejaVuSans-64" x="176.025391"/>
      <use xlink:href="#DejaVuSans-61" x="239.501953"/>
      <use xlink:href="#DejaVuSans-74" x="300.78125"/>
      <use xlink:href="#DejaVuSans-69" x="339.990234"/>
      <use xlink:href="#DejaVuSans-6f" x="367.773438"/>
      <use xlink:href="#DejaVuSans-6e" x="428.955078"/>
     </g>
    </g>
   </g>
  </g>
 </g>
 <defs>
  <clipPath id="p0e98bc1108">
   <rect x="90" y="43.2" width="558" height="277.2"/>
  </clipPath>
 </defs>
</svg>
