<?xml version="1.0" encoding="utf-8" standalone="no"?>
<!DOCTYPE svg PUBLIC "-//W3C//DTD SVG 1.1//EN"
  "http://www.w3.org/Graphics/SVG/1.1/DTD/svg11.dtd">
<svg xmlns:xlink="http://www.w3.org/1999/xlink" width="720pt" height="360pt" viewBox="0 0 720 360" xmlns="http://www.w3.org/2000/svg" version="1.1">
 <metadata>
  <rdf:RDF xmlns:dc="http://purl.org/dc/elements/1.1/" xmlns:cc="http://creativecommons.org/ns#" xmlns:rdf="http://www.w3.org/1999/02/22-rdf-syntax-ns#">
   <cc:Work>
    <dc:type rdf:resource="http://purl.org/dc/dcmitype/StillImage"/>
    <dc:date>2023-05-24T12:12:17.005285</dc:date>
    <dc:format>image/svg+xml</dc:format>
    <dc:creator>
     <cc:Agent>
      <dc:title>Matplotlib v3.7.1, https://matplotlib.org/</dc:title>
     </cc:Agent>
    </dc:creator>
   </cc:Work>
  </rdf:RDF>
 </metadata>
 <defs>
  <style type="text/css">*{stroke-linejoin: round; stroke-linecap: butt}</style>
 </defs>
 <g id="figure_1">
  <g id="patch_1">
   <path d="M 0 360 
L 720 360 
L 720 0 
L 0 0 
z
" style="fill: #ffffff"/>
  </g>
  <g id="axes_1">
   <g id="patch_2">
    <path d="M 90 320.4 
L 648 320.4 
L 648 43.2 
L 90 43.2 
z
" style="fill: #ffffff"/>
   </g>
   <g id="matplotlib.axis_1">
    <g id="xtick_1">
     <g id="line2d_1">
      <path d="M 115.363636 320.4 
L 115.363636 43.2 
" clip-path="url(#p8ca2d841d5)" style="fill: none; stroke: #b0b0b0; stroke-width: 0.8; stroke-linecap: square"/>
     </g>
     <g id="line2d_2">
      <defs>
       <path id="m9acd9d22df" d="M 0 0 
L 0 3.5 
" style="stroke: #000000; stroke-width: 0.8"/>
      </defs>
      <g>
       <use xlink:href="#m9acd9d22df" x="115.363636" y="320.4" style="stroke: #000000; stroke-width: 0.8"/>
      </g>
     </g>
     <g id="text_1">
      <!-- 0 -->
      <g transform="translate(112.182386 334.998438) scale(0.1 -0.1)">
       <defs>
        <path id="DejaVuSans-30" d="M 2034 4250 
Q 1547 4250 1301 3770 
Q 1056 3291 1056 2328 
Q 1056 1369 1301 889 
Q 1547 409 2034 409 
Q 2525 409 2770 889 
Q 3016 1369 3016 2328 
Q 3016 3291 2770 3770 
Q 2525 4250 2034 4250 
z
M 2034 4750 
Q 2819 4750 3233 4129 
Q 3647 3509 3647 2328 
Q 3647 1150 3233 529 
Q 2819 -91 2034 -91 
Q 1250 -91 836 529 
Q 422 1150 422 2328 
Q 422 3509 836 4129 
Q 1250 4750 2034 4750 
z
" transform="scale(0.015625)"/>
       </defs>
       <use xlink:href="#DejaVuSans-30"/>
      </g>
     </g>
    </g>
    <g id="xtick_2">
     <g id="line2d_3">
      <path d="M 217.021498 320.4 
L 217.021498 43.2 
" clip-path="url(#p8ca2d841d5)" style="fill: none; stroke: #b0b0b0; stroke-width: 0.8; stroke-linecap: square"/>
     </g>
     <g id="line2d_4">
      <g>
       <use xlink:href="#m9acd9d22df" x="217.021498" y="320.4" style="stroke: #000000; stroke-width: 0.8"/>
      </g>
     </g>
     <g id="text_2">
      <!-- 100 -->
      <g transform="translate(207.477748 334.998438) scale(0.1 -0.1)">
       <defs>
        <path id="DejaVuSans-31" d="M 794 531 
L 1825 531 
L 1825 4091 
L 703 3866 
L 703 4441 
L 1819 4666 
L 2450 4666 
L 2450 531 
L 3481 531 
L 3481 0 
L 794 0 
L 794 531 
z
" transform="scale(0.015625)"/>
       </defs>
       <use xlink:href="#DejaVuSans-31"/>
       <use xlink:href="#DejaVuSans-30" x="63.623047"/>
       <use xlink:href="#DejaVuSans-30" x="127.246094"/>
      </g>
     </g>
    </g>
    <g id="xtick_3">
     <g id="line2d_5">
      <path d="M 318.679359 320.4 
L 318.679359 43.2 
" clip-path="url(#p8ca2d841d5)" style="fill: none; stroke: #b0b0b0; stroke-width: 0.8; stroke-linecap: square"/>
     </g>
     <g id="line2d_6">
      <g>
       <use xlink:href="#m9acd9d22df" x="318.679359" y="320.4" style="stroke: #000000; stroke-width: 0.8"/>
      </g>
     </g>
     <g id="text_3">
      <!-- 200 -->
      <g transform="translate(309.135609 334.998438) scale(0.1 -0.1)">
       <defs>
        <path id="DejaVuSans-32" d="M 1228 531 
L 3431 531 
L 3431 0 
L 469 0 
L 469 531 
Q 828 903 1448 1529 
Q 2069 2156 2228 2338 
Q 2531 2678 2651 2914 
Q 2772 3150 2772 3378 
Q 2772 3750 2511 3984 
Q 2250 4219 1831 4219 
Q 1534 4219 1204 4116 
Q 875 4013 500 3803 
L 500 4441 
Q 881 4594 1212 4672 
Q 1544 4750 1819 4750 
Q 2544 4750 2975 4387 
Q 3406 4025 3406 3419 
Q 3406 3131 3298 2873 
Q 3191 2616 2906 2266 
Q 2828 2175 2409 1742 
Q 1991 1309 1228 531 
z
" transform="scale(0.015625)"/>
       </defs>
       <use xlink:href="#DejaVuSans-32"/>
       <use xlink:href="#DejaVuSans-30" x="63.623047"/>
       <use xlink:href="#DejaVuSans-30" x="127.246094"/>
      </g>
     </g>
    </g>
    <g id="xtick_4">
     <g id="line2d_7">
      <path d="M 420.33722 320.4 
L 420.33722 43.2 
" clip-path="url(#p8ca2d841d5)" style="fill: none; stroke: #b0b0b0; stroke-width: 0.8; stroke-linecap: square"/>
     </g>
     <g id="line2d_8">
      <g>
       <use xlink:href="#m9acd9d22df" x="420.33722" y="320.4" style="stroke: #000000; stroke-width: 0.8"/>
      </g>
     </g>
     <g id="text_4">
      <!-- 300 -->
      <g transform="translate(410.79347 334.998438) scale(0.1 -0.1)">
       <defs>
        <path id="DejaVuSans-33" d="M 2597 2516 
Q 3050 2419 3304 2112 
Q 3559 1806 3559 1356 
Q 3559 666 3084 287 
Q 2609 -91 1734 -91 
Q 1441 -91 1130 -33 
Q 819 25 488 141 
L 488 750 
Q 750 597 1062 519 
Q 1375 441 1716 441 
Q 2309 441 2620 675 
Q 2931 909 2931 1356 
Q 2931 1769 2642 2001 
Q 2353 2234 1838 2234 
L 1294 2234 
L 1294 2753 
L 1863 2753 
Q 2328 2753 2575 2939 
Q 2822 3125 2822 3475 
Q 2822 3834 2567 4026 
Q 2313 4219 1838 4219 
Q 1578 4219 1281 4162 
Q 984 4106 628 3988 
L 628 4550 
Q 988 4650 1302 4700 
Q 1616 4750 1894 4750 
Q 2613 4750 3031 4423 
Q 3450 4097 3450 3541 
Q 3450 3153 3228 2886 
Q 3006 2619 2597 2516 
z
" transform="scale(0.015625)"/>
       </defs>
       <use xlink:href="#DejaVuSans-33"/>
       <use xlink:href="#DejaVuSans-30" x="63.623047"/>
       <use xlink:href="#DejaVuSans-30" x="127.246094"/>
      </g>
     </g>
    </g>
    <g id="xtick_5">
     <g id="line2d_9">
      <path d="M 521.995081 320.4 
L 521.995081 43.2 
" clip-path="url(#p8ca2d841d5)" style="fill: none; stroke: #b0b0b0; stroke-width: 0.8; stroke-linecap: square"/>
     </g>
     <g id="line2d_10">
      <g>
       <use xlink:href="#m9acd9d22df" x="521.995081" y="320.4" style="stroke: #000000; stroke-width: 0.8"/>
      </g>
     </g>
     <g id="text_5">
      <!-- 400 -->
      <g transform="translate(512.451331 334.998438) scale(0.1 -0.1)">
       <defs>
        <path id="DejaVuSans-34" d="M 2419 4116 
L 825 1625 
L 2419 1625 
L 2419 4116 
z
M 2253 4666 
L 3047 4666 
L 3047 1625 
L 3713 1625 
L 3713 1100 
L 3047 1100 
L 3047 0 
L 2419 0 
L 2419 1100 
L 313 1100 
L 313 1709 
L 2253 4666 
z
" transform="scale(0.015625)"/>
       </defs>
       <use xlink:href="#DejaVuSans-34"/>
       <use xlink:href="#DejaVuSans-30" x="63.623047"/>
       <use xlink:href="#DejaVuSans-30" x="127.246094"/>
      </g>
     </g>
    </g>
    <g id="xtick_6">
     <g id="line2d_11">
      <path d="M 623.652942 320.4 
L 623.652942 43.2 
" clip-path="url(#p8ca2d841d5)" style="fill: none; stroke: #b0b0b0; stroke-width: 0.8; stroke-linecap: square"/>
     </g>
     <g id="line2d_12">
      <g>
       <use xlink:href="#m9acd9d22df" x="623.652942" y="320.4" style="stroke: #000000; stroke-width: 0.8"/>
      </g>
     </g>
     <g id="text_6">
      <!-- 500 -->
      <g transform="translate(614.109192 334.998438) scale(0.1 -0.1)">
       <defs>
        <path id="DejaVuSans-35" d="M 691 4666 
L 3169 4666 
L 3169 4134 
L 1269 4134 
L 1269 2991 
Q 1406 3038 1543 3061 
Q 1681 3084 1819 3084 
Q 2600 3084 3056 2656 
Q 3513 2228 3513 1497 
Q 3513 744 3044 326 
Q 2575 -91 1722 -91 
Q 1428 -91 1123 -41 
Q 819 9 494 109 
L 494 744 
Q 775 591 1075 516 
Q 1375 441 1709 441 
Q 2250 441 2565 725 
Q 2881 1009 2881 1497 
Q 2881 1984 2565 2268 
Q 2250 2553 1709 2553 
Q 1456 2553 1204 2497 
Q 953 2441 691 2322 
L 691 4666 
z
" transform="scale(0.015625)"/>
       </defs>
       <use xlink:href="#DejaVuSans-35"/>
       <use xlink:href="#DejaVuSans-30" x="63.623047"/>
       <use xlink:href="#DejaVuSans-30" x="127.246094"/>
      </g>
     </g>
    </g>
    <g id="text_7">
     <!-- epoch -->
     <g transform="translate(353.771875 348.676562) scale(0.1 -0.1)">
      <defs>
       <path id="DejaVuSans-65" d="M 3597 1894 
L 3597 1613 
L 953 1613 
Q 991 1019 1311 708 
Q 1631 397 2203 397 
Q 2534 397 2845 478 
Q 3156 559 3463 722 
L 3463 178 
Q 3153 47 2828 -22 
Q 2503 -91 2169 -91 
Q 1331 -91 842 396 
Q 353 884 353 1716 
Q 353 2575 817 3079 
Q 1281 3584 2069 3584 
Q 2775 3584 3186 3129 
Q 3597 2675 3597 1894 
z
M 3022 2063 
Q 3016 2534 2758 2815 
Q 2500 3097 2075 3097 
Q 1594 3097 1305 2825 
Q 1016 2553 972 2059 
L 3022 2063 
z
" transform="scale(0.015625)"/>
       <path id="DejaVuSans-70" d="M 1159 525 
L 1159 -1331 
L 581 -1331 
L 581 3500 
L 1159 3500 
L 1159 2969 
Q 1341 3281 1617 3432 
Q 1894 3584 2278 3584 
Q 2916 3584 3314 3078 
Q 3713 2572 3713 1747 
Q 3713 922 3314 415 
Q 2916 -91 2278 -91 
Q 1894 -91 1617 61 
Q 1341 213 1159 525 
z
M 3116 1747 
Q 3116 2381 2855 2742 
Q 2594 3103 2138 3103 
Q 1681 3103 1420 2742 
Q 1159 2381 1159 1747 
Q 1159 1113 1420 752 
Q 1681 391 2138 391 
Q 2594 391 2855 752 
Q 3116 1113 3116 1747 
z
" transform="scale(0.015625)"/>
       <path id="DejaVuSans-6f" d="M 1959 3097 
Q 1497 3097 1228 2736 
Q 959 2375 959 1747 
Q 959 1119 1226 758 
Q 1494 397 1959 397 
Q 2419 397 2687 759 
Q 2956 1122 2956 1747 
Q 2956 2369 2687 2733 
Q 2419 3097 1959 3097 
z
M 1959 3584 
Q 2709 3584 3137 3096 
Q 3566 2609 3566 1747 
Q 3566 888 3137 398 
Q 2709 -91 1959 -91 
Q 1206 -91 779 398 
Q 353 888 353 1747 
Q 353 2609 779 3096 
Q 1206 3584 1959 3584 
z
" transform="scale(0.015625)"/>
       <path id="DejaVuSans-63" d="M 3122 3366 
L 3122 2828 
Q 2878 2963 2633 3030 
Q 2388 3097 2138 3097 
Q 1578 3097 1268 2742 
Q 959 2388 959 1747 
Q 959 1106 1268 751 
Q 1578 397 2138 397 
Q 2388 397 2633 464 
Q 2878 531 3122 666 
L 3122 134 
Q 2881 22 2623 -34 
Q 2366 -91 2075 -91 
Q 1284 -91 818 406 
Q 353 903 353 1747 
Q 353 2603 823 3093 
Q 1294 3584 2113 3584 
Q 2378 3584 2631 3529 
Q 2884 3475 3122 3366 
z
" transform="scale(0.015625)"/>
       <path id="DejaVuSans-68" d="M 3513 2113 
L 3513 0 
L 2938 0 
L 2938 2094 
Q 2938 2591 2744 2837 
Q 2550 3084 2163 3084 
Q 1697 3084 1428 2787 
Q 1159 2491 1159 1978 
L 1159 0 
L 581 0 
L 581 4863 
L 1159 4863 
L 1159 2956 
Q 1366 3272 1645 3428 
Q 1925 3584 2291 3584 
Q 2894 3584 3203 3211 
Q 3513 2838 3513 2113 
z
" transform="scale(0.015625)"/>
      </defs>
      <use xlink:href="#DejaVuSans-65"/>
      <use xlink:href="#DejaVuSans-70" x="61.523438"/>
      <use xlink:href="#DejaVuSans-6f" x="125"/>
      <use xlink:href="#DejaVuSans-63" x="186.181641"/>
      <use xlink:href="#DejaVuSans-68" x="241.162109"/>
     </g>
    </g>
   </g>
   <g id="matplotlib.axis_2">
    <g id="ytick_1">
     <g id="line2d_13">
      <path d="M 90 292.827998 
L 648 292.827998 
" clip-path="url(#p8ca2d841d5)" style="fill: none; stroke: #b0b0b0; stroke-width: 0.8; stroke-linecap: square"/>
     </g>
     <g id="line2d_14">
      <defs>
       <path id="m12052e414c" d="M 0 0 
L -3.5 0 
" style="stroke: #000000; stroke-width: 0.8"/>
      </defs>
      <g>
       <use xlink:href="#m12052e414c" x="90" y="292.827998" style="stroke: #000000; stroke-width: 0.8"/>
      </g>
     </g>
     <g id="text_8">
      <!-- 0.55 -->
      <g transform="translate(60.734375 296.627217) scale(0.1 -0.1)">
       <defs>
        <path id="DejaVuSans-2e" d="M 684 794 
L 1344 794 
L 1344 0 
L 684 0 
L 684 794 
z
" transform="scale(0.015625)"/>
       </defs>
       <use xlink:href="#DejaVuSans-30"/>
       <use xlink:href="#DejaVuSans-2e" x="63.623047"/>
       <use xlink:href="#DejaVuSans-35" x="95.410156"/>
       <use xlink:href="#DejaVuSans-35" x="159.033203"/>
      </g>
     </g>
    </g>
    <g id="ytick_2">
     <g id="line2d_15">
      <path d="M 90 255.680684 
L 648 255.680684 
" clip-path="url(#p8ca2d841d5)" style="fill: none; stroke: #b0b0b0; stroke-width: 0.8; stroke-linecap: square"/>
     </g>
     <g id="line2d_16">
      <g>
       <use xlink:href="#m12052e414c" x="90" y="255.680684" style="stroke: #000000; stroke-width: 0.8"/>
      </g>
     </g>
     <g id="text_9">
      <!-- 0.60 -->
      <g transform="translate(60.734375 259.479903) scale(0.1 -0.1)">
       <defs>
        <path id="DejaVuSans-36" d="M 2113 2584 
Q 1688 2584 1439 2293 
Q 1191 2003 1191 1497 
Q 1191 994 1439 701 
Q 1688 409 2113 409 
Q 2538 409 2786 701 
Q 3034 994 3034 1497 
Q 3034 2003 2786 2293 
Q 2538 2584 2113 2584 
z
M 3366 4563 
L 3366 3988 
Q 3128 4100 2886 4159 
Q 2644 4219 2406 4219 
Q 1781 4219 1451 3797 
Q 1122 3375 1075 2522 
Q 1259 2794 1537 2939 
Q 1816 3084 2150 3084 
Q 2853 3084 3261 2657 
Q 3669 2231 3669 1497 
Q 3669 778 3244 343 
Q 2819 -91 2113 -91 
Q 1303 -91 875 529 
Q 447 1150 447 2328 
Q 447 3434 972 4092 
Q 1497 4750 2381 4750 
Q 2619 4750 2861 4703 
Q 3103 4656 3366 4563 
z
" transform="scale(0.015625)"/>
       </defs>
       <use xlink:href="#DejaVuSans-30"/>
       <use xlink:href="#DejaVuSans-2e" x="63.623047"/>
       <use xlink:href="#DejaVuSans-36" x="95.410156"/>
       <use xlink:href="#DejaVuSans-30" x="159.033203"/>
      </g>
     </g>
    </g>
    <g id="ytick_3">
     <g id="line2d_17">
      <path d="M 90 218.53337 
L 648 218.53337 
" clip-path="url(#p8ca2d841d5)" style="fill: none; stroke: #b0b0b0; stroke-width: 0.8; stroke-linecap: square"/>
     </g>
     <g id="line2d_18">
      <g>
       <use xlink:href="#m12052e414c" x="90" y="218.53337" style="stroke: #000000; stroke-width: 0.8"/>
      </g>
     </g>
     <g id="text_10">
      <!-- 0.65 -->
      <g transform="translate(60.734375 222.332588) scale(0.1 -0.1)">
       <use xlink:href="#DejaVuSans-30"/>
       <use xlink:href="#DejaVuSans-2e" x="63.623047"/>
       <use xlink:href="#DejaVuSans-36" x="95.410156"/>
       <use xlink:href="#DejaVuSans-35" x="159.033203"/>
      </g>
     </g>
    </g>
    <g id="ytick_4">
     <g id="line2d_19">
      <path d="M 90 181.386055 
L 648 181.386055 
" clip-path="url(#p8ca2d841d5)" style="fill: none; stroke: #b0b0b0; stroke-width: 0.8; stroke-linecap: square"/>
     </g>
     <g id="line2d_20">
      <g>
       <use xlink:href="#m12052e414c" x="90" y="181.386055" style="stroke: #000000; stroke-width: 0.8"/>
      </g>
     </g>
     <g id="text_11">
      <!-- 0.70 -->
      <g transform="translate(60.734375 185.185274) scale(0.1 -0.1)">
       <defs>
        <path id="DejaVuSans-37" d="M 525 4666 
L 3525 4666 
L 3525 4397 
L 1831 0 
L 1172 0 
L 2766 4134 
L 525 4134 
L 525 4666 
z
" transform="scale(0.015625)"/>
       </defs>
       <use xlink:href="#DejaVuSans-30"/>
       <use xlink:href="#DejaVuSans-2e" x="63.623047"/>
       <use xlink:href="#DejaVuSans-37" x="95.410156"/>
       <use xlink:href="#DejaVuSans-30" x="159.033203"/>
      </g>
     </g>
    </g>
    <g id="ytick_5">
     <g id="line2d_21">
      <path d="M 90 144.238741 
L 648 144.238741 
" clip-path="url(#p8ca2d841d5)" style="fill: none; stroke: #b0b0b0; stroke-width: 0.8; stroke-linecap: square"/>
     </g>
     <g id="line2d_22">
      <g>
       <use xlink:href="#m12052e414c" x="90" y="144.238741" style="stroke: #000000; stroke-width: 0.8"/>
      </g>
     </g>
     <g id="text_12">
      <!-- 0.75 -->
      <g transform="translate(60.734375 148.03796) scale(0.1 -0.1)">
       <use xlink:href="#DejaVuSans-30"/>
       <use xlink:href="#DejaVuSans-2e" x="63.623047"/>
       <use xlink:href="#DejaVuSans-37" x="95.410156"/>
       <use xlink:href="#DejaVuSans-35" x="159.033203"/>
      </g>
     </g>
    </g>
    <g id="ytick_6">
     <g id="line2d_23">
      <path d="M 90 107.091427 
L 648 107.091427 
" clip-path="url(#p8ca2d841d5)" style="fill: none; stroke: #b0b0b0; stroke-width: 0.8; stroke-linecap: square"/>
     </g>
     <g id="line2d_24">
      <g>
       <use xlink:href="#m12052e414c" x="90" y="107.091427" style="stroke: #000000; stroke-width: 0.8"/>
      </g>
     </g>
     <g id="text_13">
      <!-- 0.80 -->
      <g transform="translate(60.734375 110.890645) scale(0.1 -0.1)">
       <defs>
        <path id="DejaVuSans-38" d="M 2034 2216 
Q 1584 2216 1326 1975 
Q 1069 1734 1069 1313 
Q 1069 891 1326 650 
Q 1584 409 2034 409 
Q 2484 409 2743 651 
Q 3003 894 3003 1313 
Q 3003 1734 2745 1975 
Q 2488 2216 2034 2216 
z
M 1403 2484 
Q 997 2584 770 2862 
Q 544 3141 544 3541 
Q 544 4100 942 4425 
Q 1341 4750 2034 4750 
Q 2731 4750 3128 4425 
Q 3525 4100 3525 3541 
Q 3525 3141 3298 2862 
Q 3072 2584 2669 2484 
Q 3125 2378 3379 2068 
Q 3634 1759 3634 1313 
Q 3634 634 3220 271 
Q 2806 -91 2034 -91 
Q 1263 -91 848 271 
Q 434 634 434 1313 
Q 434 1759 690 2068 
Q 947 2378 1403 2484 
z
M 1172 3481 
Q 1172 3119 1398 2916 
Q 1625 2713 2034 2713 
Q 2441 2713 2670 2916 
Q 2900 3119 2900 3481 
Q 2900 3844 2670 4047 
Q 2441 4250 2034 4250 
Q 1625 4250 1398 4047 
Q 1172 3844 1172 3481 
z
" transform="scale(0.015625)"/>
       </defs>
       <use xlink:href="#DejaVuSans-30"/>
       <use xlink:href="#DejaVuSans-2e" x="63.623047"/>
       <use xlink:href="#DejaVuSans-38" x="95.410156"/>
       <use xlink:href="#DejaVuSans-30" x="159.033203"/>
      </g>
     </g>
    </g>
    <g id="ytick_7">
     <g id="line2d_25">
      <path d="M 90 69.944112 
L 648 69.944112 
" clip-path="url(#p8ca2d841d5)" style="fill: none; stroke: #b0b0b0; stroke-width: 0.8; stroke-linecap: square"/>
     </g>
     <g id="line2d_26">
      <g>
       <use xlink:href="#m12052e414c" x="90" y="69.944112" style="stroke: #000000; stroke-width: 0.8"/>
      </g>
     </g>
     <g id="text_14">
      <!-- 0.85 -->
      <g transform="translate(60.734375 73.743331) scale(0.1 -0.1)">
       <use xlink:href="#DejaVuSans-30"/>
       <use xlink:href="#DejaVuSans-2e" x="63.623047"/>
       <use xlink:href="#DejaVuSans-38" x="95.410156"/>
       <use xlink:href="#DejaVuSans-35" x="159.033203"/>
      </g>
     </g>
    </g>
    <g id="text_15">
     <!-- accruacy -->
     <g transform="translate(54.654687 204.359375) rotate(-90) scale(0.1 -0.1)">
      <defs>
       <path id="DejaVuSans-61" d="M 2194 1759 
Q 1497 1759 1228 1600 
Q 959 1441 959 1056 
Q 959 750 1161 570 
Q 1363 391 1709 391 
Q 2188 391 2477 730 
Q 2766 1069 2766 1631 
L 2766 1759 
L 2194 1759 
z
M 3341 1997 
L 3341 0 
L 2766 0 
L 2766 531 
Q 2569 213 2275 61 
Q 1981 -91 1556 -91 
Q 1019 -91 701 211 
Q 384 513 384 1019 
Q 384 1609 779 1909 
Q 1175 2209 1959 2209 
L 2766 2209 
L 2766 2266 
Q 2766 2663 2505 2880 
Q 2244 3097 1772 3097 
Q 1472 3097 1187 3025 
Q 903 2953 641 2809 
L 641 3341 
Q 956 3463 1253 3523 
Q 1550 3584 1831 3584 
Q 2591 3584 2966 3190 
Q 3341 2797 3341 1997 
z
" transform="scale(0.015625)"/>
       <path id="DejaVuSans-72" d="M 2631 2963 
Q 2534 3019 2420 3045 
Q 2306 3072 2169 3072 
Q 1681 3072 1420 2755 
Q 1159 2438 1159 1844 
L 1159 0 
L 581 0 
L 581 3500 
L 1159 3500 
L 1159 2956 
Q 1341 3275 1631 3429 
Q 1922 3584 2338 3584 
Q 2397 3584 2469 3576 
Q 2541 3569 2628 3553 
L 2631 2963 
z
" transform="scale(0.015625)"/>
       <path id="DejaVuSans-75" d="M 544 1381 
L 544 3500 
L 1119 3500 
L 1119 1403 
Q 1119 906 1312 657 
Q 1506 409 1894 409 
Q 2359 409 2629 706 
Q 2900 1003 2900 1516 
L 2900 3500 
L 3475 3500 
L 3475 0 
L 2900 0 
L 2900 538 
Q 2691 219 2414 64 
Q 2138 -91 1772 -91 
Q 1169 -91 856 284 
Q 544 659 544 1381 
z
M 1991 3584 
L 1991 3584 
z
" transform="scale(0.015625)"/>
       <path id="DejaVuSans-79" d="M 2059 -325 
Q 1816 -950 1584 -1140 
Q 1353 -1331 966 -1331 
L 506 -1331 
L 506 -850 
L 844 -850 
Q 1081 -850 1212 -737 
Q 1344 -625 1503 -206 
L 1606 56 
L 191 3500 
L 800 3500 
L 1894 763 
L 2988 3500 
L 3597 3500 
L 2059 -325 
z
" transform="scale(0.015625)"/>
      </defs>
      <use xlink:href="#DejaVuSans-61"/>
      <use xlink:href="#DejaVuSans-63" x="61.279297"/>
      <use xlink:href="#DejaVuSans-63" x="116.259766"/>
      <use xlink:href="#DejaVuSans-72" x="171.240234"/>
      <use xlink:href="#DejaVuSans-75" x="212.353516"/>
      <use xlink:href="#DejaVuSans-61" x="275.732422"/>
      <use xlink:href="#DejaVuSans-63" x="337.011719"/>
      <use xlink:href="#DejaVuSans-79" x="391.992188"/>
     </g>
    </g>
   </g>
   <g id="line2d_27">
    <path d="M 115.363636 74.246769 
L 116.380215 75.080973 
L 117.396794 75.668476 
L 119.429951 70.475181 
L 120.446529 69.276705 
L 121.463108 68.830243 
L 122.479687 68.078273 
L 123.496265 71.450383 
L 124.512844 68.748009 
L 125.529422 69.253235 
L 126.546001 70.757176 
L 127.56258 73.424344 
L 128.579158 68.771479 
L 129.595737 67.267539 
L 130.612316 67.714044 
L 131.628894 68.795038 
L 132.645473 68.748009 
L 133.662051 71.003877 
L 134.67863 72.648815 
L 135.695209 63.448967 
L 136.711787 66.210104 
L 137.728366 70.357698 
L 138.744944 64.623929 
L 139.761523 71.227152 
L 140.778102 65.845875 
L 141.79468 67.573047 
L 142.811259 64.259701 
L 143.827837 72.261117 
L 144.844416 65.681364 
L 145.860995 75.656741 
L 146.877573 68.795038 
L 147.894152 70.862879 
L 148.910731 69.194471 
L 149.927309 64.341935 
L 150.943888 67.878512 
L 152.977045 67.267539 
L 153.993624 62.02726 
L 155.010202 64.447682 
L 156.026781 68.078273 
L 157.043359 66.069106 
L 158.059938 66.597846 
L 159.076517 69.946442 
L 160.093095 69.946442 
L 161.109674 69.52345 
L 162.126253 67.044308 
L 163.142831 66.292337 
L 164.15941 62.250535 
L 165.175988 64.341935 
L 166.192567 69.135708 
L 167.209146 66.962074 
L 168.225724 68.806729 
L 169.242303 65.704878 
L 170.258881 64.365405 
L 171.27546 71.556175 
L 172.292039 62.497236 
L 173.308617 63.143458 
L 174.325196 66.856326 
L 175.341774 64.506402 
L 176.358353 65.986873 
L 177.374932 69.100502 
L 178.39151 62.638233 
L 179.408089 66.515568 
L 180.424668 65.481603 
L 181.441246 67.937275 
L 182.457825 68.21927 
L 183.474403 69.52345 
L 184.490982 67.126541 
L 185.507561 65.176139 
L 186.524139 67.819837 
L 187.540718 64.365405 
L 188.557296 63.895429 
L 189.573875 67.573047 
L 190.590454 66.374571 
L 191.607032 69.547008 
L 192.623611 64.142174 
L 193.640189 65.928109 
L 194.656768 65.845875 
L 195.673347 61.945026 
L 196.689925 65.093905 
L 197.706504 65.540367 
L 198.723083 67.937275 
L 199.739661 66.821077 
L 200.75624 62.614763 
L 201.772818 65.986873 
L 202.789397 68.160506 
L 203.805976 70.052234 
L 204.822554 62.837994 
L 205.839133 66.15134 
L 206.855711 64.283171 
L 207.87229 69.887678 
L 208.888869 67.126541 
L 209.905447 63.5312 
L 210.922026 63.249206 
L 211.938604 67.714044 
L 212.955183 65.422884 
L 213.971762 65.399369 
L 214.98834 66.292337 
L 216.004919 61.886262 
L 217.021498 63.977706 
L 218.038076 65.787112 
L 219.054655 65.375899 
L 220.071233 63.049445 
L 221.087812 65.340606 
L 222.104391 65.6226 
L 223.120969 65.704878 
L 224.137548 67.044308 
L 225.154126 65.763598 
L 226.170705 67.490814 
L 227.187284 63.249206 
L 228.203862 66.174854 
L 229.220441 67.960745 
L 230.237019 66.010343 
L 231.253598 65.093905 
L 232.270177 63.166972 
L 233.286755 69.969956 
L 234.303334 65.540367 
L 235.319913 59.794862 
L 236.336491 67.937275 
L 237.35307 63.225736 
L 238.369648 67.185305 
L 239.386227 66.292337 
L 240.402806 63.860179 
L 241.419384 65.904595 
L 242.435963 63.30797 
L 243.452541 63.30797 
L 244.46912 66.68008 
L 245.485699 67.1501 
L 246.502277 59.759613 
L 247.518856 60.323602 
L 248.535435 61.768779 
L 249.552013 63.413718 
L 250.568592 61.052058 
L 251.58517 63.390203 
L 253.618328 66.010343 
L 254.634906 63.33144 
L 255.651485 61.463271 
L 256.668063 60.488069 
L 257.684642 67.373331 
L 258.701221 65.951579 
L 259.717799 65.563881 
L 260.734378 64.283171 
L 261.750956 67.514284 
L 262.767535 67.655281 
L 263.784114 64.365405 
L 264.800692 61.522034 
L 265.817271 64.647399 
L 266.83385 65.505117 
L 267.850428 68.125301 
L 268.867007 64.506402 
L 269.883585 63.002461 
L 270.900164 65.446398 
L 271.916743 64.341935 
L 272.933321 64.224407 
L 273.9499 63.166972 
L 274.966478 68.489529 
L 275.983057 61.804029 
L 276.999636 65.422884 
L 278.016214 63.166972 
L 279.032793 63.33144 
L 280.049371 65.035141 
L 281.06595 66.033901 
L 282.082529 62.133007 
L 283.099107 64.05994 
L 284.115686 65.422884 
L 285.132265 63.002461 
L 286.148843 65.281887 
L 287.165422 64.142174 
L 288.182 63.613434 
L 289.198579 63.33144 
L 290.215158 66.233574 
L 291.231736 62.497236 
L 292.248315 60.405836 
L 293.264893 64.388919 
L 294.281472 62.191771 
L 295.298051 62.579469 
L 296.314629 63.472437 
L 297.331208 61.381037 
L 298.347786 62.720466 
L 299.364365 63.002461 
L 300.380944 62.720466 
L 301.397522 61.381037 
L 303.43068 67.878512 
L 304.447258 64.753147 
L 305.463837 65.904595 
L 306.480415 67.267539 
L 307.496994 64.283171 
L 308.513573 61.945026 
L 309.530151 63.084739 
L 310.54673 64.952908 
L 312.579887 62.438472 
L 313.596466 64.224407 
L 314.613044 62.050774 
L 315.629623 62.52075 
L 316.646201 64.388919 
L 317.66278 61.604268 
L 318.679359 65.176139 
L 319.695937 62.050774 
L 320.712516 63.672198 
L 321.729095 62.802744 
L 322.745673 63.249206 
L 323.762252 68.18402 
L 324.77883 62.215241 
L 325.795409 61.663031 
L 326.811988 63.977706 
L 327.828566 63.777946 
L 328.845145 65.505117 
L 329.861723 63.860179 
L 330.878302 63.472437 
L 331.894881 61.545549 
L 332.911459 68.019509 
L 333.928038 63.719182 
L 334.944617 63.448967 
L 335.961195 64.835381 
L 337.994352 59.712629 
L 339.010931 65.258372 
L 340.02751 63.977706 
L 341.044088 60.488069 
L 342.060667 67.232333 
L 343.077245 66.315851 
L 344.093824 66.762313 
L 345.110403 59.430634 
L 346.126981 64.306685 
L 347.14356 63.918943 
L 348.160138 66.374571 
L 349.176717 60.68783 
L 350.193296 63.002461 
L 351.209874 63.860179 
L 352.226453 64.306685 
L 353.243032 66.985544 
L 354.25961 62.579469 
L 355.276189 63.390203 
L 356.292767 66.480363 
L 357.309346 65.481603 
L 358.325925 65.481603 
L 359.342503 59.95933 
L 360.359082 64.952908 
L 361.37566 63.413718 
L 362.392239 67.819837 
L 363.408818 63.108209 
L 364.425396 61.016809 
L 365.441975 65.563881 
L 366.458553 61.122601 
L 367.475132 65.951579 
L 368.491711 62.050774 
L 369.508289 65.117375 
L 370.524868 63.025975 
L 371.541447 65.340606 
L 372.558025 65.199609 
L 373.574604 60.206075 
L 374.591182 60.7113 
L 375.607761 60.629067 
L 376.62434 66.092576 
L 377.640918 60.629067 
L 378.657497 59.877096 
L 379.674075 62.638233 
L 380.690654 63.448967 
L 381.707233 58.925409 
L 382.723811 62.720466 
L 383.74039 64.08341 
L 384.756968 64.200937 
L 385.773547 59.348401 
L 386.790126 61.933247 
L 387.806704 64.118704 
L 388.823283 64.306685 
L 389.839862 63.495951 
L 390.85644 63.977706 
L 391.873019 64.647399 
L 392.889597 64.224407 
L 393.906176 65.117375 
L 394.922755 61.663031 
L 395.939333 60.488069 
L 396.955912 66.233574 
L 398.989069 60.7113 
L 400.005648 61.627782 
L 401.022226 61.075573 
L 402.038805 61.157806 
L 403.055383 63.108209 
L 404.071962 61.24004 
L 405.088541 60.770064 
L 406.105119 62.215241 
L 407.121698 61.439801 
L 408.138277 61.463271 
L 409.154855 63.613434 
L 410.171434 63.777946 
L 411.188012 62.602983 
L 412.204591 64.471197 
L 413.22117 64.670913 
L 414.237748 68.019509 
L 415.254327 60.123841 
L 416.270905 63.002461 
L 417.287484 64.753147 
L 418.304063 58.901895 
L 419.320641 62.802744 
L 420.33722 61.96854 
L 421.353799 59.454104 
L 422.370377 61.604268 
L 423.386956 65.787112 
L 424.403534 65.869345 
L 425.420113 60.229633 
L 426.436692 64.670913 
L 427.45327 63.977706 
L 428.469849 65.951579 
L 429.486427 64.753147 
L 430.503006 61.909777 
L 431.519585 68.24274 
L 432.536163 61.909777 
L 433.552742 61.075573 
L 434.56932 61.96854 
L 435.585899 62.438472 
L 436.602478 65.176139 
L 437.619056 64.952908 
L 438.635635 60.429306 
L 439.652214 62.191771 
L 440.668792 59.818332 
L 441.685371 60.241324 
L 442.701949 62.274005 
L 443.718528 60.852297 
L 444.735107 62.943742 
L 445.751685 60.347072 
L 446.768264 61.745265 
L 447.784842 59.454104 
L 448.801421 61.322273 
L 449.818 59.348401 
L 450.834578 62.215241 
L 451.851157 62.52075 
L 452.867735 62.579469 
L 453.884314 61.604268 
L 454.900893 57.280471 
L 455.917471 61.99201 
L 456.93405 60.546833 
L 457.950629 65.540367 
L 458.967207 60.793578 
L 459.983786 63.719182 
L 461.000364 62.074244 
L 462.016943 62.109537 
L 463.033522 60.546833 
L 464.0501 62.579469 
L 465.066679 61.381037 
L 466.083257 62.438472 
L 467.099836 57.726933 
L 468.116415 61.886262 
L 469.132993 61.768779 
L 470.149572 62.720466 
L 471.16615 62.438472 
L 472.182729 59.289637 
L 473.199308 64.224407 
L 474.215886 60.323602 
L 475.232465 62.943742 
L 476.249044 60.734814 
L 477.265622 61.909777 
L 478.282201 61.016809 
L 479.298779 62.720466 
L 480.315358 57.668169 
L 482.348515 62.074244 
L 483.365094 63.131767 
L 484.381672 61.99201 
L 485.398251 62.438472 
L 486.41483 60.793578 
L 488.447987 64.61215 
L 490.481144 58.925409 
L 491.497723 60.488069 
L 492.514301 55.940997 
L 493.53088 62.497236 
L 494.547459 61.851013 
L 495.564037 63.108209 
L 496.580616 57.785696 
L 497.597194 60.570303 
L 498.613773 65.916374 
L 499.630352 59.95933 
L 500.64693 62.156477 
L 501.663509 63.719182 
L 502.680087 61.157806 
L 503.696666 61.768779 
L 504.713245 63.495951 
L 505.729823 61.099043 
L 506.746402 59.677335 
L 507.762981 63.413718 
L 508.779559 61.157806 
L 509.796138 62.967212 
L 510.812716 62.743981 
L 511.829295 63.777946 
L 512.845874 63.131767 
L 513.862452 63.413718 
L 514.879031 65.364164 
L 515.895609 60.629067 
L 516.912188 62.661747 
L 517.928767 61.322273 
L 518.945345 65.787112 
L 519.961924 62.544264 
L 520.978502 62.884978 
L 521.995081 57.33919 
L 523.01166 58.255672 
L 524.028238 59.95933 
L 525.044817 63.719182 
L 526.061396 60.934575 
L 527.077974 60.652581 
L 528.094553 58.032441 
L 529.111131 57.585935 
L 530.12771 62.661747 
L 531.144289 58.925409 
L 532.160867 60.041608 
L 533.177446 66.727108 
L 534.194024 58.008927 
L 535.210603 60.570303 
L 536.227182 61.99201 
L 537.24376 60.875812 
L 538.260339 63.249206 
L 539.276917 58.232158 
L 540.293496 61.21657 
L 541.310075 56.610734 
L 542.326653 65.563881 
L 543.343232 60.511584 
L 544.359811 60.123841 
L 545.376389 59.17211 
L 546.392968 62.274005 
L 547.409546 62.356238 
L 548.426125 61.486785 
L 549.442704 62.297475 
L 550.459282 60.793578 
L 551.475861 63.977706 
L 552.492439 58.925409 
L 553.509018 60.793578 
L 554.525597 59.14864 
L 555.542175 60.793578 
L 556.558754 59.90061 
L 557.575332 59.90061 
L 558.591911 60.570303 
L 559.60849 63.695712 
L 560.625068 62.462031 
L 561.641647 61.404551 
L 562.658226 59.313107 
L 563.674804 61.745265 
L 564.691383 64.835381 
L 565.707961 58.784412 
L 566.72454 60.065078 
L 567.741119 58.032441 
L 568.757697 63.131767 
L 569.774276 60.182605 
L 570.790854 59.454104 
L 571.807433 56.751731 
L 572.824012 58.173439 
L 574.857169 59.595102 
L 575.873747 61.157806 
L 576.890326 57.503702 
L 577.906905 57.585935 
L 578.923483 61.181276 
L 579.940062 57.86793 
L 580.956641 60.934575 
L 581.973219 61.686546 
L 582.989798 59.089876 
L 585.022955 61.909777 
L 586.039534 60.347072 
L 587.056112 63.695712 
L 588.072691 58.396669 
L 589.089269 59.677335 
L 590.105848 60.264838 
L 591.122427 62.097802 
L 592.139005 62.133007 
L 593.155584 56.504986 
L 594.172163 61.24004 
L 595.188741 63.390203 
L 596.20532 59.007643 
L 597.221898 59.571632 
L 598.238477 59.125126 
L 599.255056 57.221707 
L 600.271634 59.14864 
L 601.288213 58.984128 
L 602.304791 62.52075 
L 603.32137 56.974962 
L 604.337949 60.041608 
L 605.354527 62.156477 
L 606.371106 60.323602 
L 607.387684 63.354998 
L 608.404263 59.230874 
L 609.420842 56.387503 
L 610.43742 56.081994 
L 611.453999 61.322273 
L 613.487156 60.206075 
L 614.503735 61.122601 
L 615.520313 55.8 
L 616.536892 59.313107 
L 617.553471 60.147311 
L 618.570049 60.570303 
L 619.586628 60.570303 
L 620.603206 62.967212 
L 621.619785 58.702134 
L 622.636364 66.15134 
L 622.636364 66.15134 
" clip-path="url(#p8ca2d841d5)" style="fill: none; stroke: #1f77b4; stroke-width: 1.5; stroke-linecap: square"/>
   </g>
   <g id="line2d_28">
    <path d="M 115.363636 304.377009 
L 116.380215 304.377009 
L 117.396794 297.679773 
L 118.413372 297.679773 
L 119.429951 301.995732 
L 121.463108 301.995732 
L 122.479687 301.54927 
L 123.496265 301.54927 
L 124.512844 299.168038 
L 125.529422 305.865274 
L 126.546001 299.168038 
L 127.56258 303.930503 
L 129.595737 303.930503 
L 130.612316 301.54927 
L 131.628894 303.930503 
L 132.645473 297.233267 
L 133.662051 303.930503 
L 134.67863 301.54927 
L 135.695209 299.614544 
L 136.711787 300.061006 
L 138.744944 303.930503 
L 139.761523 301.995732 
L 140.778102 295.298541 
L 141.79468 299.614544 
L 142.811259 295.298541 
L 143.827837 295.298541 
L 144.844416 305.865274 
L 145.860995 297.679773 
L 146.877573 297.679773 
L 147.894152 297.233267 
L 148.910731 301.54927 
L 149.927309 297.679773 
L 150.943888 297.233267 
L 151.960466 299.614544 
L 152.977045 297.679773 
L 153.993624 300.061006 
L 155.010202 297.679773 
L 156.026781 305.865274 
L 157.043359 293.36377 
L 158.059938 293.36377 
L 159.076517 297.679773 
L 160.093095 295.298541 
L 161.109674 293.36377 
L 162.126253 293.36377 
L 163.142831 299.614544 
L 164.15941 297.679773 
L 165.175988 299.614544 
L 166.192567 295.745003 
L 167.209146 293.36377 
L 168.225724 299.614544 
L 169.242303 297.679773 
L 171.27546 297.679773 
L 172.292039 295.298541 
L 173.308617 295.745003 
L 174.325196 299.614544 
L 175.341774 295.298541 
L 176.358353 295.745003 
L 177.374932 297.679773 
L 178.39151 298.126235 
L 179.408089 293.36377 
L 180.424668 306.311735 
L 181.441246 295.745003 
L 182.457825 295.298541 
L 183.474403 295.745003 
L 184.490982 293.36377 
L 185.507561 297.679773 
L 187.540718 297.679773 
L 188.557296 300.061006 
L 189.573875 295.745003 
L 190.590454 300.061006 
L 191.607032 293.810276 
L 192.623611 300.061006 
L 193.640189 295.745003 
L 194.656768 300.061006 
L 195.673347 299.614544 
L 196.689925 301.995732 
L 197.706504 297.679773 
L 198.723083 291.428999 
L 199.739661 295.745003 
L 200.75624 295.298541 
L 201.772818 297.679773 
L 202.789397 297.679773 
L 203.805976 295.298541 
L 204.822554 297.233267 
L 205.839133 295.298541 
L 206.855711 297.233267 
L 207.87229 293.36377 
L 208.888869 297.233267 
L 209.905447 299.614544 
L 210.922026 297.233267 
L 211.938604 299.168038 
L 212.955183 295.298541 
L 213.971762 299.614544 
L 214.98834 295.298541 
L 216.004919 293.36377 
L 217.021498 295.298541 
L 218.038076 301.102809 
L 219.054655 299.168038 
L 220.071233 299.614544 
L 221.087812 295.745003 
L 222.104391 301.54927 
L 223.120969 297.233267 
L 224.137548 297.233267 
L 225.154126 299.614544 
L 226.170705 299.614544 
L 227.187284 301.54927 
L 228.203862 297.679773 
L 229.220441 301.54927 
L 231.253598 297.679773 
L 233.286755 301.54927 
L 234.303334 297.679773 
L 235.319913 293.36377 
L 236.336491 299.168038 
L 237.35307 307.8 
L 238.369648 297.233267 
L 239.386227 297.233267 
L 240.402806 299.168038 
L 241.419384 297.233267 
L 242.435963 299.168038 
L 243.452541 305.865274 
L 244.46912 299.614544 
L 245.485699 297.233267 
L 246.502277 295.298541 
L 247.518856 297.233267 
L 248.535435 297.679773 
L 249.552013 295.298541 
L 250.568592 299.168038 
L 251.58517 299.614544 
L 252.601749 301.54927 
L 253.618328 303.930503 
L 254.634906 301.54927 
L 255.651485 295.298541 
L 256.668063 303.484041 
L 257.684642 303.484041 
L 258.701221 305.418812 
L 259.717799 301.54927 
L 260.734378 305.418812 
L 261.750956 299.614544 
L 262.767535 299.168038 
L 263.784114 303.484041 
L 264.800692 299.614544 
L 265.817271 307.8 
L 266.83385 303.484041 
L 267.850428 305.418812 
L 268.867007 301.54927 
L 269.883585 301.54927 
L 270.900164 295.298541 
L 271.916743 303.484041 
L 272.933321 301.54927 
L 273.9499 299.168038 
L 274.966478 303.484041 
L 275.983057 297.679773 
L 276.999636 305.418812 
L 278.016214 305.418812 
L 279.032793 299.168038 
L 280.049371 303.484041 
L 281.06595 305.418812 
L 282.082529 305.418812 
L 283.099107 307.8 
L 284.115686 301.54927 
L 285.132265 303.484041 
L 286.148843 303.484041 
L 287.165422 305.418812 
L 288.182 303.484041 
L 289.198579 303.484041 
L 290.215158 301.54927 
L 291.231736 303.930503 
L 292.248315 301.54927 
L 293.264893 297.679773 
L 294.281472 299.614544 
L 295.298051 303.484041 
L 296.314629 301.54927 
L 297.331208 295.745003 
L 298.347786 297.679773 
L 299.364365 301.54927 
L 300.380944 299.614544 
L 301.397522 299.614544 
L 302.414101 303.930503 
L 304.447258 291.428999 
L 305.463837 303.484041 
L 306.480415 301.54927 
L 307.496994 299.168038 
L 308.513573 299.614544 
L 309.530151 297.233267 
L 310.54673 299.168038 
L 311.563308 295.298541 
L 312.579887 295.745003 
L 313.596466 300.061006 
L 314.613044 290.982538 
L 315.629623 295.298541 
L 316.646201 295.745003 
L 317.66278 304.377009 
L 318.679359 293.36377 
L 319.695937 301.995732 
L 320.712516 297.679773 
L 321.729095 295.298541 
L 322.745673 299.614544 
L 323.762252 299.614544 
L 324.77883 295.298541 
L 325.795409 297.233267 
L 326.811988 301.102809 
L 327.828566 295.298541 
L 328.845145 295.298541 
L 329.861723 297.233267 
L 330.878302 301.102809 
L 331.894881 305.418812 
L 332.911459 297.679773 
L 333.928038 295.298541 
L 334.944617 297.233267 
L 335.961195 301.102809 
L 337.994352 297.233267 
L 339.010931 301.54927 
L 340.02751 303.484041 
L 341.044088 303.930503 
L 342.060667 297.233267 
L 343.077245 303.930503 
L 344.093824 290.982538 
L 345.110403 301.995732 
L 346.126981 301.995732 
L 347.14356 299.614544 
L 348.160138 299.168038 
L 349.176717 295.298541 
L 350.193296 299.168038 
L 351.209874 305.865274 
L 352.226453 295.298541 
L 353.243032 299.168038 
L 354.25961 301.54927 
L 355.276189 299.168038 
L 356.292767 303.930503 
L 357.309346 303.930503 
L 358.325925 297.233267 
L 359.342503 301.102809 
L 360.359082 294.852079 
L 361.37566 296.786806 
L 362.392239 301.102809 
L 363.408818 299.614544 
L 364.425396 292.917308 
L 365.441975 292.470802 
L 366.458553 297.233267 
L 367.475132 298.721576 
L 368.491711 296.786806 
L 369.508289 299.168038 
L 370.524868 299.168038 
L 371.541447 305.418812 
L 372.558025 295.298541 
L 373.574604 305.418812 
L 374.591182 301.102809 
L 375.607761 301.102809 
L 376.62434 295.298541 
L 378.657497 299.168038 
L 379.674075 295.298541 
L 380.690654 299.168038 
L 381.707233 297.233267 
L 382.723811 296.786806 
L 383.74039 296.786806 
L 384.756968 292.917308 
L 385.773547 301.54927 
L 386.790126 297.233267 
L 387.806704 295.298541 
L 388.823283 292.917308 
L 389.839862 292.917308 
L 390.85644 297.233267 
L 391.873019 299.614544 
L 392.889597 295.298541 
L 393.906176 292.917308 
L 394.922755 292.917308 
L 395.939333 301.995732 
L 396.955912 294.852079 
L 397.97249 299.614544 
L 398.989069 299.614544 
L 400.005648 301.54927 
L 401.022226 294.852079 
L 402.038805 299.614544 
L 403.055383 294.852079 
L 404.071962 297.233267 
L 406.105119 293.36377 
L 407.121698 292.917308 
L 408.138277 295.298541 
L 409.154855 299.614544 
L 410.171434 295.298541 
L 411.188012 297.233267 
L 412.204591 292.917308 
L 413.22117 297.233267 
L 414.237748 299.168038 
L 415.254327 292.917308 
L 416.270905 293.36377 
L 417.287484 292.917308 
L 418.304063 297.233267 
L 419.320641 292.917308 
L 420.33722 297.233267 
L 423.386956 297.233267 
L 424.403534 295.298541 
L 425.420113 294.852079 
L 426.436692 295.298541 
L 427.45327 296.786806 
L 428.469849 295.298541 
L 429.486427 299.614544 
L 430.503006 290.536076 
L 431.519585 290.536076 
L 432.536163 290.982538 
L 433.552742 297.679773 
L 434.56932 296.786806 
L 435.585899 297.679773 
L 436.602478 293.36377 
L 437.619056 295.298541 
L 438.635635 292.917308 
L 439.652214 298.126235 
L 440.668792 292.917308 
L 441.685371 295.298541 
L 442.701949 294.852079 
L 443.718528 299.614544 
L 444.735107 298.126235 
L 445.751685 297.233267 
L 446.768264 295.298541 
L 447.784842 297.679773 
L 448.801421 292.917308 
L 449.818 297.233267 
L 450.834578 299.168038 
L 451.851157 299.168038 
L 452.867735 295.298541 
L 453.884314 299.168038 
L 454.900893 294.852079 
L 455.917471 297.233267 
L 456.93405 290.982538 
L 457.950629 292.470802 
L 458.967207 288.601305 
L 459.983786 294.852079 
L 462.016943 294.852079 
L 463.033522 299.614544 
L 464.0501 297.679773 
L 465.066679 294.852079 
L 466.083257 297.233267 
L 467.099836 299.168038 
L 468.116415 299.168038 
L 469.132993 299.614544 
L 470.149572 299.614544 
L 471.16615 292.470802 
L 472.182729 293.36377 
L 474.215886 301.54927 
L 475.232465 295.745003 
L 476.249044 301.54927 
L 477.265622 299.614544 
L 478.282201 297.233267 
L 479.298779 301.54927 
L 480.315358 297.233267 
L 481.331937 299.614544 
L 482.348515 297.233267 
L 483.365094 293.36377 
L 484.381672 301.54927 
L 485.398251 297.233267 
L 486.41483 295.745003 
L 487.431408 297.233267 
L 488.447987 299.614544 
L 489.464565 299.614544 
L 490.481144 297.233267 
L 491.497723 297.679773 
L 492.514301 299.614544 
L 493.53088 299.168038 
L 494.547459 299.614544 
L 495.564037 299.614544 
L 496.580616 297.679773 
L 497.597194 295.298541 
L 498.613773 297.679773 
L 499.630352 290.982538 
L 500.64693 297.679773 
L 501.663509 297.679773 
L 502.680087 299.614544 
L 503.696666 295.298541 
L 504.713245 297.233267 
L 505.729823 299.614544 
L 506.746402 295.298541 
L 507.762981 297.679773 
L 508.779559 299.614544 
L 509.796138 297.233267 
L 510.812716 297.679773 
L 511.829295 299.614544 
L 512.845874 297.679773 
L 513.862452 299.614544 
L 514.879031 295.745003 
L 515.895609 293.36377 
L 516.912188 297.679773 
L 517.928767 295.298541 
L 518.945345 295.298541 
L 519.961924 301.54927 
L 520.978502 297.679773 
L 521.995081 301.54927 
L 523.01166 297.679773 
L 524.028238 301.54927 
L 525.044817 299.614544 
L 526.061396 295.298541 
L 527.077974 293.36377 
L 528.094553 300.061006 
L 529.111131 295.745003 
L 531.144289 295.745003 
L 532.160867 297.679773 
L 533.177446 295.745003 
L 534.194024 297.679773 
L 535.210603 295.745003 
L 536.227182 300.061006 
L 537.24376 295.745003 
L 538.260339 295.298541 
L 539.276917 299.614544 
L 540.293496 295.745003 
L 542.326653 299.614544 
L 543.343232 295.745003 
L 544.359811 298.126235 
L 545.376389 295.298541 
L 546.392968 293.810276 
L 547.409546 293.36377 
L 548.426125 293.36377 
L 549.442704 295.745003 
L 550.459282 297.679773 
L 551.475861 297.679773 
L 553.509018 293.810276 
L 554.525597 296.191464 
L 556.558754 300.061006 
L 557.575332 297.679773 
L 558.591911 301.54927 
L 559.60849 299.614544 
L 560.625068 298.126235 
L 561.641647 300.061006 
L 562.658226 301.54927 
L 563.674804 296.191464 
L 564.691383 298.126235 
L 565.707961 302.442238 
L 566.72454 299.614544 
L 567.741119 297.679773 
L 568.757697 297.679773 
L 569.774276 298.126235 
L 570.790854 299.614544 
L 571.807433 295.745003 
L 572.824012 300.061006 
L 573.84059 305.865274 
L 574.857169 295.745003 
L 575.873747 305.865274 
L 576.890326 303.930503 
L 577.906905 299.614544 
L 578.923483 301.54927 
L 579.940062 293.810276 
L 581.973219 297.679773 
L 582.989798 297.679773 
L 584.006376 301.54927 
L 585.022955 305.865274 
L 586.039534 307.8 
L 587.056112 301.995732 
L 588.072691 305.865274 
L 589.089269 303.930503 
L 590.105848 297.679773 
L 591.122427 299.614544 
L 592.139005 300.061006 
L 593.155584 301.54927 
L 594.172163 300.061006 
L 595.188741 303.930503 
L 596.20532 299.614544 
L 597.221898 305.865274 
L 598.238477 305.865274 
L 599.255056 301.995732 
L 600.271634 305.865274 
L 601.288213 303.930503 
L 602.304791 303.930503 
L 603.32137 301.995732 
L 604.337949 303.930503 
L 606.371106 303.930503 
L 607.387684 299.614544 
L 608.404263 301.54927 
L 609.420842 301.54927 
L 610.43742 303.930503 
L 611.453999 305.865274 
L 612.470578 305.865274 
L 613.487156 301.54927 
L 614.503735 303.930503 
L 615.520313 305.865274 
L 616.536892 303.484041 
L 617.553471 305.418812 
L 618.570049 307.8 
L 619.586628 301.995732 
L 620.603206 303.484041 
L 621.619785 301.54927 
L 622.636364 300.061006 
L 622.636364 300.061006 
" clip-path="url(#p8ca2d841d5)" style="fill: none; stroke: #ff7f0e; stroke-width: 1.5; stroke-linecap: square"/>
   </g>
   <g id="patch_3">
    <path d="M 90 320.4 
L 90 43.2 
" style="fill: none; stroke: #000000; stroke-width: 0.8; stroke-linejoin: miter; stroke-linecap: square"/>
   </g>
   <g id="patch_4">
    <path d="M 648 320.4 
L 648 43.2 
" style="fill: none; stroke: #000000; stroke-width: 0.8; stroke-linejoin: miter; stroke-linecap: square"/>
   </g>
   <g id="patch_5">
    <path d="M 90 320.4 
L 648 320.4 
" style="fill: none; stroke: #000000; stroke-width: 0.8; stroke-linejoin: miter; stroke-linecap: square"/>
   </g>
   <g id="patch_6">
    <path d="M 90 43.2 
L 648 43.2 
" style="fill: none; stroke: #000000; stroke-width: 0.8; stroke-linejoin: miter; stroke-linecap: square"/>
   </g>
   <g id="text_16">
    <!-- model train and validation accracy over time -->
    <g transform="translate(233.87625 37.2) scale(0.12 -0.12)">
     <defs>
      <path id="DejaVuSans-6d" d="M 3328 2828 
Q 3544 3216 3844 3400 
Q 4144 3584 4550 3584 
Q 5097 3584 5394 3201 
Q 5691 2819 5691 2113 
L 5691 0 
L 5113 0 
L 5113 2094 
Q 5113 2597 4934 2840 
Q 4756 3084 4391 3084 
Q 3944 3084 3684 2787 
Q 3425 2491 3425 1978 
L 3425 0 
L 2847 0 
L 2847 2094 
Q 2847 2600 2669 2842 
Q 2491 3084 2119 3084 
Q 1678 3084 1418 2786 
Q 1159 2488 1159 1978 
L 1159 0 
L 581 0 
L 581 3500 
L 1159 3500 
L 1159 2956 
Q 1356 3278 1631 3431 
Q 1906 3584 2284 3584 
Q 2666 3584 2933 3390 
Q 3200 3197 3328 2828 
z
" transform="scale(0.015625)"/>
      <path id="DejaVuSans-64" d="M 2906 2969 
L 2906 4863 
L 3481 4863 
L 3481 0 
L 2906 0 
L 2906 525 
Q 2725 213 2448 61 
Q 2172 -91 1784 -91 
Q 1150 -91 751 415 
Q 353 922 353 1747 
Q 353 2572 751 3078 
Q 1150 3584 1784 3584 
Q 2172 3584 2448 3432 
Q 2725 3281 2906 2969 
z
M 947 1747 
Q 947 1113 1208 752 
Q 1469 391 1925 391 
Q 2381 391 2643 752 
Q 2906 1113 2906 1747 
Q 2906 2381 2643 2742 
Q 2381 3103 1925 3103 
Q 1469 3103 1208 2742 
Q 947 2381 947 1747 
z
" transform="scale(0.015625)"/>
      <path id="DejaVuSans-6c" d="M 603 4863 
L 1178 4863 
L 1178 0 
L 603 0 
L 603 4863 
z
" transform="scale(0.015625)"/>
      <path id="DejaVuSans-20" transform="scale(0.015625)"/>
      <path id="DejaVuSans-74" d="M 1172 4494 
L 1172 3500 
L 2356 3500 
L 2356 3053 
L 1172 3053 
L 1172 1153 
Q 1172 725 1289 603 
Q 1406 481 1766 481 
L 2356 481 
L 2356 0 
L 1766 0 
Q 1100 0 847 248 
Q 594 497 594 1153 
L 594 3053 
L 172 3053 
L 172 3500 
L 594 3500 
L 594 4494 
L 1172 4494 
z
" transform="scale(0.015625)"/>
      <path id="DejaVuSans-69" d="M 603 3500 
L 1178 3500 
L 1178 0 
L 603 0 
L 603 3500 
z
M 603 4863 
L 1178 4863 
L 1178 4134 
L 603 4134 
L 603 4863 
z
" transform="scale(0.015625)"/>
      <path id="DejaVuSans-6e" d="M 3513 2113 
L 3513 0 
L 2938 0 
L 2938 2094 
Q 2938 2591 2744 2837 
Q 2550 3084 2163 3084 
Q 1697 3084 1428 2787 
Q 1159 2491 1159 1978 
L 1159 0 
L 581 0 
L 581 3500 
L 1159 3500 
L 1159 2956 
Q 1366 3272 1645 3428 
Q 1925 3584 2291 3584 
Q 2894 3584 3203 3211 
Q 3513 2838 3513 2113 
z
" transform="scale(0.015625)"/>
      <path id="DejaVuSans-76" d="M 191 3500 
L 800 3500 
L 1894 563 
L 2988 3500 
L 3597 3500 
L 2284 0 
L 1503 0 
L 191 3500 
z
" transform="scale(0.015625)"/>
     </defs>
     <use xlink:href="#DejaVuSans-6d"/>
     <use xlink:href="#DejaVuSans-6f" x="97.412109"/>
     <use xlink:href="#DejaVuSans-64" x="158.59375"/>
     <use xlink:href="#DejaVuSans-65" x="222.070312"/>
     <use xlink:href="#DejaVuSans-6c" x="283.59375"/>
     <use xlink:href="#DejaVuSans-20" x="311.376953"/>
     <use xlink:href="#DejaVuSans-74" x="343.164062"/>
     <use xlink:href="#DejaVuSans-72" x="382.373047"/>
     <use xlink:href="#DejaVuSans-61" x="423.486328"/>
     <use xlink:href="#DejaVuSans-69" x="484.765625"/>
     <use xlink:href="#DejaVuSans-6e" x="512.548828"/>
     <use xlink:href="#DejaVuSans-20" x="575.927734"/>
     <use xlink:href="#DejaVuSans-61" x="607.714844"/>
     <use xlink:href="#DejaVuSans-6e" x="668.994141"/>
     <use xlink:href="#DejaVuSans-64" x="732.373047"/>
     <use xlink:href="#DejaVuSans-20" x="795.849609"/>
     <use xlink:href="#DejaVuSans-76" x="827.636719"/>
     <use xlink:href="#DejaVuSans-61" x="886.816406"/>
     <use xlink:href="#DejaVuSans-6c" x="948.095703"/>
     <use xlink:href="#DejaVuSans-69" x="975.878906"/>
     <use xlink:href="#DejaVuSans-64" x="1003.662109"/>
     <use xlink:href="#DejaVuSans-61" x="1067.138672"/>
     <use xlink:href="#DejaVuSans-74" x="1128.417969"/>
     <use xlink:href="#DejaVuSans-69" x="1167.626953"/>
     <use xlink:href="#DejaVuSans-6f" x="1195.410156"/>
     <use xlink:href="#DejaVuSans-6e" x="1256.591797"/>
     <use xlink:href="#DejaVuSans-20" x="1319.970703"/>
     <use xlink:href="#DejaVuSans-61" x="1351.757812"/>
     <use xlink:href="#DejaVuSans-63" x="1413.037109"/>
     <use xlink:href="#DejaVuSans-63" x="1468.017578"/>
     <use xlink:href="#DejaVuSans-72" x="1522.998047"/>
     <use xlink:href="#DejaVuSans-61" x="1564.111328"/>
     <use xlink:href="#DejaVuSans-63" x="1625.390625"/>
     <use xlink:href="#DejaVuSans-79" x="1680.371094"/>
     <use xlink:href="#DejaVuSans-20" x="1739.550781"/>
     <use xlink:href="#DejaVuSans-6f" x="1771.337891"/>
     <use xlink:href="#DejaVuSans-76" x="1832.519531"/>
     <use xlink:href="#DejaVuSans-65" x="1891.699219"/>
     <use xlink:href="#DejaVuSans-72" x="1953.222656"/>
     <use xlink:href="#DejaVuSans-20" x="1994.335938"/>
     <use xlink:href="#DejaVuSans-74" x="2026.123047"/>
     <use xlink:href="#DejaVuSans-69" x="2065.332031"/>
     <use xlink:href="#DejaVuSans-6d" x="2093.115234"/>
     <use xlink:href="#DejaVuSans-65" x="2190.527344"/>
    </g>
   </g>
   <g id="legend_1">
    <g id="patch_7">
     <path d="M 559.765625 197.978125 
L 641 197.978125 
Q 643 197.978125 643 195.978125 
L 643 167.621875 
Q 643 165.621875 641 165.621875 
L 559.765625 165.621875 
Q 557.765625 165.621875 557.765625 167.621875 
L 557.765625 195.978125 
Q 557.765625 197.978125 559.765625 197.978125 
z
" style="fill: #ffffff; opacity: 0.8; stroke: #cccccc; stroke-linejoin: miter"/>
    </g>
    <g id="line2d_29">
     <path d="M 561.765625 173.720312 
L 571.765625 173.720312 
L 581.765625 173.720312 
" style="fill: none; stroke: #1f77b4; stroke-width: 1.5; stroke-linecap: square"/>
    </g>
    <g id="text_17">
     <!-- train -->
     <g transform="translate(589.765625 177.220312) scale(0.1 -0.1)">
      <use xlink:href="#DejaVuSans-74"/>
      <use xlink:href="#DejaVuSans-72" x="39.208984"/>
      <use xlink:href="#DejaVuSans-61" x="80.322266"/>
      <use xlink:href="#DejaVuSans-69" x="141.601562"/>
      <use xlink:href="#DejaVuSans-6e" x="169.384766"/>
     </g>
    </g>
    <g id="line2d_30">
     <path d="M 561.765625 188.398437 
L 571.765625 188.398437 
L 581.765625 188.398437 
" style="fill: none; stroke: #ff7f0e; stroke-width: 1.5; stroke-linecap: square"/>
    </g>
    <g id="text_18">
     <!-- validation -->
     <g transform="translate(589.765625 191.898437) scale(0.1 -0.1)">
      <use xlink:href="#DejaVuSans-76"/>
      <use xlink:href="#DejaVuSans-61" x="59.179688"/>
      <use xlink:href="#DejaVuSans-6c" x="120.458984"/>
      <use xlink:href="#DejaVuSans-69" x="148.242188"/>
      <use xlink:href="#DejaVuSans-64" x="176.025391"/>
      <use xlink:href="#DejaVuSans-61" x="239.501953"/>
      <use xlink:href="#DejaVuSans-74" x="300.78125"/>
      <use xlink:href="#DejaVuSans-69" x="339.990234"/>
      <use xlink:href="#DejaVuSans-6f" x="367.773438"/>
      <use xlink:href="#DejaVuSans-6e" x="428.955078"/>
     </g>
    </g>
   </g>
  </g>
 </g>
 <defs>
  <clipPath id="p8ca2d841d5">
   <rect x="90" y="43.2" width="558" height="277.2"/>
  </clipPath>
 </defs>
</svg>
