<?xml version="1.0" encoding="utf-8" standalone="no"?>
<!DOCTYPE svg PUBLIC "-//W3C//DTD SVG 1.1//EN"
  "http://www.w3.org/Graphics/SVG/1.1/DTD/svg11.dtd">
<svg xmlns:xlink="http://www.w3.org/1999/xlink" width="720pt" height="360pt" viewBox="0 0 720 360" xmlns="http://www.w3.org/2000/svg" version="1.1">
 <metadata>
  <rdf:RDF xmlns:dc="http://purl.org/dc/elements/1.1/" xmlns:cc="http://creativecommons.org/ns#" xmlns:rdf="http://www.w3.org/1999/02/22-rdf-syntax-ns#">
   <cc:Work>
    <dc:type rdf:resource="http://purl.org/dc/dcmitype/StillImage"/>
    <dc:date>2023-05-24T11:57:44.273013</dc:date>
    <dc:format>image/svg+xml</dc:format>
    <dc:creator>
     <cc:Agent>
      <dc:title>Matplotlib v3.7.1, https://matplotlib.org/</dc:title>
     </cc:Agent>
    </dc:creator>
   </cc:Work>
  </rdf:RDF>
 </metadata>
 <defs>
  <style type="text/css">*{stroke-linejoin: round; stroke-linecap: butt}</style>
 </defs>
 <g id="figure_1">
  <g id="patch_1">
   <path d="M 0 360 
L 720 360 
L 720 0 
L 0 0 
z
" style="fill: #ffffff"/>
  </g>
  <g id="axes_1">
   <g id="patch_2">
    <path d="M 90 320.4 
L 648 320.4 
L 648 43.2 
L 90 43.2 
z
" style="fill: #ffffff"/>
   </g>
   <g id="matplotlib.axis_1">
    <g id="xtick_1">
     <g id="line2d_1">
      <path d="M 115.363636 320.4 
L 115.363636 43.2 
" clip-path="url(#pbc516569c0)" style="fill: none; stroke: #b0b0b0; stroke-width: 0.8; stroke-linecap: square"/>
     </g>
     <g id="line2d_2">
      <defs>
       <path id="m7260c17470" d="M 0 0 
L 0 3.5 
" style="stroke: #000000; stroke-width: 0.8"/>
      </defs>
      <g>
       <use xlink:href="#m7260c17470" x="115.363636" y="320.4" style="stroke: #000000; stroke-width: 0.8"/>
      </g>
     </g>
     <g id="text_1">
      <!-- 0 -->
      <g transform="translate(112.182386 334.998438) scale(0.1 -0.1)">
       <defs>
        <path id="DejaVuSans-30" d="M 2034 4250 
Q 1547 4250 1301 3770 
Q 1056 3291 1056 2328 
Q 1056 1369 1301 889 
Q 1547 409 2034 409 
Q 2525 409 2770 889 
Q 3016 1369 3016 2328 
Q 3016 3291 2770 3770 
Q 2525 4250 2034 4250 
z
M 2034 4750 
Q 2819 4750 3233 4129 
Q 3647 3509 3647 2328 
Q 3647 1150 3233 529 
Q 2819 -91 2034 -91 
Q 1250 -91 836 529 
Q 422 1150 422 2328 
Q 422 3509 836 4129 
Q 1250 4750 2034 4750 
z
" transform="scale(0.015625)"/>
       </defs>
       <use xlink:href="#DejaVuSans-30"/>
      </g>
     </g>
    </g>
    <g id="xtick_2">
     <g id="line2d_3">
      <path d="M 217.021498 320.4 
L 217.021498 43.2 
" clip-path="url(#pbc516569c0)" style="fill: none; stroke: #b0b0b0; stroke-width: 0.8; stroke-linecap: square"/>
     </g>
     <g id="line2d_4">
      <g>
       <use xlink:href="#m7260c17470" x="217.021498" y="320.4" style="stroke: #000000; stroke-width: 0.8"/>
      </g>
     </g>
     <g id="text_2">
      <!-- 100 -->
      <g transform="translate(207.477748 334.998438) scale(0.1 -0.1)">
       <defs>
        <path id="DejaVuSans-31" d="M 794 531 
L 1825 531 
L 1825 4091 
L 703 3866 
L 703 4441 
L 1819 4666 
L 2450 4666 
L 2450 531 
L 3481 531 
L 3481 0 
L 794 0 
L 794 531 
z
" transform="scale(0.015625)"/>
       </defs>
       <use xlink:href="#DejaVuSans-31"/>
       <use xlink:href="#DejaVuSans-30" x="63.623047"/>
       <use xlink:href="#DejaVuSans-30" x="127.246094"/>
      </g>
     </g>
    </g>
    <g id="xtick_3">
     <g id="line2d_5">
      <path d="M 318.679359 320.4 
L 318.679359 43.2 
" clip-path="url(#pbc516569c0)" style="fill: none; stroke: #b0b0b0; stroke-width: 0.8; stroke-linecap: square"/>
     </g>
     <g id="line2d_6">
      <g>
       <use xlink:href="#m7260c17470" x="318.679359" y="320.4" style="stroke: #000000; stroke-width: 0.8"/>
      </g>
     </g>
     <g id="text_3">
      <!-- 200 -->
      <g transform="translate(309.135609 334.998438) scale(0.1 -0.1)">
       <defs>
        <path id="DejaVuSans-32" d="M 1228 531 
L 3431 531 
L 3431 0 
L 469 0 
L 469 531 
Q 828 903 1448 1529 
Q 2069 2156 2228 2338 
Q 2531 2678 2651 2914 
Q 2772 3150 2772 3378 
Q 2772 3750 2511 3984 
Q 2250 4219 1831 4219 
Q 1534 4219 1204 4116 
Q 875 4013 500 3803 
L 500 4441 
Q 881 4594 1212 4672 
Q 1544 4750 1819 4750 
Q 2544 4750 2975 4387 
Q 3406 4025 3406 3419 
Q 3406 3131 3298 2873 
Q 3191 2616 2906 2266 
Q 2828 2175 2409 1742 
Q 1991 1309 1228 531 
z
" transform="scale(0.015625)"/>
       </defs>
       <use xlink:href="#DejaVuSans-32"/>
       <use xlink:href="#DejaVuSans-30" x="63.623047"/>
       <use xlink:href="#DejaVuSans-30" x="127.246094"/>
      </g>
     </g>
    </g>
    <g id="xtick_4">
     <g id="line2d_7">
      <path d="M 420.33722 320.4 
L 420.33722 43.2 
" clip-path="url(#pbc516569c0)" style="fill: none; stroke: #b0b0b0; stroke-width: 0.8; stroke-linecap: square"/>
     </g>
     <g id="line2d_8">
      <g>
       <use xlink:href="#m7260c17470" x="420.33722" y="320.4" style="stroke: #000000; stroke-width: 0.8"/>
      </g>
     </g>
     <g id="text_4">
      <!-- 300 -->
      <g transform="translate(410.79347 334.998438) scale(0.1 -0.1)">
       <defs>
        <path id="DejaVuSans-33" d="M 2597 2516 
Q 3050 2419 3304 2112 
Q 3559 1806 3559 1356 
Q 3559 666 3084 287 
Q 2609 -91 1734 -91 
Q 1441 -91 1130 -33 
Q 819 25 488 141 
L 488 750 
Q 750 597 1062 519 
Q 1375 441 1716 441 
Q 2309 441 2620 675 
Q 2931 909 2931 1356 
Q 2931 1769 2642 2001 
Q 2353 2234 1838 2234 
L 1294 2234 
L 1294 2753 
L 1863 2753 
Q 2328 2753 2575 2939 
Q 2822 3125 2822 3475 
Q 2822 3834 2567 4026 
Q 2313 4219 1838 4219 
Q 1578 4219 1281 4162 
Q 984 4106 628 3988 
L 628 4550 
Q 988 4650 1302 4700 
Q 1616 4750 1894 4750 
Q 2613 4750 3031 4423 
Q 3450 4097 3450 3541 
Q 3450 3153 3228 2886 
Q 3006 2619 2597 2516 
z
" transform="scale(0.015625)"/>
       </defs>
       <use xlink:href="#DejaVuSans-33"/>
       <use xlink:href="#DejaVuSans-30" x="63.623047"/>
       <use xlink:href="#DejaVuSans-30" x="127.246094"/>
      </g>
     </g>
    </g>
    <g id="xtick_5">
     <g id="line2d_9">
      <path d="M 521.995081 320.4 
L 521.995081 43.2 
" clip-path="url(#pbc516569c0)" style="fill: none; stroke: #b0b0b0; stroke-width: 0.8; stroke-linecap: square"/>
     </g>
     <g id="line2d_10">
      <g>
       <use xlink:href="#m7260c17470" x="521.995081" y="320.4" style="stroke: #000000; stroke-width: 0.8"/>
      </g>
     </g>
     <g id="text_5">
      <!-- 400 -->
      <g transform="translate(512.451331 334.998438) scale(0.1 -0.1)">
       <defs>
        <path id="DejaVuSans-34" d="M 2419 4116 
L 825 1625 
L 2419 1625 
L 2419 4116 
z
M 2253 4666 
L 3047 4666 
L 3047 1625 
L 3713 1625 
L 3713 1100 
L 3047 1100 
L 3047 0 
L 2419 0 
L 2419 1100 
L 313 1100 
L 313 1709 
L 2253 4666 
z
" transform="scale(0.015625)"/>
       </defs>
       <use xlink:href="#DejaVuSans-34"/>
       <use xlink:href="#DejaVuSans-30" x="63.623047"/>
       <use xlink:href="#DejaVuSans-30" x="127.246094"/>
      </g>
     </g>
    </g>
    <g id="xtick_6">
     <g id="line2d_11">
      <path d="M 623.652942 320.4 
L 623.652942 43.2 
" clip-path="url(#pbc516569c0)" style="fill: none; stroke: #b0b0b0; stroke-width: 0.8; stroke-linecap: square"/>
     </g>
     <g id="line2d_12">
      <g>
       <use xlink:href="#m7260c17470" x="623.652942" y="320.4" style="stroke: #000000; stroke-width: 0.8"/>
      </g>
     </g>
     <g id="text_6">
      <!-- 500 -->
      <g transform="translate(614.109192 334.998438) scale(0.1 -0.1)">
       <defs>
        <path id="DejaVuSans-35" d="M 691 4666 
L 3169 4666 
L 3169 4134 
L 1269 4134 
L 1269 2991 
Q 1406 3038 1543 3061 
Q 1681 3084 1819 3084 
Q 2600 3084 3056 2656 
Q 3513 2228 3513 1497 
Q 3513 744 3044 326 
Q 2575 -91 1722 -91 
Q 1428 -91 1123 -41 
Q 819 9 494 109 
L 494 744 
Q 775 591 1075 516 
Q 1375 441 1709 441 
Q 2250 441 2565 725 
Q 2881 1009 2881 1497 
Q 2881 1984 2565 2268 
Q 2250 2553 1709 2553 
Q 1456 2553 1204 2497 
Q 953 2441 691 2322 
L 691 4666 
z
" transform="scale(0.015625)"/>
       </defs>
       <use xlink:href="#DejaVuSans-35"/>
       <use xlink:href="#DejaVuSans-30" x="63.623047"/>
       <use xlink:href="#DejaVuSans-30" x="127.246094"/>
      </g>
     </g>
    </g>
    <g id="text_7">
     <!-- epoch -->
     <g transform="translate(353.771875 348.676562) scale(0.1 -0.1)">
      <defs>
       <path id="DejaVuSans-65" d="M 3597 1894 
L 3597 1613 
L 953 1613 
Q 991 1019 1311 708 
Q 1631 397 2203 397 
Q 2534 397 2845 478 
Q 3156 559 3463 722 
L 3463 178 
Q 3153 47 2828 -22 
Q 2503 -91 2169 -91 
Q 1331 -91 842 396 
Q 353 884 353 1716 
Q 353 2575 817 3079 
Q 1281 3584 2069 3584 
Q 2775 3584 3186 3129 
Q 3597 2675 3597 1894 
z
M 3022 2063 
Q 3016 2534 2758 2815 
Q 2500 3097 2075 3097 
Q 1594 3097 1305 2825 
Q 1016 2553 972 2059 
L 3022 2063 
z
" transform="scale(0.015625)"/>
       <path id="DejaVuSans-70" d="M 1159 525 
L 1159 -1331 
L 581 -1331 
L 581 3500 
L 1159 3500 
L 1159 2969 
Q 1341 3281 1617 3432 
Q 1894 3584 2278 3584 
Q 2916 3584 3314 3078 
Q 3713 2572 3713 1747 
Q 3713 922 3314 415 
Q 2916 -91 2278 -91 
Q 1894 -91 1617 61 
Q 1341 213 1159 525 
z
M 3116 1747 
Q 3116 2381 2855 2742 
Q 2594 3103 2138 3103 
Q 1681 3103 1420 2742 
Q 1159 2381 1159 1747 
Q 1159 1113 1420 752 
Q 1681 391 2138 391 
Q 2594 391 2855 752 
Q 3116 1113 3116 1747 
z
" transform="scale(0.015625)"/>
       <path id="DejaVuSans-6f" d="M 1959 3097 
Q 1497 3097 1228 2736 
Q 959 2375 959 1747 
Q 959 1119 1226 758 
Q 1494 397 1959 397 
Q 2419 397 2687 759 
Q 2956 1122 2956 1747 
Q 2956 2369 2687 2733 
Q 2419 3097 1959 3097 
z
M 1959 3584 
Q 2709 3584 3137 3096 
Q 3566 2609 3566 1747 
Q 3566 888 3137 398 
Q 2709 -91 1959 -91 
Q 1206 -91 779 398 
Q 353 888 353 1747 
Q 353 2609 779 3096 
Q 1206 3584 1959 3584 
z
" transform="scale(0.015625)"/>
       <path id="DejaVuSans-63" d="M 3122 3366 
L 3122 2828 
Q 2878 2963 2633 3030 
Q 2388 3097 2138 3097 
Q 1578 3097 1268 2742 
Q 959 2388 959 1747 
Q 959 1106 1268 751 
Q 1578 397 2138 397 
Q 2388 397 2633 464 
Q 2878 531 3122 666 
L 3122 134 
Q 2881 22 2623 -34 
Q 2366 -91 2075 -91 
Q 1284 -91 818 406 
Q 353 903 353 1747 
Q 353 2603 823 3093 
Q 1294 3584 2113 3584 
Q 2378 3584 2631 3529 
Q 2884 3475 3122 3366 
z
" transform="scale(0.015625)"/>
       <path id="DejaVuSans-68" d="M 3513 2113 
L 3513 0 
L 2938 0 
L 2938 2094 
Q 2938 2591 2744 2837 
Q 2550 3084 2163 3084 
Q 1697 3084 1428 2787 
Q 1159 2491 1159 1978 
L 1159 0 
L 581 0 
L 581 4863 
L 1159 4863 
L 1159 2956 
Q 1366 3272 1645 3428 
Q 1925 3584 2291 3584 
Q 2894 3584 3203 3211 
Q 3513 2838 3513 2113 
z
" transform="scale(0.015625)"/>
      </defs>
      <use xlink:href="#DejaVuSans-65"/>
      <use xlink:href="#DejaVuSans-70" x="61.523438"/>
      <use xlink:href="#DejaVuSans-6f" x="125"/>
      <use xlink:href="#DejaVuSans-63" x="186.181641"/>
      <use xlink:href="#DejaVuSans-68" x="241.162109"/>
     </g>
    </g>
   </g>
   <g id="matplotlib.axis_2">
    <g id="ytick_1">
     <g id="line2d_13">
      <path d="M 90 298.763067 
L 648 298.763067 
" clip-path="url(#pbc516569c0)" style="fill: none; stroke: #b0b0b0; stroke-width: 0.8; stroke-linecap: square"/>
     </g>
     <g id="line2d_14">
      <defs>
       <path id="mad460d591c" d="M 0 0 
L -3.5 0 
" style="stroke: #000000; stroke-width: 0.8"/>
      </defs>
      <g>
       <use xlink:href="#mad460d591c" x="90" y="298.763067" style="stroke: #000000; stroke-width: 0.8"/>
      </g>
     </g>
     <g id="text_8">
      <!-- 1.275 -->
      <g transform="translate(54.371875 302.562286) scale(0.1 -0.1)">
       <defs>
        <path id="DejaVuSans-2e" d="M 684 794 
L 1344 794 
L 1344 0 
L 684 0 
L 684 794 
z
" transform="scale(0.015625)"/>
        <path id="DejaVuSans-37" d="M 525 4666 
L 3525 4666 
L 3525 4397 
L 1831 0 
L 1172 0 
L 2766 4134 
L 525 4134 
L 525 4666 
z
" transform="scale(0.015625)"/>
       </defs>
       <use xlink:href="#DejaVuSans-31"/>
       <use xlink:href="#DejaVuSans-2e" x="63.623047"/>
       <use xlink:href="#DejaVuSans-32" x="95.410156"/>
       <use xlink:href="#DejaVuSans-37" x="159.033203"/>
       <use xlink:href="#DejaVuSans-35" x="222.65625"/>
      </g>
     </g>
    </g>
    <g id="ytick_2">
     <g id="line2d_15">
      <path d="M 90 265.906917 
L 648 265.906917 
" clip-path="url(#pbc516569c0)" style="fill: none; stroke: #b0b0b0; stroke-width: 0.8; stroke-linecap: square"/>
     </g>
     <g id="line2d_16">
      <g>
       <use xlink:href="#mad460d591c" x="90" y="265.906917" style="stroke: #000000; stroke-width: 0.8"/>
      </g>
     </g>
     <g id="text_9">
      <!-- 1.300 -->
      <g transform="translate(54.371875 269.706136) scale(0.1 -0.1)">
       <use xlink:href="#DejaVuSans-31"/>
       <use xlink:href="#DejaVuSans-2e" x="63.623047"/>
       <use xlink:href="#DejaVuSans-33" x="95.410156"/>
       <use xlink:href="#DejaVuSans-30" x="159.033203"/>
       <use xlink:href="#DejaVuSans-30" x="222.65625"/>
      </g>
     </g>
    </g>
    <g id="ytick_3">
     <g id="line2d_17">
      <path d="M 90 233.050767 
L 648 233.050767 
" clip-path="url(#pbc516569c0)" style="fill: none; stroke: #b0b0b0; stroke-width: 0.8; stroke-linecap: square"/>
     </g>
     <g id="line2d_18">
      <g>
       <use xlink:href="#mad460d591c" x="90" y="233.050767" style="stroke: #000000; stroke-width: 0.8"/>
      </g>
     </g>
     <g id="text_10">
      <!-- 1.325 -->
      <g transform="translate(54.371875 236.849986) scale(0.1 -0.1)">
       <use xlink:href="#DejaVuSans-31"/>
       <use xlink:href="#DejaVuSans-2e" x="63.623047"/>
       <use xlink:href="#DejaVuSans-33" x="95.410156"/>
       <use xlink:href="#DejaVuSans-32" x="159.033203"/>
       <use xlink:href="#DejaVuSans-35" x="222.65625"/>
      </g>
     </g>
    </g>
    <g id="ytick_4">
     <g id="line2d_19">
      <path d="M 90 200.194617 
L 648 200.194617 
" clip-path="url(#pbc516569c0)" style="fill: none; stroke: #b0b0b0; stroke-width: 0.8; stroke-linecap: square"/>
     </g>
     <g id="line2d_20">
      <g>
       <use xlink:href="#mad460d591c" x="90" y="200.194617" style="stroke: #000000; stroke-width: 0.8"/>
      </g>
     </g>
     <g id="text_11">
      <!-- 1.350 -->
      <g transform="translate(54.371875 203.993836) scale(0.1 -0.1)">
       <use xlink:href="#DejaVuSans-31"/>
       <use xlink:href="#DejaVuSans-2e" x="63.623047"/>
       <use xlink:href="#DejaVuSans-33" x="95.410156"/>
       <use xlink:href="#DejaVuSans-35" x="159.033203"/>
       <use xlink:href="#DejaVuSans-30" x="222.65625"/>
      </g>
     </g>
    </g>
    <g id="ytick_5">
     <g id="line2d_21">
      <path d="M 90 167.338467 
L 648 167.338467 
" clip-path="url(#pbc516569c0)" style="fill: none; stroke: #b0b0b0; stroke-width: 0.8; stroke-linecap: square"/>
     </g>
     <g id="line2d_22">
      <g>
       <use xlink:href="#mad460d591c" x="90" y="167.338467" style="stroke: #000000; stroke-width: 0.8"/>
      </g>
     </g>
     <g id="text_12">
      <!-- 1.375 -->
      <g transform="translate(54.371875 171.137685) scale(0.1 -0.1)">
       <use xlink:href="#DejaVuSans-31"/>
       <use xlink:href="#DejaVuSans-2e" x="63.623047"/>
       <use xlink:href="#DejaVuSans-33" x="95.410156"/>
       <use xlink:href="#DejaVuSans-37" x="159.033203"/>
       <use xlink:href="#DejaVuSans-35" x="222.65625"/>
      </g>
     </g>
    </g>
    <g id="ytick_6">
     <g id="line2d_23">
      <path d="M 90 134.482316 
L 648 134.482316 
" clip-path="url(#pbc516569c0)" style="fill: none; stroke: #b0b0b0; stroke-width: 0.8; stroke-linecap: square"/>
     </g>
     <g id="line2d_24">
      <g>
       <use xlink:href="#mad460d591c" x="90" y="134.482316" style="stroke: #000000; stroke-width: 0.8"/>
      </g>
     </g>
     <g id="text_13">
      <!-- 1.400 -->
      <g transform="translate(54.371875 138.281535) scale(0.1 -0.1)">
       <use xlink:href="#DejaVuSans-31"/>
       <use xlink:href="#DejaVuSans-2e" x="63.623047"/>
       <use xlink:href="#DejaVuSans-34" x="95.410156"/>
       <use xlink:href="#DejaVuSans-30" x="159.033203"/>
       <use xlink:href="#DejaVuSans-30" x="222.65625"/>
      </g>
     </g>
    </g>
    <g id="ytick_7">
     <g id="line2d_25">
      <path d="M 90 101.626166 
L 648 101.626166 
" clip-path="url(#pbc516569c0)" style="fill: none; stroke: #b0b0b0; stroke-width: 0.8; stroke-linecap: square"/>
     </g>
     <g id="line2d_26">
      <g>
       <use xlink:href="#mad460d591c" x="90" y="101.626166" style="stroke: #000000; stroke-width: 0.8"/>
      </g>
     </g>
     <g id="text_14">
      <!-- 1.425 -->
      <g transform="translate(54.371875 105.425385) scale(0.1 -0.1)">
       <use xlink:href="#DejaVuSans-31"/>
       <use xlink:href="#DejaVuSans-2e" x="63.623047"/>
       <use xlink:href="#DejaVuSans-34" x="95.410156"/>
       <use xlink:href="#DejaVuSans-32" x="159.033203"/>
       <use xlink:href="#DejaVuSans-35" x="222.65625"/>
      </g>
     </g>
    </g>
    <g id="ytick_8">
     <g id="line2d_27">
      <path d="M 90 68.770016 
L 648 68.770016 
" clip-path="url(#pbc516569c0)" style="fill: none; stroke: #b0b0b0; stroke-width: 0.8; stroke-linecap: square"/>
     </g>
     <g id="line2d_28">
      <g>
       <use xlink:href="#mad460d591c" x="90" y="68.770016" style="stroke: #000000; stroke-width: 0.8"/>
      </g>
     </g>
     <g id="text_15">
      <!-- 1.450 -->
      <g transform="translate(54.371875 72.569235) scale(0.1 -0.1)">
       <use xlink:href="#DejaVuSans-31"/>
       <use xlink:href="#DejaVuSans-2e" x="63.623047"/>
       <use xlink:href="#DejaVuSans-34" x="95.410156"/>
       <use xlink:href="#DejaVuSans-35" x="159.033203"/>
       <use xlink:href="#DejaVuSans-30" x="222.65625"/>
      </g>
     </g>
    </g>
    <g id="text_16">
     <!-- loss -->
     <g transform="translate(48.292188 191.457812) rotate(-90) scale(0.1 -0.1)">
      <defs>
       <path id="DejaVuSans-6c" d="M 603 4863 
L 1178 4863 
L 1178 0 
L 603 0 
L 603 4863 
z
" transform="scale(0.015625)"/>
       <path id="DejaVuSans-73" d="M 2834 3397 
L 2834 2853 
Q 2591 2978 2328 3040 
Q 2066 3103 1784 3103 
Q 1356 3103 1142 2972 
Q 928 2841 928 2578 
Q 928 2378 1081 2264 
Q 1234 2150 1697 2047 
L 1894 2003 
Q 2506 1872 2764 1633 
Q 3022 1394 3022 966 
Q 3022 478 2636 193 
Q 2250 -91 1575 -91 
Q 1294 -91 989 -36 
Q 684 19 347 128 
L 347 722 
Q 666 556 975 473 
Q 1284 391 1588 391 
Q 1994 391 2212 530 
Q 2431 669 2431 922 
Q 2431 1156 2273 1281 
Q 2116 1406 1581 1522 
L 1381 1569 
Q 847 1681 609 1914 
Q 372 2147 372 2553 
Q 372 3047 722 3315 
Q 1072 3584 1716 3584 
Q 2034 3584 2315 3537 
Q 2597 3491 2834 3397 
z
" transform="scale(0.015625)"/>
      </defs>
      <use xlink:href="#DejaVuSans-6c"/>
      <use xlink:href="#DejaVuSans-6f" x="27.783203"/>
      <use xlink:href="#DejaVuSans-73" x="88.964844"/>
      <use xlink:href="#DejaVuSans-73" x="141.064453"/>
     </g>
    </g>
   </g>
   <g id="line2d_29">
    <path d="M 115.363636 55.8 
L 116.380215 143.049395 
L 117.396794 141.896928 
L 118.413372 134.59092 
L 119.429951 144.873978 
L 120.446529 140.533113 
L 121.463108 145.468228 
L 122.479687 133.911598 
L 123.496265 127.019983 
L 124.512844 137.895881 
L 125.529422 134.604237 
L 126.546001 141.749815 
L 127.56258 142.282024 
L 128.579158 147.511366 
L 129.595737 129.768764 
L 130.612316 146.126557 
L 131.628894 143.644116 
L 132.645473 139.954999 
L 133.662051 145.38206 
L 134.67863 134.149737 
L 135.695209 138.665132 
L 136.711787 141.966333 
L 137.728366 138.105819 
L 138.744944 142.597401 
L 139.761523 136.555723 
L 140.778102 144.767755 
L 141.79468 133.547026 
L 142.811259 145.69117 
L 143.827837 131.472554 
L 144.844416 144.453161 
L 145.860995 142.248496 
L 146.877573 138.234759 
L 147.894152 136.045918 
L 148.910731 135.758428 
L 149.927309 140.56241 
L 150.943888 147.52625 
L 151.960466 142.701273 
L 152.977045 132.485898 
L 153.993624 125.984862 
L 155.010202 137.813316 
L 156.026781 141.68229 
L 157.043359 138.729837 
L 158.059938 144.311688 
L 159.076517 143.085899 
L 160.093095 129.953792 
L 161.109674 140.342132 
L 162.126253 134.677716 
L 163.142831 144.178205 
L 164.15941 139.381272 
L 165.175988 137.290664 
L 166.192567 139.70605 
L 167.209146 141.763288 
L 168.225724 147.731174 
L 169.242303 144.059292 
L 170.258881 148.085406 
L 171.27546 142.40595 
L 172.292039 138.987247 
L 173.308617 129.111689 
L 174.325196 136.983903 
L 175.341774 139.828253 
L 176.358353 139.562227 
L 177.374932 136.605387 
L 178.39151 143.760208 
L 179.408089 137.14731 
L 180.424668 136.308341 
L 181.441246 144.147811 
L 182.457825 129.790071 
L 183.474403 137.700826 
L 184.490982 141.085532 
L 185.507561 135.43318 
L 186.524139 142.508256 
L 187.540718 140.69887 
L 188.557296 142.941919 
L 189.573875 138.644139 
L 190.590454 137.668709 
L 191.607032 131.867677 
L 192.623611 145.732061 
L 193.640189 140.246563 
L 194.656768 140.158671 
L 195.673347 139.946852 
L 196.689925 132.178824 
L 197.706504 140.124673 
L 199.739661 134.42297 
L 200.75624 132.215171 
L 201.772818 134.462137 
L 203.805976 142.753445 
L 204.822554 140.803839 
L 205.839133 139.098482 
L 206.855711 135.040094 
L 207.87229 144.779035 
L 208.888869 144.633332 
L 209.905447 147.97135 
L 210.922026 142.569514 
L 211.938604 139.449581 
L 212.955183 146.716577 
L 213.971762 143.546197 
L 214.98834 143.755978 
L 216.004919 146.26474 
L 217.021498 182.122193 
L 218.038076 153.586258 
L 219.054655 134.312987 
L 220.071233 135.105269 
L 222.104391 142.371169 
L 223.120969 141.69404 
L 224.137548 140.827496 
L 225.154126 139.198908 
L 226.170705 139.495485 
L 227.187284 141.705633 
L 228.203862 133.473234 
L 229.220441 134.626798 
L 230.237019 135.017847 
L 231.253598 143.664013 
L 232.270177 139.232749 
L 233.286755 132.336434 
L 234.303334 144.534003 
L 235.319913 145.886851 
L 236.336491 138.338945 
L 237.35307 138.9838 
L 238.369648 140.913978 
L 239.386227 136.907448 
L 240.402806 123.859159 
L 241.419384 133.849243 
L 242.435963 131.214205 
L 243.452541 140.083782 
L 244.46912 144.56894 
L 245.485699 146.481415 
L 246.502277 137.386546 
L 247.518856 142.103263 
L 248.535435 136.694846 
L 249.552013 135.806055 
L 250.568592 133.961106 
L 251.58517 135.860107 
L 252.601749 142.24881 
L 253.618328 131.697533 
L 254.634906 132.01009 
L 256.668063 141.339495 
L 257.684642 134.947189 
L 258.701221 143.157184 
L 259.717799 135.957869 
L 260.734378 140.9685 
L 261.750956 135.225905 
L 262.767535 143.481022 
L 263.784114 131.720093 
L 264.800692 145.881995 
L 265.817271 146.536563 
L 266.83385 141.258183 
L 267.850428 147.301898 
L 268.867007 144.976283 
L 269.883585 134.097409 
L 270.900164 136.076155 
L 271.916743 134.126236 
L 272.933321 134.792085 
L 273.9499 142.394826 
L 274.966478 138.508305 
L 275.983057 141.230139 
L 276.999636 137.257919 
L 278.016214 138.055215 
L 279.032793 141.730387 
L 280.049371 146.492539 
L 281.06595 145.304664 
L 282.082529 142.416603 
L 283.099107 132.885407 
L 284.115686 136.747957 
L 285.132265 143.833217 
L 286.148843 138.203738 
L 287.165422 140.193295 
L 288.182 136.565123 
L 289.198579 133.759941 
L 290.215158 138.627531 
L 291.231736 135.692939 
L 292.248315 129.59956 
L 293.264893 138.481201 
L 294.281472 140.845983 
L 295.298051 142.197892 
L 296.314629 139.496425 
L 297.331208 138.546846 
L 298.347786 142.230009 
L 299.364365 144.983647 
L 300.380944 137.381689 
L 301.397522 144.987564 
L 302.414101 142.467521 
L 303.43068 143.884448 
L 304.447258 138.478538 
L 305.463837 144.718091 
L 306.480415 139.100363 
L 307.496994 142.224526 
L 308.513573 138.826033 
L 309.530151 128.260812 
L 310.54673 127.317813 
L 311.563308 141.399656 
L 312.579887 140.630092 
L 313.596466 146.269754 
L 314.613044 136.197105 
L 315.629623 137.644112 
L 316.646201 137.157337 
L 317.66278 133.945439 
L 318.679359 143.040465 
L 319.695937 140.260663 
L 320.712516 138.71934 
L 321.729095 144.569254 
L 322.745673 138.604031 
L 323.762252 141.70438 
L 324.77883 125.985176 
L 325.795409 141.482378 
L 326.811988 134.986356 
L 327.828566 138.956696 
L 328.845145 132.977686 
L 329.861723 138.755218 
L 330.878302 148.40282 
L 331.894881 130.956639 
L 332.911459 138.836843 
L 333.928038 134.546269 
L 334.944617 139.747881 
L 335.961195 140.15115 
L 336.977774 147.204449 
L 337.994352 144.725611 
L 339.010931 139.015134 
L 340.02751 136.822533 
L 341.044088 144.71104 
L 342.060667 143.625628 
L 343.077245 123.351077 
L 344.093824 145.623645 
L 345.110403 137.357405 
L 346.126981 135.290297 
L 347.14356 141.684483 
L 348.160138 143.53382 
L 349.176717 139.178541 
L 350.193296 131.058474 
L 351.209874 144.456138 
L 352.226453 146.586384 
L 353.243032 143.551837 
L 354.25961 137.576744 
L 355.276189 144.701327 
L 356.292767 142.304427 
L 357.309346 137.316827 
L 358.325925 136.870317 
L 359.342503 142.334195 
L 360.359082 144.762742 
L 361.37566 132.653535 
L 362.392239 141.903351 
L 363.408818 143.724957 
L 364.425396 142.045765 
L 365.441975 145.281477 
L 366.458553 144.654796 
L 367.475132 142.491492 
L 368.491711 139.230869 
L 369.508289 141.480028 
L 370.524868 140.007327 
L 371.541447 141.907738 
L 372.558025 133.109289 
L 373.574604 129.549269 
L 374.591182 146.313151 
L 375.607761 131.038421 
L 376.62434 125.188194 
L 377.640918 141.219015 
L 378.657497 146.391173 
L 379.674075 142.102636 
L 380.690654 142.540843 
L 381.707233 142.061745 
L 382.723811 144.822903 
L 383.74039 137.160784 
L 384.756968 146.081436 
L 385.773547 140.342602 
L 386.790126 136.243949 
L 387.806704 145.883561 
L 388.823283 140.598444 
L 389.839862 144.104256 
L 390.85644 143.517213 
L 391.873019 135.798692 
L 392.889597 139.727201 
L 393.906176 133.506135 
L 394.922755 142.430547 
L 395.939333 132.681422 
L 396.955912 128.102575 
L 397.97249 145.712164 
L 398.989069 143.462535 
L 400.005648 131.489161 
L 401.022226 144.609205 
L 402.038805 136.668682 
L 403.055383 141.510266 
L 404.071962 144.666076 
L 405.088541 143.000827 
L 406.105119 142.265417 
L 407.121698 143.659156 
L 408.138277 135.73289 
L 409.154855 139.735034 
L 410.171434 148.790109 
L 411.188012 130.799028 
L 412.204591 147.708301 
L 413.22117 143.983463 
L 414.237748 134.613011 
L 415.254327 144.776842 
L 416.270905 142.636412 
L 417.287484 139.011844 
L 418.304063 151.956887 
L 419.320641 134.387876 
L 420.33722 141.029758 
L 421.353799 139.335055 
L 422.370377 150.761805 
L 423.386956 146.750888 
L 424.403534 139.991033 
L 425.420113 141.892541 
L 426.436692 138.14624 
L 427.45327 141.096343 
L 428.469849 135.064535 
L 429.486427 143.484155 
L 430.503006 139.1306 
L 431.519585 139.83734 
L 432.536163 127.541695 
L 433.552742 136.118143 
L 434.56932 121.453173 
L 435.585899 131.503888 
L 436.602478 140.298734 
L 437.619056 131.141353 
L 438.635635 142.39749 
L 439.652214 141.001244 
L 441.685371 137.5628 
L 442.701949 139.901418 
L 443.718528 148.475515 
L 444.735107 143.800472 
L 445.751685 142.13773 
L 446.768264 147.912129 
L 448.801421 143.147157 
L 449.818 139.708557 
L 450.834578 141.513869 
L 451.851157 144.342709 
L 452.867735 145.959233 
L 453.884314 141.765795 
L 454.900893 144.037358 
L 455.917471 144.454884 
L 456.93405 143.505462 
L 457.950629 140.529979 
L 458.967207 138.985523 
L 459.983786 138.513632 
L 461.000364 142.303644 
L 462.016943 143.68861 
L 463.033522 147.223406 
L 464.0501 146.012658 
L 466.083257 135.759054 
L 467.099836 144.911892 
L 468.116415 141.384459 
L 469.132993 137.059575 
L 470.149572 149.828207 
L 471.16615 142.569514 
L 472.182729 142.193818 
L 473.199308 129.101035 
L 474.215886 138.668422 
L 475.232465 139.324088 
L 476.249044 141.494129 
L 477.265622 142.383233 
L 478.282201 145.946699 
L 479.298779 139.461331 
L 480.315358 144.123057 
L 482.348515 138.709157 
L 483.365094 144.738144 
L 484.381672 142.671349 
L 485.398251 141.096343 
L 486.41483 134.916168 
L 487.431408 140.515409 
L 488.447987 149.437941 
L 489.464565 130.626378 
L 490.481144 149.948686 
L 491.497723 134.106182 
L 492.514301 135.211178 
L 493.53088 131.847309 
L 494.547459 138.956226 
L 495.564037 141.002184 
L 496.580616 139.890764 
L 497.597194 139.709183 
L 498.613773 138.875541 
L 499.630352 139.892331 
L 500.64693 137.630325 
L 501.663509 141.831126 
L 502.680087 136.642518 
L 503.696666 137.940532 
L 504.713245 143.107676 
L 505.729823 140.854914 
L 506.746402 136.045604 
L 507.762981 142.017721 
L 508.779559 144.974247 
L 509.796138 139.206272 
L 510.812716 142.57437 
L 511.829295 143.551367 
L 512.845874 137.807676 
L 513.862452 135.358448 
L 514.879031 143.618108 
L 515.895609 140.96615 
L 516.912188 145.803033 
L 517.928767 148.24239 
L 518.945345 142.204628 
L 519.961924 133.925385 
L 520.978502 146.164001 
L 521.995081 140.080022 
L 523.01166 147.152591 
L 524.028238 139.231966 
L 525.044817 143.678896 
L 526.061396 134.41545 
L 527.077974 134.952672 
L 528.094553 141.722084 
L 529.111131 129.763594 
L 530.12771 142.97999 
L 531.144289 145.973803 
L 532.160867 139.224132 
L 533.177446 143.424307 
L 534.194024 140.535149 
L 535.210603 148.004251 
L 536.227182 138.998997 
L 537.24376 144.951686 
L 538.260339 145.351352 
L 539.276917 144.284427 
L 540.293496 144.523036 
L 542.326653 140.739448 
L 543.343232 143.735924 
L 544.359811 145.727361 
L 545.376389 132.470231 
L 546.392968 144.411957 
L 547.409546 134.492688 
L 548.426125 132.560159 
L 549.442704 144.13183 
L 550.459282 147.283724 
L 551.475861 140.759971 
L 553.509018 148.706134 
L 555.542175 124.725076 
L 556.558754 124.922951 
L 558.591911 138.27377 
L 559.60849 138.535409 
L 560.625068 141.346545 
L 561.641647 133.978966 
L 562.658226 130.87047 
L 563.674804 142.859197 
L 564.691383 140.209745 
L 565.707961 148.253043 
L 566.72454 143.880218 
L 567.741119 143.355842 
L 568.757697 140.778302 
L 569.774276 137.846843 
L 570.790854 146.730991 
L 571.807433 137.908571 
L 572.824012 142.644402 
L 573.84059 134.410279 
L 574.857169 141.011897 
L 575.873747 138.246823 
L 576.890326 146.355296 
L 577.906905 132.294447 
L 578.923483 143.725427 
L 579.940062 141.570427 
L 580.956641 148.223589 
L 582.989798 136.061428 
L 584.006376 140.235439 
L 585.022955 142.963226 
L 586.039534 146.55176 
L 587.056112 145.160841 
L 588.072691 142.322131 
L 589.089269 138.790939 
L 591.122427 127.620344 
L 592.139005 140.42877 
L 593.155584 140.919775 
L 594.172163 137.745634 
L 595.188741 141.503842 
L 596.20532 143.227372 
L 597.221898 127.837646 
L 598.238477 142.10671 
L 599.255056 135.42519 
L 600.271634 137.989727 
L 601.288213 134.208175 
L 602.304791 141.603798 
L 603.32137 150.52868 
L 604.337949 142.214969 
L 605.354527 138.924892 
L 606.371106 142.074592 
L 607.387684 135.563216 
L 608.404263 140.83298 
L 609.420842 138.045971 
L 610.43742 147.143661 
L 611.453999 151.442225 
L 612.470578 140.495042 
L 613.487156 134.698396 
L 614.503735 136.468301 
L 615.520313 143.326701 
L 616.536892 143.935522 
L 617.553471 138.472114 
L 618.570049 143.068352 
L 619.586628 136.077878 
L 620.603206 131.974682 
L 621.619785 145.219436 
L 622.636364 141.480185 
L 622.636364 141.480185 
" clip-path="url(#pbc516569c0)" style="fill: none; stroke: #1f77b4; stroke-width: 1.5; stroke-linecap: square"/>
   </g>
   <g id="line2d_30">
    <path d="M 115.363636 157.80022 
L 116.380215 157.123091 
L 117.396794 159.891456 
L 118.413372 157.274434 
L 119.429951 157.324882 
L 120.446529 164.373167 
L 121.463108 155.470846 
L 122.479687 141.25599 
L 123.496265 160.875032 
L 124.512844 152.630256 
L 125.529422 159.377577 
L 126.546001 164.028336 
L 127.56258 161.679064 
L 128.579158 151.628192 
L 129.595737 149.033888 
L 130.612316 161.473513 
L 131.628894 153.817347 
L 132.645473 149.439038 
L 133.662051 150.591818 
L 134.67863 158.790063 
L 135.695209 158.288092 
L 136.711787 160.730269 
L 137.728366 157.735202 
L 138.744944 142.035581 
L 139.761523 156.995875 
L 140.778102 135.341841 
L 141.79468 150.701331 
L 142.811259 152.037415 
L 143.827837 158.36627 
L 144.844416 154.65992 
L 145.860995 161.422438 
L 146.877573 159.311932 
L 147.894152 155.136511 
L 148.910731 160.296605 
L 149.927309 148.425224 
L 150.943888 156.80458 
L 151.960466 159.905869 
L 152.977045 159.112177 
L 153.993624 139.807886 
L 155.010202 158.043059 
L 156.026781 158.294985 
L 157.043359 146.186248 
L 158.059938 160.199783 
L 159.076517 159.739329 
L 160.093095 156.967987 
L 161.109674 158.398701 
L 162.126253 158.460116 
L 163.142831 141.918235 
L 164.15941 152.583881 
L 165.175988 151.634929 
L 166.192567 158.319426 
L 167.209146 158.610049 
L 168.225724 160.340473 
L 169.242303 155.937723 
L 170.258881 161.452049 
L 171.27546 138.717147 
L 172.292039 156.580855 
L 173.308617 152.320675 
L 174.325196 134.458847 
L 175.341774 159.66538 
L 176.358353 158.056533 
L 177.374932 156.821971 
L 178.39151 157.341646 
L 179.408089 162.235871 
L 180.424668 159.019742 
L 181.441246 164.661441 
L 182.457825 155.904039 
L 183.474403 158.197223 
L 184.490982 164.587806 
L 185.507561 150.789066 
L 186.524139 153.500089 
L 187.540718 153.646733 
L 188.557296 162.840775 
L 189.573875 162.688648 
L 190.590454 146.429087 
L 191.607032 164.205217 
L 192.623611 155.36948 
L 193.640189 139.845957 
L 194.656768 156.65308 
L 195.673347 154.843538 
L 196.689925 160.174872 
L 197.706504 161.876782 
L 198.723083 156.898426 
L 199.739661 165.32635 
L 200.75624 163.22728 
L 201.772818 155.516123 
L 202.789397 157.735202 
L 203.805976 162.241041 
L 204.822554 152.861971 
L 205.839133 153.482386 
L 206.855711 164.75607 
L 207.87229 143.165018 
L 208.888869 155.722145 
L 209.905447 162.818214 
L 210.922026 164.678674 
L 211.938604 155.695981 
L 212.955183 152.033655 
L 213.971762 155.675144 
L 214.98834 162.571772 
L 216.004919 164.649847 
L 217.021498 307.8 
L 218.038076 141.159951 
L 219.054655 146.54894 
L 220.071233 157.65483 
L 221.087812 158.171215 
L 222.104391 153.848994 
L 223.120969 157.195473 
L 224.137548 134.731454 
L 225.154126 129.585147 
L 226.170705 149.905445 
L 227.187284 154.791836 
L 228.203862 164.072047 
L 229.220441 152.671773 
L 230.237019 165.216524 
L 231.253598 165.284675 
L 232.270177 141.124543 
L 233.286755 161.200906 
L 234.303334 157.774839 
L 235.319913 158.331646 
L 236.336491 125.59021 
L 237.35307 164.895819 
L 238.369648 161.6294 
L 239.386227 160.905426 
L 240.402806 156.978328 
L 241.419384 158.303445 
L 242.435963 157.882942 
L 243.452541 151.321902 
L 244.46912 148.028691 
L 245.485699 152.499436 
L 246.502277 155.329216 
L 247.518856 149.621715 
L 248.535435 150.26281 
L 249.552013 143.960903 
L 250.568592 128.215534 
L 251.58517 157.101157 
L 252.601749 142.887241 
L 253.618328 157.187952 
L 254.634906 145.903928 
L 255.651485 165.414555 
L 256.668063 142.205569 
L 258.701221 164.650787 
L 259.717799 142.176428 
L 260.734378 161.395491 
L 261.750956 158.283548 
L 262.767535 154.235187 
L 263.784114 160.22767 
L 264.800692 163.858349 
L 265.817271 155.362116 
L 266.83385 145.708404 
L 267.850428 160.341413 
L 268.867007 148.363026 
L 269.883585 162.22036 
L 270.900164 151.235733 
L 271.916743 146.749008 
L 272.933321 166.913733 
L 274.966478 137.617478 
L 275.983057 135.393542 
L 276.999636 152.454785 
L 278.016214 161.763509 
L 279.032793 155.027155 
L 280.049371 164.853832 
L 281.06595 155.914536 
L 282.082529 125.581906 
L 283.099107 145.83844 
L 285.132265 162.172576 
L 286.148843 128.077351 
L 287.165422 138.724197 
L 288.182 138.834493 
L 290.215158 157.320496 
L 291.231736 137.092162 
L 292.248315 161.949791 
L 293.264893 155.489959 
L 294.281472 144.100026 
L 295.298051 163.701051 
L 296.314629 152.343079 
L 297.331208 147.69655 
L 298.347786 161.705855 
L 299.364365 146.445538 
L 300.380944 144.223952 
L 301.397522 160.844795 
L 302.414101 165.028676 
L 303.43068 153.715198 
L 304.447258 160.854978 
L 305.463837 163.917413 
L 306.480415 138.904211 
L 308.513573 156.139671 
L 309.530151 152.771102 
L 310.54673 147.714567 
L 311.563308 157.377367 
L 312.579887 144.534003 
L 313.596466 147.746685 
L 314.613044 125.101398 
L 315.629623 151.607512 
L 316.646201 147.317721 
L 317.66278 159.338409 
L 318.679359 158.65376 
L 319.695937 162.024992 
L 320.712516 156.010105 
L 321.729095 159.539887 
L 322.745673 153.67415 
L 323.762252 128.58089 
L 324.77883 158.437712 
L 325.795409 162.433275 
L 326.811988 152.913672 
L 327.828566 139.55643 
L 328.845145 149.336889 
L 329.861723 148.161235 
L 330.878302 152.780816 
L 331.894881 163.77594 
L 332.911459 157.753846 
L 333.928038 157.579785 
L 334.944617 153.122827 
L 335.961195 158.408258 
L 336.977774 162.961568 
L 337.994352 156.110061 
L 339.010931 136.126446 
L 340.02751 155.632059 
L 341.044088 161.006478 
L 342.060667 162.580702 
L 343.077245 161.027786 
L 344.093824 159.842575 
L 345.110403 156.715748 
L 346.126981 152.328979 
L 347.14356 159.932817 
L 348.160138 160.752673 
L 349.176717 160.286578 
L 350.193296 149.065692 
L 351.209874 160.500903 
L 352.226453 143.092793 
L 353.243032 162.623786 
L 354.25961 167.062257 
L 355.276189 152.192832 
L 356.292767 148.223903 
L 357.309346 150.760239 
L 358.325925 156.08938 
L 359.342503 154.960257 
L 360.359082 159.316789 
L 361.37566 153.216359 
L 362.392239 152.965374 
L 363.408818 160.901666 
L 364.425396 161.222057 
L 365.441975 158.692144 
L 366.458553 153.483796 
L 367.475132 152.464029 
L 368.491711 156.397394 
L 369.508289 153.11327 
L 370.524868 159.202106 
L 371.541447 151.386137 
L 372.558025 161.676557 
L 373.574604 157.371257 
L 374.591182 161.591955 
L 375.607761 149.709137 
L 376.62434 157.861322 
L 377.640918 162.879629 
L 378.657497 155.040316 
L 379.674075 164.040713 
L 380.690654 160.872839 
L 381.707233 162.612663 
L 383.74039 152.431754 
L 384.756968 147.862934 
L 385.773547 158.046506 
L 386.790126 140.765768 
L 387.806704 163.108368 
L 388.823283 151.492202 
L 389.839862 155.266861 
L 390.85644 152.237797 
L 391.873019 159.607099 
L 392.889597 145.643229 
L 393.906176 154.747969 
L 394.922755 155.304305 
L 395.939333 155.621562 
L 396.955912 148.447785 
L 397.97249 152.824997 
L 398.989069 159.202106 
L 400.005648 153.477059 
L 401.022226 164.19942 
L 402.038805 146.606751 
L 403.055383 165.474246 
L 404.071962 152.548944 
L 405.088541 160.020865 
L 406.105119 152.311118 
L 407.121698 131.932068 
L 408.138277 161.702095 
L 409.154855 155.842154 
L 410.171434 158.130794 
L 411.188012 150.809277 
L 412.204591 156.803327 
L 413.22117 160.173619 
L 414.237748 152.572131 
L 415.254327 164.703742 
L 416.270905 159.530644 
L 417.287484 159.713008 
L 418.304063 154.272788 
L 419.320641 141.759685 
L 420.33722 158.247827 
L 421.353799 159.891612 
L 422.370377 152.253777 
L 423.386956 154.543984 
L 424.403534 161.634413 
L 425.420113 154.691254 
L 426.436692 156.308249 
L 427.45327 152.352166 
L 428.469849 165.619636 
L 429.486427 150.37154 
L 430.503006 152.163535 
L 431.519585 162.012929 
L 432.536163 106.531577 
L 433.552742 154.414888 
L 434.56932 158.426275 
L 435.585899 150.931479 
L 436.602478 148.605238 
L 437.619056 156.280048 
L 438.635635 166.980788 
L 439.652214 146.913042 
L 440.668792 149.322475 
L 441.685371 152.331799 
L 442.701949 151.413084 
L 443.718528 163.496753 
L 444.735107 156.815704 
L 445.751685 155.306655 
L 446.768264 162.538871 
L 447.784842 160.134138 
L 448.801421 163.102571 
L 449.818 164.185633 
L 450.834578 150.935709 
L 451.851157 153.107004 
L 452.867735 163.313449 
L 453.884314 142.148384 
L 454.900893 147.664903 
L 455.917471 159.143198 
L 456.93405 132.457227 
L 457.950629 163.313449 
L 458.967207 124.539108 
L 459.983786 164.994835 
L 461.000364 161.098131 
L 462.016943 155.708984 
L 463.033522 149.38201 
L 464.0501 156.539964 
L 465.066679 148.38637 
L 466.083257 162.435469 
L 467.099836 153.871711 
L 468.116415 160.635483 
L 469.132993 165.010345 
L 470.149572 163.713898 
L 471.16615 158.985274 
L 472.182729 152.215863 
L 473.199308 158.160875 
L 474.215886 158.501006 
L 475.232465 118.153852 
L 476.249044 164.470303 
L 477.265622 158.969921 
L 478.282201 136.966513 
L 479.298779 160.051573 
L 480.315358 144.97362 
L 481.331937 152.319579 
L 482.348515 155.07353 
L 483.365094 161.654937 
L 484.381672 156.624723 
L 485.398251 154.723215 
L 486.41483 145.930562 
L 487.431408 157.311565 
L 488.447987 140.508359 
L 489.464565 156.405854 
L 490.481144 165.152132 
L 491.497723 133.968469 
L 492.514301 160.406588 
L 493.53088 165.107951 
L 494.547459 155.508603 
L 495.564037 157.325822 
L 496.580616 154.085566 
L 497.597194 149.176145 
L 498.613773 160.963237 
L 499.630352 158.21007 
L 500.64693 150.588998 
L 501.663509 164.404815 
L 502.680087 140.879981 
L 503.696666 150.449875 
L 504.713245 140.346832 
L 505.729823 150.478389 
L 506.746402 156.006815 
L 507.762981 162.970341 
L 508.779559 159.092437 
L 509.796138 163.977418 
L 510.812716 154.492753 
L 511.829295 157.431105 
L 512.845874 163.36327 
L 513.862452 152.034909 
L 514.879031 161.33674 
L 515.895609 156.069483 
L 516.912188 126.120225 
L 517.928767 163.056823 
L 518.945345 148.264324 
L 519.961924 154.536464 
L 520.978502 158.698254 
L 521.995081 157.456485 
L 523.01166 153.288898 
L 524.028238 151.171342 
L 525.044817 152.063266 
L 526.061396 161.393768 
L 527.077974 156.950597 
L 528.094553 146.423447 
L 529.111131 131.981263 
L 530.12771 163.998255 
L 531.144289 146.572597 
L 532.160867 163.122938 
L 533.177446 159.837248 
L 534.194024 155.664647 
L 535.210603 154.265894 
L 536.227182 159.583912 
L 537.24376 164.151949 
L 538.260339 157.070136 
L 539.276917 154.919679 
L 540.293496 151.926493 
L 541.310075 154.078673 
L 542.326653 123.425652 
L 543.343232 165.245978 
L 544.359811 155.756142 
L 545.376389 156.5044 
L 546.392968 161.66089 
L 547.409546 128.498168 
L 548.426125 157.52965 
L 549.442704 160.289555 
L 550.459282 164.876236 
L 551.475861 156.325952 
L 552.492439 149.744545 
L 553.509018 157.117764 
L 554.525597 134.005757 
L 555.542175 147.574191 
L 556.558754 144.996807 
L 557.575332 126.391735 
L 558.591911 166.381524 
L 559.60849 158.722382 
L 560.625068 146.558967 
L 561.641647 161.78278 
L 562.658226 151.470112 
L 563.674804 153.11233 
L 564.691383 146.351066 
L 565.707961 159.35721 
L 566.72454 150.802383 
L 567.741119 161.8044 
L 568.757697 152.916492 
L 569.774276 156.442515 
L 570.790854 137.765375 
L 571.807433 152.746662 
L 572.824012 152.793036 
L 573.84059 161.434032 
L 574.857169 158.578558 
L 575.873747 159.408284 
L 576.890326 157.51884 
L 577.906905 152.751675 
L 578.923483 154.091207 
L 580.956641 164.712829 
L 582.989798 158.886259 
L 584.006376 158.963027 
L 585.022955 157.834218 
L 586.039534 164.601593 
L 587.056112 162.756173 
L 588.072691 157.668147 
L 589.089269 148.946153 
L 590.105848 161.159859 
L 591.122427 157.031439 
L 592.139005 154.626862 
L 593.155584 161.66277 
L 594.172163 148.077573 
L 595.188741 152.600645 
L 596.20532 162.957807 
L 597.221898 157.002141 
L 598.238477 153.5297 
L 599.255056 152.042429 
L 600.271634 161.525214 
L 601.288213 150.043315 
L 602.304791 152.619602 
L 603.32137 161.37387 
L 604.337949 163.941697 
L 605.354527 154.813144 
L 606.371106 162.392541 
L 607.387684 152.183275 
L 608.404263 155.032169 
L 609.420842 162.235557 
L 610.43742 154.762069 
L 611.453999 153.50244 
L 612.470578 160.744056 
L 613.487156 161.689404 
L 614.503735 161.804087 
L 615.520313 154.570461 
L 616.536892 149.731228 
L 617.553471 151.784706 
L 618.570049 154.272944 
L 619.586628 165.844928 
L 620.603206 163.567255 
L 621.619785 161.578012 
L 622.636364 156.223647 
L 622.636364 156.223647 
" clip-path="url(#pbc516569c0)" style="fill: none; stroke: #ff7f0e; stroke-width: 1.5; stroke-linecap: square"/>
   </g>
   <g id="patch_3">
    <path d="M 90 320.4 
L 90 43.2 
" style="fill: none; stroke: #000000; stroke-width: 0.8; stroke-linejoin: miter; stroke-linecap: square"/>
   </g>
   <g id="patch_4">
    <path d="M 648 320.4 
L 648 43.2 
" style="fill: none; stroke: #000000; stroke-width: 0.8; stroke-linejoin: miter; stroke-linecap: square"/>
   </g>
   <g id="patch_5">
    <path d="M 90 320.4 
L 648 320.4 
" style="fill: none; stroke: #000000; stroke-width: 0.8; stroke-linejoin: miter; stroke-linecap: square"/>
   </g>
   <g id="patch_6">
    <path d="M 90 43.2 
L 648 43.2 
" style="fill: none; stroke: #000000; stroke-width: 0.8; stroke-linejoin: miter; stroke-linecap: square"/>
   </g>
   <g id="text_17">
    <!-- model train and validation loss over time -->
    <g transform="translate(245.555625 37.2) scale(0.12 -0.12)">
     <defs>
      <path id="DejaVuSans-6d" d="M 3328 2828 
Q 3544 3216 3844 3400 
Q 4144 3584 4550 3584 
Q 5097 3584 5394 3201 
Q 5691 2819 5691 2113 
L 5691 0 
L 5113 0 
L 5113 2094 
Q 5113 2597 4934 2840 
Q 4756 3084 4391 3084 
Q 3944 3084 3684 2787 
Q 3425 2491 3425 1978 
L 3425 0 
L 2847 0 
L 2847 2094 
Q 2847 2600 2669 2842 
Q 2491 3084 2119 3084 
Q 1678 3084 1418 2786 
Q 1159 2488 1159 1978 
L 1159 0 
L 581 0 
L 581 3500 
L 1159 3500 
L 1159 2956 
Q 1356 3278 1631 3431 
Q 1906 3584 2284 3584 
Q 2666 3584 2933 3390 
Q 3200 3197 3328 2828 
z
" transform="scale(0.015625)"/>
      <path id="DejaVuSans-64" d="M 2906 2969 
L 2906 4863 
L 3481 4863 
L 3481 0 
L 2906 0 
L 2906 525 
Q 2725 213 2448 61 
Q 2172 -91 1784 -91 
Q 1150 -91 751 415 
Q 353 922 353 1747 
Q 353 2572 751 3078 
Q 1150 3584 1784 3584 
Q 2172 3584 2448 3432 
Q 2725 3281 2906 2969 
z
M 947 1747 
Q 947 1113 1208 752 
Q 1469 391 1925 391 
Q 2381 391 2643 752 
Q 2906 1113 2906 1747 
Q 2906 2381 2643 2742 
Q 2381 3103 1925 3103 
Q 1469 3103 1208 2742 
Q 947 2381 947 1747 
z
" transform="scale(0.015625)"/>
      <path id="DejaVuSans-20" transform="scale(0.015625)"/>
      <path id="DejaVuSans-74" d="M 1172 4494 
L 1172 3500 
L 2356 3500 
L 2356 3053 
L 1172 3053 
L 1172 1153 
Q 1172 725 1289 603 
Q 1406 481 1766 481 
L 2356 481 
L 2356 0 
L 1766 0 
Q 1100 0 847 248 
Q 594 497 594 1153 
L 594 3053 
L 172 3053 
L 172 3500 
L 594 3500 
L 594 4494 
L 1172 4494 
z
" transform="scale(0.015625)"/>
      <path id="DejaVuSans-72" d="M 2631 2963 
Q 2534 3019 2420 3045 
Q 2306 3072 2169 3072 
Q 1681 3072 1420 2755 
Q 1159 2438 1159 1844 
L 1159 0 
L 581 0 
L 581 3500 
L 1159 3500 
L 1159 2956 
Q 1341 3275 1631 3429 
Q 1922 3584 2338 3584 
Q 2397 3584 2469 3576 
Q 2541 3569 2628 3553 
L 2631 2963 
z
" transform="scale(0.015625)"/>
      <path id="DejaVuSans-61" d="M 2194 1759 
Q 1497 1759 1228 1600 
Q 959 1441 959 1056 
Q 959 750 1161 570 
Q 1363 391 1709 391 
Q 2188 391 2477 730 
Q 2766 1069 2766 1631 
L 2766 1759 
L 2194 1759 
z
M 3341 1997 
L 3341 0 
L 2766 0 
L 2766 531 
Q 2569 213 2275 61 
Q 1981 -91 1556 -91 
Q 1019 -91 701 211 
Q 384 513 384 1019 
Q 384 1609 779 1909 
Q 1175 2209 1959 2209 
L 2766 2209 
L 2766 2266 
Q 2766 2663 2505 2880 
Q 2244 3097 1772 3097 
Q 1472 3097 1187 3025 
Q 903 2953 641 2809 
L 641 3341 
Q 956 3463 1253 3523 
Q 1550 3584 1831 3584 
Q 2591 3584 2966 3190 
Q 3341 2797 3341 1997 
z
" transform="scale(0.015625)"/>
      <path id="DejaVuSans-69" d="M 603 3500 
L 1178 3500 
L 1178 0 
L 603 0 
L 603 3500 
z
M 603 4863 
L 1178 4863 
L 1178 4134 
L 603 4134 
L 603 4863 
z
" transform="scale(0.015625)"/>
      <path id="DejaVuSans-6e" d="M 3513 2113 
L 3513 0 
L 2938 0 
L 2938 2094 
Q 2938 2591 2744 2837 
Q 2550 3084 2163 3084 
Q 1697 3084 1428 2787 
Q 1159 2491 1159 1978 
L 1159 0 
L 581 0 
L 581 3500 
L 1159 3500 
L 1159 2956 
Q 1366 3272 1645 3428 
Q 1925 3584 2291 3584 
Q 2894 3584 3203 3211 
Q 3513 2838 3513 2113 
z
" transform="scale(0.015625)"/>
      <path id="DejaVuSans-76" d="M 191 3500 
L 800 3500 
L 1894 563 
L 2988 3500 
L 3597 3500 
L 2284 0 
L 1503 0 
L 191 3500 
z
" transform="scale(0.015625)"/>
     </defs>
     <use xlink:href="#DejaVuSans-6d"/>
     <use xlink:href="#DejaVuSans-6f" x="97.412109"/>
     <use xlink:href="#DejaVuSans-64" x="158.59375"/>
     <use xlink:href="#DejaVuSans-65" x="222.070312"/>
     <use xlink:href="#DejaVuSans-6c" x="283.59375"/>
     <use xlink:href="#DejaVuSans-20" x="311.376953"/>
     <use xlink:href="#DejaVuSans-74" x="343.164062"/>
     <use xlink:href="#DejaVuSans-72" x="382.373047"/>
     <use xlink:href="#DejaVuSans-61" x="423.486328"/>
     <use xlink:href="#DejaVuSans-69" x="484.765625"/>
     <use xlink:href="#DejaVuSans-6e" x="512.548828"/>
     <use xlink:href="#DejaVuSans-20" x="575.927734"/>
     <use xlink:href="#DejaVuSans-61" x="607.714844"/>
     <use xlink:href="#DejaVuSans-6e" x="668.994141"/>
     <use xlink:href="#DejaVuSans-64" x="732.373047"/>
     <use xlink:href="#DejaVuSans-20" x="795.849609"/>
     <use xlink:href="#DejaVuSans-76" x="827.636719"/>
     <use xlink:href="#DejaVuSans-61" x="886.816406"/>
     <use xlink:href="#DejaVuSans-6c" x="948.095703"/>
     <use xlink:href="#DejaVuSans-69" x="975.878906"/>
     <use xlink:href="#DejaVuSans-64" x="1003.662109"/>
     <use xlink:href="#DejaVuSans-61" x="1067.138672"/>
     <use xlink:href="#DejaVuSans-74" x="1128.417969"/>
     <use xlink:href="#DejaVuSans-69" x="1167.626953"/>
     <use xlink:href="#DejaVuSans-6f" x="1195.410156"/>
     <use xlink:href="#DejaVuSans-6e" x="1256.591797"/>
     <use xlink:href="#DejaVuSans-20" x="1319.970703"/>
     <use xlink:href="#DejaVuSans-6c" x="1351.757812"/>
     <use xlink:href="#DejaVuSans-6f" x="1379.541016"/>
     <use xlink:href="#DejaVuSans-73" x="1440.722656"/>
     <use xlink:href="#DejaVuSans-73" x="1492.822266"/>
     <use xlink:href="#DejaVuSans-20" x="1544.921875"/>
     <use xlink:href="#DejaVuSans-6f" x="1576.708984"/>
     <use xlink:href="#DejaVuSans-76" x="1637.890625"/>
     <use xlink:href="#DejaVuSans-65" x="1697.070312"/>
     <use xlink:href="#DejaVuSans-72" x="1758.59375"/>
     <use xlink:href="#DejaVuSans-20" x="1799.707031"/>
     <use xlink:href="#DejaVuSans-74" x="1831.494141"/>
     <use xlink:href="#DejaVuSans-69" x="1870.703125"/>
     <use xlink:href="#DejaVuSans-6d" x="1898.486328"/>
     <use xlink:href="#DejaVuSans-65" x="1995.898438"/>
    </g>
   </g>
   <g id="legend_1">
    <g id="patch_7">
     <path d="M 559.765625 80.55625 
L 641 80.55625 
Q 643 80.55625 643 78.55625 
L 643 50.2 
Q 643 48.2 641 48.2 
L 559.765625 48.2 
Q 557.765625 48.2 557.765625 50.2 
L 557.765625 78.55625 
Q 557.765625 80.55625 559.765625 80.55625 
z
" style="fill: #ffffff; opacity: 0.8; stroke: #cccccc; stroke-linejoin: miter"/>
    </g>
    <g id="line2d_31">
     <path d="M 561.765625 56.298437 
L 571.765625 56.298437 
L 581.765625 56.298437 
" style="fill: none; stroke: #1f77b4; stroke-width: 1.5; stroke-linecap: square"/>
    </g>
    <g id="text_18">
     <!-- train -->
     <g transform="translate(589.765625 59.798437) scale(0.1 -0.1)">
      <use xlink:href="#DejaVuSans-74"/>
      <use xlink:href="#DejaVuSans-72" x="39.208984"/>
      <use xlink:href="#DejaVuSans-61" x="80.322266"/>
      <use xlink:href="#DejaVuSans-69" x="141.601562"/>
      <use xlink:href="#DejaVuSans-6e" x="169.384766"/>
     </g>
    </g>
    <g id="line2d_32">
     <path d="M 561.765625 70.976562 
L 571.765625 70.976562 
L 581.765625 70.976562 
" style="fill: none; stroke: #ff7f0e; stroke-width: 1.5; stroke-linecap: square"/>
    </g>
    <g id="text_19">
     <!-- validation -->
     <g transform="translate(589.765625 74.476562) scale(0.1 -0.1)">
      <use xlink:href="#DejaVuSans-76"/>
      <use xlink:href="#DejaVuSans-61" x="59.179688"/>
      <use xlink:href="#DejaVuSans-6c" x="120.458984"/>
      <use xlink:href="#DejaVuSans-69" x="148.242188"/>
      <use xlink:href="#DejaVuSans-64" x="176.025391"/>
      <use xlink:href="#DejaVuSans-61" x="239.501953"/>
      <use xlink:href="#DejaVuSans-74" x="300.78125"/>
      <use xlink:href="#DejaVuSans-69" x="339.990234"/>
      <use xlink:href="#DejaVuSans-6f" x="367.773438"/>
      <use xlink:href="#DejaVuSans-6e" x="428.955078"/>
     </g>
    </g>
   </g>
  </g>
 </g>
 <defs>
  <clipPath id="pbc516569c0">
   <rect x="90" y="43.2" width="558" height="277.2"/>
  </clipPath>
 </defs>
</svg>
