<?xml version="1.0" encoding="utf-8" standalone="no"?>
<!DOCTYPE svg PUBLIC "-//W3C//DTD SVG 1.1//EN"
  "http://www.w3.org/Graphics/SVG/1.1/DTD/svg11.dtd">
<svg xmlns:xlink="http://www.w3.org/1999/xlink" width="720pt" height="360pt" viewBox="0 0 720 360" xmlns="http://www.w3.org/2000/svg" version="1.1">
 <metadata>
  <rdf:RDF xmlns:dc="http://purl.org/dc/elements/1.1/" xmlns:cc="http://creativecommons.org/ns#" xmlns:rdf="http://www.w3.org/1999/02/22-rdf-syntax-ns#">
   <cc:Work>
    <dc:type rdf:resource="http://purl.org/dc/dcmitype/StillImage"/>
    <dc:date>2023-05-24T12:12:17.132284</dc:date>
    <dc:format>image/svg+xml</dc:format>
    <dc:creator>
     <cc:Agent>
      <dc:title>Matplotlib v3.7.1, https://matplotlib.org/</dc:title>
     </cc:Agent>
    </dc:creator>
   </cc:Work>
  </rdf:RDF>
 </metadata>
 <defs>
  <style type="text/css">*{stroke-linejoin: round; stroke-linecap: butt}</style>
 </defs>
 <g id="figure_1">
  <g id="patch_1">
   <path d="M 0 360 
L 720 360 
L 720 0 
L 0 0 
z
" style="fill: #ffffff"/>
  </g>
  <g id="axes_1">
   <g id="patch_2">
    <path d="M 90 320.4 
L 648 320.4 
L 648 43.2 
L 90 43.2 
z
" style="fill: #ffffff"/>
   </g>
   <g id="matplotlib.axis_1">
    <g id="xtick_1">
     <g id="line2d_1">
      <path d="M 115.363636 320.4 
L 115.363636 43.2 
" clip-path="url(#pa826891b86)" style="fill: none; stroke: #b0b0b0; stroke-width: 0.8; stroke-linecap: square"/>
     </g>
     <g id="line2d_2">
      <defs>
       <path id="mef2c3f712a" d="M 0 0 
L 0 3.5 
" style="stroke: #000000; stroke-width: 0.8"/>
      </defs>
      <g>
       <use xlink:href="#mef2c3f712a" x="115.363636" y="320.4" style="stroke: #000000; stroke-width: 0.8"/>
      </g>
     </g>
     <g id="text_1">
      <!-- 0 -->
      <g transform="translate(112.182386 334.998438) scale(0.1 -0.1)">
       <defs>
        <path id="DejaVuSans-30" d="M 2034 4250 
Q 1547 4250 1301 3770 
Q 1056 3291 1056 2328 
Q 1056 1369 1301 889 
Q 1547 409 2034 409 
Q 2525 409 2770 889 
Q 3016 1369 3016 2328 
Q 3016 3291 2770 3770 
Q 2525 4250 2034 4250 
z
M 2034 4750 
Q 2819 4750 3233 4129 
Q 3647 3509 3647 2328 
Q 3647 1150 3233 529 
Q 2819 -91 2034 -91 
Q 1250 -91 836 529 
Q 422 1150 422 2328 
Q 422 3509 836 4129 
Q 1250 4750 2034 4750 
z
" transform="scale(0.015625)"/>
       </defs>
       <use xlink:href="#DejaVuSans-30"/>
      </g>
     </g>
    </g>
    <g id="xtick_2">
     <g id="line2d_3">
      <path d="M 217.021498 320.4 
L 217.021498 43.2 
" clip-path="url(#pa826891b86)" style="fill: none; stroke: #b0b0b0; stroke-width: 0.8; stroke-linecap: square"/>
     </g>
     <g id="line2d_4">
      <g>
       <use xlink:href="#mef2c3f712a" x="217.021498" y="320.4" style="stroke: #000000; stroke-width: 0.8"/>
      </g>
     </g>
     <g id="text_2">
      <!-- 100 -->
      <g transform="translate(207.477748 334.998438) scale(0.1 -0.1)">
       <defs>
        <path id="DejaVuSans-31" d="M 794 531 
L 1825 531 
L 1825 4091 
L 703 3866 
L 703 4441 
L 1819 4666 
L 2450 4666 
L 2450 531 
L 3481 531 
L 3481 0 
L 794 0 
L 794 531 
z
" transform="scale(0.015625)"/>
       </defs>
       <use xlink:href="#DejaVuSans-31"/>
       <use xlink:href="#DejaVuSans-30" x="63.623047"/>
       <use xlink:href="#DejaVuSans-30" x="127.246094"/>
      </g>
     </g>
    </g>
    <g id="xtick_3">
     <g id="line2d_5">
      <path d="M 318.679359 320.4 
L 318.679359 43.2 
" clip-path="url(#pa826891b86)" style="fill: none; stroke: #b0b0b0; stroke-width: 0.8; stroke-linecap: square"/>
     </g>
     <g id="line2d_6">
      <g>
       <use xlink:href="#mef2c3f712a" x="318.679359" y="320.4" style="stroke: #000000; stroke-width: 0.8"/>
      </g>
     </g>
     <g id="text_3">
      <!-- 200 -->
      <g transform="translate(309.135609 334.998438) scale(0.1 -0.1)">
       <defs>
        <path id="DejaVuSans-32" d="M 1228 531 
L 3431 531 
L 3431 0 
L 469 0 
L 469 531 
Q 828 903 1448 1529 
Q 2069 2156 2228 2338 
Q 2531 2678 2651 2914 
Q 2772 3150 2772 3378 
Q 2772 3750 2511 3984 
Q 2250 4219 1831 4219 
Q 1534 4219 1204 4116 
Q 875 4013 500 3803 
L 500 4441 
Q 881 4594 1212 4672 
Q 1544 4750 1819 4750 
Q 2544 4750 2975 4387 
Q 3406 4025 3406 3419 
Q 3406 3131 3298 2873 
Q 3191 2616 2906 2266 
Q 2828 2175 2409 1742 
Q 1991 1309 1228 531 
z
" transform="scale(0.015625)"/>
       </defs>
       <use xlink:href="#DejaVuSans-32"/>
       <use xlink:href="#DejaVuSans-30" x="63.623047"/>
       <use xlink:href="#DejaVuSans-30" x="127.246094"/>
      </g>
     </g>
    </g>
    <g id="xtick_4">
     <g id="line2d_7">
      <path d="M 420.33722 320.4 
L 420.33722 43.2 
" clip-path="url(#pa826891b86)" style="fill: none; stroke: #b0b0b0; stroke-width: 0.8; stroke-linecap: square"/>
     </g>
     <g id="line2d_8">
      <g>
       <use xlink:href="#mef2c3f712a" x="420.33722" y="320.4" style="stroke: #000000; stroke-width: 0.8"/>
      </g>
     </g>
     <g id="text_4">
      <!-- 300 -->
      <g transform="translate(410.79347 334.998438) scale(0.1 -0.1)">
       <defs>
        <path id="DejaVuSans-33" d="M 2597 2516 
Q 3050 2419 3304 2112 
Q 3559 1806 3559 1356 
Q 3559 666 3084 287 
Q 2609 -91 1734 -91 
Q 1441 -91 1130 -33 
Q 819 25 488 141 
L 488 750 
Q 750 597 1062 519 
Q 1375 441 1716 441 
Q 2309 441 2620 675 
Q 2931 909 2931 1356 
Q 2931 1769 2642 2001 
Q 2353 2234 1838 2234 
L 1294 2234 
L 1294 2753 
L 1863 2753 
Q 2328 2753 2575 2939 
Q 2822 3125 2822 3475 
Q 2822 3834 2567 4026 
Q 2313 4219 1838 4219 
Q 1578 4219 1281 4162 
Q 984 4106 628 3988 
L 628 4550 
Q 988 4650 1302 4700 
Q 1616 4750 1894 4750 
Q 2613 4750 3031 4423 
Q 3450 4097 3450 3541 
Q 3450 3153 3228 2886 
Q 3006 2619 2597 2516 
z
" transform="scale(0.015625)"/>
       </defs>
       <use xlink:href="#DejaVuSans-33"/>
       <use xlink:href="#DejaVuSans-30" x="63.623047"/>
       <use xlink:href="#DejaVuSans-30" x="127.246094"/>
      </g>
     </g>
    </g>
    <g id="xtick_5">
     <g id="line2d_9">
      <path d="M 521.995081 320.4 
L 521.995081 43.2 
" clip-path="url(#pa826891b86)" style="fill: none; stroke: #b0b0b0; stroke-width: 0.8; stroke-linecap: square"/>
     </g>
     <g id="line2d_10">
      <g>
       <use xlink:href="#mef2c3f712a" x="521.995081" y="320.4" style="stroke: #000000; stroke-width: 0.8"/>
      </g>
     </g>
     <g id="text_5">
      <!-- 400 -->
      <g transform="translate(512.451331 334.998438) scale(0.1 -0.1)">
       <defs>
        <path id="DejaVuSans-34" d="M 2419 4116 
L 825 1625 
L 2419 1625 
L 2419 4116 
z
M 2253 4666 
L 3047 4666 
L 3047 1625 
L 3713 1625 
L 3713 1100 
L 3047 1100 
L 3047 0 
L 2419 0 
L 2419 1100 
L 313 1100 
L 313 1709 
L 2253 4666 
z
" transform="scale(0.015625)"/>
       </defs>
       <use xlink:href="#DejaVuSans-34"/>
       <use xlink:href="#DejaVuSans-30" x="63.623047"/>
       <use xlink:href="#DejaVuSans-30" x="127.246094"/>
      </g>
     </g>
    </g>
    <g id="xtick_6">
     <g id="line2d_11">
      <path d="M 623.652942 320.4 
L 623.652942 43.2 
" clip-path="url(#pa826891b86)" style="fill: none; stroke: #b0b0b0; stroke-width: 0.8; stroke-linecap: square"/>
     </g>
     <g id="line2d_12">
      <g>
       <use xlink:href="#mef2c3f712a" x="623.652942" y="320.4" style="stroke: #000000; stroke-width: 0.8"/>
      </g>
     </g>
     <g id="text_6">
      <!-- 500 -->
      <g transform="translate(614.109192 334.998438) scale(0.1 -0.1)">
       <defs>
        <path id="DejaVuSans-35" d="M 691 4666 
L 3169 4666 
L 3169 4134 
L 1269 4134 
L 1269 2991 
Q 1406 3038 1543 3061 
Q 1681 3084 1819 3084 
Q 2600 3084 3056 2656 
Q 3513 2228 3513 1497 
Q 3513 744 3044 326 
Q 2575 -91 1722 -91 
Q 1428 -91 1123 -41 
Q 819 9 494 109 
L 494 744 
Q 775 591 1075 516 
Q 1375 441 1709 441 
Q 2250 441 2565 725 
Q 2881 1009 2881 1497 
Q 2881 1984 2565 2268 
Q 2250 2553 1709 2553 
Q 1456 2553 1204 2497 
Q 953 2441 691 2322 
L 691 4666 
z
" transform="scale(0.015625)"/>
       </defs>
       <use xlink:href="#DejaVuSans-35"/>
       <use xlink:href="#DejaVuSans-30" x="63.623047"/>
       <use xlink:href="#DejaVuSans-30" x="127.246094"/>
      </g>
     </g>
    </g>
    <g id="text_7">
     <!-- epoch -->
     <g transform="translate(353.771875 348.676562) scale(0.1 -0.1)">
      <defs>
       <path id="DejaVuSans-65" d="M 3597 1894 
L 3597 1613 
L 953 1613 
Q 991 1019 1311 708 
Q 1631 397 2203 397 
Q 2534 397 2845 478 
Q 3156 559 3463 722 
L 3463 178 
Q 3153 47 2828 -22 
Q 2503 -91 2169 -91 
Q 1331 -91 842 396 
Q 353 884 353 1716 
Q 353 2575 817 3079 
Q 1281 3584 2069 3584 
Q 2775 3584 3186 3129 
Q 3597 2675 3597 1894 
z
M 3022 2063 
Q 3016 2534 2758 2815 
Q 2500 3097 2075 3097 
Q 1594 3097 1305 2825 
Q 1016 2553 972 2059 
L 3022 2063 
z
" transform="scale(0.015625)"/>
       <path id="DejaVuSans-70" d="M 1159 525 
L 1159 -1331 
L 581 -1331 
L 581 3500 
L 1159 3500 
L 1159 2969 
Q 1341 3281 1617 3432 
Q 1894 3584 2278 3584 
Q 2916 3584 3314 3078 
Q 3713 2572 3713 1747 
Q 3713 922 3314 415 
Q 2916 -91 2278 -91 
Q 1894 -91 1617 61 
Q 1341 213 1159 525 
z
M 3116 1747 
Q 3116 2381 2855 2742 
Q 2594 3103 2138 3103 
Q 1681 3103 1420 2742 
Q 1159 2381 1159 1747 
Q 1159 1113 1420 752 
Q 1681 391 2138 391 
Q 2594 391 2855 752 
Q 3116 1113 3116 1747 
z
" transform="scale(0.015625)"/>
       <path id="DejaVuSans-6f" d="M 1959 3097 
Q 1497 3097 1228 2736 
Q 959 2375 959 1747 
Q 959 1119 1226 758 
Q 1494 397 1959 397 
Q 2419 397 2687 759 
Q 2956 1122 2956 1747 
Q 2956 2369 2687 2733 
Q 2419 3097 1959 3097 
z
M 1959 3584 
Q 2709 3584 3137 3096 
Q 3566 2609 3566 1747 
Q 3566 888 3137 398 
Q 2709 -91 1959 -91 
Q 1206 -91 779 398 
Q 353 888 353 1747 
Q 353 2609 779 3096 
Q 1206 3584 1959 3584 
z
" transform="scale(0.015625)"/>
       <path id="DejaVuSans-63" d="M 3122 3366 
L 3122 2828 
Q 2878 2963 2633 3030 
Q 2388 3097 2138 3097 
Q 1578 3097 1268 2742 
Q 959 2388 959 1747 
Q 959 1106 1268 751 
Q 1578 397 2138 397 
Q 2388 397 2633 464 
Q 2878 531 3122 666 
L 3122 134 
Q 2881 22 2623 -34 
Q 2366 -91 2075 -91 
Q 1284 -91 818 406 
Q 353 903 353 1747 
Q 353 2603 823 3093 
Q 1294 3584 2113 3584 
Q 2378 3584 2631 3529 
Q 2884 3475 3122 3366 
z
" transform="scale(0.015625)"/>
       <path id="DejaVuSans-68" d="M 3513 2113 
L 3513 0 
L 2938 0 
L 2938 2094 
Q 2938 2591 2744 2837 
Q 2550 3084 2163 3084 
Q 1697 3084 1428 2787 
Q 1159 2491 1159 1978 
L 1159 0 
L 581 0 
L 581 4863 
L 1159 4863 
L 1159 2956 
Q 1366 3272 1645 3428 
Q 1925 3584 2291 3584 
Q 2894 3584 3203 3211 
Q 3513 2838 3513 2113 
z
" transform="scale(0.015625)"/>
      </defs>
      <use xlink:href="#DejaVuSans-65"/>
      <use xlink:href="#DejaVuSans-70" x="61.523438"/>
      <use xlink:href="#DejaVuSans-6f" x="125"/>
      <use xlink:href="#DejaVuSans-63" x="186.181641"/>
      <use xlink:href="#DejaVuSans-68" x="241.162109"/>
     </g>
    </g>
   </g>
   <g id="matplotlib.axis_2">
    <g id="ytick_1">
     <g id="line2d_13">
      <path d="M 90 299.495342 
L 648 299.495342 
" clip-path="url(#pa826891b86)" style="fill: none; stroke: #b0b0b0; stroke-width: 0.8; stroke-linecap: square"/>
     </g>
     <g id="line2d_14">
      <defs>
       <path id="m994abf2585" d="M 0 0 
L -3.5 0 
" style="stroke: #000000; stroke-width: 0.8"/>
      </defs>
      <g>
       <use xlink:href="#m994abf2585" x="90" y="299.495342" style="stroke: #000000; stroke-width: 0.8"/>
      </g>
     </g>
     <g id="text_8">
      <!-- 0.5 -->
      <g transform="translate(67.096875 303.29456) scale(0.1 -0.1)">
       <defs>
        <path id="DejaVuSans-2e" d="M 684 794 
L 1344 794 
L 1344 0 
L 684 0 
L 684 794 
z
" transform="scale(0.015625)"/>
       </defs>
       <use xlink:href="#DejaVuSans-30"/>
       <use xlink:href="#DejaVuSans-2e" x="63.623047"/>
       <use xlink:href="#DejaVuSans-35" x="95.410156"/>
      </g>
     </g>
    </g>
    <g id="ytick_2">
     <g id="line2d_15">
      <path d="M 90 250.043248 
L 648 250.043248 
" clip-path="url(#pa826891b86)" style="fill: none; stroke: #b0b0b0; stroke-width: 0.8; stroke-linecap: square"/>
     </g>
     <g id="line2d_16">
      <g>
       <use xlink:href="#m994abf2585" x="90" y="250.043248" style="stroke: #000000; stroke-width: 0.8"/>
      </g>
     </g>
     <g id="text_9">
      <!-- 1.0 -->
      <g transform="translate(67.096875 253.842467) scale(0.1 -0.1)">
       <use xlink:href="#DejaVuSans-31"/>
       <use xlink:href="#DejaVuSans-2e" x="63.623047"/>
       <use xlink:href="#DejaVuSans-30" x="95.410156"/>
      </g>
     </g>
    </g>
    <g id="ytick_3">
     <g id="line2d_17">
      <path d="M 90 200.591154 
L 648 200.591154 
" clip-path="url(#pa826891b86)" style="fill: none; stroke: #b0b0b0; stroke-width: 0.8; stroke-linecap: square"/>
     </g>
     <g id="line2d_18">
      <g>
       <use xlink:href="#m994abf2585" x="90" y="200.591154" style="stroke: #000000; stroke-width: 0.8"/>
      </g>
     </g>
     <g id="text_10">
      <!-- 1.5 -->
      <g transform="translate(67.096875 204.390373) scale(0.1 -0.1)">
       <use xlink:href="#DejaVuSans-31"/>
       <use xlink:href="#DejaVuSans-2e" x="63.623047"/>
       <use xlink:href="#DejaVuSans-35" x="95.410156"/>
      </g>
     </g>
    </g>
    <g id="ytick_4">
     <g id="line2d_19">
      <path d="M 90 151.139061 
L 648 151.139061 
" clip-path="url(#pa826891b86)" style="fill: none; stroke: #b0b0b0; stroke-width: 0.8; stroke-linecap: square"/>
     </g>
     <g id="line2d_20">
      <g>
       <use xlink:href="#m994abf2585" x="90" y="151.139061" style="stroke: #000000; stroke-width: 0.8"/>
      </g>
     </g>
     <g id="text_11">
      <!-- 2.0 -->
      <g transform="translate(67.096875 154.938279) scale(0.1 -0.1)">
       <use xlink:href="#DejaVuSans-32"/>
       <use xlink:href="#DejaVuSans-2e" x="63.623047"/>
       <use xlink:href="#DejaVuSans-30" x="95.410156"/>
      </g>
     </g>
    </g>
    <g id="ytick_5">
     <g id="line2d_21">
      <path d="M 90 101.686967 
L 648 101.686967 
" clip-path="url(#pa826891b86)" style="fill: none; stroke: #b0b0b0; stroke-width: 0.8; stroke-linecap: square"/>
     </g>
     <g id="line2d_22">
      <g>
       <use xlink:href="#m994abf2585" x="90" y="101.686967" style="stroke: #000000; stroke-width: 0.8"/>
      </g>
     </g>
     <g id="text_12">
      <!-- 2.5 -->
      <g transform="translate(67.096875 105.486186) scale(0.1 -0.1)">
       <use xlink:href="#DejaVuSans-32"/>
       <use xlink:href="#DejaVuSans-2e" x="63.623047"/>
       <use xlink:href="#DejaVuSans-35" x="95.410156"/>
      </g>
     </g>
    </g>
    <g id="ytick_6">
     <g id="line2d_23">
      <path d="M 90 52.234873 
L 648 52.234873 
" clip-path="url(#pa826891b86)" style="fill: none; stroke: #b0b0b0; stroke-width: 0.8; stroke-linecap: square"/>
     </g>
     <g id="line2d_24">
      <g>
       <use xlink:href="#m994abf2585" x="90" y="52.234873" style="stroke: #000000; stroke-width: 0.8"/>
      </g>
     </g>
     <g id="text_13">
      <!-- 3.0 -->
      <g transform="translate(67.096875 56.034092) scale(0.1 -0.1)">
       <use xlink:href="#DejaVuSans-33"/>
       <use xlink:href="#DejaVuSans-2e" x="63.623047"/>
       <use xlink:href="#DejaVuSans-30" x="95.410156"/>
      </g>
     </g>
    </g>
    <g id="text_14">
     <!-- loss -->
     <g transform="translate(61.017187 191.457812) rotate(-90) scale(0.1 -0.1)">
      <defs>
       <path id="DejaVuSans-6c" d="M 603 4863 
L 1178 4863 
L 1178 0 
L 603 0 
L 603 4863 
z
" transform="scale(0.015625)"/>
       <path id="DejaVuSans-73" d="M 2834 3397 
L 2834 2853 
Q 2591 2978 2328 3040 
Q 2066 3103 1784 3103 
Q 1356 3103 1142 2972 
Q 928 2841 928 2578 
Q 928 2378 1081 2264 
Q 1234 2150 1697 2047 
L 1894 2003 
Q 2506 1872 2764 1633 
Q 3022 1394 3022 966 
Q 3022 478 2636 193 
Q 2250 -91 1575 -91 
Q 1294 -91 989 -36 
Q 684 19 347 128 
L 347 722 
Q 666 556 975 473 
Q 1284 391 1588 391 
Q 1994 391 2212 530 
Q 2431 669 2431 922 
Q 2431 1156 2273 1281 
Q 2116 1406 1581 1522 
L 1381 1569 
Q 847 1681 609 1914 
Q 372 2147 372 2553 
Q 372 3047 722 3315 
Q 1072 3584 1716 3584 
Q 2034 3584 2315 3537 
Q 2597 3491 2834 3397 
z
" transform="scale(0.015625)"/>
      </defs>
      <use xlink:href="#DejaVuSans-6c"/>
      <use xlink:href="#DejaVuSans-6f" x="27.783203"/>
      <use xlink:href="#DejaVuSans-73" x="88.964844"/>
      <use xlink:href="#DejaVuSans-73" x="141.064453"/>
     </g>
    </g>
   </g>
   <g id="line2d_25">
    <path d="M 115.363636 302.920803 
L 117.396794 303.538099 
L 118.413372 303.658796 
L 119.429951 304.158802 
L 120.446529 304.093505 
L 121.463108 305.004016 
L 122.479687 304.906346 
L 123.496265 303.994755 
L 124.512844 305.070301 
L 125.529422 304.711531 
L 126.546001 304.618005 
L 127.56258 303.166575 
L 128.579158 303.966895 
L 129.595737 304.960422 
L 130.612316 304.883505 
L 131.628894 303.931506 
L 132.645473 305.08503 
L 134.67863 304.400094 
L 136.711787 305.640333 
L 137.728366 304.041698 
L 138.744944 305.540917 
L 139.761523 303.699028 
L 140.778102 305.457837 
L 141.79468 304.786005 
L 142.811259 305.579846 
L 143.827837 305.165611 
L 144.844416 305.738717 
L 145.860995 302.99151 
L 146.877573 303.764529 
L 147.894152 304.33614 
L 148.910731 305.328362 
L 149.927309 305.301014 
L 150.943888 304.917705 
L 151.960466 305.294335 
L 152.977045 305.147787 
L 153.993624 305.990605 
L 155.010202 305.7552 
L 156.026781 305.059888 
L 157.043359 305.721285 
L 158.059938 304.74575 
L 159.076517 304.955479 
L 160.093095 305.566039 
L 161.109674 304.662997 
L 162.126253 305.23816 
L 163.142831 305.180936 
L 164.15941 306.007306 
L 165.175988 305.757808 
L 166.192567 304.883555 
L 167.209146 305.655239 
L 168.225724 305.713094 
L 169.242303 305.412438 
L 170.258881 304.912308 
L 171.27546 303.980978 
L 172.292039 305.843618 
L 173.308617 305.587247 
L 174.325196 305.914457 
L 175.341774 305.52974 
L 176.358353 305.663401 
L 177.374932 304.823666 
L 179.408089 305.74865 
L 180.424668 305.499627 
L 181.441246 304.651015 
L 182.457825 305.616625 
L 184.490982 303.820922 
L 185.507561 305.27565 
L 186.524139 304.378724 
L 187.540718 306.204056 
L 188.557296 305.887743 
L 189.573875 305.030512 
L 190.590454 305.275175 
L 191.607032 304.877845 
L 193.640189 305.393824 
L 195.673347 306.017089 
L 196.689925 305.612917 
L 197.706504 305.033312 
L 198.723083 304.931161 
L 199.739661 305.055001 
L 200.75624 305.532074 
L 201.772818 305.370818 
L 203.805976 305.214087 
L 204.822554 306.253511 
L 205.839133 305.857413 
L 206.855711 306.101938 
L 207.87229 305.709321 
L 208.888869 305.180293 
L 209.905447 305.61496 
L 210.922026 305.586145 
L 211.938604 305.134564 
L 212.955183 305.487259 
L 214.98834 305.820627 
L 216.004919 306.395666 
L 218.038076 305.137928 
L 219.054655 306.050933 
L 220.071233 305.342595 
L 221.087812 305.944231 
L 222.104391 306.005316 
L 223.120969 305.764541 
L 224.137548 304.994378 
L 225.154126 306.23436 
L 226.170705 305.708817 
L 227.187284 306.244594 
L 228.203862 305.129026 
L 229.220441 305.482585 
L 230.237019 306.107565 
L 231.253598 305.724124 
L 232.270177 305.956991 
L 233.286755 304.314269 
L 234.303334 305.822178 
L 235.319913 306.054909 
L 236.336491 305.543455 
L 237.35307 305.807289 
L 239.386227 305.321877 
L 240.402806 304.464548 
L 241.419384 306.088105 
L 243.452541 306.114288 
L 244.46912 305.789194 
L 245.485699 304.506475 
L 246.502277 306.174495 
L 247.518856 306.465388 
L 248.535435 305.130933 
L 249.552013 305.175583 
L 250.568592 306.415047 
L 251.58517 305.613454 
L 252.601749 305.004205 
L 253.618328 305.410192 
L 254.634906 305.28688 
L 255.651485 306.022492 
L 256.668063 305.360726 
L 257.684642 305.194615 
L 259.717799 305.494278 
L 260.734378 305.702208 
L 261.750956 304.681154 
L 262.767535 305.809488 
L 263.784114 306.320144 
L 264.800692 306.032183 
L 266.83385 304.74032 
L 267.850428 305.713433 
L 268.867007 305.937386 
L 269.883585 306.530058 
L 270.900164 304.964268 
L 271.916743 306.295063 
L 272.933321 304.727905 
L 273.9499 305.822136 
L 274.966478 305.420939 
L 275.983057 306.521997 
L 276.999636 305.304138 
L 278.016214 305.208923 
L 279.032793 306.47778 
L 280.049371 305.666463 
L 281.06595 304.445038 
L 282.082529 305.701185 
L 283.099107 305.987489 
L 284.115686 305.460749 
L 285.132265 306.350934 
L 286.148843 305.731248 
L 287.165422 305.558626 
L 288.182 304.650817 
L 289.198579 305.996093 
L 290.215158 305.698385 
L 291.231736 305.755044 
L 292.248315 306.920338 
L 293.264893 305.517145 
L 294.281472 306.176152 
L 295.298051 305.776988 
L 296.314629 305.823645 
L 297.331208 305.687081 
L 298.347786 305.715428 
L 299.364365 306.330319 
L 302.414101 305.439444 
L 303.43068 305.506858 
L 304.447258 304.632678 
L 305.463837 306.201516 
L 306.480415 305.905744 
L 307.496994 306.344818 
L 308.513573 306.190439 
L 309.530151 306.344461 
L 310.54673 306.069458 
L 311.563308 306.108048 
L 312.579887 306.282135 
L 313.596466 305.708896 
L 314.613044 306.437625 
L 315.629623 306.102283 
L 316.646201 306.299396 
L 317.66278 305.472522 
L 318.679359 306.093239 
L 319.695937 305.554016 
L 320.712516 306.314649 
L 321.729095 305.604025 
L 322.745673 305.754419 
L 323.762252 305.211514 
L 324.77883 306.334628 
L 325.795409 305.998967 
L 326.811988 306.823843 
L 327.828566 305.792165 
L 328.845145 305.110318 
L 332.911459 306.078882 
L 333.928038 305.305645 
L 334.944617 306.416185 
L 336.977774 305.220981 
L 337.994352 306.658513 
L 339.010931 305.798582 
L 340.02751 306.375514 
L 341.044088 306.150918 
L 342.060667 305.309639 
L 343.077245 306.021964 
L 344.093824 305.822965 
L 345.110403 305.984539 
L 346.126981 305.678404 
L 347.14356 305.922672 
L 348.160138 305.845455 
L 350.193296 306.719166 
L 351.209874 306.405836 
L 352.226453 305.970585 
L 353.243032 305.134276 
L 355.276189 306.072238 
L 356.292767 305.697542 
L 357.309346 305.785813 
L 358.325925 306.180199 
L 359.342503 306.318682 
L 360.359082 306.277142 
L 361.37566 306.039906 
L 362.392239 304.745266 
L 363.408818 304.780071 
L 364.425396 305.570464 
L 365.441975 305.964722 
L 366.458553 304.802753 
L 367.475132 304.484922 
L 368.491711 306.112375 
L 369.508289 305.224106 
L 370.524868 306.16621 
L 371.541447 305.979876 
L 372.558025 305.633132 
L 373.574604 305.79218 
L 374.591182 305.335271 
L 375.607761 306.440596 
L 376.62434 306.302467 
L 377.640918 306.669184 
L 379.674075 305.894974 
L 380.690654 306.452923 
L 381.707233 306.548628 
L 382.723811 306.515235 
L 383.74039 305.886794 
L 385.773547 306.891988 
L 386.790126 306.309441 
L 387.806704 306.304076 
L 388.823283 305.719201 
L 389.839862 304.608626 
L 390.85644 306.304975 
L 391.873019 305.389073 
L 392.889597 305.264163 
L 393.906176 305.965607 
L 394.922755 306.176874 
L 396.955912 305.720012 
L 397.97249 306.045209 
L 398.989069 306.560751 
L 400.005648 306.192016 
L 401.022226 306.840388 
L 402.038805 306.433858 
L 403.055383 306.170457 
L 404.071962 306.352284 
L 405.088541 307.146626 
L 406.105119 305.197041 
L 407.121698 306.901789 
L 408.138277 306.401506 
L 409.154855 306.038468 
L 410.171434 306.422348 
L 411.188012 304.950866 
L 412.204591 303.968802 
L 413.22117 306.108979 
L 414.237748 305.804639 
L 415.254327 306.917198 
L 416.270905 306.559039 
L 417.287484 305.938627 
L 418.304063 306.339583 
L 419.320641 306.035225 
L 420.33722 306.274386 
L 421.353799 306.355485 
L 422.370377 306.060952 
L 423.386956 305.495124 
L 424.403534 306.059451 
L 425.420113 305.912146 
L 426.436692 305.929782 
L 427.45327 306.163716 
L 428.469849 305.15668 
L 429.486427 306.364119 
L 430.503006 306.509982 
L 431.519585 306.267892 
L 432.536163 306.807947 
L 433.552742 306.692717 
L 434.56932 306.914059 
L 435.585899 306.170814 
L 436.602478 306.383599 
L 437.619056 306.238092 
L 438.635635 306.487165 
L 439.652214 306.25326 
L 440.668792 306.152724 
L 441.685371 307.139499 
L 442.701949 306.351055 
L 443.718528 307.001753 
L 444.735107 305.61305 
L 445.751685 306.814997 
L 446.768264 306.588839 
L 447.784842 306.780499 
L 448.801421 306.379888 
L 449.818 307.267948 
L 450.834578 306.300516 
L 451.851157 305.992565 
L 452.867735 306.375673 
L 454.900893 306.596986 
L 455.917471 306.357599 
L 456.93405 306.416818 
L 457.950629 306.590693 
L 458.967207 305.31979 
L 459.983786 306.240214 
L 461.000364 306.448254 
L 462.016943 306.930533 
L 463.033522 307.086422 
L 464.0501 306.316088 
L 465.066679 306.521271 
L 466.083257 305.91115 
L 467.099836 306.61486 
L 468.116415 306.83354 
L 469.132993 306.025896 
L 470.149572 306.536257 
L 471.16615 306.690663 
L 473.199308 305.927394 
L 474.215886 307.27211 
L 475.232465 306.500615 
L 476.249044 306.544637 
L 477.265622 306.185333 
L 478.282201 306.628734 
L 479.298779 306.886983 
L 480.315358 305.570611 
L 481.331937 306.604467 
L 482.348515 305.757387 
L 483.365094 305.899466 
L 484.381672 306.461383 
L 485.398251 306.160379 
L 486.41483 305.622975 
L 487.431408 306.150487 
L 488.447987 305.881008 
L 489.464565 306.574425 
L 490.481144 306.596585 
L 491.497723 305.82376 
L 492.514301 306.488306 
L 494.547459 306.22351 
L 495.564037 304.937737 
L 496.580616 307.275246 
L 497.597194 306.535561 
L 498.613773 305.495869 
L 499.630352 307.026229 
L 500.64693 305.428467 
L 501.663509 306.571952 
L 502.680087 306.547125 
L 503.696666 305.952894 
L 504.713245 305.9598 
L 505.729823 306.633058 
L 506.746402 306.726178 
L 507.762981 306.033327 
L 508.779559 307.023055 
L 509.796138 306.524705 
L 510.812716 306.523155 
L 511.829295 306.85738 
L 513.862452 304.744367 
L 514.879031 306.254174 
L 515.895609 306.636289 
L 516.912188 306.834658 
L 517.928767 306.417856 
L 518.945345 306.207269 
L 519.961924 306.194586 
L 520.978502 306.893709 
L 521.995081 306.649111 
L 523.01166 306.58111 
L 524.028238 306.226411 
L 525.044817 306.486973 
L 526.061396 306.517737 
L 527.077974 305.802915 
L 528.094553 307.226667 
L 530.12771 306.435883 
L 531.144289 306.950869 
L 532.160867 307.054903 
L 533.177446 305.730172 
L 534.194024 307.429195 
L 536.227182 305.43056 
L 537.24376 306.752904 
L 538.260339 306.01983 
L 539.276917 307.307127 
L 540.293496 306.966517 
L 541.310075 307.220687 
L 542.326653 306.487973 
L 543.343232 305.591497 
L 544.359811 306.960631 
L 545.376389 306.168473 
L 546.392968 306.424343 
L 548.426125 306.430872 
L 549.442704 306.157202 
L 550.459282 306.266038 
L 551.475861 306.556663 
L 553.509018 306.776413 
L 554.525597 306.493187 
L 556.558754 307.098539 
L 557.575332 306.656801 
L 559.60849 306.767099 
L 560.625068 305.331969 
L 561.641647 306.306585 
L 562.658226 306.991032 
L 563.674804 306.155357 
L 564.691383 305.868581 
L 565.707961 306.480955 
L 566.72454 306.290238 
L 567.741119 306.841549 
L 568.757697 306.466847 
L 569.774276 306.828939 
L 571.807433 306.809509 
L 572.824012 307.431951 
L 573.84059 307.220018 
L 574.857169 306.099618 
L 575.873747 306.654145 
L 576.890326 307.695541 
L 577.906905 306.4136 
L 578.923483 306.545371 
L 579.940062 307.455611 
L 580.956641 307.225877 
L 581.973219 306.376551 
L 582.989798 306.834413 
L 585.022955 306.295514 
L 586.039534 306.406234 
L 587.056112 306.08521 
L 588.072691 307.103429 
L 591.122427 306.369342 
L 592.139005 306.409753 
L 593.155584 307.8 
L 594.172163 306.553742 
L 595.188741 307.060498 
L 596.20532 306.694032 
L 597.221898 307.649765 
L 598.238477 307.047237 
L 599.255056 306.70263 
L 600.271634 306.800295 
L 601.288213 307.24338 
L 602.304791 306.194076 
L 603.32137 307.405732 
L 604.337949 306.784743 
L 605.354527 306.357581 
L 606.371106 306.986667 
L 607.387684 306.427662 
L 608.404263 306.428373 
L 609.420842 306.97396 
L 610.43742 307.352549 
L 611.453999 306.401482 
L 612.470578 306.933416 
L 613.487156 305.778577 
L 614.503735 305.857012 
L 615.520313 307.760653 
L 616.536892 306.834755 
L 619.586628 306.846589 
L 620.603206 306.339353 
L 621.619785 307.220763 
L 622.636364 305.727216 
L 622.636364 305.727216 
" clip-path="url(#pa826891b86)" style="fill: none; stroke: #1f77b4; stroke-width: 1.5; stroke-linecap: square"/>
   </g>
   <g id="line2d_26">
    <path d="M 115.363636 97.072174 
L 116.380215 101.148646 
L 117.396794 96.976012 
L 118.413372 96.262369 
L 119.429951 98.853711 
L 120.446529 96.933001 
L 121.463108 96.591695 
L 123.496265 94.582416 
L 124.512844 93.512022 
L 125.529422 98.914455 
L 126.546001 92.836061 
L 127.56258 93.986723 
L 128.579158 92.746431 
L 129.595737 94.212036 
L 130.612316 95.120691 
L 131.628894 95.531842 
L 132.645473 92.496831 
L 133.662051 93.696187 
L 134.67863 92.06033 
L 135.695209 93.086534 
L 138.744944 95.393141 
L 139.761523 91.932028 
L 140.778102 94.547281 
L 141.79468 91.400097 
L 142.811259 92.693964 
L 143.827837 90.838219 
L 144.844416 95.229326 
L 145.860995 91.618288 
L 146.877573 90.997293 
L 147.894152 93.202032 
L 148.910731 93.165529 
L 149.927309 92.988392 
L 150.943888 91.030448 
L 151.960466 92.210869 
L 152.977045 91.622839 
L 153.993624 91.421202 
L 155.010202 90.938413 
L 156.026781 94.386674 
L 157.043359 88.682905 
L 158.059938 89.787373 
L 159.076517 89.905229 
L 160.093095 89.351604 
L 161.109674 88.652345 
L 162.126253 90.324232 
L 163.142831 90.012756 
L 164.15941 90.697843 
L 165.175988 90.864204 
L 166.192567 87.525664 
L 167.209146 85.787137 
L 168.225724 91.886706 
L 169.242303 89.932346 
L 170.258881 89.621507 
L 171.27546 90.579657 
L 172.292039 87.935117 
L 173.308617 87.258095 
L 174.325196 90.081282 
L 175.341774 86.040935 
L 176.358353 89.355376 
L 177.374932 89.665697 
L 178.39151 87.051977 
L 179.408089 87.763238 
L 180.424668 90.977509 
L 181.441246 88.714786 
L 182.457825 85.75594 
L 183.474403 86.499436 
L 184.490982 86.052843 
L 185.507561 84.930336 
L 186.524139 87.800496 
L 187.540718 87.616543 
L 188.557296 86.74267 
L 189.573875 88.46087 
L 190.590454 86.515235 
L 191.607032 85.667654 
L 192.623611 87.728952 
L 193.640189 87.71162 
L 194.656768 86.423059 
L 195.673347 87.145615 
L 197.706504 87.812357 
L 198.723083 84.71896 
L 199.739661 85.224881 
L 200.75624 87.312071 
L 201.772818 85.696423 
L 202.789397 85.183073 
L 204.822554 82.9436 
L 205.839133 83.672335 
L 206.855711 83.172733 
L 207.87229 83.415684 
L 208.888869 85.355824 
L 209.905447 85.94218 
L 210.922026 85.709816 
L 211.938604 84.655929 
L 212.955183 85.765019 
L 213.971762 85.509499 
L 214.98834 82.905565 
L 216.004919 82.901155 
L 217.021498 83.536817 
L 218.038076 85.656312 
L 219.054655 82.348968 
L 220.071233 83.04113 
L 221.087812 81.919731 
L 222.104391 83.574122 
L 223.120969 80.337213 
L 224.137548 79.489868 
L 225.154126 82.533392 
L 226.170705 82.922024 
L 227.187284 81.252848 
L 228.203862 81.047249 
L 230.237019 80.318585 
L 231.253598 79.64043 
L 232.270177 80.748883 
L 233.286755 82.810252 
L 234.303334 79.32537 
L 235.319913 80.235581 
L 236.336491 83.250785 
L 237.35307 84.72252 
L 238.369648 83.34447 
L 239.386227 80.341977 
L 240.402806 81.733255 
L 241.419384 80.128478 
L 242.435963 82.200033 
L 243.452541 83.153468 
L 244.46912 80.547364 
L 245.485699 78.78844 
L 246.502277 80.963467 
L 247.518856 82.145374 
L 248.535435 77.337526 
L 249.552013 78.537802 
L 250.568592 82.88663 
L 251.58517 78.83329 
L 252.601749 82.794571 
L 253.618328 81.717669 
L 254.634906 81.569818 
L 255.651485 77.693923 
L 256.668063 81.835124 
L 257.684642 78.171383 
L 258.701221 81.555717 
L 259.717799 78.462155 
L 260.734378 78.670891 
L 261.750956 80.062547 
L 262.767535 78.470243 
L 263.784114 79.279435 
L 264.800692 78.817444 
L 265.817271 79.69186 
L 266.83385 79.09494 
L 267.850428 79.780782 
L 268.867007 79.17403 
L 269.883585 77.288667 
L 270.900164 76.285548 
L 271.916743 78.071661 
L 272.933321 76.992683 
L 273.9499 74.631818 
L 274.966478 77.579227 
L 275.983057 75.438911 
L 278.016214 79.649556 
L 279.032793 74.480407 
L 280.049371 79.376917 
L 281.06595 79.521396 
L 282.082529 80.873342 
L 283.099107 78.075693 
L 284.115686 76.30064 
L 285.132265 77.398175 
L 286.148843 77.278339 
L 287.165422 75.991923 
L 288.182 78.551644 
L 290.215158 77.486602 
L 291.231736 76.542388 
L 292.248315 76.792531 
L 293.264893 75.682592 
L 294.281472 75.37621 
L 295.298051 78.014949 
L 296.314629 77.540885 
L 297.331208 74.700319 
L 298.347786 76.111948 
L 299.364365 77.163831 
L 300.380944 76.295641 
L 301.397522 78.670136 
L 302.414101 75.979472 
L 303.43068 74.882691 
L 304.447258 71.205156 
L 305.463837 76.647227 
L 306.480415 79.072704 
L 307.496994 75.889819 
L 308.513573 79.461972 
L 309.530151 74.340385 
L 310.54673 77.866415 
L 311.563308 75.837258 
L 312.579887 75.452705 
L 313.596466 74.776956 
L 314.613044 72.866456 
L 315.629623 73.703897 
L 316.646201 73.335286 
L 317.66278 75.413656 
L 318.679359 75.028325 
L 319.695937 75.513637 
L 320.712516 74.639151 
L 321.729095 74.20067 
L 322.745673 76.725232 
L 323.762252 74.989134 
L 324.77883 75.942875 
L 325.795409 74.14285 
L 326.811988 76.780977 
L 327.828566 74.458736 
L 328.845145 74.138912 
L 329.861723 74.212437 
L 330.878302 75.469943 
L 331.894881 77.988303 
L 332.911459 73.264921 
L 333.928038 74.685393 
L 334.944617 71.984825 
L 335.961195 75.630102 
L 336.977774 72.794677 
L 337.994352 74.586802 
L 339.010931 77.315124 
L 340.02751 73.319534 
L 341.044088 76.458182 
L 342.060667 71.315277 
L 343.077245 78.602012 
L 344.093824 71.076689 
L 345.110403 76.939344 
L 346.126981 75.934292 
L 347.14356 73.424114 
L 348.160138 74.485806 
L 349.176717 74.134621 
L 350.193296 72.964127 
L 351.209874 74.566004 
L 352.226453 68.950875 
L 353.243032 75.84254 
L 354.25961 71.710677 
L 355.276189 73.723705 
L 356.292767 73.914873 
L 357.309346 77.277301 
L 358.325925 76.394915 
L 359.342503 73.978847 
L 360.359082 72.370627 
L 361.37566 74.059823 
L 362.392239 75.389297 
L 363.408818 72.65126 
L 364.425396 71.79934 
L 365.441975 69.933596 
L 366.458553 76.155666 
L 367.475132 75.054853 
L 368.491711 73.383201 
L 369.508289 73.869315 
L 370.524868 73.456749 
L 371.541447 74.383938 
L 372.558025 70.019099 
L 373.574604 75.920426 
L 374.591182 72.706415 
L 375.607761 71.369867 
L 376.62434 73.98861 
L 377.640918 70.759058 
L 378.657497 71.254392 
L 379.674075 74.599842 
L 380.690654 72.656353 
L 381.707233 73.143976 
L 382.723811 73.481367 
L 383.74039 73.123697 
L 384.756968 70.27028 
L 385.773547 71.404601 
L 386.790126 70.051876 
L 387.806704 71.752532 
L 388.823283 69.152229 
L 389.839862 69.543219 
L 390.85644 70.324091 
L 391.873019 74.889247 
L 392.889597 69.711703 
L 393.906176 69.553972 
L 394.922755 68.920904 
L 395.939333 73.156875 
L 396.955912 68.080468 
L 398.989069 73.307531 
L 400.005648 72.903926 
L 401.022226 70.535656 
L 402.038805 69.71142 
L 403.055383 72.865466 
L 404.071962 69.551638 
L 405.088541 68.852308 
L 406.105119 69.782397 
L 407.121698 71.104797 
L 408.138277 69.528977 
L 409.154855 69.233559 
L 410.171434 68.361431 
L 411.188012 68.067168 
L 412.204591 66.798697 
L 413.22117 68.024841 
L 414.237748 71.358076 
L 415.254327 68.806278 
L 416.270905 70.664642 
L 417.287484 68.832146 
L 418.304063 68.174224 
L 419.320641 70.844656 
L 420.33722 68.623552 
L 421.353799 69.975522 
L 422.370377 70.866185 
L 423.386956 70.696523 
L 424.403534 67.764228 
L 425.420113 67.791016 
L 426.436692 70.070481 
L 427.45327 71.9545 
L 428.469849 69.625539 
L 429.486427 66.052466 
L 430.503006 69.183733 
L 431.519585 67.719142 
L 432.536163 73.416827 
L 433.552742 67.257033 
L 434.56932 68.545784 
L 435.585899 68.285878 
L 436.602478 72.892607 
L 437.619056 68.381733 
L 438.635635 67.655145 
L 439.652214 70.380778 
L 440.668792 66.052796 
L 441.685371 69.770748 
L 442.701949 68.068135 
L 443.718528 71.164786 
L 445.751685 66.94768 
L 446.768264 67.986617 
L 447.784842 70.613519 
L 448.801421 65.659849 
L 449.818 69.244618 
L 450.834578 70.544428 
L 451.851157 70.870901 
L 452.867735 68.983062 
L 453.884314 70.796882 
L 454.900893 67.871379 
L 455.917471 67.878618 
L 456.93405 68.281634 
L 457.950629 67.327846 
L 458.967207 66.961309 
L 459.983786 67.38128 
L 461.000364 68.290689 
L 462.016943 67.868337 
L 463.033522 69.304961 
L 464.0501 68.148969 
L 465.066679 67.21638 
L 466.083257 67.821152 
L 467.099836 69.968967 
L 468.116415 66.758846 
L 469.132993 66.658063 
L 470.149572 67.299195 
L 471.16615 66.334655 
L 472.182729 66.971237 
L 473.199308 66.310603 
L 474.215886 68.73523 
L 475.232465 64.945168 
L 476.249044 66.014973 
L 477.265622 65.258318 
L 478.282201 66.890001 
L 479.298779 62.292776 
L 480.315358 65.74514 
L 481.331937 67.85374 
L 482.348515 67.972374 
L 483.365094 64.332308 
L 484.381672 67.386467 
L 486.41483 64.771992 
L 487.431408 65.888887 
L 488.447987 66.835247 
L 489.464565 67.214187 
L 490.481144 66.136743 
L 491.497723 65.263907 
L 492.514301 67.47197 
L 493.53088 63.319451 
L 494.547459 65.932936 
L 495.564037 66.491041 
L 496.580616 66.775235 
L 497.597194 66.016883 
L 498.613773 65.539234 
L 499.630352 62.809238 
L 500.64693 65.510867 
L 501.663509 65.10014 
L 502.680087 68.479616 
L 503.696666 67.615364 
L 504.713245 68.491147 
L 505.729823 64.466812 
L 506.746402 65.342548 
L 507.762981 64.945003 
L 508.779559 67.91446 
L 509.796138 62.232221 
L 510.812716 65.9572 
L 511.829295 65.155271 
L 512.845874 67.24786 
L 513.862452 67.883358 
L 514.879031 65.7404 
L 515.895609 67.328459 
L 516.912188 67.225836 
L 517.928767 64.104237 
L 518.945345 65.287275 
L 519.961924 66.695721 
L 520.978502 68.389397 
L 521.995081 65.855969 
L 523.01166 67.380053 
L 524.028238 62.313904 
L 525.044817 65.576515 
L 526.061396 64.266141 
L 527.077974 66.282023 
L 528.094553 62.305768 
L 529.111131 63.853693 
L 530.12771 66.073924 
L 531.144289 65.406169 
L 532.160867 63.386161 
L 533.177446 66.985644 
L 534.194024 58.939308 
L 535.210603 65.198754 
L 536.227182 61.937557 
L 537.24376 60.804911 
L 538.260339 62.509128 
L 539.276917 60.855067 
L 540.293496 62.45501 
L 541.310075 64.395646 
L 542.326653 59.148775 
L 543.343232 60.067593 
L 544.359811 62.649267 
L 545.376389 63.184735 
L 546.392968 64.81946 
L 547.409546 62.946241 
L 548.426125 63.516891 
L 549.442704 59.723599 
L 550.459282 63.797784 
L 551.475861 60.682009 
L 552.492439 63.179665 
L 553.509018 60.501263 
L 554.525597 62.920184 
L 555.542175 58.920467 
L 556.558754 60.706179 
L 557.575332 61.740424 
L 558.591911 59.907174 
L 559.60849 57.011807 
L 560.625068 61.761434 
L 561.641647 56.62775 
L 562.658226 61.716937 
L 563.674804 65.61896 
L 564.691383 60.554697 
L 565.707961 56.896285 
L 567.741119 62.296548 
L 568.757697 62.563104 
L 569.774276 60.037881 
L 570.790854 62.531364 
L 571.807433 62.758044 
L 572.824012 61.254074 
L 573.84059 59.955986 
L 574.857169 63.194498 
L 575.873747 58.937493 
L 576.890326 59.631658 
L 577.906905 58.343262 
L 578.923483 61.473303 
L 579.940062 63.66262 
L 580.956641 62.191568 
L 581.973219 61.943853 
L 584.006376 59.954524 
L 585.022955 58.83395 
L 586.039534 59.436599 
L 587.056112 60.658051 
L 588.072691 56.913947 
L 589.089269 62.766156 
L 590.105848 60.582947 
L 591.122427 57.664376 
L 592.139005 60.283897 
L 593.155584 58.93978 
L 594.172163 62.75314 
L 595.188741 55.835229 
L 596.20532 60.567619 
L 597.221898 59.55073 
L 598.238477 59.304336 
L 599.255056 58.30301 
L 600.271634 57.091132 
L 602.304791 59.815068 
L 603.32137 58.659642 
L 604.337949 58.616042 
L 605.354527 61.841349 
L 606.371106 60.931208 
L 607.387684 62.463193 
L 608.404263 59.793303 
L 609.420842 61.443379 
L 610.43742 60.315755 
L 611.453999 57.238794 
L 612.470578 57.65834 
L 613.487156 55.8 
L 614.503735 59.103807 
L 615.520313 58.156928 
L 616.536892 58.517239 
L 617.553471 56.263288 
L 618.570049 57.370939 
L 619.586628 61.88601 
L 620.603206 59.868643 
L 621.619785 60.046276 
L 622.636364 61.788033 
L 622.636364 61.788033 
" clip-path="url(#pa826891b86)" style="fill: none; stroke: #ff7f0e; stroke-width: 1.5; stroke-linecap: square"/>
   </g>
   <g id="patch_3">
    <path d="M 90 320.4 
L 90 43.2 
" style="fill: none; stroke: #000000; stroke-width: 0.8; stroke-linejoin: miter; stroke-linecap: square"/>
   </g>
   <g id="patch_4">
    <path d="M 648 320.4 
L 648 43.2 
" style="fill: none; stroke: #000000; stroke-width: 0.8; stroke-linejoin: miter; stroke-linecap: square"/>
   </g>
   <g id="patch_5">
    <path d="M 90 320.4 
L 648 320.4 
" style="fill: none; stroke: #000000; stroke-width: 0.8; stroke-linejoin: miter; stroke-linecap: square"/>
   </g>
   <g id="patch_6">
    <path d="M 90 43.2 
L 648 43.2 
" style="fill: none; stroke: #000000; stroke-width: 0.8; stroke-linejoin: miter; stroke-linecap: square"/>
   </g>
   <g id="text_15">
    <!-- model train and validation loss over time -->
    <g transform="translate(245.555625 37.2) scale(0.12 -0.12)">
     <defs>
      <path id="DejaVuSans-6d" d="M 3328 2828 
Q 3544 3216 3844 3400 
Q 4144 3584 4550 3584 
Q 5097 3584 5394 3201 
Q 5691 2819 5691 2113 
L 5691 0 
L 5113 0 
L 5113 2094 
Q 5113 2597 4934 2840 
Q 4756 3084 4391 3084 
Q 3944 3084 3684 2787 
Q 3425 2491 3425 1978 
L 3425 0 
L 2847 0 
L 2847 2094 
Q 2847 2600 2669 2842 
Q 2491 3084 2119 3084 
Q 1678 3084 1418 2786 
Q 1159 2488 1159 1978 
L 1159 0 
L 581 0 
L 581 3500 
L 1159 3500 
L 1159 2956 
Q 1356 3278 1631 3431 
Q 1906 3584 2284 3584 
Q 2666 3584 2933 3390 
Q 3200 3197 3328 2828 
z
" transform="scale(0.015625)"/>
      <path id="DejaVuSans-64" d="M 2906 2969 
L 2906 4863 
L 3481 4863 
L 3481 0 
L 2906 0 
L 2906 525 
Q 2725 213 2448 61 
Q 2172 -91 1784 -91 
Q 1150 -91 751 415 
Q 353 922 353 1747 
Q 353 2572 751 3078 
Q 1150 3584 1784 3584 
Q 2172 3584 2448 3432 
Q 2725 3281 2906 2969 
z
M 947 1747 
Q 947 1113 1208 752 
Q 1469 391 1925 391 
Q 2381 391 2643 752 
Q 2906 1113 2906 1747 
Q 2906 2381 2643 2742 
Q 2381 3103 1925 3103 
Q 1469 3103 1208 2742 
Q 947 2381 947 1747 
z
" transform="scale(0.015625)"/>
      <path id="DejaVuSans-20" transform="scale(0.015625)"/>
      <path id="DejaVuSans-74" d="M 1172 4494 
L 1172 3500 
L 2356 3500 
L 2356 3053 
L 1172 3053 
L 1172 1153 
Q 1172 725 1289 603 
Q 1406 481 1766 481 
L 2356 481 
L 2356 0 
L 1766 0 
Q 1100 0 847 248 
Q 594 497 594 1153 
L 594 3053 
L 172 3053 
L 172 3500 
L 594 3500 
L 594 4494 
L 1172 4494 
z
" transform="scale(0.015625)"/>
      <path id="DejaVuSans-72" d="M 2631 2963 
Q 2534 3019 2420 3045 
Q 2306 3072 2169 3072 
Q 1681 3072 1420 2755 
Q 1159 2438 1159 1844 
L 1159 0 
L 581 0 
L 581 3500 
L 1159 3500 
L 1159 2956 
Q 1341 3275 1631 3429 
Q 1922 3584 2338 3584 
Q 2397 3584 2469 3576 
Q 2541 3569 2628 3553 
L 2631 2963 
z
" transform="scale(0.015625)"/>
      <path id="DejaVuSans-61" d="M 2194 1759 
Q 1497 1759 1228 1600 
Q 959 1441 959 1056 
Q 959 750 1161 570 
Q 1363 391 1709 391 
Q 2188 391 2477 730 
Q 2766 1069 2766 1631 
L 2766 1759 
L 2194 1759 
z
M 3341 1997 
L 3341 0 
L 2766 0 
L 2766 531 
Q 2569 213 2275 61 
Q 1981 -91 1556 -91 
Q 1019 -91 701 211 
Q 384 513 384 1019 
Q 384 1609 779 1909 
Q 1175 2209 1959 2209 
L 2766 2209 
L 2766 2266 
Q 2766 2663 2505 2880 
Q 2244 3097 1772 3097 
Q 1472 3097 1187 3025 
Q 903 2953 641 2809 
L 641 3341 
Q 956 3463 1253 3523 
Q 1550 3584 1831 3584 
Q 2591 3584 2966 3190 
Q 3341 2797 3341 1997 
z
" transform="scale(0.015625)"/>
      <path id="DejaVuSans-69" d="M 603 3500 
L 1178 3500 
L 1178 0 
L 603 0 
L 603 3500 
z
M 603 4863 
L 1178 4863 
L 1178 4134 
L 603 4134 
L 603 4863 
z
" transform="scale(0.015625)"/>
      <path id="DejaVuSans-6e" d="M 3513 2113 
L 3513 0 
L 2938 0 
L 2938 2094 
Q 2938 2591 2744 2837 
Q 2550 3084 2163 3084 
Q 1697 3084 1428 2787 
Q 1159 2491 1159 1978 
L 1159 0 
L 581 0 
L 581 3500 
L 1159 3500 
L 1159 2956 
Q 1366 3272 1645 3428 
Q 1925 3584 2291 3584 
Q 2894 3584 3203 3211 
Q 3513 2838 3513 2113 
z
" transform="scale(0.015625)"/>
      <path id="DejaVuSans-76" d="M 191 3500 
L 800 3500 
L 1894 563 
L 2988 3500 
L 3597 3500 
L 2284 0 
L 1503 0 
L 191 3500 
z
" transform="scale(0.015625)"/>
     </defs>
     <use xlink:href="#DejaVuSans-6d"/>
     <use xlink:href="#DejaVuSans-6f" x="97.412109"/>
     <use xlink:href="#DejaVuSans-64" x="158.59375"/>
     <use xlink:href="#DejaVuSans-65" x="222.070312"/>
     <use xlink:href="#DejaVuSans-6c" x="283.59375"/>
     <use xlink:href="#DejaVuSans-20" x="311.376953"/>
     <use xlink:href="#DejaVuSans-74" x="343.164062"/>
     <use xlink:href="#DejaVuSans-72" x="382.373047"/>
     <use xlink:href="#DejaVuSans-61" x="423.486328"/>
     <use xlink:href="#DejaVuSans-69" x="484.765625"/>
     <use xlink:href="#DejaVuSans-6e" x="512.548828"/>
     <use xlink:href="#DejaVuSans-20" x="575.927734"/>
     <use xlink:href="#DejaVuSans-61" x="607.714844"/>
     <use xlink:href="#DejaVuSans-6e" x="668.994141"/>
     <use xlink:href="#DejaVuSans-64" x="732.373047"/>
     <use xlink:href="#DejaVuSans-20" x="795.849609"/>
     <use xlink:href="#DejaVuSans-76" x="827.636719"/>
     <use xlink:href="#DejaVuSans-61" x="886.816406"/>
     <use xlink:href="#DejaVuSans-6c" x="948.095703"/>
     <use xlink:href="#DejaVuSans-69" x="975.878906"/>
     <use xlink:href="#DejaVuSans-64" x="1003.662109"/>
     <use xlink:href="#DejaVuSans-61" x="1067.138672"/>
     <use xlink:href="#DejaVuSans-74" x="1128.417969"/>
     <use xlink:href="#DejaVuSans-69" x="1167.626953"/>
     <use xlink:href="#DejaVuSans-6f" x="1195.410156"/>
     <use xlink:href="#DejaVuSans-6e" x="1256.591797"/>
     <use xlink:href="#DejaVuSans-20" x="1319.970703"/>
     <use xlink:href="#DejaVuSans-6c" x="1351.757812"/>
     <use xlink:href="#DejaVuSans-6f" x="1379.541016"/>
     <use xlink:href="#DejaVuSans-73" x="1440.722656"/>
     <use xlink:href="#DejaVuSans-73" x="1492.822266"/>
     <use xlink:href="#DejaVuSans-20" x="1544.921875"/>
     <use xlink:href="#DejaVuSans-6f" x="1576.708984"/>
     <use xlink:href="#DejaVuSans-76" x="1637.890625"/>
     <use xlink:href="#DejaVuSans-65" x="1697.070312"/>
     <use xlink:href="#DejaVuSans-72" x="1758.59375"/>
     <use xlink:href="#DejaVuSans-20" x="1799.707031"/>
     <use xlink:href="#DejaVuSans-74" x="1831.494141"/>
     <use xlink:href="#DejaVuSans-69" x="1870.703125"/>
     <use xlink:href="#DejaVuSans-6d" x="1898.486328"/>
     <use xlink:href="#DejaVuSans-65" x="1995.898438"/>
    </g>
   </g>
   <g id="legend_1">
    <g id="patch_7">
     <path d="M 97 80.55625 
L 178.234375 80.55625 
Q 180.234375 80.55625 180.234375 78.55625 
L 180.234375 50.2 
Q 180.234375 48.2 178.234375 48.2 
L 97 48.2 
Q 95 48.2 95 50.2 
L 95 78.55625 
Q 95 80.55625 97 80.55625 
z
" style="fill: #ffffff; opacity: 0.8; stroke: #cccccc; stroke-linejoin: miter"/>
    </g>
    <g id="line2d_27">
     <path d="M 99 56.298437 
L 109 56.298437 
L 119 56.298437 
" style="fill: none; stroke: #1f77b4; stroke-width: 1.5; stroke-linecap: square"/>
    </g>
    <g id="text_16">
     <!-- train -->
     <g transform="translate(127 59.798437) scale(0.1 -0.1)">
      <use xlink:href="#DejaVuSans-74"/>
      <use xlink:href="#DejaVuSans-72" x="39.208984"/>
      <use xlink:href="#DejaVuSans-61" x="80.322266"/>
      <use xlink:href="#DejaVuSans-69" x="141.601562"/>
      <use xlink:href="#DejaVuSans-6e" x="169.384766"/>
     </g>
    </g>
    <g id="line2d_28">
     <path d="M 99 70.976562 
L 109 70.976562 
L 119 70.976562 
" style="fill: none; stroke: #ff7f0e; stroke-width: 1.5; stroke-linecap: square"/>
    </g>
    <g id="text_17">
     <!-- validation -->
     <g transform="translate(127 74.476562) scale(0.1 -0.1)">
      <use xlink:href="#DejaVuSans-76"/>
      <use xlink:href="#DejaVuSans-61" x="59.179688"/>
      <use xlink:href="#DejaVuSans-6c" x="120.458984"/>
      <use xlink:href="#DejaVuSans-69" x="148.242188"/>
      <use xlink:href="#DejaVuSans-64" x="176.025391"/>
      <use xlink:href="#DejaVuSans-61" x="239.501953"/>
      <use xlink:href="#DejaVuSans-74" x="300.78125"/>
      <use xlink:href="#DejaVuSans-69" x="339.990234"/>
      <use xlink:href="#DejaVuSans-6f" x="367.773438"/>
      <use xlink:href="#DejaVuSans-6e" x="428.955078"/>
     </g>
    </g>
   </g>
  </g>
 </g>
 <defs>
  <clipPath id="pa826891b86">
   <rect x="90" y="43.2" width="558" height="277.2"/>
  </clipPath>
 </defs>
</svg>
