<?xml version="1.0" encoding="utf-8" standalone="no"?>
<!DOCTYPE svg PUBLIC "-//W3C//DTD SVG 1.1//EN"
  "http://www.w3.org/Graphics/SVG/1.1/DTD/svg11.dtd">
<svg xmlns:xlink="http://www.w3.org/1999/xlink" width="720pt" height="360pt" viewBox="0 0 720 360" xmlns="http://www.w3.org/2000/svg" version="1.1">
 <metadata>
  <rdf:RDF xmlns:dc="http://purl.org/dc/elements/1.1/" xmlns:cc="http://creativecommons.org/ns#" xmlns:rdf="http://www.w3.org/1999/02/22-rdf-syntax-ns#">
   <cc:Work>
    <dc:type rdf:resource="http://purl.org/dc/dcmitype/StillImage"/>
    <dc:date>2023-05-24T12:15:43.008055</dc:date>
    <dc:format>image/svg+xml</dc:format>
    <dc:creator>
     <cc:Agent>
      <dc:title>Matplotlib v3.7.1, https://matplotlib.org/</dc:title>
     </cc:Agent>
    </dc:creator>
   </cc:Work>
  </rdf:RDF>
 </metadata>
 <defs>
  <style type="text/css">*{stroke-linejoin: round; stroke-linecap: butt}</style>
 </defs>
 <g id="figure_1">
  <g id="patch_1">
   <path d="M 0 360 
L 720 360 
L 720 0 
L 0 0 
z
" style="fill: #ffffff"/>
  </g>
  <g id="axes_1">
   <g id="patch_2">
    <path d="M 90 320.4 
L 648 320.4 
L 648 43.2 
L 90 43.2 
z
" style="fill: #ffffff"/>
   </g>
   <g id="matplotlib.axis_1">
    <g id="xtick_1">
     <g id="line2d_1">
      <path d="M 115.363636 320.4 
L 115.363636 43.2 
" clip-path="url(#pa516be4ba7)" style="fill: none; stroke: #b0b0b0; stroke-width: 0.8; stroke-linecap: square"/>
     </g>
     <g id="line2d_2">
      <defs>
       <path id="m4acc83911a" d="M 0 0 
L 0 3.5 
" style="stroke: #000000; stroke-width: 0.8"/>
      </defs>
      <g>
       <use xlink:href="#m4acc83911a" x="115.363636" y="320.4" style="stroke: #000000; stroke-width: 0.8"/>
      </g>
     </g>
     <g id="text_1">
      <!-- 0 -->
      <g transform="translate(112.182386 334.998438) scale(0.1 -0.1)">
       <defs>
        <path id="DejaVuSans-30" d="M 2034 4250 
Q 1547 4250 1301 3770 
Q 1056 3291 1056 2328 
Q 1056 1369 1301 889 
Q 1547 409 2034 409 
Q 2525 409 2770 889 
Q 3016 1369 3016 2328 
Q 3016 3291 2770 3770 
Q 2525 4250 2034 4250 
z
M 2034 4750 
Q 2819 4750 3233 4129 
Q 3647 3509 3647 2328 
Q 3647 1150 3233 529 
Q 2819 -91 2034 -91 
Q 1250 -91 836 529 
Q 422 1150 422 2328 
Q 422 3509 836 4129 
Q 1250 4750 2034 4750 
z
" transform="scale(0.015625)"/>
       </defs>
       <use xlink:href="#DejaVuSans-30"/>
      </g>
     </g>
    </g>
    <g id="xtick_2">
     <g id="line2d_3">
      <path d="M 217.021498 320.4 
L 217.021498 43.2 
" clip-path="url(#pa516be4ba7)" style="fill: none; stroke: #b0b0b0; stroke-width: 0.8; stroke-linecap: square"/>
     </g>
     <g id="line2d_4">
      <g>
       <use xlink:href="#m4acc83911a" x="217.021498" y="320.4" style="stroke: #000000; stroke-width: 0.8"/>
      </g>
     </g>
     <g id="text_2">
      <!-- 100 -->
      <g transform="translate(207.477748 334.998438) scale(0.1 -0.1)">
       <defs>
        <path id="DejaVuSans-31" d="M 794 531 
L 1825 531 
L 1825 4091 
L 703 3866 
L 703 4441 
L 1819 4666 
L 2450 4666 
L 2450 531 
L 3481 531 
L 3481 0 
L 794 0 
L 794 531 
z
" transform="scale(0.015625)"/>
       </defs>
       <use xlink:href="#DejaVuSans-31"/>
       <use xlink:href="#DejaVuSans-30" x="63.623047"/>
       <use xlink:href="#DejaVuSans-30" x="127.246094"/>
      </g>
     </g>
    </g>
    <g id="xtick_3">
     <g id="line2d_5">
      <path d="M 318.679359 320.4 
L 318.679359 43.2 
" clip-path="url(#pa516be4ba7)" style="fill: none; stroke: #b0b0b0; stroke-width: 0.8; stroke-linecap: square"/>
     </g>
     <g id="line2d_6">
      <g>
       <use xlink:href="#m4acc83911a" x="318.679359" y="320.4" style="stroke: #000000; stroke-width: 0.8"/>
      </g>
     </g>
     <g id="text_3">
      <!-- 200 -->
      <g transform="translate(309.135609 334.998438) scale(0.1 -0.1)">
       <defs>
        <path id="DejaVuSans-32" d="M 1228 531 
L 3431 531 
L 3431 0 
L 469 0 
L 469 531 
Q 828 903 1448 1529 
Q 2069 2156 2228 2338 
Q 2531 2678 2651 2914 
Q 2772 3150 2772 3378 
Q 2772 3750 2511 3984 
Q 2250 4219 1831 4219 
Q 1534 4219 1204 4116 
Q 875 4013 500 3803 
L 500 4441 
Q 881 4594 1212 4672 
Q 1544 4750 1819 4750 
Q 2544 4750 2975 4387 
Q 3406 4025 3406 3419 
Q 3406 3131 3298 2873 
Q 3191 2616 2906 2266 
Q 2828 2175 2409 1742 
Q 1991 1309 1228 531 
z
" transform="scale(0.015625)"/>
       </defs>
       <use xlink:href="#DejaVuSans-32"/>
       <use xlink:href="#DejaVuSans-30" x="63.623047"/>
       <use xlink:href="#DejaVuSans-30" x="127.246094"/>
      </g>
     </g>
    </g>
    <g id="xtick_4">
     <g id="line2d_7">
      <path d="M 420.33722 320.4 
L 420.33722 43.2 
" clip-path="url(#pa516be4ba7)" style="fill: none; stroke: #b0b0b0; stroke-width: 0.8; stroke-linecap: square"/>
     </g>
     <g id="line2d_8">
      <g>
       <use xlink:href="#m4acc83911a" x="420.33722" y="320.4" style="stroke: #000000; stroke-width: 0.8"/>
      </g>
     </g>
     <g id="text_4">
      <!-- 300 -->
      <g transform="translate(410.79347 334.998438) scale(0.1 -0.1)">
       <defs>
        <path id="DejaVuSans-33" d="M 2597 2516 
Q 3050 2419 3304 2112 
Q 3559 1806 3559 1356 
Q 3559 666 3084 287 
Q 2609 -91 1734 -91 
Q 1441 -91 1130 -33 
Q 819 25 488 141 
L 488 750 
Q 750 597 1062 519 
Q 1375 441 1716 441 
Q 2309 441 2620 675 
Q 2931 909 2931 1356 
Q 2931 1769 2642 2001 
Q 2353 2234 1838 2234 
L 1294 2234 
L 1294 2753 
L 1863 2753 
Q 2328 2753 2575 2939 
Q 2822 3125 2822 3475 
Q 2822 3834 2567 4026 
Q 2313 4219 1838 4219 
Q 1578 4219 1281 4162 
Q 984 4106 628 3988 
L 628 4550 
Q 988 4650 1302 4700 
Q 1616 4750 1894 4750 
Q 2613 4750 3031 4423 
Q 3450 4097 3450 3541 
Q 3450 3153 3228 2886 
Q 3006 2619 2597 2516 
z
" transform="scale(0.015625)"/>
       </defs>
       <use xlink:href="#DejaVuSans-33"/>
       <use xlink:href="#DejaVuSans-30" x="63.623047"/>
       <use xlink:href="#DejaVuSans-30" x="127.246094"/>
      </g>
     </g>
    </g>
    <g id="xtick_5">
     <g id="line2d_9">
      <path d="M 521.995081 320.4 
L 521.995081 43.2 
" clip-path="url(#pa516be4ba7)" style="fill: none; stroke: #b0b0b0; stroke-width: 0.8; stroke-linecap: square"/>
     </g>
     <g id="line2d_10">
      <g>
       <use xlink:href="#m4acc83911a" x="521.995081" y="320.4" style="stroke: #000000; stroke-width: 0.8"/>
      </g>
     </g>
     <g id="text_5">
      <!-- 400 -->
      <g transform="translate(512.451331 334.998438) scale(0.1 -0.1)">
       <defs>
        <path id="DejaVuSans-34" d="M 2419 4116 
L 825 1625 
L 2419 1625 
L 2419 4116 
z
M 2253 4666 
L 3047 4666 
L 3047 1625 
L 3713 1625 
L 3713 1100 
L 3047 1100 
L 3047 0 
L 2419 0 
L 2419 1100 
L 313 1100 
L 313 1709 
L 2253 4666 
z
" transform="scale(0.015625)"/>
       </defs>
       <use xlink:href="#DejaVuSans-34"/>
       <use xlink:href="#DejaVuSans-30" x="63.623047"/>
       <use xlink:href="#DejaVuSans-30" x="127.246094"/>
      </g>
     </g>
    </g>
    <g id="xtick_6">
     <g id="line2d_11">
      <path d="M 623.652942 320.4 
L 623.652942 43.2 
" clip-path="url(#pa516be4ba7)" style="fill: none; stroke: #b0b0b0; stroke-width: 0.8; stroke-linecap: square"/>
     </g>
     <g id="line2d_12">
      <g>
       <use xlink:href="#m4acc83911a" x="623.652942" y="320.4" style="stroke: #000000; stroke-width: 0.8"/>
      </g>
     </g>
     <g id="text_6">
      <!-- 500 -->
      <g transform="translate(614.109192 334.998438) scale(0.1 -0.1)">
       <defs>
        <path id="DejaVuSans-35" d="M 691 4666 
L 3169 4666 
L 3169 4134 
L 1269 4134 
L 1269 2991 
Q 1406 3038 1543 3061 
Q 1681 3084 1819 3084 
Q 2600 3084 3056 2656 
Q 3513 2228 3513 1497 
Q 3513 744 3044 326 
Q 2575 -91 1722 -91 
Q 1428 -91 1123 -41 
Q 819 9 494 109 
L 494 744 
Q 775 591 1075 516 
Q 1375 441 1709 441 
Q 2250 441 2565 725 
Q 2881 1009 2881 1497 
Q 2881 1984 2565 2268 
Q 2250 2553 1709 2553 
Q 1456 2553 1204 2497 
Q 953 2441 691 2322 
L 691 4666 
z
" transform="scale(0.015625)"/>
       </defs>
       <use xlink:href="#DejaVuSans-35"/>
       <use xlink:href="#DejaVuSans-30" x="63.623047"/>
       <use xlink:href="#DejaVuSans-30" x="127.246094"/>
      </g>
     </g>
    </g>
    <g id="text_7">
     <!-- epoch -->
     <g transform="translate(353.771875 348.676562) scale(0.1 -0.1)">
      <defs>
       <path id="DejaVuSans-65" d="M 3597 1894 
L 3597 1613 
L 953 1613 
Q 991 1019 1311 708 
Q 1631 397 2203 397 
Q 2534 397 2845 478 
Q 3156 559 3463 722 
L 3463 178 
Q 3153 47 2828 -22 
Q 2503 -91 2169 -91 
Q 1331 -91 842 396 
Q 353 884 353 1716 
Q 353 2575 817 3079 
Q 1281 3584 2069 3584 
Q 2775 3584 3186 3129 
Q 3597 2675 3597 1894 
z
M 3022 2063 
Q 3016 2534 2758 2815 
Q 2500 3097 2075 3097 
Q 1594 3097 1305 2825 
Q 1016 2553 972 2059 
L 3022 2063 
z
" transform="scale(0.015625)"/>
       <path id="DejaVuSans-70" d="M 1159 525 
L 1159 -1331 
L 581 -1331 
L 581 3500 
L 1159 3500 
L 1159 2969 
Q 1341 3281 1617 3432 
Q 1894 3584 2278 3584 
Q 2916 3584 3314 3078 
Q 3713 2572 3713 1747 
Q 3713 922 3314 415 
Q 2916 -91 2278 -91 
Q 1894 -91 1617 61 
Q 1341 213 1159 525 
z
M 3116 1747 
Q 3116 2381 2855 2742 
Q 2594 3103 2138 3103 
Q 1681 3103 1420 2742 
Q 1159 2381 1159 1747 
Q 1159 1113 1420 752 
Q 1681 391 2138 391 
Q 2594 391 2855 752 
Q 3116 1113 3116 1747 
z
" transform="scale(0.015625)"/>
       <path id="DejaVuSans-6f" d="M 1959 3097 
Q 1497 3097 1228 2736 
Q 959 2375 959 1747 
Q 959 1119 1226 758 
Q 1494 397 1959 397 
Q 2419 397 2687 759 
Q 2956 1122 2956 1747 
Q 2956 2369 2687 2733 
Q 2419 3097 1959 3097 
z
M 1959 3584 
Q 2709 3584 3137 3096 
Q 3566 2609 3566 1747 
Q 3566 888 3137 398 
Q 2709 -91 1959 -91 
Q 1206 -91 779 398 
Q 353 888 353 1747 
Q 353 2609 779 3096 
Q 1206 3584 1959 3584 
z
" transform="scale(0.015625)"/>
       <path id="DejaVuSans-63" d="M 3122 3366 
L 3122 2828 
Q 2878 2963 2633 3030 
Q 2388 3097 2138 3097 
Q 1578 3097 1268 2742 
Q 959 2388 959 1747 
Q 959 1106 1268 751 
Q 1578 397 2138 397 
Q 2388 397 2633 464 
Q 2878 531 3122 666 
L 3122 134 
Q 2881 22 2623 -34 
Q 2366 -91 2075 -91 
Q 1284 -91 818 406 
Q 353 903 353 1747 
Q 353 2603 823 3093 
Q 1294 3584 2113 3584 
Q 2378 3584 2631 3529 
Q 2884 3475 3122 3366 
z
" transform="scale(0.015625)"/>
       <path id="DejaVuSans-68" d="M 3513 2113 
L 3513 0 
L 2938 0 
L 2938 2094 
Q 2938 2591 2744 2837 
Q 2550 3084 2163 3084 
Q 1697 3084 1428 2787 
Q 1159 2491 1159 1978 
L 1159 0 
L 581 0 
L 581 4863 
L 1159 4863 
L 1159 2956 
Q 1366 3272 1645 3428 
Q 1925 3584 2291 3584 
Q 2894 3584 3203 3211 
Q 3513 2838 3513 2113 
z
" transform="scale(0.015625)"/>
      </defs>
      <use xlink:href="#DejaVuSans-65"/>
      <use xlink:href="#DejaVuSans-70" x="61.523438"/>
      <use xlink:href="#DejaVuSans-6f" x="125"/>
      <use xlink:href="#DejaVuSans-63" x="186.181641"/>
      <use xlink:href="#DejaVuSans-68" x="241.162109"/>
     </g>
    </g>
   </g>
   <g id="matplotlib.axis_2">
    <g id="ytick_1">
     <g id="line2d_13">
      <path d="M 90 293.064342 
L 648 293.064342 
" clip-path="url(#pa516be4ba7)" style="fill: none; stroke: #b0b0b0; stroke-width: 0.8; stroke-linecap: square"/>
     </g>
     <g id="line2d_14">
      <defs>
       <path id="m71404213bb" d="M 0 0 
L -3.5 0 
" style="stroke: #000000; stroke-width: 0.8"/>
      </defs>
      <g>
       <use xlink:href="#m71404213bb" x="90" y="293.064342" style="stroke: #000000; stroke-width: 0.8"/>
      </g>
     </g>
     <g id="text_8">
      <!-- 0.55 -->
      <g transform="translate(60.734375 296.863561) scale(0.1 -0.1)">
       <defs>
        <path id="DejaVuSans-2e" d="M 684 794 
L 1344 794 
L 1344 0 
L 684 0 
L 684 794 
z
" transform="scale(0.015625)"/>
       </defs>
       <use xlink:href="#DejaVuSans-30"/>
       <use xlink:href="#DejaVuSans-2e" x="63.623047"/>
       <use xlink:href="#DejaVuSans-35" x="95.410156"/>
       <use xlink:href="#DejaVuSans-35" x="159.033203"/>
      </g>
     </g>
    </g>
    <g id="ytick_2">
     <g id="line2d_15">
      <path d="M 90 256.503425 
L 648 256.503425 
" clip-path="url(#pa516be4ba7)" style="fill: none; stroke: #b0b0b0; stroke-width: 0.8; stroke-linecap: square"/>
     </g>
     <g id="line2d_16">
      <g>
       <use xlink:href="#m71404213bb" x="90" y="256.503425" style="stroke: #000000; stroke-width: 0.8"/>
      </g>
     </g>
     <g id="text_9">
      <!-- 0.60 -->
      <g transform="translate(60.734375 260.302643) scale(0.1 -0.1)">
       <defs>
        <path id="DejaVuSans-36" d="M 2113 2584 
Q 1688 2584 1439 2293 
Q 1191 2003 1191 1497 
Q 1191 994 1439 701 
Q 1688 409 2113 409 
Q 2538 409 2786 701 
Q 3034 994 3034 1497 
Q 3034 2003 2786 2293 
Q 2538 2584 2113 2584 
z
M 3366 4563 
L 3366 3988 
Q 3128 4100 2886 4159 
Q 2644 4219 2406 4219 
Q 1781 4219 1451 3797 
Q 1122 3375 1075 2522 
Q 1259 2794 1537 2939 
Q 1816 3084 2150 3084 
Q 2853 3084 3261 2657 
Q 3669 2231 3669 1497 
Q 3669 778 3244 343 
Q 2819 -91 2113 -91 
Q 1303 -91 875 529 
Q 447 1150 447 2328 
Q 447 3434 972 4092 
Q 1497 4750 2381 4750 
Q 2619 4750 2861 4703 
Q 3103 4656 3366 4563 
z
" transform="scale(0.015625)"/>
       </defs>
       <use xlink:href="#DejaVuSans-30"/>
       <use xlink:href="#DejaVuSans-2e" x="63.623047"/>
       <use xlink:href="#DejaVuSans-36" x="95.410156"/>
       <use xlink:href="#DejaVuSans-30" x="159.033203"/>
      </g>
     </g>
    </g>
    <g id="ytick_3">
     <g id="line2d_17">
      <path d="M 90 219.942507 
L 648 219.942507 
" clip-path="url(#pa516be4ba7)" style="fill: none; stroke: #b0b0b0; stroke-width: 0.8; stroke-linecap: square"/>
     </g>
     <g id="line2d_18">
      <g>
       <use xlink:href="#m71404213bb" x="90" y="219.942507" style="stroke: #000000; stroke-width: 0.8"/>
      </g>
     </g>
     <g id="text_10">
      <!-- 0.65 -->
      <g transform="translate(60.734375 223.741726) scale(0.1 -0.1)">
       <use xlink:href="#DejaVuSans-30"/>
       <use xlink:href="#DejaVuSans-2e" x="63.623047"/>
       <use xlink:href="#DejaVuSans-36" x="95.410156"/>
       <use xlink:href="#DejaVuSans-35" x="159.033203"/>
      </g>
     </g>
    </g>
    <g id="ytick_4">
     <g id="line2d_19">
      <path d="M 90 183.38159 
L 648 183.38159 
" clip-path="url(#pa516be4ba7)" style="fill: none; stroke: #b0b0b0; stroke-width: 0.8; stroke-linecap: square"/>
     </g>
     <g id="line2d_20">
      <g>
       <use xlink:href="#m71404213bb" x="90" y="183.38159" style="stroke: #000000; stroke-width: 0.8"/>
      </g>
     </g>
     <g id="text_11">
      <!-- 0.70 -->
      <g transform="translate(60.734375 187.180808) scale(0.1 -0.1)">
       <defs>
        <path id="DejaVuSans-37" d="M 525 4666 
L 3525 4666 
L 3525 4397 
L 1831 0 
L 1172 0 
L 2766 4134 
L 525 4134 
L 525 4666 
z
" transform="scale(0.015625)"/>
       </defs>
       <use xlink:href="#DejaVuSans-30"/>
       <use xlink:href="#DejaVuSans-2e" x="63.623047"/>
       <use xlink:href="#DejaVuSans-37" x="95.410156"/>
       <use xlink:href="#DejaVuSans-30" x="159.033203"/>
      </g>
     </g>
    </g>
    <g id="ytick_5">
     <g id="line2d_21">
      <path d="M 90 146.820672 
L 648 146.820672 
" clip-path="url(#pa516be4ba7)" style="fill: none; stroke: #b0b0b0; stroke-width: 0.8; stroke-linecap: square"/>
     </g>
     <g id="line2d_22">
      <g>
       <use xlink:href="#m71404213bb" x="90" y="146.820672" style="stroke: #000000; stroke-width: 0.8"/>
      </g>
     </g>
     <g id="text_12">
      <!-- 0.75 -->
      <g transform="translate(60.734375 150.619891) scale(0.1 -0.1)">
       <use xlink:href="#DejaVuSans-30"/>
       <use xlink:href="#DejaVuSans-2e" x="63.623047"/>
       <use xlink:href="#DejaVuSans-37" x="95.410156"/>
       <use xlink:href="#DejaVuSans-35" x="159.033203"/>
      </g>
     </g>
    </g>
    <g id="ytick_6">
     <g id="line2d_23">
      <path d="M 90 110.259755 
L 648 110.259755 
" clip-path="url(#pa516be4ba7)" style="fill: none; stroke: #b0b0b0; stroke-width: 0.8; stroke-linecap: square"/>
     </g>
     <g id="line2d_24">
      <g>
       <use xlink:href="#m71404213bb" x="90" y="110.259755" style="stroke: #000000; stroke-width: 0.8"/>
      </g>
     </g>
     <g id="text_13">
      <!-- 0.80 -->
      <g transform="translate(60.734375 114.058973) scale(0.1 -0.1)">
       <defs>
        <path id="DejaVuSans-38" d="M 2034 2216 
Q 1584 2216 1326 1975 
Q 1069 1734 1069 1313 
Q 1069 891 1326 650 
Q 1584 409 2034 409 
Q 2484 409 2743 651 
Q 3003 894 3003 1313 
Q 3003 1734 2745 1975 
Q 2488 2216 2034 2216 
z
M 1403 2484 
Q 997 2584 770 2862 
Q 544 3141 544 3541 
Q 544 4100 942 4425 
Q 1341 4750 2034 4750 
Q 2731 4750 3128 4425 
Q 3525 4100 3525 3541 
Q 3525 3141 3298 2862 
Q 3072 2584 2669 2484 
Q 3125 2378 3379 2068 
Q 3634 1759 3634 1313 
Q 3634 634 3220 271 
Q 2806 -91 2034 -91 
Q 1263 -91 848 271 
Q 434 634 434 1313 
Q 434 1759 690 2068 
Q 947 2378 1403 2484 
z
M 1172 3481 
Q 1172 3119 1398 2916 
Q 1625 2713 2034 2713 
Q 2441 2713 2670 2916 
Q 2900 3119 2900 3481 
Q 2900 3844 2670 4047 
Q 2441 4250 2034 4250 
Q 1625 4250 1398 4047 
Q 1172 3844 1172 3481 
z
" transform="scale(0.015625)"/>
       </defs>
       <use xlink:href="#DejaVuSans-30"/>
       <use xlink:href="#DejaVuSans-2e" x="63.623047"/>
       <use xlink:href="#DejaVuSans-38" x="95.410156"/>
       <use xlink:href="#DejaVuSans-30" x="159.033203"/>
      </g>
     </g>
    </g>
    <g id="ytick_7">
     <g id="line2d_25">
      <path d="M 90 73.698837 
L 648 73.698837 
" clip-path="url(#pa516be4ba7)" style="fill: none; stroke: #b0b0b0; stroke-width: 0.8; stroke-linecap: square"/>
     </g>
     <g id="line2d_26">
      <g>
       <use xlink:href="#m71404213bb" x="90" y="73.698837" style="stroke: #000000; stroke-width: 0.8"/>
      </g>
     </g>
     <g id="text_14">
      <!-- 0.85 -->
      <g transform="translate(60.734375 77.498056) scale(0.1 -0.1)">
       <use xlink:href="#DejaVuSans-30"/>
       <use xlink:href="#DejaVuSans-2e" x="63.623047"/>
       <use xlink:href="#DejaVuSans-38" x="95.410156"/>
       <use xlink:href="#DejaVuSans-35" x="159.033203"/>
      </g>
     </g>
    </g>
    <g id="text_15">
     <!-- accruacy -->
     <g transform="translate(54.654687 204.359375) rotate(-90) scale(0.1 -0.1)">
      <defs>
       <path id="DejaVuSans-61" d="M 2194 1759 
Q 1497 1759 1228 1600 
Q 959 1441 959 1056 
Q 959 750 1161 570 
Q 1363 391 1709 391 
Q 2188 391 2477 730 
Q 2766 1069 2766 1631 
L 2766 1759 
L 2194 1759 
z
M 3341 1997 
L 3341 0 
L 2766 0 
L 2766 531 
Q 2569 213 2275 61 
Q 1981 -91 1556 -91 
Q 1019 -91 701 211 
Q 384 513 384 1019 
Q 384 1609 779 1909 
Q 1175 2209 1959 2209 
L 2766 2209 
L 2766 2266 
Q 2766 2663 2505 2880 
Q 2244 3097 1772 3097 
Q 1472 3097 1187 3025 
Q 903 2953 641 2809 
L 641 3341 
Q 956 3463 1253 3523 
Q 1550 3584 1831 3584 
Q 2591 3584 2966 3190 
Q 3341 2797 3341 1997 
z
" transform="scale(0.015625)"/>
       <path id="DejaVuSans-72" d="M 2631 2963 
Q 2534 3019 2420 3045 
Q 2306 3072 2169 3072 
Q 1681 3072 1420 2755 
Q 1159 2438 1159 1844 
L 1159 0 
L 581 0 
L 581 3500 
L 1159 3500 
L 1159 2956 
Q 1341 3275 1631 3429 
Q 1922 3584 2338 3584 
Q 2397 3584 2469 3576 
Q 2541 3569 2628 3553 
L 2631 2963 
z
" transform="scale(0.015625)"/>
       <path id="DejaVuSans-75" d="M 544 1381 
L 544 3500 
L 1119 3500 
L 1119 1403 
Q 1119 906 1312 657 
Q 1506 409 1894 409 
Q 2359 409 2629 706 
Q 2900 1003 2900 1516 
L 2900 3500 
L 3475 3500 
L 3475 0 
L 2900 0 
L 2900 538 
Q 2691 219 2414 64 
Q 2138 -91 1772 -91 
Q 1169 -91 856 284 
Q 544 659 544 1381 
z
M 1991 3584 
L 1991 3584 
z
" transform="scale(0.015625)"/>
       <path id="DejaVuSans-79" d="M 2059 -325 
Q 1816 -950 1584 -1140 
Q 1353 -1331 966 -1331 
L 506 -1331 
L 506 -850 
L 844 -850 
Q 1081 -850 1212 -737 
Q 1344 -625 1503 -206 
L 1606 56 
L 191 3500 
L 800 3500 
L 1894 763 
L 2988 3500 
L 3597 3500 
L 2059 -325 
z
" transform="scale(0.015625)"/>
      </defs>
      <use xlink:href="#DejaVuSans-61"/>
      <use xlink:href="#DejaVuSans-63" x="61.279297"/>
      <use xlink:href="#DejaVuSans-63" x="116.259766"/>
      <use xlink:href="#DejaVuSans-72" x="171.240234"/>
      <use xlink:href="#DejaVuSans-75" x="212.353516"/>
      <use xlink:href="#DejaVuSans-61" x="275.732422"/>
      <use xlink:href="#DejaVuSans-63" x="337.011719"/>
      <use xlink:href="#DejaVuSans-79" x="391.992188"/>
     </g>
    </g>
   </g>
   <g id="line2d_27">
    <path d="M 115.363636 59.697064 
L 116.380215 62.796236 
L 117.396794 61.674514 
L 118.413372 64.253293 
L 119.429951 62.692157 
L 120.446529 63.455357 
L 121.463108 58.159028 
L 122.479687 61.454807 
L 123.496265 62.634321 
L 124.512844 59.061043 
L 125.529422 63.073779 
L 126.546001 62.079235 
L 127.56258 63.675108 
L 128.579158 58.378779 
L 129.595737 61.396971 
L 130.612316 65.571622 
L 131.628894 60.853479 
L 132.645473 65.074329 
L 133.662051 63.073779 
L 134.67863 58.436571 
L 135.695209 63.096879 
L 136.711787 62.854072 
L 137.728366 64.357415 
L 138.744944 64.473 
L 139.761523 62.056136 
L 140.778102 60.055543 
L 141.79468 64.854622 
L 142.811259 64.773686 
L 143.827837 61.073186 
L 144.844416 62.079235 
L 145.860995 59.419521 
L 146.877573 60.957557 
L 147.894152 66.473593 
L 148.910731 63.374422 
L 149.927309 59.535193 
L 150.943888 64.079872 
L 151.960466 66.774323 
L 152.977045 59.639228 
L 153.993624 65.132165 
L 155.010202 60.599035 
L 156.026781 63.131615 
L 157.043359 63.21255 
L 158.059938 65.455994 
L 160.093095 59.0148 
L 161.109674 59.396422 
L 162.126253 60.275293 
L 163.142831 60.656871 
L 164.15941 63.617272 
L 165.175988 62.715301 
L 166.192567 61.639821 
L 167.209146 65.571622 
L 168.225724 62.958107 
L 169.242303 63.154715 
L 170.258881 61.75545 
L 171.27546 63.015943 
L 172.292039 59.315443 
L 173.308617 60.876578 
L 174.325196 60.437164 
L 175.341774 62.414614 
L 176.358353 59.99775 
L 177.374932 61.396971 
L 178.39151 64.056686 
L 179.408089 64.334229 
L 180.424668 58.737257 
L 181.441246 61.674514 
L 182.457825 63.97575 
L 183.474403 64.496143 
L 184.490982 63.756043 
L 185.507561 60.217457 
L 186.524139 60.5181 
L 187.540718 63.154715 
L 188.557296 61.154121 
L 189.573875 62.356778 
L 190.590454 61.593579 
L 191.607032 61.859528 
L 192.623611 60.656871 
L 193.640189 61.177264 
L 194.656768 64.195457 
L 195.673347 64.137708 
L 196.689925 59.558293 
L 197.706504 64.912458 
L 198.723083 62.576529 
L 199.739661 58.51755 
L 200.75624 60.737807 
L 201.772818 61.454807 
L 202.789397 60.356229 
L 203.805976 64.415208 
L 204.822554 59.0148 
L 205.839133 62.935008 
L 206.855711 61.454807 
L 207.87229 61.01535 
L 208.888869 61.836429 
L 209.905447 62.194907 
L 210.922026 65.930101 
L 211.938604 61.316036 
L 212.955183 60.876578 
L 213.971762 63.397565 
L 214.98834 61.674514 
L 216.004919 60.957557 
L 217.021498 60.575936 
L 218.038076 58.760357 
L 219.054655 64.114522 
L 220.071233 63.894815 
L 221.087812 58.51755 
L 222.104391 60.5181 
L 223.120969 63.756043 
L 224.137548 63.756043 
L 225.154126 59.639228 
L 226.170705 65.432851 
L 227.187284 64.091422 
L 229.220441 58.956964 
L 230.237019 59.835836 
L 231.253598 63.952651 
L 232.270177 62.056136 
L 233.286755 63.374422 
L 234.303334 62.137071 
L 235.319913 60.541243 
L 236.336491 61.917364 
L 237.35307 62.715301 
L 238.369648 60.552836 
L 239.386227 62.830929 
L 240.402806 62.958107 
L 242.435963 61.454807 
L 243.452541 62.553386 
L 244.46912 62.773093 
L 245.485699 58.598486 
L 246.502277 63.894815 
L 247.518856 61.535743 
L 248.535435 60.217457 
L 249.552013 62.634321 
L 250.568592 59.558293 
L 251.58517 64.357415 
L 252.601749 60.217457 
L 253.618328 64.056686 
L 254.634906 63.97575 
L 255.651485 62.49555 
L 256.668063 59.858979 
L 257.684642 59.477357 
L 258.701221 63.015943 
L 259.717799 62.137071 
L 260.734378 59.893672 
L 261.750956 60.379328 
L 262.767535 60.414065 
L 263.784114 64.334229 
L 264.800692 60.876578 
L 265.817271 60.599035 
L 266.83385 62.992844 
L 267.850428 61.316036 
L 268.867007 64.218644 
L 269.883585 61.813286 
L 270.900164 65.01658 
L 271.916743 63.293486 
L 272.933321 62.137071 
L 273.9499 66.172907 
L 274.966478 64.056686 
L 275.983057 63.894815 
L 276.999636 62.275843 
L 278.016214 62.830929 
L 279.032793 63.536336 
L 280.049371 63.096879 
L 281.06595 59.673965 
L 282.082529 60.737807 
L 283.099107 64.773686 
L 285.132265 59.0379 
L 286.148843 62.715301 
L 287.165422 60.055543 
L 288.182 60.575936 
L 289.198579 61.894221 
L 290.215158 63.536336 
L 291.231736 63.559479 
L 292.248315 58.54065 
L 293.264893 63.952651 
L 294.281472 61.2351 
L 295.298051 61.894221 
L 297.331208 59.396422 
L 298.347786 63.073779 
L 299.364365 63.21255 
L 300.380944 60.136522 
L 301.397522 64.692751 
L 302.414101 60.980657 
L 303.43068 62.137071 
L 304.447258 60.275293 
L 305.463837 66.99403 
L 306.480415 63.594129 
L 307.496994 64.496143 
L 308.513573 61.454807 
L 309.530151 63.177814 
L 310.54673 64.611772 
L 311.563308 61.697657 
L 312.579887 59.535193 
L 313.596466 63.617272 
L 314.613044 59.118879 
L 315.629623 65.455994 
L 316.646201 61.200364 
L 317.66278 59.7549 
L 318.679359 63.23565 
L 319.695937 59.118879 
L 320.712516 60.5181 
L 321.729095 60.159621 
L 322.745673 61.154121 
L 323.762252 61.477907 
L 324.77883 62.715301 
L 325.795409 64.993393 
L 326.811988 61.836429 
L 327.828566 62.715301 
L 328.845145 59.639228 
L 329.861723 64.577122 
L 330.878302 61.316036 
L 331.894881 61.454807 
L 332.911459 60.495 
L 333.928038 58.737257 
L 334.944617 62.194907 
L 335.961195 61.616678 
L 336.977774 63.894815 
L 337.994352 61.535743 
L 339.010931 64.912458 
L 340.02751 65.791329 
L 341.044088 62.877172 
L 342.060667 61.396971 
L 343.077245 60.414065 
L 344.093824 61.316036 
L 345.110403 61.75545 
L 346.126981 59.939914 
L 347.14356 63.015943 
L 348.160138 61.75545 
L 349.176717 61.75545 
L 350.193296 61.454807 
L 351.209874 59.616129 
L 352.226453 61.778593 
L 353.243032 64.299579 
L 354.25961 62.796236 
L 355.276189 65.2131 
L 356.292767 60.934414 
L 357.309346 63.096879 
L 358.325925 59.419521 
L 359.342503 63.293486 
L 360.359082 60.055543 
L 362.392239 62.137071 
L 363.408818 64.056686 
L 364.425396 60.055543 
L 365.441975 69.272123 
L 366.458553 62.356778 
L 367.475132 60.055543 
L 368.491711 60.078686 
L 369.508289 63.432257 
L 370.524868 62.113972 
L 371.541447 59.639228 
L 372.558025 64.634915 
L 373.574604 63.432257 
L 374.591182 63.293486 
L 375.607761 58.899128 
L 376.62434 64.056686 
L 377.640918 67.676294 
L 378.657497 61.396971 
L 379.674075 63.675108 
L 380.690654 63.97575 
L 381.707233 59.99775 
L 382.723811 62.958107 
L 383.74039 63.015943 
L 384.756968 60.957557 
L 385.773547 61.2351 
L 386.790126 62.576529 
L 387.806704 61.894221 
L 388.823283 58.378779 
L 389.839862 64.218644 
L 390.85644 64.553979 
L 391.873019 62.056136 
L 392.889597 64.415208 
L 393.906176 64.473 
L 394.922755 62.056136 
L 395.939333 62.935008 
L 396.955912 61.697657 
L 397.97249 64.172358 
L 398.989069 59.338586 
L 400.005648 65.617908 
L 401.022226 59.778 
L 402.038805 59.697064 
L 403.055383 62.356778 
L 404.071962 59.25765 
L 405.088541 64.311129 
L 406.105119 62.056136 
L 407.121698 64.392065 
L 408.138277 62.935008 
L 409.154855 61.9752 
L 410.171434 62.252743 
L 411.188012 62.773093 
L 412.204591 55.938771 
L 413.22117 59.99775 
L 414.237748 62.414614 
L 415.254327 64.033586 
L 416.270905 61.535743 
L 417.287484 60.344679 
L 419.320641 62.137071 
L 420.33722 62.252743 
L 421.353799 62.634321 
L 422.370377 62.414614 
L 423.386956 62.49555 
L 424.403534 60.298393 
L 425.420113 62.877172 
L 426.436692 63.23565 
L 427.45327 62.194907 
L 428.469849 59.697064 
L 429.486427 61.396971 
L 430.503006 59.338586 
L 431.519585 59.99775 
L 432.536163 57.997157 
L 433.552742 62.7384 
L 434.56932 59.974607 
L 435.585899 63.651964 
L 436.602478 59.477357 
L 437.619056 64.692751 
L 438.635635 61.396971 
L 439.652214 61.535743 
L 440.668792 60.159621 
L 441.685371 63.455357 
L 442.701949 63.154715 
L 443.718528 62.414614 
L 444.735107 58.679421 
L 445.751685 62.49555 
L 446.768264 64.773686 
L 447.784842 60.957557 
L 448.801421 63.871671 
L 449.818 57.858386 
L 450.834578 61.940551 
L 451.851157 60.5181 
L 452.867735 62.877172 
L 453.884314 62.935008 
L 454.900893 62.194907 
L 455.917471 62.911864 
L 456.93405 61.200364 
L 457.950629 63.7329 
L 458.967207 61.373872 
L 459.983786 60.575936 
L 461.000364 61.477907 
L 462.016943 60.136522 
L 463.033522 60.078686 
L 464.0501 62.992844 
L 465.066679 61.477907 
L 466.083257 60.217457 
L 467.099836 65.2131 
L 468.116415 62.576529 
L 469.132993 62.275843 
L 470.149572 60.714707 
L 471.16615 62.576529 
L 472.182729 60.714707 
L 473.199308 63.675108 
L 474.215886 64.392065 
L 475.232465 58.980107 
L 476.249044 61.2351 
L 477.265622 64.634915 
L 478.282201 62.992844 
L 479.298779 58.263107 
L 480.315358 61.211957 
L 481.331937 61.593579 
L 482.348515 60.575936 
L 483.365094 63.918001 
L 484.381672 56.817643 
L 485.398251 62.113972 
L 486.41483 63.952651 
L 487.431408 59.338586 
L 488.447987 61.177264 
L 489.464565 62.414614 
L 490.481144 59.25765 
L 491.497723 59.720207 
L 492.514301 63.374422 
L 494.547459 59.99775 
L 495.564037 62.194907 
L 497.597194 59.338586 
L 498.613773 59.25765 
L 499.630352 64.253293 
L 500.64693 60.737807 
L 501.663509 57.997157 
L 502.680087 65.236287 
L 503.696666 66.253886 
L 504.713245 57.418972 
L 505.729823 62.414614 
L 506.746402 65.409708 
L 507.762981 63.536336 
L 508.779559 61.396971 
L 509.796138 63.316586 
L 510.812716 61.373872 
L 511.829295 58.956964 
L 512.845874 61.697657 
L 513.862452 66.115158 
L 514.879031 63.513193 
L 515.895609 61.9752 
L 516.912188 61.616678 
L 517.928767 59.858979 
L 518.945345 62.518693 
L 519.961924 58.078093 
L 520.978502 63.455357 
L 521.995081 62.49555 
L 523.01166 60.217457 
L 524.028238 63.536336 
L 525.044817 58.51755 
L 526.061396 61.558886 
L 527.077974 60.298393 
L 528.094553 62.437758 
L 529.111131 64.033586 
L 530.12771 58.841336 
L 531.144289 62.137071 
L 532.160867 64.935557 
L 533.177446 63.397565 
L 534.194024 63.050636 
L 535.210603 61.535743 
L 536.227182 64.993393 
L 537.24376 55.8 
L 538.260339 61.2351 
L 539.276917 61.917364 
L 540.293496 63.513193 
L 541.310075 59.801143 
L 542.326653 62.49555 
L 543.343232 58.378779 
L 544.359811 64.773686 
L 545.376389 60.957557 
L 546.392968 59.639228 
L 547.409546 64.877808 
L 548.426125 61.894221 
L 549.442704 61.177264 
L 550.459282 59.396422 
L 551.475861 64.692751 
L 552.492439 63.455357 
L 553.509018 66.947744 
L 554.525597 63.096879 
L 555.542175 62.49555 
L 556.558754 60.575936 
L 557.575332 66.230743 
L 558.591911 60.656871 
L 559.60849 62.877172 
L 560.625068 59.939914 
L 561.641647 62.576529 
L 562.658226 62.275843 
L 563.674804 61.396971 
L 564.691383 61.119428 
L 565.707961 62.49555 
L 566.72454 63.23565 
L 567.741119 58.355636 
L 568.757697 60.078686 
L 569.774276 62.333679 
L 570.790854 65.872265 
L 571.807433 60.495 
L 572.824012 62.356778 
L 573.84059 60.934414 
L 574.857169 60.934414 
L 575.873747 60.136522 
L 576.890326 60.5181 
L 577.906905 64.033586 
L 578.923483 60.575936 
L 579.940062 64.773686 
L 580.956641 64.877808 
L 581.973219 63.154715 
L 582.989798 60.194314 
L 584.006376 60.495 
L 585.022955 61.396971 
L 586.039534 60.298393 
L 587.056112 59.697064 
L 588.072691 61.01535 
L 589.089269 64.056686 
L 590.105848 60.795643 
L 591.122427 65.652558 
L 593.155584 59.535193 
L 594.172163 62.437758 
L 595.188741 60.275293 
L 596.20532 59.697064 
L 598.238477 63.21255 
L 599.255056 60.298393 
L 600.271634 61.2582 
L 601.288213 59.28075 
L 602.304791 61.396971 
L 603.32137 60.714707 
L 604.337949 62.437758 
L 605.354527 61.535743 
L 606.371106 58.459714 
L 607.387684 61.616678 
L 608.404263 60.356229 
L 609.420842 61.75545 
L 610.43742 59.858979 
L 611.453999 63.177814 
L 612.470578 61.477907 
L 613.487156 61.674514 
L 614.503735 65.432851 
L 615.520313 61.281387 
L 616.536892 63.536336 
L 617.553471 62.796236 
L 618.570049 62.218007 
L 619.586628 62.056136 
L 620.603206 59.338586 
L 621.619785 60.656871 
L 622.636364 64.854622 
L 622.636364 64.854622 
" clip-path="url(#pa516be4ba7)" style="fill: none; stroke: #1f77b4; stroke-width: 1.5; stroke-linecap: square"/>
   </g>
   <g id="line2d_28">
    <path d="M 115.363636 307.8 
L 122.479687 307.8 
L 123.496265 305.895815 
L 124.512844 307.8 
L 128.579158 307.8 
L 129.595737 305.895815 
L 130.612316 307.8 
L 131.628894 305.895815 
L 132.645473 305.895815 
L 133.662051 307.8 
L 134.67863 305.895815 
L 135.695209 305.895815 
L 136.711787 307.8 
L 137.728366 305.895815 
L 221.087812 305.895815 
L 222.104391 307.8 
L 223.120969 307.8 
L 224.137548 305.895815 
L 250.568592 305.895815 
L 251.58517 307.8 
L 252.601749 307.8 
L 253.618328 305.895815 
L 263.784114 305.895815 
L 264.800692 307.8 
L 265.817271 305.895815 
L 266.83385 305.895815 
L 267.850428 307.8 
L 268.867007 307.8 
L 269.883585 305.895815 
L 301.397522 305.895815 
L 302.414101 307.8 
L 304.447258 307.8 
L 305.463837 305.895815 
L 307.496994 305.895815 
L 308.513573 307.8 
L 313.596466 307.8 
L 314.613044 305.895815 
L 321.729095 305.895815 
L 322.745673 307.8 
L 323.762252 307.8 
L 324.77883 305.895815 
L 325.795409 307.8 
L 326.811988 305.895815 
L 330.878302 305.895815 
L 331.894881 307.8 
L 335.961195 307.8 
L 336.977774 305.895815 
L 339.010931 305.895815 
L 340.02751 307.8 
L 344.093824 307.8 
L 345.110403 305.895815 
L 346.126981 307.8 
L 347.14356 307.8 
L 348.160138 305.895815 
L 364.425396 305.895815 
L 365.441975 307.8 
L 366.458553 305.895815 
L 622.636364 305.895815 
L 622.636364 305.895815 
" clip-path="url(#pa516be4ba7)" style="fill: none; stroke: #ff7f0e; stroke-width: 1.5; stroke-linecap: square"/>
   </g>
   <g id="patch_3">
    <path d="M 90 320.4 
L 90 43.2 
" style="fill: none; stroke: #000000; stroke-width: 0.8; stroke-linejoin: miter; stroke-linecap: square"/>
   </g>
   <g id="patch_4">
    <path d="M 648 320.4 
L 648 43.2 
" style="fill: none; stroke: #000000; stroke-width: 0.8; stroke-linejoin: miter; stroke-linecap: square"/>
   </g>
   <g id="patch_5">
    <path d="M 90 320.4 
L 648 320.4 
" style="fill: none; stroke: #000000; stroke-width: 0.8; stroke-linejoin: miter; stroke-linecap: square"/>
   </g>
   <g id="patch_6">
    <path d="M 90 43.2 
L 648 43.2 
" style="fill: none; stroke: #000000; stroke-width: 0.8; stroke-linejoin: miter; stroke-linecap: square"/>
   </g>
   <g id="text_16">
    <!-- model train and validation accracy over time -->
    <g transform="translate(233.87625 37.2) scale(0.12 -0.12)">
     <defs>
      <path id="DejaVuSans-6d" d="M 3328 2828 
Q 3544 3216 3844 3400 
Q 4144 3584 4550 3584 
Q 5097 3584 5394 3201 
Q 5691 2819 5691 2113 
L 5691 0 
L 5113 0 
L 5113 2094 
Q 5113 2597 4934 2840 
Q 4756 3084 4391 3084 
Q 3944 3084 3684 2787 
Q 3425 2491 3425 1978 
L 3425 0 
L 2847 0 
L 2847 2094 
Q 2847 2600 2669 2842 
Q 2491 3084 2119 3084 
Q 1678 3084 1418 2786 
Q 1159 2488 1159 1978 
L 1159 0 
L 581 0 
L 581 3500 
L 1159 3500 
L 1159 2956 
Q 1356 3278 1631 3431 
Q 1906 3584 2284 3584 
Q 2666 3584 2933 3390 
Q 3200 3197 3328 2828 
z
" transform="scale(0.015625)"/>
      <path id="DejaVuSans-64" d="M 2906 2969 
L 2906 4863 
L 3481 4863 
L 3481 0 
L 2906 0 
L 2906 525 
Q 2725 213 2448 61 
Q 2172 -91 1784 -91 
Q 1150 -91 751 415 
Q 353 922 353 1747 
Q 353 2572 751 3078 
Q 1150 3584 1784 3584 
Q 2172 3584 2448 3432 
Q 2725 3281 2906 2969 
z
M 947 1747 
Q 947 1113 1208 752 
Q 1469 391 1925 391 
Q 2381 391 2643 752 
Q 2906 1113 2906 1747 
Q 2906 2381 2643 2742 
Q 2381 3103 1925 3103 
Q 1469 3103 1208 2742 
Q 947 2381 947 1747 
z
" transform="scale(0.015625)"/>
      <path id="DejaVuSans-6c" d="M 603 4863 
L 1178 4863 
L 1178 0 
L 603 0 
L 603 4863 
z
" transform="scale(0.015625)"/>
      <path id="DejaVuSans-20" transform="scale(0.015625)"/>
      <path id="DejaVuSans-74" d="M 1172 4494 
L 1172 3500 
L 2356 3500 
L 2356 3053 
L 1172 3053 
L 1172 1153 
Q 1172 725 1289 603 
Q 1406 481 1766 481 
L 2356 481 
L 2356 0 
L 1766 0 
Q 1100 0 847 248 
Q 594 497 594 1153 
L 594 3053 
L 172 3053 
L 172 3500 
L 594 3500 
L 594 4494 
L 1172 4494 
z
" transform="scale(0.015625)"/>
      <path id="DejaVuSans-69" d="M 603 3500 
L 1178 3500 
L 1178 0 
L 603 0 
L 603 3500 
z
M 603 4863 
L 1178 4863 
L 1178 4134 
L 603 4134 
L 603 4863 
z
" transform="scale(0.015625)"/>
      <path id="DejaVuSans-6e" d="M 3513 2113 
L 3513 0 
L 2938 0 
L 2938 2094 
Q 2938 2591 2744 2837 
Q 2550 3084 2163 3084 
Q 1697 3084 1428 2787 
Q 1159 2491 1159 1978 
L 1159 0 
L 581 0 
L 581 3500 
L 1159 3500 
L 1159 2956 
Q 1366 3272 1645 3428 
Q 1925 3584 2291 3584 
Q 2894 3584 3203 3211 
Q 3513 2838 3513 2113 
z
" transform="scale(0.015625)"/>
      <path id="DejaVuSans-76" d="M 191 3500 
L 800 3500 
L 1894 563 
L 2988 3500 
L 3597 3500 
L 2284 0 
L 1503 0 
L 191 3500 
z
" transform="scale(0.015625)"/>
     </defs>
     <use xlink:href="#DejaVuSans-6d"/>
     <use xlink:href="#DejaVuSans-6f" x="97.412109"/>
     <use xlink:href="#DejaVuSans-64" x="158.59375"/>
     <use xlink:href="#DejaVuSans-65" x="222.070312"/>
     <use xlink:href="#DejaVuSans-6c" x="283.59375"/>
     <use xlink:href="#DejaVuSans-20" x="311.376953"/>
     <use xlink:href="#DejaVuSans-74" x="343.164062"/>
     <use xlink:href="#DejaVuSans-72" x="382.373047"/>
     <use xlink:href="#DejaVuSans-61" x="423.486328"/>
     <use xlink:href="#DejaVuSans-69" x="484.765625"/>
     <use xlink:href="#DejaVuSans-6e" x="512.548828"/>
     <use xlink:href="#DejaVuSans-20" x="575.927734"/>
     <use xlink:href="#DejaVuSans-61" x="607.714844"/>
     <use xlink:href="#DejaVuSans-6e" x="668.994141"/>
     <use xlink:href="#DejaVuSans-64" x="732.373047"/>
     <use xlink:href="#DejaVuSans-20" x="795.849609"/>
     <use xlink:href="#DejaVuSans-76" x="827.636719"/>
     <use xlink:href="#DejaVuSans-61" x="886.816406"/>
     <use xlink:href="#DejaVuSans-6c" x="948.095703"/>
     <use xlink:href="#DejaVuSans-69" x="975.878906"/>
     <use xlink:href="#DejaVuSans-64" x="1003.662109"/>
     <use xlink:href="#DejaVuSans-61" x="1067.138672"/>
     <use xlink:href="#DejaVuSans-74" x="1128.417969"/>
     <use xlink:href="#DejaVuSans-69" x="1167.626953"/>
     <use xlink:href="#DejaVuSans-6f" x="1195.410156"/>
     <use xlink:href="#DejaVuSans-6e" x="1256.591797"/>
     <use xlink:href="#DejaVuSans-20" x="1319.970703"/>
     <use xlink:href="#DejaVuSans-61" x="1351.757812"/>
     <use xlink:href="#DejaVuSans-63" x="1413.037109"/>
     <use xlink:href="#DejaVuSans-63" x="1468.017578"/>
     <use xlink:href="#DejaVuSans-72" x="1522.998047"/>
     <use xlink:href="#DejaVuSans-61" x="1564.111328"/>
     <use xlink:href="#DejaVuSans-63" x="1625.390625"/>
     <use xlink:href="#DejaVuSans-79" x="1680.371094"/>
     <use xlink:href="#DejaVuSans-20" x="1739.550781"/>
     <use xlink:href="#DejaVuSans-6f" x="1771.337891"/>
     <use xlink:href="#DejaVuSans-76" x="1832.519531"/>
     <use xlink:href="#DejaVuSans-65" x="1891.699219"/>
     <use xlink:href="#DejaVuSans-72" x="1953.222656"/>
     <use xlink:href="#DejaVuSans-20" x="1994.335938"/>
     <use xlink:href="#DejaVuSans-74" x="2026.123047"/>
     <use xlink:href="#DejaVuSans-69" x="2065.332031"/>
     <use xlink:href="#DejaVuSans-6d" x="2093.115234"/>
     <use xlink:href="#DejaVuSans-65" x="2190.527344"/>
    </g>
   </g>
   <g id="legend_1">
    <g id="patch_7">
     <path d="M 559.765625 197.978125 
L 641 197.978125 
Q 643 197.978125 643 195.978125 
L 643 167.621875 
Q 643 165.621875 641 165.621875 
L 559.765625 165.621875 
Q 557.765625 165.621875 557.765625 167.621875 
L 557.765625 195.978125 
Q 557.765625 197.978125 559.765625 197.978125 
z
" style="fill: #ffffff; opacity: 0.8; stroke: #cccccc; stroke-linejoin: miter"/>
    </g>
    <g id="line2d_29">
     <path d="M 561.765625 173.720312 
L 571.765625 173.720312 
L 581.765625 173.720312 
" style="fill: none; stroke: #1f77b4; stroke-width: 1.5; stroke-linecap: square"/>
    </g>
    <g id="text_17">
     <!-- train -->
     <g transform="translate(589.765625 177.220312) scale(0.1 -0.1)">
      <use xlink:href="#DejaVuSans-74"/>
      <use xlink:href="#DejaVuSans-72" x="39.208984"/>
      <use xlink:href="#DejaVuSans-61" x="80.322266"/>
      <use xlink:href="#DejaVuSans-69" x="141.601562"/>
      <use xlink:href="#DejaVuSans-6e" x="169.384766"/>
     </g>
    </g>
    <g id="line2d_30">
     <path d="M 561.765625 188.398437 
L 571.765625 188.398437 
L 581.765625 188.398437 
" style="fill: none; stroke: #ff7f0e; stroke-width: 1.5; stroke-linecap: square"/>
    </g>
    <g id="text_18">
     <!-- validation -->
     <g transform="translate(589.765625 191.898437) scale(0.1 -0.1)">
      <use xlink:href="#DejaVuSans-76"/>
      <use xlink:href="#DejaVuSans-61" x="59.179688"/>
      <use xlink:href="#DejaVuSans-6c" x="120.458984"/>
      <use xlink:href="#DejaVuSans-69" x="148.242188"/>
      <use xlink:href="#DejaVuSans-64" x="176.025391"/>
      <use xlink:href="#DejaVuSans-61" x="239.501953"/>
      <use xlink:href="#DejaVuSans-74" x="300.78125"/>
      <use xlink:href="#DejaVuSans-69" x="339.990234"/>
      <use xlink:href="#DejaVuSans-6f" x="367.773438"/>
      <use xlink:href="#DejaVuSans-6e" x="428.955078"/>
     </g>
    </g>
   </g>
  </g>
 </g>
 <defs>
  <clipPath id="pa516be4ba7">
   <rect x="90" y="43.2" width="558" height="277.2"/>
  </clipPath>
 </defs>
</svg>
