<?xml version="1.0" encoding="utf-8" standalone="no"?>
<!DOCTYPE svg PUBLIC "-//W3C//DTD SVG 1.1//EN"
  "http://www.w3.org/Graphics/SVG/1.1/DTD/svg11.dtd">
<svg xmlns:xlink="http://www.w3.org/1999/xlink" width="720pt" height="360pt" viewBox="0 0 720 360" xmlns="http://www.w3.org/2000/svg" version="1.1">
 <metadata>
  <rdf:RDF xmlns:dc="http://purl.org/dc/elements/1.1/" xmlns:cc="http://creativecommons.org/ns#" xmlns:rdf="http://www.w3.org/1999/02/22-rdf-syntax-ns#">
   <cc:Work>
    <dc:type rdf:resource="http://purl.org/dc/dcmitype/StillImage"/>
    <dc:date>2023-05-24T12:13:59.803699</dc:date>
    <dc:format>image/svg+xml</dc:format>
    <dc:creator>
     <cc:Agent>
      <dc:title>Matplotlib v3.7.1, https://matplotlib.org/</dc:title>
     </cc:Agent>
    </dc:creator>
   </cc:Work>
  </rdf:RDF>
 </metadata>
 <defs>
  <style type="text/css">*{stroke-linejoin: round; stroke-linecap: butt}</style>
 </defs>
 <g id="figure_1">
  <g id="patch_1">
   <path d="M 0 360 
L 720 360 
L 720 0 
L 0 0 
z
" style="fill: #ffffff"/>
  </g>
  <g id="axes_1">
   <g id="patch_2">
    <path d="M 90 320.4 
L 648 320.4 
L 648 43.2 
L 90 43.2 
z
" style="fill: #ffffff"/>
   </g>
   <g id="matplotlib.axis_1">
    <g id="xtick_1">
     <g id="line2d_1">
      <path d="M 115.363636 320.4 
L 115.363636 43.2 
" clip-path="url(#pc056920f17)" style="fill: none; stroke: #b0b0b0; stroke-width: 0.8; stroke-linecap: square"/>
     </g>
     <g id="line2d_2">
      <defs>
       <path id="mb58f6b8937" d="M 0 0 
L 0 3.5 
" style="stroke: #000000; stroke-width: 0.8"/>
      </defs>
      <g>
       <use xlink:href="#mb58f6b8937" x="115.363636" y="320.4" style="stroke: #000000; stroke-width: 0.8"/>
      </g>
     </g>
     <g id="text_1">
      <!-- 0 -->
      <g transform="translate(112.182386 334.998438) scale(0.1 -0.1)">
       <defs>
        <path id="DejaVuSans-30" d="M 2034 4250 
Q 1547 4250 1301 3770 
Q 1056 3291 1056 2328 
Q 1056 1369 1301 889 
Q 1547 409 2034 409 
Q 2525 409 2770 889 
Q 3016 1369 3016 2328 
Q 3016 3291 2770 3770 
Q 2525 4250 2034 4250 
z
M 2034 4750 
Q 2819 4750 3233 4129 
Q 3647 3509 3647 2328 
Q 3647 1150 3233 529 
Q 2819 -91 2034 -91 
Q 1250 -91 836 529 
Q 422 1150 422 2328 
Q 422 3509 836 4129 
Q 1250 4750 2034 4750 
z
" transform="scale(0.015625)"/>
       </defs>
       <use xlink:href="#DejaVuSans-30"/>
      </g>
     </g>
    </g>
    <g id="xtick_2">
     <g id="line2d_3">
      <path d="M 217.021498 320.4 
L 217.021498 43.2 
" clip-path="url(#pc056920f17)" style="fill: none; stroke: #b0b0b0; stroke-width: 0.8; stroke-linecap: square"/>
     </g>
     <g id="line2d_4">
      <g>
       <use xlink:href="#mb58f6b8937" x="217.021498" y="320.4" style="stroke: #000000; stroke-width: 0.8"/>
      </g>
     </g>
     <g id="text_2">
      <!-- 100 -->
      <g transform="translate(207.477748 334.998438) scale(0.1 -0.1)">
       <defs>
        <path id="DejaVuSans-31" d="M 794 531 
L 1825 531 
L 1825 4091 
L 703 3866 
L 703 4441 
L 1819 4666 
L 2450 4666 
L 2450 531 
L 3481 531 
L 3481 0 
L 794 0 
L 794 531 
z
" transform="scale(0.015625)"/>
       </defs>
       <use xlink:href="#DejaVuSans-31"/>
       <use xlink:href="#DejaVuSans-30" x="63.623047"/>
       <use xlink:href="#DejaVuSans-30" x="127.246094"/>
      </g>
     </g>
    </g>
    <g id="xtick_3">
     <g id="line2d_5">
      <path d="M 318.679359 320.4 
L 318.679359 43.2 
" clip-path="url(#pc056920f17)" style="fill: none; stroke: #b0b0b0; stroke-width: 0.8; stroke-linecap: square"/>
     </g>
     <g id="line2d_6">
      <g>
       <use xlink:href="#mb58f6b8937" x="318.679359" y="320.4" style="stroke: #000000; stroke-width: 0.8"/>
      </g>
     </g>
     <g id="text_3">
      <!-- 200 -->
      <g transform="translate(309.135609 334.998438) scale(0.1 -0.1)">
       <defs>
        <path id="DejaVuSans-32" d="M 1228 531 
L 3431 531 
L 3431 0 
L 469 0 
L 469 531 
Q 828 903 1448 1529 
Q 2069 2156 2228 2338 
Q 2531 2678 2651 2914 
Q 2772 3150 2772 3378 
Q 2772 3750 2511 3984 
Q 2250 4219 1831 4219 
Q 1534 4219 1204 4116 
Q 875 4013 500 3803 
L 500 4441 
Q 881 4594 1212 4672 
Q 1544 4750 1819 4750 
Q 2544 4750 2975 4387 
Q 3406 4025 3406 3419 
Q 3406 3131 3298 2873 
Q 3191 2616 2906 2266 
Q 2828 2175 2409 1742 
Q 1991 1309 1228 531 
z
" transform="scale(0.015625)"/>
       </defs>
       <use xlink:href="#DejaVuSans-32"/>
       <use xlink:href="#DejaVuSans-30" x="63.623047"/>
       <use xlink:href="#DejaVuSans-30" x="127.246094"/>
      </g>
     </g>
    </g>
    <g id="xtick_4">
     <g id="line2d_7">
      <path d="M 420.33722 320.4 
L 420.33722 43.2 
" clip-path="url(#pc056920f17)" style="fill: none; stroke: #b0b0b0; stroke-width: 0.8; stroke-linecap: square"/>
     </g>
     <g id="line2d_8">
      <g>
       <use xlink:href="#mb58f6b8937" x="420.33722" y="320.4" style="stroke: #000000; stroke-width: 0.8"/>
      </g>
     </g>
     <g id="text_4">
      <!-- 300 -->
      <g transform="translate(410.79347 334.998438) scale(0.1 -0.1)">
       <defs>
        <path id="DejaVuSans-33" d="M 2597 2516 
Q 3050 2419 3304 2112 
Q 3559 1806 3559 1356 
Q 3559 666 3084 287 
Q 2609 -91 1734 -91 
Q 1441 -91 1130 -33 
Q 819 25 488 141 
L 488 750 
Q 750 597 1062 519 
Q 1375 441 1716 441 
Q 2309 441 2620 675 
Q 2931 909 2931 1356 
Q 2931 1769 2642 2001 
Q 2353 2234 1838 2234 
L 1294 2234 
L 1294 2753 
L 1863 2753 
Q 2328 2753 2575 2939 
Q 2822 3125 2822 3475 
Q 2822 3834 2567 4026 
Q 2313 4219 1838 4219 
Q 1578 4219 1281 4162 
Q 984 4106 628 3988 
L 628 4550 
Q 988 4650 1302 4700 
Q 1616 4750 1894 4750 
Q 2613 4750 3031 4423 
Q 3450 4097 3450 3541 
Q 3450 3153 3228 2886 
Q 3006 2619 2597 2516 
z
" transform="scale(0.015625)"/>
       </defs>
       <use xlink:href="#DejaVuSans-33"/>
       <use xlink:href="#DejaVuSans-30" x="63.623047"/>
       <use xlink:href="#DejaVuSans-30" x="127.246094"/>
      </g>
     </g>
    </g>
    <g id="xtick_5">
     <g id="line2d_9">
      <path d="M 521.995081 320.4 
L 521.995081 43.2 
" clip-path="url(#pc056920f17)" style="fill: none; stroke: #b0b0b0; stroke-width: 0.8; stroke-linecap: square"/>
     </g>
     <g id="line2d_10">
      <g>
       <use xlink:href="#mb58f6b8937" x="521.995081" y="320.4" style="stroke: #000000; stroke-width: 0.8"/>
      </g>
     </g>
     <g id="text_5">
      <!-- 400 -->
      <g transform="translate(512.451331 334.998438) scale(0.1 -0.1)">
       <defs>
        <path id="DejaVuSans-34" d="M 2419 4116 
L 825 1625 
L 2419 1625 
L 2419 4116 
z
M 2253 4666 
L 3047 4666 
L 3047 1625 
L 3713 1625 
L 3713 1100 
L 3047 1100 
L 3047 0 
L 2419 0 
L 2419 1100 
L 313 1100 
L 313 1709 
L 2253 4666 
z
" transform="scale(0.015625)"/>
       </defs>
       <use xlink:href="#DejaVuSans-34"/>
       <use xlink:href="#DejaVuSans-30" x="63.623047"/>
       <use xlink:href="#DejaVuSans-30" x="127.246094"/>
      </g>
     </g>
    </g>
    <g id="xtick_6">
     <g id="line2d_11">
      <path d="M 623.652942 320.4 
L 623.652942 43.2 
" clip-path="url(#pc056920f17)" style="fill: none; stroke: #b0b0b0; stroke-width: 0.8; stroke-linecap: square"/>
     </g>
     <g id="line2d_12">
      <g>
       <use xlink:href="#mb58f6b8937" x="623.652942" y="320.4" style="stroke: #000000; stroke-width: 0.8"/>
      </g>
     </g>
     <g id="text_6">
      <!-- 500 -->
      <g transform="translate(614.109192 334.998438) scale(0.1 -0.1)">
       <defs>
        <path id="DejaVuSans-35" d="M 691 4666 
L 3169 4666 
L 3169 4134 
L 1269 4134 
L 1269 2991 
Q 1406 3038 1543 3061 
Q 1681 3084 1819 3084 
Q 2600 3084 3056 2656 
Q 3513 2228 3513 1497 
Q 3513 744 3044 326 
Q 2575 -91 1722 -91 
Q 1428 -91 1123 -41 
Q 819 9 494 109 
L 494 744 
Q 775 591 1075 516 
Q 1375 441 1709 441 
Q 2250 441 2565 725 
Q 2881 1009 2881 1497 
Q 2881 1984 2565 2268 
Q 2250 2553 1709 2553 
Q 1456 2553 1204 2497 
Q 953 2441 691 2322 
L 691 4666 
z
" transform="scale(0.015625)"/>
       </defs>
       <use xlink:href="#DejaVuSans-35"/>
       <use xlink:href="#DejaVuSans-30" x="63.623047"/>
       <use xlink:href="#DejaVuSans-30" x="127.246094"/>
      </g>
     </g>
    </g>
    <g id="text_7">
     <!-- epoch -->
     <g transform="translate(353.771875 348.676562) scale(0.1 -0.1)">
      <defs>
       <path id="DejaVuSans-65" d="M 3597 1894 
L 3597 1613 
L 953 1613 
Q 991 1019 1311 708 
Q 1631 397 2203 397 
Q 2534 397 2845 478 
Q 3156 559 3463 722 
L 3463 178 
Q 3153 47 2828 -22 
Q 2503 -91 2169 -91 
Q 1331 -91 842 396 
Q 353 884 353 1716 
Q 353 2575 817 3079 
Q 1281 3584 2069 3584 
Q 2775 3584 3186 3129 
Q 3597 2675 3597 1894 
z
M 3022 2063 
Q 3016 2534 2758 2815 
Q 2500 3097 2075 3097 
Q 1594 3097 1305 2825 
Q 1016 2553 972 2059 
L 3022 2063 
z
" transform="scale(0.015625)"/>
       <path id="DejaVuSans-70" d="M 1159 525 
L 1159 -1331 
L 581 -1331 
L 581 3500 
L 1159 3500 
L 1159 2969 
Q 1341 3281 1617 3432 
Q 1894 3584 2278 3584 
Q 2916 3584 3314 3078 
Q 3713 2572 3713 1747 
Q 3713 922 3314 415 
Q 2916 -91 2278 -91 
Q 1894 -91 1617 61 
Q 1341 213 1159 525 
z
M 3116 1747 
Q 3116 2381 2855 2742 
Q 2594 3103 2138 3103 
Q 1681 3103 1420 2742 
Q 1159 2381 1159 1747 
Q 1159 1113 1420 752 
Q 1681 391 2138 391 
Q 2594 391 2855 752 
Q 3116 1113 3116 1747 
z
" transform="scale(0.015625)"/>
       <path id="DejaVuSans-6f" d="M 1959 3097 
Q 1497 3097 1228 2736 
Q 959 2375 959 1747 
Q 959 1119 1226 758 
Q 1494 397 1959 397 
Q 2419 397 2687 759 
Q 2956 1122 2956 1747 
Q 2956 2369 2687 2733 
Q 2419 3097 1959 3097 
z
M 1959 3584 
Q 2709 3584 3137 3096 
Q 3566 2609 3566 1747 
Q 3566 888 3137 398 
Q 2709 -91 1959 -91 
Q 1206 -91 779 398 
Q 353 888 353 1747 
Q 353 2609 779 3096 
Q 1206 3584 1959 3584 
z
" transform="scale(0.015625)"/>
       <path id="DejaVuSans-63" d="M 3122 3366 
L 3122 2828 
Q 2878 2963 2633 3030 
Q 2388 3097 2138 3097 
Q 1578 3097 1268 2742 
Q 959 2388 959 1747 
Q 959 1106 1268 751 
Q 1578 397 2138 397 
Q 2388 397 2633 464 
Q 2878 531 3122 666 
L 3122 134 
Q 2881 22 2623 -34 
Q 2366 -91 2075 -91 
Q 1284 -91 818 406 
Q 353 903 353 1747 
Q 353 2603 823 3093 
Q 1294 3584 2113 3584 
Q 2378 3584 2631 3529 
Q 2884 3475 3122 3366 
z
" transform="scale(0.015625)"/>
       <path id="DejaVuSans-68" d="M 3513 2113 
L 3513 0 
L 2938 0 
L 2938 2094 
Q 2938 2591 2744 2837 
Q 2550 3084 2163 3084 
Q 1697 3084 1428 2787 
Q 1159 2491 1159 1978 
L 1159 0 
L 581 0 
L 581 4863 
L 1159 4863 
L 1159 2956 
Q 1366 3272 1645 3428 
Q 1925 3584 2291 3584 
Q 2894 3584 3203 3211 
Q 3513 2838 3513 2113 
z
" transform="scale(0.015625)"/>
      </defs>
      <use xlink:href="#DejaVuSans-65"/>
      <use xlink:href="#DejaVuSans-70" x="61.523438"/>
      <use xlink:href="#DejaVuSans-6f" x="125"/>
      <use xlink:href="#DejaVuSans-63" x="186.181641"/>
      <use xlink:href="#DejaVuSans-68" x="241.162109"/>
     </g>
    </g>
   </g>
   <g id="matplotlib.axis_2">
    <g id="ytick_1">
     <g id="line2d_13">
      <path d="M 90 298.90284 
L 648 298.90284 
" clip-path="url(#pc056920f17)" style="fill: none; stroke: #b0b0b0; stroke-width: 0.8; stroke-linecap: square"/>
     </g>
     <g id="line2d_14">
      <defs>
       <path id="m12c687c248" d="M 0 0 
L -3.5 0 
" style="stroke: #000000; stroke-width: 0.8"/>
      </defs>
      <g>
       <use xlink:href="#m12c687c248" x="90" y="298.90284" style="stroke: #000000; stroke-width: 0.8"/>
      </g>
     </g>
     <g id="text_8">
      <!-- 0.5 -->
      <g transform="translate(67.096875 302.702059) scale(0.1 -0.1)">
       <defs>
        <path id="DejaVuSans-2e" d="M 684 794 
L 1344 794 
L 1344 0 
L 684 0 
L 684 794 
z
" transform="scale(0.015625)"/>
       </defs>
       <use xlink:href="#DejaVuSans-30"/>
       <use xlink:href="#DejaVuSans-2e" x="63.623047"/>
       <use xlink:href="#DejaVuSans-35" x="95.410156"/>
      </g>
     </g>
    </g>
    <g id="ytick_2">
     <g id="line2d_15">
      <path d="M 90 249.775489 
L 648 249.775489 
" clip-path="url(#pc056920f17)" style="fill: none; stroke: #b0b0b0; stroke-width: 0.8; stroke-linecap: square"/>
     </g>
     <g id="line2d_16">
      <g>
       <use xlink:href="#m12c687c248" x="90" y="249.775489" style="stroke: #000000; stroke-width: 0.8"/>
      </g>
     </g>
     <g id="text_9">
      <!-- 1.0 -->
      <g transform="translate(67.096875 253.574707) scale(0.1 -0.1)">
       <use xlink:href="#DejaVuSans-31"/>
       <use xlink:href="#DejaVuSans-2e" x="63.623047"/>
       <use xlink:href="#DejaVuSans-30" x="95.410156"/>
      </g>
     </g>
    </g>
    <g id="ytick_3">
     <g id="line2d_17">
      <path d="M 90 200.648138 
L 648 200.648138 
" clip-path="url(#pc056920f17)" style="fill: none; stroke: #b0b0b0; stroke-width: 0.8; stroke-linecap: square"/>
     </g>
     <g id="line2d_18">
      <g>
       <use xlink:href="#m12c687c248" x="90" y="200.648138" style="stroke: #000000; stroke-width: 0.8"/>
      </g>
     </g>
     <g id="text_10">
      <!-- 1.5 -->
      <g transform="translate(67.096875 204.447356) scale(0.1 -0.1)">
       <use xlink:href="#DejaVuSans-31"/>
       <use xlink:href="#DejaVuSans-2e" x="63.623047"/>
       <use xlink:href="#DejaVuSans-35" x="95.410156"/>
      </g>
     </g>
    </g>
    <g id="ytick_4">
     <g id="line2d_19">
      <path d="M 90 151.520786 
L 648 151.520786 
" clip-path="url(#pc056920f17)" style="fill: none; stroke: #b0b0b0; stroke-width: 0.8; stroke-linecap: square"/>
     </g>
     <g id="line2d_20">
      <g>
       <use xlink:href="#m12c687c248" x="90" y="151.520786" style="stroke: #000000; stroke-width: 0.8"/>
      </g>
     </g>
     <g id="text_11">
      <!-- 2.0 -->
      <g transform="translate(67.096875 155.320005) scale(0.1 -0.1)">
       <use xlink:href="#DejaVuSans-32"/>
       <use xlink:href="#DejaVuSans-2e" x="63.623047"/>
       <use xlink:href="#DejaVuSans-30" x="95.410156"/>
      </g>
     </g>
    </g>
    <g id="ytick_5">
     <g id="line2d_21">
      <path d="M 90 102.393435 
L 648 102.393435 
" clip-path="url(#pc056920f17)" style="fill: none; stroke: #b0b0b0; stroke-width: 0.8; stroke-linecap: square"/>
     </g>
     <g id="line2d_22">
      <g>
       <use xlink:href="#m12c687c248" x="90" y="102.393435" style="stroke: #000000; stroke-width: 0.8"/>
      </g>
     </g>
     <g id="text_12">
      <!-- 2.5 -->
      <g transform="translate(67.096875 106.192654) scale(0.1 -0.1)">
       <use xlink:href="#DejaVuSans-32"/>
       <use xlink:href="#DejaVuSans-2e" x="63.623047"/>
       <use xlink:href="#DejaVuSans-35" x="95.410156"/>
      </g>
     </g>
    </g>
    <g id="ytick_6">
     <g id="line2d_23">
      <path d="M 90 53.266084 
L 648 53.266084 
" clip-path="url(#pc056920f17)" style="fill: none; stroke: #b0b0b0; stroke-width: 0.8; stroke-linecap: square"/>
     </g>
     <g id="line2d_24">
      <g>
       <use xlink:href="#m12c687c248" x="90" y="53.266084" style="stroke: #000000; stroke-width: 0.8"/>
      </g>
     </g>
     <g id="text_13">
      <!-- 3.0 -->
      <g transform="translate(67.096875 57.065303) scale(0.1 -0.1)">
       <use xlink:href="#DejaVuSans-33"/>
       <use xlink:href="#DejaVuSans-2e" x="63.623047"/>
       <use xlink:href="#DejaVuSans-30" x="95.410156"/>
      </g>
     </g>
    </g>
    <g id="text_14">
     <!-- loss -->
     <g transform="translate(61.017187 191.457812) rotate(-90) scale(0.1 -0.1)">
      <defs>
       <path id="DejaVuSans-6c" d="M 603 4863 
L 1178 4863 
L 1178 0 
L 603 0 
L 603 4863 
z
" transform="scale(0.015625)"/>
       <path id="DejaVuSans-73" d="M 2834 3397 
L 2834 2853 
Q 2591 2978 2328 3040 
Q 2066 3103 1784 3103 
Q 1356 3103 1142 2972 
Q 928 2841 928 2578 
Q 928 2378 1081 2264 
Q 1234 2150 1697 2047 
L 1894 2003 
Q 2506 1872 2764 1633 
Q 3022 1394 3022 966 
Q 3022 478 2636 193 
Q 2250 -91 1575 -91 
Q 1294 -91 989 -36 
Q 684 19 347 128 
L 347 722 
Q 666 556 975 473 
Q 1284 391 1588 391 
Q 1994 391 2212 530 
Q 2431 669 2431 922 
Q 2431 1156 2273 1281 
Q 2116 1406 1581 1522 
L 1381 1569 
Q 847 1681 609 1914 
Q 372 2147 372 2553 
Q 372 3047 722 3315 
Q 1072 3584 1716 3584 
Q 2034 3584 2315 3537 
Q 2597 3491 2834 3397 
z
" transform="scale(0.015625)"/>
      </defs>
      <use xlink:href="#DejaVuSans-6c"/>
      <use xlink:href="#DejaVuSans-6f" x="27.783203"/>
      <use xlink:href="#DejaVuSans-73" x="88.964844"/>
      <use xlink:href="#DejaVuSans-73" x="141.064453"/>
     </g>
    </g>
   </g>
   <g id="line2d_25">
    <path d="M 115.363636 306.573668 
L 117.396794 306.256015 
L 118.413372 305.91064 
L 119.429951 306.978925 
L 120.446529 305.591942 
L 121.463108 306.354664 
L 122.479687 306.544433 
L 123.496265 306.501118 
L 124.512844 306.874841 
L 125.529422 307.078297 
L 126.546001 306.660138 
L 127.56258 306.379679 
L 128.579158 305.341611 
L 129.595737 306.751027 
L 131.628894 307.058279 
L 132.645473 305.967377 
L 133.662051 305.359845 
L 134.67863 306.939684 
L 135.695209 307.153654 
L 136.711787 306.316266 
L 137.728366 306.791996 
L 138.744944 305.784337 
L 139.761523 306.799331 
L 140.778102 306.127674 
L 141.79468 306.532087 
L 142.811259 305.681756 
L 143.827837 306.601647 
L 144.844416 305.954924 
L 145.860995 306.232027 
L 146.877573 306.044899 
L 147.894152 306.171425 
L 148.910731 306.950702 
L 149.927309 307.075626 
L 150.943888 306.208209 
L 151.960466 306.504234 
L 152.977045 306.417661 
L 153.993624 307.142451 
L 155.010202 306.815618 
L 156.026781 306.23791 
L 157.043359 306.776266 
L 158.059938 306.210045 
L 160.093095 306.599963 
L 161.109674 306.125797 
L 162.126253 306.672536 
L 163.142831 306.51197 
L 165.175988 306.497543 
L 166.192567 307.316317 
L 167.209146 305.694022 
L 168.225724 306.571832 
L 169.242303 305.851959 
L 170.258881 306.068477 
L 171.27546 306.411512 
L 172.292039 306.525578 
L 173.308617 306.464545 
L 174.325196 306.907415 
L 175.341774 306.227154 
L 176.358353 306.756998 
L 177.374932 307.561377 
L 178.39151 307.078592 
L 179.408089 306.463541 
L 180.424668 306.41254 
L 181.441246 306.760676 
L 182.457825 306.633638 
L 183.474403 306.156347 
L 184.490982 306.314811 
L 185.507561 306.912835 
L 186.524139 305.781143 
L 188.557296 306.177424 
L 189.573875 307.3394 
L 190.590454 307.220573 
L 191.607032 307.508833 
L 192.623611 306.449392 
L 193.640189 306.989504 
L 194.656768 306.166455 
L 195.673347 306.095549 
L 196.689925 307.007586 
L 197.706504 305.944482 
L 198.723083 306.397029 
L 199.739661 306.688568 
L 200.75624 306.08019 
L 202.789397 306.192587 
L 203.805976 306.522017 
L 204.822554 306.333923 
L 205.839133 306.9652 
L 206.855711 305.519351 
L 208.888869 306.996356 
L 209.905447 306.57915 
L 210.922026 307.046663 
L 211.938604 306.785188 
L 212.955183 306.676255 
L 214.98834 307.249062 
L 216.004919 305.733208 
L 218.038076 307.467407 
L 220.071233 306.617404 
L 221.087812 306.949915 
L 222.104391 305.837725 
L 223.120969 306.309484 
L 224.137548 306.325695 
L 225.154126 307.356987 
L 226.170705 306.072383 
L 228.203862 305.509053 
L 229.220441 307.194588 
L 230.237019 306.633527 
L 231.253598 306.393837 
L 232.270177 306.625307 
L 233.286755 306.039529 
L 234.303334 306.47709 
L 235.319913 306.420464 
L 236.336491 305.834313 
L 238.369648 306.679084 
L 239.386227 306.030847 
L 240.402806 306.840089 
L 241.419384 306.670595 
L 242.435963 306.955036 
L 243.452541 307.122038 
L 244.46912 306.327598 
L 245.485699 306.365882 
L 246.502277 305.89202 
L 247.518856 306.908369 
L 248.535435 307.097886 
L 249.552013 307.103714 
L 250.568592 306.236252 
L 251.58517 306.545056 
L 252.601749 307.559277 
L 253.618328 307.060651 
L 254.634906 307.28856 
L 255.651485 306.021312 
L 256.668063 306.119668 
L 257.684642 306.341932 
L 258.701221 306.400338 
L 259.717799 307.100487 
L 260.734378 306.627779 
L 261.750956 306.643535 
L 262.767535 306.988146 
L 263.784114 304.440277 
L 264.800692 306.02822 
L 265.817271 306.142845 
L 266.83385 306.497265 
L 267.850428 306.338942 
L 268.867007 306.586441 
L 269.883585 307.308425 
L 270.900164 306.094032 
L 271.916743 306.909886 
L 272.933321 306.87434 
L 274.966478 306.421834 
L 275.983057 306.997112 
L 276.999636 306.511643 
L 279.032793 306.505359 
L 280.049371 305.963635 
L 281.06595 306.138974 
L 282.082529 306.86061 
L 283.099107 306.444042 
L 284.115686 306.490085 
L 285.132265 306.92135 
L 286.148843 306.321264 
L 287.165422 306.041643 
L 289.198579 306.435916 
L 291.231736 306.375155 
L 292.248315 306.625811 
L 293.264893 306.051119 
L 294.281472 306.949666 
L 296.314629 306.308 
L 297.331208 307.2948 
L 298.347786 306.960137 
L 299.364365 306.456115 
L 300.380944 306.863266 
L 301.397522 306.816605 
L 302.414101 307.11155 
L 303.43068 306.567981 
L 304.447258 306.561106 
L 305.463837 306.987627 
L 306.480415 306.075604 
L 307.496994 306.483927 
L 308.513573 305.07148 
L 309.530151 306.379217 
L 310.54673 306.753124 
L 311.563308 306.027503 
L 313.596466 305.986265 
L 314.613044 307.108563 
L 315.629623 306.307089 
L 316.646201 306.524553 
L 317.66278 306.369205 
L 318.679359 306.809267 
L 319.695937 306.183609 
L 320.712516 306.638168 
L 321.729095 305.31403 
L 322.745673 306.622604 
L 323.762252 307.317192 
L 324.77883 306.992239 
L 325.795409 307.266769 
L 326.811988 306.002273 
L 327.828566 306.291678 
L 328.845145 306.858417 
L 329.861723 305.894421 
L 332.911459 307.039996 
L 333.928038 305.370823 
L 334.944617 306.484603 
L 335.961195 305.951416 
L 336.977774 306.405872 
L 337.994352 306.631866 
L 340.02751 307.274704 
L 341.044088 306.507698 
L 342.060667 306.31896 
L 343.077245 307.217627 
L 344.093824 306.17355 
L 345.110403 307.237606 
L 346.126981 307.132759 
L 347.14356 306.613618 
L 348.160138 306.543991 
L 349.176717 306.75373 
L 350.193296 306.840821 
L 351.209874 307.112621 
L 352.226453 306.273906 
L 353.243032 307.177027 
L 355.276189 306.261898 
L 356.292767 306.274814 
L 357.309346 306.892908 
L 358.325925 306.268586 
L 359.342503 305.779728 
L 360.359082 305.725592 
L 361.37566 306.53985 
L 362.392239 307.529869 
L 363.408818 307.687337 
L 364.425396 305.085053 
L 365.441975 306.353129 
L 366.458553 306.475037 
L 367.475132 307.498546 
L 368.491711 306.730676 
L 369.508289 306.865371 
L 370.524868 306.566336 
L 371.541447 306.623328 
L 372.558025 306.944585 
L 373.574604 307.136211 
L 374.591182 306.185032 
L 375.607761 306.132476 
L 376.62434 306.86531 
L 378.657497 305.950315 
L 379.674075 306.771736 
L 381.707233 307.352644 
L 382.723811 306.505766 
L 383.74039 306.822394 
L 384.756968 306.759191 
L 385.773547 306.579056 
L 386.790126 306.519221 
L 388.823283 306.639568 
L 389.839862 305.668819 
L 390.85644 305.84547 
L 391.873019 306.99522 
L 392.889597 306.292931 
L 393.906176 306.748934 
L 394.922755 307.047009 
L 395.939333 306.650879 
L 397.97249 306.949765 
L 401.022226 306.826537 
L 402.038805 306.556878 
L 403.055383 306.413632 
L 404.071962 307.122589 
L 405.088541 306.926082 
L 406.105119 307.114082 
L 407.121698 306.464636 
L 408.138277 304.725953 
L 409.154855 306.492067 
L 410.171434 305.358024 
L 411.188012 306.572274 
L 412.204591 306.888908 
L 413.22117 306.67073 
L 414.237748 307.044845 
L 415.254327 306.862159 
L 416.270905 304.908463 
L 417.287484 306.535059 
L 418.304063 306.558637 
L 419.320641 306.00552 
L 422.370377 306.930275 
L 423.386956 306.684185 
L 424.403534 305.477129 
L 425.420113 306.025362 
L 426.436692 304.852297 
L 427.45327 306.588037 
L 428.469849 305.546212 
L 429.486427 305.775667 
L 430.503006 306.982078 
L 431.519585 306.883588 
L 432.536163 306.022123 
L 433.552742 306.230411 
L 434.56932 307.22816 
L 435.585899 306.344869 
L 436.602478 306.986023 
L 437.619056 307.391938 
L 438.635635 306.030519 
L 441.685371 306.321832 
L 443.718528 305.939917 
L 444.735107 306.167574 
L 445.751685 306.17411 
L 446.768264 307.446731 
L 447.784842 306.832341 
L 448.801421 306.821325 
L 449.818 306.100755 
L 450.834578 306.68188 
L 451.851157 305.210269 
L 452.867735 306.440326 
L 453.884314 306.148564 
L 454.900893 307.470212 
L 455.917471 306.900141 
L 456.93405 305.602864 
L 457.950629 306.534357 
L 458.967207 306.885225 
L 459.983786 306.611111 
L 461.000364 305.688269 
L 462.016943 306.439436 
L 463.033522 306.2487 
L 464.0501 306.258647 
L 465.066679 307.387651 
L 466.083257 305.633496 
L 467.099836 307.19874 
L 468.116415 307.534068 
L 469.132993 306.201509 
L 470.149572 306.701034 
L 471.16615 307.434995 
L 472.182729 306.863486 
L 473.199308 307.398489 
L 474.215886 307.243832 
L 476.249044 305.799432 
L 477.265622 306.830842 
L 478.282201 307.106135 
L 479.298779 306.203931 
L 480.315358 306.48981 
L 481.331937 307.200146 
L 482.348515 306.079001 
L 483.365094 306.4148 
L 484.381672 306.269693 
L 485.398251 306.993138 
L 486.41483 305.977005 
L 487.431408 306.243986 
L 488.447987 306.961276 
L 489.464565 306.908791 
L 490.481144 305.958473 
L 491.497723 306.43728 
L 492.514301 306.488618 
L 494.547459 306.143135 
L 495.564037 306.179629 
L 496.580616 306.606854 
L 497.597194 306.244241 
L 498.613773 306.474568 
L 499.630352 306.837673 
L 501.663509 306.216493 
L 502.680087 305.375339 
L 503.696666 305.438893 
L 504.713245 306.790134 
L 505.729823 307.134659 
L 506.746402 306.401298 
L 507.762981 306.661746 
L 508.779559 307.17291 
L 509.796138 306.419711 
L 510.812716 306.207442 
L 511.829295 306.842929 
L 512.845874 305.663607 
L 513.862452 307.043817 
L 514.879031 307.367034 
L 515.895609 306.665763 
L 516.912188 306.247016 
L 517.928767 306.844947 
L 518.945345 305.658907 
L 519.961924 307.115145 
L 520.978502 306.564986 
L 521.995081 307.161935 
L 523.01166 306.875544 
L 524.028238 305.561339 
L 526.061396 307.8 
L 527.077974 305.320748 
L 528.094553 306.12946 
L 529.111131 306.104368 
L 530.12771 305.42961 
L 531.144289 306.521841 
L 532.160867 305.443024 
L 533.177446 307.196116 
L 534.194024 306.506834 
L 535.210603 307.117224 
L 536.227182 307.551309 
L 537.24376 306.47728 
L 538.260339 307.074879 
L 539.276917 306.582909 
L 540.293496 307.291691 
L 541.310075 305.813227 
L 542.326653 306.812997 
L 543.343232 306.198361 
L 544.359811 306.719555 
L 545.376389 307.105254 
L 546.392968 307.370205 
L 547.409546 306.318055 
L 548.426125 307.008303 
L 550.459282 306.991724 
L 551.475861 307.279538 
L 552.492439 307.069319 
L 553.509018 306.69954 
L 554.525597 307.617358 
L 555.542175 307.174922 
L 556.558754 307.233053 
L 557.575332 307.409051 
L 558.591911 306.177029 
L 559.60849 306.720217 
L 560.625068 306.706053 
L 561.641647 305.486582 
L 562.658226 306.919939 
L 563.674804 306.616675 
L 564.691383 306.75816 
L 565.707961 306.424789 
L 566.72454 305.134742 
L 567.741119 307.109927 
L 568.757697 307.185985 
L 569.774276 306.813902 
L 570.790854 306.947449 
L 571.807433 307.307301 
L 572.824012 307.496279 
L 574.857169 306.955396 
L 575.873747 306.34091 
L 576.890326 306.414716 
L 577.906905 306.134854 
L 578.923483 306.705921 
L 579.940062 306.090251 
L 580.956641 307.206687 
L 581.973219 306.946908 
L 582.989798 304.876484 
L 585.022955 307.070057 
L 586.039534 306.525443 
L 587.056112 305.499018 
L 588.072691 305.528563 
L 589.089269 306.889022 
L 590.105848 306.49783 
L 591.122427 306.528916 
L 592.139005 306.99961 
L 593.155584 306.729643 
L 594.172163 305.621303 
L 595.188741 307.357608 
L 596.20532 306.88735 
L 597.221898 307.06567 
L 598.238477 306.814839 
L 599.255056 306.976283 
L 600.271634 306.487233 
L 601.288213 306.218935 
L 602.304791 305.832659 
L 603.32137 307.119561 
L 604.337949 307.265539 
L 605.354527 306.385606 
L 606.371106 305.846829 
L 607.387684 306.655579 
L 608.404263 307.017164 
L 610.43742 306.892727 
L 611.453999 306.75332 
L 612.470578 306.4994 
L 613.487156 306.873515 
L 614.503735 306.913614 
L 615.520313 306.54792 
L 616.536892 306.547583 
L 617.553471 307.636889 
L 618.570049 306.007512 
L 619.586628 305.797667 
L 621.619785 306.261338 
L 622.636364 306.013986 
L 622.636364 306.013986 
" clip-path="url(#pc056920f17)" style="fill: none; stroke: #1f77b4; stroke-width: 1.5; stroke-linecap: square"/>
   </g>
   <g id="line2d_26">
    <path d="M 115.363636 60.75649 
L 116.380215 60.426187 
L 117.396794 59.686542 
L 118.413372 59.76277 
L 119.429951 59.570585 
L 120.446529 58.741243 
L 121.463108 58.673191 
L 122.479687 59.280223 
L 123.496265 58.970347 
L 124.512844 58.960625 
L 125.529422 58.728242 
L 129.595737 59.047277 
L 130.612316 59.36575 
L 131.628894 59.393041 
L 132.645473 58.972853 
L 133.662051 59.051049 
L 134.67863 59.562081 
L 135.695209 58.677174 
L 136.711787 58.968777 
L 138.744944 59.08785 
L 139.761523 58.157122 
L 140.778102 57.982038 
L 141.79468 57.54222 
L 142.811259 58.753401 
L 143.827837 58.797559 
L 144.844416 57.954513 
L 145.860995 59.714887 
L 146.877573 59.459406 
L 147.894152 58.330473 
L 150.943888 58.917967 
L 151.960466 59.343847 
L 152.977045 58.568291 
L 153.993624 58.038119 
L 155.010202 58.805336 
L 156.026781 58.73466 
L 157.043359 58.501387 
L 158.059938 58.860597 
L 159.076517 58.912462 
L 160.093095 58.224026 
L 161.109674 57.812108 
L 162.126253 58.285003 
L 163.142831 57.902109 
L 164.15941 59.258975 
L 166.192567 58.618211 
L 167.209146 58.539875 
L 168.225724 59.304843 
L 169.242303 58.645385 
L 171.27546 58.60521 
L 172.292039 59.29805 
L 173.308617 58.846471 
L 174.325196 58.542218 
L 175.341774 58.548941 
L 176.358353 59.844689 
L 177.374932 59.391706 
L 178.39151 59.076723 
L 179.408089 59.420847 
L 180.424668 58.82492 
L 181.441246 59.463951 
L 182.457825 59.121138 
L 183.474403 58.982036 
L 185.507561 59.241242 
L 186.524139 58.834571 
L 187.540718 59.23733 
L 188.557296 59.188862 
L 189.573875 58.929399 
L 190.590454 58.383579 
L 191.607032 58.664219 
L 192.623611 58.782636 
L 193.640189 59.038164 
L 196.689925 59.067119 
L 197.706504 58.590006 
L 198.723083 58.404287 
L 199.739661 57.953552 
L 200.75624 58.540344 
L 202.789397 59.116734 
L 203.805976 59.091622 
L 204.822554 58.783386 
L 205.839133 58.681625 
L 206.855711 58.075928 
L 207.87229 59.011506 
L 208.888869 59.141823 
L 209.905447 58.153327 
L 210.922026 58.899507 
L 211.938604 58.809529 
L 212.955183 58.22925 
L 213.971762 58.533597 
L 214.98834 58.566604 
L 216.004919 58.957533 
L 217.021498 58.369453 
L 218.038076 58.784838 
L 219.054655 58.891238 
L 220.071233 58.802806 
L 221.087812 58.936028 
L 224.137548 58.043367 
L 225.154126 57.98513 
L 226.170705 58.722245 
L 227.187284 58.460158 
L 228.203862 58.844223 
L 229.220441 58.469903 
L 230.237019 58.756048 
L 231.253598 58.728148 
L 232.270177 58.382243 
L 233.286755 59.432607 
L 235.319913 58.111184 
L 236.336491 58.525703 
L 237.35307 58.318432 
L 238.369648 58.667569 
L 239.386227 58.425441 
L 240.402806 58.592794 
L 241.419384 58.138358 
L 242.435963 58.344434 
L 244.46912 58.236488 
L 245.485699 58.458799 
L 246.502277 58.431625 
L 247.518856 58.607248 
L 249.552013 58.210228 
L 250.568592 58.331597 
L 251.58517 57.718452 
L 252.601749 58.238784 
L 253.618328 57.945986 
L 256.668063 58.249583 
L 258.701221 57.906654 
L 259.717799 58.376715 
L 261.750956 58.740025 
L 262.767535 58.139506 
L 263.784114 58.042758 
L 264.800692 58.120461 
L 266.83385 57.749772 
L 267.850428 58.405318 
L 268.867007 57.477119 
L 270.900164 57.913846 
L 271.916743 57.741034 
L 273.9499 57.726627 
L 274.966478 57.287886 
L 275.983057 57.703764 
L 276.999636 57.436968 
L 278.016214 58.079489 
L 279.032793 57.083707 
L 280.049371 57.994992 
L 281.06595 57.40881 
L 282.082529 58.115776 
L 283.099107 58.041094 
L 284.115686 57.725713 
L 285.132265 58.505603 
L 286.148843 57.885571 
L 287.165422 57.44348 
L 288.182 57.90895 
L 289.198579 58.155599 
L 290.215158 57.891919 
L 291.231736 58.066605 
L 292.248315 57.948422 
L 293.264893 57.111725 
L 294.281472 57.886672 
L 296.314629 57.887421 
L 297.331208 58.23171 
L 298.347786 58.129386 
L 299.364365 58.170943 
L 300.380944 57.683336 
L 302.414101 58.320517 
L 303.43068 57.590594 
L 307.496994 57.301239 
L 308.513573 57.963719 
L 309.530151 57.540064 
L 310.54673 57.877278 
L 312.579887 57.489535 
L 313.596466 57.697743 
L 314.613044 57.674083 
L 315.629623 57.882479 
L 316.646201 56.997337 
L 317.66278 57.522659 
L 318.679359 57.769707 
L 320.712516 57.96222 
L 321.729095 57.814802 
L 323.762252 57.905319 
L 324.77883 57.113974 
L 325.795409 57.523315 
L 326.811988 57.26596 
L 327.828566 57.597223 
L 328.845145 56.768069 
L 329.861723 57.220912 
L 331.894881 57.56417 
L 332.911459 57.632432 
L 333.928038 57.404757 
L 334.944617 57.766896 
L 335.961195 57.978337 
L 336.977774 57.076867 
L 337.994352 57.65478 
L 339.010931 57.592421 
L 340.02751 58.189637 
L 341.044088 57.433594 
L 343.077245 57.842444 
L 344.093824 57.860693 
L 345.110403 57.239676 
L 347.14356 57.74586 
L 350.193296 57.270106 
L 351.209874 57.940809 
L 352.226453 58.203974 
L 353.243032 57.89972 
L 354.25961 58.409792 
L 355.276189 58.096121 
L 356.292767 57.629902 
L 357.309346 57.785543 
L 358.325925 57.662323 
L 359.342503 57.148503 
L 360.359082 57.684742 
L 361.37566 57.341297 
L 362.392239 58.382384 
L 363.408818 57.868236 
L 364.425396 57.528047 
L 365.441975 57.405905 
L 366.458553 56.864583 
L 367.475132 56.755021 
L 368.491711 57.713064 
L 369.508289 57.472341 
L 370.524868 57.400424 
L 371.541447 57.200368 
L 372.558025 57.663752 
L 373.574604 57.533107 
L 374.591182 57.883861 
L 375.607761 57.448915 
L 376.62434 57.951327 
L 377.640918 57.947321 
L 378.657497 58.137444 
L 379.674075 57.586471 
L 380.690654 57.605727 
L 381.707233 57.293696 
L 382.723811 57.511743 
L 383.74039 57.144614 
L 384.756968 57.617369 
L 385.773547 57.853314 
L 386.790126 57.507456 
L 387.806704 57.37161 
L 388.823283 56.6586 
L 389.839862 56.812484 
L 390.85644 57.661152 
L 391.873019 58.08223 
L 394.922755 57.013992 
L 395.939333 56.537349 
L 396.955912 56.977214 
L 397.97249 57.071737 
L 398.989069 57.737895 
L 400.005648 57.560492 
L 403.055383 57.705357 
L 405.088541 57.336424 
L 406.105119 57.939708 
L 407.121698 57.178675 
L 408.138277 56.831482 
L 409.154855 58.455098 
L 410.171434 58.288119 
L 411.188012 56.672281 
L 413.22117 57.019099 
L 414.237748 57.447041 
L 415.254327 57.509681 
L 416.270905 57.345912 
L 417.287484 58.331363 
L 418.304063 57.63686 
L 419.320641 57.081787 
L 421.353799 56.667971 
L 422.370377 57.166002 
L 423.386956 57.328788 
L 424.403534 57.245392 
L 425.420113 57.642084 
L 426.436692 57.5306 
L 427.45327 57.811827 
L 428.469849 57.33099 
L 429.486427 57.466812 
L 430.503006 57.946665 
L 431.519585 57.342515 
L 432.536163 57.596684 
L 434.56932 57.368119 
L 435.585899 57.791024 
L 436.602478 56.821667 
L 437.619056 56.963205 
L 438.635635 57.40382 
L 439.652214 57.145411 
L 440.668792 56.76329 
L 441.685371 57.195612 
L 442.701949 56.747689 
L 443.718528 57.11552 
L 445.751685 56.591954 
L 446.768264 57.246235 
L 447.784842 56.816513 
L 448.801421 57.066044 
L 449.818 57.12147 
L 450.834578 57.63946 
L 451.851157 56.716251 
L 452.867735 56.881309 
L 453.884314 56.82148 
L 454.900893 57.031843 
L 456.93405 57.005302 
L 457.950629 56.627889 
L 458.967207 56.948588 
L 459.983786 57.544187 
L 461.000364 56.951539 
L 462.016943 57.303863 
L 463.033522 57.393794 
L 464.0501 57.287886 
L 465.066679 56.95927 
L 466.083257 56.966415 
L 469.132993 57.358562 
L 470.149572 57.210019 
L 471.16615 57.30316 
L 472.182729 56.905344 
L 473.199308 57.167993 
L 474.215886 57.167431 
L 475.232465 57.756776 
L 476.249044 57.036106 
L 477.265622 57.346779 
L 478.282201 56.465549 
L 479.298779 56.6508 
L 480.315358 57.214915 
L 482.348515 56.689405 
L 483.365094 57.190576 
L 484.381672 57.231501 
L 485.398251 57.742299 
L 486.41483 57.192216 
L 487.431408 56.881075 
L 488.447987 56.740497 
L 489.464565 57.04632 
L 490.481144 57.093031 
L 491.497723 57.428488 
L 492.514301 57.03456 
L 493.53088 57.660848 
L 494.547459 58.081855 
L 495.564037 56.986655 
L 496.580616 56.608188 
L 497.597194 57.503684 
L 498.613773 57.9082 
L 500.64693 57.086448 
L 501.663509 56.347436 
L 502.680087 56.686805 
L 503.696666 56.777135 
L 504.713245 57.014086 
L 505.729823 56.559064 
L 506.746402 57.289877 
L 507.762981 56.611374 
L 508.779559 56.598982 
L 509.796138 56.850856 
L 510.812716 57.258838 
L 511.829295 57.259424 
L 512.845874 56.827289 
L 513.862452 57.085019 
L 514.879031 57.1292 
L 515.895609 56.371495 
L 516.912188 56.722482 
L 517.928767 57.647472 
L 518.945345 56.55794 
L 519.961924 57.448704 
L 520.978502 57.016101 
L 521.995081 57.025331 
L 523.01166 56.85875 
L 524.028238 56.44723 
L 525.044817 56.84097 
L 526.061396 56.747337 
L 527.077974 56.810024 
L 528.094553 57.434297 
L 529.111131 57.086003 
L 530.12771 56.529314 
L 531.144289 56.711004 
L 532.160867 57.475714 
L 533.177446 56.319841 
L 534.194024 56.800092 
L 535.210603 56.856525 
L 536.227182 56.576142 
L 538.260339 57.223911 
L 539.276917 56.909818 
L 540.293496 56.801943 
L 541.310075 57.28894 
L 543.343232 57.1664 
L 544.359811 56.854369 
L 545.376389 56.357158 
L 546.392968 56.534936 
L 547.409546 57.163824 
L 548.426125 56.551615 
L 549.442704 56.426803 
L 550.459282 56.595374 
L 551.475861 57.398386 
L 552.492439 57.354626 
L 553.509018 56.960301 
L 554.525597 56.998836 
L 555.542175 56.540043 
L 556.558754 56.701142 
L 557.575332 57.015351 
L 558.591911 56.7505 
L 559.60849 57.149979 
L 560.625068 56.68711 
L 561.641647 56.514274 
L 562.658226 56.795594 
L 563.674804 56.737217 
L 564.691383 57.569042 
L 565.707961 57.16804 
L 566.72454 57.077617 
L 567.741119 56.474919 
L 569.774276 56.326166 
L 571.807433 55.877797 
L 572.824012 56.458053 
L 574.857169 56.266243 
L 575.873747 56.596452 
L 576.890326 56.373579 
L 577.906905 56.942075 
L 578.923483 57.284818 
L 579.940062 56.314219 
L 580.956641 56.460255 
L 581.973219 56.850902 
L 582.989798 56.571433 
L 584.006376 57.259822 
L 585.022955 56.734898 
L 586.039534 56.608259 
L 587.056112 55.8 
L 588.072691 56.948447 
L 589.089269 56.718289 
L 590.105848 55.905064 
L 592.139005 56.62372 
L 594.172163 56.29515 
L 595.188741 56.593102 
L 598.238477 56.45749 
L 599.255056 56.254202 
L 600.271634 56.454632 
L 601.288213 56.992909 
L 602.304791 56.542573 
L 603.32137 56.66195 
L 604.337949 56.467353 
L 605.354527 56.752608 
L 606.371106 56.755653 
L 607.387684 56.176897 
L 608.404263 56.847482 
L 609.420842 56.719812 
L 610.43742 56.367465 
L 611.453999 56.225388 
L 613.487156 56.814499 
L 614.503735 57.19423 
L 615.520313 56.157102 
L 616.536892 57.021606 
L 617.553471 56.864349 
L 618.570049 57.082325 
L 619.586628 56.748087 
L 620.603206 56.712597 
L 621.619785 56.343922 
L 622.636364 55.803561 
L 622.636364 55.803561 
" clip-path="url(#pc056920f17)" style="fill: none; stroke: #ff7f0e; stroke-width: 1.5; stroke-linecap: square"/>
   </g>
   <g id="patch_3">
    <path d="M 90 320.4 
L 90 43.2 
" style="fill: none; stroke: #000000; stroke-width: 0.8; stroke-linejoin: miter; stroke-linecap: square"/>
   </g>
   <g id="patch_4">
    <path d="M 648 320.4 
L 648 43.2 
" style="fill: none; stroke: #000000; stroke-width: 0.8; stroke-linejoin: miter; stroke-linecap: square"/>
   </g>
   <g id="patch_5">
    <path d="M 90 320.4 
L 648 320.4 
" style="fill: none; stroke: #000000; stroke-width: 0.8; stroke-linejoin: miter; stroke-linecap: square"/>
   </g>
   <g id="patch_6">
    <path d="M 90 43.2 
L 648 43.2 
" style="fill: none; stroke: #000000; stroke-width: 0.8; stroke-linejoin: miter; stroke-linecap: square"/>
   </g>
   <g id="text_15">
    <!-- model train and validation loss over time -->
    <g transform="translate(245.555625 37.2) scale(0.12 -0.12)">
     <defs>
      <path id="DejaVuSans-6d" d="M 3328 2828 
Q 3544 3216 3844 3400 
Q 4144 3584 4550 3584 
Q 5097 3584 5394 3201 
Q 5691 2819 5691 2113 
L 5691 0 
L 5113 0 
L 5113 2094 
Q 5113 2597 4934 2840 
Q 4756 3084 4391 3084 
Q 3944 3084 3684 2787 
Q 3425 2491 3425 1978 
L 3425 0 
L 2847 0 
L 2847 2094 
Q 2847 2600 2669 2842 
Q 2491 3084 2119 3084 
Q 1678 3084 1418 2786 
Q 1159 2488 1159 1978 
L 1159 0 
L 581 0 
L 581 3500 
L 1159 3500 
L 1159 2956 
Q 1356 3278 1631 3431 
Q 1906 3584 2284 3584 
Q 2666 3584 2933 3390 
Q 3200 3197 3328 2828 
z
" transform="scale(0.015625)"/>
      <path id="DejaVuSans-64" d="M 2906 2969 
L 2906 4863 
L 3481 4863 
L 3481 0 
L 2906 0 
L 2906 525 
Q 2725 213 2448 61 
Q 2172 -91 1784 -91 
Q 1150 -91 751 415 
Q 353 922 353 1747 
Q 353 2572 751 3078 
Q 1150 3584 1784 3584 
Q 2172 3584 2448 3432 
Q 2725 3281 2906 2969 
z
M 947 1747 
Q 947 1113 1208 752 
Q 1469 391 1925 391 
Q 2381 391 2643 752 
Q 2906 1113 2906 1747 
Q 2906 2381 2643 2742 
Q 2381 3103 1925 3103 
Q 1469 3103 1208 2742 
Q 947 2381 947 1747 
z
" transform="scale(0.015625)"/>
      <path id="DejaVuSans-20" transform="scale(0.015625)"/>
      <path id="DejaVuSans-74" d="M 1172 4494 
L 1172 3500 
L 2356 3500 
L 2356 3053 
L 1172 3053 
L 1172 1153 
Q 1172 725 1289 603 
Q 1406 481 1766 481 
L 2356 481 
L 2356 0 
L 1766 0 
Q 1100 0 847 248 
Q 594 497 594 1153 
L 594 3053 
L 172 3053 
L 172 3500 
L 594 3500 
L 594 4494 
L 1172 4494 
z
" transform="scale(0.015625)"/>
      <path id="DejaVuSans-72" d="M 2631 2963 
Q 2534 3019 2420 3045 
Q 2306 3072 2169 3072 
Q 1681 3072 1420 2755 
Q 1159 2438 1159 1844 
L 1159 0 
L 581 0 
L 581 3500 
L 1159 3500 
L 1159 2956 
Q 1341 3275 1631 3429 
Q 1922 3584 2338 3584 
Q 2397 3584 2469 3576 
Q 2541 3569 2628 3553 
L 2631 2963 
z
" transform="scale(0.015625)"/>
      <path id="DejaVuSans-61" d="M 2194 1759 
Q 1497 1759 1228 1600 
Q 959 1441 959 1056 
Q 959 750 1161 570 
Q 1363 391 1709 391 
Q 2188 391 2477 730 
Q 2766 1069 2766 1631 
L 2766 1759 
L 2194 1759 
z
M 3341 1997 
L 3341 0 
L 2766 0 
L 2766 531 
Q 2569 213 2275 61 
Q 1981 -91 1556 -91 
Q 1019 -91 701 211 
Q 384 513 384 1019 
Q 384 1609 779 1909 
Q 1175 2209 1959 2209 
L 2766 2209 
L 2766 2266 
Q 2766 2663 2505 2880 
Q 2244 3097 1772 3097 
Q 1472 3097 1187 3025 
Q 903 2953 641 2809 
L 641 3341 
Q 956 3463 1253 3523 
Q 1550 3584 1831 3584 
Q 2591 3584 2966 3190 
Q 3341 2797 3341 1997 
z
" transform="scale(0.015625)"/>
      <path id="DejaVuSans-69" d="M 603 3500 
L 1178 3500 
L 1178 0 
L 603 0 
L 603 3500 
z
M 603 4863 
L 1178 4863 
L 1178 4134 
L 603 4134 
L 603 4863 
z
" transform="scale(0.015625)"/>
      <path id="DejaVuSans-6e" d="M 3513 2113 
L 3513 0 
L 2938 0 
L 2938 2094 
Q 2938 2591 2744 2837 
Q 2550 3084 2163 3084 
Q 1697 3084 1428 2787 
Q 1159 2491 1159 1978 
L 1159 0 
L 581 0 
L 581 3500 
L 1159 3500 
L 1159 2956 
Q 1366 3272 1645 3428 
Q 1925 3584 2291 3584 
Q 2894 3584 3203 3211 
Q 3513 2838 3513 2113 
z
" transform="scale(0.015625)"/>
      <path id="DejaVuSans-76" d="M 191 3500 
L 800 3500 
L 1894 563 
L 2988 3500 
L 3597 3500 
L 2284 0 
L 1503 0 
L 191 3500 
z
" transform="scale(0.015625)"/>
     </defs>
     <use xlink:href="#DejaVuSans-6d"/>
     <use xlink:href="#DejaVuSans-6f" x="97.412109"/>
     <use xlink:href="#DejaVuSans-64" x="158.59375"/>
     <use xlink:href="#DejaVuSans-65" x="222.070312"/>
     <use xlink:href="#DejaVuSans-6c" x="283.59375"/>
     <use xlink:href="#DejaVuSans-20" x="311.376953"/>
     <use xlink:href="#DejaVuSans-74" x="343.164062"/>
     <use xlink:href="#DejaVuSans-72" x="382.373047"/>
     <use xlink:href="#DejaVuSans-61" x="423.486328"/>
     <use xlink:href="#DejaVuSans-69" x="484.765625"/>
     <use xlink:href="#DejaVuSans-6e" x="512.548828"/>
     <use xlink:href="#DejaVuSans-20" x="575.927734"/>
     <use xlink:href="#DejaVuSans-61" x="607.714844"/>
     <use xlink:href="#DejaVuSans-6e" x="668.994141"/>
     <use xlink:href="#DejaVuSans-64" x="732.373047"/>
     <use xlink:href="#DejaVuSans-20" x="795.849609"/>
     <use xlink:href="#DejaVuSans-76" x="827.636719"/>
     <use xlink:href="#DejaVuSans-61" x="886.816406"/>
     <use xlink:href="#DejaVuSans-6c" x="948.095703"/>
     <use xlink:href="#DejaVuSans-69" x="975.878906"/>
     <use xlink:href="#DejaVuSans-64" x="1003.662109"/>
     <use xlink:href="#DejaVuSans-61" x="1067.138672"/>
     <use xlink:href="#DejaVuSans-74" x="1128.417969"/>
     <use xlink:href="#DejaVuSans-69" x="1167.626953"/>
     <use xlink:href="#DejaVuSans-6f" x="1195.410156"/>
     <use xlink:href="#DejaVuSans-6e" x="1256.591797"/>
     <use xlink:href="#DejaVuSans-20" x="1319.970703"/>
     <use xlink:href="#DejaVuSans-6c" x="1351.757812"/>
     <use xlink:href="#DejaVuSans-6f" x="1379.541016"/>
     <use xlink:href="#DejaVuSans-73" x="1440.722656"/>
     <use xlink:href="#DejaVuSans-73" x="1492.822266"/>
     <use xlink:href="#DejaVuSans-20" x="1544.921875"/>
     <use xlink:href="#DejaVuSans-6f" x="1576.708984"/>
     <use xlink:href="#DejaVuSans-76" x="1637.890625"/>
     <use xlink:href="#DejaVuSans-65" x="1697.070312"/>
     <use xlink:href="#DejaVuSans-72" x="1758.59375"/>
     <use xlink:href="#DejaVuSans-20" x="1799.707031"/>
     <use xlink:href="#DejaVuSans-74" x="1831.494141"/>
     <use xlink:href="#DejaVuSans-69" x="1870.703125"/>
     <use xlink:href="#DejaVuSans-6d" x="1898.486328"/>
     <use xlink:href="#DejaVuSans-65" x="1995.898438"/>
    </g>
   </g>
   <g id="legend_1">
    <g id="patch_7">
     <path d="M 559.765625 197.978125 
L 641 197.978125 
Q 643 197.978125 643 195.978125 
L 643 167.621875 
Q 643 165.621875 641 165.621875 
L 559.765625 165.621875 
Q 557.765625 165.621875 557.765625 167.621875 
L 557.765625 195.978125 
Q 557.765625 197.978125 559.765625 197.978125 
z
" style="fill: #ffffff; opacity: 0.8; stroke: #cccccc; stroke-linejoin: miter"/>
    </g>
    <g id="line2d_27">
     <path d="M 561.765625 173.720312 
L 571.765625 173.720312 
L 581.765625 173.720312 
" style="fill: none; stroke: #1f77b4; stroke-width: 1.5; stroke-linecap: square"/>
    </g>
    <g id="text_16">
     <!-- train -->
     <g transform="translate(589.765625 177.220312) scale(0.1 -0.1)">
      <use xlink:href="#DejaVuSans-74"/>
      <use xlink:href="#DejaVuSans-72" x="39.208984"/>
      <use xlink:href="#DejaVuSans-61" x="80.322266"/>
      <use xlink:href="#DejaVuSans-69" x="141.601562"/>
      <use xlink:href="#DejaVuSans-6e" x="169.384766"/>
     </g>
    </g>
    <g id="line2d_28">
     <path d="M 561.765625 188.398437 
L 571.765625 188.398437 
L 581.765625 188.398437 
" style="fill: none; stroke: #ff7f0e; stroke-width: 1.5; stroke-linecap: square"/>
    </g>
    <g id="text_17">
     <!-- validation -->
     <g transform="translate(589.765625 191.898437) scale(0.1 -0.1)">
      <use xlink:href="#DejaVuSans-76"/>
      <use xlink:href="#DejaVuSans-61" x="59.179688"/>
      <use xlink:href="#DejaVuSans-6c" x="120.458984"/>
      <use xlink:href="#DejaVuSans-69" x="148.242188"/>
      <use xlink:href="#DejaVuSans-64" x="176.025391"/>
      <use xlink:href="#DejaVuSans-61" x="239.501953"/>
      <use xlink:href="#DejaVuSans-74" x="300.78125"/>
      <use xlink:href="#DejaVuSans-69" x="339.990234"/>
      <use xlink:href="#DejaVuSans-6f" x="367.773438"/>
      <use xlink:href="#DejaVuSans-6e" x="428.955078"/>
     </g>
    </g>
   </g>
  </g>
 </g>
 <defs>
  <clipPath id="pc056920f17">
   <rect x="90" y="43.2" width="558" height="277.2"/>
  </clipPath>
 </defs>
</svg>
