<?xml version="1.0" encoding="utf-8" standalone="no"?>
<!DOCTYPE svg PUBLIC "-//W3C//DTD SVG 1.1//EN"
  "http://www.w3.org/Graphics/SVG/1.1/DTD/svg11.dtd">
<svg xmlns:xlink="http://www.w3.org/1999/xlink" width="720pt" height="360pt" viewBox="0 0 720 360" xmlns="http://www.w3.org/2000/svg" version="1.1">
 <metadata>
  <rdf:RDF xmlns:dc="http://purl.org/dc/elements/1.1/" xmlns:cc="http://creativecommons.org/ns#" xmlns:rdf="http://www.w3.org/1999/02/22-rdf-syntax-ns#">
   <cc:Work>
    <dc:type rdf:resource="http://purl.org/dc/dcmitype/StillImage"/>
    <dc:date>2023-05-24T12:01:44.854445</dc:date>
    <dc:format>image/svg+xml</dc:format>
    <dc:creator>
     <cc:Agent>
      <dc:title>Matplotlib v3.7.1, https://matplotlib.org/</dc:title>
     </cc:Agent>
    </dc:creator>
   </cc:Work>
  </rdf:RDF>
 </metadata>
 <defs>
  <style type="text/css">*{stroke-linejoin: round; stroke-linecap: butt}</style>
 </defs>
 <g id="figure_1">
  <g id="patch_1">
   <path d="M 0 360 
L 720 360 
L 720 0 
L 0 0 
z
" style="fill: #ffffff"/>
  </g>
  <g id="axes_1">
   <g id="patch_2">
    <path d="M 90 320.4 
L 648 320.4 
L 648 43.2 
L 90 43.2 
z
" style="fill: #ffffff"/>
   </g>
   <g id="matplotlib.axis_1">
    <g id="xtick_1">
     <g id="line2d_1">
      <path d="M 115.363636 320.4 
L 115.363636 43.2 
" clip-path="url(#p5a202c904f)" style="fill: none; stroke: #b0b0b0; stroke-width: 0.8; stroke-linecap: square"/>
     </g>
     <g id="line2d_2">
      <defs>
       <path id="m7765a7cbdf" d="M 0 0 
L 0 3.5 
" style="stroke: #000000; stroke-width: 0.8"/>
      </defs>
      <g>
       <use xlink:href="#m7765a7cbdf" x="115.363636" y="320.4" style="stroke: #000000; stroke-width: 0.8"/>
      </g>
     </g>
     <g id="text_1">
      <!-- 0 -->
      <g transform="translate(112.182386 334.998438) scale(0.1 -0.1)">
       <defs>
        <path id="DejaVuSans-30" d="M 2034 4250 
Q 1547 4250 1301 3770 
Q 1056 3291 1056 2328 
Q 1056 1369 1301 889 
Q 1547 409 2034 409 
Q 2525 409 2770 889 
Q 3016 1369 3016 2328 
Q 3016 3291 2770 3770 
Q 2525 4250 2034 4250 
z
M 2034 4750 
Q 2819 4750 3233 4129 
Q 3647 3509 3647 2328 
Q 3647 1150 3233 529 
Q 2819 -91 2034 -91 
Q 1250 -91 836 529 
Q 422 1150 422 2328 
Q 422 3509 836 4129 
Q 1250 4750 2034 4750 
z
" transform="scale(0.015625)"/>
       </defs>
       <use xlink:href="#DejaVuSans-30"/>
      </g>
     </g>
    </g>
    <g id="xtick_2">
     <g id="line2d_3">
      <path d="M 217.021498 320.4 
L 217.021498 43.2 
" clip-path="url(#p5a202c904f)" style="fill: none; stroke: #b0b0b0; stroke-width: 0.8; stroke-linecap: square"/>
     </g>
     <g id="line2d_4">
      <g>
       <use xlink:href="#m7765a7cbdf" x="217.021498" y="320.4" style="stroke: #000000; stroke-width: 0.8"/>
      </g>
     </g>
     <g id="text_2">
      <!-- 100 -->
      <g transform="translate(207.477748 334.998438) scale(0.1 -0.1)">
       <defs>
        <path id="DejaVuSans-31" d="M 794 531 
L 1825 531 
L 1825 4091 
L 703 3866 
L 703 4441 
L 1819 4666 
L 2450 4666 
L 2450 531 
L 3481 531 
L 3481 0 
L 794 0 
L 794 531 
z
" transform="scale(0.015625)"/>
       </defs>
       <use xlink:href="#DejaVuSans-31"/>
       <use xlink:href="#DejaVuSans-30" x="63.623047"/>
       <use xlink:href="#DejaVuSans-30" x="127.246094"/>
      </g>
     </g>
    </g>
    <g id="xtick_3">
     <g id="line2d_5">
      <path d="M 318.679359 320.4 
L 318.679359 43.2 
" clip-path="url(#p5a202c904f)" style="fill: none; stroke: #b0b0b0; stroke-width: 0.8; stroke-linecap: square"/>
     </g>
     <g id="line2d_6">
      <g>
       <use xlink:href="#m7765a7cbdf" x="318.679359" y="320.4" style="stroke: #000000; stroke-width: 0.8"/>
      </g>
     </g>
     <g id="text_3">
      <!-- 200 -->
      <g transform="translate(309.135609 334.998438) scale(0.1 -0.1)">
       <defs>
        <path id="DejaVuSans-32" d="M 1228 531 
L 3431 531 
L 3431 0 
L 469 0 
L 469 531 
Q 828 903 1448 1529 
Q 2069 2156 2228 2338 
Q 2531 2678 2651 2914 
Q 2772 3150 2772 3378 
Q 2772 3750 2511 3984 
Q 2250 4219 1831 4219 
Q 1534 4219 1204 4116 
Q 875 4013 500 3803 
L 500 4441 
Q 881 4594 1212 4672 
Q 1544 4750 1819 4750 
Q 2544 4750 2975 4387 
Q 3406 4025 3406 3419 
Q 3406 3131 3298 2873 
Q 3191 2616 2906 2266 
Q 2828 2175 2409 1742 
Q 1991 1309 1228 531 
z
" transform="scale(0.015625)"/>
       </defs>
       <use xlink:href="#DejaVuSans-32"/>
       <use xlink:href="#DejaVuSans-30" x="63.623047"/>
       <use xlink:href="#DejaVuSans-30" x="127.246094"/>
      </g>
     </g>
    </g>
    <g id="xtick_4">
     <g id="line2d_7">
      <path d="M 420.33722 320.4 
L 420.33722 43.2 
" clip-path="url(#p5a202c904f)" style="fill: none; stroke: #b0b0b0; stroke-width: 0.8; stroke-linecap: square"/>
     </g>
     <g id="line2d_8">
      <g>
       <use xlink:href="#m7765a7cbdf" x="420.33722" y="320.4" style="stroke: #000000; stroke-width: 0.8"/>
      </g>
     </g>
     <g id="text_4">
      <!-- 300 -->
      <g transform="translate(410.79347 334.998438) scale(0.1 -0.1)">
       <defs>
        <path id="DejaVuSans-33" d="M 2597 2516 
Q 3050 2419 3304 2112 
Q 3559 1806 3559 1356 
Q 3559 666 3084 287 
Q 2609 -91 1734 -91 
Q 1441 -91 1130 -33 
Q 819 25 488 141 
L 488 750 
Q 750 597 1062 519 
Q 1375 441 1716 441 
Q 2309 441 2620 675 
Q 2931 909 2931 1356 
Q 2931 1769 2642 2001 
Q 2353 2234 1838 2234 
L 1294 2234 
L 1294 2753 
L 1863 2753 
Q 2328 2753 2575 2939 
Q 2822 3125 2822 3475 
Q 2822 3834 2567 4026 
Q 2313 4219 1838 4219 
Q 1578 4219 1281 4162 
Q 984 4106 628 3988 
L 628 4550 
Q 988 4650 1302 4700 
Q 1616 4750 1894 4750 
Q 2613 4750 3031 4423 
Q 3450 4097 3450 3541 
Q 3450 3153 3228 2886 
Q 3006 2619 2597 2516 
z
" transform="scale(0.015625)"/>
       </defs>
       <use xlink:href="#DejaVuSans-33"/>
       <use xlink:href="#DejaVuSans-30" x="63.623047"/>
       <use xlink:href="#DejaVuSans-30" x="127.246094"/>
      </g>
     </g>
    </g>
    <g id="xtick_5">
     <g id="line2d_9">
      <path d="M 521.995081 320.4 
L 521.995081 43.2 
" clip-path="url(#p5a202c904f)" style="fill: none; stroke: #b0b0b0; stroke-width: 0.8; stroke-linecap: square"/>
     </g>
     <g id="line2d_10">
      <g>
       <use xlink:href="#m7765a7cbdf" x="521.995081" y="320.4" style="stroke: #000000; stroke-width: 0.8"/>
      </g>
     </g>
     <g id="text_5">
      <!-- 400 -->
      <g transform="translate(512.451331 334.998438) scale(0.1 -0.1)">
       <defs>
        <path id="DejaVuSans-34" d="M 2419 4116 
L 825 1625 
L 2419 1625 
L 2419 4116 
z
M 2253 4666 
L 3047 4666 
L 3047 1625 
L 3713 1625 
L 3713 1100 
L 3047 1100 
L 3047 0 
L 2419 0 
L 2419 1100 
L 313 1100 
L 313 1709 
L 2253 4666 
z
" transform="scale(0.015625)"/>
       </defs>
       <use xlink:href="#DejaVuSans-34"/>
       <use xlink:href="#DejaVuSans-30" x="63.623047"/>
       <use xlink:href="#DejaVuSans-30" x="127.246094"/>
      </g>
     </g>
    </g>
    <g id="xtick_6">
     <g id="line2d_11">
      <path d="M 623.652942 320.4 
L 623.652942 43.2 
" clip-path="url(#p5a202c904f)" style="fill: none; stroke: #b0b0b0; stroke-width: 0.8; stroke-linecap: square"/>
     </g>
     <g id="line2d_12">
      <g>
       <use xlink:href="#m7765a7cbdf" x="623.652942" y="320.4" style="stroke: #000000; stroke-width: 0.8"/>
      </g>
     </g>
     <g id="text_6">
      <!-- 500 -->
      <g transform="translate(614.109192 334.998438) scale(0.1 -0.1)">
       <defs>
        <path id="DejaVuSans-35" d="M 691 4666 
L 3169 4666 
L 3169 4134 
L 1269 4134 
L 1269 2991 
Q 1406 3038 1543 3061 
Q 1681 3084 1819 3084 
Q 2600 3084 3056 2656 
Q 3513 2228 3513 1497 
Q 3513 744 3044 326 
Q 2575 -91 1722 -91 
Q 1428 -91 1123 -41 
Q 819 9 494 109 
L 494 744 
Q 775 591 1075 516 
Q 1375 441 1709 441 
Q 2250 441 2565 725 
Q 2881 1009 2881 1497 
Q 2881 1984 2565 2268 
Q 2250 2553 1709 2553 
Q 1456 2553 1204 2497 
Q 953 2441 691 2322 
L 691 4666 
z
" transform="scale(0.015625)"/>
       </defs>
       <use xlink:href="#DejaVuSans-35"/>
       <use xlink:href="#DejaVuSans-30" x="63.623047"/>
       <use xlink:href="#DejaVuSans-30" x="127.246094"/>
      </g>
     </g>
    </g>
    <g id="text_7">
     <!-- epoch -->
     <g transform="translate(353.771875 348.676562) scale(0.1 -0.1)">
      <defs>
       <path id="DejaVuSans-65" d="M 3597 1894 
L 3597 1613 
L 953 1613 
Q 991 1019 1311 708 
Q 1631 397 2203 397 
Q 2534 397 2845 478 
Q 3156 559 3463 722 
L 3463 178 
Q 3153 47 2828 -22 
Q 2503 -91 2169 -91 
Q 1331 -91 842 396 
Q 353 884 353 1716 
Q 353 2575 817 3079 
Q 1281 3584 2069 3584 
Q 2775 3584 3186 3129 
Q 3597 2675 3597 1894 
z
M 3022 2063 
Q 3016 2534 2758 2815 
Q 2500 3097 2075 3097 
Q 1594 3097 1305 2825 
Q 1016 2553 972 2059 
L 3022 2063 
z
" transform="scale(0.015625)"/>
       <path id="DejaVuSans-70" d="M 1159 525 
L 1159 -1331 
L 581 -1331 
L 581 3500 
L 1159 3500 
L 1159 2969 
Q 1341 3281 1617 3432 
Q 1894 3584 2278 3584 
Q 2916 3584 3314 3078 
Q 3713 2572 3713 1747 
Q 3713 922 3314 415 
Q 2916 -91 2278 -91 
Q 1894 -91 1617 61 
Q 1341 213 1159 525 
z
M 3116 1747 
Q 3116 2381 2855 2742 
Q 2594 3103 2138 3103 
Q 1681 3103 1420 2742 
Q 1159 2381 1159 1747 
Q 1159 1113 1420 752 
Q 1681 391 2138 391 
Q 2594 391 2855 752 
Q 3116 1113 3116 1747 
z
" transform="scale(0.015625)"/>
       <path id="DejaVuSans-6f" d="M 1959 3097 
Q 1497 3097 1228 2736 
Q 959 2375 959 1747 
Q 959 1119 1226 758 
Q 1494 397 1959 397 
Q 2419 397 2687 759 
Q 2956 1122 2956 1747 
Q 2956 2369 2687 2733 
Q 2419 3097 1959 3097 
z
M 1959 3584 
Q 2709 3584 3137 3096 
Q 3566 2609 3566 1747 
Q 3566 888 3137 398 
Q 2709 -91 1959 -91 
Q 1206 -91 779 398 
Q 353 888 353 1747 
Q 353 2609 779 3096 
Q 1206 3584 1959 3584 
z
" transform="scale(0.015625)"/>
       <path id="DejaVuSans-63" d="M 3122 3366 
L 3122 2828 
Q 2878 2963 2633 3030 
Q 2388 3097 2138 3097 
Q 1578 3097 1268 2742 
Q 959 2388 959 1747 
Q 959 1106 1268 751 
Q 1578 397 2138 397 
Q 2388 397 2633 464 
Q 2878 531 3122 666 
L 3122 134 
Q 2881 22 2623 -34 
Q 2366 -91 2075 -91 
Q 1284 -91 818 406 
Q 353 903 353 1747 
Q 353 2603 823 3093 
Q 1294 3584 2113 3584 
Q 2378 3584 2631 3529 
Q 2884 3475 3122 3366 
z
" transform="scale(0.015625)"/>
       <path id="DejaVuSans-68" d="M 3513 2113 
L 3513 0 
L 2938 0 
L 2938 2094 
Q 2938 2591 2744 2837 
Q 2550 3084 2163 3084 
Q 1697 3084 1428 2787 
Q 1159 2491 1159 1978 
L 1159 0 
L 581 0 
L 581 4863 
L 1159 4863 
L 1159 2956 
Q 1366 3272 1645 3428 
Q 1925 3584 2291 3584 
Q 2894 3584 3203 3211 
Q 3513 2838 3513 2113 
z
" transform="scale(0.015625)"/>
      </defs>
      <use xlink:href="#DejaVuSans-65"/>
      <use xlink:href="#DejaVuSans-70" x="61.523438"/>
      <use xlink:href="#DejaVuSans-6f" x="125"/>
      <use xlink:href="#DejaVuSans-63" x="186.181641"/>
      <use xlink:href="#DejaVuSans-68" x="241.162109"/>
     </g>
    </g>
   </g>
   <g id="matplotlib.axis_2">
    <g id="ytick_1">
     <g id="line2d_13">
      <path d="M 90 309.805027 
L 648 309.805027 
" clip-path="url(#p5a202c904f)" style="fill: none; stroke: #b0b0b0; stroke-width: 0.8; stroke-linecap: square"/>
     </g>
     <g id="line2d_14">
      <defs>
       <path id="md3196682b3" d="M 0 0 
L -3.5 0 
" style="stroke: #000000; stroke-width: 0.8"/>
      </defs>
      <g>
       <use xlink:href="#md3196682b3" x="90" y="309.805027" style="stroke: #000000; stroke-width: 0.8"/>
      </g>
     </g>
     <g id="text_8">
      <!-- 0.0 -->
      <g transform="translate(67.096875 313.604246) scale(0.1 -0.1)">
       <defs>
        <path id="DejaVuSans-2e" d="M 684 794 
L 1344 794 
L 1344 0 
L 684 0 
L 684 794 
z
" transform="scale(0.015625)"/>
       </defs>
       <use xlink:href="#DejaVuSans-30"/>
       <use xlink:href="#DejaVuSans-2e" x="63.623047"/>
       <use xlink:href="#DejaVuSans-30" x="95.410156"/>
      </g>
     </g>
    </g>
    <g id="ytick_2">
     <g id="line2d_15">
      <path d="M 90 255.284867 
L 648 255.284867 
" clip-path="url(#p5a202c904f)" style="fill: none; stroke: #b0b0b0; stroke-width: 0.8; stroke-linecap: square"/>
     </g>
     <g id="line2d_16">
      <g>
       <use xlink:href="#md3196682b3" x="90" y="255.284867" style="stroke: #000000; stroke-width: 0.8"/>
      </g>
     </g>
     <g id="text_9">
      <!-- 0.5 -->
      <g transform="translate(67.096875 259.084086) scale(0.1 -0.1)">
       <use xlink:href="#DejaVuSans-30"/>
       <use xlink:href="#DejaVuSans-2e" x="63.623047"/>
       <use xlink:href="#DejaVuSans-35" x="95.410156"/>
      </g>
     </g>
    </g>
    <g id="ytick_3">
     <g id="line2d_17">
      <path d="M 90 200.764707 
L 648 200.764707 
" clip-path="url(#p5a202c904f)" style="fill: none; stroke: #b0b0b0; stroke-width: 0.8; stroke-linecap: square"/>
     </g>
     <g id="line2d_18">
      <g>
       <use xlink:href="#md3196682b3" x="90" y="200.764707" style="stroke: #000000; stroke-width: 0.8"/>
      </g>
     </g>
     <g id="text_10">
      <!-- 1.0 -->
      <g transform="translate(67.096875 204.563926) scale(0.1 -0.1)">
       <use xlink:href="#DejaVuSans-31"/>
       <use xlink:href="#DejaVuSans-2e" x="63.623047"/>
       <use xlink:href="#DejaVuSans-30" x="95.410156"/>
      </g>
     </g>
    </g>
    <g id="ytick_4">
     <g id="line2d_19">
      <path d="M 90 146.244548 
L 648 146.244548 
" clip-path="url(#p5a202c904f)" style="fill: none; stroke: #b0b0b0; stroke-width: 0.8; stroke-linecap: square"/>
     </g>
     <g id="line2d_20">
      <g>
       <use xlink:href="#md3196682b3" x="90" y="146.244548" style="stroke: #000000; stroke-width: 0.8"/>
      </g>
     </g>
     <g id="text_11">
      <!-- 1.5 -->
      <g transform="translate(67.096875 150.043766) scale(0.1 -0.1)">
       <use xlink:href="#DejaVuSans-31"/>
       <use xlink:href="#DejaVuSans-2e" x="63.623047"/>
       <use xlink:href="#DejaVuSans-35" x="95.410156"/>
      </g>
     </g>
    </g>
    <g id="ytick_5">
     <g id="line2d_21">
      <path d="M 90 91.724388 
L 648 91.724388 
" clip-path="url(#p5a202c904f)" style="fill: none; stroke: #b0b0b0; stroke-width: 0.8; stroke-linecap: square"/>
     </g>
     <g id="line2d_22">
      <g>
       <use xlink:href="#md3196682b3" x="90" y="91.724388" style="stroke: #000000; stroke-width: 0.8"/>
      </g>
     </g>
     <g id="text_12">
      <!-- 2.0 -->
      <g transform="translate(67.096875 95.523606) scale(0.1 -0.1)">
       <use xlink:href="#DejaVuSans-32"/>
       <use xlink:href="#DejaVuSans-2e" x="63.623047"/>
       <use xlink:href="#DejaVuSans-30" x="95.410156"/>
      </g>
     </g>
    </g>
    <g id="text_13">
     <!-- loss -->
     <g transform="translate(61.017187 191.457812) rotate(-90) scale(0.1 -0.1)">
      <defs>
       <path id="DejaVuSans-6c" d="M 603 4863 
L 1178 4863 
L 1178 0 
L 603 0 
L 603 4863 
z
" transform="scale(0.015625)"/>
       <path id="DejaVuSans-73" d="M 2834 3397 
L 2834 2853 
Q 2591 2978 2328 3040 
Q 2066 3103 1784 3103 
Q 1356 3103 1142 2972 
Q 928 2841 928 2578 
Q 928 2378 1081 2264 
Q 1234 2150 1697 2047 
L 1894 2003 
Q 2506 1872 2764 1633 
Q 3022 1394 3022 966 
Q 3022 478 2636 193 
Q 2250 -91 1575 -91 
Q 1294 -91 989 -36 
Q 684 19 347 128 
L 347 722 
Q 666 556 975 473 
Q 1284 391 1588 391 
Q 1994 391 2212 530 
Q 2431 669 2431 922 
Q 2431 1156 2273 1281 
Q 2116 1406 1581 1522 
L 1381 1569 
Q 847 1681 609 1914 
Q 372 2147 372 2553 
Q 372 3047 722 3315 
Q 1072 3584 1716 3584 
Q 2034 3584 2315 3537 
Q 2597 3491 2834 3397 
z
" transform="scale(0.015625)"/>
      </defs>
      <use xlink:href="#DejaVuSans-6c"/>
      <use xlink:href="#DejaVuSans-6f" x="27.783203"/>
      <use xlink:href="#DejaVuSans-73" x="88.964844"/>
      <use xlink:href="#DejaVuSans-73" x="141.064453"/>
     </g>
    </g>
   </g>
   <g id="line2d_23">
    <path d="M 115.363636 300.765028 
L 117.396794 301.839124 
L 120.446529 302.105598 
L 121.463108 302.326142 
L 124.512844 302.523433 
L 125.529422 302.877074 
L 127.56258 302.84196 
L 128.579158 303.130172 
L 129.595737 302.924399 
L 130.612316 303.181338 
L 134.67863 303.538506 
L 135.695209 303.186757 
L 136.711787 303.706098 
L 138.744944 303.533581 
L 139.761523 303.78021 
L 140.778102 303.620413 
L 142.811259 303.995722 
L 144.844416 304.160404 
L 145.860995 303.78363 
L 146.877573 304.013104 
L 147.894152 303.82427 
L 149.927309 304.302393 
L 150.943888 304.186153 
L 151.960466 304.193276 
L 152.977045 304.35329 
L 155.010202 304.379135 
L 156.026781 304.069802 
L 157.043359 304.504357 
L 158.059938 304.381603 
L 159.076517 304.428725 
L 160.093095 304.630809 
L 162.126253 304.456726 
L 163.142831 304.630532 
L 167.209146 304.626236 
L 168.225724 304.938655 
L 171.27546 304.845996 
L 172.292039 304.990838 
L 173.308617 304.987929 
L 174.325196 304.864662 
L 178.39151 305.082539 
L 179.408089 304.949286 
L 180.424668 304.981428 
L 181.441246 305.127293 
L 182.457825 304.913521 
L 183.474403 305.15405 
L 184.490982 304.98433 
L 185.507561 304.982452 
L 186.524139 305.176696 
L 187.540718 305.027912 
L 188.557296 305.214845 
L 190.590454 305.154239 
L 191.607032 305.291657 
L 192.623611 304.998186 
L 193.640189 305.239042 
L 194.656768 305.174754 
L 196.689925 305.367516 
L 198.723083 305.230913 
L 199.739661 305.099213 
L 200.75624 305.402854 
L 201.772818 305.37292 
L 202.789397 305.456504 
L 203.805976 305.386214 
L 205.839133 305.541337 
L 206.855711 305.109256 
L 207.87229 305.458677 
L 208.888869 305.416434 
L 210.922026 305.587945 
L 211.938604 305.467235 
L 212.955183 305.487127 
L 213.971762 305.27211 
L 214.98834 305.602773 
L 216.004919 305.250077 
L 217.021498 305.648049 
L 218.038076 305.620843 
L 219.054655 305.715037 
L 220.071233 305.162365 
L 221.087812 305.452173 
L 222.104391 305.459864 
L 223.120969 305.765226 
L 224.137548 305.660238 
L 225.154126 305.747082 
L 227.187284 305.512666 
L 228.203862 305.859897 
L 229.220441 305.604823 
L 230.237019 305.74605 
L 231.253598 305.54508 
L 232.270177 305.585692 
L 234.303334 305.935823 
L 235.319913 305.752523 
L 237.35307 305.867077 
L 241.419384 305.832915 
L 242.435963 305.960474 
L 243.452541 305.858677 
L 249.552013 306.035842 
L 250.568592 305.862437 
L 251.58517 306.069414 
L 254.634906 305.967214 
L 256.668063 305.887486 
L 257.684642 305.944235 
L 259.717799 305.861391 
L 261.750956 305.972478 
L 262.767535 306.088545 
L 263.784114 306.032548 
L 264.800692 306.11523 
L 265.817271 306.077227 
L 266.83385 306.173193 
L 268.867007 305.985941 
L 269.883585 306.253953 
L 274.966478 306.244813 
L 275.983057 306.106207 
L 278.016214 306.127497 
L 279.032793 306.255344 
L 280.049371 306.159843 
L 284.115686 306.165932 
L 285.132265 306.413008 
L 287.165422 306.22019 
L 288.182 306.228866 
L 289.198579 306.373222 
L 290.215158 306.405021 
L 291.231736 306.164917 
L 292.248315 306.285366 
L 293.264893 306.276305 
L 294.281472 306.435276 
L 295.298051 306.23125 
L 296.314629 306.40737 
L 297.331208 306.212156 
L 298.347786 306.462033 
L 302.414101 306.454826 
L 303.43068 306.241634 
L 304.447258 306.335917 
L 305.463837 306.162708 
L 307.496994 306.351254 
L 310.54673 306.518444 
L 311.563308 306.539398 
L 313.596466 306.128996 
L 314.613044 306.572959 
L 316.646201 306.493123 
L 317.66278 306.128578 
L 318.679359 306.55645 
L 319.695937 306.514054 
L 320.712516 306.604807 
L 322.745673 306.558016 
L 324.77883 306.558234 
L 326.811988 306.326465 
L 327.828566 306.394889 
L 329.861723 306.723295 
L 330.878302 306.537487 
L 332.911459 306.657414 
L 334.944617 306.530033 
L 336.977774 306.616906 
L 337.994352 306.389084 
L 339.010931 306.619586 
L 340.02751 306.494934 
L 341.044088 306.67643 
L 342.060667 306.722337 
L 343.077245 306.5704 
L 344.093824 306.730402 
L 345.110403 306.555484 
L 346.126981 306.170249 
L 347.14356 306.571163 
L 348.160138 306.587194 
L 349.176717 306.780041 
L 350.193296 306.60206 
L 352.226453 306.713402 
L 354.25961 306.831711 
L 356.292767 306.687576 
L 358.325925 306.779255 
L 362.392239 306.76454 
L 363.408818 306.872001 
L 364.425396 306.755382 
L 365.441975 306.855216 
L 366.458553 306.649329 
L 368.491711 306.836705 
L 374.591182 306.804692 
L 375.607761 306.931415 
L 377.640918 306.719266 
L 379.674075 306.868604 
L 382.723811 306.698978 
L 383.74039 306.90859 
L 387.806704 306.786928 
L 389.839862 306.988317 
L 391.873019 306.836721 
L 392.889597 306.638059 
L 393.906176 306.846026 
L 397.97249 306.876514 
L 403.055383 306.977527 
L 404.071962 306.865797 
L 405.088541 306.984124 
L 406.105119 306.842573 
L 407.121698 307.040394 
L 409.154855 306.99903 
L 410.171434 307.154007 
L 411.188012 306.951752 
L 414.237748 307.120738 
L 415.254327 307.027169 
L 417.287484 307.109691 
L 422.370377 306.930444 
L 424.403534 307.010864 
L 425.420113 306.992141 
L 426.436692 307.157479 
L 428.469849 307.008687 
L 429.486427 307.150586 
L 432.536163 307.043744 
L 434.56932 307.15692 
L 435.585899 307.01374 
L 436.602478 307.087943 
L 437.619056 306.974693 
L 438.635635 307.067568 
L 439.652214 306.851338 
L 440.668792 307.127739 
L 441.685371 307.007364 
L 442.701949 307.215099 
L 443.718528 307.091177 
L 447.784842 307.286059 
L 448.801421 307.055947 
L 449.818 307.238482 
L 450.834578 307.156393 
L 452.867735 307.288428 
L 453.884314 307.012668 
L 454.900893 307.19598 
L 457.950629 306.929782 
L 458.967207 307.238557 
L 459.983786 307.104737 
L 461.000364 307.252814 
L 463.033522 307.130725 
L 464.0501 307.272964 
L 471.16615 307.258872 
L 472.182729 307.162878 
L 473.199308 307.292665 
L 475.232465 307.288634 
L 476.249044 307.005464 
L 479.298779 307.387211 
L 480.315358 307.205907 
L 481.331937 307.298682 
L 482.348515 307.222372 
L 485.398251 307.404177 
L 486.41483 307.417025 
L 487.431408 307.228145 
L 488.447987 307.311012 
L 490.481144 307.304783 
L 492.514301 307.513223 
L 494.547459 307.399637 
L 495.564037 307.305525 
L 496.580616 307.350157 
L 497.597194 307.165915 
L 498.613773 307.414021 
L 503.696666 307.309938 
L 504.713245 307.381156 
L 506.746402 307.270021 
L 507.762981 307.404164 
L 508.779559 307.369651 
L 509.796138 307.463735 
L 510.812716 307.366419 
L 511.829295 307.439455 
L 513.862452 307.342753 
L 514.879031 307.480773 
L 515.895609 307.45672 
L 516.912188 307.196847 
L 517.928767 307.463869 
L 519.961924 307.571005 
L 520.978502 307.454898 
L 530.12771 307.513067 
L 531.144289 307.465613 
L 533.177446 307.564389 
L 534.194024 307.428526 
L 540.293496 307.549094 
L 541.310075 307.612008 
L 542.326653 307.329857 
L 544.359811 307.503232 
L 545.376389 307.433365 
L 546.392968 307.584928 
L 547.409546 307.615794 
L 548.426125 307.373981 
L 549.442704 307.33936 
L 550.459282 307.656429 
L 551.475861 307.557218 
L 552.492439 307.628772 
L 556.558754 307.51338 
L 557.575332 307.659978 
L 559.60849 307.528473 
L 560.625068 307.612947 
L 561.641647 307.268868 
L 562.658226 307.667363 
L 563.674804 307.592492 
L 566.72454 307.667459 
L 567.741119 307.594229 
L 569.774276 307.697591 
L 571.807433 307.549442 
L 572.824012 307.704849 
L 574.857169 307.504074 
L 575.873747 307.785316 
L 577.906905 307.330002 
L 578.923483 307.675921 
L 579.940062 307.717982 
L 582.989798 307.455416 
L 584.006376 307.41002 
L 585.022955 307.731883 
L 586.039534 307.652326 
L 587.056112 307.729519 
L 589.089269 307.640112 
L 592.139005 307.746168 
L 594.172163 307.674719 
L 597.221898 307.729114 
L 598.238477 307.479231 
L 600.271634 307.718877 
L 601.288213 307.78266 
L 602.304791 307.630428 
L 603.32137 307.738733 
L 604.337949 307.395262 
L 605.354527 307.702515 
L 607.387684 307.69355 
L 608.404263 307.780328 
L 609.420842 307.697157 
L 610.43742 307.777006 
L 612.470578 307.720327 
L 615.520313 307.689504 
L 616.536892 307.593902 
L 622.636364 307.709996 
L 622.636364 307.709996 
" clip-path="url(#p5a202c904f)" style="fill: none; stroke: #1f77b4; stroke-width: 1.5; stroke-linecap: square"/>
   </g>
   <g id="line2d_24">
    <path d="M 115.363636 128.103883 
L 116.380215 128.346502 
L 117.396794 128.382352 
L 118.413372 128.542508 
L 119.429951 128.230229 
L 120.446529 127.758704 
L 121.463108 127.683091 
L 122.479687 127.801691 
L 123.496265 126.988146 
L 124.512844 127.579063 
L 125.529422 127.201623 
L 126.546001 126.430713 
L 128.579158 126.440228 
L 129.595737 125.909053 
L 130.612316 126.165516 
L 131.628894 126.137504 
L 132.645473 125.331654 
L 133.662051 125.765938 
L 134.67863 125.351711 
L 135.695209 125.566435 
L 136.711787 124.641272 
L 137.728366 124.952952 
L 138.744944 124.81258 
L 139.761523 124.935066 
L 140.778102 124.383314 
L 141.79468 124.382807 
L 142.811259 124.730013 
L 143.827837 124.223184 
L 146.877573 123.676098 
L 147.894152 123.274753 
L 148.910731 123.378625 
L 150.943888 122.649909 
L 151.960466 122.807114 
L 152.977045 122.562103 
L 153.993624 122.530348 
L 155.010202 121.895222 
L 156.026781 121.688375 
L 157.043359 121.266648 
L 159.076517 121.626047 
L 160.093095 121.131462 
L 161.109674 121.106219 
L 163.142831 120.724242 
L 164.15941 120.796774 
L 166.192567 120.53905 
L 167.209146 120.0069 
L 168.225724 119.913544 
L 169.242303 119.948757 
L 172.292039 119.445399 
L 173.308617 119.100948 
L 174.325196 119.216103 
L 175.341774 118.723624 
L 176.358353 118.625082 
L 177.374932 118.680573 
L 179.408089 118.127352 
L 181.441246 117.753121 
L 182.457825 117.327547 
L 183.474403 117.694238 
L 184.490982 117.233813 
L 186.524139 116.889051 
L 187.540718 116.4227 
L 191.607032 116.397573 
L 192.623611 115.760966 
L 194.656768 115.618124 
L 195.673347 114.837843 
L 196.689925 115.083166 
L 197.706504 114.98812 
L 199.739661 115.049097 
L 200.75624 114.597941 
L 201.772818 114.548715 
L 202.789397 114.190538 
L 203.805976 113.530962 
L 204.822554 113.424386 
L 205.839133 112.965548 
L 206.855711 112.990232 
L 207.87229 113.132554 
L 208.888869 112.815154 
L 210.922026 111.982826 
L 211.938604 111.669352 
L 212.955183 111.927218 
L 213.971762 111.92597 
L 214.98834 112.055203 
L 216.004919 111.33504 
L 217.021498 111.666765 
L 218.038076 110.941741 
L 219.054655 111.227685 
L 220.071233 110.685005 
L 221.087812 110.564807 
L 222.104391 110.170013 
L 223.120969 110.3261 
L 224.137548 110.097715 
L 225.154126 110.187457 
L 226.170705 110.403299 
L 227.187284 109.666433 
L 228.203862 109.620509 
L 229.220441 108.993872 
L 230.237019 108.965548 
L 231.253598 109.339115 
L 232.270177 108.694618 
L 234.303334 108.065835 
L 235.319913 108.160062 
L 236.336491 107.984269 
L 237.35307 108.094653 
L 238.369648 107.975326 
L 239.386227 107.370682 
L 240.402806 107.451469 
L 241.419384 107.644329 
L 243.452541 107.16897 
L 244.46912 106.797118 
L 245.485699 107.14955 
L 248.535435 106.609782 
L 249.552013 106.198714 
L 250.568592 106.474973 
L 251.58517 106.036023 
L 253.618328 105.531742 
L 254.634906 105.402847 
L 255.651485 105.138962 
L 256.668063 105.068562 
L 257.684642 105.159656 
L 258.701221 104.516693 
L 259.717799 104.83781 
L 260.734378 104.610114 
L 261.750956 104.698257 
L 262.767535 104.044323 
L 263.784114 103.551467 
L 264.800692 103.255995 
L 265.817271 103.512822 
L 266.83385 103.290663 
L 267.850428 103.382654 
L 268.867007 103.046237 
L 270.900164 103.143583 
L 271.916743 103.004888 
L 272.933321 103.098868 
L 273.9499 102.547727 
L 274.966478 102.707116 
L 275.983057 102.556566 
L 276.999636 101.959084 
L 278.016214 101.984601 
L 279.032793 101.274213 
L 280.049371 101.612125 
L 281.06595 100.856268 
L 282.082529 100.585481 
L 283.099107 100.692655 
L 284.115686 100.342173 
L 285.132265 100.196887 
L 286.148843 99.922318 
L 287.165422 100.009187 
L 288.182 100.413639 
L 289.198579 100.235974 
L 291.231736 99.544812 
L 292.248315 100.011579 
L 293.264893 99.387476 
L 294.281472 99.697532 
L 295.298051 98.677154 
L 296.314629 98.455969 
L 297.331208 98.801369 
L 298.347786 98.430427 
L 299.364365 98.691686 
L 300.380944 98.253581 
L 301.397522 98.654796 
L 302.414101 98.094543 
L 306.480415 97.248762 
L 307.496994 97.298962 
L 308.513573 96.836653 
L 309.530151 97.094637 
L 312.579887 96.431824 
L 313.596466 96.494049 
L 314.613044 96.721681 
L 316.646201 95.763253 
L 317.66278 96.361814 
L 318.679359 95.625702 
L 319.695937 95.637804 
L 320.712516 95.496132 
L 321.729095 94.627408 
L 322.745673 94.917823 
L 323.762252 94.71199 
L 324.77883 95.07096 
L 325.795409 94.584084 
L 326.811988 94.422862 
L 327.828566 93.98681 
L 328.845145 93.404706 
L 329.861723 93.323673 
L 330.878302 93.043591 
L 331.894881 93.456947 
L 332.911459 93.428714 
L 333.928038 93.620171 
L 334.944617 92.946778 
L 336.977774 92.162116 
L 339.010931 92.677862 
L 340.02751 92.356861 
L 341.044088 91.899921 
L 342.060667 92.177168 
L 343.077245 91.786092 
L 344.093824 92.209912 
L 345.110403 92.027034 
L 346.126981 91.034759 
L 347.14356 90.640615 
L 348.160138 91.049109 
L 349.176717 90.922607 
L 350.193296 91.466261 
L 352.226453 90.547493 
L 353.243032 90.335953 
L 354.25961 90.294097 
L 355.276189 90.030641 
L 356.292767 90.829017 
L 357.309346 90.08248 
L 358.325925 90.74099 
L 359.342503 90.323942 
L 360.359082 90.375469 
L 363.408818 89.119022 
L 364.425396 89.187551 
L 367.475132 88.400381 
L 368.491711 88.823226 
L 369.508289 88.573054 
L 370.524868 88.75961 
L 371.541447 88.199682 
L 372.558025 88.745026 
L 373.574604 88.493945 
L 374.591182 87.602863 
L 375.607761 87.993498 
L 376.62434 87.810165 
L 377.640918 87.488268 
L 379.674075 87.119445 
L 380.690654 88.098007 
L 381.707233 87.398733 
L 382.723811 87.736333 
L 383.74039 87.593426 
L 384.756968 87.159169 
L 385.773547 86.505806 
L 386.790126 86.64081 
L 387.806704 86.938582 
L 388.823283 85.966831 
L 389.839862 86.481239 
L 390.85644 86.430908 
L 391.873019 85.885174 
L 393.906176 85.655618 
L 396.955912 85.518405 
L 397.97249 84.905754 
L 398.989069 84.15615 
L 400.005648 84.863898 
L 401.022226 84.541689 
L 402.038805 83.937357 
L 403.055383 83.975365 
L 404.071962 83.446269 
L 406.105119 83.970893 
L 407.121698 83.801599 
L 408.138277 84.320114 
L 409.154855 83.444137 
L 410.171434 82.307148 
L 412.204591 82.808505 
L 413.22117 82.692323 
L 414.237748 82.766987 
L 415.254327 82.34396 
L 416.270905 82.782715 
L 417.287484 82.065868 
L 418.304063 81.901669 
L 421.353799 82.49399 
L 422.370377 81.306384 
L 423.386956 80.89438 
L 424.403534 81.277527 
L 425.420113 81.142134 
L 426.436692 80.784412 
L 427.45327 80.572378 
L 428.469849 80.561303 
L 429.486427 80.072633 
L 430.503006 80.526571 
L 431.519585 80.226823 
L 432.536163 80.412521 
L 433.552742 79.498666 
L 434.56932 79.661851 
L 435.585899 79.068282 
L 436.602478 79.309432 
L 437.619056 79.158336 
L 438.635635 78.803396 
L 439.652214 78.596432 
L 440.668792 78.529619 
L 441.685371 78.958496 
L 442.701949 78.865972 
L 443.718528 78.618972 
L 444.735107 78.5252 
L 445.751685 78.63262 
L 446.768264 78.429166 
L 447.784842 78.585773 
L 448.801421 78.084573 
L 449.818 77.833621 
L 450.834578 77.793689 
L 451.851157 77.253623 
L 452.867735 77.575339 
L 453.884314 76.99703 
L 454.900893 77.626943 
L 455.917471 77.319864 
L 456.93405 76.359994 
L 457.950629 76.889843 
L 458.967207 76.200059 
L 459.983786 75.787457 
L 461.000364 75.646708 
L 462.016943 75.258101 
L 463.033522 75.295303 
L 464.0501 74.940441 
L 465.066679 75.084829 
L 466.083257 74.69955 
L 467.099836 74.85556 
L 468.116415 74.765531 
L 469.132993 75.370617 
L 470.149572 74.749439 
L 471.16615 74.689723 
L 472.182729 75.017756 
L 473.199308 74.089967 
L 474.215886 74.201625 
L 476.249044 74.131745 
L 477.265622 72.948168 
L 478.282201 73.384402 
L 479.298779 72.709332 
L 480.315358 73.629296 
L 481.331937 72.874232 
L 482.348515 72.626348 
L 483.365094 72.941617 
L 484.381672 72.327614 
L 485.398251 72.02992 
L 486.41483 72.080432 
L 487.431408 72.374305 
L 488.447987 71.984295 
L 489.464565 71.027596 
L 490.481144 71.584951 
L 491.497723 71.234716 
L 492.514301 71.643289 
L 493.53088 71.55768 
L 494.547459 70.928365 
L 495.564037 71.302439 
L 496.580616 71.189195 
L 497.597194 70.441801 
L 498.613773 70.079685 
L 500.64693 70.602385 
L 501.663509 69.928277 
L 502.680087 70.54332 
L 503.696666 70.871145 
L 505.729823 70.488362 
L 506.746402 69.587037 
L 507.762981 69.18356 
L 508.779559 69.592757 
L 509.796138 69.878258 
L 510.812716 69.650003 
L 511.829295 68.643858 
L 512.845874 69.408358 
L 513.862452 69.153429 
L 514.879031 69.145864 
L 515.895609 68.758505 
L 516.912188 69.055524 
L 519.961924 68.582244 
L 521.995081 68.089596 
L 523.01166 67.838957 
L 524.028238 67.199035 
L 525.044817 66.828522 
L 526.061396 66.761709 
L 527.077974 66.556227 
L 528.094553 67.397342 
L 529.111131 66.810272 
L 530.12771 66.685798 
L 531.144289 67.011101 
L 532.160867 66.431103 
L 533.177446 66.249772 
L 536.227182 66.426371 
L 537.24376 65.485141 
L 538.260339 65.674219 
L 540.293496 65.628282 
L 541.310075 64.784516 
L 542.326653 65.266062 
L 543.343232 64.624684 
L 544.359811 65.015839 
L 545.376389 64.449827 
L 546.392968 64.128969 
L 547.409546 63.94925 
L 548.426125 64.440364 
L 549.442704 64.621825 
L 550.459282 64.47494 
L 551.475861 63.838372 
L 552.492439 63.544447 
L 553.509018 63.381341 
L 554.525597 63.965681 
L 555.542175 63.484472 
L 556.558754 63.461516 
L 557.575332 64.068864 
L 558.591911 62.518024 
L 561.641647 61.946137 
L 562.658226 62.640835 
L 563.674804 62.232419 
L 564.691383 61.506056 
L 565.707961 61.607939 
L 566.72454 62.213077 
L 567.741119 61.585555 
L 568.757697 61.516247 
L 570.790854 60.923744 
L 571.807433 60.816375 
L 572.824012 60.915399 
L 573.84059 60.336388 
L 574.857169 60.383157 
L 575.873747 59.41255 
L 576.890326 60.173697 
L 577.906905 59.401267 
L 578.923483 59.358788 
L 579.940062 58.818409 
L 580.956641 58.916679 
L 582.989798 58.753312 
L 584.006376 59.459683 
L 585.022955 58.643188 
L 586.039534 59.00247 
L 587.056112 58.473374 
L 588.072691 58.523029 
L 589.089269 58.946212 
L 590.105848 59.212683 
L 592.139005 58.169596 
L 593.155584 58.825767 
L 594.172163 57.817152 
L 595.188741 58.238697 
L 596.20532 58.145185 
L 597.221898 57.802333 
L 599.255056 57.493356 
L 600.271634 57.951401 
L 601.288213 57.455348 
L 603.32137 57.273887 
L 604.337949 56.796864 
L 605.354527 57.336203 
L 607.387684 57.248644 
L 608.404263 56.850028 
L 609.420842 57.077036 
L 610.43742 56.85489 
L 611.453999 56.505851 
L 612.470578 56.918739 
L 614.503735 56.00868 
L 615.520313 55.8 
L 616.536892 56.184993 
L 617.553471 56.364686 
L 618.570049 56.340379 
L 619.586628 56.130659 
L 620.603206 56.341107 
L 622.636364 56.455208 
L 622.636364 56.455208 
" clip-path="url(#p5a202c904f)" style="fill: none; stroke: #ff7f0e; stroke-width: 1.5; stroke-linecap: square"/>
   </g>
   <g id="patch_3">
    <path d="M 90 320.4 
L 90 43.2 
" style="fill: none; stroke: #000000; stroke-width: 0.8; stroke-linejoin: miter; stroke-linecap: square"/>
   </g>
   <g id="patch_4">
    <path d="M 648 320.4 
L 648 43.2 
" style="fill: none; stroke: #000000; stroke-width: 0.8; stroke-linejoin: miter; stroke-linecap: square"/>
   </g>
   <g id="patch_5">
    <path d="M 90 320.4 
L 648 320.4 
" style="fill: none; stroke: #000000; stroke-width: 0.8; stroke-linejoin: miter; stroke-linecap: square"/>
   </g>
   <g id="patch_6">
    <path d="M 90 43.2 
L 648 43.2 
" style="fill: none; stroke: #000000; stroke-width: 0.8; stroke-linejoin: miter; stroke-linecap: square"/>
   </g>
   <g id="text_14">
    <!-- model train and validation loss over time -->
    <g transform="translate(245.555625 37.2) scale(0.12 -0.12)">
     <defs>
      <path id="DejaVuSans-6d" d="M 3328 2828 
Q 3544 3216 3844 3400 
Q 4144 3584 4550 3584 
Q 5097 3584 5394 3201 
Q 5691 2819 5691 2113 
L 5691 0 
L 5113 0 
L 5113 2094 
Q 5113 2597 4934 2840 
Q 4756 3084 4391 3084 
Q 3944 3084 3684 2787 
Q 3425 2491 3425 1978 
L 3425 0 
L 2847 0 
L 2847 2094 
Q 2847 2600 2669 2842 
Q 2491 3084 2119 3084 
Q 1678 3084 1418 2786 
Q 1159 2488 1159 1978 
L 1159 0 
L 581 0 
L 581 3500 
L 1159 3500 
L 1159 2956 
Q 1356 3278 1631 3431 
Q 1906 3584 2284 3584 
Q 2666 3584 2933 3390 
Q 3200 3197 3328 2828 
z
" transform="scale(0.015625)"/>
      <path id="DejaVuSans-64" d="M 2906 2969 
L 2906 4863 
L 3481 4863 
L 3481 0 
L 2906 0 
L 2906 525 
Q 2725 213 2448 61 
Q 2172 -91 1784 -91 
Q 1150 -91 751 415 
Q 353 922 353 1747 
Q 353 2572 751 3078 
Q 1150 3584 1784 3584 
Q 2172 3584 2448 3432 
Q 2725 3281 2906 2969 
z
M 947 1747 
Q 947 1113 1208 752 
Q 1469 391 1925 391 
Q 2381 391 2643 752 
Q 2906 1113 2906 1747 
Q 2906 2381 2643 2742 
Q 2381 3103 1925 3103 
Q 1469 3103 1208 2742 
Q 947 2381 947 1747 
z
" transform="scale(0.015625)"/>
      <path id="DejaVuSans-20" transform="scale(0.015625)"/>
      <path id="DejaVuSans-74" d="M 1172 4494 
L 1172 3500 
L 2356 3500 
L 2356 3053 
L 1172 3053 
L 1172 1153 
Q 1172 725 1289 603 
Q 1406 481 1766 481 
L 2356 481 
L 2356 0 
L 1766 0 
Q 1100 0 847 248 
Q 594 497 594 1153 
L 594 3053 
L 172 3053 
L 172 3500 
L 594 3500 
L 594 4494 
L 1172 4494 
z
" transform="scale(0.015625)"/>
      <path id="DejaVuSans-72" d="M 2631 2963 
Q 2534 3019 2420 3045 
Q 2306 3072 2169 3072 
Q 1681 3072 1420 2755 
Q 1159 2438 1159 1844 
L 1159 0 
L 581 0 
L 581 3500 
L 1159 3500 
L 1159 2956 
Q 1341 3275 1631 3429 
Q 1922 3584 2338 3584 
Q 2397 3584 2469 3576 
Q 2541 3569 2628 3553 
L 2631 2963 
z
" transform="scale(0.015625)"/>
      <path id="DejaVuSans-61" d="M 2194 1759 
Q 1497 1759 1228 1600 
Q 959 1441 959 1056 
Q 959 750 1161 570 
Q 1363 391 1709 391 
Q 2188 391 2477 730 
Q 2766 1069 2766 1631 
L 2766 1759 
L 2194 1759 
z
M 3341 1997 
L 3341 0 
L 2766 0 
L 2766 531 
Q 2569 213 2275 61 
Q 1981 -91 1556 -91 
Q 1019 -91 701 211 
Q 384 513 384 1019 
Q 384 1609 779 1909 
Q 1175 2209 1959 2209 
L 2766 2209 
L 2766 2266 
Q 2766 2663 2505 2880 
Q 2244 3097 1772 3097 
Q 1472 3097 1187 3025 
Q 903 2953 641 2809 
L 641 3341 
Q 956 3463 1253 3523 
Q 1550 3584 1831 3584 
Q 2591 3584 2966 3190 
Q 3341 2797 3341 1997 
z
" transform="scale(0.015625)"/>
      <path id="DejaVuSans-69" d="M 603 3500 
L 1178 3500 
L 1178 0 
L 603 0 
L 603 3500 
z
M 603 4863 
L 1178 4863 
L 1178 4134 
L 603 4134 
L 603 4863 
z
" transform="scale(0.015625)"/>
      <path id="DejaVuSans-6e" d="M 3513 2113 
L 3513 0 
L 2938 0 
L 2938 2094 
Q 2938 2591 2744 2837 
Q 2550 3084 2163 3084 
Q 1697 3084 1428 2787 
Q 1159 2491 1159 1978 
L 1159 0 
L 581 0 
L 581 3500 
L 1159 3500 
L 1159 2956 
Q 1366 3272 1645 3428 
Q 1925 3584 2291 3584 
Q 2894 3584 3203 3211 
Q 3513 2838 3513 2113 
z
" transform="scale(0.015625)"/>
      <path id="DejaVuSans-76" d="M 191 3500 
L 800 3500 
L 1894 563 
L 2988 3500 
L 3597 3500 
L 2284 0 
L 1503 0 
L 191 3500 
z
" transform="scale(0.015625)"/>
     </defs>
     <use xlink:href="#DejaVuSans-6d"/>
     <use xlink:href="#DejaVuSans-6f" x="97.412109"/>
     <use xlink:href="#DejaVuSans-64" x="158.59375"/>
     <use xlink:href="#DejaVuSans-65" x="222.070312"/>
     <use xlink:href="#DejaVuSans-6c" x="283.59375"/>
     <use xlink:href="#DejaVuSans-20" x="311.376953"/>
     <use xlink:href="#DejaVuSans-74" x="343.164062"/>
     <use xlink:href="#DejaVuSans-72" x="382.373047"/>
     <use xlink:href="#DejaVuSans-61" x="423.486328"/>
     <use xlink:href="#DejaVuSans-69" x="484.765625"/>
     <use xlink:href="#DejaVuSans-6e" x="512.548828"/>
     <use xlink:href="#DejaVuSans-20" x="575.927734"/>
     <use xlink:href="#DejaVuSans-61" x="607.714844"/>
     <use xlink:href="#DejaVuSans-6e" x="668.994141"/>
     <use xlink:href="#DejaVuSans-64" x="732.373047"/>
     <use xlink:href="#DejaVuSans-20" x="795.849609"/>
     <use xlink:href="#DejaVuSans-76" x="827.636719"/>
     <use xlink:href="#DejaVuSans-61" x="886.816406"/>
     <use xlink:href="#DejaVuSans-6c" x="948.095703"/>
     <use xlink:href="#DejaVuSans-69" x="975.878906"/>
     <use xlink:href="#DejaVuSans-64" x="1003.662109"/>
     <use xlink:href="#DejaVuSans-61" x="1067.138672"/>
     <use xlink:href="#DejaVuSans-74" x="1128.417969"/>
     <use xlink:href="#DejaVuSans-69" x="1167.626953"/>
     <use xlink:href="#DejaVuSans-6f" x="1195.410156"/>
     <use xlink:href="#DejaVuSans-6e" x="1256.591797"/>
     <use xlink:href="#DejaVuSans-20" x="1319.970703"/>
     <use xlink:href="#DejaVuSans-6c" x="1351.757812"/>
     <use xlink:href="#DejaVuSans-6f" x="1379.541016"/>
     <use xlink:href="#DejaVuSans-73" x="1440.722656"/>
     <use xlink:href="#DejaVuSans-73" x="1492.822266"/>
     <use xlink:href="#DejaVuSans-20" x="1544.921875"/>
     <use xlink:href="#DejaVuSans-6f" x="1576.708984"/>
     <use xlink:href="#DejaVuSans-76" x="1637.890625"/>
     <use xlink:href="#DejaVuSans-65" x="1697.070312"/>
     <use xlink:href="#DejaVuSans-72" x="1758.59375"/>
     <use xlink:href="#DejaVuSans-20" x="1799.707031"/>
     <use xlink:href="#DejaVuSans-74" x="1831.494141"/>
     <use xlink:href="#DejaVuSans-69" x="1870.703125"/>
     <use xlink:href="#DejaVuSans-6d" x="1898.486328"/>
     <use xlink:href="#DejaVuSans-65" x="1995.898438"/>
    </g>
   </g>
   <g id="legend_1">
    <g id="patch_7">
     <path d="M 97 80.55625 
L 178.234375 80.55625 
Q 180.234375 80.55625 180.234375 78.55625 
L 180.234375 50.2 
Q 180.234375 48.2 178.234375 48.2 
L 97 48.2 
Q 95 48.2 95 50.2 
L 95 78.55625 
Q 95 80.55625 97 80.55625 
z
" style="fill: #ffffff; opacity: 0.8; stroke: #cccccc; stroke-linejoin: miter"/>
    </g>
    <g id="line2d_25">
     <path d="M 99 56.298437 
L 109 56.298437 
L 119 56.298437 
" style="fill: none; stroke: #1f77b4; stroke-width: 1.5; stroke-linecap: square"/>
    </g>
    <g id="text_15">
     <!-- train -->
     <g transform="translate(127 59.798437) scale(0.1 -0.1)">
      <use xlink:href="#DejaVuSans-74"/>
      <use xlink:href="#DejaVuSans-72" x="39.208984"/>
      <use xlink:href="#DejaVuSans-61" x="80.322266"/>
      <use xlink:href="#DejaVuSans-69" x="141.601562"/>
      <use xlink:href="#DejaVuSans-6e" x="169.384766"/>
     </g>
    </g>
    <g id="line2d_26">
     <path d="M 99 70.976562 
L 109 70.976562 
L 119 70.976562 
" style="fill: none; stroke: #ff7f0e; stroke-width: 1.5; stroke-linecap: square"/>
    </g>
    <g id="text_16">
     <!-- validation -->
     <g transform="translate(127 74.476562) scale(0.1 -0.1)">
      <use xlink:href="#DejaVuSans-76"/>
      <use xlink:href="#DejaVuSans-61" x="59.179688"/>
      <use xlink:href="#DejaVuSans-6c" x="120.458984"/>
      <use xlink:href="#DejaVuSans-69" x="148.242188"/>
      <use xlink:href="#DejaVuSans-64" x="176.025391"/>
      <use xlink:href="#DejaVuSans-61" x="239.501953"/>
      <use xlink:href="#DejaVuSans-74" x="300.78125"/>
      <use xlink:href="#DejaVuSans-69" x="339.990234"/>
      <use xlink:href="#DejaVuSans-6f" x="367.773438"/>
      <use xlink:href="#DejaVuSans-6e" x="428.955078"/>
     </g>
    </g>
   </g>
  </g>
 </g>
 <defs>
  <clipPath id="p5a202c904f">
   <rect x="90" y="43.2" width="558" height="277.2"/>
  </clipPath>
 </defs>
</svg>
