<?xml version="1.0" encoding="utf-8" standalone="no"?>
<!DOCTYPE svg PUBLIC "-//W3C//DTD SVG 1.1//EN"
  "http://www.w3.org/Graphics/SVG/1.1/DTD/svg11.dtd">
<svg xmlns:xlink="http://www.w3.org/1999/xlink" width="720pt" height="360pt" viewBox="0 0 720 360" xmlns="http://www.w3.org/2000/svg" version="1.1">
 <metadata>
  <rdf:RDF xmlns:dc="http://purl.org/dc/elements/1.1/" xmlns:cc="http://creativecommons.org/ns#" xmlns:rdf="http://www.w3.org/1999/02/22-rdf-syntax-ns#">
   <cc:Work>
    <dc:type rdf:resource="http://purl.org/dc/dcmitype/StillImage"/>
    <dc:date>2023-05-24T12:07:15.145175</dc:date>
    <dc:format>image/svg+xml</dc:format>
    <dc:creator>
     <cc:Agent>
      <dc:title>Matplotlib v3.7.1, https://matplotlib.org/</dc:title>
     </cc:Agent>
    </dc:creator>
   </cc:Work>
  </rdf:RDF>
 </metadata>
 <defs>
  <style type="text/css">*{stroke-linejoin: round; stroke-linecap: butt}</style>
 </defs>
 <g id="figure_1">
  <g id="patch_1">
   <path d="M 0 360 
L 720 360 
L 720 0 
L 0 0 
z
" style="fill: #ffffff"/>
  </g>
  <g id="axes_1">
   <g id="patch_2">
    <path d="M 90 320.4 
L 648 320.4 
L 648 43.2 
L 90 43.2 
z
" style="fill: #ffffff"/>
   </g>
   <g id="matplotlib.axis_1">
    <g id="xtick_1">
     <g id="line2d_1">
      <path d="M 115.363636 320.4 
L 115.363636 43.2 
" clip-path="url(#pd1ad2fa8d9)" style="fill: none; stroke: #b0b0b0; stroke-width: 0.8; stroke-linecap: square"/>
     </g>
     <g id="line2d_2">
      <defs>
       <path id="m863eb919a2" d="M 0 0 
L 0 3.5 
" style="stroke: #000000; stroke-width: 0.8"/>
      </defs>
      <g>
       <use xlink:href="#m863eb919a2" x="115.363636" y="320.4" style="stroke: #000000; stroke-width: 0.8"/>
      </g>
     </g>
     <g id="text_1">
      <!-- 0 -->
      <g transform="translate(112.182386 334.998438) scale(0.1 -0.1)">
       <defs>
        <path id="DejaVuSans-30" d="M 2034 4250 
Q 1547 4250 1301 3770 
Q 1056 3291 1056 2328 
Q 1056 1369 1301 889 
Q 1547 409 2034 409 
Q 2525 409 2770 889 
Q 3016 1369 3016 2328 
Q 3016 3291 2770 3770 
Q 2525 4250 2034 4250 
z
M 2034 4750 
Q 2819 4750 3233 4129 
Q 3647 3509 3647 2328 
Q 3647 1150 3233 529 
Q 2819 -91 2034 -91 
Q 1250 -91 836 529 
Q 422 1150 422 2328 
Q 422 3509 836 4129 
Q 1250 4750 2034 4750 
z
" transform="scale(0.015625)"/>
       </defs>
       <use xlink:href="#DejaVuSans-30"/>
      </g>
     </g>
    </g>
    <g id="xtick_2">
     <g id="line2d_3">
      <path d="M 217.021498 320.4 
L 217.021498 43.2 
" clip-path="url(#pd1ad2fa8d9)" style="fill: none; stroke: #b0b0b0; stroke-width: 0.8; stroke-linecap: square"/>
     </g>
     <g id="line2d_4">
      <g>
       <use xlink:href="#m863eb919a2" x="217.021498" y="320.4" style="stroke: #000000; stroke-width: 0.8"/>
      </g>
     </g>
     <g id="text_2">
      <!-- 100 -->
      <g transform="translate(207.477748 334.998438) scale(0.1 -0.1)">
       <defs>
        <path id="DejaVuSans-31" d="M 794 531 
L 1825 531 
L 1825 4091 
L 703 3866 
L 703 4441 
L 1819 4666 
L 2450 4666 
L 2450 531 
L 3481 531 
L 3481 0 
L 794 0 
L 794 531 
z
" transform="scale(0.015625)"/>
       </defs>
       <use xlink:href="#DejaVuSans-31"/>
       <use xlink:href="#DejaVuSans-30" x="63.623047"/>
       <use xlink:href="#DejaVuSans-30" x="127.246094"/>
      </g>
     </g>
    </g>
    <g id="xtick_3">
     <g id="line2d_5">
      <path d="M 318.679359 320.4 
L 318.679359 43.2 
" clip-path="url(#pd1ad2fa8d9)" style="fill: none; stroke: #b0b0b0; stroke-width: 0.8; stroke-linecap: square"/>
     </g>
     <g id="line2d_6">
      <g>
       <use xlink:href="#m863eb919a2" x="318.679359" y="320.4" style="stroke: #000000; stroke-width: 0.8"/>
      </g>
     </g>
     <g id="text_3">
      <!-- 200 -->
      <g transform="translate(309.135609 334.998438) scale(0.1 -0.1)">
       <defs>
        <path id="DejaVuSans-32" d="M 1228 531 
L 3431 531 
L 3431 0 
L 469 0 
L 469 531 
Q 828 903 1448 1529 
Q 2069 2156 2228 2338 
Q 2531 2678 2651 2914 
Q 2772 3150 2772 3378 
Q 2772 3750 2511 3984 
Q 2250 4219 1831 4219 
Q 1534 4219 1204 4116 
Q 875 4013 500 3803 
L 500 4441 
Q 881 4594 1212 4672 
Q 1544 4750 1819 4750 
Q 2544 4750 2975 4387 
Q 3406 4025 3406 3419 
Q 3406 3131 3298 2873 
Q 3191 2616 2906 2266 
Q 2828 2175 2409 1742 
Q 1991 1309 1228 531 
z
" transform="scale(0.015625)"/>
       </defs>
       <use xlink:href="#DejaVuSans-32"/>
       <use xlink:href="#DejaVuSans-30" x="63.623047"/>
       <use xlink:href="#DejaVuSans-30" x="127.246094"/>
      </g>
     </g>
    </g>
    <g id="xtick_4">
     <g id="line2d_7">
      <path d="M 420.33722 320.4 
L 420.33722 43.2 
" clip-path="url(#pd1ad2fa8d9)" style="fill: none; stroke: #b0b0b0; stroke-width: 0.8; stroke-linecap: square"/>
     </g>
     <g id="line2d_8">
      <g>
       <use xlink:href="#m863eb919a2" x="420.33722" y="320.4" style="stroke: #000000; stroke-width: 0.8"/>
      </g>
     </g>
     <g id="text_4">
      <!-- 300 -->
      <g transform="translate(410.79347 334.998438) scale(0.1 -0.1)">
       <defs>
        <path id="DejaVuSans-33" d="M 2597 2516 
Q 3050 2419 3304 2112 
Q 3559 1806 3559 1356 
Q 3559 666 3084 287 
Q 2609 -91 1734 -91 
Q 1441 -91 1130 -33 
Q 819 25 488 141 
L 488 750 
Q 750 597 1062 519 
Q 1375 441 1716 441 
Q 2309 441 2620 675 
Q 2931 909 2931 1356 
Q 2931 1769 2642 2001 
Q 2353 2234 1838 2234 
L 1294 2234 
L 1294 2753 
L 1863 2753 
Q 2328 2753 2575 2939 
Q 2822 3125 2822 3475 
Q 2822 3834 2567 4026 
Q 2313 4219 1838 4219 
Q 1578 4219 1281 4162 
Q 984 4106 628 3988 
L 628 4550 
Q 988 4650 1302 4700 
Q 1616 4750 1894 4750 
Q 2613 4750 3031 4423 
Q 3450 4097 3450 3541 
Q 3450 3153 3228 2886 
Q 3006 2619 2597 2516 
z
" transform="scale(0.015625)"/>
       </defs>
       <use xlink:href="#DejaVuSans-33"/>
       <use xlink:href="#DejaVuSans-30" x="63.623047"/>
       <use xlink:href="#DejaVuSans-30" x="127.246094"/>
      </g>
     </g>
    </g>
    <g id="xtick_5">
     <g id="line2d_9">
      <path d="M 521.995081 320.4 
L 521.995081 43.2 
" clip-path="url(#pd1ad2fa8d9)" style="fill: none; stroke: #b0b0b0; stroke-width: 0.8; stroke-linecap: square"/>
     </g>
     <g id="line2d_10">
      <g>
       <use xlink:href="#m863eb919a2" x="521.995081" y="320.4" style="stroke: #000000; stroke-width: 0.8"/>
      </g>
     </g>
     <g id="text_5">
      <!-- 400 -->
      <g transform="translate(512.451331 334.998438) scale(0.1 -0.1)">
       <defs>
        <path id="DejaVuSans-34" d="M 2419 4116 
L 825 1625 
L 2419 1625 
L 2419 4116 
z
M 2253 4666 
L 3047 4666 
L 3047 1625 
L 3713 1625 
L 3713 1100 
L 3047 1100 
L 3047 0 
L 2419 0 
L 2419 1100 
L 313 1100 
L 313 1709 
L 2253 4666 
z
" transform="scale(0.015625)"/>
       </defs>
       <use xlink:href="#DejaVuSans-34"/>
       <use xlink:href="#DejaVuSans-30" x="63.623047"/>
       <use xlink:href="#DejaVuSans-30" x="127.246094"/>
      </g>
     </g>
    </g>
    <g id="xtick_6">
     <g id="line2d_11">
      <path d="M 623.652942 320.4 
L 623.652942 43.2 
" clip-path="url(#pd1ad2fa8d9)" style="fill: none; stroke: #b0b0b0; stroke-width: 0.8; stroke-linecap: square"/>
     </g>
     <g id="line2d_12">
      <g>
       <use xlink:href="#m863eb919a2" x="623.652942" y="320.4" style="stroke: #000000; stroke-width: 0.8"/>
      </g>
     </g>
     <g id="text_6">
      <!-- 500 -->
      <g transform="translate(614.109192 334.998438) scale(0.1 -0.1)">
       <defs>
        <path id="DejaVuSans-35" d="M 691 4666 
L 3169 4666 
L 3169 4134 
L 1269 4134 
L 1269 2991 
Q 1406 3038 1543 3061 
Q 1681 3084 1819 3084 
Q 2600 3084 3056 2656 
Q 3513 2228 3513 1497 
Q 3513 744 3044 326 
Q 2575 -91 1722 -91 
Q 1428 -91 1123 -41 
Q 819 9 494 109 
L 494 744 
Q 775 591 1075 516 
Q 1375 441 1709 441 
Q 2250 441 2565 725 
Q 2881 1009 2881 1497 
Q 2881 1984 2565 2268 
Q 2250 2553 1709 2553 
Q 1456 2553 1204 2497 
Q 953 2441 691 2322 
L 691 4666 
z
" transform="scale(0.015625)"/>
       </defs>
       <use xlink:href="#DejaVuSans-35"/>
       <use xlink:href="#DejaVuSans-30" x="63.623047"/>
       <use xlink:href="#DejaVuSans-30" x="127.246094"/>
      </g>
     </g>
    </g>
    <g id="text_7">
     <!-- epoch -->
     <g transform="translate(353.771875 348.676562) scale(0.1 -0.1)">
      <defs>
       <path id="DejaVuSans-65" d="M 3597 1894 
L 3597 1613 
L 953 1613 
Q 991 1019 1311 708 
Q 1631 397 2203 397 
Q 2534 397 2845 478 
Q 3156 559 3463 722 
L 3463 178 
Q 3153 47 2828 -22 
Q 2503 -91 2169 -91 
Q 1331 -91 842 396 
Q 353 884 353 1716 
Q 353 2575 817 3079 
Q 1281 3584 2069 3584 
Q 2775 3584 3186 3129 
Q 3597 2675 3597 1894 
z
M 3022 2063 
Q 3016 2534 2758 2815 
Q 2500 3097 2075 3097 
Q 1594 3097 1305 2825 
Q 1016 2553 972 2059 
L 3022 2063 
z
" transform="scale(0.015625)"/>
       <path id="DejaVuSans-70" d="M 1159 525 
L 1159 -1331 
L 581 -1331 
L 581 3500 
L 1159 3500 
L 1159 2969 
Q 1341 3281 1617 3432 
Q 1894 3584 2278 3584 
Q 2916 3584 3314 3078 
Q 3713 2572 3713 1747 
Q 3713 922 3314 415 
Q 2916 -91 2278 -91 
Q 1894 -91 1617 61 
Q 1341 213 1159 525 
z
M 3116 1747 
Q 3116 2381 2855 2742 
Q 2594 3103 2138 3103 
Q 1681 3103 1420 2742 
Q 1159 2381 1159 1747 
Q 1159 1113 1420 752 
Q 1681 391 2138 391 
Q 2594 391 2855 752 
Q 3116 1113 3116 1747 
z
" transform="scale(0.015625)"/>
       <path id="DejaVuSans-6f" d="M 1959 3097 
Q 1497 3097 1228 2736 
Q 959 2375 959 1747 
Q 959 1119 1226 758 
Q 1494 397 1959 397 
Q 2419 397 2687 759 
Q 2956 1122 2956 1747 
Q 2956 2369 2687 2733 
Q 2419 3097 1959 3097 
z
M 1959 3584 
Q 2709 3584 3137 3096 
Q 3566 2609 3566 1747 
Q 3566 888 3137 398 
Q 2709 -91 1959 -91 
Q 1206 -91 779 398 
Q 353 888 353 1747 
Q 353 2609 779 3096 
Q 1206 3584 1959 3584 
z
" transform="scale(0.015625)"/>
       <path id="DejaVuSans-63" d="M 3122 3366 
L 3122 2828 
Q 2878 2963 2633 3030 
Q 2388 3097 2138 3097 
Q 1578 3097 1268 2742 
Q 959 2388 959 1747 
Q 959 1106 1268 751 
Q 1578 397 2138 397 
Q 2388 397 2633 464 
Q 2878 531 3122 666 
L 3122 134 
Q 2881 22 2623 -34 
Q 2366 -91 2075 -91 
Q 1284 -91 818 406 
Q 353 903 353 1747 
Q 353 2603 823 3093 
Q 1294 3584 2113 3584 
Q 2378 3584 2631 3529 
Q 2884 3475 3122 3366 
z
" transform="scale(0.015625)"/>
       <path id="DejaVuSans-68" d="M 3513 2113 
L 3513 0 
L 2938 0 
L 2938 2094 
Q 2938 2591 2744 2837 
Q 2550 3084 2163 3084 
Q 1697 3084 1428 2787 
Q 1159 2491 1159 1978 
L 1159 0 
L 581 0 
L 581 4863 
L 1159 4863 
L 1159 2956 
Q 1366 3272 1645 3428 
Q 1925 3584 2291 3584 
Q 2894 3584 3203 3211 
Q 3513 2838 3513 2113 
z
" transform="scale(0.015625)"/>
      </defs>
      <use xlink:href="#DejaVuSans-65"/>
      <use xlink:href="#DejaVuSans-70" x="61.523438"/>
      <use xlink:href="#DejaVuSans-6f" x="125"/>
      <use xlink:href="#DejaVuSans-63" x="186.181641"/>
      <use xlink:href="#DejaVuSans-68" x="241.162109"/>
     </g>
    </g>
   </g>
   <g id="matplotlib.axis_2">
    <g id="ytick_1">
     <g id="line2d_13">
      <path d="M 90 301.24372 
L 648 301.24372 
" clip-path="url(#pd1ad2fa8d9)" style="fill: none; stroke: #b0b0b0; stroke-width: 0.8; stroke-linecap: square"/>
     </g>
     <g id="line2d_14">
      <defs>
       <path id="mafe5e5d0f3" d="M 0 0 
L -3.5 0 
" style="stroke: #000000; stroke-width: 0.8"/>
      </defs>
      <g>
       <use xlink:href="#mafe5e5d0f3" x="90" y="301.24372" style="stroke: #000000; stroke-width: 0.8"/>
      </g>
     </g>
     <g id="text_8">
      <!-- 0.34 -->
      <g transform="translate(60.734375 305.042938) scale(0.1 -0.1)">
       <defs>
        <path id="DejaVuSans-2e" d="M 684 794 
L 1344 794 
L 1344 0 
L 684 0 
L 684 794 
z
" transform="scale(0.015625)"/>
       </defs>
       <use xlink:href="#DejaVuSans-30"/>
       <use xlink:href="#DejaVuSans-2e" x="63.623047"/>
       <use xlink:href="#DejaVuSans-33" x="95.410156"/>
       <use xlink:href="#DejaVuSans-34" x="159.033203"/>
      </g>
     </g>
    </g>
    <g id="ytick_2">
     <g id="line2d_15">
      <path d="M 90 247.93932 
L 648 247.93932 
" clip-path="url(#pd1ad2fa8d9)" style="fill: none; stroke: #b0b0b0; stroke-width: 0.8; stroke-linecap: square"/>
     </g>
     <g id="line2d_16">
      <g>
       <use xlink:href="#mafe5e5d0f3" x="90" y="247.93932" style="stroke: #000000; stroke-width: 0.8"/>
      </g>
     </g>
     <g id="text_9">
      <!-- 0.36 -->
      <g transform="translate(60.734375 251.738539) scale(0.1 -0.1)">
       <defs>
        <path id="DejaVuSans-36" d="M 2113 2584 
Q 1688 2584 1439 2293 
Q 1191 2003 1191 1497 
Q 1191 994 1439 701 
Q 1688 409 2113 409 
Q 2538 409 2786 701 
Q 3034 994 3034 1497 
Q 3034 2003 2786 2293 
Q 2538 2584 2113 2584 
z
M 3366 4563 
L 3366 3988 
Q 3128 4100 2886 4159 
Q 2644 4219 2406 4219 
Q 1781 4219 1451 3797 
Q 1122 3375 1075 2522 
Q 1259 2794 1537 2939 
Q 1816 3084 2150 3084 
Q 2853 3084 3261 2657 
Q 3669 2231 3669 1497 
Q 3669 778 3244 343 
Q 2819 -91 2113 -91 
Q 1303 -91 875 529 
Q 447 1150 447 2328 
Q 447 3434 972 4092 
Q 1497 4750 2381 4750 
Q 2619 4750 2861 4703 
Q 3103 4656 3366 4563 
z
" transform="scale(0.015625)"/>
       </defs>
       <use xlink:href="#DejaVuSans-30"/>
       <use xlink:href="#DejaVuSans-2e" x="63.623047"/>
       <use xlink:href="#DejaVuSans-33" x="95.410156"/>
       <use xlink:href="#DejaVuSans-36" x="159.033203"/>
      </g>
     </g>
    </g>
    <g id="ytick_3">
     <g id="line2d_17">
      <path d="M 90 194.634921 
L 648 194.634921 
" clip-path="url(#pd1ad2fa8d9)" style="fill: none; stroke: #b0b0b0; stroke-width: 0.8; stroke-linecap: square"/>
     </g>
     <g id="line2d_18">
      <g>
       <use xlink:href="#mafe5e5d0f3" x="90" y="194.634921" style="stroke: #000000; stroke-width: 0.8"/>
      </g>
     </g>
     <g id="text_10">
      <!-- 0.38 -->
      <g transform="translate(60.734375 198.434139) scale(0.1 -0.1)">
       <defs>
        <path id="DejaVuSans-38" d="M 2034 2216 
Q 1584 2216 1326 1975 
Q 1069 1734 1069 1313 
Q 1069 891 1326 650 
Q 1584 409 2034 409 
Q 2484 409 2743 651 
Q 3003 894 3003 1313 
Q 3003 1734 2745 1975 
Q 2488 2216 2034 2216 
z
M 1403 2484 
Q 997 2584 770 2862 
Q 544 3141 544 3541 
Q 544 4100 942 4425 
Q 1341 4750 2034 4750 
Q 2731 4750 3128 4425 
Q 3525 4100 3525 3541 
Q 3525 3141 3298 2862 
Q 3072 2584 2669 2484 
Q 3125 2378 3379 2068 
Q 3634 1759 3634 1313 
Q 3634 634 3220 271 
Q 2806 -91 2034 -91 
Q 1263 -91 848 271 
Q 434 634 434 1313 
Q 434 1759 690 2068 
Q 947 2378 1403 2484 
z
M 1172 3481 
Q 1172 3119 1398 2916 
Q 1625 2713 2034 2713 
Q 2441 2713 2670 2916 
Q 2900 3119 2900 3481 
Q 2900 3844 2670 4047 
Q 2441 4250 2034 4250 
Q 1625 4250 1398 4047 
Q 1172 3844 1172 3481 
z
" transform="scale(0.015625)"/>
       </defs>
       <use xlink:href="#DejaVuSans-30"/>
       <use xlink:href="#DejaVuSans-2e" x="63.623047"/>
       <use xlink:href="#DejaVuSans-33" x="95.410156"/>
       <use xlink:href="#DejaVuSans-38" x="159.033203"/>
      </g>
     </g>
    </g>
    <g id="ytick_4">
     <g id="line2d_19">
      <path d="M 90 141.330521 
L 648 141.330521 
" clip-path="url(#pd1ad2fa8d9)" style="fill: none; stroke: #b0b0b0; stroke-width: 0.8; stroke-linecap: square"/>
     </g>
     <g id="line2d_20">
      <g>
       <use xlink:href="#mafe5e5d0f3" x="90" y="141.330521" style="stroke: #000000; stroke-width: 0.8"/>
      </g>
     </g>
     <g id="text_11">
      <!-- 0.40 -->
      <g transform="translate(60.734375 145.12974) scale(0.1 -0.1)">
       <use xlink:href="#DejaVuSans-30"/>
       <use xlink:href="#DejaVuSans-2e" x="63.623047"/>
       <use xlink:href="#DejaVuSans-34" x="95.410156"/>
       <use xlink:href="#DejaVuSans-30" x="159.033203"/>
      </g>
     </g>
    </g>
    <g id="ytick_5">
     <g id="line2d_21">
      <path d="M 90 88.026122 
L 648 88.026122 
" clip-path="url(#pd1ad2fa8d9)" style="fill: none; stroke: #b0b0b0; stroke-width: 0.8; stroke-linecap: square"/>
     </g>
     <g id="line2d_22">
      <g>
       <use xlink:href="#mafe5e5d0f3" x="90" y="88.026122" style="stroke: #000000; stroke-width: 0.8"/>
      </g>
     </g>
     <g id="text_12">
      <!-- 0.42 -->
      <g transform="translate(60.734375 91.82534) scale(0.1 -0.1)">
       <use xlink:href="#DejaVuSans-30"/>
       <use xlink:href="#DejaVuSans-2e" x="63.623047"/>
       <use xlink:href="#DejaVuSans-34" x="95.410156"/>
       <use xlink:href="#DejaVuSans-32" x="159.033203"/>
      </g>
     </g>
    </g>
    <g id="text_13">
     <!-- accruacy -->
     <g transform="translate(54.654687 204.359375) rotate(-90) scale(0.1 -0.1)">
      <defs>
       <path id="DejaVuSans-61" d="M 2194 1759 
Q 1497 1759 1228 1600 
Q 959 1441 959 1056 
Q 959 750 1161 570 
Q 1363 391 1709 391 
Q 2188 391 2477 730 
Q 2766 1069 2766 1631 
L 2766 1759 
L 2194 1759 
z
M 3341 1997 
L 3341 0 
L 2766 0 
L 2766 531 
Q 2569 213 2275 61 
Q 1981 -91 1556 -91 
Q 1019 -91 701 211 
Q 384 513 384 1019 
Q 384 1609 779 1909 
Q 1175 2209 1959 2209 
L 2766 2209 
L 2766 2266 
Q 2766 2663 2505 2880 
Q 2244 3097 1772 3097 
Q 1472 3097 1187 3025 
Q 903 2953 641 2809 
L 641 3341 
Q 956 3463 1253 3523 
Q 1550 3584 1831 3584 
Q 2591 3584 2966 3190 
Q 3341 2797 3341 1997 
z
" transform="scale(0.015625)"/>
       <path id="DejaVuSans-72" d="M 2631 2963 
Q 2534 3019 2420 3045 
Q 2306 3072 2169 3072 
Q 1681 3072 1420 2755 
Q 1159 2438 1159 1844 
L 1159 0 
L 581 0 
L 581 3500 
L 1159 3500 
L 1159 2956 
Q 1341 3275 1631 3429 
Q 1922 3584 2338 3584 
Q 2397 3584 2469 3576 
Q 2541 3569 2628 3553 
L 2631 2963 
z
" transform="scale(0.015625)"/>
       <path id="DejaVuSans-75" d="M 544 1381 
L 544 3500 
L 1119 3500 
L 1119 1403 
Q 1119 906 1312 657 
Q 1506 409 1894 409 
Q 2359 409 2629 706 
Q 2900 1003 2900 1516 
L 2900 3500 
L 3475 3500 
L 3475 0 
L 2900 0 
L 2900 538 
Q 2691 219 2414 64 
Q 2138 -91 1772 -91 
Q 1169 -91 856 284 
Q 544 659 544 1381 
z
M 1991 3584 
L 1991 3584 
z
" transform="scale(0.015625)"/>
       <path id="DejaVuSans-79" d="M 2059 -325 
Q 1816 -950 1584 -1140 
Q 1353 -1331 966 -1331 
L 506 -1331 
L 506 -850 
L 844 -850 
Q 1081 -850 1212 -737 
Q 1344 -625 1503 -206 
L 1606 56 
L 191 3500 
L 800 3500 
L 1894 763 
L 2988 3500 
L 3597 3500 
L 2059 -325 
z
" transform="scale(0.015625)"/>
      </defs>
      <use xlink:href="#DejaVuSans-61"/>
      <use xlink:href="#DejaVuSans-63" x="61.279297"/>
      <use xlink:href="#DejaVuSans-63" x="116.259766"/>
      <use xlink:href="#DejaVuSans-72" x="171.240234"/>
      <use xlink:href="#DejaVuSans-75" x="212.353516"/>
      <use xlink:href="#DejaVuSans-61" x="275.732422"/>
      <use xlink:href="#DejaVuSans-63" x="337.011719"/>
      <use xlink:href="#DejaVuSans-79" x="391.992188"/>
     </g>
    </g>
   </g>
   <g id="line2d_23">
    <path d="M 115.363636 279.194331 
L 116.380215 266.085722 
L 117.396794 215.252909 
L 118.413372 228.361518 
L 119.429951 262.671514 
L 120.446529 198.013716 
L 121.463108 191.522558 
L 122.479687 55.8 
L 123.496265 271.902442 
L 124.512844 239.278342 
L 125.529422 214.831455 
L 126.546001 237.845271 
L 127.56258 202.734384 
L 128.579158 235.27413 
L 129.595737 189.330774 
L 130.612316 218.96212 
L 131.628894 227.940064 
L 132.645473 272.787527 
L 133.662051 286.907753 
L 134.67863 229.963219 
L 135.695209 224.062224 
L 136.711787 238.140352 
L 137.728366 216.643962 
L 138.744944 190.426666 
L 139.761523 199.910419 
L 140.778102 217.950502 
L 141.79468 270.595743 
L 142.811259 196.116934 
L 143.827837 199.910419 
L 144.844416 225.537552 
L 145.860995 165.937681 
L 146.877573 201.807122 
L 147.894152 242.776746 
L 148.910731 212.471041 
L 149.927309 192.323369 
L 150.943888 238.056077 
L 151.960466 199.910419 
L 152.977045 224.44166 
L 153.993624 206.443595 
L 155.010202 192.323369 
L 156.026781 207.623841 
L 157.043359 255.253173 
L 158.059938 193.124259 
L 159.076517 201.807122 
L 160.093095 237.381639 
L 161.109674 247.750477 
L 162.126253 222.039069 
L 163.142831 239.151969 
L 164.15941 200.626954 
L 165.175988 217.234046 
L 166.192567 235.864293 
L 167.209146 182.839696 
L 168.225724 205.347702 
L 169.242303 201.554217 
L 170.258881 222.460523 
L 171.27546 216.643962 
L 172.292039 193.630068 
L 173.308617 194.220231 
L 174.325196 231.733549 
L 175.341774 205.432057 
L 176.358353 238.435354 
L 177.374932 192.323369 
L 178.39151 198.013716 
L 179.408089 262.165705 
L 180.424668 224.947469 
L 181.441246 217.739855 
L 182.457825 224.230853 
L 183.474403 206.612224 
L 184.490982 197.339198 
L 185.507561 201.807122 
L 186.524139 209.731351 
L 187.540718 196.327581 
L 188.557296 211.543699 
L 189.573875 193.419341 
L 190.590454 242.060289 
L 191.607032 200.331873 
L 192.623611 205.937786 
L 193.640189 188.529884 
L 194.656768 249.436453 
L 195.673347 194.220231 
L 196.689925 192.323369 
L 197.706504 208.045295 
L 198.723083 186.633181 
L 199.739661 232.239357 
L 200.75624 231.354192 
L 201.772818 230.173946 
L 202.789397 188.529884 
L 203.805976 188.529884 
L 204.822554 239.362696 
L 205.839133 225.959006 
L 206.855711 220.058012 
L 207.87229 240.964397 
L 208.888869 212.428944 
L 209.905447 213.1454 
L 210.922026 207.033758 
L 211.938604 188.529884 
L 212.955183 196.116934 
L 213.971762 201.807122 
L 214.98834 198.013716 
L 216.004919 201.34349 
L 217.021498 240.964397 
L 218.038076 197.128471 
L 219.054655 198.013716 
L 220.071233 228.066436 
L 221.087812 215.126537 
L 222.104391 241.975935 
L 223.120969 192.407723 
L 224.137548 205.516332 
L 225.154126 203.029545 
L 226.170705 198.013716 
L 227.187284 198.519524 
L 228.203862 243.788363 
L 229.220441 233.756783 
L 230.237019 226.254088 
L 231.253598 223.134961 
L 232.270177 190.426666 
L 233.286755 233.250975 
L 234.303334 206.232947 
L 235.319913 205.642784 
L 236.336491 187.349796 
L 237.35307 217.950502 
L 238.369648 230.384752 
L 239.386227 196.116934 
L 240.402806 210.237159 
L 241.419384 188.529884 
L 242.435963 223.935851 
L 243.452541 206.443595 
L 244.46912 267.476616 
L 245.485699 194.220231 
L 246.502277 214.747101 
L 247.518856 193.208613 
L 248.535435 228.656679 
L 249.552013 201.807122 
L 250.568592 182.628969 
L 251.58517 252.682032 
L 252.601749 196.116934 
L 253.618328 222.755605 
L 254.634906 214.831455 
L 255.651485 225.537552 
L 256.668063 196.116934 
L 257.684642 212.766123 
L 258.701221 206.275045 
L 259.717799 233.040168 
L 260.734378 209.731351 
L 261.750956 231.143465 
L 262.767535 209.436349 
L 263.784114 196.116934 
L 264.800692 206.443595 
L 265.817271 194.220231 
L 266.83385 217.149612 
L 267.850428 217.444773 
L 268.867007 236.580749 
L 269.883585 227.054978 
L 270.900164 237.971643 
L 271.916743 238.140352 
L 272.933321 196.116934 
L 273.9499 184.736478 
L 274.966478 197.718634 
L 275.983057 262.460787 
L 276.999636 181.828078 
L 278.016214 223.177138 
L 279.032793 205.136975 
L 280.049371 253.187761 
L 281.06595 192.323369 
L 282.082529 226.043361 
L 283.099107 209.225542 
L 284.115686 198.645897 
L 285.132265 196.116934 
L 286.148843 230.25838 
L 287.165422 230.173946 
L 288.182 216.643962 
L 289.198579 194.72596 
L 290.215158 215.843072 
L 291.231736 182.502516 
L 292.248315 225.368923 
L 293.264893 194.220231 
L 294.281472 238.646161 
L 295.298051 245.7695 
L 296.314629 233.377347 
L 297.331208 216.728237 
L 298.347786 226.254088 
L 299.364365 192.829178 
L 300.380944 201.722847 
L 301.397522 214.325647 
L 302.414101 224.652387 
L 303.43068 224.947469 
L 304.447258 205.474234 
L 305.463837 194.220231 
L 306.480415 260.184727 
L 307.496994 220.479545 
L 308.513573 247.877009 
L 309.530151 209.056913 
L 310.54673 221.322533 
L 311.563308 191.944092 
L 312.579887 222.839959 
L 313.596466 239.657778 
L 314.613044 231.649274 
L 315.629623 203.324547 
L 316.646201 192.534175 
L 317.66278 221.027452 
L 318.679359 233.756783 
L 319.695937 231.05919 
L 320.712516 208.551104 
L 321.729095 239.741973 
L 322.745673 215.843072 
L 323.762252 245.095062 
L 324.77883 222.039069 
L 325.795409 240.964397 
L 327.828566 212.344589 
L 328.845145 216.85461 
L 329.861723 233.16662 
L 330.878302 235.948568 
L 331.894881 197.718634 
L 332.911459 203.240193 
L 333.928038 232.450085 
L 334.944617 215.927347 
L 335.961195 221.322533 
L 336.977774 191.354008 
L 337.994352 231.143465 
L 339.010931 214.325647 
L 340.02751 207.539487 
L 341.044088 186.633181 
L 342.060667 229.752571 
L 343.077245 237.04446 
L 345.110403 188.824965 
L 346.126981 200.331873 
L 347.14356 260.690536 
L 348.160138 199.910419 
L 349.176717 203.914631 
L 350.193296 192.534175 
L 351.209874 206.02214 
L 352.226453 202.945191 
L 353.243032 231.564919 
L 354.25961 217.149612 
L 355.276189 208.045295 
L 356.292767 210.110628 
L 357.309346 220.521643 
L 358.325925 234.47324 
L 359.342503 235.653486 
L 361.37566 201.807122 
L 362.392239 218.540665 
L 363.408818 215.463716 
L 364.425396 192.323369 
L 365.441975 198.013716 
L 366.458553 180.142103 
L 367.475132 241.343674 
L 368.491711 260.395375 
L 369.508289 196.327581 
L 370.524868 219.636558 
L 371.541447 258.962383 
L 372.558025 224.652387 
L 373.574604 226.844171 
L 374.591182 227.560628 
L 375.607761 208.340298 
L 376.62434 225.284648 
L 377.640918 192.323369 
L 378.657497 203.703904 
L 379.674075 255.295271 
L 380.690654 192.323369 
L 381.707233 214.157017 
L 382.723811 228.867326 
L 383.74039 240.753591 
L 384.756968 210.237159 
L 385.773547 240.542864 
L 386.790126 219.552203 
L 387.806704 202.439382 
L 388.823283 214.831455 
L 389.839862 202.439382 
L 390.85644 229.078054 
L 391.873019 198.013716 
L 392.889597 219.552203 
L 393.906176 194.135876 
L 394.922755 223.851576 
L 395.939333 190.426666 
L 396.955912 204.041083 
L 397.97249 180.942993 
L 398.989069 216.85461 
L 400.005648 219.257122 
L 401.022226 232.281455 
L 402.038805 219.215024 
L 403.055383 208.424731 
L 404.071962 179.509842 
L 405.088541 219.046474 
L 406.105119 217.866227 
L 407.121698 225.242471 
L 408.138277 238.477452 
L 409.154855 212.428944 
L 410.171434 198.224443 
L 411.188012 227.434255 
L 412.204591 240.753591 
L 413.22117 204.841894 
L 414.237748 213.524836 
L 415.254327 213.651209 
L 416.270905 257.065601 
L 417.287484 206.35932 
L 418.304063 216.643962 
L 419.320641 215.168634 
L 420.33722 211.248697 
L 421.353799 208.551104 
L 422.370377 234.852675 
L 423.386956 207.539487 
L 424.403534 259.974 
L 425.420113 232.745166 
L 426.436692 218.034857 
L 427.45327 248.172011 
L 428.469849 231.143465 
L 429.486427 176.011359 
L 431.519585 224.44166 
L 432.536163 218.034857 
L 433.552742 199.615337 
L 434.56932 213.651209 
L 435.585899 229.541764 
L 436.602478 235.063403 
L 437.619056 249.857987 
L 438.635635 210.363532 
L 439.652214 223.050686 
L 440.668792 212.133862 
L 441.685371 214.452099 
L 442.701949 209.520544 
L 443.718528 214.452099 
L 444.735107 208.551104 
L 445.751685 199.910419 
L 446.768264 223.725045 
L 447.784842 215.084359 
L 448.801421 231.649274 
L 449.818 257.866491 
L 450.834578 251.164606 
L 451.851157 198.013716 
L 452.867735 220.73245 
L 453.884314 232.745166 
L 454.900893 240.880043 
L 455.917471 215.800895 
L 456.93405 231.269838 
L 457.950629 261.744172 
L 458.967207 213.862015 
L 459.983786 202.945191 
L 461.000364 200.331873 
L 462.016943 239.657778 
L 463.033522 227.982241 
L 464.0501 262.08143 
L 465.066679 217.529048 
L 466.083257 224.44166 
L 467.099836 202.017928 
L 468.116415 229.626039 
L 469.132993 235.864293 
L 470.149572 197.423632 
L 471.16615 219.130749 
L 472.182729 296.81296 
L 473.199308 214.747101 
L 474.215886 188.529884 
L 475.232465 221.828342 
L 476.249044 238.98326 
L 477.265622 210.06853 
L 478.282201 218.161229 
L 479.298779 175.252805 
L 480.315358 218.034857 
L 481.331937 206.654401 
L 482.348515 226.928446 
L 483.365094 239.278342 
L 484.381672 221.153904 
L 485.398251 251.58606 
L 486.41483 218.62494 
L 487.431408 232.660891 
L 488.447987 227.054978 
L 489.464565 222.249876 
L 490.481144 188.529884 
L 491.497723 215.337264 
L 492.514301 211.248697 
L 493.53088 224.146578 
L 494.547459 211.248697 
L 495.564037 225.242471 
L 496.580616 207.750214 
L 497.597194 204.336085 
L 498.613773 209.056913 
L 499.630352 188.529884 
L 500.64693 215.632345 
L 501.663509 192.323369 
L 502.680087 208.635458 
L 503.696666 214.831455 
L 504.713245 192.323369 
L 505.729823 223.134961 
L 506.746402 200.964134 
L 507.762981 231.480645 
L 508.779559 227.054978 
L 509.796138 231.05919 
L 510.812716 220.943177 
L 511.829295 245.390064 
L 512.845874 215.843072 
L 513.862452 211.543699 
L 514.879031 205.811413 
L 515.895609 216.433156 
L 516.912188 217.149612 
L 517.928767 214.620728 
L 518.945345 250.995977 
L 519.961924 250.363795 
L 520.978502 187.138989 
L 521.995081 192.323369 
L 523.01166 215.084359 
L 524.028238 229.752571 
L 525.044817 219.76293 
L 526.061396 226.970624 
L 527.077974 216.85461 
L 528.094553 220.56382 
L 529.111131 222.755605 
L 530.12771 203.535275 
L 531.144289 248.67782 
L 532.160867 213.356206 
L 533.177446 213.1454 
L 534.194024 207.413114 
L 535.210603 205.432057 
L 536.227182 255.168898 
L 537.24376 190.426666 
L 538.260339 231.649274 
L 539.276917 203.703904 
L 540.293496 223.050686 
L 541.310075 210.237159 
L 542.326653 216.517431 
L 543.343232 254.283733 
L 544.359811 259.299483 
L 545.376389 222.418425 
L 546.392968 253.567197 
L 547.409546 192.323369 
L 548.426125 210.026353 
L 549.442704 288.888731 
L 550.459282 182.12316 
L 551.475861 209.520544 
L 552.492439 202.355107 
L 553.509018 225.621827 
L 554.525597 231.564919 
L 555.542175 241.975935 
L 556.558754 213.440561 
L 557.575332 221.954715 
L 558.591911 196.116934 
L 559.60849 203.11382 
L 560.625068 201.807122 
L 561.641647 237.170833 
L 562.658226 232.239357 
L 563.674804 205.937786 
L 564.691383 238.856888 
L 565.707961 228.530147 
L 566.72454 227.054978 
L 567.741119 186.211727 
L 568.757697 231.860001 
L 569.774276 254.368008 
L 570.790854 209.815626 
L 571.807433 251.080411 
L 572.824012 227.771434 
L 573.84059 190.426666 
L 574.857169 196.201208 
L 575.873747 235.063403 
L 576.890326 192.323369 
L 577.906905 181.533076 
L 578.923483 252.977114 
L 579.940062 239.573344 
L 580.956641 188.529884 
L 581.973219 214.873632 
L 584.006376 190.426666 
L 585.022955 192.61853 
L 586.039534 213.314029 
L 587.056112 207.750214 
L 588.072691 226.464815 
L 589.089269 210.152805 
L 590.105848 209.731351 
L 591.122427 217.149612 
L 592.139005 206.527949 
L 593.155584 218.456311 
L 594.172163 206.232947 
L 595.188741 216.728237 
L 596.20532 224.44166 
L 597.221898 183.514054 
L 598.238477 198.013716 
L 599.255056 205.853511 
L 600.271634 212.218137 
L 601.288213 195.821931 
L 602.304791 242.271016 
L 603.32137 240.753591 
L 604.337949 240.753591 
L 605.354527 237.381639 
L 606.371106 208.635458 
L 607.387684 228.783052 
L 608.404263 213.440561 
L 609.420842 187.729073 
L 610.43742 198.013716 
L 611.453999 206.232947 
L 612.470578 218.245663 
L 613.487156 184.736478 
L 614.503735 204.841894 
L 615.520313 196.454113 
L 616.536892 195.653302 
L 617.553471 256.475517 
L 618.570049 190.426666 
L 619.586628 219.341555 
L 621.619785 204.167535 
L 622.636364 218.96212 
L 622.636364 218.96212 
" clip-path="url(#pd1ad2fa8d9)" style="fill: none; stroke: #1f77b4; stroke-width: 1.5; stroke-linecap: square"/>
   </g>
   <g id="line2d_24">
    <path d="M 115.363636 307.8 
L 116.380215 307.8 
L 117.396794 126.808524 
L 120.446529 126.808524 
L 121.463108 307.8 
L 122.479687 126.808524 
L 123.496265 307.8 
L 124.512844 126.808524 
L 125.529422 126.808524 
L 126.546001 307.8 
L 128.579158 307.8 
L 129.595737 126.808524 
L 131.628894 126.808524 
L 132.645473 307.8 
L 133.662051 126.808524 
L 139.761523 126.808524 
L 140.778102 307.8 
L 141.79468 126.808524 
L 142.811259 126.808524 
L 143.827837 307.8 
L 144.844416 126.808524 
L 146.877573 126.808524 
L 147.894152 307.8 
L 148.910731 126.808524 
L 155.010202 126.808524 
L 156.026781 307.8 
L 157.043359 307.8 
L 158.059938 126.808524 
L 159.076517 307.8 
L 160.093095 126.808524 
L 162.126253 126.808524 
L 163.142831 307.8 
L 164.15941 126.808524 
L 170.258881 126.808524 
L 171.27546 307.8 
L 172.292039 126.808524 
L 173.308617 126.808524 
L 174.325196 307.8 
L 175.341774 126.808524 
L 178.39151 126.808524 
L 179.408089 307.8 
L 180.424668 307.8 
L 181.441246 126.808524 
L 182.457825 126.808524 
L 183.474403 307.8 
L 184.490982 126.808524 
L 185.507561 126.808524 
L 186.524139 307.8 
L 187.540718 126.808524 
L 188.557296 126.808524 
L 189.573875 307.8 
L 190.590454 126.808524 
L 191.607032 307.8 
L 192.623611 126.808524 
L 204.822554 126.808524 
L 205.839133 307.8 
L 207.87229 307.8 
L 208.888869 126.808524 
L 214.98834 126.808524 
L 216.004919 307.8 
L 217.021498 307.8 
L 218.038076 126.808524 
L 219.054655 307.8 
L 220.071233 126.808524 
L 222.104391 126.808524 
L 223.120969 307.8 
L 224.137548 126.808524 
L 226.170705 126.808524 
L 227.187284 307.8 
L 228.203862 126.808524 
L 234.303334 126.808524 
L 235.319913 307.8 
L 236.336491 126.808524 
L 246.502277 126.808524 
L 247.518856 307.8 
L 248.535435 126.808524 
L 249.552013 126.808524 
L 250.568592 307.8 
L 251.58517 126.808524 
L 266.83385 126.808524 
L 267.850428 307.8 
L 268.867007 126.808524 
L 269.883585 307.8 
L 270.900164 126.808524 
L 273.9499 126.808524 
L 274.966478 307.8 
L 275.983057 126.808524 
L 276.999636 307.8 
L 278.016214 126.808524 
L 279.032793 307.8 
L 280.049371 126.808524 
L 294.281472 126.808524 
L 295.298051 307.8 
L 296.314629 307.8 
L 297.331208 126.808524 
L 299.364365 126.808524 
L 300.380944 307.8 
L 301.397522 307.8 
L 302.414101 126.808524 
L 306.480415 126.808524 
L 307.496994 307.8 
L 308.513573 126.808524 
L 312.579887 126.808524 
L 313.596466 307.8 
L 314.613044 126.808524 
L 320.712516 126.808524 
L 321.729095 307.8 
L 322.745673 307.8 
L 323.762252 126.808524 
L 324.77883 307.8 
L 325.795409 126.808524 
L 330.878302 126.808524 
L 331.894881 307.8 
L 332.911459 126.808524 
L 334.944617 126.808524 
L 335.961195 307.8 
L 336.977774 126.808524 
L 342.060667 126.808524 
L 343.077245 307.8 
L 344.093824 126.808524 
L 345.110403 307.8 
L 346.126981 307.8 
L 347.14356 126.808524 
L 348.160138 126.808524 
L 349.176717 307.8 
L 350.193296 126.808524 
L 358.325925 126.808524 
L 359.342503 307.8 
L 360.359082 126.808524 
L 365.441975 126.808524 
L 366.458553 307.8 
L 367.475132 307.8 
L 368.491711 126.808524 
L 371.541447 126.808524 
L 372.558025 307.8 
L 373.574604 126.808524 
L 381.707233 126.808524 
L 382.723811 307.8 
L 385.773547 307.8 
L 386.790126 126.808524 
L 388.823283 126.808524 
L 389.839862 307.8 
L 390.85644 126.808524 
L 401.022226 126.808524 
L 402.038805 307.8 
L 403.055383 126.808524 
L 410.171434 126.808524 
L 411.188012 307.8 
L 412.204591 126.808524 
L 413.22117 126.808524 
L 414.237748 307.8 
L 415.254327 126.808524 
L 417.287484 126.808524 
L 418.304063 307.8 
L 419.320641 126.808524 
L 425.420113 126.808524 
L 426.436692 307.8 
L 427.45327 126.808524 
L 432.536163 126.808524 
L 433.552742 307.8 
L 434.56932 126.808524 
L 439.652214 126.808524 
L 440.668792 307.8 
L 441.685371 126.808524 
L 442.701949 307.8 
L 443.718528 126.808524 
L 447.784842 126.808524 
L 448.801421 307.8 
L 449.818 126.808524 
L 452.867735 126.808524 
L 453.884314 307.8 
L 454.900893 126.808524 
L 455.917471 307.8 
L 456.93405 126.808524 
L 461.000364 126.808524 
L 462.016943 307.8 
L 463.033522 126.808524 
L 464.0501 307.8 
L 465.066679 126.808524 
L 466.083257 307.8 
L 467.099836 126.808524 
L 468.116415 126.808524 
L 469.132993 307.8 
L 470.149572 307.8 
L 471.16615 126.808524 
L 479.298779 126.808524 
L 480.315358 307.8 
L 481.331937 126.808524 
L 494.547459 126.808524 
L 495.564037 307.8 
L 496.580616 126.808524 
L 500.64693 126.808524 
L 501.663509 307.8 
L 502.680087 126.808524 
L 509.796138 126.808524 
L 510.812716 307.8 
L 511.829295 126.808524 
L 513.862452 126.808524 
L 514.879031 307.8 
L 515.895609 307.8 
L 516.912188 126.808524 
L 527.077974 126.808524 
L 528.094553 307.8 
L 529.111131 126.808524 
L 533.177446 126.808524 
L 534.194024 307.8 
L 535.210603 307.8 
L 536.227182 126.808524 
L 540.293496 126.808524 
L 541.310075 307.8 
L 542.326653 307.8 
L 543.343232 126.808524 
L 547.409546 126.808524 
L 548.426125 307.8 
L 549.442704 126.808524 
L 550.459282 307.8 
L 551.475861 307.8 
L 552.492439 126.808524 
L 553.509018 307.8 
L 554.525597 126.808524 
L 555.542175 126.808524 
L 556.558754 307.8 
L 557.575332 126.808524 
L 558.591911 307.8 
L 559.60849 126.808524 
L 560.625068 307.8 
L 561.641647 307.8 
L 562.658226 126.808524 
L 566.72454 126.808524 
L 567.741119 307.8 
L 568.757697 126.808524 
L 576.890326 126.808524 
L 577.906905 307.8 
L 578.923483 126.808524 
L 584.006376 126.808524 
L 585.022955 307.8 
L 586.039534 126.808524 
L 594.172163 126.808524 
L 595.188741 307.8 
L 596.20532 307.8 
L 597.221898 126.808524 
L 601.288213 126.808524 
L 602.304791 307.8 
L 604.337949 307.8 
L 605.354527 126.808524 
L 622.636364 126.808524 
L 622.636364 126.808524 
" clip-path="url(#pd1ad2fa8d9)" style="fill: none; stroke: #ff7f0e; stroke-width: 1.5; stroke-linecap: square"/>
   </g>
   <g id="patch_3">
    <path d="M 90 320.4 
L 90 43.2 
" style="fill: none; stroke: #000000; stroke-width: 0.8; stroke-linejoin: miter; stroke-linecap: square"/>
   </g>
   <g id="patch_4">
    <path d="M 648 320.4 
L 648 43.2 
" style="fill: none; stroke: #000000; stroke-width: 0.8; stroke-linejoin: miter; stroke-linecap: square"/>
   </g>
   <g id="patch_5">
    <path d="M 90 320.4 
L 648 320.4 
" style="fill: none; stroke: #000000; stroke-width: 0.8; stroke-linejoin: miter; stroke-linecap: square"/>
   </g>
   <g id="patch_6">
    <path d="M 90 43.2 
L 648 43.2 
" style="fill: none; stroke: #000000; stroke-width: 0.8; stroke-linejoin: miter; stroke-linecap: square"/>
   </g>
   <g id="text_14">
    <!-- model train and validation accracy over time -->
    <g transform="translate(233.87625 37.2) scale(0.12 -0.12)">
     <defs>
      <path id="DejaVuSans-6d" d="M 3328 2828 
Q 3544 3216 3844 3400 
Q 4144 3584 4550 3584 
Q 5097 3584 5394 3201 
Q 5691 2819 5691 2113 
L 5691 0 
L 5113 0 
L 5113 2094 
Q 5113 2597 4934 2840 
Q 4756 3084 4391 3084 
Q 3944 3084 3684 2787 
Q 3425 2491 3425 1978 
L 3425 0 
L 2847 0 
L 2847 2094 
Q 2847 2600 2669 2842 
Q 2491 3084 2119 3084 
Q 1678 3084 1418 2786 
Q 1159 2488 1159 1978 
L 1159 0 
L 581 0 
L 581 3500 
L 1159 3500 
L 1159 2956 
Q 1356 3278 1631 3431 
Q 1906 3584 2284 3584 
Q 2666 3584 2933 3390 
Q 3200 3197 3328 2828 
z
" transform="scale(0.015625)"/>
      <path id="DejaVuSans-64" d="M 2906 2969 
L 2906 4863 
L 3481 4863 
L 3481 0 
L 2906 0 
L 2906 525 
Q 2725 213 2448 61 
Q 2172 -91 1784 -91 
Q 1150 -91 751 415 
Q 353 922 353 1747 
Q 353 2572 751 3078 
Q 1150 3584 1784 3584 
Q 2172 3584 2448 3432 
Q 2725 3281 2906 2969 
z
M 947 1747 
Q 947 1113 1208 752 
Q 1469 391 1925 391 
Q 2381 391 2643 752 
Q 2906 1113 2906 1747 
Q 2906 2381 2643 2742 
Q 2381 3103 1925 3103 
Q 1469 3103 1208 2742 
Q 947 2381 947 1747 
z
" transform="scale(0.015625)"/>
      <path id="DejaVuSans-6c" d="M 603 4863 
L 1178 4863 
L 1178 0 
L 603 0 
L 603 4863 
z
" transform="scale(0.015625)"/>
      <path id="DejaVuSans-20" transform="scale(0.015625)"/>
      <path id="DejaVuSans-74" d="M 1172 4494 
L 1172 3500 
L 2356 3500 
L 2356 3053 
L 1172 3053 
L 1172 1153 
Q 1172 725 1289 603 
Q 1406 481 1766 481 
L 2356 481 
L 2356 0 
L 1766 0 
Q 1100 0 847 248 
Q 594 497 594 1153 
L 594 3053 
L 172 3053 
L 172 3500 
L 594 3500 
L 594 4494 
L 1172 4494 
z
" transform="scale(0.015625)"/>
      <path id="DejaVuSans-69" d="M 603 3500 
L 1178 3500 
L 1178 0 
L 603 0 
L 603 3500 
z
M 603 4863 
L 1178 4863 
L 1178 4134 
L 603 4134 
L 603 4863 
z
" transform="scale(0.015625)"/>
      <path id="DejaVuSans-6e" d="M 3513 2113 
L 3513 0 
L 2938 0 
L 2938 2094 
Q 2938 2591 2744 2837 
Q 2550 3084 2163 3084 
Q 1697 3084 1428 2787 
Q 1159 2491 1159 1978 
L 1159 0 
L 581 0 
L 581 3500 
L 1159 3500 
L 1159 2956 
Q 1366 3272 1645 3428 
Q 1925 3584 2291 3584 
Q 2894 3584 3203 3211 
Q 3513 2838 3513 2113 
z
" transform="scale(0.015625)"/>
      <path id="DejaVuSans-76" d="M 191 3500 
L 800 3500 
L 1894 563 
L 2988 3500 
L 3597 3500 
L 2284 0 
L 1503 0 
L 191 3500 
z
" transform="scale(0.015625)"/>
     </defs>
     <use xlink:href="#DejaVuSans-6d"/>
     <use xlink:href="#DejaVuSans-6f" x="97.412109"/>
     <use xlink:href="#DejaVuSans-64" x="158.59375"/>
     <use xlink:href="#DejaVuSans-65" x="222.070312"/>
     <use xlink:href="#DejaVuSans-6c" x="283.59375"/>
     <use xlink:href="#DejaVuSans-20" x="311.376953"/>
     <use xlink:href="#DejaVuSans-74" x="343.164062"/>
     <use xlink:href="#DejaVuSans-72" x="382.373047"/>
     <use xlink:href="#DejaVuSans-61" x="423.486328"/>
     <use xlink:href="#DejaVuSans-69" x="484.765625"/>
     <use xlink:href="#DejaVuSans-6e" x="512.548828"/>
     <use xlink:href="#DejaVuSans-20" x="575.927734"/>
     <use xlink:href="#DejaVuSans-61" x="607.714844"/>
     <use xlink:href="#DejaVuSans-6e" x="668.994141"/>
     <use xlink:href="#DejaVuSans-64" x="732.373047"/>
     <use xlink:href="#DejaVuSans-20" x="795.849609"/>
     <use xlink:href="#DejaVuSans-76" x="827.636719"/>
     <use xlink:href="#DejaVuSans-61" x="886.816406"/>
     <use xlink:href="#DejaVuSans-6c" x="948.095703"/>
     <use xlink:href="#DejaVuSans-69" x="975.878906"/>
     <use xlink:href="#DejaVuSans-64" x="1003.662109"/>
     <use xlink:href="#DejaVuSans-61" x="1067.138672"/>
     <use xlink:href="#DejaVuSans-74" x="1128.417969"/>
     <use xlink:href="#DejaVuSans-69" x="1167.626953"/>
     <use xlink:href="#DejaVuSans-6f" x="1195.410156"/>
     <use xlink:href="#DejaVuSans-6e" x="1256.591797"/>
     <use xlink:href="#DejaVuSans-20" x="1319.970703"/>
     <use xlink:href="#DejaVuSans-61" x="1351.757812"/>
     <use xlink:href="#DejaVuSans-63" x="1413.037109"/>
     <use xlink:href="#DejaVuSans-63" x="1468.017578"/>
     <use xlink:href="#DejaVuSans-72" x="1522.998047"/>
     <use xlink:href="#DejaVuSans-61" x="1564.111328"/>
     <use xlink:href="#DejaVuSans-63" x="1625.390625"/>
     <use xlink:href="#DejaVuSans-79" x="1680.371094"/>
     <use xlink:href="#DejaVuSans-20" x="1739.550781"/>
     <use xlink:href="#DejaVuSans-6f" x="1771.337891"/>
     <use xlink:href="#DejaVuSans-76" x="1832.519531"/>
     <use xlink:href="#DejaVuSans-65" x="1891.699219"/>
     <use xlink:href="#DejaVuSans-72" x="1953.222656"/>
     <use xlink:href="#DejaVuSans-20" x="1994.335938"/>
     <use xlink:href="#DejaVuSans-74" x="2026.123047"/>
     <use xlink:href="#DejaVuSans-69" x="2065.332031"/>
     <use xlink:href="#DejaVuSans-6d" x="2093.115234"/>
     <use xlink:href="#DejaVuSans-65" x="2190.527344"/>
    </g>
   </g>
   <g id="legend_1">
    <g id="patch_7">
     <path d="M 559.765625 80.55625 
L 641 80.55625 
Q 643 80.55625 643 78.55625 
L 643 50.2 
Q 643 48.2 641 48.2 
L 559.765625 48.2 
Q 557.765625 48.2 557.765625 50.2 
L 557.765625 78.55625 
Q 557.765625 80.55625 559.765625 80.55625 
z
" style="fill: #ffffff; opacity: 0.8; stroke: #cccccc; stroke-linejoin: miter"/>
    </g>
    <g id="line2d_25">
     <path d="M 561.765625 56.298437 
L 571.765625 56.298437 
L 581.765625 56.298437 
" style="fill: none; stroke: #1f77b4; stroke-width: 1.5; stroke-linecap: square"/>
    </g>
    <g id="text_15">
     <!-- train -->
     <g transform="translate(589.765625 59.798437) scale(0.1 -0.1)">
      <use xlink:href="#DejaVuSans-74"/>
      <use xlink:href="#DejaVuSans-72" x="39.208984"/>
      <use xlink:href="#DejaVuSans-61" x="80.322266"/>
      <use xlink:href="#DejaVuSans-69" x="141.601562"/>
      <use xlink:href="#DejaVuSans-6e" x="169.384766"/>
     </g>
    </g>
    <g id="line2d_26">
     <path d="M 561.765625 70.976562 
L 571.765625 70.976562 
L 581.765625 70.976562 
" style="fill: none; stroke: #ff7f0e; stroke-width: 1.5; stroke-linecap: square"/>
    </g>
    <g id="text_16">
     <!-- validation -->
     <g transform="translate(589.765625 74.476562) scale(0.1 -0.1)">
      <use xlink:href="#DejaVuSans-76"/>
      <use xlink:href="#DejaVuSans-61" x="59.179688"/>
      <use xlink:href="#DejaVuSans-6c" x="120.458984"/>
      <use xlink:href="#DejaVuSans-69" x="148.242188"/>
      <use xlink:href="#DejaVuSans-64" x="176.025391"/>
      <use xlink:href="#DejaVuSans-61" x="239.501953"/>
      <use xlink:href="#DejaVuSans-74" x="300.78125"/>
      <use xlink:href="#DejaVuSans-69" x="339.990234"/>
      <use xlink:href="#DejaVuSans-6f" x="367.773438"/>
      <use xlink:href="#DejaVuSans-6e" x="428.955078"/>
     </g>
    </g>
   </g>
  </g>
 </g>
 <defs>
  <clipPath id="pd1ad2fa8d9">
   <rect x="90" y="43.2" width="558" height="277.2"/>
  </clipPath>
 </defs>
</svg>
