<?xml version="1.0" encoding="utf-8" standalone="no"?>
<!DOCTYPE svg PUBLIC "-//W3C//DTD SVG 1.1//EN"
  "http://www.w3.org/Graphics/SVG/1.1/DTD/svg11.dtd">
<svg xmlns:xlink="http://www.w3.org/1999/xlink" width="720pt" height="360pt" viewBox="0 0 720 360" xmlns="http://www.w3.org/2000/svg" version="1.1">
 <metadata>
  <rdf:RDF xmlns:dc="http://purl.org/dc/elements/1.1/" xmlns:cc="http://creativecommons.org/ns#" xmlns:rdf="http://www.w3.org/1999/02/22-rdf-syntax-ns#">
   <cc:Work>
    <dc:type rdf:resource="http://purl.org/dc/dcmitype/StillImage"/>
    <dc:date>2023-05-24T12:13:59.675698</dc:date>
    <dc:format>image/svg+xml</dc:format>
    <dc:creator>
     <cc:Agent>
      <dc:title>Matplotlib v3.7.1, https://matplotlib.org/</dc:title>
     </cc:Agent>
    </dc:creator>
   </cc:Work>
  </rdf:RDF>
 </metadata>
 <defs>
  <style type="text/css">*{stroke-linejoin: round; stroke-linecap: butt}</style>
 </defs>
 <g id="figure_1">
  <g id="patch_1">
   <path d="M 0 360 
L 720 360 
L 720 0 
L 0 0 
z
" style="fill: #ffffff"/>
  </g>
  <g id="axes_1">
   <g id="patch_2">
    <path d="M 90 320.4 
L 648 320.4 
L 648 43.2 
L 90 43.2 
z
" style="fill: #ffffff"/>
   </g>
   <g id="matplotlib.axis_1">
    <g id="xtick_1">
     <g id="line2d_1">
      <path d="M 115.363636 320.4 
L 115.363636 43.2 
" clip-path="url(#p27b41d2d57)" style="fill: none; stroke: #b0b0b0; stroke-width: 0.8; stroke-linecap: square"/>
     </g>
     <g id="line2d_2">
      <defs>
       <path id="ma031d24a95" d="M 0 0 
L 0 3.5 
" style="stroke: #000000; stroke-width: 0.8"/>
      </defs>
      <g>
       <use xlink:href="#ma031d24a95" x="115.363636" y="320.4" style="stroke: #000000; stroke-width: 0.8"/>
      </g>
     </g>
     <g id="text_1">
      <!-- 0 -->
      <g transform="translate(112.182386 334.998438) scale(0.1 -0.1)">
       <defs>
        <path id="DejaVuSans-30" d="M 2034 4250 
Q 1547 4250 1301 3770 
Q 1056 3291 1056 2328 
Q 1056 1369 1301 889 
Q 1547 409 2034 409 
Q 2525 409 2770 889 
Q 3016 1369 3016 2328 
Q 3016 3291 2770 3770 
Q 2525 4250 2034 4250 
z
M 2034 4750 
Q 2819 4750 3233 4129 
Q 3647 3509 3647 2328 
Q 3647 1150 3233 529 
Q 2819 -91 2034 -91 
Q 1250 -91 836 529 
Q 422 1150 422 2328 
Q 422 3509 836 4129 
Q 1250 4750 2034 4750 
z
" transform="scale(0.015625)"/>
       </defs>
       <use xlink:href="#DejaVuSans-30"/>
      </g>
     </g>
    </g>
    <g id="xtick_2">
     <g id="line2d_3">
      <path d="M 217.021498 320.4 
L 217.021498 43.2 
" clip-path="url(#p27b41d2d57)" style="fill: none; stroke: #b0b0b0; stroke-width: 0.8; stroke-linecap: square"/>
     </g>
     <g id="line2d_4">
      <g>
       <use xlink:href="#ma031d24a95" x="217.021498" y="320.4" style="stroke: #000000; stroke-width: 0.8"/>
      </g>
     </g>
     <g id="text_2">
      <!-- 100 -->
      <g transform="translate(207.477748 334.998438) scale(0.1 -0.1)">
       <defs>
        <path id="DejaVuSans-31" d="M 794 531 
L 1825 531 
L 1825 4091 
L 703 3866 
L 703 4441 
L 1819 4666 
L 2450 4666 
L 2450 531 
L 3481 531 
L 3481 0 
L 794 0 
L 794 531 
z
" transform="scale(0.015625)"/>
       </defs>
       <use xlink:href="#DejaVuSans-31"/>
       <use xlink:href="#DejaVuSans-30" x="63.623047"/>
       <use xlink:href="#DejaVuSans-30" x="127.246094"/>
      </g>
     </g>
    </g>
    <g id="xtick_3">
     <g id="line2d_5">
      <path d="M 318.679359 320.4 
L 318.679359 43.2 
" clip-path="url(#p27b41d2d57)" style="fill: none; stroke: #b0b0b0; stroke-width: 0.8; stroke-linecap: square"/>
     </g>
     <g id="line2d_6">
      <g>
       <use xlink:href="#ma031d24a95" x="318.679359" y="320.4" style="stroke: #000000; stroke-width: 0.8"/>
      </g>
     </g>
     <g id="text_3">
      <!-- 200 -->
      <g transform="translate(309.135609 334.998438) scale(0.1 -0.1)">
       <defs>
        <path id="DejaVuSans-32" d="M 1228 531 
L 3431 531 
L 3431 0 
L 469 0 
L 469 531 
Q 828 903 1448 1529 
Q 2069 2156 2228 2338 
Q 2531 2678 2651 2914 
Q 2772 3150 2772 3378 
Q 2772 3750 2511 3984 
Q 2250 4219 1831 4219 
Q 1534 4219 1204 4116 
Q 875 4013 500 3803 
L 500 4441 
Q 881 4594 1212 4672 
Q 1544 4750 1819 4750 
Q 2544 4750 2975 4387 
Q 3406 4025 3406 3419 
Q 3406 3131 3298 2873 
Q 3191 2616 2906 2266 
Q 2828 2175 2409 1742 
Q 1991 1309 1228 531 
z
" transform="scale(0.015625)"/>
       </defs>
       <use xlink:href="#DejaVuSans-32"/>
       <use xlink:href="#DejaVuSans-30" x="63.623047"/>
       <use xlink:href="#DejaVuSans-30" x="127.246094"/>
      </g>
     </g>
    </g>
    <g id="xtick_4">
     <g id="line2d_7">
      <path d="M 420.33722 320.4 
L 420.33722 43.2 
" clip-path="url(#p27b41d2d57)" style="fill: none; stroke: #b0b0b0; stroke-width: 0.8; stroke-linecap: square"/>
     </g>
     <g id="line2d_8">
      <g>
       <use xlink:href="#ma031d24a95" x="420.33722" y="320.4" style="stroke: #000000; stroke-width: 0.8"/>
      </g>
     </g>
     <g id="text_4">
      <!-- 300 -->
      <g transform="translate(410.79347 334.998438) scale(0.1 -0.1)">
       <defs>
        <path id="DejaVuSans-33" d="M 2597 2516 
Q 3050 2419 3304 2112 
Q 3559 1806 3559 1356 
Q 3559 666 3084 287 
Q 2609 -91 1734 -91 
Q 1441 -91 1130 -33 
Q 819 25 488 141 
L 488 750 
Q 750 597 1062 519 
Q 1375 441 1716 441 
Q 2309 441 2620 675 
Q 2931 909 2931 1356 
Q 2931 1769 2642 2001 
Q 2353 2234 1838 2234 
L 1294 2234 
L 1294 2753 
L 1863 2753 
Q 2328 2753 2575 2939 
Q 2822 3125 2822 3475 
Q 2822 3834 2567 4026 
Q 2313 4219 1838 4219 
Q 1578 4219 1281 4162 
Q 984 4106 628 3988 
L 628 4550 
Q 988 4650 1302 4700 
Q 1616 4750 1894 4750 
Q 2613 4750 3031 4423 
Q 3450 4097 3450 3541 
Q 3450 3153 3228 2886 
Q 3006 2619 2597 2516 
z
" transform="scale(0.015625)"/>
       </defs>
       <use xlink:href="#DejaVuSans-33"/>
       <use xlink:href="#DejaVuSans-30" x="63.623047"/>
       <use xlink:href="#DejaVuSans-30" x="127.246094"/>
      </g>
     </g>
    </g>
    <g id="xtick_5">
     <g id="line2d_9">
      <path d="M 521.995081 320.4 
L 521.995081 43.2 
" clip-path="url(#p27b41d2d57)" style="fill: none; stroke: #b0b0b0; stroke-width: 0.8; stroke-linecap: square"/>
     </g>
     <g id="line2d_10">
      <g>
       <use xlink:href="#ma031d24a95" x="521.995081" y="320.4" style="stroke: #000000; stroke-width: 0.8"/>
      </g>
     </g>
     <g id="text_5">
      <!-- 400 -->
      <g transform="translate(512.451331 334.998438) scale(0.1 -0.1)">
       <defs>
        <path id="DejaVuSans-34" d="M 2419 4116 
L 825 1625 
L 2419 1625 
L 2419 4116 
z
M 2253 4666 
L 3047 4666 
L 3047 1625 
L 3713 1625 
L 3713 1100 
L 3047 1100 
L 3047 0 
L 2419 0 
L 2419 1100 
L 313 1100 
L 313 1709 
L 2253 4666 
z
" transform="scale(0.015625)"/>
       </defs>
       <use xlink:href="#DejaVuSans-34"/>
       <use xlink:href="#DejaVuSans-30" x="63.623047"/>
       <use xlink:href="#DejaVuSans-30" x="127.246094"/>
      </g>
     </g>
    </g>
    <g id="xtick_6">
     <g id="line2d_11">
      <path d="M 623.652942 320.4 
L 623.652942 43.2 
" clip-path="url(#p27b41d2d57)" style="fill: none; stroke: #b0b0b0; stroke-width: 0.8; stroke-linecap: square"/>
     </g>
     <g id="line2d_12">
      <g>
       <use xlink:href="#ma031d24a95" x="623.652942" y="320.4" style="stroke: #000000; stroke-width: 0.8"/>
      </g>
     </g>
     <g id="text_6">
      <!-- 500 -->
      <g transform="translate(614.109192 334.998438) scale(0.1 -0.1)">
       <defs>
        <path id="DejaVuSans-35" d="M 691 4666 
L 3169 4666 
L 3169 4134 
L 1269 4134 
L 1269 2991 
Q 1406 3038 1543 3061 
Q 1681 3084 1819 3084 
Q 2600 3084 3056 2656 
Q 3513 2228 3513 1497 
Q 3513 744 3044 326 
Q 2575 -91 1722 -91 
Q 1428 -91 1123 -41 
Q 819 9 494 109 
L 494 744 
Q 775 591 1075 516 
Q 1375 441 1709 441 
Q 2250 441 2565 725 
Q 2881 1009 2881 1497 
Q 2881 1984 2565 2268 
Q 2250 2553 1709 2553 
Q 1456 2553 1204 2497 
Q 953 2441 691 2322 
L 691 4666 
z
" transform="scale(0.015625)"/>
       </defs>
       <use xlink:href="#DejaVuSans-35"/>
       <use xlink:href="#DejaVuSans-30" x="63.623047"/>
       <use xlink:href="#DejaVuSans-30" x="127.246094"/>
      </g>
     </g>
    </g>
    <g id="text_7">
     <!-- epoch -->
     <g transform="translate(353.771875 348.676562) scale(0.1 -0.1)">
      <defs>
       <path id="DejaVuSans-65" d="M 3597 1894 
L 3597 1613 
L 953 1613 
Q 991 1019 1311 708 
Q 1631 397 2203 397 
Q 2534 397 2845 478 
Q 3156 559 3463 722 
L 3463 178 
Q 3153 47 2828 -22 
Q 2503 -91 2169 -91 
Q 1331 -91 842 396 
Q 353 884 353 1716 
Q 353 2575 817 3079 
Q 1281 3584 2069 3584 
Q 2775 3584 3186 3129 
Q 3597 2675 3597 1894 
z
M 3022 2063 
Q 3016 2534 2758 2815 
Q 2500 3097 2075 3097 
Q 1594 3097 1305 2825 
Q 1016 2553 972 2059 
L 3022 2063 
z
" transform="scale(0.015625)"/>
       <path id="DejaVuSans-70" d="M 1159 525 
L 1159 -1331 
L 581 -1331 
L 581 3500 
L 1159 3500 
L 1159 2969 
Q 1341 3281 1617 3432 
Q 1894 3584 2278 3584 
Q 2916 3584 3314 3078 
Q 3713 2572 3713 1747 
Q 3713 922 3314 415 
Q 2916 -91 2278 -91 
Q 1894 -91 1617 61 
Q 1341 213 1159 525 
z
M 3116 1747 
Q 3116 2381 2855 2742 
Q 2594 3103 2138 3103 
Q 1681 3103 1420 2742 
Q 1159 2381 1159 1747 
Q 1159 1113 1420 752 
Q 1681 391 2138 391 
Q 2594 391 2855 752 
Q 3116 1113 3116 1747 
z
" transform="scale(0.015625)"/>
       <path id="DejaVuSans-6f" d="M 1959 3097 
Q 1497 3097 1228 2736 
Q 959 2375 959 1747 
Q 959 1119 1226 758 
Q 1494 397 1959 397 
Q 2419 397 2687 759 
Q 2956 1122 2956 1747 
Q 2956 2369 2687 2733 
Q 2419 3097 1959 3097 
z
M 1959 3584 
Q 2709 3584 3137 3096 
Q 3566 2609 3566 1747 
Q 3566 888 3137 398 
Q 2709 -91 1959 -91 
Q 1206 -91 779 398 
Q 353 888 353 1747 
Q 353 2609 779 3096 
Q 1206 3584 1959 3584 
z
" transform="scale(0.015625)"/>
       <path id="DejaVuSans-63" d="M 3122 3366 
L 3122 2828 
Q 2878 2963 2633 3030 
Q 2388 3097 2138 3097 
Q 1578 3097 1268 2742 
Q 959 2388 959 1747 
Q 959 1106 1268 751 
Q 1578 397 2138 397 
Q 2388 397 2633 464 
Q 2878 531 3122 666 
L 3122 134 
Q 2881 22 2623 -34 
Q 2366 -91 2075 -91 
Q 1284 -91 818 406 
Q 353 903 353 1747 
Q 353 2603 823 3093 
Q 1294 3584 2113 3584 
Q 2378 3584 2631 3529 
Q 2884 3475 3122 3366 
z
" transform="scale(0.015625)"/>
       <path id="DejaVuSans-68" d="M 3513 2113 
L 3513 0 
L 2938 0 
L 2938 2094 
Q 2938 2591 2744 2837 
Q 2550 3084 2163 3084 
Q 1697 3084 1428 2787 
Q 1159 2491 1159 1978 
L 1159 0 
L 581 0 
L 581 4863 
L 1159 4863 
L 1159 2956 
Q 1366 3272 1645 3428 
Q 1925 3584 2291 3584 
Q 2894 3584 3203 3211 
Q 3513 2838 3513 2113 
z
" transform="scale(0.015625)"/>
      </defs>
      <use xlink:href="#DejaVuSans-65"/>
      <use xlink:href="#DejaVuSans-70" x="61.523438"/>
      <use xlink:href="#DejaVuSans-6f" x="125"/>
      <use xlink:href="#DejaVuSans-63" x="186.181641"/>
      <use xlink:href="#DejaVuSans-68" x="241.162109"/>
     </g>
    </g>
   </g>
   <g id="matplotlib.axis_2">
    <g id="ytick_1">
     <g id="line2d_13">
      <path d="M 90 291.247215 
L 648 291.247215 
" clip-path="url(#p27b41d2d57)" style="fill: none; stroke: #b0b0b0; stroke-width: 0.8; stroke-linecap: square"/>
     </g>
     <g id="line2d_14">
      <defs>
       <path id="m22780acff0" d="M 0 0 
L -3.5 0 
" style="stroke: #000000; stroke-width: 0.8"/>
      </defs>
      <g>
       <use xlink:href="#m22780acff0" x="90" y="291.247215" style="stroke: #000000; stroke-width: 0.8"/>
      </g>
     </g>
     <g id="text_8">
      <!-- 0.55 -->
      <g transform="translate(60.734375 295.046434) scale(0.1 -0.1)">
       <defs>
        <path id="DejaVuSans-2e" d="M 684 794 
L 1344 794 
L 1344 0 
L 684 0 
L 684 794 
z
" transform="scale(0.015625)"/>
       </defs>
       <use xlink:href="#DejaVuSans-30"/>
       <use xlink:href="#DejaVuSans-2e" x="63.623047"/>
       <use xlink:href="#DejaVuSans-35" x="95.410156"/>
       <use xlink:href="#DejaVuSans-35" x="159.033203"/>
      </g>
     </g>
    </g>
    <g id="ytick_2">
     <g id="line2d_15">
      <path d="M 90 254.877677 
L 648 254.877677 
" clip-path="url(#p27b41d2d57)" style="fill: none; stroke: #b0b0b0; stroke-width: 0.8; stroke-linecap: square"/>
     </g>
     <g id="line2d_16">
      <g>
       <use xlink:href="#m22780acff0" x="90" y="254.877677" style="stroke: #000000; stroke-width: 0.8"/>
      </g>
     </g>
     <g id="text_9">
      <!-- 0.60 -->
      <g transform="translate(60.734375 258.676896) scale(0.1 -0.1)">
       <defs>
        <path id="DejaVuSans-36" d="M 2113 2584 
Q 1688 2584 1439 2293 
Q 1191 2003 1191 1497 
Q 1191 994 1439 701 
Q 1688 409 2113 409 
Q 2538 409 2786 701 
Q 3034 994 3034 1497 
Q 3034 2003 2786 2293 
Q 2538 2584 2113 2584 
z
M 3366 4563 
L 3366 3988 
Q 3128 4100 2886 4159 
Q 2644 4219 2406 4219 
Q 1781 4219 1451 3797 
Q 1122 3375 1075 2522 
Q 1259 2794 1537 2939 
Q 1816 3084 2150 3084 
Q 2853 3084 3261 2657 
Q 3669 2231 3669 1497 
Q 3669 778 3244 343 
Q 2819 -91 2113 -91 
Q 1303 -91 875 529 
Q 447 1150 447 2328 
Q 447 3434 972 4092 
Q 1497 4750 2381 4750 
Q 2619 4750 2861 4703 
Q 3103 4656 3366 4563 
z
" transform="scale(0.015625)"/>
       </defs>
       <use xlink:href="#DejaVuSans-30"/>
       <use xlink:href="#DejaVuSans-2e" x="63.623047"/>
       <use xlink:href="#DejaVuSans-36" x="95.410156"/>
       <use xlink:href="#DejaVuSans-30" x="159.033203"/>
      </g>
     </g>
    </g>
    <g id="ytick_3">
     <g id="line2d_17">
      <path d="M 90 218.508139 
L 648 218.508139 
" clip-path="url(#p27b41d2d57)" style="fill: none; stroke: #b0b0b0; stroke-width: 0.8; stroke-linecap: square"/>
     </g>
     <g id="line2d_18">
      <g>
       <use xlink:href="#m22780acff0" x="90" y="218.508139" style="stroke: #000000; stroke-width: 0.8"/>
      </g>
     </g>
     <g id="text_10">
      <!-- 0.65 -->
      <g transform="translate(60.734375 222.307358) scale(0.1 -0.1)">
       <use xlink:href="#DejaVuSans-30"/>
       <use xlink:href="#DejaVuSans-2e" x="63.623047"/>
       <use xlink:href="#DejaVuSans-36" x="95.410156"/>
       <use xlink:href="#DejaVuSans-35" x="159.033203"/>
      </g>
     </g>
    </g>
    <g id="ytick_4">
     <g id="line2d_19">
      <path d="M 90 182.138601 
L 648 182.138601 
" clip-path="url(#p27b41d2d57)" style="fill: none; stroke: #b0b0b0; stroke-width: 0.8; stroke-linecap: square"/>
     </g>
     <g id="line2d_20">
      <g>
       <use xlink:href="#m22780acff0" x="90" y="182.138601" style="stroke: #000000; stroke-width: 0.8"/>
      </g>
     </g>
     <g id="text_11">
      <!-- 0.70 -->
      <g transform="translate(60.734375 185.937819) scale(0.1 -0.1)">
       <defs>
        <path id="DejaVuSans-37" d="M 525 4666 
L 3525 4666 
L 3525 4397 
L 1831 0 
L 1172 0 
L 2766 4134 
L 525 4134 
L 525 4666 
z
" transform="scale(0.015625)"/>
       </defs>
       <use xlink:href="#DejaVuSans-30"/>
       <use xlink:href="#DejaVuSans-2e" x="63.623047"/>
       <use xlink:href="#DejaVuSans-37" x="95.410156"/>
       <use xlink:href="#DejaVuSans-30" x="159.033203"/>
      </g>
     </g>
    </g>
    <g id="ytick_5">
     <g id="line2d_21">
      <path d="M 90 145.769062 
L 648 145.769062 
" clip-path="url(#p27b41d2d57)" style="fill: none; stroke: #b0b0b0; stroke-width: 0.8; stroke-linecap: square"/>
     </g>
     <g id="line2d_22">
      <g>
       <use xlink:href="#m22780acff0" x="90" y="145.769062" style="stroke: #000000; stroke-width: 0.8"/>
      </g>
     </g>
     <g id="text_12">
      <!-- 0.75 -->
      <g transform="translate(60.734375 149.568281) scale(0.1 -0.1)">
       <use xlink:href="#DejaVuSans-30"/>
       <use xlink:href="#DejaVuSans-2e" x="63.623047"/>
       <use xlink:href="#DejaVuSans-37" x="95.410156"/>
       <use xlink:href="#DejaVuSans-35" x="159.033203"/>
      </g>
     </g>
    </g>
    <g id="ytick_6">
     <g id="line2d_23">
      <path d="M 90 109.399524 
L 648 109.399524 
" clip-path="url(#p27b41d2d57)" style="fill: none; stroke: #b0b0b0; stroke-width: 0.8; stroke-linecap: square"/>
     </g>
     <g id="line2d_24">
      <g>
       <use xlink:href="#m22780acff0" x="90" y="109.399524" style="stroke: #000000; stroke-width: 0.8"/>
      </g>
     </g>
     <g id="text_13">
      <!-- 0.80 -->
      <g transform="translate(60.734375 113.198743) scale(0.1 -0.1)">
       <defs>
        <path id="DejaVuSans-38" d="M 2034 2216 
Q 1584 2216 1326 1975 
Q 1069 1734 1069 1313 
Q 1069 891 1326 650 
Q 1584 409 2034 409 
Q 2484 409 2743 651 
Q 3003 894 3003 1313 
Q 3003 1734 2745 1975 
Q 2488 2216 2034 2216 
z
M 1403 2484 
Q 997 2584 770 2862 
Q 544 3141 544 3541 
Q 544 4100 942 4425 
Q 1341 4750 2034 4750 
Q 2731 4750 3128 4425 
Q 3525 4100 3525 3541 
Q 3525 3141 3298 2862 
Q 3072 2584 2669 2484 
Q 3125 2378 3379 2068 
Q 3634 1759 3634 1313 
Q 3634 634 3220 271 
Q 2806 -91 2034 -91 
Q 1263 -91 848 271 
Q 434 634 434 1313 
Q 434 1759 690 2068 
Q 947 2378 1403 2484 
z
M 1172 3481 
Q 1172 3119 1398 2916 
Q 1625 2713 2034 2713 
Q 2441 2713 2670 2916 
Q 2900 3119 2900 3481 
Q 2900 3844 2670 4047 
Q 2441 4250 2034 4250 
Q 1625 4250 1398 4047 
Q 1172 3844 1172 3481 
z
" transform="scale(0.015625)"/>
       </defs>
       <use xlink:href="#DejaVuSans-30"/>
       <use xlink:href="#DejaVuSans-2e" x="63.623047"/>
       <use xlink:href="#DejaVuSans-38" x="95.410156"/>
       <use xlink:href="#DejaVuSans-30" x="159.033203"/>
      </g>
     </g>
    </g>
    <g id="ytick_7">
     <g id="line2d_25">
      <path d="M 90 73.029986 
L 648 73.029986 
" clip-path="url(#p27b41d2d57)" style="fill: none; stroke: #b0b0b0; stroke-width: 0.8; stroke-linecap: square"/>
     </g>
     <g id="line2d_26">
      <g>
       <use xlink:href="#m22780acff0" x="90" y="73.029986" style="stroke: #000000; stroke-width: 0.8"/>
      </g>
     </g>
     <g id="text_14">
      <!-- 0.85 -->
      <g transform="translate(60.734375 76.829205) scale(0.1 -0.1)">
       <use xlink:href="#DejaVuSans-30"/>
       <use xlink:href="#DejaVuSans-2e" x="63.623047"/>
       <use xlink:href="#DejaVuSans-38" x="95.410156"/>
       <use xlink:href="#DejaVuSans-35" x="159.033203"/>
      </g>
     </g>
    </g>
    <g id="text_15">
     <!-- accruacy -->
     <g transform="translate(54.654687 204.359375) rotate(-90) scale(0.1 -0.1)">
      <defs>
       <path id="DejaVuSans-61" d="M 2194 1759 
Q 1497 1759 1228 1600 
Q 959 1441 959 1056 
Q 959 750 1161 570 
Q 1363 391 1709 391 
Q 2188 391 2477 730 
Q 2766 1069 2766 1631 
L 2766 1759 
L 2194 1759 
z
M 3341 1997 
L 3341 0 
L 2766 0 
L 2766 531 
Q 2569 213 2275 61 
Q 1981 -91 1556 -91 
Q 1019 -91 701 211 
Q 384 513 384 1019 
Q 384 1609 779 1909 
Q 1175 2209 1959 2209 
L 2766 2209 
L 2766 2266 
Q 2766 2663 2505 2880 
Q 2244 3097 1772 3097 
Q 1472 3097 1187 3025 
Q 903 2953 641 2809 
L 641 3341 
Q 956 3463 1253 3523 
Q 1550 3584 1831 3584 
Q 2591 3584 2966 3190 
Q 3341 2797 3341 1997 
z
" transform="scale(0.015625)"/>
       <path id="DejaVuSans-72" d="M 2631 2963 
Q 2534 3019 2420 3045 
Q 2306 3072 2169 3072 
Q 1681 3072 1420 2755 
Q 1159 2438 1159 1844 
L 1159 0 
L 581 0 
L 581 3500 
L 1159 3500 
L 1159 2956 
Q 1341 3275 1631 3429 
Q 1922 3584 2338 3584 
Q 2397 3584 2469 3576 
Q 2541 3569 2628 3553 
L 2631 2963 
z
" transform="scale(0.015625)"/>
       <path id="DejaVuSans-75" d="M 544 1381 
L 544 3500 
L 1119 3500 
L 1119 1403 
Q 1119 906 1312 657 
Q 1506 409 1894 409 
Q 2359 409 2629 706 
Q 2900 1003 2900 1516 
L 2900 3500 
L 3475 3500 
L 3475 0 
L 2900 0 
L 2900 538 
Q 2691 219 2414 64 
Q 2138 -91 1772 -91 
Q 1169 -91 856 284 
Q 544 659 544 1381 
z
M 1991 3584 
L 1991 3584 
z
" transform="scale(0.015625)"/>
       <path id="DejaVuSans-79" d="M 2059 -325 
Q 1816 -950 1584 -1140 
Q 1353 -1331 966 -1331 
L 506 -1331 
L 506 -850 
L 844 -850 
Q 1081 -850 1212 -737 
Q 1344 -625 1503 -206 
L 1606 56 
L 191 3500 
L 800 3500 
L 1894 763 
L 2988 3500 
L 3597 3500 
L 2059 -325 
z
" transform="scale(0.015625)"/>
      </defs>
      <use xlink:href="#DejaVuSans-61"/>
      <use xlink:href="#DejaVuSans-63" x="61.279297"/>
      <use xlink:href="#DejaVuSans-63" x="116.259766"/>
      <use xlink:href="#DejaVuSans-72" x="171.240234"/>
      <use xlink:href="#DejaVuSans-75" x="212.353516"/>
      <use xlink:href="#DejaVuSans-61" x="275.732422"/>
      <use xlink:href="#DejaVuSans-63" x="337.011719"/>
      <use xlink:href="#DejaVuSans-79" x="391.992188"/>
     </g>
    </g>
   </g>
   <g id="line2d_27">
    <path d="M 115.363636 62.299478 
L 116.380215 63.254261 
L 117.396794 67.073436 
L 118.413372 67.211481 
L 119.429951 63.116216 
L 120.446529 61.689808 
L 121.463108 61.666786 
L 122.479687 63.058726 
L 123.496265 59.619175 
L 124.512844 63.49584 
L 125.529422 62.218966 
L 126.546001 62.264967 
L 127.56258 64.370111 
L 128.579158 60.217356 
L 129.595737 63.909975 
L 130.612316 58.882949 
L 131.628894 62.000409 
L 132.645473 61.827853 
L 133.662051 67.01599 
L 134.67863 61.091627 
L 135.695209 58.066211 
L 136.711787 64.427644 
L 137.728366 60.850048 
L 138.744944 64.611733 
L 139.761523 60.850048 
L 140.778102 67.153948 
L 142.811259 65.106337 
L 143.827837 60.274846 
L 144.844416 63.576352 
L 145.860995 61.367717 
L 146.877573 64.531178 
L 147.894152 64.013509 
L 148.910731 58.36528 
L 149.927309 62.241988 
L 150.943888 62.621569 
L 151.960466 62.103943 
L 152.977045 64.646201 
L 153.993624 58.36528 
L 155.010202 62.380033 
L 156.026781 63.277283 
L 157.043359 61.643807 
L 158.059938 64.151554 
L 159.076517 64.289599 
L 160.093095 63.77193 
L 161.109674 62.023388 
L 162.126253 62.264967 
L 163.142831 58.802437 
L 164.15941 61.804831 
L 165.175988 64.013509 
L 166.192567 59.952798 
L 167.209146 63.357795 
L 168.225724 63.415328 
L 169.242303 61.931387 
L 170.258881 64.726713 
L 171.27546 59.538663 
L 172.292039 62.403012 
L 173.308617 61.747298 
L 174.325196 63.058726 
L 175.341774 61.367717 
L 176.358353 61.229672 
L 177.374932 60.688981 
L 178.39151 61.862364 
L 179.408089 60.113822 
L 180.424668 58.687371 
L 181.441246 60.412891 
L 182.457825 59.020994 
L 183.474403 64.531178 
L 184.490982 62.920681 
L 185.507561 63.277283 
L 186.524139 65.106337 
L 187.540718 64.450623 
L 189.573875 59.435129 
L 190.590454 62.679102 
L 191.607032 58.64137 
L 192.623611 65.600984 
L 193.640189 61.862364 
L 194.656768 63.714397 
L 195.673347 62.264967 
L 196.689925 60.113822 
L 197.706504 62.04641 
L 198.723083 58.36528 
L 199.739661 62.897659 
L 200.75624 58.169702 
L 201.772818 63.576352 
L 202.789397 60.355401 
L 203.805976 63.001193 
L 204.822554 60.65447 
L 205.839133 64.588668 
L 206.855711 64.611733 
L 207.87229 61.172139 
L 208.888869 62.161433 
L 209.905447 61.091627 
L 210.922026 58.204256 
L 211.938604 64.289599 
L 212.955183 62.541057 
L 213.971762 61.229672 
L 214.98834 58.802437 
L 216.004919 64.174619 
L 217.021498 59.48113 
L 218.038076 59.377596 
L 219.054655 60.988093 
L 220.071233 65.600984 
L 221.087812 62.541057 
L 222.104391 63.794952 
L 223.120969 63.277283 
L 224.137548 61.172139 
L 225.154126 55.8 
L 226.170705 62.920681 
L 227.187284 67.153948 
L 228.203862 67.614127 
L 229.220441 59.159039 
L 230.237019 62.759614 
L 231.253598 60.412891 
L 232.270177 62.161433 
L 233.286755 62.426077 
L 234.303334 58.802437 
L 235.319913 65.382427 
L 236.336491 63.058726 
L 237.35307 62.3225 
L 238.369648 59.239551 
L 239.386227 61.448229 
L 240.402806 59.320063 
L 241.419384 60.113822 
L 242.435963 61.287162 
L 243.452541 63.610906 
L 244.46912 63.633885 
L 245.485699 60.136801 
L 246.502277 62.460545 
L 247.518856 62.161433 
L 248.535435 60.550936 
L 249.552013 59.895265 
L 250.568592 62.483524 
L 251.58517 60.850048 
L 252.601749 58.721882 
L 253.618328 61.310184 
L 254.634906 60.608469 
L 255.651485 63.277283 
L 256.668063 61.908365 
L 257.684642 61.804831 
L 258.701221 59.676708 
L 259.717799 60.194334 
L 260.734378 58.744904 
L 261.750956 59.837732 
L 262.767535 59.676708 
L 263.784114 66.578832 
L 264.800692 63.38086 
L 265.817271 61.965898 
L 266.83385 61.666786 
L 267.850428 62.241988 
L 268.867007 64.588668 
L 269.883585 59.837732 
L 270.900164 59.883776 
L 271.916743 61.965898 
L 272.933321 59.642154 
L 273.9499 61.666786 
L 274.966478 60.435913 
L 275.983057 60.631491 
L 278.016214 63.553373 
L 279.032793 59.75722 
L 280.049371 65.842563 
L 281.06595 65.900096 
L 282.082529 63.116216 
L 283.099107 61.425207 
L 284.115686 61.586274 
L 285.132265 62.978171 
L 286.148843 62.782636 
L 287.165422 60.217356 
L 288.182 61.827853 
L 289.198579 58.687371 
L 290.215158 60.217356 
L 291.231736 59.48113 
L 292.248315 65.002803 
L 293.264893 62.483524 
L 294.281472 62.080921 
L 295.298051 64.669223 
L 296.314629 62.3225 
L 297.331208 58.227235 
L 298.347786 59.975777 
L 299.364365 59.975777 
L 300.380944 60.93056 
L 301.397522 61.068605 
L 302.414101 58.963461 
L 303.43068 63.058726 
L 304.447258 60.573958 
L 305.463837 63.334816 
L 306.480415 58.503325 
L 307.496994 64.864758 
L 308.513573 64.232066 
L 309.530151 63.001193 
L 310.54673 62.241988 
L 311.563308 63.001193 
L 312.579887 64.669223 
L 313.596466 63.001193 
L 315.629623 61.908365 
L 316.646201 63.357795 
L 317.66278 63.415328 
L 318.679359 61.068605 
L 319.695937 62.679102 
L 320.712516 61.367717 
L 321.729095 62.023388 
L 322.745673 62.264967 
L 323.762252 60.631491 
L 324.77883 60.631491 
L 325.795409 57.905144 
L 326.811988 62.103943 
L 327.828566 62.725146 
L 328.845145 62.403012 
L 329.861723 59.998756 
L 330.878302 61.804831 
L 331.894881 62.897659 
L 332.911459 58.503325 
L 333.928038 61.827853 
L 334.944617 63.058726 
L 335.961195 63.415328 
L 336.977774 64.450623 
L 337.994352 59.262573 
L 339.010931 62.817147 
L 340.02751 59.320063 
L 341.044088 61.367717 
L 342.060667 62.897659 
L 343.077245 58.940482 
L 344.093824 63.990487 
L 345.110403 61.367717 
L 346.126981 59.619175 
L 347.14356 60.712003 
L 348.160138 63.357795 
L 349.176717 62.04641 
L 350.193296 58.583837 
L 351.209874 59.895265 
L 352.226453 64.289599 
L 353.243032 62.541057 
L 354.25961 59.699687 
L 355.276189 62.817147 
L 356.292767 64.232066 
L 357.309346 62.897659 
L 358.325925 60.435913 
L 359.342503 64.588668 
L 361.37566 61.942876 
L 362.392239 61.862364 
L 363.408818 60.93056 
L 364.425396 62.345479 
L 365.441975 62.426077 
L 366.458553 61.390696 
L 367.475132 58.940482 
L 368.491711 60.573958 
L 369.508289 61.20665 
L 370.524868 60.079311 
L 371.541447 62.978171 
L 372.558025 59.837732 
L 373.574604 62.575568 
L 374.591182 61.528741 
L 375.607761 67.591105 
L 376.62434 58.825416 
L 377.640918 64.588668 
L 378.657497 65.106337 
L 379.674075 60.470424 
L 380.690654 58.940482 
L 381.707233 59.596153 
L 382.723811 61.448229 
L 383.74039 63.691418 
L 384.756968 61.448229 
L 386.790126 63.415328 
L 387.806704 59.400618 
L 388.823283 63.116216 
L 389.839862 60.435913 
L 390.85644 62.103943 
L 391.873019 59.400618 
L 392.889597 62.621569 
L 393.906176 60.65447 
L 394.922755 59.320063 
L 395.939333 61.528741 
L 396.955912 59.780199 
L 397.97249 59.895265 
L 400.005648 61.126138 
L 401.022226 63.035704 
L 402.038805 62.541057 
L 403.055383 63.21975 
L 404.071962 58.606859 
L 405.088541 63.311794 
L 406.105119 61.942876 
L 407.121698 60.274846 
L 408.138277 61.827853 
L 409.154855 62.840126 
L 410.171434 64.853312 
L 411.188012 63.196771 
L 412.204591 62.299478 
L 413.22117 65.347959 
L 414.237748 61.724319 
L 415.254327 58.664392 
L 417.287484 61.287162 
L 418.304063 63.633885 
L 419.320641 64.174619 
L 420.33722 63.875464 
L 421.353799 61.011072 
L 422.370377 59.182018 
L 423.386956 62.955192 
L 424.403534 63.656907 
L 425.420113 62.920681 
L 427.45327 64.588668 
L 428.469849 63.357795 
L 429.486427 64.83029 
L 430.503006 62.656124 
L 431.519585 63.852442 
L 432.536163 64.151554 
L 433.552742 60.217356 
L 434.56932 59.975777 
L 435.585899 61.528741 
L 436.602478 59.975777 
L 437.619056 59.975777 
L 438.635635 61.781852 
L 439.652214 63.058726 
L 440.668792 64.071042 
L 441.685371 62.403012 
L 442.701949 64.508156 
L 443.718528 64.450623 
L 444.735107 63.415328 
L 445.751685 62.920681 
L 446.768264 57.571521 
L 447.784842 62.3225 
L 448.801421 60.470424 
L 449.818 63.277283 
L 450.834578 57.272452 
L 451.851157 59.262573 
L 452.867735 60.815537 
L 453.884314 61.091627 
L 454.900893 59.458108 
L 455.917471 61.666786 
L 456.93405 67.752172 
L 457.950629 59.75722 
L 458.967207 61.528741 
L 459.983786 60.274846 
L 461.000364 63.38086 
L 462.016943 59.320063 
L 463.033522 63.656907 
L 464.0501 61.091627 
L 465.066679 62.460545 
L 466.083257 59.262573 
L 467.099836 61.942876 
L 468.116415 62.000409 
L 469.132993 63.334816 
L 470.149572 63.932997 
L 471.16615 60.03331 
L 472.182729 59.538663 
L 473.199308 62.000409 
L 474.215886 59.458108 
L 476.249044 63.49584 
L 477.265622 62.564036 
L 478.282201 59.159039 
L 479.298779 63.576352 
L 480.315358 59.596153 
L 481.331937 58.744904 
L 482.348515 63.357795 
L 483.365094 60.079311 
L 486.41483 65.462939 
L 487.431408 60.332379 
L 488.447987 60.332379 
L 489.464565 59.596153 
L 490.481144 61.011072 
L 491.497723 62.840126 
L 492.514301 65.681496 
L 493.53088 60.631491 
L 494.547459 63.116216 
L 495.564037 61.287162 
L 496.580616 63.334816 
L 497.597194 60.93056 
L 498.613773 62.978171 
L 499.630352 61.747298 
L 500.64693 63.875464 
L 501.663509 65.324894 
L 502.680087 64.312578 
L 503.696666 64.312578 
L 504.713245 62.103943 
L 505.729823 64.508156 
L 506.746402 58.583837 
L 507.762981 59.998756 
L 508.779559 62.3225 
L 509.796138 61.229672 
L 510.812716 62.403012 
L 511.829295 59.182018 
L 512.845874 61.448229 
L 513.862452 59.538663 
L 514.879031 60.631491 
L 515.895609 61.287162 
L 516.912188 66.475255 
L 517.928767 61.747298 
L 518.945345 63.737462 
L 519.961924 60.988093 
L 520.978502 59.182018 
L 521.995081 59.239551 
L 523.01166 62.759614 
L 524.028238 66.877945 
L 525.044817 62.759614 
L 526.061396 59.676708 
L 527.077974 61.448229 
L 528.094553 62.541057 
L 529.111131 62.621569 
L 530.12771 61.98892 
L 531.144289 64.232066 
L 532.160867 66.900923 
L 533.177446 58.066211 
L 534.194024 60.274846 
L 535.210603 61.609253 
L 536.227182 60.171355 
L 537.24376 62.541057 
L 538.260339 58.008678 
L 539.276917 60.355401 
L 540.293496 60.988093 
L 541.310075 60.493446 
L 542.326653 61.011072 
L 543.343232 60.435913 
L 544.359811 67.890217 
L 545.376389 61.666786 
L 546.392968 59.952798 
L 547.409546 62.3225 
L 548.426125 60.194334 
L 549.442704 65.819541 
L 550.459282 61.666786 
L 551.475861 56.099112 
L 552.492439 61.068605 
L 553.509018 61.885343 
L 554.525597 59.320063 
L 555.542175 60.251867 
L 556.558754 60.056289 
L 557.575332 57.709566 
L 558.591911 60.873027 
L 559.60849 62.241988 
L 561.641647 64.094021 
L 562.658226 63.277283 
L 563.674804 65.762051 
L 564.691383 63.058726 
L 565.707961 62.782636 
L 566.72454 63.656907 
L 567.741119 61.747298 
L 568.757697 61.344695 
L 569.774276 60.136801 
L 571.807433 63.173749 
L 572.824012 57.847611 
L 573.84059 60.113822 
L 574.857169 64.209087 
L 575.873747 62.264967 
L 576.890326 64.945313 
L 577.906905 63.300348 
L 578.923483 63.357795 
L 580.956641 61.149117 
L 581.973219 57.709566 
L 582.989798 62.483524 
L 584.006376 59.285552 
L 586.039534 63.49584 
L 587.056112 65.025825 
L 589.089269 62.978171 
L 590.105848 64.370111 
L 591.122427 64.473688 
L 592.139005 61.091627 
L 593.155584 61.448229 
L 594.172163 63.956019 
L 595.188741 59.239551 
L 596.20532 60.631491 
L 597.221898 63.277283 
L 598.238477 59.75722 
L 599.255056 60.688981 
L 600.271634 61.310184 
L 601.288213 60.65447 
L 602.304791 65.543451 
L 603.32137 60.470424 
L 604.337949 60.850048 
L 605.354527 60.65447 
L 606.371106 67.453104 
L 607.387684 60.136801 
L 608.404263 59.975777 
L 609.420842 61.563252 
L 610.43742 61.448229 
L 611.453999 63.852442 
L 612.470578 59.676708 
L 613.487156 61.229672 
L 614.503735 60.988093 
L 615.520313 62.782636 
L 616.536892 57.732588 
L 618.570049 63.990487 
L 619.586628 62.04641 
L 620.603206 66.578832 
L 621.619785 60.516425 
L 622.636364 60.734982 
L 622.636364 60.734982 
" clip-path="url(#p27b41d2d57)" style="fill: none; stroke: #1f77b4; stroke-width: 1.5; stroke-linecap: square"/>
   </g>
   <g id="line2d_28">
    <path d="M 115.363636 305.905739 
L 127.56258 305.905739 
L 128.579158 304.011521 
L 129.595737 305.905739 
L 140.778102 305.905739 
L 141.79468 304.011521 
L 142.811259 305.905739 
L 166.192567 305.905739 
L 167.209146 304.011521 
L 168.225724 305.905739 
L 172.292039 305.905739 
L 173.308617 304.011521 
L 174.325196 304.011521 
L 175.341774 305.905739 
L 176.358353 305.905739 
L 177.374932 304.011521 
L 197.706504 304.011521 
L 198.723083 305.905739 
L 200.75624 305.905739 
L 201.772818 304.011521 
L 204.822554 304.011521 
L 205.839133 305.905739 
L 206.855711 304.011521 
L 207.87229 305.905739 
L 208.888869 305.905739 
L 209.905447 304.011521 
L 214.98834 304.011521 
L 216.004919 305.905739 
L 217.021498 304.011521 
L 219.054655 304.011521 
L 220.071233 305.905739 
L 227.187284 305.905739 
L 228.203862 304.011521 
L 229.220441 305.905739 
L 232.270177 305.905739 
L 233.286755 307.8 
L 235.319913 304.011521 
L 236.336491 304.011521 
L 237.35307 305.905739 
L 241.419384 305.905739 
L 242.435963 304.011521 
L 243.452541 304.011521 
L 244.46912 305.905739 
L 256.668063 305.905739 
L 257.684642 304.011521 
L 259.717799 304.011521 
L 260.734378 305.905739 
L 261.750956 305.905739 
L 262.767535 304.011521 
L 263.784114 304.011521 
L 264.800692 305.905739 
L 266.83385 305.905739 
L 267.850428 304.011521 
L 270.900164 304.011521 
L 271.916743 305.905739 
L 287.165422 305.905739 
L 288.182 304.011521 
L 289.198579 304.011521 
L 290.215158 305.905739 
L 291.231736 305.905739 
L 292.248315 304.011521 
L 293.264893 305.905739 
L 296.314629 305.905739 
L 297.331208 304.011521 
L 298.347786 304.011521 
L 299.364365 305.905739 
L 300.380944 304.011521 
L 301.397522 305.905739 
L 303.43068 305.905739 
L 304.447258 304.011521 
L 305.463837 305.905739 
L 306.480415 304.011521 
L 307.496994 305.905739 
L 308.513573 305.905739 
L 309.530151 304.011521 
L 318.679359 304.011521 
L 319.695937 302.11726 
L 320.712516 304.011521 
L 324.77883 304.011521 
L 325.795409 305.905739 
L 326.811988 304.011521 
L 328.845145 304.011521 
L 329.861723 305.905739 
L 331.894881 305.905739 
L 332.911459 304.011521 
L 339.010931 304.011521 
L 340.02751 302.11726 
L 341.044088 304.011521 
L 351.209874 304.011521 
L 352.226453 302.11726 
L 355.276189 302.11726 
L 356.292767 304.011521 
L 357.309346 302.11726 
L 358.325925 304.011521 
L 359.342503 304.011521 
L 360.359082 302.11726 
L 361.37566 304.011521 
L 381.707233 304.011521 
L 382.723811 305.905739 
L 383.74039 305.905739 
L 384.756968 304.011521 
L 390.85644 304.011521 
L 391.873019 302.11726 
L 392.889597 304.011521 
L 402.038805 304.011521 
L 403.055383 301.680146 
L 404.071962 304.011521 
L 408.138277 304.011521 
L 409.154855 299.785885 
L 410.171434 299.785885 
L 411.188012 304.011521 
L 416.270905 304.011521 
L 417.287484 299.785885 
L 418.304063 304.011521 
L 424.403534 304.011521 
L 425.420113 305.905739 
L 426.436692 304.011521 
L 427.45327 305.905739 
L 428.469849 304.011521 
L 429.486427 304.011521 
L 430.503006 302.11726 
L 431.519585 304.011521 
L 442.701949 304.011521 
L 443.718528 305.905739 
L 451.851157 305.905739 
L 452.867735 307.8 
L 453.884314 305.905739 
L 454.900893 305.905739 
L 455.917471 304.011521 
L 456.93405 304.011521 
L 457.950629 305.905739 
L 459.983786 305.905739 
L 461.000364 304.011521 
L 463.033522 304.011521 
L 464.0501 305.905739 
L 465.066679 304.011521 
L 470.149572 304.011521 
L 471.16615 305.905739 
L 473.199308 305.905739 
L 474.215886 304.011521 
L 475.232465 305.905739 
L 481.331937 305.905739 
L 482.348515 304.011521 
L 483.365094 305.905739 
L 484.381672 304.011521 
L 485.398251 303.574407 
L 486.41483 304.011521 
L 487.431408 301.680146 
L 488.447987 304.011521 
L 489.464565 305.905739 
L 490.481144 304.011521 
L 497.597194 304.011521 
L 498.613773 301.680146 
L 499.630352 304.011521 
L 501.663509 304.011521 
L 502.680087 305.905739 
L 503.696666 304.011521 
L 504.713245 301.680146 
L 505.729823 304.011521 
L 506.746402 305.905739 
L 507.762981 304.011521 
L 508.779559 304.011521 
L 509.796138 301.680146 
L 512.845874 301.680146 
L 513.862452 303.574407 
L 515.895609 303.574407 
L 516.912188 305.468625 
L 517.928767 303.574407 
L 518.945345 305.905739 
L 519.961924 303.574407 
L 521.995081 303.574407 
L 523.01166 301.680146 
L 524.028238 303.574407 
L 525.044817 301.680146 
L 528.094553 301.680146 
L 529.111131 303.574407 
L 530.12771 301.680146 
L 531.144289 304.011521 
L 532.160867 301.680146 
L 533.177446 304.011521 
L 535.210603 304.011521 
L 536.227182 301.680146 
L 537.24376 301.680146 
L 538.260339 305.468625 
L 539.276917 305.468625 
L 540.293496 307.8 
L 541.310075 305.905739 
L 542.326653 305.468625 
L 543.343232 301.680146 
L 544.359811 303.574407 
L 545.376389 305.905739 
L 546.392968 304.011521 
L 547.409546 301.680146 
L 548.426125 304.011521 
L 549.442704 304.011521 
L 550.459282 305.905739 
L 551.475861 303.574407 
L 552.492439 303.574407 
L 553.509018 305.905739 
L 554.525597 305.905739 
L 555.542175 304.011521 
L 556.558754 307.8 
L 558.591911 304.011521 
L 559.60849 303.574407 
L 560.625068 303.574407 
L 561.641647 301.680146 
L 563.674804 305.468625 
L 564.691383 303.574407 
L 567.741119 303.574407 
L 568.757697 305.468625 
L 569.774276 303.574407 
L 570.790854 303.574407 
L 571.807433 301.680146 
L 580.956641 301.680146 
L 581.973219 299.785885 
L 582.989798 301.680146 
L 584.006376 301.680146 
L 585.022955 299.785885 
L 586.039534 299.785885 
L 587.056112 301.680146 
L 588.072691 299.785885 
L 590.105848 299.785885 
L 591.122427 301.680146 
L 593.155584 301.680146 
L 594.172163 305.905739 
L 595.188741 301.680146 
L 596.20532 304.011521 
L 597.221898 301.680146 
L 598.238477 299.785885 
L 600.271634 299.785885 
L 601.288213 301.680146 
L 604.337949 301.680146 
L 605.354527 303.574407 
L 607.387684 303.574407 
L 608.404263 304.011521 
L 609.420842 305.905739 
L 610.43742 303.574407 
L 611.453999 305.905739 
L 612.470578 305.905739 
L 613.487156 303.574407 
L 614.503735 301.680146 
L 615.520313 305.905739 
L 616.536892 301.680146 
L 617.553471 303.574407 
L 618.570049 301.680146 
L 619.586628 301.680146 
L 620.603206 302.11726 
L 621.619785 305.905739 
L 622.636364 304.011521 
L 622.636364 304.011521 
" clip-path="url(#p27b41d2d57)" style="fill: none; stroke: #ff7f0e; stroke-width: 1.5; stroke-linecap: square"/>
   </g>
   <g id="patch_3">
    <path d="M 90 320.4 
L 90 43.2 
" style="fill: none; stroke: #000000; stroke-width: 0.8; stroke-linejoin: miter; stroke-linecap: square"/>
   </g>
   <g id="patch_4">
    <path d="M 648 320.4 
L 648 43.2 
" style="fill: none; stroke: #000000; stroke-width: 0.8; stroke-linejoin: miter; stroke-linecap: square"/>
   </g>
   <g id="patch_5">
    <path d="M 90 320.4 
L 648 320.4 
" style="fill: none; stroke: #000000; stroke-width: 0.8; stroke-linejoin: miter; stroke-linecap: square"/>
   </g>
   <g id="patch_6">
    <path d="M 90 43.2 
L 648 43.2 
" style="fill: none; stroke: #000000; stroke-width: 0.8; stroke-linejoin: miter; stroke-linecap: square"/>
   </g>
   <g id="text_16">
    <!-- model train and validation accracy over time -->
    <g transform="translate(233.87625 37.2) scale(0.12 -0.12)">
     <defs>
      <path id="DejaVuSans-6d" d="M 3328 2828 
Q 3544 3216 3844 3400 
Q 4144 3584 4550 3584 
Q 5097 3584 5394 3201 
Q 5691 2819 5691 2113 
L 5691 0 
L 5113 0 
L 5113 2094 
Q 5113 2597 4934 2840 
Q 4756 3084 4391 3084 
Q 3944 3084 3684 2787 
Q 3425 2491 3425 1978 
L 3425 0 
L 2847 0 
L 2847 2094 
Q 2847 2600 2669 2842 
Q 2491 3084 2119 3084 
Q 1678 3084 1418 2786 
Q 1159 2488 1159 1978 
L 1159 0 
L 581 0 
L 581 3500 
L 1159 3500 
L 1159 2956 
Q 1356 3278 1631 3431 
Q 1906 3584 2284 3584 
Q 2666 3584 2933 3390 
Q 3200 3197 3328 2828 
z
" transform="scale(0.015625)"/>
      <path id="DejaVuSans-64" d="M 2906 2969 
L 2906 4863 
L 3481 4863 
L 3481 0 
L 2906 0 
L 2906 525 
Q 2725 213 2448 61 
Q 2172 -91 1784 -91 
Q 1150 -91 751 415 
Q 353 922 353 1747 
Q 353 2572 751 3078 
Q 1150 3584 1784 3584 
Q 2172 3584 2448 3432 
Q 2725 3281 2906 2969 
z
M 947 1747 
Q 947 1113 1208 752 
Q 1469 391 1925 391 
Q 2381 391 2643 752 
Q 2906 1113 2906 1747 
Q 2906 2381 2643 2742 
Q 2381 3103 1925 3103 
Q 1469 3103 1208 2742 
Q 947 2381 947 1747 
z
" transform="scale(0.015625)"/>
      <path id="DejaVuSans-6c" d="M 603 4863 
L 1178 4863 
L 1178 0 
L 603 0 
L 603 4863 
z
" transform="scale(0.015625)"/>
      <path id="DejaVuSans-20" transform="scale(0.015625)"/>
      <path id="DejaVuSans-74" d="M 1172 4494 
L 1172 3500 
L 2356 3500 
L 2356 3053 
L 1172 3053 
L 1172 1153 
Q 1172 725 1289 603 
Q 1406 481 1766 481 
L 2356 481 
L 2356 0 
L 1766 0 
Q 1100 0 847 248 
Q 594 497 594 1153 
L 594 3053 
L 172 3053 
L 172 3500 
L 594 3500 
L 594 4494 
L 1172 4494 
z
" transform="scale(0.015625)"/>
      <path id="DejaVuSans-69" d="M 603 3500 
L 1178 3500 
L 1178 0 
L 603 0 
L 603 3500 
z
M 603 4863 
L 1178 4863 
L 1178 4134 
L 603 4134 
L 603 4863 
z
" transform="scale(0.015625)"/>
      <path id="DejaVuSans-6e" d="M 3513 2113 
L 3513 0 
L 2938 0 
L 2938 2094 
Q 2938 2591 2744 2837 
Q 2550 3084 2163 3084 
Q 1697 3084 1428 2787 
Q 1159 2491 1159 1978 
L 1159 0 
L 581 0 
L 581 3500 
L 1159 3500 
L 1159 2956 
Q 1366 3272 1645 3428 
Q 1925 3584 2291 3584 
Q 2894 3584 3203 3211 
Q 3513 2838 3513 2113 
z
" transform="scale(0.015625)"/>
      <path id="DejaVuSans-76" d="M 191 3500 
L 800 3500 
L 1894 563 
L 2988 3500 
L 3597 3500 
L 2284 0 
L 1503 0 
L 191 3500 
z
" transform="scale(0.015625)"/>
     </defs>
     <use xlink:href="#DejaVuSans-6d"/>
     <use xlink:href="#DejaVuSans-6f" x="97.412109"/>
     <use xlink:href="#DejaVuSans-64" x="158.59375"/>
     <use xlink:href="#DejaVuSans-65" x="222.070312"/>
     <use xlink:href="#DejaVuSans-6c" x="283.59375"/>
     <use xlink:href="#DejaVuSans-20" x="311.376953"/>
     <use xlink:href="#DejaVuSans-74" x="343.164062"/>
     <use xlink:href="#DejaVuSans-72" x="382.373047"/>
     <use xlink:href="#DejaVuSans-61" x="423.486328"/>
     <use xlink:href="#DejaVuSans-69" x="484.765625"/>
     <use xlink:href="#DejaVuSans-6e" x="512.548828"/>
     <use xlink:href="#DejaVuSans-20" x="575.927734"/>
     <use xlink:href="#DejaVuSans-61" x="607.714844"/>
     <use xlink:href="#DejaVuSans-6e" x="668.994141"/>
     <use xlink:href="#DejaVuSans-64" x="732.373047"/>
     <use xlink:href="#DejaVuSans-20" x="795.849609"/>
     <use xlink:href="#DejaVuSans-76" x="827.636719"/>
     <use xlink:href="#DejaVuSans-61" x="886.816406"/>
     <use xlink:href="#DejaVuSans-6c" x="948.095703"/>
     <use xlink:href="#DejaVuSans-69" x="975.878906"/>
     <use xlink:href="#DejaVuSans-64" x="1003.662109"/>
     <use xlink:href="#DejaVuSans-61" x="1067.138672"/>
     <use xlink:href="#DejaVuSans-74" x="1128.417969"/>
     <use xlink:href="#DejaVuSans-69" x="1167.626953"/>
     <use xlink:href="#DejaVuSans-6f" x="1195.410156"/>
     <use xlink:href="#DejaVuSans-6e" x="1256.591797"/>
     <use xlink:href="#DejaVuSans-20" x="1319.970703"/>
     <use xlink:href="#DejaVuSans-61" x="1351.757812"/>
     <use xlink:href="#DejaVuSans-63" x="1413.037109"/>
     <use xlink:href="#DejaVuSans-63" x="1468.017578"/>
     <use xlink:href="#DejaVuSans-72" x="1522.998047"/>
     <use xlink:href="#DejaVuSans-61" x="1564.111328"/>
     <use xlink:href="#DejaVuSans-63" x="1625.390625"/>
     <use xlink:href="#DejaVuSans-79" x="1680.371094"/>
     <use xlink:href="#DejaVuSans-20" x="1739.550781"/>
     <use xlink:href="#DejaVuSans-6f" x="1771.337891"/>
     <use xlink:href="#DejaVuSans-76" x="1832.519531"/>
     <use xlink:href="#DejaVuSans-65" x="1891.699219"/>
     <use xlink:href="#DejaVuSans-72" x="1953.222656"/>
     <use xlink:href="#DejaVuSans-20" x="1994.335938"/>
     <use xlink:href="#DejaVuSans-74" x="2026.123047"/>
     <use xlink:href="#DejaVuSans-69" x="2065.332031"/>
     <use xlink:href="#DejaVuSans-6d" x="2093.115234"/>
     <use xlink:href="#DejaVuSans-65" x="2190.527344"/>
    </g>
   </g>
   <g id="legend_1">
    <g id="patch_7">
     <path d="M 559.765625 197.978125 
L 641 197.978125 
Q 643 197.978125 643 195.978125 
L 643 167.621875 
Q 643 165.621875 641 165.621875 
L 559.765625 165.621875 
Q 557.765625 165.621875 557.765625 167.621875 
L 557.765625 195.978125 
Q 557.765625 197.978125 559.765625 197.978125 
z
" style="fill: #ffffff; opacity: 0.8; stroke: #cccccc; stroke-linejoin: miter"/>
    </g>
    <g id="line2d_29">
     <path d="M 561.765625 173.720312 
L 571.765625 173.720312 
L 581.765625 173.720312 
" style="fill: none; stroke: #1f77b4; stroke-width: 1.5; stroke-linecap: square"/>
    </g>
    <g id="text_17">
     <!-- train -->
     <g transform="translate(589.765625 177.220312) scale(0.1 -0.1)">
      <use xlink:href="#DejaVuSans-74"/>
      <use xlink:href="#DejaVuSans-72" x="39.208984"/>
      <use xlink:href="#DejaVuSans-61" x="80.322266"/>
      <use xlink:href="#DejaVuSans-69" x="141.601562"/>
      <use xlink:href="#DejaVuSans-6e" x="169.384766"/>
     </g>
    </g>
    <g id="line2d_30">
     <path d="M 561.765625 188.398437 
L 571.765625 188.398437 
L 581.765625 188.398437 
" style="fill: none; stroke: #ff7f0e; stroke-width: 1.5; stroke-linecap: square"/>
    </g>
    <g id="text_18">
     <!-- validation -->
     <g transform="translate(589.765625 191.898437) scale(0.1 -0.1)">
      <use xlink:href="#DejaVuSans-76"/>
      <use xlink:href="#DejaVuSans-61" x="59.179688"/>
      <use xlink:href="#DejaVuSans-6c" x="120.458984"/>
      <use xlink:href="#DejaVuSans-69" x="148.242188"/>
      <use xlink:href="#DejaVuSans-64" x="176.025391"/>
      <use xlink:href="#DejaVuSans-61" x="239.501953"/>
      <use xlink:href="#DejaVuSans-74" x="300.78125"/>
      <use xlink:href="#DejaVuSans-69" x="339.990234"/>
      <use xlink:href="#DejaVuSans-6f" x="367.773438"/>
      <use xlink:href="#DejaVuSans-6e" x="428.955078"/>
     </g>
    </g>
   </g>
  </g>
 </g>
 <defs>
  <clipPath id="p27b41d2d57">
   <rect x="90" y="43.2" width="558" height="277.2"/>
  </clipPath>
 </defs>
</svg>
