<?xml version="1.0" encoding="utf-8" standalone="no"?>
<!DOCTYPE svg PUBLIC "-//W3C//DTD SVG 1.1//EN"
  "http://www.w3.org/Graphics/SVG/1.1/DTD/svg11.dtd">
<svg xmlns:xlink="http://www.w3.org/1999/xlink" width="720pt" height="360pt" viewBox="0 0 720 360" xmlns="http://www.w3.org/2000/svg" version="1.1">
 <metadata>
  <rdf:RDF xmlns:dc="http://purl.org/dc/elements/1.1/" xmlns:cc="http://creativecommons.org/ns#" xmlns:rdf="http://www.w3.org/1999/02/22-rdf-syntax-ns#">
   <cc:Work>
    <dc:type rdf:resource="http://purl.org/dc/dcmitype/StillImage"/>
    <dc:date>2023-05-24T12:10:37.067984</dc:date>
    <dc:format>image/svg+xml</dc:format>
    <dc:creator>
     <cc:Agent>
      <dc:title>Matplotlib v3.7.1, https://matplotlib.org/</dc:title>
     </cc:Agent>
    </dc:creator>
   </cc:Work>
  </rdf:RDF>
 </metadata>
 <defs>
  <style type="text/css">*{stroke-linejoin: round; stroke-linecap: butt}</style>
 </defs>
 <g id="figure_1">
  <g id="patch_1">
   <path d="M 0 360 
L 720 360 
L 720 0 
L 0 0 
z
" style="fill: #ffffff"/>
  </g>
  <g id="axes_1">
   <g id="patch_2">
    <path d="M 90 320.4 
L 648 320.4 
L 648 43.2 
L 90 43.2 
z
" style="fill: #ffffff"/>
   </g>
   <g id="matplotlib.axis_1">
    <g id="xtick_1">
     <g id="line2d_1">
      <path d="M 115.363636 320.4 
L 115.363636 43.2 
" clip-path="url(#pa2a08452e0)" style="fill: none; stroke: #b0b0b0; stroke-width: 0.8; stroke-linecap: square"/>
     </g>
     <g id="line2d_2">
      <defs>
       <path id="m51956a4591" d="M 0 0 
L 0 3.5 
" style="stroke: #000000; stroke-width: 0.8"/>
      </defs>
      <g>
       <use xlink:href="#m51956a4591" x="115.363636" y="320.4" style="stroke: #000000; stroke-width: 0.8"/>
      </g>
     </g>
     <g id="text_1">
      <!-- 0 -->
      <g transform="translate(112.182386 334.998438) scale(0.1 -0.1)">
       <defs>
        <path id="DejaVuSans-30" d="M 2034 4250 
Q 1547 4250 1301 3770 
Q 1056 3291 1056 2328 
Q 1056 1369 1301 889 
Q 1547 409 2034 409 
Q 2525 409 2770 889 
Q 3016 1369 3016 2328 
Q 3016 3291 2770 3770 
Q 2525 4250 2034 4250 
z
M 2034 4750 
Q 2819 4750 3233 4129 
Q 3647 3509 3647 2328 
Q 3647 1150 3233 529 
Q 2819 -91 2034 -91 
Q 1250 -91 836 529 
Q 422 1150 422 2328 
Q 422 3509 836 4129 
Q 1250 4750 2034 4750 
z
" transform="scale(0.015625)"/>
       </defs>
       <use xlink:href="#DejaVuSans-30"/>
      </g>
     </g>
    </g>
    <g id="xtick_2">
     <g id="line2d_3">
      <path d="M 217.021498 320.4 
L 217.021498 43.2 
" clip-path="url(#pa2a08452e0)" style="fill: none; stroke: #b0b0b0; stroke-width: 0.8; stroke-linecap: square"/>
     </g>
     <g id="line2d_4">
      <g>
       <use xlink:href="#m51956a4591" x="217.021498" y="320.4" style="stroke: #000000; stroke-width: 0.8"/>
      </g>
     </g>
     <g id="text_2">
      <!-- 100 -->
      <g transform="translate(207.477748 334.998438) scale(0.1 -0.1)">
       <defs>
        <path id="DejaVuSans-31" d="M 794 531 
L 1825 531 
L 1825 4091 
L 703 3866 
L 703 4441 
L 1819 4666 
L 2450 4666 
L 2450 531 
L 3481 531 
L 3481 0 
L 794 0 
L 794 531 
z
" transform="scale(0.015625)"/>
       </defs>
       <use xlink:href="#DejaVuSans-31"/>
       <use xlink:href="#DejaVuSans-30" x="63.623047"/>
       <use xlink:href="#DejaVuSans-30" x="127.246094"/>
      </g>
     </g>
    </g>
    <g id="xtick_3">
     <g id="line2d_5">
      <path d="M 318.679359 320.4 
L 318.679359 43.2 
" clip-path="url(#pa2a08452e0)" style="fill: none; stroke: #b0b0b0; stroke-width: 0.8; stroke-linecap: square"/>
     </g>
     <g id="line2d_6">
      <g>
       <use xlink:href="#m51956a4591" x="318.679359" y="320.4" style="stroke: #000000; stroke-width: 0.8"/>
      </g>
     </g>
     <g id="text_3">
      <!-- 200 -->
      <g transform="translate(309.135609 334.998438) scale(0.1 -0.1)">
       <defs>
        <path id="DejaVuSans-32" d="M 1228 531 
L 3431 531 
L 3431 0 
L 469 0 
L 469 531 
Q 828 903 1448 1529 
Q 2069 2156 2228 2338 
Q 2531 2678 2651 2914 
Q 2772 3150 2772 3378 
Q 2772 3750 2511 3984 
Q 2250 4219 1831 4219 
Q 1534 4219 1204 4116 
Q 875 4013 500 3803 
L 500 4441 
Q 881 4594 1212 4672 
Q 1544 4750 1819 4750 
Q 2544 4750 2975 4387 
Q 3406 4025 3406 3419 
Q 3406 3131 3298 2873 
Q 3191 2616 2906 2266 
Q 2828 2175 2409 1742 
Q 1991 1309 1228 531 
z
" transform="scale(0.015625)"/>
       </defs>
       <use xlink:href="#DejaVuSans-32"/>
       <use xlink:href="#DejaVuSans-30" x="63.623047"/>
       <use xlink:href="#DejaVuSans-30" x="127.246094"/>
      </g>
     </g>
    </g>
    <g id="xtick_4">
     <g id="line2d_7">
      <path d="M 420.33722 320.4 
L 420.33722 43.2 
" clip-path="url(#pa2a08452e0)" style="fill: none; stroke: #b0b0b0; stroke-width: 0.8; stroke-linecap: square"/>
     </g>
     <g id="line2d_8">
      <g>
       <use xlink:href="#m51956a4591" x="420.33722" y="320.4" style="stroke: #000000; stroke-width: 0.8"/>
      </g>
     </g>
     <g id="text_4">
      <!-- 300 -->
      <g transform="translate(410.79347 334.998438) scale(0.1 -0.1)">
       <defs>
        <path id="DejaVuSans-33" d="M 2597 2516 
Q 3050 2419 3304 2112 
Q 3559 1806 3559 1356 
Q 3559 666 3084 287 
Q 2609 -91 1734 -91 
Q 1441 -91 1130 -33 
Q 819 25 488 141 
L 488 750 
Q 750 597 1062 519 
Q 1375 441 1716 441 
Q 2309 441 2620 675 
Q 2931 909 2931 1356 
Q 2931 1769 2642 2001 
Q 2353 2234 1838 2234 
L 1294 2234 
L 1294 2753 
L 1863 2753 
Q 2328 2753 2575 2939 
Q 2822 3125 2822 3475 
Q 2822 3834 2567 4026 
Q 2313 4219 1838 4219 
Q 1578 4219 1281 4162 
Q 984 4106 628 3988 
L 628 4550 
Q 988 4650 1302 4700 
Q 1616 4750 1894 4750 
Q 2613 4750 3031 4423 
Q 3450 4097 3450 3541 
Q 3450 3153 3228 2886 
Q 3006 2619 2597 2516 
z
" transform="scale(0.015625)"/>
       </defs>
       <use xlink:href="#DejaVuSans-33"/>
       <use xlink:href="#DejaVuSans-30" x="63.623047"/>
       <use xlink:href="#DejaVuSans-30" x="127.246094"/>
      </g>
     </g>
    </g>
    <g id="xtick_5">
     <g id="line2d_9">
      <path d="M 521.995081 320.4 
L 521.995081 43.2 
" clip-path="url(#pa2a08452e0)" style="fill: none; stroke: #b0b0b0; stroke-width: 0.8; stroke-linecap: square"/>
     </g>
     <g id="line2d_10">
      <g>
       <use xlink:href="#m51956a4591" x="521.995081" y="320.4" style="stroke: #000000; stroke-width: 0.8"/>
      </g>
     </g>
     <g id="text_5">
      <!-- 400 -->
      <g transform="translate(512.451331 334.998438) scale(0.1 -0.1)">
       <defs>
        <path id="DejaVuSans-34" d="M 2419 4116 
L 825 1625 
L 2419 1625 
L 2419 4116 
z
M 2253 4666 
L 3047 4666 
L 3047 1625 
L 3713 1625 
L 3713 1100 
L 3047 1100 
L 3047 0 
L 2419 0 
L 2419 1100 
L 313 1100 
L 313 1709 
L 2253 4666 
z
" transform="scale(0.015625)"/>
       </defs>
       <use xlink:href="#DejaVuSans-34"/>
       <use xlink:href="#DejaVuSans-30" x="63.623047"/>
       <use xlink:href="#DejaVuSans-30" x="127.246094"/>
      </g>
     </g>
    </g>
    <g id="xtick_6">
     <g id="line2d_11">
      <path d="M 623.652942 320.4 
L 623.652942 43.2 
" clip-path="url(#pa2a08452e0)" style="fill: none; stroke: #b0b0b0; stroke-width: 0.8; stroke-linecap: square"/>
     </g>
     <g id="line2d_12">
      <g>
       <use xlink:href="#m51956a4591" x="623.652942" y="320.4" style="stroke: #000000; stroke-width: 0.8"/>
      </g>
     </g>
     <g id="text_6">
      <!-- 500 -->
      <g transform="translate(614.109192 334.998438) scale(0.1 -0.1)">
       <defs>
        <path id="DejaVuSans-35" d="M 691 4666 
L 3169 4666 
L 3169 4134 
L 1269 4134 
L 1269 2991 
Q 1406 3038 1543 3061 
Q 1681 3084 1819 3084 
Q 2600 3084 3056 2656 
Q 3513 2228 3513 1497 
Q 3513 744 3044 326 
Q 2575 -91 1722 -91 
Q 1428 -91 1123 -41 
Q 819 9 494 109 
L 494 744 
Q 775 591 1075 516 
Q 1375 441 1709 441 
Q 2250 441 2565 725 
Q 2881 1009 2881 1497 
Q 2881 1984 2565 2268 
Q 2250 2553 1709 2553 
Q 1456 2553 1204 2497 
Q 953 2441 691 2322 
L 691 4666 
z
" transform="scale(0.015625)"/>
       </defs>
       <use xlink:href="#DejaVuSans-35"/>
       <use xlink:href="#DejaVuSans-30" x="63.623047"/>
       <use xlink:href="#DejaVuSans-30" x="127.246094"/>
      </g>
     </g>
    </g>
    <g id="text_7">
     <!-- epoch -->
     <g transform="translate(353.771875 348.676562) scale(0.1 -0.1)">
      <defs>
       <path id="DejaVuSans-65" d="M 3597 1894 
L 3597 1613 
L 953 1613 
Q 991 1019 1311 708 
Q 1631 397 2203 397 
Q 2534 397 2845 478 
Q 3156 559 3463 722 
L 3463 178 
Q 3153 47 2828 -22 
Q 2503 -91 2169 -91 
Q 1331 -91 842 396 
Q 353 884 353 1716 
Q 353 2575 817 3079 
Q 1281 3584 2069 3584 
Q 2775 3584 3186 3129 
Q 3597 2675 3597 1894 
z
M 3022 2063 
Q 3016 2534 2758 2815 
Q 2500 3097 2075 3097 
Q 1594 3097 1305 2825 
Q 1016 2553 972 2059 
L 3022 2063 
z
" transform="scale(0.015625)"/>
       <path id="DejaVuSans-70" d="M 1159 525 
L 1159 -1331 
L 581 -1331 
L 581 3500 
L 1159 3500 
L 1159 2969 
Q 1341 3281 1617 3432 
Q 1894 3584 2278 3584 
Q 2916 3584 3314 3078 
Q 3713 2572 3713 1747 
Q 3713 922 3314 415 
Q 2916 -91 2278 -91 
Q 1894 -91 1617 61 
Q 1341 213 1159 525 
z
M 3116 1747 
Q 3116 2381 2855 2742 
Q 2594 3103 2138 3103 
Q 1681 3103 1420 2742 
Q 1159 2381 1159 1747 
Q 1159 1113 1420 752 
Q 1681 391 2138 391 
Q 2594 391 2855 752 
Q 3116 1113 3116 1747 
z
" transform="scale(0.015625)"/>
       <path id="DejaVuSans-6f" d="M 1959 3097 
Q 1497 3097 1228 2736 
Q 959 2375 959 1747 
Q 959 1119 1226 758 
Q 1494 397 1959 397 
Q 2419 397 2687 759 
Q 2956 1122 2956 1747 
Q 2956 2369 2687 2733 
Q 2419 3097 1959 3097 
z
M 1959 3584 
Q 2709 3584 3137 3096 
Q 3566 2609 3566 1747 
Q 3566 888 3137 398 
Q 2709 -91 1959 -91 
Q 1206 -91 779 398 
Q 353 888 353 1747 
Q 353 2609 779 3096 
Q 1206 3584 1959 3584 
z
" transform="scale(0.015625)"/>
       <path id="DejaVuSans-63" d="M 3122 3366 
L 3122 2828 
Q 2878 2963 2633 3030 
Q 2388 3097 2138 3097 
Q 1578 3097 1268 2742 
Q 959 2388 959 1747 
Q 959 1106 1268 751 
Q 1578 397 2138 397 
Q 2388 397 2633 464 
Q 2878 531 3122 666 
L 3122 134 
Q 2881 22 2623 -34 
Q 2366 -91 2075 -91 
Q 1284 -91 818 406 
Q 353 903 353 1747 
Q 353 2603 823 3093 
Q 1294 3584 2113 3584 
Q 2378 3584 2631 3529 
Q 2884 3475 3122 3366 
z
" transform="scale(0.015625)"/>
       <path id="DejaVuSans-68" d="M 3513 2113 
L 3513 0 
L 2938 0 
L 2938 2094 
Q 2938 2591 2744 2837 
Q 2550 3084 2163 3084 
Q 1697 3084 1428 2787 
Q 1159 2491 1159 1978 
L 1159 0 
L 581 0 
L 581 4863 
L 1159 4863 
L 1159 2956 
Q 1366 3272 1645 3428 
Q 1925 3584 2291 3584 
Q 2894 3584 3203 3211 
Q 3513 2838 3513 2113 
z
" transform="scale(0.015625)"/>
      </defs>
      <use xlink:href="#DejaVuSans-65"/>
      <use xlink:href="#DejaVuSans-70" x="61.523438"/>
      <use xlink:href="#DejaVuSans-6f" x="125"/>
      <use xlink:href="#DejaVuSans-63" x="186.181641"/>
      <use xlink:href="#DejaVuSans-68" x="241.162109"/>
     </g>
    </g>
   </g>
   <g id="matplotlib.axis_2">
    <g id="ytick_1">
     <g id="line2d_13">
      <path d="M 90 303.927469 
L 648 303.927469 
" clip-path="url(#pa2a08452e0)" style="fill: none; stroke: #b0b0b0; stroke-width: 0.8; stroke-linecap: square"/>
     </g>
     <g id="line2d_14">
      <defs>
       <path id="ma482f5b73d" d="M 0 0 
L -3.5 0 
" style="stroke: #000000; stroke-width: 0.8"/>
      </defs>
      <g>
       <use xlink:href="#ma482f5b73d" x="90" y="303.927469" style="stroke: #000000; stroke-width: 0.8"/>
      </g>
     </g>
     <g id="text_8">
      <!-- 0.5 -->
      <g transform="translate(67.096875 307.726688) scale(0.1 -0.1)">
       <defs>
        <path id="DejaVuSans-2e" d="M 684 794 
L 1344 794 
L 1344 0 
L 684 0 
L 684 794 
z
" transform="scale(0.015625)"/>
       </defs>
       <use xlink:href="#DejaVuSans-30"/>
       <use xlink:href="#DejaVuSans-2e" x="63.623047"/>
       <use xlink:href="#DejaVuSans-35" x="95.410156"/>
      </g>
     </g>
    </g>
    <g id="ytick_2">
     <g id="line2d_15">
      <path d="M 90 245.668127 
L 648 245.668127 
" clip-path="url(#pa2a08452e0)" style="fill: none; stroke: #b0b0b0; stroke-width: 0.8; stroke-linecap: square"/>
     </g>
     <g id="line2d_16">
      <g>
       <use xlink:href="#ma482f5b73d" x="90" y="245.668127" style="stroke: #000000; stroke-width: 0.8"/>
      </g>
     </g>
     <g id="text_9">
      <!-- 1.0 -->
      <g transform="translate(67.096875 249.467346) scale(0.1 -0.1)">
       <use xlink:href="#DejaVuSans-31"/>
       <use xlink:href="#DejaVuSans-2e" x="63.623047"/>
       <use xlink:href="#DejaVuSans-30" x="95.410156"/>
      </g>
     </g>
    </g>
    <g id="ytick_3">
     <g id="line2d_17">
      <path d="M 90 187.408786 
L 648 187.408786 
" clip-path="url(#pa2a08452e0)" style="fill: none; stroke: #b0b0b0; stroke-width: 0.8; stroke-linecap: square"/>
     </g>
     <g id="line2d_18">
      <g>
       <use xlink:href="#ma482f5b73d" x="90" y="187.408786" style="stroke: #000000; stroke-width: 0.8"/>
      </g>
     </g>
     <g id="text_10">
      <!-- 1.5 -->
      <g transform="translate(67.096875 191.208005) scale(0.1 -0.1)">
       <use xlink:href="#DejaVuSans-31"/>
       <use xlink:href="#DejaVuSans-2e" x="63.623047"/>
       <use xlink:href="#DejaVuSans-35" x="95.410156"/>
      </g>
     </g>
    </g>
    <g id="ytick_4">
     <g id="line2d_19">
      <path d="M 90 129.149445 
L 648 129.149445 
" clip-path="url(#pa2a08452e0)" style="fill: none; stroke: #b0b0b0; stroke-width: 0.8; stroke-linecap: square"/>
     </g>
     <g id="line2d_20">
      <g>
       <use xlink:href="#ma482f5b73d" x="90" y="129.149445" style="stroke: #000000; stroke-width: 0.8"/>
      </g>
     </g>
     <g id="text_11">
      <!-- 2.0 -->
      <g transform="translate(67.096875 132.948664) scale(0.1 -0.1)">
       <use xlink:href="#DejaVuSans-32"/>
       <use xlink:href="#DejaVuSans-2e" x="63.623047"/>
       <use xlink:href="#DejaVuSans-30" x="95.410156"/>
      </g>
     </g>
    </g>
    <g id="ytick_5">
     <g id="line2d_21">
      <path d="M 90 70.890104 
L 648 70.890104 
" clip-path="url(#pa2a08452e0)" style="fill: none; stroke: #b0b0b0; stroke-width: 0.8; stroke-linecap: square"/>
     </g>
     <g id="line2d_22">
      <g>
       <use xlink:href="#ma482f5b73d" x="90" y="70.890104" style="stroke: #000000; stroke-width: 0.8"/>
      </g>
     </g>
     <g id="text_12">
      <!-- 2.5 -->
      <g transform="translate(67.096875 74.689322) scale(0.1 -0.1)">
       <use xlink:href="#DejaVuSans-32"/>
       <use xlink:href="#DejaVuSans-2e" x="63.623047"/>
       <use xlink:href="#DejaVuSans-35" x="95.410156"/>
      </g>
     </g>
    </g>
    <g id="text_13">
     <!-- loss -->
     <g transform="translate(61.017187 191.457812) rotate(-90) scale(0.1 -0.1)">
      <defs>
       <path id="DejaVuSans-6c" d="M 603 4863 
L 1178 4863 
L 1178 0 
L 603 0 
L 603 4863 
z
" transform="scale(0.015625)"/>
       <path id="DejaVuSans-73" d="M 2834 3397 
L 2834 2853 
Q 2591 2978 2328 3040 
Q 2066 3103 1784 3103 
Q 1356 3103 1142 2972 
Q 928 2841 928 2578 
Q 928 2378 1081 2264 
Q 1234 2150 1697 2047 
L 1894 2003 
Q 2506 1872 2764 1633 
Q 3022 1394 3022 966 
Q 3022 478 2636 193 
Q 2250 -91 1575 -91 
Q 1294 -91 989 -36 
Q 684 19 347 128 
L 347 722 
Q 666 556 975 473 
Q 1284 391 1588 391 
Q 1994 391 2212 530 
Q 2431 669 2431 922 
Q 2431 1156 2273 1281 
Q 2116 1406 1581 1522 
L 1381 1569 
Q 847 1681 609 1914 
Q 372 2147 372 2553 
Q 372 3047 722 3315 
Q 1072 3584 1716 3584 
Q 2034 3584 2315 3537 
Q 2597 3491 2834 3397 
z
" transform="scale(0.015625)"/>
      </defs>
      <use xlink:href="#DejaVuSans-6c"/>
      <use xlink:href="#DejaVuSans-6f" x="27.783203"/>
      <use xlink:href="#DejaVuSans-73" x="88.964844"/>
      <use xlink:href="#DejaVuSans-73" x="141.064453"/>
     </g>
    </g>
   </g>
   <g id="line2d_23">
    <path d="M 115.363636 200.537801 
L 116.380215 201.171607 
L 117.396794 200.456849 
L 118.413372 200.191076 
L 119.429951 200.087331 
L 120.446529 200.223023 
L 121.463108 200.806102 
L 122.479687 200.831813 
L 124.512844 200.076635 
L 125.529422 200.758348 
L 126.546001 199.761288 
L 127.56258 200.591597 
L 128.579158 200.37712 
L 130.612316 200.203702 
L 131.628894 200.468948 
L 132.645473 200.064843 
L 133.662051 200.146794 
L 134.67863 200.573554 
L 135.695209 200.381579 
L 136.711787 200.409484 
L 137.728366 200.090845 
L 138.744944 200.369703 
L 139.761523 199.774984 
L 140.778102 200.117708 
L 141.79468 200.754278 
L 142.811259 200.765099 
L 143.827837 200.65677 
L 144.844416 200.194896 
L 145.860995 200.419721 
L 146.877573 200.329005 
L 147.894152 200.480365 
L 148.910731 200.37412 
L 149.927309 199.800403 
L 150.943888 200.300738 
L 151.960466 200.405984 
L 152.977045 200.274278 
L 153.993624 200.903152 
L 155.010202 200.849148 
L 156.026781 200.047675 
L 157.043359 200.236066 
L 158.059938 200.237608 
L 159.076517 199.722702 
L 160.093095 200.991119 
L 161.109674 199.512197 
L 162.126253 200.830938 
L 163.142831 200.027964 
L 164.15941 200.409873 
L 165.175988 200.093109 
L 166.192567 200.099818 
L 167.209146 200.373425 
L 168.225724 201.108045 
L 169.242303 204.019649 
L 170.258881 207.634022 
L 171.27546 210.202372 
L 172.292039 210.894683 
L 173.308617 211.946248 
L 174.325196 212.041687 
L 175.341774 213.535401 
L 176.358353 214.066879 
L 177.374932 215.260872 
L 178.39151 217.653138 
L 179.408089 218.794322 
L 180.424668 220.602828 
L 181.441246 223.56513 
L 182.457825 225.334841 
L 183.474403 227.735996 
L 184.490982 229.631746 
L 186.524139 232.574533 
L 187.540718 234.655868 
L 188.557296 235.480371 
L 189.573875 236.61161 
L 190.590454 239.218297 
L 191.607032 241.065487 
L 193.640189 242.594316 
L 194.656768 244.131937 
L 195.673347 242.844449 
L 196.689925 244.388084 
L 197.706504 245.319666 
L 198.723083 244.857848 
L 199.739661 246.351507 
L 200.75624 246.710657 
L 201.772818 247.898539 
L 202.789397 247.837658 
L 203.805976 249.548573 
L 204.822554 249.706635 
L 205.839133 250.472765 
L 206.855711 250.473564 
L 207.87229 249.649713 
L 208.888869 250.946362 
L 209.905447 251.625769 
L 210.922026 251.949874 
L 211.938604 253.110462 
L 212.955183 253.23041 
L 213.971762 253.047588 
L 214.98834 254.620796 
L 216.004919 255.080725 
L 217.021498 254.108195 
L 218.038076 255.566268 
L 219.054655 256.444588 
L 220.071233 256.510163 
L 221.087812 256.102308 
L 222.104391 257.323075 
L 223.120969 257.174041 
L 224.137548 257.654528 
L 225.154126 256.791765 
L 226.170705 259.104878 
L 227.187284 259.577266 
L 228.203862 261.02563 
L 229.220441 261.674416 
L 230.237019 261.867725 
L 231.253598 263.277647 
L 232.270177 262.217665 
L 233.286755 261.691313 
L 234.303334 263.45469 
L 235.319913 263.647707 
L 236.336491 263.661945 
L 237.35307 264.91834 
L 238.369648 265.398979 
L 239.386227 265.45379 
L 240.402806 264.810886 
L 241.419384 263.893291 
L 242.435963 265.704562 
L 243.452541 266.980827 
L 244.46912 268.455144 
L 245.485699 267.816935 
L 246.502277 267.331413 
L 247.518856 266.07799 
L 248.535435 268.928699 
L 249.552013 268.549506 
L 250.568592 269.502236 
L 251.58517 270.688701 
L 252.601749 269.70865 
L 253.618328 271.335876 
L 254.634906 270.805267 
L 255.651485 272.131189 
L 256.668063 272.89859 
L 257.684642 273.397092 
L 258.701221 273.299555 
L 259.717799 272.168644 
L 260.734378 272.726769 
L 261.750956 274.860616 
L 262.767535 275.048494 
L 263.784114 274.957923 
L 265.817271 275.905263 
L 267.850428 275.687758 
L 268.867007 275.937912 
L 269.883585 275.409817 
L 270.900164 276.564745 
L 271.916743 276.863389 
L 272.933321 276.09951 
L 273.9499 276.958294 
L 274.966478 278.182727 
L 275.983057 277.213552 
L 276.999636 278.537446 
L 278.016214 279.532693 
L 279.032793 277.879249 
L 280.049371 279.707528 
L 281.06595 278.408074 
L 282.082529 280.034807 
L 283.099107 279.304305 
L 284.115686 279.52288 
L 285.132265 279.85559 
L 286.148843 281.082267 
L 287.165422 280.029334 
L 288.182 280.145483 
L 289.198579 280.87138 
L 290.215158 279.307535 
L 292.248315 281.844084 
L 293.264893 281.509798 
L 294.281472 280.717499 
L 295.298051 282.79805 
L 296.314629 282.483244 
L 297.331208 282.480334 
L 298.347786 280.640909 
L 300.380944 283.116786 
L 301.397522 281.615661 
L 302.414101 283.495312 
L 303.43068 281.760924 
L 304.447258 283.164603 
L 305.463837 282.289866 
L 306.480415 283.648159 
L 307.496994 283.423334 
L 308.513573 283.888583 
L 309.530151 282.757414 
L 310.54673 282.032094 
L 311.563308 283.297427 
L 312.579887 281.75934 
L 313.596466 284.331275 
L 314.613044 284.283041 
L 315.629623 283.959895 
L 316.646201 283.829001 
L 317.66278 284.088427 
L 319.695937 283.05435 
L 320.712516 285.345162 
L 321.729095 284.764889 
L 322.745673 284.378633 
L 323.762252 284.958691 
L 324.77883 286.208565 
L 325.795409 285.047615 
L 326.811988 284.059723 
L 327.828566 286.411048 
L 328.845145 284.846785 
L 329.861723 285.911219 
L 330.878302 286.167908 
L 331.894881 285.974766 
L 332.911459 286.511112 
L 333.928038 286.193417 
L 334.944617 285.512441 
L 335.961195 285.819308 
L 336.977774 285.958772 
L 337.994352 287.18515 
L 339.010931 286.680773 
L 340.02751 286.98723 
L 341.044088 286.755877 
L 343.077245 288.392423 
L 344.093824 288.645119 
L 345.110403 288.22545 
L 347.14356 286.886187 
L 348.160138 286.8659 
L 349.176717 288.462158 
L 350.193296 288.410591 
L 351.209874 287.841326 
L 352.226453 286.711546 
L 353.243032 287.739192 
L 354.25961 285.886988 
L 355.276189 288.577405 
L 356.292767 287.976171 
L 357.309346 288.314798 
L 358.325925 287.747075 
L 359.342503 288.411564 
L 360.359082 286.196439 
L 361.37566 288.644695 
L 362.392239 288.332682 
L 363.408818 288.297033 
L 364.425396 289.472706 
L 365.441975 289.900917 
L 366.458553 289.125418 
L 367.475132 289.256006 
L 368.491711 290.364423 
L 369.508289 290.679138 
L 370.524868 288.77563 
L 371.541447 289.943428 
L 372.558025 290.900685 
L 373.574604 289.229413 
L 374.591182 289.714373 
L 375.607761 290.837874 
L 376.62434 291.446962 
L 377.640918 290.340171 
L 378.657497 289.766363 
L 379.674075 290.882892 
L 380.690654 291.137713 
L 381.707233 290.632606 
L 382.723811 290.428866 
L 383.74039 292.055189 
L 385.773547 290.544175 
L 386.790126 292.637053 
L 387.806704 290.482808 
L 388.823283 291.86004 
L 389.839862 290.043957 
L 390.85644 291.719097 
L 391.873019 291.919587 
L 392.889597 292.739277 
L 393.906176 293.788925 
L 394.922755 292.771537 
L 395.939333 292.657965 
L 396.955912 294.441232 
L 397.97249 294.182119 
L 398.989069 294.522156 
L 400.005648 293.601256 
L 401.022226 292.999071 
L 402.038805 294.282698 
L 403.055383 293.630328 
L 404.071962 293.908047 
L 405.088541 295.853773 
L 406.105119 293.627314 
L 407.121698 293.786751 
L 408.138277 294.80532 
L 409.154855 294.056456 
L 411.188012 294.522976 
L 412.204591 293.984859 
L 413.22117 294.489501 
L 414.237748 295.49611 
L 416.270905 295.344062 
L 417.287484 295.563407 
L 418.304063 293.923166 
L 419.320641 293.545438 
L 420.33722 296.453847 
L 421.353799 296.440172 
L 423.386956 296.090363 
L 424.403534 295.395664 
L 425.420113 293.956461 
L 426.436692 295.154684 
L 427.45327 295.803137 
L 428.469849 295.274625 
L 429.486427 296.917144 
L 430.503006 297.856852 
L 431.519585 297.390943 
L 432.536163 297.448795 
L 433.552742 297.875812 
L 434.56932 296.247648 
L 435.585899 294.843365 
L 436.602478 296.093503 
L 437.619056 296.732017 
L 438.635635 296.657559 
L 439.652214 297.180258 
L 440.668792 297.999399 
L 441.685371 295.260659 
L 442.701949 295.787198 
L 443.718528 297.772497 
L 444.735107 295.617232 
L 445.751685 297.191148 
L 446.768264 297.990607 
L 447.784842 297.131809 
L 448.801421 298.338964 
L 449.818 297.39927 
L 450.834578 297.185904 
L 451.851157 297.838142 
L 452.867735 297.751996 
L 453.884314 297.514141 
L 454.900893 298.003122 
L 455.917471 297.277704 
L 456.93405 298.0425 
L 457.950629 296.254843 
L 458.967207 298.6853 
L 459.983786 297.590648 
L 461.000364 298.393746 
L 462.016943 298.887832 
L 464.0501 296.881621 
L 465.066679 299.439567 
L 466.083257 299.764117 
L 467.099836 299.918304 
L 468.116415 296.410503 
L 469.132993 297.138046 
L 470.149572 299.261844 
L 471.16615 299.050825 
L 472.182729 298.438313 
L 473.199308 300.040655 
L 475.232465 299.449499 
L 476.249044 298.924814 
L 477.265622 299.754067 
L 478.282201 300.286218 
L 479.298779 298.641407 
L 480.315358 300.59894 
L 481.331937 299.471973 
L 482.348515 300.548464 
L 483.365094 301.309433 
L 484.381672 300.041912 
L 485.398251 298.344763 
L 486.41483 298.898284 
L 487.431408 300.716714 
L 488.447987 300.376636 
L 489.464565 301.415776 
L 490.481144 301.330803 
L 491.497723 301.843112 
L 492.514301 300.669307 
L 493.53088 300.421598 
L 494.547459 301.176026 
L 496.580616 300.085673 
L 497.597194 300.225005 
L 498.613773 300.858741 
L 499.630352 299.807433 
L 501.663509 301.740235 
L 502.680087 301.648248 
L 503.696666 301.235927 
L 504.713245 301.761049 
L 506.746402 301.705121 
L 508.779559 301.97761 
L 510.812716 300.241916 
L 511.829295 302.173634 
L 513.862452 301.783662 
L 514.879031 302.435518 
L 515.895609 301.847772 
L 516.912188 301.841792 
L 517.928767 302.039518 
L 518.945345 301.599556 
L 519.961924 301.350694 
L 520.978502 302.946119 
L 521.995081 302.89717 
L 523.01166 303.774407 
L 524.028238 302.593456 
L 525.044817 302.67497 
L 526.061396 301.567254 
L 527.077974 302.660302 
L 528.094553 303.08777 
L 529.111131 302.319841 
L 530.12771 302.314848 
L 531.144289 302.626563 
L 532.160867 304.113409 
L 533.177446 302.792862 
L 534.194024 302.805023 
L 535.210603 303.036196 
L 536.227182 302.507594 
L 537.24376 302.713591 
L 538.260339 304.567466 
L 539.276917 303.744036 
L 540.293496 303.175167 
L 541.310075 301.57204 
L 542.326653 302.372846 
L 543.343232 304.309464 
L 544.359811 304.949468 
L 545.376389 305.04008 
L 546.392968 304.410063 
L 547.409546 303.914009 
L 548.426125 304.035187 
L 549.442704 303.054545 
L 550.459282 303.761531 
L 551.475861 303.595967 
L 552.492439 303.760003 
L 553.509018 303.77324 
L 554.525597 305.162299 
L 555.542175 304.801948 
L 556.558754 302.893989 
L 557.575332 303.376948 
L 558.591911 304.597142 
L 559.60849 304.98162 
L 560.625068 304.358781 
L 561.641647 305.449811 
L 562.658226 306.979424 
L 563.674804 305.291811 
L 564.691383 305.855951 
L 565.707961 305.879731 
L 566.72454 306.91512 
L 567.741119 305.367536 
L 568.757697 306.436446 
L 569.774276 305.474421 
L 570.790854 306.788758 
L 571.807433 305.761946 
L 572.824012 305.48688 
L 573.84059 304.776894 
L 574.857169 302.568308 
L 576.890326 304.079052 
L 577.906905 305.215752 
L 578.923483 305.182072 
L 579.940062 305.619194 
L 580.956641 305.678182 
L 581.973219 304.908406 
L 582.989798 304.336487 
L 584.006376 304.831399 
L 585.022955 304.703561 
L 586.039534 303.896813 
L 587.056112 304.612269 
L 588.072691 305.837088 
L 589.089269 304.355545 
L 590.105848 305.702038 
L 591.122427 304.844647 
L 592.139005 305.847867 
L 593.155584 304.399771 
L 594.172163 305.549469 
L 595.188741 305.46043 
L 596.20532 306.670147 
L 597.221898 306.932202 
L 598.238477 306.426647 
L 599.255056 307.8 
L 600.271634 306.862098 
L 601.288213 304.777825 
L 602.304791 305.218561 
L 603.32137 307.503085 
L 604.337949 305.521585 
L 606.371106 304.25148 
L 608.404263 304.392919 
L 609.420842 305.800241 
L 610.43742 306.99437 
L 611.453999 307.348846 
L 612.470578 305.850579 
L 613.487156 304.706773 
L 614.503735 304.969196 
L 616.536892 306.698865 
L 617.553471 307.336397 
L 618.570049 307.647393 
L 619.586628 306.880527 
L 620.603206 306.506327 
L 621.619785 306.361384 
L 622.636364 307.159461 
L 622.636364 307.159461 
" clip-path="url(#pa2a08452e0)" style="fill: none; stroke: #1f77b4; stroke-width: 1.5; stroke-linecap: square"/>
   </g>
   <g id="line2d_24">
    <path d="M 115.363636 201.44795 
L 128.579158 201.457173 
L 139.761523 201.452701 
L 149.927309 201.451742 
L 153.993624 201.436088 
L 163.142831 201.450423 
L 166.192567 201.466035 
L 167.209146 201.562697 
L 168.225724 203.273472 
L 170.258881 211.051878 
L 171.27546 212.14521 
L 173.308617 215.230661 
L 174.325196 215.98338 
L 175.341774 217.698795 
L 176.358353 219.150061 
L 177.374932 219.492105 
L 178.39151 220.066628 
L 180.424668 222.458574 
L 181.441246 222.018758 
L 182.457825 221.322919 
L 184.490982 219.403389 
L 185.507561 220.216266 
L 186.524139 219.530956 
L 187.540718 219.02844 
L 188.557296 218.131291 
L 189.573875 218.396273 
L 190.590454 220.123758 
L 191.607032 217.862795 
L 192.623611 219.263377 
L 193.640189 217.0907 
L 194.656768 217.00554 
L 195.673347 218.098816 
L 197.706504 216.163771 
L 198.723083 214.389449 
L 199.739661 216.284796 
L 200.75624 215.311446 
L 201.772818 214.500708 
L 202.789397 215.508741 
L 203.805976 216.991886 
L 204.822554 217.003442 
L 205.839133 215.737303 
L 206.855711 217.339236 
L 207.87229 215.37748 
L 208.888869 214.455524 
L 209.905447 214.528627 
L 210.922026 213.25871 
L 211.938604 211.805916 
L 212.955183 212.216299 
L 213.971762 212.367035 
L 216.004919 213.361344 
L 217.021498 211.376503 
L 218.038076 212.710509 
L 219.054655 211.934247 
L 220.071233 212.192311 
L 221.087812 209.273235 
L 222.104391 207.133464 
L 223.120969 205.864144 
L 224.137548 211.063212 
L 225.154126 206.508909 
L 226.170705 205.972403 
L 227.187284 208.351835 
L 228.203862 206.457391 
L 229.220441 207.073639 
L 230.237019 205.550547 
L 231.253598 205.802694 
L 232.270177 201.62598 
L 233.286755 203.537092 
L 234.303334 202.771803 
L 236.336491 201.97083 
L 238.369648 198.051277 
L 239.386227 199.761385 
L 240.402806 197.157421 
L 241.419384 200.650603 
L 242.435963 200.10186 
L 243.452541 197.961227 
L 244.46912 197.617919 
L 245.485699 191.799019 
L 246.502277 193.603817 
L 247.518856 190.620221 
L 248.535435 196.04499 
L 249.552013 196.071172 
L 250.568592 195.732573 
L 251.58517 194.33545 
L 252.601749 195.302202 
L 254.634906 189.715489 
L 255.651485 190.451776 
L 256.668063 190.175154 
L 257.684642 188.800797 
L 258.701221 194.59164 
L 259.717799 184.271955 
L 260.734378 191.14824 
L 261.750956 188.956269 
L 262.767535 181.67913 
L 263.784114 189.296216 
L 264.800692 190.477486 
L 265.817271 184.269358 
L 266.83385 186.781856 
L 267.850428 187.696659 
L 268.867007 184.391077 
L 269.883585 178.636127 
L 270.900164 187.204754 
L 271.916743 184.407509 
L 272.933321 186.631454 
L 273.9499 185.068261 
L 274.966478 175.995547 
L 275.983057 181.609318 
L 276.999636 185.096972 
L 278.016214 176.489424 
L 279.032793 174.650374 
L 280.049371 186.192804 
L 281.06595 183.225071 
L 282.082529 184.97892 
L 283.099107 183.688807 
L 284.115686 177.70342 
L 285.132265 180.822596 
L 286.148843 188.574625 
L 287.165422 181.338767 
L 288.182 180.776967 
L 289.198579 176.785686 
L 290.215158 162.413687 
L 291.231736 177.462815 
L 292.248315 181.977823 
L 293.264893 179.980911 
L 294.281472 177.092199 
L 295.298051 175.896886 
L 296.314629 170.46352 
L 297.331208 184.578579 
L 298.347786 181.618458 
L 299.364365 176.161576 
L 300.380944 174.538586 
L 301.397522 177.890283 
L 302.414101 179.168007 
L 303.43068 176.05308 
L 304.447258 169.054493 
L 305.463837 170.931894 
L 306.480415 177.114701 
L 307.496994 169.40958 
L 308.513573 170.86518 
L 309.530151 171.523877 
L 310.54673 174.990765 
L 311.563308 177.876574 
L 312.579887 173.394485 
L 313.596466 171.276133 
L 314.613044 170.475465 
L 315.629623 176.086166 
L 316.646201 178.334878 
L 317.66278 179.755947 
L 318.679359 161.970815 
L 319.695937 173.177022 
L 320.712516 168.776524 
L 321.729095 171.733784 
L 322.745673 173.1818 
L 323.762252 172.738442 
L 324.77883 172.005766 
L 325.795409 174.29887 
L 326.811988 163.772154 
L 327.828566 172.951085 
L 329.861723 171.448939 
L 330.878302 166.513047 
L 331.894881 171.373863 
L 332.911459 170.44117 
L 333.928038 176.002631 
L 334.944617 171.561019 
L 335.961195 172.114665 
L 336.977774 173.735488 
L 337.994352 174.305635 
L 339.010931 170.169563 
L 340.02751 168.643304 
L 341.044088 168.606509 
L 342.060667 164.98833 
L 343.077245 168.463455 
L 344.093824 170.925782 
L 345.110403 170.239291 
L 346.126981 170.32723 
L 347.14356 165.089006 
L 348.160138 167.673608 
L 349.176717 167.003174 
L 350.193296 151.627462 
L 351.209874 169.79228 
L 352.226453 159.951832 
L 353.243032 168.129717 
L 354.25961 167.551041 
L 355.276189 173.06804 
L 356.292767 166.869162 
L 357.309346 174.520251 
L 358.325925 168.980945 
L 359.342503 171.026 
L 360.359082 160.867787 
L 361.37566 170.704721 
L 362.392239 165.390588 
L 363.408818 169.707523 
L 364.425396 167.731738 
L 365.441975 162.535434 
L 366.458553 153.890619 
L 367.475132 156.665793 
L 368.491711 156.863213 
L 369.508289 160.197729 
L 370.524868 168.202488 
L 371.541447 164.030413 
L 372.558025 170.947632 
L 373.574604 166.976394 
L 374.591182 162.439412 
L 375.607761 153.280121 
L 377.640918 162.230685 
L 378.657497 170.274725 
L 379.674075 163.59743 
L 380.690654 161.720154 
L 381.707233 153.041378 
L 382.723811 155.423017 
L 383.74039 161.293867 
L 384.756968 162.658764 
L 385.773547 153.749537 
L 386.790126 154.805255 
L 387.806704 157.256651 
L 388.823283 155.571558 
L 389.839862 155.340844 
L 390.85644 158.362831 
L 391.873019 158.77027 
L 392.889597 153.950513 
L 393.906176 156.775039 
L 395.939333 146.285326 
L 396.955912 153.011694 
L 397.97249 148.453544 
L 398.989069 139.807979 
L 400.005648 142.43771 
L 402.038805 151.590403 
L 403.055383 144.273496 
L 404.071962 144.801376 
L 405.088541 150.357906 
L 406.105119 146.13209 
L 407.121698 148.762057 
L 408.138277 153.43437 
L 409.154855 147.548673 
L 410.171434 139.251319 
L 411.188012 142.600585 
L 412.204591 136.758266 
L 413.22117 147.019668 
L 414.237748 151.62949 
L 415.254327 135.618444 
L 416.270905 136.940393 
L 417.287484 135.707091 
L 419.320641 147.585857 
L 420.33722 140.69364 
L 421.353799 130.819772 
L 422.370377 141.573384 
L 423.386956 131.638289 
L 424.403534 127.746794 
L 425.420113 133.587015 
L 426.436692 137.870447 
L 427.45327 133.496174 
L 428.469849 134.46012 
L 429.486427 130.571237 
L 430.503006 136.577028 
L 431.519585 138.666615 
L 432.536163 132.06352 
L 433.552742 136.070789 
L 434.56932 124.445143 
L 435.585899 139.682412 
L 436.602478 133.230984 
L 437.619056 122.629094 
L 438.635635 131.865781 
L 439.652214 133.136393 
L 440.668792 132.056214 
L 441.685371 119.369141 
L 442.701949 129.944918 
L 443.718528 127.461991 
L 444.735107 130.383512 
L 445.751685 123.65299 
L 446.768264 133.416445 
L 447.784842 125.633136 
L 448.801421 125.145954 
L 449.818 126.244301 
L 450.834578 134.214265 
L 451.851157 123.945793 
L 452.867735 111.873927 
L 453.884314 116.408992 
L 454.900893 118.737641 
L 455.917471 118.983302 
L 456.93405 130.959979 
L 457.950629 117.487726 
L 458.967207 126.048506 
L 459.983786 123.078439 
L 461.000364 130.788936 
L 462.016943 122.945928 
L 463.033522 106.550348 
L 464.0501 124.526372 
L 465.066679 121.957674 
L 466.083257 121.909864 
L 467.099836 119.655166 
L 468.116415 123.529868 
L 469.132993 118.723001 
L 470.149572 102.92239 
L 471.16615 116.389879 
L 472.182729 124.230929 
L 473.199308 109.446019 
L 474.215886 111.384328 
L 475.232465 107.977751 
L 476.249044 113.374503 
L 478.282201 98.377713 
L 479.298779 107.549408 
L 480.315358 119.09909 
L 481.331937 118.985302 
L 482.348515 105.578541 
L 483.365094 102.455766 
L 484.381672 90.797075 
L 485.398251 102.45685 
L 486.41483 109.342149 
L 487.431408 103.460854 
L 488.447987 100.149702 
L 489.464565 103.412767 
L 490.481144 120.322808 
L 491.497723 104.028432 
L 492.514301 109.733767 
L 493.53088 111.862787 
L 494.547459 112.479897 
L 495.564037 105.582374 
L 496.580616 113.203905 
L 497.597194 110.984099 
L 498.613773 111.437583 
L 499.630352 113.878631 
L 500.64693 112.120282 
L 501.663509 93.755752 
L 502.680087 107.628193 
L 503.696666 99.133058 
L 504.713245 97.891726 
L 505.729823 102.880998 
L 506.746402 97.401572 
L 507.762981 99.049217 
L 508.779559 104.174778 
L 509.796138 105.54251 
L 510.812716 94.744644 
L 511.829295 108.804796 
L 512.845874 99.056467 
L 513.862452 102.773322 
L 514.879031 104.503307 
L 515.895609 103.602311 
L 516.912188 108.161379 
L 517.928767 104.609428 
L 518.945345 94.350137 
L 519.961924 112.027913 
L 520.978502 110.596593 
L 521.995081 103.156911 
L 523.01166 98.575175 
L 524.028238 102.925113 
L 525.044817 103.429435 
L 526.061396 109.968232 
L 527.077974 103.543334 
L 528.094553 107.048281 
L 529.111131 96.056565 
L 530.12771 94.617383 
L 531.144289 100.945161 
L 532.160867 112.663302 
L 533.177446 103.72485 
L 534.194024 107.854213 
L 535.210603 103.996235 
L 536.227182 107.690809 
L 537.24376 107.324277 
L 538.260339 95.725564 
L 539.276917 109.176496 
L 540.293496 92.796473 
L 541.310075 89.340503 
L 542.326653 98.718077 
L 543.343232 98.324848 
L 544.359811 88.972665 
L 545.376389 95.833434 
L 546.392968 85.875448 
L 547.409546 88.876823 
L 548.426125 89.643113 
L 549.442704 82.316913 
L 550.459282 99.070941 
L 551.475861 90.853636 
L 552.492439 95.262245 
L 553.509018 100.198679 
L 554.525597 86.09569 
L 555.542175 99.404693 
L 556.558754 94.806733 
L 557.575332 92.468333 
L 558.591911 101.854408 
L 559.60849 92.372325 
L 560.625068 77.95253 
L 561.641647 82.765369 
L 562.658226 94.843903 
L 563.674804 83.828907 
L 564.691383 81.982356 
L 565.707961 88.19768 
L 566.72454 86.597678 
L 567.741119 81.274933 
L 568.757697 84.646062 
L 569.774276 89.418371 
L 570.790854 91.681264 
L 571.807433 86.864452 
L 572.824012 91.273895 
L 573.84059 86.603679 
L 574.857169 96.030313 
L 575.873747 95.297943 
L 576.890326 88.898214 
L 577.906905 88.236933 
L 578.923483 81.810952 
L 579.940062 82.897798 
L 580.956641 87.957742 
L 581.973219 57.182927 
L 582.989798 87.042217 
L 584.006376 77.463153 
L 585.022955 88.777592 
L 586.039534 86.438887 
L 587.056112 84.633645 
L 588.072691 73.227281 
L 589.089269 82.544656 
L 590.105848 60.82058 
L 591.122427 87.478867 
L 592.139005 82.823208 
L 593.155584 79.855086 
L 594.172163 73.061406 
L 595.188741 64.032807 
L 596.20532 76.856267 
L 597.221898 82.722699 
L 598.238477 79.711629 
L 599.255056 69.976885 
L 600.271634 63.380749 
L 601.288213 81.472756 
L 603.32137 74.063688 
L 604.337949 77.919582 
L 605.354527 83.893996 
L 606.371106 81.931963 
L 607.387684 82.82518 
L 608.404263 55.8 
L 609.420842 71.673867 
L 610.43742 82.427256 
L 611.453999 75.202622 
L 612.470578 83.49685 
L 614.503735 69.635549 
L 615.520313 70.417979 
L 616.536892 72.768241 
L 617.553471 67.63279 
L 618.570049 65.854022 
L 619.586628 59.577804 
L 620.603206 64.316693 
L 621.619785 66.902392 
L 622.636364 79.745854 
L 622.636364 79.745854 
" clip-path="url(#pa2a08452e0)" style="fill: none; stroke: #ff7f0e; stroke-width: 1.5; stroke-linecap: square"/>
   </g>
   <g id="patch_3">
    <path d="M 90 320.4 
L 90 43.2 
" style="fill: none; stroke: #000000; stroke-width: 0.8; stroke-linejoin: miter; stroke-linecap: square"/>
   </g>
   <g id="patch_4">
    <path d="M 648 320.4 
L 648 43.2 
" style="fill: none; stroke: #000000; stroke-width: 0.8; stroke-linejoin: miter; stroke-linecap: square"/>
   </g>
   <g id="patch_5">
    <path d="M 90 320.4 
L 648 320.4 
" style="fill: none; stroke: #000000; stroke-width: 0.8; stroke-linejoin: miter; stroke-linecap: square"/>
   </g>
   <g id="patch_6">
    <path d="M 90 43.2 
L 648 43.2 
" style="fill: none; stroke: #000000; stroke-width: 0.8; stroke-linejoin: miter; stroke-linecap: square"/>
   </g>
   <g id="text_14">
    <!-- model train and validation loss over time -->
    <g transform="translate(245.555625 37.2) scale(0.12 -0.12)">
     <defs>
      <path id="DejaVuSans-6d" d="M 3328 2828 
Q 3544 3216 3844 3400 
Q 4144 3584 4550 3584 
Q 5097 3584 5394 3201 
Q 5691 2819 5691 2113 
L 5691 0 
L 5113 0 
L 5113 2094 
Q 5113 2597 4934 2840 
Q 4756 3084 4391 3084 
Q 3944 3084 3684 2787 
Q 3425 2491 3425 1978 
L 3425 0 
L 2847 0 
L 2847 2094 
Q 2847 2600 2669 2842 
Q 2491 3084 2119 3084 
Q 1678 3084 1418 2786 
Q 1159 2488 1159 1978 
L 1159 0 
L 581 0 
L 581 3500 
L 1159 3500 
L 1159 2956 
Q 1356 3278 1631 3431 
Q 1906 3584 2284 3584 
Q 2666 3584 2933 3390 
Q 3200 3197 3328 2828 
z
" transform="scale(0.015625)"/>
      <path id="DejaVuSans-64" d="M 2906 2969 
L 2906 4863 
L 3481 4863 
L 3481 0 
L 2906 0 
L 2906 525 
Q 2725 213 2448 61 
Q 2172 -91 1784 -91 
Q 1150 -91 751 415 
Q 353 922 353 1747 
Q 353 2572 751 3078 
Q 1150 3584 1784 3584 
Q 2172 3584 2448 3432 
Q 2725 3281 2906 2969 
z
M 947 1747 
Q 947 1113 1208 752 
Q 1469 391 1925 391 
Q 2381 391 2643 752 
Q 2906 1113 2906 1747 
Q 2906 2381 2643 2742 
Q 2381 3103 1925 3103 
Q 1469 3103 1208 2742 
Q 947 2381 947 1747 
z
" transform="scale(0.015625)"/>
      <path id="DejaVuSans-20" transform="scale(0.015625)"/>
      <path id="DejaVuSans-74" d="M 1172 4494 
L 1172 3500 
L 2356 3500 
L 2356 3053 
L 1172 3053 
L 1172 1153 
Q 1172 725 1289 603 
Q 1406 481 1766 481 
L 2356 481 
L 2356 0 
L 1766 0 
Q 1100 0 847 248 
Q 594 497 594 1153 
L 594 3053 
L 172 3053 
L 172 3500 
L 594 3500 
L 594 4494 
L 1172 4494 
z
" transform="scale(0.015625)"/>
      <path id="DejaVuSans-72" d="M 2631 2963 
Q 2534 3019 2420 3045 
Q 2306 3072 2169 3072 
Q 1681 3072 1420 2755 
Q 1159 2438 1159 1844 
L 1159 0 
L 581 0 
L 581 3500 
L 1159 3500 
L 1159 2956 
Q 1341 3275 1631 3429 
Q 1922 3584 2338 3584 
Q 2397 3584 2469 3576 
Q 2541 3569 2628 3553 
L 2631 2963 
z
" transform="scale(0.015625)"/>
      <path id="DejaVuSans-61" d="M 2194 1759 
Q 1497 1759 1228 1600 
Q 959 1441 959 1056 
Q 959 750 1161 570 
Q 1363 391 1709 391 
Q 2188 391 2477 730 
Q 2766 1069 2766 1631 
L 2766 1759 
L 2194 1759 
z
M 3341 1997 
L 3341 0 
L 2766 0 
L 2766 531 
Q 2569 213 2275 61 
Q 1981 -91 1556 -91 
Q 1019 -91 701 211 
Q 384 513 384 1019 
Q 384 1609 779 1909 
Q 1175 2209 1959 2209 
L 2766 2209 
L 2766 2266 
Q 2766 2663 2505 2880 
Q 2244 3097 1772 3097 
Q 1472 3097 1187 3025 
Q 903 2953 641 2809 
L 641 3341 
Q 956 3463 1253 3523 
Q 1550 3584 1831 3584 
Q 2591 3584 2966 3190 
Q 3341 2797 3341 1997 
z
" transform="scale(0.015625)"/>
      <path id="DejaVuSans-69" d="M 603 3500 
L 1178 3500 
L 1178 0 
L 603 0 
L 603 3500 
z
M 603 4863 
L 1178 4863 
L 1178 4134 
L 603 4134 
L 603 4863 
z
" transform="scale(0.015625)"/>
      <path id="DejaVuSans-6e" d="M 3513 2113 
L 3513 0 
L 2938 0 
L 2938 2094 
Q 2938 2591 2744 2837 
Q 2550 3084 2163 3084 
Q 1697 3084 1428 2787 
Q 1159 2491 1159 1978 
L 1159 0 
L 581 0 
L 581 3500 
L 1159 3500 
L 1159 2956 
Q 1366 3272 1645 3428 
Q 1925 3584 2291 3584 
Q 2894 3584 3203 3211 
Q 3513 2838 3513 2113 
z
" transform="scale(0.015625)"/>
      <path id="DejaVuSans-76" d="M 191 3500 
L 800 3500 
L 1894 563 
L 2988 3500 
L 3597 3500 
L 2284 0 
L 1503 0 
L 191 3500 
z
" transform="scale(0.015625)"/>
     </defs>
     <use xlink:href="#DejaVuSans-6d"/>
     <use xlink:href="#DejaVuSans-6f" x="97.412109"/>
     <use xlink:href="#DejaVuSans-64" x="158.59375"/>
     <use xlink:href="#DejaVuSans-65" x="222.070312"/>
     <use xlink:href="#DejaVuSans-6c" x="283.59375"/>
     <use xlink:href="#DejaVuSans-20" x="311.376953"/>
     <use xlink:href="#DejaVuSans-74" x="343.164062"/>
     <use xlink:href="#DejaVuSans-72" x="382.373047"/>
     <use xlink:href="#DejaVuSans-61" x="423.486328"/>
     <use xlink:href="#DejaVuSans-69" x="484.765625"/>
     <use xlink:href="#DejaVuSans-6e" x="512.548828"/>
     <use xlink:href="#DejaVuSans-20" x="575.927734"/>
     <use xlink:href="#DejaVuSans-61" x="607.714844"/>
     <use xlink:href="#DejaVuSans-6e" x="668.994141"/>
     <use xlink:href="#DejaVuSans-64" x="732.373047"/>
     <use xlink:href="#DejaVuSans-20" x="795.849609"/>
     <use xlink:href="#DejaVuSans-76" x="827.636719"/>
     <use xlink:href="#DejaVuSans-61" x="886.816406"/>
     <use xlink:href="#DejaVuSans-6c" x="948.095703"/>
     <use xlink:href="#DejaVuSans-69" x="975.878906"/>
     <use xlink:href="#DejaVuSans-64" x="1003.662109"/>
     <use xlink:href="#DejaVuSans-61" x="1067.138672"/>
     <use xlink:href="#DejaVuSans-74" x="1128.417969"/>
     <use xlink:href="#DejaVuSans-69" x="1167.626953"/>
     <use xlink:href="#DejaVuSans-6f" x="1195.410156"/>
     <use xlink:href="#DejaVuSans-6e" x="1256.591797"/>
     <use xlink:href="#DejaVuSans-20" x="1319.970703"/>
     <use xlink:href="#DejaVuSans-6c" x="1351.757812"/>
     <use xlink:href="#DejaVuSans-6f" x="1379.541016"/>
     <use xlink:href="#DejaVuSans-73" x="1440.722656"/>
     <use xlink:href="#DejaVuSans-73" x="1492.822266"/>
     <use xlink:href="#DejaVuSans-20" x="1544.921875"/>
     <use xlink:href="#DejaVuSans-6f" x="1576.708984"/>
     <use xlink:href="#DejaVuSans-76" x="1637.890625"/>
     <use xlink:href="#DejaVuSans-65" x="1697.070312"/>
     <use xlink:href="#DejaVuSans-72" x="1758.59375"/>
     <use xlink:href="#DejaVuSans-20" x="1799.707031"/>
     <use xlink:href="#DejaVuSans-74" x="1831.494141"/>
     <use xlink:href="#DejaVuSans-69" x="1870.703125"/>
     <use xlink:href="#DejaVuSans-6d" x="1898.486328"/>
     <use xlink:href="#DejaVuSans-65" x="1995.898438"/>
    </g>
   </g>
   <g id="legend_1">
    <g id="patch_7">
     <path d="M 97 80.55625 
L 178.234375 80.55625 
Q 180.234375 80.55625 180.234375 78.55625 
L 180.234375 50.2 
Q 180.234375 48.2 178.234375 48.2 
L 97 48.2 
Q 95 48.2 95 50.2 
L 95 78.55625 
Q 95 80.55625 97 80.55625 
z
" style="fill: #ffffff; opacity: 0.8; stroke: #cccccc; stroke-linejoin: miter"/>
    </g>
    <g id="line2d_25">
     <path d="M 99 56.298437 
L 109 56.298437 
L 119 56.298437 
" style="fill: none; stroke: #1f77b4; stroke-width: 1.5; stroke-linecap: square"/>
    </g>
    <g id="text_15">
     <!-- train -->
     <g transform="translate(127 59.798437) scale(0.1 -0.1)">
      <use xlink:href="#DejaVuSans-74"/>
      <use xlink:href="#DejaVuSans-72" x="39.208984"/>
      <use xlink:href="#DejaVuSans-61" x="80.322266"/>
      <use xlink:href="#DejaVuSans-69" x="141.601562"/>
      <use xlink:href="#DejaVuSans-6e" x="169.384766"/>
     </g>
    </g>
    <g id="line2d_26">
     <path d="M 99 70.976562 
L 109 70.976562 
L 119 70.976562 
" style="fill: none; stroke: #ff7f0e; stroke-width: 1.5; stroke-linecap: square"/>
    </g>
    <g id="text_16">
     <!-- validation -->
     <g transform="translate(127 74.476562) scale(0.1 -0.1)">
      <use xlink:href="#DejaVuSans-76"/>
      <use xlink:href="#DejaVuSans-61" x="59.179688"/>
      <use xlink:href="#DejaVuSans-6c" x="120.458984"/>
      <use xlink:href="#DejaVuSans-69" x="148.242188"/>
      <use xlink:href="#DejaVuSans-64" x="176.025391"/>
      <use xlink:href="#DejaVuSans-61" x="239.501953"/>
      <use xlink:href="#DejaVuSans-74" x="300.78125"/>
      <use xlink:href="#DejaVuSans-69" x="339.990234"/>
      <use xlink:href="#DejaVuSans-6f" x="367.773438"/>
      <use xlink:href="#DejaVuSans-6e" x="428.955078"/>
     </g>
    </g>
   </g>
  </g>
 </g>
 <defs>
  <clipPath id="pa2a08452e0">
   <rect x="90" y="43.2" width="558" height="277.2"/>
  </clipPath>
 </defs>
</svg>
