<?xml version="1.0" encoding="utf-8" standalone="no"?>
<!DOCTYPE svg PUBLIC "-//W3C//DTD SVG 1.1//EN"
  "http://www.w3.org/Graphics/SVG/1.1/DTD/svg11.dtd">
<svg xmlns:xlink="http://www.w3.org/1999/xlink" width="720pt" height="360pt" viewBox="0 0 720 360" xmlns="http://www.w3.org/2000/svg" version="1.1">
 <metadata>
  <rdf:RDF xmlns:dc="http://purl.org/dc/elements/1.1/" xmlns:cc="http://creativecommons.org/ns#" xmlns:rdf="http://www.w3.org/1999/02/22-rdf-syntax-ns#">
   <cc:Work>
    <dc:type rdf:resource="http://purl.org/dc/dcmitype/StillImage"/>
    <dc:date>2023-05-24T12:15:43.133055</dc:date>
    <dc:format>image/svg+xml</dc:format>
    <dc:creator>
     <cc:Agent>
      <dc:title>Matplotlib v3.7.1, https://matplotlib.org/</dc:title>
     </cc:Agent>
    </dc:creator>
   </cc:Work>
  </rdf:RDF>
 </metadata>
 <defs>
  <style type="text/css">*{stroke-linejoin: round; stroke-linecap: butt}</style>
 </defs>
 <g id="figure_1">
  <g id="patch_1">
   <path d="M 0 360 
L 720 360 
L 720 0 
L 0 0 
z
" style="fill: #ffffff"/>
  </g>
  <g id="axes_1">
   <g id="patch_2">
    <path d="M 90 320.4 
L 648 320.4 
L 648 43.2 
L 90 43.2 
z
" style="fill: #ffffff"/>
   </g>
   <g id="matplotlib.axis_1">
    <g id="xtick_1">
     <g id="line2d_1">
      <path d="M 115.363636 320.4 
L 115.363636 43.2 
" clip-path="url(#p183d325628)" style="fill: none; stroke: #b0b0b0; stroke-width: 0.8; stroke-linecap: square"/>
     </g>
     <g id="line2d_2">
      <defs>
       <path id="ma55d89ce16" d="M 0 0 
L 0 3.5 
" style="stroke: #000000; stroke-width: 0.8"/>
      </defs>
      <g>
       <use xlink:href="#ma55d89ce16" x="115.363636" y="320.4" style="stroke: #000000; stroke-width: 0.8"/>
      </g>
     </g>
     <g id="text_1">
      <!-- 0 -->
      <g transform="translate(112.182386 334.998438) scale(0.1 -0.1)">
       <defs>
        <path id="DejaVuSans-30" d="M 2034 4250 
Q 1547 4250 1301 3770 
Q 1056 3291 1056 2328 
Q 1056 1369 1301 889 
Q 1547 409 2034 409 
Q 2525 409 2770 889 
Q 3016 1369 3016 2328 
Q 3016 3291 2770 3770 
Q 2525 4250 2034 4250 
z
M 2034 4750 
Q 2819 4750 3233 4129 
Q 3647 3509 3647 2328 
Q 3647 1150 3233 529 
Q 2819 -91 2034 -91 
Q 1250 -91 836 529 
Q 422 1150 422 2328 
Q 422 3509 836 4129 
Q 1250 4750 2034 4750 
z
" transform="scale(0.015625)"/>
       </defs>
       <use xlink:href="#DejaVuSans-30"/>
      </g>
     </g>
    </g>
    <g id="xtick_2">
     <g id="line2d_3">
      <path d="M 217.021498 320.4 
L 217.021498 43.2 
" clip-path="url(#p183d325628)" style="fill: none; stroke: #b0b0b0; stroke-width: 0.8; stroke-linecap: square"/>
     </g>
     <g id="line2d_4">
      <g>
       <use xlink:href="#ma55d89ce16" x="217.021498" y="320.4" style="stroke: #000000; stroke-width: 0.8"/>
      </g>
     </g>
     <g id="text_2">
      <!-- 100 -->
      <g transform="translate(207.477748 334.998438) scale(0.1 -0.1)">
       <defs>
        <path id="DejaVuSans-31" d="M 794 531 
L 1825 531 
L 1825 4091 
L 703 3866 
L 703 4441 
L 1819 4666 
L 2450 4666 
L 2450 531 
L 3481 531 
L 3481 0 
L 794 0 
L 794 531 
z
" transform="scale(0.015625)"/>
       </defs>
       <use xlink:href="#DejaVuSans-31"/>
       <use xlink:href="#DejaVuSans-30" x="63.623047"/>
       <use xlink:href="#DejaVuSans-30" x="127.246094"/>
      </g>
     </g>
    </g>
    <g id="xtick_3">
     <g id="line2d_5">
      <path d="M 318.679359 320.4 
L 318.679359 43.2 
" clip-path="url(#p183d325628)" style="fill: none; stroke: #b0b0b0; stroke-width: 0.8; stroke-linecap: square"/>
     </g>
     <g id="line2d_6">
      <g>
       <use xlink:href="#ma55d89ce16" x="318.679359" y="320.4" style="stroke: #000000; stroke-width: 0.8"/>
      </g>
     </g>
     <g id="text_3">
      <!-- 200 -->
      <g transform="translate(309.135609 334.998438) scale(0.1 -0.1)">
       <defs>
        <path id="DejaVuSans-32" d="M 1228 531 
L 3431 531 
L 3431 0 
L 469 0 
L 469 531 
Q 828 903 1448 1529 
Q 2069 2156 2228 2338 
Q 2531 2678 2651 2914 
Q 2772 3150 2772 3378 
Q 2772 3750 2511 3984 
Q 2250 4219 1831 4219 
Q 1534 4219 1204 4116 
Q 875 4013 500 3803 
L 500 4441 
Q 881 4594 1212 4672 
Q 1544 4750 1819 4750 
Q 2544 4750 2975 4387 
Q 3406 4025 3406 3419 
Q 3406 3131 3298 2873 
Q 3191 2616 2906 2266 
Q 2828 2175 2409 1742 
Q 1991 1309 1228 531 
z
" transform="scale(0.015625)"/>
       </defs>
       <use xlink:href="#DejaVuSans-32"/>
       <use xlink:href="#DejaVuSans-30" x="63.623047"/>
       <use xlink:href="#DejaVuSans-30" x="127.246094"/>
      </g>
     </g>
    </g>
    <g id="xtick_4">
     <g id="line2d_7">
      <path d="M 420.33722 320.4 
L 420.33722 43.2 
" clip-path="url(#p183d325628)" style="fill: none; stroke: #b0b0b0; stroke-width: 0.8; stroke-linecap: square"/>
     </g>
     <g id="line2d_8">
      <g>
       <use xlink:href="#ma55d89ce16" x="420.33722" y="320.4" style="stroke: #000000; stroke-width: 0.8"/>
      </g>
     </g>
     <g id="text_4">
      <!-- 300 -->
      <g transform="translate(410.79347 334.998438) scale(0.1 -0.1)">
       <defs>
        <path id="DejaVuSans-33" d="M 2597 2516 
Q 3050 2419 3304 2112 
Q 3559 1806 3559 1356 
Q 3559 666 3084 287 
Q 2609 -91 1734 -91 
Q 1441 -91 1130 -33 
Q 819 25 488 141 
L 488 750 
Q 750 597 1062 519 
Q 1375 441 1716 441 
Q 2309 441 2620 675 
Q 2931 909 2931 1356 
Q 2931 1769 2642 2001 
Q 2353 2234 1838 2234 
L 1294 2234 
L 1294 2753 
L 1863 2753 
Q 2328 2753 2575 2939 
Q 2822 3125 2822 3475 
Q 2822 3834 2567 4026 
Q 2313 4219 1838 4219 
Q 1578 4219 1281 4162 
Q 984 4106 628 3988 
L 628 4550 
Q 988 4650 1302 4700 
Q 1616 4750 1894 4750 
Q 2613 4750 3031 4423 
Q 3450 4097 3450 3541 
Q 3450 3153 3228 2886 
Q 3006 2619 2597 2516 
z
" transform="scale(0.015625)"/>
       </defs>
       <use xlink:href="#DejaVuSans-33"/>
       <use xlink:href="#DejaVuSans-30" x="63.623047"/>
       <use xlink:href="#DejaVuSans-30" x="127.246094"/>
      </g>
     </g>
    </g>
    <g id="xtick_5">
     <g id="line2d_9">
      <path d="M 521.995081 320.4 
L 521.995081 43.2 
" clip-path="url(#p183d325628)" style="fill: none; stroke: #b0b0b0; stroke-width: 0.8; stroke-linecap: square"/>
     </g>
     <g id="line2d_10">
      <g>
       <use xlink:href="#ma55d89ce16" x="521.995081" y="320.4" style="stroke: #000000; stroke-width: 0.8"/>
      </g>
     </g>
     <g id="text_5">
      <!-- 400 -->
      <g transform="translate(512.451331 334.998438) scale(0.1 -0.1)">
       <defs>
        <path id="DejaVuSans-34" d="M 2419 4116 
L 825 1625 
L 2419 1625 
L 2419 4116 
z
M 2253 4666 
L 3047 4666 
L 3047 1625 
L 3713 1625 
L 3713 1100 
L 3047 1100 
L 3047 0 
L 2419 0 
L 2419 1100 
L 313 1100 
L 313 1709 
L 2253 4666 
z
" transform="scale(0.015625)"/>
       </defs>
       <use xlink:href="#DejaVuSans-34"/>
       <use xlink:href="#DejaVuSans-30" x="63.623047"/>
       <use xlink:href="#DejaVuSans-30" x="127.246094"/>
      </g>
     </g>
    </g>
    <g id="xtick_6">
     <g id="line2d_11">
      <path d="M 623.652942 320.4 
L 623.652942 43.2 
" clip-path="url(#p183d325628)" style="fill: none; stroke: #b0b0b0; stroke-width: 0.8; stroke-linecap: square"/>
     </g>
     <g id="line2d_12">
      <g>
       <use xlink:href="#ma55d89ce16" x="623.652942" y="320.4" style="stroke: #000000; stroke-width: 0.8"/>
      </g>
     </g>
     <g id="text_6">
      <!-- 500 -->
      <g transform="translate(614.109192 334.998438) scale(0.1 -0.1)">
       <defs>
        <path id="DejaVuSans-35" d="M 691 4666 
L 3169 4666 
L 3169 4134 
L 1269 4134 
L 1269 2991 
Q 1406 3038 1543 3061 
Q 1681 3084 1819 3084 
Q 2600 3084 3056 2656 
Q 3513 2228 3513 1497 
Q 3513 744 3044 326 
Q 2575 -91 1722 -91 
Q 1428 -91 1123 -41 
Q 819 9 494 109 
L 494 744 
Q 775 591 1075 516 
Q 1375 441 1709 441 
Q 2250 441 2565 725 
Q 2881 1009 2881 1497 
Q 2881 1984 2565 2268 
Q 2250 2553 1709 2553 
Q 1456 2553 1204 2497 
Q 953 2441 691 2322 
L 691 4666 
z
" transform="scale(0.015625)"/>
       </defs>
       <use xlink:href="#DejaVuSans-35"/>
       <use xlink:href="#DejaVuSans-30" x="63.623047"/>
       <use xlink:href="#DejaVuSans-30" x="127.246094"/>
      </g>
     </g>
    </g>
    <g id="text_7">
     <!-- epoch -->
     <g transform="translate(353.771875 348.676562) scale(0.1 -0.1)">
      <defs>
       <path id="DejaVuSans-65" d="M 3597 1894 
L 3597 1613 
L 953 1613 
Q 991 1019 1311 708 
Q 1631 397 2203 397 
Q 2534 397 2845 478 
Q 3156 559 3463 722 
L 3463 178 
Q 3153 47 2828 -22 
Q 2503 -91 2169 -91 
Q 1331 -91 842 396 
Q 353 884 353 1716 
Q 353 2575 817 3079 
Q 1281 3584 2069 3584 
Q 2775 3584 3186 3129 
Q 3597 2675 3597 1894 
z
M 3022 2063 
Q 3016 2534 2758 2815 
Q 2500 3097 2075 3097 
Q 1594 3097 1305 2825 
Q 1016 2553 972 2059 
L 3022 2063 
z
" transform="scale(0.015625)"/>
       <path id="DejaVuSans-70" d="M 1159 525 
L 1159 -1331 
L 581 -1331 
L 581 3500 
L 1159 3500 
L 1159 2969 
Q 1341 3281 1617 3432 
Q 1894 3584 2278 3584 
Q 2916 3584 3314 3078 
Q 3713 2572 3713 1747 
Q 3713 922 3314 415 
Q 2916 -91 2278 -91 
Q 1894 -91 1617 61 
Q 1341 213 1159 525 
z
M 3116 1747 
Q 3116 2381 2855 2742 
Q 2594 3103 2138 3103 
Q 1681 3103 1420 2742 
Q 1159 2381 1159 1747 
Q 1159 1113 1420 752 
Q 1681 391 2138 391 
Q 2594 391 2855 752 
Q 3116 1113 3116 1747 
z
" transform="scale(0.015625)"/>
       <path id="DejaVuSans-6f" d="M 1959 3097 
Q 1497 3097 1228 2736 
Q 959 2375 959 1747 
Q 959 1119 1226 758 
Q 1494 397 1959 397 
Q 2419 397 2687 759 
Q 2956 1122 2956 1747 
Q 2956 2369 2687 2733 
Q 2419 3097 1959 3097 
z
M 1959 3584 
Q 2709 3584 3137 3096 
Q 3566 2609 3566 1747 
Q 3566 888 3137 398 
Q 2709 -91 1959 -91 
Q 1206 -91 779 398 
Q 353 888 353 1747 
Q 353 2609 779 3096 
Q 1206 3584 1959 3584 
z
" transform="scale(0.015625)"/>
       <path id="DejaVuSans-63" d="M 3122 3366 
L 3122 2828 
Q 2878 2963 2633 3030 
Q 2388 3097 2138 3097 
Q 1578 3097 1268 2742 
Q 959 2388 959 1747 
Q 959 1106 1268 751 
Q 1578 397 2138 397 
Q 2388 397 2633 464 
Q 2878 531 3122 666 
L 3122 134 
Q 2881 22 2623 -34 
Q 2366 -91 2075 -91 
Q 1284 -91 818 406 
Q 353 903 353 1747 
Q 353 2603 823 3093 
Q 1294 3584 2113 3584 
Q 2378 3584 2631 3529 
Q 2884 3475 3122 3366 
z
" transform="scale(0.015625)"/>
       <path id="DejaVuSans-68" d="M 3513 2113 
L 3513 0 
L 2938 0 
L 2938 2094 
Q 2938 2591 2744 2837 
Q 2550 3084 2163 3084 
Q 1697 3084 1428 2787 
Q 1159 2491 1159 1978 
L 1159 0 
L 581 0 
L 581 4863 
L 1159 4863 
L 1159 2956 
Q 1366 3272 1645 3428 
Q 1925 3584 2291 3584 
Q 2894 3584 3203 3211 
Q 3513 2838 3513 2113 
z
" transform="scale(0.015625)"/>
      </defs>
      <use xlink:href="#DejaVuSans-65"/>
      <use xlink:href="#DejaVuSans-70" x="61.523438"/>
      <use xlink:href="#DejaVuSans-6f" x="125"/>
      <use xlink:href="#DejaVuSans-63" x="186.181641"/>
      <use xlink:href="#DejaVuSans-68" x="241.162109"/>
     </g>
    </g>
   </g>
   <g id="matplotlib.axis_2">
    <g id="ytick_1">
     <g id="line2d_13">
      <path d="M 90 298.777067 
L 648 298.777067 
" clip-path="url(#p183d325628)" style="fill: none; stroke: #b0b0b0; stroke-width: 0.8; stroke-linecap: square"/>
     </g>
     <g id="line2d_14">
      <defs>
       <path id="m4c82188afe" d="M 0 0 
L -3.5 0 
" style="stroke: #000000; stroke-width: 0.8"/>
      </defs>
      <g>
       <use xlink:href="#m4c82188afe" x="90" y="298.777067" style="stroke: #000000; stroke-width: 0.8"/>
      </g>
     </g>
     <g id="text_8">
      <!-- 0.5 -->
      <g transform="translate(67.096875 302.576286) scale(0.1 -0.1)">
       <defs>
        <path id="DejaVuSans-2e" d="M 684 794 
L 1344 794 
L 1344 0 
L 684 0 
L 684 794 
z
" transform="scale(0.015625)"/>
       </defs>
       <use xlink:href="#DejaVuSans-30"/>
       <use xlink:href="#DejaVuSans-2e" x="63.623047"/>
       <use xlink:href="#DejaVuSans-35" x="95.410156"/>
      </g>
     </g>
    </g>
    <g id="ytick_2">
     <g id="line2d_15">
      <path d="M 90 249.713471 
L 648 249.713471 
" clip-path="url(#p183d325628)" style="fill: none; stroke: #b0b0b0; stroke-width: 0.8; stroke-linecap: square"/>
     </g>
     <g id="line2d_16">
      <g>
       <use xlink:href="#m4c82188afe" x="90" y="249.713471" style="stroke: #000000; stroke-width: 0.8"/>
      </g>
     </g>
     <g id="text_9">
      <!-- 1.0 -->
      <g transform="translate(67.096875 253.51269) scale(0.1 -0.1)">
       <use xlink:href="#DejaVuSans-31"/>
       <use xlink:href="#DejaVuSans-2e" x="63.623047"/>
       <use xlink:href="#DejaVuSans-30" x="95.410156"/>
      </g>
     </g>
    </g>
    <g id="ytick_3">
     <g id="line2d_17">
      <path d="M 90 200.649874 
L 648 200.649874 
" clip-path="url(#p183d325628)" style="fill: none; stroke: #b0b0b0; stroke-width: 0.8; stroke-linecap: square"/>
     </g>
     <g id="line2d_18">
      <g>
       <use xlink:href="#m4c82188afe" x="90" y="200.649874" style="stroke: #000000; stroke-width: 0.8"/>
      </g>
     </g>
     <g id="text_10">
      <!-- 1.5 -->
      <g transform="translate(67.096875 204.449093) scale(0.1 -0.1)">
       <use xlink:href="#DejaVuSans-31"/>
       <use xlink:href="#DejaVuSans-2e" x="63.623047"/>
       <use xlink:href="#DejaVuSans-35" x="95.410156"/>
      </g>
     </g>
    </g>
    <g id="ytick_4">
     <g id="line2d_19">
      <path d="M 90 151.586278 
L 648 151.586278 
" clip-path="url(#p183d325628)" style="fill: none; stroke: #b0b0b0; stroke-width: 0.8; stroke-linecap: square"/>
     </g>
     <g id="line2d_20">
      <g>
       <use xlink:href="#m4c82188afe" x="90" y="151.586278" style="stroke: #000000; stroke-width: 0.8"/>
      </g>
     </g>
     <g id="text_11">
      <!-- 2.0 -->
      <g transform="translate(67.096875 155.385497) scale(0.1 -0.1)">
       <use xlink:href="#DejaVuSans-32"/>
       <use xlink:href="#DejaVuSans-2e" x="63.623047"/>
       <use xlink:href="#DejaVuSans-30" x="95.410156"/>
      </g>
     </g>
    </g>
    <g id="ytick_5">
     <g id="line2d_21">
      <path d="M 90 102.522682 
L 648 102.522682 
" clip-path="url(#p183d325628)" style="fill: none; stroke: #b0b0b0; stroke-width: 0.8; stroke-linecap: square"/>
     </g>
     <g id="line2d_22">
      <g>
       <use xlink:href="#m4c82188afe" x="90" y="102.522682" style="stroke: #000000; stroke-width: 0.8"/>
      </g>
     </g>
     <g id="text_12">
      <!-- 2.5 -->
      <g transform="translate(67.096875 106.3219) scale(0.1 -0.1)">
       <use xlink:href="#DejaVuSans-32"/>
       <use xlink:href="#DejaVuSans-2e" x="63.623047"/>
       <use xlink:href="#DejaVuSans-35" x="95.410156"/>
      </g>
     </g>
    </g>
    <g id="ytick_6">
     <g id="line2d_23">
      <path d="M 90 53.459085 
L 648 53.459085 
" clip-path="url(#p183d325628)" style="fill: none; stroke: #b0b0b0; stroke-width: 0.8; stroke-linecap: square"/>
     </g>
     <g id="line2d_24">
      <g>
       <use xlink:href="#m4c82188afe" x="90" y="53.459085" style="stroke: #000000; stroke-width: 0.8"/>
      </g>
     </g>
     <g id="text_13">
      <!-- 3.0 -->
      <g transform="translate(67.096875 57.258304) scale(0.1 -0.1)">
       <use xlink:href="#DejaVuSans-33"/>
       <use xlink:href="#DejaVuSans-2e" x="63.623047"/>
       <use xlink:href="#DejaVuSans-30" x="95.410156"/>
      </g>
     </g>
    </g>
    <g id="text_14">
     <!-- loss -->
     <g transform="translate(61.017187 191.457812) rotate(-90) scale(0.1 -0.1)">
      <defs>
       <path id="DejaVuSans-6c" d="M 603 4863 
L 1178 4863 
L 1178 0 
L 603 0 
L 603 4863 
z
" transform="scale(0.015625)"/>
       <path id="DejaVuSans-73" d="M 2834 3397 
L 2834 2853 
Q 2591 2978 2328 3040 
Q 2066 3103 1784 3103 
Q 1356 3103 1142 2972 
Q 928 2841 928 2578 
Q 928 2378 1081 2264 
Q 1234 2150 1697 2047 
L 1894 2003 
Q 2506 1872 2764 1633 
Q 3022 1394 3022 966 
Q 3022 478 2636 193 
Q 2250 -91 1575 -91 
Q 1294 -91 989 -36 
Q 684 19 347 128 
L 347 722 
Q 666 556 975 473 
Q 1284 391 1588 391 
Q 1994 391 2212 530 
Q 2431 669 2431 922 
Q 2431 1156 2273 1281 
Q 2116 1406 1581 1522 
L 1381 1569 
Q 847 1681 609 1914 
Q 372 2147 372 2553 
Q 372 3047 722 3315 
Q 1072 3584 1716 3584 
Q 2034 3584 2315 3537 
Q 2597 3491 2834 3397 
z
" transform="scale(0.015625)"/>
      </defs>
      <use xlink:href="#DejaVuSans-6c"/>
      <use xlink:href="#DejaVuSans-6f" x="27.783203"/>
      <use xlink:href="#DejaVuSans-73" x="88.964844"/>
      <use xlink:href="#DejaVuSans-73" x="141.064453"/>
     </g>
    </g>
   </g>
   <g id="line2d_25">
    <path d="M 115.363636 306.316408 
L 116.380215 305.614699 
L 118.413372 307.183916 
L 119.429951 306.984169 
L 120.446529 305.452833 
L 121.463108 307.024889 
L 122.479687 307.611846 
L 123.496265 306.299861 
L 125.529422 306.941414 
L 126.546001 306.213608 
L 127.56258 306.451364 
L 128.579158 306.347196 
L 130.612316 306.573634 
L 131.628894 307.006947 
L 132.645473 306.635008 
L 134.67863 306.80449 
L 135.695209 305.91325 
L 136.711787 306.321516 
L 137.728366 305.65162 
L 138.744944 306.203408 
L 139.761523 306.140398 
L 140.778102 306.854808 
L 141.79468 306.251822 
L 142.811259 305.809384 
L 143.827837 306.889479 
L 144.844416 306.030244 
L 145.860995 306.285631 
L 146.877573 306.303309 
L 147.894152 305.311112 
L 148.910731 306.589896 
L 149.927309 307.292891 
L 150.943888 304.631428 
L 151.960466 304.505292 
L 152.977045 306.10153 
L 153.993624 306.072014 
L 155.010202 306.423242 
L 156.026781 306.981116 
L 157.043359 306.309199 
L 158.059938 305.941342 
L 159.076517 306.09028 
L 160.093095 307.216117 
L 162.126253 306.749552 
L 164.15941 305.972654 
L 166.192567 306.09979 
L 167.209146 306.489951 
L 168.225724 305.849202 
L 169.242303 305.742423 
L 170.258881 307.066924 
L 171.27546 306.995399 
L 172.292039 307.039988 
L 173.308617 306.582462 
L 174.325196 306.918224 
L 175.341774 306.574218 
L 176.358353 306.477096 
L 178.39151 306.964102 
L 179.408089 305.858289 
L 180.424668 307.101146 
L 181.441246 306.348532 
L 182.457825 306.762185 
L 183.474403 305.161909 
L 185.507561 306.25894 
L 186.524139 307.016461 
L 187.540718 306.38564 
L 188.557296 307.259585 
L 189.573875 306.511022 
L 190.590454 306.93892 
L 191.607032 305.611319 
L 192.623611 306.536131 
L 193.640189 305.799555 
L 194.656768 306.369342 
L 195.673347 305.911589 
L 196.689925 306.505568 
L 197.706504 306.290392 
L 198.723083 306.894463 
L 199.739661 306.808982 
L 200.75624 306.301695 
L 201.772818 306.846002 
L 202.789397 307.176678 
L 203.805976 305.820736 
L 204.822554 307.378439 
L 205.839133 305.427285 
L 206.855711 305.545654 
L 207.87229 307.184787 
L 208.888869 306.320949 
L 209.905447 306.452144 
L 210.922026 306.362219 
L 211.938604 307.367476 
L 212.955183 306.790295 
L 213.971762 305.983884 
L 216.004919 306.262168 
L 218.038076 307.135707 
L 219.054655 306.603892 
L 220.071233 306.585074 
L 221.087812 306.843856 
L 222.104391 306.717898 
L 223.120969 305.852528 
L 224.137548 305.389867 
L 225.154126 306.742618 
L 226.170705 306.540406 
L 228.203862 307.199778 
L 229.220441 306.887049 
L 230.237019 307.233704 
L 231.253598 306.032847 
L 232.270177 306.724627 
L 233.286755 306.061928 
L 234.303334 305.87497 
L 235.319913 306.484085 
L 236.336491 306.666639 
L 237.35307 306.522351 
L 238.369648 307.440674 
L 239.386227 307.254701 
L 240.402806 305.96486 
L 242.435963 307.200456 
L 244.46912 306.839805 
L 245.485699 307.410602 
L 246.502277 305.205801 
L 247.518856 306.468515 
L 248.535435 307.018388 
L 249.552013 306.910149 
L 250.568592 307.115803 
L 251.58517 305.462972 
L 252.601749 307.036844 
L 253.618328 305.955257 
L 254.634906 305.957611 
L 255.651485 307.029395 
L 256.668063 306.746277 
L 257.684642 307.283068 
L 258.701221 306.497686 
L 259.717799 306.314939 
L 260.734378 307.367271 
L 261.750956 306.05757 
L 262.767535 307.331216 
L 263.784114 306.313159 
L 264.800692 306.99804 
L 265.817271 306.254767 
L 266.83385 306.785376 
L 267.850428 306.388983 
L 268.867007 305.191141 
L 269.883585 306.991354 
L 270.900164 305.475576 
L 271.916743 306.693231 
L 272.933321 306.924078 
L 273.9499 306.427296 
L 274.966478 306.117576 
L 275.983057 306.30974 
L 276.999636 306.65414 
L 278.016214 306.725308 
L 280.049371 306.130602 
L 281.06595 307.564625 
L 282.082529 306.64918 
L 283.099107 306.829728 
L 284.115686 306.489752 
L 285.132265 306.442298 
L 287.165422 306.815708 
L 288.182 307.302551 
L 289.198579 307.161711 
L 290.215158 306.41222 
L 291.231736 306.329009 
L 292.248315 306.507685 
L 293.264893 306.211199 
L 294.281472 307.03656 
L 295.298051 306.344505 
L 296.314629 306.515774 
L 297.331208 306.949219 
L 298.347786 306.62756 
L 299.364365 306.443903 
L 300.380944 307.017136 
L 301.397522 306.9387 
L 302.414101 306.167511 
L 303.43068 306.022825 
L 304.447258 306.334969 
L 305.463837 305.777911 
L 306.480415 306.493572 
L 307.496994 305.661028 
L 308.513573 307.038873 
L 310.54673 306.220317 
L 311.563308 306.21283 
L 312.579887 307.086296 
L 313.596466 305.76273 
L 314.613044 306.026487 
L 315.629623 305.418506 
L 316.646201 305.912308 
L 317.66278 306.753705 
L 318.679359 305.804096 
L 319.695937 306.64136 
L 320.712516 306.729724 
L 321.729095 306.579833 
L 322.745673 307.011495 
L 324.77883 305.774522 
L 325.795409 305.848969 
L 326.811988 306.720898 
L 327.828566 307.013215 
L 328.845145 306.491171 
L 329.861723 305.8276 
L 331.894881 306.901709 
L 332.911459 306.998774 
L 333.928038 307.372184 
L 335.961195 305.660218 
L 337.994352 306.929047 
L 339.010931 306.241367 
L 340.02751 306.715673 
L 341.044088 306.323669 
L 342.060667 306.436022 
L 343.077245 306.945231 
L 344.093824 306.423988 
L 345.110403 306.423035 
L 346.126981 306.61895 
L 347.14356 306.623574 
L 348.160138 306.172146 
L 349.176717 306.212667 
L 350.193296 306.413358 
L 351.209874 307.052943 
L 352.226453 306.411983 
L 353.243032 305.957695 
L 354.25961 306.573967 
L 355.276189 304.612176 
L 356.292767 306.739483 
L 357.309346 306.237966 
L 358.325925 306.401201 
L 359.342503 306.326593 
L 360.359082 307.208302 
L 361.37566 306.610902 
L 362.392239 306.631452 
L 363.408818 305.707008 
L 364.425396 307.008114 
L 365.441975 305.608075 
L 366.458553 306.341248 
L 367.475132 306.931948 
L 368.491711 306.739199 
L 369.508289 306.422152 
L 370.524868 305.65889 
L 371.541447 306.894422 
L 372.558025 306.513361 
L 373.574604 306.843788 
L 374.591182 306.931948 
L 375.607761 306.623559 
L 376.62434 305.716375 
L 377.640918 305.325436 
L 378.657497 306.370743 
L 379.674075 306.469343 
L 380.690654 306.410357 
L 381.707233 307.340138 
L 382.723811 305.612342 
L 383.74039 306.451019 
L 385.773547 307.034627 
L 386.790126 306.71586 
L 387.806704 306.078094 
L 388.823283 306.454659 
L 389.839862 305.759016 
L 390.85644 306.256071 
L 392.889597 306.412352 
L 393.906176 306.725493 
L 394.922755 306.64737 
L 395.939333 306.34452 
L 396.955912 305.79029 
L 398.989069 306.770514 
L 400.005648 305.732852 
L 402.038805 307.065123 
L 403.055383 306.975419 
L 404.071962 306.689993 
L 405.088541 306.106826 
L 406.105119 306.539988 
L 407.121698 306.263566 
L 409.154855 306.903373 
L 410.171434 306.788137 
L 411.188012 306.935413 
L 412.204591 307.214768 
L 413.22117 306.802291 
L 414.237748 306.883692 
L 415.254327 306.546378 
L 416.270905 305.913314 
L 417.287484 306.045039 
L 418.304063 306.950439 
L 419.320641 306.039573 
L 420.33722 306.800723 
L 421.353799 306.601986 
L 422.370377 307.075759 
L 423.386956 306.33496 
L 424.403534 307.095513 
L 425.420113 306.378072 
L 426.436692 306.329243 
L 427.45327 306.554853 
L 428.469849 307.168636 
L 429.486427 306.35739 
L 430.503006 307.013279 
L 431.519585 306.645533 
L 432.536163 307.092788 
L 433.552742 306.084103 
L 434.56932 306.969775 
L 435.585899 306.730692 
L 436.602478 307.103102 
L 437.619056 306.557488 
L 438.635635 306.52598 
L 439.652214 306.156892 
L 440.668792 306.141808 
L 441.685371 305.94503 
L 442.701949 306.372223 
L 443.718528 305.996763 
L 444.735107 306.988477 
L 445.751685 306.883727 
L 446.768264 305.432388 
L 447.784842 305.91232 
L 448.801421 307.00769 
L 449.818 307.498414 
L 450.834578 306.301338 
L 451.851157 306.745107 
L 452.867735 305.592634 
L 453.884314 306.406351 
L 454.900893 305.528367 
L 455.917471 307.114929 
L 456.93405 306.263549 
L 457.950629 306.328605 
L 458.967207 307.174245 
L 459.983786 306.35625 
L 462.016943 306.009136 
L 464.0501 306.730646 
L 465.066679 305.966764 
L 466.083257 306.711616 
L 467.099836 306.444974 
L 468.116415 306.669642 
L 469.132993 305.995122 
L 470.149572 307.000014 
L 471.16615 306.66203 
L 472.182729 306.817071 
L 473.199308 305.786295 
L 474.215886 307.013331 
L 476.249044 306.688777 
L 477.265622 306.215401 
L 479.298779 306.417218 
L 480.315358 307.027097 
L 481.331937 306.366061 
L 482.348515 306.758433 
L 483.365094 306.207994 
L 484.381672 307.763237 
L 485.398251 306.894395 
L 486.41483 306.750198 
L 487.431408 306.844034 
L 488.447987 306.377727 
L 489.464565 307.085737 
L 490.481144 307.505523 
L 491.497723 306.071917 
L 494.547459 307.049913 
L 495.564037 306.738705 
L 496.580616 307.068849 
L 497.597194 306.774161 
L 498.613773 307.262135 
L 499.630352 306.744487 
L 501.663509 307.372239 
L 502.680087 306.350869 
L 503.696666 306.125154 
L 504.713245 307.718195 
L 505.729823 306.468796 
L 506.746402 306.544372 
L 507.762981 306.227733 
L 509.796138 306.11014 
L 510.812716 307.540546 
L 511.829295 307.256096 
L 512.845874 306.406643 
L 513.862452 306.473577 
L 514.879031 306.277884 
L 515.895609 306.865023 
L 516.912188 306.51878 
L 517.928767 306.434393 
L 518.945345 306.629917 
L 519.961924 307.8 
L 520.978502 305.857385 
L 521.995081 306.37174 
L 523.01166 306.608019 
L 524.028238 306.312501 
L 525.044817 306.666071 
L 526.061396 305.875584 
L 527.077974 306.706057 
L 528.094553 306.097787 
L 529.111131 306.406939 
L 530.12771 305.656858 
L 532.160867 305.158303 
L 533.177446 305.581139 
L 534.194024 307.236122 
L 535.210603 306.572566 
L 536.227182 306.603167 
L 537.24376 307.188718 
L 538.260339 306.941932 
L 539.276917 306.397449 
L 540.293496 306.399312 
L 541.310075 305.892376 
L 542.326653 306.585822 
L 543.343232 306.989269 
L 544.359811 306.008501 
L 546.392968 306.98798 
L 547.409546 304.782892 
L 548.426125 307.315672 
L 549.442704 306.331114 
L 550.459282 307.066316 
L 551.475861 306.76725 
L 552.492439 306.24156 
L 553.509018 306.496063 
L 554.525597 306.156688 
L 555.542175 307.075423 
L 556.558754 306.54825 
L 557.575332 305.89466 
L 558.591911 306.758229 
L 559.60849 306.37606 
L 560.625068 306.214957 
L 561.641647 307.330824 
L 562.658226 306.988667 
L 563.674804 306.471232 
L 564.691383 306.556265 
L 566.72454 306.460149 
L 567.741119 306.718927 
L 568.757697 306.627531 
L 569.774276 306.919317 
L 570.790854 306.416306 
L 571.807433 306.863549 
L 572.824012 306.113187 
L 573.84059 306.812345 
L 574.857169 306.736357 
L 575.873747 306.811851 
L 577.906905 306.280139 
L 578.923483 307.435588 
L 579.940062 305.82908 
L 580.956641 304.998858 
L 581.973219 305.782529 
L 582.989798 307.750452 
L 584.006376 307.066848 
L 585.022955 306.631534 
L 586.039534 306.530288 
L 587.056112 307.351602 
L 588.072691 306.967792 
L 589.089269 305.451926 
L 590.105848 306.980367 
L 591.122427 305.877303 
L 592.139005 306.374875 
L 593.155584 307.352494 
L 594.172163 306.611154 
L 595.188741 306.974592 
L 596.20532 306.813105 
L 597.221898 305.423033 
L 598.238477 306.575941 
L 600.271634 306.386971 
L 601.288213 306.885827 
L 602.304791 306.563433 
L 603.32137 307.409964 
L 604.337949 306.493186 
L 605.354527 306.662018 
L 606.371106 305.8399 
L 607.387684 306.802498 
L 609.420842 306.554715 
L 610.43742 306.697801 
L 611.453999 306.085554 
L 612.470578 306.884321 
L 613.487156 306.931875 
L 614.503735 306.163019 
L 615.520313 305.94546 
L 616.536892 306.830354 
L 617.553471 306.348763 
L 618.570049 306.26955 
L 620.603206 306.676614 
L 621.619785 306.506246 
L 622.636364 305.613889 
L 622.636364 305.613889 
" clip-path="url(#p183d325628)" style="fill: none; stroke: #1f77b4; stroke-width: 1.5; stroke-linecap: square"/>
   </g>
   <g id="line2d_26">
    <path d="M 115.363636 55.950689 
L 119.429951 56.201511 
L 120.446529 56.204412 
L 122.479687 56.399716 
L 123.496265 56.487028 
L 127.56258 56.407741 
L 131.628894 56.508084 
L 133.662051 56.40622 
L 135.695209 56.443466 
L 136.711787 56.366448 
L 139.761523 56.516319 
L 141.79468 56.58489 
L 144.844416 56.573497 
L 147.894152 56.398851 
L 148.910731 56.482138 
L 150.943888 56.437008 
L 152.977045 56.640103 
L 155.010202 56.522752 
L 162.126253 56.536907 
L 163.142831 56.500948 
L 165.175988 56.710734 
L 166.192567 56.660013 
L 168.225724 56.77479 
L 172.292039 56.707599 
L 174.325196 56.681186 
L 178.39151 56.654141 
L 183.474403 56.524881 
L 184.490982 56.63615 
L 186.524139 56.577591 
L 194.656768 56.563928 
L 196.689925 56.58833 
L 200.75624 56.489367 
L 204.822554 56.424936 
L 211.938604 56.443887 
L 214.98834 56.524998 
L 217.021498 56.552886 
L 220.071233 56.396043 
L 221.087812 56.426434 
L 223.120969 56.321272 
L 226.170705 56.45886 
L 227.187284 56.406267 
L 230.237019 56.511452 
L 231.253598 56.560583 
L 233.286755 56.442928 
L 238.369648 56.423182 
L 241.419384 56.483378 
L 244.46912 56.395552 
L 252.601749 56.243669 
L 259.717799 56.31313 
L 264.800692 56.165272 
L 266.83385 56.258362 
L 268.867007 56.034702 
L 269.883585 56.259227 
L 274.966478 56.335332 
L 278.016214 56.317552 
L 282.082529 56.278388 
L 284.115686 56.26138 
L 288.182 56.396254 
L 291.231736 56.256724 
L 295.298051 56.381889 
L 299.364365 56.266503 
L 301.397522 56.274598 
L 303.43068 56.189392 
L 325.795409 56.270995 
L 326.811988 56.343193 
L 329.861723 56.29411 
L 331.894881 56.221608 
L 334.944617 56.071573 
L 339.010931 56.245822 
L 341.044088 56.107813 
L 344.093824 56.157294 
L 346.126981 56.139841 
L 348.160138 56.200949 
L 358.325925 56.333367 
L 359.342503 56.213068 
L 365.441975 56.207009 
L 367.475132 56.333812 
L 368.491711 56.270621 
L 370.524868 56.38734 
L 371.541447 56.425732 
L 372.558025 56.333437 
L 374.591182 56.386802 
L 376.62434 56.322465 
L 377.640918 56.332057 
L 378.657497 56.461106 
L 380.690654 56.358307 
L 387.806704 56.238078 
L 400.005648 56.356365 
L 401.022226 56.483051 
L 428.469849 56.290858 
L 431.519585 56.326419 
L 432.536163 56.226404 
L 438.635635 56.424001 
L 441.685371 56.392978 
L 444.735107 56.45638 
L 446.768264 56.433265 
L 449.818 56.355312 
L 452.867735 56.492619 
L 455.917471 56.454461 
L 461.000364 56.445454 
L 468.116415 56.435441 
L 469.132993 56.356271 
L 471.16615 56.411882 
L 472.182729 56.447045 
L 474.215886 56.312405 
L 476.249044 56.277663 
L 481.331937 56.268492 
L 483.365094 56.236393 
L 486.41483 56.220508 
L 488.447987 56.301269 
L 490.481144 56.191217 
L 499.630352 56.09546 
L 502.680087 56.05915 
L 508.779559 56.146438 
L 509.796138 56.216578 
L 513.862452 56.065163 
L 514.879031 56.159844 
L 517.928767 55.964001 
L 519.961924 56.02001 
L 523.01166 56.075621 
L 529.111131 56.220695 
L 530.12771 56.123324 
L 538.260339 56.31292 
L 561.641647 56.366167 
L 562.658226 56.402243 
L 563.674804 56.272914 
L 576.890326 56.177156 
L 577.906905 56.016664 
L 578.923483 56.097916 
L 579.940062 56.043358 
L 582.989798 56.202798 
L 585.022955 56.136636 
L 591.122427 56.064929 
L 594.172163 56.147865 
L 599.255056 56.151632 
L 600.271634 56.102291 
L 602.304791 56.207196 
L 604.337949 56.091974 
L 609.420842 56.086944 
L 610.43742 55.979045 
L 612.470578 55.996989 
L 617.553471 55.96709 
L 622.636364 55.8 
L 622.636364 55.8 
" clip-path="url(#p183d325628)" style="fill: none; stroke: #ff7f0e; stroke-width: 1.5; stroke-linecap: square"/>
   </g>
   <g id="patch_3">
    <path d="M 90 320.4 
L 90 43.2 
" style="fill: none; stroke: #000000; stroke-width: 0.8; stroke-linejoin: miter; stroke-linecap: square"/>
   </g>
   <g id="patch_4">
    <path d="M 648 320.4 
L 648 43.2 
" style="fill: none; stroke: #000000; stroke-width: 0.8; stroke-linejoin: miter; stroke-linecap: square"/>
   </g>
   <g id="patch_5">
    <path d="M 90 320.4 
L 648 320.4 
" style="fill: none; stroke: #000000; stroke-width: 0.8; stroke-linejoin: miter; stroke-linecap: square"/>
   </g>
   <g id="patch_6">
    <path d="M 90 43.2 
L 648 43.2 
" style="fill: none; stroke: #000000; stroke-width: 0.8; stroke-linejoin: miter; stroke-linecap: square"/>
   </g>
   <g id="text_15">
    <!-- model train and validation loss over time -->
    <g transform="translate(245.555625 37.2) scale(0.12 -0.12)">
     <defs>
      <path id="DejaVuSans-6d" d="M 3328 2828 
Q 3544 3216 3844 3400 
Q 4144 3584 4550 3584 
Q 5097 3584 5394 3201 
Q 5691 2819 5691 2113 
L 5691 0 
L 5113 0 
L 5113 2094 
Q 5113 2597 4934 2840 
Q 4756 3084 4391 3084 
Q 3944 3084 3684 2787 
Q 3425 2491 3425 1978 
L 3425 0 
L 2847 0 
L 2847 2094 
Q 2847 2600 2669 2842 
Q 2491 3084 2119 3084 
Q 1678 3084 1418 2786 
Q 1159 2488 1159 1978 
L 1159 0 
L 581 0 
L 581 3500 
L 1159 3500 
L 1159 2956 
Q 1356 3278 1631 3431 
Q 1906 3584 2284 3584 
Q 2666 3584 2933 3390 
Q 3200 3197 3328 2828 
z
" transform="scale(0.015625)"/>
      <path id="DejaVuSans-64" d="M 2906 2969 
L 2906 4863 
L 3481 4863 
L 3481 0 
L 2906 0 
L 2906 525 
Q 2725 213 2448 61 
Q 2172 -91 1784 -91 
Q 1150 -91 751 415 
Q 353 922 353 1747 
Q 353 2572 751 3078 
Q 1150 3584 1784 3584 
Q 2172 3584 2448 3432 
Q 2725 3281 2906 2969 
z
M 947 1747 
Q 947 1113 1208 752 
Q 1469 391 1925 391 
Q 2381 391 2643 752 
Q 2906 1113 2906 1747 
Q 2906 2381 2643 2742 
Q 2381 3103 1925 3103 
Q 1469 3103 1208 2742 
Q 947 2381 947 1747 
z
" transform="scale(0.015625)"/>
      <path id="DejaVuSans-20" transform="scale(0.015625)"/>
      <path id="DejaVuSans-74" d="M 1172 4494 
L 1172 3500 
L 2356 3500 
L 2356 3053 
L 1172 3053 
L 1172 1153 
Q 1172 725 1289 603 
Q 1406 481 1766 481 
L 2356 481 
L 2356 0 
L 1766 0 
Q 1100 0 847 248 
Q 594 497 594 1153 
L 594 3053 
L 172 3053 
L 172 3500 
L 594 3500 
L 594 4494 
L 1172 4494 
z
" transform="scale(0.015625)"/>
      <path id="DejaVuSans-72" d="M 2631 2963 
Q 2534 3019 2420 3045 
Q 2306 3072 2169 3072 
Q 1681 3072 1420 2755 
Q 1159 2438 1159 1844 
L 1159 0 
L 581 0 
L 581 3500 
L 1159 3500 
L 1159 2956 
Q 1341 3275 1631 3429 
Q 1922 3584 2338 3584 
Q 2397 3584 2469 3576 
Q 2541 3569 2628 3553 
L 2631 2963 
z
" transform="scale(0.015625)"/>
      <path id="DejaVuSans-61" d="M 2194 1759 
Q 1497 1759 1228 1600 
Q 959 1441 959 1056 
Q 959 750 1161 570 
Q 1363 391 1709 391 
Q 2188 391 2477 730 
Q 2766 1069 2766 1631 
L 2766 1759 
L 2194 1759 
z
M 3341 1997 
L 3341 0 
L 2766 0 
L 2766 531 
Q 2569 213 2275 61 
Q 1981 -91 1556 -91 
Q 1019 -91 701 211 
Q 384 513 384 1019 
Q 384 1609 779 1909 
Q 1175 2209 1959 2209 
L 2766 2209 
L 2766 2266 
Q 2766 2663 2505 2880 
Q 2244 3097 1772 3097 
Q 1472 3097 1187 3025 
Q 903 2953 641 2809 
L 641 3341 
Q 956 3463 1253 3523 
Q 1550 3584 1831 3584 
Q 2591 3584 2966 3190 
Q 3341 2797 3341 1997 
z
" transform="scale(0.015625)"/>
      <path id="DejaVuSans-69" d="M 603 3500 
L 1178 3500 
L 1178 0 
L 603 0 
L 603 3500 
z
M 603 4863 
L 1178 4863 
L 1178 4134 
L 603 4134 
L 603 4863 
z
" transform="scale(0.015625)"/>
      <path id="DejaVuSans-6e" d="M 3513 2113 
L 3513 0 
L 2938 0 
L 2938 2094 
Q 2938 2591 2744 2837 
Q 2550 3084 2163 3084 
Q 1697 3084 1428 2787 
Q 1159 2491 1159 1978 
L 1159 0 
L 581 0 
L 581 3500 
L 1159 3500 
L 1159 2956 
Q 1366 3272 1645 3428 
Q 1925 3584 2291 3584 
Q 2894 3584 3203 3211 
Q 3513 2838 3513 2113 
z
" transform="scale(0.015625)"/>
      <path id="DejaVuSans-76" d="M 191 3500 
L 800 3500 
L 1894 563 
L 2988 3500 
L 3597 3500 
L 2284 0 
L 1503 0 
L 191 3500 
z
" transform="scale(0.015625)"/>
     </defs>
     <use xlink:href="#DejaVuSans-6d"/>
     <use xlink:href="#DejaVuSans-6f" x="97.412109"/>
     <use xlink:href="#DejaVuSans-64" x="158.59375"/>
     <use xlink:href="#DejaVuSans-65" x="222.070312"/>
     <use xlink:href="#DejaVuSans-6c" x="283.59375"/>
     <use xlink:href="#DejaVuSans-20" x="311.376953"/>
     <use xlink:href="#DejaVuSans-74" x="343.164062"/>
     <use xlink:href="#DejaVuSans-72" x="382.373047"/>
     <use xlink:href="#DejaVuSans-61" x="423.486328"/>
     <use xlink:href="#DejaVuSans-69" x="484.765625"/>
     <use xlink:href="#DejaVuSans-6e" x="512.548828"/>
     <use xlink:href="#DejaVuSans-20" x="575.927734"/>
     <use xlink:href="#DejaVuSans-61" x="607.714844"/>
     <use xlink:href="#DejaVuSans-6e" x="668.994141"/>
     <use xlink:href="#DejaVuSans-64" x="732.373047"/>
     <use xlink:href="#DejaVuSans-20" x="795.849609"/>
     <use xlink:href="#DejaVuSans-76" x="827.636719"/>
     <use xlink:href="#DejaVuSans-61" x="886.816406"/>
     <use xlink:href="#DejaVuSans-6c" x="948.095703"/>
     <use xlink:href="#DejaVuSans-69" x="975.878906"/>
     <use xlink:href="#DejaVuSans-64" x="1003.662109"/>
     <use xlink:href="#DejaVuSans-61" x="1067.138672"/>
     <use xlink:href="#DejaVuSans-74" x="1128.417969"/>
     <use xlink:href="#DejaVuSans-69" x="1167.626953"/>
     <use xlink:href="#DejaVuSans-6f" x="1195.410156"/>
     <use xlink:href="#DejaVuSans-6e" x="1256.591797"/>
     <use xlink:href="#DejaVuSans-20" x="1319.970703"/>
     <use xlink:href="#DejaVuSans-6c" x="1351.757812"/>
     <use xlink:href="#DejaVuSans-6f" x="1379.541016"/>
     <use xlink:href="#DejaVuSans-73" x="1440.722656"/>
     <use xlink:href="#DejaVuSans-73" x="1492.822266"/>
     <use xlink:href="#DejaVuSans-20" x="1544.921875"/>
     <use xlink:href="#DejaVuSans-6f" x="1576.708984"/>
     <use xlink:href="#DejaVuSans-76" x="1637.890625"/>
     <use xlink:href="#DejaVuSans-65" x="1697.070312"/>
     <use xlink:href="#DejaVuSans-72" x="1758.59375"/>
     <use xlink:href="#DejaVuSans-20" x="1799.707031"/>
     <use xlink:href="#DejaVuSans-74" x="1831.494141"/>
     <use xlink:href="#DejaVuSans-69" x="1870.703125"/>
     <use xlink:href="#DejaVuSans-6d" x="1898.486328"/>
     <use xlink:href="#DejaVuSans-65" x="1995.898438"/>
    </g>
   </g>
   <g id="legend_1">
    <g id="patch_7">
     <path d="M 559.765625 197.978125 
L 641 197.978125 
Q 643 197.978125 643 195.978125 
L 643 167.621875 
Q 643 165.621875 641 165.621875 
L 559.765625 165.621875 
Q 557.765625 165.621875 557.765625 167.621875 
L 557.765625 195.978125 
Q 557.765625 197.978125 559.765625 197.978125 
z
" style="fill: #ffffff; opacity: 0.8; stroke: #cccccc; stroke-linejoin: miter"/>
    </g>
    <g id="line2d_27">
     <path d="M 561.765625 173.720312 
L 571.765625 173.720312 
L 581.765625 173.720312 
" style="fill: none; stroke: #1f77b4; stroke-width: 1.5; stroke-linecap: square"/>
    </g>
    <g id="text_16">
     <!-- train -->
     <g transform="translate(589.765625 177.220312) scale(0.1 -0.1)">
      <use xlink:href="#DejaVuSans-74"/>
      <use xlink:href="#DejaVuSans-72" x="39.208984"/>
      <use xlink:href="#DejaVuSans-61" x="80.322266"/>
      <use xlink:href="#DejaVuSans-69" x="141.601562"/>
      <use xlink:href="#DejaVuSans-6e" x="169.384766"/>
     </g>
    </g>
    <g id="line2d_28">
     <path d="M 561.765625 188.398437 
L 571.765625 188.398437 
L 581.765625 188.398437 
" style="fill: none; stroke: #ff7f0e; stroke-width: 1.5; stroke-linecap: square"/>
    </g>
    <g id="text_17">
     <!-- validation -->
     <g transform="translate(589.765625 191.898437) scale(0.1 -0.1)">
      <use xlink:href="#DejaVuSans-76"/>
      <use xlink:href="#DejaVuSans-61" x="59.179688"/>
      <use xlink:href="#DejaVuSans-6c" x="120.458984"/>
      <use xlink:href="#DejaVuSans-69" x="148.242188"/>
      <use xlink:href="#DejaVuSans-64" x="176.025391"/>
      <use xlink:href="#DejaVuSans-61" x="239.501953"/>
      <use xlink:href="#DejaVuSans-74" x="300.78125"/>
      <use xlink:href="#DejaVuSans-69" x="339.990234"/>
      <use xlink:href="#DejaVuSans-6f" x="367.773438"/>
      <use xlink:href="#DejaVuSans-6e" x="428.955078"/>
     </g>
    </g>
   </g>
  </g>
 </g>
 <defs>
  <clipPath id="p183d325628">
   <rect x="90" y="43.2" width="558" height="277.2"/>
  </clipPath>
 </defs>
</svg>
