<?xml version="1.0" encoding="utf-8" standalone="no"?>
<!DOCTYPE svg PUBLIC "-//W3C//DTD SVG 1.1//EN"
  "http://www.w3.org/Graphics/SVG/1.1/DTD/svg11.dtd">
<svg xmlns:xlink="http://www.w3.org/1999/xlink" width="720pt" height="360pt" viewBox="0 0 720 360" xmlns="http://www.w3.org/2000/svg" version="1.1">
 <metadata>
  <rdf:RDF xmlns:dc="http://purl.org/dc/elements/1.1/" xmlns:cc="http://creativecommons.org/ns#" xmlns:rdf="http://www.w3.org/1999/02/22-rdf-syntax-ns#">
   <cc:Work>
    <dc:type rdf:resource="http://purl.org/dc/dcmitype/StillImage"/>
    <dc:date>2023-05-24T11:59:44.413028</dc:date>
    <dc:format>image/svg+xml</dc:format>
    <dc:creator>
     <cc:Agent>
      <dc:title>Matplotlib v3.7.1, https://matplotlib.org/</dc:title>
     </cc:Agent>
    </dc:creator>
   </cc:Work>
  </rdf:RDF>
 </metadata>
 <defs>
  <style type="text/css">*{stroke-linejoin: round; stroke-linecap: butt}</style>
 </defs>
 <g id="figure_1">
  <g id="patch_1">
   <path d="M 0 360 
L 720 360 
L 720 0 
L 0 0 
z
" style="fill: #ffffff"/>
  </g>
  <g id="axes_1">
   <g id="patch_2">
    <path d="M 90 320.4 
L 648 320.4 
L 648 43.2 
L 90 43.2 
z
" style="fill: #ffffff"/>
   </g>
   <g id="matplotlib.axis_1">
    <g id="xtick_1">
     <g id="line2d_1">
      <path d="M 115.363636 320.4 
L 115.363636 43.2 
" clip-path="url(#pb3898a31c3)" style="fill: none; stroke: #b0b0b0; stroke-width: 0.8; stroke-linecap: square"/>
     </g>
     <g id="line2d_2">
      <defs>
       <path id="m9b478ab2bd" d="M 0 0 
L 0 3.5 
" style="stroke: #000000; stroke-width: 0.8"/>
      </defs>
      <g>
       <use xlink:href="#m9b478ab2bd" x="115.363636" y="320.4" style="stroke: #000000; stroke-width: 0.8"/>
      </g>
     </g>
     <g id="text_1">
      <!-- 0 -->
      <g transform="translate(112.182386 334.998438) scale(0.1 -0.1)">
       <defs>
        <path id="DejaVuSans-30" d="M 2034 4250 
Q 1547 4250 1301 3770 
Q 1056 3291 1056 2328 
Q 1056 1369 1301 889 
Q 1547 409 2034 409 
Q 2525 409 2770 889 
Q 3016 1369 3016 2328 
Q 3016 3291 2770 3770 
Q 2525 4250 2034 4250 
z
M 2034 4750 
Q 2819 4750 3233 4129 
Q 3647 3509 3647 2328 
Q 3647 1150 3233 529 
Q 2819 -91 2034 -91 
Q 1250 -91 836 529 
Q 422 1150 422 2328 
Q 422 3509 836 4129 
Q 1250 4750 2034 4750 
z
" transform="scale(0.015625)"/>
       </defs>
       <use xlink:href="#DejaVuSans-30"/>
      </g>
     </g>
    </g>
    <g id="xtick_2">
     <g id="line2d_3">
      <path d="M 217.021498 320.4 
L 217.021498 43.2 
" clip-path="url(#pb3898a31c3)" style="fill: none; stroke: #b0b0b0; stroke-width: 0.8; stroke-linecap: square"/>
     </g>
     <g id="line2d_4">
      <g>
       <use xlink:href="#m9b478ab2bd" x="217.021498" y="320.4" style="stroke: #000000; stroke-width: 0.8"/>
      </g>
     </g>
     <g id="text_2">
      <!-- 100 -->
      <g transform="translate(207.477748 334.998438) scale(0.1 -0.1)">
       <defs>
        <path id="DejaVuSans-31" d="M 794 531 
L 1825 531 
L 1825 4091 
L 703 3866 
L 703 4441 
L 1819 4666 
L 2450 4666 
L 2450 531 
L 3481 531 
L 3481 0 
L 794 0 
L 794 531 
z
" transform="scale(0.015625)"/>
       </defs>
       <use xlink:href="#DejaVuSans-31"/>
       <use xlink:href="#DejaVuSans-30" x="63.623047"/>
       <use xlink:href="#DejaVuSans-30" x="127.246094"/>
      </g>
     </g>
    </g>
    <g id="xtick_3">
     <g id="line2d_5">
      <path d="M 318.679359 320.4 
L 318.679359 43.2 
" clip-path="url(#pb3898a31c3)" style="fill: none; stroke: #b0b0b0; stroke-width: 0.8; stroke-linecap: square"/>
     </g>
     <g id="line2d_6">
      <g>
       <use xlink:href="#m9b478ab2bd" x="318.679359" y="320.4" style="stroke: #000000; stroke-width: 0.8"/>
      </g>
     </g>
     <g id="text_3">
      <!-- 200 -->
      <g transform="translate(309.135609 334.998438) scale(0.1 -0.1)">
       <defs>
        <path id="DejaVuSans-32" d="M 1228 531 
L 3431 531 
L 3431 0 
L 469 0 
L 469 531 
Q 828 903 1448 1529 
Q 2069 2156 2228 2338 
Q 2531 2678 2651 2914 
Q 2772 3150 2772 3378 
Q 2772 3750 2511 3984 
Q 2250 4219 1831 4219 
Q 1534 4219 1204 4116 
Q 875 4013 500 3803 
L 500 4441 
Q 881 4594 1212 4672 
Q 1544 4750 1819 4750 
Q 2544 4750 2975 4387 
Q 3406 4025 3406 3419 
Q 3406 3131 3298 2873 
Q 3191 2616 2906 2266 
Q 2828 2175 2409 1742 
Q 1991 1309 1228 531 
z
" transform="scale(0.015625)"/>
       </defs>
       <use xlink:href="#DejaVuSans-32"/>
       <use xlink:href="#DejaVuSans-30" x="63.623047"/>
       <use xlink:href="#DejaVuSans-30" x="127.246094"/>
      </g>
     </g>
    </g>
    <g id="xtick_4">
     <g id="line2d_7">
      <path d="M 420.33722 320.4 
L 420.33722 43.2 
" clip-path="url(#pb3898a31c3)" style="fill: none; stroke: #b0b0b0; stroke-width: 0.8; stroke-linecap: square"/>
     </g>
     <g id="line2d_8">
      <g>
       <use xlink:href="#m9b478ab2bd" x="420.33722" y="320.4" style="stroke: #000000; stroke-width: 0.8"/>
      </g>
     </g>
     <g id="text_4">
      <!-- 300 -->
      <g transform="translate(410.79347 334.998438) scale(0.1 -0.1)">
       <defs>
        <path id="DejaVuSans-33" d="M 2597 2516 
Q 3050 2419 3304 2112 
Q 3559 1806 3559 1356 
Q 3559 666 3084 287 
Q 2609 -91 1734 -91 
Q 1441 -91 1130 -33 
Q 819 25 488 141 
L 488 750 
Q 750 597 1062 519 
Q 1375 441 1716 441 
Q 2309 441 2620 675 
Q 2931 909 2931 1356 
Q 2931 1769 2642 2001 
Q 2353 2234 1838 2234 
L 1294 2234 
L 1294 2753 
L 1863 2753 
Q 2328 2753 2575 2939 
Q 2822 3125 2822 3475 
Q 2822 3834 2567 4026 
Q 2313 4219 1838 4219 
Q 1578 4219 1281 4162 
Q 984 4106 628 3988 
L 628 4550 
Q 988 4650 1302 4700 
Q 1616 4750 1894 4750 
Q 2613 4750 3031 4423 
Q 3450 4097 3450 3541 
Q 3450 3153 3228 2886 
Q 3006 2619 2597 2516 
z
" transform="scale(0.015625)"/>
       </defs>
       <use xlink:href="#DejaVuSans-33"/>
       <use xlink:href="#DejaVuSans-30" x="63.623047"/>
       <use xlink:href="#DejaVuSans-30" x="127.246094"/>
      </g>
     </g>
    </g>
    <g id="xtick_5">
     <g id="line2d_9">
      <path d="M 521.995081 320.4 
L 521.995081 43.2 
" clip-path="url(#pb3898a31c3)" style="fill: none; stroke: #b0b0b0; stroke-width: 0.8; stroke-linecap: square"/>
     </g>
     <g id="line2d_10">
      <g>
       <use xlink:href="#m9b478ab2bd" x="521.995081" y="320.4" style="stroke: #000000; stroke-width: 0.8"/>
      </g>
     </g>
     <g id="text_5">
      <!-- 400 -->
      <g transform="translate(512.451331 334.998438) scale(0.1 -0.1)">
       <defs>
        <path id="DejaVuSans-34" d="M 2419 4116 
L 825 1625 
L 2419 1625 
L 2419 4116 
z
M 2253 4666 
L 3047 4666 
L 3047 1625 
L 3713 1625 
L 3713 1100 
L 3047 1100 
L 3047 0 
L 2419 0 
L 2419 1100 
L 313 1100 
L 313 1709 
L 2253 4666 
z
" transform="scale(0.015625)"/>
       </defs>
       <use xlink:href="#DejaVuSans-34"/>
       <use xlink:href="#DejaVuSans-30" x="63.623047"/>
       <use xlink:href="#DejaVuSans-30" x="127.246094"/>
      </g>
     </g>
    </g>
    <g id="xtick_6">
     <g id="line2d_11">
      <path d="M 623.652942 320.4 
L 623.652942 43.2 
" clip-path="url(#pb3898a31c3)" style="fill: none; stroke: #b0b0b0; stroke-width: 0.8; stroke-linecap: square"/>
     </g>
     <g id="line2d_12">
      <g>
       <use xlink:href="#m9b478ab2bd" x="623.652942" y="320.4" style="stroke: #000000; stroke-width: 0.8"/>
      </g>
     </g>
     <g id="text_6">
      <!-- 500 -->
      <g transform="translate(614.109192 334.998438) scale(0.1 -0.1)">
       <defs>
        <path id="DejaVuSans-35" d="M 691 4666 
L 3169 4666 
L 3169 4134 
L 1269 4134 
L 1269 2991 
Q 1406 3038 1543 3061 
Q 1681 3084 1819 3084 
Q 2600 3084 3056 2656 
Q 3513 2228 3513 1497 
Q 3513 744 3044 326 
Q 2575 -91 1722 -91 
Q 1428 -91 1123 -41 
Q 819 9 494 109 
L 494 744 
Q 775 591 1075 516 
Q 1375 441 1709 441 
Q 2250 441 2565 725 
Q 2881 1009 2881 1497 
Q 2881 1984 2565 2268 
Q 2250 2553 1709 2553 
Q 1456 2553 1204 2497 
Q 953 2441 691 2322 
L 691 4666 
z
" transform="scale(0.015625)"/>
       </defs>
       <use xlink:href="#DejaVuSans-35"/>
       <use xlink:href="#DejaVuSans-30" x="63.623047"/>
       <use xlink:href="#DejaVuSans-30" x="127.246094"/>
      </g>
     </g>
    </g>
    <g id="text_7">
     <!-- epoch -->
     <g transform="translate(353.771875 348.676562) scale(0.1 -0.1)">
      <defs>
       <path id="DejaVuSans-65" d="M 3597 1894 
L 3597 1613 
L 953 1613 
Q 991 1019 1311 708 
Q 1631 397 2203 397 
Q 2534 397 2845 478 
Q 3156 559 3463 722 
L 3463 178 
Q 3153 47 2828 -22 
Q 2503 -91 2169 -91 
Q 1331 -91 842 396 
Q 353 884 353 1716 
Q 353 2575 817 3079 
Q 1281 3584 2069 3584 
Q 2775 3584 3186 3129 
Q 3597 2675 3597 1894 
z
M 3022 2063 
Q 3016 2534 2758 2815 
Q 2500 3097 2075 3097 
Q 1594 3097 1305 2825 
Q 1016 2553 972 2059 
L 3022 2063 
z
" transform="scale(0.015625)"/>
       <path id="DejaVuSans-70" d="M 1159 525 
L 1159 -1331 
L 581 -1331 
L 581 3500 
L 1159 3500 
L 1159 2969 
Q 1341 3281 1617 3432 
Q 1894 3584 2278 3584 
Q 2916 3584 3314 3078 
Q 3713 2572 3713 1747 
Q 3713 922 3314 415 
Q 2916 -91 2278 -91 
Q 1894 -91 1617 61 
Q 1341 213 1159 525 
z
M 3116 1747 
Q 3116 2381 2855 2742 
Q 2594 3103 2138 3103 
Q 1681 3103 1420 2742 
Q 1159 2381 1159 1747 
Q 1159 1113 1420 752 
Q 1681 391 2138 391 
Q 2594 391 2855 752 
Q 3116 1113 3116 1747 
z
" transform="scale(0.015625)"/>
       <path id="DejaVuSans-6f" d="M 1959 3097 
Q 1497 3097 1228 2736 
Q 959 2375 959 1747 
Q 959 1119 1226 758 
Q 1494 397 1959 397 
Q 2419 397 2687 759 
Q 2956 1122 2956 1747 
Q 2956 2369 2687 2733 
Q 2419 3097 1959 3097 
z
M 1959 3584 
Q 2709 3584 3137 3096 
Q 3566 2609 3566 1747 
Q 3566 888 3137 398 
Q 2709 -91 1959 -91 
Q 1206 -91 779 398 
Q 353 888 353 1747 
Q 353 2609 779 3096 
Q 1206 3584 1959 3584 
z
" transform="scale(0.015625)"/>
       <path id="DejaVuSans-63" d="M 3122 3366 
L 3122 2828 
Q 2878 2963 2633 3030 
Q 2388 3097 2138 3097 
Q 1578 3097 1268 2742 
Q 959 2388 959 1747 
Q 959 1106 1268 751 
Q 1578 397 2138 397 
Q 2388 397 2633 464 
Q 2878 531 3122 666 
L 3122 134 
Q 2881 22 2623 -34 
Q 2366 -91 2075 -91 
Q 1284 -91 818 406 
Q 353 903 353 1747 
Q 353 2603 823 3093 
Q 1294 3584 2113 3584 
Q 2378 3584 2631 3529 
Q 2884 3475 3122 3366 
z
" transform="scale(0.015625)"/>
       <path id="DejaVuSans-68" d="M 3513 2113 
L 3513 0 
L 2938 0 
L 2938 2094 
Q 2938 2591 2744 2837 
Q 2550 3084 2163 3084 
Q 1697 3084 1428 2787 
Q 1159 2491 1159 1978 
L 1159 0 
L 581 0 
L 581 4863 
L 1159 4863 
L 1159 2956 
Q 1366 3272 1645 3428 
Q 1925 3584 2291 3584 
Q 2894 3584 3203 3211 
Q 3513 2838 3513 2113 
z
" transform="scale(0.015625)"/>
      </defs>
      <use xlink:href="#DejaVuSans-65"/>
      <use xlink:href="#DejaVuSans-70" x="61.523438"/>
      <use xlink:href="#DejaVuSans-6f" x="125"/>
      <use xlink:href="#DejaVuSans-63" x="186.181641"/>
      <use xlink:href="#DejaVuSans-68" x="241.162109"/>
     </g>
    </g>
   </g>
   <g id="matplotlib.axis_2">
    <g id="ytick_1">
     <g id="line2d_13">
      <path d="M 90 319.876776 
L 648 319.876776 
" clip-path="url(#pb3898a31c3)" style="fill: none; stroke: #b0b0b0; stroke-width: 0.8; stroke-linecap: square"/>
     </g>
     <g id="line2d_14">
      <defs>
       <path id="m79ce1466bc" d="M 0 0 
L -3.5 0 
" style="stroke: #000000; stroke-width: 0.8"/>
      </defs>
      <g>
       <use xlink:href="#m79ce1466bc" x="90" y="319.876776" style="stroke: #000000; stroke-width: 0.8"/>
      </g>
     </g>
     <g id="text_8">
      <!-- 0.00 -->
      <g transform="translate(60.734375 323.675995) scale(0.1 -0.1)">
       <defs>
        <path id="DejaVuSans-2e" d="M 684 794 
L 1344 794 
L 1344 0 
L 684 0 
L 684 794 
z
" transform="scale(0.015625)"/>
       </defs>
       <use xlink:href="#DejaVuSans-30"/>
       <use xlink:href="#DejaVuSans-2e" x="63.623047"/>
       <use xlink:href="#DejaVuSans-30" x="95.410156"/>
       <use xlink:href="#DejaVuSans-30" x="159.033203"/>
      </g>
     </g>
    </g>
    <g id="ytick_2">
     <g id="line2d_15">
      <path d="M 90 283.940801 
L 648 283.940801 
" clip-path="url(#pb3898a31c3)" style="fill: none; stroke: #b0b0b0; stroke-width: 0.8; stroke-linecap: square"/>
     </g>
     <g id="line2d_16">
      <g>
       <use xlink:href="#m79ce1466bc" x="90" y="283.940801" style="stroke: #000000; stroke-width: 0.8"/>
      </g>
     </g>
     <g id="text_9">
      <!-- 0.25 -->
      <g transform="translate(60.734375 287.740019) scale(0.1 -0.1)">
       <use xlink:href="#DejaVuSans-30"/>
       <use xlink:href="#DejaVuSans-2e" x="63.623047"/>
       <use xlink:href="#DejaVuSans-32" x="95.410156"/>
       <use xlink:href="#DejaVuSans-35" x="159.033203"/>
      </g>
     </g>
    </g>
    <g id="ytick_3">
     <g id="line2d_17">
      <path d="M 90 248.004825 
L 648 248.004825 
" clip-path="url(#pb3898a31c3)" style="fill: none; stroke: #b0b0b0; stroke-width: 0.8; stroke-linecap: square"/>
     </g>
     <g id="line2d_18">
      <g>
       <use xlink:href="#m79ce1466bc" x="90" y="248.004825" style="stroke: #000000; stroke-width: 0.8"/>
      </g>
     </g>
     <g id="text_10">
      <!-- 0.50 -->
      <g transform="translate(60.734375 251.804044) scale(0.1 -0.1)">
       <use xlink:href="#DejaVuSans-30"/>
       <use xlink:href="#DejaVuSans-2e" x="63.623047"/>
       <use xlink:href="#DejaVuSans-35" x="95.410156"/>
       <use xlink:href="#DejaVuSans-30" x="159.033203"/>
      </g>
     </g>
    </g>
    <g id="ytick_4">
     <g id="line2d_19">
      <path d="M 90 212.06885 
L 648 212.06885 
" clip-path="url(#pb3898a31c3)" style="fill: none; stroke: #b0b0b0; stroke-width: 0.8; stroke-linecap: square"/>
     </g>
     <g id="line2d_20">
      <g>
       <use xlink:href="#m79ce1466bc" x="90" y="212.06885" style="stroke: #000000; stroke-width: 0.8"/>
      </g>
     </g>
     <g id="text_11">
      <!-- 0.75 -->
      <g transform="translate(60.734375 215.868068) scale(0.1 -0.1)">
       <defs>
        <path id="DejaVuSans-37" d="M 525 4666 
L 3525 4666 
L 3525 4397 
L 1831 0 
L 1172 0 
L 2766 4134 
L 525 4134 
L 525 4666 
z
" transform="scale(0.015625)"/>
       </defs>
       <use xlink:href="#DejaVuSans-30"/>
       <use xlink:href="#DejaVuSans-2e" x="63.623047"/>
       <use xlink:href="#DejaVuSans-37" x="95.410156"/>
       <use xlink:href="#DejaVuSans-35" x="159.033203"/>
      </g>
     </g>
    </g>
    <g id="ytick_5">
     <g id="line2d_21">
      <path d="M 90 176.132874 
L 648 176.132874 
" clip-path="url(#pb3898a31c3)" style="fill: none; stroke: #b0b0b0; stroke-width: 0.8; stroke-linecap: square"/>
     </g>
     <g id="line2d_22">
      <g>
       <use xlink:href="#m79ce1466bc" x="90" y="176.132874" style="stroke: #000000; stroke-width: 0.8"/>
      </g>
     </g>
     <g id="text_12">
      <!-- 1.00 -->
      <g transform="translate(60.734375 179.932093) scale(0.1 -0.1)">
       <use xlink:href="#DejaVuSans-31"/>
       <use xlink:href="#DejaVuSans-2e" x="63.623047"/>
       <use xlink:href="#DejaVuSans-30" x="95.410156"/>
       <use xlink:href="#DejaVuSans-30" x="159.033203"/>
      </g>
     </g>
    </g>
    <g id="ytick_6">
     <g id="line2d_23">
      <path d="M 90 140.196899 
L 648 140.196899 
" clip-path="url(#pb3898a31c3)" style="fill: none; stroke: #b0b0b0; stroke-width: 0.8; stroke-linecap: square"/>
     </g>
     <g id="line2d_24">
      <g>
       <use xlink:href="#m79ce1466bc" x="90" y="140.196899" style="stroke: #000000; stroke-width: 0.8"/>
      </g>
     </g>
     <g id="text_13">
      <!-- 1.25 -->
      <g transform="translate(60.734375 143.996117) scale(0.1 -0.1)">
       <use xlink:href="#DejaVuSans-31"/>
       <use xlink:href="#DejaVuSans-2e" x="63.623047"/>
       <use xlink:href="#DejaVuSans-32" x="95.410156"/>
       <use xlink:href="#DejaVuSans-35" x="159.033203"/>
      </g>
     </g>
    </g>
    <g id="ytick_7">
     <g id="line2d_25">
      <path d="M 90 104.260923 
L 648 104.260923 
" clip-path="url(#pb3898a31c3)" style="fill: none; stroke: #b0b0b0; stroke-width: 0.8; stroke-linecap: square"/>
     </g>
     <g id="line2d_26">
      <g>
       <use xlink:href="#m79ce1466bc" x="90" y="104.260923" style="stroke: #000000; stroke-width: 0.8"/>
      </g>
     </g>
     <g id="text_14">
      <!-- 1.50 -->
      <g transform="translate(60.734375 108.060142) scale(0.1 -0.1)">
       <use xlink:href="#DejaVuSans-31"/>
       <use xlink:href="#DejaVuSans-2e" x="63.623047"/>
       <use xlink:href="#DejaVuSans-35" x="95.410156"/>
       <use xlink:href="#DejaVuSans-30" x="159.033203"/>
      </g>
     </g>
    </g>
    <g id="ytick_8">
     <g id="line2d_27">
      <path d="M 90 68.324947 
L 648 68.324947 
" clip-path="url(#pb3898a31c3)" style="fill: none; stroke: #b0b0b0; stroke-width: 0.8; stroke-linecap: square"/>
     </g>
     <g id="line2d_28">
      <g>
       <use xlink:href="#m79ce1466bc" x="90" y="68.324947" style="stroke: #000000; stroke-width: 0.8"/>
      </g>
     </g>
     <g id="text_15">
      <!-- 1.75 -->
      <g transform="translate(60.734375 72.124166) scale(0.1 -0.1)">
       <use xlink:href="#DejaVuSans-31"/>
       <use xlink:href="#DejaVuSans-2e" x="63.623047"/>
       <use xlink:href="#DejaVuSans-37" x="95.410156"/>
       <use xlink:href="#DejaVuSans-35" x="159.033203"/>
      </g>
     </g>
    </g>
    <g id="text_16">
     <!-- loss -->
     <g transform="translate(54.654688 191.457812) rotate(-90) scale(0.1 -0.1)">
      <defs>
       <path id="DejaVuSans-6c" d="M 603 4863 
L 1178 4863 
L 1178 0 
L 603 0 
L 603 4863 
z
" transform="scale(0.015625)"/>
       <path id="DejaVuSans-73" d="M 2834 3397 
L 2834 2853 
Q 2591 2978 2328 3040 
Q 2066 3103 1784 3103 
Q 1356 3103 1142 2972 
Q 928 2841 928 2578 
Q 928 2378 1081 2264 
Q 1234 2150 1697 2047 
L 1894 2003 
Q 2506 1872 2764 1633 
Q 3022 1394 3022 966 
Q 3022 478 2636 193 
Q 2250 -91 1575 -91 
Q 1294 -91 989 -36 
Q 684 19 347 128 
L 347 722 
Q 666 556 975 473 
Q 1284 391 1588 391 
Q 1994 391 2212 530 
Q 2431 669 2431 922 
Q 2431 1156 2273 1281 
Q 2116 1406 1581 1522 
L 1381 1569 
Q 847 1681 609 1914 
Q 372 2147 372 2553 
Q 372 3047 722 3315 
Q 1072 3584 1716 3584 
Q 2034 3584 2315 3537 
Q 2597 3491 2834 3397 
z
" transform="scale(0.015625)"/>
      </defs>
      <use xlink:href="#DejaVuSans-6c"/>
      <use xlink:href="#DejaVuSans-6f" x="27.783203"/>
      <use xlink:href="#DejaVuSans-73" x="88.964844"/>
      <use xlink:href="#DejaVuSans-73" x="141.064453"/>
     </g>
    </g>
   </g>
   <g id="line2d_29">
    <path d="M 115.363636 119.722006 
L 116.380215 120.099332 
L 117.396794 120.339333 
L 118.413372 119.704973 
L 119.429951 120.353213 
L 120.446529 119.427513 
L 121.463108 120.658621 
L 122.479687 120.096333 
L 123.496265 120.536855 
L 124.512844 119.966205 
L 126.546001 120.147328 
L 127.56258 119.46055 
L 128.579158 120.645066 
L 129.595737 121.001658 
L 130.612316 122.092837 
L 131.628894 120.041893 
L 132.645473 120.416392 
L 133.662051 119.690664 
L 135.695209 119.934213 
L 136.711787 120.265239 
L 137.728366 120.893721 
L 138.744944 118.935481 
L 139.761523 120.316388 
L 140.778102 120.163436 
L 141.79468 120.55298 
L 142.811259 120.533188 
L 143.827837 119.794918 
L 144.844416 119.684821 
L 146.877573 119.822917 
L 147.894152 120.123287 
L 148.910731 119.539391 
L 149.927309 119.83205 
L 150.943888 120.243254 
L 151.960466 120.362466 
L 152.977045 125.529383 
L 153.993624 132.258948 
L 155.010202 141.430474 
L 157.043359 162.100336 
L 158.059938 168.03647 
L 159.076517 176.092845 
L 160.093095 176.074973 
L 161.109674 184.003019 
L 162.126253 188.911069 
L 163.142831 192.138706 
L 165.175988 201.29948 
L 166.192567 201.774307 
L 167.209146 202.892997 
L 168.225724 206.509116 
L 169.242303 212.373024 
L 170.258881 215.421706 
L 171.27546 215.00292 
L 172.292039 222.204853 
L 173.308617 225.621659 
L 174.325196 226.596084 
L 175.341774 228.590129 
L 176.358353 233.169758 
L 177.374932 236.455811 
L 178.39151 236.416065 
L 179.408089 234.949471 
L 180.424668 232.122704 
L 181.441246 240.439703 
L 182.457825 240.483236 
L 183.474403 241.542636 
L 184.490982 244.033511 
L 185.507561 246.979705 
L 186.524139 250.807594 
L 187.540718 248.684672 
L 188.557296 252.670787 
L 189.573875 253.915316 
L 190.590454 255.750489 
L 191.607032 249.478989 
L 192.623611 251.035185 
L 193.640189 254.769526 
L 195.673347 260.507346 
L 196.689925 258.347484 
L 197.706504 257.876838 
L 198.723083 261.248826 
L 199.739661 257.463621 
L 200.75624 257.802426 
L 201.772818 260.527374 
L 202.789397 262.794552 
L 203.805976 262.990078 
L 204.822554 263.651769 
L 205.839133 264.043369 
L 206.855711 258.332928 
L 207.87229 256.616184 
L 208.888869 259.517161 
L 209.905447 258.530651 
L 210.922026 260.920435 
L 211.938604 264.950507 
L 212.955183 263.679062 
L 213.971762 265.190144 
L 214.98834 267.529827 
L 216.004919 268.438691 
L 218.038076 271.370765 
L 219.054655 267.544872 
L 220.071233 268.020904 
L 221.087812 270.511963 
L 222.104391 268.545905 
L 223.120969 271.969368 
L 224.137548 272.101942 
L 225.154126 273.715328 
L 226.170705 273.346218 
L 227.187284 274.467842 
L 228.203862 273.113067 
L 229.220441 273.077519 
L 230.237019 273.773032 
L 231.253598 275.228038 
L 232.270177 275.19659 
L 233.286755 275.701773 
L 234.303334 274.028211 
L 235.319913 270.940927 
L 236.336491 269.464699 
L 237.35307 270.776794 
L 238.369648 274.605043 
L 239.386227 273.902834 
L 240.402806 274.461558 
L 241.419384 274.17873 
L 242.435963 275.250366 
L 243.452541 274.599024 
L 244.46912 277.641258 
L 245.485699 279.694533 
L 246.502277 281.321764 
L 247.518856 281.447257 
L 248.535435 280.985714 
L 249.552013 280.23717 
L 250.568592 281.145473 
L 251.58517 275.618036 
L 252.601749 274.633454 
L 253.618328 275.567661 
L 254.634906 279.212088 
L 255.651485 274.913595 
L 256.668063 279.737038 
L 257.684642 280.51451 
L 258.701221 284.419657 
L 259.717799 284.707073 
L 260.734378 285.592963 
L 261.750956 282.863001 
L 262.767535 281.511541 
L 264.800692 277.573234 
L 265.817271 280.086857 
L 266.83385 281.702565 
L 267.850428 286.317405 
L 268.867007 282.781221 
L 269.883585 283.195466 
L 270.900164 282.954227 
L 271.916743 281.782031 
L 272.933321 283.641579 
L 273.9499 283.343376 
L 274.966478 283.507343 
L 275.983057 285.5555 
L 276.999636 285.327138 
L 278.016214 282.354562 
L 279.032793 284.498351 
L 280.049371 285.763753 
L 281.06595 284.687241 
L 282.082529 284.727841 
L 283.099107 285.341656 
L 284.115686 284.969139 
L 285.132265 287.475519 
L 286.148843 287.016413 
L 287.165422 287.032765 
L 288.182 288.696328 
L 289.198579 288.201932 
L 290.215158 286.662447 
L 291.231736 286.948507 
L 292.248315 287.999119 
L 293.264893 287.889256 
L 295.298051 291.61132 
L 296.314629 292.70179 
L 297.331208 289.179319 
L 298.347786 288.284624 
L 299.364365 280.731246 
L 301.397522 291.058581 
L 303.43068 289.882783 
L 304.447258 290.723282 
L 305.463837 291.829384 
L 306.480415 290.429625 
L 307.496994 290.706155 
L 308.513573 286.003298 
L 309.530151 288.551659 
L 310.54673 283.532999 
L 311.563308 288.483757 
L 312.579887 288.501833 
L 313.596466 287.775818 
L 314.613044 287.309893 
L 315.629623 288.291146 
L 316.646201 290.924409 
L 318.679359 292.036485 
L 319.695937 290.925598 
L 320.712516 287.920993 
L 321.729095 292.566146 
L 322.745673 292.033919 
L 323.762252 292.025561 
L 324.77883 290.850769 
L 325.795409 290.950126 
L 326.811988 291.460748 
L 327.828566 293.234309 
L 328.845145 291.620554 
L 330.878302 293.537088 
L 331.894881 293.625519 
L 332.911459 294.500013 
L 333.928038 296.438443 
L 334.944617 295.378008 
L 335.961195 289.729674 
L 336.977774 292.870438 
L 337.994352 295.323219 
L 339.010931 294.698469 
L 340.02751 294.515984 
L 341.044088 292.467856 
L 342.060667 293.273296 
L 343.077245 290.129142 
L 344.093824 288.588993 
L 345.110403 289.67263 
L 346.126981 292.516678 
L 347.14356 293.229461 
L 348.160138 292.937828 
L 349.176717 292.999919 
L 350.193296 292.182 
L 351.209874 292.308223 
L 352.226453 292.779956 
L 353.243032 296.228692 
L 354.25961 294.620432 
L 355.276189 295.220578 
L 356.292767 297.24369 
L 357.309346 293.347517 
L 358.325925 295.631231 
L 359.342503 298.914459 
L 360.359082 298.433668 
L 361.37566 295.179552 
L 362.392239 292.451957 
L 363.408818 295.591228 
L 364.425396 291.737687 
L 365.441975 293.927031 
L 366.458553 295.106839 
L 367.475132 295.31367 
L 368.491711 296.837623 
L 369.508289 297.51584 
L 370.524868 298.941679 
L 371.541447 300.17444 
L 372.558025 299.363018 
L 373.574604 298.37389 
L 374.591182 299.570149 
L 375.607761 300.172549 
L 376.62434 290.296428 
L 377.640918 291.412521 
L 378.657497 296.244183 
L 379.674075 293.29451 
L 380.690654 294.30036 
L 381.707233 294.841359 
L 382.723811 292.330977 
L 383.74039 296.992889 
L 384.756968 296.316311 
L 386.790126 302.003253 
L 387.806704 300.967527 
L 388.823283 297.40829 
L 389.839862 297.023437 
L 390.85644 296.936628 
L 391.873019 295.255844 
L 392.889597 295.272077 
L 393.906176 296.915288 
L 395.939333 301.111473 
L 396.955912 299.495739 
L 397.97249 297.224025 
L 398.989069 297.706486 
L 400.005648 298.823171 
L 401.022226 296.251641 
L 402.038805 296.118369 
L 403.055383 298.853323 
L 404.071962 301.208816 
L 405.088541 303.060531 
L 406.105119 302.196462 
L 407.121698 300.848126 
L 408.138277 301.828219 
L 409.154855 298.7089 
L 410.171434 297.233567 
L 411.188012 295.961758 
L 412.204591 297.367957 
L 413.22117 299.548459 
L 414.237748 297.765291 
L 415.254327 299.007473 
L 416.270905 299.142795 
L 417.287484 299.442343 
L 418.304063 302.518694 
L 419.320641 301.460855 
L 420.33722 303.199221 
L 421.353799 300.764571 
L 422.370377 299.317403 
L 423.386956 295.628931 
L 424.403534 286.753943 
L 426.436692 297.225308 
L 427.45327 299.099391 
L 428.469849 298.194922 
L 430.503006 300.5224 
L 431.519585 301.109262 
L 432.536163 302.582778 
L 433.552742 299.658592 
L 434.56932 295.66091 
L 435.585899 295.232869 
L 436.602478 292.557465 
L 437.619056 295.283736 
L 438.635635 299.042582 
L 439.652214 301.422416 
L 440.668792 303.222935 
L 441.685371 303.79187 
L 442.701949 305.189761 
L 443.718528 302.620424 
L 444.735107 301.450049 
L 445.751685 301.893579 
L 446.768264 299.611124 
L 448.801421 301.146954 
L 449.818 298.508784 
L 450.834578 298.081949 
L 451.851157 297.906005 
L 452.867735 299.809891 
L 453.884314 298.248841 
L 454.900893 294.90318 
L 455.917471 296.388861 
L 456.93405 298.500163 
L 457.950629 298.240843 
L 458.967207 299.060345 
L 461.000364 299.310154 
L 462.016943 300.832584 
L 463.033522 302.041708 
L 464.0501 301.303711 
L 465.066679 297.643941 
L 467.099836 300.118704 
L 468.116415 302.040195 
L 469.132993 301.074209 
L 470.149572 300.934995 
L 471.16615 298.175248 
L 472.182729 300.53664 
L 473.199308 301.566006 
L 474.215886 303.704936 
L 475.232465 304.604164 
L 476.249044 301.779693 
L 477.265622 301.082889 
L 478.282201 300.878645 
L 479.298779 299.978182 
L 480.315358 299.474628 
L 481.331937 297.86395 
L 482.348515 299.591502 
L 483.365094 299.307434 
L 484.381672 299.999198 
L 485.398251 298.852486 
L 486.41483 300.241115 
L 487.431408 300.350663 
L 488.447987 299.420574 
L 489.464565 299.740421 
L 490.481144 302.574341 
L 491.497723 303.63233 
L 492.514301 304.088213 
L 493.53088 299.582518 
L 494.547459 297.381616 
L 495.564037 300.683937 
L 496.580616 299.897447 
L 497.597194 298.656654 
L 498.613773 299.172116 
L 499.630352 299.394262 
L 500.64693 301.691787 
L 501.663509 304.285577 
L 502.680087 304.360477 
L 503.696666 302.408616 
L 504.713245 302.374022 
L 505.729823 303.124802 
L 506.746402 302.68613 
L 507.762981 303.527641 
L 508.779559 300.957689 
L 509.796138 299.676644 
L 510.812716 297.633497 
L 511.829295 298.541644 
L 512.845874 301.454924 
L 513.862452 296.002125 
L 514.879031 301.201499 
L 515.895609 302.912292 
L 518.945345 304.75042 
L 519.961924 301.781951 
L 520.978502 299.279364 
L 521.995081 299.539484 
L 523.01166 300.183723 
L 524.028238 298.9665 
L 525.044817 301.453596 
L 526.061396 301.115534 
L 527.077974 299.59163 
L 528.094553 300.011474 
L 529.111131 299.951341 
L 530.12771 300.208495 
L 531.144289 300.929373 
L 532.160867 290.38805 
L 533.177446 294.897148 
L 534.194024 296.080191 
L 535.210603 296.639328 
L 536.227182 301.442762 
L 537.24376 300.863133 
L 538.260339 304.107829 
L 539.276917 302.885918 
L 540.293496 305.705276 
L 541.310075 303.610652 
L 542.326653 304.469135 
L 543.343232 303.232722 
L 544.359811 303.838191 
L 545.376389 303.082533 
L 547.409546 300.747009 
L 548.426125 302.082786 
L 549.442704 305.109924 
L 550.459282 304.54428 
L 551.475861 304.859477 
L 552.492439 302.844022 
L 553.509018 297.91432 
L 554.525597 298.100989 
L 555.542175 299.42341 
L 556.558754 302.490038 
L 557.575332 302.332682 
L 558.591911 301.524919 
L 559.60849 302.826624 
L 560.625068 297.244602 
L 561.641647 299.987041 
L 562.658226 299.122159 
L 563.674804 300.962367 
L 564.691383 300.876593 
L 565.707961 301.767694 
L 566.72454 301.242809 
L 567.741119 302.686173 
L 568.757697 300.525268 
L 569.774276 302.099331 
L 570.790854 302.03472 
L 571.807433 303.825459 
L 572.824012 305.091214 
L 573.84059 302.198601 
L 574.857169 299.764284 
L 575.873747 301.457175 
L 576.890326 301.048433 
L 577.906905 299.598808 
L 578.923483 300.339113 
L 579.940062 302.191439 
L 580.956641 302.428145 
L 581.973219 305.217933 
L 582.989798 307.235346 
L 584.006376 307.8 
L 585.022955 302.935766 
L 586.039534 303.060175 
L 587.056112 301.722195 
L 588.072691 301.929557 
L 589.089269 300.831601 
L 590.105848 301.174307 
L 591.122427 301.897166 
L 592.139005 303.556989 
L 593.155584 300.378701 
L 594.172163 300.317692 
L 595.188741 302.848541 
L 596.20532 303.173663 
L 597.221898 302.903618 
L 598.238477 301.424986 
L 599.255056 300.74461 
L 600.271634 299.41001 
L 601.288213 301.048073 
L 602.304791 303.921798 
L 603.32137 304.634385 
L 604.337949 302.793739 
L 605.354527 303.341044 
L 607.387684 297.48395 
L 608.404263 299.978458 
L 609.420842 301.969076 
L 610.43742 301.964022 
L 611.453999 303.306779 
L 612.470578 305.292407 
L 613.487156 303.977657 
L 614.503735 304.131881 
L 615.520313 304.543415 
L 616.536892 305.149681 
L 617.553471 305.027435 
L 618.570049 304.247641 
L 619.586628 303.925725 
L 620.603206 304.415327 
L 621.619785 304.634265 
L 622.636364 303.775634 
L 622.636364 303.775634 
" clip-path="url(#pb3898a31c3)" style="fill: none; stroke: #1f77b4; stroke-width: 1.5; stroke-linecap: square"/>
   </g>
   <g id="line2d_30">
    <path d="M 115.363636 121.522975 
L 118.413372 121.712444 
L 119.429951 121.526265 
L 120.446529 121.466496 
L 121.463108 121.65958 
L 122.479687 121.450594 
L 123.496265 121.358285 
L 125.529422 121.773241 
L 126.546001 121.436269 
L 128.579158 121.708674 
L 129.595737 122.856571 
L 130.612316 121.150378 
L 131.628894 121.395143 
L 132.645473 121.789605 
L 134.67863 121.44266 
L 135.695209 121.791422 
L 136.711787 121.422732 
L 137.728366 121.618078 
L 139.761523 121.628325 
L 140.778102 121.525391 
L 141.79468 121.773532 
L 142.811259 121.503235 
L 143.827837 121.474259 
L 144.844416 121.616433 
L 145.860995 121.618112 
L 146.877573 121.284053 
L 147.894152 121.704338 
L 148.910731 121.588125 
L 149.927309 121.830114 
L 150.943888 121.834929 
L 151.960466 123.099725 
L 152.977045 125.378093 
L 153.993624 133.662903 
L 155.010202 143.50611 
L 156.026781 151.137556 
L 157.043359 153.761103 
L 158.059938 158.824761 
L 159.076517 155.868561 
L 160.093095 158.154931 
L 161.109674 156.761823 
L 162.126253 155.796557 
L 163.142831 165.808516 
L 164.15941 169.8701 
L 165.175988 167.124188 
L 166.192567 167.366845 
L 167.209146 175.195985 
L 168.225724 177.95887 
L 169.242303 170.80908 
L 170.258881 168.897586 
L 171.27546 170.350275 
L 172.292039 171.406325 
L 173.308617 176.669767 
L 174.325196 168.349846 
L 175.341774 164.237232 
L 176.358353 157.389414 
L 177.374932 161.374609 
L 178.39151 143.092457 
L 179.408089 151.572698 
L 180.424668 167.618242 
L 181.441246 146.232351 
L 182.457825 163.594989 
L 183.474403 154.334272 
L 184.490982 153.129365 
L 185.507561 156.585412 
L 186.524139 147.304955 
L 187.540718 157.549701 
L 188.557296 142.966578 
L 189.573875 143.82377 
L 190.590454 130.24733 
L 191.607032 131.678034 
L 192.623611 147.544151 
L 193.640189 141.906895 
L 194.656768 140.226235 
L 195.673347 138.813112 
L 196.689925 136.505751 
L 197.706504 139.418599 
L 198.723083 143.5849 
L 199.739661 126.630106 
L 200.75624 146.963767 
L 201.772818 154.399268 
L 202.789397 140.418273 
L 203.805976 150.536336 
L 205.839133 122.93584 
L 206.855711 139.469989 
L 207.87229 132.148012 
L 208.888869 147.367123 
L 209.905447 147.040141 
L 210.922026 147.265902 
L 211.938604 136.989678 
L 212.955183 148.207213 
L 213.971762 140.139271 
L 214.98834 146.742992 
L 216.004919 140.736704 
L 217.021498 128.154421 
L 218.038076 130.069822 
L 220.071233 135.201937 
L 221.087812 135.255126 
L 222.104391 120.401844 
L 223.120969 136.240441 
L 224.137548 135.525783 
L 225.154126 136.233689 
L 226.170705 127.465021 
L 227.187284 125.571314 
L 228.203862 108.619451 
L 229.220441 128.690269 
L 230.237019 133.974668 
L 231.253598 142.417588 
L 232.270177 133.949153 
L 233.286755 139.978231 
L 234.303334 131.419097 
L 235.319913 104.905102 
L 236.336491 118.730625 
L 237.35307 147.230655 
L 238.369648 141.471051 
L 239.386227 140.800775 
L 240.402806 141.067679 
L 241.419384 129.904892 
L 242.435963 136.637747 
L 244.46912 135.699829 
L 245.485699 127.830318 
L 246.502277 122.012728 
L 247.518856 124.069909 
L 248.535435 121.748103 
L 249.552013 122.160917 
L 250.568592 118.085366 
L 251.58517 131.654626 
L 252.601749 132.214515 
L 253.618328 127.631631 
L 254.634906 123.59138 
L 255.651485 120.293906 
L 256.668063 130.03185 
L 257.684642 110.297592 
L 258.701221 111.75609 
L 259.717799 109.994343 
L 260.734378 115.687769 
L 261.750956 111.09983 
L 262.767535 124.075221 
L 263.784114 105.57387 
L 264.800692 119.791405 
L 265.817271 121.676939 
L 267.850428 129.884912 
L 268.867007 118.34139 
L 269.883585 119.825762 
L 270.900164 122.98029 
L 271.916743 98.225882 
L 272.933321 117.71642 
L 273.9499 124.518828 
L 274.966478 117.991772 
L 275.983057 122.461972 
L 276.999636 119.495096 
L 278.016214 121.367812 
L 279.032793 115.825351 
L 280.049371 107.445679 
L 281.06595 128.73477 
L 282.082529 106.36581 
L 283.099107 117.853659 
L 284.115686 109.819714 
L 285.132265 121.133106 
L 286.148843 110.981663 
L 287.165422 118.106375 
L 288.182 104.279292 
L 289.198579 114.275846 
L 290.215158 102.100654 
L 291.231736 112.727302 
L 292.248315 113.800162 
L 293.264893 119.797368 
L 294.281472 115.279719 
L 295.298051 114.621506 
L 296.314629 103.987439 
L 297.331208 117.665578 
L 298.347786 101.006477 
L 299.364365 112.370435 
L 300.380944 117.290069 
L 301.397522 111.54001 
L 302.414101 115.874941 
L 303.43068 106.018642 
L 304.447258 92.54613 
L 305.463837 97.82179 
L 306.480415 106.832721 
L 307.496994 88.960658 
L 308.513573 101.812245 
L 309.530151 96.247764 
L 310.54673 100.954693 
L 311.563308 122.184495 
L 312.579887 105.467013 
L 313.596466 101.929332 
L 314.613044 106.064411 
L 315.629623 110.969805 
L 316.646201 112.243323 
L 317.66278 113.007503 
L 318.679359 97.476267 
L 319.695937 104.458051 
L 321.729095 120.93985 
L 322.745673 120.335306 
L 323.762252 119.262171 
L 324.77883 109.348057 
L 325.795409 107.849308 
L 326.811988 118.399719 
L 327.828566 98.991603 
L 328.845145 106.902497 
L 329.861723 101.581736 
L 330.878302 111.066433 
L 331.894881 118.400627 
L 332.911459 105.327186 
L 333.928038 112.558379 
L 334.944617 101.874618 
L 335.961195 120.476332 
L 336.977774 108.637289 
L 337.994352 98.122657 
L 339.010931 107.283456 
L 340.02751 97.137633 
L 341.044088 102.447856 
L 342.060667 106.554918 
L 343.077245 126.049415 
L 344.093824 100.606977 
L 345.110403 106.984028 
L 346.126981 111.774288 
L 347.14356 109.157098 
L 348.160138 117.898897 
L 349.176717 101.20393 
L 350.193296 110.104217 
L 351.209874 109.437042 
L 352.226453 113.605913 
L 353.243032 105.419547 
L 354.25961 112.647278 
L 355.276189 110.615304 
L 356.292767 102.600088 
L 357.309346 102.446108 
L 358.325925 101.378936 
L 359.342503 89.256659 
L 360.359082 90.276073 
L 361.37566 95.179393 
L 362.392239 94.30253 
L 363.408818 91.221685 
L 364.425396 110.465984 
L 365.441975 95.912814 
L 366.458553 104.744507 
L 368.491711 90.60494 
L 370.524868 95.856113 
L 371.541447 95.919223 
L 372.558025 80.901576 
L 373.574604 90.995203 
L 374.591182 93.428614 
L 375.607761 87.599131 
L 376.62434 86.103347 
L 377.640918 80.71377 
L 378.657497 88.185049 
L 379.674075 92.516177 
L 380.690654 97.666575 
L 381.707233 97.244303 
L 382.723811 102.426608 
L 383.74039 78.12314 
L 384.756968 91.213237 
L 385.773547 87.343125 
L 386.790126 88.274411 
L 387.806704 88.688922 
L 388.823283 99.80743 
L 389.839862 86.047091 
L 390.85644 89.640359 
L 391.873019 92.543731 
L 392.889597 91.703109 
L 393.906176 81.112772 
L 394.922755 82.280375 
L 395.939333 74.571082 
L 396.955912 87.165892 
L 397.97249 85.784436 
L 398.989069 77.607495 
L 400.005648 84.181126 
L 401.022226 80.786973 
L 402.038805 78.506926 
L 403.055383 88.572657 
L 404.071962 71.874983 
L 405.088541 70.124546 
L 406.105119 81.193327 
L 407.121698 71.131297 
L 408.138277 69.725218 
L 409.154855 81.069385 
L 410.171434 86.968781 
L 411.188012 97.735546 
L 412.204591 76.212245 
L 413.22117 87.200506 
L 414.237748 82.82414 
L 415.254327 82.069025 
L 416.270905 74.17866 
L 417.287484 95.151068 
L 418.304063 88.324533 
L 419.320641 89.471094 
L 420.33722 84.281575 
L 421.353799 76.176826 
L 422.370377 85.622916 
L 423.386956 76.567501 
L 424.403534 107.468932 
L 425.420113 102.565886 
L 426.436692 101.844117 
L 427.45327 89.127216 
L 428.469849 85.247303 
L 429.486427 98.789712 
L 430.503006 94.574146 
L 431.519585 96.192879 
L 432.536163 88.268654 
L 433.552742 84.943061 
L 434.56932 99.530827 
L 435.585899 90.702081 
L 436.602478 95.609411 
L 437.619056 96.613078 
L 438.635635 99.735186 
L 439.652214 84.062205 
L 440.668792 83.550467 
L 441.685371 84.847649 
L 442.701949 73.978276 
L 443.718528 61.189903 
L 444.735107 80.644148 
L 445.751685 71.473701 
L 446.768264 87.428204 
L 447.784842 90.984579 
L 448.801421 74.554769 
L 449.818 90.652988 
L 450.834578 74.220745 
L 451.851157 107.047293 
L 452.867735 92.036328 
L 453.884314 95.28063 
L 454.900893 103.735665 
L 455.917471 107.293017 
L 457.950629 91.580641 
L 458.967207 106.178449 
L 459.983786 111.664106 
L 461.000364 95.951935 
L 462.016943 91.893486 
L 463.033522 82.307244 
L 464.0501 89.503737 
L 465.066679 99.547397 
L 466.083257 96.280664 
L 467.099836 87.43929 
L 468.116415 81.609157 
L 469.132993 78.500637 
L 470.149572 96.645105 
L 471.16615 95.994363 
L 472.182729 101.634788 
L 473.199308 89.628141 
L 474.215886 82.75205 
L 475.232465 81.930621 
L 476.249044 75.79986 
L 477.265622 89.341446 
L 478.282201 81.778953 
L 479.298779 83.096116 
L 480.315358 82.408841 
L 481.331937 94.606259 
L 482.348515 79.710668 
L 483.365094 90.883993 
L 484.381672 93.517873 
L 485.398251 89.396537 
L 486.41483 92.393812 
L 487.431408 97.928425 
L 488.447987 89.258338 
L 489.464565 96.588351 
L 490.481144 95.342713 
L 491.497723 90.343262 
L 493.53088 77.139487 
L 494.547459 90.721273 
L 495.564037 89.676104 
L 496.580616 83.98105 
L 497.597194 90.549832 
L 498.613773 86.580591 
L 499.630352 78.765262 
L 500.64693 90.277855 
L 501.663509 80.768141 
L 502.680087 96.750043 
L 503.696666 71.319909 
L 504.713245 77.085082 
L 505.729823 65.019026 
L 506.746402 86.913536 
L 507.762981 94.583434 
L 508.779559 79.122026 
L 509.796138 57.653901 
L 510.812716 81.150933 
L 511.829295 85.14999 
L 512.845874 82.916672 
L 513.862452 89.65609 
L 514.879031 86.775954 
L 515.895609 89.396537 
L 516.912188 88.817542 
L 517.928767 66.514622 
L 518.945345 79.009119 
L 519.961924 63.416418 
L 520.978502 84.555385 
L 521.995081 77.832863 
L 523.01166 84.53573 
L 524.028238 84.642639 
L 525.044817 88.478942 
L 526.061396 88.751004 
L 527.077974 82.942101 
L 528.094553 82.595277 
L 529.111131 82.684999 
L 530.12771 92.790946 
L 531.144289 80.386034 
L 532.160867 88.31091 
L 533.177446 90.195553 
L 534.194024 89.815862 
L 535.210603 92.41386 
L 536.227182 79.302172 
L 537.24376 81.009702 
L 538.260339 73.541386 
L 539.276917 72.338381 
L 541.310075 66.145555 
L 542.326653 68.919707 
L 543.343232 76.567775 
L 544.359811 61.585598 
L 545.376389 79.186576 
L 546.392968 55.8 
L 547.409546 70.81189 
L 548.426125 72.104583 
L 549.442704 59.637965 
L 550.459282 62.754247 
L 551.475861 56.125354 
L 552.492439 82.708491 
L 553.509018 83.061554 
L 554.525597 77.661318 
L 555.542175 78.675952 
L 556.558754 70.778338 
L 557.575332 82.963349 
L 558.591911 58.288827 
L 559.60849 65.263551 
L 561.641647 94.441962 
L 562.658226 94.722301 
L 563.674804 87.529732 
L 564.691383 84.594916 
L 565.707961 90.301005 
L 566.72454 83.614091 
L 567.741119 88.244338 
L 568.757697 89.522398 
L 569.774276 85.94474 
L 570.790854 90.302308 
L 571.807433 89.83077 
L 572.824012 94.418144 
L 573.84059 80.285516 
L 574.857169 80.046715 
L 575.873747 94.145482 
L 576.890326 94.003068 
L 577.906905 95.973406 
L 578.923483 76.456153 
L 579.940062 88.685083 
L 580.956641 84.957129 
L 581.973219 85.444397 
L 582.989798 84.006171 
L 584.006376 68.518923 
L 585.022955 68.714868 
L 586.039534 79.319856 
L 587.056112 87.472002 
L 588.072691 77.952006 
L 589.089269 78.898526 
L 590.105848 82.862541 
L 591.122427 92.490319 
L 592.139005 78.918678 
L 593.155584 80.0474 
L 594.172163 83.400907 
L 595.188741 73.709778 
L 596.20532 82.808649 
L 597.221898 72.685823 
L 598.238477 77.451355 
L 599.255056 70.701673 
L 600.271634 87.675522 
L 601.288213 93.253848 
L 602.304791 96.38161 
L 603.32137 83.289954 
L 604.337949 84.483912 
L 605.354527 69.063612 
L 606.371106 74.638048 
L 607.387684 79.414308 
L 608.404263 91.064945 
L 609.420842 86.061382 
L 610.43742 82.770402 
L 611.453999 78.995753 
L 612.470578 78.71975 
L 613.487156 71.181333 
L 614.503735 72.463677 
L 615.520313 77.073018 
L 616.536892 72.502626 
L 617.553471 86.214506 
L 618.570049 87.315862 
L 619.586628 72.894123 
L 621.619785 81.323951 
L 622.636364 77.322016 
L 622.636364 77.322016 
" clip-path="url(#pb3898a31c3)" style="fill: none; stroke: #ff7f0e; stroke-width: 1.5; stroke-linecap: square"/>
   </g>
   <g id="patch_3">
    <path d="M 90 320.4 
L 90 43.2 
" style="fill: none; stroke: #000000; stroke-width: 0.8; stroke-linejoin: miter; stroke-linecap: square"/>
   </g>
   <g id="patch_4">
    <path d="M 648 320.4 
L 648 43.2 
" style="fill: none; stroke: #000000; stroke-width: 0.8; stroke-linejoin: miter; stroke-linecap: square"/>
   </g>
   <g id="patch_5">
    <path d="M 90 320.4 
L 648 320.4 
" style="fill: none; stroke: #000000; stroke-width: 0.8; stroke-linejoin: miter; stroke-linecap: square"/>
   </g>
   <g id="patch_6">
    <path d="M 90 43.2 
L 648 43.2 
" style="fill: none; stroke: #000000; stroke-width: 0.8; stroke-linejoin: miter; stroke-linecap: square"/>
   </g>
   <g id="text_17">
    <!-- model train and validation loss over time -->
    <g transform="translate(245.555625 37.2) scale(0.12 -0.12)">
     <defs>
      <path id="DejaVuSans-6d" d="M 3328 2828 
Q 3544 3216 3844 3400 
Q 4144 3584 4550 3584 
Q 5097 3584 5394 3201 
Q 5691 2819 5691 2113 
L 5691 0 
L 5113 0 
L 5113 2094 
Q 5113 2597 4934 2840 
Q 4756 3084 4391 3084 
Q 3944 3084 3684 2787 
Q 3425 2491 3425 1978 
L 3425 0 
L 2847 0 
L 2847 2094 
Q 2847 2600 2669 2842 
Q 2491 3084 2119 3084 
Q 1678 3084 1418 2786 
Q 1159 2488 1159 1978 
L 1159 0 
L 581 0 
L 581 3500 
L 1159 3500 
L 1159 2956 
Q 1356 3278 1631 3431 
Q 1906 3584 2284 3584 
Q 2666 3584 2933 3390 
Q 3200 3197 3328 2828 
z
" transform="scale(0.015625)"/>
      <path id="DejaVuSans-64" d="M 2906 2969 
L 2906 4863 
L 3481 4863 
L 3481 0 
L 2906 0 
L 2906 525 
Q 2725 213 2448 61 
Q 2172 -91 1784 -91 
Q 1150 -91 751 415 
Q 353 922 353 1747 
Q 353 2572 751 3078 
Q 1150 3584 1784 3584 
Q 2172 3584 2448 3432 
Q 2725 3281 2906 2969 
z
M 947 1747 
Q 947 1113 1208 752 
Q 1469 391 1925 391 
Q 2381 391 2643 752 
Q 2906 1113 2906 1747 
Q 2906 2381 2643 2742 
Q 2381 3103 1925 3103 
Q 1469 3103 1208 2742 
Q 947 2381 947 1747 
z
" transform="scale(0.015625)"/>
      <path id="DejaVuSans-20" transform="scale(0.015625)"/>
      <path id="DejaVuSans-74" d="M 1172 4494 
L 1172 3500 
L 2356 3500 
L 2356 3053 
L 1172 3053 
L 1172 1153 
Q 1172 725 1289 603 
Q 1406 481 1766 481 
L 2356 481 
L 2356 0 
L 1766 0 
Q 1100 0 847 248 
Q 594 497 594 1153 
L 594 3053 
L 172 3053 
L 172 3500 
L 594 3500 
L 594 4494 
L 1172 4494 
z
" transform="scale(0.015625)"/>
      <path id="DejaVuSans-72" d="M 2631 2963 
Q 2534 3019 2420 3045 
Q 2306 3072 2169 3072 
Q 1681 3072 1420 2755 
Q 1159 2438 1159 1844 
L 1159 0 
L 581 0 
L 581 3500 
L 1159 3500 
L 1159 2956 
Q 1341 3275 1631 3429 
Q 1922 3584 2338 3584 
Q 2397 3584 2469 3576 
Q 2541 3569 2628 3553 
L 2631 2963 
z
" transform="scale(0.015625)"/>
      <path id="DejaVuSans-61" d="M 2194 1759 
Q 1497 1759 1228 1600 
Q 959 1441 959 1056 
Q 959 750 1161 570 
Q 1363 391 1709 391 
Q 2188 391 2477 730 
Q 2766 1069 2766 1631 
L 2766 1759 
L 2194 1759 
z
M 3341 1997 
L 3341 0 
L 2766 0 
L 2766 531 
Q 2569 213 2275 61 
Q 1981 -91 1556 -91 
Q 1019 -91 701 211 
Q 384 513 384 1019 
Q 384 1609 779 1909 
Q 1175 2209 1959 2209 
L 2766 2209 
L 2766 2266 
Q 2766 2663 2505 2880 
Q 2244 3097 1772 3097 
Q 1472 3097 1187 3025 
Q 903 2953 641 2809 
L 641 3341 
Q 956 3463 1253 3523 
Q 1550 3584 1831 3584 
Q 2591 3584 2966 3190 
Q 3341 2797 3341 1997 
z
" transform="scale(0.015625)"/>
      <path id="DejaVuSans-69" d="M 603 3500 
L 1178 3500 
L 1178 0 
L 603 0 
L 603 3500 
z
M 603 4863 
L 1178 4863 
L 1178 4134 
L 603 4134 
L 603 4863 
z
" transform="scale(0.015625)"/>
      <path id="DejaVuSans-6e" d="M 3513 2113 
L 3513 0 
L 2938 0 
L 2938 2094 
Q 2938 2591 2744 2837 
Q 2550 3084 2163 3084 
Q 1697 3084 1428 2787 
Q 1159 2491 1159 1978 
L 1159 0 
L 581 0 
L 581 3500 
L 1159 3500 
L 1159 2956 
Q 1366 3272 1645 3428 
Q 1925 3584 2291 3584 
Q 2894 3584 3203 3211 
Q 3513 2838 3513 2113 
z
" transform="scale(0.015625)"/>
      <path id="DejaVuSans-76" d="M 191 3500 
L 800 3500 
L 1894 563 
L 2988 3500 
L 3597 3500 
L 2284 0 
L 1503 0 
L 191 3500 
z
" transform="scale(0.015625)"/>
     </defs>
     <use xlink:href="#DejaVuSans-6d"/>
     <use xlink:href="#DejaVuSans-6f" x="97.412109"/>
     <use xlink:href="#DejaVuSans-64" x="158.59375"/>
     <use xlink:href="#DejaVuSans-65" x="222.070312"/>
     <use xlink:href="#DejaVuSans-6c" x="283.59375"/>
     <use xlink:href="#DejaVuSans-20" x="311.376953"/>
     <use xlink:href="#DejaVuSans-74" x="343.164062"/>
     <use xlink:href="#DejaVuSans-72" x="382.373047"/>
     <use xlink:href="#DejaVuSans-61" x="423.486328"/>
     <use xlink:href="#DejaVuSans-69" x="484.765625"/>
     <use xlink:href="#DejaVuSans-6e" x="512.548828"/>
     <use xlink:href="#DejaVuSans-20" x="575.927734"/>
     <use xlink:href="#DejaVuSans-61" x="607.714844"/>
     <use xlink:href="#DejaVuSans-6e" x="668.994141"/>
     <use xlink:href="#DejaVuSans-64" x="732.373047"/>
     <use xlink:href="#DejaVuSans-20" x="795.849609"/>
     <use xlink:href="#DejaVuSans-76" x="827.636719"/>
     <use xlink:href="#DejaVuSans-61" x="886.816406"/>
     <use xlink:href="#DejaVuSans-6c" x="948.095703"/>
     <use xlink:href="#DejaVuSans-69" x="975.878906"/>
     <use xlink:href="#DejaVuSans-64" x="1003.662109"/>
     <use xlink:href="#DejaVuSans-61" x="1067.138672"/>
     <use xlink:href="#DejaVuSans-74" x="1128.417969"/>
     <use xlink:href="#DejaVuSans-69" x="1167.626953"/>
     <use xlink:href="#DejaVuSans-6f" x="1195.410156"/>
     <use xlink:href="#DejaVuSans-6e" x="1256.591797"/>
     <use xlink:href="#DejaVuSans-20" x="1319.970703"/>
     <use xlink:href="#DejaVuSans-6c" x="1351.757812"/>
     <use xlink:href="#DejaVuSans-6f" x="1379.541016"/>
     <use xlink:href="#DejaVuSans-73" x="1440.722656"/>
     <use xlink:href="#DejaVuSans-73" x="1492.822266"/>
     <use xlink:href="#DejaVuSans-20" x="1544.921875"/>
     <use xlink:href="#DejaVuSans-6f" x="1576.708984"/>
     <use xlink:href="#DejaVuSans-76" x="1637.890625"/>
     <use xlink:href="#DejaVuSans-65" x="1697.070312"/>
     <use xlink:href="#DejaVuSans-72" x="1758.59375"/>
     <use xlink:href="#DejaVuSans-20" x="1799.707031"/>
     <use xlink:href="#DejaVuSans-74" x="1831.494141"/>
     <use xlink:href="#DejaVuSans-69" x="1870.703125"/>
     <use xlink:href="#DejaVuSans-6d" x="1898.486328"/>
     <use xlink:href="#DejaVuSans-65" x="1995.898438"/>
    </g>
   </g>
   <g id="legend_1">
    <g id="patch_7">
     <path d="M 97 80.55625 
L 178.234375 80.55625 
Q 180.234375 80.55625 180.234375 78.55625 
L 180.234375 50.2 
Q 180.234375 48.2 178.234375 48.2 
L 97 48.2 
Q 95 48.2 95 50.2 
L 95 78.55625 
Q 95 80.55625 97 80.55625 
z
" style="fill: #ffffff; opacity: 0.8; stroke: #cccccc; stroke-linejoin: miter"/>
    </g>
    <g id="line2d_31">
     <path d="M 99 56.298437 
L 109 56.298437 
L 119 56.298437 
" style="fill: none; stroke: #1f77b4; stroke-width: 1.5; stroke-linecap: square"/>
    </g>
    <g id="text_18">
     <!-- train -->
     <g transform="translate(127 59.798437) scale(0.1 -0.1)">
      <use xlink:href="#DejaVuSans-74"/>
      <use xlink:href="#DejaVuSans-72" x="39.208984"/>
      <use xlink:href="#DejaVuSans-61" x="80.322266"/>
      <use xlink:href="#DejaVuSans-69" x="141.601562"/>
      <use xlink:href="#DejaVuSans-6e" x="169.384766"/>
     </g>
    </g>
    <g id="line2d_32">
     <path d="M 99 70.976562 
L 109 70.976562 
L 119 70.976562 
" style="fill: none; stroke: #ff7f0e; stroke-width: 1.5; stroke-linecap: square"/>
    </g>
    <g id="text_19">
     <!-- validation -->
     <g transform="translate(127 74.476562) scale(0.1 -0.1)">
      <use xlink:href="#DejaVuSans-76"/>
      <use xlink:href="#DejaVuSans-61" x="59.179688"/>
      <use xlink:href="#DejaVuSans-6c" x="120.458984"/>
      <use xlink:href="#DejaVuSans-69" x="148.242188"/>
      <use xlink:href="#DejaVuSans-64" x="176.025391"/>
      <use xlink:href="#DejaVuSans-61" x="239.501953"/>
      <use xlink:href="#DejaVuSans-74" x="300.78125"/>
      <use xlink:href="#DejaVuSans-69" x="339.990234"/>
      <use xlink:href="#DejaVuSans-6f" x="367.773438"/>
      <use xlink:href="#DejaVuSans-6e" x="428.955078"/>
     </g>
    </g>
   </g>
  </g>
 </g>
 <defs>
  <clipPath id="pb3898a31c3">
   <rect x="90" y="43.2" width="558" height="277.2"/>
  </clipPath>
 </defs>
</svg>
