<?xml version="1.0" encoding="utf-8" standalone="no"?>
<!DOCTYPE svg PUBLIC "-//W3C//DTD SVG 1.1//EN"
  "http://www.w3.org/Graphics/SVG/1.1/DTD/svg11.dtd">
<svg xmlns:xlink="http://www.w3.org/1999/xlink" width="720pt" height="360pt" viewBox="0 0 720 360" xmlns="http://www.w3.org/2000/svg" version="1.1">
 <metadata>
  <rdf:RDF xmlns:dc="http://purl.org/dc/elements/1.1/" xmlns:cc="http://creativecommons.org/ns#" xmlns:rdf="http://www.w3.org/1999/02/22-rdf-syntax-ns#">
   <cc:Work>
    <dc:type rdf:resource="http://purl.org/dc/dcmitype/StillImage"/>
    <dc:date>2023-05-24T12:07:15.261174</dc:date>
    <dc:format>image/svg+xml</dc:format>
    <dc:creator>
     <cc:Agent>
      <dc:title>Matplotlib v3.7.1, https://matplotlib.org/</dc:title>
     </cc:Agent>
    </dc:creator>
   </cc:Work>
  </rdf:RDF>
 </metadata>
 <defs>
  <style type="text/css">*{stroke-linejoin: round; stroke-linecap: butt}</style>
 </defs>
 <g id="figure_1">
  <g id="patch_1">
   <path d="M 0 360 
L 720 360 
L 720 0 
L 0 0 
z
" style="fill: #ffffff"/>
  </g>
  <g id="axes_1">
   <g id="patch_2">
    <path d="M 90 320.4 
L 648 320.4 
L 648 43.2 
L 90 43.2 
z
" style="fill: #ffffff"/>
   </g>
   <g id="matplotlib.axis_1">
    <g id="xtick_1">
     <g id="line2d_1">
      <path d="M 115.363636 320.4 
L 115.363636 43.2 
" clip-path="url(#pad2f56b13b)" style="fill: none; stroke: #b0b0b0; stroke-width: 0.8; stroke-linecap: square"/>
     </g>
     <g id="line2d_2">
      <defs>
       <path id="me39e394305" d="M 0 0 
L 0 3.5 
" style="stroke: #000000; stroke-width: 0.8"/>
      </defs>
      <g>
       <use xlink:href="#me39e394305" x="115.363636" y="320.4" style="stroke: #000000; stroke-width: 0.8"/>
      </g>
     </g>
     <g id="text_1">
      <!-- 0 -->
      <g transform="translate(112.182386 334.998438) scale(0.1 -0.1)">
       <defs>
        <path id="DejaVuSans-30" d="M 2034 4250 
Q 1547 4250 1301 3770 
Q 1056 3291 1056 2328 
Q 1056 1369 1301 889 
Q 1547 409 2034 409 
Q 2525 409 2770 889 
Q 3016 1369 3016 2328 
Q 3016 3291 2770 3770 
Q 2525 4250 2034 4250 
z
M 2034 4750 
Q 2819 4750 3233 4129 
Q 3647 3509 3647 2328 
Q 3647 1150 3233 529 
Q 2819 -91 2034 -91 
Q 1250 -91 836 529 
Q 422 1150 422 2328 
Q 422 3509 836 4129 
Q 1250 4750 2034 4750 
z
" transform="scale(0.015625)"/>
       </defs>
       <use xlink:href="#DejaVuSans-30"/>
      </g>
     </g>
    </g>
    <g id="xtick_2">
     <g id="line2d_3">
      <path d="M 217.021498 320.4 
L 217.021498 43.2 
" clip-path="url(#pad2f56b13b)" style="fill: none; stroke: #b0b0b0; stroke-width: 0.8; stroke-linecap: square"/>
     </g>
     <g id="line2d_4">
      <g>
       <use xlink:href="#me39e394305" x="217.021498" y="320.4" style="stroke: #000000; stroke-width: 0.8"/>
      </g>
     </g>
     <g id="text_2">
      <!-- 100 -->
      <g transform="translate(207.477748 334.998438) scale(0.1 -0.1)">
       <defs>
        <path id="DejaVuSans-31" d="M 794 531 
L 1825 531 
L 1825 4091 
L 703 3866 
L 703 4441 
L 1819 4666 
L 2450 4666 
L 2450 531 
L 3481 531 
L 3481 0 
L 794 0 
L 794 531 
z
" transform="scale(0.015625)"/>
       </defs>
       <use xlink:href="#DejaVuSans-31"/>
       <use xlink:href="#DejaVuSans-30" x="63.623047"/>
       <use xlink:href="#DejaVuSans-30" x="127.246094"/>
      </g>
     </g>
    </g>
    <g id="xtick_3">
     <g id="line2d_5">
      <path d="M 318.679359 320.4 
L 318.679359 43.2 
" clip-path="url(#pad2f56b13b)" style="fill: none; stroke: #b0b0b0; stroke-width: 0.8; stroke-linecap: square"/>
     </g>
     <g id="line2d_6">
      <g>
       <use xlink:href="#me39e394305" x="318.679359" y="320.4" style="stroke: #000000; stroke-width: 0.8"/>
      </g>
     </g>
     <g id="text_3">
      <!-- 200 -->
      <g transform="translate(309.135609 334.998438) scale(0.1 -0.1)">
       <defs>
        <path id="DejaVuSans-32" d="M 1228 531 
L 3431 531 
L 3431 0 
L 469 0 
L 469 531 
Q 828 903 1448 1529 
Q 2069 2156 2228 2338 
Q 2531 2678 2651 2914 
Q 2772 3150 2772 3378 
Q 2772 3750 2511 3984 
Q 2250 4219 1831 4219 
Q 1534 4219 1204 4116 
Q 875 4013 500 3803 
L 500 4441 
Q 881 4594 1212 4672 
Q 1544 4750 1819 4750 
Q 2544 4750 2975 4387 
Q 3406 4025 3406 3419 
Q 3406 3131 3298 2873 
Q 3191 2616 2906 2266 
Q 2828 2175 2409 1742 
Q 1991 1309 1228 531 
z
" transform="scale(0.015625)"/>
       </defs>
       <use xlink:href="#DejaVuSans-32"/>
       <use xlink:href="#DejaVuSans-30" x="63.623047"/>
       <use xlink:href="#DejaVuSans-30" x="127.246094"/>
      </g>
     </g>
    </g>
    <g id="xtick_4">
     <g id="line2d_7">
      <path d="M 420.33722 320.4 
L 420.33722 43.2 
" clip-path="url(#pad2f56b13b)" style="fill: none; stroke: #b0b0b0; stroke-width: 0.8; stroke-linecap: square"/>
     </g>
     <g id="line2d_8">
      <g>
       <use xlink:href="#me39e394305" x="420.33722" y="320.4" style="stroke: #000000; stroke-width: 0.8"/>
      </g>
     </g>
     <g id="text_4">
      <!-- 300 -->
      <g transform="translate(410.79347 334.998438) scale(0.1 -0.1)">
       <defs>
        <path id="DejaVuSans-33" d="M 2597 2516 
Q 3050 2419 3304 2112 
Q 3559 1806 3559 1356 
Q 3559 666 3084 287 
Q 2609 -91 1734 -91 
Q 1441 -91 1130 -33 
Q 819 25 488 141 
L 488 750 
Q 750 597 1062 519 
Q 1375 441 1716 441 
Q 2309 441 2620 675 
Q 2931 909 2931 1356 
Q 2931 1769 2642 2001 
Q 2353 2234 1838 2234 
L 1294 2234 
L 1294 2753 
L 1863 2753 
Q 2328 2753 2575 2939 
Q 2822 3125 2822 3475 
Q 2822 3834 2567 4026 
Q 2313 4219 1838 4219 
Q 1578 4219 1281 4162 
Q 984 4106 628 3988 
L 628 4550 
Q 988 4650 1302 4700 
Q 1616 4750 1894 4750 
Q 2613 4750 3031 4423 
Q 3450 4097 3450 3541 
Q 3450 3153 3228 2886 
Q 3006 2619 2597 2516 
z
" transform="scale(0.015625)"/>
       </defs>
       <use xlink:href="#DejaVuSans-33"/>
       <use xlink:href="#DejaVuSans-30" x="63.623047"/>
       <use xlink:href="#DejaVuSans-30" x="127.246094"/>
      </g>
     </g>
    </g>
    <g id="xtick_5">
     <g id="line2d_9">
      <path d="M 521.995081 320.4 
L 521.995081 43.2 
" clip-path="url(#pad2f56b13b)" style="fill: none; stroke: #b0b0b0; stroke-width: 0.8; stroke-linecap: square"/>
     </g>
     <g id="line2d_10">
      <g>
       <use xlink:href="#me39e394305" x="521.995081" y="320.4" style="stroke: #000000; stroke-width: 0.8"/>
      </g>
     </g>
     <g id="text_5">
      <!-- 400 -->
      <g transform="translate(512.451331 334.998438) scale(0.1 -0.1)">
       <defs>
        <path id="DejaVuSans-34" d="M 2419 4116 
L 825 1625 
L 2419 1625 
L 2419 4116 
z
M 2253 4666 
L 3047 4666 
L 3047 1625 
L 3713 1625 
L 3713 1100 
L 3047 1100 
L 3047 0 
L 2419 0 
L 2419 1100 
L 313 1100 
L 313 1709 
L 2253 4666 
z
" transform="scale(0.015625)"/>
       </defs>
       <use xlink:href="#DejaVuSans-34"/>
       <use xlink:href="#DejaVuSans-30" x="63.623047"/>
       <use xlink:href="#DejaVuSans-30" x="127.246094"/>
      </g>
     </g>
    </g>
    <g id="xtick_6">
     <g id="line2d_11">
      <path d="M 623.652942 320.4 
L 623.652942 43.2 
" clip-path="url(#pad2f56b13b)" style="fill: none; stroke: #b0b0b0; stroke-width: 0.8; stroke-linecap: square"/>
     </g>
     <g id="line2d_12">
      <g>
       <use xlink:href="#me39e394305" x="623.652942" y="320.4" style="stroke: #000000; stroke-width: 0.8"/>
      </g>
     </g>
     <g id="text_6">
      <!-- 500 -->
      <g transform="translate(614.109192 334.998438) scale(0.1 -0.1)">
       <defs>
        <path id="DejaVuSans-35" d="M 691 4666 
L 3169 4666 
L 3169 4134 
L 1269 4134 
L 1269 2991 
Q 1406 3038 1543 3061 
Q 1681 3084 1819 3084 
Q 2600 3084 3056 2656 
Q 3513 2228 3513 1497 
Q 3513 744 3044 326 
Q 2575 -91 1722 -91 
Q 1428 -91 1123 -41 
Q 819 9 494 109 
L 494 744 
Q 775 591 1075 516 
Q 1375 441 1709 441 
Q 2250 441 2565 725 
Q 2881 1009 2881 1497 
Q 2881 1984 2565 2268 
Q 2250 2553 1709 2553 
Q 1456 2553 1204 2497 
Q 953 2441 691 2322 
L 691 4666 
z
" transform="scale(0.015625)"/>
       </defs>
       <use xlink:href="#DejaVuSans-35"/>
       <use xlink:href="#DejaVuSans-30" x="63.623047"/>
       <use xlink:href="#DejaVuSans-30" x="127.246094"/>
      </g>
     </g>
    </g>
    <g id="text_7">
     <!-- epoch -->
     <g transform="translate(353.771875 348.676562) scale(0.1 -0.1)">
      <defs>
       <path id="DejaVuSans-65" d="M 3597 1894 
L 3597 1613 
L 953 1613 
Q 991 1019 1311 708 
Q 1631 397 2203 397 
Q 2534 397 2845 478 
Q 3156 559 3463 722 
L 3463 178 
Q 3153 47 2828 -22 
Q 2503 -91 2169 -91 
Q 1331 -91 842 396 
Q 353 884 353 1716 
Q 353 2575 817 3079 
Q 1281 3584 2069 3584 
Q 2775 3584 3186 3129 
Q 3597 2675 3597 1894 
z
M 3022 2063 
Q 3016 2534 2758 2815 
Q 2500 3097 2075 3097 
Q 1594 3097 1305 2825 
Q 1016 2553 972 2059 
L 3022 2063 
z
" transform="scale(0.015625)"/>
       <path id="DejaVuSans-70" d="M 1159 525 
L 1159 -1331 
L 581 -1331 
L 581 3500 
L 1159 3500 
L 1159 2969 
Q 1341 3281 1617 3432 
Q 1894 3584 2278 3584 
Q 2916 3584 3314 3078 
Q 3713 2572 3713 1747 
Q 3713 922 3314 415 
Q 2916 -91 2278 -91 
Q 1894 -91 1617 61 
Q 1341 213 1159 525 
z
M 3116 1747 
Q 3116 2381 2855 2742 
Q 2594 3103 2138 3103 
Q 1681 3103 1420 2742 
Q 1159 2381 1159 1747 
Q 1159 1113 1420 752 
Q 1681 391 2138 391 
Q 2594 391 2855 752 
Q 3116 1113 3116 1747 
z
" transform="scale(0.015625)"/>
       <path id="DejaVuSans-6f" d="M 1959 3097 
Q 1497 3097 1228 2736 
Q 959 2375 959 1747 
Q 959 1119 1226 758 
Q 1494 397 1959 397 
Q 2419 397 2687 759 
Q 2956 1122 2956 1747 
Q 2956 2369 2687 2733 
Q 2419 3097 1959 3097 
z
M 1959 3584 
Q 2709 3584 3137 3096 
Q 3566 2609 3566 1747 
Q 3566 888 3137 398 
Q 2709 -91 1959 -91 
Q 1206 -91 779 398 
Q 353 888 353 1747 
Q 353 2609 779 3096 
Q 1206 3584 1959 3584 
z
" transform="scale(0.015625)"/>
       <path id="DejaVuSans-63" d="M 3122 3366 
L 3122 2828 
Q 2878 2963 2633 3030 
Q 2388 3097 2138 3097 
Q 1578 3097 1268 2742 
Q 959 2388 959 1747 
Q 959 1106 1268 751 
Q 1578 397 2138 397 
Q 2388 397 2633 464 
Q 2878 531 3122 666 
L 3122 134 
Q 2881 22 2623 -34 
Q 2366 -91 2075 -91 
Q 1284 -91 818 406 
Q 353 903 353 1747 
Q 353 2603 823 3093 
Q 1294 3584 2113 3584 
Q 2378 3584 2631 3529 
Q 2884 3475 3122 3366 
z
" transform="scale(0.015625)"/>
       <path id="DejaVuSans-68" d="M 3513 2113 
L 3513 0 
L 2938 0 
L 2938 2094 
Q 2938 2591 2744 2837 
Q 2550 3084 2163 3084 
Q 1697 3084 1428 2787 
Q 1159 2491 1159 1978 
L 1159 0 
L 581 0 
L 581 4863 
L 1159 4863 
L 1159 2956 
Q 1366 3272 1645 3428 
Q 1925 3584 2291 3584 
Q 2894 3584 3203 3211 
Q 3513 2838 3513 2113 
z
" transform="scale(0.015625)"/>
      </defs>
      <use xlink:href="#DejaVuSans-65"/>
      <use xlink:href="#DejaVuSans-70" x="61.523438"/>
      <use xlink:href="#DejaVuSans-6f" x="125"/>
      <use xlink:href="#DejaVuSans-63" x="186.181641"/>
      <use xlink:href="#DejaVuSans-68" x="241.162109"/>
     </g>
    </g>
   </g>
   <g id="matplotlib.axis_2">
    <g id="ytick_1">
     <g id="line2d_13">
      <path d="M 90 303.77009 
L 648 303.77009 
" clip-path="url(#pad2f56b13b)" style="fill: none; stroke: #b0b0b0; stroke-width: 0.8; stroke-linecap: square"/>
     </g>
     <g id="line2d_14">
      <defs>
       <path id="mf1db66a2b4" d="M 0 0 
L -3.5 0 
" style="stroke: #000000; stroke-width: 0.8"/>
      </defs>
      <g>
       <use xlink:href="#mf1db66a2b4" x="90" y="303.77009" style="stroke: #000000; stroke-width: 0.8"/>
      </g>
     </g>
     <g id="text_8">
      <!-- 1.4 -->
      <g transform="translate(67.096875 307.569309) scale(0.1 -0.1)">
       <defs>
        <path id="DejaVuSans-2e" d="M 684 794 
L 1344 794 
L 1344 0 
L 684 0 
L 684 794 
z
" transform="scale(0.015625)"/>
       </defs>
       <use xlink:href="#DejaVuSans-31"/>
       <use xlink:href="#DejaVuSans-2e" x="63.623047"/>
       <use xlink:href="#DejaVuSans-34" x="95.410156"/>
      </g>
     </g>
    </g>
    <g id="ytick_2">
     <g id="line2d_15">
      <path d="M 90 271.338275 
L 648 271.338275 
" clip-path="url(#pad2f56b13b)" style="fill: none; stroke: #b0b0b0; stroke-width: 0.8; stroke-linecap: square"/>
     </g>
     <g id="line2d_16">
      <g>
       <use xlink:href="#mf1db66a2b4" x="90" y="271.338275" style="stroke: #000000; stroke-width: 0.8"/>
      </g>
     </g>
     <g id="text_9">
      <!-- 1.6 -->
      <g transform="translate(67.096875 275.137494) scale(0.1 -0.1)">
       <defs>
        <path id="DejaVuSans-36" d="M 2113 2584 
Q 1688 2584 1439 2293 
Q 1191 2003 1191 1497 
Q 1191 994 1439 701 
Q 1688 409 2113 409 
Q 2538 409 2786 701 
Q 3034 994 3034 1497 
Q 3034 2003 2786 2293 
Q 2538 2584 2113 2584 
z
M 3366 4563 
L 3366 3988 
Q 3128 4100 2886 4159 
Q 2644 4219 2406 4219 
Q 1781 4219 1451 3797 
Q 1122 3375 1075 2522 
Q 1259 2794 1537 2939 
Q 1816 3084 2150 3084 
Q 2853 3084 3261 2657 
Q 3669 2231 3669 1497 
Q 3669 778 3244 343 
Q 2819 -91 2113 -91 
Q 1303 -91 875 529 
Q 447 1150 447 2328 
Q 447 3434 972 4092 
Q 1497 4750 2381 4750 
Q 2619 4750 2861 4703 
Q 3103 4656 3366 4563 
z
" transform="scale(0.015625)"/>
       </defs>
       <use xlink:href="#DejaVuSans-31"/>
       <use xlink:href="#DejaVuSans-2e" x="63.623047"/>
       <use xlink:href="#DejaVuSans-36" x="95.410156"/>
      </g>
     </g>
    </g>
    <g id="ytick_3">
     <g id="line2d_17">
      <path d="M 90 238.90646 
L 648 238.90646 
" clip-path="url(#pad2f56b13b)" style="fill: none; stroke: #b0b0b0; stroke-width: 0.8; stroke-linecap: square"/>
     </g>
     <g id="line2d_18">
      <g>
       <use xlink:href="#mf1db66a2b4" x="90" y="238.90646" style="stroke: #000000; stroke-width: 0.8"/>
      </g>
     </g>
     <g id="text_10">
      <!-- 1.8 -->
      <g transform="translate(67.096875 242.705679) scale(0.1 -0.1)">
       <defs>
        <path id="DejaVuSans-38" d="M 2034 2216 
Q 1584 2216 1326 1975 
Q 1069 1734 1069 1313 
Q 1069 891 1326 650 
Q 1584 409 2034 409 
Q 2484 409 2743 651 
Q 3003 894 3003 1313 
Q 3003 1734 2745 1975 
Q 2488 2216 2034 2216 
z
M 1403 2484 
Q 997 2584 770 2862 
Q 544 3141 544 3541 
Q 544 4100 942 4425 
Q 1341 4750 2034 4750 
Q 2731 4750 3128 4425 
Q 3525 4100 3525 3541 
Q 3525 3141 3298 2862 
Q 3072 2584 2669 2484 
Q 3125 2378 3379 2068 
Q 3634 1759 3634 1313 
Q 3634 634 3220 271 
Q 2806 -91 2034 -91 
Q 1263 -91 848 271 
Q 434 634 434 1313 
Q 434 1759 690 2068 
Q 947 2378 1403 2484 
z
M 1172 3481 
Q 1172 3119 1398 2916 
Q 1625 2713 2034 2713 
Q 2441 2713 2670 2916 
Q 2900 3119 2900 3481 
Q 2900 3844 2670 4047 
Q 2441 4250 2034 4250 
Q 1625 4250 1398 4047 
Q 1172 3844 1172 3481 
z
" transform="scale(0.015625)"/>
       </defs>
       <use xlink:href="#DejaVuSans-31"/>
       <use xlink:href="#DejaVuSans-2e" x="63.623047"/>
       <use xlink:href="#DejaVuSans-38" x="95.410156"/>
      </g>
     </g>
    </g>
    <g id="ytick_4">
     <g id="line2d_19">
      <path d="M 90 206.474645 
L 648 206.474645 
" clip-path="url(#pad2f56b13b)" style="fill: none; stroke: #b0b0b0; stroke-width: 0.8; stroke-linecap: square"/>
     </g>
     <g id="line2d_20">
      <g>
       <use xlink:href="#mf1db66a2b4" x="90" y="206.474645" style="stroke: #000000; stroke-width: 0.8"/>
      </g>
     </g>
     <g id="text_11">
      <!-- 2.0 -->
      <g transform="translate(67.096875 210.273864) scale(0.1 -0.1)">
       <use xlink:href="#DejaVuSans-32"/>
       <use xlink:href="#DejaVuSans-2e" x="63.623047"/>
       <use xlink:href="#DejaVuSans-30" x="95.410156"/>
      </g>
     </g>
    </g>
    <g id="ytick_5">
     <g id="line2d_21">
      <path d="M 90 174.04283 
L 648 174.04283 
" clip-path="url(#pad2f56b13b)" style="fill: none; stroke: #b0b0b0; stroke-width: 0.8; stroke-linecap: square"/>
     </g>
     <g id="line2d_22">
      <g>
       <use xlink:href="#mf1db66a2b4" x="90" y="174.04283" style="stroke: #000000; stroke-width: 0.8"/>
      </g>
     </g>
     <g id="text_12">
      <!-- 2.2 -->
      <g transform="translate(67.096875 177.842049) scale(0.1 -0.1)">
       <use xlink:href="#DejaVuSans-32"/>
       <use xlink:href="#DejaVuSans-2e" x="63.623047"/>
       <use xlink:href="#DejaVuSans-32" x="95.410156"/>
      </g>
     </g>
    </g>
    <g id="ytick_6">
     <g id="line2d_23">
      <path d="M 90 141.611015 
L 648 141.611015 
" clip-path="url(#pad2f56b13b)" style="fill: none; stroke: #b0b0b0; stroke-width: 0.8; stroke-linecap: square"/>
     </g>
     <g id="line2d_24">
      <g>
       <use xlink:href="#mf1db66a2b4" x="90" y="141.611015" style="stroke: #000000; stroke-width: 0.8"/>
      </g>
     </g>
     <g id="text_13">
      <!-- 2.4 -->
      <g transform="translate(67.096875 145.410234) scale(0.1 -0.1)">
       <use xlink:href="#DejaVuSans-32"/>
       <use xlink:href="#DejaVuSans-2e" x="63.623047"/>
       <use xlink:href="#DejaVuSans-34" x="95.410156"/>
      </g>
     </g>
    </g>
    <g id="ytick_7">
     <g id="line2d_25">
      <path d="M 90 109.1792 
L 648 109.1792 
" clip-path="url(#pad2f56b13b)" style="fill: none; stroke: #b0b0b0; stroke-width: 0.8; stroke-linecap: square"/>
     </g>
     <g id="line2d_26">
      <g>
       <use xlink:href="#mf1db66a2b4" x="90" y="109.1792" style="stroke: #000000; stroke-width: 0.8"/>
      </g>
     </g>
     <g id="text_14">
      <!-- 2.6 -->
      <g transform="translate(67.096875 112.978419) scale(0.1 -0.1)">
       <use xlink:href="#DejaVuSans-32"/>
       <use xlink:href="#DejaVuSans-2e" x="63.623047"/>
       <use xlink:href="#DejaVuSans-36" x="95.410156"/>
      </g>
     </g>
    </g>
    <g id="ytick_8">
     <g id="line2d_27">
      <path d="M 90 76.747385 
L 648 76.747385 
" clip-path="url(#pad2f56b13b)" style="fill: none; stroke: #b0b0b0; stroke-width: 0.8; stroke-linecap: square"/>
     </g>
     <g id="line2d_28">
      <g>
       <use xlink:href="#mf1db66a2b4" x="90" y="76.747385" style="stroke: #000000; stroke-width: 0.8"/>
      </g>
     </g>
     <g id="text_15">
      <!-- 2.8 -->
      <g transform="translate(67.096875 80.546604) scale(0.1 -0.1)">
       <use xlink:href="#DejaVuSans-32"/>
       <use xlink:href="#DejaVuSans-2e" x="63.623047"/>
       <use xlink:href="#DejaVuSans-38" x="95.410156"/>
      </g>
     </g>
    </g>
    <g id="ytick_9">
     <g id="line2d_29">
      <path d="M 90 44.31557 
L 648 44.31557 
" clip-path="url(#pad2f56b13b)" style="fill: none; stroke: #b0b0b0; stroke-width: 0.8; stroke-linecap: square"/>
     </g>
     <g id="line2d_30">
      <g>
       <use xlink:href="#mf1db66a2b4" x="90" y="44.31557" style="stroke: #000000; stroke-width: 0.8"/>
      </g>
     </g>
     <g id="text_16">
      <!-- 3.0 -->
      <g transform="translate(67.096875 48.114789) scale(0.1 -0.1)">
       <use xlink:href="#DejaVuSans-33"/>
       <use xlink:href="#DejaVuSans-2e" x="63.623047"/>
       <use xlink:href="#DejaVuSans-30" x="95.410156"/>
      </g>
     </g>
    </g>
    <g id="text_17">
     <!-- loss -->
     <g transform="translate(61.017187 191.457812) rotate(-90) scale(0.1 -0.1)">
      <defs>
       <path id="DejaVuSans-6c" d="M 603 4863 
L 1178 4863 
L 1178 0 
L 603 0 
L 603 4863 
z
" transform="scale(0.015625)"/>
       <path id="DejaVuSans-73" d="M 2834 3397 
L 2834 2853 
Q 2591 2978 2328 3040 
Q 2066 3103 1784 3103 
Q 1356 3103 1142 2972 
Q 928 2841 928 2578 
Q 928 2378 1081 2264 
Q 1234 2150 1697 2047 
L 1894 2003 
Q 2506 1872 2764 1633 
Q 3022 1394 3022 966 
Q 3022 478 2636 193 
Q 2250 -91 1575 -91 
Q 1294 -91 989 -36 
Q 684 19 347 128 
L 347 722 
Q 666 556 975 473 
Q 1284 391 1588 391 
Q 1994 391 2212 530 
Q 2431 669 2431 922 
Q 2431 1156 2273 1281 
Q 2116 1406 1581 1522 
L 1381 1569 
Q 847 1681 609 1914 
Q 372 2147 372 2553 
Q 372 3047 722 3315 
Q 1072 3584 1716 3584 
Q 2034 3584 2315 3537 
Q 2597 3491 2834 3397 
z
" transform="scale(0.015625)"/>
      </defs>
      <use xlink:href="#DejaVuSans-6c"/>
      <use xlink:href="#DejaVuSans-6f" x="27.783203"/>
      <use xlink:href="#DejaVuSans-73" x="88.964844"/>
      <use xlink:href="#DejaVuSans-73" x="141.064453"/>
     </g>
    </g>
   </g>
   <g id="line2d_31">
    <path d="M 115.363636 55.8 
L 116.380215 296.336969 
L 117.396794 303.602341 
L 118.413372 304.165352 
L 119.429951 304.988905 
L 120.446529 303.771486 
L 121.463108 304.574142 
L 122.479687 307.02375 
L 123.496265 299.634371 
L 124.512844 303.917917 
L 125.529422 304.017664 
L 126.546001 303.954143 
L 127.56258 304.93936 
L 128.579158 303.835645 
L 129.595737 304.902032 
L 130.612316 303.83549 
L 131.628894 304.437821 
L 132.645473 303.382065 
L 133.662051 304.908875 
L 134.67863 304.469601 
L 135.695209 304.975258 
L 136.711787 304.423033 
L 138.744944 304.304399 
L 139.761523 303.786989 
L 140.778102 304.586147 
L 141.79468 304.067151 
L 142.811259 304.835089 
L 143.827837 305.024648 
L 144.844416 304.444065 
L 145.860995 307.300258 
L 146.877573 304.015248 
L 147.894152 305.606623 
L 148.910731 304.439599 
L 149.927309 304.565482 
L 150.943888 304.961011 
L 151.960466 304.402871 
L 152.977045 304.818678 
L 153.993624 304.034734 
L 155.010202 302.916791 
L 156.026781 305.00551 
L 157.043359 304.58402 
L 158.059938 304.823878 
L 159.076517 304.634416 
L 160.093095 305.516039 
L 161.109674 304.557305 
L 162.126253 304.71143 
L 163.142831 305.33516 
L 164.15941 305.311847 
L 165.175988 304.392992 
L 167.209146 305.273417 
L 169.242303 304.147065 
L 170.258881 305.284783 
L 172.292039 304.883339 
L 173.308617 304.796892 
L 174.325196 305.022058 
L 176.358353 303.339441 
L 177.374932 304.971894 
L 178.39151 304.638958 
L 179.408089 304.132644 
L 180.424668 304.331037 
L 181.441246 303.767542 
L 182.457825 303.638006 
L 183.474403 304.752972 
L 184.490982 305.688702 
L 185.507561 304.561867 
L 186.524139 304.148225 
L 187.540718 304.79579 
L 188.557296 304.751445 
L 189.573875 304.52912 
L 190.590454 305.276993 
L 191.607032 306.248968 
L 192.623611 304.728557 
L 193.640189 305.449212 
L 194.656768 304.434747 
L 195.673347 304.484331 
L 196.689925 305.081268 
L 197.706504 305.398565 
L 198.723083 305.181673 
L 199.739661 304.450173 
L 201.772818 305.614452 
L 202.789397 305.138333 
L 203.805976 305.819263 
L 204.822554 304.90209 
L 205.839133 303.60785 
L 206.855711 305.479117 
L 207.87229 304.541183 
L 208.888869 304.623726 
L 209.905447 305.244595 
L 210.922026 304.736289 
L 211.938604 305.338601 
L 213.971762 304.013605 
L 214.98834 304.718428 
L 216.004919 305.106591 
L 217.021498 305.008487 
L 218.038076 305.204966 
L 219.054655 306.016205 
L 220.071233 305.006361 
L 221.087812 304.549766 
L 222.104391 305.371347 
L 223.120969 303.915965 
L 224.137548 304.404243 
L 225.154126 305.226172 
L 226.170705 304.206527 
L 227.187284 304.278244 
L 228.203862 304.571107 
L 229.220441 304.196166 
L 230.237019 304.482552 
L 231.253598 303.958628 
L 232.270177 305.814778 
L 233.286755 303.335594 
L 234.303334 305.442949 
L 235.319913 305.507494 
L 236.336491 304.966791 
L 237.35307 305.243415 
L 238.369648 304.953066 
L 239.386227 305.300963 
L 241.419384 305.255169 
L 242.435963 304.329007 
L 243.452541 304.847925 
L 244.46912 303.923252 
L 245.485699 305.390717 
L 246.502277 305.043476 
L 247.518856 304.241612 
L 248.535435 304.727803 
L 249.552013 304.927027 
L 250.568592 305.25339 
L 251.58517 304.623764 
L 252.601749 304.589781 
L 253.618328 304.408747 
L 254.634906 304.436487 
L 255.651485 305.057781 
L 256.668063 304.610716 
L 257.684642 305.150144 
L 258.701221 304.863216 
L 259.717799 303.513844 
L 260.734378 304.98993 
L 261.750956 303.883064 
L 262.767535 304.935958 
L 263.784114 304.398405 
L 264.800692 304.357733 
L 265.817271 303.285759 
L 266.83385 305.65843 
L 267.850428 304.953124 
L 268.867007 305.224896 
L 269.883585 304.214569 
L 270.900164 304.824148 
L 271.916743 303.925301 
L 272.933321 305.24241 
L 273.9499 305.65408 
L 274.966478 305.251148 
L 275.983057 304.601128 
L 276.999636 304.453807 
L 278.016214 305.331699 
L 279.032793 304.589916 
L 280.049371 304.261813 
L 281.06595 304.999711 
L 282.082529 304.838762 
L 283.099107 304.862133 
L 284.115686 305.77368 
L 285.132265 305.050455 
L 286.148843 305.354065 
L 287.165422 304.282343 
L 288.182 303.417248 
L 289.198579 303.789985 
L 290.215158 304.915119 
L 291.231736 304.157987 
L 292.248315 304.862559 
L 293.264893 305.154822 
L 294.281472 304.053794 
L 295.298051 304.289534 
L 296.314629 303.913432 
L 297.331208 304.431693 
L 298.347786 304.094988 
L 299.364365 304.579265 
L 300.380944 304.560688 
L 302.414101 302.651011 
L 303.43068 303.892149 
L 304.447258 305.891077 
L 305.463837 304.851772 
L 306.480415 302.040658 
L 307.496994 304.448356 
L 308.513573 304.204091 
L 309.530151 304.905918 
L 310.54673 304.182769 
L 311.563308 305.362667 
L 312.579887 304.384487 
L 313.596466 304.812337 
L 314.613044 304.610426 
L 315.629623 304.543831 
L 316.646201 305.296691 
L 317.66278 303.285082 
L 318.679359 304.467996 
L 319.695937 304.56177 
L 320.712516 304.17494 
L 321.729095 303.614558 
L 322.745673 304.875549 
L 323.762252 303.817242 
L 324.77883 304.706713 
L 325.795409 304.393804 
L 326.811988 304.413812 
L 327.828566 303.881884 
L 328.845145 305.225476 
L 329.861723 305.055384 
L 330.878302 304.462062 
L 331.894881 304.267496 
L 332.911459 304.466508 
L 333.928038 304.082713 
L 334.944617 303.890757 
L 335.961195 305.184534 
L 337.994352 304.520576 
L 339.010931 303.819233 
L 340.02751 305.072975 
L 341.044088 305.976771 
L 342.060667 305.42298 
L 343.077245 304.636252 
L 344.093824 305.424874 
L 345.110403 305.640955 
L 346.126981 305.084129 
L 347.14356 305.018752 
L 348.160138 304.309541 
L 349.176717 304.417775 
L 350.193296 305.593246 
L 351.209874 304.899113 
L 352.226453 305.499027 
L 353.243032 305.010865 
L 354.25961 304.800294 
L 355.276189 305.183335 
L 356.292767 304.900602 
L 357.309346 303.989925 
L 358.325925 304.727455 
L 359.342503 305.198761 
L 360.359082 304.6135 
L 361.37566 304.825965 
L 362.392239 304.042775 
L 363.408818 306.14694 
L 364.425396 304.422182 
L 365.441975 304.868049 
L 366.458553 305.700977 
L 367.475132 303.805624 
L 368.491711 304.909707 
L 369.508289 305.179933 
L 370.524868 303.862979 
L 371.541447 303.682312 
L 372.558025 304.842145 
L 373.574604 305.277998 
L 374.591182 304.221102 
L 375.607761 304.665055 
L 376.62434 305.253177 
L 377.640918 304.971275 
L 378.657497 304.257947 
L 379.674075 304.694844 
L 380.690654 304.313891 
L 381.707233 305.032728 
L 382.723811 305.025537 
L 383.74039 303.762304 
L 384.756968 305.117533 
L 385.773547 302.566032 
L 386.790126 303.345356 
L 387.806704 304.488294 
L 388.823283 304.263379 
L 389.839862 303.829324 
L 390.85644 304.78162 
L 391.873019 305.007656 
L 392.889597 304.653167 
L 393.906176 305.186138 
L 394.922755 303.029915 
L 395.939333 304.723879 
L 396.955912 305.321667 
L 397.97249 305.545209 
L 398.989069 305.141174 
L 401.022226 305.142199 
L 403.055383 304.155145 
L 404.071962 304.577699 
L 406.105119 304.652877 
L 407.121698 304.311455 
L 408.138277 304.123056 
L 409.154855 304.375943 
L 410.171434 305.16269 
L 411.188012 304.141343 
L 412.204591 305.051788 
L 414.237748 304.718215 
L 415.254327 305.088884 
L 416.270905 303.689291 
L 417.287484 305.23056 
L 418.304063 304.7279 
L 419.320641 305.181692 
L 420.33722 304.457732 
L 421.353799 305.128841 
L 422.370377 304.581836 
L 423.386956 304.737295 
L 424.403534 303.75173 
L 425.420113 304.234808 
L 426.436692 304.331404 
L 427.45327 304.914887 
L 428.469849 304.607005 
L 429.486427 304.60455 
L 430.503006 304.111206 
L 431.519585 305.062034 
L 432.536163 304.91626 
L 433.552742 303.218816 
L 434.56932 305.010942 
L 435.585899 305.057027 
L 437.619056 303.311952 
L 438.635635 304.744505 
L 439.652214 305.494504 
L 440.668792 303.825747 
L 441.685371 305.336899 
L 442.701949 304.377257 
L 443.718528 305.55211 
L 444.735107 304.696758 
L 446.768264 304.195508 
L 447.784842 305.922257 
L 448.801421 305.240844 
L 449.818 303.513419 
L 450.834578 303.599422 
L 451.851157 304.05592 
L 452.867735 305.186003 
L 454.900893 303.482489 
L 455.917471 304.473892 
L 456.93405 304.841623 
L 457.950629 303.739667 
L 458.967207 305.160003 
L 459.983786 303.602495 
L 461.000364 304.909513 
L 462.016943 304.373507 
L 463.033522 305.371676 
L 464.0501 303.131035 
L 465.066679 302.777724 
L 466.083257 304.007883 
L 467.099836 304.502077 
L 468.116415 304.237302 
L 469.132993 304.539134 
L 470.149572 304.60397 
L 471.16615 304.176042 
L 472.182729 304.130518 
L 473.199308 304.288722 
L 474.215886 304.983319 
L 475.232465 303.538839 
L 476.249044 304.703717 
L 477.265622 305.085888 
L 478.282201 305.151284 
L 479.298779 305.72141 
L 480.315358 304.895788 
L 481.331937 304.894358 
L 482.348515 303.841058 
L 483.365094 304.590941 
L 484.381672 304.029379 
L 485.398251 302.362749 
L 486.41483 304.582957 
L 488.447987 304.735767 
L 489.464565 305.401175 
L 490.481144 305.498873 
L 491.497723 304.6626 
L 492.514301 305.069225 
L 493.53088 304.970135 
L 494.547459 305.15459 
L 495.564037 305.160119 
L 496.580616 304.915989 
L 497.597194 305.477957 
L 498.613773 304.778179 
L 499.630352 305.257276 
L 500.64693 304.099221 
L 501.663509 304.310314 
L 502.680087 304.271962 
L 503.696666 303.630042 
L 504.713245 304.236064 
L 505.729823 305.44954 
L 506.746402 305.44378 
L 507.762981 304.114918 
L 508.779559 303.855904 
L 509.796138 303.456741 
L 510.812716 304.721018 
L 511.829295 304.445205 
L 512.845874 304.37774 
L 514.879031 304.974098 
L 515.895609 304.443407 
L 516.912188 304.542884 
L 517.928767 304.345555 
L 518.945345 304.745935 
L 519.961924 303.666345 
L 520.978502 304.774352 
L 521.995081 304.849878 
L 523.01166 305.469451 
L 524.028238 303.821843 
L 525.044817 303.543536 
L 526.061396 304.195914 
L 527.077974 304.105098 
L 528.094553 304.290094 
L 529.111131 303.982985 
L 531.144289 305.008797 
L 533.177446 304.615065 
L 534.194024 304.43871 
L 535.210603 304.52914 
L 536.227182 303.661261 
L 537.24376 304.760298 
L 538.260339 303.749719 
L 539.276917 303.71444 
L 540.293496 303.143078 
L 541.310075 304.860084 
L 542.326653 302.439705 
L 543.343232 304.203879 
L 544.359811 305.113609 
L 545.376389 304.575225 
L 546.392968 305.320062 
L 547.409546 305.280125 
L 548.426125 304.116735 
L 550.459282 304.751638 
L 551.475861 303.849157 
L 552.492439 305.452846 
L 553.509018 304.449226 
L 554.525597 304.794746 
L 555.542175 304.446771 
L 556.558754 305.489497 
L 557.575332 304.182769 
L 558.591911 304.463106 
L 559.60849 304.509364 
L 560.625068 303.522272 
L 561.641647 304.612475 
L 562.658226 304.238404 
L 563.674804 304.386903 
L 564.691383 304.755736 
L 565.707961 304.526781 
L 566.72454 304.749415 
L 567.741119 305.372836 
L 568.757697 304.560475 
L 569.774276 304.185437 
L 570.790854 304.778566 
L 571.807433 304.565888 
L 572.824012 304.763082 
L 573.84059 304.746709 
L 574.857169 304.231812 
L 575.873747 304.554831 
L 577.906905 305.995289 
L 578.923483 303.453435 
L 579.940062 304.19516 
L 580.956641 304.711662 
L 581.973219 305.896721 
L 582.989798 304.018341 
L 584.006376 304.482359 
L 585.022955 304.350871 
L 586.039534 305.179991 
L 587.056112 304.801028 
L 588.072691 304.189748 
L 589.089269 304.926176 
L 590.105848 304.640892 
L 591.122427 304.032336 
L 592.139005 304.45315 
L 594.172163 305.772946 
L 595.188741 303.901582 
L 597.221898 305.114884 
L 598.238477 303.62086 
L 599.255056 305.817407 
L 600.271634 304.815662 
L 601.288213 304.289186 
L 602.304791 304.837834 
L 603.32137 304.486361 
L 604.337949 304.29398 
L 605.354527 303.90193 
L 606.371106 303.994371 
L 607.387684 304.795287 
L 608.404263 304.56032 
L 609.420842 304.57652 
L 610.43742 304.395409 
L 611.453999 305.333942 
L 612.470578 305.085753 
L 613.487156 305.821911 
L 614.503735 304.368636 
L 615.520313 305.73007 
L 616.536892 305.118229 
L 617.553471 304.259996 
L 618.570049 304.166841 
L 619.586628 303.819001 
L 621.619785 306.075107 
L 622.636364 305.599413 
L 622.636364 305.599413 
" clip-path="url(#pad2f56b13b)" style="fill: none; stroke: #1f77b4; stroke-width: 1.5; stroke-linecap: square"/>
   </g>
   <g id="line2d_32">
    <path d="M 115.363636 288.940032 
L 117.396794 306.123569 
L 118.413372 306.751532 
L 119.429951 306.848245 
L 120.446529 306.740533 
L 121.463108 306.434815 
L 122.479687 295.559424 
L 123.496265 306.091422 
L 124.512844 307.637253 
L 125.529422 305.823245 
L 126.546001 306.553546 
L 127.56258 306.697387 
L 128.579158 305.8673 
L 129.595737 305.603433 
L 130.612316 307.364514 
L 131.628894 304.803271 
L 132.645473 306.777706 
L 133.662051 305.404364 
L 134.67863 307.126145 
L 135.695209 306.05593 
L 136.711787 307.390128 
L 137.728366 306.660987 
L 138.744944 302.888587 
L 139.761523 306.166387 
L 140.778102 306.300389 
L 141.79468 307.236621 
L 142.811259 307.419356 
L 143.827837 306.381752 
L 144.844416 307.479977 
L 145.860995 307.363528 
L 146.877573 306.156876 
L 147.894152 306.635296 
L 148.910731 306.823482 
L 149.927309 306.414325 
L 150.943888 306.559364 
L 152.977045 307.299949 
L 153.993624 303.937151 
L 155.010202 306.932663 
L 156.026781 306.497892 
L 157.043359 306.990578 
L 158.059938 307.223979 
L 159.076517 306.396521 
L 160.093095 307.184235 
L 162.126253 306.852324 
L 163.142831 306.526115 
L 164.15941 307.193243 
L 165.175988 307.132544 
L 166.192567 307.43859 
L 167.209146 306.792881 
L 169.242303 306.983251 
L 170.258881 306.642487 
L 171.27546 306.430253 
L 172.292039 307.395908 
L 173.308617 307.144181 
L 174.325196 306.116552 
L 175.341774 305.659261 
L 176.358353 306.906682 
L 177.374932 307.151527 
L 178.39151 306.119394 
L 179.408089 306.673107 
L 180.424668 306.542662 
L 181.441246 307.354713 
L 183.474403 306.79984 
L 184.490982 307.544214 
L 185.507561 306.507693 
L 186.524139 306.783042 
L 187.540718 307.265714 
L 188.557296 306.481403 
L 189.573875 304.021067 
L 190.590454 306.278003 
L 191.607032 305.961499 
L 192.623611 307.267029 
L 193.640189 306.794408 
L 194.656768 307.044511 
L 195.673347 306.804847 
L 197.706504 307.044337 
L 198.723083 306.608697 
L 199.739661 307.28375 
L 200.75624 306.596615 
L 201.772818 307.384715 
L 202.789397 307.070859 
L 203.805976 307.411411 
L 205.839133 306.76692 
L 206.855711 305.967144 
L 207.87229 306.48668 
L 208.888869 306.227086 
L 209.905447 307.63447 
L 210.922026 307.289278 
L 211.938604 306.509259 
L 212.955183 306.898254 
L 213.971762 305.78004 
L 214.98834 307.472245 
L 217.021498 305.845823 
L 218.038076 307.037359 
L 219.054655 306.972368 
L 220.071233 307.481698 
L 221.087812 306.545813 
L 222.104391 305.400227 
L 223.120969 306.098845 
L 224.137548 307.309924 
L 225.154126 307.498786 
L 226.170705 306.145007 
L 227.187284 305.712344 
L 228.203862 306.780258 
L 229.220441 306.458747 
L 230.237019 306.879889 
L 231.253598 306.897674 
L 232.270177 307.39554 
L 233.286755 307.257151 
L 234.303334 306.613703 
L 235.319913 305.70148 
L 236.336491 306.421033 
L 237.35307 306.852787 
L 238.369648 307.070414 
L 239.386227 306.697135 
L 240.402806 306.888086 
L 241.419384 306.397449 
L 242.435963 306.340674 
L 243.452541 307.168287 
L 244.46912 306.956788 
L 245.485699 306.88449 
L 246.502277 306.678442 
L 247.518856 301.791444 
L 248.535435 306.694158 
L 249.552013 306.379722 
L 250.568592 306.529208 
L 251.58517 306.42167 
L 252.601749 306.988355 
L 253.618328 307.375127 
L 254.634906 306.92379 
L 255.651485 306.108936 
L 256.668063 305.558393 
L 257.684642 307.270508 
L 258.701221 306.628646 
L 260.734378 306.895702 
L 261.750956 305.910388 
L 262.767535 306.627235 
L 263.784114 306.257339 
L 264.800692 307.067167 
L 265.817271 306.749793 
L 266.83385 306.688552 
L 267.850428 305.643951 
L 268.867007 306.782829 
L 269.883585 305.964457 
L 270.900164 306.970107 
L 271.916743 306.999393 
L 272.933321 306.116397 
L 273.9499 306.792166 
L 274.966478 306.195383 
L 275.983057 306.160201 
L 276.999636 303.877477 
L 278.016214 305.46632 
L 279.032793 305.59659 
L 280.049371 306.036271 
L 281.06595 307.21702 
L 282.082529 307.438629 
L 283.099107 306.639239 
L 284.115686 307.453301 
L 285.132265 306.752267 
L 286.148843 306.844533 
L 287.165422 307.233006 
L 288.182 306.004433 
L 289.198579 306.86224 
L 290.215158 306.847684 
L 291.231736 305.85574 
L 293.264893 307.350789 
L 294.281472 306.515676 
L 295.298051 306.366056 
L 296.314629 302.814202 
L 297.331208 306.71577 
L 298.347786 307.567817 
L 299.364365 304.645048 
L 300.380944 303.854299 
L 301.397522 304.908663 
L 302.414101 306.769471 
L 303.43068 305.991288 
L 304.447258 306.974069 
L 305.463837 307.072019 
L 306.480415 306.677418 
L 307.496994 304.225375 
L 309.530151 306.501352 
L 310.54673 305.567401 
L 311.563308 306.42343 
L 312.579887 306.612872 
L 314.613044 306.595687 
L 315.629623 306.892087 
L 316.646201 306.973741 
L 317.66278 307.570137 
L 318.679359 306.761797 
L 319.695937 303.948788 
L 320.712516 307.105055 
L 321.729095 305.438387 
L 322.745673 306.559345 
L 323.762252 306.836801 
L 324.77883 306.471061 
L 325.795409 307.189164 
L 326.811988 307.048203 
L 327.828566 306.131514 
L 328.845145 307.15373 
L 329.861723 307.323301 
L 330.878302 307.040181 
L 331.894881 306.472607 
L 332.911459 305.620019 
L 333.928038 306.698914 
L 334.944617 306.939158 
L 335.961195 306.035324 
L 336.977774 306.353935 
L 337.994352 306.477769 
L 340.02751 306.087092 
L 341.044088 306.93042 
L 342.060667 307.093205 
L 343.077245 306.422811 
L 344.093824 307.107607 
L 345.110403 305.304926 
L 346.126981 305.237597 
L 347.14356 301.210803 
L 348.160138 306.868213 
L 349.176717 305.892855 
L 352.226453 307.708778 
L 353.243032 304.651427 
L 354.25961 307.410406 
L 355.276189 305.836931 
L 356.292767 305.380104 
L 357.309346 305.518687 
L 358.325925 306.637558 
L 359.342503 306.535027 
L 360.359082 307.183539 
L 361.37566 306.660349 
L 362.392239 307.244373 
L 363.408818 306.678191 
L 364.425396 305.90341 
L 365.441975 306.887892 
L 366.458553 303.926094 
L 367.475132 306.383144 
L 368.491711 307.194751 
L 369.508289 306.279917 
L 370.524868 307.145418 
L 371.541447 306.982014 
L 372.558025 304.837003 
L 373.574604 306.452175 
L 374.591182 306.279221 
L 375.607761 304.792678 
L 376.62434 307.498516 
L 377.640918 306.953579 
L 378.657497 307.562346 
L 379.674075 307.453436 
L 380.690654 306.519369 
L 381.707233 304.636929 
L 382.723811 306.623601 
L 383.74039 306.722207 
L 384.756968 305.271561 
L 385.773547 305.973252 
L 386.790126 307.045265 
L 387.806704 307.378123 
L 388.823283 306.233581 
L 389.839862 306.482969 
L 390.85644 307.160168 
L 391.873019 305.766663 
L 392.889597 306.14955 
L 393.906176 305.822839 
L 394.922755 305.686595 
L 395.939333 306.049551 
L 396.955912 306.819422 
L 397.97249 306.702664 
L 398.989069 307.166605 
L 400.005648 307.487555 
L 401.022226 306.844437 
L 402.038805 304.685179 
L 403.055383 306.37518 
L 404.071962 306.460603 
L 405.088541 307.627221 
L 406.105119 307.073353 
L 407.121698 306.715925 
L 408.138277 306.970029 
L 410.171434 306.977472 
L 411.188012 305.496572 
L 412.204591 305.954927 
L 413.22117 305.230077 
L 414.237748 302.736666 
L 415.254327 307.365867 
L 416.270905 306.196157 
L 417.287484 305.804513 
L 418.304063 306.171026 
L 419.320641 306.702587 
L 420.33722 305.937548 
L 421.353799 306.838811 
L 422.370377 307.365983 
L 423.386956 306.301664 
L 424.403534 307.43801 
L 425.420113 307.401166 
L 426.436692 306.520548 
L 427.45327 307.031057 
L 428.469849 307.347754 
L 429.486427 306.70885 
L 430.503006 307.197824 
L 431.519585 306.954545 
L 432.536163 305.350044 
L 433.552742 303.536925 
L 434.56932 306.200487 
L 435.585899 306.372551 
L 436.602478 306.694158 
L 437.619056 306.855977 
L 438.635635 306.297257 
L 439.652214 306.011701 
L 440.668792 304.792194 
L 441.685371 307.8 
L 442.701949 305.539158 
L 443.718528 307.177797 
L 444.735107 306.885979 
L 445.751685 306.955666 
L 446.768264 306.644787 
L 447.784842 307.115494 
L 448.801421 307.084294 
L 449.818 305.999233 
L 451.851157 307.05176 
L 452.867735 306.92524 
L 453.884314 305.612287 
L 454.900893 307.509515 
L 455.917471 306.103871 
L 456.93405 307.520437 
L 457.950629 306.321595 
L 458.967207 306.032501 
L 459.983786 307.177333 
L 461.000364 307.225332 
L 462.016943 306.108665 
L 463.033522 307.255836 
L 464.0501 302.981974 
L 465.066679 303.574891 
L 466.083257 302.881705 
L 467.099836 305.72574 
L 468.116415 304.596875 
L 469.132993 306.862163 
L 470.149572 303.582101 
L 471.16615 306.252487 
L 472.182729 307.045265 
L 473.199308 306.340616 
L 474.215886 306.197742 
L 475.232465 306.17323 
L 476.249044 306.855745 
L 477.265622 306.978593 
L 478.282201 307.528691 
L 479.298779 307.366563 
L 480.315358 305.47411 
L 481.331937 307.237336 
L 482.348515 306.419428 
L 483.365094 306.56555 
L 484.381672 307.267125 
L 485.398251 306.969797 
L 486.41483 304.480271 
L 487.431408 306.880643 
L 488.447987 306.984121 
L 489.464565 306.313804 
L 490.481144 305.158398 
L 491.497723 307.548389 
L 492.514301 306.770361 
L 493.53088 307.262699 
L 494.547459 305.563341 
L 496.580616 307.208108 
L 497.597194 306.135728 
L 498.613773 306.545659 
L 499.630352 306.237679 
L 500.64693 307.250655 
L 501.663509 303.450265 
L 502.680087 306.367157 
L 503.696666 307.117543 
L 504.713245 307.418041 
L 505.729823 307.067225 
L 506.746402 305.046144 
L 507.762981 307.172327 
L 508.779559 306.459636 
L 509.796138 306.569281 
L 510.812716 306.284035 
L 511.829295 306.401006 
L 512.845874 307.262486 
L 513.862452 306.648499 
L 514.879031 305.82945 
L 515.895609 305.95222 
L 516.912188 306.884722 
L 517.928767 307.255797 
L 518.945345 306.817025 
L 519.961924 305.144499 
L 520.978502 306.707922 
L 521.995081 307.100629 
L 523.01166 306.67274 
L 525.044817 307.172597 
L 526.061396 307.060362 
L 527.077974 306.451943 
L 528.094553 304.157639 
L 529.111131 306.513995 
L 530.12771 306.403093 
L 531.144289 307.164285 
L 532.160867 307.345125 
L 533.177446 305.703645 
L 534.194024 306.286238 
L 535.210603 306.017017 
L 536.227182 305.943541 
L 537.24376 307.002505 
L 538.260339 307.066471 
L 539.276917 304.779842 
L 540.293496 306.229096 
L 541.310075 305.065842 
L 542.326653 303.063009 
L 543.343232 307.484984 
L 544.359811 307.613225 
L 545.376389 307.059164 
L 546.392968 307.632691 
L 547.409546 306.88304 
L 548.426125 305.066963 
L 549.442704 307.513227 
L 550.459282 304.160635 
L 551.475861 304.524578 
L 552.492439 306.791567 
L 553.509018 304.35609 
L 554.525597 306.630424 
L 555.542175 306.995681 
L 556.558754 306.730887 
L 557.575332 307.330647 
L 558.591911 305.725044 
L 559.60849 307.232774 
L 560.625068 306.161516 
L 561.641647 306.320802 
L 562.658226 306.099193 
L 563.674804 306.940028 
L 564.691383 306.823791 
L 565.707961 307.068385 
L 566.72454 306.211041 
L 567.741119 304.960779 
L 568.757697 307.097226 
L 569.774276 305.297001 
L 570.790854 307.504566 
L 571.807433 307.079519 
L 572.824012 305.661117 
L 573.84059 306.131379 
L 574.857169 307.304743 
L 575.873747 307.402731 
L 576.890326 307.19564 
L 577.906905 302.813293 
L 578.923483 306.177174 
L 579.940062 306.496346 
L 580.956641 306.174738 
L 581.973219 307.057424 
L 582.989798 305.492088 
L 584.006376 307.617053 
L 585.022955 305.75924 
L 586.039534 306.816755 
L 587.056112 307.443423 
L 588.072691 306.060782 
L 589.089269 306.622692 
L 590.105848 305.026194 
L 591.122427 307.696232 
L 592.139005 306.8998 
L 593.155584 306.463773 
L 595.188741 304.666254 
L 596.20532 302.543744 
L 597.221898 305.606294 
L 598.238477 307.467741 
L 599.255056 306.494084 
L 600.271634 306.328863 
L 601.288213 305.83262 
L 602.304791 306.719211 
L 603.32137 306.21398 
L 604.337949 304.254506 
L 605.354527 305.143049 
L 606.371106 304.996406 
L 607.387684 307.445027 
L 608.404263 304.087313 
L 609.420842 306.740146 
L 611.453999 306.670033 
L 612.470578 305.157702 
L 613.487156 307.026707 
L 614.503735 306.676877 
L 615.520313 307.513149 
L 616.536892 306.369361 
L 617.553471 305.831673 
L 618.570049 306.487743 
L 619.586628 306.950872 
L 620.603206 306.972291 
L 621.619785 307.184602 
L 622.636364 306.556368 
L 622.636364 306.556368 
" clip-path="url(#pad2f56b13b)" style="fill: none; stroke: #ff7f0e; stroke-width: 1.5; stroke-linecap: square"/>
   </g>
   <g id="patch_3">
    <path d="M 90 320.4 
L 90 43.2 
" style="fill: none; stroke: #000000; stroke-width: 0.8; stroke-linejoin: miter; stroke-linecap: square"/>
   </g>
   <g id="patch_4">
    <path d="M 648 320.4 
L 648 43.2 
" style="fill: none; stroke: #000000; stroke-width: 0.8; stroke-linejoin: miter; stroke-linecap: square"/>
   </g>
   <g id="patch_5">
    <path d="M 90 320.4 
L 648 320.4 
" style="fill: none; stroke: #000000; stroke-width: 0.8; stroke-linejoin: miter; stroke-linecap: square"/>
   </g>
   <g id="patch_6">
    <path d="M 90 43.2 
L 648 43.2 
" style="fill: none; stroke: #000000; stroke-width: 0.8; stroke-linejoin: miter; stroke-linecap: square"/>
   </g>
   <g id="text_18">
    <!-- model train and validation loss over time -->
    <g transform="translate(245.555625 37.2) scale(0.12 -0.12)">
     <defs>
      <path id="DejaVuSans-6d" d="M 3328 2828 
Q 3544 3216 3844 3400 
Q 4144 3584 4550 3584 
Q 5097 3584 5394 3201 
Q 5691 2819 5691 2113 
L 5691 0 
L 5113 0 
L 5113 2094 
Q 5113 2597 4934 2840 
Q 4756 3084 4391 3084 
Q 3944 3084 3684 2787 
Q 3425 2491 3425 1978 
L 3425 0 
L 2847 0 
L 2847 2094 
Q 2847 2600 2669 2842 
Q 2491 3084 2119 3084 
Q 1678 3084 1418 2786 
Q 1159 2488 1159 1978 
L 1159 0 
L 581 0 
L 581 3500 
L 1159 3500 
L 1159 2956 
Q 1356 3278 1631 3431 
Q 1906 3584 2284 3584 
Q 2666 3584 2933 3390 
Q 3200 3197 3328 2828 
z
" transform="scale(0.015625)"/>
      <path id="DejaVuSans-64" d="M 2906 2969 
L 2906 4863 
L 3481 4863 
L 3481 0 
L 2906 0 
L 2906 525 
Q 2725 213 2448 61 
Q 2172 -91 1784 -91 
Q 1150 -91 751 415 
Q 353 922 353 1747 
Q 353 2572 751 3078 
Q 1150 3584 1784 3584 
Q 2172 3584 2448 3432 
Q 2725 3281 2906 2969 
z
M 947 1747 
Q 947 1113 1208 752 
Q 1469 391 1925 391 
Q 2381 391 2643 752 
Q 2906 1113 2906 1747 
Q 2906 2381 2643 2742 
Q 2381 3103 1925 3103 
Q 1469 3103 1208 2742 
Q 947 2381 947 1747 
z
" transform="scale(0.015625)"/>
      <path id="DejaVuSans-20" transform="scale(0.015625)"/>
      <path id="DejaVuSans-74" d="M 1172 4494 
L 1172 3500 
L 2356 3500 
L 2356 3053 
L 1172 3053 
L 1172 1153 
Q 1172 725 1289 603 
Q 1406 481 1766 481 
L 2356 481 
L 2356 0 
L 1766 0 
Q 1100 0 847 248 
Q 594 497 594 1153 
L 594 3053 
L 172 3053 
L 172 3500 
L 594 3500 
L 594 4494 
L 1172 4494 
z
" transform="scale(0.015625)"/>
      <path id="DejaVuSans-72" d="M 2631 2963 
Q 2534 3019 2420 3045 
Q 2306 3072 2169 3072 
Q 1681 3072 1420 2755 
Q 1159 2438 1159 1844 
L 1159 0 
L 581 0 
L 581 3500 
L 1159 3500 
L 1159 2956 
Q 1341 3275 1631 3429 
Q 1922 3584 2338 3584 
Q 2397 3584 2469 3576 
Q 2541 3569 2628 3553 
L 2631 2963 
z
" transform="scale(0.015625)"/>
      <path id="DejaVuSans-61" d="M 2194 1759 
Q 1497 1759 1228 1600 
Q 959 1441 959 1056 
Q 959 750 1161 570 
Q 1363 391 1709 391 
Q 2188 391 2477 730 
Q 2766 1069 2766 1631 
L 2766 1759 
L 2194 1759 
z
M 3341 1997 
L 3341 0 
L 2766 0 
L 2766 531 
Q 2569 213 2275 61 
Q 1981 -91 1556 -91 
Q 1019 -91 701 211 
Q 384 513 384 1019 
Q 384 1609 779 1909 
Q 1175 2209 1959 2209 
L 2766 2209 
L 2766 2266 
Q 2766 2663 2505 2880 
Q 2244 3097 1772 3097 
Q 1472 3097 1187 3025 
Q 903 2953 641 2809 
L 641 3341 
Q 956 3463 1253 3523 
Q 1550 3584 1831 3584 
Q 2591 3584 2966 3190 
Q 3341 2797 3341 1997 
z
" transform="scale(0.015625)"/>
      <path id="DejaVuSans-69" d="M 603 3500 
L 1178 3500 
L 1178 0 
L 603 0 
L 603 3500 
z
M 603 4863 
L 1178 4863 
L 1178 4134 
L 603 4134 
L 603 4863 
z
" transform="scale(0.015625)"/>
      <path id="DejaVuSans-6e" d="M 3513 2113 
L 3513 0 
L 2938 0 
L 2938 2094 
Q 2938 2591 2744 2837 
Q 2550 3084 2163 3084 
Q 1697 3084 1428 2787 
Q 1159 2491 1159 1978 
L 1159 0 
L 581 0 
L 581 3500 
L 1159 3500 
L 1159 2956 
Q 1366 3272 1645 3428 
Q 1925 3584 2291 3584 
Q 2894 3584 3203 3211 
Q 3513 2838 3513 2113 
z
" transform="scale(0.015625)"/>
      <path id="DejaVuSans-76" d="M 191 3500 
L 800 3500 
L 1894 563 
L 2988 3500 
L 3597 3500 
L 2284 0 
L 1503 0 
L 191 3500 
z
" transform="scale(0.015625)"/>
     </defs>
     <use xlink:href="#DejaVuSans-6d"/>
     <use xlink:href="#DejaVuSans-6f" x="97.412109"/>
     <use xlink:href="#DejaVuSans-64" x="158.59375"/>
     <use xlink:href="#DejaVuSans-65" x="222.070312"/>
     <use xlink:href="#DejaVuSans-6c" x="283.59375"/>
     <use xlink:href="#DejaVuSans-20" x="311.376953"/>
     <use xlink:href="#DejaVuSans-74" x="343.164062"/>
     <use xlink:href="#DejaVuSans-72" x="382.373047"/>
     <use xlink:href="#DejaVuSans-61" x="423.486328"/>
     <use xlink:href="#DejaVuSans-69" x="484.765625"/>
     <use xlink:href="#DejaVuSans-6e" x="512.548828"/>
     <use xlink:href="#DejaVuSans-20" x="575.927734"/>
     <use xlink:href="#DejaVuSans-61" x="607.714844"/>
     <use xlink:href="#DejaVuSans-6e" x="668.994141"/>
     <use xlink:href="#DejaVuSans-64" x="732.373047"/>
     <use xlink:href="#DejaVuSans-20" x="795.849609"/>
     <use xlink:href="#DejaVuSans-76" x="827.636719"/>
     <use xlink:href="#DejaVuSans-61" x="886.816406"/>
     <use xlink:href="#DejaVuSans-6c" x="948.095703"/>
     <use xlink:href="#DejaVuSans-69" x="975.878906"/>
     <use xlink:href="#DejaVuSans-64" x="1003.662109"/>
     <use xlink:href="#DejaVuSans-61" x="1067.138672"/>
     <use xlink:href="#DejaVuSans-74" x="1128.417969"/>
     <use xlink:href="#DejaVuSans-69" x="1167.626953"/>
     <use xlink:href="#DejaVuSans-6f" x="1195.410156"/>
     <use xlink:href="#DejaVuSans-6e" x="1256.591797"/>
     <use xlink:href="#DejaVuSans-20" x="1319.970703"/>
     <use xlink:href="#DejaVuSans-6c" x="1351.757812"/>
     <use xlink:href="#DejaVuSans-6f" x="1379.541016"/>
     <use xlink:href="#DejaVuSans-73" x="1440.722656"/>
     <use xlink:href="#DejaVuSans-73" x="1492.822266"/>
     <use xlink:href="#DejaVuSans-20" x="1544.921875"/>
     <use xlink:href="#DejaVuSans-6f" x="1576.708984"/>
     <use xlink:href="#DejaVuSans-76" x="1637.890625"/>
     <use xlink:href="#DejaVuSans-65" x="1697.070312"/>
     <use xlink:href="#DejaVuSans-72" x="1758.59375"/>
     <use xlink:href="#DejaVuSans-20" x="1799.707031"/>
     <use xlink:href="#DejaVuSans-74" x="1831.494141"/>
     <use xlink:href="#DejaVuSans-69" x="1870.703125"/>
     <use xlink:href="#DejaVuSans-6d" x="1898.486328"/>
     <use xlink:href="#DejaVuSans-65" x="1995.898438"/>
    </g>
   </g>
   <g id="legend_1">
    <g id="patch_7">
     <path d="M 559.765625 80.55625 
L 641 80.55625 
Q 643 80.55625 643 78.55625 
L 643 50.2 
Q 643 48.2 641 48.2 
L 559.765625 48.2 
Q 557.765625 48.2 557.765625 50.2 
L 557.765625 78.55625 
Q 557.765625 80.55625 559.765625 80.55625 
z
" style="fill: #ffffff; opacity: 0.8; stroke: #cccccc; stroke-linejoin: miter"/>
    </g>
    <g id="line2d_33">
     <path d="M 561.765625 56.298437 
L 571.765625 56.298437 
L 581.765625 56.298437 
" style="fill: none; stroke: #1f77b4; stroke-width: 1.5; stroke-linecap: square"/>
    </g>
    <g id="text_19">
     <!-- train -->
     <g transform="translate(589.765625 59.798437) scale(0.1 -0.1)">
      <use xlink:href="#DejaVuSans-74"/>
      <use xlink:href="#DejaVuSans-72" x="39.208984"/>
      <use xlink:href="#DejaVuSans-61" x="80.322266"/>
      <use xlink:href="#DejaVuSans-69" x="141.601562"/>
      <use xlink:href="#DejaVuSans-6e" x="169.384766"/>
     </g>
    </g>
    <g id="line2d_34">
     <path d="M 561.765625 70.976562 
L 571.765625 70.976562 
L 581.765625 70.976562 
" style="fill: none; stroke: #ff7f0e; stroke-width: 1.5; stroke-linecap: square"/>
    </g>
    <g id="text_20">
     <!-- validation -->
     <g transform="translate(589.765625 74.476562) scale(0.1 -0.1)">
      <use xlink:href="#DejaVuSans-76"/>
      <use xlink:href="#DejaVuSans-61" x="59.179688"/>
      <use xlink:href="#DejaVuSans-6c" x="120.458984"/>
      <use xlink:href="#DejaVuSans-69" x="148.242188"/>
      <use xlink:href="#DejaVuSans-64" x="176.025391"/>
      <use xlink:href="#DejaVuSans-61" x="239.501953"/>
      <use xlink:href="#DejaVuSans-74" x="300.78125"/>
      <use xlink:href="#DejaVuSans-69" x="339.990234"/>
      <use xlink:href="#DejaVuSans-6f" x="367.773438"/>
      <use xlink:href="#DejaVuSans-6e" x="428.955078"/>
     </g>
    </g>
   </g>
  </g>
 </g>
 <defs>
  <clipPath id="pad2f56b13b">
   <rect x="90" y="43.2" width="558" height="277.2"/>
  </clipPath>
 </defs>
</svg>
