<?xml version="1.0" encoding="utf-8" standalone="no"?>
<!DOCTYPE svg PUBLIC "-//W3C//DTD SVG 1.1//EN"
  "http://www.w3.org/Graphics/SVG/1.1/DTD/svg11.dtd">
<svg xmlns:xlink="http://www.w3.org/1999/xlink" width="720pt" height="360pt" viewBox="0 0 720 360" xmlns="http://www.w3.org/2000/svg" version="1.1">
 <metadata>
  <rdf:RDF xmlns:dc="http://purl.org/dc/elements/1.1/" xmlns:cc="http://creativecommons.org/ns#" xmlns:rdf="http://www.w3.org/1999/02/22-rdf-syntax-ns#">
   <cc:Work>
    <dc:type rdf:resource="http://purl.org/dc/dcmitype/StillImage"/>
    <dc:date>2023-05-24T11:59:44.280920</dc:date>
    <dc:format>image/svg+xml</dc:format>
    <dc:creator>
     <cc:Agent>
      <dc:title>Matplotlib v3.7.1, https://matplotlib.org/</dc:title>
     </cc:Agent>
    </dc:creator>
   </cc:Work>
  </rdf:RDF>
 </metadata>
 <defs>
  <style type="text/css">*{stroke-linejoin: round; stroke-linecap: butt}</style>
 </defs>
 <g id="figure_1">
  <g id="patch_1">
   <path d="M 0 360 
L 720 360 
L 720 0 
L 0 0 
z
" style="fill: #ffffff"/>
  </g>
  <g id="axes_1">
   <g id="patch_2">
    <path d="M 90 320.4 
L 648 320.4 
L 648 43.2 
L 90 43.2 
z
" style="fill: #ffffff"/>
   </g>
   <g id="matplotlib.axis_1">
    <g id="xtick_1">
     <g id="line2d_1">
      <path d="M 115.363636 320.4 
L 115.363636 43.2 
" clip-path="url(#paa48fe79b3)" style="fill: none; stroke: #b0b0b0; stroke-width: 0.8; stroke-linecap: square"/>
     </g>
     <g id="line2d_2">
      <defs>
       <path id="m1e64b2459b" d="M 0 0 
L 0 3.5 
" style="stroke: #000000; stroke-width: 0.8"/>
      </defs>
      <g>
       <use xlink:href="#m1e64b2459b" x="115.363636" y="320.4" style="stroke: #000000; stroke-width: 0.8"/>
      </g>
     </g>
     <g id="text_1">
      <!-- 0 -->
      <g transform="translate(112.182386 334.998438) scale(0.1 -0.1)">
       <defs>
        <path id="DejaVuSans-30" d="M 2034 4250 
Q 1547 4250 1301 3770 
Q 1056 3291 1056 2328 
Q 1056 1369 1301 889 
Q 1547 409 2034 409 
Q 2525 409 2770 889 
Q 3016 1369 3016 2328 
Q 3016 3291 2770 3770 
Q 2525 4250 2034 4250 
z
M 2034 4750 
Q 2819 4750 3233 4129 
Q 3647 3509 3647 2328 
Q 3647 1150 3233 529 
Q 2819 -91 2034 -91 
Q 1250 -91 836 529 
Q 422 1150 422 2328 
Q 422 3509 836 4129 
Q 1250 4750 2034 4750 
z
" transform="scale(0.015625)"/>
       </defs>
       <use xlink:href="#DejaVuSans-30"/>
      </g>
     </g>
    </g>
    <g id="xtick_2">
     <g id="line2d_3">
      <path d="M 217.021498 320.4 
L 217.021498 43.2 
" clip-path="url(#paa48fe79b3)" style="fill: none; stroke: #b0b0b0; stroke-width: 0.8; stroke-linecap: square"/>
     </g>
     <g id="line2d_4">
      <g>
       <use xlink:href="#m1e64b2459b" x="217.021498" y="320.4" style="stroke: #000000; stroke-width: 0.8"/>
      </g>
     </g>
     <g id="text_2">
      <!-- 100 -->
      <g transform="translate(207.477748 334.998438) scale(0.1 -0.1)">
       <defs>
        <path id="DejaVuSans-31" d="M 794 531 
L 1825 531 
L 1825 4091 
L 703 3866 
L 703 4441 
L 1819 4666 
L 2450 4666 
L 2450 531 
L 3481 531 
L 3481 0 
L 794 0 
L 794 531 
z
" transform="scale(0.015625)"/>
       </defs>
       <use xlink:href="#DejaVuSans-31"/>
       <use xlink:href="#DejaVuSans-30" x="63.623047"/>
       <use xlink:href="#DejaVuSans-30" x="127.246094"/>
      </g>
     </g>
    </g>
    <g id="xtick_3">
     <g id="line2d_5">
      <path d="M 318.679359 320.4 
L 318.679359 43.2 
" clip-path="url(#paa48fe79b3)" style="fill: none; stroke: #b0b0b0; stroke-width: 0.8; stroke-linecap: square"/>
     </g>
     <g id="line2d_6">
      <g>
       <use xlink:href="#m1e64b2459b" x="318.679359" y="320.4" style="stroke: #000000; stroke-width: 0.8"/>
      </g>
     </g>
     <g id="text_3">
      <!-- 200 -->
      <g transform="translate(309.135609 334.998438) scale(0.1 -0.1)">
       <defs>
        <path id="DejaVuSans-32" d="M 1228 531 
L 3431 531 
L 3431 0 
L 469 0 
L 469 531 
Q 828 903 1448 1529 
Q 2069 2156 2228 2338 
Q 2531 2678 2651 2914 
Q 2772 3150 2772 3378 
Q 2772 3750 2511 3984 
Q 2250 4219 1831 4219 
Q 1534 4219 1204 4116 
Q 875 4013 500 3803 
L 500 4441 
Q 881 4594 1212 4672 
Q 1544 4750 1819 4750 
Q 2544 4750 2975 4387 
Q 3406 4025 3406 3419 
Q 3406 3131 3298 2873 
Q 3191 2616 2906 2266 
Q 2828 2175 2409 1742 
Q 1991 1309 1228 531 
z
" transform="scale(0.015625)"/>
       </defs>
       <use xlink:href="#DejaVuSans-32"/>
       <use xlink:href="#DejaVuSans-30" x="63.623047"/>
       <use xlink:href="#DejaVuSans-30" x="127.246094"/>
      </g>
     </g>
    </g>
    <g id="xtick_4">
     <g id="line2d_7">
      <path d="M 420.33722 320.4 
L 420.33722 43.2 
" clip-path="url(#paa48fe79b3)" style="fill: none; stroke: #b0b0b0; stroke-width: 0.8; stroke-linecap: square"/>
     </g>
     <g id="line2d_8">
      <g>
       <use xlink:href="#m1e64b2459b" x="420.33722" y="320.4" style="stroke: #000000; stroke-width: 0.8"/>
      </g>
     </g>
     <g id="text_4">
      <!-- 300 -->
      <g transform="translate(410.79347 334.998438) scale(0.1 -0.1)">
       <defs>
        <path id="DejaVuSans-33" d="M 2597 2516 
Q 3050 2419 3304 2112 
Q 3559 1806 3559 1356 
Q 3559 666 3084 287 
Q 2609 -91 1734 -91 
Q 1441 -91 1130 -33 
Q 819 25 488 141 
L 488 750 
Q 750 597 1062 519 
Q 1375 441 1716 441 
Q 2309 441 2620 675 
Q 2931 909 2931 1356 
Q 2931 1769 2642 2001 
Q 2353 2234 1838 2234 
L 1294 2234 
L 1294 2753 
L 1863 2753 
Q 2328 2753 2575 2939 
Q 2822 3125 2822 3475 
Q 2822 3834 2567 4026 
Q 2313 4219 1838 4219 
Q 1578 4219 1281 4162 
Q 984 4106 628 3988 
L 628 4550 
Q 988 4650 1302 4700 
Q 1616 4750 1894 4750 
Q 2613 4750 3031 4423 
Q 3450 4097 3450 3541 
Q 3450 3153 3228 2886 
Q 3006 2619 2597 2516 
z
" transform="scale(0.015625)"/>
       </defs>
       <use xlink:href="#DejaVuSans-33"/>
       <use xlink:href="#DejaVuSans-30" x="63.623047"/>
       <use xlink:href="#DejaVuSans-30" x="127.246094"/>
      </g>
     </g>
    </g>
    <g id="xtick_5">
     <g id="line2d_9">
      <path d="M 521.995081 320.4 
L 521.995081 43.2 
" clip-path="url(#paa48fe79b3)" style="fill: none; stroke: #b0b0b0; stroke-width: 0.8; stroke-linecap: square"/>
     </g>
     <g id="line2d_10">
      <g>
       <use xlink:href="#m1e64b2459b" x="521.995081" y="320.4" style="stroke: #000000; stroke-width: 0.8"/>
      </g>
     </g>
     <g id="text_5">
      <!-- 400 -->
      <g transform="translate(512.451331 334.998438) scale(0.1 -0.1)">
       <defs>
        <path id="DejaVuSans-34" d="M 2419 4116 
L 825 1625 
L 2419 1625 
L 2419 4116 
z
M 2253 4666 
L 3047 4666 
L 3047 1625 
L 3713 1625 
L 3713 1100 
L 3047 1100 
L 3047 0 
L 2419 0 
L 2419 1100 
L 313 1100 
L 313 1709 
L 2253 4666 
z
" transform="scale(0.015625)"/>
       </defs>
       <use xlink:href="#DejaVuSans-34"/>
       <use xlink:href="#DejaVuSans-30" x="63.623047"/>
       <use xlink:href="#DejaVuSans-30" x="127.246094"/>
      </g>
     </g>
    </g>
    <g id="xtick_6">
     <g id="line2d_11">
      <path d="M 623.652942 320.4 
L 623.652942 43.2 
" clip-path="url(#paa48fe79b3)" style="fill: none; stroke: #b0b0b0; stroke-width: 0.8; stroke-linecap: square"/>
     </g>
     <g id="line2d_12">
      <g>
       <use xlink:href="#m1e64b2459b" x="623.652942" y="320.4" style="stroke: #000000; stroke-width: 0.8"/>
      </g>
     </g>
     <g id="text_6">
      <!-- 500 -->
      <g transform="translate(614.109192 334.998438) scale(0.1 -0.1)">
       <defs>
        <path id="DejaVuSans-35" d="M 691 4666 
L 3169 4666 
L 3169 4134 
L 1269 4134 
L 1269 2991 
Q 1406 3038 1543 3061 
Q 1681 3084 1819 3084 
Q 2600 3084 3056 2656 
Q 3513 2228 3513 1497 
Q 3513 744 3044 326 
Q 2575 -91 1722 -91 
Q 1428 -91 1123 -41 
Q 819 9 494 109 
L 494 744 
Q 775 591 1075 516 
Q 1375 441 1709 441 
Q 2250 441 2565 725 
Q 2881 1009 2881 1497 
Q 2881 1984 2565 2268 
Q 2250 2553 1709 2553 
Q 1456 2553 1204 2497 
Q 953 2441 691 2322 
L 691 4666 
z
" transform="scale(0.015625)"/>
       </defs>
       <use xlink:href="#DejaVuSans-35"/>
       <use xlink:href="#DejaVuSans-30" x="63.623047"/>
       <use xlink:href="#DejaVuSans-30" x="127.246094"/>
      </g>
     </g>
    </g>
    <g id="text_7">
     <!-- epoch -->
     <g transform="translate(353.771875 348.676562) scale(0.1 -0.1)">
      <defs>
       <path id="DejaVuSans-65" d="M 3597 1894 
L 3597 1613 
L 953 1613 
Q 991 1019 1311 708 
Q 1631 397 2203 397 
Q 2534 397 2845 478 
Q 3156 559 3463 722 
L 3463 178 
Q 3153 47 2828 -22 
Q 2503 -91 2169 -91 
Q 1331 -91 842 396 
Q 353 884 353 1716 
Q 353 2575 817 3079 
Q 1281 3584 2069 3584 
Q 2775 3584 3186 3129 
Q 3597 2675 3597 1894 
z
M 3022 2063 
Q 3016 2534 2758 2815 
Q 2500 3097 2075 3097 
Q 1594 3097 1305 2825 
Q 1016 2553 972 2059 
L 3022 2063 
z
" transform="scale(0.015625)"/>
       <path id="DejaVuSans-70" d="M 1159 525 
L 1159 -1331 
L 581 -1331 
L 581 3500 
L 1159 3500 
L 1159 2969 
Q 1341 3281 1617 3432 
Q 1894 3584 2278 3584 
Q 2916 3584 3314 3078 
Q 3713 2572 3713 1747 
Q 3713 922 3314 415 
Q 2916 -91 2278 -91 
Q 1894 -91 1617 61 
Q 1341 213 1159 525 
z
M 3116 1747 
Q 3116 2381 2855 2742 
Q 2594 3103 2138 3103 
Q 1681 3103 1420 2742 
Q 1159 2381 1159 1747 
Q 1159 1113 1420 752 
Q 1681 391 2138 391 
Q 2594 391 2855 752 
Q 3116 1113 3116 1747 
z
" transform="scale(0.015625)"/>
       <path id="DejaVuSans-6f" d="M 1959 3097 
Q 1497 3097 1228 2736 
Q 959 2375 959 1747 
Q 959 1119 1226 758 
Q 1494 397 1959 397 
Q 2419 397 2687 759 
Q 2956 1122 2956 1747 
Q 2956 2369 2687 2733 
Q 2419 3097 1959 3097 
z
M 1959 3584 
Q 2709 3584 3137 3096 
Q 3566 2609 3566 1747 
Q 3566 888 3137 398 
Q 2709 -91 1959 -91 
Q 1206 -91 779 398 
Q 353 888 353 1747 
Q 353 2609 779 3096 
Q 1206 3584 1959 3584 
z
" transform="scale(0.015625)"/>
       <path id="DejaVuSans-63" d="M 3122 3366 
L 3122 2828 
Q 2878 2963 2633 3030 
Q 2388 3097 2138 3097 
Q 1578 3097 1268 2742 
Q 959 2388 959 1747 
Q 959 1106 1268 751 
Q 1578 397 2138 397 
Q 2388 397 2633 464 
Q 2878 531 3122 666 
L 3122 134 
Q 2881 22 2623 -34 
Q 2366 -91 2075 -91 
Q 1284 -91 818 406 
Q 353 903 353 1747 
Q 353 2603 823 3093 
Q 1294 3584 2113 3584 
Q 2378 3584 2631 3529 
Q 2884 3475 3122 3366 
z
" transform="scale(0.015625)"/>
       <path id="DejaVuSans-68" d="M 3513 2113 
L 3513 0 
L 2938 0 
L 2938 2094 
Q 2938 2591 2744 2837 
Q 2550 3084 2163 3084 
Q 1697 3084 1428 2787 
Q 1159 2491 1159 1978 
L 1159 0 
L 581 0 
L 581 4863 
L 1159 4863 
L 1159 2956 
Q 1366 3272 1645 3428 
Q 1925 3584 2291 3584 
Q 2894 3584 3203 3211 
Q 3513 2838 3513 2113 
z
" transform="scale(0.015625)"/>
      </defs>
      <use xlink:href="#DejaVuSans-65"/>
      <use xlink:href="#DejaVuSans-70" x="61.523438"/>
      <use xlink:href="#DejaVuSans-6f" x="125"/>
      <use xlink:href="#DejaVuSans-63" x="186.181641"/>
      <use xlink:href="#DejaVuSans-68" x="241.162109"/>
     </g>
    </g>
   </g>
   <g id="matplotlib.axis_2">
    <g id="ytick_1">
     <g id="line2d_13">
      <path d="M 90 292.222927 
L 648 292.222927 
" clip-path="url(#paa48fe79b3)" style="fill: none; stroke: #b0b0b0; stroke-width: 0.8; stroke-linecap: square"/>
     </g>
     <g id="line2d_14">
      <defs>
       <path id="mc5b1f9db78" d="M 0 0 
L -3.5 0 
" style="stroke: #000000; stroke-width: 0.8"/>
      </defs>
      <g>
       <use xlink:href="#mc5b1f9db78" x="90" y="292.222927" style="stroke: #000000; stroke-width: 0.8"/>
      </g>
     </g>
     <g id="text_8">
      <!-- 0.4 -->
      <g transform="translate(67.096875 296.022146) scale(0.1 -0.1)">
       <defs>
        <path id="DejaVuSans-2e" d="M 684 794 
L 1344 794 
L 1344 0 
L 684 0 
L 684 794 
z
" transform="scale(0.015625)"/>
       </defs>
       <use xlink:href="#DejaVuSans-30"/>
       <use xlink:href="#DejaVuSans-2e" x="63.623047"/>
       <use xlink:href="#DejaVuSans-34" x="95.410156"/>
      </g>
     </g>
    </g>
    <g id="ytick_2">
     <g id="line2d_15">
      <path d="M 90 251.366376 
L 648 251.366376 
" clip-path="url(#paa48fe79b3)" style="fill: none; stroke: #b0b0b0; stroke-width: 0.8; stroke-linecap: square"/>
     </g>
     <g id="line2d_16">
      <g>
       <use xlink:href="#mc5b1f9db78" x="90" y="251.366376" style="stroke: #000000; stroke-width: 0.8"/>
      </g>
     </g>
     <g id="text_9">
      <!-- 0.5 -->
      <g transform="translate(67.096875 255.165594) scale(0.1 -0.1)">
       <use xlink:href="#DejaVuSans-30"/>
       <use xlink:href="#DejaVuSans-2e" x="63.623047"/>
       <use xlink:href="#DejaVuSans-35" x="95.410156"/>
      </g>
     </g>
    </g>
    <g id="ytick_3">
     <g id="line2d_17">
      <path d="M 90 210.509824 
L 648 210.509824 
" clip-path="url(#paa48fe79b3)" style="fill: none; stroke: #b0b0b0; stroke-width: 0.8; stroke-linecap: square"/>
     </g>
     <g id="line2d_18">
      <g>
       <use xlink:href="#mc5b1f9db78" x="90" y="210.509824" style="stroke: #000000; stroke-width: 0.8"/>
      </g>
     </g>
     <g id="text_10">
      <!-- 0.6 -->
      <g transform="translate(67.096875 214.309043) scale(0.1 -0.1)">
       <defs>
        <path id="DejaVuSans-36" d="M 2113 2584 
Q 1688 2584 1439 2293 
Q 1191 2003 1191 1497 
Q 1191 994 1439 701 
Q 1688 409 2113 409 
Q 2538 409 2786 701 
Q 3034 994 3034 1497 
Q 3034 2003 2786 2293 
Q 2538 2584 2113 2584 
z
M 3366 4563 
L 3366 3988 
Q 3128 4100 2886 4159 
Q 2644 4219 2406 4219 
Q 1781 4219 1451 3797 
Q 1122 3375 1075 2522 
Q 1259 2794 1537 2939 
Q 1816 3084 2150 3084 
Q 2853 3084 3261 2657 
Q 3669 2231 3669 1497 
Q 3669 778 3244 343 
Q 2819 -91 2113 -91 
Q 1303 -91 875 529 
Q 447 1150 447 2328 
Q 447 3434 972 4092 
Q 1497 4750 2381 4750 
Q 2619 4750 2861 4703 
Q 3103 4656 3366 4563 
z
" transform="scale(0.015625)"/>
       </defs>
       <use xlink:href="#DejaVuSans-30"/>
       <use xlink:href="#DejaVuSans-2e" x="63.623047"/>
       <use xlink:href="#DejaVuSans-36" x="95.410156"/>
      </g>
     </g>
    </g>
    <g id="ytick_4">
     <g id="line2d_19">
      <path d="M 90 169.653272 
L 648 169.653272 
" clip-path="url(#paa48fe79b3)" style="fill: none; stroke: #b0b0b0; stroke-width: 0.8; stroke-linecap: square"/>
     </g>
     <g id="line2d_20">
      <g>
       <use xlink:href="#mc5b1f9db78" x="90" y="169.653272" style="stroke: #000000; stroke-width: 0.8"/>
      </g>
     </g>
     <g id="text_11">
      <!-- 0.7 -->
      <g transform="translate(67.096875 173.452491) scale(0.1 -0.1)">
       <defs>
        <path id="DejaVuSans-37" d="M 525 4666 
L 3525 4666 
L 3525 4397 
L 1831 0 
L 1172 0 
L 2766 4134 
L 525 4134 
L 525 4666 
z
" transform="scale(0.015625)"/>
       </defs>
       <use xlink:href="#DejaVuSans-30"/>
       <use xlink:href="#DejaVuSans-2e" x="63.623047"/>
       <use xlink:href="#DejaVuSans-37" x="95.410156"/>
      </g>
     </g>
    </g>
    <g id="ytick_5">
     <g id="line2d_21">
      <path d="M 90 128.796721 
L 648 128.796721 
" clip-path="url(#paa48fe79b3)" style="fill: none; stroke: #b0b0b0; stroke-width: 0.8; stroke-linecap: square"/>
     </g>
     <g id="line2d_22">
      <g>
       <use xlink:href="#mc5b1f9db78" x="90" y="128.796721" style="stroke: #000000; stroke-width: 0.8"/>
      </g>
     </g>
     <g id="text_12">
      <!-- 0.8 -->
      <g transform="translate(67.096875 132.59594) scale(0.1 -0.1)">
       <defs>
        <path id="DejaVuSans-38" d="M 2034 2216 
Q 1584 2216 1326 1975 
Q 1069 1734 1069 1313 
Q 1069 891 1326 650 
Q 1584 409 2034 409 
Q 2484 409 2743 651 
Q 3003 894 3003 1313 
Q 3003 1734 2745 1975 
Q 2488 2216 2034 2216 
z
M 1403 2484 
Q 997 2584 770 2862 
Q 544 3141 544 3541 
Q 544 4100 942 4425 
Q 1341 4750 2034 4750 
Q 2731 4750 3128 4425 
Q 3525 4100 3525 3541 
Q 3525 3141 3298 2862 
Q 3072 2584 2669 2484 
Q 3125 2378 3379 2068 
Q 3634 1759 3634 1313 
Q 3634 634 3220 271 
Q 2806 -91 2034 -91 
Q 1263 -91 848 271 
Q 434 634 434 1313 
Q 434 1759 690 2068 
Q 947 2378 1403 2484 
z
M 1172 3481 
Q 1172 3119 1398 2916 
Q 1625 2713 2034 2713 
Q 2441 2713 2670 2916 
Q 2900 3119 2900 3481 
Q 2900 3844 2670 4047 
Q 2441 4250 2034 4250 
Q 1625 4250 1398 4047 
Q 1172 3844 1172 3481 
z
" transform="scale(0.015625)"/>
       </defs>
       <use xlink:href="#DejaVuSans-30"/>
       <use xlink:href="#DejaVuSans-2e" x="63.623047"/>
       <use xlink:href="#DejaVuSans-38" x="95.410156"/>
      </g>
     </g>
    </g>
    <g id="ytick_6">
     <g id="line2d_23">
      <path d="M 90 87.940169 
L 648 87.940169 
" clip-path="url(#paa48fe79b3)" style="fill: none; stroke: #b0b0b0; stroke-width: 0.8; stroke-linecap: square"/>
     </g>
     <g id="line2d_24">
      <g>
       <use xlink:href="#mc5b1f9db78" x="90" y="87.940169" style="stroke: #000000; stroke-width: 0.8"/>
      </g>
     </g>
     <g id="text_13">
      <!-- 0.9 -->
      <g transform="translate(67.096875 91.739388) scale(0.1 -0.1)">
       <defs>
        <path id="DejaVuSans-39" d="M 703 97 
L 703 672 
Q 941 559 1184 500 
Q 1428 441 1663 441 
Q 2288 441 2617 861 
Q 2947 1281 2994 2138 
Q 2813 1869 2534 1725 
Q 2256 1581 1919 1581 
Q 1219 1581 811 2004 
Q 403 2428 403 3163 
Q 403 3881 828 4315 
Q 1253 4750 1959 4750 
Q 2769 4750 3195 4129 
Q 3622 3509 3622 2328 
Q 3622 1225 3098 567 
Q 2575 -91 1691 -91 
Q 1453 -91 1209 -44 
Q 966 3 703 97 
z
M 1959 2075 
Q 2384 2075 2632 2365 
Q 2881 2656 2881 3163 
Q 2881 3666 2632 3958 
Q 2384 4250 1959 4250 
Q 1534 4250 1286 3958 
Q 1038 3666 1038 3163 
Q 1038 2656 1286 2365 
Q 1534 2075 1959 2075 
z
" transform="scale(0.015625)"/>
       </defs>
       <use xlink:href="#DejaVuSans-30"/>
       <use xlink:href="#DejaVuSans-2e" x="63.623047"/>
       <use xlink:href="#DejaVuSans-39" x="95.410156"/>
      </g>
     </g>
    </g>
    <g id="ytick_7">
     <g id="line2d_25">
      <path d="M 90 47.083618 
L 648 47.083618 
" clip-path="url(#paa48fe79b3)" style="fill: none; stroke: #b0b0b0; stroke-width: 0.8; stroke-linecap: square"/>
     </g>
     <g id="line2d_26">
      <g>
       <use xlink:href="#mc5b1f9db78" x="90" y="47.083618" style="stroke: #000000; stroke-width: 0.8"/>
      </g>
     </g>
     <g id="text_14">
      <!-- 1.0 -->
      <g transform="translate(67.096875 50.882836) scale(0.1 -0.1)">
       <use xlink:href="#DejaVuSans-31"/>
       <use xlink:href="#DejaVuSans-2e" x="63.623047"/>
       <use xlink:href="#DejaVuSans-30" x="95.410156"/>
      </g>
     </g>
    </g>
    <g id="text_15">
     <!-- accruacy -->
     <g transform="translate(61.017187 204.359375) rotate(-90) scale(0.1 -0.1)">
      <defs>
       <path id="DejaVuSans-61" d="M 2194 1759 
Q 1497 1759 1228 1600 
Q 959 1441 959 1056 
Q 959 750 1161 570 
Q 1363 391 1709 391 
Q 2188 391 2477 730 
Q 2766 1069 2766 1631 
L 2766 1759 
L 2194 1759 
z
M 3341 1997 
L 3341 0 
L 2766 0 
L 2766 531 
Q 2569 213 2275 61 
Q 1981 -91 1556 -91 
Q 1019 -91 701 211 
Q 384 513 384 1019 
Q 384 1609 779 1909 
Q 1175 2209 1959 2209 
L 2766 2209 
L 2766 2266 
Q 2766 2663 2505 2880 
Q 2244 3097 1772 3097 
Q 1472 3097 1187 3025 
Q 903 2953 641 2809 
L 641 3341 
Q 956 3463 1253 3523 
Q 1550 3584 1831 3584 
Q 2591 3584 2966 3190 
Q 3341 2797 3341 1997 
z
" transform="scale(0.015625)"/>
       <path id="DejaVuSans-72" d="M 2631 2963 
Q 2534 3019 2420 3045 
Q 2306 3072 2169 3072 
Q 1681 3072 1420 2755 
Q 1159 2438 1159 1844 
L 1159 0 
L 581 0 
L 581 3500 
L 1159 3500 
L 1159 2956 
Q 1341 3275 1631 3429 
Q 1922 3584 2338 3584 
Q 2397 3584 2469 3576 
Q 2541 3569 2628 3553 
L 2631 2963 
z
" transform="scale(0.015625)"/>
       <path id="DejaVuSans-75" d="M 544 1381 
L 544 3500 
L 1119 3500 
L 1119 1403 
Q 1119 906 1312 657 
Q 1506 409 1894 409 
Q 2359 409 2629 706 
Q 2900 1003 2900 1516 
L 2900 3500 
L 3475 3500 
L 3475 0 
L 2900 0 
L 2900 538 
Q 2691 219 2414 64 
Q 2138 -91 1772 -91 
Q 1169 -91 856 284 
Q 544 659 544 1381 
z
M 1991 3584 
L 1991 3584 
z
" transform="scale(0.015625)"/>
       <path id="DejaVuSans-79" d="M 2059 -325 
Q 1816 -950 1584 -1140 
Q 1353 -1331 966 -1331 
L 506 -1331 
L 506 -850 
L 844 -850 
Q 1081 -850 1212 -737 
Q 1344 -625 1503 -206 
L 1606 56 
L 191 3500 
L 800 3500 
L 1894 763 
L 2988 3500 
L 3597 3500 
L 2059 -325 
z
" transform="scale(0.015625)"/>
      </defs>
      <use xlink:href="#DejaVuSans-61"/>
      <use xlink:href="#DejaVuSans-63" x="61.279297"/>
      <use xlink:href="#DejaVuSans-63" x="116.259766"/>
      <use xlink:href="#DejaVuSans-72" x="171.240234"/>
      <use xlink:href="#DejaVuSans-75" x="212.353516"/>
      <use xlink:href="#DejaVuSans-61" x="275.732422"/>
      <use xlink:href="#DejaVuSans-63" x="337.011719"/>
      <use xlink:href="#DejaVuSans-79" x="391.992188"/>
     </g>
    </g>
   </g>
   <g id="line2d_27">
    <path d="M 115.363636 301.803854 
L 116.380215 300.912191 
L 117.396794 300.330668 
L 118.413372 300.330668 
L 119.429951 300.912191 
L 120.446529 300.912191 
L 121.463108 298.876854 
L 122.479687 300.039888 
L 123.496265 299.458365 
L 124.512844 299.167609 
L 125.529422 300.039888 
L 126.546001 301.202946 
L 127.56258 307.8 
L 128.579158 299.458365 
L 129.595737 301.23525 
L 130.612316 297.171041 
L 131.628894 300.621423 
L 132.645473 300.330668 
L 133.662051 299.749132 
L 134.67863 301.493702 
L 135.695209 305.809897 
L 136.711787 299.458365 
L 137.728366 298.29533 
L 138.744944 300.621423 
L 139.761523 300.912191 
L 141.79468 299.749132 
L 142.811259 300.330668 
L 143.827837 300.039888 
L 144.844416 300.330668 
L 145.860995 301.78447 
L 146.877573 301.202946 
L 147.894152 299.749132 
L 148.910731 298.876854 
L 149.927309 301.202946 
L 150.943888 298.586086 
L 151.960466 301.202946 
L 152.977045 294.851414 
L 153.993624 277.102019 
L 155.010202 247.638169 
L 156.026781 228.02791 
L 157.043359 215.964509 
L 160.093095 190.170712 
L 161.109674 178.152558 
L 162.126253 171.633055 
L 163.142831 169.3328 
L 164.15941 164.83569 
L 165.175988 162.367453 
L 166.192567 162.012054 
L 167.209146 164.389846 
L 169.242303 157.534329 
L 170.258881 152.500931 
L 171.27546 154.89163 
L 172.292039 146.026601 
L 173.308617 143.157766 
L 174.325196 139.765525 
L 176.358353 131.740507 
L 177.374932 128.102746 
L 178.39151 129.407961 
L 179.408089 133.136168 
L 180.424668 132.257436 
L 181.441246 124.193625 
L 182.457825 124.006258 
L 183.474403 125.188688 
L 184.490982 122.713997 
L 185.507561 117.254116 
L 186.524139 115.981216 
L 187.540718 117.454414 
L 189.573875 109.797702 
L 190.590454 111.807189 
L 191.607032 116.86645 
L 192.623611 116.284939 
L 193.640189 106.437777 
L 194.656768 107.142073 
L 195.673347 103.459088 
L 196.689925 107.142073 
L 197.706504 105.190739 
L 198.723083 102.464049 
L 199.739661 107.342371 
L 200.75624 106.024249 
L 201.772818 102.890484 
L 202.789397 102.644939 
L 203.805976 100.299486 
L 204.822554 100.467469 
L 205.839133 99.608097 
L 206.855711 106.431348 
L 207.87229 106.618691 
L 208.888869 102.231435 
L 209.905447 105.500891 
L 210.922026 103.000338 
L 211.938604 99.763173 
L 212.955183 99.465976 
L 213.971762 98.684118 
L 214.98834 95.511609 
L 216.004919 95.679592 
L 217.021498 93.424584 
L 218.038076 93.334114 
L 219.054655 97.656763 
L 221.087812 92.597527 
L 222.104391 96.325734 
L 223.120969 91.738155 
L 224.137548 94.051317 
L 225.154126 90.310204 
L 226.170705 89.541301 
L 227.187284 90.633262 
L 228.203862 88.972697 
L 229.220441 91.014475 
L 230.237019 90.633262 
L 231.253598 88.559168 
L 232.270177 87.977633 
L 233.286755 88.391161 
L 234.303334 91.428003 
L 235.319913 95.983266 
L 236.336491 94.529476 
L 237.35307 94.497161 
L 238.369648 87.958248 
L 239.386227 89.340978 
L 240.402806 89.631746 
L 241.419384 89.050235 
L 242.435963 86.795202 
L 243.452541 90.600947 
L 245.485699 83.235003 
L 246.502277 83.435301 
L 247.518856 83.357763 
L 248.535435 82.239939 
L 249.552013 84.494972 
L 250.568592 83.480524 
L 251.58517 88.436384 
L 252.601749 90.678485 
L 253.618328 89.231149 
L 254.634906 85.212174 
L 255.651485 89.573592 
L 256.668063 84.462656 
L 257.684642 83.525746 
L 258.701221 78.156358 
L 259.717799 79.384011 
L 260.734378 79.9203 
L 261.750956 81.516259 
L 262.767535 84.507878 
L 263.784114 85.645087 
L 264.800692 85.567549 
L 265.817271 83.726044 
L 266.83385 85.490011 
L 267.850428 77.096687 
L 268.867007 79.461549 
L 269.883585 82.944235 
L 270.900164 82.162401 
L 271.916743 82.498391 
L 272.933321 79.875077 
L 273.9499 81.684266 
L 275.983057 77.174225 
L 276.999636 78.111135 
L 278.016214 83.49343 
L 279.032793 80.837825 
L 280.049371 80.64398 
L 281.06595 82.175332 
L 282.082529 81.561506 
L 283.099107 79.629556 
L 284.115686 80.579373 
L 285.132265 77.620069 
L 286.148843 79.306473 
L 287.165422 77.038534 
L 288.182 75.856103 
L 290.215158 81.025193 
L 293.264893 78.447125 
L 294.281472 76.683159 
L 295.298051 73.368481 
L 296.314629 73.458925 
L 297.331208 77.387455 
L 298.347786 79.306473 
L 299.364365 82.69869 
L 300.380944 79.9203 
L 301.397522 74.137383 
L 302.414101 73.368481 
L 303.43068 76.437638 
L 305.463837 74.841679 
L 306.480415 76.101648 
L 307.496994 75.991794 
L 308.513573 80.656911 
L 309.530151 78.001282 
L 310.54673 82.220555 
L 312.579887 76.02411 
L 313.596466 79.183713 
L 315.629623 79.351695 
L 316.646201 73.646317 
L 317.66278 74.919217 
L 318.679359 74.932124 
L 319.695937 74.227828 
L 320.712516 77.452062 
L 321.729095 71.927598 
L 322.745673 74.505689 
L 323.762252 74.15029 
L 324.77883 74.718894 
L 325.795409 74.841679 
L 326.811988 74.841679 
L 327.828566 72.386348 
L 328.845145 74.641356 
L 329.861723 74.059845 
L 330.878302 73.995214 
L 331.894881 72.108512 
L 332.911459 70.822705 
L 333.928038 70.254101 
L 334.944617 70.499622 
L 335.961195 76.482861 
L 336.977774 74.809364 
L 337.994352 71.572223 
L 339.010931 70.990688 
L 340.02751 72.050358 
L 341.044088 73.891862 
L 342.060667 73.69154 
L 343.077245 77.109594 
L 344.093824 78.046504 
L 345.110403 76.237315 
L 346.126981 73.232789 
L 347.14356 70.725758 
L 348.160138 74.350613 
L 349.176717 72.173119 
L 350.193296 74.718894 
L 351.209874 71.85006 
L 352.226453 72.954953 
L 353.243032 69.79535 
L 354.25961 71.313771 
L 355.276189 70.499622 
L 356.292767 67.152627 
L 357.309346 71.203917 
L 358.325925 71.436532 
L 359.342503 66.571116 
L 360.359082 65.498539 
L 361.37566 68.335058 
L 362.392239 72.386348 
L 363.408818 69.239653 
L 364.425396 72.050358 
L 365.441975 70.454399 
L 366.458553 70.221785 
L 367.475132 69.717812 
L 368.491711 68.444912 
L 369.508289 66.525894 
L 370.524868 65.311147 
L 371.541447 64.729612 
L 372.558025 64.852397 
L 373.574604 65.375754 
L 374.591182 65.298216 
L 375.607761 64.574536 
L 376.62434 74.996755 
L 377.640918 74.014623 
L 378.657497 68.515972 
L 379.674075 72.263588 
L 380.690654 71.313771 
L 381.707233 68.367374 
L 382.723811 73.937085 
L 383.74039 68.490134 
L 384.756968 68.367374 
L 385.773547 64.68439 
L 387.806704 61.30508 
L 388.823283 68.671048 
L 389.839862 68.335058 
L 390.85644 68.289836 
L 391.873019 69.284875 
L 392.889597 70.454399 
L 395.939333 64.038247 
L 396.955912 65.711744 
L 397.97249 69.976264 
L 398.989069 66.661561 
L 400.005648 65.556668 
L 401.022226 66.62927 
L 402.038805 69.149208 
L 404.071962 61.078943 
L 405.088541 61.738017 
L 406.105119 61.492471 
L 407.121698 64.80715 
L 408.138277 64.148101 
L 409.154855 66.816637 
L 410.171434 66.08005 
L 411.188012 69.640274 
L 412.204591 65.756991 
L 413.22117 64.884688 
L 414.237748 66.739099 
L 415.254327 66.280349 
L 416.270905 64.652074 
L 417.287484 65.220678 
L 418.304063 62.797687 
L 419.320641 63.779795 
L 420.33722 61.447249 
L 421.353799 65.220678 
L 422.370377 65.634206 
L 423.386956 68.089537 
L 424.403534 76.560399 
L 426.436692 65.912067 
L 427.45327 64.942842 
L 428.469849 67.889239 
L 429.486427 65.02038 
L 430.503006 63.624719 
L 431.519585 65.065602 
L 432.536163 62.196767 
L 433.552742 65.220678 
L 434.56932 69.271968 
L 435.585899 70.053802 
L 436.602478 72.709407 
L 438.635635 64.852397 
L 440.668792 60.878645 
L 441.685371 60.510339 
L 442.701949 58.546099 
L 443.718528 63.30166 
L 444.735107 64.193323 
L 445.751685 61.738017 
L 446.768264 66.41604 
L 447.784842 63.870264 
L 448.801421 63.211191 
L 449.818 66.157588 
L 450.834578 66.661561 
L 451.851157 68.903662 
L 452.867735 64.025341 
L 453.884314 65.789282 
L 454.900893 71.526976 
L 456.93405 65.511446 
L 457.950629 65.879752 
L 459.983786 66.907106 
L 461.000364 66.403109 
L 462.016943 64.438869 
L 463.033522 62.106298 
L 464.0501 63.224122 
L 465.066679 66.08005 
L 466.083257 66.571116 
L 467.099836 65.388685 
L 468.116415 62.920448 
L 469.132993 64.128716 
L 470.149572 64.729612 
L 471.16615 66.08005 
L 472.182729 65.220678 
L 473.199308 63.088431 
L 474.215886 60.465117 
L 475.232465 60.646031 
L 477.265622 65.711744 
L 478.282201 64.606852 
L 479.298779 65.220678 
L 480.315358 65.298216 
L 481.331937 66.648654 
L 482.348515 64.393646 
L 483.365094 63.792726 
L 484.381672 64.361331 
L 485.398251 66.726192 
L 486.41483 65.02038 
L 487.431408 63.792726 
L 488.447987 66.506485 
L 489.464565 64.361331 
L 490.481144 60.355263 
L 491.497723 60.510339 
L 492.514301 61.705701 
L 493.53088 65.756991 
L 494.547459 68.994132 
L 495.564037 64.193323 
L 496.580616 64.975157 
L 497.597194 67.520933 
L 498.613773 66.357887 
L 499.630352 65.466223 
L 500.64693 62.888132 
L 501.663509 59.650992 
L 502.680087 60.019273 
L 503.696666 60.755884 
L 504.713245 63.1789 
L 505.729823 61.783239 
L 506.746402 62.474604 
L 507.762981 61.12419 
L 508.779559 64.697321 
L 509.796138 66.08005 
L 510.812716 67.062183 
L 512.845874 62.642611 
L 513.862452 67.676009 
L 514.879031 61.738017 
L 515.895609 60.923867 
L 516.912188 60.277725 
L 517.928767 61.414933 
L 518.945345 59.159925 
L 519.961924 64.897619 
L 520.978502 66.693877 
L 521.995081 65.711744 
L 524.028238 65.343463 
L 525.044817 61.046652 
L 526.061396 63.792726 
L 527.077974 64.270861 
L 528.094553 63.870264 
L 529.111131 65.265925 
L 530.12771 63.165969 
L 531.144289 63.624719 
L 532.160867 75.287499 
L 533.177446 72.140827 
L 534.194024 67.598471 
L 535.210603 67.92153 
L 536.227182 62.810594 
L 537.24376 64.23857 
L 538.260339 59.696214 
L 539.276917 59.482984 
L 540.293496 58.268238 
L 541.310075 60.264818 
L 542.326653 58.714082 
L 543.343232 59.97405 
L 544.359811 60.678346 
L 545.376389 62.274305 
L 546.392968 61.705701 
L 547.409546 63.825042 
L 548.426125 61.57001 
L 549.442704 57.609189 
L 550.459282 59.360224 
L 551.475861 57.641504 
L 552.492439 62.229083 
L 553.509018 64.070563 
L 554.525597 67.430488 
L 555.542175 63.779795 
L 556.558754 62.474604 
L 557.575332 60.310041 
L 558.591911 61.69277 
L 559.60849 61.951222 
L 560.625068 67.676009 
L 561.641647 64.316108 
L 562.658226 65.007473 
L 563.674804 63.165969 
L 564.691383 64.316108 
L 565.707961 60.633124 
L 566.72454 62.319528 
L 567.741119 62.074007 
L 568.757697 62.674902 
L 569.774276 62.319528 
L 570.790854 62.397066 
L 571.807433 61.091874 
L 572.824012 58.714082 
L 573.84059 61.382618 
L 574.857169 65.666522 
L 575.873747 64.193323 
L 576.890326 63.1789 
L 577.906905 65.065602 
L 578.923483 64.897619 
L 579.940062 62.84291 
L 580.956641 63.211191 
L 581.973219 58.255331 
L 582.989798 56.291066 
L 584.006376 55.8 
L 585.022955 61.828462 
L 586.039534 60.801107 
L 587.056112 63.256438 
L 588.072691 62.920448 
L 589.089269 63.657035 
L 590.105848 63.825042 
L 591.122427 62.02876 
L 592.139005 61.537694 
L 593.155584 64.68439 
L 594.172163 63.579497 
L 595.188741 61.414933 
L 596.20532 59.97405 
L 597.221898 61.996469 
L 598.238477 64.884688 
L 599.255056 63.379198 
L 600.271634 66.202811 
L 602.304791 60.264818 
L 603.32137 59.696214 
L 604.337949 61.660479 
L 605.354527 61.201728 
L 606.371106 64.652074 
L 607.387684 67.307703 
L 608.404263 64.23857 
L 609.420842 63.211191 
L 610.43742 60.878645 
L 611.453999 60.755884 
L 612.470578 58.268238 
L 613.487156 60.633124 
L 614.503735 60.755884 
L 615.520313 60.478048 
L 616.536892 59.896512 
L 617.553471 58.79162 
L 618.570049 59.97405 
L 619.586628 60.633124 
L 620.603206 61.12419 
L 621.619785 59.450693 
L 622.636364 60.387579 
L 622.636364 60.387579 
" clip-path="url(#paa48fe79b3)" style="fill: none; stroke: #1f77b4; stroke-width: 1.5; stroke-linecap: square"/>
   </g>
   <g id="line2d_28">
    <path d="M 115.363636 289.996774 
L 129.595737 289.996774 
L 130.612316 292.861311 
L 131.628894 289.996774 
L 151.960466 289.996774 
L 152.977045 264.215884 
L 153.993624 251.775593 
L 155.010202 227.222381 
L 156.026781 210.608028 
L 157.043359 217.48293 
L 158.059938 202.669169 
L 159.076517 195.548721 
L 160.093095 189.7378 
L 161.109674 184.745313 
L 162.126253 189.246733 
L 163.142831 184.745313 
L 164.15941 187.364341 
L 165.175988 187.118796 
L 166.192567 188.428298 
L 167.209146 179.425458 
L 168.225724 172.05949 
L 169.242303 181.226002 
L 170.258881 195.794266 
L 171.27546 171.404751 
L 172.292039 171.486575 
L 173.308617 168.049136 
L 174.325196 174.678493 
L 175.341774 172.796077 
L 176.358353 167.230676 
L 177.374932 175.742449 
L 178.39151 176.151667 
L 179.408089 190.556259 
L 180.424668 169.194941 
L 181.441246 193.257087 
L 182.457825 183.51766 
L 183.474403 172.305035 
L 184.490982 182.371831 
L 185.507561 175.251408 
L 186.524139 171.732096 
L 187.540718 177.379369 
L 188.557296 173.941906 
L 189.573875 182.699225 
L 190.590454 172.223186 
L 191.607032 174.924014 
L 192.623611 183.435812 
L 193.640189 165.921199 
L 194.656768 173.860057 
L 195.673347 183.435812 
L 196.689925 186.62773 
L 197.706504 172.550531 
L 198.723083 170.177098 
L 199.739661 172.796077 
L 200.75624 186.62773 
L 201.772818 169.686007 
L 202.789397 166.494089 
L 203.805976 177.297496 
L 204.822554 177.870411 
L 205.839133 169.686007 
L 206.855711 190.80178 
L 207.87229 172.305035 
L 208.888869 181.30785 
L 209.905447 169.604159 
L 210.922026 170.668139 
L 211.938604 164.366152 
L 212.955183 166.739634 
L 213.971762 174.432972 
L 214.98834 169.113117 
L 216.004919 172.305035 
L 217.021498 168.785723 
L 218.038076 173.860057 
L 219.054655 184.172423 
L 220.071233 170.668139 
L 221.087812 184.990859 
L 222.104391 171.732096 
L 223.120969 169.113117 
L 224.137548 177.870411 
L 225.154126 167.230676 
L 226.170705 173.614512 
L 227.187284 177.051976 
L 228.203862 175.660625 
L 229.220441 173.532688 
L 230.237019 171.732096 
L 232.270177 182.289983 
L 233.286755 177.051976 
L 234.303334 177.62489 
L 235.319913 198.249573 
L 236.336491 177.788587 
L 237.35307 177.379369 
L 238.369648 172.223186 
L 239.386227 179.425458 
L 240.402806 180.243894 
L 241.419384 186.054815 
L 242.435963 170.749988 
L 243.452541 172.796077 
L 244.46912 173.369016 
L 245.485699 180.243894 
L 246.502277 164.611697 
L 247.518856 179.670979 
L 248.535435 179.916524 
L 249.552013 180.980505 
L 250.568592 180.243894 
L 251.58517 179.916524 
L 252.601749 180.73496 
L 253.618328 164.857218 
L 254.634906 187.446165 
L 255.651485 178.034084 
L 256.668063 192.684197 
L 257.684642 176.23354 
L 258.701221 180.73496 
L 259.717799 186.054815 
L 260.734378 171.977641 
L 261.750956 172.959749 
L 262.767535 173.778185 
L 263.784114 181.471547 
L 264.800692 168.540178 
L 265.817271 166.657786 
L 266.83385 174.924014 
L 267.850428 170.668139 
L 268.867007 170.422594 
L 269.883585 179.670979 
L 270.900164 184.499768 
L 271.916743 177.215648 
L 272.933321 174.432972 
L 273.9499 177.297496 
L 274.966478 177.051976 
L 275.983057 173.369016 
L 276.999636 181.30785 
L 278.016214 182.126286 
L 279.032793 177.62489 
L 280.049371 172.05949 
L 281.06595 176.560934 
L 282.082529 173.860057 
L 283.099107 181.880789 
L 284.115686 165.34826 
L 285.132265 177.051976 
L 286.148843 178.361477 
L 287.165422 176.069843 
L 288.182 181.062329 
L 289.198579 177.95226 
L 290.215158 182.371831 
L 291.231736 168.867571 
L 292.248315 166.494089 
L 293.264893 171.322878 
L 294.281472 164.775369 
L 296.314629 177.706714 
L 297.331208 176.069843 
L 298.347786 176.315388 
L 299.364365 176.80643 
L 300.380944 173.12347 
L 301.397522 168.867571 
L 302.414101 177.62489 
L 303.43068 177.870411 
L 304.447258 168.867571 
L 305.463837 172.632404 
L 306.480415 175.251408 
L 307.496994 171.486575 
L 308.513573 181.798941 
L 309.530151 172.796077 
L 310.54673 168.049136 
L 311.563308 166.494089 
L 312.579887 171.241054 
L 313.596466 170.91366 
L 314.613044 171.241054 
L 315.629623 175.987995 
L 316.646201 164.120606 
L 317.66278 176.560934 
L 318.679359 172.796077 
L 319.695937 175.660625 
L 320.712516 171.813969 
L 321.729095 171.732096 
L 322.745673 165.184587 
L 323.762252 172.796077 
L 324.77883 163.793261 
L 325.795409 174.432972 
L 326.811988 173.614512 
L 327.828566 177.051976 
L 328.845145 165.921199 
L 329.861723 174.432972 
L 330.878302 170.995533 
L 331.894881 163.547716 
L 332.911459 169.113117 
L 333.928038 167.55807 
L 334.944617 168.376505 
L 335.961195 166.494089 
L 336.977774 168.376505 
L 337.994352 188.510122 
L 339.010931 160.928688 
L 340.02751 170.995533 
L 341.044088 172.305035 
L 342.060667 167.55807 
L 343.077245 164.366152 
L 344.093824 171.813969 
L 345.110403 177.051976 
L 346.126981 174.432972 
L 347.14356 164.611697 
L 348.160138 169.113117 
L 349.176717 170.749988 
L 350.193296 170.177098 
L 351.209874 166.985179 
L 352.226453 168.867571 
L 353.243032 169.686007 
L 354.25961 166.739634 
L 355.276189 165.675653 
L 356.292767 163.793261 
L 357.309346 174.432972 
L 358.325925 175.742449 
L 359.342503 178.934368 
L 360.359082 170.995533 
L 361.37566 170.177098 
L 362.392239 177.133824 
L 363.408818 176.560934 
L 364.425396 173.614512 
L 365.441975 172.05949 
L 366.458553 165.430132 
L 367.475132 164.611697 
L 368.491711 169.931552 
L 369.508289 163.05665 
L 370.524868 168.867571 
L 371.541447 165.675653 
L 372.558025 167.803615 
L 373.574604 170.504443 
L 374.591182 163.302171 
L 375.607761 177.62489 
L 376.62434 175.987995 
L 377.640918 172.05949 
L 378.657497 170.995533 
L 379.674075 174.432972 
L 380.690654 173.860057 
L 382.723811 174.432972 
L 383.74039 171.813969 
L 384.756968 172.877925 
L 385.773547 167.312524 
L 386.790126 170.749988 
L 387.806704 173.369016 
L 388.823283 174.105578 
L 389.839862 165.430132 
L 390.85644 167.55807 
L 391.873019 172.877925 
L 392.889597 173.941906 
L 393.906176 170.504443 
L 394.922755 168.13096 
L 395.939333 185.809294 
L 396.955912 167.803615 
L 397.97249 169.194941 
L 398.989069 176.560934 
L 400.005648 176.315388 
L 401.022226 178.934368 
L 402.038805 173.860057 
L 403.055383 176.560934 
L 404.071962 181.062329 
L 405.088541 179.752852 
L 406.105119 177.133824 
L 407.121698 178.688871 
L 408.138277 171.241054 
L 409.154855 182.126286 
L 410.171434 170.995533 
L 412.204591 176.80643 
L 413.22117 182.126286 
L 414.237748 177.051976 
L 415.254327 166.739634 
L 416.270905 177.051976 
L 417.287484 167.803615 
L 418.304063 164.939042 
L 419.320641 177.051976 
L 420.33722 167.803615 
L 421.353799 172.05949 
L 422.370377 171.732096 
L 423.386956 186.873251 
L 424.403534 173.614512 
L 425.420113 173.12347 
L 426.436692 172.305035 
L 427.45327 170.995533 
L 428.469849 174.187451 
L 429.486427 177.870411 
L 430.503006 173.369016 
L 431.519585 173.369016 
L 432.536163 181.798941 
L 433.552742 167.312524 
L 434.56932 174.432972 
L 435.585899 169.358613 
L 436.602478 168.049136 
L 437.619056 176.315388 
L 438.635635 172.877925 
L 439.652214 172.877925 
L 440.668792 175.005887 
L 441.685371 173.12347 
L 442.701949 171.568423 
L 443.718528 171.813969 
L 444.735107 171.813969 
L 445.751685 177.95226 
L 446.768264 177.870411 
L 447.784842 172.632404 
L 448.801421 174.760341 
L 449.818 169.686007 
L 450.834578 177.051976 
L 451.851157 167.067004 
L 452.867735 171.813969 
L 453.884314 171.241054 
L 454.900893 177.870411 
L 455.917471 166.003023 
L 456.93405 168.376505 
L 457.950629 164.939042 
L 458.967207 155.936202 
L 459.983786 170.995533 
L 461.000364 165.757477 
L 462.016943 166.739634 
L 463.033522 165.757477 
L 464.0501 157.082031 
L 465.066679 170.013376 
L 466.083257 164.447976 
L 467.099836 163.138474 
L 468.116415 167.55807 
L 469.132993 170.995533 
L 470.149572 163.383995 
L 471.16615 162.565559 
L 472.182729 167.067004 
L 473.199308 164.693521 
L 474.215886 167.312524 
L 475.232465 167.148852 
L 476.249044 172.141314 
L 477.265622 170.504443 
L 478.282201 169.767831 
L 479.298779 167.148852 
L 480.315358 168.867571 
L 481.331937 161.501603 
L 482.348515 167.312524 
L 483.365094 160.437622 
L 484.381672 166.494089 
L 485.398251 170.422594 
L 486.41483 158.882575 
L 487.431408 166.821458 
L 488.447987 166.821458 
L 489.464565 157.818594 
L 490.481144 174.269275 
L 491.497723 160.683167 
L 492.514301 168.949396 
L 493.53088 174.187451 
L 494.547459 165.266411 
L 495.564037 172.632404 
L 496.580616 164.20243 
L 498.613773 169.52231 
L 499.630352 175.251408 
L 500.64693 166.821458 
L 501.663509 171.568423 
L 502.680087 167.639894 
L 503.696666 173.45084 
L 504.713245 167.885439 
L 505.729823 175.824322 
L 506.746402 165.757477 
L 507.762981 160.765016 
L 508.779559 164.447976 
L 509.796138 173.205294 
L 510.812716 179.425458 
L 511.829295 164.529824 
L 512.845874 167.55807 
L 513.862452 169.440486 
L 514.879031 165.675653 
L 515.895609 168.949396 
L 516.912188 169.194941 
L 517.928767 175.742449 
L 518.945345 173.696361 
L 519.961924 178.443326 
L 520.978502 165.266411 
L 521.995081 173.205294 
L 523.01166 171.077357 
L 524.028238 164.693521 
L 525.044817 170.258922 
L 526.061396 164.939042 
L 527.077974 163.875085 
L 528.094553 176.315388 
L 529.111131 168.949396 
L 530.12771 163.875085 
L 531.144289 178.197805 
L 532.160867 171.568423 
L 533.177446 161.583451 
L 534.194024 172.959749 
L 535.210603 171.077357 
L 536.227182 180.816808 
L 537.24376 168.458329 
L 538.260339 176.888279 
L 539.276917 169.767831 
L 540.293496 178.52515 
L 541.310075 175.005887 
L 542.326653 166.003023 
L 543.343232 169.52231 
L 544.359811 174.02373 
L 545.376389 173.941906 
L 546.392968 176.80643 
L 547.409546 177.133824 
L 548.426125 172.386859 
L 549.442704 173.45084 
L 550.459282 169.440486 
L 551.475861 175.005887 
L 552.492439 175.578777 
L 553.509018 166.575913 
L 554.525597 168.13096 
L 556.558754 177.379369 
L 557.575332 171.568423 
L 558.591911 180.816808 
L 559.60849 176.560934 
L 560.625068 171.568423 
L 561.641647 170.258922 
L 562.658226 173.45084 
L 563.674804 183.435812 
L 564.691383 174.760341 
L 565.707961 175.578777 
L 566.72454 179.01624 
L 567.741119 164.447976 
L 568.757697 168.212833 
L 569.774276 172.959749 
L 570.790854 174.02373 
L 571.807433 179.589131 
L 572.824012 165.020915 
L 573.84059 172.632404 
L 574.857169 171.568423 
L 576.890326 171.568423 
L 577.906905 161.256058 
L 578.923483 176.069843 
L 579.940062 164.693521 
L 580.956641 167.312524 
L 581.973219 165.266411 
L 582.989798 162.074493 
L 584.006376 165.511956 
L 585.022955 170.749988 
L 586.039534 169.194941 
L 587.056112 162.401887 
L 588.072691 170.258922 
L 589.089269 162.074493 
L 590.105848 167.885439 
L 591.122427 162.892953 
L 592.139005 164.120606 
L 593.155584 172.877925 
L 594.172163 172.632404 
L 595.188741 171.322878 
L 596.20532 167.312524 
L 598.238477 166.739634 
L 599.255056 174.924014 
L 600.271634 170.177098 
L 601.288213 167.067004 
L 602.304791 168.13096 
L 603.32137 165.757477 
L 604.337949 167.067004 
L 605.354527 163.383995 
L 606.371106 169.440486 
L 607.387684 167.312524 
L 608.404263 166.575913 
L 609.420842 174.269275 
L 610.43742 169.767831 
L 611.453999 171.813969 
L 612.470578 167.885439 
L 614.503735 179.589131 
L 615.520313 170.258922 
L 616.536892 174.514796 
L 617.553471 167.394349 
L 618.570049 172.959749 
L 619.586628 174.760341 
L 620.603206 171.322878 
L 621.619785 168.458329 
L 622.636364 169.767831 
L 622.636364 169.767831 
" clip-path="url(#paa48fe79b3)" style="fill: none; stroke: #ff7f0e; stroke-width: 1.5; stroke-linecap: square"/>
   </g>
   <g id="patch_3">
    <path d="M 90 320.4 
L 90 43.2 
" style="fill: none; stroke: #000000; stroke-width: 0.8; stroke-linejoin: miter; stroke-linecap: square"/>
   </g>
   <g id="patch_4">
    <path d="M 648 320.4 
L 648 43.2 
" style="fill: none; stroke: #000000; stroke-width: 0.8; stroke-linejoin: miter; stroke-linecap: square"/>
   </g>
   <g id="patch_5">
    <path d="M 90 320.4 
L 648 320.4 
" style="fill: none; stroke: #000000; stroke-width: 0.8; stroke-linejoin: miter; stroke-linecap: square"/>
   </g>
   <g id="patch_6">
    <path d="M 90 43.2 
L 648 43.2 
" style="fill: none; stroke: #000000; stroke-width: 0.8; stroke-linejoin: miter; stroke-linecap: square"/>
   </g>
   <g id="text_16">
    <!-- model train and validation accracy over time -->
    <g transform="translate(233.87625 37.2) scale(0.12 -0.12)">
     <defs>
      <path id="DejaVuSans-6d" d="M 3328 2828 
Q 3544 3216 3844 3400 
Q 4144 3584 4550 3584 
Q 5097 3584 5394 3201 
Q 5691 2819 5691 2113 
L 5691 0 
L 5113 0 
L 5113 2094 
Q 5113 2597 4934 2840 
Q 4756 3084 4391 3084 
Q 3944 3084 3684 2787 
Q 3425 2491 3425 1978 
L 3425 0 
L 2847 0 
L 2847 2094 
Q 2847 2600 2669 2842 
Q 2491 3084 2119 3084 
Q 1678 3084 1418 2786 
Q 1159 2488 1159 1978 
L 1159 0 
L 581 0 
L 581 3500 
L 1159 3500 
L 1159 2956 
Q 1356 3278 1631 3431 
Q 1906 3584 2284 3584 
Q 2666 3584 2933 3390 
Q 3200 3197 3328 2828 
z
" transform="scale(0.015625)"/>
      <path id="DejaVuSans-64" d="M 2906 2969 
L 2906 4863 
L 3481 4863 
L 3481 0 
L 2906 0 
L 2906 525 
Q 2725 213 2448 61 
Q 2172 -91 1784 -91 
Q 1150 -91 751 415 
Q 353 922 353 1747 
Q 353 2572 751 3078 
Q 1150 3584 1784 3584 
Q 2172 3584 2448 3432 
Q 2725 3281 2906 2969 
z
M 947 1747 
Q 947 1113 1208 752 
Q 1469 391 1925 391 
Q 2381 391 2643 752 
Q 2906 1113 2906 1747 
Q 2906 2381 2643 2742 
Q 2381 3103 1925 3103 
Q 1469 3103 1208 2742 
Q 947 2381 947 1747 
z
" transform="scale(0.015625)"/>
      <path id="DejaVuSans-6c" d="M 603 4863 
L 1178 4863 
L 1178 0 
L 603 0 
L 603 4863 
z
" transform="scale(0.015625)"/>
      <path id="DejaVuSans-20" transform="scale(0.015625)"/>
      <path id="DejaVuSans-74" d="M 1172 4494 
L 1172 3500 
L 2356 3500 
L 2356 3053 
L 1172 3053 
L 1172 1153 
Q 1172 725 1289 603 
Q 1406 481 1766 481 
L 2356 481 
L 2356 0 
L 1766 0 
Q 1100 0 847 248 
Q 594 497 594 1153 
L 594 3053 
L 172 3053 
L 172 3500 
L 594 3500 
L 594 4494 
L 1172 4494 
z
" transform="scale(0.015625)"/>
      <path id="DejaVuSans-69" d="M 603 3500 
L 1178 3500 
L 1178 0 
L 603 0 
L 603 3500 
z
M 603 4863 
L 1178 4863 
L 1178 4134 
L 603 4134 
L 603 4863 
z
" transform="scale(0.015625)"/>
      <path id="DejaVuSans-6e" d="M 3513 2113 
L 3513 0 
L 2938 0 
L 2938 2094 
Q 2938 2591 2744 2837 
Q 2550 3084 2163 3084 
Q 1697 3084 1428 2787 
Q 1159 2491 1159 1978 
L 1159 0 
L 581 0 
L 581 3500 
L 1159 3500 
L 1159 2956 
Q 1366 3272 1645 3428 
Q 1925 3584 2291 3584 
Q 2894 3584 3203 3211 
Q 3513 2838 3513 2113 
z
" transform="scale(0.015625)"/>
      <path id="DejaVuSans-76" d="M 191 3500 
L 800 3500 
L 1894 563 
L 2988 3500 
L 3597 3500 
L 2284 0 
L 1503 0 
L 191 3500 
z
" transform="scale(0.015625)"/>
     </defs>
     <use xlink:href="#DejaVuSans-6d"/>
     <use xlink:href="#DejaVuSans-6f" x="97.412109"/>
     <use xlink:href="#DejaVuSans-64" x="158.59375"/>
     <use xlink:href="#DejaVuSans-65" x="222.070312"/>
     <use xlink:href="#DejaVuSans-6c" x="283.59375"/>
     <use xlink:href="#DejaVuSans-20" x="311.376953"/>
     <use xlink:href="#DejaVuSans-74" x="343.164062"/>
     <use xlink:href="#DejaVuSans-72" x="382.373047"/>
     <use xlink:href="#DejaVuSans-61" x="423.486328"/>
     <use xlink:href="#DejaVuSans-69" x="484.765625"/>
     <use xlink:href="#DejaVuSans-6e" x="512.548828"/>
     <use xlink:href="#DejaVuSans-20" x="575.927734"/>
     <use xlink:href="#DejaVuSans-61" x="607.714844"/>
     <use xlink:href="#DejaVuSans-6e" x="668.994141"/>
     <use xlink:href="#DejaVuSans-64" x="732.373047"/>
     <use xlink:href="#DejaVuSans-20" x="795.849609"/>
     <use xlink:href="#DejaVuSans-76" x="827.636719"/>
     <use xlink:href="#DejaVuSans-61" x="886.816406"/>
     <use xlink:href="#DejaVuSans-6c" x="948.095703"/>
     <use xlink:href="#DejaVuSans-69" x="975.878906"/>
     <use xlink:href="#DejaVuSans-64" x="1003.662109"/>
     <use xlink:href="#DejaVuSans-61" x="1067.138672"/>
     <use xlink:href="#DejaVuSans-74" x="1128.417969"/>
     <use xlink:href="#DejaVuSans-69" x="1167.626953"/>
     <use xlink:href="#DejaVuSans-6f" x="1195.410156"/>
     <use xlink:href="#DejaVuSans-6e" x="1256.591797"/>
     <use xlink:href="#DejaVuSans-20" x="1319.970703"/>
     <use xlink:href="#DejaVuSans-61" x="1351.757812"/>
     <use xlink:href="#DejaVuSans-63" x="1413.037109"/>
     <use xlink:href="#DejaVuSans-63" x="1468.017578"/>
     <use xlink:href="#DejaVuSans-72" x="1522.998047"/>
     <use xlink:href="#DejaVuSans-61" x="1564.111328"/>
     <use xlink:href="#DejaVuSans-63" x="1625.390625"/>
     <use xlink:href="#DejaVuSans-79" x="1680.371094"/>
     <use xlink:href="#DejaVuSans-20" x="1739.550781"/>
     <use xlink:href="#DejaVuSans-6f" x="1771.337891"/>
     <use xlink:href="#DejaVuSans-76" x="1832.519531"/>
     <use xlink:href="#DejaVuSans-65" x="1891.699219"/>
     <use xlink:href="#DejaVuSans-72" x="1953.222656"/>
     <use xlink:href="#DejaVuSans-20" x="1994.335938"/>
     <use xlink:href="#DejaVuSans-74" x="2026.123047"/>
     <use xlink:href="#DejaVuSans-69" x="2065.332031"/>
     <use xlink:href="#DejaVuSans-6d" x="2093.115234"/>
     <use xlink:href="#DejaVuSans-65" x="2190.527344"/>
    </g>
   </g>
   <g id="legend_1">
    <g id="patch_7">
     <path d="M 97 80.55625 
L 178.234375 80.55625 
Q 180.234375 80.55625 180.234375 78.55625 
L 180.234375 50.2 
Q 180.234375 48.2 178.234375 48.2 
L 97 48.2 
Q 95 48.2 95 50.2 
L 95 78.55625 
Q 95 80.55625 97 80.55625 
z
" style="fill: #ffffff; opacity: 0.8; stroke: #cccccc; stroke-linejoin: miter"/>
    </g>
    <g id="line2d_29">
     <path d="M 99 56.298437 
L 109 56.298437 
L 119 56.298437 
" style="fill: none; stroke: #1f77b4; stroke-width: 1.5; stroke-linecap: square"/>
    </g>
    <g id="text_17">
     <!-- train -->
     <g transform="translate(127 59.798437) scale(0.1 -0.1)">
      <use xlink:href="#DejaVuSans-74"/>
      <use xlink:href="#DejaVuSans-72" x="39.208984"/>
      <use xlink:href="#DejaVuSans-61" x="80.322266"/>
      <use xlink:href="#DejaVuSans-69" x="141.601562"/>
      <use xlink:href="#DejaVuSans-6e" x="169.384766"/>
     </g>
    </g>
    <g id="line2d_30">
     <path d="M 99 70.976562 
L 109 70.976562 
L 119 70.976562 
" style="fill: none; stroke: #ff7f0e; stroke-width: 1.5; stroke-linecap: square"/>
    </g>
    <g id="text_18">
     <!-- validation -->
     <g transform="translate(127 74.476562) scale(0.1 -0.1)">
      <use xlink:href="#DejaVuSans-76"/>
      <use xlink:href="#DejaVuSans-61" x="59.179688"/>
      <use xlink:href="#DejaVuSans-6c" x="120.458984"/>
      <use xlink:href="#DejaVuSans-69" x="148.242188"/>
      <use xlink:href="#DejaVuSans-64" x="176.025391"/>
      <use xlink:href="#DejaVuSans-61" x="239.501953"/>
      <use xlink:href="#DejaVuSans-74" x="300.78125"/>
      <use xlink:href="#DejaVuSans-69" x="339.990234"/>
      <use xlink:href="#DejaVuSans-6f" x="367.773438"/>
      <use xlink:href="#DejaVuSans-6e" x="428.955078"/>
     </g>
    </g>
   </g>
  </g>
 </g>
 <defs>
  <clipPath id="paa48fe79b3">
   <rect x="90" y="43.2" width="558" height="277.2"/>
  </clipPath>
 </defs>
</svg>
