<?xml version="1.0" encoding="utf-8" standalone="no"?>
<!DOCTYPE svg PUBLIC "-//W3C//DTD SVG 1.1//EN"
  "http://www.w3.org/Graphics/SVG/1.1/DTD/svg11.dtd">
<svg xmlns:xlink="http://www.w3.org/1999/xlink" width="720pt" height="360pt" viewBox="0 0 720 360" xmlns="http://www.w3.org/2000/svg" version="1.1">
 <metadata>
  <rdf:RDF xmlns:dc="http://purl.org/dc/elements/1.1/" xmlns:cc="http://creativecommons.org/ns#" xmlns:rdf="http://www.w3.org/1999/02/22-rdf-syntax-ns#">
   <cc:Work>
    <dc:type rdf:resource="http://purl.org/dc/dcmitype/StillImage"/>
    <dc:date>2023-05-24T12:10:36.950250</dc:date>
    <dc:format>image/svg+xml</dc:format>
    <dc:creator>
     <cc:Agent>
      <dc:title>Matplotlib v3.7.1, https://matplotlib.org/</dc:title>
     </cc:Agent>
    </dc:creator>
   </cc:Work>
  </rdf:RDF>
 </metadata>
 <defs>
  <style type="text/css">*{stroke-linejoin: round; stroke-linecap: butt}</style>
 </defs>
 <g id="figure_1">
  <g id="patch_1">
   <path d="M 0 360 
L 720 360 
L 720 0 
L 0 0 
z
" style="fill: #ffffff"/>
  </g>
  <g id="axes_1">
   <g id="patch_2">
    <path d="M 90 320.4 
L 648 320.4 
L 648 43.2 
L 90 43.2 
z
" style="fill: #ffffff"/>
   </g>
   <g id="matplotlib.axis_1">
    <g id="xtick_1">
     <g id="line2d_1">
      <path d="M 115.363636 320.4 
L 115.363636 43.2 
" clip-path="url(#p845f3360ad)" style="fill: none; stroke: #b0b0b0; stroke-width: 0.8; stroke-linecap: square"/>
     </g>
     <g id="line2d_2">
      <defs>
       <path id="m37e1fe37b9" d="M 0 0 
L 0 3.5 
" style="stroke: #000000; stroke-width: 0.8"/>
      </defs>
      <g>
       <use xlink:href="#m37e1fe37b9" x="115.363636" y="320.4" style="stroke: #000000; stroke-width: 0.8"/>
      </g>
     </g>
     <g id="text_1">
      <!-- 0 -->
      <g transform="translate(112.182386 334.998438) scale(0.1 -0.1)">
       <defs>
        <path id="DejaVuSans-30" d="M 2034 4250 
Q 1547 4250 1301 3770 
Q 1056 3291 1056 2328 
Q 1056 1369 1301 889 
Q 1547 409 2034 409 
Q 2525 409 2770 889 
Q 3016 1369 3016 2328 
Q 3016 3291 2770 3770 
Q 2525 4250 2034 4250 
z
M 2034 4750 
Q 2819 4750 3233 4129 
Q 3647 3509 3647 2328 
Q 3647 1150 3233 529 
Q 2819 -91 2034 -91 
Q 1250 -91 836 529 
Q 422 1150 422 2328 
Q 422 3509 836 4129 
Q 1250 4750 2034 4750 
z
" transform="scale(0.015625)"/>
       </defs>
       <use xlink:href="#DejaVuSans-30"/>
      </g>
     </g>
    </g>
    <g id="xtick_2">
     <g id="line2d_3">
      <path d="M 217.021498 320.4 
L 217.021498 43.2 
" clip-path="url(#p845f3360ad)" style="fill: none; stroke: #b0b0b0; stroke-width: 0.8; stroke-linecap: square"/>
     </g>
     <g id="line2d_4">
      <g>
       <use xlink:href="#m37e1fe37b9" x="217.021498" y="320.4" style="stroke: #000000; stroke-width: 0.8"/>
      </g>
     </g>
     <g id="text_2">
      <!-- 100 -->
      <g transform="translate(207.477748 334.998438) scale(0.1 -0.1)">
       <defs>
        <path id="DejaVuSans-31" d="M 794 531 
L 1825 531 
L 1825 4091 
L 703 3866 
L 703 4441 
L 1819 4666 
L 2450 4666 
L 2450 531 
L 3481 531 
L 3481 0 
L 794 0 
L 794 531 
z
" transform="scale(0.015625)"/>
       </defs>
       <use xlink:href="#DejaVuSans-31"/>
       <use xlink:href="#DejaVuSans-30" x="63.623047"/>
       <use xlink:href="#DejaVuSans-30" x="127.246094"/>
      </g>
     </g>
    </g>
    <g id="xtick_3">
     <g id="line2d_5">
      <path d="M 318.679359 320.4 
L 318.679359 43.2 
" clip-path="url(#p845f3360ad)" style="fill: none; stroke: #b0b0b0; stroke-width: 0.8; stroke-linecap: square"/>
     </g>
     <g id="line2d_6">
      <g>
       <use xlink:href="#m37e1fe37b9" x="318.679359" y="320.4" style="stroke: #000000; stroke-width: 0.8"/>
      </g>
     </g>
     <g id="text_3">
      <!-- 200 -->
      <g transform="translate(309.135609 334.998438) scale(0.1 -0.1)">
       <defs>
        <path id="DejaVuSans-32" d="M 1228 531 
L 3431 531 
L 3431 0 
L 469 0 
L 469 531 
Q 828 903 1448 1529 
Q 2069 2156 2228 2338 
Q 2531 2678 2651 2914 
Q 2772 3150 2772 3378 
Q 2772 3750 2511 3984 
Q 2250 4219 1831 4219 
Q 1534 4219 1204 4116 
Q 875 4013 500 3803 
L 500 4441 
Q 881 4594 1212 4672 
Q 1544 4750 1819 4750 
Q 2544 4750 2975 4387 
Q 3406 4025 3406 3419 
Q 3406 3131 3298 2873 
Q 3191 2616 2906 2266 
Q 2828 2175 2409 1742 
Q 1991 1309 1228 531 
z
" transform="scale(0.015625)"/>
       </defs>
       <use xlink:href="#DejaVuSans-32"/>
       <use xlink:href="#DejaVuSans-30" x="63.623047"/>
       <use xlink:href="#DejaVuSans-30" x="127.246094"/>
      </g>
     </g>
    </g>
    <g id="xtick_4">
     <g id="line2d_7">
      <path d="M 420.33722 320.4 
L 420.33722 43.2 
" clip-path="url(#p845f3360ad)" style="fill: none; stroke: #b0b0b0; stroke-width: 0.8; stroke-linecap: square"/>
     </g>
     <g id="line2d_8">
      <g>
       <use xlink:href="#m37e1fe37b9" x="420.33722" y="320.4" style="stroke: #000000; stroke-width: 0.8"/>
      </g>
     </g>
     <g id="text_4">
      <!-- 300 -->
      <g transform="translate(410.79347 334.998438) scale(0.1 -0.1)">
       <defs>
        <path id="DejaVuSans-33" d="M 2597 2516 
Q 3050 2419 3304 2112 
Q 3559 1806 3559 1356 
Q 3559 666 3084 287 
Q 2609 -91 1734 -91 
Q 1441 -91 1130 -33 
Q 819 25 488 141 
L 488 750 
Q 750 597 1062 519 
Q 1375 441 1716 441 
Q 2309 441 2620 675 
Q 2931 909 2931 1356 
Q 2931 1769 2642 2001 
Q 2353 2234 1838 2234 
L 1294 2234 
L 1294 2753 
L 1863 2753 
Q 2328 2753 2575 2939 
Q 2822 3125 2822 3475 
Q 2822 3834 2567 4026 
Q 2313 4219 1838 4219 
Q 1578 4219 1281 4162 
Q 984 4106 628 3988 
L 628 4550 
Q 988 4650 1302 4700 
Q 1616 4750 1894 4750 
Q 2613 4750 3031 4423 
Q 3450 4097 3450 3541 
Q 3450 3153 3228 2886 
Q 3006 2619 2597 2516 
z
" transform="scale(0.015625)"/>
       </defs>
       <use xlink:href="#DejaVuSans-33"/>
       <use xlink:href="#DejaVuSans-30" x="63.623047"/>
       <use xlink:href="#DejaVuSans-30" x="127.246094"/>
      </g>
     </g>
    </g>
    <g id="xtick_5">
     <g id="line2d_9">
      <path d="M 521.995081 320.4 
L 521.995081 43.2 
" clip-path="url(#p845f3360ad)" style="fill: none; stroke: #b0b0b0; stroke-width: 0.8; stroke-linecap: square"/>
     </g>
     <g id="line2d_10">
      <g>
       <use xlink:href="#m37e1fe37b9" x="521.995081" y="320.4" style="stroke: #000000; stroke-width: 0.8"/>
      </g>
     </g>
     <g id="text_5">
      <!-- 400 -->
      <g transform="translate(512.451331 334.998438) scale(0.1 -0.1)">
       <defs>
        <path id="DejaVuSans-34" d="M 2419 4116 
L 825 1625 
L 2419 1625 
L 2419 4116 
z
M 2253 4666 
L 3047 4666 
L 3047 1625 
L 3713 1625 
L 3713 1100 
L 3047 1100 
L 3047 0 
L 2419 0 
L 2419 1100 
L 313 1100 
L 313 1709 
L 2253 4666 
z
" transform="scale(0.015625)"/>
       </defs>
       <use xlink:href="#DejaVuSans-34"/>
       <use xlink:href="#DejaVuSans-30" x="63.623047"/>
       <use xlink:href="#DejaVuSans-30" x="127.246094"/>
      </g>
     </g>
    </g>
    <g id="xtick_6">
     <g id="line2d_11">
      <path d="M 623.652942 320.4 
L 623.652942 43.2 
" clip-path="url(#p845f3360ad)" style="fill: none; stroke: #b0b0b0; stroke-width: 0.8; stroke-linecap: square"/>
     </g>
     <g id="line2d_12">
      <g>
       <use xlink:href="#m37e1fe37b9" x="623.652942" y="320.4" style="stroke: #000000; stroke-width: 0.8"/>
      </g>
     </g>
     <g id="text_6">
      <!-- 500 -->
      <g transform="translate(614.109192 334.998438) scale(0.1 -0.1)">
       <defs>
        <path id="DejaVuSans-35" d="M 691 4666 
L 3169 4666 
L 3169 4134 
L 1269 4134 
L 1269 2991 
Q 1406 3038 1543 3061 
Q 1681 3084 1819 3084 
Q 2600 3084 3056 2656 
Q 3513 2228 3513 1497 
Q 3513 744 3044 326 
Q 2575 -91 1722 -91 
Q 1428 -91 1123 -41 
Q 819 9 494 109 
L 494 744 
Q 775 591 1075 516 
Q 1375 441 1709 441 
Q 2250 441 2565 725 
Q 2881 1009 2881 1497 
Q 2881 1984 2565 2268 
Q 2250 2553 1709 2553 
Q 1456 2553 1204 2497 
Q 953 2441 691 2322 
L 691 4666 
z
" transform="scale(0.015625)"/>
       </defs>
       <use xlink:href="#DejaVuSans-35"/>
       <use xlink:href="#DejaVuSans-30" x="63.623047"/>
       <use xlink:href="#DejaVuSans-30" x="127.246094"/>
      </g>
     </g>
    </g>
    <g id="text_7">
     <!-- epoch -->
     <g transform="translate(353.771875 348.676562) scale(0.1 -0.1)">
      <defs>
       <path id="DejaVuSans-65" d="M 3597 1894 
L 3597 1613 
L 953 1613 
Q 991 1019 1311 708 
Q 1631 397 2203 397 
Q 2534 397 2845 478 
Q 3156 559 3463 722 
L 3463 178 
Q 3153 47 2828 -22 
Q 2503 -91 2169 -91 
Q 1331 -91 842 396 
Q 353 884 353 1716 
Q 353 2575 817 3079 
Q 1281 3584 2069 3584 
Q 2775 3584 3186 3129 
Q 3597 2675 3597 1894 
z
M 3022 2063 
Q 3016 2534 2758 2815 
Q 2500 3097 2075 3097 
Q 1594 3097 1305 2825 
Q 1016 2553 972 2059 
L 3022 2063 
z
" transform="scale(0.015625)"/>
       <path id="DejaVuSans-70" d="M 1159 525 
L 1159 -1331 
L 581 -1331 
L 581 3500 
L 1159 3500 
L 1159 2969 
Q 1341 3281 1617 3432 
Q 1894 3584 2278 3584 
Q 2916 3584 3314 3078 
Q 3713 2572 3713 1747 
Q 3713 922 3314 415 
Q 2916 -91 2278 -91 
Q 1894 -91 1617 61 
Q 1341 213 1159 525 
z
M 3116 1747 
Q 3116 2381 2855 2742 
Q 2594 3103 2138 3103 
Q 1681 3103 1420 2742 
Q 1159 2381 1159 1747 
Q 1159 1113 1420 752 
Q 1681 391 2138 391 
Q 2594 391 2855 752 
Q 3116 1113 3116 1747 
z
" transform="scale(0.015625)"/>
       <path id="DejaVuSans-6f" d="M 1959 3097 
Q 1497 3097 1228 2736 
Q 959 2375 959 1747 
Q 959 1119 1226 758 
Q 1494 397 1959 397 
Q 2419 397 2687 759 
Q 2956 1122 2956 1747 
Q 2956 2369 2687 2733 
Q 2419 3097 1959 3097 
z
M 1959 3584 
Q 2709 3584 3137 3096 
Q 3566 2609 3566 1747 
Q 3566 888 3137 398 
Q 2709 -91 1959 -91 
Q 1206 -91 779 398 
Q 353 888 353 1747 
Q 353 2609 779 3096 
Q 1206 3584 1959 3584 
z
" transform="scale(0.015625)"/>
       <path id="DejaVuSans-63" d="M 3122 3366 
L 3122 2828 
Q 2878 2963 2633 3030 
Q 2388 3097 2138 3097 
Q 1578 3097 1268 2742 
Q 959 2388 959 1747 
Q 959 1106 1268 751 
Q 1578 397 2138 397 
Q 2388 397 2633 464 
Q 2878 531 3122 666 
L 3122 134 
Q 2881 22 2623 -34 
Q 2366 -91 2075 -91 
Q 1284 -91 818 406 
Q 353 903 353 1747 
Q 353 2603 823 3093 
Q 1294 3584 2113 3584 
Q 2378 3584 2631 3529 
Q 2884 3475 3122 3366 
z
" transform="scale(0.015625)"/>
       <path id="DejaVuSans-68" d="M 3513 2113 
L 3513 0 
L 2938 0 
L 2938 2094 
Q 2938 2591 2744 2837 
Q 2550 3084 2163 3084 
Q 1697 3084 1428 2787 
Q 1159 2491 1159 1978 
L 1159 0 
L 581 0 
L 581 4863 
L 1159 4863 
L 1159 2956 
Q 1366 3272 1645 3428 
Q 1925 3584 2291 3584 
Q 2894 3584 3203 3211 
Q 3513 2838 3513 2113 
z
" transform="scale(0.015625)"/>
      </defs>
      <use xlink:href="#DejaVuSans-65"/>
      <use xlink:href="#DejaVuSans-70" x="61.523438"/>
      <use xlink:href="#DejaVuSans-6f" x="125"/>
      <use xlink:href="#DejaVuSans-63" x="186.181641"/>
      <use xlink:href="#DejaVuSans-68" x="241.162109"/>
     </g>
    </g>
   </g>
   <g id="matplotlib.axis_2">
    <g id="ytick_1">
     <g id="line2d_13">
      <path d="M 90 294.46703 
L 648 294.46703 
" clip-path="url(#p845f3360ad)" style="fill: none; stroke: #b0b0b0; stroke-width: 0.8; stroke-linecap: square"/>
     </g>
     <g id="line2d_14">
      <defs>
       <path id="m7fe0e84655" d="M 0 0 
L -3.5 0 
" style="stroke: #000000; stroke-width: 0.8"/>
      </defs>
      <g>
       <use xlink:href="#m7fe0e84655" x="90" y="294.46703" style="stroke: #000000; stroke-width: 0.8"/>
      </g>
     </g>
     <g id="text_8">
      <!-- 0.4 -->
      <g transform="translate(67.096875 298.266249) scale(0.1 -0.1)">
       <defs>
        <path id="DejaVuSans-2e" d="M 684 794 
L 1344 794 
L 1344 0 
L 684 0 
L 684 794 
z
" transform="scale(0.015625)"/>
       </defs>
       <use xlink:href="#DejaVuSans-30"/>
       <use xlink:href="#DejaVuSans-2e" x="63.623047"/>
       <use xlink:href="#DejaVuSans-34" x="95.410156"/>
      </g>
     </g>
    </g>
    <g id="ytick_2">
     <g id="line2d_15">
      <path d="M 90 240.761389 
L 648 240.761389 
" clip-path="url(#p845f3360ad)" style="fill: none; stroke: #b0b0b0; stroke-width: 0.8; stroke-linecap: square"/>
     </g>
     <g id="line2d_16">
      <g>
       <use xlink:href="#m7fe0e84655" x="90" y="240.761389" style="stroke: #000000; stroke-width: 0.8"/>
      </g>
     </g>
     <g id="text_9">
      <!-- 0.5 -->
      <g transform="translate(67.096875 244.560608) scale(0.1 -0.1)">
       <use xlink:href="#DejaVuSans-30"/>
       <use xlink:href="#DejaVuSans-2e" x="63.623047"/>
       <use xlink:href="#DejaVuSans-35" x="95.410156"/>
      </g>
     </g>
    </g>
    <g id="ytick_3">
     <g id="line2d_17">
      <path d="M 90 187.055748 
L 648 187.055748 
" clip-path="url(#p845f3360ad)" style="fill: none; stroke: #b0b0b0; stroke-width: 0.8; stroke-linecap: square"/>
     </g>
     <g id="line2d_18">
      <g>
       <use xlink:href="#m7fe0e84655" x="90" y="187.055748" style="stroke: #000000; stroke-width: 0.8"/>
      </g>
     </g>
     <g id="text_10">
      <!-- 0.6 -->
      <g transform="translate(67.096875 190.854967) scale(0.1 -0.1)">
       <defs>
        <path id="DejaVuSans-36" d="M 2113 2584 
Q 1688 2584 1439 2293 
Q 1191 2003 1191 1497 
Q 1191 994 1439 701 
Q 1688 409 2113 409 
Q 2538 409 2786 701 
Q 3034 994 3034 1497 
Q 3034 2003 2786 2293 
Q 2538 2584 2113 2584 
z
M 3366 4563 
L 3366 3988 
Q 3128 4100 2886 4159 
Q 2644 4219 2406 4219 
Q 1781 4219 1451 3797 
Q 1122 3375 1075 2522 
Q 1259 2794 1537 2939 
Q 1816 3084 2150 3084 
Q 2853 3084 3261 2657 
Q 3669 2231 3669 1497 
Q 3669 778 3244 343 
Q 2819 -91 2113 -91 
Q 1303 -91 875 529 
Q 447 1150 447 2328 
Q 447 3434 972 4092 
Q 1497 4750 2381 4750 
Q 2619 4750 2861 4703 
Q 3103 4656 3366 4563 
z
" transform="scale(0.015625)"/>
       </defs>
       <use xlink:href="#DejaVuSans-30"/>
       <use xlink:href="#DejaVuSans-2e" x="63.623047"/>
       <use xlink:href="#DejaVuSans-36" x="95.410156"/>
      </g>
     </g>
    </g>
    <g id="ytick_4">
     <g id="line2d_19">
      <path d="M 90 133.350107 
L 648 133.350107 
" clip-path="url(#p845f3360ad)" style="fill: none; stroke: #b0b0b0; stroke-width: 0.8; stroke-linecap: square"/>
     </g>
     <g id="line2d_20">
      <g>
       <use xlink:href="#m7fe0e84655" x="90" y="133.350107" style="stroke: #000000; stroke-width: 0.8"/>
      </g>
     </g>
     <g id="text_11">
      <!-- 0.7 -->
      <g transform="translate(67.096875 137.149326) scale(0.1 -0.1)">
       <defs>
        <path id="DejaVuSans-37" d="M 525 4666 
L 3525 4666 
L 3525 4397 
L 1831 0 
L 1172 0 
L 2766 4134 
L 525 4134 
L 525 4666 
z
" transform="scale(0.015625)"/>
       </defs>
       <use xlink:href="#DejaVuSans-30"/>
       <use xlink:href="#DejaVuSans-2e" x="63.623047"/>
       <use xlink:href="#DejaVuSans-37" x="95.410156"/>
      </g>
     </g>
    </g>
    <g id="ytick_5">
     <g id="line2d_21">
      <path d="M 90 79.644466 
L 648 79.644466 
" clip-path="url(#p845f3360ad)" style="fill: none; stroke: #b0b0b0; stroke-width: 0.8; stroke-linecap: square"/>
     </g>
     <g id="line2d_22">
      <g>
       <use xlink:href="#m7fe0e84655" x="90" y="79.644466" style="stroke: #000000; stroke-width: 0.8"/>
      </g>
     </g>
     <g id="text_12">
      <!-- 0.8 -->
      <g transform="translate(67.096875 83.443685) scale(0.1 -0.1)">
       <defs>
        <path id="DejaVuSans-38" d="M 2034 2216 
Q 1584 2216 1326 1975 
Q 1069 1734 1069 1313 
Q 1069 891 1326 650 
Q 1584 409 2034 409 
Q 2484 409 2743 651 
Q 3003 894 3003 1313 
Q 3003 1734 2745 1975 
Q 2488 2216 2034 2216 
z
M 1403 2484 
Q 997 2584 770 2862 
Q 544 3141 544 3541 
Q 544 4100 942 4425 
Q 1341 4750 2034 4750 
Q 2731 4750 3128 4425 
Q 3525 4100 3525 3541 
Q 3525 3141 3298 2862 
Q 3072 2584 2669 2484 
Q 3125 2378 3379 2068 
Q 3634 1759 3634 1313 
Q 3634 634 3220 271 
Q 2806 -91 2034 -91 
Q 1263 -91 848 271 
Q 434 634 434 1313 
Q 434 1759 690 2068 
Q 947 2378 1403 2484 
z
M 1172 3481 
Q 1172 3119 1398 2916 
Q 1625 2713 2034 2713 
Q 2441 2713 2670 2916 
Q 2900 3119 2900 3481 
Q 2900 3844 2670 4047 
Q 2441 4250 2034 4250 
Q 1625 4250 1398 4047 
Q 1172 3844 1172 3481 
z
" transform="scale(0.015625)"/>
       </defs>
       <use xlink:href="#DejaVuSans-30"/>
       <use xlink:href="#DejaVuSans-2e" x="63.623047"/>
       <use xlink:href="#DejaVuSans-38" x="95.410156"/>
      </g>
     </g>
    </g>
    <g id="text_13">
     <!-- accruacy -->
     <g transform="translate(61.017187 204.359375) rotate(-90) scale(0.1 -0.1)">
      <defs>
       <path id="DejaVuSans-61" d="M 2194 1759 
Q 1497 1759 1228 1600 
Q 959 1441 959 1056 
Q 959 750 1161 570 
Q 1363 391 1709 391 
Q 2188 391 2477 730 
Q 2766 1069 2766 1631 
L 2766 1759 
L 2194 1759 
z
M 3341 1997 
L 3341 0 
L 2766 0 
L 2766 531 
Q 2569 213 2275 61 
Q 1981 -91 1556 -91 
Q 1019 -91 701 211 
Q 384 513 384 1019 
Q 384 1609 779 1909 
Q 1175 2209 1959 2209 
L 2766 2209 
L 2766 2266 
Q 2766 2663 2505 2880 
Q 2244 3097 1772 3097 
Q 1472 3097 1187 3025 
Q 903 2953 641 2809 
L 641 3341 
Q 956 3463 1253 3523 
Q 1550 3584 1831 3584 
Q 2591 3584 2966 3190 
Q 3341 2797 3341 1997 
z
" transform="scale(0.015625)"/>
       <path id="DejaVuSans-72" d="M 2631 2963 
Q 2534 3019 2420 3045 
Q 2306 3072 2169 3072 
Q 1681 3072 1420 2755 
Q 1159 2438 1159 1844 
L 1159 0 
L 581 0 
L 581 3500 
L 1159 3500 
L 1159 2956 
Q 1341 3275 1631 3429 
Q 1922 3584 2338 3584 
Q 2397 3584 2469 3576 
Q 2541 3569 2628 3553 
L 2631 2963 
z
" transform="scale(0.015625)"/>
       <path id="DejaVuSans-75" d="M 544 1381 
L 544 3500 
L 1119 3500 
L 1119 1403 
Q 1119 906 1312 657 
Q 1506 409 1894 409 
Q 2359 409 2629 706 
Q 2900 1003 2900 1516 
L 2900 3500 
L 3475 3500 
L 3475 0 
L 2900 0 
L 2900 538 
Q 2691 219 2414 64 
Q 2138 -91 1772 -91 
Q 1169 -91 856 284 
Q 544 659 544 1381 
z
M 1991 3584 
L 1991 3584 
z
" transform="scale(0.015625)"/>
       <path id="DejaVuSans-79" d="M 2059 -325 
Q 1816 -950 1584 -1140 
Q 1353 -1331 966 -1331 
L 506 -1331 
L 506 -850 
L 844 -850 
Q 1081 -850 1212 -737 
Q 1344 -625 1503 -206 
L 1606 56 
L 191 3500 
L 800 3500 
L 1894 763 
L 2988 3500 
L 3597 3500 
L 2059 -325 
z
" transform="scale(0.015625)"/>
      </defs>
      <use xlink:href="#DejaVuSans-61"/>
      <use xlink:href="#DejaVuSans-63" x="61.279297"/>
      <use xlink:href="#DejaVuSans-63" x="116.259766"/>
      <use xlink:href="#DejaVuSans-72" x="171.240234"/>
      <use xlink:href="#DejaVuSans-75" x="212.353516"/>
      <use xlink:href="#DejaVuSans-61" x="275.732422"/>
      <use xlink:href="#DejaVuSans-63" x="337.011719"/>
      <use xlink:href="#DejaVuSans-79" x="391.992188"/>
     </g>
    </g>
   </g>
   <g id="line2d_23">
    <path d="M 115.363636 304.742368 
L 116.380215 303.97796 
L 117.396794 304.742368 
L 118.413372 305.124596 
L 120.446529 305.124596 
L 121.463108 305.889004 
L 122.479687 303.213568 
L 123.496265 304.742368 
L 124.512844 305.506792 
L 125.529422 305.506792 
L 126.546001 307.035608 
L 127.56258 305.889004 
L 128.579158 305.506792 
L 129.595737 305.506792 
L 130.612316 305.124596 
L 131.628894 302.831356 
L 132.645473 305.889004 
L 133.662051 304.742368 
L 134.67863 302.831356 
L 135.695209 304.360172 
L 136.711787 307.035608 
L 137.728366 306.2712 
L 138.744944 305.124596 
L 139.761523 304.742368 
L 140.778102 307.035608 
L 141.79468 305.506792 
L 142.811259 305.124596 
L 144.844416 305.889004 
L 145.860995 305.124596 
L 146.877573 306.2712 
L 147.894152 303.595764 
L 148.910731 305.889004 
L 149.927309 307.035608 
L 150.943888 305.124596 
L 151.960466 305.124596 
L 153.993624 304.360172 
L 155.010202 303.595764 
L 156.026781 306.653396 
L 157.043359 305.506792 
L 158.059938 305.124596 
L 159.076517 306.2712 
L 160.093095 302.44916 
L 161.109674 307.8 
L 162.126253 305.506792 
L 163.142831 307.417804 
L 164.15941 303.595764 
L 165.175988 305.889004 
L 166.192567 305.889004 
L 167.209146 303.595764 
L 168.225724 303.97796 
L 169.242303 273.35916 
L 170.258881 237.916086 
L 171.27546 235.240666 
L 172.292039 235.435998 
L 173.308617 233.338121 
L 174.325196 233.80529 
L 175.341774 231.503567 
L 176.358353 232.021666 
L 177.374932 231.257242 
L 178.39151 227.367259 
L 179.408089 227.63055 
L 180.424668 225.108014 
L 182.457825 217.141167 
L 184.490982 212.665125 
L 185.507561 207.297287 
L 186.524139 204.333095 
L 187.540718 202.702356 
L 188.557296 195.398009 
L 189.573875 190.352906 
L 191.607032 177.128659 
L 192.623611 175.107192 
L 193.640189 173.595374 
L 194.656768 169.705391 
L 195.673347 172.559176 
L 196.689925 169.943201 
L 197.706504 169.255219 
L 198.723083 169.654397 
L 199.739661 166.732684 
L 200.75624 167.683956 
L 201.772818 167.165825 
L 202.789397 164.473439 
L 203.805976 160.93164 
L 204.822554 161.848949 
L 205.839133 161.891428 
L 206.855711 160.056842 
L 207.87229 161.526213 
L 208.888869 161.466737 
L 209.905447 158.264735 
L 210.922026 160.277686 
L 211.938604 154.672006 
L 212.955183 157.925002 
L 214.98834 150.866948 
L 216.004919 151.266158 
L 217.021498 151.988103 
L 218.038076 150.501766 
L 219.054655 148.463334 
L 220.071233 149.550493 
L 221.087812 146.764635 
L 222.104391 147.070405 
L 223.120969 143.622077 
L 224.137548 145.73692 
L 225.154126 145.252817 
L 226.170705 140.734296 
L 227.187284 141.201433 
L 228.203862 140.17375 
L 229.220441 140.555962 
L 230.237019 136.462132 
L 231.253598 135.65523 
L 232.270177 136.05444 
L 233.286755 138.976153 
L 234.303334 132.708004 
L 235.319913 132.487192 
L 236.336491 134.177375 
L 237.35307 132.385268 
L 238.369648 126.032194 
L 239.386227 129.259677 
L 240.402806 126.796586 
L 241.419384 130.567681 
L 243.452541 124.095685 
L 244.46912 124.121134 
L 245.485699 119.823457 
L 246.502277 123.917287 
L 247.518856 121.530671 
L 249.552013 119.959376 
L 251.58517 114.090437 
L 252.601749 117.937942 
L 253.618328 111.831161 
L 254.634906 112.756953 
L 255.651485 110.922367 
L 256.668063 110.319343 
L 257.684642 107.032351 
L 258.701221 110.21742 
L 259.717799 111.686791 
L 260.734378 108.765046 
L 261.750956 104.654186 
L 262.767535 106.590695 
L 263.784114 104.407925 
L 264.800692 106.004637 
L 265.817271 105.495085 
L 266.83385 103.218842 
L 267.850428 104.407925 
L 268.867007 105.172317 
L 269.883585 105.741346 
L 270.900164 103.966236 
L 271.916743 103.337731 
L 272.933321 103.90676 
L 273.9499 101.528627 
L 274.966478 100.458433 
L 275.983057 103.397208 
L 276.999636 101.18041 
L 278.016214 98.564403 
L 279.032793 102.513863 
L 280.049371 98.241667 
L 281.06595 100.432984 
L 282.082529 98.301112 
L 283.099107 99.609084 
L 284.115686 96.27971 
L 285.132265 100.900089 
L 286.148843 97.213952 
L 287.165422 96.806259 
L 288.182 99.668592 
L 289.198579 96.542968 
L 290.215158 99.405301 
L 291.231736 96.203235 
L 292.248315 96.364603 
L 293.264893 96.27971 
L 294.281472 97.146025 
L 295.298051 94.105359 
L 296.314629 94.648938 
L 297.331208 91.948037 
L 298.347786 95.999389 
L 299.364365 94.648938 
L 300.380944 93.052195 
L 301.397522 94.181833 
L 302.414101 93.740144 
L 303.43068 95.167069 
L 304.447258 92.610506 
L 305.463837 95.855051 
L 306.480415 90.555108 
L 307.496994 94.181833 
L 308.513573 93.5193 
L 309.530151 94.266726 
L 310.54673 97.222467 
L 311.563308 92.228326 
L 312.579887 95.97394 
L 313.596466 93.417377 
L 314.613044 91.4809 
L 315.629623 92.746425 
L 316.646201 93.476853 
L 317.66278 91.540345 
L 318.679359 94.037431 
L 319.695937 93.672217 
L 320.712516 91.039244 
L 321.729095 91.378977 
L 322.745673 89.077286 
L 323.762252 92.126403 
L 324.77883 88.618599 
L 325.795409 90.147447 
L 326.811988 92.304801 
L 327.828566 88.134496 
L 328.845145 90.954318 
L 329.861723 92.304801 
L 330.878302 89.000811 
L 331.894881 86.724569 
L 332.911459 87.446515 
L 333.928038 91.684746 
L 334.944617 89.162179 
L 335.961195 90.691027 
L 336.977774 89.926603 
L 337.994352 88.414753 
L 339.010931 88.049571 
L 340.02751 90.325813 
L 341.044088 88.109047 
L 342.060667 86.699088 
L 343.077245 86.622646 
L 344.093824 86.945414 
L 345.110403 86.03662 
L 346.126981 87.607882 
L 347.14356 87.803278 
L 348.160138 87.123747 
L 349.176717 84.422846 
L 350.193296 85.18727 
L 351.209874 87.76925 
L 352.226453 88.754518 
L 353.243032 86.197987 
L 354.25961 89.213173 
L 355.276189 84.057632 
L 356.292767 89.578387 
L 357.309346 86.495274 
L 358.325925 87.22567 
L 359.342503 88.151462 
L 360.359082 86.537721 
L 361.37566 84.643691 
L 362.392239 86.495274 
L 363.408818 86.919965 
L 364.425396 85.56945 
L 365.441975 85.773297 
L 366.458553 87.93065 
L 367.475132 84.057632 
L 368.491711 83.896264 
L 369.508289 85.433563 
L 370.524868 86.011171 
L 371.541447 85.832773 
L 372.558025 83.531082 
L 373.574604 86.877486 
L 374.591182 85.527036 
L 375.607761 85.790327 
L 376.62434 83.794341 
L 377.640918 86.699088 
L 378.657497 85.425112 
L 379.674075 83.794341 
L 380.690654 85.773297 
L 381.707233 83.089394 
L 382.723811 86.919965 
L 383.74039 80.167649 
L 384.756968 83.794341 
L 385.773547 83.573497 
L 386.790126 80.872596 
L 387.806704 83.666969 
L 388.823283 83.955709 
L 389.839862 84.76258 
L 390.85644 82.121123 
L 391.873019 82.605258 
L 392.889597 81.577543 
L 393.906176 78.876643 
L 394.922755 80.830117 
L 395.939333 81.314253 
L 396.955912 78.715275 
L 397.97249 79.74299 
L 398.989069 78.613352 
L 400.005648 79.683513 
L 401.022226 81.356731 
L 402.038805 78.553907 
L 403.055383 80.94907 
L 404.071962 79.114453 
L 405.088541 78.010327 
L 406.105119 78.851194 
L 407.121698 80.006281 
L 408.138277 77.704558 
L 409.154855 79.29285 
L 410.171434 79.759956 
L 412.204591 79.700511 
L 414.237748 76.940134 
L 415.254327 76.456031 
L 416.270905 78.910638 
L 417.287484 75.929417 
L 418.304063 80.447937 
L 419.320641 77.458265 
L 420.33722 73.372918 
L 421.353799 75.18199 
L 422.370377 75.326392 
L 423.386956 76.252184 
L 424.403534 77.645113 
L 425.420113 78.061289 
L 426.436692 78.791717 
L 427.45327 77.526192 
L 428.469849 77.177944 
L 429.486427 77.262901 
L 430.503006 75.046104 
L 431.519585 75.48776 
L 432.536163 73.83154 
L 433.552742 76.515475 
L 434.56932 75.623711 
L 435.585899 79.420222 
L 436.602478 78.876643 
L 437.619056 74.740334 
L 438.635635 74.655441 
L 439.652214 75.224469 
L 440.668792 73.551283 
L 441.685371 78.48598 
L 442.701949 77.39882 
L 443.718528 75.827493 
L 444.735107 76.872238 
L 445.751685 73.729617 
L 447.784842 76.914685 
L 448.801421 72.039433 
L 449.818 74.901734 
L 450.834578 75.810528 
L 451.851157 75.751083 
L 452.867735 76.736287 
L 453.884314 75.402835 
L 454.900893 73.670172 
L 455.917471 75.683156 
L 456.93405 74.595964 
L 457.950629 76.388103 
L 458.967207 74.13731 
L 459.983786 73.670172 
L 462.016943 70.264324 
L 463.033522 75.224469 
L 464.0501 76.065336 
L 465.066679 72.217799 
L 466.083257 69.941556 
L 467.099836 71.93751 
L 468.116415 76.549471 
L 469.132993 77.296897 
L 470.149572 72.421645 
L 471.16615 72.600011 
L 472.182729 70.867348 
L 473.199308 72.362201 
L 474.215886 73.279509 
L 475.232465 71.453407 
L 476.249044 72.234829 
L 477.265622 69.916076 
L 479.298779 71.164635 
L 480.315358 69.59334 
L 481.331937 72.234829 
L 482.348515 70.017999 
L 483.365094 70.502134 
L 484.381672 71.470372 
L 485.398251 74.612962 
L 486.41483 74.043901 
L 487.431408 68.370294 
L 488.447987 67.860678 
L 489.464565 69.635787 
L 490.481144 68.769472 
L 491.497723 66.671595 
L 492.514301 69.856631 
L 493.53088 68.726993 
L 494.547459 70.544581 
L 495.564037 69.89911 
L 496.580616 70.136952 
L 497.597194 68.930839 
L 498.613773 68.565625 
L 499.630352 70.485136 
L 500.64693 66.934886 
L 501.663509 68.183413 
L 502.680087 66.348828 
L 503.696666 70.017999 
L 504.713245 65.745803 
L 505.729823 66.815997 
L 506.746402 68.565625 
L 507.762981 69.414975 
L 508.779559 66.229938 
L 509.796138 71.750693 
L 510.812716 69.092207 
L 511.829295 69.414975 
L 512.845874 66.671595 
L 513.862452 67.818199 
L 514.879031 68.285336 
L 515.895609 68.506181 
L 516.912188 67.376543 
L 517.928767 69.151684 
L 518.945345 66.832963 
L 519.961924 70.213362 
L 520.978502 66.773518 
L 521.995081 64.981411 
L 523.01166 66.128015 
L 524.028238 65.33811 
L 525.044817 69.635787 
L 526.061396 68.183413 
L 527.077974 67.15573 
L 528.094553 65.864724 
L 529.111131 71.207082 
L 530.12771 67.622868 
L 531.144289 67.053807 
L 532.160867 63.265747 
L 533.177446 64.896454 
L 534.194024 67.215175 
L 535.210603 66.790484 
L 536.227182 65.839276 
L 537.24376 66.501744 
L 538.260339 64.352874 
L 539.276917 69.516898 
L 540.293496 68.022045 
L 541.310075 68.157964 
L 542.326653 68.871395 
L 543.343232 64.310427 
L 544.359811 64.556721 
L 545.376389 63.486559 
L 546.392968 62.841056 
L 547.409546 67.172696 
L 548.426125 65.660878 
L 549.442704 65.015375 
L 550.459282 62.959977 
L 551.475861 65.924169 
L 552.492439 63.359187 
L 553.509018 66.102566 
L 554.525597 61.227315 
L 555.542175 65.380589 
L 556.558754 66.000643 
L 557.575332 67.53791 
L 558.591911 66.433785 
L 559.60849 64.149028 
L 560.625068 64.913452 
L 561.641647 63.282713 
L 562.658226 60.479888 
L 563.674804 61.524569 
L 564.691383 61.78786 
L 565.707961 64.573718 
L 566.72454 60.845103 
L 567.741119 64.327425 
L 568.757697 57.354297 
L 569.774276 65.278666 
L 570.790854 58.73026 
L 571.807433 62.09363 
L 572.824012 61.422678 
L 573.84059 66.170494 
L 574.857169 66.467749 
L 575.873747 66.306381 
L 576.890326 62.212551 
L 577.906905 63.44408 
L 578.923483 62.654207 
L 579.940062 63.461078 
L 580.956641 61.184836 
L 581.973219 62.917498 
L 582.989798 62.976943 
L 584.006376 61.872818 
L 585.022955 63.325191 
L 586.039534 62.917498 
L 587.056112 63.928215 
L 588.072691 63.282713 
L 589.089269 61.201834 
L 590.105848 60.964024 
L 591.122427 61.125391 
L 592.139005 62.450393 
L 593.155584 64.267949 
L 594.172163 60.8621 
L 595.188741 62.492808 
L 596.20532 59.732462 
L 597.221898 60.479888 
L 598.238477 60.938575 
L 599.255056 55.8 
L 600.271634 57.940355 
L 601.288213 63.503557 
L 603.32137 60.641256 
L 604.337949 63.078866 
L 605.354527 61.745446 
L 606.371106 64.412351 
L 607.387684 63.478076 
L 608.404263 64.972928 
L 609.420842 60.301523 
L 610.43742 57.897877 
L 611.453999 57.413773 
L 612.470578 62.433363 
L 613.487156 64.429317 
L 614.503735 61.78786 
L 615.520313 60.964024 
L 616.536892 60.598777 
L 617.553471 59.027515 
L 618.570049 56.564424 
L 619.586628 56.080289 
L 620.603206 60.250593 
L 621.619785 57.736509 
L 622.636364 57.515697 
L 622.636364 57.515697 
" clip-path="url(#p845f3360ad)" style="fill: none; stroke: #1f77b4; stroke-width: 1.5; stroke-linecap: square"/>
   </g>
   <g id="line2d_24">
    <path d="M 115.363636 291.540768 
L 168.225724 291.540768 
L 169.242303 231.939558 
L 170.258881 223.978376 
L 171.27546 228.496897 
L 172.292039 223.978376 
L 173.308617 225.054204 
L 174.325196 222.257046 
L 175.341774 220.535683 
L 176.358353 222.579781 
L 178.39151 225.376971 
L 179.408089 226.452799 
L 180.424668 222.68737 
L 181.441246 228.174129 
L 182.457825 214.941367 
L 183.474403 215.694459 
L 184.490982 221.934278 
L 185.507561 224.623879 
L 186.524139 225.807296 
L 187.540718 223.010138 
L 188.557296 226.883124 
L 189.573875 223.117695 
L 190.590454 218.168882 
L 191.607032 224.51629 
L 192.623611 216.447551 
L 193.640189 229.680282 
L 194.656768 228.281719 
L 195.673347 220.320537 
L 196.689925 222.041867 
L 197.706504 211.606263 
L 198.723083 220.643304 
L 199.739661 214.726189 
L 200.75624 214.080686 
L 201.772818 217.846114 
L 202.789397 218.921942 
L 203.805976 220.643304 
L 204.822554 214.726189 
L 205.839133 216.447551 
L 206.855711 220.643304 
L 207.87229 222.041867 
L 208.888869 220.643304 
L 209.905447 213.004858 
L 210.922026 214.403453 
L 211.938604 220.643304 
L 212.955183 218.921942 
L 213.971762 216.124784 
L 214.98834 216.124784 
L 216.004919 215.802016 
L 217.021498 224.839058 
L 218.038076 214.080686 
L 219.054655 212.682091 
L 220.071233 213.75795 
L 221.087812 220.643304 
L 222.104391 220.643304 
L 223.120969 212.682091 
L 224.137548 225.914885 
L 225.154126 223.440462 
L 226.170705 211.606263 
L 227.187284 210.2077 
L 228.203862 218.599206 
L 229.220441 218.168882 
L 231.253598 214.726189 
L 232.270177 220.96604 
L 233.286755 216.770287 
L 234.303334 219.567477 
L 235.319913 220.643304 
L 236.336491 217.846114 
L 237.35307 208.486337 
L 238.369648 210.530435 
L 239.386227 215.048956 
L 240.402806 211.92903 
L 241.419384 203.537524 
L 242.435963 212.251798 
L 243.452541 218.491617 
L 244.46912 212.574533 
L 245.485699 226.883124 
L 246.502277 217.846114 
L 247.518856 223.332873 
L 248.535435 215.694459 
L 249.552013 214.295864 
L 250.568592 220.212948 
L 252.601749 214.295864 
L 253.618328 220.858451 
L 254.634906 220.535683 
L 255.651485 215.371724 
L 256.668063 214.618631 
L 257.684642 214.295864 
L 258.701221 209.777375 
L 259.717799 217.41579 
L 260.734378 214.295864 
L 261.750956 212.251798 
L 262.767535 217.41579 
L 263.784114 209.131872 
L 264.800692 207.733277 
L 265.817271 211.17597 
L 266.83385 206.334682 
L 267.850428 209.454608 
L 268.867007 214.295864 
L 269.883585 215.694459 
L 270.900164 210.853203 
L 271.916743 223.010138 
L 272.933321 209.777375 
L 273.9499 210.853203 
L 274.966478 213.973128 
L 275.983057 214.295864 
L 276.999636 213.650361 
L 278.016214 215.371724 
L 279.032793 208.809105 
L 280.049371 213.973128 
L 281.06595 203.537524 
L 282.082529 214.295864 
L 283.099107 208.809105 
L 284.115686 215.048956 
L 285.132265 208.486337 
L 286.148843 212.251798 
L 287.165422 210.2077 
L 288.182 202.569286 
L 289.198579 213.327626 
L 290.215158 211.92903 
L 291.231736 216.447551 
L 292.248315 207.733277 
L 293.264893 208.056045 
L 294.281472 213.973128 
L 295.298051 211.498706 
L 296.314629 210.2077 
L 297.331208 203.537524 
L 298.347786 206.65745 
L 299.364365 205.258855 
L 300.380944 208.056045 
L 301.397522 202.892021 
L 302.414101 207.733277 
L 303.43068 206.65745 
L 305.463837 206.65745 
L 306.480415 204.936119 
L 307.496994 208.056045 
L 308.513573 205.581622 
L 309.530151 205.258855 
L 310.54673 204.183027 
L 311.563308 205.581622 
L 312.579887 205.258855 
L 313.596466 210.100111 
L 314.613044 207.302953 
L 315.629623 199.664538 
L 316.646201 203.537524 
L 317.66278 208.056045 
L 318.679359 211.17597 
L 319.695937 206.65745 
L 320.712516 200.740366 
L 321.729095 205.904358 
L 322.745673 208.37878 
L 323.762252 205.581622 
L 324.77883 199.987274 
L 325.795409 201.063101 
L 326.811988 201.063101 
L 327.828566 204.505762 
L 328.845145 205.904358 
L 329.861723 204.183027 
L 330.878302 204.183027 
L 331.894881 209.777375 
L 332.911459 201.063101 
L 333.928038 202.461696 
L 334.944617 200.740366 
L 335.961195 201.816194 
L 336.977774 199.341771 
L 337.994352 199.664538 
L 339.010931 206.980217 
L 340.02751 203.107199 
L 341.044088 204.183027 
L 343.077245 210.100111 
L 344.093824 209.777375 
L 345.110403 212.897269 
L 346.126981 212.897269 
L 347.14356 206.65745 
L 348.160138 205.258855 
L 349.176717 197.62044 
L 350.193296 200.740366 
L 351.209874 197.297673 
L 352.226453 208.701516 
L 353.243032 211.498706 
L 355.276189 205.258855 
L 356.292767 206.980217 
L 358.325925 206.980217 
L 359.342503 210.100111 
L 360.359082 204.183027 
L 361.37566 207.302953 
L 362.392239 209.777375 
L 363.408818 204.183027 
L 364.425396 206.65745 
L 365.441975 209.454608 
L 366.458553 205.258855 
L 367.475132 209.454608 
L 368.491711 199.664538 
L 369.508289 205.258855 
L 370.524868 201.816194 
L 371.541447 196.221845 
L 372.558025 198.373532 
L 373.574604 202.461696 
L 374.591182 204.183027 
L 375.607761 202.461696 
L 376.62434 208.056045 
L 377.640918 203.537524 
L 378.657497 199.664538 
L 379.674075 201.816194 
L 380.690654 199.019003 
L 381.707233 208.056045 
L 382.723811 203.214757 
L 383.74039 197.62044 
L 384.756968 202.138929 
L 385.773547 203.537524 
L 386.790126 203.537524 
L 387.806704 200.740366 
L 388.823283 203.860292 
L 389.839862 202.461696 
L 390.85644 208.701516 
L 391.873019 203.860292 
L 392.889597 206.980217 
L 393.906176 203.537524 
L 394.922755 205.258855 
L 395.939333 202.138929 
L 396.955912 210.853203 
L 397.97249 206.65745 
L 398.989069 206.980217 
L 400.005648 202.461696 
L 401.022226 206.980217 
L 402.038805 205.258855 
L 403.055383 210.853203 
L 404.071962 211.17597 
L 405.088541 212.897269 
L 406.105119 210.100111 
L 407.121698 204.936119 
L 408.138277 203.537524 
L 409.154855 208.056045 
L 410.171434 207.733277 
L 411.188012 212.897269 
L 412.204591 212.897269 
L 413.22117 208.056045 
L 414.237748 207.625688 
L 415.254327 211.821441 
L 416.270905 206.65745 
L 417.287484 211.498706 
L 418.304063 208.37878 
L 419.320641 212.897269 
L 420.33722 208.37878 
L 421.353799 211.17597 
L 422.370377 212.144177 
L 423.386956 213.542772 
L 424.403534 203.860292 
L 425.420113 210.422878 
L 426.436692 208.701516 
L 427.45327 211.821441 
L 428.469849 205.581622 
L 429.486427 205.581622 
L 430.503006 204.183027 
L 431.519585 211.821441 
L 432.536163 207.302953 
L 433.552742 209.777375 
L 434.56932 205.904358 
L 435.585899 214.941367 
L 436.602478 208.701516 
L 437.619056 210.745614 
L 438.635635 205.581622 
L 439.652214 203.860292 
L 440.668792 206.65745 
L 441.685371 210.100111 
L 442.701949 202.461696 
L 443.718528 207.302953 
L 444.735107 203.537524 
L 445.751685 202.138929 
L 446.768264 210.100111 
L 448.801421 203.537524 
L 449.818 209.777375 
L 450.834578 200.740366 
L 451.851157 206.980217 
L 452.867735 200.094831 
L 453.884314 205.258855 
L 454.900893 216.017195 
L 455.917471 209.454608 
L 456.93405 208.37878 
L 457.950629 213.220036 
L 458.967207 217.093022 
L 459.983786 212.897269 
L 461.000364 207.302953 
L 462.016943 213.220036 
L 463.033522 206.011947 
L 464.0501 208.056045 
L 466.083257 213.973128 
L 467.099836 213.220036 
L 468.116415 219.13712 
L 469.132993 217.738525 
L 470.149572 217.41579 
L 471.16615 215.694459 
L 472.182729 213.220036 
L 473.199308 215.694459 
L 474.215886 211.498706 
L 475.232465 220.212948 
L 476.249044 216.017195 
L 477.265622 221.288775 
L 478.282201 214.295864 
L 479.298779 223.332873 
L 480.315358 212.466944 
L 481.331937 210.745614 
L 482.348515 216.017195 
L 483.365094 218.814385 
L 484.381672 215.694459 
L 485.398251 220.212948 
L 487.431408 223.655609 
L 488.447987 224.731436 
L 489.464565 221.934278 
L 490.481144 213.542772 
L 491.497723 218.814385 
L 492.514301 217.738525 
L 493.53088 210.100111 
L 495.564037 213.542772 
L 496.580616 213.220036 
L 497.597194 214.618631 
L 498.613773 214.618631 
L 499.630352 216.017195 
L 500.64693 208.701516 
L 501.663509 216.017195 
L 502.680087 214.618631 
L 503.696666 213.542772 
L 504.713245 214.941367 
L 505.729823 210.745614 
L 506.746402 205.904358 
L 507.762981 208.701516 
L 508.779559 210.422878 
L 509.796138 209.347019 
L 510.812716 212.897269 
L 511.829295 214.618631 
L 512.845874 210.100111 
L 513.862452 215.264102 
L 514.879031 210.745614 
L 515.895609 214.618631 
L 516.912188 208.701516 
L 517.928767 208.701516 
L 518.945345 206.980217 
L 520.978502 212.144177 
L 521.995081 213.542772 
L 523.01166 210.422878 
L 524.028238 213.542772 
L 525.044817 221.934278 
L 526.061396 218.384028 
L 527.077974 208.37878 
L 528.094553 203.860292 
L 529.111131 210.530435 
L 530.12771 211.17597 
L 531.144289 212.144177 
L 532.160867 219.459856 
L 533.177446 211.821441 
L 534.194024 215.264102 
L 535.210603 214.941367 
L 536.227182 222.257046 
L 537.24376 215.264102 
L 538.260339 217.738525 
L 539.276917 216.017195 
L 540.293496 211.498706 
L 541.310075 210.100111 
L 542.326653 217.846114 
L 543.343232 212.897269 
L 544.359811 212.574533 
L 545.376389 209.777375 
L 546.392968 211.17597 
L 547.409546 211.498706 
L 548.426125 218.491617 
L 549.442704 208.37878 
L 550.459282 217.093022 
L 551.475861 218.491617 
L 552.492439 211.821441 
L 553.509018 217.093022 
L 554.525597 221.611543 
L 555.542175 215.694459 
L 556.558754 220.535683 
L 557.575332 217.738525 
L 558.591911 215.694459 
L 559.60849 215.694459 
L 560.625068 219.13712 
L 561.641647 217.41579 
L 562.658226 213.220036 
L 563.674804 214.618631 
L 564.691383 212.897269 
L 565.707961 214.295864 
L 566.72454 208.701516 
L 567.741119 217.41579 
L 568.757697 209.454608 
L 569.774276 216.017195 
L 570.790854 210.100111 
L 571.807433 217.093022 
L 572.824012 221.934278 
L 573.84059 221.934278 
L 574.857169 217.41579 
L 575.873747 215.371724 
L 576.890326 219.13712 
L 577.906905 211.17597 
L 578.923483 209.777375 
L 579.940062 205.581622 
L 580.956641 203.860292 
L 581.973219 211.498706 
L 582.989798 216.770287 
L 584.006376 212.897269 
L 585.022955 204.183027 
L 586.039534 207.302953 
L 587.056112 209.777375 
L 588.072691 204.183027 
L 590.105848 211.498706 
L 591.122427 212.574533 
L 592.139005 208.37878 
L 593.155584 217.093022 
L 594.172163 215.371724 
L 595.188741 209.777375 
L 596.20532 206.65745 
L 597.221898 211.17597 
L 598.238477 209.777375 
L 599.255056 209.777375 
L 600.271634 214.618631 
L 601.288213 207.302953 
L 602.304791 210.100111 
L 603.32137 221.934278 
L 604.337949 221.934278 
L 605.354527 208.37878 
L 606.371106 205.581622 
L 607.387684 211.17597 
L 608.404263 212.574533 
L 609.420842 211.17597 
L 610.43742 217.41579 
L 611.453999 214.618631 
L 612.470578 213.973128 
L 613.487156 220.535683 
L 614.503735 218.061293 
L 615.520313 219.567477 
L 616.536892 215.371724 
L 617.553471 219.890212 
L 618.570049 213.973128 
L 619.586628 223.332873 
L 620.603206 218.491617 
L 621.619785 215.694459 
L 622.636364 217.41579 
L 622.636364 217.41579 
" clip-path="url(#p845f3360ad)" style="fill: none; stroke: #ff7f0e; stroke-width: 1.5; stroke-linecap: square"/>
   </g>
   <g id="patch_3">
    <path d="M 90 320.4 
L 90 43.2 
" style="fill: none; stroke: #000000; stroke-width: 0.8; stroke-linejoin: miter; stroke-linecap: square"/>
   </g>
   <g id="patch_4">
    <path d="M 648 320.4 
L 648 43.2 
" style="fill: none; stroke: #000000; stroke-width: 0.8; stroke-linejoin: miter; stroke-linecap: square"/>
   </g>
   <g id="patch_5">
    <path d="M 90 320.4 
L 648 320.4 
" style="fill: none; stroke: #000000; stroke-width: 0.8; stroke-linejoin: miter; stroke-linecap: square"/>
   </g>
   <g id="patch_6">
    <path d="M 90 43.2 
L 648 43.2 
" style="fill: none; stroke: #000000; stroke-width: 0.8; stroke-linejoin: miter; stroke-linecap: square"/>
   </g>
   <g id="text_14">
    <!-- model train and validation accracy over time -->
    <g transform="translate(233.87625 37.2) scale(0.12 -0.12)">
     <defs>
      <path id="DejaVuSans-6d" d="M 3328 2828 
Q 3544 3216 3844 3400 
Q 4144 3584 4550 3584 
Q 5097 3584 5394 3201 
Q 5691 2819 5691 2113 
L 5691 0 
L 5113 0 
L 5113 2094 
Q 5113 2597 4934 2840 
Q 4756 3084 4391 3084 
Q 3944 3084 3684 2787 
Q 3425 2491 3425 1978 
L 3425 0 
L 2847 0 
L 2847 2094 
Q 2847 2600 2669 2842 
Q 2491 3084 2119 3084 
Q 1678 3084 1418 2786 
Q 1159 2488 1159 1978 
L 1159 0 
L 581 0 
L 581 3500 
L 1159 3500 
L 1159 2956 
Q 1356 3278 1631 3431 
Q 1906 3584 2284 3584 
Q 2666 3584 2933 3390 
Q 3200 3197 3328 2828 
z
" transform="scale(0.015625)"/>
      <path id="DejaVuSans-64" d="M 2906 2969 
L 2906 4863 
L 3481 4863 
L 3481 0 
L 2906 0 
L 2906 525 
Q 2725 213 2448 61 
Q 2172 -91 1784 -91 
Q 1150 -91 751 415 
Q 353 922 353 1747 
Q 353 2572 751 3078 
Q 1150 3584 1784 3584 
Q 2172 3584 2448 3432 
Q 2725 3281 2906 2969 
z
M 947 1747 
Q 947 1113 1208 752 
Q 1469 391 1925 391 
Q 2381 391 2643 752 
Q 2906 1113 2906 1747 
Q 2906 2381 2643 2742 
Q 2381 3103 1925 3103 
Q 1469 3103 1208 2742 
Q 947 2381 947 1747 
z
" transform="scale(0.015625)"/>
      <path id="DejaVuSans-6c" d="M 603 4863 
L 1178 4863 
L 1178 0 
L 603 0 
L 603 4863 
z
" transform="scale(0.015625)"/>
      <path id="DejaVuSans-20" transform="scale(0.015625)"/>
      <path id="DejaVuSans-74" d="M 1172 4494 
L 1172 3500 
L 2356 3500 
L 2356 3053 
L 1172 3053 
L 1172 1153 
Q 1172 725 1289 603 
Q 1406 481 1766 481 
L 2356 481 
L 2356 0 
L 1766 0 
Q 1100 0 847 248 
Q 594 497 594 1153 
L 594 3053 
L 172 3053 
L 172 3500 
L 594 3500 
L 594 4494 
L 1172 4494 
z
" transform="scale(0.015625)"/>
      <path id="DejaVuSans-69" d="M 603 3500 
L 1178 3500 
L 1178 0 
L 603 0 
L 603 3500 
z
M 603 4863 
L 1178 4863 
L 1178 4134 
L 603 4134 
L 603 4863 
z
" transform="scale(0.015625)"/>
      <path id="DejaVuSans-6e" d="M 3513 2113 
L 3513 0 
L 2938 0 
L 2938 2094 
Q 2938 2591 2744 2837 
Q 2550 3084 2163 3084 
Q 1697 3084 1428 2787 
Q 1159 2491 1159 1978 
L 1159 0 
L 581 0 
L 581 3500 
L 1159 3500 
L 1159 2956 
Q 1366 3272 1645 3428 
Q 1925 3584 2291 3584 
Q 2894 3584 3203 3211 
Q 3513 2838 3513 2113 
z
" transform="scale(0.015625)"/>
      <path id="DejaVuSans-76" d="M 191 3500 
L 800 3500 
L 1894 563 
L 2988 3500 
L 3597 3500 
L 2284 0 
L 1503 0 
L 191 3500 
z
" transform="scale(0.015625)"/>
     </defs>
     <use xlink:href="#DejaVuSans-6d"/>
     <use xlink:href="#DejaVuSans-6f" x="97.412109"/>
     <use xlink:href="#DejaVuSans-64" x="158.59375"/>
     <use xlink:href="#DejaVuSans-65" x="222.070312"/>
     <use xlink:href="#DejaVuSans-6c" x="283.59375"/>
     <use xlink:href="#DejaVuSans-20" x="311.376953"/>
     <use xlink:href="#DejaVuSans-74" x="343.164062"/>
     <use xlink:href="#DejaVuSans-72" x="382.373047"/>
     <use xlink:href="#DejaVuSans-61" x="423.486328"/>
     <use xlink:href="#DejaVuSans-69" x="484.765625"/>
     <use xlink:href="#DejaVuSans-6e" x="512.548828"/>
     <use xlink:href="#DejaVuSans-20" x="575.927734"/>
     <use xlink:href="#DejaVuSans-61" x="607.714844"/>
     <use xlink:href="#DejaVuSans-6e" x="668.994141"/>
     <use xlink:href="#DejaVuSans-64" x="732.373047"/>
     <use xlink:href="#DejaVuSans-20" x="795.849609"/>
     <use xlink:href="#DejaVuSans-76" x="827.636719"/>
     <use xlink:href="#DejaVuSans-61" x="886.816406"/>
     <use xlink:href="#DejaVuSans-6c" x="948.095703"/>
     <use xlink:href="#DejaVuSans-69" x="975.878906"/>
     <use xlink:href="#DejaVuSans-64" x="1003.662109"/>
     <use xlink:href="#DejaVuSans-61" x="1067.138672"/>
     <use xlink:href="#DejaVuSans-74" x="1128.417969"/>
     <use xlink:href="#DejaVuSans-69" x="1167.626953"/>
     <use xlink:href="#DejaVuSans-6f" x="1195.410156"/>
     <use xlink:href="#DejaVuSans-6e" x="1256.591797"/>
     <use xlink:href="#DejaVuSans-20" x="1319.970703"/>
     <use xlink:href="#DejaVuSans-61" x="1351.757812"/>
     <use xlink:href="#DejaVuSans-63" x="1413.037109"/>
     <use xlink:href="#DejaVuSans-63" x="1468.017578"/>
     <use xlink:href="#DejaVuSans-72" x="1522.998047"/>
     <use xlink:href="#DejaVuSans-61" x="1564.111328"/>
     <use xlink:href="#DejaVuSans-63" x="1625.390625"/>
     <use xlink:href="#DejaVuSans-79" x="1680.371094"/>
     <use xlink:href="#DejaVuSans-20" x="1739.550781"/>
     <use xlink:href="#DejaVuSans-6f" x="1771.337891"/>
     <use xlink:href="#DejaVuSans-76" x="1832.519531"/>
     <use xlink:href="#DejaVuSans-65" x="1891.699219"/>
     <use xlink:href="#DejaVuSans-72" x="1953.222656"/>
     <use xlink:href="#DejaVuSans-20" x="1994.335938"/>
     <use xlink:href="#DejaVuSans-74" x="2026.123047"/>
     <use xlink:href="#DejaVuSans-69" x="2065.332031"/>
     <use xlink:href="#DejaVuSans-6d" x="2093.115234"/>
     <use xlink:href="#DejaVuSans-65" x="2190.527344"/>
    </g>
   </g>
   <g id="legend_1">
    <g id="patch_7">
     <path d="M 97 80.55625 
L 178.234375 80.55625 
Q 180.234375 80.55625 180.234375 78.55625 
L 180.234375 50.2 
Q 180.234375 48.2 178.234375 48.2 
L 97 48.2 
Q 95 48.2 95 50.2 
L 95 78.55625 
Q 95 80.55625 97 80.55625 
z
" style="fill: #ffffff; opacity: 0.8; stroke: #cccccc; stroke-linejoin: miter"/>
    </g>
    <g id="line2d_25">
     <path d="M 99 56.298437 
L 109 56.298437 
L 119 56.298437 
" style="fill: none; stroke: #1f77b4; stroke-width: 1.5; stroke-linecap: square"/>
    </g>
    <g id="text_15">
     <!-- train -->
     <g transform="translate(127 59.798437) scale(0.1 -0.1)">
      <use xlink:href="#DejaVuSans-74"/>
      <use xlink:href="#DejaVuSans-72" x="39.208984"/>
      <use xlink:href="#DejaVuSans-61" x="80.322266"/>
      <use xlink:href="#DejaVuSans-69" x="141.601562"/>
      <use xlink:href="#DejaVuSans-6e" x="169.384766"/>
     </g>
    </g>
    <g id="line2d_26">
     <path d="M 99 70.976562 
L 109 70.976562 
L 119 70.976562 
" style="fill: none; stroke: #ff7f0e; stroke-width: 1.5; stroke-linecap: square"/>
    </g>
    <g id="text_16">
     <!-- validation -->
     <g transform="translate(127 74.476562) scale(0.1 -0.1)">
      <use xlink:href="#DejaVuSans-76"/>
      <use xlink:href="#DejaVuSans-61" x="59.179688"/>
      <use xlink:href="#DejaVuSans-6c" x="120.458984"/>
      <use xlink:href="#DejaVuSans-69" x="148.242188"/>
      <use xlink:href="#DejaVuSans-64" x="176.025391"/>
      <use xlink:href="#DejaVuSans-61" x="239.501953"/>
      <use xlink:href="#DejaVuSans-74" x="300.78125"/>
      <use xlink:href="#DejaVuSans-69" x="339.990234"/>
      <use xlink:href="#DejaVuSans-6f" x="367.773438"/>
      <use xlink:href="#DejaVuSans-6e" x="428.955078"/>
     </g>
    </g>
   </g>
  </g>
 </g>
 <defs>
  <clipPath id="p845f3360ad">
   <rect x="90" y="43.2" width="558" height="277.2"/>
  </clipPath>
 </defs>
</svg>
