<?xml version="1.0" encoding="utf-8" standalone="no"?>
<!DOCTYPE svg PUBLIC "-//W3C//DTD SVG 1.1//EN"
  "http://www.w3.org/Graphics/SVG/1.1/DTD/svg11.dtd">
<svg xmlns:xlink="http://www.w3.org/1999/xlink" width="720pt" height="360pt" viewBox="0 0 720 360" xmlns="http://www.w3.org/2000/svg" version="1.1">
 <metadata>
  <rdf:RDF xmlns:dc="http://purl.org/dc/elements/1.1/" xmlns:cc="http://creativecommons.org/ns#" xmlns:rdf="http://www.w3.org/1999/02/22-rdf-syntax-ns#">
   <cc:Work>
    <dc:type rdf:resource="http://purl.org/dc/dcmitype/StillImage"/>
    <dc:date>2023-05-24T12:05:28.691883</dc:date>
    <dc:format>image/svg+xml</dc:format>
    <dc:creator>
     <cc:Agent>
      <dc:title>Matplotlib v3.7.1, https://matplotlib.org/</dc:title>
     </cc:Agent>
    </dc:creator>
   </cc:Work>
  </rdf:RDF>
 </metadata>
 <defs>
  <style type="text/css">*{stroke-linejoin: round; stroke-linecap: butt}</style>
 </defs>
 <g id="figure_1">
  <g id="patch_1">
   <path d="M 0 360 
L 720 360 
L 720 0 
L 0 0 
z
" style="fill: #ffffff"/>
  </g>
  <g id="axes_1">
   <g id="patch_2">
    <path d="M 90 320.4 
L 648 320.4 
L 648 43.2 
L 90 43.2 
z
" style="fill: #ffffff"/>
   </g>
   <g id="matplotlib.axis_1">
    <g id="xtick_1">
     <g id="line2d_1">
      <path d="M 115.363636 320.4 
L 115.363636 43.2 
" clip-path="url(#p82d729b6a5)" style="fill: none; stroke: #b0b0b0; stroke-width: 0.8; stroke-linecap: square"/>
     </g>
     <g id="line2d_2">
      <defs>
       <path id="m8f037e128d" d="M 0 0 
L 0 3.5 
" style="stroke: #000000; stroke-width: 0.8"/>
      </defs>
      <g>
       <use xlink:href="#m8f037e128d" x="115.363636" y="320.4" style="stroke: #000000; stroke-width: 0.8"/>
      </g>
     </g>
     <g id="text_1">
      <!-- 0 -->
      <g transform="translate(112.182386 334.998438) scale(0.1 -0.1)">
       <defs>
        <path id="DejaVuSans-30" d="M 2034 4250 
Q 1547 4250 1301 3770 
Q 1056 3291 1056 2328 
Q 1056 1369 1301 889 
Q 1547 409 2034 409 
Q 2525 409 2770 889 
Q 3016 1369 3016 2328 
Q 3016 3291 2770 3770 
Q 2525 4250 2034 4250 
z
M 2034 4750 
Q 2819 4750 3233 4129 
Q 3647 3509 3647 2328 
Q 3647 1150 3233 529 
Q 2819 -91 2034 -91 
Q 1250 -91 836 529 
Q 422 1150 422 2328 
Q 422 3509 836 4129 
Q 1250 4750 2034 4750 
z
" transform="scale(0.015625)"/>
       </defs>
       <use xlink:href="#DejaVuSans-30"/>
      </g>
     </g>
    </g>
    <g id="xtick_2">
     <g id="line2d_3">
      <path d="M 217.021498 320.4 
L 217.021498 43.2 
" clip-path="url(#p82d729b6a5)" style="fill: none; stroke: #b0b0b0; stroke-width: 0.8; stroke-linecap: square"/>
     </g>
     <g id="line2d_4">
      <g>
       <use xlink:href="#m8f037e128d" x="217.021498" y="320.4" style="stroke: #000000; stroke-width: 0.8"/>
      </g>
     </g>
     <g id="text_2">
      <!-- 100 -->
      <g transform="translate(207.477748 334.998438) scale(0.1 -0.1)">
       <defs>
        <path id="DejaVuSans-31" d="M 794 531 
L 1825 531 
L 1825 4091 
L 703 3866 
L 703 4441 
L 1819 4666 
L 2450 4666 
L 2450 531 
L 3481 531 
L 3481 0 
L 794 0 
L 794 531 
z
" transform="scale(0.015625)"/>
       </defs>
       <use xlink:href="#DejaVuSans-31"/>
       <use xlink:href="#DejaVuSans-30" x="63.623047"/>
       <use xlink:href="#DejaVuSans-30" x="127.246094"/>
      </g>
     </g>
    </g>
    <g id="xtick_3">
     <g id="line2d_5">
      <path d="M 318.679359 320.4 
L 318.679359 43.2 
" clip-path="url(#p82d729b6a5)" style="fill: none; stroke: #b0b0b0; stroke-width: 0.8; stroke-linecap: square"/>
     </g>
     <g id="line2d_6">
      <g>
       <use xlink:href="#m8f037e128d" x="318.679359" y="320.4" style="stroke: #000000; stroke-width: 0.8"/>
      </g>
     </g>
     <g id="text_3">
      <!-- 200 -->
      <g transform="translate(309.135609 334.998438) scale(0.1 -0.1)">
       <defs>
        <path id="DejaVuSans-32" d="M 1228 531 
L 3431 531 
L 3431 0 
L 469 0 
L 469 531 
Q 828 903 1448 1529 
Q 2069 2156 2228 2338 
Q 2531 2678 2651 2914 
Q 2772 3150 2772 3378 
Q 2772 3750 2511 3984 
Q 2250 4219 1831 4219 
Q 1534 4219 1204 4116 
Q 875 4013 500 3803 
L 500 4441 
Q 881 4594 1212 4672 
Q 1544 4750 1819 4750 
Q 2544 4750 2975 4387 
Q 3406 4025 3406 3419 
Q 3406 3131 3298 2873 
Q 3191 2616 2906 2266 
Q 2828 2175 2409 1742 
Q 1991 1309 1228 531 
z
" transform="scale(0.015625)"/>
       </defs>
       <use xlink:href="#DejaVuSans-32"/>
       <use xlink:href="#DejaVuSans-30" x="63.623047"/>
       <use xlink:href="#DejaVuSans-30" x="127.246094"/>
      </g>
     </g>
    </g>
    <g id="xtick_4">
     <g id="line2d_7">
      <path d="M 420.33722 320.4 
L 420.33722 43.2 
" clip-path="url(#p82d729b6a5)" style="fill: none; stroke: #b0b0b0; stroke-width: 0.8; stroke-linecap: square"/>
     </g>
     <g id="line2d_8">
      <g>
       <use xlink:href="#m8f037e128d" x="420.33722" y="320.4" style="stroke: #000000; stroke-width: 0.8"/>
      </g>
     </g>
     <g id="text_4">
      <!-- 300 -->
      <g transform="translate(410.79347 334.998438) scale(0.1 -0.1)">
       <defs>
        <path id="DejaVuSans-33" d="M 2597 2516 
Q 3050 2419 3304 2112 
Q 3559 1806 3559 1356 
Q 3559 666 3084 287 
Q 2609 -91 1734 -91 
Q 1441 -91 1130 -33 
Q 819 25 488 141 
L 488 750 
Q 750 597 1062 519 
Q 1375 441 1716 441 
Q 2309 441 2620 675 
Q 2931 909 2931 1356 
Q 2931 1769 2642 2001 
Q 2353 2234 1838 2234 
L 1294 2234 
L 1294 2753 
L 1863 2753 
Q 2328 2753 2575 2939 
Q 2822 3125 2822 3475 
Q 2822 3834 2567 4026 
Q 2313 4219 1838 4219 
Q 1578 4219 1281 4162 
Q 984 4106 628 3988 
L 628 4550 
Q 988 4650 1302 4700 
Q 1616 4750 1894 4750 
Q 2613 4750 3031 4423 
Q 3450 4097 3450 3541 
Q 3450 3153 3228 2886 
Q 3006 2619 2597 2516 
z
" transform="scale(0.015625)"/>
       </defs>
       <use xlink:href="#DejaVuSans-33"/>
       <use xlink:href="#DejaVuSans-30" x="63.623047"/>
       <use xlink:href="#DejaVuSans-30" x="127.246094"/>
      </g>
     </g>
    </g>
    <g id="xtick_5">
     <g id="line2d_9">
      <path d="M 521.995081 320.4 
L 521.995081 43.2 
" clip-path="url(#p82d729b6a5)" style="fill: none; stroke: #b0b0b0; stroke-width: 0.8; stroke-linecap: square"/>
     </g>
     <g id="line2d_10">
      <g>
       <use xlink:href="#m8f037e128d" x="521.995081" y="320.4" style="stroke: #000000; stroke-width: 0.8"/>
      </g>
     </g>
     <g id="text_5">
      <!-- 400 -->
      <g transform="translate(512.451331 334.998438) scale(0.1 -0.1)">
       <defs>
        <path id="DejaVuSans-34" d="M 2419 4116 
L 825 1625 
L 2419 1625 
L 2419 4116 
z
M 2253 4666 
L 3047 4666 
L 3047 1625 
L 3713 1625 
L 3713 1100 
L 3047 1100 
L 3047 0 
L 2419 0 
L 2419 1100 
L 313 1100 
L 313 1709 
L 2253 4666 
z
" transform="scale(0.015625)"/>
       </defs>
       <use xlink:href="#DejaVuSans-34"/>
       <use xlink:href="#DejaVuSans-30" x="63.623047"/>
       <use xlink:href="#DejaVuSans-30" x="127.246094"/>
      </g>
     </g>
    </g>
    <g id="xtick_6">
     <g id="line2d_11">
      <path d="M 623.652942 320.4 
L 623.652942 43.2 
" clip-path="url(#p82d729b6a5)" style="fill: none; stroke: #b0b0b0; stroke-width: 0.8; stroke-linecap: square"/>
     </g>
     <g id="line2d_12">
      <g>
       <use xlink:href="#m8f037e128d" x="623.652942" y="320.4" style="stroke: #000000; stroke-width: 0.8"/>
      </g>
     </g>
     <g id="text_6">
      <!-- 500 -->
      <g transform="translate(614.109192 334.998438) scale(0.1 -0.1)">
       <defs>
        <path id="DejaVuSans-35" d="M 691 4666 
L 3169 4666 
L 3169 4134 
L 1269 4134 
L 1269 2991 
Q 1406 3038 1543 3061 
Q 1681 3084 1819 3084 
Q 2600 3084 3056 2656 
Q 3513 2228 3513 1497 
Q 3513 744 3044 326 
Q 2575 -91 1722 -91 
Q 1428 -91 1123 -41 
Q 819 9 494 109 
L 494 744 
Q 775 591 1075 516 
Q 1375 441 1709 441 
Q 2250 441 2565 725 
Q 2881 1009 2881 1497 
Q 2881 1984 2565 2268 
Q 2250 2553 1709 2553 
Q 1456 2553 1204 2497 
Q 953 2441 691 2322 
L 691 4666 
z
" transform="scale(0.015625)"/>
       </defs>
       <use xlink:href="#DejaVuSans-35"/>
       <use xlink:href="#DejaVuSans-30" x="63.623047"/>
       <use xlink:href="#DejaVuSans-30" x="127.246094"/>
      </g>
     </g>
    </g>
    <g id="text_7">
     <!-- epoch -->
     <g transform="translate(353.771875 348.676562) scale(0.1 -0.1)">
      <defs>
       <path id="DejaVuSans-65" d="M 3597 1894 
L 3597 1613 
L 953 1613 
Q 991 1019 1311 708 
Q 1631 397 2203 397 
Q 2534 397 2845 478 
Q 3156 559 3463 722 
L 3463 178 
Q 3153 47 2828 -22 
Q 2503 -91 2169 -91 
Q 1331 -91 842 396 
Q 353 884 353 1716 
Q 353 2575 817 3079 
Q 1281 3584 2069 3584 
Q 2775 3584 3186 3129 
Q 3597 2675 3597 1894 
z
M 3022 2063 
Q 3016 2534 2758 2815 
Q 2500 3097 2075 3097 
Q 1594 3097 1305 2825 
Q 1016 2553 972 2059 
L 3022 2063 
z
" transform="scale(0.015625)"/>
       <path id="DejaVuSans-70" d="M 1159 525 
L 1159 -1331 
L 581 -1331 
L 581 3500 
L 1159 3500 
L 1159 2969 
Q 1341 3281 1617 3432 
Q 1894 3584 2278 3584 
Q 2916 3584 3314 3078 
Q 3713 2572 3713 1747 
Q 3713 922 3314 415 
Q 2916 -91 2278 -91 
Q 1894 -91 1617 61 
Q 1341 213 1159 525 
z
M 3116 1747 
Q 3116 2381 2855 2742 
Q 2594 3103 2138 3103 
Q 1681 3103 1420 2742 
Q 1159 2381 1159 1747 
Q 1159 1113 1420 752 
Q 1681 391 2138 391 
Q 2594 391 2855 752 
Q 3116 1113 3116 1747 
z
" transform="scale(0.015625)"/>
       <path id="DejaVuSans-6f" d="M 1959 3097 
Q 1497 3097 1228 2736 
Q 959 2375 959 1747 
Q 959 1119 1226 758 
Q 1494 397 1959 397 
Q 2419 397 2687 759 
Q 2956 1122 2956 1747 
Q 2956 2369 2687 2733 
Q 2419 3097 1959 3097 
z
M 1959 3584 
Q 2709 3584 3137 3096 
Q 3566 2609 3566 1747 
Q 3566 888 3137 398 
Q 2709 -91 1959 -91 
Q 1206 -91 779 398 
Q 353 888 353 1747 
Q 353 2609 779 3096 
Q 1206 3584 1959 3584 
z
" transform="scale(0.015625)"/>
       <path id="DejaVuSans-63" d="M 3122 3366 
L 3122 2828 
Q 2878 2963 2633 3030 
Q 2388 3097 2138 3097 
Q 1578 3097 1268 2742 
Q 959 2388 959 1747 
Q 959 1106 1268 751 
Q 1578 397 2138 397 
Q 2388 397 2633 464 
Q 2878 531 3122 666 
L 3122 134 
Q 2881 22 2623 -34 
Q 2366 -91 2075 -91 
Q 1284 -91 818 406 
Q 353 903 353 1747 
Q 353 2603 823 3093 
Q 1294 3584 2113 3584 
Q 2378 3584 2631 3529 
Q 2884 3475 3122 3366 
z
" transform="scale(0.015625)"/>
       <path id="DejaVuSans-68" d="M 3513 2113 
L 3513 0 
L 2938 0 
L 2938 2094 
Q 2938 2591 2744 2837 
Q 2550 3084 2163 3084 
Q 1697 3084 1428 2787 
Q 1159 2491 1159 1978 
L 1159 0 
L 581 0 
L 581 4863 
L 1159 4863 
L 1159 2956 
Q 1366 3272 1645 3428 
Q 1925 3584 2291 3584 
Q 2894 3584 3203 3211 
Q 3513 2838 3513 2113 
z
" transform="scale(0.015625)"/>
      </defs>
      <use xlink:href="#DejaVuSans-65"/>
      <use xlink:href="#DejaVuSans-70" x="61.523438"/>
      <use xlink:href="#DejaVuSans-6f" x="125"/>
      <use xlink:href="#DejaVuSans-63" x="186.181641"/>
      <use xlink:href="#DejaVuSans-68" x="241.162109"/>
     </g>
    </g>
   </g>
   <g id="matplotlib.axis_2">
    <g id="ytick_1">
     <g id="line2d_13">
      <path d="M 90 309.503507 
L 648 309.503507 
" clip-path="url(#p82d729b6a5)" style="fill: none; stroke: #b0b0b0; stroke-width: 0.8; stroke-linecap: square"/>
     </g>
     <g id="line2d_14">
      <defs>
       <path id="mf6a49ea121" d="M 0 0 
L -3.5 0 
" style="stroke: #000000; stroke-width: 0.8"/>
      </defs>
      <g>
       <use xlink:href="#mf6a49ea121" x="90" y="309.503507" style="stroke: #000000; stroke-width: 0.8"/>
      </g>
     </g>
     <g id="text_8">
      <!-- 0.0 -->
      <g transform="translate(67.096875 313.302726) scale(0.1 -0.1)">
       <defs>
        <path id="DejaVuSans-2e" d="M 684 794 
L 1344 794 
L 1344 0 
L 684 0 
L 684 794 
z
" transform="scale(0.015625)"/>
       </defs>
       <use xlink:href="#DejaVuSans-30"/>
       <use xlink:href="#DejaVuSans-2e" x="63.623047"/>
       <use xlink:href="#DejaVuSans-30" x="95.410156"/>
      </g>
     </g>
    </g>
    <g id="ytick_2">
     <g id="line2d_15">
      <path d="M 90 256.600646 
L 648 256.600646 
" clip-path="url(#p82d729b6a5)" style="fill: none; stroke: #b0b0b0; stroke-width: 0.8; stroke-linecap: square"/>
     </g>
     <g id="line2d_16">
      <g>
       <use xlink:href="#mf6a49ea121" x="90" y="256.600646" style="stroke: #000000; stroke-width: 0.8"/>
      </g>
     </g>
     <g id="text_9">
      <!-- 0.5 -->
      <g transform="translate(67.096875 260.399864) scale(0.1 -0.1)">
       <use xlink:href="#DejaVuSans-30"/>
       <use xlink:href="#DejaVuSans-2e" x="63.623047"/>
       <use xlink:href="#DejaVuSans-35" x="95.410156"/>
      </g>
     </g>
    </g>
    <g id="ytick_3">
     <g id="line2d_17">
      <path d="M 90 203.697784 
L 648 203.697784 
" clip-path="url(#p82d729b6a5)" style="fill: none; stroke: #b0b0b0; stroke-width: 0.8; stroke-linecap: square"/>
     </g>
     <g id="line2d_18">
      <g>
       <use xlink:href="#mf6a49ea121" x="90" y="203.697784" style="stroke: #000000; stroke-width: 0.8"/>
      </g>
     </g>
     <g id="text_10">
      <!-- 1.0 -->
      <g transform="translate(67.096875 207.497003) scale(0.1 -0.1)">
       <use xlink:href="#DejaVuSans-31"/>
       <use xlink:href="#DejaVuSans-2e" x="63.623047"/>
       <use xlink:href="#DejaVuSans-30" x="95.410156"/>
      </g>
     </g>
    </g>
    <g id="ytick_4">
     <g id="line2d_19">
      <path d="M 90 150.794923 
L 648 150.794923 
" clip-path="url(#p82d729b6a5)" style="fill: none; stroke: #b0b0b0; stroke-width: 0.8; stroke-linecap: square"/>
     </g>
     <g id="line2d_20">
      <g>
       <use xlink:href="#mf6a49ea121" x="90" y="150.794923" style="stroke: #000000; stroke-width: 0.8"/>
      </g>
     </g>
     <g id="text_11">
      <!-- 1.5 -->
      <g transform="translate(67.096875 154.594141) scale(0.1 -0.1)">
       <use xlink:href="#DejaVuSans-31"/>
       <use xlink:href="#DejaVuSans-2e" x="63.623047"/>
       <use xlink:href="#DejaVuSans-35" x="95.410156"/>
      </g>
     </g>
    </g>
    <g id="ytick_5">
     <g id="line2d_21">
      <path d="M 90 97.892061 
L 648 97.892061 
" clip-path="url(#p82d729b6a5)" style="fill: none; stroke: #b0b0b0; stroke-width: 0.8; stroke-linecap: square"/>
     </g>
     <g id="line2d_22">
      <g>
       <use xlink:href="#mf6a49ea121" x="90" y="97.892061" style="stroke: #000000; stroke-width: 0.8"/>
      </g>
     </g>
     <g id="text_12">
      <!-- 2.0 -->
      <g transform="translate(67.096875 101.69128) scale(0.1 -0.1)">
       <use xlink:href="#DejaVuSans-32"/>
       <use xlink:href="#DejaVuSans-2e" x="63.623047"/>
       <use xlink:href="#DejaVuSans-30" x="95.410156"/>
      </g>
     </g>
    </g>
    <g id="ytick_6">
     <g id="line2d_23">
      <path d="M 90 44.9892 
L 648 44.9892 
" clip-path="url(#p82d729b6a5)" style="fill: none; stroke: #b0b0b0; stroke-width: 0.8; stroke-linecap: square"/>
     </g>
     <g id="line2d_24">
      <g>
       <use xlink:href="#mf6a49ea121" x="90" y="44.9892" style="stroke: #000000; stroke-width: 0.8"/>
      </g>
     </g>
     <g id="text_13">
      <!-- 2.5 -->
      <g transform="translate(67.096875 48.788418) scale(0.1 -0.1)">
       <use xlink:href="#DejaVuSans-32"/>
       <use xlink:href="#DejaVuSans-2e" x="63.623047"/>
       <use xlink:href="#DejaVuSans-35" x="95.410156"/>
      </g>
     </g>
    </g>
    <g id="text_14">
     <!-- loss -->
     <g transform="translate(61.017187 191.457812) rotate(-90) scale(0.1 -0.1)">
      <defs>
       <path id="DejaVuSans-6c" d="M 603 4863 
L 1178 4863 
L 1178 0 
L 603 0 
L 603 4863 
z
" transform="scale(0.015625)"/>
       <path id="DejaVuSans-73" d="M 2834 3397 
L 2834 2853 
Q 2591 2978 2328 3040 
Q 2066 3103 1784 3103 
Q 1356 3103 1142 2972 
Q 928 2841 928 2578 
Q 928 2378 1081 2264 
Q 1234 2150 1697 2047 
L 1894 2003 
Q 2506 1872 2764 1633 
Q 3022 1394 3022 966 
Q 3022 478 2636 193 
Q 2250 -91 1575 -91 
Q 1294 -91 989 -36 
Q 684 19 347 128 
L 347 722 
Q 666 556 975 473 
Q 1284 391 1588 391 
Q 1994 391 2212 530 
Q 2431 669 2431 922 
Q 2431 1156 2273 1281 
Q 2116 1406 1581 1522 
L 1381 1569 
Q 847 1681 609 1914 
Q 372 2147 372 2553 
Q 372 3047 722 3315 
Q 1072 3584 1716 3584 
Q 2034 3584 2315 3537 
Q 2597 3491 2834 3397 
z
" transform="scale(0.015625)"/>
      </defs>
      <use xlink:href="#DejaVuSans-6c"/>
      <use xlink:href="#DejaVuSans-6f" x="27.783203"/>
      <use xlink:href="#DejaVuSans-73" x="88.964844"/>
      <use xlink:href="#DejaVuSans-73" x="141.064453"/>
     </g>
    </g>
   </g>
   <g id="line2d_25">
    <path d="M 115.363636 307.72293 
L 117.396794 307.530123 
L 119.429951 307.755446 
L 123.496265 307.389462 
L 124.512844 307.606735 
L 127.56258 307.687693 
L 128.579158 307.603478 
L 129.595737 307.727979 
L 130.612316 307.623018 
L 132.645473 307.750077 
L 133.662051 307.782376 
L 135.695209 307.615605 
L 136.711787 307.670194 
L 137.728366 307.469098 
L 139.761523 307.735476 
L 141.79468 307.650347 
L 143.827837 307.699034 
L 145.860995 307.742538 
L 146.877573 307.616953 
L 147.894152 307.611401 
L 148.910731 307.472173 
L 149.927309 307.577608 
L 150.943888 307.53258 
L 151.960466 307.790653 
L 153.993624 307.54335 
L 155.010202 307.681763 
L 156.026781 307.533325 
L 158.059938 307.772564 
L 159.076517 307.524008 
L 161.109674 307.6351 
L 165.175988 307.637206 
L 166.192567 307.563673 
L 167.209146 307.689279 
L 171.27546 307.630726 
L 174.325196 307.677723 
L 175.341774 307.595288 
L 176.358353 307.757324 
L 177.374932 307.591977 
L 178.39151 307.681057 
L 179.408089 307.442113 
L 181.441246 307.686298 
L 186.524139 307.727947 
L 187.540718 307.634577 
L 192.623611 307.712118 
L 193.640189 307.611365 
L 200.75624 307.7034 
L 201.772818 307.491501 
L 202.789397 307.676355 
L 204.822554 307.65386 
L 210.922026 307.677446 
L 213.971762 307.700116 
L 214.98834 307.590062 
L 217.021498 307.686665 
L 218.038076 307.465332 
L 219.054655 307.696852 
L 220.071233 307.61332 
L 222.104391 307.631784 
L 223.120969 307.473759 
L 225.154126 307.797137 
L 226.170705 307.679694 
L 234.303334 307.701708 
L 235.319913 307.530144 
L 236.336491 307.547383 
L 237.35307 307.751147 
L 238.369648 307.39329 
L 239.386227 307.675185 
L 243.452541 307.646018 
L 245.485699 307.645554 
L 246.502277 307.584963 
L 249.552013 307.66563 
L 256.668063 307.688592 
L 257.684642 307.494989 
L 258.701221 307.688837 
L 259.717799 307.68952 
L 260.734378 307.166796 
L 261.750956 307.655101 
L 263.784114 307.777693 
L 264.800692 307.690851 
L 265.817271 307.185742 
L 266.83385 307.634344 
L 267.850428 307.665178 
L 269.883585 307.525762 
L 270.900164 307.672727 
L 284.115686 307.697042 
L 285.132265 307.567195 
L 289.198579 307.741776 
L 291.231736 307.563206 
L 292.248315 307.693419 
L 293.264893 307.686702 
L 294.281472 307.372146 
L 295.298051 307.746307 
L 296.314629 307.605199 
L 308.513573 307.615509 
L 309.530151 307.520402 
L 310.54673 307.64615 
L 312.579887 307.570959 
L 313.596466 307.759836 
L 314.613044 307.639924 
L 316.646201 307.655805 
L 317.66278 307.534961 
L 319.695937 307.702037 
L 320.712516 307.582231 
L 321.729095 307.718946 
L 322.745673 307.667024 
L 323.762252 307.728327 
L 324.77883 307.563514 
L 325.795409 307.74831 
L 326.811988 307.600095 
L 331.894881 307.691218 
L 335.961195 307.692151 
L 336.977774 307.743444 
L 337.994352 307.592987 
L 341.044088 307.636229 
L 342.060667 307.374044 
L 343.077245 307.732258 
L 345.110403 307.590369 
L 349.176717 307.715564 
L 352.226453 307.59868 
L 353.243032 307.753252 
L 356.292767 307.669949 
L 357.309346 307.383932 
L 358.325925 307.617919 
L 359.342503 307.591311 
L 360.359082 307.677436 
L 361.37566 307.562983 
L 362.392239 307.698965 
L 378.657497 307.675068 
L 379.674075 307.555752 
L 382.723811 307.718649 
L 383.74039 307.564474 
L 384.756968 307.697036 
L 402.038805 307.705213 
L 403.055383 307.384895 
L 404.071962 307.6772 
L 405.088541 307.615779 
L 408.138277 307.731092 
L 411.188012 307.738144 
L 412.204591 307.774438 
L 413.22117 307.692912 
L 414.237748 307.767447 
L 415.254327 307.536861 
L 416.270905 307.755641 
L 418.304063 307.641503 
L 419.320641 307.761575 
L 420.33722 307.613514 
L 421.353799 307.584617 
L 422.370377 307.716736 
L 424.403534 307.656074 
L 425.420113 307.621749 
L 426.436692 307.720059 
L 427.45327 307.644437 
L 429.486427 307.688296 
L 430.503006 307.628893 
L 432.536163 307.696781 
L 440.668792 307.660464 
L 441.685371 307.749368 
L 442.701949 307.635657 
L 443.718528 307.684784 
L 444.735107 307.536878 
L 445.751685 307.681648 
L 449.818 307.648295 
L 451.851157 307.667817 
L 456.93405 307.74118 
L 457.950629 307.635145 
L 458.967207 307.729092 
L 459.983786 307.540723 
L 462.016943 307.658267 
L 465.066679 307.606212 
L 466.083257 307.8 
L 467.099836 307.651503 
L 473.199308 307.723977 
L 475.232465 307.673659 
L 479.298779 307.619555 
L 480.315358 307.749967 
L 483.365094 307.69218 
L 484.381672 307.737775 
L 485.398251 307.550223 
L 486.41483 307.700209 
L 487.431408 307.583543 
L 491.497723 307.749034 
L 492.514301 307.754319 
L 493.53088 307.588191 
L 495.564037 307.70282 
L 497.597194 307.656412 
L 499.630352 307.685203 
L 500.64693 307.53804 
L 504.713245 307.753812 
L 505.729823 307.654554 
L 506.746402 307.405572 
L 507.762981 307.689517 
L 512.845874 307.450977 
L 513.862452 307.343327 
L 514.879031 307.667849 
L 516.912188 307.641938 
L 517.928767 307.734812 
L 519.961924 307.632039 
L 520.978502 307.727469 
L 521.995081 307.605517 
L 526.061396 307.763399 
L 527.077974 307.405994 
L 528.094553 307.659761 
L 531.144289 307.713837 
L 532.160867 307.343797 
L 534.194024 307.73472 
L 536.227182 307.713867 
L 537.24376 307.598894 
L 539.276917 307.65396 
L 540.293496 307.604591 
L 543.343232 307.697565 
L 561.641647 307.704858 
L 563.674804 307.791002 
L 564.691383 307.602355 
L 569.774276 307.677453 
L 573.84059 307.549372 
L 574.857169 307.722783 
L 578.923483 307.638214 
L 579.940062 307.55254 
L 586.039534 307.696375 
L 587.056112 307.594597 
L 590.105848 307.69267 
L 593.155584 307.658753 
L 598.238477 307.694365 
L 599.255056 307.532994 
L 601.288213 307.770974 
L 602.304791 307.687364 
L 603.32137 307.733488 
L 607.387684 307.504568 
L 608.404263 307.731305 
L 609.420842 307.640601 
L 611.453999 307.747648 
L 613.487156 307.639551 
L 614.503735 307.758113 
L 615.520313 307.617191 
L 616.536892 307.677771 
L 618.570049 307.609491 
L 622.636364 307.633778 
L 622.636364 307.633778 
" clip-path="url(#p82d729b6a5)" style="fill: none; stroke: #1f77b4; stroke-width: 1.5; stroke-linecap: square"/>
   </g>
   <g id="line2d_26">
    <path d="M 115.363636 56.299955 
L 149.927309 56.248317 
L 173.308617 56.257197 
L 190.590454 56.26986 
L 251.58517 56.210352 
L 284.115686 56.215826 
L 297.331208 56.215725 
L 310.54673 56.190272 
L 322.745673 56.170621 
L 394.922755 56.082204 
L 404.071962 56.043406 
L 455.917471 55.991768 
L 479.298779 55.93617 
L 493.53088 55.918537 
L 622.636364 55.8 
L 622.636364 55.8 
" clip-path="url(#p82d729b6a5)" style="fill: none; stroke: #ff7f0e; stroke-width: 1.5; stroke-linecap: square"/>
   </g>
   <g id="patch_3">
    <path d="M 90 320.4 
L 90 43.2 
" style="fill: none; stroke: #000000; stroke-width: 0.8; stroke-linejoin: miter; stroke-linecap: square"/>
   </g>
   <g id="patch_4">
    <path d="M 648 320.4 
L 648 43.2 
" style="fill: none; stroke: #000000; stroke-width: 0.8; stroke-linejoin: miter; stroke-linecap: square"/>
   </g>
   <g id="patch_5">
    <path d="M 90 320.4 
L 648 320.4 
" style="fill: none; stroke: #000000; stroke-width: 0.8; stroke-linejoin: miter; stroke-linecap: square"/>
   </g>
   <g id="patch_6">
    <path d="M 90 43.2 
L 648 43.2 
" style="fill: none; stroke: #000000; stroke-width: 0.8; stroke-linejoin: miter; stroke-linecap: square"/>
   </g>
   <g id="text_15">
    <!-- model train and validation loss over time -->
    <g transform="translate(245.555625 37.2) scale(0.12 -0.12)">
     <defs>
      <path id="DejaVuSans-6d" d="M 3328 2828 
Q 3544 3216 3844 3400 
Q 4144 3584 4550 3584 
Q 5097 3584 5394 3201 
Q 5691 2819 5691 2113 
L 5691 0 
L 5113 0 
L 5113 2094 
Q 5113 2597 4934 2840 
Q 4756 3084 4391 3084 
Q 3944 3084 3684 2787 
Q 3425 2491 3425 1978 
L 3425 0 
L 2847 0 
L 2847 2094 
Q 2847 2600 2669 2842 
Q 2491 3084 2119 3084 
Q 1678 3084 1418 2786 
Q 1159 2488 1159 1978 
L 1159 0 
L 581 0 
L 581 3500 
L 1159 3500 
L 1159 2956 
Q 1356 3278 1631 3431 
Q 1906 3584 2284 3584 
Q 2666 3584 2933 3390 
Q 3200 3197 3328 2828 
z
" transform="scale(0.015625)"/>
      <path id="DejaVuSans-64" d="M 2906 2969 
L 2906 4863 
L 3481 4863 
L 3481 0 
L 2906 0 
L 2906 525 
Q 2725 213 2448 61 
Q 2172 -91 1784 -91 
Q 1150 -91 751 415 
Q 353 922 353 1747 
Q 353 2572 751 3078 
Q 1150 3584 1784 3584 
Q 2172 3584 2448 3432 
Q 2725 3281 2906 2969 
z
M 947 1747 
Q 947 1113 1208 752 
Q 1469 391 1925 391 
Q 2381 391 2643 752 
Q 2906 1113 2906 1747 
Q 2906 2381 2643 2742 
Q 2381 3103 1925 3103 
Q 1469 3103 1208 2742 
Q 947 2381 947 1747 
z
" transform="scale(0.015625)"/>
      <path id="DejaVuSans-20" transform="scale(0.015625)"/>
      <path id="DejaVuSans-74" d="M 1172 4494 
L 1172 3500 
L 2356 3500 
L 2356 3053 
L 1172 3053 
L 1172 1153 
Q 1172 725 1289 603 
Q 1406 481 1766 481 
L 2356 481 
L 2356 0 
L 1766 0 
Q 1100 0 847 248 
Q 594 497 594 1153 
L 594 3053 
L 172 3053 
L 172 3500 
L 594 3500 
L 594 4494 
L 1172 4494 
z
" transform="scale(0.015625)"/>
      <path id="DejaVuSans-72" d="M 2631 2963 
Q 2534 3019 2420 3045 
Q 2306 3072 2169 3072 
Q 1681 3072 1420 2755 
Q 1159 2438 1159 1844 
L 1159 0 
L 581 0 
L 581 3500 
L 1159 3500 
L 1159 2956 
Q 1341 3275 1631 3429 
Q 1922 3584 2338 3584 
Q 2397 3584 2469 3576 
Q 2541 3569 2628 3553 
L 2631 2963 
z
" transform="scale(0.015625)"/>
      <path id="DejaVuSans-61" d="M 2194 1759 
Q 1497 1759 1228 1600 
Q 959 1441 959 1056 
Q 959 750 1161 570 
Q 1363 391 1709 391 
Q 2188 391 2477 730 
Q 2766 1069 2766 1631 
L 2766 1759 
L 2194 1759 
z
M 3341 1997 
L 3341 0 
L 2766 0 
L 2766 531 
Q 2569 213 2275 61 
Q 1981 -91 1556 -91 
Q 1019 -91 701 211 
Q 384 513 384 1019 
Q 384 1609 779 1909 
Q 1175 2209 1959 2209 
L 2766 2209 
L 2766 2266 
Q 2766 2663 2505 2880 
Q 2244 3097 1772 3097 
Q 1472 3097 1187 3025 
Q 903 2953 641 2809 
L 641 3341 
Q 956 3463 1253 3523 
Q 1550 3584 1831 3584 
Q 2591 3584 2966 3190 
Q 3341 2797 3341 1997 
z
" transform="scale(0.015625)"/>
      <path id="DejaVuSans-69" d="M 603 3500 
L 1178 3500 
L 1178 0 
L 603 0 
L 603 3500 
z
M 603 4863 
L 1178 4863 
L 1178 4134 
L 603 4134 
L 603 4863 
z
" transform="scale(0.015625)"/>
      <path id="DejaVuSans-6e" d="M 3513 2113 
L 3513 0 
L 2938 0 
L 2938 2094 
Q 2938 2591 2744 2837 
Q 2550 3084 2163 3084 
Q 1697 3084 1428 2787 
Q 1159 2491 1159 1978 
L 1159 0 
L 581 0 
L 581 3500 
L 1159 3500 
L 1159 2956 
Q 1366 3272 1645 3428 
Q 1925 3584 2291 3584 
Q 2894 3584 3203 3211 
Q 3513 2838 3513 2113 
z
" transform="scale(0.015625)"/>
      <path id="DejaVuSans-76" d="M 191 3500 
L 800 3500 
L 1894 563 
L 2988 3500 
L 3597 3500 
L 2284 0 
L 1503 0 
L 191 3500 
z
" transform="scale(0.015625)"/>
     </defs>
     <use xlink:href="#DejaVuSans-6d"/>
     <use xlink:href="#DejaVuSans-6f" x="97.412109"/>
     <use xlink:href="#DejaVuSans-64" x="158.59375"/>
     <use xlink:href="#DejaVuSans-65" x="222.070312"/>
     <use xlink:href="#DejaVuSans-6c" x="283.59375"/>
     <use xlink:href="#DejaVuSans-20" x="311.376953"/>
     <use xlink:href="#DejaVuSans-74" x="343.164062"/>
     <use xlink:href="#DejaVuSans-72" x="382.373047"/>
     <use xlink:href="#DejaVuSans-61" x="423.486328"/>
     <use xlink:href="#DejaVuSans-69" x="484.765625"/>
     <use xlink:href="#DejaVuSans-6e" x="512.548828"/>
     <use xlink:href="#DejaVuSans-20" x="575.927734"/>
     <use xlink:href="#DejaVuSans-61" x="607.714844"/>
     <use xlink:href="#DejaVuSans-6e" x="668.994141"/>
     <use xlink:href="#DejaVuSans-64" x="732.373047"/>
     <use xlink:href="#DejaVuSans-20" x="795.849609"/>
     <use xlink:href="#DejaVuSans-76" x="827.636719"/>
     <use xlink:href="#DejaVuSans-61" x="886.816406"/>
     <use xlink:href="#DejaVuSans-6c" x="948.095703"/>
     <use xlink:href="#DejaVuSans-69" x="975.878906"/>
     <use xlink:href="#DejaVuSans-64" x="1003.662109"/>
     <use xlink:href="#DejaVuSans-61" x="1067.138672"/>
     <use xlink:href="#DejaVuSans-74" x="1128.417969"/>
     <use xlink:href="#DejaVuSans-69" x="1167.626953"/>
     <use xlink:href="#DejaVuSans-6f" x="1195.410156"/>
     <use xlink:href="#DejaVuSans-6e" x="1256.591797"/>
     <use xlink:href="#DejaVuSans-20" x="1319.970703"/>
     <use xlink:href="#DejaVuSans-6c" x="1351.757812"/>
     <use xlink:href="#DejaVuSans-6f" x="1379.541016"/>
     <use xlink:href="#DejaVuSans-73" x="1440.722656"/>
     <use xlink:href="#DejaVuSans-73" x="1492.822266"/>
     <use xlink:href="#DejaVuSans-20" x="1544.921875"/>
     <use xlink:href="#DejaVuSans-6f" x="1576.708984"/>
     <use xlink:href="#DejaVuSans-76" x="1637.890625"/>
     <use xlink:href="#DejaVuSans-65" x="1697.070312"/>
     <use xlink:href="#DejaVuSans-72" x="1758.59375"/>
     <use xlink:href="#DejaVuSans-20" x="1799.707031"/>
     <use xlink:href="#DejaVuSans-74" x="1831.494141"/>
     <use xlink:href="#DejaVuSans-69" x="1870.703125"/>
     <use xlink:href="#DejaVuSans-6d" x="1898.486328"/>
     <use xlink:href="#DejaVuSans-65" x="1995.898438"/>
    </g>
   </g>
   <g id="legend_1">
    <g id="patch_7">
     <path d="M 559.765625 197.978125 
L 641 197.978125 
Q 643 197.978125 643 195.978125 
L 643 167.621875 
Q 643 165.621875 641 165.621875 
L 559.765625 165.621875 
Q 557.765625 165.621875 557.765625 167.621875 
L 557.765625 195.978125 
Q 557.765625 197.978125 559.765625 197.978125 
z
" style="fill: #ffffff; opacity: 0.8; stroke: #cccccc; stroke-linejoin: miter"/>
    </g>
    <g id="line2d_27">
     <path d="M 561.765625 173.720312 
L 571.765625 173.720312 
L 581.765625 173.720312 
" style="fill: none; stroke: #1f77b4; stroke-width: 1.5; stroke-linecap: square"/>
    </g>
    <g id="text_16">
     <!-- train -->
     <g transform="translate(589.765625 177.220312) scale(0.1 -0.1)">
      <use xlink:href="#DejaVuSans-74"/>
      <use xlink:href="#DejaVuSans-72" x="39.208984"/>
      <use xlink:href="#DejaVuSans-61" x="80.322266"/>
      <use xlink:href="#DejaVuSans-69" x="141.601562"/>
      <use xlink:href="#DejaVuSans-6e" x="169.384766"/>
     </g>
    </g>
    <g id="line2d_28">
     <path d="M 561.765625 188.398437 
L 571.765625 188.398437 
L 581.765625 188.398437 
" style="fill: none; stroke: #ff7f0e; stroke-width: 1.5; stroke-linecap: square"/>
    </g>
    <g id="text_17">
     <!-- validation -->
     <g transform="translate(589.765625 191.898437) scale(0.1 -0.1)">
      <use xlink:href="#DejaVuSans-76"/>
      <use xlink:href="#DejaVuSans-61" x="59.179688"/>
      <use xlink:href="#DejaVuSans-6c" x="120.458984"/>
      <use xlink:href="#DejaVuSans-69" x="148.242188"/>
      <use xlink:href="#DejaVuSans-64" x="176.025391"/>
      <use xlink:href="#DejaVuSans-61" x="239.501953"/>
      <use xlink:href="#DejaVuSans-74" x="300.78125"/>
      <use xlink:href="#DejaVuSans-69" x="339.990234"/>
      <use xlink:href="#DejaVuSans-6f" x="367.773438"/>
      <use xlink:href="#DejaVuSans-6e" x="428.955078"/>
     </g>
    </g>
   </g>
  </g>
 </g>
 <defs>
  <clipPath id="p82d729b6a5">
   <rect x="90" y="43.2" width="558" height="277.2"/>
  </clipPath>
 </defs>
</svg>
