<?xml version="1.0" encoding="utf-8" standalone="no"?>
<!DOCTYPE svg PUBLIC "-//W3C//DTD SVG 1.1//EN"
  "http://www.w3.org/Graphics/SVG/1.1/DTD/svg11.dtd">
<svg xmlns:xlink="http://www.w3.org/1999/xlink" width="720pt" height="360pt" viewBox="0 0 720 360" xmlns="http://www.w3.org/2000/svg" version="1.1">
 <metadata>
  <rdf:RDF xmlns:dc="http://purl.org/dc/elements/1.1/" xmlns:cc="http://creativecommons.org/ns#" xmlns:rdf="http://www.w3.org/1999/02/22-rdf-syntax-ns#">
   <cc:Work>
    <dc:type rdf:resource="http://purl.org/dc/dcmitype/StillImage"/>
    <dc:date>2023-05-24T12:08:56.962612</dc:date>
    <dc:format>image/svg+xml</dc:format>
    <dc:creator>
     <cc:Agent>
      <dc:title>Matplotlib v3.7.1, https://matplotlib.org/</dc:title>
     </cc:Agent>
    </dc:creator>
   </cc:Work>
  </rdf:RDF>
 </metadata>
 <defs>
  <style type="text/css">*{stroke-linejoin: round; stroke-linecap: butt}</style>
 </defs>
 <g id="figure_1">
  <g id="patch_1">
   <path d="M 0 360 
L 720 360 
L 720 0 
L 0 0 
z
" style="fill: #ffffff"/>
  </g>
  <g id="axes_1">
   <g id="patch_2">
    <path d="M 90 320.4 
L 648 320.4 
L 648 43.2 
L 90 43.2 
z
" style="fill: #ffffff"/>
   </g>
   <g id="matplotlib.axis_1">
    <g id="xtick_1">
     <g id="line2d_1">
      <path d="M 115.363636 320.4 
L 115.363636 43.2 
" clip-path="url(#p75c69b2c3d)" style="fill: none; stroke: #b0b0b0; stroke-width: 0.8; stroke-linecap: square"/>
     </g>
     <g id="line2d_2">
      <defs>
       <path id="m210918ff0d" d="M 0 0 
L 0 3.5 
" style="stroke: #000000; stroke-width: 0.8"/>
      </defs>
      <g>
       <use xlink:href="#m210918ff0d" x="115.363636" y="320.4" style="stroke: #000000; stroke-width: 0.8"/>
      </g>
     </g>
     <g id="text_1">
      <!-- 0 -->
      <g transform="translate(112.182386 334.998438) scale(0.1 -0.1)">
       <defs>
        <path id="DejaVuSans-30" d="M 2034 4250 
Q 1547 4250 1301 3770 
Q 1056 3291 1056 2328 
Q 1056 1369 1301 889 
Q 1547 409 2034 409 
Q 2525 409 2770 889 
Q 3016 1369 3016 2328 
Q 3016 3291 2770 3770 
Q 2525 4250 2034 4250 
z
M 2034 4750 
Q 2819 4750 3233 4129 
Q 3647 3509 3647 2328 
Q 3647 1150 3233 529 
Q 2819 -91 2034 -91 
Q 1250 -91 836 529 
Q 422 1150 422 2328 
Q 422 3509 836 4129 
Q 1250 4750 2034 4750 
z
" transform="scale(0.015625)"/>
       </defs>
       <use xlink:href="#DejaVuSans-30"/>
      </g>
     </g>
    </g>
    <g id="xtick_2">
     <g id="line2d_3">
      <path d="M 217.021498 320.4 
L 217.021498 43.2 
" clip-path="url(#p75c69b2c3d)" style="fill: none; stroke: #b0b0b0; stroke-width: 0.8; stroke-linecap: square"/>
     </g>
     <g id="line2d_4">
      <g>
       <use xlink:href="#m210918ff0d" x="217.021498" y="320.4" style="stroke: #000000; stroke-width: 0.8"/>
      </g>
     </g>
     <g id="text_2">
      <!-- 100 -->
      <g transform="translate(207.477748 334.998438) scale(0.1 -0.1)">
       <defs>
        <path id="DejaVuSans-31" d="M 794 531 
L 1825 531 
L 1825 4091 
L 703 3866 
L 703 4441 
L 1819 4666 
L 2450 4666 
L 2450 531 
L 3481 531 
L 3481 0 
L 794 0 
L 794 531 
z
" transform="scale(0.015625)"/>
       </defs>
       <use xlink:href="#DejaVuSans-31"/>
       <use xlink:href="#DejaVuSans-30" x="63.623047"/>
       <use xlink:href="#DejaVuSans-30" x="127.246094"/>
      </g>
     </g>
    </g>
    <g id="xtick_3">
     <g id="line2d_5">
      <path d="M 318.679359 320.4 
L 318.679359 43.2 
" clip-path="url(#p75c69b2c3d)" style="fill: none; stroke: #b0b0b0; stroke-width: 0.8; stroke-linecap: square"/>
     </g>
     <g id="line2d_6">
      <g>
       <use xlink:href="#m210918ff0d" x="318.679359" y="320.4" style="stroke: #000000; stroke-width: 0.8"/>
      </g>
     </g>
     <g id="text_3">
      <!-- 200 -->
      <g transform="translate(309.135609 334.998438) scale(0.1 -0.1)">
       <defs>
        <path id="DejaVuSans-32" d="M 1228 531 
L 3431 531 
L 3431 0 
L 469 0 
L 469 531 
Q 828 903 1448 1529 
Q 2069 2156 2228 2338 
Q 2531 2678 2651 2914 
Q 2772 3150 2772 3378 
Q 2772 3750 2511 3984 
Q 2250 4219 1831 4219 
Q 1534 4219 1204 4116 
Q 875 4013 500 3803 
L 500 4441 
Q 881 4594 1212 4672 
Q 1544 4750 1819 4750 
Q 2544 4750 2975 4387 
Q 3406 4025 3406 3419 
Q 3406 3131 3298 2873 
Q 3191 2616 2906 2266 
Q 2828 2175 2409 1742 
Q 1991 1309 1228 531 
z
" transform="scale(0.015625)"/>
       </defs>
       <use xlink:href="#DejaVuSans-32"/>
       <use xlink:href="#DejaVuSans-30" x="63.623047"/>
       <use xlink:href="#DejaVuSans-30" x="127.246094"/>
      </g>
     </g>
    </g>
    <g id="xtick_4">
     <g id="line2d_7">
      <path d="M 420.33722 320.4 
L 420.33722 43.2 
" clip-path="url(#p75c69b2c3d)" style="fill: none; stroke: #b0b0b0; stroke-width: 0.8; stroke-linecap: square"/>
     </g>
     <g id="line2d_8">
      <g>
       <use xlink:href="#m210918ff0d" x="420.33722" y="320.4" style="stroke: #000000; stroke-width: 0.8"/>
      </g>
     </g>
     <g id="text_4">
      <!-- 300 -->
      <g transform="translate(410.79347 334.998438) scale(0.1 -0.1)">
       <defs>
        <path id="DejaVuSans-33" d="M 2597 2516 
Q 3050 2419 3304 2112 
Q 3559 1806 3559 1356 
Q 3559 666 3084 287 
Q 2609 -91 1734 -91 
Q 1441 -91 1130 -33 
Q 819 25 488 141 
L 488 750 
Q 750 597 1062 519 
Q 1375 441 1716 441 
Q 2309 441 2620 675 
Q 2931 909 2931 1356 
Q 2931 1769 2642 2001 
Q 2353 2234 1838 2234 
L 1294 2234 
L 1294 2753 
L 1863 2753 
Q 2328 2753 2575 2939 
Q 2822 3125 2822 3475 
Q 2822 3834 2567 4026 
Q 2313 4219 1838 4219 
Q 1578 4219 1281 4162 
Q 984 4106 628 3988 
L 628 4550 
Q 988 4650 1302 4700 
Q 1616 4750 1894 4750 
Q 2613 4750 3031 4423 
Q 3450 4097 3450 3541 
Q 3450 3153 3228 2886 
Q 3006 2619 2597 2516 
z
" transform="scale(0.015625)"/>
       </defs>
       <use xlink:href="#DejaVuSans-33"/>
       <use xlink:href="#DejaVuSans-30" x="63.623047"/>
       <use xlink:href="#DejaVuSans-30" x="127.246094"/>
      </g>
     </g>
    </g>
    <g id="xtick_5">
     <g id="line2d_9">
      <path d="M 521.995081 320.4 
L 521.995081 43.2 
" clip-path="url(#p75c69b2c3d)" style="fill: none; stroke: #b0b0b0; stroke-width: 0.8; stroke-linecap: square"/>
     </g>
     <g id="line2d_10">
      <g>
       <use xlink:href="#m210918ff0d" x="521.995081" y="320.4" style="stroke: #000000; stroke-width: 0.8"/>
      </g>
     </g>
     <g id="text_5">
      <!-- 400 -->
      <g transform="translate(512.451331 334.998438) scale(0.1 -0.1)">
       <defs>
        <path id="DejaVuSans-34" d="M 2419 4116 
L 825 1625 
L 2419 1625 
L 2419 4116 
z
M 2253 4666 
L 3047 4666 
L 3047 1625 
L 3713 1625 
L 3713 1100 
L 3047 1100 
L 3047 0 
L 2419 0 
L 2419 1100 
L 313 1100 
L 313 1709 
L 2253 4666 
z
" transform="scale(0.015625)"/>
       </defs>
       <use xlink:href="#DejaVuSans-34"/>
       <use xlink:href="#DejaVuSans-30" x="63.623047"/>
       <use xlink:href="#DejaVuSans-30" x="127.246094"/>
      </g>
     </g>
    </g>
    <g id="xtick_6">
     <g id="line2d_11">
      <path d="M 623.652942 320.4 
L 623.652942 43.2 
" clip-path="url(#p75c69b2c3d)" style="fill: none; stroke: #b0b0b0; stroke-width: 0.8; stroke-linecap: square"/>
     </g>
     <g id="line2d_12">
      <g>
       <use xlink:href="#m210918ff0d" x="623.652942" y="320.4" style="stroke: #000000; stroke-width: 0.8"/>
      </g>
     </g>
     <g id="text_6">
      <!-- 500 -->
      <g transform="translate(614.109192 334.998438) scale(0.1 -0.1)">
       <defs>
        <path id="DejaVuSans-35" d="M 691 4666 
L 3169 4666 
L 3169 4134 
L 1269 4134 
L 1269 2991 
Q 1406 3038 1543 3061 
Q 1681 3084 1819 3084 
Q 2600 3084 3056 2656 
Q 3513 2228 3513 1497 
Q 3513 744 3044 326 
Q 2575 -91 1722 -91 
Q 1428 -91 1123 -41 
Q 819 9 494 109 
L 494 744 
Q 775 591 1075 516 
Q 1375 441 1709 441 
Q 2250 441 2565 725 
Q 2881 1009 2881 1497 
Q 2881 1984 2565 2268 
Q 2250 2553 1709 2553 
Q 1456 2553 1204 2497 
Q 953 2441 691 2322 
L 691 4666 
z
" transform="scale(0.015625)"/>
       </defs>
       <use xlink:href="#DejaVuSans-35"/>
       <use xlink:href="#DejaVuSans-30" x="63.623047"/>
       <use xlink:href="#DejaVuSans-30" x="127.246094"/>
      </g>
     </g>
    </g>
    <g id="text_7">
     <!-- epoch -->
     <g transform="translate(353.771875 348.676562) scale(0.1 -0.1)">
      <defs>
       <path id="DejaVuSans-65" d="M 3597 1894 
L 3597 1613 
L 953 1613 
Q 991 1019 1311 708 
Q 1631 397 2203 397 
Q 2534 397 2845 478 
Q 3156 559 3463 722 
L 3463 178 
Q 3153 47 2828 -22 
Q 2503 -91 2169 -91 
Q 1331 -91 842 396 
Q 353 884 353 1716 
Q 353 2575 817 3079 
Q 1281 3584 2069 3584 
Q 2775 3584 3186 3129 
Q 3597 2675 3597 1894 
z
M 3022 2063 
Q 3016 2534 2758 2815 
Q 2500 3097 2075 3097 
Q 1594 3097 1305 2825 
Q 1016 2553 972 2059 
L 3022 2063 
z
" transform="scale(0.015625)"/>
       <path id="DejaVuSans-70" d="M 1159 525 
L 1159 -1331 
L 581 -1331 
L 581 3500 
L 1159 3500 
L 1159 2969 
Q 1341 3281 1617 3432 
Q 1894 3584 2278 3584 
Q 2916 3584 3314 3078 
Q 3713 2572 3713 1747 
Q 3713 922 3314 415 
Q 2916 -91 2278 -91 
Q 1894 -91 1617 61 
Q 1341 213 1159 525 
z
M 3116 1747 
Q 3116 2381 2855 2742 
Q 2594 3103 2138 3103 
Q 1681 3103 1420 2742 
Q 1159 2381 1159 1747 
Q 1159 1113 1420 752 
Q 1681 391 2138 391 
Q 2594 391 2855 752 
Q 3116 1113 3116 1747 
z
" transform="scale(0.015625)"/>
       <path id="DejaVuSans-6f" d="M 1959 3097 
Q 1497 3097 1228 2736 
Q 959 2375 959 1747 
Q 959 1119 1226 758 
Q 1494 397 1959 397 
Q 2419 397 2687 759 
Q 2956 1122 2956 1747 
Q 2956 2369 2687 2733 
Q 2419 3097 1959 3097 
z
M 1959 3584 
Q 2709 3584 3137 3096 
Q 3566 2609 3566 1747 
Q 3566 888 3137 398 
Q 2709 -91 1959 -91 
Q 1206 -91 779 398 
Q 353 888 353 1747 
Q 353 2609 779 3096 
Q 1206 3584 1959 3584 
z
" transform="scale(0.015625)"/>
       <path id="DejaVuSans-63" d="M 3122 3366 
L 3122 2828 
Q 2878 2963 2633 3030 
Q 2388 3097 2138 3097 
Q 1578 3097 1268 2742 
Q 959 2388 959 1747 
Q 959 1106 1268 751 
Q 1578 397 2138 397 
Q 2388 397 2633 464 
Q 2878 531 3122 666 
L 3122 134 
Q 2881 22 2623 -34 
Q 2366 -91 2075 -91 
Q 1284 -91 818 406 
Q 353 903 353 1747 
Q 353 2603 823 3093 
Q 1294 3584 2113 3584 
Q 2378 3584 2631 3529 
Q 2884 3475 3122 3366 
z
" transform="scale(0.015625)"/>
       <path id="DejaVuSans-68" d="M 3513 2113 
L 3513 0 
L 2938 0 
L 2938 2094 
Q 2938 2591 2744 2837 
Q 2550 3084 2163 3084 
Q 1697 3084 1428 2787 
Q 1159 2491 1159 1978 
L 1159 0 
L 581 0 
L 581 4863 
L 1159 4863 
L 1159 2956 
Q 1366 3272 1645 3428 
Q 1925 3584 2291 3584 
Q 2894 3584 3203 3211 
Q 3513 2838 3513 2113 
z
" transform="scale(0.015625)"/>
      </defs>
      <use xlink:href="#DejaVuSans-65"/>
      <use xlink:href="#DejaVuSans-70" x="61.523438"/>
      <use xlink:href="#DejaVuSans-6f" x="125"/>
      <use xlink:href="#DejaVuSans-63" x="186.181641"/>
      <use xlink:href="#DejaVuSans-68" x="241.162109"/>
     </g>
    </g>
   </g>
   <g id="matplotlib.axis_2">
    <g id="ytick_1">
     <g id="line2d_13">
      <path d="M 90 285.830771 
L 648 285.830771 
" clip-path="url(#p75c69b2c3d)" style="fill: none; stroke: #b0b0b0; stroke-width: 0.8; stroke-linecap: square"/>
     </g>
     <g id="line2d_14">
      <defs>
       <path id="m1e42cce103" d="M 0 0 
L -3.5 0 
" style="stroke: #000000; stroke-width: 0.8"/>
      </defs>
      <g>
       <use xlink:href="#m1e42cce103" x="90" y="285.830771" style="stroke: #000000; stroke-width: 0.8"/>
      </g>
     </g>
     <g id="text_8">
      <!-- 1.380 -->
      <g transform="translate(54.371875 289.629989) scale(0.1 -0.1)">
       <defs>
        <path id="DejaVuSans-2e" d="M 684 794 
L 1344 794 
L 1344 0 
L 684 0 
L 684 794 
z
" transform="scale(0.015625)"/>
        <path id="DejaVuSans-38" d="M 2034 2216 
Q 1584 2216 1326 1975 
Q 1069 1734 1069 1313 
Q 1069 891 1326 650 
Q 1584 409 2034 409 
Q 2484 409 2743 651 
Q 3003 894 3003 1313 
Q 3003 1734 2745 1975 
Q 2488 2216 2034 2216 
z
M 1403 2484 
Q 997 2584 770 2862 
Q 544 3141 544 3541 
Q 544 4100 942 4425 
Q 1341 4750 2034 4750 
Q 2731 4750 3128 4425 
Q 3525 4100 3525 3541 
Q 3525 3141 3298 2862 
Q 3072 2584 2669 2484 
Q 3125 2378 3379 2068 
Q 3634 1759 3634 1313 
Q 3634 634 3220 271 
Q 2806 -91 2034 -91 
Q 1263 -91 848 271 
Q 434 634 434 1313 
Q 434 1759 690 2068 
Q 947 2378 1403 2484 
z
M 1172 3481 
Q 1172 3119 1398 2916 
Q 1625 2713 2034 2713 
Q 2441 2713 2670 2916 
Q 2900 3119 2900 3481 
Q 2900 3844 2670 4047 
Q 2441 4250 2034 4250 
Q 1625 4250 1398 4047 
Q 1172 3844 1172 3481 
z
" transform="scale(0.015625)"/>
       </defs>
       <use xlink:href="#DejaVuSans-31"/>
       <use xlink:href="#DejaVuSans-2e" x="63.623047"/>
       <use xlink:href="#DejaVuSans-33" x="95.410156"/>
       <use xlink:href="#DejaVuSans-38" x="159.033203"/>
       <use xlink:href="#DejaVuSans-30" x="222.65625"/>
      </g>
     </g>
    </g>
    <g id="ytick_2">
     <g id="line2d_15">
      <path d="M 90 225.264592 
L 648 225.264592 
" clip-path="url(#p75c69b2c3d)" style="fill: none; stroke: #b0b0b0; stroke-width: 0.8; stroke-linecap: square"/>
     </g>
     <g id="line2d_16">
      <g>
       <use xlink:href="#m1e42cce103" x="90" y="225.264592" style="stroke: #000000; stroke-width: 0.8"/>
      </g>
     </g>
     <g id="text_9">
      <!-- 1.385 -->
      <g transform="translate(54.371875 229.063811) scale(0.1 -0.1)">
       <use xlink:href="#DejaVuSans-31"/>
       <use xlink:href="#DejaVuSans-2e" x="63.623047"/>
       <use xlink:href="#DejaVuSans-33" x="95.410156"/>
       <use xlink:href="#DejaVuSans-38" x="159.033203"/>
       <use xlink:href="#DejaVuSans-35" x="222.65625"/>
      </g>
     </g>
    </g>
    <g id="ytick_3">
     <g id="line2d_17">
      <path d="M 90 164.698414 
L 648 164.698414 
" clip-path="url(#p75c69b2c3d)" style="fill: none; stroke: #b0b0b0; stroke-width: 0.8; stroke-linecap: square"/>
     </g>
     <g id="line2d_18">
      <g>
       <use xlink:href="#m1e42cce103" x="90" y="164.698414" style="stroke: #000000; stroke-width: 0.8"/>
      </g>
     </g>
     <g id="text_10">
      <!-- 1.390 -->
      <g transform="translate(54.371875 168.497632) scale(0.1 -0.1)">
       <defs>
        <path id="DejaVuSans-39" d="M 703 97 
L 703 672 
Q 941 559 1184 500 
Q 1428 441 1663 441 
Q 2288 441 2617 861 
Q 2947 1281 2994 2138 
Q 2813 1869 2534 1725 
Q 2256 1581 1919 1581 
Q 1219 1581 811 2004 
Q 403 2428 403 3163 
Q 403 3881 828 4315 
Q 1253 4750 1959 4750 
Q 2769 4750 3195 4129 
Q 3622 3509 3622 2328 
Q 3622 1225 3098 567 
Q 2575 -91 1691 -91 
Q 1453 -91 1209 -44 
Q 966 3 703 97 
z
M 1959 2075 
Q 2384 2075 2632 2365 
Q 2881 2656 2881 3163 
Q 2881 3666 2632 3958 
Q 2384 4250 1959 4250 
Q 1534 4250 1286 3958 
Q 1038 3666 1038 3163 
Q 1038 2656 1286 2365 
Q 1534 2075 1959 2075 
z
" transform="scale(0.015625)"/>
       </defs>
       <use xlink:href="#DejaVuSans-31"/>
       <use xlink:href="#DejaVuSans-2e" x="63.623047"/>
       <use xlink:href="#DejaVuSans-33" x="95.410156"/>
       <use xlink:href="#DejaVuSans-39" x="159.033203"/>
       <use xlink:href="#DejaVuSans-30" x="222.65625"/>
      </g>
     </g>
    </g>
    <g id="ytick_4">
     <g id="line2d_19">
      <path d="M 90 104.132235 
L 648 104.132235 
" clip-path="url(#p75c69b2c3d)" style="fill: none; stroke: #b0b0b0; stroke-width: 0.8; stroke-linecap: square"/>
     </g>
     <g id="line2d_20">
      <g>
       <use xlink:href="#m1e42cce103" x="90" y="104.132235" style="stroke: #000000; stroke-width: 0.8"/>
      </g>
     </g>
     <g id="text_11">
      <!-- 1.395 -->
      <g transform="translate(54.371875 107.931454) scale(0.1 -0.1)">
       <use xlink:href="#DejaVuSans-31"/>
       <use xlink:href="#DejaVuSans-2e" x="63.623047"/>
       <use xlink:href="#DejaVuSans-33" x="95.410156"/>
       <use xlink:href="#DejaVuSans-39" x="159.033203"/>
       <use xlink:href="#DejaVuSans-35" x="222.65625"/>
      </g>
     </g>
    </g>
    <g id="ytick_5">
     <g id="line2d_21">
      <path d="M 90 43.566057 
L 648 43.566057 
" clip-path="url(#p75c69b2c3d)" style="fill: none; stroke: #b0b0b0; stroke-width: 0.8; stroke-linecap: square"/>
     </g>
     <g id="line2d_22">
      <g>
       <use xlink:href="#m1e42cce103" x="90" y="43.566057" style="stroke: #000000; stroke-width: 0.8"/>
      </g>
     </g>
     <g id="text_12">
      <!-- 1.400 -->
      <g transform="translate(54.371875 47.365275) scale(0.1 -0.1)">
       <use xlink:href="#DejaVuSans-31"/>
       <use xlink:href="#DejaVuSans-2e" x="63.623047"/>
       <use xlink:href="#DejaVuSans-34" x="95.410156"/>
       <use xlink:href="#DejaVuSans-30" x="159.033203"/>
       <use xlink:href="#DejaVuSans-30" x="222.65625"/>
      </g>
     </g>
    </g>
    <g id="text_13">
     <!-- loss -->
     <g transform="translate(48.292188 191.457812) rotate(-90) scale(0.1 -0.1)">
      <defs>
       <path id="DejaVuSans-6c" d="M 603 4863 
L 1178 4863 
L 1178 0 
L 603 0 
L 603 4863 
z
" transform="scale(0.015625)"/>
       <path id="DejaVuSans-73" d="M 2834 3397 
L 2834 2853 
Q 2591 2978 2328 3040 
Q 2066 3103 1784 3103 
Q 1356 3103 1142 2972 
Q 928 2841 928 2578 
Q 928 2378 1081 2264 
Q 1234 2150 1697 2047 
L 1894 2003 
Q 2506 1872 2764 1633 
Q 3022 1394 3022 966 
Q 3022 478 2636 193 
Q 2250 -91 1575 -91 
Q 1294 -91 989 -36 
Q 684 19 347 128 
L 347 722 
Q 666 556 975 473 
Q 1284 391 1588 391 
Q 1994 391 2212 530 
Q 2431 669 2431 922 
Q 2431 1156 2273 1281 
Q 2116 1406 1581 1522 
L 1381 1569 
Q 847 1681 609 1914 
Q 372 2147 372 2553 
Q 372 3047 722 3315 
Q 1072 3584 1716 3584 
Q 2034 3584 2315 3537 
Q 2597 3491 2834 3397 
z
" transform="scale(0.015625)"/>
      </defs>
      <use xlink:href="#DejaVuSans-6c"/>
      <use xlink:href="#DejaVuSans-6f" x="27.783203"/>
      <use xlink:href="#DejaVuSans-73" x="88.964844"/>
      <use xlink:href="#DejaVuSans-73" x="141.064453"/>
     </g>
    </g>
   </g>
   <g id="line2d_23">
    <path d="M 115.363636 110.789353 
L 116.380215 198.452326 
L 117.396794 137.780792 
L 118.413372 192.140557 
L 119.429951 161.819231 
L 120.446529 142.778512 
L 121.463108 155.599879 
L 122.479687 207.347429 
L 123.496265 166.016968 
L 124.512844 119.704672 
L 125.529422 179.400055 
L 126.546001 220.848924 
L 127.56258 220.134139 
L 128.579158 217.712534 
L 129.595737 213.624541 
L 130.612316 130.056782 
L 131.628894 177.977705 
L 133.662051 55.8 
L 134.67863 197.635016 
L 135.695209 163.010539 
L 136.711787 202.471006 
L 137.728366 247.837476 
L 138.744944 163.463958 
L 139.761523 137.42701 
L 140.778102 207.705543 
L 141.79468 195.444453 
L 142.811259 150.690244 
L 143.827837 205.643497 
L 144.844416 161.20697 
L 145.860995 137.548307 
L 146.877573 220.671311 
L 147.894152 134.579422 
L 148.910731 161.140546 
L 149.927309 148.330731 
L 150.943888 112.58137 
L 151.960466 152.443272 
L 152.977045 164.25672 
L 153.993624 219.295169 
L 155.010202 178.832559 
L 156.026781 115.109832 
L 157.043359 184.500299 
L 158.059938 134.784471 
L 159.076517 202.768472 
L 160.093095 123.008568 
L 161.109674 184.030996 
L 162.126253 200.533145 
L 163.142831 170.23781 
L 164.15941 201.364895 
L 165.175988 193.356414 
L 166.192567 216.287296 
L 167.209146 153.506064 
L 168.225724 163.518831 
L 169.242303 114.90045 
L 170.258881 101.448051 
L 171.27546 199.707171 
L 172.292039 126.75433 
L 173.308617 207.081731 
L 174.325196 204.70489 
L 175.341774 193.015627 
L 176.358353 128.107368 
L 178.39151 223.0366 
L 179.408089 172.224768 
L 180.424668 179.668641 
L 181.441246 105.266014 
L 182.457825 144.463672 
L 183.474403 189.944218 
L 184.490982 204.883947 
L 185.507561 172.20744 
L 186.524139 172.982874 
L 187.540718 189.389718 
L 188.557296 118.992775 
L 189.573875 131.263974 
L 190.590454 197.596028 
L 191.607032 230.250875 
L 192.623611 116.181287 
L 193.640189 172.305633 
L 194.656768 196.417715 
L 195.673347 115.007307 
L 196.689925 162.639428 
L 197.706504 146.343773 
L 198.723083 164.141199 
L 199.739661 217.39774 
L 200.75624 60.335636 
L 201.772818 210.899694 
L 202.789397 172.136684 
L 203.805976 225.832204 
L 204.822554 103.928861 
L 205.839133 226.056025 
L 206.855711 202.055131 
L 207.87229 224.399746 
L 208.888869 190.697991 
L 209.905447 175.674509 
L 211.938604 224.13116 
L 212.955183 127.701601 
L 213.971762 168.935313 
L 214.98834 142.517146 
L 216.004919 165.446584 
L 217.021498 240.140901 
L 219.054655 182.828135 
L 220.071233 208.066546 
L 221.087812 212.105443 
L 222.104391 138.484025 
L 223.120969 196.009061 
L 224.137548 117.96464 
L 225.154126 72.609723 
L 226.170705 235.873851 
L 227.187284 141.819689 
L 228.203862 178.698266 
L 229.220441 184.937834 
L 230.237019 94.470594 
L 231.253598 182.793479 
L 232.270177 214.265682 
L 233.286755 189.625091 
L 234.303334 196.583777 
L 235.319913 186.277876 
L 236.336491 214.404307 
L 237.35307 208.660034 
L 238.369648 197.048748 
L 239.386227 174.018229 
L 240.402806 171.457999 
L 241.419384 142.268776 
L 242.435963 126.000557 
L 243.452541 238.525054 
L 244.46912 227.192461 
L 245.485699 134.746927 
L 246.502277 170.217594 
L 247.518856 165.523117 
L 248.535435 143.478857 
L 249.552013 188.462663 
L 250.568592 146.131503 
L 251.58517 167.055212 
L 252.601749 209.197206 
L 253.618328 163.218476 
L 254.634906 186.425165 
L 255.651485 137.194524 
L 256.668063 95.731215 
L 257.684642 209.458572 
L 258.701221 175.91277 
L 259.717799 136.988031 
L 260.734378 149.33865 
L 261.750956 196.950555 
L 262.767535 171.657272 
L 263.784114 122.933479 
L 264.800692 144.943083 
L 265.817271 169.975 
L 266.83385 164.515198 
L 267.850428 170.364883 
L 268.867007 164.396789 
L 269.883585 178.345928 
L 270.900164 168.958417 
L 271.916743 77.100595 
L 272.933321 193.288545 
L 273.9499 161.345595 
L 274.966478 154.742136 
L 275.983057 181.310481 
L 276.999636 128.516023 
L 278.016214 225.791771 
L 279.032793 192.420695 
L 280.049371 200.538921 
L 281.06595 194.247368 
L 282.082529 176.429726 
L 283.099107 124.312509 
L 284.115686 108.390852 
L 285.132265 205.914971 
L 286.148843 143.471637 
L 287.165422 137.571411 
L 288.182 205.582848 
L 289.198579 131.775154 
L 290.215158 159.959345 
L 291.231736 156.971688 
L 292.248315 106.093432 
L 293.264893 101.599672 
L 294.281472 160.665466 
L 295.298051 122.132054 
L 296.314629 130.703698 
L 297.331208 146.343773 
L 298.347786 186.295204 
L 299.364365 176.613115 
L 300.380944 169.102818 
L 301.397522 252.337011 
L 302.414101 232.799553 
L 303.43068 173.056518 
L 304.447258 143.705566 
L 305.463837 169.163467 
L 306.480415 144.294722 
L 307.496994 183.885151 
L 309.530151 229.349813 
L 310.54673 173.069514 
L 311.563308 134.508665 
L 312.579887 166.398187 
L 313.596466 132.358534 
L 314.613044 177.675907 
L 315.629623 177.145955 
L 316.646201 165.478352 
L 317.66278 151.091679 
L 318.679359 147.955288 
L 319.695937 208.436213 
L 320.712516 166.071841 
L 321.729095 106.259493 
L 322.745673 187.67279 
L 323.762252 220.996213 
L 324.77883 146.478066 
L 325.795409 150.402886 
L 326.811988 175.364046 
L 327.828566 214.138609 
L 328.845145 180.44985 
L 329.861723 132.604016 
L 330.878302 199.29274 
L 331.894881 173.329436 
L 332.911459 153.429531 
L 333.928038 168.838564 
L 334.944617 162.02428 
L 335.961195 190.518934 
L 336.977774 157.944951 
L 337.994352 171.912862 
L 339.010931 213.178342 
L 340.02751 155.019386 
L 341.044088 220.385397 
L 342.060667 201.941055 
L 343.077245 178.228963 
L 344.093824 190.890044 
L 345.110403 188.081444 
L 346.126981 87.399276 
L 347.14356 129.532606 
L 348.160138 197.418415 
L 349.176717 166.883374 
L 350.193296 164.707251 
L 351.209874 159.153588 
L 352.226453 202.726596 
L 353.243032 138.743947 
L 354.25961 125.334868 
L 355.276189 63.532675 
L 357.309346 185.401361 
L 358.325925 117.807243 
L 359.342503 248.799186 
L 360.359082 198.885529 
L 361.37566 84.1026 
L 362.392239 193.792505 
L 363.408818 147.914856 
L 364.425396 128.963666 
L 365.441975 164.977281 
L 366.458553 180.324222 
L 367.475132 154.10244 
L 368.491711 123.542852 
L 369.508289 198.538967 
L 370.524868 195.791015 
L 371.541447 61.98614 
L 372.558025 164.428557 
L 373.574604 161.715262 
L 374.591182 256.3297 
L 375.607761 121.755167 
L 376.62434 147.784895 
L 377.640918 158.29007 
L 378.657497 146.222476 
L 379.674075 121.630982 
L 380.690654 227.754181 
L 381.707233 224.51671 
L 382.723811 163.827849 
L 383.74039 182.826691 
L 384.756968 91.417956 
L 385.773547 209.898995 
L 386.790126 111.463706 
L 387.806704 150.056323 
L 388.823283 174.568397 
L 389.839862 132.876934 
L 390.85644 123.049 
L 391.873019 222.317483 
L 392.889597 149.410851 
L 393.906176 213.498912 
L 394.922755 170.164166 
L 395.939333 149.381971 
L 396.955912 163.690668 
L 397.97249 151.253408 
L 398.989069 163.017759 
L 400.005648 150.304693 
L 401.022226 176.48893 
L 402.038805 154.716144 
L 403.055383 167.446538 
L 404.071962 119.6137 
L 405.088541 86.296052 
L 406.105119 174.426884 
L 407.121698 179.060713 
L 408.138277 151.753035 
L 409.154855 198.944733 
L 410.171434 192.520332 
L 411.188012 181.727799 
L 412.204591 212.514097 
L 413.22117 141.263745 
L 414.237748 236.82401 
L 415.254327 129.434413 
L 416.270905 215.394898 
L 417.287484 171.329482 
L 418.304063 184.588384 
L 419.320641 156.807071 
L 420.33722 202.059463 
L 421.353799 198.536078 
L 422.370377 152.122702 
L 423.386956 208.948836 
L 425.420113 145.789273 
L 426.436692 172.054375 
L 427.45327 164.01557 
L 428.469849 190.723983 
L 429.486427 206.902674 
L 430.503006 161.146322 
L 431.519585 154.300269 
L 432.536163 156.781079 
L 433.552742 178.361812 
L 434.56932 209.019593 
L 435.585899 190.084287 
L 436.602478 163.404754 
L 437.619056 80.788597 
L 439.652214 193.876257 
L 440.668792 173.429073 
L 441.685371 203.750399 
L 442.701949 125.518258 
L 443.718528 226.308727 
L 444.735107 204.283239 
L 445.751685 157.397671 
L 446.768264 234.302768 
L 447.784842 181.921297 
L 448.801421 186.267768 
L 449.818 221.62147 
L 450.834578 199.409705 
L 451.851157 220.073491 
L 452.867735 136.868178 
L 453.884314 210.996443 
L 454.900893 130.429336 
L 455.917471 200.032073 
L 456.93405 196.576557 
L 457.950629 196.879799 
L 458.967207 155.072815 
L 459.983786 138.569222 
L 461.000364 199.464577 
L 462.016943 81.774856 
L 463.033522 120.651943 
L 464.0501 147.917744 
L 465.066679 121.94722 
L 466.083257 161.848111 
L 467.099836 182.289519 
L 468.116415 161.191086 
L 469.132993 122.959471 
L 470.149572 188.303822 
L 471.16615 158.570208 
L 472.182729 169.494145 
L 473.199308 99.497193 
L 474.215886 225.487085 
L 475.232465 208.07521 
L 476.249044 202.904209 
L 477.265622 161.4409 
L 478.282201 143.005221 
L 479.298779 175.141669 
L 480.315358 195.080562 
L 481.331937 162.879134 
L 482.348515 118.829602 
L 483.365094 204.768427 
L 484.381672 161.858219 
L 485.398251 233.341057 
L 486.41483 84.242669 
L 487.431408 212.557418 
L 488.447987 98.21058 
L 489.464565 248.064185 
L 490.481144 183.453392 
L 491.497723 180.08596 
L 492.514301 100.269739 
L 493.53088 183.802842 
L 494.547459 181.140087 
L 495.564037 159.399069 
L 496.580616 92.382555 
L 497.597194 232.873198 
L 498.613773 177.437645 
L 499.630352 151.504666 
L 500.64693 190.484277 
L 501.663509 180.60436 
L 502.680087 75.695573 
L 503.696666 174.448544 
L 504.713245 239.853543 
L 505.729823 140.29337 
L 506.746402 224.284225 
L 507.762981 156.326216 
L 508.779559 163.917377 
L 509.796138 230.786603 
L 510.812716 187.49662 
L 512.845874 125.405625 
L 513.862452 194.127515 
L 514.879031 193.421394 
L 515.895609 82.277371 
L 516.912188 202.481114 
L 517.928767 117.210867 
L 518.945345 124.227312 
L 519.961924 200.94902 
L 520.978502 222.957179 
L 521.995081 227.954899 
L 523.01166 165.62853 
L 524.028238 198.313701 
L 525.044817 187.552937 
L 526.061396 189.873461 
L 527.077974 138.133131 
L 528.094553 232.40245 
L 529.111131 219.059796 
L 530.12771 166.138265 
L 531.144289 175.868006 
L 532.160867 125.154367 
L 533.177446 212.970405 
L 534.194024 146.381317 
L 535.210603 211.47441 
L 536.227182 195.450229 
L 537.24376 229.430677 
L 538.260339 171.691928 
L 539.276917 130.001909 
L 540.293496 235.626925 
L 541.310075 172.7475 
L 542.326653 181.158859 
L 543.343232 152.196346 
L 544.359811 128.63732 
L 545.376389 224.552811 
L 546.392968 220.707411 
L 547.409546 154.086556 
L 548.426125 190.472725 
L 549.442704 149.318434 
L 550.459282 79.990059 
L 551.475861 181.86498 
L 552.492439 230.131022 
L 553.509018 142.856488 
L 554.525597 168.962749 
L 555.542175 131.367943 
L 556.558754 204.315007 
L 557.575332 230.481917 
L 558.591911 175.558988 
L 559.60849 280.834553 
L 560.625068 61.509616 
L 561.641647 122.325551 
L 562.658226 190.412077 
L 563.674804 206.216769 
L 564.691383 206.498351 
L 565.707961 178.844111 
L 566.72454 186.757287 
L 567.741119 138.803152 
L 568.757697 165.71517 
L 569.774276 96.486432 
L 570.790854 231.364207 
L 571.807433 232.552627 
L 572.824012 174.473092 
L 573.84059 170.646465 
L 574.857169 70.762834 
L 575.873747 163.013427 
L 576.890326 111.082487 
L 577.906905 150.644035 
L 578.923483 149.211577 
L 579.940062 241.971906 
L 580.956641 148.961764 
L 581.973219 227.162137 
L 582.989798 204.985028 
L 584.006376 246.800676 
L 585.022955 175.010264 
L 586.039534 211.036875 
L 587.056112 200.219794 
L 588.072691 192.52322 
L 589.089269 194.414873 
L 590.105848 89.250497 
L 591.122427 196.939003 
L 592.139005 187.502396 
L 593.155584 220.118255 
L 594.172163 179.56034 
L 595.188741 246.363141 
L 596.20532 174.901963 
L 597.221898 200.240011 
L 598.238477 101.641549 
L 599.255056 158.213537 
L 600.271634 198.48987 
L 601.288213 133.405441 
L 602.304791 122.054077 
L 604.337949 204.183602 
L 605.354527 197.704329 
L 606.371106 151.874332 
L 607.387684 148.014493 
L 608.404263 164.922409 
L 609.420842 205.887535 
L 610.43742 192.331167 
L 611.453999 223.175225 
L 612.470578 156.570253 
L 613.487156 139.907819 
L 614.503735 169.710746 
L 615.520313 175.582092 
L 616.536892 173.403081 
L 617.553471 127.398359 
L 618.570049 130.474101 
L 619.586628 179.56034 
L 620.603206 205.369135 
L 621.619785 180.656344 
L 622.636364 142.263 
L 622.636364 142.263 
" clip-path="url(#p75c69b2c3d)" style="fill: none; stroke: #1f77b4; stroke-width: 1.5; stroke-linecap: square"/>
   </g>
   <g id="line2d_24">
    <path d="M 115.363636 260.907212 
L 116.380215 280.10966 
L 117.396794 271.667976 
L 118.413372 283.618605 
L 119.429951 285.559355 
L 120.446529 288.782385 
L 121.463108 276.436098 
L 122.479687 290.334696 
L 123.496265 295.667426 
L 124.512844 289.481286 
L 125.529422 293.290585 
L 126.546001 294.671059 
L 127.56258 297.885426 
L 128.579158 292.372195 
L 129.595737 296.867399 
L 130.612316 296.412535 
L 131.628894 283.869863 
L 132.645473 290.194627 
L 133.662051 290.939737 
L 134.67863 282.838839 
L 135.695209 284.749265 
L 136.711787 283.711021 
L 137.728366 283.875639 
L 138.744944 286.344896 
L 139.761523 294.841452 
L 140.778102 296.884727 
L 141.79468 293.251597 
L 142.811259 291.185218 
L 144.844416 295.485481 
L 145.860995 292.079061 
L 146.877573 300.920735 
L 147.894152 302.597231 
L 148.910731 278.867811 
L 149.927309 291.884119 
L 150.943888 289.653124 
L 151.960466 296.630581 
L 152.977045 295.71941 
L 153.993624 290.676927 
L 155.010202 306.773309 
L 156.026781 285.767292 
L 158.059938 292.880486 
L 159.076517 287.878435 
L 160.093095 300.559733 
L 161.109674 301.082464 
L 162.126253 296.675345 
L 163.142831 284.083576 
L 164.15941 294.782248 
L 165.175988 297.232733 
L 166.192567 291.332507 
L 167.209146 293.592383 
L 168.225724 291.368608 
L 169.242303 284.316062 
L 170.258881 296.480404 
L 171.27546 288.24377 
L 172.292039 289.478398 
L 173.308617 289.907269 
L 174.325196 292.317322 
L 175.341774 292.259562 
L 176.358353 285.887145 
L 177.374932 296.646465 
L 178.39151 303.33512 
L 179.408089 294.81546 
L 180.424668 292.216242 
L 181.441246 290.483429 
L 182.457825 272.762536 
L 183.474403 295.528801 
L 184.490982 283.731238 
L 185.507561 293.251597 
L 186.524139 294.324497 
L 187.540718 286.955712 
L 188.557296 289.172268 
L 189.573875 302.275217 
L 190.590454 281.7876 
L 191.607032 306.10762 
L 192.623611 285.494374 
L 193.640189 296.282574 
L 194.656768 299.251459 
L 195.673347 289.1405 
L 196.689925 294.366373 
L 197.706504 295.151914 
L 198.723083 291.739718 
L 199.739661 295.482593 
L 200.75624 296.655129 
L 201.772818 302.026847 
L 202.789397 293.478307 
L 203.805976 288.710185 
L 204.822554 298.767716 
L 205.839133 296.85007 
L 206.855711 285.846713 
L 207.87229 296.845738 
L 208.888869 296.585817 
L 209.905447 293.440762 
L 210.922026 294.821236 
L 211.938604 290.103655 
L 212.955183 296.120845 
L 213.971762 290.149863 
L 214.98834 294.555538 
L 216.004919 307.316257 
L 217.021498 286.448865 
L 218.038076 295.164911 
L 219.054655 296.81397 
L 220.071233 293.758445 
L 221.087812 289.295009 
L 222.104391 292.741861 
L 223.120969 294.116559 
L 224.137548 278.674314 
L 225.154126 299.530153 
L 226.170705 294.373593 
L 227.187284 294.041471 
L 228.203862 299.202363 
L 229.220441 293.744004 
L 230.237019 291.979424 
L 231.253598 289.710884 
L 232.270177 291.18955 
L 233.286755 293.331018 
L 234.303334 289.565039 
L 235.319913 296.676789 
L 236.336491 290.694255 
L 237.35307 290.369353 
L 238.369648 296.185826 
L 239.386227 299.339544 
L 240.402806 295.550461 
L 241.419384 289.901493 
L 242.435963 290.572958 
L 244.46912 299.148935 
L 245.485699 293.377226 
L 246.502277 293.631372 
L 247.518856 283.992603 
L 249.552013 301.829018 
L 250.568592 291.726722 
L 251.58517 296.611809 
L 252.601749 295.387288 
L 253.618328 292.26245 
L 254.634906 290.197515 
L 255.651485 292.223462 
L 256.668063 298.82692 
L 257.684642 295.583674 
L 258.701221 289.398978 
L 259.717799 290.327476 
L 260.734378 296.133841 
L 261.750956 283.611385 
L 262.767535 291.771487 
L 263.784114 292.744749 
L 264.800692 295.430608 
L 265.817271 277.546542 
L 266.83385 290.676927 
L 267.850428 294.85878 
L 268.867007 293.234269 
L 269.883585 292.941135 
L 270.900164 289.175156 
L 271.916743 287.331155 
L 272.933321 286.783875 
L 274.966478 298.663747 
L 275.983057 293.562059 
L 276.999636 301.703389 
L 278.016214 292.367863 
L 279.032793 300.860087 
L 280.049371 295.34108 
L 281.06595 294.717267 
L 282.082529 299.050742 
L 283.099107 296.106405 
L 284.115686 285.274885 
L 285.132265 294.162767 
L 286.148843 293.60538 
L 287.165422 298.51357 
L 288.182 288.80549 
L 289.198579 296.640689 
L 290.215158 289.868281 
L 291.231736 279.146505 
L 292.248315 291.520229 
L 293.264893 283.690805 
L 294.281472 264.983653 
L 295.298051 280.08078 
L 296.314629 301.824686 
L 297.331208 283.228722 
L 298.347786 298.639199 
L 299.364365 289.930373 
L 300.380944 294.782248 
L 301.397522 285.293657 
L 302.414101 292.294218 
L 303.43068 294.723043 
L 304.447258 294.347601 
L 305.463837 296.626249 
L 306.480415 290.01557 
L 307.496994 284.204873 
L 308.513573 292.793846 
L 309.530151 286.679906 
L 310.54673 300.783554 
L 311.563308 287.734034 
L 312.579887 281.659083 
L 313.596466 290.180187 
L 314.613044 294.123779 
L 315.629623 294.616187 
L 316.646201 291.882675 
L 317.66278 274.056369 
L 318.679359 292.159925 
L 319.695937 293.164956 
L 320.712516 295.782947 
L 321.729095 288.209113 
L 322.745673 298.138128 
L 323.762252 290.971505 
L 324.77883 293.834977 
L 325.795409 286.703011 
L 326.811988 298.936665 
L 327.828566 291.75127 
L 328.845145 282.386864 
L 329.861723 294.920873 
L 330.878302 288.954223 
L 331.894881 298.276753 
L 332.911459 289.139056 
L 333.928038 299.379976 
L 334.944617 298.390829 
L 335.961195 288.936894 
L 336.977774 289.224252 
L 337.994352 291.813363 
L 339.010931 298.247872 
L 340.02751 294.967081 
L 341.044088 288.474811 
L 342.060667 298.795152 
L 343.077245 283.462652 
L 344.093824 295.821935 
L 345.110403 287.072677 
L 346.126981 301.532996 
L 347.14356 306.537935 
L 348.160138 296.374991 
L 349.176717 292.073285 
L 350.193296 296.128065 
L 351.209874 279.298126 
L 352.226453 281.49591 
L 353.243032 291.266083 
L 354.25961 285.131928 
L 355.276189 280.779681 
L 356.292767 289.13328 
L 357.309346 290.681259 
L 358.325925 295.274655 
L 359.342503 290.88342 
L 360.359082 300.327247 
L 361.37566 288.27265 
L 362.392239 286.957156 
L 363.408818 295.076826 
L 364.425396 283.848202 
L 365.441975 287.618513 
L 366.458553 288.883466 
L 367.475132 289.914489 
L 368.491711 295.550461 
L 369.508289 292.857382 
L 370.524868 297.082556 
L 371.541447 299.934476 
L 372.558025 294.418357 
L 373.574604 293.368562 
L 374.591182 298.917893 
L 375.607761 289.556375 
L 376.62434 299.618238 
L 377.640918 296.769206 
L 378.657497 295.329528 
L 379.674075 286.33912 
L 380.690654 286.233707 
L 381.707233 296.330227 
L 382.723811 294.74326 
L 383.74039 291.020601 
L 384.756968 277.673615 
L 385.773547 296.971367 
L 386.790126 296.276798 
L 387.806704 291.367164 
L 388.823283 293.241489 
L 389.839862 300.164074 
L 390.85644 291.615533 
L 391.873019 285.586791 
L 392.889597 285.274885 
L 393.906176 283.588281 
L 394.922755 291.993864 
L 395.939333 295.105706 
L 396.955912 289.960698 
L 397.97249 292.136821 
L 398.989069 296.117957 
L 400.005648 282.740647 
L 401.022226 286.757883 
L 402.038805 297.434895 
L 403.055383 284.562987 
L 404.071962 282.515381 
L 405.088541 297.144649 
L 406.105119 285.588235 
L 407.121698 284.600532 
L 408.138277 303.411653 
L 409.154855 302.98567 
L 410.171434 299.791519 
L 411.188012 289.227141 
L 412.204591 291.362832 
L 413.22117 289.775864 
L 414.237748 287.556421 
L 415.254327 299.881048 
L 416.270905 287.947747 
L 417.287484 292.614788 
L 418.304063 287.118886 
L 419.320641 286.402657 
L 420.33722 287.562197 
L 421.353799 297.896978 
L 422.370377 292.271114 
L 423.386956 284.542771 
L 424.403534 284.724717 
L 425.420113 292.698541 
L 426.436692 288.652424 
L 427.45327 281.836696 
L 428.469849 290.339028 
L 429.486427 296.372103 
L 430.503006 296.623361 
L 431.519585 300.686806 
L 432.536163 284.932654 
L 433.552742 290.727467 
L 434.56932 289.775864 
L 435.585899 291.865347 
L 436.602478 288.925342 
L 437.619056 286.36078 
L 438.635635 292.181585 
L 439.652214 307.8 
L 440.668792 294.584418 
L 441.685371 293.060988 
L 443.718528 291.910112 
L 444.735107 301.210981 
L 445.751685 294.341825 
L 446.768264 289.487062 
L 447.784842 293.707904 
L 448.801421 293.794545 
L 449.818 285.764404 
L 451.851157 295.182239 
L 453.884314 284.349274 
L 454.900893 298.907785 
L 455.917471 291.692066 
L 456.93405 293.975046 
L 457.950629 286.58027 
L 458.967207 296.995916 
L 459.983786 286.63081 
L 461.000364 296.72733 
L 462.016943 297.294826 
L 463.033522 287.673386 
L 464.0501 299.167707 
L 465.066679 294.431353 
L 466.083257 306.779085 
L 467.099836 297.974954 
L 468.116415 297.515759 
L 469.132993 277.673615 
L 470.149572 290.289932 
L 471.16615 289.544823 
L 472.182729 295.112926 
L 474.215886 283.212838 
L 475.232465 299.283228 
L 476.249044 289.959254 
L 477.265622 289.683448 
L 478.282201 295.469597 
L 479.298779 291.690622 
L 480.315358 296.623361 
L 481.331937 287.237294 
L 482.348515 290.367909 
L 483.365094 284.97453 
L 484.381672 288.665421 
L 485.398251 297.709257 
L 486.41483 301.691837 
L 487.431408 279.136397 
L 489.464565 298.2652 
L 490.481144 292.034296 
L 491.497723 302.549579 
L 492.514301 275.870046 
L 493.53088 290.850208 
L 494.547459 289.622799 
L 495.564037 291.513009 
L 496.580616 288.314526 
L 497.597194 291.484128 
L 498.613773 295.543241 
L 499.630352 295.170687 
L 500.64693 290.385237 
L 501.663509 288.239438 
L 502.680087 285.004855 
L 503.696666 291.046593 
L 504.713245 292.614788 
L 505.729823 277.810796 
L 506.746402 307.291708 
L 507.762981 300.16985 
L 508.779559 295.043614 
L 509.796138 281.380389 
L 510.812716 291.362832 
L 511.829295 295.382956 
L 512.845874 293.102864 
L 513.862452 295.260215 
L 514.879031 286.191831 
L 515.895609 298.422598 
L 516.912188 289.404754 
L 517.928767 286.604818 
L 518.945345 284.443135 
L 519.961924 295.869588 
L 520.978502 294.17432 
L 521.995081 292.714425 
L 523.01166 289.502946 
L 524.028238 287.377363 
L 525.044817 286.037322 
L 526.061396 295.198123 
L 527.077974 292.494936 
L 528.094553 287.68205 
L 529.111131 294.697051 
L 530.12771 292.409739 
L 531.144289 287.153542 
L 532.160867 282.860499 
L 533.177446 293.885517 
L 534.194024 290.434333 
L 535.210603 297.96629 
L 536.227182 293.985154 
L 537.24376 294.073239 
L 538.260339 294.678279 
L 539.276917 294.955529 
L 540.293496 289.733988 
L 542.326653 286.11241 
L 543.343232 297.547527 
L 544.359811 287.497216 
L 545.376389 289.398978 
L 546.392968 289.611247 
L 547.409546 290.743351 
L 548.426125 293.801765 
L 549.442704 291.863903 
L 550.459282 304.963964 
L 551.475861 292.040072 
L 552.492439 298.034159 
L 553.509018 292.922363 
L 554.525597 296.984363 
L 556.558754 282.44318 
L 557.575332 292.448727 
L 558.591911 293.579387 
L 559.60849 293.879741 
L 560.625068 301.244194 
L 561.641647 291.577989 
L 562.658226 295.728075 
L 563.674804 294.331717 
L 565.707961 299.206695 
L 566.72454 290.523862 
L 567.741119 293.420546 
L 568.757697 299.794407 
L 569.774276 290.318812 
L 570.790854 286.04743 
L 571.807433 293.224161 
L 572.824012 302.979894 
L 573.84059 288.186009 
L 574.857169 294.74326 
L 575.873747 297.917194 
L 576.890326 292.118049 
L 577.906905 293.372894 
L 578.923483 295.62555 
L 579.940062 297.099884 
L 580.956641 294.146883 
L 581.973219 292.614788 
L 582.989798 296.357663 
L 584.006376 292.406851 
L 585.022955 294.627739 
L 586.039534 288.978771 
L 587.056112 294.880441 
L 588.072691 288.661089 
L 589.089269 294.135331 
L 590.105848 288.730401 
L 591.122427 289.553487 
L 592.139005 297.469551 
L 593.155584 290.769343 
L 594.172163 289.241581 
L 595.188741 285.625779 
L 596.20532 297.154757 
L 597.221898 292.720201 
L 598.238477 290.824216 
L 599.255056 299.050742 
L 600.271634 286.28136 
L 601.288213 301.551768 
L 602.304791 282.570253 
L 603.32137 290.165747 
L 604.337949 289.144832 
L 605.354527 294.890549 
L 606.371106 286.984593 
L 607.387684 287.800458 
L 608.404263 287.539093 
L 610.43742 289.947702 
L 611.453999 294.672503 
L 612.470578 295.180795 
L 613.487156 290.295708 
L 614.503735 284.477791 
L 615.520313 297.358362 
L 616.536892 289.879833 
L 617.553471 288.103701 
L 618.570049 288.398279 
L 619.586628 283.940619 
L 620.603206 291.062478 
L 621.619785 295.868144 
L 622.636364 294.01981 
L 622.636364 294.01981 
" clip-path="url(#p75c69b2c3d)" style="fill: none; stroke: #ff7f0e; stroke-width: 1.5; stroke-linecap: square"/>
   </g>
   <g id="patch_3">
    <path d="M 90 320.4 
L 90 43.2 
" style="fill: none; stroke: #000000; stroke-width: 0.8; stroke-linejoin: miter; stroke-linecap: square"/>
   </g>
   <g id="patch_4">
    <path d="M 648 320.4 
L 648 43.2 
" style="fill: none; stroke: #000000; stroke-width: 0.8; stroke-linejoin: miter; stroke-linecap: square"/>
   </g>
   <g id="patch_5">
    <path d="M 90 320.4 
L 648 320.4 
" style="fill: none; stroke: #000000; stroke-width: 0.8; stroke-linejoin: miter; stroke-linecap: square"/>
   </g>
   <g id="patch_6">
    <path d="M 90 43.2 
L 648 43.2 
" style="fill: none; stroke: #000000; stroke-width: 0.8; stroke-linejoin: miter; stroke-linecap: square"/>
   </g>
   <g id="text_14">
    <!-- model train and validation loss over time -->
    <g transform="translate(245.555625 37.2) scale(0.12 -0.12)">
     <defs>
      <path id="DejaVuSans-6d" d="M 3328 2828 
Q 3544 3216 3844 3400 
Q 4144 3584 4550 3584 
Q 5097 3584 5394 3201 
Q 5691 2819 5691 2113 
L 5691 0 
L 5113 0 
L 5113 2094 
Q 5113 2597 4934 2840 
Q 4756 3084 4391 3084 
Q 3944 3084 3684 2787 
Q 3425 2491 3425 1978 
L 3425 0 
L 2847 0 
L 2847 2094 
Q 2847 2600 2669 2842 
Q 2491 3084 2119 3084 
Q 1678 3084 1418 2786 
Q 1159 2488 1159 1978 
L 1159 0 
L 581 0 
L 581 3500 
L 1159 3500 
L 1159 2956 
Q 1356 3278 1631 3431 
Q 1906 3584 2284 3584 
Q 2666 3584 2933 3390 
Q 3200 3197 3328 2828 
z
" transform="scale(0.015625)"/>
      <path id="DejaVuSans-64" d="M 2906 2969 
L 2906 4863 
L 3481 4863 
L 3481 0 
L 2906 0 
L 2906 525 
Q 2725 213 2448 61 
Q 2172 -91 1784 -91 
Q 1150 -91 751 415 
Q 353 922 353 1747 
Q 353 2572 751 3078 
Q 1150 3584 1784 3584 
Q 2172 3584 2448 3432 
Q 2725 3281 2906 2969 
z
M 947 1747 
Q 947 1113 1208 752 
Q 1469 391 1925 391 
Q 2381 391 2643 752 
Q 2906 1113 2906 1747 
Q 2906 2381 2643 2742 
Q 2381 3103 1925 3103 
Q 1469 3103 1208 2742 
Q 947 2381 947 1747 
z
" transform="scale(0.015625)"/>
      <path id="DejaVuSans-20" transform="scale(0.015625)"/>
      <path id="DejaVuSans-74" d="M 1172 4494 
L 1172 3500 
L 2356 3500 
L 2356 3053 
L 1172 3053 
L 1172 1153 
Q 1172 725 1289 603 
Q 1406 481 1766 481 
L 2356 481 
L 2356 0 
L 1766 0 
Q 1100 0 847 248 
Q 594 497 594 1153 
L 594 3053 
L 172 3053 
L 172 3500 
L 594 3500 
L 594 4494 
L 1172 4494 
z
" transform="scale(0.015625)"/>
      <path id="DejaVuSans-72" d="M 2631 2963 
Q 2534 3019 2420 3045 
Q 2306 3072 2169 3072 
Q 1681 3072 1420 2755 
Q 1159 2438 1159 1844 
L 1159 0 
L 581 0 
L 581 3500 
L 1159 3500 
L 1159 2956 
Q 1341 3275 1631 3429 
Q 1922 3584 2338 3584 
Q 2397 3584 2469 3576 
Q 2541 3569 2628 3553 
L 2631 2963 
z
" transform="scale(0.015625)"/>
      <path id="DejaVuSans-61" d="M 2194 1759 
Q 1497 1759 1228 1600 
Q 959 1441 959 1056 
Q 959 750 1161 570 
Q 1363 391 1709 391 
Q 2188 391 2477 730 
Q 2766 1069 2766 1631 
L 2766 1759 
L 2194 1759 
z
M 3341 1997 
L 3341 0 
L 2766 0 
L 2766 531 
Q 2569 213 2275 61 
Q 1981 -91 1556 -91 
Q 1019 -91 701 211 
Q 384 513 384 1019 
Q 384 1609 779 1909 
Q 1175 2209 1959 2209 
L 2766 2209 
L 2766 2266 
Q 2766 2663 2505 2880 
Q 2244 3097 1772 3097 
Q 1472 3097 1187 3025 
Q 903 2953 641 2809 
L 641 3341 
Q 956 3463 1253 3523 
Q 1550 3584 1831 3584 
Q 2591 3584 2966 3190 
Q 3341 2797 3341 1997 
z
" transform="scale(0.015625)"/>
      <path id="DejaVuSans-69" d="M 603 3500 
L 1178 3500 
L 1178 0 
L 603 0 
L 603 3500 
z
M 603 4863 
L 1178 4863 
L 1178 4134 
L 603 4134 
L 603 4863 
z
" transform="scale(0.015625)"/>
      <path id="DejaVuSans-6e" d="M 3513 2113 
L 3513 0 
L 2938 0 
L 2938 2094 
Q 2938 2591 2744 2837 
Q 2550 3084 2163 3084 
Q 1697 3084 1428 2787 
Q 1159 2491 1159 1978 
L 1159 0 
L 581 0 
L 581 3500 
L 1159 3500 
L 1159 2956 
Q 1366 3272 1645 3428 
Q 1925 3584 2291 3584 
Q 2894 3584 3203 3211 
Q 3513 2838 3513 2113 
z
" transform="scale(0.015625)"/>
      <path id="DejaVuSans-76" d="M 191 3500 
L 800 3500 
L 1894 563 
L 2988 3500 
L 3597 3500 
L 2284 0 
L 1503 0 
L 191 3500 
z
" transform="scale(0.015625)"/>
     </defs>
     <use xlink:href="#DejaVuSans-6d"/>
     <use xlink:href="#DejaVuSans-6f" x="97.412109"/>
     <use xlink:href="#DejaVuSans-64" x="158.59375"/>
     <use xlink:href="#DejaVuSans-65" x="222.070312"/>
     <use xlink:href="#DejaVuSans-6c" x="283.59375"/>
     <use xlink:href="#DejaVuSans-20" x="311.376953"/>
     <use xlink:href="#DejaVuSans-74" x="343.164062"/>
     <use xlink:href="#DejaVuSans-72" x="382.373047"/>
     <use xlink:href="#DejaVuSans-61" x="423.486328"/>
     <use xlink:href="#DejaVuSans-69" x="484.765625"/>
     <use xlink:href="#DejaVuSans-6e" x="512.548828"/>
     <use xlink:href="#DejaVuSans-20" x="575.927734"/>
     <use xlink:href="#DejaVuSans-61" x="607.714844"/>
     <use xlink:href="#DejaVuSans-6e" x="668.994141"/>
     <use xlink:href="#DejaVuSans-64" x="732.373047"/>
     <use xlink:href="#DejaVuSans-20" x="795.849609"/>
     <use xlink:href="#DejaVuSans-76" x="827.636719"/>
     <use xlink:href="#DejaVuSans-61" x="886.816406"/>
     <use xlink:href="#DejaVuSans-6c" x="948.095703"/>
     <use xlink:href="#DejaVuSans-69" x="975.878906"/>
     <use xlink:href="#DejaVuSans-64" x="1003.662109"/>
     <use xlink:href="#DejaVuSans-61" x="1067.138672"/>
     <use xlink:href="#DejaVuSans-74" x="1128.417969"/>
     <use xlink:href="#DejaVuSans-69" x="1167.626953"/>
     <use xlink:href="#DejaVuSans-6f" x="1195.410156"/>
     <use xlink:href="#DejaVuSans-6e" x="1256.591797"/>
     <use xlink:href="#DejaVuSans-20" x="1319.970703"/>
     <use xlink:href="#DejaVuSans-6c" x="1351.757812"/>
     <use xlink:href="#DejaVuSans-6f" x="1379.541016"/>
     <use xlink:href="#DejaVuSans-73" x="1440.722656"/>
     <use xlink:href="#DejaVuSans-73" x="1492.822266"/>
     <use xlink:href="#DejaVuSans-20" x="1544.921875"/>
     <use xlink:href="#DejaVuSans-6f" x="1576.708984"/>
     <use xlink:href="#DejaVuSans-76" x="1637.890625"/>
     <use xlink:href="#DejaVuSans-65" x="1697.070312"/>
     <use xlink:href="#DejaVuSans-72" x="1758.59375"/>
     <use xlink:href="#DejaVuSans-20" x="1799.707031"/>
     <use xlink:href="#DejaVuSans-74" x="1831.494141"/>
     <use xlink:href="#DejaVuSans-69" x="1870.703125"/>
     <use xlink:href="#DejaVuSans-6d" x="1898.486328"/>
     <use xlink:href="#DejaVuSans-65" x="1995.898438"/>
    </g>
   </g>
   <g id="legend_1">
    <g id="patch_7">
     <path d="M 97 80.55625 
L 178.234375 80.55625 
Q 180.234375 80.55625 180.234375 78.55625 
L 180.234375 50.2 
Q 180.234375 48.2 178.234375 48.2 
L 97 48.2 
Q 95 48.2 95 50.2 
L 95 78.55625 
Q 95 80.55625 97 80.55625 
z
" style="fill: #ffffff; opacity: 0.8; stroke: #cccccc; stroke-linejoin: miter"/>
    </g>
    <g id="line2d_25">
     <path d="M 99 56.298437 
L 109 56.298437 
L 119 56.298437 
" style="fill: none; stroke: #1f77b4; stroke-width: 1.5; stroke-linecap: square"/>
    </g>
    <g id="text_15">
     <!-- train -->
     <g transform="translate(127 59.798437) scale(0.1 -0.1)">
      <use xlink:href="#DejaVuSans-74"/>
      <use xlink:href="#DejaVuSans-72" x="39.208984"/>
      <use xlink:href="#DejaVuSans-61" x="80.322266"/>
      <use xlink:href="#DejaVuSans-69" x="141.601562"/>
      <use xlink:href="#DejaVuSans-6e" x="169.384766"/>
     </g>
    </g>
    <g id="line2d_26">
     <path d="M 99 70.976562 
L 109 70.976562 
L 119 70.976562 
" style="fill: none; stroke: #ff7f0e; stroke-width: 1.5; stroke-linecap: square"/>
    </g>
    <g id="text_16">
     <!-- validation -->
     <g transform="translate(127 74.476562) scale(0.1 -0.1)">
      <use xlink:href="#DejaVuSans-76"/>
      <use xlink:href="#DejaVuSans-61" x="59.179688"/>
      <use xlink:href="#DejaVuSans-6c" x="120.458984"/>
      <use xlink:href="#DejaVuSans-69" x="148.242188"/>
      <use xlink:href="#DejaVuSans-64" x="176.025391"/>
      <use xlink:href="#DejaVuSans-61" x="239.501953"/>
      <use xlink:href="#DejaVuSans-74" x="300.78125"/>
      <use xlink:href="#DejaVuSans-69" x="339.990234"/>
      <use xlink:href="#DejaVuSans-6f" x="367.773438"/>
      <use xlink:href="#DejaVuSans-6e" x="428.955078"/>
     </g>
    </g>
   </g>
  </g>
 </g>
 <defs>
  <clipPath id="p75c69b2c3d">
   <rect x="90" y="43.2" width="558" height="277.2"/>
  </clipPath>
 </defs>
</svg>
