<?xml version="1.0" encoding="utf-8" standalone="no"?>
<!DOCTYPE svg PUBLIC "-//W3C//DTD SVG 1.1//EN"
  "http://www.w3.org/Graphics/SVG/1.1/DTD/svg11.dtd">
<svg xmlns:xlink="http://www.w3.org/1999/xlink" width="720pt" height="360pt" viewBox="0 0 720 360" xmlns="http://www.w3.org/2000/svg" version="1.1">
 <metadata>
  <rdf:RDF xmlns:dc="http://purl.org/dc/elements/1.1/" xmlns:cc="http://creativecommons.org/ns#" xmlns:rdf="http://www.w3.org/1999/02/22-rdf-syntax-ns#">
   <cc:Work>
    <dc:type rdf:resource="http://purl.org/dc/dcmitype/StillImage"/>
    <dc:date>2023-05-24T11:15:07.206901</dc:date>
    <dc:format>image/svg+xml</dc:format>
    <dc:creator>
     <cc:Agent>
      <dc:title>Matplotlib v3.7.1, https://matplotlib.org/</dc:title>
     </cc:Agent>
    </dc:creator>
   </cc:Work>
  </rdf:RDF>
 </metadata>
 <defs>
  <style type="text/css">*{stroke-linejoin: round; stroke-linecap: butt}</style>
 </defs>
 <g id="figure_1">
  <g id="patch_1">
   <path d="M 0 360 
L 720 360 
L 720 0 
L 0 0 
z
" style="fill: #ffffff"/>
  </g>
  <g id="axes_1">
   <g id="patch_2">
    <path d="M 90 320.4 
L 648 320.4 
L 648 43.2 
L 90 43.2 
z
" style="fill: #ffffff"/>
   </g>
   <g id="matplotlib.axis_1">
    <g id="xtick_1">
     <g id="line2d_1">
      <path d="M 115.363636 320.4 
L 115.363636 43.2 
" clip-path="url(#p7f06216747)" style="fill: none; stroke: #b0b0b0; stroke-width: 0.8; stroke-linecap: square"/>
     </g>
     <g id="line2d_2">
      <defs>
       <path id="ma277bdc68f" d="M 0 0 
L 0 3.5 
" style="stroke: #000000; stroke-width: 0.8"/>
      </defs>
      <g>
       <use xlink:href="#ma277bdc68f" x="115.363636" y="320.4" style="stroke: #000000; stroke-width: 0.8"/>
      </g>
     </g>
     <g id="text_1">
      <!-- 0 -->
      <g transform="translate(112.182386 334.998438) scale(0.1 -0.1)">
       <defs>
        <path id="DejaVuSans-30" d="M 2034 4250 
Q 1547 4250 1301 3770 
Q 1056 3291 1056 2328 
Q 1056 1369 1301 889 
Q 1547 409 2034 409 
Q 2525 409 2770 889 
Q 3016 1369 3016 2328 
Q 3016 3291 2770 3770 
Q 2525 4250 2034 4250 
z
M 2034 4750 
Q 2819 4750 3233 4129 
Q 3647 3509 3647 2328 
Q 3647 1150 3233 529 
Q 2819 -91 2034 -91 
Q 1250 -91 836 529 
Q 422 1150 422 2328 
Q 422 3509 836 4129 
Q 1250 4750 2034 4750 
z
" transform="scale(0.015625)"/>
       </defs>
       <use xlink:href="#DejaVuSans-30"/>
      </g>
     </g>
    </g>
    <g id="xtick_2">
     <g id="line2d_3">
      <path d="M 217.021498 320.4 
L 217.021498 43.2 
" clip-path="url(#p7f06216747)" style="fill: none; stroke: #b0b0b0; stroke-width: 0.8; stroke-linecap: square"/>
     </g>
     <g id="line2d_4">
      <g>
       <use xlink:href="#ma277bdc68f" x="217.021498" y="320.4" style="stroke: #000000; stroke-width: 0.8"/>
      </g>
     </g>
     <g id="text_2">
      <!-- 100 -->
      <g transform="translate(207.477748 334.998438) scale(0.1 -0.1)">
       <defs>
        <path id="DejaVuSans-31" d="M 794 531 
L 1825 531 
L 1825 4091 
L 703 3866 
L 703 4441 
L 1819 4666 
L 2450 4666 
L 2450 531 
L 3481 531 
L 3481 0 
L 794 0 
L 794 531 
z
" transform="scale(0.015625)"/>
       </defs>
       <use xlink:href="#DejaVuSans-31"/>
       <use xlink:href="#DejaVuSans-30" x="63.623047"/>
       <use xlink:href="#DejaVuSans-30" x="127.246094"/>
      </g>
     </g>
    </g>
    <g id="xtick_3">
     <g id="line2d_5">
      <path d="M 318.679359 320.4 
L 318.679359 43.2 
" clip-path="url(#p7f06216747)" style="fill: none; stroke: #b0b0b0; stroke-width: 0.8; stroke-linecap: square"/>
     </g>
     <g id="line2d_6">
      <g>
       <use xlink:href="#ma277bdc68f" x="318.679359" y="320.4" style="stroke: #000000; stroke-width: 0.8"/>
      </g>
     </g>
     <g id="text_3">
      <!-- 200 -->
      <g transform="translate(309.135609 334.998438) scale(0.1 -0.1)">
       <defs>
        <path id="DejaVuSans-32" d="M 1228 531 
L 3431 531 
L 3431 0 
L 469 0 
L 469 531 
Q 828 903 1448 1529 
Q 2069 2156 2228 2338 
Q 2531 2678 2651 2914 
Q 2772 3150 2772 3378 
Q 2772 3750 2511 3984 
Q 2250 4219 1831 4219 
Q 1534 4219 1204 4116 
Q 875 4013 500 3803 
L 500 4441 
Q 881 4594 1212 4672 
Q 1544 4750 1819 4750 
Q 2544 4750 2975 4387 
Q 3406 4025 3406 3419 
Q 3406 3131 3298 2873 
Q 3191 2616 2906 2266 
Q 2828 2175 2409 1742 
Q 1991 1309 1228 531 
z
" transform="scale(0.015625)"/>
       </defs>
       <use xlink:href="#DejaVuSans-32"/>
       <use xlink:href="#DejaVuSans-30" x="63.623047"/>
       <use xlink:href="#DejaVuSans-30" x="127.246094"/>
      </g>
     </g>
    </g>
    <g id="xtick_4">
     <g id="line2d_7">
      <path d="M 420.33722 320.4 
L 420.33722 43.2 
" clip-path="url(#p7f06216747)" style="fill: none; stroke: #b0b0b0; stroke-width: 0.8; stroke-linecap: square"/>
     </g>
     <g id="line2d_8">
      <g>
       <use xlink:href="#ma277bdc68f" x="420.33722" y="320.4" style="stroke: #000000; stroke-width: 0.8"/>
      </g>
     </g>
     <g id="text_4">
      <!-- 300 -->
      <g transform="translate(410.79347 334.998438) scale(0.1 -0.1)">
       <defs>
        <path id="DejaVuSans-33" d="M 2597 2516 
Q 3050 2419 3304 2112 
Q 3559 1806 3559 1356 
Q 3559 666 3084 287 
Q 2609 -91 1734 -91 
Q 1441 -91 1130 -33 
Q 819 25 488 141 
L 488 750 
Q 750 597 1062 519 
Q 1375 441 1716 441 
Q 2309 441 2620 675 
Q 2931 909 2931 1356 
Q 2931 1769 2642 2001 
Q 2353 2234 1838 2234 
L 1294 2234 
L 1294 2753 
L 1863 2753 
Q 2328 2753 2575 2939 
Q 2822 3125 2822 3475 
Q 2822 3834 2567 4026 
Q 2313 4219 1838 4219 
Q 1578 4219 1281 4162 
Q 984 4106 628 3988 
L 628 4550 
Q 988 4650 1302 4700 
Q 1616 4750 1894 4750 
Q 2613 4750 3031 4423 
Q 3450 4097 3450 3541 
Q 3450 3153 3228 2886 
Q 3006 2619 2597 2516 
z
" transform="scale(0.015625)"/>
       </defs>
       <use xlink:href="#DejaVuSans-33"/>
       <use xlink:href="#DejaVuSans-30" x="63.623047"/>
       <use xlink:href="#DejaVuSans-30" x="127.246094"/>
      </g>
     </g>
    </g>
    <g id="xtick_5">
     <g id="line2d_9">
      <path d="M 521.995081 320.4 
L 521.995081 43.2 
" clip-path="url(#p7f06216747)" style="fill: none; stroke: #b0b0b0; stroke-width: 0.8; stroke-linecap: square"/>
     </g>
     <g id="line2d_10">
      <g>
       <use xlink:href="#ma277bdc68f" x="521.995081" y="320.4" style="stroke: #000000; stroke-width: 0.8"/>
      </g>
     </g>
     <g id="text_5">
      <!-- 400 -->
      <g transform="translate(512.451331 334.998438) scale(0.1 -0.1)">
       <defs>
        <path id="DejaVuSans-34" d="M 2419 4116 
L 825 1625 
L 2419 1625 
L 2419 4116 
z
M 2253 4666 
L 3047 4666 
L 3047 1625 
L 3713 1625 
L 3713 1100 
L 3047 1100 
L 3047 0 
L 2419 0 
L 2419 1100 
L 313 1100 
L 313 1709 
L 2253 4666 
z
" transform="scale(0.015625)"/>
       </defs>
       <use xlink:href="#DejaVuSans-34"/>
       <use xlink:href="#DejaVuSans-30" x="63.623047"/>
       <use xlink:href="#DejaVuSans-30" x="127.246094"/>
      </g>
     </g>
    </g>
    <g id="xtick_6">
     <g id="line2d_11">
      <path d="M 623.652942 320.4 
L 623.652942 43.2 
" clip-path="url(#p7f06216747)" style="fill: none; stroke: #b0b0b0; stroke-width: 0.8; stroke-linecap: square"/>
     </g>
     <g id="line2d_12">
      <g>
       <use xlink:href="#ma277bdc68f" x="623.652942" y="320.4" style="stroke: #000000; stroke-width: 0.8"/>
      </g>
     </g>
     <g id="text_6">
      <!-- 500 -->
      <g transform="translate(614.109192 334.998438) scale(0.1 -0.1)">
       <defs>
        <path id="DejaVuSans-35" d="M 691 4666 
L 3169 4666 
L 3169 4134 
L 1269 4134 
L 1269 2991 
Q 1406 3038 1543 3061 
Q 1681 3084 1819 3084 
Q 2600 3084 3056 2656 
Q 3513 2228 3513 1497 
Q 3513 744 3044 326 
Q 2575 -91 1722 -91 
Q 1428 -91 1123 -41 
Q 819 9 494 109 
L 494 744 
Q 775 591 1075 516 
Q 1375 441 1709 441 
Q 2250 441 2565 725 
Q 2881 1009 2881 1497 
Q 2881 1984 2565 2268 
Q 2250 2553 1709 2553 
Q 1456 2553 1204 2497 
Q 953 2441 691 2322 
L 691 4666 
z
" transform="scale(0.015625)"/>
       </defs>
       <use xlink:href="#DejaVuSans-35"/>
       <use xlink:href="#DejaVuSans-30" x="63.623047"/>
       <use xlink:href="#DejaVuSans-30" x="127.246094"/>
      </g>
     </g>
    </g>
    <g id="text_7">
     <!-- epoch -->
     <g transform="translate(353.771875 348.676562) scale(0.1 -0.1)">
      <defs>
       <path id="DejaVuSans-65" d="M 3597 1894 
L 3597 1613 
L 953 1613 
Q 991 1019 1311 708 
Q 1631 397 2203 397 
Q 2534 397 2845 478 
Q 3156 559 3463 722 
L 3463 178 
Q 3153 47 2828 -22 
Q 2503 -91 2169 -91 
Q 1331 -91 842 396 
Q 353 884 353 1716 
Q 353 2575 817 3079 
Q 1281 3584 2069 3584 
Q 2775 3584 3186 3129 
Q 3597 2675 3597 1894 
z
M 3022 2063 
Q 3016 2534 2758 2815 
Q 2500 3097 2075 3097 
Q 1594 3097 1305 2825 
Q 1016 2553 972 2059 
L 3022 2063 
z
" transform="scale(0.015625)"/>
       <path id="DejaVuSans-70" d="M 1159 525 
L 1159 -1331 
L 581 -1331 
L 581 3500 
L 1159 3500 
L 1159 2969 
Q 1341 3281 1617 3432 
Q 1894 3584 2278 3584 
Q 2916 3584 3314 3078 
Q 3713 2572 3713 1747 
Q 3713 922 3314 415 
Q 2916 -91 2278 -91 
Q 1894 -91 1617 61 
Q 1341 213 1159 525 
z
M 3116 1747 
Q 3116 2381 2855 2742 
Q 2594 3103 2138 3103 
Q 1681 3103 1420 2742 
Q 1159 2381 1159 1747 
Q 1159 1113 1420 752 
Q 1681 391 2138 391 
Q 2594 391 2855 752 
Q 3116 1113 3116 1747 
z
" transform="scale(0.015625)"/>
       <path id="DejaVuSans-6f" d="M 1959 3097 
Q 1497 3097 1228 2736 
Q 959 2375 959 1747 
Q 959 1119 1226 758 
Q 1494 397 1959 397 
Q 2419 397 2687 759 
Q 2956 1122 2956 1747 
Q 2956 2369 2687 2733 
Q 2419 3097 1959 3097 
z
M 1959 3584 
Q 2709 3584 3137 3096 
Q 3566 2609 3566 1747 
Q 3566 888 3137 398 
Q 2709 -91 1959 -91 
Q 1206 -91 779 398 
Q 353 888 353 1747 
Q 353 2609 779 3096 
Q 1206 3584 1959 3584 
z
" transform="scale(0.015625)"/>
       <path id="DejaVuSans-63" d="M 3122 3366 
L 3122 2828 
Q 2878 2963 2633 3030 
Q 2388 3097 2138 3097 
Q 1578 3097 1268 2742 
Q 959 2388 959 1747 
Q 959 1106 1268 751 
Q 1578 397 2138 397 
Q 2388 397 2633 464 
Q 2878 531 3122 666 
L 3122 134 
Q 2881 22 2623 -34 
Q 2366 -91 2075 -91 
Q 1284 -91 818 406 
Q 353 903 353 1747 
Q 353 2603 823 3093 
Q 1294 3584 2113 3584 
Q 2378 3584 2631 3529 
Q 2884 3475 3122 3366 
z
" transform="scale(0.015625)"/>
       <path id="DejaVuSans-68" d="M 3513 2113 
L 3513 0 
L 2938 0 
L 2938 2094 
Q 2938 2591 2744 2837 
Q 2550 3084 2163 3084 
Q 1697 3084 1428 2787 
Q 1159 2491 1159 1978 
L 1159 0 
L 581 0 
L 581 4863 
L 1159 4863 
L 1159 2956 
Q 1366 3272 1645 3428 
Q 1925 3584 2291 3584 
Q 2894 3584 3203 3211 
Q 3513 2838 3513 2113 
z
" transform="scale(0.015625)"/>
      </defs>
      <use xlink:href="#DejaVuSans-65"/>
      <use xlink:href="#DejaVuSans-70" x="61.523438"/>
      <use xlink:href="#DejaVuSans-6f" x="125"/>
      <use xlink:href="#DejaVuSans-63" x="186.181641"/>
      <use xlink:href="#DejaVuSans-68" x="241.162109"/>
     </g>
    </g>
   </g>
   <g id="matplotlib.axis_2">
    <g id="ytick_1">
     <g id="line2d_13">
      <path d="M 90 295.057959 
L 648 295.057959 
" clip-path="url(#p7f06216747)" style="fill: none; stroke: #b0b0b0; stroke-width: 0.8; stroke-linecap: square"/>
     </g>
     <g id="line2d_14">
      <defs>
       <path id="m68601e8ce7" d="M 0 0 
L -3.5 0 
" style="stroke: #000000; stroke-width: 0.8"/>
      </defs>
      <g>
       <use xlink:href="#m68601e8ce7" x="90" y="295.057959" style="stroke: #000000; stroke-width: 0.8"/>
      </g>
     </g>
     <g id="text_8">
      <!-- 0.60 -->
      <g transform="translate(60.734375 298.857178) scale(0.1 -0.1)">
       <defs>
        <path id="DejaVuSans-2e" d="M 684 794 
L 1344 794 
L 1344 0 
L 684 0 
L 684 794 
z
" transform="scale(0.015625)"/>
        <path id="DejaVuSans-36" d="M 2113 2584 
Q 1688 2584 1439 2293 
Q 1191 2003 1191 1497 
Q 1191 994 1439 701 
Q 1688 409 2113 409 
Q 2538 409 2786 701 
Q 3034 994 3034 1497 
Q 3034 2003 2786 2293 
Q 2538 2584 2113 2584 
z
M 3366 4563 
L 3366 3988 
Q 3128 4100 2886 4159 
Q 2644 4219 2406 4219 
Q 1781 4219 1451 3797 
Q 1122 3375 1075 2522 
Q 1259 2794 1537 2939 
Q 1816 3084 2150 3084 
Q 2853 3084 3261 2657 
Q 3669 2231 3669 1497 
Q 3669 778 3244 343 
Q 2819 -91 2113 -91 
Q 1303 -91 875 529 
Q 447 1150 447 2328 
Q 447 3434 972 4092 
Q 1497 4750 2381 4750 
Q 2619 4750 2861 4703 
Q 3103 4656 3366 4563 
z
" transform="scale(0.015625)"/>
       </defs>
       <use xlink:href="#DejaVuSans-30"/>
       <use xlink:href="#DejaVuSans-2e" x="63.623047"/>
       <use xlink:href="#DejaVuSans-36" x="95.410156"/>
       <use xlink:href="#DejaVuSans-30" x="159.033203"/>
      </g>
     </g>
    </g>
    <g id="ytick_2">
     <g id="line2d_15">
      <path d="M 90 261.295643 
L 648 261.295643 
" clip-path="url(#p7f06216747)" style="fill: none; stroke: #b0b0b0; stroke-width: 0.8; stroke-linecap: square"/>
     </g>
     <g id="line2d_16">
      <g>
       <use xlink:href="#m68601e8ce7" x="90" y="261.295643" style="stroke: #000000; stroke-width: 0.8"/>
      </g>
     </g>
     <g id="text_9">
      <!-- 0.65 -->
      <g transform="translate(60.734375 265.094861) scale(0.1 -0.1)">
       <use xlink:href="#DejaVuSans-30"/>
       <use xlink:href="#DejaVuSans-2e" x="63.623047"/>
       <use xlink:href="#DejaVuSans-36" x="95.410156"/>
       <use xlink:href="#DejaVuSans-35" x="159.033203"/>
      </g>
     </g>
    </g>
    <g id="ytick_3">
     <g id="line2d_17">
      <path d="M 90 227.533326 
L 648 227.533326 
" clip-path="url(#p7f06216747)" style="fill: none; stroke: #b0b0b0; stroke-width: 0.8; stroke-linecap: square"/>
     </g>
     <g id="line2d_18">
      <g>
       <use xlink:href="#m68601e8ce7" x="90" y="227.533326" style="stroke: #000000; stroke-width: 0.8"/>
      </g>
     </g>
     <g id="text_10">
      <!-- 0.70 -->
      <g transform="translate(60.734375 231.332545) scale(0.1 -0.1)">
       <defs>
        <path id="DejaVuSans-37" d="M 525 4666 
L 3525 4666 
L 3525 4397 
L 1831 0 
L 1172 0 
L 2766 4134 
L 525 4134 
L 525 4666 
z
" transform="scale(0.015625)"/>
       </defs>
       <use xlink:href="#DejaVuSans-30"/>
       <use xlink:href="#DejaVuSans-2e" x="63.623047"/>
       <use xlink:href="#DejaVuSans-37" x="95.410156"/>
       <use xlink:href="#DejaVuSans-30" x="159.033203"/>
      </g>
     </g>
    </g>
    <g id="ytick_4">
     <g id="line2d_19">
      <path d="M 90 193.771009 
L 648 193.771009 
" clip-path="url(#p7f06216747)" style="fill: none; stroke: #b0b0b0; stroke-width: 0.8; stroke-linecap: square"/>
     </g>
     <g id="line2d_20">
      <g>
       <use xlink:href="#m68601e8ce7" x="90" y="193.771009" style="stroke: #000000; stroke-width: 0.8"/>
      </g>
     </g>
     <g id="text_11">
      <!-- 0.75 -->
      <g transform="translate(60.734375 197.570228) scale(0.1 -0.1)">
       <use xlink:href="#DejaVuSans-30"/>
       <use xlink:href="#DejaVuSans-2e" x="63.623047"/>
       <use xlink:href="#DejaVuSans-37" x="95.410156"/>
       <use xlink:href="#DejaVuSans-35" x="159.033203"/>
      </g>
     </g>
    </g>
    <g id="ytick_5">
     <g id="line2d_21">
      <path d="M 90 160.008692 
L 648 160.008692 
" clip-path="url(#p7f06216747)" style="fill: none; stroke: #b0b0b0; stroke-width: 0.8; stroke-linecap: square"/>
     </g>
     <g id="line2d_22">
      <g>
       <use xlink:href="#m68601e8ce7" x="90" y="160.008692" style="stroke: #000000; stroke-width: 0.8"/>
      </g>
     </g>
     <g id="text_12">
      <!-- 0.80 -->
      <g transform="translate(60.734375 163.807911) scale(0.1 -0.1)">
       <defs>
        <path id="DejaVuSans-38" d="M 2034 2216 
Q 1584 2216 1326 1975 
Q 1069 1734 1069 1313 
Q 1069 891 1326 650 
Q 1584 409 2034 409 
Q 2484 409 2743 651 
Q 3003 894 3003 1313 
Q 3003 1734 2745 1975 
Q 2488 2216 2034 2216 
z
M 1403 2484 
Q 997 2584 770 2862 
Q 544 3141 544 3541 
Q 544 4100 942 4425 
Q 1341 4750 2034 4750 
Q 2731 4750 3128 4425 
Q 3525 4100 3525 3541 
Q 3525 3141 3298 2862 
Q 3072 2584 2669 2484 
Q 3125 2378 3379 2068 
Q 3634 1759 3634 1313 
Q 3634 634 3220 271 
Q 2806 -91 2034 -91 
Q 1263 -91 848 271 
Q 434 634 434 1313 
Q 434 1759 690 2068 
Q 947 2378 1403 2484 
z
M 1172 3481 
Q 1172 3119 1398 2916 
Q 1625 2713 2034 2713 
Q 2441 2713 2670 2916 
Q 2900 3119 2900 3481 
Q 2900 3844 2670 4047 
Q 2441 4250 2034 4250 
Q 1625 4250 1398 4047 
Q 1172 3844 1172 3481 
z
" transform="scale(0.015625)"/>
       </defs>
       <use xlink:href="#DejaVuSans-30"/>
       <use xlink:href="#DejaVuSans-2e" x="63.623047"/>
       <use xlink:href="#DejaVuSans-38" x="95.410156"/>
       <use xlink:href="#DejaVuSans-30" x="159.033203"/>
      </g>
     </g>
    </g>
    <g id="ytick_6">
     <g id="line2d_23">
      <path d="M 90 126.246376 
L 648 126.246376 
" clip-path="url(#p7f06216747)" style="fill: none; stroke: #b0b0b0; stroke-width: 0.8; stroke-linecap: square"/>
     </g>
     <g id="line2d_24">
      <g>
       <use xlink:href="#m68601e8ce7" x="90" y="126.246376" style="stroke: #000000; stroke-width: 0.8"/>
      </g>
     </g>
     <g id="text_13">
      <!-- 0.85 -->
      <g transform="translate(60.734375 130.045594) scale(0.1 -0.1)">
       <use xlink:href="#DejaVuSans-30"/>
       <use xlink:href="#DejaVuSans-2e" x="63.623047"/>
       <use xlink:href="#DejaVuSans-38" x="95.410156"/>
       <use xlink:href="#DejaVuSans-35" x="159.033203"/>
      </g>
     </g>
    </g>
    <g id="ytick_7">
     <g id="line2d_25">
      <path d="M 90 92.484059 
L 648 92.484059 
" clip-path="url(#p7f06216747)" style="fill: none; stroke: #b0b0b0; stroke-width: 0.8; stroke-linecap: square"/>
     </g>
     <g id="line2d_26">
      <g>
       <use xlink:href="#m68601e8ce7" x="90" y="92.484059" style="stroke: #000000; stroke-width: 0.8"/>
      </g>
     </g>
     <g id="text_14">
      <!-- 0.90 -->
      <g transform="translate(60.734375 96.283278) scale(0.1 -0.1)">
       <defs>
        <path id="DejaVuSans-39" d="M 703 97 
L 703 672 
Q 941 559 1184 500 
Q 1428 441 1663 441 
Q 2288 441 2617 861 
Q 2947 1281 2994 2138 
Q 2813 1869 2534 1725 
Q 2256 1581 1919 1581 
Q 1219 1581 811 2004 
Q 403 2428 403 3163 
Q 403 3881 828 4315 
Q 1253 4750 1959 4750 
Q 2769 4750 3195 4129 
Q 3622 3509 3622 2328 
Q 3622 1225 3098 567 
Q 2575 -91 1691 -91 
Q 1453 -91 1209 -44 
Q 966 3 703 97 
z
M 1959 2075 
Q 2384 2075 2632 2365 
Q 2881 2656 2881 3163 
Q 2881 3666 2632 3958 
Q 2384 4250 1959 4250 
Q 1534 4250 1286 3958 
Q 1038 3666 1038 3163 
Q 1038 2656 1286 2365 
Q 1534 2075 1959 2075 
z
" transform="scale(0.015625)"/>
       </defs>
       <use xlink:href="#DejaVuSans-30"/>
       <use xlink:href="#DejaVuSans-2e" x="63.623047"/>
       <use xlink:href="#DejaVuSans-39" x="95.410156"/>
       <use xlink:href="#DejaVuSans-30" x="159.033203"/>
      </g>
     </g>
    </g>
    <g id="ytick_8">
     <g id="line2d_27">
      <path d="M 90 58.721742 
L 648 58.721742 
" clip-path="url(#p7f06216747)" style="fill: none; stroke: #b0b0b0; stroke-width: 0.8; stroke-linecap: square"/>
     </g>
     <g id="line2d_28">
      <g>
       <use xlink:href="#m68601e8ce7" x="90" y="58.721742" style="stroke: #000000; stroke-width: 0.8"/>
      </g>
     </g>
     <g id="text_15">
      <!-- 0.95 -->
      <g transform="translate(60.734375 62.520961) scale(0.1 -0.1)">
       <use xlink:href="#DejaVuSans-30"/>
       <use xlink:href="#DejaVuSans-2e" x="63.623047"/>
       <use xlink:href="#DejaVuSans-39" x="95.410156"/>
       <use xlink:href="#DejaVuSans-35" x="159.033203"/>
      </g>
     </g>
    </g>
    <g id="text_16">
     <!-- accruacy -->
     <g transform="translate(54.654687 204.359375) rotate(-90) scale(0.1 -0.1)">
      <defs>
       <path id="DejaVuSans-61" d="M 2194 1759 
Q 1497 1759 1228 1600 
Q 959 1441 959 1056 
Q 959 750 1161 570 
Q 1363 391 1709 391 
Q 2188 391 2477 730 
Q 2766 1069 2766 1631 
L 2766 1759 
L 2194 1759 
z
M 3341 1997 
L 3341 0 
L 2766 0 
L 2766 531 
Q 2569 213 2275 61 
Q 1981 -91 1556 -91 
Q 1019 -91 701 211 
Q 384 513 384 1019 
Q 384 1609 779 1909 
Q 1175 2209 1959 2209 
L 2766 2209 
L 2766 2266 
Q 2766 2663 2505 2880 
Q 2244 3097 1772 3097 
Q 1472 3097 1187 3025 
Q 903 2953 641 2809 
L 641 3341 
Q 956 3463 1253 3523 
Q 1550 3584 1831 3584 
Q 2591 3584 2966 3190 
Q 3341 2797 3341 1997 
z
" transform="scale(0.015625)"/>
       <path id="DejaVuSans-72" d="M 2631 2963 
Q 2534 3019 2420 3045 
Q 2306 3072 2169 3072 
Q 1681 3072 1420 2755 
Q 1159 2438 1159 1844 
L 1159 0 
L 581 0 
L 581 3500 
L 1159 3500 
L 1159 2956 
Q 1341 3275 1631 3429 
Q 1922 3584 2338 3584 
Q 2397 3584 2469 3576 
Q 2541 3569 2628 3553 
L 2631 2963 
z
" transform="scale(0.015625)"/>
       <path id="DejaVuSans-75" d="M 544 1381 
L 544 3500 
L 1119 3500 
L 1119 1403 
Q 1119 906 1312 657 
Q 1506 409 1894 409 
Q 2359 409 2629 706 
Q 2900 1003 2900 1516 
L 2900 3500 
L 3475 3500 
L 3475 0 
L 2900 0 
L 2900 538 
Q 2691 219 2414 64 
Q 2138 -91 1772 -91 
Q 1169 -91 856 284 
Q 544 659 544 1381 
z
M 1991 3584 
L 1991 3584 
z
" transform="scale(0.015625)"/>
       <path id="DejaVuSans-79" d="M 2059 -325 
Q 1816 -950 1584 -1140 
Q 1353 -1331 966 -1331 
L 506 -1331 
L 506 -850 
L 844 -850 
Q 1081 -850 1212 -737 
Q 1344 -625 1503 -206 
L 1606 56 
L 191 3500 
L 800 3500 
L 1894 763 
L 2988 3500 
L 3597 3500 
L 2059 -325 
z
" transform="scale(0.015625)"/>
      </defs>
      <use xlink:href="#DejaVuSans-61"/>
      <use xlink:href="#DejaVuSans-63" x="61.279297"/>
      <use xlink:href="#DejaVuSans-63" x="116.259766"/>
      <use xlink:href="#DejaVuSans-72" x="171.240234"/>
      <use xlink:href="#DejaVuSans-75" x="212.353516"/>
      <use xlink:href="#DejaVuSans-61" x="275.732422"/>
      <use xlink:href="#DejaVuSans-63" x="337.011719"/>
      <use xlink:href="#DejaVuSans-79" x="391.992188"/>
     </g>
    </g>
   </g>
   <g id="line2d_29">
    <path d="M 115.363636 59.046389 
L 116.380215 57.423194 
L 117.396794 58.99298 
L 118.413372 58.181383 
L 119.429951 59.804577 
L 120.446529 58.459053 
L 122.479687 57.295045 
L 123.496265 57.903753 
L 124.512844 59.27061 
L 125.529422 57.978494 
L 126.546001 60.434617 
L 127.56258 57.423194 
L 128.579158 57.775604 
L 129.595737 59.27061 
L 130.612316 58.181383 
L 131.628894 59.06772 
L 132.645473 56.686337 
L 133.662051 58.459053 
L 134.67863 59.34539 
L 135.695209 58.512421 
L 136.711787 59.324018 
L 137.728366 56.632929 
L 138.744944 58.790091 
L 139.761523 59.27061 
L 140.778102 58.661942 
L 141.79468 57.497935 
L 142.811259 59.195869 
L 143.827837 59.398759 
L 144.844416 58.384272 
L 145.860995 58.790091 
L 146.877573 59.548279 
L 147.894152 59.676428 
L 148.910731 59.676428 
L 149.927309 58.384272 
L 150.943888 58.256123 
L 151.960466 57.166896 
L 152.977045 60.007467 
L 153.993624 56.558188 
L 155.010202 57.423194 
L 156.026781 58.99298 
L 157.043359 59.27061 
L 158.059938 59.142461 
L 159.076517 58.384272 
L 160.093095 58.106643 
L 161.109674 58.715351 
L 162.126253 58.864831 
L 163.142831 59.34539 
L 164.15941 58.587202 
L 165.175988 58.459053 
L 166.192567 59.27061 
L 167.209146 58.587202 
L 168.225724 58.106643 
L 169.242303 60.637506 
L 170.258881 58.309532 
L 171.27546 57.166896 
L 172.292039 59.34539 
L 173.308617 59.27061 
L 174.325196 58.790091 
L 175.341774 58.106643 
L 176.358353 58.384272 
L 177.374932 57.220305 
L 178.39151 57.775604 
L 179.408089 57.978494 
L 181.441246 60.082207 
L 182.457825 60.210356 
L 183.474403 58.106643 
L 184.490982 57.903753 
L 185.507561 59.900689 
L 186.524139 61.395694 
L 187.540718 58.790091 
L 188.557296 57.850345 
L 189.573875 58.512421 
L 190.590454 59.676428 
L 191.607032 57.497935 
L 192.623611 57.828973 
L 193.640189 58.384272 
L 194.656768 57.220305 
L 195.673347 58.512421 
L 196.689925 57.092156 
L 197.706504 58.384272 
L 198.723083 57.775604 
L 199.739661 56.686337 
L 200.75624 58.031902 
L 201.772818 58.234792 
L 202.789397 59.601688 
L 203.805976 57.369786 
L 204.822554 58.587202 
L 205.839133 58.384272 
L 206.855711 57.828973 
L 207.87229 58.99298 
L 208.888869 58.053234 
L 209.905447 57.497935 
L 210.922026 58.181383 
L 211.938604 59.473539 
L 212.955183 59.526908 
L 213.971762 57.220305 
L 214.98834 59.06772 
L 216.004919 58.309532 
L 217.021498 57.369786 
L 218.038076 59.06772 
L 219.054655 59.473539 
L 220.071233 57.775604 
L 221.087812 58.864831 
L 222.104391 56.07767 
L 223.120969 56.889227 
L 224.137548 56.408708 
L 225.154126 58.031902 
L 226.170705 60.285136 
L 227.187284 57.241637 
L 228.203862 57.295045 
L 229.220441 58.790091 
L 230.237019 57.700824 
L 231.253598 59.548279 
L 232.270177 60.156987 
L 233.286755 58.533793 
L 234.303334 58.031902 
L 235.319913 58.736682 
L 236.336491 58.309532 
L 237.35307 59.06772 
L 238.369648 57.092156 
L 239.386227 61.043325 
L 240.402806 59.06772 
L 241.419384 56.483448 
L 242.435963 57.017376 
L 243.452541 56.205819 
L 244.46912 58.031902 
L 245.485699 59.548279 
L 246.502277 58.736682 
L 247.518856 57.700824 
L 249.552013 57.647455 
L 250.568592 58.459053 
L 251.58517 57.978494 
L 252.601749 57.828973 
L 253.618328 59.34539 
L 254.634906 58.256123 
L 255.651485 59.623019 
L 257.684642 57.978494 
L 258.701221 57.828973 
L 259.717799 58.384272 
L 260.734378 59.601688 
L 261.750956 60.509357 
L 262.767535 58.459053 
L 263.784114 57.700824 
L 264.800692 58.99298 
L 266.83385 57.497935 
L 267.850428 57.978494 
L 268.867007 57.903753 
L 269.883585 57.092156 
L 270.900164 57.775604 
L 271.916743 58.864831 
L 272.933321 57.220305 
L 273.9499 58.384272 
L 274.966478 58.053234 
L 275.983057 58.661942 
L 276.999636 59.06772 
L 278.016214 58.106643 
L 279.032793 57.572675 
L 280.049371 58.256123 
L 281.06595 58.053234 
L 282.082529 55.8 
L 283.099107 59.751169 
L 284.115686 56.761078 
L 285.132265 59.121129 
L 286.148843 58.384272 
L 287.165422 59.195869 
L 288.182 58.384272 
L 289.198579 57.903753 
L 290.215158 57.220305 
L 291.231736 58.459053 
L 293.264893 57.572675 
L 294.281472 58.661942 
L 295.298051 58.256123 
L 296.314629 58.106643 
L 297.331208 58.99298 
L 298.347786 58.587202 
L 299.364365 58.811422 
L 300.380944 59.473539 
L 301.397522 58.384272 
L 302.414101 58.715351 
L 303.43068 59.27061 
L 304.447258 57.700824 
L 305.463837 59.473539 
L 306.480415 57.295045 
L 307.496994 57.423194 
L 308.513573 58.736682 
L 309.530151 57.647455 
L 310.54673 59.142461 
L 311.563308 58.587202 
L 312.579887 57.497935 
L 313.596466 59.195869 
L 314.613044 57.497935 
L 315.629623 58.053234 
L 316.646201 58.459053 
L 317.66278 58.309532 
L 318.679359 57.775604 
L 319.695937 57.978494 
L 320.712516 59.879318 
L 321.729095 60.509357 
L 322.745673 57.572675 
L 323.762252 58.384272 
L 324.77883 58.459053 
L 325.795409 58.939571 
L 326.811988 59.804577 
L 327.828566 58.99298 
L 328.845145 58.459053 
L 329.861723 58.181383 
L 330.878302 58.384272 
L 331.894881 56.814486 
L 332.911459 58.053234 
L 333.928038 58.790091 
L 334.944617 59.954058 
L 335.961195 58.106643 
L 336.977774 60.156987 
L 337.994352 58.587202 
L 339.010931 59.932726 
L 340.02751 58.309532 
L 341.044088 57.572675 
L 342.060667 59.34539 
L 343.077245 58.384272 
L 344.093824 58.64057 
L 345.110403 59.142461 
L 346.126981 57.295045 
L 348.160138 59.195869 
L 349.176717 59.34539 
L 350.193296 57.497935 
L 351.209874 57.497935 
L 352.226453 58.811422 
L 353.243032 59.27061 
L 354.25961 57.775604 
L 355.276189 59.548279 
L 356.292767 56.07767 
L 357.309346 57.241637 
L 358.325925 58.790091 
L 359.342503 57.295045 
L 360.359082 58.661942 
L 361.37566 57.295045 
L 362.392239 59.27061 
L 363.408818 57.775604 
L 364.425396 57.241637 
L 365.441975 56.889227 
L 366.458553 59.27061 
L 367.475132 59.548279 
L 368.491711 58.939571 
L 369.508289 58.864831 
L 370.524868 58.181383 
L 371.541447 59.473539 
L 372.558025 58.790091 
L 373.574604 58.512421 
L 374.591182 56.408708 
L 375.607761 59.34539 
L 376.62434 60.231727 
L 377.640918 57.722196 
L 378.657497 60.156987 
L 379.674075 58.512421 
L 380.690654 59.06772 
L 381.707233 57.626084 
L 382.723811 56.483448 
L 383.74039 58.181383 
L 384.756968 58.99298 
L 385.773547 58.811422 
L 386.790126 56.205819 
L 387.806704 59.676428 
L 388.823283 58.181383 
L 389.839862 58.053234 
L 390.85644 57.626084 
L 391.873019 58.181383 
L 392.889597 59.751169 
L 393.906176 58.512421 
L 395.939333 58.181383 
L 396.955912 58.309532 
L 397.97249 57.423194 
L 398.989069 59.06772 
L 400.005648 58.99298 
L 401.022226 59.751169 
L 402.038805 57.626084 
L 403.055383 58.309532 
L 404.071962 58.790091 
L 405.088541 58.99298 
L 406.105119 58.181383 
L 407.121698 58.864831 
L 408.138277 60.285136 
L 410.171434 58.437681 
L 411.188012 57.903753 
L 412.204591 58.811422 
L 413.22117 58.181383 
L 414.237748 58.661942 
L 415.254327 60.135616 
L 416.270905 57.903753 
L 417.287484 61.192805 
L 418.304063 59.142461 
L 419.320641 58.384272 
L 420.33722 57.220305 
L 421.353799 57.017376 
L 422.370377 59.27061 
L 423.386956 58.533793 
L 424.403534 57.220305 
L 425.420113 57.369786 
L 426.436692 60.103578 
L 427.45327 57.700824 
L 428.469849 57.903753 
L 429.486427 58.587202 
L 430.503006 58.587202 
L 431.519585 57.369786 
L 432.536163 57.775604 
L 433.552742 58.790091 
L 434.56932 59.34539 
L 435.585899 57.775604 
L 436.602478 57.828973 
L 438.635635 58.512421 
L 439.652214 57.626084 
L 440.668792 59.623019 
L 441.685371 57.978494 
L 442.701949 58.715351 
L 443.718528 57.497935 
L 444.735107 56.686337 
L 445.751685 60.359877 
L 446.768264 59.27061 
L 447.784842 59.954058 
L 448.801421 57.017376 
L 449.818 57.700824 
L 450.834578 57.903753 
L 451.851157 57.700824 
L 452.867735 59.06772 
L 453.884314 58.99298 
L 454.900893 59.398759 
L 455.917471 57.369786 
L 456.93405 59.879318 
L 457.950629 57.978494 
L 458.967207 58.459053 
L 459.983786 59.06772 
L 461.000364 58.99298 
L 462.016943 57.626084 
L 463.033522 56.814486 
L 464.0501 56.964007 
L 465.066679 60.915176 
L 466.083257 57.903753 
L 467.099836 57.497935 
L 468.116415 59.324018 
L 469.132993 57.423194 
L 470.149572 56.814486 
L 471.16615 59.06772 
L 472.182729 58.106643 
L 473.199308 58.459053 
L 474.215886 60.765655 
L 475.232465 60.509357 
L 476.249044 58.181383 
L 477.265622 59.676428 
L 478.282201 58.99298 
L 479.298779 57.497935 
L 480.315358 57.978494 
L 481.331937 56.611597 
L 482.348515 58.533793 
L 483.365094 57.017376 
L 484.381672 58.99298 
L 485.398251 58.053234 
L 486.41483 57.423194 
L 487.431408 57.017376 
L 488.447987 58.99298 
L 489.464565 57.903753 
L 490.481144 58.309532 
L 491.497723 56.889227 
L 492.514301 57.572675 
L 493.53088 60.359877 
L 494.547459 56.408708 
L 495.564037 59.676428 
L 496.580616 59.06772 
L 497.597194 59.954058 
L 498.613773 58.587202 
L 499.630352 59.27061 
L 500.64693 60.285136 
L 501.663509 58.512421 
L 502.680087 58.864831 
L 503.696666 59.473539 
L 504.713245 58.512421 
L 505.729823 58.99298 
L 506.746402 56.686337 
L 507.762981 58.736682 
L 508.779559 57.497935 
L 509.796138 58.384272 
L 510.812716 59.954058 
L 511.829295 60.765655 
L 512.845874 58.790091 
L 513.862452 57.700824 
L 514.879031 57.903753 
L 515.895609 58.99298 
L 516.912188 58.256123 
L 517.928767 59.601688 
L 518.945345 57.497935 
L 519.961924 58.309532 
L 520.978502 57.295045 
L 521.995081 57.700824 
L 523.01166 58.587202 
L 524.028238 57.572675 
L 525.044817 59.06772 
L 526.061396 57.700824 
L 527.077974 57.423194 
L 528.094553 59.548279 
L 529.111131 59.34539 
L 530.12771 58.384272 
L 531.144289 57.220305 
L 532.160867 57.017376 
L 533.177446 58.384272 
L 534.194024 57.775604 
L 535.210603 58.459053 
L 536.227182 58.661942 
L 537.24376 58.384272 
L 538.260339 57.220305 
L 540.293496 56.558188 
L 541.310075 58.181383 
L 542.326653 57.092156 
L 543.343232 58.384272 
L 544.359811 57.423194 
L 546.392968 57.423194 
L 547.409546 58.384272 
L 549.442704 58.053234 
L 550.459282 60.028838 
L 551.475861 58.91824 
L 552.492439 57.295045 
L 553.509018 60.359877 
L 554.525597 60.690915 
L 555.542175 57.978494 
L 556.558754 57.903753 
L 557.575332 57.423194 
L 558.591911 59.879318 
L 559.60849 58.587202 
L 560.625068 56.814486 
L 561.641647 58.330904 
L 563.674804 58.864831 
L 564.691383 58.864831 
L 565.707961 59.34539 
L 567.741119 57.700824 
L 568.757697 58.437681 
L 569.774276 58.608533 
L 570.790854 59.473539 
L 571.807433 57.626084 
L 572.824012 59.142461 
L 573.84059 59.825909 
L 574.857169 57.497935 
L 575.873747 58.91824 
L 576.890326 59.879318 
L 577.906905 57.978494 
L 578.923483 58.106643 
L 579.940062 58.91824 
L 580.956641 58.384272 
L 581.973219 58.256123 
L 582.989798 60.765655 
L 584.006376 55.87474 
L 585.022955 57.295045 
L 586.039534 60.103578 
L 587.056112 57.497935 
L 588.072691 60.231727 
L 589.089269 59.751169 
L 590.105848 57.166896 
L 591.122427 59.548279 
L 592.139005 56.07767 
L 593.155584 57.903753 
L 594.172163 57.700824 
L 595.188741 57.903753 
L 596.20532 58.459053 
L 597.221898 60.103578 
L 598.238477 58.330904 
L 599.255056 57.497935 
L 600.271634 58.309532 
L 601.288213 57.700824 
L 603.32137 57.369786 
L 604.337949 58.384272 
L 605.354527 59.879318 
L 606.371106 58.512421 
L 607.387684 60.562766 
L 608.404263 60.210356 
L 609.420842 56.814486 
L 610.43742 57.497935 
L 611.453999 57.092156 
L 612.470578 60.103578 
L 613.487156 58.864831 
L 614.503735 59.195869 
L 615.520313 57.423194 
L 616.536892 58.234792 
L 617.553471 56.889227 
L 618.570049 58.459053 
L 619.586628 59.142461 
L 620.603206 58.053234 
L 621.619785 59.398759 
L 622.636364 57.369786 
L 622.636364 57.369786 
" clip-path="url(#p7f06216747)" style="fill: none; stroke: #1f77b4; stroke-width: 1.5; stroke-linecap: square"/>
   </g>
   <g id="line2d_30">
    <path d="M 115.363636 305.635754 
L 184.490982 305.635754 
L 185.507561 307.8 
L 201.772818 307.8 
L 202.789397 305.635754 
L 235.319913 305.635754 
L 236.336491 307.8 
L 237.35307 307.8 
L 238.369648 305.635754 
L 253.618328 305.635754 
L 254.634906 307.8 
L 255.651485 305.635754 
L 260.734378 305.635754 
L 261.750956 307.8 
L 291.231736 307.8 
L 292.248315 305.635754 
L 301.397522 305.635754 
L 302.414101 307.8 
L 307.496994 307.8 
L 308.513573 305.635754 
L 331.894881 305.635754 
L 332.911459 307.8 
L 333.928038 305.635754 
L 334.944617 305.635754 
L 335.961195 307.8 
L 336.977774 305.635754 
L 344.093824 305.635754 
L 345.110403 307.8 
L 353.243032 307.8 
L 354.25961 305.635754 
L 355.276189 307.8 
L 357.309346 307.8 
L 358.325925 305.635754 
L 359.342503 307.8 
L 622.636364 307.8 
L 622.636364 307.8 
" clip-path="url(#p7f06216747)" style="fill: none; stroke: #ff7f0e; stroke-width: 1.5; stroke-linecap: square"/>
   </g>
   <g id="patch_3">
    <path d="M 90 320.4 
L 90 43.2 
" style="fill: none; stroke: #000000; stroke-width: 0.8; stroke-linejoin: miter; stroke-linecap: square"/>
   </g>
   <g id="patch_4">
    <path d="M 648 320.4 
L 648 43.2 
" style="fill: none; stroke: #000000; stroke-width: 0.8; stroke-linejoin: miter; stroke-linecap: square"/>
   </g>
   <g id="patch_5">
    <path d="M 90 320.4 
L 648 320.4 
" style="fill: none; stroke: #000000; stroke-width: 0.8; stroke-linejoin: miter; stroke-linecap: square"/>
   </g>
   <g id="patch_6">
    <path d="M 90 43.2 
L 648 43.2 
" style="fill: none; stroke: #000000; stroke-width: 0.8; stroke-linejoin: miter; stroke-linecap: square"/>
   </g>
   <g id="text_17">
    <!-- model train and validation accracy over time -->
    <g transform="translate(233.87625 37.2) scale(0.12 -0.12)">
     <defs>
      <path id="DejaVuSans-6d" d="M 3328 2828 
Q 3544 3216 3844 3400 
Q 4144 3584 4550 3584 
Q 5097 3584 5394 3201 
Q 5691 2819 5691 2113 
L 5691 0 
L 5113 0 
L 5113 2094 
Q 5113 2597 4934 2840 
Q 4756 3084 4391 3084 
Q 3944 3084 3684 2787 
Q 3425 2491 3425 1978 
L 3425 0 
L 2847 0 
L 2847 2094 
Q 2847 2600 2669 2842 
Q 2491 3084 2119 3084 
Q 1678 3084 1418 2786 
Q 1159 2488 1159 1978 
L 1159 0 
L 581 0 
L 581 3500 
L 1159 3500 
L 1159 2956 
Q 1356 3278 1631 3431 
Q 1906 3584 2284 3584 
Q 2666 3584 2933 3390 
Q 3200 3197 3328 2828 
z
" transform="scale(0.015625)"/>
      <path id="DejaVuSans-64" d="M 2906 2969 
L 2906 4863 
L 3481 4863 
L 3481 0 
L 2906 0 
L 2906 525 
Q 2725 213 2448 61 
Q 2172 -91 1784 -91 
Q 1150 -91 751 415 
Q 353 922 353 1747 
Q 353 2572 751 3078 
Q 1150 3584 1784 3584 
Q 2172 3584 2448 3432 
Q 2725 3281 2906 2969 
z
M 947 1747 
Q 947 1113 1208 752 
Q 1469 391 1925 391 
Q 2381 391 2643 752 
Q 2906 1113 2906 1747 
Q 2906 2381 2643 2742 
Q 2381 3103 1925 3103 
Q 1469 3103 1208 2742 
Q 947 2381 947 1747 
z
" transform="scale(0.015625)"/>
      <path id="DejaVuSans-6c" d="M 603 4863 
L 1178 4863 
L 1178 0 
L 603 0 
L 603 4863 
z
" transform="scale(0.015625)"/>
      <path id="DejaVuSans-20" transform="scale(0.015625)"/>
      <path id="DejaVuSans-74" d="M 1172 4494 
L 1172 3500 
L 2356 3500 
L 2356 3053 
L 1172 3053 
L 1172 1153 
Q 1172 725 1289 603 
Q 1406 481 1766 481 
L 2356 481 
L 2356 0 
L 1766 0 
Q 1100 0 847 248 
Q 594 497 594 1153 
L 594 3053 
L 172 3053 
L 172 3500 
L 594 3500 
L 594 4494 
L 1172 4494 
z
" transform="scale(0.015625)"/>
      <path id="DejaVuSans-69" d="M 603 3500 
L 1178 3500 
L 1178 0 
L 603 0 
L 603 3500 
z
M 603 4863 
L 1178 4863 
L 1178 4134 
L 603 4134 
L 603 4863 
z
" transform="scale(0.015625)"/>
      <path id="DejaVuSans-6e" d="M 3513 2113 
L 3513 0 
L 2938 0 
L 2938 2094 
Q 2938 2591 2744 2837 
Q 2550 3084 2163 3084 
Q 1697 3084 1428 2787 
Q 1159 2491 1159 1978 
L 1159 0 
L 581 0 
L 581 3500 
L 1159 3500 
L 1159 2956 
Q 1366 3272 1645 3428 
Q 1925 3584 2291 3584 
Q 2894 3584 3203 3211 
Q 3513 2838 3513 2113 
z
" transform="scale(0.015625)"/>
      <path id="DejaVuSans-76" d="M 191 3500 
L 800 3500 
L 1894 563 
L 2988 3500 
L 3597 3500 
L 2284 0 
L 1503 0 
L 191 3500 
z
" transform="scale(0.015625)"/>
     </defs>
     <use xlink:href="#DejaVuSans-6d"/>
     <use xlink:href="#DejaVuSans-6f" x="97.412109"/>
     <use xlink:href="#DejaVuSans-64" x="158.59375"/>
     <use xlink:href="#DejaVuSans-65" x="222.070312"/>
     <use xlink:href="#DejaVuSans-6c" x="283.59375"/>
     <use xlink:href="#DejaVuSans-20" x="311.376953"/>
     <use xlink:href="#DejaVuSans-74" x="343.164062"/>
     <use xlink:href="#DejaVuSans-72" x="382.373047"/>
     <use xlink:href="#DejaVuSans-61" x="423.486328"/>
     <use xlink:href="#DejaVuSans-69" x="484.765625"/>
     <use xlink:href="#DejaVuSans-6e" x="512.548828"/>
     <use xlink:href="#DejaVuSans-20" x="575.927734"/>
     <use xlink:href="#DejaVuSans-61" x="607.714844"/>
     <use xlink:href="#DejaVuSans-6e" x="668.994141"/>
     <use xlink:href="#DejaVuSans-64" x="732.373047"/>
     <use xlink:href="#DejaVuSans-20" x="795.849609"/>
     <use xlink:href="#DejaVuSans-76" x="827.636719"/>
     <use xlink:href="#DejaVuSans-61" x="886.816406"/>
     <use xlink:href="#DejaVuSans-6c" x="948.095703"/>
     <use xlink:href="#DejaVuSans-69" x="975.878906"/>
     <use xlink:href="#DejaVuSans-64" x="1003.662109"/>
     <use xlink:href="#DejaVuSans-61" x="1067.138672"/>
     <use xlink:href="#DejaVuSans-74" x="1128.417969"/>
     <use xlink:href="#DejaVuSans-69" x="1167.626953"/>
     <use xlink:href="#DejaVuSans-6f" x="1195.410156"/>
     <use xlink:href="#DejaVuSans-6e" x="1256.591797"/>
     <use xlink:href="#DejaVuSans-20" x="1319.970703"/>
     <use xlink:href="#DejaVuSans-61" x="1351.757812"/>
     <use xlink:href="#DejaVuSans-63" x="1413.037109"/>
     <use xlink:href="#DejaVuSans-63" x="1468.017578"/>
     <use xlink:href="#DejaVuSans-72" x="1522.998047"/>
     <use xlink:href="#DejaVuSans-61" x="1564.111328"/>
     <use xlink:href="#DejaVuSans-63" x="1625.390625"/>
     <use xlink:href="#DejaVuSans-79" x="1680.371094"/>
     <use xlink:href="#DejaVuSans-20" x="1739.550781"/>
     <use xlink:href="#DejaVuSans-6f" x="1771.337891"/>
     <use xlink:href="#DejaVuSans-76" x="1832.519531"/>
     <use xlink:href="#DejaVuSans-65" x="1891.699219"/>
     <use xlink:href="#DejaVuSans-72" x="1953.222656"/>
     <use xlink:href="#DejaVuSans-20" x="1994.335938"/>
     <use xlink:href="#DejaVuSans-74" x="2026.123047"/>
     <use xlink:href="#DejaVuSans-69" x="2065.332031"/>
     <use xlink:href="#DejaVuSans-6d" x="2093.115234"/>
     <use xlink:href="#DejaVuSans-65" x="2190.527344"/>
    </g>
   </g>
   <g id="legend_1">
    <g id="patch_7">
     <path d="M 559.765625 197.978125 
L 641 197.978125 
Q 643 197.978125 643 195.978125 
L 643 167.621875 
Q 643 165.621875 641 165.621875 
L 559.765625 165.621875 
Q 557.765625 165.621875 557.765625 167.621875 
L 557.765625 195.978125 
Q 557.765625 197.978125 559.765625 197.978125 
z
" style="fill: #ffffff; opacity: 0.8; stroke: #cccccc; stroke-linejoin: miter"/>
    </g>
    <g id="line2d_31">
     <path d="M 561.765625 173.720312 
L 571.765625 173.720312 
L 581.765625 173.720312 
" style="fill: none; stroke: #1f77b4; stroke-width: 1.5; stroke-linecap: square"/>
    </g>
    <g id="text_18">
     <!-- train -->
     <g transform="translate(589.765625 177.220312) scale(0.1 -0.1)">
      <use xlink:href="#DejaVuSans-74"/>
      <use xlink:href="#DejaVuSans-72" x="39.208984"/>
      <use xlink:href="#DejaVuSans-61" x="80.322266"/>
      <use xlink:href="#DejaVuSans-69" x="141.601562"/>
      <use xlink:href="#DejaVuSans-6e" x="169.384766"/>
     </g>
    </g>
    <g id="line2d_32">
     <path d="M 561.765625 188.398437 
L 571.765625 188.398437 
L 581.765625 188.398437 
" style="fill: none; stroke: #ff7f0e; stroke-width: 1.5; stroke-linecap: square"/>
    </g>
    <g id="text_19">
     <!-- validation -->
     <g transform="translate(589.765625 191.898437) scale(0.1 -0.1)">
      <use xlink:href="#DejaVuSans-76"/>
      <use xlink:href="#DejaVuSans-61" x="59.179688"/>
      <use xlink:href="#DejaVuSans-6c" x="120.458984"/>
      <use xlink:href="#DejaVuSans-69" x="148.242188"/>
      <use xlink:href="#DejaVuSans-64" x="176.025391"/>
      <use xlink:href="#DejaVuSans-61" x="239.501953"/>
      <use xlink:href="#DejaVuSans-74" x="300.78125"/>
      <use xlink:href="#DejaVuSans-69" x="339.990234"/>
      <use xlink:href="#DejaVuSans-6f" x="367.773438"/>
      <use xlink:href="#DejaVuSans-6e" x="428.955078"/>
     </g>
    </g>
   </g>
  </g>
 </g>
 <defs>
  <clipPath id="p7f06216747">
   <rect x="90" y="43.2" width="558" height="277.2"/>
  </clipPath>
 </defs>
</svg>
