<?xml version="1.0" encoding="utf-8" standalone="no"?>
<!DOCTYPE svg PUBLIC "-//W3C//DTD SVG 1.1//EN"
  "http://www.w3.org/Graphics/SVG/1.1/DTD/svg11.dtd">
<svg xmlns:xlink="http://www.w3.org/1999/xlink" width="720pt" height="360pt" viewBox="0 0 720 360" xmlns="http://www.w3.org/2000/svg" version="1.1">
 <metadata>
  <rdf:RDF xmlns:dc="http://purl.org/dc/elements/1.1/" xmlns:cc="http://creativecommons.org/ns#" xmlns:rdf="http://www.w3.org/1999/02/22-rdf-syntax-ns#">
   <cc:Work>
    <dc:type rdf:resource="http://purl.org/dc/dcmitype/StillImage"/>
    <dc:date>2023-05-24T11:03:17.231383</dc:date>
    <dc:format>image/svg+xml</dc:format>
    <dc:creator>
     <cc:Agent>
      <dc:title>Matplotlib v3.7.1, https://matplotlib.org/</dc:title>
     </cc:Agent>
    </dc:creator>
   </cc:Work>
  </rdf:RDF>
 </metadata>
 <defs>
  <style type="text/css">*{stroke-linejoin: round; stroke-linecap: butt}</style>
 </defs>
 <g id="figure_1">
  <g id="patch_1">
   <path d="M 0 360 
L 720 360 
L 720 0 
L 0 0 
z
" style="fill: #ffffff"/>
  </g>
  <g id="axes_1">
   <g id="patch_2">
    <path d="M 90 320.4 
L 648 320.4 
L 648 43.2 
L 90 43.2 
z
" style="fill: #ffffff"/>
   </g>
   <g id="matplotlib.axis_1">
    <g id="xtick_1">
     <g id="line2d_1">
      <path d="M 115.363636 320.4 
L 115.363636 43.2 
" clip-path="url(#p93ce6b1921)" style="fill: none; stroke: #b0b0b0; stroke-width: 0.8; stroke-linecap: square"/>
     </g>
     <g id="line2d_2">
      <defs>
       <path id="m76f5560b14" d="M 0 0 
L 0 3.5 
" style="stroke: #000000; stroke-width: 0.8"/>
      </defs>
      <g>
       <use xlink:href="#m76f5560b14" x="115.363636" y="320.4" style="stroke: #000000; stroke-width: 0.8"/>
      </g>
     </g>
     <g id="text_1">
      <!-- 0 -->
      <g transform="translate(112.182386 334.998438) scale(0.1 -0.1)">
       <defs>
        <path id="DejaVuSans-30" d="M 2034 4250 
Q 1547 4250 1301 3770 
Q 1056 3291 1056 2328 
Q 1056 1369 1301 889 
Q 1547 409 2034 409 
Q 2525 409 2770 889 
Q 3016 1369 3016 2328 
Q 3016 3291 2770 3770 
Q 2525 4250 2034 4250 
z
M 2034 4750 
Q 2819 4750 3233 4129 
Q 3647 3509 3647 2328 
Q 3647 1150 3233 529 
Q 2819 -91 2034 -91 
Q 1250 -91 836 529 
Q 422 1150 422 2328 
Q 422 3509 836 4129 
Q 1250 4750 2034 4750 
z
" transform="scale(0.015625)"/>
       </defs>
       <use xlink:href="#DejaVuSans-30"/>
      </g>
     </g>
    </g>
    <g id="xtick_2">
     <g id="line2d_3">
      <path d="M 217.021498 320.4 
L 217.021498 43.2 
" clip-path="url(#p93ce6b1921)" style="fill: none; stroke: #b0b0b0; stroke-width: 0.8; stroke-linecap: square"/>
     </g>
     <g id="line2d_4">
      <g>
       <use xlink:href="#m76f5560b14" x="217.021498" y="320.4" style="stroke: #000000; stroke-width: 0.8"/>
      </g>
     </g>
     <g id="text_2">
      <!-- 100 -->
      <g transform="translate(207.477748 334.998438) scale(0.1 -0.1)">
       <defs>
        <path id="DejaVuSans-31" d="M 794 531 
L 1825 531 
L 1825 4091 
L 703 3866 
L 703 4441 
L 1819 4666 
L 2450 4666 
L 2450 531 
L 3481 531 
L 3481 0 
L 794 0 
L 794 531 
z
" transform="scale(0.015625)"/>
       </defs>
       <use xlink:href="#DejaVuSans-31"/>
       <use xlink:href="#DejaVuSans-30" x="63.623047"/>
       <use xlink:href="#DejaVuSans-30" x="127.246094"/>
      </g>
     </g>
    </g>
    <g id="xtick_3">
     <g id="line2d_5">
      <path d="M 318.679359 320.4 
L 318.679359 43.2 
" clip-path="url(#p93ce6b1921)" style="fill: none; stroke: #b0b0b0; stroke-width: 0.8; stroke-linecap: square"/>
     </g>
     <g id="line2d_6">
      <g>
       <use xlink:href="#m76f5560b14" x="318.679359" y="320.4" style="stroke: #000000; stroke-width: 0.8"/>
      </g>
     </g>
     <g id="text_3">
      <!-- 200 -->
      <g transform="translate(309.135609 334.998438) scale(0.1 -0.1)">
       <defs>
        <path id="DejaVuSans-32" d="M 1228 531 
L 3431 531 
L 3431 0 
L 469 0 
L 469 531 
Q 828 903 1448 1529 
Q 2069 2156 2228 2338 
Q 2531 2678 2651 2914 
Q 2772 3150 2772 3378 
Q 2772 3750 2511 3984 
Q 2250 4219 1831 4219 
Q 1534 4219 1204 4116 
Q 875 4013 500 3803 
L 500 4441 
Q 881 4594 1212 4672 
Q 1544 4750 1819 4750 
Q 2544 4750 2975 4387 
Q 3406 4025 3406 3419 
Q 3406 3131 3298 2873 
Q 3191 2616 2906 2266 
Q 2828 2175 2409 1742 
Q 1991 1309 1228 531 
z
" transform="scale(0.015625)"/>
       </defs>
       <use xlink:href="#DejaVuSans-32"/>
       <use xlink:href="#DejaVuSans-30" x="63.623047"/>
       <use xlink:href="#DejaVuSans-30" x="127.246094"/>
      </g>
     </g>
    </g>
    <g id="xtick_4">
     <g id="line2d_7">
      <path d="M 420.33722 320.4 
L 420.33722 43.2 
" clip-path="url(#p93ce6b1921)" style="fill: none; stroke: #b0b0b0; stroke-width: 0.8; stroke-linecap: square"/>
     </g>
     <g id="line2d_8">
      <g>
       <use xlink:href="#m76f5560b14" x="420.33722" y="320.4" style="stroke: #000000; stroke-width: 0.8"/>
      </g>
     </g>
     <g id="text_4">
      <!-- 300 -->
      <g transform="translate(410.79347 334.998438) scale(0.1 -0.1)">
       <defs>
        <path id="DejaVuSans-33" d="M 2597 2516 
Q 3050 2419 3304 2112 
Q 3559 1806 3559 1356 
Q 3559 666 3084 287 
Q 2609 -91 1734 -91 
Q 1441 -91 1130 -33 
Q 819 25 488 141 
L 488 750 
Q 750 597 1062 519 
Q 1375 441 1716 441 
Q 2309 441 2620 675 
Q 2931 909 2931 1356 
Q 2931 1769 2642 2001 
Q 2353 2234 1838 2234 
L 1294 2234 
L 1294 2753 
L 1863 2753 
Q 2328 2753 2575 2939 
Q 2822 3125 2822 3475 
Q 2822 3834 2567 4026 
Q 2313 4219 1838 4219 
Q 1578 4219 1281 4162 
Q 984 4106 628 3988 
L 628 4550 
Q 988 4650 1302 4700 
Q 1616 4750 1894 4750 
Q 2613 4750 3031 4423 
Q 3450 4097 3450 3541 
Q 3450 3153 3228 2886 
Q 3006 2619 2597 2516 
z
" transform="scale(0.015625)"/>
       </defs>
       <use xlink:href="#DejaVuSans-33"/>
       <use xlink:href="#DejaVuSans-30" x="63.623047"/>
       <use xlink:href="#DejaVuSans-30" x="127.246094"/>
      </g>
     </g>
    </g>
    <g id="xtick_5">
     <g id="line2d_9">
      <path d="M 521.995081 320.4 
L 521.995081 43.2 
" clip-path="url(#p93ce6b1921)" style="fill: none; stroke: #b0b0b0; stroke-width: 0.8; stroke-linecap: square"/>
     </g>
     <g id="line2d_10">
      <g>
       <use xlink:href="#m76f5560b14" x="521.995081" y="320.4" style="stroke: #000000; stroke-width: 0.8"/>
      </g>
     </g>
     <g id="text_5">
      <!-- 400 -->
      <g transform="translate(512.451331 334.998438) scale(0.1 -0.1)">
       <defs>
        <path id="DejaVuSans-34" d="M 2419 4116 
L 825 1625 
L 2419 1625 
L 2419 4116 
z
M 2253 4666 
L 3047 4666 
L 3047 1625 
L 3713 1625 
L 3713 1100 
L 3047 1100 
L 3047 0 
L 2419 0 
L 2419 1100 
L 313 1100 
L 313 1709 
L 2253 4666 
z
" transform="scale(0.015625)"/>
       </defs>
       <use xlink:href="#DejaVuSans-34"/>
       <use xlink:href="#DejaVuSans-30" x="63.623047"/>
       <use xlink:href="#DejaVuSans-30" x="127.246094"/>
      </g>
     </g>
    </g>
    <g id="xtick_6">
     <g id="line2d_11">
      <path d="M 623.652942 320.4 
L 623.652942 43.2 
" clip-path="url(#p93ce6b1921)" style="fill: none; stroke: #b0b0b0; stroke-width: 0.8; stroke-linecap: square"/>
     </g>
     <g id="line2d_12">
      <g>
       <use xlink:href="#m76f5560b14" x="623.652942" y="320.4" style="stroke: #000000; stroke-width: 0.8"/>
      </g>
     </g>
     <g id="text_6">
      <!-- 500 -->
      <g transform="translate(614.109192 334.998438) scale(0.1 -0.1)">
       <defs>
        <path id="DejaVuSans-35" d="M 691 4666 
L 3169 4666 
L 3169 4134 
L 1269 4134 
L 1269 2991 
Q 1406 3038 1543 3061 
Q 1681 3084 1819 3084 
Q 2600 3084 3056 2656 
Q 3513 2228 3513 1497 
Q 3513 744 3044 326 
Q 2575 -91 1722 -91 
Q 1428 -91 1123 -41 
Q 819 9 494 109 
L 494 744 
Q 775 591 1075 516 
Q 1375 441 1709 441 
Q 2250 441 2565 725 
Q 2881 1009 2881 1497 
Q 2881 1984 2565 2268 
Q 2250 2553 1709 2553 
Q 1456 2553 1204 2497 
Q 953 2441 691 2322 
L 691 4666 
z
" transform="scale(0.015625)"/>
       </defs>
       <use xlink:href="#DejaVuSans-35"/>
       <use xlink:href="#DejaVuSans-30" x="63.623047"/>
       <use xlink:href="#DejaVuSans-30" x="127.246094"/>
      </g>
     </g>
    </g>
    <g id="text_7">
     <!-- epoch -->
     <g transform="translate(353.771875 348.676562) scale(0.1 -0.1)">
      <defs>
       <path id="DejaVuSans-65" d="M 3597 1894 
L 3597 1613 
L 953 1613 
Q 991 1019 1311 708 
Q 1631 397 2203 397 
Q 2534 397 2845 478 
Q 3156 559 3463 722 
L 3463 178 
Q 3153 47 2828 -22 
Q 2503 -91 2169 -91 
Q 1331 -91 842 396 
Q 353 884 353 1716 
Q 353 2575 817 3079 
Q 1281 3584 2069 3584 
Q 2775 3584 3186 3129 
Q 3597 2675 3597 1894 
z
M 3022 2063 
Q 3016 2534 2758 2815 
Q 2500 3097 2075 3097 
Q 1594 3097 1305 2825 
Q 1016 2553 972 2059 
L 3022 2063 
z
" transform="scale(0.015625)"/>
       <path id="DejaVuSans-70" d="M 1159 525 
L 1159 -1331 
L 581 -1331 
L 581 3500 
L 1159 3500 
L 1159 2969 
Q 1341 3281 1617 3432 
Q 1894 3584 2278 3584 
Q 2916 3584 3314 3078 
Q 3713 2572 3713 1747 
Q 3713 922 3314 415 
Q 2916 -91 2278 -91 
Q 1894 -91 1617 61 
Q 1341 213 1159 525 
z
M 3116 1747 
Q 3116 2381 2855 2742 
Q 2594 3103 2138 3103 
Q 1681 3103 1420 2742 
Q 1159 2381 1159 1747 
Q 1159 1113 1420 752 
Q 1681 391 2138 391 
Q 2594 391 2855 752 
Q 3116 1113 3116 1747 
z
" transform="scale(0.015625)"/>
       <path id="DejaVuSans-6f" d="M 1959 3097 
Q 1497 3097 1228 2736 
Q 959 2375 959 1747 
Q 959 1119 1226 758 
Q 1494 397 1959 397 
Q 2419 397 2687 759 
Q 2956 1122 2956 1747 
Q 2956 2369 2687 2733 
Q 2419 3097 1959 3097 
z
M 1959 3584 
Q 2709 3584 3137 3096 
Q 3566 2609 3566 1747 
Q 3566 888 3137 398 
Q 2709 -91 1959 -91 
Q 1206 -91 779 398 
Q 353 888 353 1747 
Q 353 2609 779 3096 
Q 1206 3584 1959 3584 
z
" transform="scale(0.015625)"/>
       <path id="DejaVuSans-63" d="M 3122 3366 
L 3122 2828 
Q 2878 2963 2633 3030 
Q 2388 3097 2138 3097 
Q 1578 3097 1268 2742 
Q 959 2388 959 1747 
Q 959 1106 1268 751 
Q 1578 397 2138 397 
Q 2388 397 2633 464 
Q 2878 531 3122 666 
L 3122 134 
Q 2881 22 2623 -34 
Q 2366 -91 2075 -91 
Q 1284 -91 818 406 
Q 353 903 353 1747 
Q 353 2603 823 3093 
Q 1294 3584 2113 3584 
Q 2378 3584 2631 3529 
Q 2884 3475 3122 3366 
z
" transform="scale(0.015625)"/>
       <path id="DejaVuSans-68" d="M 3513 2113 
L 3513 0 
L 2938 0 
L 2938 2094 
Q 2938 2591 2744 2837 
Q 2550 3084 2163 3084 
Q 1697 3084 1428 2787 
Q 1159 2491 1159 1978 
L 1159 0 
L 581 0 
L 581 4863 
L 1159 4863 
L 1159 2956 
Q 1366 3272 1645 3428 
Q 1925 3584 2291 3584 
Q 2894 3584 3203 3211 
Q 3513 2838 3513 2113 
z
" transform="scale(0.015625)"/>
      </defs>
      <use xlink:href="#DejaVuSans-65"/>
      <use xlink:href="#DejaVuSans-70" x="61.523438"/>
      <use xlink:href="#DejaVuSans-6f" x="125"/>
      <use xlink:href="#DejaVuSans-63" x="186.181641"/>
      <use xlink:href="#DejaVuSans-68" x="241.162109"/>
     </g>
    </g>
   </g>
   <g id="matplotlib.axis_2">
    <g id="ytick_1">
     <g id="line2d_13">
      <path d="M 90 316.025987 
L 648 316.025987 
" clip-path="url(#p93ce6b1921)" style="fill: none; stroke: #b0b0b0; stroke-width: 0.8; stroke-linecap: square"/>
     </g>
     <g id="line2d_14">
      <defs>
       <path id="mad71aede31" d="M 0 0 
L -3.5 0 
" style="stroke: #000000; stroke-width: 0.8"/>
      </defs>
      <g>
       <use xlink:href="#mad71aede31" x="90" y="316.025987" style="stroke: #000000; stroke-width: 0.8"/>
      </g>
     </g>
     <g id="text_8">
      <!-- 0.00 -->
      <g transform="translate(60.734375 319.825205) scale(0.1 -0.1)">
       <defs>
        <path id="DejaVuSans-2e" d="M 684 794 
L 1344 794 
L 1344 0 
L 684 0 
L 684 794 
z
" transform="scale(0.015625)"/>
       </defs>
       <use xlink:href="#DejaVuSans-30"/>
       <use xlink:href="#DejaVuSans-2e" x="63.623047"/>
       <use xlink:href="#DejaVuSans-30" x="95.410156"/>
       <use xlink:href="#DejaVuSans-30" x="159.033203"/>
      </g>
     </g>
    </g>
    <g id="ytick_2">
     <g id="line2d_15">
      <path d="M 90 279.767974 
L 648 279.767974 
" clip-path="url(#p93ce6b1921)" style="fill: none; stroke: #b0b0b0; stroke-width: 0.8; stroke-linecap: square"/>
     </g>
     <g id="line2d_16">
      <g>
       <use xlink:href="#mad71aede31" x="90" y="279.767974" style="stroke: #000000; stroke-width: 0.8"/>
      </g>
     </g>
     <g id="text_9">
      <!-- 0.25 -->
      <g transform="translate(60.734375 283.567193) scale(0.1 -0.1)">
       <use xlink:href="#DejaVuSans-30"/>
       <use xlink:href="#DejaVuSans-2e" x="63.623047"/>
       <use xlink:href="#DejaVuSans-32" x="95.410156"/>
       <use xlink:href="#DejaVuSans-35" x="159.033203"/>
      </g>
     </g>
    </g>
    <g id="ytick_3">
     <g id="line2d_17">
      <path d="M 90 243.509962 
L 648 243.509962 
" clip-path="url(#p93ce6b1921)" style="fill: none; stroke: #b0b0b0; stroke-width: 0.8; stroke-linecap: square"/>
     </g>
     <g id="line2d_18">
      <g>
       <use xlink:href="#mad71aede31" x="90" y="243.509962" style="stroke: #000000; stroke-width: 0.8"/>
      </g>
     </g>
     <g id="text_10">
      <!-- 0.50 -->
      <g transform="translate(60.734375 247.309181) scale(0.1 -0.1)">
       <use xlink:href="#DejaVuSans-30"/>
       <use xlink:href="#DejaVuSans-2e" x="63.623047"/>
       <use xlink:href="#DejaVuSans-35" x="95.410156"/>
       <use xlink:href="#DejaVuSans-30" x="159.033203"/>
      </g>
     </g>
    </g>
    <g id="ytick_4">
     <g id="line2d_19">
      <path d="M 90 207.25195 
L 648 207.25195 
" clip-path="url(#p93ce6b1921)" style="fill: none; stroke: #b0b0b0; stroke-width: 0.8; stroke-linecap: square"/>
     </g>
     <g id="line2d_20">
      <g>
       <use xlink:href="#mad71aede31" x="90" y="207.25195" style="stroke: #000000; stroke-width: 0.8"/>
      </g>
     </g>
     <g id="text_11">
      <!-- 0.75 -->
      <g transform="translate(60.734375 211.051168) scale(0.1 -0.1)">
       <defs>
        <path id="DejaVuSans-37" d="M 525 4666 
L 3525 4666 
L 3525 4397 
L 1831 0 
L 1172 0 
L 2766 4134 
L 525 4134 
L 525 4666 
z
" transform="scale(0.015625)"/>
       </defs>
       <use xlink:href="#DejaVuSans-30"/>
       <use xlink:href="#DejaVuSans-2e" x="63.623047"/>
       <use xlink:href="#DejaVuSans-37" x="95.410156"/>
       <use xlink:href="#DejaVuSans-35" x="159.033203"/>
      </g>
     </g>
    </g>
    <g id="ytick_5">
     <g id="line2d_21">
      <path d="M 90 170.993937 
L 648 170.993937 
" clip-path="url(#p93ce6b1921)" style="fill: none; stroke: #b0b0b0; stroke-width: 0.8; stroke-linecap: square"/>
     </g>
     <g id="line2d_22">
      <g>
       <use xlink:href="#mad71aede31" x="90" y="170.993937" style="stroke: #000000; stroke-width: 0.8"/>
      </g>
     </g>
     <g id="text_12">
      <!-- 1.00 -->
      <g transform="translate(60.734375 174.793156) scale(0.1 -0.1)">
       <use xlink:href="#DejaVuSans-31"/>
       <use xlink:href="#DejaVuSans-2e" x="63.623047"/>
       <use xlink:href="#DejaVuSans-30" x="95.410156"/>
       <use xlink:href="#DejaVuSans-30" x="159.033203"/>
      </g>
     </g>
    </g>
    <g id="ytick_6">
     <g id="line2d_23">
      <path d="M 90 134.735925 
L 648 134.735925 
" clip-path="url(#p93ce6b1921)" style="fill: none; stroke: #b0b0b0; stroke-width: 0.8; stroke-linecap: square"/>
     </g>
     <g id="line2d_24">
      <g>
       <use xlink:href="#mad71aede31" x="90" y="134.735925" style="stroke: #000000; stroke-width: 0.8"/>
      </g>
     </g>
     <g id="text_13">
      <!-- 1.25 -->
      <g transform="translate(60.734375 138.535144) scale(0.1 -0.1)">
       <use xlink:href="#DejaVuSans-31"/>
       <use xlink:href="#DejaVuSans-2e" x="63.623047"/>
       <use xlink:href="#DejaVuSans-32" x="95.410156"/>
       <use xlink:href="#DejaVuSans-35" x="159.033203"/>
      </g>
     </g>
    </g>
    <g id="ytick_7">
     <g id="line2d_25">
      <path d="M 90 98.477912 
L 648 98.477912 
" clip-path="url(#p93ce6b1921)" style="fill: none; stroke: #b0b0b0; stroke-width: 0.8; stroke-linecap: square"/>
     </g>
     <g id="line2d_26">
      <g>
       <use xlink:href="#mad71aede31" x="90" y="98.477912" style="stroke: #000000; stroke-width: 0.8"/>
      </g>
     </g>
     <g id="text_14">
      <!-- 1.50 -->
      <g transform="translate(60.734375 102.277131) scale(0.1 -0.1)">
       <use xlink:href="#DejaVuSans-31"/>
       <use xlink:href="#DejaVuSans-2e" x="63.623047"/>
       <use xlink:href="#DejaVuSans-35" x="95.410156"/>
       <use xlink:href="#DejaVuSans-30" x="159.033203"/>
      </g>
     </g>
    </g>
    <g id="ytick_8">
     <g id="line2d_27">
      <path d="M 90 62.2199 
L 648 62.2199 
" clip-path="url(#p93ce6b1921)" style="fill: none; stroke: #b0b0b0; stroke-width: 0.8; stroke-linecap: square"/>
     </g>
     <g id="line2d_28">
      <g>
       <use xlink:href="#mad71aede31" x="90" y="62.2199" style="stroke: #000000; stroke-width: 0.8"/>
      </g>
     </g>
     <g id="text_15">
      <!-- 1.75 -->
      <g transform="translate(60.734375 66.019119) scale(0.1 -0.1)">
       <use xlink:href="#DejaVuSans-31"/>
       <use xlink:href="#DejaVuSans-2e" x="63.623047"/>
       <use xlink:href="#DejaVuSans-37" x="95.410156"/>
       <use xlink:href="#DejaVuSans-35" x="159.033203"/>
      </g>
     </g>
    </g>
    <g id="text_16">
     <!-- loss -->
     <g transform="translate(54.654688 191.457812) rotate(-90) scale(0.1 -0.1)">
      <defs>
       <path id="DejaVuSans-6c" d="M 603 4863 
L 1178 4863 
L 1178 0 
L 603 0 
L 603 4863 
z
" transform="scale(0.015625)"/>
       <path id="DejaVuSans-73" d="M 2834 3397 
L 2834 2853 
Q 2591 2978 2328 3040 
Q 2066 3103 1784 3103 
Q 1356 3103 1142 2972 
Q 928 2841 928 2578 
Q 928 2378 1081 2264 
Q 1234 2150 1697 2047 
L 1894 2003 
Q 2506 1872 2764 1633 
Q 3022 1394 3022 966 
Q 3022 478 2636 193 
Q 2250 -91 1575 -91 
Q 1294 -91 989 -36 
Q 684 19 347 128 
L 347 722 
Q 666 556 975 473 
Q 1284 391 1588 391 
Q 1994 391 2212 530 
Q 2431 669 2431 922 
Q 2431 1156 2273 1281 
Q 2116 1406 1581 1522 
L 1381 1569 
Q 847 1681 609 1914 
Q 372 2147 372 2553 
Q 372 3047 722 3315 
Q 1072 3584 1716 3584 
Q 2034 3584 2315 3537 
Q 2597 3491 2834 3397 
z
" transform="scale(0.015625)"/>
      </defs>
      <use xlink:href="#DejaVuSans-6c"/>
      <use xlink:href="#DejaVuSans-6f" x="27.783203"/>
      <use xlink:href="#DejaVuSans-73" x="88.964844"/>
      <use xlink:href="#DejaVuSans-73" x="141.064453"/>
     </g>
    </g>
   </g>
   <g id="line2d_29">
    <path d="M 115.363636 293.903706 
L 116.380215 295.027048 
L 117.396794 295.166556 
L 121.463108 296.667412 
L 122.479687 296.666141 
L 123.496265 297.115575 
L 124.512844 296.88926 
L 125.529422 297.751023 
L 126.546001 297.625597 
L 127.56258 297.736046 
L 128.579158 298.09207 
L 129.595737 298.229157 
L 130.612316 297.887417 
L 131.628894 297.967557 
L 132.645473 298.416849 
L 134.67863 298.888674 
L 135.695209 298.881686 
L 137.728366 299.123212 
L 138.744944 298.519776 
L 139.761523 299.363816 
L 140.778102 299.160612 
L 141.79468 299.384004 
L 142.811259 299.393725 
L 143.827837 299.702937 
L 144.844416 299.555103 
L 147.894152 299.694621 
L 148.910731 300.010829 
L 149.927309 300.029748 
L 150.943888 299.815655 
L 151.960466 300.054576 
L 155.010202 300.305796 
L 156.026781 300.463261 
L 157.043359 300.468946 
L 159.076517 300.713193 
L 160.093095 300.424908 
L 161.109674 300.660461 
L 162.126253 300.769352 
L 164.15941 300.735032 
L 165.175988 301.106561 
L 166.192567 300.708348 
L 167.209146 300.99408 
L 169.242303 300.823602 
L 170.258881 301.011781 
L 172.292039 300.841174 
L 173.308617 301.452607 
L 174.325196 301.135203 
L 176.358353 301.74144 
L 178.39151 301.51478 
L 179.408089 301.656038 
L 180.424668 301.44114 
L 183.474403 301.641838 
L 185.507561 301.944242 
L 186.524139 301.880341 
L 187.540718 301.660936 
L 188.557296 302.089263 
L 190.590454 301.9772 
L 191.607032 301.69536 
L 193.640189 302.110856 
L 194.656768 301.70199 
L 195.673347 302.358374 
L 196.689925 302.107165 
L 197.706504 302.372073 
L 198.723083 301.741945 
L 199.739661 302.416347 
L 200.75624 302.200133 
L 201.772818 302.469217 
L 202.789397 302.125204 
L 203.805976 302.412036 
L 205.839133 302.471503 
L 206.855711 302.653047 
L 207.87229 302.525439 
L 208.888869 302.675401 
L 209.905447 302.454879 
L 211.938604 302.805266 
L 212.955183 302.584654 
L 213.971762 302.608773 
L 214.98834 302.509397 
L 216.004919 302.556118 
L 217.021498 302.930074 
L 218.038076 302.645558 
L 219.054655 302.866918 
L 220.071233 302.942143 
L 221.087812 302.662981 
L 223.120969 303.053279 
L 225.154126 303.090727 
L 226.170705 302.855093 
L 227.187284 303.196709 
L 228.203862 303.172089 
L 229.220441 302.873379 
L 231.253598 303.124956 
L 232.270177 303.042515 
L 233.286755 303.3129 
L 234.303334 303.261338 
L 235.319913 303.042792 
L 236.336491 303.458345 
L 237.35307 303.261236 
L 238.369648 303.432746 
L 239.386227 303.331859 
L 240.402806 302.921291 
L 241.419384 303.46143 
L 242.435963 303.324991 
L 243.452541 302.936254 
L 244.46912 303.464305 
L 245.485699 303.337454 
L 246.502277 303.700523 
L 247.518856 302.957393 
L 249.552013 303.587737 
L 250.568592 303.40572 
L 251.58517 303.343991 
L 252.601749 303.65949 
L 255.651485 303.896739 
L 257.684642 303.32727 
L 258.701221 303.650823 
L 259.717799 303.465895 
L 263.784114 303.654724 
L 264.800692 304.037141 
L 265.817271 303.766577 
L 266.83385 304.03219 
L 267.850428 304.074706 
L 269.883585 303.947016 
L 270.900164 303.839816 
L 271.916743 304.161328 
L 272.933321 304.255972 
L 273.9499 303.662476 
L 274.966478 304.070021 
L 275.983057 304.123512 
L 276.999636 303.981914 
L 278.016214 303.994902 
L 279.032793 304.119024 
L 280.049371 303.983492 
L 282.082529 304.113778 
L 283.099107 304.4154 
L 284.115686 304.078277 
L 285.132265 303.959025 
L 286.148843 304.249384 
L 287.165422 304.041423 
L 288.182 304.080095 
L 289.198579 304.559167 
L 290.215158 304.341499 
L 293.264893 304.511817 
L 294.281472 304.128401 
L 295.298051 304.527545 
L 296.314629 304.578942 
L 297.331208 304.262173 
L 298.347786 304.498012 
L 299.364365 304.618963 
L 300.380944 304.334405 
L 301.397522 304.656797 
L 302.414101 304.345812 
L 303.43068 304.707165 
L 304.447258 304.161964 
L 305.463837 304.651923 
L 306.480415 304.579562 
L 307.496994 304.660185 
L 308.513573 304.393654 
L 309.530151 304.734801 
L 311.563308 304.603318 
L 313.596466 304.706863 
L 314.613044 304.569168 
L 315.629623 304.772423 
L 317.66278 304.596481 
L 318.679359 304.764184 
L 319.695937 304.446837 
L 320.712516 304.489428 
L 321.729095 304.843714 
L 322.745673 304.930872 
L 323.762252 304.884595 
L 324.77883 304.615938 
L 326.811988 304.827885 
L 327.828566 304.82074 
L 328.845145 304.685461 
L 329.861723 305.085213 
L 330.878302 304.782511 
L 333.928038 305.064773 
L 335.961195 304.974499 
L 337.994352 304.942454 
L 339.010931 305.148276 
L 340.02751 304.942132 
L 341.044088 305.216425 
L 342.060667 304.795502 
L 343.077245 304.586558 
L 345.110403 305.246054 
L 346.126981 304.612281 
L 347.14356 304.716376 
L 348.160138 305.24186 
L 349.176717 305.342708 
L 351.209874 305.238795 
L 352.226453 305.41314 
L 353.243032 304.914963 
L 354.25961 305.318844 
L 355.276189 305.205337 
L 356.292767 305.262475 
L 357.309346 305.613061 
L 358.325925 305.216112 
L 359.342503 305.303783 
L 360.359082 305.559638 
L 361.37566 305.479643 
L 362.392239 305.281644 
L 363.408818 305.635976 
L 364.425396 305.418547 
L 366.458553 305.406684 
L 367.475132 305.201324 
L 368.491711 305.221054 
L 369.508289 305.364191 
L 370.524868 304.951345 
L 371.541447 305.571914 
L 372.558025 305.166034 
L 373.574604 305.587858 
L 375.607761 305.153804 
L 376.62434 305.274321 
L 377.640918 305.656593 
L 378.657497 305.448193 
L 379.674075 305.721059 
L 380.690654 305.800328 
L 382.723811 305.662909 
L 383.74039 305.752683 
L 384.756968 304.905307 
L 385.773547 305.672323 
L 389.839862 305.725861 
L 390.85644 305.645041 
L 392.889597 305.670754 
L 393.906176 305.628213 
L 394.922755 306.06736 
L 395.939333 305.588351 
L 396.955912 305.639077 
L 397.97249 305.887587 
L 398.989069 305.791608 
L 400.005648 305.358372 
L 401.022226 305.650559 
L 402.038805 306.079129 
L 403.055383 305.591215 
L 404.071962 305.856895 
L 406.105119 305.791597 
L 408.138277 306.060603 
L 409.154855 305.949134 
L 410.171434 305.632482 
L 411.188012 305.931609 
L 412.204591 305.819455 
L 418.304063 306.061386 
L 419.320641 305.711781 
L 420.33722 306.086317 
L 421.353799 306.178362 
L 422.370377 306.156847 
L 423.386956 305.755372 
L 424.403534 306.149358 
L 425.420113 305.679666 
L 426.436692 306.044716 
L 428.469849 305.937303 
L 429.486427 306.203637 
L 430.503006 306.107354 
L 431.519585 306.285806 
L 432.536163 305.454486 
L 433.552742 306.153023 
L 434.56932 306.350757 
L 435.585899 306.14209 
L 436.602478 306.283548 
L 437.619056 306.247058 
L 438.635635 306.060868 
L 439.652214 306.050517 
L 440.668792 306.424783 
L 441.685371 306.105634 
L 442.701949 306.194057 
L 443.718528 305.998509 
L 444.735107 305.992326 
L 445.751685 306.288308 
L 446.768264 306.235888 
L 447.784842 306.380205 
L 448.801421 306.305435 
L 449.818 305.934903 
L 450.834578 306.409776 
L 451.851157 305.9759 
L 452.867735 306.017361 
L 455.917471 306.579469 
L 456.93405 306.428536 
L 457.950629 305.814371 
L 458.967207 306.491048 
L 459.983786 306.001684 
L 461.000364 306.457255 
L 462.016943 306.414177 
L 463.033522 306.566149 
L 464.0501 306.375102 
L 465.066679 306.480019 
L 466.083257 306.08093 
L 468.116415 306.433436 
L 469.132993 306.535682 
L 470.149572 306.457353 
L 471.16615 306.649573 
L 472.182729 306.205679 
L 473.199308 306.607788 
L 474.215886 306.382339 
L 475.232465 306.525605 
L 476.249044 306.519147 
L 478.282201 306.749685 
L 479.298779 306.103581 
L 480.315358 306.521623 
L 481.331937 306.658362 
L 482.348515 306.592938 
L 484.381672 306.701823 
L 485.398251 306.400353 
L 487.431408 306.660933 
L 488.447987 306.496527 
L 489.464565 306.673428 
L 492.514301 306.573477 
L 493.53088 306.798997 
L 496.580616 306.851485 
L 497.597194 306.607195 
L 498.613773 306.809012 
L 499.630352 306.875446 
L 500.64693 306.608965 
L 501.663509 306.691717 
L 502.680087 306.562696 
L 503.696666 306.606915 
L 504.713245 306.772022 
L 507.762981 306.574539 
L 509.796138 306.993828 
L 511.829295 306.870846 
L 513.862452 306.877065 
L 514.879031 306.683685 
L 515.895609 306.810557 
L 516.912188 306.689215 
L 517.928767 306.924269 
L 518.945345 306.767177 
L 520.978502 307.157359 
L 521.995081 306.887525 
L 523.01166 307.048901 
L 525.044817 306.914695 
L 526.061396 307.163357 
L 527.077974 307.11699 
L 528.094553 306.602825 
L 529.111131 307.030458 
L 530.12771 306.886987 
L 532.160867 306.98817 
L 533.177446 306.600462 
L 534.194024 307.045668 
L 535.210603 307.103394 
L 537.24376 306.73307 
L 538.260339 307.115492 
L 539.276917 306.927824 
L 541.310075 307.172224 
L 544.359811 307.220213 
L 545.376389 306.751227 
L 546.392968 307.333263 
L 547.409546 307.147172 
L 548.426125 306.411646 
L 551.475861 307.353579 
L 552.492439 306.999464 
L 554.525597 307.383432 
L 555.542175 307.054658 
L 556.558754 307.267219 
L 557.575332 307.248241 
L 558.591911 307.424819 
L 559.60849 307.037044 
L 560.625068 307.148338 
L 561.641647 307.39704 
L 563.674804 307.22061 
L 564.691383 307.292961 
L 565.707961 307.00036 
L 566.72454 307.320729 
L 567.741119 306.683697 
L 569.774276 307.350959 
L 570.790854 307.382625 
L 571.807433 307.203939 
L 572.824012 307.390188 
L 573.84059 306.992233 
L 574.857169 307.506455 
L 575.873747 307.280323 
L 576.890326 307.246081 
L 577.906905 307.528878 
L 578.923483 307.315091 
L 579.940062 307.289968 
L 580.956641 307.149434 
L 581.973219 307.470875 
L 582.989798 307.472123 
L 584.006376 307.249435 
L 585.022955 307.596843 
L 586.039534 307.440798 
L 587.056112 307.51222 
L 588.072691 307.212965 
L 589.089269 307.400231 
L 590.105848 307.428037 
L 592.139005 306.797018 
L 593.155584 307.637951 
L 594.172163 307.664617 
L 596.20532 306.997332 
L 597.221898 307.199673 
L 598.238477 307.60188 
L 600.271634 307.726105 
L 603.32137 307.271461 
L 604.337949 307.461648 
L 606.371106 307.619893 
L 607.387684 307.077484 
L 608.404263 307.492039 
L 609.420842 307.489797 
L 610.43742 307.305039 
L 611.453999 307.432307 
L 612.470578 307.8 
L 614.503735 307.576051 
L 615.520313 307.726051 
L 616.536892 307.70125 
L 617.553471 307.385965 
L 618.570049 307.6303 
L 620.603206 307.388883 
L 622.636364 307.780068 
L 622.636364 307.780068 
" clip-path="url(#p93ce6b1921)" style="fill: none; stroke: #1f77b4; stroke-width: 1.5; stroke-linecap: square"/>
   </g>
   <g id="line2d_30">
    <path d="M 115.363636 103.281068 
L 116.380215 103.519797 
L 118.413372 103.704618 
L 119.429951 104.079482 
L 120.446529 104.036224 
L 121.463108 104.427928 
L 122.479687 104.234012 
L 123.496265 104.234289 
L 124.512844 104.517105 
L 126.546001 104.476925 
L 127.56258 104.577531 
L 128.579158 104.371046 
L 129.595737 104.536521 
L 130.612316 104.5475 
L 131.628894 104.857667 
L 132.645473 104.728292 
L 133.662051 104.312367 
L 134.67863 104.17656 
L 135.695209 104.354967 
L 137.728366 103.994073 
L 138.744944 103.722357 
L 139.761523 103.765493 
L 140.778102 104.135499 
L 141.79468 103.477093 
L 142.811259 103.833146 
L 143.827837 103.979239 
L 144.844416 103.532867 
L 145.860995 103.533801 
L 146.877573 103.994039 
L 147.894152 103.619642 
L 151.960466 102.922473 
L 152.977045 102.824219 
L 153.993624 103.084594 
L 155.010202 102.461492 
L 156.026781 102.815782 
L 158.059938 102.513533 
L 160.093095 101.980819 
L 161.109674 102.2645 
L 162.126253 102.376049 
L 163.142831 102.077604 
L 164.15941 102.064948 
L 166.192567 101.682961 
L 167.209146 101.827792 
L 169.242303 101.291984 
L 170.258881 101.056073 
L 171.27546 101.403724 
L 172.292039 101.107249 
L 173.308617 100.545092 
L 174.325196 100.514576 
L 175.341774 100.088105 
L 176.358353 100.294606 
L 177.374932 99.900932 
L 178.39151 99.910424 
L 179.408089 100.172199 
L 180.424668 99.82052 
L 181.441246 99.32375 
L 182.457825 99.29875 
L 184.490982 98.880266 
L 185.507561 98.945049 
L 186.524139 98.380747 
L 187.540718 98.600666 
L 189.573875 98.290429 
L 190.590454 98.542211 
L 191.607032 98.384344 
L 192.623611 97.645456 
L 193.640189 97.844697 
L 194.656768 97.77369 
L 196.689925 97.170506 
L 197.706504 96.888225 
L 201.772818 96.805981 
L 203.805976 96.205978 
L 204.822554 96.444655 
L 206.855711 95.744011 
L 207.87229 95.39904 
L 208.888869 95.626669 
L 209.905447 95.727413 
L 210.922026 95.163181 
L 212.955183 94.924297 
L 213.971762 94.658718 
L 216.004919 95.185208 
L 217.021498 94.407282 
L 218.038076 95.006991 
L 219.054655 94.300348 
L 223.120969 93.906708 
L 224.137548 93.790888 
L 225.154126 93.831276 
L 226.170705 92.782532 
L 228.203862 93.005217 
L 229.220441 92.817629 
L 230.237019 92.746813 
L 231.253598 92.444685 
L 232.270177 93.011838 
L 233.286755 92.325649 
L 234.303334 92.048296 
L 236.336491 91.863025 
L 237.35307 91.823018 
L 238.369648 91.578515 
L 239.386227 90.885254 
L 240.402806 91.379724 
L 241.419384 90.923376 
L 242.435963 90.937778 
L 243.452541 91.237503 
L 244.46912 90.155789 
L 245.485699 90.922131 
L 246.502277 90.387689 
L 247.518856 90.578423 
L 248.535435 90.223718 
L 249.552013 90.228023 
L 250.568592 89.990539 
L 251.58517 90.319483 
L 252.601749 90.393446 
L 253.618328 90.048337 
L 254.634906 89.370065 
L 255.651485 89.624562 
L 256.668063 89.313357 
L 257.684642 89.28381 
L 258.701221 88.655712 
L 259.717799 89.144234 
L 260.734378 88.363352 
L 261.750956 88.727081 
L 262.767535 88.196926 
L 263.784114 88.132956 
L 264.800692 88.674263 
L 265.817271 88.117949 
L 266.83385 87.977527 
L 267.850428 88.022876 
L 269.883585 87.670022 
L 270.900164 87.723826 
L 271.916743 86.757776 
L 272.933321 86.885526 
L 273.9499 87.372804 
L 274.966478 86.890833 
L 275.983057 86.586025 
L 276.999636 86.663239 
L 278.016214 86.474873 
L 279.032793 86.705044 
L 281.06595 86.313116 
L 282.082529 86.326895 
L 283.099107 85.789444 
L 284.115686 85.770789 
L 285.132265 86.038149 
L 286.148843 85.521566 
L 287.165422 85.836886 
L 288.182 85.241257 
L 289.198579 85.119057 
L 290.215158 84.859028 
L 291.231736 84.801628 
L 293.264893 84.930933 
L 295.298051 84.511394 
L 296.314629 84.019068 
L 297.331208 84.313779 
L 299.364365 84.227818 
L 300.380944 83.116712 
L 301.397522 83.733244 
L 303.43068 83.261595 
L 304.447258 83.27387 
L 305.463837 82.975408 
L 308.513573 82.954954 
L 309.530151 82.28716 
L 310.54673 82.668698 
L 313.596466 81.913386 
L 314.613044 81.916826 
L 315.629623 81.432125 
L 316.646201 81.716739 
L 317.66278 81.715909 
L 318.679359 81.447132 
L 320.712516 81.402301 
L 321.729095 80.919743 
L 322.745673 80.841042 
L 323.762252 81.1102 
L 324.77883 80.401828 
L 325.795409 80.616145 
L 326.811988 81.147476 
L 327.828566 80.702383 
L 328.845145 81.040456 
L 330.878302 80.540799 
L 331.894881 81.035027 
L 333.928038 80.515764 
L 334.944617 80.898079 
L 335.961195 80.055699 
L 336.977774 80.340884 
L 337.994352 80.486182 
L 339.010931 80.015554 
L 340.02751 79.738166 
L 341.044088 79.945325 
L 342.060667 79.780508 
L 344.093824 79.790933 
L 346.126981 78.764129 
L 347.14356 79.38322 
L 348.160138 79.237334 
L 349.176717 78.797809 
L 350.193296 79.045372 
L 351.209874 78.631003 
L 354.25961 78.196007 
L 355.276189 78.678634 
L 356.292767 78.371925 
L 357.309346 78.259044 
L 358.325925 78.377111 
L 359.342503 78.256571 
L 360.359082 78.28356 
L 361.37566 77.873374 
L 362.392239 78.070332 
L 364.425396 77.912379 
L 365.441975 77.433935 
L 366.458553 77.803993 
L 367.475132 78.049049 
L 368.491711 77.473718 
L 369.508289 77.088774 
L 370.524868 77.355857 
L 371.541447 76.973162 
L 372.558025 77.651226 
L 373.574604 76.800547 
L 374.591182 76.708828 
L 375.607761 76.801359 
L 376.62434 77.011613 
L 378.657497 76.485348 
L 379.674075 77.007602 
L 380.690654 76.631061 
L 381.707233 76.413771 
L 382.723811 76.606977 
L 384.756968 76.201079 
L 386.790126 76.708447 
L 387.806704 75.91726 
L 388.823283 75.91975 
L 389.839862 75.526456 
L 390.85644 75.982354 
L 391.873019 75.297582 
L 392.889597 75.787108 
L 393.906176 75.523776 
L 394.922755 75.142567 
L 395.939333 75.836382 
L 396.955912 75.516169 
L 397.97249 75.565218 
L 398.989069 75.76515 
L 400.005648 74.991045 
L 401.022226 75.285186 
L 402.038805 75.063176 
L 403.055383 74.686306 
L 404.071962 75.017394 
L 405.088541 74.696818 
L 406.105119 74.698893 
L 407.121698 74.350118 
L 408.138277 74.189191 
L 410.171434 74.036199 
L 411.188012 73.926603 
L 412.204591 74.102538 
L 413.22117 74.010749 
L 415.254327 73.547884 
L 416.270905 73.429989 
L 417.287484 73.466002 
L 419.320641 72.789183 
L 420.33722 72.890273 
L 421.353799 72.866708 
L 423.386956 73.399214 
L 424.403534 72.850525 
L 425.420113 72.768523 
L 426.436692 72.073948 
L 427.45327 72.732665 
L 429.486427 71.915994 
L 430.503006 72.785155 
L 431.519585 71.913228 
L 432.536163 72.17177 
L 433.552742 71.80396 
L 434.56932 71.972184 
L 435.585899 71.917187 
L 436.602478 71.501054 
L 438.635635 71.619398 
L 439.652214 71.382727 
L 440.668792 71.834527 
L 441.685371 71.837103 
L 442.701949 71.347405 
L 443.718528 71.347889 
L 444.735107 71.140229 
L 445.751685 71.235371 
L 447.784842 70.731426 
L 448.801421 70.748145 
L 449.818 70.504541 
L 450.834578 70.755631 
L 451.851157 70.501325 
L 452.867735 70.531374 
L 453.884314 70.719601 
L 454.900893 70.161904 
L 455.917471 70.237146 
L 456.93405 69.964773 
L 457.950629 69.416637 
L 458.967207 70.079089 
L 459.983786 69.473795 
L 461.000364 69.587938 
L 462.016943 69.502028 
L 464.0501 69.716016 
L 465.066679 69.480849 
L 466.083257 69.11795 
L 467.099836 69.866761 
L 468.116415 69.874696 
L 469.132993 69.651286 
L 470.149572 69.222151 
L 473.199308 68.945162 
L 475.232465 69.162175 
L 476.249044 69.010999 
L 477.265622 69.248344 
L 478.282201 68.227177 
L 479.298779 68.594572 
L 480.315358 68.791582 
L 481.331937 68.439436 
L 482.348515 68.718881 
L 483.365094 68.338277 
L 484.381672 68.560097 
L 485.398251 68.094569 
L 486.41483 68.291769 
L 487.431408 67.67318 
L 490.481144 67.967425 
L 491.497723 68.336825 
L 492.514301 67.766732 
L 493.53088 67.996125 
L 494.547459 67.946885 
L 496.580616 67.032444 
L 497.597194 67.568477 
L 498.613773 67.159623 
L 501.663509 67.2585 
L 502.680087 66.64795 
L 503.696666 66.469353 
L 504.713245 66.782321 
L 507.762981 66.348225 
L 508.779559 66.691346 
L 509.796138 65.942379 
L 511.829295 66.041066 
L 513.862452 65.084145 
L 514.879031 65.660773 
L 515.895609 65.315992 
L 516.912188 65.849657 
L 517.928767 64.870537 
L 518.945345 65.812883 
L 519.961924 64.915575 
L 520.978502 65.03615 
L 523.01166 64.48511 
L 524.028238 63.957876 
L 525.044817 64.041435 
L 526.061396 63.972192 
L 527.077974 64.043198 
L 528.094553 63.883792 
L 529.111131 63.882824 
L 530.12771 64.473076 
L 531.144289 64.023627 
L 532.160867 63.803121 
L 533.177446 63.918803 
L 534.194024 64.336233 
L 535.210603 63.700147 
L 536.227182 64.008637 
L 537.24376 63.402808 
L 538.260339 63.645012 
L 539.276917 63.628155 
L 540.293496 63.73348 
L 541.310075 63.307544 
L 543.343232 63.1017 
L 544.359811 62.808268 
L 545.376389 63.447621 
L 546.392968 61.981949 
L 547.409546 62.796131 
L 548.426125 62.285945 
L 549.442704 63.009583 
L 550.459282 62.761898 
L 551.475861 62.296681 
L 552.492439 62.728392 
L 553.509018 62.412899 
L 554.525597 61.850275 
L 555.542175 62.059509 
L 556.558754 61.266593 
L 557.575332 62.124896 
L 558.591911 61.807329 
L 559.60849 62.104599 
L 561.641647 62.227456 
L 562.658226 61.733176 
L 563.674804 61.637687 
L 564.691383 60.954904 
L 565.707961 61.469602 
L 566.72454 60.206698 
L 567.741119 61.08848 
L 568.757697 60.89287 
L 569.774276 60.931736 
L 570.790854 60.579936 
L 571.807433 61.348716 
L 572.824012 60.808222 
L 573.84059 61.078538 
L 574.857169 60.583653 
L 575.873747 60.388061 
L 576.890326 59.898985 
L 577.906905 61.290988 
L 578.923483 60.466087 
L 579.940062 60.068246 
L 580.956641 60.189339 
L 581.973219 59.513229 
L 582.989798 60.282822 
L 584.006376 59.449899 
L 585.022955 59.964338 
L 586.039534 59.524951 
L 587.056112 59.8582 
L 589.089269 59.275209 
L 590.105848 59.69665 
L 591.122427 59.03508 
L 594.172163 59.500158 
L 596.20532 58.613086 
L 597.221898 58.939436 
L 598.238477 58.895625 
L 599.255056 58.433797 
L 600.271634 58.521955 
L 601.288213 58.094964 
L 602.304791 58.031582 
L 603.32137 58.479406 
L 604.337949 57.657168 
L 605.354527 57.762148 
L 606.371106 57.353155 
L 607.387684 57.330748 
L 608.404263 57.149489 
L 610.43742 57.629194 
L 611.453999 58.266265 
L 612.470578 57.785488 
L 613.487156 57.063579 
L 614.503735 57.401011 
L 615.520313 56.958927 
L 616.536892 57.884797 
L 617.553471 57.783223 
L 618.570049 57.129139 
L 619.586628 57.062732 
L 620.603206 56.477891 
L 621.619785 56.678013 
L 622.636364 55.8 
L 622.636364 55.8 
" clip-path="url(#p93ce6b1921)" style="fill: none; stroke: #ff7f0e; stroke-width: 1.5; stroke-linecap: square"/>
   </g>
   <g id="patch_3">
    <path d="M 90 320.4 
L 90 43.2 
" style="fill: none; stroke: #000000; stroke-width: 0.8; stroke-linejoin: miter; stroke-linecap: square"/>
   </g>
   <g id="patch_4">
    <path d="M 648 320.4 
L 648 43.2 
" style="fill: none; stroke: #000000; stroke-width: 0.8; stroke-linejoin: miter; stroke-linecap: square"/>
   </g>
   <g id="patch_5">
    <path d="M 90 320.4 
L 648 320.4 
" style="fill: none; stroke: #000000; stroke-width: 0.8; stroke-linejoin: miter; stroke-linecap: square"/>
   </g>
   <g id="patch_6">
    <path d="M 90 43.2 
L 648 43.2 
" style="fill: none; stroke: #000000; stroke-width: 0.8; stroke-linejoin: miter; stroke-linecap: square"/>
   </g>
   <g id="text_17">
    <!-- model train and validation loss over time -->
    <g transform="translate(245.555625 37.2) scale(0.12 -0.12)">
     <defs>
      <path id="DejaVuSans-6d" d="M 3328 2828 
Q 3544 3216 3844 3400 
Q 4144 3584 4550 3584 
Q 5097 3584 5394 3201 
Q 5691 2819 5691 2113 
L 5691 0 
L 5113 0 
L 5113 2094 
Q 5113 2597 4934 2840 
Q 4756 3084 4391 3084 
Q 3944 3084 3684 2787 
Q 3425 2491 3425 1978 
L 3425 0 
L 2847 0 
L 2847 2094 
Q 2847 2600 2669 2842 
Q 2491 3084 2119 3084 
Q 1678 3084 1418 2786 
Q 1159 2488 1159 1978 
L 1159 0 
L 581 0 
L 581 3500 
L 1159 3500 
L 1159 2956 
Q 1356 3278 1631 3431 
Q 1906 3584 2284 3584 
Q 2666 3584 2933 3390 
Q 3200 3197 3328 2828 
z
" transform="scale(0.015625)"/>
      <path id="DejaVuSans-64" d="M 2906 2969 
L 2906 4863 
L 3481 4863 
L 3481 0 
L 2906 0 
L 2906 525 
Q 2725 213 2448 61 
Q 2172 -91 1784 -91 
Q 1150 -91 751 415 
Q 353 922 353 1747 
Q 353 2572 751 3078 
Q 1150 3584 1784 3584 
Q 2172 3584 2448 3432 
Q 2725 3281 2906 2969 
z
M 947 1747 
Q 947 1113 1208 752 
Q 1469 391 1925 391 
Q 2381 391 2643 752 
Q 2906 1113 2906 1747 
Q 2906 2381 2643 2742 
Q 2381 3103 1925 3103 
Q 1469 3103 1208 2742 
Q 947 2381 947 1747 
z
" transform="scale(0.015625)"/>
      <path id="DejaVuSans-20" transform="scale(0.015625)"/>
      <path id="DejaVuSans-74" d="M 1172 4494 
L 1172 3500 
L 2356 3500 
L 2356 3053 
L 1172 3053 
L 1172 1153 
Q 1172 725 1289 603 
Q 1406 481 1766 481 
L 2356 481 
L 2356 0 
L 1766 0 
Q 1100 0 847 248 
Q 594 497 594 1153 
L 594 3053 
L 172 3053 
L 172 3500 
L 594 3500 
L 594 4494 
L 1172 4494 
z
" transform="scale(0.015625)"/>
      <path id="DejaVuSans-72" d="M 2631 2963 
Q 2534 3019 2420 3045 
Q 2306 3072 2169 3072 
Q 1681 3072 1420 2755 
Q 1159 2438 1159 1844 
L 1159 0 
L 581 0 
L 581 3500 
L 1159 3500 
L 1159 2956 
Q 1341 3275 1631 3429 
Q 1922 3584 2338 3584 
Q 2397 3584 2469 3576 
Q 2541 3569 2628 3553 
L 2631 2963 
z
" transform="scale(0.015625)"/>
      <path id="DejaVuSans-61" d="M 2194 1759 
Q 1497 1759 1228 1600 
Q 959 1441 959 1056 
Q 959 750 1161 570 
Q 1363 391 1709 391 
Q 2188 391 2477 730 
Q 2766 1069 2766 1631 
L 2766 1759 
L 2194 1759 
z
M 3341 1997 
L 3341 0 
L 2766 0 
L 2766 531 
Q 2569 213 2275 61 
Q 1981 -91 1556 -91 
Q 1019 -91 701 211 
Q 384 513 384 1019 
Q 384 1609 779 1909 
Q 1175 2209 1959 2209 
L 2766 2209 
L 2766 2266 
Q 2766 2663 2505 2880 
Q 2244 3097 1772 3097 
Q 1472 3097 1187 3025 
Q 903 2953 641 2809 
L 641 3341 
Q 956 3463 1253 3523 
Q 1550 3584 1831 3584 
Q 2591 3584 2966 3190 
Q 3341 2797 3341 1997 
z
" transform="scale(0.015625)"/>
      <path id="DejaVuSans-69" d="M 603 3500 
L 1178 3500 
L 1178 0 
L 603 0 
L 603 3500 
z
M 603 4863 
L 1178 4863 
L 1178 4134 
L 603 4134 
L 603 4863 
z
" transform="scale(0.015625)"/>
      <path id="DejaVuSans-6e" d="M 3513 2113 
L 3513 0 
L 2938 0 
L 2938 2094 
Q 2938 2591 2744 2837 
Q 2550 3084 2163 3084 
Q 1697 3084 1428 2787 
Q 1159 2491 1159 1978 
L 1159 0 
L 581 0 
L 581 3500 
L 1159 3500 
L 1159 2956 
Q 1366 3272 1645 3428 
Q 1925 3584 2291 3584 
Q 2894 3584 3203 3211 
Q 3513 2838 3513 2113 
z
" transform="scale(0.015625)"/>
      <path id="DejaVuSans-76" d="M 191 3500 
L 800 3500 
L 1894 563 
L 2988 3500 
L 3597 3500 
L 2284 0 
L 1503 0 
L 191 3500 
z
" transform="scale(0.015625)"/>
     </defs>
     <use xlink:href="#DejaVuSans-6d"/>
     <use xlink:href="#DejaVuSans-6f" x="97.412109"/>
     <use xlink:href="#DejaVuSans-64" x="158.59375"/>
     <use xlink:href="#DejaVuSans-65" x="222.070312"/>
     <use xlink:href="#DejaVuSans-6c" x="283.59375"/>
     <use xlink:href="#DejaVuSans-20" x="311.376953"/>
     <use xlink:href="#DejaVuSans-74" x="343.164062"/>
     <use xlink:href="#DejaVuSans-72" x="382.373047"/>
     <use xlink:href="#DejaVuSans-61" x="423.486328"/>
     <use xlink:href="#DejaVuSans-69" x="484.765625"/>
     <use xlink:href="#DejaVuSans-6e" x="512.548828"/>
     <use xlink:href="#DejaVuSans-20" x="575.927734"/>
     <use xlink:href="#DejaVuSans-61" x="607.714844"/>
     <use xlink:href="#DejaVuSans-6e" x="668.994141"/>
     <use xlink:href="#DejaVuSans-64" x="732.373047"/>
     <use xlink:href="#DejaVuSans-20" x="795.849609"/>
     <use xlink:href="#DejaVuSans-76" x="827.636719"/>
     <use xlink:href="#DejaVuSans-61" x="886.816406"/>
     <use xlink:href="#DejaVuSans-6c" x="948.095703"/>
     <use xlink:href="#DejaVuSans-69" x="975.878906"/>
     <use xlink:href="#DejaVuSans-64" x="1003.662109"/>
     <use xlink:href="#DejaVuSans-61" x="1067.138672"/>
     <use xlink:href="#DejaVuSans-74" x="1128.417969"/>
     <use xlink:href="#DejaVuSans-69" x="1167.626953"/>
     <use xlink:href="#DejaVuSans-6f" x="1195.410156"/>
     <use xlink:href="#DejaVuSans-6e" x="1256.591797"/>
     <use xlink:href="#DejaVuSans-20" x="1319.970703"/>
     <use xlink:href="#DejaVuSans-6c" x="1351.757812"/>
     <use xlink:href="#DejaVuSans-6f" x="1379.541016"/>
     <use xlink:href="#DejaVuSans-73" x="1440.722656"/>
     <use xlink:href="#DejaVuSans-73" x="1492.822266"/>
     <use xlink:href="#DejaVuSans-20" x="1544.921875"/>
     <use xlink:href="#DejaVuSans-6f" x="1576.708984"/>
     <use xlink:href="#DejaVuSans-76" x="1637.890625"/>
     <use xlink:href="#DejaVuSans-65" x="1697.070312"/>
     <use xlink:href="#DejaVuSans-72" x="1758.59375"/>
     <use xlink:href="#DejaVuSans-20" x="1799.707031"/>
     <use xlink:href="#DejaVuSans-74" x="1831.494141"/>
     <use xlink:href="#DejaVuSans-69" x="1870.703125"/>
     <use xlink:href="#DejaVuSans-6d" x="1898.486328"/>
     <use xlink:href="#DejaVuSans-65" x="1995.898438"/>
    </g>
   </g>
   <g id="legend_1">
    <g id="patch_7">
     <path d="M 97 80.55625 
L 178.234375 80.55625 
Q 180.234375 80.55625 180.234375 78.55625 
L 180.234375 50.2 
Q 180.234375 48.2 178.234375 48.2 
L 97 48.2 
Q 95 48.2 95 50.2 
L 95 78.55625 
Q 95 80.55625 97 80.55625 
z
" style="fill: #ffffff; opacity: 0.8; stroke: #cccccc; stroke-linejoin: miter"/>
    </g>
    <g id="line2d_31">
     <path d="M 99 56.298437 
L 109 56.298437 
L 119 56.298437 
" style="fill: none; stroke: #1f77b4; stroke-width: 1.5; stroke-linecap: square"/>
    </g>
    <g id="text_18">
     <!-- train -->
     <g transform="translate(127 59.798437) scale(0.1 -0.1)">
      <use xlink:href="#DejaVuSans-74"/>
      <use xlink:href="#DejaVuSans-72" x="39.208984"/>
      <use xlink:href="#DejaVuSans-61" x="80.322266"/>
      <use xlink:href="#DejaVuSans-69" x="141.601562"/>
      <use xlink:href="#DejaVuSans-6e" x="169.384766"/>
     </g>
    </g>
    <g id="line2d_32">
     <path d="M 99 70.976562 
L 109 70.976562 
L 119 70.976562 
" style="fill: none; stroke: #ff7f0e; stroke-width: 1.5; stroke-linecap: square"/>
    </g>
    <g id="text_19">
     <!-- validation -->
     <g transform="translate(127 74.476562) scale(0.1 -0.1)">
      <use xlink:href="#DejaVuSans-76"/>
      <use xlink:href="#DejaVuSans-61" x="59.179688"/>
      <use xlink:href="#DejaVuSans-6c" x="120.458984"/>
      <use xlink:href="#DejaVuSans-69" x="148.242188"/>
      <use xlink:href="#DejaVuSans-64" x="176.025391"/>
      <use xlink:href="#DejaVuSans-61" x="239.501953"/>
      <use xlink:href="#DejaVuSans-74" x="300.78125"/>
      <use xlink:href="#DejaVuSans-69" x="339.990234"/>
      <use xlink:href="#DejaVuSans-6f" x="367.773438"/>
      <use xlink:href="#DejaVuSans-6e" x="428.955078"/>
     </g>
    </g>
   </g>
  </g>
 </g>
 <defs>
  <clipPath id="p93ce6b1921">
   <rect x="90" y="43.2" width="558" height="277.2"/>
  </clipPath>
 </defs>
</svg>
