<?xml version="1.0" encoding="utf-8" standalone="no"?>
<!DOCTYPE svg PUBLIC "-//W3C//DTD SVG 1.1//EN"
  "http://www.w3.org/Graphics/SVG/1.1/DTD/svg11.dtd">
<svg xmlns:xlink="http://www.w3.org/1999/xlink" width="720pt" height="360pt" viewBox="0 0 720 360" xmlns="http://www.w3.org/2000/svg" version="1.1">
 <metadata>
  <rdf:RDF xmlns:dc="http://purl.org/dc/elements/1.1/" xmlns:cc="http://creativecommons.org/ns#" xmlns:rdf="http://www.w3.org/1999/02/22-rdf-syntax-ns#">
   <cc:Work>
    <dc:type rdf:resource="http://purl.org/dc/dcmitype/StillImage"/>
    <dc:date>2023-05-24T11:04:56.974211</dc:date>
    <dc:format>image/svg+xml</dc:format>
    <dc:creator>
     <cc:Agent>
      <dc:title>Matplotlib v3.7.1, https://matplotlib.org/</dc:title>
     </cc:Agent>
    </dc:creator>
   </cc:Work>
  </rdf:RDF>
 </metadata>
 <defs>
  <style type="text/css">*{stroke-linejoin: round; stroke-linecap: butt}</style>
 </defs>
 <g id="figure_1">
  <g id="patch_1">
   <path d="M 0 360 
L 720 360 
L 720 0 
L 0 0 
z
" style="fill: #ffffff"/>
  </g>
  <g id="axes_1">
   <g id="patch_2">
    <path d="M 90 320.4 
L 648 320.4 
L 648 43.2 
L 90 43.2 
z
" style="fill: #ffffff"/>
   </g>
   <g id="matplotlib.axis_1">
    <g id="xtick_1">
     <g id="line2d_1">
      <path d="M 115.363636 320.4 
L 115.363636 43.2 
" clip-path="url(#p3704d82f76)" style="fill: none; stroke: #b0b0b0; stroke-width: 0.8; stroke-linecap: square"/>
     </g>
     <g id="line2d_2">
      <defs>
       <path id="md4e0a5d57d" d="M 0 0 
L 0 3.5 
" style="stroke: #000000; stroke-width: 0.8"/>
      </defs>
      <g>
       <use xlink:href="#md4e0a5d57d" x="115.363636" y="320.4" style="stroke: #000000; stroke-width: 0.8"/>
      </g>
     </g>
     <g id="text_1">
      <!-- 0 -->
      <g transform="translate(112.182386 334.998438) scale(0.1 -0.1)">
       <defs>
        <path id="DejaVuSans-30" d="M 2034 4250 
Q 1547 4250 1301 3770 
Q 1056 3291 1056 2328 
Q 1056 1369 1301 889 
Q 1547 409 2034 409 
Q 2525 409 2770 889 
Q 3016 1369 3016 2328 
Q 3016 3291 2770 3770 
Q 2525 4250 2034 4250 
z
M 2034 4750 
Q 2819 4750 3233 4129 
Q 3647 3509 3647 2328 
Q 3647 1150 3233 529 
Q 2819 -91 2034 -91 
Q 1250 -91 836 529 
Q 422 1150 422 2328 
Q 422 3509 836 4129 
Q 1250 4750 2034 4750 
z
" transform="scale(0.015625)"/>
       </defs>
       <use xlink:href="#DejaVuSans-30"/>
      </g>
     </g>
    </g>
    <g id="xtick_2">
     <g id="line2d_3">
      <path d="M 217.021498 320.4 
L 217.021498 43.2 
" clip-path="url(#p3704d82f76)" style="fill: none; stroke: #b0b0b0; stroke-width: 0.8; stroke-linecap: square"/>
     </g>
     <g id="line2d_4">
      <g>
       <use xlink:href="#md4e0a5d57d" x="217.021498" y="320.4" style="stroke: #000000; stroke-width: 0.8"/>
      </g>
     </g>
     <g id="text_2">
      <!-- 100 -->
      <g transform="translate(207.477748 334.998438) scale(0.1 -0.1)">
       <defs>
        <path id="DejaVuSans-31" d="M 794 531 
L 1825 531 
L 1825 4091 
L 703 3866 
L 703 4441 
L 1819 4666 
L 2450 4666 
L 2450 531 
L 3481 531 
L 3481 0 
L 794 0 
L 794 531 
z
" transform="scale(0.015625)"/>
       </defs>
       <use xlink:href="#DejaVuSans-31"/>
       <use xlink:href="#DejaVuSans-30" x="63.623047"/>
       <use xlink:href="#DejaVuSans-30" x="127.246094"/>
      </g>
     </g>
    </g>
    <g id="xtick_3">
     <g id="line2d_5">
      <path d="M 318.679359 320.4 
L 318.679359 43.2 
" clip-path="url(#p3704d82f76)" style="fill: none; stroke: #b0b0b0; stroke-width: 0.8; stroke-linecap: square"/>
     </g>
     <g id="line2d_6">
      <g>
       <use xlink:href="#md4e0a5d57d" x="318.679359" y="320.4" style="stroke: #000000; stroke-width: 0.8"/>
      </g>
     </g>
     <g id="text_3">
      <!-- 200 -->
      <g transform="translate(309.135609 334.998438) scale(0.1 -0.1)">
       <defs>
        <path id="DejaVuSans-32" d="M 1228 531 
L 3431 531 
L 3431 0 
L 469 0 
L 469 531 
Q 828 903 1448 1529 
Q 2069 2156 2228 2338 
Q 2531 2678 2651 2914 
Q 2772 3150 2772 3378 
Q 2772 3750 2511 3984 
Q 2250 4219 1831 4219 
Q 1534 4219 1204 4116 
Q 875 4013 500 3803 
L 500 4441 
Q 881 4594 1212 4672 
Q 1544 4750 1819 4750 
Q 2544 4750 2975 4387 
Q 3406 4025 3406 3419 
Q 3406 3131 3298 2873 
Q 3191 2616 2906 2266 
Q 2828 2175 2409 1742 
Q 1991 1309 1228 531 
z
" transform="scale(0.015625)"/>
       </defs>
       <use xlink:href="#DejaVuSans-32"/>
       <use xlink:href="#DejaVuSans-30" x="63.623047"/>
       <use xlink:href="#DejaVuSans-30" x="127.246094"/>
      </g>
     </g>
    </g>
    <g id="xtick_4">
     <g id="line2d_7">
      <path d="M 420.33722 320.4 
L 420.33722 43.2 
" clip-path="url(#p3704d82f76)" style="fill: none; stroke: #b0b0b0; stroke-width: 0.8; stroke-linecap: square"/>
     </g>
     <g id="line2d_8">
      <g>
       <use xlink:href="#md4e0a5d57d" x="420.33722" y="320.4" style="stroke: #000000; stroke-width: 0.8"/>
      </g>
     </g>
     <g id="text_4">
      <!-- 300 -->
      <g transform="translate(410.79347 334.998438) scale(0.1 -0.1)">
       <defs>
        <path id="DejaVuSans-33" d="M 2597 2516 
Q 3050 2419 3304 2112 
Q 3559 1806 3559 1356 
Q 3559 666 3084 287 
Q 2609 -91 1734 -91 
Q 1441 -91 1130 -33 
Q 819 25 488 141 
L 488 750 
Q 750 597 1062 519 
Q 1375 441 1716 441 
Q 2309 441 2620 675 
Q 2931 909 2931 1356 
Q 2931 1769 2642 2001 
Q 2353 2234 1838 2234 
L 1294 2234 
L 1294 2753 
L 1863 2753 
Q 2328 2753 2575 2939 
Q 2822 3125 2822 3475 
Q 2822 3834 2567 4026 
Q 2313 4219 1838 4219 
Q 1578 4219 1281 4162 
Q 984 4106 628 3988 
L 628 4550 
Q 988 4650 1302 4700 
Q 1616 4750 1894 4750 
Q 2613 4750 3031 4423 
Q 3450 4097 3450 3541 
Q 3450 3153 3228 2886 
Q 3006 2619 2597 2516 
z
" transform="scale(0.015625)"/>
       </defs>
       <use xlink:href="#DejaVuSans-33"/>
       <use xlink:href="#DejaVuSans-30" x="63.623047"/>
       <use xlink:href="#DejaVuSans-30" x="127.246094"/>
      </g>
     </g>
    </g>
    <g id="xtick_5">
     <g id="line2d_9">
      <path d="M 521.995081 320.4 
L 521.995081 43.2 
" clip-path="url(#p3704d82f76)" style="fill: none; stroke: #b0b0b0; stroke-width: 0.8; stroke-linecap: square"/>
     </g>
     <g id="line2d_10">
      <g>
       <use xlink:href="#md4e0a5d57d" x="521.995081" y="320.4" style="stroke: #000000; stroke-width: 0.8"/>
      </g>
     </g>
     <g id="text_5">
      <!-- 400 -->
      <g transform="translate(512.451331 334.998438) scale(0.1 -0.1)">
       <defs>
        <path id="DejaVuSans-34" d="M 2419 4116 
L 825 1625 
L 2419 1625 
L 2419 4116 
z
M 2253 4666 
L 3047 4666 
L 3047 1625 
L 3713 1625 
L 3713 1100 
L 3047 1100 
L 3047 0 
L 2419 0 
L 2419 1100 
L 313 1100 
L 313 1709 
L 2253 4666 
z
" transform="scale(0.015625)"/>
       </defs>
       <use xlink:href="#DejaVuSans-34"/>
       <use xlink:href="#DejaVuSans-30" x="63.623047"/>
       <use xlink:href="#DejaVuSans-30" x="127.246094"/>
      </g>
     </g>
    </g>
    <g id="xtick_6">
     <g id="line2d_11">
      <path d="M 623.652942 320.4 
L 623.652942 43.2 
" clip-path="url(#p3704d82f76)" style="fill: none; stroke: #b0b0b0; stroke-width: 0.8; stroke-linecap: square"/>
     </g>
     <g id="line2d_12">
      <g>
       <use xlink:href="#md4e0a5d57d" x="623.652942" y="320.4" style="stroke: #000000; stroke-width: 0.8"/>
      </g>
     </g>
     <g id="text_6">
      <!-- 500 -->
      <g transform="translate(614.109192 334.998438) scale(0.1 -0.1)">
       <defs>
        <path id="DejaVuSans-35" d="M 691 4666 
L 3169 4666 
L 3169 4134 
L 1269 4134 
L 1269 2991 
Q 1406 3038 1543 3061 
Q 1681 3084 1819 3084 
Q 2600 3084 3056 2656 
Q 3513 2228 3513 1497 
Q 3513 744 3044 326 
Q 2575 -91 1722 -91 
Q 1428 -91 1123 -41 
Q 819 9 494 109 
L 494 744 
Q 775 591 1075 516 
Q 1375 441 1709 441 
Q 2250 441 2565 725 
Q 2881 1009 2881 1497 
Q 2881 1984 2565 2268 
Q 2250 2553 1709 2553 
Q 1456 2553 1204 2497 
Q 953 2441 691 2322 
L 691 4666 
z
" transform="scale(0.015625)"/>
       </defs>
       <use xlink:href="#DejaVuSans-35"/>
       <use xlink:href="#DejaVuSans-30" x="63.623047"/>
       <use xlink:href="#DejaVuSans-30" x="127.246094"/>
      </g>
     </g>
    </g>
    <g id="text_7">
     <!-- epoch -->
     <g transform="translate(353.771875 348.676562) scale(0.1 -0.1)">
      <defs>
       <path id="DejaVuSans-65" d="M 3597 1894 
L 3597 1613 
L 953 1613 
Q 991 1019 1311 708 
Q 1631 397 2203 397 
Q 2534 397 2845 478 
Q 3156 559 3463 722 
L 3463 178 
Q 3153 47 2828 -22 
Q 2503 -91 2169 -91 
Q 1331 -91 842 396 
Q 353 884 353 1716 
Q 353 2575 817 3079 
Q 1281 3584 2069 3584 
Q 2775 3584 3186 3129 
Q 3597 2675 3597 1894 
z
M 3022 2063 
Q 3016 2534 2758 2815 
Q 2500 3097 2075 3097 
Q 1594 3097 1305 2825 
Q 1016 2553 972 2059 
L 3022 2063 
z
" transform="scale(0.015625)"/>
       <path id="DejaVuSans-70" d="M 1159 525 
L 1159 -1331 
L 581 -1331 
L 581 3500 
L 1159 3500 
L 1159 2969 
Q 1341 3281 1617 3432 
Q 1894 3584 2278 3584 
Q 2916 3584 3314 3078 
Q 3713 2572 3713 1747 
Q 3713 922 3314 415 
Q 2916 -91 2278 -91 
Q 1894 -91 1617 61 
Q 1341 213 1159 525 
z
M 3116 1747 
Q 3116 2381 2855 2742 
Q 2594 3103 2138 3103 
Q 1681 3103 1420 2742 
Q 1159 2381 1159 1747 
Q 1159 1113 1420 752 
Q 1681 391 2138 391 
Q 2594 391 2855 752 
Q 3116 1113 3116 1747 
z
" transform="scale(0.015625)"/>
       <path id="DejaVuSans-6f" d="M 1959 3097 
Q 1497 3097 1228 2736 
Q 959 2375 959 1747 
Q 959 1119 1226 758 
Q 1494 397 1959 397 
Q 2419 397 2687 759 
Q 2956 1122 2956 1747 
Q 2956 2369 2687 2733 
Q 2419 3097 1959 3097 
z
M 1959 3584 
Q 2709 3584 3137 3096 
Q 3566 2609 3566 1747 
Q 3566 888 3137 398 
Q 2709 -91 1959 -91 
Q 1206 -91 779 398 
Q 353 888 353 1747 
Q 353 2609 779 3096 
Q 1206 3584 1959 3584 
z
" transform="scale(0.015625)"/>
       <path id="DejaVuSans-63" d="M 3122 3366 
L 3122 2828 
Q 2878 2963 2633 3030 
Q 2388 3097 2138 3097 
Q 1578 3097 1268 2742 
Q 959 2388 959 1747 
Q 959 1106 1268 751 
Q 1578 397 2138 397 
Q 2388 397 2633 464 
Q 2878 531 3122 666 
L 3122 134 
Q 2881 22 2623 -34 
Q 2366 -91 2075 -91 
Q 1284 -91 818 406 
Q 353 903 353 1747 
Q 353 2603 823 3093 
Q 1294 3584 2113 3584 
Q 2378 3584 2631 3529 
Q 2884 3475 3122 3366 
z
" transform="scale(0.015625)"/>
       <path id="DejaVuSans-68" d="M 3513 2113 
L 3513 0 
L 2938 0 
L 2938 2094 
Q 2938 2591 2744 2837 
Q 2550 3084 2163 3084 
Q 1697 3084 1428 2787 
Q 1159 2491 1159 1978 
L 1159 0 
L 581 0 
L 581 4863 
L 1159 4863 
L 1159 2956 
Q 1366 3272 1645 3428 
Q 1925 3584 2291 3584 
Q 2894 3584 3203 3211 
Q 3513 2838 3513 2113 
z
" transform="scale(0.015625)"/>
      </defs>
      <use xlink:href="#DejaVuSans-65"/>
      <use xlink:href="#DejaVuSans-70" x="61.523438"/>
      <use xlink:href="#DejaVuSans-6f" x="125"/>
      <use xlink:href="#DejaVuSans-63" x="186.181641"/>
      <use xlink:href="#DejaVuSans-68" x="241.162109"/>
     </g>
    </g>
   </g>
   <g id="matplotlib.axis_2">
    <g id="ytick_1">
     <g id="line2d_13">
      <path d="M 90 315.238003 
L 648 315.238003 
" clip-path="url(#p3704d82f76)" style="fill: none; stroke: #b0b0b0; stroke-width: 0.8; stroke-linecap: square"/>
     </g>
     <g id="line2d_14">
      <defs>
       <path id="me4501983b8" d="M 0 0 
L -3.5 0 
" style="stroke: #000000; stroke-width: 0.8"/>
      </defs>
      <g>
       <use xlink:href="#me4501983b8" x="90" y="315.238003" style="stroke: #000000; stroke-width: 0.8"/>
      </g>
     </g>
     <g id="text_8">
      <!-- 0.00 -->
      <g transform="translate(60.734375 319.037222) scale(0.1 -0.1)">
       <defs>
        <path id="DejaVuSans-2e" d="M 684 794 
L 1344 794 
L 1344 0 
L 684 0 
L 684 794 
z
" transform="scale(0.015625)"/>
       </defs>
       <use xlink:href="#DejaVuSans-30"/>
       <use xlink:href="#DejaVuSans-2e" x="63.623047"/>
       <use xlink:href="#DejaVuSans-30" x="95.410156"/>
       <use xlink:href="#DejaVuSans-30" x="159.033203"/>
      </g>
     </g>
    </g>
    <g id="ytick_2">
     <g id="line2d_15">
      <path d="M 90 279.854757 
L 648 279.854757 
" clip-path="url(#p3704d82f76)" style="fill: none; stroke: #b0b0b0; stroke-width: 0.8; stroke-linecap: square"/>
     </g>
     <g id="line2d_16">
      <g>
       <use xlink:href="#me4501983b8" x="90" y="279.854757" style="stroke: #000000; stroke-width: 0.8"/>
      </g>
     </g>
     <g id="text_9">
      <!-- 0.25 -->
      <g transform="translate(60.734375 283.653976) scale(0.1 -0.1)">
       <use xlink:href="#DejaVuSans-30"/>
       <use xlink:href="#DejaVuSans-2e" x="63.623047"/>
       <use xlink:href="#DejaVuSans-32" x="95.410156"/>
       <use xlink:href="#DejaVuSans-35" x="159.033203"/>
      </g>
     </g>
    </g>
    <g id="ytick_3">
     <g id="line2d_17">
      <path d="M 90 244.47151 
L 648 244.47151 
" clip-path="url(#p3704d82f76)" style="fill: none; stroke: #b0b0b0; stroke-width: 0.8; stroke-linecap: square"/>
     </g>
     <g id="line2d_18">
      <g>
       <use xlink:href="#me4501983b8" x="90" y="244.47151" style="stroke: #000000; stroke-width: 0.8"/>
      </g>
     </g>
     <g id="text_10">
      <!-- 0.50 -->
      <g transform="translate(60.734375 248.270729) scale(0.1 -0.1)">
       <use xlink:href="#DejaVuSans-30"/>
       <use xlink:href="#DejaVuSans-2e" x="63.623047"/>
       <use xlink:href="#DejaVuSans-35" x="95.410156"/>
       <use xlink:href="#DejaVuSans-30" x="159.033203"/>
      </g>
     </g>
    </g>
    <g id="ytick_4">
     <g id="line2d_19">
      <path d="M 90 209.088264 
L 648 209.088264 
" clip-path="url(#p3704d82f76)" style="fill: none; stroke: #b0b0b0; stroke-width: 0.8; stroke-linecap: square"/>
     </g>
     <g id="line2d_20">
      <g>
       <use xlink:href="#me4501983b8" x="90" y="209.088264" style="stroke: #000000; stroke-width: 0.8"/>
      </g>
     </g>
     <g id="text_11">
      <!-- 0.75 -->
      <g transform="translate(60.734375 212.887483) scale(0.1 -0.1)">
       <defs>
        <path id="DejaVuSans-37" d="M 525 4666 
L 3525 4666 
L 3525 4397 
L 1831 0 
L 1172 0 
L 2766 4134 
L 525 4134 
L 525 4666 
z
" transform="scale(0.015625)"/>
       </defs>
       <use xlink:href="#DejaVuSans-30"/>
       <use xlink:href="#DejaVuSans-2e" x="63.623047"/>
       <use xlink:href="#DejaVuSans-37" x="95.410156"/>
       <use xlink:href="#DejaVuSans-35" x="159.033203"/>
      </g>
     </g>
    </g>
    <g id="ytick_5">
     <g id="line2d_21">
      <path d="M 90 173.705017 
L 648 173.705017 
" clip-path="url(#p3704d82f76)" style="fill: none; stroke: #b0b0b0; stroke-width: 0.8; stroke-linecap: square"/>
     </g>
     <g id="line2d_22">
      <g>
       <use xlink:href="#me4501983b8" x="90" y="173.705017" style="stroke: #000000; stroke-width: 0.8"/>
      </g>
     </g>
     <g id="text_12">
      <!-- 1.00 -->
      <g transform="translate(60.734375 177.504236) scale(0.1 -0.1)">
       <use xlink:href="#DejaVuSans-31"/>
       <use xlink:href="#DejaVuSans-2e" x="63.623047"/>
       <use xlink:href="#DejaVuSans-30" x="95.410156"/>
       <use xlink:href="#DejaVuSans-30" x="159.033203"/>
      </g>
     </g>
    </g>
    <g id="ytick_6">
     <g id="line2d_23">
      <path d="M 90 138.321771 
L 648 138.321771 
" clip-path="url(#p3704d82f76)" style="fill: none; stroke: #b0b0b0; stroke-width: 0.8; stroke-linecap: square"/>
     </g>
     <g id="line2d_24">
      <g>
       <use xlink:href="#me4501983b8" x="90" y="138.321771" style="stroke: #000000; stroke-width: 0.8"/>
      </g>
     </g>
     <g id="text_13">
      <!-- 1.25 -->
      <g transform="translate(60.734375 142.12099) scale(0.1 -0.1)">
       <use xlink:href="#DejaVuSans-31"/>
       <use xlink:href="#DejaVuSans-2e" x="63.623047"/>
       <use xlink:href="#DejaVuSans-32" x="95.410156"/>
       <use xlink:href="#DejaVuSans-35" x="159.033203"/>
      </g>
     </g>
    </g>
    <g id="ytick_7">
     <g id="line2d_25">
      <path d="M 90 102.938524 
L 648 102.938524 
" clip-path="url(#p3704d82f76)" style="fill: none; stroke: #b0b0b0; stroke-width: 0.8; stroke-linecap: square"/>
     </g>
     <g id="line2d_26">
      <g>
       <use xlink:href="#me4501983b8" x="90" y="102.938524" style="stroke: #000000; stroke-width: 0.8"/>
      </g>
     </g>
     <g id="text_14">
      <!-- 1.50 -->
      <g transform="translate(60.734375 106.737743) scale(0.1 -0.1)">
       <use xlink:href="#DejaVuSans-31"/>
       <use xlink:href="#DejaVuSans-2e" x="63.623047"/>
       <use xlink:href="#DejaVuSans-35" x="95.410156"/>
       <use xlink:href="#DejaVuSans-30" x="159.033203"/>
      </g>
     </g>
    </g>
    <g id="ytick_8">
     <g id="line2d_27">
      <path d="M 90 67.555278 
L 648 67.555278 
" clip-path="url(#p3704d82f76)" style="fill: none; stroke: #b0b0b0; stroke-width: 0.8; stroke-linecap: square"/>
     </g>
     <g id="line2d_28">
      <g>
       <use xlink:href="#me4501983b8" x="90" y="67.555278" style="stroke: #000000; stroke-width: 0.8"/>
      </g>
     </g>
     <g id="text_15">
      <!-- 1.75 -->
      <g transform="translate(60.734375 71.354497) scale(0.1 -0.1)">
       <use xlink:href="#DejaVuSans-31"/>
       <use xlink:href="#DejaVuSans-2e" x="63.623047"/>
       <use xlink:href="#DejaVuSans-37" x="95.410156"/>
       <use xlink:href="#DejaVuSans-35" x="159.033203"/>
      </g>
     </g>
    </g>
    <g id="text_16">
     <!-- loss -->
     <g transform="translate(54.654688 191.457812) rotate(-90) scale(0.1 -0.1)">
      <defs>
       <path id="DejaVuSans-6c" d="M 603 4863 
L 1178 4863 
L 1178 0 
L 603 0 
L 603 4863 
z
" transform="scale(0.015625)"/>
       <path id="DejaVuSans-73" d="M 2834 3397 
L 2834 2853 
Q 2591 2978 2328 3040 
Q 2066 3103 1784 3103 
Q 1356 3103 1142 2972 
Q 928 2841 928 2578 
Q 928 2378 1081 2264 
Q 1234 2150 1697 2047 
L 1894 2003 
Q 2506 1872 2764 1633 
Q 3022 1394 3022 966 
Q 3022 478 2636 193 
Q 2250 -91 1575 -91 
Q 1294 -91 989 -36 
Q 684 19 347 128 
L 347 722 
Q 666 556 975 473 
Q 1284 391 1588 391 
Q 1994 391 2212 530 
Q 2431 669 2431 922 
Q 2431 1156 2273 1281 
Q 2116 1406 1581 1522 
L 1381 1569 
Q 847 1681 609 1914 
Q 372 2147 372 2553 
Q 372 3047 722 3315 
Q 1072 3584 1716 3584 
Q 2034 3584 2315 3537 
Q 2597 3491 2834 3397 
z
" transform="scale(0.015625)"/>
      </defs>
      <use xlink:href="#DejaVuSans-6c"/>
      <use xlink:href="#DejaVuSans-6f" x="27.783203"/>
      <use xlink:href="#DejaVuSans-73" x="88.964844"/>
      <use xlink:href="#DejaVuSans-73" x="141.064453"/>
     </g>
    </g>
   </g>
   <g id="line2d_29">
    <path d="M 115.363636 307.224287 
L 116.380215 306.909592 
L 117.396794 307.232989 
L 118.413372 307.249376 
L 119.429951 307.423094 
L 120.446529 307.000682 
L 121.463108 307.288787 
L 123.496265 307.253383 
L 124.512844 307.267533 
L 125.529422 306.7986 
L 126.546001 307.172689 
L 128.579158 306.820733 
L 129.595737 307.3345 
L 130.612316 307.226199 
L 131.628894 307.359997 
L 132.645473 307.061818 
L 133.662051 307.171528 
L 136.711787 307.051915 
L 137.728366 307.387921 
L 138.744944 307.014077 
L 140.778102 307.364224 
L 141.79468 306.80901 
L 142.811259 306.814722 
L 143.827837 307.35077 
L 144.844416 307.234616 
L 145.860995 307.318684 
L 146.877573 306.852464 
L 147.894152 307.209505 
L 148.910731 307.10274 
L 149.927309 307.315527 
L 150.943888 307.318604 
L 152.977045 307.01984 
L 153.993624 307.29079 
L 155.010202 307.369837 
L 156.026781 307.205404 
L 157.043359 306.863689 
L 158.059938 307.164537 
L 159.076517 307.24897 
L 160.093095 307.036091 
L 162.126253 307.367639 
L 163.142831 307.161657 
L 164.15941 307.241223 
L 168.225724 307.003484 
L 169.242303 307.204486 
L 171.27546 307.176121 
L 175.341774 307.33153 
L 176.358353 307.143271 
L 177.374932 307.384774 
L 178.39151 307.202827 
L 179.408089 307.345932 
L 180.424668 307.031842 
L 181.441246 307.022525 
L 182.457825 307.413912 
L 187.540718 307.054784 
L 188.557296 307.255853 
L 191.607032 307.216915 
L 192.623611 306.861878 
L 193.640189 307.370624 
L 194.656768 307.144297 
L 197.706504 307.499929 
L 198.723083 307.118386 
L 199.739661 307.367829 
L 200.75624 307.073492 
L 201.772818 307.040804 
L 203.805976 307.404953 
L 204.822554 307.218148 
L 208.888869 307.359337 
L 209.905447 307.060673 
L 211.938604 307.405982 
L 213.971762 306.99376 
L 214.98834 307.22371 
L 217.021498 307.129266 
L 218.038076 306.941855 
L 219.054655 307.335575 
L 220.071233 307.226723 
L 221.087812 307.377339 
L 222.104391 307.365684 
L 223.120969 307.2425 
L 224.137548 307.351149 
L 225.154126 307.123596 
L 226.170705 307.197014 
L 227.187284 307.413518 
L 228.203862 307.294256 
L 229.220441 307.361584 
L 230.237019 307.293502 
L 231.253598 307.338057 
L 233.286755 307.023659 
L 234.303334 307.269483 
L 235.319913 306.641472 
L 236.336491 307.357049 
L 238.369648 307.111657 
L 239.386227 307.337028 
L 241.419384 307.267994 
L 243.452541 307.291928 
L 245.485699 307.261201 
L 246.502277 307.071906 
L 248.535435 307.420253 
L 249.552013 307.423494 
L 250.568592 307.272582 
L 252.601749 307.334863 
L 253.618328 307.389523 
L 254.634906 307.258329 
L 255.651485 307.365146 
L 256.668063 307.088646 
L 260.734378 307.356202 
L 262.767535 307.112199 
L 263.784114 306.748858 
L 264.800692 307.204024 
L 268.867007 307.51096 
L 269.883585 307.147866 
L 271.916743 307.356638 
L 272.933321 307.117267 
L 273.9499 307.332758 
L 274.966478 307.252359 
L 278.016214 307.429942 
L 280.049371 307.197761 
L 283.099107 307.419907 
L 284.115686 307.164788 
L 285.132265 307.373179 
L 286.148843 307.029614 
L 287.165422 306.961423 
L 288.182 307.406894 
L 289.198579 306.886816 
L 290.215158 307.329116 
L 291.231736 307.363654 
L 292.248315 307.098972 
L 293.264893 307.486274 
L 296.314629 307.421515 
L 297.331208 306.744491 
L 298.347786 307.352911 
L 300.380944 307.406291 
L 301.397522 307.352091 
L 302.414101 306.974909 
L 303.43068 307.348481 
L 304.447258 307.572297 
L 306.480415 307.341443 
L 310.54673 307.212136 
L 311.563308 307.399559 
L 312.579887 307.34925 
L 313.596466 307.453666 
L 316.646201 307.100101 
L 317.66278 307.334623 
L 318.679359 307.443922 
L 319.695937 307.339503 
L 320.712516 307.476045 
L 321.729095 307.427568 
L 322.745673 307.507845 
L 323.762252 307.183344 
L 324.77883 307.379108 
L 326.811988 307.480127 
L 329.861723 307.316627 
L 330.878302 307.149038 
L 331.894881 307.403763 
L 334.944617 307.536575 
L 335.961195 307.334206 
L 336.977774 307.528381 
L 337.994352 307.574779 
L 339.010931 307.406905 
L 341.044088 307.35456 
L 342.060667 307.458997 
L 343.077245 307.344727 
L 344.093824 307.434719 
L 345.110403 307.138324 
L 346.126981 307.355136 
L 347.14356 307.333318 
L 348.160138 307.481729 
L 349.176717 307.375902 
L 350.193296 307.437986 
L 351.209874 307.159507 
L 352.226453 307.236063 
L 353.243032 307.430948 
L 354.25961 306.769222 
L 355.276189 307.499635 
L 357.309346 307.417548 
L 358.325925 307.309463 
L 359.342503 307.33479 
L 360.359082 307.113238 
L 361.37566 307.433689 
L 364.425396 307.188803 
L 365.441975 307.440186 
L 366.458553 307.046617 
L 367.475132 307.374954 
L 369.508289 307.485754 
L 370.524868 306.931349 
L 371.541447 307.495846 
L 374.591182 307.247781 
L 375.607761 307.456742 
L 376.62434 307.522316 
L 379.674075 307.270793 
L 381.707233 307.413124 
L 384.756968 307.461309 
L 385.773547 307.229918 
L 386.790126 307.552007 
L 387.806704 306.941988 
L 388.823283 307.345352 
L 390.85644 307.377432 
L 391.873019 307.211339 
L 392.889597 307.338143 
L 394.922755 307.19443 
L 396.955912 307.421716 
L 397.97249 307.495338 
L 398.989069 307.169791 
L 401.022226 307.451975 
L 403.055383 307.372991 
L 404.071962 307.532079 
L 405.088541 307.343225 
L 406.105119 307.288061 
L 407.121698 307.560973 
L 409.154855 307.464685 
L 410.171434 307.574726 
L 412.204591 307.327831 
L 414.237748 307.482053 
L 421.353799 307.377918 
L 422.370377 307.566811 
L 423.386956 307.361136 
L 425.420113 307.537979 
L 426.436692 307.50379 
L 427.45327 307.075858 
L 428.469849 307.182845 
L 429.486427 307.455596 
L 430.503006 307.542828 
L 431.519585 307.331752 
L 432.536163 307.582342 
L 434.56932 307.112453 
L 435.585899 307.557216 
L 436.602478 307.528752 
L 437.619056 307.239348 
L 438.635635 307.16141 
L 439.652214 307.49899 
L 440.668792 307.160833 
L 441.685371 307.422705 
L 442.701949 307.446518 
L 443.718528 307.350107 
L 444.735107 307.414864 
L 445.751685 307.217043 
L 446.768264 307.62672 
L 447.784842 307.341517 
L 449.818 307.545586 
L 450.834578 307.239094 
L 451.851157 307.245059 
L 452.867735 307.488636 
L 455.917471 307.335393 
L 456.93405 307.431237 
L 457.950629 307.288227 
L 462.016943 307.222043 
L 463.033522 307.481788 
L 464.0501 307.583789 
L 465.066679 307.346732 
L 466.083257 307.415976 
L 467.099836 307.623106 
L 468.116415 307.380863 
L 469.132993 307.537533 
L 470.149572 307.415889 
L 472.182729 307.496406 
L 473.199308 307.295909 
L 475.232465 307.418684 
L 477.265622 307.528305 
L 478.282201 307.284045 
L 481.331937 307.304508 
L 482.348515 307.026274 
L 483.365094 307.479759 
L 484.381672 307.006023 
L 485.398251 307.547425 
L 489.464565 307.512742 
L 490.481144 307.609256 
L 491.497723 307.311004 
L 492.514301 307.191483 
L 493.53088 307.297874 
L 494.547459 307.56637 
L 496.580616 307.504135 
L 497.597194 307.634368 
L 498.613773 307.117814 
L 499.630352 307.613643 
L 502.680087 307.550964 
L 504.713245 307.635379 
L 505.729823 307.386172 
L 506.746402 307.278712 
L 507.762981 307.521233 
L 508.779559 307.620805 
L 509.796138 307.315259 
L 511.829295 307.527369 
L 512.845874 307.328914 
L 514.879031 307.531365 
L 515.895609 307.378743 
L 516.912188 307.434999 
L 517.928767 307.267496 
L 518.945345 307.352934 
L 519.961924 307.569223 
L 523.01166 307.563559 
L 524.028238 307.396461 
L 525.044817 307.620578 
L 526.061396 307.453012 
L 527.077974 307.575024 
L 528.094553 307.297939 
L 529.111131 307.379754 
L 530.12771 307.312152 
L 531.144289 307.356639 
L 532.160867 307.560078 
L 533.177446 307.411103 
L 534.194024 307.389817 
L 535.210603 307.481296 
L 536.227182 307.224963 
L 537.24376 307.662859 
L 538.260339 307.085978 
L 540.293496 307.486406 
L 542.326653 307.414232 
L 543.343232 307.552706 
L 544.359811 307.434868 
L 545.376389 307.750443 
L 546.392968 307.548017 
L 547.409546 307.610323 
L 548.426125 307.524587 
L 550.459282 307.649755 
L 551.475861 307.032674 
L 553.509018 307.50684 
L 554.525597 307.368685 
L 559.60849 307.671067 
L 560.625068 307.549542 
L 561.641647 307.561539 
L 562.658226 307.409218 
L 563.674804 307.6377 
L 564.691383 307.685215 
L 565.707961 307.541113 
L 570.790854 307.685293 
L 571.807433 307.51359 
L 573.84059 307.634117 
L 574.857169 307.512073 
L 577.906905 307.491007 
L 578.923483 307.675615 
L 579.940062 307.620425 
L 580.956641 307.422239 
L 581.973219 307.536479 
L 582.989798 307.422069 
L 584.006376 307.61613 
L 585.022955 307.685161 
L 587.056112 307.406008 
L 588.072691 307.768227 
L 591.122427 307.057516 
L 592.139005 307.666779 
L 594.172163 307.46004 
L 595.188741 307.755621 
L 597.221898 307.468522 
L 598.238477 307.57868 
L 599.255056 307.329508 
L 600.271634 307.293161 
L 601.288213 307.711544 
L 602.304791 307.765444 
L 604.337949 307.318305 
L 605.354527 307.275642 
L 606.371106 307.369195 
L 607.387684 307.783704 
L 608.404263 307.8 
L 609.420842 307.698411 
L 610.43742 307.148328 
L 611.453999 307.540514 
L 612.470578 307.450268 
L 614.503735 307.696368 
L 617.553471 307.509272 
L 619.586628 307.560038 
L 620.603206 307.580268 
L 621.619785 307.213495 
L 622.636364 307.681799 
L 622.636364 307.681799 
" clip-path="url(#p3704d82f76)" style="fill: none; stroke: #1f77b4; stroke-width: 1.5; stroke-linecap: square"/>
   </g>
   <g id="line2d_30">
    <path d="M 115.363636 61.449757 
L 120.446529 61.417076 
L 122.479687 61.499023 
L 125.529422 61.507746 
L 127.56258 61.446382 
L 128.579158 61.366021 
L 129.595737 61.451157 
L 134.67863 61.352844 
L 135.695209 61.452996 
L 136.711787 61.352388 
L 137.728366 61.396897 
L 140.778102 61.058814 
L 146.877573 61.198785 
L 148.910731 61.0795 
L 158.059938 61.191226 
L 159.076517 61.070186 
L 162.126253 61.112451 
L 166.192567 60.905178 
L 168.225724 61.030065 
L 170.258881 61.117799 
L 173.308617 60.89082 
L 174.325196 60.789064 
L 175.341774 60.892524 
L 176.358353 60.819417 
L 178.39151 60.903237 
L 181.441246 60.884425 
L 182.457825 60.682079 
L 184.490982 60.591914 
L 185.507561 60.678721 
L 188.557296 60.637081 
L 189.573875 60.757463 
L 192.623611 60.525304 
L 193.640189 60.467989 
L 195.673347 60.581673 
L 196.689925 60.46529 
L 197.706504 60.554678 
L 199.739661 60.510389 
L 200.75624 60.51594 
L 201.772818 60.355503 
L 206.855711 60.455571 
L 207.87229 60.628695 
L 210.922026 60.413931 
L 212.955183 60.309392 
L 214.98834 60.407064 
L 219.054655 60.146087 
L 220.071233 60.186445 
L 221.087812 60.091827 
L 224.137548 60.243119 
L 226.170705 60.264479 
L 230.237019 60.306895 
L 246.502277 60.127056 
L 247.518856 59.951772 
L 250.568592 60.030834 
L 256.668063 59.815412 
L 258.701221 59.786662 
L 260.734378 59.724759 
L 267.850428 59.734274 
L 269.883585 59.677719 
L 273.9499 59.659295 
L 278.016214 59.862485 
L 284.115686 59.517367 
L 286.148843 59.637108 
L 287.165422 59.680959 
L 288.182 59.509876 
L 290.215158 59.545662 
L 291.231736 59.494691 
L 292.248315 59.594557 
L 294.281472 59.55123 
L 302.414101 59.4625 
L 303.43068 59.640179 
L 305.463837 59.548159 
L 307.496994 59.510416 
L 309.530151 59.445408 
L 310.54673 59.493595 
L 312.579887 59.343703 
L 313.596466 59.498943 
L 316.646201 59.42997 
L 317.66278 59.560138 
L 318.679359 59.452596 
L 320.712516 59.438153 
L 322.745673 59.305657 
L 324.77883 59.181209 
L 329.861723 58.899125 
L 335.961195 58.918325 
L 337.994352 58.875352 
L 339.010931 58.939247 
L 340.02751 58.818443 
L 343.077245 58.859442 
L 352.226453 58.78674 
L 354.25961 58.736057 
L 355.276189 58.490214 
L 357.309346 58.665953 
L 360.359082 58.625022 
L 362.392239 58.781662 
L 364.425396 58.554733 
L 366.458553 58.662022 
L 370.524868 58.702987 
L 372.558025 58.764452 
L 374.591182 58.661769 
L 379.674075 58.49838 
L 381.707233 58.51343 
L 390.85644 58.464417 
L 391.873019 58.409009 
L 392.889597 58.517327 
L 393.906176 58.468399 
L 394.922755 58.543648 
L 396.955912 58.377711 
L 397.97249 58.406799 
L 398.989069 58.302968 
L 403.055383 58.421309 
L 405.088541 58.362358 
L 407.121698 58.199121 
L 408.138277 58.311235 
L 414.237748 58.241959 
L 423.386956 58.257751 
L 425.420113 58.092945 
L 430.503006 58.205211 
L 438.635635 57.994142 
L 439.652214 57.906846 
L 440.668792 58.035479 
L 441.685371 58.016582 
L 442.701949 58.16261 
L 443.718528 57.995104 
L 444.735107 58.131211 
L 445.751685 58.123821 
L 446.768264 57.92328 
L 448.801421 57.957783 
L 450.834578 57.80256 
L 452.867735 57.800451 
L 454.900893 57.695811 
L 455.917471 57.828476 
L 457.950629 57.777843 
L 458.967207 57.912093 
L 462.016943 57.684641 
L 468.116415 57.720444 
L 469.132993 57.79242 
L 474.215886 57.48599 
L 475.232465 57.405392 
L 479.298779 57.459045 
L 484.381672 57.435964 
L 486.41483 57.312275 
L 488.447987 57.469658 
L 490.481144 57.340671 
L 491.497723 57.459366 
L 492.514301 57.435897 
L 493.53088 57.537551 
L 498.613773 57.273098 
L 502.680087 57.37509 
L 504.713245 57.229029 
L 506.746402 57.338309 
L 508.779559 57.171697 
L 523.01166 57.226076 
L 525.044817 57.071882 
L 527.077974 57.079357 
L 529.111131 56.936147 
L 530.12771 56.994406 
L 531.144289 56.88629 
L 533.177446 56.914061 
L 534.194024 56.960763 
L 535.210603 56.8926 
L 537.24376 56.952563 
L 539.276917 56.747129 
L 540.293496 56.852934 
L 543.343232 56.76886 
L 545.376389 56.844987 
L 547.409546 56.689629 
L 548.426125 56.798791 
L 550.459282 56.699938 
L 551.475861 56.611394 
L 557.575332 56.765334 
L 560.625068 56.606669 
L 562.658226 56.592817 
L 567.741119 56.5202 
L 574.857169 56.470461 
L 576.890326 56.447127 
L 579.940062 56.473178 
L 581.973219 56.458044 
L 582.989798 56.551683 
L 590.105848 56.367272 
L 592.139005 56.398266 
L 595.188741 56.153756 
L 596.20532 56.267828 
L 599.255056 56.204828 
L 600.271634 56.312607 
L 604.337949 56.113381 
L 605.354527 56.028178 
L 606.371106 55.810714 
L 610.43742 56.046838 
L 616.536892 55.851342 
L 617.553471 55.8 
L 618.570049 55.980362 
L 622.636364 55.897419 
L 622.636364 55.897419 
" clip-path="url(#p3704d82f76)" style="fill: none; stroke: #ff7f0e; stroke-width: 1.5; stroke-linecap: square"/>
   </g>
   <g id="patch_3">
    <path d="M 90 320.4 
L 90 43.2 
" style="fill: none; stroke: #000000; stroke-width: 0.8; stroke-linejoin: miter; stroke-linecap: square"/>
   </g>
   <g id="patch_4">
    <path d="M 648 320.4 
L 648 43.2 
" style="fill: none; stroke: #000000; stroke-width: 0.8; stroke-linejoin: miter; stroke-linecap: square"/>
   </g>
   <g id="patch_5">
    <path d="M 90 320.4 
L 648 320.4 
" style="fill: none; stroke: #000000; stroke-width: 0.8; stroke-linejoin: miter; stroke-linecap: square"/>
   </g>
   <g id="patch_6">
    <path d="M 90 43.2 
L 648 43.2 
" style="fill: none; stroke: #000000; stroke-width: 0.8; stroke-linejoin: miter; stroke-linecap: square"/>
   </g>
   <g id="text_17">
    <!-- model train and validation loss over time -->
    <g transform="translate(245.555625 37.2) scale(0.12 -0.12)">
     <defs>
      <path id="DejaVuSans-6d" d="M 3328 2828 
Q 3544 3216 3844 3400 
Q 4144 3584 4550 3584 
Q 5097 3584 5394 3201 
Q 5691 2819 5691 2113 
L 5691 0 
L 5113 0 
L 5113 2094 
Q 5113 2597 4934 2840 
Q 4756 3084 4391 3084 
Q 3944 3084 3684 2787 
Q 3425 2491 3425 1978 
L 3425 0 
L 2847 0 
L 2847 2094 
Q 2847 2600 2669 2842 
Q 2491 3084 2119 3084 
Q 1678 3084 1418 2786 
Q 1159 2488 1159 1978 
L 1159 0 
L 581 0 
L 581 3500 
L 1159 3500 
L 1159 2956 
Q 1356 3278 1631 3431 
Q 1906 3584 2284 3584 
Q 2666 3584 2933 3390 
Q 3200 3197 3328 2828 
z
" transform="scale(0.015625)"/>
      <path id="DejaVuSans-64" d="M 2906 2969 
L 2906 4863 
L 3481 4863 
L 3481 0 
L 2906 0 
L 2906 525 
Q 2725 213 2448 61 
Q 2172 -91 1784 -91 
Q 1150 -91 751 415 
Q 353 922 353 1747 
Q 353 2572 751 3078 
Q 1150 3584 1784 3584 
Q 2172 3584 2448 3432 
Q 2725 3281 2906 2969 
z
M 947 1747 
Q 947 1113 1208 752 
Q 1469 391 1925 391 
Q 2381 391 2643 752 
Q 2906 1113 2906 1747 
Q 2906 2381 2643 2742 
Q 2381 3103 1925 3103 
Q 1469 3103 1208 2742 
Q 947 2381 947 1747 
z
" transform="scale(0.015625)"/>
      <path id="DejaVuSans-20" transform="scale(0.015625)"/>
      <path id="DejaVuSans-74" d="M 1172 4494 
L 1172 3500 
L 2356 3500 
L 2356 3053 
L 1172 3053 
L 1172 1153 
Q 1172 725 1289 603 
Q 1406 481 1766 481 
L 2356 481 
L 2356 0 
L 1766 0 
Q 1100 0 847 248 
Q 594 497 594 1153 
L 594 3053 
L 172 3053 
L 172 3500 
L 594 3500 
L 594 4494 
L 1172 4494 
z
" transform="scale(0.015625)"/>
      <path id="DejaVuSans-72" d="M 2631 2963 
Q 2534 3019 2420 3045 
Q 2306 3072 2169 3072 
Q 1681 3072 1420 2755 
Q 1159 2438 1159 1844 
L 1159 0 
L 581 0 
L 581 3500 
L 1159 3500 
L 1159 2956 
Q 1341 3275 1631 3429 
Q 1922 3584 2338 3584 
Q 2397 3584 2469 3576 
Q 2541 3569 2628 3553 
L 2631 2963 
z
" transform="scale(0.015625)"/>
      <path id="DejaVuSans-61" d="M 2194 1759 
Q 1497 1759 1228 1600 
Q 959 1441 959 1056 
Q 959 750 1161 570 
Q 1363 391 1709 391 
Q 2188 391 2477 730 
Q 2766 1069 2766 1631 
L 2766 1759 
L 2194 1759 
z
M 3341 1997 
L 3341 0 
L 2766 0 
L 2766 531 
Q 2569 213 2275 61 
Q 1981 -91 1556 -91 
Q 1019 -91 701 211 
Q 384 513 384 1019 
Q 384 1609 779 1909 
Q 1175 2209 1959 2209 
L 2766 2209 
L 2766 2266 
Q 2766 2663 2505 2880 
Q 2244 3097 1772 3097 
Q 1472 3097 1187 3025 
Q 903 2953 641 2809 
L 641 3341 
Q 956 3463 1253 3523 
Q 1550 3584 1831 3584 
Q 2591 3584 2966 3190 
Q 3341 2797 3341 1997 
z
" transform="scale(0.015625)"/>
      <path id="DejaVuSans-69" d="M 603 3500 
L 1178 3500 
L 1178 0 
L 603 0 
L 603 3500 
z
M 603 4863 
L 1178 4863 
L 1178 4134 
L 603 4134 
L 603 4863 
z
" transform="scale(0.015625)"/>
      <path id="DejaVuSans-6e" d="M 3513 2113 
L 3513 0 
L 2938 0 
L 2938 2094 
Q 2938 2591 2744 2837 
Q 2550 3084 2163 3084 
Q 1697 3084 1428 2787 
Q 1159 2491 1159 1978 
L 1159 0 
L 581 0 
L 581 3500 
L 1159 3500 
L 1159 2956 
Q 1366 3272 1645 3428 
Q 1925 3584 2291 3584 
Q 2894 3584 3203 3211 
Q 3513 2838 3513 2113 
z
" transform="scale(0.015625)"/>
      <path id="DejaVuSans-76" d="M 191 3500 
L 800 3500 
L 1894 563 
L 2988 3500 
L 3597 3500 
L 2284 0 
L 1503 0 
L 191 3500 
z
" transform="scale(0.015625)"/>
     </defs>
     <use xlink:href="#DejaVuSans-6d"/>
     <use xlink:href="#DejaVuSans-6f" x="97.412109"/>
     <use xlink:href="#DejaVuSans-64" x="158.59375"/>
     <use xlink:href="#DejaVuSans-65" x="222.070312"/>
     <use xlink:href="#DejaVuSans-6c" x="283.59375"/>
     <use xlink:href="#DejaVuSans-20" x="311.376953"/>
     <use xlink:href="#DejaVuSans-74" x="343.164062"/>
     <use xlink:href="#DejaVuSans-72" x="382.373047"/>
     <use xlink:href="#DejaVuSans-61" x="423.486328"/>
     <use xlink:href="#DejaVuSans-69" x="484.765625"/>
     <use xlink:href="#DejaVuSans-6e" x="512.548828"/>
     <use xlink:href="#DejaVuSans-20" x="575.927734"/>
     <use xlink:href="#DejaVuSans-61" x="607.714844"/>
     <use xlink:href="#DejaVuSans-6e" x="668.994141"/>
     <use xlink:href="#DejaVuSans-64" x="732.373047"/>
     <use xlink:href="#DejaVuSans-20" x="795.849609"/>
     <use xlink:href="#DejaVuSans-76" x="827.636719"/>
     <use xlink:href="#DejaVuSans-61" x="886.816406"/>
     <use xlink:href="#DejaVuSans-6c" x="948.095703"/>
     <use xlink:href="#DejaVuSans-69" x="975.878906"/>
     <use xlink:href="#DejaVuSans-64" x="1003.662109"/>
     <use xlink:href="#DejaVuSans-61" x="1067.138672"/>
     <use xlink:href="#DejaVuSans-74" x="1128.417969"/>
     <use xlink:href="#DejaVuSans-69" x="1167.626953"/>
     <use xlink:href="#DejaVuSans-6f" x="1195.410156"/>
     <use xlink:href="#DejaVuSans-6e" x="1256.591797"/>
     <use xlink:href="#DejaVuSans-20" x="1319.970703"/>
     <use xlink:href="#DejaVuSans-6c" x="1351.757812"/>
     <use xlink:href="#DejaVuSans-6f" x="1379.541016"/>
     <use xlink:href="#DejaVuSans-73" x="1440.722656"/>
     <use xlink:href="#DejaVuSans-73" x="1492.822266"/>
     <use xlink:href="#DejaVuSans-20" x="1544.921875"/>
     <use xlink:href="#DejaVuSans-6f" x="1576.708984"/>
     <use xlink:href="#DejaVuSans-76" x="1637.890625"/>
     <use xlink:href="#DejaVuSans-65" x="1697.070312"/>
     <use xlink:href="#DejaVuSans-72" x="1758.59375"/>
     <use xlink:href="#DejaVuSans-20" x="1799.707031"/>
     <use xlink:href="#DejaVuSans-74" x="1831.494141"/>
     <use xlink:href="#DejaVuSans-69" x="1870.703125"/>
     <use xlink:href="#DejaVuSans-6d" x="1898.486328"/>
     <use xlink:href="#DejaVuSans-65" x="1995.898438"/>
    </g>
   </g>
   <g id="legend_1">
    <g id="patch_7">
     <path d="M 559.765625 197.978125 
L 641 197.978125 
Q 643 197.978125 643 195.978125 
L 643 167.621875 
Q 643 165.621875 641 165.621875 
L 559.765625 165.621875 
Q 557.765625 165.621875 557.765625 167.621875 
L 557.765625 195.978125 
Q 557.765625 197.978125 559.765625 197.978125 
z
" style="fill: #ffffff; opacity: 0.8; stroke: #cccccc; stroke-linejoin: miter"/>
    </g>
    <g id="line2d_31">
     <path d="M 561.765625 173.720312 
L 571.765625 173.720312 
L 581.765625 173.720312 
" style="fill: none; stroke: #1f77b4; stroke-width: 1.5; stroke-linecap: square"/>
    </g>
    <g id="text_18">
     <!-- train -->
     <g transform="translate(589.765625 177.220312) scale(0.1 -0.1)">
      <use xlink:href="#DejaVuSans-74"/>
      <use xlink:href="#DejaVuSans-72" x="39.208984"/>
      <use xlink:href="#DejaVuSans-61" x="80.322266"/>
      <use xlink:href="#DejaVuSans-69" x="141.601562"/>
      <use xlink:href="#DejaVuSans-6e" x="169.384766"/>
     </g>
    </g>
    <g id="line2d_32">
     <path d="M 561.765625 188.398437 
L 571.765625 188.398437 
L 581.765625 188.398437 
" style="fill: none; stroke: #ff7f0e; stroke-width: 1.5; stroke-linecap: square"/>
    </g>
    <g id="text_19">
     <!-- validation -->
     <g transform="translate(589.765625 191.898437) scale(0.1 -0.1)">
      <use xlink:href="#DejaVuSans-76"/>
      <use xlink:href="#DejaVuSans-61" x="59.179688"/>
      <use xlink:href="#DejaVuSans-6c" x="120.458984"/>
      <use xlink:href="#DejaVuSans-69" x="148.242188"/>
      <use xlink:href="#DejaVuSans-64" x="176.025391"/>
      <use xlink:href="#DejaVuSans-61" x="239.501953"/>
      <use xlink:href="#DejaVuSans-74" x="300.78125"/>
      <use xlink:href="#DejaVuSans-69" x="339.990234"/>
      <use xlink:href="#DejaVuSans-6f" x="367.773438"/>
      <use xlink:href="#DejaVuSans-6e" x="428.955078"/>
     </g>
    </g>
   </g>
  </g>
 </g>
 <defs>
  <clipPath id="p3704d82f76">
   <rect x="90" y="43.2" width="558" height="277.2"/>
  </clipPath>
 </defs>
</svg>
