<?xml version="1.0" encoding="utf-8" standalone="no"?>
<!DOCTYPE svg PUBLIC "-//W3C//DTD SVG 1.1//EN"
  "http://www.w3.org/Graphics/SVG/1.1/DTD/svg11.dtd">
<svg xmlns:xlink="http://www.w3.org/1999/xlink" width="720pt" height="360pt" viewBox="0 0 720 360" xmlns="http://www.w3.org/2000/svg" version="1.1">
 <metadata>
  <rdf:RDF xmlns:dc="http://purl.org/dc/elements/1.1/" xmlns:cc="http://creativecommons.org/ns#" xmlns:rdf="http://www.w3.org/1999/02/22-rdf-syntax-ns#">
   <cc:Work>
    <dc:type rdf:resource="http://purl.org/dc/dcmitype/StillImage"/>
    <dc:date>2023-05-24T11:09:58.796973</dc:date>
    <dc:format>image/svg+xml</dc:format>
    <dc:creator>
     <cc:Agent>
      <dc:title>Matplotlib v3.7.1, https://matplotlib.org/</dc:title>
     </cc:Agent>
    </dc:creator>
   </cc:Work>
  </rdf:RDF>
 </metadata>
 <defs>
  <style type="text/css">*{stroke-linejoin: round; stroke-linecap: butt}</style>
 </defs>
 <g id="figure_1">
  <g id="patch_1">
   <path d="M 0 360 
L 720 360 
L 720 0 
L 0 0 
z
" style="fill: #ffffff"/>
  </g>
  <g id="axes_1">
   <g id="patch_2">
    <path d="M 90 320.4 
L 648 320.4 
L 648 43.2 
L 90 43.2 
z
" style="fill: #ffffff"/>
   </g>
   <g id="matplotlib.axis_1">
    <g id="xtick_1">
     <g id="line2d_1">
      <path d="M 115.363636 320.4 
L 115.363636 43.2 
" clip-path="url(#p411b5e8a50)" style="fill: none; stroke: #b0b0b0; stroke-width: 0.8; stroke-linecap: square"/>
     </g>
     <g id="line2d_2">
      <defs>
       <path id="m8843007dc1" d="M 0 0 
L 0 3.5 
" style="stroke: #000000; stroke-width: 0.8"/>
      </defs>
      <g>
       <use xlink:href="#m8843007dc1" x="115.363636" y="320.4" style="stroke: #000000; stroke-width: 0.8"/>
      </g>
     </g>
     <g id="text_1">
      <!-- 0 -->
      <g transform="translate(112.182386 334.998438) scale(0.1 -0.1)">
       <defs>
        <path id="DejaVuSans-30" d="M 2034 4250 
Q 1547 4250 1301 3770 
Q 1056 3291 1056 2328 
Q 1056 1369 1301 889 
Q 1547 409 2034 409 
Q 2525 409 2770 889 
Q 3016 1369 3016 2328 
Q 3016 3291 2770 3770 
Q 2525 4250 2034 4250 
z
M 2034 4750 
Q 2819 4750 3233 4129 
Q 3647 3509 3647 2328 
Q 3647 1150 3233 529 
Q 2819 -91 2034 -91 
Q 1250 -91 836 529 
Q 422 1150 422 2328 
Q 422 3509 836 4129 
Q 1250 4750 2034 4750 
z
" transform="scale(0.015625)"/>
       </defs>
       <use xlink:href="#DejaVuSans-30"/>
      </g>
     </g>
    </g>
    <g id="xtick_2">
     <g id="line2d_3">
      <path d="M 217.021498 320.4 
L 217.021498 43.2 
" clip-path="url(#p411b5e8a50)" style="fill: none; stroke: #b0b0b0; stroke-width: 0.8; stroke-linecap: square"/>
     </g>
     <g id="line2d_4">
      <g>
       <use xlink:href="#m8843007dc1" x="217.021498" y="320.4" style="stroke: #000000; stroke-width: 0.8"/>
      </g>
     </g>
     <g id="text_2">
      <!-- 100 -->
      <g transform="translate(207.477748 334.998438) scale(0.1 -0.1)">
       <defs>
        <path id="DejaVuSans-31" d="M 794 531 
L 1825 531 
L 1825 4091 
L 703 3866 
L 703 4441 
L 1819 4666 
L 2450 4666 
L 2450 531 
L 3481 531 
L 3481 0 
L 794 0 
L 794 531 
z
" transform="scale(0.015625)"/>
       </defs>
       <use xlink:href="#DejaVuSans-31"/>
       <use xlink:href="#DejaVuSans-30" x="63.623047"/>
       <use xlink:href="#DejaVuSans-30" x="127.246094"/>
      </g>
     </g>
    </g>
    <g id="xtick_3">
     <g id="line2d_5">
      <path d="M 318.679359 320.4 
L 318.679359 43.2 
" clip-path="url(#p411b5e8a50)" style="fill: none; stroke: #b0b0b0; stroke-width: 0.8; stroke-linecap: square"/>
     </g>
     <g id="line2d_6">
      <g>
       <use xlink:href="#m8843007dc1" x="318.679359" y="320.4" style="stroke: #000000; stroke-width: 0.8"/>
      </g>
     </g>
     <g id="text_3">
      <!-- 200 -->
      <g transform="translate(309.135609 334.998438) scale(0.1 -0.1)">
       <defs>
        <path id="DejaVuSans-32" d="M 1228 531 
L 3431 531 
L 3431 0 
L 469 0 
L 469 531 
Q 828 903 1448 1529 
Q 2069 2156 2228 2338 
Q 2531 2678 2651 2914 
Q 2772 3150 2772 3378 
Q 2772 3750 2511 3984 
Q 2250 4219 1831 4219 
Q 1534 4219 1204 4116 
Q 875 4013 500 3803 
L 500 4441 
Q 881 4594 1212 4672 
Q 1544 4750 1819 4750 
Q 2544 4750 2975 4387 
Q 3406 4025 3406 3419 
Q 3406 3131 3298 2873 
Q 3191 2616 2906 2266 
Q 2828 2175 2409 1742 
Q 1991 1309 1228 531 
z
" transform="scale(0.015625)"/>
       </defs>
       <use xlink:href="#DejaVuSans-32"/>
       <use xlink:href="#DejaVuSans-30" x="63.623047"/>
       <use xlink:href="#DejaVuSans-30" x="127.246094"/>
      </g>
     </g>
    </g>
    <g id="xtick_4">
     <g id="line2d_7">
      <path d="M 420.33722 320.4 
L 420.33722 43.2 
" clip-path="url(#p411b5e8a50)" style="fill: none; stroke: #b0b0b0; stroke-width: 0.8; stroke-linecap: square"/>
     </g>
     <g id="line2d_8">
      <g>
       <use xlink:href="#m8843007dc1" x="420.33722" y="320.4" style="stroke: #000000; stroke-width: 0.8"/>
      </g>
     </g>
     <g id="text_4">
      <!-- 300 -->
      <g transform="translate(410.79347 334.998438) scale(0.1 -0.1)">
       <defs>
        <path id="DejaVuSans-33" d="M 2597 2516 
Q 3050 2419 3304 2112 
Q 3559 1806 3559 1356 
Q 3559 666 3084 287 
Q 2609 -91 1734 -91 
Q 1441 -91 1130 -33 
Q 819 25 488 141 
L 488 750 
Q 750 597 1062 519 
Q 1375 441 1716 441 
Q 2309 441 2620 675 
Q 2931 909 2931 1356 
Q 2931 1769 2642 2001 
Q 2353 2234 1838 2234 
L 1294 2234 
L 1294 2753 
L 1863 2753 
Q 2328 2753 2575 2939 
Q 2822 3125 2822 3475 
Q 2822 3834 2567 4026 
Q 2313 4219 1838 4219 
Q 1578 4219 1281 4162 
Q 984 4106 628 3988 
L 628 4550 
Q 988 4650 1302 4700 
Q 1616 4750 1894 4750 
Q 2613 4750 3031 4423 
Q 3450 4097 3450 3541 
Q 3450 3153 3228 2886 
Q 3006 2619 2597 2516 
z
" transform="scale(0.015625)"/>
       </defs>
       <use xlink:href="#DejaVuSans-33"/>
       <use xlink:href="#DejaVuSans-30" x="63.623047"/>
       <use xlink:href="#DejaVuSans-30" x="127.246094"/>
      </g>
     </g>
    </g>
    <g id="xtick_5">
     <g id="line2d_9">
      <path d="M 521.995081 320.4 
L 521.995081 43.2 
" clip-path="url(#p411b5e8a50)" style="fill: none; stroke: #b0b0b0; stroke-width: 0.8; stroke-linecap: square"/>
     </g>
     <g id="line2d_10">
      <g>
       <use xlink:href="#m8843007dc1" x="521.995081" y="320.4" style="stroke: #000000; stroke-width: 0.8"/>
      </g>
     </g>
     <g id="text_5">
      <!-- 400 -->
      <g transform="translate(512.451331 334.998438) scale(0.1 -0.1)">
       <defs>
        <path id="DejaVuSans-34" d="M 2419 4116 
L 825 1625 
L 2419 1625 
L 2419 4116 
z
M 2253 4666 
L 3047 4666 
L 3047 1625 
L 3713 1625 
L 3713 1100 
L 3047 1100 
L 3047 0 
L 2419 0 
L 2419 1100 
L 313 1100 
L 313 1709 
L 2253 4666 
z
" transform="scale(0.015625)"/>
       </defs>
       <use xlink:href="#DejaVuSans-34"/>
       <use xlink:href="#DejaVuSans-30" x="63.623047"/>
       <use xlink:href="#DejaVuSans-30" x="127.246094"/>
      </g>
     </g>
    </g>
    <g id="xtick_6">
     <g id="line2d_11">
      <path d="M 623.652942 320.4 
L 623.652942 43.2 
" clip-path="url(#p411b5e8a50)" style="fill: none; stroke: #b0b0b0; stroke-width: 0.8; stroke-linecap: square"/>
     </g>
     <g id="line2d_12">
      <g>
       <use xlink:href="#m8843007dc1" x="623.652942" y="320.4" style="stroke: #000000; stroke-width: 0.8"/>
      </g>
     </g>
     <g id="text_6">
      <!-- 500 -->
      <g transform="translate(614.109192 334.998438) scale(0.1 -0.1)">
       <defs>
        <path id="DejaVuSans-35" d="M 691 4666 
L 3169 4666 
L 3169 4134 
L 1269 4134 
L 1269 2991 
Q 1406 3038 1543 3061 
Q 1681 3084 1819 3084 
Q 2600 3084 3056 2656 
Q 3513 2228 3513 1497 
Q 3513 744 3044 326 
Q 2575 -91 1722 -91 
Q 1428 -91 1123 -41 
Q 819 9 494 109 
L 494 744 
Q 775 591 1075 516 
Q 1375 441 1709 441 
Q 2250 441 2565 725 
Q 2881 1009 2881 1497 
Q 2881 1984 2565 2268 
Q 2250 2553 1709 2553 
Q 1456 2553 1204 2497 
Q 953 2441 691 2322 
L 691 4666 
z
" transform="scale(0.015625)"/>
       </defs>
       <use xlink:href="#DejaVuSans-35"/>
       <use xlink:href="#DejaVuSans-30" x="63.623047"/>
       <use xlink:href="#DejaVuSans-30" x="127.246094"/>
      </g>
     </g>
    </g>
    <g id="text_7">
     <!-- epoch -->
     <g transform="translate(353.771875 348.676562) scale(0.1 -0.1)">
      <defs>
       <path id="DejaVuSans-65" d="M 3597 1894 
L 3597 1613 
L 953 1613 
Q 991 1019 1311 708 
Q 1631 397 2203 397 
Q 2534 397 2845 478 
Q 3156 559 3463 722 
L 3463 178 
Q 3153 47 2828 -22 
Q 2503 -91 2169 -91 
Q 1331 -91 842 396 
Q 353 884 353 1716 
Q 353 2575 817 3079 
Q 1281 3584 2069 3584 
Q 2775 3584 3186 3129 
Q 3597 2675 3597 1894 
z
M 3022 2063 
Q 3016 2534 2758 2815 
Q 2500 3097 2075 3097 
Q 1594 3097 1305 2825 
Q 1016 2553 972 2059 
L 3022 2063 
z
" transform="scale(0.015625)"/>
       <path id="DejaVuSans-70" d="M 1159 525 
L 1159 -1331 
L 581 -1331 
L 581 3500 
L 1159 3500 
L 1159 2969 
Q 1341 3281 1617 3432 
Q 1894 3584 2278 3584 
Q 2916 3584 3314 3078 
Q 3713 2572 3713 1747 
Q 3713 922 3314 415 
Q 2916 -91 2278 -91 
Q 1894 -91 1617 61 
Q 1341 213 1159 525 
z
M 3116 1747 
Q 3116 2381 2855 2742 
Q 2594 3103 2138 3103 
Q 1681 3103 1420 2742 
Q 1159 2381 1159 1747 
Q 1159 1113 1420 752 
Q 1681 391 2138 391 
Q 2594 391 2855 752 
Q 3116 1113 3116 1747 
z
" transform="scale(0.015625)"/>
       <path id="DejaVuSans-6f" d="M 1959 3097 
Q 1497 3097 1228 2736 
Q 959 2375 959 1747 
Q 959 1119 1226 758 
Q 1494 397 1959 397 
Q 2419 397 2687 759 
Q 2956 1122 2956 1747 
Q 2956 2369 2687 2733 
Q 2419 3097 1959 3097 
z
M 1959 3584 
Q 2709 3584 3137 3096 
Q 3566 2609 3566 1747 
Q 3566 888 3137 398 
Q 2709 -91 1959 -91 
Q 1206 -91 779 398 
Q 353 888 353 1747 
Q 353 2609 779 3096 
Q 1206 3584 1959 3584 
z
" transform="scale(0.015625)"/>
       <path id="DejaVuSans-63" d="M 3122 3366 
L 3122 2828 
Q 2878 2963 2633 3030 
Q 2388 3097 2138 3097 
Q 1578 3097 1268 2742 
Q 959 2388 959 1747 
Q 959 1106 1268 751 
Q 1578 397 2138 397 
Q 2388 397 2633 464 
Q 2878 531 3122 666 
L 3122 134 
Q 2881 22 2623 -34 
Q 2366 -91 2075 -91 
Q 1284 -91 818 406 
Q 353 903 353 1747 
Q 353 2603 823 3093 
Q 1294 3584 2113 3584 
Q 2378 3584 2631 3529 
Q 2884 3475 3122 3366 
z
" transform="scale(0.015625)"/>
       <path id="DejaVuSans-68" d="M 3513 2113 
L 3513 0 
L 2938 0 
L 2938 2094 
Q 2938 2591 2744 2837 
Q 2550 3084 2163 3084 
Q 1697 3084 1428 2787 
Q 1159 2491 1159 1978 
L 1159 0 
L 581 0 
L 581 4863 
L 1159 4863 
L 1159 2956 
Q 1366 3272 1645 3428 
Q 1925 3584 2291 3584 
Q 2894 3584 3203 3211 
Q 3513 2838 3513 2113 
z
" transform="scale(0.015625)"/>
      </defs>
      <use xlink:href="#DejaVuSans-65"/>
      <use xlink:href="#DejaVuSans-70" x="61.523438"/>
      <use xlink:href="#DejaVuSans-6f" x="125"/>
      <use xlink:href="#DejaVuSans-63" x="186.181641"/>
      <use xlink:href="#DejaVuSans-68" x="241.162109"/>
     </g>
    </g>
   </g>
   <g id="matplotlib.axis_2">
    <g id="ytick_1">
     <g id="line2d_13">
      <path d="M 90 291.220137 
L 648 291.220137 
" clip-path="url(#p411b5e8a50)" style="fill: none; stroke: #b0b0b0; stroke-width: 0.8; stroke-linecap: square"/>
     </g>
     <g id="line2d_14">
      <defs>
       <path id="m2e124a67a5" d="M 0 0 
L -3.5 0 
" style="stroke: #000000; stroke-width: 0.8"/>
      </defs>
      <g>
       <use xlink:href="#m2e124a67a5" x="90" y="291.220137" style="stroke: #000000; stroke-width: 0.8"/>
      </g>
     </g>
     <g id="text_8">
      <!-- 0.4 -->
      <g transform="translate(67.096875 295.019355) scale(0.1 -0.1)">
       <defs>
        <path id="DejaVuSans-2e" d="M 684 794 
L 1344 794 
L 1344 0 
L 684 0 
L 684 794 
z
" transform="scale(0.015625)"/>
       </defs>
       <use xlink:href="#DejaVuSans-30"/>
       <use xlink:href="#DejaVuSans-2e" x="63.623047"/>
       <use xlink:href="#DejaVuSans-34" x="95.410156"/>
      </g>
     </g>
    </g>
    <g id="ytick_2">
     <g id="line2d_15">
      <path d="M 90 245.733385 
L 648 245.733385 
" clip-path="url(#p411b5e8a50)" style="fill: none; stroke: #b0b0b0; stroke-width: 0.8; stroke-linecap: square"/>
     </g>
     <g id="line2d_16">
      <g>
       <use xlink:href="#m2e124a67a5" x="90" y="245.733385" style="stroke: #000000; stroke-width: 0.8"/>
      </g>
     </g>
     <g id="text_9">
      <!-- 0.5 -->
      <g transform="translate(67.096875 249.532604) scale(0.1 -0.1)">
       <use xlink:href="#DejaVuSans-30"/>
       <use xlink:href="#DejaVuSans-2e" x="63.623047"/>
       <use xlink:href="#DejaVuSans-35" x="95.410156"/>
      </g>
     </g>
    </g>
    <g id="ytick_3">
     <g id="line2d_17">
      <path d="M 90 200.246634 
L 648 200.246634 
" clip-path="url(#p411b5e8a50)" style="fill: none; stroke: #b0b0b0; stroke-width: 0.8; stroke-linecap: square"/>
     </g>
     <g id="line2d_18">
      <g>
       <use xlink:href="#m2e124a67a5" x="90" y="200.246634" style="stroke: #000000; stroke-width: 0.8"/>
      </g>
     </g>
     <g id="text_10">
      <!-- 0.6 -->
      <g transform="translate(67.096875 204.045853) scale(0.1 -0.1)">
       <defs>
        <path id="DejaVuSans-36" d="M 2113 2584 
Q 1688 2584 1439 2293 
Q 1191 2003 1191 1497 
Q 1191 994 1439 701 
Q 1688 409 2113 409 
Q 2538 409 2786 701 
Q 3034 994 3034 1497 
Q 3034 2003 2786 2293 
Q 2538 2584 2113 2584 
z
M 3366 4563 
L 3366 3988 
Q 3128 4100 2886 4159 
Q 2644 4219 2406 4219 
Q 1781 4219 1451 3797 
Q 1122 3375 1075 2522 
Q 1259 2794 1537 2939 
Q 1816 3084 2150 3084 
Q 2853 3084 3261 2657 
Q 3669 2231 3669 1497 
Q 3669 778 3244 343 
Q 2819 -91 2113 -91 
Q 1303 -91 875 529 
Q 447 1150 447 2328 
Q 447 3434 972 4092 
Q 1497 4750 2381 4750 
Q 2619 4750 2861 4703 
Q 3103 4656 3366 4563 
z
" transform="scale(0.015625)"/>
       </defs>
       <use xlink:href="#DejaVuSans-30"/>
       <use xlink:href="#DejaVuSans-2e" x="63.623047"/>
       <use xlink:href="#DejaVuSans-36" x="95.410156"/>
      </g>
     </g>
    </g>
    <g id="ytick_4">
     <g id="line2d_19">
      <path d="M 90 154.759883 
L 648 154.759883 
" clip-path="url(#p411b5e8a50)" style="fill: none; stroke: #b0b0b0; stroke-width: 0.8; stroke-linecap: square"/>
     </g>
     <g id="line2d_20">
      <g>
       <use xlink:href="#m2e124a67a5" x="90" y="154.759883" style="stroke: #000000; stroke-width: 0.8"/>
      </g>
     </g>
     <g id="text_11">
      <!-- 0.7 -->
      <g transform="translate(67.096875 158.559102) scale(0.1 -0.1)">
       <defs>
        <path id="DejaVuSans-37" d="M 525 4666 
L 3525 4666 
L 3525 4397 
L 1831 0 
L 1172 0 
L 2766 4134 
L 525 4134 
L 525 4666 
z
" transform="scale(0.015625)"/>
       </defs>
       <use xlink:href="#DejaVuSans-30"/>
       <use xlink:href="#DejaVuSans-2e" x="63.623047"/>
       <use xlink:href="#DejaVuSans-37" x="95.410156"/>
      </g>
     </g>
    </g>
    <g id="ytick_5">
     <g id="line2d_21">
      <path d="M 90 109.273132 
L 648 109.273132 
" clip-path="url(#p411b5e8a50)" style="fill: none; stroke: #b0b0b0; stroke-width: 0.8; stroke-linecap: square"/>
     </g>
     <g id="line2d_22">
      <g>
       <use xlink:href="#m2e124a67a5" x="90" y="109.273132" style="stroke: #000000; stroke-width: 0.8"/>
      </g>
     </g>
     <g id="text_12">
      <!-- 0.8 -->
      <g transform="translate(67.096875 113.072351) scale(0.1 -0.1)">
       <defs>
        <path id="DejaVuSans-38" d="M 2034 2216 
Q 1584 2216 1326 1975 
Q 1069 1734 1069 1313 
Q 1069 891 1326 650 
Q 1584 409 2034 409 
Q 2484 409 2743 651 
Q 3003 894 3003 1313 
Q 3003 1734 2745 1975 
Q 2488 2216 2034 2216 
z
M 1403 2484 
Q 997 2584 770 2862 
Q 544 3141 544 3541 
Q 544 4100 942 4425 
Q 1341 4750 2034 4750 
Q 2731 4750 3128 4425 
Q 3525 4100 3525 3541 
Q 3525 3141 3298 2862 
Q 3072 2584 2669 2484 
Q 3125 2378 3379 2068 
Q 3634 1759 3634 1313 
Q 3634 634 3220 271 
Q 2806 -91 2034 -91 
Q 1263 -91 848 271 
Q 434 634 434 1313 
Q 434 1759 690 2068 
Q 947 2378 1403 2484 
z
M 1172 3481 
Q 1172 3119 1398 2916 
Q 1625 2713 2034 2713 
Q 2441 2713 2670 2916 
Q 2900 3119 2900 3481 
Q 2900 3844 2670 4047 
Q 2441 4250 2034 4250 
Q 1625 4250 1398 4047 
Q 1172 3844 1172 3481 
z
" transform="scale(0.015625)"/>
       </defs>
       <use xlink:href="#DejaVuSans-30"/>
       <use xlink:href="#DejaVuSans-2e" x="63.623047"/>
       <use xlink:href="#DejaVuSans-38" x="95.410156"/>
      </g>
     </g>
    </g>
    <g id="ytick_6">
     <g id="line2d_23">
      <path d="M 90 63.786381 
L 648 63.786381 
" clip-path="url(#p411b5e8a50)" style="fill: none; stroke: #b0b0b0; stroke-width: 0.8; stroke-linecap: square"/>
     </g>
     <g id="line2d_24">
      <g>
       <use xlink:href="#m2e124a67a5" x="90" y="63.786381" style="stroke: #000000; stroke-width: 0.8"/>
      </g>
     </g>
     <g id="text_13">
      <!-- 0.9 -->
      <g transform="translate(67.096875 67.585599) scale(0.1 -0.1)">
       <defs>
        <path id="DejaVuSans-39" d="M 703 97 
L 703 672 
Q 941 559 1184 500 
Q 1428 441 1663 441 
Q 2288 441 2617 861 
Q 2947 1281 2994 2138 
Q 2813 1869 2534 1725 
Q 2256 1581 1919 1581 
Q 1219 1581 811 2004 
Q 403 2428 403 3163 
Q 403 3881 828 4315 
Q 1253 4750 1959 4750 
Q 2769 4750 3195 4129 
Q 3622 3509 3622 2328 
Q 3622 1225 3098 567 
Q 2575 -91 1691 -91 
Q 1453 -91 1209 -44 
Q 966 3 703 97 
z
M 1959 2075 
Q 2384 2075 2632 2365 
Q 2881 2656 2881 3163 
Q 2881 3666 2632 3958 
Q 2384 4250 1959 4250 
Q 1534 4250 1286 3958 
Q 1038 3666 1038 3163 
Q 1038 2656 1286 2365 
Q 1534 2075 1959 2075 
z
" transform="scale(0.015625)"/>
       </defs>
       <use xlink:href="#DejaVuSans-30"/>
       <use xlink:href="#DejaVuSans-2e" x="63.623047"/>
       <use xlink:href="#DejaVuSans-39" x="95.410156"/>
      </g>
     </g>
    </g>
    <g id="text_14">
     <!-- accruacy -->
     <g transform="translate(61.017187 204.359375) rotate(-90) scale(0.1 -0.1)">
      <defs>
       <path id="DejaVuSans-61" d="M 2194 1759 
Q 1497 1759 1228 1600 
Q 959 1441 959 1056 
Q 959 750 1161 570 
Q 1363 391 1709 391 
Q 2188 391 2477 730 
Q 2766 1069 2766 1631 
L 2766 1759 
L 2194 1759 
z
M 3341 1997 
L 3341 0 
L 2766 0 
L 2766 531 
Q 2569 213 2275 61 
Q 1981 -91 1556 -91 
Q 1019 -91 701 211 
Q 384 513 384 1019 
Q 384 1609 779 1909 
Q 1175 2209 1959 2209 
L 2766 2209 
L 2766 2266 
Q 2766 2663 2505 2880 
Q 2244 3097 1772 3097 
Q 1472 3097 1187 3025 
Q 903 2953 641 2809 
L 641 3341 
Q 956 3463 1253 3523 
Q 1550 3584 1831 3584 
Q 2591 3584 2966 3190 
Q 3341 2797 3341 1997 
z
" transform="scale(0.015625)"/>
       <path id="DejaVuSans-72" d="M 2631 2963 
Q 2534 3019 2420 3045 
Q 2306 3072 2169 3072 
Q 1681 3072 1420 2755 
Q 1159 2438 1159 1844 
L 1159 0 
L 581 0 
L 581 3500 
L 1159 3500 
L 1159 2956 
Q 1341 3275 1631 3429 
Q 1922 3584 2338 3584 
Q 2397 3584 2469 3576 
Q 2541 3569 2628 3553 
L 2631 2963 
z
" transform="scale(0.015625)"/>
       <path id="DejaVuSans-75" d="M 544 1381 
L 544 3500 
L 1119 3500 
L 1119 1403 
Q 1119 906 1312 657 
Q 1506 409 1894 409 
Q 2359 409 2629 706 
Q 2900 1003 2900 1516 
L 2900 3500 
L 3475 3500 
L 3475 0 
L 2900 0 
L 2900 538 
Q 2691 219 2414 64 
Q 2138 -91 1772 -91 
Q 1169 -91 856 284 
Q 544 659 544 1381 
z
M 1991 3584 
L 1991 3584 
z
" transform="scale(0.015625)"/>
       <path id="DejaVuSans-79" d="M 2059 -325 
Q 1816 -950 1584 -1140 
Q 1353 -1331 966 -1331 
L 506 -1331 
L 506 -850 
L 844 -850 
Q 1081 -850 1212 -737 
Q 1344 -625 1503 -206 
L 1606 56 
L 191 3500 
L 800 3500 
L 1894 763 
L 2988 3500 
L 3597 3500 
L 2059 -325 
z
" transform="scale(0.015625)"/>
      </defs>
      <use xlink:href="#DejaVuSans-61"/>
      <use xlink:href="#DejaVuSans-63" x="61.279297"/>
      <use xlink:href="#DejaVuSans-63" x="116.259766"/>
      <use xlink:href="#DejaVuSans-72" x="171.240234"/>
      <use xlink:href="#DejaVuSans-75" x="212.353516"/>
      <use xlink:href="#DejaVuSans-61" x="275.732422"/>
      <use xlink:href="#DejaVuSans-63" x="337.011719"/>
      <use xlink:href="#DejaVuSans-79" x="391.992188"/>
     </g>
    </g>
   </g>
   <g id="line2d_25">
    <path d="M 115.363636 307.8 
L 116.380215 298.951847 
L 117.396794 299.922979 
L 118.413372 301.541552 
L 119.429951 302.131432 
L 120.446529 259.365313 
L 121.463108 271.889422 
L 122.479687 229.044162 
L 123.496265 214.944644 
L 125.529422 191.083399 
L 126.546001 188.551227 
L 127.56258 207.707851 
L 128.579158 184.695463 
L 129.595737 180.098722 
L 130.612316 177.04144 
L 131.628894 177.127765 
L 132.645473 172.444699 
L 133.662051 160.093241 
L 134.67863 150.986112 
L 135.695209 146.461327 
L 136.711787 139.526646 
L 137.728366 136.606036 
L 138.744944 136.059318 
L 139.761523 130.72884 
L 140.778102 127.139209 
L 141.79468 126.355097 
L 142.811259 124.866067 
L 143.827837 125.599805 
L 144.844416 118.715498 
L 145.860995 117.931358 
L 146.877573 118.154384 
L 147.894152 114.241033 
L 148.910731 114.960402 
L 149.927309 114.018035 
L 150.943888 111.953467 
L 151.960466 111.435543 
L 152.977045 107.752402 
L 153.993624 110.277336 
L 155.010202 109.658716 
L 156.026781 110.068761 
L 157.043359 108.601259 
L 158.059938 103.990121 
L 159.076517 102.285224 
L 160.093095 106.212943 
L 161.109674 103.429007 
L 162.126253 104.551236 
L 163.142831 98.235228 
L 164.15941 98.69562 
L 165.175988 102.62334 
L 166.192567 103.119683 
L 167.209146 101.457976 
L 168.225724 100.760189 
L 169.242303 96.271354 
L 170.258881 97.774835 
L 171.27546 99.033737 
L 172.292039 99.443782 
L 173.308617 97.091445 
L 174.325196 93.897463 
L 175.341774 97.70288 
L 176.358353 96.746144 
L 177.374932 94.034136 
L 178.39151 92.595399 
L 179.408089 96.213822 
L 180.424668 100.285399 
L 182.457825 93.501814 
L 183.474403 93.070215 
L 184.490982 92.969466 
L 185.507561 102.040671 
L 186.524139 94.681575 
L 188.557296 87.811638 
L 189.573875 91.724988 
L 190.590454 90.307833 
L 191.607032 88.631728 
L 192.623611 88.617332 
L 193.640189 91.912008 
L 194.656768 89.811489 
L 195.673347 90.732247 
L 196.689925 89.624442 
L 197.706504 86.308184 
L 198.723083 87.948338 
L 199.739661 95.314619 
L 200.75624 89.725164 
L 201.772818 90.509249 
L 202.789397 92.135033 
L 203.805976 88.171336 
L 204.822554 87.351245 
L 205.839133 84.193269 
L 206.855711 86.157115 
L 207.87229 84.617683 
L 208.888869 85.214749 
L 209.905447 87.26492 
L 210.922026 87.710943 
L 211.938604 89.962531 
L 212.955183 87.725313 
L 213.971762 90.473326 
L 214.98834 87.574271 
L 216.004919 87.948338 
L 217.021498 86.682252 
L 218.038076 84.430636 
L 219.054655 85.437747 
L 220.071233 85.214749 
L 221.087812 82.79051 
L 222.104391 81.423702 
L 223.120969 82.876835 
L 224.137548 84.668031 
L 225.154126 87.056346 
L 226.170705 82.776113 
L 227.187284 82.279743 
L 228.203862 83.366021 
L 229.220441 81.984816 
L 230.237019 81.287029 
L 231.253598 82.581881 
L 232.270177 83.164577 
L 233.286755 80.977706 
L 234.303334 82.416443 
L 235.319913 84.157291 
L 236.336491 84.056569 
L 237.35307 82.876835 
L 238.369648 82.768956 
L 240.402806 81.661096 
L 241.419384 85.128423 
L 242.435963 84.30836 
L 243.452541 83.646551 
L 244.46912 81.287029 
L 245.485699 83.66092 
L 246.502277 79.956226 
L 247.518856 81.524423 
L 248.535435 80.862614 
L 249.552013 80.89138 
L 250.568592 82.891205 
L 251.58517 80.466966 
L 252.601749 81.761791 
L 253.618328 79.646875 
L 254.634906 78.143422 
L 255.651485 77.819702 
L 256.668063 79.459855 
L 257.684642 83.970244 
L 258.701221 79.064207 
L 259.717799 77.769354 
L 260.734378 79.69725 
L 261.750956 75.496158 
L 262.767535 77.697399 
L 263.784114 77.560726 
L 264.800692 76.416943 
L 265.817271 73.345264 
L 266.83385 73.582659 
L 268.867007 80.56766 
L 269.883585 82.294139 
L 270.900164 83.696898 
L 271.916743 76.452921 
L 272.933321 77.438477 
L 273.9499 76.589593 
L 274.966478 78.36642 
L 275.983057 76.402573 
L 276.999636 80.193593 
L 278.016214 78.86279 
L 279.032793 84.516961 
L 280.049371 81.100009 
L 281.06595 80.279919 
L 282.082529 76.46729 
L 283.099107 75.76953 
L 284.115686 76.10762 
L 285.132265 75.323507 
L 286.148843 77.272984 
L 287.165422 74.539422 
L 288.182 78.690139 
L 289.198579 75.409832 
L 290.215158 80.344662 
L 291.231736 76.229923 
L 292.248315 76.690288 
L 293.264893 78.143422 
L 294.281472 86.034812 
L 295.298051 80.927358 
L 296.314629 79.848292 
L 297.331208 77.395287 
L 298.347786 75.409832 
L 299.364365 75.992528 
L 300.380944 76.28027 
L 301.397522 72.525201 
L 302.414101 75.071743 
L 303.43068 73.395612 
L 304.447258 71.482113 
L 305.463837 72.913638 
L 306.480415 74.676094 
L 307.496994 78.567836 
L 308.513573 77.064355 
L 309.530151 74.179724 
L 310.54673 70.798722 
L 311.563308 73.309286 
L 312.579887 78.517489 
L 313.596466 78.913137 
L 314.613044 75.27316 
L 315.629623 76.826988 
L 316.646201 76.913313 
L 318.679359 72.726618 
L 319.695937 74.640117 
L 320.712516 72.53957 
L 321.729095 71.496509 
L 322.745673 73.784075 
L 323.762252 72.762596 
L 324.77883 71.920924 
L 325.795409 71.633182 
L 326.811988 72.87766 
L 327.828566 77.711822 
L 328.845145 99.414989 
L 329.861723 81.100009 
L 330.878302 81.524423 
L 331.894881 79.387899 
L 332.911459 74.999787 
L 333.928038 72.028831 
L 334.944617 73.410008 
L 335.961195 71.259115 
L 336.977774 72.899268 
L 337.994352 70.216026 
L 339.010931 70.352726 
L 340.02751 69.482289 
L 341.044088 67.791788 
L 342.060667 71.273484 
L 343.077245 68.475178 
L 344.093824 70.985769 
L 345.110403 71.769855 
L 346.126981 72.812943 
L 347.14356 74.194121 
L 348.160138 68.899593 
L 349.176717 68.4392 
L 350.193296 70.439052 
L 351.209874 69.806008 
L 352.226453 72.093575 
L 353.243032 70.949791 
L 354.25961 68.834876 
L 355.276189 67.24507 
L 356.292767 70.949791 
L 357.309346 70.762744 
L 358.325925 68.885223 
L 359.342503 73.05031 
L 360.359082 69.345616 
L 361.37566 72.36692 
L 362.392239 70.453421 
L 363.408818 71.309462 
L 364.425396 71.85618 
L 365.441975 67.209092 
L 366.458553 68.165855 
L 367.475132 66.525701 
L 368.491711 69.942681 
L 369.508289 68.949967 
L 370.524868 69.755634 
L 371.541447 67.381742 
L 372.558025 67.05805 
L 373.574604 67.691093 
L 374.591182 65.209268 
L 375.607761 68.201833 
L 376.62434 68.76292 
L 377.640918 70.640468 
L 378.657497 69.705286 
L 379.674075 67.24507 
L 380.690654 65.432266 
L 381.707233 68.985918 
L 382.723811 65.741616 
L 383.74039 66.748699 
L 384.756968 66.971724 
L 385.773547 67.892482 
L 386.790126 64.425155 
L 387.806704 66.612027 
L 388.823283 66.166031 
L 389.839862 69.172965 
L 390.85644 66.525701 
L 391.873019 71.050486 
L 392.889597 71.618785 
L 393.906176 66.597657 
L 394.922755 66.849421 
L 395.939333 67.583159 
L 396.955912 64.561855 
L 397.97249 65.108573 
L 398.989069 67.892482 
L 400.005648 67.158744 
L 401.022226 74.863115 
L 402.038805 74.079029 
L 403.055383 70.439052 
L 404.071962 70.439052 
L 405.088541 68.029182 
L 406.105119 63.691417 
L 407.121698 62.684307 
L 408.138277 63.96479 
L 409.154855 64.101462 
L 410.171434 64.051115 
L 411.188012 62.410962 
L 412.204591 63.094352 
L 413.22117 62.000916 
L 414.237748 64.576224 
L 415.254327 60.396741 
L 416.270905 65.396315 
L 418.304063 62.238311 
L 419.320641 66.094102 
L 420.33722 64.32446 
L 421.353799 65.741616 
L 422.370377 69.633358 
L 423.386956 74.748023 
L 424.403534 68.921201 
L 425.420113 71.992853 
L 426.436692 69.482289 
L 427.45327 69.928284 
L 428.469849 65.655291 
L 429.486427 66.662374 
L 430.503006 61.914591 
L 431.519585 65.022248 
L 432.536163 65.144524 
L 433.552742 70.352726 
L 434.56932 70.676419 
L 435.585899 72.589945 
L 436.602478 66.612027 
L 437.619056 68.201833 
L 438.635635 67.345792 
L 439.652214 65.381918 
L 440.668792 67.633506 
L 441.685371 66.561679 
L 442.701949 71.086464 
L 443.718528 67.842135 
L 444.735107 67.036441 
L 445.751685 67.993204 
L 446.768264 71.683529 
L 447.784842 64.921526 
L 448.801421 61.231201 
L 449.818 62.461309 
L 450.834578 63.367697 
L 451.851157 70.439052 
L 452.867735 74.280446 
L 453.884314 76.042876 
L 454.900893 69.122618 
L 457.950629 62.360614 
L 458.967207 64.389204 
L 459.983786 64.33883 
L 461.000364 62.461309 
L 462.016943 87.689389 
L 463.033522 122.067707 
L 464.0501 99.515684 
L 465.066679 87.58864 
L 466.083257 81.920072 
L 467.099836 75.27316 
L 468.116415 73.410008 
L 469.132993 73.151032 
L 470.149572 70.252004 
L 471.16615 70.216026 
L 472.182729 68.913989 
L 473.199308 66.698352 
L 474.215886 65.259615 
L 475.232465 67.259466 
L 476.249044 63.418072 
L 477.265622 65.30999 
L 478.282201 62.734654 
L 480.315358 65.48264 
L 481.331937 65.640894 
L 482.348515 67.619137 
L 483.365094 66.266725 
L 484.381672 62.785029 
L 485.398251 64.684131 
L 486.41483 63.569114 
L 487.431408 65.604916 
L 488.447987 65.295593 
L 489.464565 64.748875 
L 492.514301 61.418221 
L 493.53088 62.835376 
L 495.564037 63.96479 
L 496.580616 68.5759 
L 497.597194 67.072419 
L 498.613773 65.072595 
L 499.630352 64.32446 
L 500.64693 67.892482 
L 501.663509 73.683354 
L 502.680087 66.698352 
L 503.696666 64.15181 
L 504.713245 60.101787 
L 505.729823 60.921877 
L 506.746402 63.094352 
L 507.762981 63.792139 
L 508.779559 66.612027 
L 509.796138 71.53246 
L 510.812716 66.612027 
L 511.829295 63.691417 
L 512.845874 62.785029 
L 513.862452 63.792139 
L 514.879031 62.684307 
L 515.895609 60.907481 
L 516.912188 63.295769 
L 517.928767 60.087417 
L 518.945345 58.806962 
L 519.961924 60.001092 
L 520.978502 58.720636 
L 521.995081 59.454374 
L 523.01166 59.008351 
L 524.028238 59.641394 
L 525.044817 61.705963 
L 526.061396 69.784454 
L 527.077974 65.655291 
L 528.094553 64.871178 
L 529.111131 82.97753 
L 530.12771 73.884824 
L 531.144289 68.712573 
L 532.160867 68.129877 
L 533.177446 64.612202 
L 534.194024 65.34594 
L 535.210603 64.540247 
L 536.227182 62.921701 
L 537.24376 61.705963 
L 538.260339 65.194898 
L 539.276917 62.324636 
L 540.293496 62.511656 
L 541.310075 60.957828 
L 542.326653 62.684307 
L 543.343232 59.454374 
L 545.376389 63.195047 
L 546.392968 61.331895 
L 547.409546 64.32446 
L 548.426125 61.691593 
L 549.442704 62.425331 
L 550.459282 62.324636 
L 551.475861 59.627025 
L 552.492439 61.044153 
L 553.509018 59.368049 
L 554.525597 61.24557 
L 555.542175 59.080307 
L 556.558754 62.849746 
L 557.575332 58.770984 
L 558.591911 56.994158 
L 559.60849 59.641394 
L 560.625068 60.252856 
L 561.641647 61.331895 
L 562.658226 63.346116 
L 563.674804 64.547458 
L 564.691383 64.238135 
L 565.707961 62.06566 
L 566.72454 61.231201 
L 567.741119 61.418221 
L 568.757697 61.74194 
L 569.774276 58.684658 
L 570.790854 59.71335 
L 571.807433 58.670262 
L 572.824012 62.82098 
L 573.84059 64.238135 
L 574.857169 59.641394 
L 575.873747 60.583788 
L 576.890326 59.627025 
L 577.906905 63.123118 
L 579.940062 62.612378 
L 580.956641 60.461485 
L 581.973219 64.712897 
L 582.989798 65.532987 
L 584.006376 65.259615 
L 585.022955 62.000916 
L 586.039534 62.749051 
L 587.056112 67.122767 
L 588.072691 62.151986 
L 589.089269 62.223914 
L 590.105848 57.900546 
L 591.122427 58.447264 
L 592.139005 55.8 
L 593.155584 58.037219 
L 594.172163 62.497287 
L 595.188741 60.907481 
L 596.20532 59.90037 
L 597.221898 60.73483 
L 598.238477 60.375159 
L 599.255056 59.404027 
L 600.271634 57.080483 
L 601.288213 60.015462 
L 602.304791 60.22409 
L 603.32137 62.223914 
L 604.337949 61.454199 
L 605.354527 65.928636 
L 606.371106 59.404027 
L 607.387684 65.892658 
L 608.404263 96.458402 
L 609.420842 100.472447 
L 610.43742 87.200203 
L 611.453999 77.201055 
L 613.487156 67.158744 
L 614.503735 70.230423 
L 615.520313 68.388853 
L 616.536892 76.265874 
L 617.553471 72.1799 
L 618.570049 73.237358 
L 619.586628 67.432117 
L 620.603206 65.432266 
L 621.619785 62.785029 
L 622.636364 61.813896 
L 622.636364 61.813896 
" clip-path="url(#p411b5e8a50)" style="fill: none; stroke: #1f77b4; stroke-width: 1.5; stroke-linecap: square"/>
   </g>
   <g id="line2d_26">
    <path d="M 115.363636 288.741698 
L 119.429951 288.741698 
L 120.446529 219.491037 
L 121.463108 259.856858 
L 122.479687 241.086297 
L 123.496265 216.848572 
L 124.512844 216.484103 
L 125.529422 212.657078 
L 127.56258 213.841638 
L 128.579158 208.00999 
L 129.595737 204.456337 
L 130.612316 205.276428 
L 131.628894 203.818522 
L 132.645473 195.891127 
L 133.662051 197.349032 
L 134.67863 200.26487 
L 135.695209 185.503515 
L 136.711787 194.159849 
L 137.728366 187.690387 
L 138.744944 182.314359 
L 139.761523 177.84952 
L 140.778102 174.113619 
L 141.79468 192.701971 
L 142.811259 177.029429 
L 143.827837 175.844897 
L 144.844416 182.041014 
L 145.860995 186.779199 
L 146.877573 181.220924 
L 147.894152 179.125177 
L 148.910731 177.302802 
L 149.927309 178.851804 
L 150.943888 185.594666 
L 152.977045 178.213989 
L 153.993624 185.047922 
L 155.010202 183.863389 
L 156.026781 193.248662 
L 157.043359 187.963759 
L 158.059938 181.767642 
L 159.076517 184.136734 
L 160.093095 185.047922 
L 161.109674 179.489646 
L 162.126253 183.863389 
L 163.142831 184.136734 
L 164.15941 204.820807 
L 165.175988 192.155226 
L 166.192567 190.697321 
L 167.209146 194.524346 
L 168.225724 192.428599 
L 170.258881 188.874946 
L 171.27546 192.155226 
L 172.292039 192.428599 
L 173.308617 194.797691 
L 174.325196 180.674206 
L 175.341774 189.148319 
L 176.358353 184.410107 
L 177.374932 189.512761 
L 178.39151 183.68114 
L 179.408089 184.8657 
L 180.424668 184.774576 
L 181.441246 183.043298 
L 182.457825 191.881881 
L 183.474403 190.423949 
L 184.490982 196.620066 
L 185.507561 190.423949 
L 186.524139 180.674206 
L 187.540718 180.127488 
L 188.557296 186.870296 
L 189.573875 190.697321 
L 190.590454 196.893439 
L 191.607032 180.674206 
L 192.623611 194.524346 
L 193.640189 189.786134 
L 194.656768 203.909619 
L 195.673347 189.786134 
L 196.689925 187.143669 
L 197.706504 198.715813 
L 198.723083 196.073375 
L 199.739661 196.528969 
L 200.75624 201.904996 
L 202.789397 194.797691 
L 203.805976 203.089556 
L 204.822554 193.339786 
L 205.839133 192.155226 
L 206.855711 194.797691 
L 207.87229 198.624716 
L 208.888869 193.339786 
L 209.905447 195.071064 
L 210.922026 189.239416 
L 211.938604 195.982251 
L 212.955183 193.339786 
L 213.971762 191.608509 
L 214.98834 198.989186 
L 216.004919 190.697321 
L 218.038076 204.547461 
L 219.054655 200.993809 
L 220.071233 191.244039 
L 221.087812 197.713502 
L 222.104391 184.774576 
L 224.137548 200.082622 
L 225.154126 193.886504 
L 226.170705 192.428599 
L 227.187284 196.255624 
L 228.203862 189.512761 
L 229.220441 179.762991 
L 230.237019 191.608509 
L 231.253598 185.047922 
L 232.270177 185.685764 
L 233.286755 191.881881 
L 234.303334 190.059506 
L 235.319913 189.786134 
L 236.336491 200.993809 
L 237.35307 188.054856 
L 238.369648 191.881881 
L 239.386227 190.697321 
L 240.402806 200.082622 
L 241.419384 198.898062 
L 242.435963 191.244039 
L 243.452541 202.451714 
L 244.46912 198.989186 
L 245.485699 189.239416 
L 246.502277 197.166811 
L 247.518856 193.613159 
L 248.535435 193.886504 
L 249.552013 192.155226 
L 250.568592 199.900373 
L 251.58517 187.417041 
L 252.601749 188.874946 
L 253.618328 191.517412 
L 254.634906 187.417041 
L 255.651485 194.159849 
L 256.668063 190.059506 
L 257.684642 188.054856 
L 258.701221 193.886504 
L 259.717799 194.524346 
L 260.734378 187.417041 
L 261.750956 196.255624 
L 262.767535 199.262531 
L 263.784114 191.881881 
L 264.800692 190.150603 
L 265.817271 193.613159 
L 266.83385 202.451714 
L 267.850428 188.237104 
L 268.867007 194.159849 
L 269.883585 196.528969 
L 270.900164 190.423949 
L 271.916743 194.524346 
L 272.933321 192.701971 
L 273.9499 199.262531 
L 274.966478 195.982251 
L 275.983057 196.528969 
L 276.999636 208.00999 
L 278.016214 195.162161 
L 279.032793 188.054856 
L 280.049371 196.255624 
L 281.06595 200.173719 
L 282.082529 198.898062 
L 283.099107 194.524346 
L 284.115686 202.451714 
L 285.132265 205.367525 
L 287.165422 195.617782 
L 288.182 201.267154 
L 289.198579 209.19455 
L 290.215158 200.993809 
L 291.231736 199.809276 
L 292.248315 202.725087 
L 293.264893 207.463272 
L 294.281472 197.440157 
L 295.298051 204.182965 
L 296.314629 208.101114 
L 297.331208 194.250974 
L 298.347786 195.708879 
L 299.364365 195.982251 
L 300.380944 199.809276 
L 301.397522 198.898062 
L 302.414101 201.267154 
L 303.43068 202.178369 
L 304.447258 204.820807 
L 305.463837 198.077999 
L 306.480415 197.804626 
L 307.496994 201.267154 
L 308.513573 212.47483 
L 309.530151 204.182965 
L 310.54673 205.094179 
L 311.563308 208.283362 
L 312.579887 206.82543 
L 313.596466 200.355967 
L 314.613044 200.355967 
L 315.629623 200.902685 
L 316.646201 203.909619 
L 317.66278 195.344409 
L 318.679359 198.351344 
L 319.695937 199.809276 
L 320.712516 204.456337 
L 321.729095 200.355967 
L 322.745673 207.098802 
L 323.762252 204.456337 
L 324.77883 202.178369 
L 325.795409 210.379082 
L 326.811988 205.640897 
L 327.828566 221.495633 
L 328.845145 202.998432 
L 329.861723 201.176057 
L 330.878302 197.986874 
L 331.894881 195.344409 
L 332.911459 201.813872 
L 333.928038 200.629312 
L 334.944617 202.451714 
L 335.961195 199.171434 
L 336.977774 202.725087 
L 337.994352 202.725087 
L 339.010931 200.629312 
L 340.02751 199.809276 
L 341.044088 205.640897 
L 342.060667 205.367525 
L 343.077245 201.540527 
L 344.093824 214.206107 
L 345.110403 196.802315 
L 346.126981 202.725087 
L 347.14356 202.725087 
L 349.176717 197.166811 
L 350.193296 197.440157 
L 351.209874 203.909619 
L 352.226453 201.267154 
L 353.243032 205.914242 
L 354.25961 211.563642 
L 355.276189 202.998432 
L 356.292767 209.19455 
L 357.309346 207.736617 
L 358.325925 199.809276 
L 359.342503 203.636274 
L 360.359082 198.624716 
L 361.37566 210.105737 
L 362.392239 202.725087 
L 363.408818 211.29027 
L 364.425396 201.267154 
L 365.441975 215.390667 
L 366.458553 209.832392 
L 367.475132 210.105737 
L 368.491711 219.217665 
L 369.508289 205.094179 
L 370.524868 210.379082 
L 371.541447 210.105737 
L 372.558025 204.182965 
L 373.574604 205.640897 
L 374.591182 217.121945 
L 375.607761 210.652455 
L 376.62434 214.47948 
L 377.640918 212.748202 
L 378.657497 213.021547 
L 379.674075 206.552084 
L 380.690654 203.909619 
L 381.707233 202.451714 
L 382.723811 203.636274 
L 383.74039 210.379082 
L 384.756968 206.278739 
L 385.773547 213.021547 
L 386.790126 199.809276 
L 387.806704 206.278739 
L 388.823283 198.351344 
L 389.839862 206.005367 
L 390.85644 211.837015 
L 391.873019 199.809276 
L 392.889597 206.82543 
L 393.906176 206.82543 
L 394.922755 200.629312 
L 395.939333 198.898062 
L 396.955912 198.533592 
L 397.97249 192.701971 
L 398.989069 201.540527 
L 400.005648 206.552084 
L 401.022226 204.72971 
L 402.038805 198.533592 
L 403.055383 201.540527 
L 404.071962 202.36059 
L 405.088541 197.713502 
L 406.105119 205.640897 
L 407.121698 200.902685 
L 408.138277 206.552084 
L 409.154855 205.914242 
L 410.171434 203.271777 
L 411.188012 210.379082 
L 412.204591 214.206107 
L 413.22117 210.652455 
L 414.237748 203.362929 
L 415.254327 200.082622 
L 416.270905 203.271777 
L 417.287484 203.909619 
L 418.304063 202.451714 
L 419.320641 204.456337 
L 420.33722 204.091868 
L 421.353799 204.182965 
L 422.370377 204.456337 
L 423.386956 202.087245 
L 424.403534 192.701971 
L 425.420113 188.874946 
L 426.436692 191.244039 
L 427.45327 191.790757 
L 429.486427 206.82543 
L 430.503006 201.540527 
L 431.519585 198.624716 
L 432.536163 195.071064 
L 433.552742 207.098802 
L 434.56932 200.629312 
L 435.585899 204.456337 
L 436.602478 197.986874 
L 437.619056 203.54515 
L 438.635635 202.087245 
L 439.652214 203.909619 
L 440.668792 201.631651 
L 441.685371 196.255624 
L 442.701949 196.802315 
L 443.718528 202.725087 
L 444.735107 201.813872 
L 445.751685 213.568292 
L 446.768264 199.809276 
L 447.784842 203.909619 
L 448.801421 200.993809 
L 449.818 210.105737 
L 450.834578 199.171434 
L 451.851157 204.820807 
L 452.867735 191.790757 
L 453.884314 210.105737 
L 454.900893 210.105737 
L 455.917471 206.552084 
L 456.93405 201.540527 
L 457.950629 206.552084 
L 458.967207 201.813872 
L 459.983786 208.283362 
L 461.000364 210.105737 
L 462.016943 237.806017 
L 463.033522 201.540527 
L 464.0501 197.349032 
L 465.066679 199.171434 
L 466.083257 197.166811 
L 467.099836 202.451714 
L 468.116415 203.089556 
L 469.132993 203.909619 
L 470.149572 204.182965 
L 471.16615 199.535904 
L 472.182729 204.182965 
L 473.199308 197.713502 
L 474.215886 193.613159 
L 475.232465 200.355967 
L 476.249044 201.267154 
L 477.265622 200.629312 
L 478.282201 194.797691 
L 479.298779 198.898062 
L 480.315358 196.255624 
L 481.331937 204.456337 
L 482.348515 200.629312 
L 483.365094 200.629312 
L 484.381672 208.83008 
L 485.398251 199.44478 
L 486.41483 207.098802 
L 487.431408 202.725087 
L 488.447987 200.355967 
L 489.464565 204.456337 
L 490.481144 202.725087 
L 491.497723 205.914242 
L 492.514301 201.267154 
L 493.53088 206.734333 
L 494.547459 203.18068 
L 495.564037 207.098802 
L 496.580616 199.809276 
L 497.597194 191.517412 
L 498.613773 201.540527 
L 499.630352 204.182965 
L 500.64693 213.021547 
L 501.663509 198.898062 
L 502.680087 201.813872 
L 503.696666 202.998432 
L 504.713245 201.540527 
L 505.729823 196.528969 
L 506.746402 202.087245 
L 507.762981 201.267154 
L 508.779559 200.902685 
L 509.796138 198.26022 
L 510.812716 194.97994 
L 511.829295 195.891127 
L 512.845874 195.071064 
L 513.862452 199.171434 
L 514.879031 198.898062 
L 515.895609 205.003055 
L 516.912188 194.433222 
L 517.928767 196.802315 
L 518.945345 196.255624 
L 519.961924 203.271777 
L 520.978502 206.187615 
L 521.995081 200.355967 
L 524.028238 190.332852 
L 525.044817 195.071064 
L 526.061396 192.975317 
L 527.077974 194.433222 
L 528.094553 202.36059 
L 529.111131 188.874946 
L 530.12771 192.701971 
L 531.144289 189.148319 
L 532.160867 182.952201 
L 533.177446 197.349032 
L 534.194024 200.355967 
L 535.210603 200.355967 
L 536.227182 198.26022 
L 537.24376 189.148319 
L 538.260339 201.540527 
L 539.276917 199.44478 
L 540.293496 200.082622 
L 541.310075 203.909619 
L 542.326653 192.975317 
L 543.343232 199.171434 
L 544.359811 200.355967 
L 545.376389 204.72971 
L 546.392968 202.36059 
L 547.409546 202.998432 
L 548.426125 203.909619 
L 549.442704 207.098802 
L 550.459282 199.171434 
L 551.475861 192.701971 
L 552.492439 197.713502 
L 553.509018 198.26022 
L 554.525597 198.624716 
L 555.542175 196.802315 
L 556.558754 198.898062 
L 557.575332 200.355967 
L 558.591911 191.517412 
L 559.60849 205.003055 
L 560.625068 195.344409 
L 561.641647 198.624716 
L 562.658226 200.902685 
L 563.674804 191.790757 
L 564.691383 199.718125 
L 565.707961 198.26022 
L 566.72454 203.818522 
L 567.741119 199.991497 
L 568.757697 194.433222 
L 569.774276 195.071064 
L 570.790854 205.367525 
L 571.807433 201.813872 
L 572.824012 195.071064 
L 573.84059 202.998432 
L 574.857169 200.902685 
L 575.873747 200.629312 
L 576.890326 205.914242 
L 577.906905 196.255624 
L 578.923483 195.344409 
L 579.940062 200.355967 
L 580.956641 202.998432 
L 581.973219 197.622405 
L 582.989798 208.83008 
L 584.006376 211.472518 
L 585.022955 202.725087 
L 586.039534 200.355967 
L 587.056112 200.629312 
L 588.072691 192.701971 
L 589.089269 191.790757 
L 590.105848 191.790757 
L 591.122427 189.421664 
L 592.139005 194.159849 
L 593.155584 191.790757 
L 594.172163 193.522007 
L 595.188741 204.72971 
L 596.20532 200.902685 
L 597.221898 194.159849 
L 598.238477 195.071064 
L 599.255056 203.636274 
L 600.271634 202.998432 
L 601.288213 196.802315 
L 602.304791 204.456337 
L 603.32137 192.701971 
L 604.337949 198.624716 
L 605.354527 198.898062 
L 606.371106 200.629312 
L 607.387684 211.837015 
L 608.404263 190.059506 
L 609.420842 209.19455 
L 610.43742 195.071064 
L 611.453999 201.540527 
L 612.470578 191.790757 
L 613.487156 193.886504 
L 614.503735 187.690387 
L 615.520313 191.517412 
L 616.536892 192.519723 
L 617.553471 192.155226 
L 618.570049 193.066414 
L 619.586628 194.250974 
L 620.603206 188.966071 
L 621.619785 198.077999 
L 622.636364 196.893439 
L 622.636364 196.893439 
" clip-path="url(#p411b5e8a50)" style="fill: none; stroke: #ff7f0e; stroke-width: 1.5; stroke-linecap: square"/>
   </g>
   <g id="patch_3">
    <path d="M 90 320.4 
L 90 43.2 
" style="fill: none; stroke: #000000; stroke-width: 0.8; stroke-linejoin: miter; stroke-linecap: square"/>
   </g>
   <g id="patch_4">
    <path d="M 648 320.4 
L 648 43.2 
" style="fill: none; stroke: #000000; stroke-width: 0.8; stroke-linejoin: miter; stroke-linecap: square"/>
   </g>
   <g id="patch_5">
    <path d="M 90 320.4 
L 648 320.4 
" style="fill: none; stroke: #000000; stroke-width: 0.8; stroke-linejoin: miter; stroke-linecap: square"/>
   </g>
   <g id="patch_6">
    <path d="M 90 43.2 
L 648 43.2 
" style="fill: none; stroke: #000000; stroke-width: 0.8; stroke-linejoin: miter; stroke-linecap: square"/>
   </g>
   <g id="text_15">
    <!-- model train and validation accracy over time -->
    <g transform="translate(233.87625 37.2) scale(0.12 -0.12)">
     <defs>
      <path id="DejaVuSans-6d" d="M 3328 2828 
Q 3544 3216 3844 3400 
Q 4144 3584 4550 3584 
Q 5097 3584 5394 3201 
Q 5691 2819 5691 2113 
L 5691 0 
L 5113 0 
L 5113 2094 
Q 5113 2597 4934 2840 
Q 4756 3084 4391 3084 
Q 3944 3084 3684 2787 
Q 3425 2491 3425 1978 
L 3425 0 
L 2847 0 
L 2847 2094 
Q 2847 2600 2669 2842 
Q 2491 3084 2119 3084 
Q 1678 3084 1418 2786 
Q 1159 2488 1159 1978 
L 1159 0 
L 581 0 
L 581 3500 
L 1159 3500 
L 1159 2956 
Q 1356 3278 1631 3431 
Q 1906 3584 2284 3584 
Q 2666 3584 2933 3390 
Q 3200 3197 3328 2828 
z
" transform="scale(0.015625)"/>
      <path id="DejaVuSans-64" d="M 2906 2969 
L 2906 4863 
L 3481 4863 
L 3481 0 
L 2906 0 
L 2906 525 
Q 2725 213 2448 61 
Q 2172 -91 1784 -91 
Q 1150 -91 751 415 
Q 353 922 353 1747 
Q 353 2572 751 3078 
Q 1150 3584 1784 3584 
Q 2172 3584 2448 3432 
Q 2725 3281 2906 2969 
z
M 947 1747 
Q 947 1113 1208 752 
Q 1469 391 1925 391 
Q 2381 391 2643 752 
Q 2906 1113 2906 1747 
Q 2906 2381 2643 2742 
Q 2381 3103 1925 3103 
Q 1469 3103 1208 2742 
Q 947 2381 947 1747 
z
" transform="scale(0.015625)"/>
      <path id="DejaVuSans-6c" d="M 603 4863 
L 1178 4863 
L 1178 0 
L 603 0 
L 603 4863 
z
" transform="scale(0.015625)"/>
      <path id="DejaVuSans-20" transform="scale(0.015625)"/>
      <path id="DejaVuSans-74" d="M 1172 4494 
L 1172 3500 
L 2356 3500 
L 2356 3053 
L 1172 3053 
L 1172 1153 
Q 1172 725 1289 603 
Q 1406 481 1766 481 
L 2356 481 
L 2356 0 
L 1766 0 
Q 1100 0 847 248 
Q 594 497 594 1153 
L 594 3053 
L 172 3053 
L 172 3500 
L 594 3500 
L 594 4494 
L 1172 4494 
z
" transform="scale(0.015625)"/>
      <path id="DejaVuSans-69" d="M 603 3500 
L 1178 3500 
L 1178 0 
L 603 0 
L 603 3500 
z
M 603 4863 
L 1178 4863 
L 1178 4134 
L 603 4134 
L 603 4863 
z
" transform="scale(0.015625)"/>
      <path id="DejaVuSans-6e" d="M 3513 2113 
L 3513 0 
L 2938 0 
L 2938 2094 
Q 2938 2591 2744 2837 
Q 2550 3084 2163 3084 
Q 1697 3084 1428 2787 
Q 1159 2491 1159 1978 
L 1159 0 
L 581 0 
L 581 3500 
L 1159 3500 
L 1159 2956 
Q 1366 3272 1645 3428 
Q 1925 3584 2291 3584 
Q 2894 3584 3203 3211 
Q 3513 2838 3513 2113 
z
" transform="scale(0.015625)"/>
      <path id="DejaVuSans-76" d="M 191 3500 
L 800 3500 
L 1894 563 
L 2988 3500 
L 3597 3500 
L 2284 0 
L 1503 0 
L 191 3500 
z
" transform="scale(0.015625)"/>
     </defs>
     <use xlink:href="#DejaVuSans-6d"/>
     <use xlink:href="#DejaVuSans-6f" x="97.412109"/>
     <use xlink:href="#DejaVuSans-64" x="158.59375"/>
     <use xlink:href="#DejaVuSans-65" x="222.070312"/>
     <use xlink:href="#DejaVuSans-6c" x="283.59375"/>
     <use xlink:href="#DejaVuSans-20" x="311.376953"/>
     <use xlink:href="#DejaVuSans-74" x="343.164062"/>
     <use xlink:href="#DejaVuSans-72" x="382.373047"/>
     <use xlink:href="#DejaVuSans-61" x="423.486328"/>
     <use xlink:href="#DejaVuSans-69" x="484.765625"/>
     <use xlink:href="#DejaVuSans-6e" x="512.548828"/>
     <use xlink:href="#DejaVuSans-20" x="575.927734"/>
     <use xlink:href="#DejaVuSans-61" x="607.714844"/>
     <use xlink:href="#DejaVuSans-6e" x="668.994141"/>
     <use xlink:href="#DejaVuSans-64" x="732.373047"/>
     <use xlink:href="#DejaVuSans-20" x="795.849609"/>
     <use xlink:href="#DejaVuSans-76" x="827.636719"/>
     <use xlink:href="#DejaVuSans-61" x="886.816406"/>
     <use xlink:href="#DejaVuSans-6c" x="948.095703"/>
     <use xlink:href="#DejaVuSans-69" x="975.878906"/>
     <use xlink:href="#DejaVuSans-64" x="1003.662109"/>
     <use xlink:href="#DejaVuSans-61" x="1067.138672"/>
     <use xlink:href="#DejaVuSans-74" x="1128.417969"/>
     <use xlink:href="#DejaVuSans-69" x="1167.626953"/>
     <use xlink:href="#DejaVuSans-6f" x="1195.410156"/>
     <use xlink:href="#DejaVuSans-6e" x="1256.591797"/>
     <use xlink:href="#DejaVuSans-20" x="1319.970703"/>
     <use xlink:href="#DejaVuSans-61" x="1351.757812"/>
     <use xlink:href="#DejaVuSans-63" x="1413.037109"/>
     <use xlink:href="#DejaVuSans-63" x="1468.017578"/>
     <use xlink:href="#DejaVuSans-72" x="1522.998047"/>
     <use xlink:href="#DejaVuSans-61" x="1564.111328"/>
     <use xlink:href="#DejaVuSans-63" x="1625.390625"/>
     <use xlink:href="#DejaVuSans-79" x="1680.371094"/>
     <use xlink:href="#DejaVuSans-20" x="1739.550781"/>
     <use xlink:href="#DejaVuSans-6f" x="1771.337891"/>
     <use xlink:href="#DejaVuSans-76" x="1832.519531"/>
     <use xlink:href="#DejaVuSans-65" x="1891.699219"/>
     <use xlink:href="#DejaVuSans-72" x="1953.222656"/>
     <use xlink:href="#DejaVuSans-20" x="1994.335938"/>
     <use xlink:href="#DejaVuSans-74" x="2026.123047"/>
     <use xlink:href="#DejaVuSans-69" x="2065.332031"/>
     <use xlink:href="#DejaVuSans-6d" x="2093.115234"/>
     <use xlink:href="#DejaVuSans-65" x="2190.527344"/>
    </g>
   </g>
   <g id="legend_1">
    <g id="patch_7">
     <path d="M 97 80.55625 
L 178.234375 80.55625 
Q 180.234375 80.55625 180.234375 78.55625 
L 180.234375 50.2 
Q 180.234375 48.2 178.234375 48.2 
L 97 48.2 
Q 95 48.2 95 50.2 
L 95 78.55625 
Q 95 80.55625 97 80.55625 
z
" style="fill: #ffffff; opacity: 0.8; stroke: #cccccc; stroke-linejoin: miter"/>
    </g>
    <g id="line2d_27">
     <path d="M 99 56.298437 
L 109 56.298437 
L 119 56.298437 
" style="fill: none; stroke: #1f77b4; stroke-width: 1.5; stroke-linecap: square"/>
    </g>
    <g id="text_16">
     <!-- train -->
     <g transform="translate(127 59.798437) scale(0.1 -0.1)">
      <use xlink:href="#DejaVuSans-74"/>
      <use xlink:href="#DejaVuSans-72" x="39.208984"/>
      <use xlink:href="#DejaVuSans-61" x="80.322266"/>
      <use xlink:href="#DejaVuSans-69" x="141.601562"/>
      <use xlink:href="#DejaVuSans-6e" x="169.384766"/>
     </g>
    </g>
    <g id="line2d_28">
     <path d="M 99 70.976562 
L 109 70.976562 
L 119 70.976562 
" style="fill: none; stroke: #ff7f0e; stroke-width: 1.5; stroke-linecap: square"/>
    </g>
    <g id="text_17">
     <!-- validation -->
     <g transform="translate(127 74.476562) scale(0.1 -0.1)">
      <use xlink:href="#DejaVuSans-76"/>
      <use xlink:href="#DejaVuSans-61" x="59.179688"/>
      <use xlink:href="#DejaVuSans-6c" x="120.458984"/>
      <use xlink:href="#DejaVuSans-69" x="148.242188"/>
      <use xlink:href="#DejaVuSans-64" x="176.025391"/>
      <use xlink:href="#DejaVuSans-61" x="239.501953"/>
      <use xlink:href="#DejaVuSans-74" x="300.78125"/>
      <use xlink:href="#DejaVuSans-69" x="339.990234"/>
      <use xlink:href="#DejaVuSans-6f" x="367.773438"/>
      <use xlink:href="#DejaVuSans-6e" x="428.955078"/>
     </g>
    </g>
   </g>
  </g>
 </g>
 <defs>
  <clipPath id="p411b5e8a50">
   <rect x="90" y="43.2" width="558" height="277.2"/>
  </clipPath>
 </defs>
</svg>
