<?xml version="1.0" encoding="utf-8" standalone="no"?>
<!DOCTYPE svg PUBLIC "-//W3C//DTD SVG 1.1//EN"
  "http://www.w3.org/Graphics/SVG/1.1/DTD/svg11.dtd">
<svg xmlns:xlink="http://www.w3.org/1999/xlink" width="720pt" height="360pt" viewBox="0 0 720 360" xmlns="http://www.w3.org/2000/svg" version="1.1">
 <metadata>
  <rdf:RDF xmlns:dc="http://purl.org/dc/elements/1.1/" xmlns:cc="http://creativecommons.org/ns#" xmlns:rdf="http://www.w3.org/1999/02/22-rdf-syntax-ns#">
   <cc:Work>
    <dc:type rdf:resource="http://purl.org/dc/dcmitype/StillImage"/>
    <dc:date>2023-05-24T10:59:54.015397</dc:date>
    <dc:format>image/svg+xml</dc:format>
    <dc:creator>
     <cc:Agent>
      <dc:title>Matplotlib v3.7.1, https://matplotlib.org/</dc:title>
     </cc:Agent>
    </dc:creator>
   </cc:Work>
  </rdf:RDF>
 </metadata>
 <defs>
  <style type="text/css">*{stroke-linejoin: round; stroke-linecap: butt}</style>
 </defs>
 <g id="figure_1">
  <g id="patch_1">
   <path d="M 0 360 
L 720 360 
L 720 0 
L 0 0 
z
" style="fill: #ffffff"/>
  </g>
  <g id="axes_1">
   <g id="patch_2">
    <path d="M 90 320.4 
L 648 320.4 
L 648 43.2 
L 90 43.2 
z
" style="fill: #ffffff"/>
   </g>
   <g id="matplotlib.axis_1">
    <g id="xtick_1">
     <g id="line2d_1">
      <path d="M 115.363636 320.4 
L 115.363636 43.2 
" clip-path="url(#pcc778f0b09)" style="fill: none; stroke: #b0b0b0; stroke-width: 0.8; stroke-linecap: square"/>
     </g>
     <g id="line2d_2">
      <defs>
       <path id="me329cf40bc" d="M 0 0 
L 0 3.5 
" style="stroke: #000000; stroke-width: 0.8"/>
      </defs>
      <g>
       <use xlink:href="#me329cf40bc" x="115.363636" y="320.4" style="stroke: #000000; stroke-width: 0.8"/>
      </g>
     </g>
     <g id="text_1">
      <!-- 0 -->
      <g transform="translate(112.182386 334.998438) scale(0.1 -0.1)">
       <defs>
        <path id="DejaVuSans-30" d="M 2034 4250 
Q 1547 4250 1301 3770 
Q 1056 3291 1056 2328 
Q 1056 1369 1301 889 
Q 1547 409 2034 409 
Q 2525 409 2770 889 
Q 3016 1369 3016 2328 
Q 3016 3291 2770 3770 
Q 2525 4250 2034 4250 
z
M 2034 4750 
Q 2819 4750 3233 4129 
Q 3647 3509 3647 2328 
Q 3647 1150 3233 529 
Q 2819 -91 2034 -91 
Q 1250 -91 836 529 
Q 422 1150 422 2328 
Q 422 3509 836 4129 
Q 1250 4750 2034 4750 
z
" transform="scale(0.015625)"/>
       </defs>
       <use xlink:href="#DejaVuSans-30"/>
      </g>
     </g>
    </g>
    <g id="xtick_2">
     <g id="line2d_3">
      <path d="M 217.021498 320.4 
L 217.021498 43.2 
" clip-path="url(#pcc778f0b09)" style="fill: none; stroke: #b0b0b0; stroke-width: 0.8; stroke-linecap: square"/>
     </g>
     <g id="line2d_4">
      <g>
       <use xlink:href="#me329cf40bc" x="217.021498" y="320.4" style="stroke: #000000; stroke-width: 0.8"/>
      </g>
     </g>
     <g id="text_2">
      <!-- 100 -->
      <g transform="translate(207.477748 334.998438) scale(0.1 -0.1)">
       <defs>
        <path id="DejaVuSans-31" d="M 794 531 
L 1825 531 
L 1825 4091 
L 703 3866 
L 703 4441 
L 1819 4666 
L 2450 4666 
L 2450 531 
L 3481 531 
L 3481 0 
L 794 0 
L 794 531 
z
" transform="scale(0.015625)"/>
       </defs>
       <use xlink:href="#DejaVuSans-31"/>
       <use xlink:href="#DejaVuSans-30" x="63.623047"/>
       <use xlink:href="#DejaVuSans-30" x="127.246094"/>
      </g>
     </g>
    </g>
    <g id="xtick_3">
     <g id="line2d_5">
      <path d="M 318.679359 320.4 
L 318.679359 43.2 
" clip-path="url(#pcc778f0b09)" style="fill: none; stroke: #b0b0b0; stroke-width: 0.8; stroke-linecap: square"/>
     </g>
     <g id="line2d_6">
      <g>
       <use xlink:href="#me329cf40bc" x="318.679359" y="320.4" style="stroke: #000000; stroke-width: 0.8"/>
      </g>
     </g>
     <g id="text_3">
      <!-- 200 -->
      <g transform="translate(309.135609 334.998438) scale(0.1 -0.1)">
       <defs>
        <path id="DejaVuSans-32" d="M 1228 531 
L 3431 531 
L 3431 0 
L 469 0 
L 469 531 
Q 828 903 1448 1529 
Q 2069 2156 2228 2338 
Q 2531 2678 2651 2914 
Q 2772 3150 2772 3378 
Q 2772 3750 2511 3984 
Q 2250 4219 1831 4219 
Q 1534 4219 1204 4116 
Q 875 4013 500 3803 
L 500 4441 
Q 881 4594 1212 4672 
Q 1544 4750 1819 4750 
Q 2544 4750 2975 4387 
Q 3406 4025 3406 3419 
Q 3406 3131 3298 2873 
Q 3191 2616 2906 2266 
Q 2828 2175 2409 1742 
Q 1991 1309 1228 531 
z
" transform="scale(0.015625)"/>
       </defs>
       <use xlink:href="#DejaVuSans-32"/>
       <use xlink:href="#DejaVuSans-30" x="63.623047"/>
       <use xlink:href="#DejaVuSans-30" x="127.246094"/>
      </g>
     </g>
    </g>
    <g id="xtick_4">
     <g id="line2d_7">
      <path d="M 420.33722 320.4 
L 420.33722 43.2 
" clip-path="url(#pcc778f0b09)" style="fill: none; stroke: #b0b0b0; stroke-width: 0.8; stroke-linecap: square"/>
     </g>
     <g id="line2d_8">
      <g>
       <use xlink:href="#me329cf40bc" x="420.33722" y="320.4" style="stroke: #000000; stroke-width: 0.8"/>
      </g>
     </g>
     <g id="text_4">
      <!-- 300 -->
      <g transform="translate(410.79347 334.998438) scale(0.1 -0.1)">
       <defs>
        <path id="DejaVuSans-33" d="M 2597 2516 
Q 3050 2419 3304 2112 
Q 3559 1806 3559 1356 
Q 3559 666 3084 287 
Q 2609 -91 1734 -91 
Q 1441 -91 1130 -33 
Q 819 25 488 141 
L 488 750 
Q 750 597 1062 519 
Q 1375 441 1716 441 
Q 2309 441 2620 675 
Q 2931 909 2931 1356 
Q 2931 1769 2642 2001 
Q 2353 2234 1838 2234 
L 1294 2234 
L 1294 2753 
L 1863 2753 
Q 2328 2753 2575 2939 
Q 2822 3125 2822 3475 
Q 2822 3834 2567 4026 
Q 2313 4219 1838 4219 
Q 1578 4219 1281 4162 
Q 984 4106 628 3988 
L 628 4550 
Q 988 4650 1302 4700 
Q 1616 4750 1894 4750 
Q 2613 4750 3031 4423 
Q 3450 4097 3450 3541 
Q 3450 3153 3228 2886 
Q 3006 2619 2597 2516 
z
" transform="scale(0.015625)"/>
       </defs>
       <use xlink:href="#DejaVuSans-33"/>
       <use xlink:href="#DejaVuSans-30" x="63.623047"/>
       <use xlink:href="#DejaVuSans-30" x="127.246094"/>
      </g>
     </g>
    </g>
    <g id="xtick_5">
     <g id="line2d_9">
      <path d="M 521.995081 320.4 
L 521.995081 43.2 
" clip-path="url(#pcc778f0b09)" style="fill: none; stroke: #b0b0b0; stroke-width: 0.8; stroke-linecap: square"/>
     </g>
     <g id="line2d_10">
      <g>
       <use xlink:href="#me329cf40bc" x="521.995081" y="320.4" style="stroke: #000000; stroke-width: 0.8"/>
      </g>
     </g>
     <g id="text_5">
      <!-- 400 -->
      <g transform="translate(512.451331 334.998438) scale(0.1 -0.1)">
       <defs>
        <path id="DejaVuSans-34" d="M 2419 4116 
L 825 1625 
L 2419 1625 
L 2419 4116 
z
M 2253 4666 
L 3047 4666 
L 3047 1625 
L 3713 1625 
L 3713 1100 
L 3047 1100 
L 3047 0 
L 2419 0 
L 2419 1100 
L 313 1100 
L 313 1709 
L 2253 4666 
z
" transform="scale(0.015625)"/>
       </defs>
       <use xlink:href="#DejaVuSans-34"/>
       <use xlink:href="#DejaVuSans-30" x="63.623047"/>
       <use xlink:href="#DejaVuSans-30" x="127.246094"/>
      </g>
     </g>
    </g>
    <g id="xtick_6">
     <g id="line2d_11">
      <path d="M 623.652942 320.4 
L 623.652942 43.2 
" clip-path="url(#pcc778f0b09)" style="fill: none; stroke: #b0b0b0; stroke-width: 0.8; stroke-linecap: square"/>
     </g>
     <g id="line2d_12">
      <g>
       <use xlink:href="#me329cf40bc" x="623.652942" y="320.4" style="stroke: #000000; stroke-width: 0.8"/>
      </g>
     </g>
     <g id="text_6">
      <!-- 500 -->
      <g transform="translate(614.109192 334.998438) scale(0.1 -0.1)">
       <defs>
        <path id="DejaVuSans-35" d="M 691 4666 
L 3169 4666 
L 3169 4134 
L 1269 4134 
L 1269 2991 
Q 1406 3038 1543 3061 
Q 1681 3084 1819 3084 
Q 2600 3084 3056 2656 
Q 3513 2228 3513 1497 
Q 3513 744 3044 326 
Q 2575 -91 1722 -91 
Q 1428 -91 1123 -41 
Q 819 9 494 109 
L 494 744 
Q 775 591 1075 516 
Q 1375 441 1709 441 
Q 2250 441 2565 725 
Q 2881 1009 2881 1497 
Q 2881 1984 2565 2268 
Q 2250 2553 1709 2553 
Q 1456 2553 1204 2497 
Q 953 2441 691 2322 
L 691 4666 
z
" transform="scale(0.015625)"/>
       </defs>
       <use xlink:href="#DejaVuSans-35"/>
       <use xlink:href="#DejaVuSans-30" x="63.623047"/>
       <use xlink:href="#DejaVuSans-30" x="127.246094"/>
      </g>
     </g>
    </g>
    <g id="text_7">
     <!-- epoch -->
     <g transform="translate(353.771875 348.676562) scale(0.1 -0.1)">
      <defs>
       <path id="DejaVuSans-65" d="M 3597 1894 
L 3597 1613 
L 953 1613 
Q 991 1019 1311 708 
Q 1631 397 2203 397 
Q 2534 397 2845 478 
Q 3156 559 3463 722 
L 3463 178 
Q 3153 47 2828 -22 
Q 2503 -91 2169 -91 
Q 1331 -91 842 396 
Q 353 884 353 1716 
Q 353 2575 817 3079 
Q 1281 3584 2069 3584 
Q 2775 3584 3186 3129 
Q 3597 2675 3597 1894 
z
M 3022 2063 
Q 3016 2534 2758 2815 
Q 2500 3097 2075 3097 
Q 1594 3097 1305 2825 
Q 1016 2553 972 2059 
L 3022 2063 
z
" transform="scale(0.015625)"/>
       <path id="DejaVuSans-70" d="M 1159 525 
L 1159 -1331 
L 581 -1331 
L 581 3500 
L 1159 3500 
L 1159 2969 
Q 1341 3281 1617 3432 
Q 1894 3584 2278 3584 
Q 2916 3584 3314 3078 
Q 3713 2572 3713 1747 
Q 3713 922 3314 415 
Q 2916 -91 2278 -91 
Q 1894 -91 1617 61 
Q 1341 213 1159 525 
z
M 3116 1747 
Q 3116 2381 2855 2742 
Q 2594 3103 2138 3103 
Q 1681 3103 1420 2742 
Q 1159 2381 1159 1747 
Q 1159 1113 1420 752 
Q 1681 391 2138 391 
Q 2594 391 2855 752 
Q 3116 1113 3116 1747 
z
" transform="scale(0.015625)"/>
       <path id="DejaVuSans-6f" d="M 1959 3097 
Q 1497 3097 1228 2736 
Q 959 2375 959 1747 
Q 959 1119 1226 758 
Q 1494 397 1959 397 
Q 2419 397 2687 759 
Q 2956 1122 2956 1747 
Q 2956 2369 2687 2733 
Q 2419 3097 1959 3097 
z
M 1959 3584 
Q 2709 3584 3137 3096 
Q 3566 2609 3566 1747 
Q 3566 888 3137 398 
Q 2709 -91 1959 -91 
Q 1206 -91 779 398 
Q 353 888 353 1747 
Q 353 2609 779 3096 
Q 1206 3584 1959 3584 
z
" transform="scale(0.015625)"/>
       <path id="DejaVuSans-63" d="M 3122 3366 
L 3122 2828 
Q 2878 2963 2633 3030 
Q 2388 3097 2138 3097 
Q 1578 3097 1268 2742 
Q 959 2388 959 1747 
Q 959 1106 1268 751 
Q 1578 397 2138 397 
Q 2388 397 2633 464 
Q 2878 531 3122 666 
L 3122 134 
Q 2881 22 2623 -34 
Q 2366 -91 2075 -91 
Q 1284 -91 818 406 
Q 353 903 353 1747 
Q 353 2603 823 3093 
Q 1294 3584 2113 3584 
Q 2378 3584 2631 3529 
Q 2884 3475 3122 3366 
z
" transform="scale(0.015625)"/>
       <path id="DejaVuSans-68" d="M 3513 2113 
L 3513 0 
L 2938 0 
L 2938 2094 
Q 2938 2591 2744 2837 
Q 2550 3084 2163 3084 
Q 1697 3084 1428 2787 
Q 1159 2491 1159 1978 
L 1159 0 
L 581 0 
L 581 4863 
L 1159 4863 
L 1159 2956 
Q 1366 3272 1645 3428 
Q 1925 3584 2291 3584 
Q 2894 3584 3203 3211 
Q 3513 2838 3513 2113 
z
" transform="scale(0.015625)"/>
      </defs>
      <use xlink:href="#DejaVuSans-65"/>
      <use xlink:href="#DejaVuSans-70" x="61.523438"/>
      <use xlink:href="#DejaVuSans-6f" x="125"/>
      <use xlink:href="#DejaVuSans-63" x="186.181641"/>
      <use xlink:href="#DejaVuSans-68" x="241.162109"/>
     </g>
    </g>
   </g>
   <g id="matplotlib.axis_2">
    <g id="ytick_1">
     <g id="line2d_13">
      <path d="M 90 286.962622 
L 648 286.962622 
" clip-path="url(#pcc778f0b09)" style="fill: none; stroke: #b0b0b0; stroke-width: 0.8; stroke-linecap: square"/>
     </g>
     <g id="line2d_14">
      <defs>
       <path id="mfdea84b674" d="M 0 0 
L -3.5 0 
" style="stroke: #000000; stroke-width: 0.8"/>
      </defs>
      <g>
       <use xlink:href="#mfdea84b674" x="90" y="286.962622" style="stroke: #000000; stroke-width: 0.8"/>
      </g>
     </g>
     <g id="text_8">
      <!-- 1.34 -->
      <g transform="translate(60.734375 290.761841) scale(0.1 -0.1)">
       <defs>
        <path id="DejaVuSans-2e" d="M 684 794 
L 1344 794 
L 1344 0 
L 684 0 
L 684 794 
z
" transform="scale(0.015625)"/>
       </defs>
       <use xlink:href="#DejaVuSans-31"/>
       <use xlink:href="#DejaVuSans-2e" x="63.623047"/>
       <use xlink:href="#DejaVuSans-33" x="95.410156"/>
       <use xlink:href="#DejaVuSans-34" x="159.033203"/>
      </g>
     </g>
    </g>
    <g id="ytick_2">
     <g id="line2d_15">
      <path d="M 90 249.729761 
L 648 249.729761 
" clip-path="url(#pcc778f0b09)" style="fill: none; stroke: #b0b0b0; stroke-width: 0.8; stroke-linecap: square"/>
     </g>
     <g id="line2d_16">
      <g>
       <use xlink:href="#mfdea84b674" x="90" y="249.729761" style="stroke: #000000; stroke-width: 0.8"/>
      </g>
     </g>
     <g id="text_9">
      <!-- 1.36 -->
      <g transform="translate(60.734375 253.52898) scale(0.1 -0.1)">
       <defs>
        <path id="DejaVuSans-36" d="M 2113 2584 
Q 1688 2584 1439 2293 
Q 1191 2003 1191 1497 
Q 1191 994 1439 701 
Q 1688 409 2113 409 
Q 2538 409 2786 701 
Q 3034 994 3034 1497 
Q 3034 2003 2786 2293 
Q 2538 2584 2113 2584 
z
M 3366 4563 
L 3366 3988 
Q 3128 4100 2886 4159 
Q 2644 4219 2406 4219 
Q 1781 4219 1451 3797 
Q 1122 3375 1075 2522 
Q 1259 2794 1537 2939 
Q 1816 3084 2150 3084 
Q 2853 3084 3261 2657 
Q 3669 2231 3669 1497 
Q 3669 778 3244 343 
Q 2819 -91 2113 -91 
Q 1303 -91 875 529 
Q 447 1150 447 2328 
Q 447 3434 972 4092 
Q 1497 4750 2381 4750 
Q 2619 4750 2861 4703 
Q 3103 4656 3366 4563 
z
" transform="scale(0.015625)"/>
       </defs>
       <use xlink:href="#DejaVuSans-31"/>
       <use xlink:href="#DejaVuSans-2e" x="63.623047"/>
       <use xlink:href="#DejaVuSans-33" x="95.410156"/>
       <use xlink:href="#DejaVuSans-36" x="159.033203"/>
      </g>
     </g>
    </g>
    <g id="ytick_3">
     <g id="line2d_17">
      <path d="M 90 212.496899 
L 648 212.496899 
" clip-path="url(#pcc778f0b09)" style="fill: none; stroke: #b0b0b0; stroke-width: 0.8; stroke-linecap: square"/>
     </g>
     <g id="line2d_18">
      <g>
       <use xlink:href="#mfdea84b674" x="90" y="212.496899" style="stroke: #000000; stroke-width: 0.8"/>
      </g>
     </g>
     <g id="text_10">
      <!-- 1.38 -->
      <g transform="translate(60.734375 216.296118) scale(0.1 -0.1)">
       <defs>
        <path id="DejaVuSans-38" d="M 2034 2216 
Q 1584 2216 1326 1975 
Q 1069 1734 1069 1313 
Q 1069 891 1326 650 
Q 1584 409 2034 409 
Q 2484 409 2743 651 
Q 3003 894 3003 1313 
Q 3003 1734 2745 1975 
Q 2488 2216 2034 2216 
z
M 1403 2484 
Q 997 2584 770 2862 
Q 544 3141 544 3541 
Q 544 4100 942 4425 
Q 1341 4750 2034 4750 
Q 2731 4750 3128 4425 
Q 3525 4100 3525 3541 
Q 3525 3141 3298 2862 
Q 3072 2584 2669 2484 
Q 3125 2378 3379 2068 
Q 3634 1759 3634 1313 
Q 3634 634 3220 271 
Q 2806 -91 2034 -91 
Q 1263 -91 848 271 
Q 434 634 434 1313 
Q 434 1759 690 2068 
Q 947 2378 1403 2484 
z
M 1172 3481 
Q 1172 3119 1398 2916 
Q 1625 2713 2034 2713 
Q 2441 2713 2670 2916 
Q 2900 3119 2900 3481 
Q 2900 3844 2670 4047 
Q 2441 4250 2034 4250 
Q 1625 4250 1398 4047 
Q 1172 3844 1172 3481 
z
" transform="scale(0.015625)"/>
       </defs>
       <use xlink:href="#DejaVuSans-31"/>
       <use xlink:href="#DejaVuSans-2e" x="63.623047"/>
       <use xlink:href="#DejaVuSans-33" x="95.410156"/>
       <use xlink:href="#DejaVuSans-38" x="159.033203"/>
      </g>
     </g>
    </g>
    <g id="ytick_4">
     <g id="line2d_19">
      <path d="M 90 175.264038 
L 648 175.264038 
" clip-path="url(#pcc778f0b09)" style="fill: none; stroke: #b0b0b0; stroke-width: 0.8; stroke-linecap: square"/>
     </g>
     <g id="line2d_20">
      <g>
       <use xlink:href="#mfdea84b674" x="90" y="175.264038" style="stroke: #000000; stroke-width: 0.8"/>
      </g>
     </g>
     <g id="text_11">
      <!-- 1.40 -->
      <g transform="translate(60.734375 179.063257) scale(0.1 -0.1)">
       <use xlink:href="#DejaVuSans-31"/>
       <use xlink:href="#DejaVuSans-2e" x="63.623047"/>
       <use xlink:href="#DejaVuSans-34" x="95.410156"/>
       <use xlink:href="#DejaVuSans-30" x="159.033203"/>
      </g>
     </g>
    </g>
    <g id="ytick_5">
     <g id="line2d_21">
      <path d="M 90 138.031177 
L 648 138.031177 
" clip-path="url(#pcc778f0b09)" style="fill: none; stroke: #b0b0b0; stroke-width: 0.8; stroke-linecap: square"/>
     </g>
     <g id="line2d_22">
      <g>
       <use xlink:href="#mfdea84b674" x="90" y="138.031177" style="stroke: #000000; stroke-width: 0.8"/>
      </g>
     </g>
     <g id="text_12">
      <!-- 1.42 -->
      <g transform="translate(60.734375 141.830395) scale(0.1 -0.1)">
       <use xlink:href="#DejaVuSans-31"/>
       <use xlink:href="#DejaVuSans-2e" x="63.623047"/>
       <use xlink:href="#DejaVuSans-34" x="95.410156"/>
       <use xlink:href="#DejaVuSans-32" x="159.033203"/>
      </g>
     </g>
    </g>
    <g id="ytick_6">
     <g id="line2d_23">
      <path d="M 90 100.798315 
L 648 100.798315 
" clip-path="url(#pcc778f0b09)" style="fill: none; stroke: #b0b0b0; stroke-width: 0.8; stroke-linecap: square"/>
     </g>
     <g id="line2d_24">
      <g>
       <use xlink:href="#mfdea84b674" x="90" y="100.798315" style="stroke: #000000; stroke-width: 0.8"/>
      </g>
     </g>
     <g id="text_13">
      <!-- 1.44 -->
      <g transform="translate(60.734375 104.597534) scale(0.1 -0.1)">
       <use xlink:href="#DejaVuSans-31"/>
       <use xlink:href="#DejaVuSans-2e" x="63.623047"/>
       <use xlink:href="#DejaVuSans-34" x="95.410156"/>
       <use xlink:href="#DejaVuSans-34" x="159.033203"/>
      </g>
     </g>
    </g>
    <g id="ytick_7">
     <g id="line2d_25">
      <path d="M 90 63.565454 
L 648 63.565454 
" clip-path="url(#pcc778f0b09)" style="fill: none; stroke: #b0b0b0; stroke-width: 0.8; stroke-linecap: square"/>
     </g>
     <g id="line2d_26">
      <g>
       <use xlink:href="#mfdea84b674" x="90" y="63.565454" style="stroke: #000000; stroke-width: 0.8"/>
      </g>
     </g>
     <g id="text_14">
      <!-- 1.46 -->
      <g transform="translate(60.734375 67.364673) scale(0.1 -0.1)">
       <use xlink:href="#DejaVuSans-31"/>
       <use xlink:href="#DejaVuSans-2e" x="63.623047"/>
       <use xlink:href="#DejaVuSans-34" x="95.410156"/>
       <use xlink:href="#DejaVuSans-36" x="159.033203"/>
      </g>
     </g>
    </g>
    <g id="text_15">
     <!-- loss -->
     <g transform="translate(54.654688 191.457812) rotate(-90) scale(0.1 -0.1)">
      <defs>
       <path id="DejaVuSans-6c" d="M 603 4863 
L 1178 4863 
L 1178 0 
L 603 0 
L 603 4863 
z
" transform="scale(0.015625)"/>
       <path id="DejaVuSans-73" d="M 2834 3397 
L 2834 2853 
Q 2591 2978 2328 3040 
Q 2066 3103 1784 3103 
Q 1356 3103 1142 2972 
Q 928 2841 928 2578 
Q 928 2378 1081 2264 
Q 1234 2150 1697 2047 
L 1894 2003 
Q 2506 1872 2764 1633 
Q 3022 1394 3022 966 
Q 3022 478 2636 193 
Q 2250 -91 1575 -91 
Q 1294 -91 989 -36 
Q 684 19 347 128 
L 347 722 
Q 666 556 975 473 
Q 1284 391 1588 391 
Q 1994 391 2212 530 
Q 2431 669 2431 922 
Q 2431 1156 2273 1281 
Q 2116 1406 1581 1522 
L 1381 1569 
Q 847 1681 609 1914 
Q 372 2147 372 2553 
Q 372 3047 722 3315 
Q 1072 3584 1716 3584 
Q 2034 3584 2315 3537 
Q 2597 3491 2834 3397 
z
" transform="scale(0.015625)"/>
      </defs>
      <use xlink:href="#DejaVuSans-6c"/>
      <use xlink:href="#DejaVuSans-6f" x="27.783203"/>
      <use xlink:href="#DejaVuSans-73" x="88.964844"/>
      <use xlink:href="#DejaVuSans-73" x="141.064453"/>
     </g>
    </g>
   </g>
   <g id="line2d_27">
    <path d="M 115.363636 55.8 
L 116.380215 175.809574 
L 117.396794 189.797073 
L 118.413372 181.204353 
L 119.429951 185.280008 
L 120.446529 182.840163 
L 121.463108 190.015003 
L 122.479687 186.159498 
L 123.496265 172.751002 
L 124.512844 188.423578 
L 125.529422 196.123715 
L 126.546001 189.638396 
L 127.56258 219.675743 
L 128.579158 180.362147 
L 129.595737 178.077206 
L 130.612316 188.3155 
L 131.628894 183.691024 
L 132.645473 196.068899 
L 133.662051 187.86699 
L 134.67863 180.632674 
L 135.695209 187.275781 
L 136.711787 180.828412 
L 137.728366 189.157928 
L 138.744944 182.473987 
L 139.761523 183.350147 
L 140.778102 183.862794 
L 141.79468 166.65605 
L 142.811259 181.077856 
L 143.827837 175.523735 
L 144.844416 184.438912 
L 145.860995 186.232067 
L 146.877573 196.004541 
L 147.894152 189.909145 
L 148.910731 195.547153 
L 149.927309 183.51992 
L 150.943888 178.051018 
L 151.960466 187.535212 
L 152.977045 181.145987 
L 153.993624 180.511281 
L 155.010202 171.658021 
L 156.026781 182.477981 
L 157.043359 173.641144 
L 158.059938 177.009746 
L 160.093095 195.417993 
L 161.109674 181.132227 
L 162.126253 189.584025 
L 163.142831 181.007283 
L 164.15941 180.279369 
L 165.175988 188.660816 
L 166.192567 176.74854 
L 167.209146 182.108476 
L 168.225724 182.19081 
L 169.242303 177.692609 
L 170.258881 184.747388 
L 171.27546 186.754035 
L 172.292039 181.215671 
L 173.308617 187.891623 
L 174.325196 179.326866 
L 175.341774 188.812169 
L 176.358353 193.284848 
L 177.374932 179.420297 
L 178.39151 184.359463 
L 179.408089 181.848824 
L 180.424668 176.568115 
L 181.441246 177.591633 
L 182.457825 187.878086 
L 183.474403 186.007035 
L 184.490982 179.796682 
L 185.507561 190.254904 
L 186.524139 185.663717 
L 187.540718 189.177014 
L 188.557296 186.087372 
L 189.573875 184.322623 
L 190.590454 178.204591 
L 191.607032 196.277287 
L 192.623611 184.25427 
L 193.640189 180.721444 
L 194.656768 187.250704 
L 195.673347 192.821247 
L 196.689925 174.017973 
L 197.706504 190.428228 
L 198.723083 191.327247 
L 199.739661 186.145516 
L 200.75624 182.007278 
L 201.772818 190.892939 
L 202.789397 184.224532 
L 203.805976 195.692292 
L 204.822554 167.720181 
L 205.839133 184.166832 
L 206.855711 182.523476 
L 207.87229 186.763134 
L 208.888869 188.084698 
L 209.905447 162.755493 
L 210.922026 147.1708 
L 211.938604 158.179619 
L 212.955183 199.392228 
L 213.971762 182.778024 
L 214.98834 177.659543 
L 216.004919 189.78864 
L 217.021498 182.634882 
L 218.038076 165.705101 
L 219.054655 173.569462 
L 220.071233 182.705233 
L 221.087812 177.497981 
L 222.104391 186.431578 
L 223.120969 174.67931 
L 224.137548 192.806156 
L 225.154126 178.773385 
L 226.170705 181.293789 
L 227.187284 182.441364 
L 228.203862 184.221425 
L 229.220441 182.414955 
L 230.237019 181.491302 
L 231.253598 189.2123 
L 232.270177 171.441422 
L 233.286755 188.51834 
L 234.303334 181.593166 
L 235.319913 182.201463 
L 236.336491 189.605329 
L 237.35307 174.976689 
L 238.369648 178.132909 
L 239.386227 183.78157 
L 240.402806 190.485041 
L 241.419384 195.827667 
L 242.435963 183.245842 
L 243.452541 194.551819 
L 244.46912 177.38369 
L 245.485699 180.997075 
L 246.502277 181.137775 
L 247.518856 160.638106 
L 248.535435 182.27381 
L 249.552013 173.374612 
L 250.568592 190.736482 
L 251.58517 200.469453 
L 252.601749 178.772719 
L 253.618328 178.163756 
L 254.634906 191.303723 
L 255.651485 178.009962 
L 256.668063 184.165722 
L 257.684642 183.296663 
L 258.701221 183.707669 
L 259.717799 170.028868 
L 260.734378 167.962301 
L 261.750956 179.720118 
L 262.767535 178.555232 
L 263.784114 182.213225 
L 264.800692 181.301556 
L 265.817271 180.084519 
L 266.83385 187.377645 
L 267.850428 164.179365 
L 268.867007 182.71877 
L 269.883585 181.725655 
L 270.900164 178.91808 
L 271.916743 177.384577 
L 272.933321 182.588056 
L 273.9499 165.554191 
L 274.966478 171.035965 
L 275.983057 183.169056 
L 276.999636 188.482166 
L 278.016214 168.904152 
L 279.032793 192.188316 
L 280.049371 184.88831 
L 281.06595 190.08957 
L 282.082529 179.641556 
L 283.099107 188.364102 
L 284.115686 194.70406 
L 285.132265 188.857442 
L 286.148843 185.75626 
L 287.165422 168.596341 
L 288.182 189.857214 
L 289.198579 190.321704 
L 290.215158 165.854678 
L 291.231736 179.597615 
L 292.248315 181.071198 
L 293.264893 175.578107 
L 294.281472 172.65513 
L 296.314629 192.067145 
L 297.331208 177.248759 
L 298.347786 172.068138 
L 299.364365 184.903623 
L 300.380944 176.755198 
L 301.397522 175.53128 
L 302.414101 185.901843 
L 303.43068 184.774907 
L 304.447258 185.417602 
L 305.463837 185.239396 
L 306.480415 189.129078 
L 307.496994 189.005466 
L 308.513573 182.610914 
L 309.530151 187.161046 
L 310.54673 180.9862 
L 311.563308 176.790706 
L 312.579887 182.422722 
L 313.596466 185.724524 
L 314.613044 186.297313 
L 315.629623 177.515735 
L 316.646201 176.991548 
L 317.66278 170.620743 
L 318.679359 184.606465 
L 319.695937 172.466494 
L 320.712516 187.400947 
L 321.729095 173.383045 
L 322.745673 175.179307 
L 323.762252 187.12465 
L 324.77883 181.956901 
L 325.795409 179.680837 
L 326.811988 187.686343 
L 327.828566 179.744751 
L 328.845145 163.278349 
L 329.861723 190.022993 
L 330.878302 179.917853 
L 331.894881 172.07635 
L 332.911459 175.33532 
L 333.928038 180.63223 
L 334.944617 179.111155 
L 335.961195 174.067684 
L 336.977774 186.869214 
L 337.994352 180.495968 
L 339.010931 183.992177 
L 340.02751 180.430722 
L 341.044088 193.392704 
L 342.060667 188.626418 
L 343.077245 181.460898 
L 344.093824 186.874762 
L 345.110403 177.562339 
L 346.126981 177.201267 
L 347.14356 188.188337 
L 348.160138 185.818177 
L 349.176717 182.227428 
L 350.193296 182.924273 
L 351.209874 189.25957 
L 352.226453 191.025428 
L 353.243032 178.428513 
L 354.25961 183.163952 
L 355.276189 184.299099 
L 356.292767 162.906403 
L 357.309346 187.4693 
L 358.325925 175.601631 
L 359.342503 188.273778 
L 360.359082 182.085396 
L 361.37566 188.446658 
L 362.392239 184.975305 
L 363.408818 163.550429 
L 364.425396 166.277446 
L 365.441975 189.052292 
L 366.458553 174.66555 
L 367.475132 184.602027 
L 368.491711 185.599137 
L 369.508289 183.566302 
L 370.524868 180.395436 
L 371.541447 190.558276 
L 372.558025 180.854155 
L 373.574604 183.233193 
L 374.591182 169.26367 
L 375.607761 183.708334 
L 376.62434 170.138277 
L 377.640918 175.055695 
L 378.657497 183.073406 
L 379.674075 155.886688 
L 380.690654 184.136872 
L 381.707233 172.172221 
L 382.723811 184.980853 
L 383.74039 179.48177 
L 384.756968 171.547946 
L 385.773547 174.431641 
L 386.790126 192.531856 
L 387.806704 175.298925 
L 388.823283 192.092445 
L 389.839862 194.205616 
L 390.85644 188.878746 
L 391.873019 188.592241 
L 392.889597 185.738062 
L 393.906176 191.232263 
L 394.922755 185.79776 
L 395.939333 181.104487 
L 396.955912 189.045634 
L 397.97249 177.203042 
L 398.989069 182.355479 
L 400.005648 186.759805 
L 401.022226 180.622021 
L 402.038805 188.481279 
L 403.055383 177.875476 
L 404.071962 189.02211 
L 405.088541 179.309334 
L 406.105119 186.048313 
L 407.121698 188.934228 
L 408.138277 188.312837 
L 409.154855 173.99689 
L 410.171434 187.711642 
L 411.188012 174.740339 
L 412.204591 188.130193 
L 413.22117 186.573166 
L 414.237748 192.767097 
L 415.254327 193.811477 
L 416.270905 177.526609 
L 417.287484 169.243919 
L 418.304063 178.247422 
L 419.320641 188.285984 
L 420.33722 189.236046 
L 421.353799 185.187022 
L 422.370377 174.777179 
L 423.386956 166.602788 
L 424.403534 184.697899 
L 425.420113 175.932743 
L 426.436692 183.42538 
L 427.45327 188.060952 
L 428.469849 183.878107 
L 429.486427 184.199455 
L 430.503006 194.451953 
L 431.519585 173.035288 
L 432.536163 170.830906 
L 433.552742 179.233658 
L 434.56932 163.364456 
L 435.585899 181.051446 
L 436.602478 174.093427 
L 437.619056 185.463096 
L 438.635635 190.072482 
L 439.652214 187.736498 
L 440.668792 183.646639 
L 441.685371 180.076973 
L 442.701949 162.052435 
L 443.718528 170.923227 
L 444.735107 183.812861 
L 445.751685 188.06184 
L 446.768264 176.170203 
L 447.784842 178.887898 
L 448.801421 169.954745 
L 449.818 163.818515 
L 450.834578 187.535434 
L 451.851157 185.386754 
L 452.867735 182.508163 
L 453.884314 172.442082 
L 454.900893 174.744112 
L 455.917471 174.312911 
L 456.93405 177.322882 
L 457.950629 194.31791 
L 458.967207 185.989503 
L 459.983786 194.26376 
L 461.000364 181.146209 
L 462.016943 181.954016 
L 463.033522 182.481532 
L 464.0501 177.708588 
L 465.066679 178.827756 
L 466.083257 183.410067 
L 467.099836 178.259184 
L 468.116415 182.801104 
L 469.132993 191.248019 
L 470.149572 165.221082 
L 471.16615 163.666274 
L 472.182729 178.22989 
L 473.199308 168.669577 
L 474.215886 176.375262 
L 475.232465 186.564289 
L 476.249044 177.562561 
L 477.265622 188.56095 
L 478.282201 178.526826 
L 479.298779 189.787752 
L 480.315358 191.000351 
L 481.331937 188.326819 
L 482.348515 183.986628 
L 483.365094 184.546102 
L 484.381672 179.896548 
L 485.398251 184.494393 
L 486.41483 186.570947 
L 487.431408 180.252294 
L 488.447987 188.161041 
L 489.464565 177.85062 
L 490.481144 178.807117 
L 491.497723 183.511931 
L 492.514301 184.548765 
L 493.53088 176.976457 
L 494.547459 183.106473 
L 495.564037 186.534551 
L 496.580616 180.638666 
L 497.597194 168.664029 
L 498.613773 184.430479 
L 499.630352 193.717159 
L 500.64693 199.239988 
L 501.663509 173.859518 
L 502.680087 188.846345 
L 503.696666 186.359452 
L 504.713245 175.784275 
L 505.729823 182.20923 
L 506.746402 182.093385 
L 507.762981 181.371019 
L 508.779559 179.092069 
L 509.796138 185.615559 
L 510.812716 168.4117 
L 511.829295 166.210646 
L 513.862452 186.596468 
L 515.895609 180.735203 
L 516.912188 180.334406 
L 517.928767 182.643537 
L 518.945345 181.612251 
L 519.961924 180.801559 
L 520.978502 188.313947 
L 521.995081 178.671521 
L 523.01166 193.36918 
L 524.028238 186.462647 
L 525.044817 190.091567 
L 526.061396 187.875201 
L 527.077974 175.106072 
L 528.094553 180.388334 
L 529.111131 184.180813 
L 530.12771 187.211201 
L 531.144289 175.562572 
L 532.160867 192.477928 
L 533.177446 188.90338 
L 534.194024 180.73143 
L 535.210603 189.55584 
L 536.227182 175.81135 
L 537.24376 189.34945 
L 538.260339 186.139524 
L 539.276917 185.586043 
L 540.293496 185.160391 
L 541.310075 182.191032 
L 542.326653 187.110447 
L 543.343232 168.168914 
L 544.359811 188.967073 
L 545.376389 178.412313 
L 546.392968 172.864406 
L 547.409546 181.128455 
L 548.426125 177.096075 
L 549.442704 187.365883 
L 550.459282 176.372821 
L 551.475861 178.37747 
L 552.492439 184.250719 
L 553.509018 176.412989 
L 554.525597 183.712551 
L 555.542175 177.288484 
L 556.558754 190.140169 
L 557.575332 175.582767 
L 558.591911 182.846155 
L 560.625068 202.1856 
L 562.658226 178.713021 
L 563.674804 183.988848 
L 564.691383 183.044778 
L 565.707961 180.954021 
L 566.72454 185.654396 
L 567.741119 194.797934 
L 568.757697 184.963099 
L 569.774276 180.115144 
L 570.790854 173.658898 
L 571.807433 185.374326 
L 572.824012 185.151292 
L 573.84059 182.016821 
L 574.857169 165.753036 
L 575.873747 182.901415 
L 576.890326 193.465273 
L 577.906905 160.095942 
L 578.923483 164.813849 
L 579.940062 181.403864 
L 580.956641 177.126478 
L 581.973219 168.138288 
L 584.006376 190.348335 
L 585.022955 160.672282 
L 586.039534 191.275316 
L 587.056112 184.954444 
L 588.072691 190.931776 
L 589.089269 179.101168 
L 590.105848 184.761591 
L 591.122427 155.616605 
L 592.139005 165.614111 
L 593.155584 187.48661 
L 594.172163 185.564738 
L 595.188741 180.141553 
L 596.20532 181.0692 
L 597.221898 196.559132 
L 599.255056 178.964462 
L 600.271634 185.752709 
L 601.288213 175.290713 
L 602.304791 174.723695 
L 603.32137 176.223687 
L 604.337949 181.437596 
L 605.354527 180.696144 
L 606.371106 193.25511 
L 607.387684 193.892479 
L 608.404263 187.84169 
L 609.420842 190.042744 
L 610.43742 190.451974 
L 611.453999 194.803926 
L 612.470578 180.271602 
L 613.487156 172.32424 
L 614.503735 188.665033 
L 615.520313 190.55295 
L 616.536892 191.000795 
L 617.553471 183.829062 
L 618.570049 171.130061 
L 619.586628 168.404154 
L 620.603206 177.753417 
L 621.619785 179.089184 
L 622.636364 190.360541 
L 622.636364 190.360541 
" clip-path="url(#pcc778f0b09)" style="fill: none; stroke: #1f77b4; stroke-width: 1.5; stroke-linecap: square"/>
   </g>
   <g id="line2d_28">
    <path d="M 115.363636 191.283971 
L 116.380215 213.286962 
L 117.396794 192.282634 
L 118.413372 180.1815 
L 119.429951 196.980568 
L 120.446529 200.141892 
L 121.463108 197.633028 
L 122.479687 204.492956 
L 123.496265 193.117073 
L 124.512844 211.289192 
L 125.529422 214.231253 
L 126.546001 212.922783 
L 127.56258 307.8 
L 128.579158 217.072783 
L 129.595737 218.324663 
L 130.612316 198.174303 
L 131.628894 222.047679 
L 132.645473 210.24925 
L 133.662051 208.12232 
L 134.67863 189.618867 
L 135.695209 191.300172 
L 136.711787 216.112513 
L 137.728366 176.715251 
L 138.744944 216.922762 
L 139.761523 204.449459 
L 140.778102 216.777179 
L 141.79468 215.007769 
L 142.811259 172.117628 
L 143.827837 216.436302 
L 144.844416 215.304705 
L 145.860995 183.372118 
L 146.877573 218.287379 
L 147.894152 207.155392 
L 148.910731 211.500021 
L 149.927309 209.284098 
L 150.943888 214.014433 
L 151.960466 208.545753 
L 152.977045 219.668641 
L 153.993624 218.152449 
L 156.026781 195.6286 
L 157.043359 196.783276 
L 158.059938 200.883122 
L 159.076517 210.960299 
L 160.093095 205.711769 
L 161.109674 194.392255 
L 162.126253 216.5375 
L 163.142831 201.361592 
L 164.15941 203.935036 
L 165.175988 203.690919 
L 166.192567 207.514911 
L 167.209146 210.199317 
L 168.225724 216.260537 
L 169.242303 184.794436 
L 170.258881 219.436508 
L 171.27546 197.351849 
L 172.292039 203.400418 
L 173.308617 204.419721 
L 174.325196 205.095927 
L 175.341774 213.120518 
L 176.358353 217.258978 
L 177.374932 200.699811 
L 178.39151 214.165785 
L 179.408089 215.58655 
L 180.424668 208.582593 
L 181.441246 191.922672 
L 182.457825 215.068133 
L 183.474403 199.113934 
L 184.490982 199.064001 
L 185.507561 190.351442 
L 186.524139 212.980483 
L 187.540718 210.783424 
L 188.557296 211.173125 
L 189.573875 212.032641 
L 190.590454 195.966814 
L 191.607032 215.01931 
L 192.623611 202.105929 
L 193.640189 180.209906 
L 194.656768 202.752619 
L 195.673347 215.762759 
L 196.689925 201.243084 
L 197.706504 203.972985 
L 198.723083 199.070437 
L 199.739661 215.214826 
L 200.75624 195.27352 
L 201.772818 201.849606 
L 202.789397 200.990089 
L 203.805976 178.055679 
L 204.822554 210.439662 
L 205.839133 197.231121 
L 206.855711 205.54355 
L 207.87229 216.467149 
L 208.888869 194.683421 
L 209.905447 186.731177 
L 210.922026 195.726913 
L 211.938604 209.3074 
L 212.955183 218.468914 
L 213.971762 187.179466 
L 214.98834 202.391103 
L 216.004919 199.875138 
L 217.021498 186.26358 
L 218.038076 210.050849 
L 219.054655 199.698485 
L 220.071233 150.217166 
L 221.087812 210.947427 
L 222.104391 214.468048 
L 223.120969 216.690406 
L 224.137548 179.032815 
L 225.154126 212.785855 
L 226.170705 212.430997 
L 227.187284 192.557822 
L 228.203862 206.671595 
L 229.220441 206.820729 
L 230.237019 204.277467 
L 231.253598 217.002433 
L 232.270177 192.861415 
L 233.286755 210.959189 
L 234.303334 206.314961 
L 235.319913 211.922344 
L 236.336491 184.057645 
L 237.35307 188.168364 
L 238.369648 212.660245 
L 239.386227 196.174758 
L 240.402806 188.142843 
L 241.419384 213.957176 
L 242.435963 214.69086 
L 243.452541 192.37784 
L 245.485699 197.58953 
L 246.502277 173.346427 
L 247.518856 182.241187 
L 248.535435 203.405523 
L 249.552013 216.47181 
L 250.568592 218.849738 
L 251.58517 203.201352 
L 252.601749 213.166013 
L 253.618328 211.488924 
L 254.634906 197.98256 
L 255.651485 208.998924 
L 256.668063 205.867338 
L 257.684642 201.738643 
L 258.701221 203.939253 
L 259.717799 202.231317 
L 260.734378 198.074437 
L 261.750956 211.538636 
L 262.767535 216.068128 
L 263.784114 211.704192 
L 264.800692 213.150256 
L 265.817271 204.382437 
L 266.83385 200.135456 
L 267.850428 202.429052 
L 268.867007 196.893351 
L 269.883585 198.897113 
L 270.900164 206.491614 
L 271.916743 212.857093 
L 272.933321 163.176929 
L 273.9499 211.269884 
L 274.966478 213.987358 
L 275.983057 199.829865 
L 276.999636 213.916785 
L 278.016214 215.439414 
L 279.032793 200.339405 
L 280.049371 205.186694 
L 281.06595 205.425042 
L 282.082529 213.046395 
L 283.099107 207.851571 
L 284.115686 217.09431 
L 285.132265 166.553742 
L 286.148843 191.205854 
L 287.165422 194.458389 
L 288.182 193.488576 
L 289.198579 206.66871 
L 290.215158 215.632933 
L 291.231736 213.220384 
L 292.248315 153.696509 
L 293.264893 186.333709 
L 294.281472 201.054004 
L 295.298051 212.680662 
L 296.314629 181.045676 
L 297.331208 219.76074 
L 298.347786 177.762516 
L 299.364365 214.509991 
L 300.380944 205.963876 
L 301.397522 209.480058 
L 302.414101 199.722009 
L 303.43068 212.600769 
L 304.447258 214.569467 
L 305.463837 194.162784 
L 306.480415 218.834203 
L 307.496994 218.96181 
L 308.513573 198.635907 
L 309.530151 203.761713 
L 310.54673 199.707362 
L 311.563308 196.123715 
L 312.579887 214.323574 
L 313.596466 211.206857 
L 314.613044 210.852665 
L 315.629623 207.265689 
L 316.646201 202.969218 
L 317.66278 217.505093 
L 318.679359 186.527228 
L 319.695937 195.360736 
L 320.712516 214.384604 
L 321.729095 189.854329 
L 322.745673 211.020662 
L 323.762252 178.203703 
L 324.77883 191.712065 
L 325.795409 188.202762 
L 326.811988 208.971405 
L 327.828566 208.789649 
L 328.845145 216.055256 
L 329.861723 185.878984 
L 330.878302 207.553082 
L 331.894881 206.84847 
L 332.911459 204.358469 
L 333.928038 207.746379 
L 334.944617 216.458716 
L 335.961195 200.96368 
L 336.977774 188.350565 
L 337.994352 212.3784 
L 339.010931 203.239079 
L 340.02751 197.608172 
L 341.044088 215.746558 
L 342.060667 201.394881 
L 343.077245 202.283469 
L 344.093824 206.248828 
L 345.110403 197.651448 
L 346.126981 214.550826 
L 347.14356 194.807255 
L 348.160138 209.272558 
L 349.176717 204.909509 
L 350.193296 202.534245 
L 351.209874 184.293773 
L 352.226453 203.606143 
L 353.243032 215.34332 
L 354.25961 205.335606 
L 355.276189 198.953039 
L 356.292767 204.513373 
L 357.309346 195.10064 
L 358.325925 207.835149 
L 359.342503 212.162245 
L 360.359082 213.182657 
L 361.37566 191.758225 
L 362.392239 192.096217 
L 363.408818 216.715705 
L 364.425396 198.826097 
L 365.441975 167.932341 
L 366.458553 199.478557 
L 367.475132 215.081005 
L 368.491711 210.304288 
L 369.508289 201.110373 
L 370.524868 208.450325 
L 371.541447 210.258127 
L 372.558025 189.59046 
L 374.591182 216.943401 
L 375.607761 205.64275 
L 376.62434 148.624188 
L 377.640918 157.161648 
L 378.657497 203.414844 
L 379.674075 219.242545 
L 380.690654 209.878635 
L 381.707233 190.503904 
L 382.723811 197.448608 
L 383.74039 200.862482 
L 384.756968 202.061988 
L 385.773547 197.391573 
L 386.790126 196.024292 
L 387.806704 213.230815 
L 388.823283 193.92488 
L 389.839862 214.035293 
L 390.85644 210.292526 
L 391.873019 194.773966 
L 392.889597 213.724154 
L 393.906176 216.697064 
L 394.922755 206.646961 
L 395.939333 213.50689 
L 396.955912 212.753898 
L 397.97249 195.507873 
L 398.989069 211.2417 
L 400.005648 217.68685 
L 401.022226 215.453395 
L 402.038805 190.8723 
L 403.055383 208.036213 
L 404.071962 211.225499 
L 405.088541 220.302904 
L 406.105119 197.647231 
L 407.121698 197.675637 
L 408.138277 219.2097 
L 409.154855 194.178985 
L 410.171434 204.274138 
L 411.188012 202.104154 
L 412.204591 195.282175 
L 413.22117 217.520184 
L 414.237748 201.405755 
L 415.254327 216.2055 
L 416.270905 186.921145 
L 417.287484 219.694163 
L 418.304063 180.385005 
L 419.320641 199.041809 
L 420.33722 210.633403 
L 421.353799 181.436709 
L 422.370377 199.768835 
L 423.386956 212.422785 
L 424.403534 202.072418 
L 425.420113 196.86672 
L 426.436692 206.484512 
L 427.45327 200.508512 
L 428.469849 186.24738 
L 429.486427 206.360012 
L 430.503006 205.99317 
L 431.519585 191.592891 
L 432.536163 217.511307 
L 433.552742 217.229684 
L 434.56932 199.966127 
L 435.585899 214.509991 
L 436.602478 192.586672 
L 437.619056 190.407367 
L 438.635635 209.032213 
L 439.652214 209.788534 
L 440.668792 173.266756 
L 441.685371 205.096149 
L 442.701949 200.276822 
L 443.718528 215.379716 
L 444.735107 207.134975 
L 445.751685 210.342237 
L 446.768264 218.033941 
L 447.784842 194.769306 
L 448.801421 208.783657 
L 449.818 211.613646 
L 450.834578 218.631807 
L 451.851157 204.824512 
L 452.867735 221.158869 
L 453.884314 206.235068 
L 454.900893 218.660657 
L 455.917471 195.442183 
L 456.93405 215.714379 
L 457.950629 193.588886 
L 458.967207 212.648261 
L 459.983786 210.524216 
L 461.000364 206.96032 
L 462.016943 213.328462 
L 463.033522 212.745465 
L 464.0501 214.438975 
L 465.066679 205.657175 
L 466.083257 214.3289 
L 467.099836 175.452053 
L 468.116415 214.548384 
L 469.132993 211.186218 
L 471.16615 171.285852 
L 472.182729 169.936547 
L 473.199308 211.673566 
L 474.215886 205.389756 
L 475.232465 192.436428 
L 476.249044 198.212474 
L 477.265622 215.042612 
L 478.282201 200.569763 
L 479.298779 217.223692 
L 480.315358 211.666686 
L 481.331937 208.402833 
L 482.348515 216.949615 
L 483.365094 190.928891 
L 484.381672 206.006707 
L 485.398251 211.506013 
L 486.41483 180.050342 
L 487.431408 196.367167 
L 488.447987 216.769189 
L 489.464565 216.883481 
L 490.481144 198.773057 
L 491.497723 195.933303 
L 492.514301 199.075319 
L 493.53088 200.928394 
L 494.547459 195.789939 
L 495.564037 190.041412 
L 496.580616 199.870033 
L 497.597194 221.580305 
L 498.613773 206.176258 
L 499.630352 210.752133 
L 500.64693 187.573827 
L 501.663509 208.856448 
L 502.680087 198.643231 
L 503.696666 204.32629 
L 504.713245 201.431277 
L 505.729823 204.069079 
L 506.746402 198.430849 
L 507.762981 200.794351 
L 508.779559 202.291902 
L 509.796138 207.445004 
L 510.812716 203.886656 
L 511.829295 210.792301 
L 512.845874 202.536686 
L 513.862452 184.851249 
L 514.879031 204.410622 
L 515.895609 198.047806 
L 516.912188 194.066469 
L 517.928767 201.064878 
L 518.945345 207.024012 
L 519.961924 206.527122 
L 520.978502 204.922159 
L 521.995081 200.681392 
L 523.01166 215.41012 
L 524.028238 205.968536 
L 525.044817 194.900685 
L 526.061396 217.090315 
L 527.077974 213.907465 
L 528.094553 218.210593 
L 529.111131 216.460048 
L 530.12771 206.617667 
L 531.144289 202.288352 
L 532.160867 188.44111 
L 533.177446 215.42055 
L 534.194024 211.03997 
L 535.210603 211.80317 
L 536.227182 187.241383 
L 537.24376 211.636726 
L 538.260339 170.254344 
L 539.276917 214.855307 
L 540.293496 204.823403 
L 541.310075 208.990047 
L 542.326653 182.103816 
L 543.343232 214.208173 
L 544.359811 218.221468 
L 545.376389 208.155831 
L 546.392968 214.218604 
L 547.409546 200.21202 
L 548.426125 208.803186 
L 550.459282 217.591866 
L 551.475861 201.214234 
L 552.492439 210.760344 
L 553.509018 218.606952 
L 554.525597 209.233499 
L 555.542175 213.207069 
L 556.558754 210.241039 
L 557.575332 211.88617 
L 558.591911 212.212622 
L 559.60849 220.450706 
L 560.625068 200.064662 
L 561.641647 216.747219 
L 562.658226 214.339775 
L 563.674804 207.956764 
L 564.691383 183.065195 
L 565.707961 190.253351 
L 566.72454 212.506229 
L 567.741119 194.493453 
L 568.757697 209.203539 
L 569.774276 199.507186 
L 570.790854 213.699743 
L 571.807433 202.312319 
L 572.824012 198.833865 
L 573.84059 198.616822 
L 574.857169 160.385111 
L 575.873747 213.623178 
L 576.890326 219.515735 
L 577.906905 217.133369 
L 578.923483 192.120629 
L 579.940062 186.663712 
L 580.956641 196.4748 
L 581.973219 186.801971 
L 582.989798 216.761422 
L 584.006376 216.458716 
L 585.022955 214.267649 
L 586.039534 189.889394 
L 587.056112 212.885499 
L 588.072691 207.40306 
L 589.089269 212.18932 
L 590.105848 205.279903 
L 591.122427 195.36118 
L 592.139005 203.68537 
L 593.155584 208.029111 
L 594.172163 208.850012 
L 595.188741 199.074654 
L 596.20532 201.874683 
L 597.221898 210.559058 
L 598.238477 206.292547 
L 599.255056 205.443683 
L 600.271634 214.89947 
L 601.288213 219.084978 
L 602.304791 201.132343 
L 603.32137 204.903518 
L 604.337949 183.436254 
L 605.354527 204.752608 
L 606.371106 216.632262 
L 607.387684 188.83303 
L 608.404263 215.65335 
L 609.420842 205.815186 
L 610.43742 210.482494 
L 611.453999 206.895961 
L 612.470578 147.457749 
L 613.487156 206.055531 
L 614.503735 197.040266 
L 615.520313 216.18486 
L 616.536892 169.590344 
L 617.553471 174.723251 
L 618.570049 181.926275 
L 619.586628 211.326475 
L 620.603206 206.975189 
L 621.619785 205.160507 
L 622.636364 205.837822 
L 622.636364 205.837822 
" clip-path="url(#pcc778f0b09)" style="fill: none; stroke: #ff7f0e; stroke-width: 1.5; stroke-linecap: square"/>
   </g>
   <g id="patch_3">
    <path d="M 90 320.4 
L 90 43.2 
" style="fill: none; stroke: #000000; stroke-width: 0.8; stroke-linejoin: miter; stroke-linecap: square"/>
   </g>
   <g id="patch_4">
    <path d="M 648 320.4 
L 648 43.2 
" style="fill: none; stroke: #000000; stroke-width: 0.8; stroke-linejoin: miter; stroke-linecap: square"/>
   </g>
   <g id="patch_5">
    <path d="M 90 320.4 
L 648 320.4 
" style="fill: none; stroke: #000000; stroke-width: 0.8; stroke-linejoin: miter; stroke-linecap: square"/>
   </g>
   <g id="patch_6">
    <path d="M 90 43.2 
L 648 43.2 
" style="fill: none; stroke: #000000; stroke-width: 0.8; stroke-linejoin: miter; stroke-linecap: square"/>
   </g>
   <g id="text_16">
    <!-- model train and validation loss over time -->
    <g transform="translate(245.555625 37.2) scale(0.12 -0.12)">
     <defs>
      <path id="DejaVuSans-6d" d="M 3328 2828 
Q 3544 3216 3844 3400 
Q 4144 3584 4550 3584 
Q 5097 3584 5394 3201 
Q 5691 2819 5691 2113 
L 5691 0 
L 5113 0 
L 5113 2094 
Q 5113 2597 4934 2840 
Q 4756 3084 4391 3084 
Q 3944 3084 3684 2787 
Q 3425 2491 3425 1978 
L 3425 0 
L 2847 0 
L 2847 2094 
Q 2847 2600 2669 2842 
Q 2491 3084 2119 3084 
Q 1678 3084 1418 2786 
Q 1159 2488 1159 1978 
L 1159 0 
L 581 0 
L 581 3500 
L 1159 3500 
L 1159 2956 
Q 1356 3278 1631 3431 
Q 1906 3584 2284 3584 
Q 2666 3584 2933 3390 
Q 3200 3197 3328 2828 
z
" transform="scale(0.015625)"/>
      <path id="DejaVuSans-64" d="M 2906 2969 
L 2906 4863 
L 3481 4863 
L 3481 0 
L 2906 0 
L 2906 525 
Q 2725 213 2448 61 
Q 2172 -91 1784 -91 
Q 1150 -91 751 415 
Q 353 922 353 1747 
Q 353 2572 751 3078 
Q 1150 3584 1784 3584 
Q 2172 3584 2448 3432 
Q 2725 3281 2906 2969 
z
M 947 1747 
Q 947 1113 1208 752 
Q 1469 391 1925 391 
Q 2381 391 2643 752 
Q 2906 1113 2906 1747 
Q 2906 2381 2643 2742 
Q 2381 3103 1925 3103 
Q 1469 3103 1208 2742 
Q 947 2381 947 1747 
z
" transform="scale(0.015625)"/>
      <path id="DejaVuSans-20" transform="scale(0.015625)"/>
      <path id="DejaVuSans-74" d="M 1172 4494 
L 1172 3500 
L 2356 3500 
L 2356 3053 
L 1172 3053 
L 1172 1153 
Q 1172 725 1289 603 
Q 1406 481 1766 481 
L 2356 481 
L 2356 0 
L 1766 0 
Q 1100 0 847 248 
Q 594 497 594 1153 
L 594 3053 
L 172 3053 
L 172 3500 
L 594 3500 
L 594 4494 
L 1172 4494 
z
" transform="scale(0.015625)"/>
      <path id="DejaVuSans-72" d="M 2631 2963 
Q 2534 3019 2420 3045 
Q 2306 3072 2169 3072 
Q 1681 3072 1420 2755 
Q 1159 2438 1159 1844 
L 1159 0 
L 581 0 
L 581 3500 
L 1159 3500 
L 1159 2956 
Q 1341 3275 1631 3429 
Q 1922 3584 2338 3584 
Q 2397 3584 2469 3576 
Q 2541 3569 2628 3553 
L 2631 2963 
z
" transform="scale(0.015625)"/>
      <path id="DejaVuSans-61" d="M 2194 1759 
Q 1497 1759 1228 1600 
Q 959 1441 959 1056 
Q 959 750 1161 570 
Q 1363 391 1709 391 
Q 2188 391 2477 730 
Q 2766 1069 2766 1631 
L 2766 1759 
L 2194 1759 
z
M 3341 1997 
L 3341 0 
L 2766 0 
L 2766 531 
Q 2569 213 2275 61 
Q 1981 -91 1556 -91 
Q 1019 -91 701 211 
Q 384 513 384 1019 
Q 384 1609 779 1909 
Q 1175 2209 1959 2209 
L 2766 2209 
L 2766 2266 
Q 2766 2663 2505 2880 
Q 2244 3097 1772 3097 
Q 1472 3097 1187 3025 
Q 903 2953 641 2809 
L 641 3341 
Q 956 3463 1253 3523 
Q 1550 3584 1831 3584 
Q 2591 3584 2966 3190 
Q 3341 2797 3341 1997 
z
" transform="scale(0.015625)"/>
      <path id="DejaVuSans-69" d="M 603 3500 
L 1178 3500 
L 1178 0 
L 603 0 
L 603 3500 
z
M 603 4863 
L 1178 4863 
L 1178 4134 
L 603 4134 
L 603 4863 
z
" transform="scale(0.015625)"/>
      <path id="DejaVuSans-6e" d="M 3513 2113 
L 3513 0 
L 2938 0 
L 2938 2094 
Q 2938 2591 2744 2837 
Q 2550 3084 2163 3084 
Q 1697 3084 1428 2787 
Q 1159 2491 1159 1978 
L 1159 0 
L 581 0 
L 581 3500 
L 1159 3500 
L 1159 2956 
Q 1366 3272 1645 3428 
Q 1925 3584 2291 3584 
Q 2894 3584 3203 3211 
Q 3513 2838 3513 2113 
z
" transform="scale(0.015625)"/>
      <path id="DejaVuSans-76" d="M 191 3500 
L 800 3500 
L 1894 563 
L 2988 3500 
L 3597 3500 
L 2284 0 
L 1503 0 
L 191 3500 
z
" transform="scale(0.015625)"/>
     </defs>
     <use xlink:href="#DejaVuSans-6d"/>
     <use xlink:href="#DejaVuSans-6f" x="97.412109"/>
     <use xlink:href="#DejaVuSans-64" x="158.59375"/>
     <use xlink:href="#DejaVuSans-65" x="222.070312"/>
     <use xlink:href="#DejaVuSans-6c" x="283.59375"/>
     <use xlink:href="#DejaVuSans-20" x="311.376953"/>
     <use xlink:href="#DejaVuSans-74" x="343.164062"/>
     <use xlink:href="#DejaVuSans-72" x="382.373047"/>
     <use xlink:href="#DejaVuSans-61" x="423.486328"/>
     <use xlink:href="#DejaVuSans-69" x="484.765625"/>
     <use xlink:href="#DejaVuSans-6e" x="512.548828"/>
     <use xlink:href="#DejaVuSans-20" x="575.927734"/>
     <use xlink:href="#DejaVuSans-61" x="607.714844"/>
     <use xlink:href="#DejaVuSans-6e" x="668.994141"/>
     <use xlink:href="#DejaVuSans-64" x="732.373047"/>
     <use xlink:href="#DejaVuSans-20" x="795.849609"/>
     <use xlink:href="#DejaVuSans-76" x="827.636719"/>
     <use xlink:href="#DejaVuSans-61" x="886.816406"/>
     <use xlink:href="#DejaVuSans-6c" x="948.095703"/>
     <use xlink:href="#DejaVuSans-69" x="975.878906"/>
     <use xlink:href="#DejaVuSans-64" x="1003.662109"/>
     <use xlink:href="#DejaVuSans-61" x="1067.138672"/>
     <use xlink:href="#DejaVuSans-74" x="1128.417969"/>
     <use xlink:href="#DejaVuSans-69" x="1167.626953"/>
     <use xlink:href="#DejaVuSans-6f" x="1195.410156"/>
     <use xlink:href="#DejaVuSans-6e" x="1256.591797"/>
     <use xlink:href="#DejaVuSans-20" x="1319.970703"/>
     <use xlink:href="#DejaVuSans-6c" x="1351.757812"/>
     <use xlink:href="#DejaVuSans-6f" x="1379.541016"/>
     <use xlink:href="#DejaVuSans-73" x="1440.722656"/>
     <use xlink:href="#DejaVuSans-73" x="1492.822266"/>
     <use xlink:href="#DejaVuSans-20" x="1544.921875"/>
     <use xlink:href="#DejaVuSans-6f" x="1576.708984"/>
     <use xlink:href="#DejaVuSans-76" x="1637.890625"/>
     <use xlink:href="#DejaVuSans-65" x="1697.070312"/>
     <use xlink:href="#DejaVuSans-72" x="1758.59375"/>
     <use xlink:href="#DejaVuSans-20" x="1799.707031"/>
     <use xlink:href="#DejaVuSans-74" x="1831.494141"/>
     <use xlink:href="#DejaVuSans-69" x="1870.703125"/>
     <use xlink:href="#DejaVuSans-6d" x="1898.486328"/>
     <use xlink:href="#DejaVuSans-65" x="1995.898438"/>
    </g>
   </g>
   <g id="legend_1">
    <g id="patch_7">
     <path d="M 559.765625 80.55625 
L 641 80.55625 
Q 643 80.55625 643 78.55625 
L 643 50.2 
Q 643 48.2 641 48.2 
L 559.765625 48.2 
Q 557.765625 48.2 557.765625 50.2 
L 557.765625 78.55625 
Q 557.765625 80.55625 559.765625 80.55625 
z
" style="fill: #ffffff; opacity: 0.8; stroke: #cccccc; stroke-linejoin: miter"/>
    </g>
    <g id="line2d_29">
     <path d="M 561.765625 56.298437 
L 571.765625 56.298437 
L 581.765625 56.298437 
" style="fill: none; stroke: #1f77b4; stroke-width: 1.5; stroke-linecap: square"/>
    </g>
    <g id="text_17">
     <!-- train -->
     <g transform="translate(589.765625 59.798437) scale(0.1 -0.1)">
      <use xlink:href="#DejaVuSans-74"/>
      <use xlink:href="#DejaVuSans-72" x="39.208984"/>
      <use xlink:href="#DejaVuSans-61" x="80.322266"/>
      <use xlink:href="#DejaVuSans-69" x="141.601562"/>
      <use xlink:href="#DejaVuSans-6e" x="169.384766"/>
     </g>
    </g>
    <g id="line2d_30">
     <path d="M 561.765625 70.976562 
L 571.765625 70.976562 
L 581.765625 70.976562 
" style="fill: none; stroke: #ff7f0e; stroke-width: 1.5; stroke-linecap: square"/>
    </g>
    <g id="text_18">
     <!-- validation -->
     <g transform="translate(589.765625 74.476562) scale(0.1 -0.1)">
      <use xlink:href="#DejaVuSans-76"/>
      <use xlink:href="#DejaVuSans-61" x="59.179688"/>
      <use xlink:href="#DejaVuSans-6c" x="120.458984"/>
      <use xlink:href="#DejaVuSans-69" x="148.242188"/>
      <use xlink:href="#DejaVuSans-64" x="176.025391"/>
      <use xlink:href="#DejaVuSans-61" x="239.501953"/>
      <use xlink:href="#DejaVuSans-74" x="300.78125"/>
      <use xlink:href="#DejaVuSans-69" x="339.990234"/>
      <use xlink:href="#DejaVuSans-6f" x="367.773438"/>
      <use xlink:href="#DejaVuSans-6e" x="428.955078"/>
     </g>
    </g>
   </g>
  </g>
 </g>
 <defs>
  <clipPath id="pcc778f0b09">
   <rect x="90" y="43.2" width="558" height="277.2"/>
  </clipPath>
 </defs>
</svg>
