<?xml version="1.0" encoding="utf-8" standalone="no"?>
<!DOCTYPE svg PUBLIC "-//W3C//DTD SVG 1.1//EN"
  "http://www.w3.org/Graphics/SVG/1.1/DTD/svg11.dtd">
<svg xmlns:xlink="http://www.w3.org/1999/xlink" width="720pt" height="360pt" viewBox="0 0 720 360" xmlns="http://www.w3.org/2000/svg" version="1.1">
 <metadata>
  <rdf:RDF xmlns:dc="http://purl.org/dc/elements/1.1/" xmlns:cc="http://creativecommons.org/ns#" xmlns:rdf="http://www.w3.org/1999/02/22-rdf-syntax-ns#">
   <cc:Work>
    <dc:type rdf:resource="http://purl.org/dc/dcmitype/StillImage"/>
    <dc:date>2023-05-24T11:15:07.333200</dc:date>
    <dc:format>image/svg+xml</dc:format>
    <dc:creator>
     <cc:Agent>
      <dc:title>Matplotlib v3.7.1, https://matplotlib.org/</dc:title>
     </cc:Agent>
    </dc:creator>
   </cc:Work>
  </rdf:RDF>
 </metadata>
 <defs>
  <style type="text/css">*{stroke-linejoin: round; stroke-linecap: butt}</style>
 </defs>
 <g id="figure_1">
  <g id="patch_1">
   <path d="M 0 360 
L 720 360 
L 720 0 
L 0 0 
z
" style="fill: #ffffff"/>
  </g>
  <g id="axes_1">
   <g id="patch_2">
    <path d="M 90 320.4 
L 648 320.4 
L 648 43.2 
L 90 43.2 
z
" style="fill: #ffffff"/>
   </g>
   <g id="matplotlib.axis_1">
    <g id="xtick_1">
     <g id="line2d_1">
      <path d="M 115.363636 320.4 
L 115.363636 43.2 
" clip-path="url(#pde8b1f5a01)" style="fill: none; stroke: #b0b0b0; stroke-width: 0.8; stroke-linecap: square"/>
     </g>
     <g id="line2d_2">
      <defs>
       <path id="m93f1a52c08" d="M 0 0 
L 0 3.5 
" style="stroke: #000000; stroke-width: 0.8"/>
      </defs>
      <g>
       <use xlink:href="#m93f1a52c08" x="115.363636" y="320.4" style="stroke: #000000; stroke-width: 0.8"/>
      </g>
     </g>
     <g id="text_1">
      <!-- 0 -->
      <g transform="translate(112.182386 334.998438) scale(0.1 -0.1)">
       <defs>
        <path id="DejaVuSans-30" d="M 2034 4250 
Q 1547 4250 1301 3770 
Q 1056 3291 1056 2328 
Q 1056 1369 1301 889 
Q 1547 409 2034 409 
Q 2525 409 2770 889 
Q 3016 1369 3016 2328 
Q 3016 3291 2770 3770 
Q 2525 4250 2034 4250 
z
M 2034 4750 
Q 2819 4750 3233 4129 
Q 3647 3509 3647 2328 
Q 3647 1150 3233 529 
Q 2819 -91 2034 -91 
Q 1250 -91 836 529 
Q 422 1150 422 2328 
Q 422 3509 836 4129 
Q 1250 4750 2034 4750 
z
" transform="scale(0.015625)"/>
       </defs>
       <use xlink:href="#DejaVuSans-30"/>
      </g>
     </g>
    </g>
    <g id="xtick_2">
     <g id="line2d_3">
      <path d="M 217.021498 320.4 
L 217.021498 43.2 
" clip-path="url(#pde8b1f5a01)" style="fill: none; stroke: #b0b0b0; stroke-width: 0.8; stroke-linecap: square"/>
     </g>
     <g id="line2d_4">
      <g>
       <use xlink:href="#m93f1a52c08" x="217.021498" y="320.4" style="stroke: #000000; stroke-width: 0.8"/>
      </g>
     </g>
     <g id="text_2">
      <!-- 100 -->
      <g transform="translate(207.477748 334.998438) scale(0.1 -0.1)">
       <defs>
        <path id="DejaVuSans-31" d="M 794 531 
L 1825 531 
L 1825 4091 
L 703 3866 
L 703 4441 
L 1819 4666 
L 2450 4666 
L 2450 531 
L 3481 531 
L 3481 0 
L 794 0 
L 794 531 
z
" transform="scale(0.015625)"/>
       </defs>
       <use xlink:href="#DejaVuSans-31"/>
       <use xlink:href="#DejaVuSans-30" x="63.623047"/>
       <use xlink:href="#DejaVuSans-30" x="127.246094"/>
      </g>
     </g>
    </g>
    <g id="xtick_3">
     <g id="line2d_5">
      <path d="M 318.679359 320.4 
L 318.679359 43.2 
" clip-path="url(#pde8b1f5a01)" style="fill: none; stroke: #b0b0b0; stroke-width: 0.8; stroke-linecap: square"/>
     </g>
     <g id="line2d_6">
      <g>
       <use xlink:href="#m93f1a52c08" x="318.679359" y="320.4" style="stroke: #000000; stroke-width: 0.8"/>
      </g>
     </g>
     <g id="text_3">
      <!-- 200 -->
      <g transform="translate(309.135609 334.998438) scale(0.1 -0.1)">
       <defs>
        <path id="DejaVuSans-32" d="M 1228 531 
L 3431 531 
L 3431 0 
L 469 0 
L 469 531 
Q 828 903 1448 1529 
Q 2069 2156 2228 2338 
Q 2531 2678 2651 2914 
Q 2772 3150 2772 3378 
Q 2772 3750 2511 3984 
Q 2250 4219 1831 4219 
Q 1534 4219 1204 4116 
Q 875 4013 500 3803 
L 500 4441 
Q 881 4594 1212 4672 
Q 1544 4750 1819 4750 
Q 2544 4750 2975 4387 
Q 3406 4025 3406 3419 
Q 3406 3131 3298 2873 
Q 3191 2616 2906 2266 
Q 2828 2175 2409 1742 
Q 1991 1309 1228 531 
z
" transform="scale(0.015625)"/>
       </defs>
       <use xlink:href="#DejaVuSans-32"/>
       <use xlink:href="#DejaVuSans-30" x="63.623047"/>
       <use xlink:href="#DejaVuSans-30" x="127.246094"/>
      </g>
     </g>
    </g>
    <g id="xtick_4">
     <g id="line2d_7">
      <path d="M 420.33722 320.4 
L 420.33722 43.2 
" clip-path="url(#pde8b1f5a01)" style="fill: none; stroke: #b0b0b0; stroke-width: 0.8; stroke-linecap: square"/>
     </g>
     <g id="line2d_8">
      <g>
       <use xlink:href="#m93f1a52c08" x="420.33722" y="320.4" style="stroke: #000000; stroke-width: 0.8"/>
      </g>
     </g>
     <g id="text_4">
      <!-- 300 -->
      <g transform="translate(410.79347 334.998438) scale(0.1 -0.1)">
       <defs>
        <path id="DejaVuSans-33" d="M 2597 2516 
Q 3050 2419 3304 2112 
Q 3559 1806 3559 1356 
Q 3559 666 3084 287 
Q 2609 -91 1734 -91 
Q 1441 -91 1130 -33 
Q 819 25 488 141 
L 488 750 
Q 750 597 1062 519 
Q 1375 441 1716 441 
Q 2309 441 2620 675 
Q 2931 909 2931 1356 
Q 2931 1769 2642 2001 
Q 2353 2234 1838 2234 
L 1294 2234 
L 1294 2753 
L 1863 2753 
Q 2328 2753 2575 2939 
Q 2822 3125 2822 3475 
Q 2822 3834 2567 4026 
Q 2313 4219 1838 4219 
Q 1578 4219 1281 4162 
Q 984 4106 628 3988 
L 628 4550 
Q 988 4650 1302 4700 
Q 1616 4750 1894 4750 
Q 2613 4750 3031 4423 
Q 3450 4097 3450 3541 
Q 3450 3153 3228 2886 
Q 3006 2619 2597 2516 
z
" transform="scale(0.015625)"/>
       </defs>
       <use xlink:href="#DejaVuSans-33"/>
       <use xlink:href="#DejaVuSans-30" x="63.623047"/>
       <use xlink:href="#DejaVuSans-30" x="127.246094"/>
      </g>
     </g>
    </g>
    <g id="xtick_5">
     <g id="line2d_9">
      <path d="M 521.995081 320.4 
L 521.995081 43.2 
" clip-path="url(#pde8b1f5a01)" style="fill: none; stroke: #b0b0b0; stroke-width: 0.8; stroke-linecap: square"/>
     </g>
     <g id="line2d_10">
      <g>
       <use xlink:href="#m93f1a52c08" x="521.995081" y="320.4" style="stroke: #000000; stroke-width: 0.8"/>
      </g>
     </g>
     <g id="text_5">
      <!-- 400 -->
      <g transform="translate(512.451331 334.998438) scale(0.1 -0.1)">
       <defs>
        <path id="DejaVuSans-34" d="M 2419 4116 
L 825 1625 
L 2419 1625 
L 2419 4116 
z
M 2253 4666 
L 3047 4666 
L 3047 1625 
L 3713 1625 
L 3713 1100 
L 3047 1100 
L 3047 0 
L 2419 0 
L 2419 1100 
L 313 1100 
L 313 1709 
L 2253 4666 
z
" transform="scale(0.015625)"/>
       </defs>
       <use xlink:href="#DejaVuSans-34"/>
       <use xlink:href="#DejaVuSans-30" x="63.623047"/>
       <use xlink:href="#DejaVuSans-30" x="127.246094"/>
      </g>
     </g>
    </g>
    <g id="xtick_6">
     <g id="line2d_11">
      <path d="M 623.652942 320.4 
L 623.652942 43.2 
" clip-path="url(#pde8b1f5a01)" style="fill: none; stroke: #b0b0b0; stroke-width: 0.8; stroke-linecap: square"/>
     </g>
     <g id="line2d_12">
      <g>
       <use xlink:href="#m93f1a52c08" x="623.652942" y="320.4" style="stroke: #000000; stroke-width: 0.8"/>
      </g>
     </g>
     <g id="text_6">
      <!-- 500 -->
      <g transform="translate(614.109192 334.998438) scale(0.1 -0.1)">
       <defs>
        <path id="DejaVuSans-35" d="M 691 4666 
L 3169 4666 
L 3169 4134 
L 1269 4134 
L 1269 2991 
Q 1406 3038 1543 3061 
Q 1681 3084 1819 3084 
Q 2600 3084 3056 2656 
Q 3513 2228 3513 1497 
Q 3513 744 3044 326 
Q 2575 -91 1722 -91 
Q 1428 -91 1123 -41 
Q 819 9 494 109 
L 494 744 
Q 775 591 1075 516 
Q 1375 441 1709 441 
Q 2250 441 2565 725 
Q 2881 1009 2881 1497 
Q 2881 1984 2565 2268 
Q 2250 2553 1709 2553 
Q 1456 2553 1204 2497 
Q 953 2441 691 2322 
L 691 4666 
z
" transform="scale(0.015625)"/>
       </defs>
       <use xlink:href="#DejaVuSans-35"/>
       <use xlink:href="#DejaVuSans-30" x="63.623047"/>
       <use xlink:href="#DejaVuSans-30" x="127.246094"/>
      </g>
     </g>
    </g>
    <g id="text_7">
     <!-- epoch -->
     <g transform="translate(353.771875 348.676562) scale(0.1 -0.1)">
      <defs>
       <path id="DejaVuSans-65" d="M 3597 1894 
L 3597 1613 
L 953 1613 
Q 991 1019 1311 708 
Q 1631 397 2203 397 
Q 2534 397 2845 478 
Q 3156 559 3463 722 
L 3463 178 
Q 3153 47 2828 -22 
Q 2503 -91 2169 -91 
Q 1331 -91 842 396 
Q 353 884 353 1716 
Q 353 2575 817 3079 
Q 1281 3584 2069 3584 
Q 2775 3584 3186 3129 
Q 3597 2675 3597 1894 
z
M 3022 2063 
Q 3016 2534 2758 2815 
Q 2500 3097 2075 3097 
Q 1594 3097 1305 2825 
Q 1016 2553 972 2059 
L 3022 2063 
z
" transform="scale(0.015625)"/>
       <path id="DejaVuSans-70" d="M 1159 525 
L 1159 -1331 
L 581 -1331 
L 581 3500 
L 1159 3500 
L 1159 2969 
Q 1341 3281 1617 3432 
Q 1894 3584 2278 3584 
Q 2916 3584 3314 3078 
Q 3713 2572 3713 1747 
Q 3713 922 3314 415 
Q 2916 -91 2278 -91 
Q 1894 -91 1617 61 
Q 1341 213 1159 525 
z
M 3116 1747 
Q 3116 2381 2855 2742 
Q 2594 3103 2138 3103 
Q 1681 3103 1420 2742 
Q 1159 2381 1159 1747 
Q 1159 1113 1420 752 
Q 1681 391 2138 391 
Q 2594 391 2855 752 
Q 3116 1113 3116 1747 
z
" transform="scale(0.015625)"/>
       <path id="DejaVuSans-6f" d="M 1959 3097 
Q 1497 3097 1228 2736 
Q 959 2375 959 1747 
Q 959 1119 1226 758 
Q 1494 397 1959 397 
Q 2419 397 2687 759 
Q 2956 1122 2956 1747 
Q 2956 2369 2687 2733 
Q 2419 3097 1959 3097 
z
M 1959 3584 
Q 2709 3584 3137 3096 
Q 3566 2609 3566 1747 
Q 3566 888 3137 398 
Q 2709 -91 1959 -91 
Q 1206 -91 779 398 
Q 353 888 353 1747 
Q 353 2609 779 3096 
Q 1206 3584 1959 3584 
z
" transform="scale(0.015625)"/>
       <path id="DejaVuSans-63" d="M 3122 3366 
L 3122 2828 
Q 2878 2963 2633 3030 
Q 2388 3097 2138 3097 
Q 1578 3097 1268 2742 
Q 959 2388 959 1747 
Q 959 1106 1268 751 
Q 1578 397 2138 397 
Q 2388 397 2633 464 
Q 2878 531 3122 666 
L 3122 134 
Q 2881 22 2623 -34 
Q 2366 -91 2075 -91 
Q 1284 -91 818 406 
Q 353 903 353 1747 
Q 353 2603 823 3093 
Q 1294 3584 2113 3584 
Q 2378 3584 2631 3529 
Q 2884 3475 3122 3366 
z
" transform="scale(0.015625)"/>
       <path id="DejaVuSans-68" d="M 3513 2113 
L 3513 0 
L 2938 0 
L 2938 2094 
Q 2938 2591 2744 2837 
Q 2550 3084 2163 3084 
Q 1697 3084 1428 2787 
Q 1159 2491 1159 1978 
L 1159 0 
L 581 0 
L 581 4863 
L 1159 4863 
L 1159 2956 
Q 1366 3272 1645 3428 
Q 1925 3584 2291 3584 
Q 2894 3584 3203 3211 
Q 3513 2838 3513 2113 
z
" transform="scale(0.015625)"/>
      </defs>
      <use xlink:href="#DejaVuSans-65"/>
      <use xlink:href="#DejaVuSans-70" x="61.523438"/>
      <use xlink:href="#DejaVuSans-6f" x="125"/>
      <use xlink:href="#DejaVuSans-63" x="186.181641"/>
      <use xlink:href="#DejaVuSans-68" x="241.162109"/>
     </g>
    </g>
   </g>
   <g id="matplotlib.axis_2">
    <g id="ytick_1">
     <g id="line2d_13">
      <path d="M 90 315.631544 
L 648 315.631544 
" clip-path="url(#pde8b1f5a01)" style="fill: none; stroke: #b0b0b0; stroke-width: 0.8; stroke-linecap: square"/>
     </g>
     <g id="line2d_14">
      <defs>
       <path id="medb172895d" d="M 0 0 
L -3.5 0 
" style="stroke: #000000; stroke-width: 0.8"/>
      </defs>
      <g>
       <use xlink:href="#medb172895d" x="90" y="315.631544" style="stroke: #000000; stroke-width: 0.8"/>
      </g>
     </g>
     <g id="text_8">
      <!-- 0 -->
      <g transform="translate(76.6375 319.430763) scale(0.1 -0.1)">
       <use xlink:href="#DejaVuSans-30"/>
      </g>
     </g>
    </g>
    <g id="ytick_2">
     <g id="line2d_15">
      <path d="M 90 264.866089 
L 648 264.866089 
" clip-path="url(#pde8b1f5a01)" style="fill: none; stroke: #b0b0b0; stroke-width: 0.8; stroke-linecap: square"/>
     </g>
     <g id="line2d_16">
      <g>
       <use xlink:href="#medb172895d" x="90" y="264.866089" style="stroke: #000000; stroke-width: 0.8"/>
      </g>
     </g>
     <g id="text_9">
      <!-- 1 -->
      <g transform="translate(76.6375 268.665308) scale(0.1 -0.1)">
       <use xlink:href="#DejaVuSans-31"/>
      </g>
     </g>
    </g>
    <g id="ytick_3">
     <g id="line2d_17">
      <path d="M 90 214.100634 
L 648 214.100634 
" clip-path="url(#pde8b1f5a01)" style="fill: none; stroke: #b0b0b0; stroke-width: 0.8; stroke-linecap: square"/>
     </g>
     <g id="line2d_18">
      <g>
       <use xlink:href="#medb172895d" x="90" y="214.100634" style="stroke: #000000; stroke-width: 0.8"/>
      </g>
     </g>
     <g id="text_10">
      <!-- 2 -->
      <g transform="translate(76.6375 217.899853) scale(0.1 -0.1)">
       <use xlink:href="#DejaVuSans-32"/>
      </g>
     </g>
    </g>
    <g id="ytick_4">
     <g id="line2d_19">
      <path d="M 90 163.335179 
L 648 163.335179 
" clip-path="url(#pde8b1f5a01)" style="fill: none; stroke: #b0b0b0; stroke-width: 0.8; stroke-linecap: square"/>
     </g>
     <g id="line2d_20">
      <g>
       <use xlink:href="#medb172895d" x="90" y="163.335179" style="stroke: #000000; stroke-width: 0.8"/>
      </g>
     </g>
     <g id="text_11">
      <!-- 3 -->
      <g transform="translate(76.6375 167.134397) scale(0.1 -0.1)">
       <use xlink:href="#DejaVuSans-33"/>
      </g>
     </g>
    </g>
    <g id="ytick_5">
     <g id="line2d_21">
      <path d="M 90 112.569724 
L 648 112.569724 
" clip-path="url(#pde8b1f5a01)" style="fill: none; stroke: #b0b0b0; stroke-width: 0.8; stroke-linecap: square"/>
     </g>
     <g id="line2d_22">
      <g>
       <use xlink:href="#medb172895d" x="90" y="112.569724" style="stroke: #000000; stroke-width: 0.8"/>
      </g>
     </g>
     <g id="text_12">
      <!-- 4 -->
      <g transform="translate(76.6375 116.368942) scale(0.1 -0.1)">
       <use xlink:href="#DejaVuSans-34"/>
      </g>
     </g>
    </g>
    <g id="ytick_6">
     <g id="line2d_23">
      <path d="M 90 61.804268 
L 648 61.804268 
" clip-path="url(#pde8b1f5a01)" style="fill: none; stroke: #b0b0b0; stroke-width: 0.8; stroke-linecap: square"/>
     </g>
     <g id="line2d_24">
      <g>
       <use xlink:href="#medb172895d" x="90" y="61.804268" style="stroke: #000000; stroke-width: 0.8"/>
      </g>
     </g>
     <g id="text_13">
      <!-- 5 -->
      <g transform="translate(76.6375 65.603487) scale(0.1 -0.1)">
       <use xlink:href="#DejaVuSans-35"/>
      </g>
     </g>
    </g>
    <g id="text_14">
     <!-- loss -->
     <g transform="translate(70.557812 191.457812) rotate(-90) scale(0.1 -0.1)">
      <defs>
       <path id="DejaVuSans-6c" d="M 603 4863 
L 1178 4863 
L 1178 0 
L 603 0 
L 603 4863 
z
" transform="scale(0.015625)"/>
       <path id="DejaVuSans-73" d="M 2834 3397 
L 2834 2853 
Q 2591 2978 2328 3040 
Q 2066 3103 1784 3103 
Q 1356 3103 1142 2972 
Q 928 2841 928 2578 
Q 928 2378 1081 2264 
Q 1234 2150 1697 2047 
L 1894 2003 
Q 2506 1872 2764 1633 
Q 3022 1394 3022 966 
Q 3022 478 2636 193 
Q 2250 -91 1575 -91 
Q 1294 -91 989 -36 
Q 684 19 347 128 
L 347 722 
Q 666 556 975 473 
Q 1284 391 1588 391 
Q 1994 391 2212 530 
Q 2431 669 2431 922 
Q 2431 1156 2273 1281 
Q 2116 1406 1581 1522 
L 1381 1569 
Q 847 1681 609 1914 
Q 372 2147 372 2553 
Q 372 3047 722 3315 
Q 1072 3584 1716 3584 
Q 2034 3584 2315 3537 
Q 2597 3491 2834 3397 
z
" transform="scale(0.015625)"/>
      </defs>
      <use xlink:href="#DejaVuSans-6c"/>
      <use xlink:href="#DejaVuSans-6f" x="27.783203"/>
      <use xlink:href="#DejaVuSans-73" x="88.964844"/>
      <use xlink:href="#DejaVuSans-73" x="141.064453"/>
     </g>
    </g>
   </g>
   <g id="line2d_25">
    <path d="M 115.363636 307.517774 
L 116.380215 307.668782 
L 117.396794 307.459988 
L 123.496265 307.645935 
L 124.512844 307.265956 
L 125.529422 307.347362 
L 126.546001 307.04188 
L 127.56258 307.694112 
L 129.595737 307.187983 
L 130.612316 307.4301 
L 131.628894 307.393367 
L 132.645473 307.617259 
L 134.67863 307.254474 
L 135.695209 307.554795 
L 136.711787 307.390864 
L 137.728366 306.999832 
L 138.744944 307.353196 
L 141.79468 307.550622 
L 144.844416 307.423585 
L 146.877573 307.337527 
L 147.894152 307.250012 
L 150.943888 307.406252 
L 152.977045 307.599731 
L 153.993624 307.50156 
L 155.010202 307.628827 
L 157.043359 307.319983 
L 159.076517 307.378732 
L 160.093095 307.611293 
L 161.109674 307.601015 
L 162.126253 307.413693 
L 163.142831 307.40206 
L 164.15941 307.521678 
L 165.175988 307.383979 
L 166.192567 307.37029 
L 167.209146 307.525849 
L 169.242303 307.264606 
L 170.258881 307.479607 
L 171.27546 307.497885 
L 172.292039 307.07267 
L 174.325196 307.402433 
L 175.341774 307.57562 
L 176.358353 307.332334 
L 177.374932 307.617761 
L 178.39151 307.419077 
L 179.408089 307.476737 
L 180.424668 307.39924 
L 182.457825 307.526302 
L 184.490982 307.448925 
L 185.507561 307.206053 
L 188.557296 307.612399 
L 189.573875 307.606709 
L 190.590454 307.210254 
L 191.607032 307.664807 
L 192.623611 307.5802 
L 193.640189 307.360963 
L 195.673347 307.731116 
L 196.689925 307.492181 
L 197.706504 307.461165 
L 199.739661 307.665912 
L 200.75624 307.473884 
L 201.772818 307.574711 
L 202.789397 307.2422 
L 203.805976 307.253079 
L 206.855711 307.616235 
L 208.888869 307.362687 
L 209.905447 307.641276 
L 211.938604 307.374394 
L 212.955183 307.593231 
L 213.971762 307.59582 
L 214.98834 307.38483 
L 216.004919 307.511442 
L 217.021498 307.489919 
L 218.038076 307.350908 
L 220.071233 307.522379 
L 221.087812 307.340656 
L 222.104391 307.536025 
L 225.154126 307.578372 
L 226.170705 307.39178 
L 227.187284 307.357637 
L 228.203862 307.635612 
L 229.220441 307.459285 
L 230.237019 307.518288 
L 232.270177 307.302388 
L 233.286755 307.401048 
L 234.303334 307.640086 
L 235.319913 307.229211 
L 236.336491 307.609937 
L 237.35307 307.423195 
L 238.369648 307.652654 
L 239.386227 307.201225 
L 240.402806 307.423269 
L 243.452541 307.631147 
L 244.46912 307.642089 
L 245.485699 306.983668 
L 246.502277 307.294625 
L 248.535435 307.563686 
L 249.552013 307.313528 
L 250.568592 307.279335 
L 252.601749 307.631296 
L 253.618328 307.392257 
L 254.634906 307.330393 
L 255.651485 307.07135 
L 256.668063 307.497578 
L 257.684642 307.427059 
L 258.701221 307.684434 
L 259.717799 307.508195 
L 260.734378 307.536545 
L 261.750956 307.275371 
L 263.784114 307.496327 
L 264.800692 307.540298 
L 265.817271 307.453172 
L 266.83385 307.59525 
L 269.883585 307.490281 
L 270.900164 307.366303 
L 271.916743 307.419038 
L 272.933321 307.726772 
L 274.966478 307.36182 
L 275.983057 307.524093 
L 276.999636 307.367308 
L 278.016214 307.51445 
L 279.032793 307.520068 
L 280.049371 307.191235 
L 281.06595 307.397448 
L 282.082529 307.721999 
L 283.099107 307.434302 
L 284.115686 307.40091 
L 285.132265 307.624578 
L 287.165422 307.424423 
L 288.182 307.54133 
L 289.198579 307.44454 
L 290.215158 307.579932 
L 291.231736 307.408595 
L 292.248315 307.352436 
L 293.264893 307.538637 
L 294.281472 307.292279 
L 296.314629 307.477876 
L 298.347786 307.433626 
L 300.380944 307.449404 
L 301.397522 307.342576 
L 302.414101 307.582551 
L 303.43068 307.475471 
L 304.447258 307.716288 
L 305.463837 307.25 
L 306.480415 307.591189 
L 307.496994 307.525612 
L 308.513573 307.262928 
L 309.530151 307.572131 
L 310.54673 307.17392 
L 312.579887 307.671353 
L 313.596466 307.431686 
L 314.613044 307.604176 
L 315.629623 307.351049 
L 316.646201 307.451506 
L 317.66278 307.432513 
L 318.679359 307.55684 
L 319.695937 307.49992 
L 320.712516 307.033055 
L 321.729095 307.160984 
L 322.745673 307.65442 
L 323.762252 307.318619 
L 324.77883 307.43361 
L 325.795409 307.318223 
L 326.811988 307.447411 
L 333.928038 307.481377 
L 334.944617 307.116008 
L 335.961195 307.415276 
L 340.02751 307.438485 
L 342.060667 307.440956 
L 343.077245 307.582524 
L 344.093824 307.486051 
L 345.110403 307.171023 
L 346.126981 307.493182 
L 347.14356 307.505 
L 349.176717 307.017785 
L 350.193296 307.636142 
L 351.209874 307.482766 
L 352.226453 307.17181 
L 353.243032 307.556286 
L 354.25961 307.415833 
L 355.276189 307.093648 
L 356.292767 307.653828 
L 357.309346 307.326483 
L 358.325925 307.394904 
L 359.342503 307.63798 
L 360.359082 307.430824 
L 361.37566 307.615943 
L 362.392239 307.37054 
L 363.408818 307.458323 
L 364.425396 307.394494 
L 365.441975 307.53107 
L 368.491711 307.340429 
L 370.524868 307.492589 
L 371.541447 307.367964 
L 372.558025 307.618275 
L 373.574604 307.149086 
L 374.591182 307.526782 
L 375.607761 307.314594 
L 376.62434 307.402366 
L 377.640918 307.316555 
L 379.674075 307.532563 
L 380.690654 307.379031 
L 382.723811 307.671908 
L 384.756968 307.404254 
L 385.773547 307.316472 
L 386.790126 307.745162 
L 387.806704 307.408522 
L 388.823283 307.445755 
L 389.839862 307.316541 
L 390.85644 307.640062 
L 392.889597 307.434106 
L 393.906176 307.632694 
L 394.922755 307.469451 
L 396.955912 307.524329 
L 397.97249 307.617535 
L 400.005648 307.521924 
L 401.022226 307.286237 
L 402.038805 307.6703 
L 403.055383 307.460152 
L 405.088541 307.50496 
L 407.121698 307.353421 
L 408.138277 307.5182 
L 409.154855 307.292886 
L 410.171434 307.550718 
L 411.188012 307.49452 
L 412.204591 307.196248 
L 413.22117 307.405257 
L 416.270905 307.520688 
L 417.287484 307.168558 
L 418.304063 307.581642 
L 419.320641 307.493978 
L 420.33722 307.645005 
L 421.353799 307.600673 
L 422.370377 307.367804 
L 423.386956 306.899026 
L 424.403534 307.720878 
L 425.420113 307.520659 
L 426.436692 307.140268 
L 427.45327 307.620415 
L 428.469849 307.613038 
L 429.486427 307.441619 
L 430.503006 307.533846 
L 433.552742 307.429681 
L 436.602478 307.587956 
L 437.619056 307.449002 
L 438.635635 307.563808 
L 439.652214 307.562069 
L 440.668792 306.985317 
L 441.685371 307.572164 
L 442.701949 307.605345 
L 443.718528 307.419033 
L 444.735107 307.538262 
L 445.751685 307.026579 
L 446.768264 307.420152 
L 447.784842 307.157456 
L 448.801421 307.559366 
L 449.818 307.512058 
L 451.851157 307.675492 
L 452.867735 307.324047 
L 453.884314 307.582742 
L 455.917471 307.417072 
L 456.93405 307.202795 
L 457.950629 307.488508 
L 458.967207 307.284644 
L 459.983786 307.537959 
L 461.000364 307.513619 
L 463.033522 307.8 
L 465.066679 307.353013 
L 466.083257 307.655655 
L 467.099836 307.698553 
L 468.116415 307.555483 
L 470.149572 307.660724 
L 471.16615 307.471397 
L 475.232465 307.31274 
L 476.249044 307.503309 
L 477.265622 307.472721 
L 478.282201 307.259344 
L 480.315358 307.616319 
L 481.331937 307.706299 
L 482.348515 307.389001 
L 483.365094 307.736188 
L 485.398251 307.265235 
L 486.41483 307.588135 
L 487.431408 307.666891 
L 488.447987 307.441276 
L 491.497723 307.503546 
L 492.514301 307.48093 
L 493.53088 307.203745 
L 494.547459 307.575297 
L 495.564037 307.320241 
L 496.580616 307.467439 
L 497.597194 307.20771 
L 498.613773 307.47562 
L 500.64693 307.422866 
L 501.663509 307.585663 
L 502.680087 307.400243 
L 503.696666 307.360335 
L 504.713245 307.551133 
L 505.729823 307.189541 
L 506.746402 307.623618 
L 507.762981 307.413554 
L 508.779559 307.586578 
L 509.796138 307.621513 
L 510.812716 307.317168 
L 511.829295 307.247762 
L 512.845874 307.504714 
L 514.879031 307.503834 
L 515.895609 307.227013 
L 516.912188 307.243437 
L 518.945345 307.681557 
L 519.961924 307.504185 
L 520.978502 307.523023 
L 521.995081 307.680661 
L 525.044817 307.118569 
L 526.061396 307.531644 
L 530.12771 307.320002 
L 531.144289 307.599141 
L 532.160867 307.616213 
L 533.177446 307.197518 
L 534.194024 307.666879 
L 535.210603 307.546492 
L 536.227182 307.28906 
L 538.260339 307.709271 
L 539.276917 307.576861 
L 541.310075 307.486772 
L 542.326653 307.699881 
L 543.343232 307.329317 
L 544.359811 307.685403 
L 545.376389 307.584072 
L 546.392968 307.646547 
L 547.409546 307.586299 
L 548.426125 307.642022 
L 549.442704 307.217053 
L 550.459282 307.299373 
L 551.475861 307.554033 
L 552.492439 307.495514 
L 553.509018 307.283738 
L 554.525597 307.439162 
L 556.558754 307.543695 
L 557.575332 307.576935 
L 558.591911 307.35196 
L 559.60849 307.575158 
L 560.625068 307.62003 
L 561.641647 307.38634 
L 563.674804 307.448337 
L 564.691383 307.424056 
L 565.707961 307.218855 
L 566.72454 307.394053 
L 567.741119 307.713594 
L 568.757697 307.60363 
L 569.774276 307.056463 
L 570.790854 307.581396 
L 571.807433 307.653098 
L 572.824012 307.18826 
L 573.84059 307.180482 
L 574.857169 307.506215 
L 575.873747 307.606995 
L 576.890326 307.29368 
L 577.906905 307.545671 
L 579.940062 307.568887 
L 582.989798 307.217438 
L 584.006376 307.655959 
L 585.022955 307.680186 
L 586.039534 307.356679 
L 587.056112 307.593705 
L 588.072691 307.331349 
L 590.105848 307.500317 
L 591.122427 307.348023 
L 593.155584 307.664681 
L 594.172163 307.61775 
L 595.188741 307.400091 
L 596.20532 307.567719 
L 597.221898 307.195065 
L 598.238477 307.423613 
L 599.255056 307.467933 
L 600.271634 307.632584 
L 601.288213 307.476941 
L 604.337949 307.554168 
L 605.354527 307.027137 
L 606.371106 307.654701 
L 607.387684 307.383277 
L 608.404263 307.402916 
L 609.420842 307.598524 
L 611.453999 307.473653 
L 612.470578 307.1537 
L 613.487156 307.639958 
L 614.503735 307.432029 
L 615.520313 307.719486 
L 618.570049 307.504632 
L 619.586628 307.322215 
L 622.636364 307.492402 
L 622.636364 307.492402 
" clip-path="url(#pde8b1f5a01)" style="fill: none; stroke: #1f77b4; stroke-width: 1.5; stroke-linecap: square"/>
   </g>
   <g id="line2d_26">
    <path d="M 115.363636 56.783597 
L 116.380215 56.698437 
L 119.429951 56.686963 
L 121.463108 56.627657 
L 128.579158 56.917001 
L 130.612316 56.782435 
L 131.628894 56.860236 
L 133.662051 56.815962 
L 134.67863 56.985918 
L 136.711787 56.885339 
L 138.744944 57.033025 
L 145.860995 56.92666 
L 148.910731 56.956967 
L 151.960466 56.90802 
L 153.993624 56.931186 
L 159.076517 56.824555 
L 164.15941 56.971878 
L 166.192567 56.904244 
L 168.225724 56.907924 
L 169.242303 56.809305 
L 171.27546 56.924336 
L 185.507561 56.815792 
L 186.524139 56.694153 
L 198.723083 56.79023 
L 199.739661 56.664887 
L 204.822554 56.863722 
L 205.839133 56.945154 
L 207.87229 56.953239 
L 208.888869 56.981416 
L 210.922026 56.747868 
L 214.98834 56.839007 
L 218.038076 56.770574 
L 221.087812 56.821142 
L 222.104391 56.674376 
L 230.237019 56.723613 
L 231.253598 56.831962 
L 232.270177 56.727123 
L 234.303334 56.788196 
L 235.319913 56.765878 
L 237.35307 56.474936 
L 240.402806 56.581906 
L 243.452541 56.619015 
L 245.485699 56.677353 
L 252.601749 56.785679 
L 256.668063 56.745592 
L 261.750956 56.748691 
L 262.767535 56.613084 
L 271.916743 56.77498 
L 272.933321 56.684301 
L 275.983057 56.650145 
L 282.082529 56.556222 
L 283.099107 56.696114 
L 285.132265 56.725259 
L 286.148843 56.588974 
L 287.165422 56.688537 
L 289.198579 56.582438 
L 294.281472 56.587425 
L 299.364365 56.701754 
L 301.397522 56.649878 
L 302.414101 56.403743 
L 304.447258 56.48854 
L 306.480415 56.608291 
L 307.496994 56.573433 
L 309.530151 56.72613 
L 310.54673 56.625768 
L 312.579887 56.754839 
L 316.646201 56.792578 
L 320.712516 56.786986 
L 321.729095 56.686842 
L 323.762252 56.641672 
L 324.77883 56.579775 
L 326.811988 56.644747 
L 330.878302 56.529401 
L 331.894881 56.602578 
L 333.928038 56.552155 
L 334.944617 56.575902 
L 336.977774 56.447316 
L 339.010931 56.475952 
L 341.044088 56.602118 
L 345.110403 56.530781 
L 350.193296 56.456442 
L 353.243032 56.612866 
L 357.309346 56.432259 
L 358.325925 56.627899 
L 360.359082 56.387742 
L 369.508289 56.209701 
L 371.541447 56.299726 
L 378.657497 56.442474 
L 379.674075 56.245769 
L 381.707233 56.261601 
L 388.823283 56.561451 
L 390.85644 56.503233 
L 396.955912 56.377672 
L 401.022226 56.380843 
L 404.071962 56.240105 
L 412.204591 56.259131 
L 415.254327 56.166806 
L 417.287484 56.270751 
L 420.33722 56.171043 
L 424.403534 56.208321 
L 429.486427 56.320907 
L 430.503006 56.376051 
L 432.536163 56.314614 
L 438.635635 56.380384 
L 440.668792 56.299024 
L 441.685371 56.452641 
L 445.751685 56.310208 
L 446.768264 56.570093 
L 447.784842 56.583164 
L 448.801421 56.374985 
L 450.834578 56.444169 
L 452.867735 56.409916 
L 454.900893 56.337852 
L 456.93405 56.445621 
L 458.967207 56.202124 
L 461.000364 56.342887 
L 463.033522 56.231681 
L 468.116415 56.270484 
L 470.149572 56.122532 
L 486.41483 56.159254 
L 487.431408 56.050444 
L 490.481144 56.13466 
L 492.514301 56.077217 
L 493.53088 56.166855 
L 494.547459 56.036937 
L 499.630352 56.026407 
L 500.64693 56.104329 
L 502.680087 56.07286 
L 503.696666 56.131924 
L 506.746402 56.004621 
L 514.879031 56.088764 
L 516.912188 56.01256 
L 518.945345 56.002781 
L 520.978502 55.98189 
L 521.995081 56.020888 
L 524.028238 55.916411 
L 530.12771 56.012076 
L 534.194024 56.058263 
L 539.276917 56.100722 
L 541.310075 56.025221 
L 543.343232 56.048871 
L 548.426125 56.064581 
L 552.492439 56.037542 
L 553.509018 55.922608 
L 555.542175 55.972111 
L 566.72454 56.057198 
L 568.757697 56.045579 
L 573.84059 55.949259 
L 577.906905 56.064896 
L 580.956641 56.019992 
L 587.056112 55.971772 
L 590.105848 56.008106 
L 594.172163 55.944781 
L 598.238477 56.056375 
L 600.271634 55.913845 
L 614.503735 55.907672 
L 617.553471 56.011495 
L 620.603206 55.919219 
L 622.636364 55.828951 
L 622.636364 55.828951 
" clip-path="url(#pde8b1f5a01)" style="fill: none; stroke: #ff7f0e; stroke-width: 1.5; stroke-linecap: square"/>
   </g>
   <g id="patch_3">
    <path d="M 90 320.4 
L 90 43.2 
" style="fill: none; stroke: #000000; stroke-width: 0.8; stroke-linejoin: miter; stroke-linecap: square"/>
   </g>
   <g id="patch_4">
    <path d="M 648 320.4 
L 648 43.2 
" style="fill: none; stroke: #000000; stroke-width: 0.8; stroke-linejoin: miter; stroke-linecap: square"/>
   </g>
   <g id="patch_5">
    <path d="M 90 320.4 
L 648 320.4 
" style="fill: none; stroke: #000000; stroke-width: 0.8; stroke-linejoin: miter; stroke-linecap: square"/>
   </g>
   <g id="patch_6">
    <path d="M 90 43.2 
L 648 43.2 
" style="fill: none; stroke: #000000; stroke-width: 0.8; stroke-linejoin: miter; stroke-linecap: square"/>
   </g>
   <g id="text_15">
    <!-- model train and validation loss over time -->
    <g transform="translate(245.555625 37.2) scale(0.12 -0.12)">
     <defs>
      <path id="DejaVuSans-6d" d="M 3328 2828 
Q 3544 3216 3844 3400 
Q 4144 3584 4550 3584 
Q 5097 3584 5394 3201 
Q 5691 2819 5691 2113 
L 5691 0 
L 5113 0 
L 5113 2094 
Q 5113 2597 4934 2840 
Q 4756 3084 4391 3084 
Q 3944 3084 3684 2787 
Q 3425 2491 3425 1978 
L 3425 0 
L 2847 0 
L 2847 2094 
Q 2847 2600 2669 2842 
Q 2491 3084 2119 3084 
Q 1678 3084 1418 2786 
Q 1159 2488 1159 1978 
L 1159 0 
L 581 0 
L 581 3500 
L 1159 3500 
L 1159 2956 
Q 1356 3278 1631 3431 
Q 1906 3584 2284 3584 
Q 2666 3584 2933 3390 
Q 3200 3197 3328 2828 
z
" transform="scale(0.015625)"/>
      <path id="DejaVuSans-64" d="M 2906 2969 
L 2906 4863 
L 3481 4863 
L 3481 0 
L 2906 0 
L 2906 525 
Q 2725 213 2448 61 
Q 2172 -91 1784 -91 
Q 1150 -91 751 415 
Q 353 922 353 1747 
Q 353 2572 751 3078 
Q 1150 3584 1784 3584 
Q 2172 3584 2448 3432 
Q 2725 3281 2906 2969 
z
M 947 1747 
Q 947 1113 1208 752 
Q 1469 391 1925 391 
Q 2381 391 2643 752 
Q 2906 1113 2906 1747 
Q 2906 2381 2643 2742 
Q 2381 3103 1925 3103 
Q 1469 3103 1208 2742 
Q 947 2381 947 1747 
z
" transform="scale(0.015625)"/>
      <path id="DejaVuSans-20" transform="scale(0.015625)"/>
      <path id="DejaVuSans-74" d="M 1172 4494 
L 1172 3500 
L 2356 3500 
L 2356 3053 
L 1172 3053 
L 1172 1153 
Q 1172 725 1289 603 
Q 1406 481 1766 481 
L 2356 481 
L 2356 0 
L 1766 0 
Q 1100 0 847 248 
Q 594 497 594 1153 
L 594 3053 
L 172 3053 
L 172 3500 
L 594 3500 
L 594 4494 
L 1172 4494 
z
" transform="scale(0.015625)"/>
      <path id="DejaVuSans-72" d="M 2631 2963 
Q 2534 3019 2420 3045 
Q 2306 3072 2169 3072 
Q 1681 3072 1420 2755 
Q 1159 2438 1159 1844 
L 1159 0 
L 581 0 
L 581 3500 
L 1159 3500 
L 1159 2956 
Q 1341 3275 1631 3429 
Q 1922 3584 2338 3584 
Q 2397 3584 2469 3576 
Q 2541 3569 2628 3553 
L 2631 2963 
z
" transform="scale(0.015625)"/>
      <path id="DejaVuSans-61" d="M 2194 1759 
Q 1497 1759 1228 1600 
Q 959 1441 959 1056 
Q 959 750 1161 570 
Q 1363 391 1709 391 
Q 2188 391 2477 730 
Q 2766 1069 2766 1631 
L 2766 1759 
L 2194 1759 
z
M 3341 1997 
L 3341 0 
L 2766 0 
L 2766 531 
Q 2569 213 2275 61 
Q 1981 -91 1556 -91 
Q 1019 -91 701 211 
Q 384 513 384 1019 
Q 384 1609 779 1909 
Q 1175 2209 1959 2209 
L 2766 2209 
L 2766 2266 
Q 2766 2663 2505 2880 
Q 2244 3097 1772 3097 
Q 1472 3097 1187 3025 
Q 903 2953 641 2809 
L 641 3341 
Q 956 3463 1253 3523 
Q 1550 3584 1831 3584 
Q 2591 3584 2966 3190 
Q 3341 2797 3341 1997 
z
" transform="scale(0.015625)"/>
      <path id="DejaVuSans-69" d="M 603 3500 
L 1178 3500 
L 1178 0 
L 603 0 
L 603 3500 
z
M 603 4863 
L 1178 4863 
L 1178 4134 
L 603 4134 
L 603 4863 
z
" transform="scale(0.015625)"/>
      <path id="DejaVuSans-6e" d="M 3513 2113 
L 3513 0 
L 2938 0 
L 2938 2094 
Q 2938 2591 2744 2837 
Q 2550 3084 2163 3084 
Q 1697 3084 1428 2787 
Q 1159 2491 1159 1978 
L 1159 0 
L 581 0 
L 581 3500 
L 1159 3500 
L 1159 2956 
Q 1366 3272 1645 3428 
Q 1925 3584 2291 3584 
Q 2894 3584 3203 3211 
Q 3513 2838 3513 2113 
z
" transform="scale(0.015625)"/>
      <path id="DejaVuSans-76" d="M 191 3500 
L 800 3500 
L 1894 563 
L 2988 3500 
L 3597 3500 
L 2284 0 
L 1503 0 
L 191 3500 
z
" transform="scale(0.015625)"/>
     </defs>
     <use xlink:href="#DejaVuSans-6d"/>
     <use xlink:href="#DejaVuSans-6f" x="97.412109"/>
     <use xlink:href="#DejaVuSans-64" x="158.59375"/>
     <use xlink:href="#DejaVuSans-65" x="222.070312"/>
     <use xlink:href="#DejaVuSans-6c" x="283.59375"/>
     <use xlink:href="#DejaVuSans-20" x="311.376953"/>
     <use xlink:href="#DejaVuSans-74" x="343.164062"/>
     <use xlink:href="#DejaVuSans-72" x="382.373047"/>
     <use xlink:href="#DejaVuSans-61" x="423.486328"/>
     <use xlink:href="#DejaVuSans-69" x="484.765625"/>
     <use xlink:href="#DejaVuSans-6e" x="512.548828"/>
     <use xlink:href="#DejaVuSans-20" x="575.927734"/>
     <use xlink:href="#DejaVuSans-61" x="607.714844"/>
     <use xlink:href="#DejaVuSans-6e" x="668.994141"/>
     <use xlink:href="#DejaVuSans-64" x="732.373047"/>
     <use xlink:href="#DejaVuSans-20" x="795.849609"/>
     <use xlink:href="#DejaVuSans-76" x="827.636719"/>
     <use xlink:href="#DejaVuSans-61" x="886.816406"/>
     <use xlink:href="#DejaVuSans-6c" x="948.095703"/>
     <use xlink:href="#DejaVuSans-69" x="975.878906"/>
     <use xlink:href="#DejaVuSans-64" x="1003.662109"/>
     <use xlink:href="#DejaVuSans-61" x="1067.138672"/>
     <use xlink:href="#DejaVuSans-74" x="1128.417969"/>
     <use xlink:href="#DejaVuSans-69" x="1167.626953"/>
     <use xlink:href="#DejaVuSans-6f" x="1195.410156"/>
     <use xlink:href="#DejaVuSans-6e" x="1256.591797"/>
     <use xlink:href="#DejaVuSans-20" x="1319.970703"/>
     <use xlink:href="#DejaVuSans-6c" x="1351.757812"/>
     <use xlink:href="#DejaVuSans-6f" x="1379.541016"/>
     <use xlink:href="#DejaVuSans-73" x="1440.722656"/>
     <use xlink:href="#DejaVuSans-73" x="1492.822266"/>
     <use xlink:href="#DejaVuSans-20" x="1544.921875"/>
     <use xlink:href="#DejaVuSans-6f" x="1576.708984"/>
     <use xlink:href="#DejaVuSans-76" x="1637.890625"/>
     <use xlink:href="#DejaVuSans-65" x="1697.070312"/>
     <use xlink:href="#DejaVuSans-72" x="1758.59375"/>
     <use xlink:href="#DejaVuSans-20" x="1799.707031"/>
     <use xlink:href="#DejaVuSans-74" x="1831.494141"/>
     <use xlink:href="#DejaVuSans-69" x="1870.703125"/>
     <use xlink:href="#DejaVuSans-6d" x="1898.486328"/>
     <use xlink:href="#DejaVuSans-65" x="1995.898438"/>
    </g>
   </g>
   <g id="legend_1">
    <g id="patch_7">
     <path d="M 559.765625 197.978125 
L 641 197.978125 
Q 643 197.978125 643 195.978125 
L 643 167.621875 
Q 643 165.621875 641 165.621875 
L 559.765625 165.621875 
Q 557.765625 165.621875 557.765625 167.621875 
L 557.765625 195.978125 
Q 557.765625 197.978125 559.765625 197.978125 
z
" style="fill: #ffffff; opacity: 0.8; stroke: #cccccc; stroke-linejoin: miter"/>
    </g>
    <g id="line2d_27">
     <path d="M 561.765625 173.720312 
L 571.765625 173.720312 
L 581.765625 173.720312 
" style="fill: none; stroke: #1f77b4; stroke-width: 1.5; stroke-linecap: square"/>
    </g>
    <g id="text_16">
     <!-- train -->
     <g transform="translate(589.765625 177.220312) scale(0.1 -0.1)">
      <use xlink:href="#DejaVuSans-74"/>
      <use xlink:href="#DejaVuSans-72" x="39.208984"/>
      <use xlink:href="#DejaVuSans-61" x="80.322266"/>
      <use xlink:href="#DejaVuSans-69" x="141.601562"/>
      <use xlink:href="#DejaVuSans-6e" x="169.384766"/>
     </g>
    </g>
    <g id="line2d_28">
     <path d="M 561.765625 188.398437 
L 571.765625 188.398437 
L 581.765625 188.398437 
" style="fill: none; stroke: #ff7f0e; stroke-width: 1.5; stroke-linecap: square"/>
    </g>
    <g id="text_17">
     <!-- validation -->
     <g transform="translate(589.765625 191.898437) scale(0.1 -0.1)">
      <use xlink:href="#DejaVuSans-76"/>
      <use xlink:href="#DejaVuSans-61" x="59.179688"/>
      <use xlink:href="#DejaVuSans-6c" x="120.458984"/>
      <use xlink:href="#DejaVuSans-69" x="148.242188"/>
      <use xlink:href="#DejaVuSans-64" x="176.025391"/>
      <use xlink:href="#DejaVuSans-61" x="239.501953"/>
      <use xlink:href="#DejaVuSans-74" x="300.78125"/>
      <use xlink:href="#DejaVuSans-69" x="339.990234"/>
      <use xlink:href="#DejaVuSans-6f" x="367.773438"/>
      <use xlink:href="#DejaVuSans-6e" x="428.955078"/>
     </g>
    </g>
   </g>
  </g>
 </g>
 <defs>
  <clipPath id="pde8b1f5a01">
   <rect x="90" y="43.2" width="558" height="277.2"/>
  </clipPath>
 </defs>
</svg>
