<?xml version="1.0" encoding="utf-8" standalone="no"?>
<!DOCTYPE svg PUBLIC "-//W3C//DTD SVG 1.1//EN"
  "http://www.w3.org/Graphics/SVG/1.1/DTD/svg11.dtd">
<svg xmlns:xlink="http://www.w3.org/1999/xlink" width="720pt" height="360pt" viewBox="0 0 720 360" xmlns="http://www.w3.org/2000/svg" version="1.1">
 <metadata>
  <rdf:RDF xmlns:dc="http://purl.org/dc/elements/1.1/" xmlns:cc="http://creativecommons.org/ns#" xmlns:rdf="http://www.w3.org/1999/02/22-rdf-syntax-ns#">
   <cc:Work>
    <dc:type rdf:resource="http://purl.org/dc/dcmitype/StillImage"/>
    <dc:date>2023-05-24T11:09:58.918974</dc:date>
    <dc:format>image/svg+xml</dc:format>
    <dc:creator>
     <cc:Agent>
      <dc:title>Matplotlib v3.7.1, https://matplotlib.org/</dc:title>
     </cc:Agent>
    </dc:creator>
   </cc:Work>
  </rdf:RDF>
 </metadata>
 <defs>
  <style type="text/css">*{stroke-linejoin: round; stroke-linecap: butt}</style>
 </defs>
 <g id="figure_1">
  <g id="patch_1">
   <path d="M 0 360 
L 720 360 
L 720 0 
L 0 0 
z
" style="fill: #ffffff"/>
  </g>
  <g id="axes_1">
   <g id="patch_2">
    <path d="M 90 320.4 
L 648 320.4 
L 648 43.2 
L 90 43.2 
z
" style="fill: #ffffff"/>
   </g>
   <g id="matplotlib.axis_1">
    <g id="xtick_1">
     <g id="line2d_1">
      <path d="M 115.363636 320.4 
L 115.363636 43.2 
" clip-path="url(#pce7d9d0e1a)" style="fill: none; stroke: #b0b0b0; stroke-width: 0.8; stroke-linecap: square"/>
     </g>
     <g id="line2d_2">
      <defs>
       <path id="m954cccdc0a" d="M 0 0 
L 0 3.5 
" style="stroke: #000000; stroke-width: 0.8"/>
      </defs>
      <g>
       <use xlink:href="#m954cccdc0a" x="115.363636" y="320.4" style="stroke: #000000; stroke-width: 0.8"/>
      </g>
     </g>
     <g id="text_1">
      <!-- 0 -->
      <g transform="translate(112.182386 334.998438) scale(0.1 -0.1)">
       <defs>
        <path id="DejaVuSans-30" d="M 2034 4250 
Q 1547 4250 1301 3770 
Q 1056 3291 1056 2328 
Q 1056 1369 1301 889 
Q 1547 409 2034 409 
Q 2525 409 2770 889 
Q 3016 1369 3016 2328 
Q 3016 3291 2770 3770 
Q 2525 4250 2034 4250 
z
M 2034 4750 
Q 2819 4750 3233 4129 
Q 3647 3509 3647 2328 
Q 3647 1150 3233 529 
Q 2819 -91 2034 -91 
Q 1250 -91 836 529 
Q 422 1150 422 2328 
Q 422 3509 836 4129 
Q 1250 4750 2034 4750 
z
" transform="scale(0.015625)"/>
       </defs>
       <use xlink:href="#DejaVuSans-30"/>
      </g>
     </g>
    </g>
    <g id="xtick_2">
     <g id="line2d_3">
      <path d="M 217.021498 320.4 
L 217.021498 43.2 
" clip-path="url(#pce7d9d0e1a)" style="fill: none; stroke: #b0b0b0; stroke-width: 0.8; stroke-linecap: square"/>
     </g>
     <g id="line2d_4">
      <g>
       <use xlink:href="#m954cccdc0a" x="217.021498" y="320.4" style="stroke: #000000; stroke-width: 0.8"/>
      </g>
     </g>
     <g id="text_2">
      <!-- 100 -->
      <g transform="translate(207.477748 334.998438) scale(0.1 -0.1)">
       <defs>
        <path id="DejaVuSans-31" d="M 794 531 
L 1825 531 
L 1825 4091 
L 703 3866 
L 703 4441 
L 1819 4666 
L 2450 4666 
L 2450 531 
L 3481 531 
L 3481 0 
L 794 0 
L 794 531 
z
" transform="scale(0.015625)"/>
       </defs>
       <use xlink:href="#DejaVuSans-31"/>
       <use xlink:href="#DejaVuSans-30" x="63.623047"/>
       <use xlink:href="#DejaVuSans-30" x="127.246094"/>
      </g>
     </g>
    </g>
    <g id="xtick_3">
     <g id="line2d_5">
      <path d="M 318.679359 320.4 
L 318.679359 43.2 
" clip-path="url(#pce7d9d0e1a)" style="fill: none; stroke: #b0b0b0; stroke-width: 0.8; stroke-linecap: square"/>
     </g>
     <g id="line2d_6">
      <g>
       <use xlink:href="#m954cccdc0a" x="318.679359" y="320.4" style="stroke: #000000; stroke-width: 0.8"/>
      </g>
     </g>
     <g id="text_3">
      <!-- 200 -->
      <g transform="translate(309.135609 334.998438) scale(0.1 -0.1)">
       <defs>
        <path id="DejaVuSans-32" d="M 1228 531 
L 3431 531 
L 3431 0 
L 469 0 
L 469 531 
Q 828 903 1448 1529 
Q 2069 2156 2228 2338 
Q 2531 2678 2651 2914 
Q 2772 3150 2772 3378 
Q 2772 3750 2511 3984 
Q 2250 4219 1831 4219 
Q 1534 4219 1204 4116 
Q 875 4013 500 3803 
L 500 4441 
Q 881 4594 1212 4672 
Q 1544 4750 1819 4750 
Q 2544 4750 2975 4387 
Q 3406 4025 3406 3419 
Q 3406 3131 3298 2873 
Q 3191 2616 2906 2266 
Q 2828 2175 2409 1742 
Q 1991 1309 1228 531 
z
" transform="scale(0.015625)"/>
       </defs>
       <use xlink:href="#DejaVuSans-32"/>
       <use xlink:href="#DejaVuSans-30" x="63.623047"/>
       <use xlink:href="#DejaVuSans-30" x="127.246094"/>
      </g>
     </g>
    </g>
    <g id="xtick_4">
     <g id="line2d_7">
      <path d="M 420.33722 320.4 
L 420.33722 43.2 
" clip-path="url(#pce7d9d0e1a)" style="fill: none; stroke: #b0b0b0; stroke-width: 0.8; stroke-linecap: square"/>
     </g>
     <g id="line2d_8">
      <g>
       <use xlink:href="#m954cccdc0a" x="420.33722" y="320.4" style="stroke: #000000; stroke-width: 0.8"/>
      </g>
     </g>
     <g id="text_4">
      <!-- 300 -->
      <g transform="translate(410.79347 334.998438) scale(0.1 -0.1)">
       <defs>
        <path id="DejaVuSans-33" d="M 2597 2516 
Q 3050 2419 3304 2112 
Q 3559 1806 3559 1356 
Q 3559 666 3084 287 
Q 2609 -91 1734 -91 
Q 1441 -91 1130 -33 
Q 819 25 488 141 
L 488 750 
Q 750 597 1062 519 
Q 1375 441 1716 441 
Q 2309 441 2620 675 
Q 2931 909 2931 1356 
Q 2931 1769 2642 2001 
Q 2353 2234 1838 2234 
L 1294 2234 
L 1294 2753 
L 1863 2753 
Q 2328 2753 2575 2939 
Q 2822 3125 2822 3475 
Q 2822 3834 2567 4026 
Q 2313 4219 1838 4219 
Q 1578 4219 1281 4162 
Q 984 4106 628 3988 
L 628 4550 
Q 988 4650 1302 4700 
Q 1616 4750 1894 4750 
Q 2613 4750 3031 4423 
Q 3450 4097 3450 3541 
Q 3450 3153 3228 2886 
Q 3006 2619 2597 2516 
z
" transform="scale(0.015625)"/>
       </defs>
       <use xlink:href="#DejaVuSans-33"/>
       <use xlink:href="#DejaVuSans-30" x="63.623047"/>
       <use xlink:href="#DejaVuSans-30" x="127.246094"/>
      </g>
     </g>
    </g>
    <g id="xtick_5">
     <g id="line2d_9">
      <path d="M 521.995081 320.4 
L 521.995081 43.2 
" clip-path="url(#pce7d9d0e1a)" style="fill: none; stroke: #b0b0b0; stroke-width: 0.8; stroke-linecap: square"/>
     </g>
     <g id="line2d_10">
      <g>
       <use xlink:href="#m954cccdc0a" x="521.995081" y="320.4" style="stroke: #000000; stroke-width: 0.8"/>
      </g>
     </g>
     <g id="text_5">
      <!-- 400 -->
      <g transform="translate(512.451331 334.998438) scale(0.1 -0.1)">
       <defs>
        <path id="DejaVuSans-34" d="M 2419 4116 
L 825 1625 
L 2419 1625 
L 2419 4116 
z
M 2253 4666 
L 3047 4666 
L 3047 1625 
L 3713 1625 
L 3713 1100 
L 3047 1100 
L 3047 0 
L 2419 0 
L 2419 1100 
L 313 1100 
L 313 1709 
L 2253 4666 
z
" transform="scale(0.015625)"/>
       </defs>
       <use xlink:href="#DejaVuSans-34"/>
       <use xlink:href="#DejaVuSans-30" x="63.623047"/>
       <use xlink:href="#DejaVuSans-30" x="127.246094"/>
      </g>
     </g>
    </g>
    <g id="xtick_6">
     <g id="line2d_11">
      <path d="M 623.652942 320.4 
L 623.652942 43.2 
" clip-path="url(#pce7d9d0e1a)" style="fill: none; stroke: #b0b0b0; stroke-width: 0.8; stroke-linecap: square"/>
     </g>
     <g id="line2d_12">
      <g>
       <use xlink:href="#m954cccdc0a" x="623.652942" y="320.4" style="stroke: #000000; stroke-width: 0.8"/>
      </g>
     </g>
     <g id="text_6">
      <!-- 500 -->
      <g transform="translate(614.109192 334.998438) scale(0.1 -0.1)">
       <defs>
        <path id="DejaVuSans-35" d="M 691 4666 
L 3169 4666 
L 3169 4134 
L 1269 4134 
L 1269 2991 
Q 1406 3038 1543 3061 
Q 1681 3084 1819 3084 
Q 2600 3084 3056 2656 
Q 3513 2228 3513 1497 
Q 3513 744 3044 326 
Q 2575 -91 1722 -91 
Q 1428 -91 1123 -41 
Q 819 9 494 109 
L 494 744 
Q 775 591 1075 516 
Q 1375 441 1709 441 
Q 2250 441 2565 725 
Q 2881 1009 2881 1497 
Q 2881 1984 2565 2268 
Q 2250 2553 1709 2553 
Q 1456 2553 1204 2497 
Q 953 2441 691 2322 
L 691 4666 
z
" transform="scale(0.015625)"/>
       </defs>
       <use xlink:href="#DejaVuSans-35"/>
       <use xlink:href="#DejaVuSans-30" x="63.623047"/>
       <use xlink:href="#DejaVuSans-30" x="127.246094"/>
      </g>
     </g>
    </g>
    <g id="text_7">
     <!-- epoch -->
     <g transform="translate(353.771875 348.676562) scale(0.1 -0.1)">
      <defs>
       <path id="DejaVuSans-65" d="M 3597 1894 
L 3597 1613 
L 953 1613 
Q 991 1019 1311 708 
Q 1631 397 2203 397 
Q 2534 397 2845 478 
Q 3156 559 3463 722 
L 3463 178 
Q 3153 47 2828 -22 
Q 2503 -91 2169 -91 
Q 1331 -91 842 396 
Q 353 884 353 1716 
Q 353 2575 817 3079 
Q 1281 3584 2069 3584 
Q 2775 3584 3186 3129 
Q 3597 2675 3597 1894 
z
M 3022 2063 
Q 3016 2534 2758 2815 
Q 2500 3097 2075 3097 
Q 1594 3097 1305 2825 
Q 1016 2553 972 2059 
L 3022 2063 
z
" transform="scale(0.015625)"/>
       <path id="DejaVuSans-70" d="M 1159 525 
L 1159 -1331 
L 581 -1331 
L 581 3500 
L 1159 3500 
L 1159 2969 
Q 1341 3281 1617 3432 
Q 1894 3584 2278 3584 
Q 2916 3584 3314 3078 
Q 3713 2572 3713 1747 
Q 3713 922 3314 415 
Q 2916 -91 2278 -91 
Q 1894 -91 1617 61 
Q 1341 213 1159 525 
z
M 3116 1747 
Q 3116 2381 2855 2742 
Q 2594 3103 2138 3103 
Q 1681 3103 1420 2742 
Q 1159 2381 1159 1747 
Q 1159 1113 1420 752 
Q 1681 391 2138 391 
Q 2594 391 2855 752 
Q 3116 1113 3116 1747 
z
" transform="scale(0.015625)"/>
       <path id="DejaVuSans-6f" d="M 1959 3097 
Q 1497 3097 1228 2736 
Q 959 2375 959 1747 
Q 959 1119 1226 758 
Q 1494 397 1959 397 
Q 2419 397 2687 759 
Q 2956 1122 2956 1747 
Q 2956 2369 2687 2733 
Q 2419 3097 1959 3097 
z
M 1959 3584 
Q 2709 3584 3137 3096 
Q 3566 2609 3566 1747 
Q 3566 888 3137 398 
Q 2709 -91 1959 -91 
Q 1206 -91 779 398 
Q 353 888 353 1747 
Q 353 2609 779 3096 
Q 1206 3584 1959 3584 
z
" transform="scale(0.015625)"/>
       <path id="DejaVuSans-63" d="M 3122 3366 
L 3122 2828 
Q 2878 2963 2633 3030 
Q 2388 3097 2138 3097 
Q 1578 3097 1268 2742 
Q 959 2388 959 1747 
Q 959 1106 1268 751 
Q 1578 397 2138 397 
Q 2388 397 2633 464 
Q 2878 531 3122 666 
L 3122 134 
Q 2881 22 2623 -34 
Q 2366 -91 2075 -91 
Q 1284 -91 818 406 
Q 353 903 353 1747 
Q 353 2603 823 3093 
Q 1294 3584 2113 3584 
Q 2378 3584 2631 3529 
Q 2884 3475 3122 3366 
z
" transform="scale(0.015625)"/>
       <path id="DejaVuSans-68" d="M 3513 2113 
L 3513 0 
L 2938 0 
L 2938 2094 
Q 2938 2591 2744 2837 
Q 2550 3084 2163 3084 
Q 1697 3084 1428 2787 
Q 1159 2491 1159 1978 
L 1159 0 
L 581 0 
L 581 4863 
L 1159 4863 
L 1159 2956 
Q 1366 3272 1645 3428 
Q 1925 3584 2291 3584 
Q 2894 3584 3203 3211 
Q 3513 2838 3513 2113 
z
" transform="scale(0.015625)"/>
      </defs>
      <use xlink:href="#DejaVuSans-65"/>
      <use xlink:href="#DejaVuSans-70" x="61.523438"/>
      <use xlink:href="#DejaVuSans-6f" x="125"/>
      <use xlink:href="#DejaVuSans-63" x="186.181641"/>
      <use xlink:href="#DejaVuSans-68" x="241.162109"/>
     </g>
    </g>
   </g>
   <g id="matplotlib.axis_2">
    <g id="ytick_1">
     <g id="line2d_13">
      <path d="M 90 287.126559 
L 648 287.126559 
" clip-path="url(#pce7d9d0e1a)" style="fill: none; stroke: #b0b0b0; stroke-width: 0.8; stroke-linecap: square"/>
     </g>
     <g id="line2d_14">
      <defs>
       <path id="mafdc3cc813" d="M 0 0 
L -3.5 0 
" style="stroke: #000000; stroke-width: 0.8"/>
      </defs>
      <g>
       <use xlink:href="#mafdc3cc813" x="90" y="287.126559" style="stroke: #000000; stroke-width: 0.8"/>
      </g>
     </g>
     <g id="text_8">
      <!-- 0.5 -->
      <g transform="translate(67.096875 290.925778) scale(0.1 -0.1)">
       <defs>
        <path id="DejaVuSans-2e" d="M 684 794 
L 1344 794 
L 1344 0 
L 684 0 
L 684 794 
z
" transform="scale(0.015625)"/>
       </defs>
       <use xlink:href="#DejaVuSans-30"/>
       <use xlink:href="#DejaVuSans-2e" x="63.623047"/>
       <use xlink:href="#DejaVuSans-35" x="95.410156"/>
      </g>
     </g>
    </g>
    <g id="ytick_2">
     <g id="line2d_15">
      <path d="M 90 242.421233 
L 648 242.421233 
" clip-path="url(#pce7d9d0e1a)" style="fill: none; stroke: #b0b0b0; stroke-width: 0.8; stroke-linecap: square"/>
     </g>
     <g id="line2d_16">
      <g>
       <use xlink:href="#mafdc3cc813" x="90" y="242.421233" style="stroke: #000000; stroke-width: 0.8"/>
      </g>
     </g>
     <g id="text_9">
      <!-- 1.0 -->
      <g transform="translate(67.096875 246.220451) scale(0.1 -0.1)">
       <use xlink:href="#DejaVuSans-31"/>
       <use xlink:href="#DejaVuSans-2e" x="63.623047"/>
       <use xlink:href="#DejaVuSans-30" x="95.410156"/>
      </g>
     </g>
    </g>
    <g id="ytick_3">
     <g id="line2d_17">
      <path d="M 90 197.715906 
L 648 197.715906 
" clip-path="url(#pce7d9d0e1a)" style="fill: none; stroke: #b0b0b0; stroke-width: 0.8; stroke-linecap: square"/>
     </g>
     <g id="line2d_18">
      <g>
       <use xlink:href="#mafdc3cc813" x="90" y="197.715906" style="stroke: #000000; stroke-width: 0.8"/>
      </g>
     </g>
     <g id="text_10">
      <!-- 1.5 -->
      <g transform="translate(67.096875 201.515125) scale(0.1 -0.1)">
       <use xlink:href="#DejaVuSans-31"/>
       <use xlink:href="#DejaVuSans-2e" x="63.623047"/>
       <use xlink:href="#DejaVuSans-35" x="95.410156"/>
      </g>
     </g>
    </g>
    <g id="ytick_4">
     <g id="line2d_19">
      <path d="M 90 153.01058 
L 648 153.01058 
" clip-path="url(#pce7d9d0e1a)" style="fill: none; stroke: #b0b0b0; stroke-width: 0.8; stroke-linecap: square"/>
     </g>
     <g id="line2d_20">
      <g>
       <use xlink:href="#mafdc3cc813" x="90" y="153.01058" style="stroke: #000000; stroke-width: 0.8"/>
      </g>
     </g>
     <g id="text_11">
      <!-- 2.0 -->
      <g transform="translate(67.096875 156.809799) scale(0.1 -0.1)">
       <use xlink:href="#DejaVuSans-32"/>
       <use xlink:href="#DejaVuSans-2e" x="63.623047"/>
       <use xlink:href="#DejaVuSans-30" x="95.410156"/>
      </g>
     </g>
    </g>
    <g id="ytick_5">
     <g id="line2d_21">
      <path d="M 90 108.305254 
L 648 108.305254 
" clip-path="url(#pce7d9d0e1a)" style="fill: none; stroke: #b0b0b0; stroke-width: 0.8; stroke-linecap: square"/>
     </g>
     <g id="line2d_22">
      <g>
       <use xlink:href="#mafdc3cc813" x="90" y="108.305254" style="stroke: #000000; stroke-width: 0.8"/>
      </g>
     </g>
     <g id="text_12">
      <!-- 2.5 -->
      <g transform="translate(67.096875 112.104473) scale(0.1 -0.1)">
       <use xlink:href="#DejaVuSans-32"/>
       <use xlink:href="#DejaVuSans-2e" x="63.623047"/>
       <use xlink:href="#DejaVuSans-35" x="95.410156"/>
      </g>
     </g>
    </g>
    <g id="ytick_6">
     <g id="line2d_23">
      <path d="M 90 63.599928 
L 648 63.599928 
" clip-path="url(#pce7d9d0e1a)" style="fill: none; stroke: #b0b0b0; stroke-width: 0.8; stroke-linecap: square"/>
     </g>
     <g id="line2d_24">
      <g>
       <use xlink:href="#mafdc3cc813" x="90" y="63.599928" style="stroke: #000000; stroke-width: 0.8"/>
      </g>
     </g>
     <g id="text_13">
      <!-- 3.0 -->
      <g transform="translate(67.096875 67.399147) scale(0.1 -0.1)">
       <use xlink:href="#DejaVuSans-33"/>
       <use xlink:href="#DejaVuSans-2e" x="63.623047"/>
       <use xlink:href="#DejaVuSans-30" x="95.410156"/>
      </g>
     </g>
    </g>
    <g id="text_14">
     <!-- loss -->
     <g transform="translate(61.017187 191.457812) rotate(-90) scale(0.1 -0.1)">
      <defs>
       <path id="DejaVuSans-6c" d="M 603 4863 
L 1178 4863 
L 1178 0 
L 603 0 
L 603 4863 
z
" transform="scale(0.015625)"/>
       <path id="DejaVuSans-73" d="M 2834 3397 
L 2834 2853 
Q 2591 2978 2328 3040 
Q 2066 3103 1784 3103 
Q 1356 3103 1142 2972 
Q 928 2841 928 2578 
Q 928 2378 1081 2264 
Q 1234 2150 1697 2047 
L 1894 2003 
Q 2506 1872 2764 1633 
Q 3022 1394 3022 966 
Q 3022 478 2636 193 
Q 2250 -91 1575 -91 
Q 1294 -91 989 -36 
Q 684 19 347 128 
L 347 722 
Q 666 556 975 473 
Q 1284 391 1588 391 
Q 1994 391 2212 530 
Q 2431 669 2431 922 
Q 2431 1156 2273 1281 
Q 2116 1406 1581 1522 
L 1381 1569 
Q 847 1681 609 1914 
Q 372 2147 372 2553 
Q 372 3047 722 3315 
Q 1072 3584 1716 3584 
Q 2034 3584 2315 3537 
Q 2597 3491 2834 3397 
z
" transform="scale(0.015625)"/>
      </defs>
      <use xlink:href="#DejaVuSans-6c"/>
      <use xlink:href="#DejaVuSans-6f" x="27.783203"/>
      <use xlink:href="#DejaVuSans-73" x="88.964844"/>
      <use xlink:href="#DejaVuSans-73" x="141.064453"/>
     </g>
    </g>
   </g>
   <g id="line2d_25">
    <path d="M 115.363636 207.467186 
L 116.380215 207.546059 
L 117.396794 207.452562 
L 118.413372 207.610938 
L 119.429951 208.03597 
L 120.446529 210.464549 
L 121.463108 212.2814 
L 122.479687 215.847868 
L 123.496265 220.375046 
L 124.512844 227.451726 
L 125.529422 233.613152 
L 126.546001 236.971756 
L 127.56258 220.865714 
L 128.579158 236.502395 
L 129.595737 240.869397 
L 130.612316 243.581861 
L 131.628894 244.80568 
L 132.645473 246.938147 
L 133.662051 251.456788 
L 134.67863 255.341612 
L 136.711787 259.99745 
L 137.728366 262.801792 
L 139.761523 266.572164 
L 140.778102 267.109228 
L 141.79468 268.531674 
L 142.811259 269.550309 
L 144.844416 270.645495 
L 145.860995 272.566176 
L 146.877573 271.718393 
L 147.894152 272.457448 
L 148.910731 273.811141 
L 149.927309 274.383427 
L 150.943888 275.103339 
L 151.960466 274.774437 
L 152.977045 276.602421 
L 155.010202 276.808403 
L 156.026781 277.402059 
L 157.043359 277.723533 
L 158.059938 279.145217 
L 159.076517 279.752042 
L 160.093095 279.02558 
L 161.109674 280.84008 
L 162.126253 279.595894 
L 163.142831 281.947192 
L 164.15941 282.283471 
L 165.175988 280.79266 
L 166.192567 281.15243 
L 167.209146 280.780573 
L 169.242303 282.534949 
L 170.258881 282.684899 
L 171.27546 283.15968 
L 172.292039 282.491558 
L 173.308617 284.320959 
L 174.325196 284.542541 
L 175.341774 283.371061 
L 176.358353 283.516466 
L 177.374932 285.119783 
L 178.39151 284.70477 
L 179.408089 283.413621 
L 180.424668 280.010917 
L 181.441246 283.143378 
L 182.457825 284.571356 
L 183.474403 284.473457 
L 184.490982 284.226391 
L 185.507561 282.8351 
L 187.540718 286.850875 
L 188.557296 287.733221 
L 190.590454 287.203362 
L 192.623611 287.989971 
L 193.640189 286.688406 
L 194.656768 287.145974 
L 195.673347 286.71364 
L 196.689925 288.558473 
L 197.706504 288.526745 
L 198.723083 289.244288 
L 199.739661 284.361643 
L 200.75624 286.744737 
L 201.772818 287.144508 
L 202.789397 287.396077 
L 203.805976 288.231486 
L 204.822554 289.308687 
L 205.839133 290.086479 
L 206.855711 290.131943 
L 207.87229 290.643808 
L 208.888869 289.683808 
L 209.905447 288.223942 
L 210.922026 289.310435 
L 211.938604 289.187635 
L 212.955183 289.458171 
L 213.971762 289.259999 
L 214.98834 288.679282 
L 216.004919 290.535269 
L 217.021498 290.150939 
L 218.038076 290.614875 
L 219.054655 288.814057 
L 220.071233 290.92403 
L 221.087812 291.628178 
L 222.104391 292.044708 
L 223.120969 292.030545 
L 224.137548 291.067926 
L 225.154126 290.288365 
L 226.170705 292.245377 
L 227.187284 292.134671 
L 228.203862 291.612726 
L 230.237019 292.50968 
L 231.253598 292.08334 
L 232.270177 292.202833 
L 233.286755 292.6082 
L 234.303334 291.794132 
L 235.319913 290.448556 
L 237.35307 292.42495 
L 238.369648 292.018578 
L 239.386227 292.718794 
L 240.402806 291.716442 
L 241.419384 289.540338 
L 242.435963 292.625622 
L 243.452541 293.005405 
L 244.46912 292.432275 
L 245.485699 289.823161 
L 246.502277 292.910891 
L 247.518856 292.060775 
L 248.535435 293.335568 
L 249.552013 292.48844 
L 250.568592 290.479413 
L 251.58517 292.686626 
L 252.601749 292.97715 
L 253.618328 293.752012 
L 254.634906 293.946526 
L 255.651485 293.958043 
L 256.668063 294.371276 
L 257.684642 291.877032 
L 258.701221 293.301077 
L 259.717799 293.475537 
L 260.734378 294.690373 
L 261.750956 296.211914 
L 262.767535 294.80338 
L 263.784114 294.308103 
L 264.800692 295.26734 
L 265.817271 297.329714 
L 266.83385 297.360419 
L 268.867007 292.604003 
L 269.883585 292.81321 
L 270.900164 291.982435 
L 271.916743 294.155693 
L 272.933321 295.113065 
L 273.9499 293.989496 
L 274.966478 295.168197 
L 275.983057 295.54292 
L 276.999636 293.321763 
L 278.016214 292.907642 
L 279.032793 291.433971 
L 280.049371 292.393406 
L 281.06595 294.11839 
L 282.082529 295.330967 
L 283.099107 296.361569 
L 284.115686 296.188993 
L 285.132265 295.629274 
L 286.148843 294.555264 
L 287.165422 296.740303 
L 288.182 294.417369 
L 289.198579 295.193545 
L 290.215158 293.879385 
L 291.231736 295.700012 
L 292.248315 295.945935 
L 293.264893 294.70838 
L 294.281472 289.533024 
L 295.298051 292.721733 
L 296.314629 294.282791 
L 297.331208 295.573729 
L 298.347786 295.573596 
L 299.364365 296.789428 
L 300.380944 295.166108 
L 301.397522 296.963869 
L 303.43068 297.223477 
L 304.447258 297.857969 
L 305.463837 297.280661 
L 306.480415 296.834991 
L 307.496994 295.713983 
L 308.513573 296.379518 
L 309.530151 297.431677 
L 310.54673 298.723697 
L 311.563308 298.163231 
L 312.579887 294.458181 
L 313.596466 294.437503 
L 314.613044 295.864778 
L 315.629623 295.823494 
L 316.646201 296.094302 
L 317.66278 296.559712 
L 318.679359 298.156191 
L 319.695937 296.998328 
L 320.712516 298.738611 
L 321.729095 298.282085 
L 322.745673 298.040274 
L 323.762252 298.598349 
L 324.77883 298.578114 
L 325.795409 299.62048 
L 326.811988 298.300407 
L 327.828566 294.118969 
L 328.845145 283.025995 
L 329.861723 292.731552 
L 330.878302 293.255053 
L 331.894881 295.074049 
L 332.911459 297.485836 
L 333.928038 298.552605 
L 334.944617 297.851212 
L 336.977774 297.838174 
L 337.994352 298.313107 
L 340.02751 299.762122 
L 341.044088 300.032226 
L 342.060667 298.940103 
L 343.077245 299.103973 
L 344.093824 298.049768 
L 345.110403 298.337326 
L 346.126981 298.149863 
L 347.14356 298.216303 
L 348.160138 299.180379 
L 349.176717 299.018635 
L 350.193296 298.067037 
L 351.209874 298.865938 
L 352.226453 298.870838 
L 353.243032 298.644605 
L 354.25961 299.930522 
L 355.276189 300.66149 
L 356.292767 298.970461 
L 357.309346 300.038462 
L 359.342503 298.803977 
L 360.359082 299.503838 
L 361.37566 298.121969 
L 362.392239 298.029972 
L 363.408818 297.785648 
L 364.425396 299.495852 
L 365.441975 300.702875 
L 366.458553 300.901314 
L 367.475132 301.382016 
L 368.491711 299.777684 
L 369.508289 298.955976 
L 370.524868 300.463212 
L 372.558025 301.875689 
L 373.574604 301.608497 
L 374.591182 301.63266 
L 375.607761 300.648279 
L 376.62434 300.252062 
L 377.640918 300.376437 
L 378.657497 301.227293 
L 379.674075 300.703059 
L 380.690654 301.892871 
L 381.707233 300.559744 
L 383.74039 301.656671 
L 384.756968 301.716581 
L 385.773547 301.326788 
L 386.790126 302.046951 
L 387.806704 301.342147 
L 388.823283 302.00113 
L 389.839862 302.156495 
L 390.85644 301.297099 
L 391.873019 299.807586 
L 392.889597 299.833348 
L 394.922755 300.922213 
L 395.939333 300.54836 
L 396.955912 301.823417 
L 397.97249 301.931029 
L 398.989069 302.424958 
L 400.005648 301.142936 
L 401.022226 296.929607 
L 402.038805 295.928369 
L 403.055383 299.639066 
L 404.071962 300.116869 
L 405.088541 301.037219 
L 406.105119 302.416673 
L 407.121698 302.979716 
L 408.138277 303.395789 
L 409.154855 303.500574 
L 410.171434 303.189983 
L 411.188012 303.039039 
L 413.22117 303.721641 
L 414.237748 302.198415 
L 415.254327 304.399641 
L 416.270905 302.578641 
L 417.287484 302.902284 
L 418.304063 304.418032 
L 419.320641 302.136609 
L 420.33722 303.061893 
L 422.370377 301.141913 
L 423.386956 295.236337 
L 424.403534 299.632812 
L 425.420113 298.395921 
L 426.436692 299.391052 
L 427.45327 300.85408 
L 428.469849 301.850194 
L 429.486427 303.118637 
L 430.503006 303.837865 
L 431.519585 302.306243 
L 432.536163 301.495538 
L 433.552742 300.392124 
L 434.56932 299.898776 
L 435.585899 299.014372 
L 436.602478 301.602417 
L 437.619056 301.436047 
L 438.635635 301.762221 
L 439.652214 302.306784 
L 441.685371 300.772057 
L 442.701949 298.921014 
L 443.718528 301.6668 
L 444.735107 301.161162 
L 445.751685 300.988498 
L 446.768264 298.342167 
L 447.784842 302.952552 
L 449.818 304.208088 
L 450.834578 303.417911 
L 451.851157 299.071014 
L 452.867735 297.270628 
L 453.884314 296.476929 
L 454.900893 298.964277 
L 457.950629 303.902946 
L 458.967207 302.87326 
L 459.983786 303.065584 
L 461.000364 304.208506 
L 462.016943 287.473091 
L 463.033522 263.857029 
L 464.0501 283.104464 
L 465.066679 290.049016 
L 466.083257 293.48049 
L 467.099836 296.3115 
L 468.116415 298.459406 
L 469.132993 298.99006 
L 471.16615 301.234056 
L 472.182729 301.510899 
L 473.199308 302.582668 
L 475.232465 302.364745 
L 476.249044 303.72968 
L 477.265622 303.253844 
L 478.282201 304.680804 
L 480.315358 302.581415 
L 482.348515 302.364281 
L 484.381672 303.593357 
L 485.398251 302.727464 
L 486.41483 303.485732 
L 487.431408 303.166526 
L 488.447987 304.136513 
L 489.464565 302.933873 
L 490.481144 304.758955 
L 492.514301 304.835569 
L 493.53088 304.319137 
L 494.547459 303.457148 
L 495.564037 302.433088 
L 496.580616 300.943492 
L 498.613773 302.437636 
L 499.630352 303.914601 
L 500.64693 301.987141 
L 501.663509 297.76892 
L 502.680087 301.73304 
L 504.713245 304.95875 
L 505.729823 305.084135 
L 506.746402 303.757947 
L 507.762981 303.863197 
L 508.779559 302.254285 
L 509.796138 300.14525 
L 511.829295 303.661486 
L 512.845874 303.929656 
L 513.862452 303.519397 
L 514.879031 302.772675 
L 515.895609 304.817236 
L 516.912188 304.522247 
L 517.928767 305.391446 
L 518.945345 305.845033 
L 519.961924 305.553251 
L 520.978502 305.071966 
L 521.995081 306.208008 
L 523.01166 305.62938 
L 524.028238 305.505863 
L 525.044817 304.379448 
L 526.061396 300.621385 
L 527.077974 302.274443 
L 528.094553 301.741516 
L 529.111131 290.588037 
L 530.12771 296.376062 
L 531.144289 299.501237 
L 532.160867 300.647093 
L 533.177446 302.94588 
L 534.194024 303.370433 
L 535.210603 304.3102 
L 536.227182 304.521325 
L 537.24376 303.498368 
L 538.260339 302.303 
L 539.276917 304.461565 
L 540.293496 303.647364 
L 541.310075 304.561249 
L 542.326653 303.671977 
L 543.343232 304.042475 
L 544.359811 304.025967 
L 545.376389 303.839152 
L 546.392968 304.93378 
L 547.409546 303.537215 
L 548.426125 304.420572 
L 549.442704 304.333225 
L 550.459282 304.756099 
L 551.475861 305.489465 
L 552.492439 305.47527 
L 553.509018 306.030375 
L 554.525597 305.680022 
L 555.542175 306.725708 
L 556.558754 304.78319 
L 557.575332 306.655178 
L 558.591911 307.166044 
L 559.60849 306.689509 
L 560.625068 305.141206 
L 561.641647 305.163216 
L 562.658226 302.427918 
L 563.674804 302.644916 
L 564.691383 303.752713 
L 565.707961 304.514652 
L 566.72454 304.452766 
L 567.741119 304.769776 
L 568.757697 304.590912 
L 569.774276 306.800436 
L 570.790854 306.296002 
L 571.807433 306.205247 
L 572.824012 304.494785 
L 573.84059 303.30995 
L 574.857169 305.569905 
L 575.873747 306.104412 
L 576.890326 305.975035 
L 577.906905 304.81184 
L 578.923483 304.391983 
L 579.940062 304.552653 
L 580.956641 304.3626 
L 581.973219 303.149912 
L 582.989798 301.418711 
L 584.006376 302.115646 
L 585.022955 304.275335 
L 586.039534 303.096006 
L 587.056112 302.695196 
L 588.072691 304.221454 
L 589.089269 305.047086 
L 591.122427 307.205089 
L 592.139005 307.8 
L 593.155584 306.7344 
L 594.172163 305.317577 
L 595.188741 305.275377 
L 596.20532 306.327067 
L 598.238477 304.40221 
L 599.255056 305.73818 
L 600.271634 306.517901 
L 601.288213 304.481006 
L 602.304791 305.068739 
L 603.32137 303.244038 
L 604.337949 303.597021 
L 605.354527 301.69334 
L 606.371106 304.091262 
L 607.387684 302.054721 
L 608.404263 278.668677 
L 609.420842 277.573263 
L 610.43742 289.312466 
L 611.453999 295.749417 
L 612.470578 297.274817 
L 613.487156 300.265386 
L 614.503735 300.571631 
L 615.520313 300.458796 
L 616.536892 296.650211 
L 617.553471 298.868224 
L 618.570049 299.293384 
L 619.586628 301.524833 
L 620.603206 303.043566 
L 621.619785 303.435394 
L 622.636364 304.978844 
L 622.636364 304.978844 
" clip-path="url(#pce7d9d0e1a)" style="fill: none; stroke: #1f77b4; stroke-width: 1.5; stroke-linecap: square"/>
   </g>
   <g id="line2d_26">
    <path d="M 115.363636 208.589161 
L 118.413372 208.390464 
L 119.429951 209.159523 
L 120.446529 216.408381 
L 121.463108 213.183574 
L 122.479687 213.365356 
L 123.496265 219.088481 
L 124.512844 221.930485 
L 125.529422 225.800818 
L 126.546001 221.720106 
L 127.56258 223.237419 
L 128.579158 223.517121 
L 129.595737 222.938701 
L 130.612316 221.849021 
L 131.628894 221.200362 
L 132.645473 225.335358 
L 133.662051 223.979661 
L 134.67863 223.163907 
L 135.695209 225.328632 
L 136.711787 220.531823 
L 137.728366 219.39256 
L 138.744944 225.689532 
L 139.761523 224.241915 
L 140.778102 222.259014 
L 141.79468 217.525955 
L 142.811259 221.390148 
L 143.827837 223.498714 
L 144.844416 218.968114 
L 146.877573 214.807121 
L 147.894152 218.391101 
L 148.910731 217.594106 
L 149.927309 216.424401 
L 151.960466 206.904743 
L 152.977045 212.520856 
L 153.993624 210.026567 
L 155.010202 209.375807 
L 156.026781 204.303208 
L 157.043359 208.084755 
L 158.059938 208.532372 
L 159.076517 205.653575 
L 160.093095 209.019459 
L 161.109674 208.851693 
L 163.142831 207.141662 
L 164.15941 195.498101 
L 166.192567 202.118753 
L 167.209146 201.099441 
L 168.225724 201.098013 
L 169.242303 200.897056 
L 170.258881 197.97605 
L 171.27546 192.832571 
L 172.292039 185.57703 
L 173.308617 197.177147 
L 174.325196 197.925102 
L 175.341774 195.688687 
L 176.358353 203.180305 
L 177.374932 193.955389 
L 178.39151 196.420537 
L 179.408089 198.103879 
L 180.424668 205.791828 
L 181.441246 203.512895 
L 182.457825 199.705959 
L 183.474403 197.368479 
L 184.490982 183.415897 
L 185.507561 205.367371 
L 186.524139 199.649192 
L 187.540718 200.015058 
L 188.557296 192.812395 
L 189.573875 193.295804 
L 190.590454 191.437747 
L 191.607032 189.042945 
L 192.623611 188.4099 
L 193.640189 195.352228 
L 194.656768 188.317842 
L 195.673347 196.217651 
L 196.689925 189.837937 
L 198.723083 183.277037 
L 199.739661 196.949395 
L 200.75624 178.197946 
L 201.772818 190.651687 
L 202.789397 195.779807 
L 203.805976 183.016328 
L 204.822554 186.28266 
L 205.839133 182.496264 
L 206.855711 187.08943 
L 207.87229 187.643239 
L 208.888869 183.361986 
L 209.905447 192.427545 
L 210.922026 186.526049 
L 211.938604 182.112438 
L 212.955183 179.265446 
L 213.971762 176.024203 
L 214.98834 171.871375 
L 216.004919 180.915735 
L 217.021498 177.781089 
L 218.038076 170.929285 
L 219.054655 175.981324 
L 220.071233 178.800454 
L 221.087812 182.630914 
L 222.104391 184.363903 
L 223.120969 178.477329 
L 224.137548 171.064819 
L 225.154126 183.541348 
L 226.170705 184.95021 
L 227.187284 183.948378 
L 228.203862 183.913695 
L 229.220441 188.258431 
L 230.237019 180.825414 
L 231.253598 180.169357 
L 232.270177 176.077485 
L 233.286755 164.968911 
L 234.303334 168.880578 
L 235.319913 177.810997 
L 236.336491 172.215807 
L 237.35307 173.324054 
L 238.369648 171.926235 
L 239.386227 179.755314 
L 240.402806 166.484049 
L 241.419384 183.795118 
L 242.435963 184.880077 
L 243.452541 171.379066 
L 244.46912 165.11083 
L 245.485699 177.079136 
L 246.502277 172.979207 
L 247.518856 176.024331 
L 248.535435 171.839772 
L 249.552013 173.681138 
L 250.568592 166.277432 
L 251.58517 168.234241 
L 252.601749 166.655013 
L 253.618328 171.006272 
L 254.634906 161.539011 
L 255.651485 170.775332 
L 256.668063 171.52851 
L 257.684642 178.367588 
L 258.701221 175.376417 
L 259.717799 169.460873 
L 260.734378 171.122418 
L 261.750956 155.910002 
L 262.767535 168.859974 
L 263.784114 174.69187 
L 264.800692 161.618588 
L 265.817271 159.066242 
L 266.83385 153.739787 
L 267.850428 162.296645 
L 268.867007 173.176348 
L 269.883585 174.277379 
L 270.900164 174.815829 
L 271.916743 178.883954 
L 272.933321 176.268871 
L 273.9499 165.244371 
L 274.966478 160.128508 
L 275.983057 166.65027 
L 276.999636 158.263374 
L 278.016214 163.734274 
L 279.032793 176.723438 
L 280.049371 168.287044 
L 281.06595 165.154167 
L 282.082529 168.436307 
L 284.115686 155.064606 
L 285.132265 159.267508 
L 286.148843 156.958305 
L 287.165422 163.475547 
L 288.182 164.285067 
L 289.198579 152.168105 
L 290.215158 161.908864 
L 291.231736 165.370238 
L 292.248315 165.086794 
L 293.264893 158.500143 
L 294.281472 171.792193 
L 295.298051 158.119579 
L 296.314629 161.333535 
L 297.331208 164.916097 
L 298.347786 160.900989 
L 299.364365 160.231012 
L 300.380944 152.449619 
L 301.397522 147.839101 
L 302.414101 154.86819 
L 303.43068 144.922274 
L 304.447258 144.740801 
L 305.463837 145.958608 
L 306.480415 143.698498 
L 307.496994 144.684822 
L 308.513573 140.449571 
L 309.530151 142.66031 
L 310.54673 145.179146 
L 311.563308 136.214256 
L 312.579887 130.24413 
L 313.596466 137.175255 
L 314.613044 146.663545 
L 315.629623 146.71283 
L 316.646201 149.229278 
L 317.66278 147.451512 
L 318.679359 156.377327 
L 319.695937 138.148831 
L 320.712516 147.940571 
L 321.729095 146.053512 
L 322.745673 147.515762 
L 323.762252 141.552159 
L 324.77883 140.670907 
L 325.795409 136.388204 
L 326.811988 137.881727 
L 327.828566 127.039777 
L 328.845145 154.203883 
L 329.861723 157.384915 
L 330.878302 153.142885 
L 331.894881 158.91667 
L 332.911459 157.8613 
L 333.928038 160.279604 
L 334.944617 160.438705 
L 335.961195 151.504224 
L 336.977774 154.843824 
L 337.994352 150.35248 
L 339.010931 152.530006 
L 340.02751 158.107727 
L 341.044088 147.133844 
L 342.060667 146.640778 
L 343.077245 137.537818 
L 344.093824 144.015335 
L 345.110403 146.976396 
L 346.126981 154.950783 
L 347.14356 140.913774 
L 348.160138 142.606804 
L 349.176717 140.357225 
L 350.193296 151.501624 
L 351.209874 145.644329 
L 352.226453 144.918479 
L 353.243032 143.596091 
L 354.25961 140.499368 
L 355.276189 127.080215 
L 356.292767 142.126571 
L 357.309346 135.281098 
L 358.325925 132.174143 
L 359.342503 133.184683 
L 360.359082 144.595823 
L 361.37566 148.902763 
L 362.392239 148.891316 
L 363.408818 135.724601 
L 364.425396 150.629219 
L 365.441975 139.671303 
L 366.458553 136.850638 
L 367.475132 132.800313 
L 368.491711 114.766485 
L 369.508289 129.552665 
L 370.524868 140.296066 
L 371.541447 132.298976 
L 372.558025 120.880908 
L 373.574604 134.559448 
L 375.607761 129.122186 
L 376.62434 108.679519 
L 377.640918 118.432504 
L 378.657497 121.459584 
L 379.674075 107.35161 
L 380.690654 118.689461 
L 382.723811 129.657993 
L 383.74039 117.563574 
L 384.756968 117.544623 
L 385.773547 121.310662 
L 386.790126 124.635968 
L 387.806704 125.285119 
L 388.823283 118.214856 
L 389.839862 122.156719 
L 390.85644 120.696898 
L 391.873019 116.406606 
L 392.889597 133.098263 
L 393.906176 124.838439 
L 394.922755 132.694303 
L 395.939333 126.345477 
L 396.955912 134.61581 
L 397.97249 117.866768 
L 398.989069 129.544138 
L 400.005648 120.54836 
L 401.022226 128.427375 
L 402.038805 139.629969 
L 403.055383 136.407646 
L 404.071962 137.355726 
L 405.088541 128.898633 
L 406.105119 112.898782 
L 407.121698 132.575588 
L 408.138277 123.780404 
L 409.154855 121.304906 
L 410.171434 129.101892 
L 411.188012 117.172447 
L 412.204591 112.927688 
L 413.22117 106.116173 
L 414.237748 120.884788 
L 415.254327 117.123268 
L 416.270905 124.611944 
L 417.287484 126.990918 
L 418.304063 127.55092 
L 419.320641 116.489722 
L 420.33722 130.469068 
L 421.353799 121.258009 
L 422.370377 104.450451 
L 423.386956 139.583263 
L 424.403534 134.244593 
L 425.420113 143.794809 
L 426.436692 141.536704 
L 427.45327 139.829391 
L 428.469849 123.708374 
L 429.486427 128.067029 
L 430.503006 126.863143 
L 431.519585 134.511314 
L 432.536163 140.228022 
L 433.552742 127.583386 
L 434.56932 123.160437 
L 435.585899 128.524304 
L 436.602478 123.280922 
L 437.619056 123.878143 
L 438.635635 119.62311 
L 439.652214 120.411589 
L 440.668792 129.400972 
L 441.685371 127.986813 
L 442.701949 132.030444 
L 443.718528 133.428509 
L 444.735107 123.92988 
L 445.751685 107.389618 
L 446.768264 129.415297 
L 447.784842 124.808723 
L 448.801421 121.757917 
L 449.818 116.213281 
L 450.834578 119.206658 
L 451.851157 123.565549 
L 452.867735 121.846618 
L 453.884314 121.05524 
L 454.900893 124.129174 
L 455.917471 129.155036 
L 456.93405 131.281849 
L 457.950629 124.840677 
L 458.967207 120.471533 
L 459.983786 114.690831 
L 461.000364 116.865352 
L 462.016943 57.176961 
L 463.033522 161.657364 
L 464.0501 175.347351 
L 465.066679 165.942689 
L 466.083257 161.194185 
L 468.116415 144.852673 
L 469.132993 143.202619 
L 470.149572 137.415649 
L 471.16615 140.155309 
L 472.182729 138.649102 
L 473.199308 129.910111 
L 474.215886 136.233378 
L 475.232465 128.121516 
L 476.249044 109.753094 
L 477.265622 122.666391 
L 478.282201 113.399288 
L 479.298779 117.773761 
L 480.315358 110.828417 
L 481.331937 122.460787 
L 482.348515 121.89989 
L 483.365094 106.410521 
L 484.381672 100.106397 
L 485.398251 104.41694 
L 486.41483 93.061502 
L 487.431408 93.427645 
L 488.447987 102.719625 
L 489.464565 91.687525 
L 490.481144 90.582614 
L 491.497723 85.754682 
L 492.514301 87.167435 
L 493.53088 86.288869 
L 494.547459 99.734434 
L 495.564037 87.2109 
L 496.580616 84.183331 
L 497.597194 98.108467 
L 498.613773 90.821537 
L 499.630352 90.63855 
L 500.64693 72.749935 
L 501.663509 87.266069 
L 502.680087 90.761678 
L 503.696666 87.177582 
L 504.713245 73.161868 
L 505.729823 81.734586 
L 506.746402 80.186896 
L 507.762981 78.19939 
L 508.779559 75.640947 
L 509.796138 89.713897 
L 510.812716 95.621906 
L 511.829295 95.251989 
L 512.845874 85.591713 
L 513.862452 92.629616 
L 514.879031 83.630193 
L 515.895609 80.884159 
L 516.912188 93.314622 
L 517.928767 89.61343 
L 518.945345 82.422533 
L 519.961924 78.294081 
L 520.978502 83.542622 
L 521.995081 83.409262 
L 523.01166 78.797422 
L 524.028238 64.857704 
L 525.044817 89.073572 
L 526.061396 96.307935 
L 527.077974 109.14758 
L 528.094553 98.51667 
L 529.111131 125.04739 
L 530.12771 111.218116 
L 531.144289 111.564712 
L 532.160867 117.188179 
L 533.177446 96.400963 
L 534.194024 100.010043 
L 535.210603 91.664908 
L 536.227182 99.485748 
L 537.24376 93.036198 
L 538.260339 104.579377 
L 539.276917 94.661994 
L 540.293496 92.033375 
L 541.310075 82.052339 
L 542.326653 89.364893 
L 543.343232 89.285678 
L 545.376389 84.636555 
L 546.392968 81.44011 
L 547.409546 80.36159 
L 548.426125 75.122365 
L 549.442704 91.038929 
L 550.459282 86.462092 
L 551.475861 80.866679 
L 552.492439 79.890097 
L 553.509018 83.555519 
L 554.525597 82.110322 
L 555.542175 94.364108 
L 556.558754 93.051312 
L 557.575332 87.790642 
L 558.591911 95.387246 
L 559.60849 78.823088 
L 560.625068 98.91513 
L 561.641647 90.290782 
L 562.658226 91.254766 
L 563.674804 90.654794 
L 564.691383 83.025233 
L 565.707961 82.22147 
L 566.72454 82.373418 
L 567.741119 92.876511 
L 568.757697 77.377273 
L 569.774276 75.957465 
L 570.790854 70.090811 
L 571.807433 56.049453 
L 572.824012 90.739509 
L 573.84059 83.31035 
L 574.857169 67.945836 
L 575.873747 88.136129 
L 576.890326 81.679204 
L 577.906905 63.514574 
L 578.923483 80.257264 
L 579.940062 65.647334 
L 580.956641 59.264358 
L 581.973219 84.324152 
L 582.989798 85.36396 
L 584.006376 75.684136 
L 585.022955 92.152133 
L 586.039534 84.668594 
L 587.056112 55.8 
L 588.072691 89.767062 
L 589.089269 83.527529 
L 590.105848 84.339713 
L 591.122427 84.919647 
L 592.139005 80.184871 
L 593.155584 92.816205 
L 594.172163 79.512016 
L 595.188741 61.911673 
L 596.20532 99.656903 
L 597.221898 88.285179 
L 598.238477 84.552821 
L 599.255056 76.230836 
L 600.271634 72.456611 
L 601.288213 73.412707 
L 602.304791 69.456711 
L 603.32137 98.026567 
L 604.337949 89.488085 
L 605.354527 83.974017 
L 606.371106 87.540101 
L 607.387684 82.755464 
L 608.404263 135.434517 
L 609.420842 155.337188 
L 610.43742 150.873386 
L 612.470578 138.772316 
L 613.487156 136.883295 
L 614.503735 126.470225 
L 615.520313 129.784319 
L 616.536892 124.427529 
L 617.553471 127.538279 
L 619.586628 117.930805 
L 620.603206 111.527279 
L 621.619785 106.652151 
L 622.636364 105.879212 
L 622.636364 105.879212 
" clip-path="url(#pce7d9d0e1a)" style="fill: none; stroke: #ff7f0e; stroke-width: 1.5; stroke-linecap: square"/>
   </g>
   <g id="patch_3">
    <path d="M 90 320.4 
L 90 43.2 
" style="fill: none; stroke: #000000; stroke-width: 0.8; stroke-linejoin: miter; stroke-linecap: square"/>
   </g>
   <g id="patch_4">
    <path d="M 648 320.4 
L 648 43.2 
" style="fill: none; stroke: #000000; stroke-width: 0.8; stroke-linejoin: miter; stroke-linecap: square"/>
   </g>
   <g id="patch_5">
    <path d="M 90 320.4 
L 648 320.4 
" style="fill: none; stroke: #000000; stroke-width: 0.8; stroke-linejoin: miter; stroke-linecap: square"/>
   </g>
   <g id="patch_6">
    <path d="M 90 43.2 
L 648 43.2 
" style="fill: none; stroke: #000000; stroke-width: 0.8; stroke-linejoin: miter; stroke-linecap: square"/>
   </g>
   <g id="text_15">
    <!-- model train and validation loss over time -->
    <g transform="translate(245.555625 37.2) scale(0.12 -0.12)">
     <defs>
      <path id="DejaVuSans-6d" d="M 3328 2828 
Q 3544 3216 3844 3400 
Q 4144 3584 4550 3584 
Q 5097 3584 5394 3201 
Q 5691 2819 5691 2113 
L 5691 0 
L 5113 0 
L 5113 2094 
Q 5113 2597 4934 2840 
Q 4756 3084 4391 3084 
Q 3944 3084 3684 2787 
Q 3425 2491 3425 1978 
L 3425 0 
L 2847 0 
L 2847 2094 
Q 2847 2600 2669 2842 
Q 2491 3084 2119 3084 
Q 1678 3084 1418 2786 
Q 1159 2488 1159 1978 
L 1159 0 
L 581 0 
L 581 3500 
L 1159 3500 
L 1159 2956 
Q 1356 3278 1631 3431 
Q 1906 3584 2284 3584 
Q 2666 3584 2933 3390 
Q 3200 3197 3328 2828 
z
" transform="scale(0.015625)"/>
      <path id="DejaVuSans-64" d="M 2906 2969 
L 2906 4863 
L 3481 4863 
L 3481 0 
L 2906 0 
L 2906 525 
Q 2725 213 2448 61 
Q 2172 -91 1784 -91 
Q 1150 -91 751 415 
Q 353 922 353 1747 
Q 353 2572 751 3078 
Q 1150 3584 1784 3584 
Q 2172 3584 2448 3432 
Q 2725 3281 2906 2969 
z
M 947 1747 
Q 947 1113 1208 752 
Q 1469 391 1925 391 
Q 2381 391 2643 752 
Q 2906 1113 2906 1747 
Q 2906 2381 2643 2742 
Q 2381 3103 1925 3103 
Q 1469 3103 1208 2742 
Q 947 2381 947 1747 
z
" transform="scale(0.015625)"/>
      <path id="DejaVuSans-20" transform="scale(0.015625)"/>
      <path id="DejaVuSans-74" d="M 1172 4494 
L 1172 3500 
L 2356 3500 
L 2356 3053 
L 1172 3053 
L 1172 1153 
Q 1172 725 1289 603 
Q 1406 481 1766 481 
L 2356 481 
L 2356 0 
L 1766 0 
Q 1100 0 847 248 
Q 594 497 594 1153 
L 594 3053 
L 172 3053 
L 172 3500 
L 594 3500 
L 594 4494 
L 1172 4494 
z
" transform="scale(0.015625)"/>
      <path id="DejaVuSans-72" d="M 2631 2963 
Q 2534 3019 2420 3045 
Q 2306 3072 2169 3072 
Q 1681 3072 1420 2755 
Q 1159 2438 1159 1844 
L 1159 0 
L 581 0 
L 581 3500 
L 1159 3500 
L 1159 2956 
Q 1341 3275 1631 3429 
Q 1922 3584 2338 3584 
Q 2397 3584 2469 3576 
Q 2541 3569 2628 3553 
L 2631 2963 
z
" transform="scale(0.015625)"/>
      <path id="DejaVuSans-61" d="M 2194 1759 
Q 1497 1759 1228 1600 
Q 959 1441 959 1056 
Q 959 750 1161 570 
Q 1363 391 1709 391 
Q 2188 391 2477 730 
Q 2766 1069 2766 1631 
L 2766 1759 
L 2194 1759 
z
M 3341 1997 
L 3341 0 
L 2766 0 
L 2766 531 
Q 2569 213 2275 61 
Q 1981 -91 1556 -91 
Q 1019 -91 701 211 
Q 384 513 384 1019 
Q 384 1609 779 1909 
Q 1175 2209 1959 2209 
L 2766 2209 
L 2766 2266 
Q 2766 2663 2505 2880 
Q 2244 3097 1772 3097 
Q 1472 3097 1187 3025 
Q 903 2953 641 2809 
L 641 3341 
Q 956 3463 1253 3523 
Q 1550 3584 1831 3584 
Q 2591 3584 2966 3190 
Q 3341 2797 3341 1997 
z
" transform="scale(0.015625)"/>
      <path id="DejaVuSans-69" d="M 603 3500 
L 1178 3500 
L 1178 0 
L 603 0 
L 603 3500 
z
M 603 4863 
L 1178 4863 
L 1178 4134 
L 603 4134 
L 603 4863 
z
" transform="scale(0.015625)"/>
      <path id="DejaVuSans-6e" d="M 3513 2113 
L 3513 0 
L 2938 0 
L 2938 2094 
Q 2938 2591 2744 2837 
Q 2550 3084 2163 3084 
Q 1697 3084 1428 2787 
Q 1159 2491 1159 1978 
L 1159 0 
L 581 0 
L 581 3500 
L 1159 3500 
L 1159 2956 
Q 1366 3272 1645 3428 
Q 1925 3584 2291 3584 
Q 2894 3584 3203 3211 
Q 3513 2838 3513 2113 
z
" transform="scale(0.015625)"/>
      <path id="DejaVuSans-76" d="M 191 3500 
L 800 3500 
L 1894 563 
L 2988 3500 
L 3597 3500 
L 2284 0 
L 1503 0 
L 191 3500 
z
" transform="scale(0.015625)"/>
     </defs>
     <use xlink:href="#DejaVuSans-6d"/>
     <use xlink:href="#DejaVuSans-6f" x="97.412109"/>
     <use xlink:href="#DejaVuSans-64" x="158.59375"/>
     <use xlink:href="#DejaVuSans-65" x="222.070312"/>
     <use xlink:href="#DejaVuSans-6c" x="283.59375"/>
     <use xlink:href="#DejaVuSans-20" x="311.376953"/>
     <use xlink:href="#DejaVuSans-74" x="343.164062"/>
     <use xlink:href="#DejaVuSans-72" x="382.373047"/>
     <use xlink:href="#DejaVuSans-61" x="423.486328"/>
     <use xlink:href="#DejaVuSans-69" x="484.765625"/>
     <use xlink:href="#DejaVuSans-6e" x="512.548828"/>
     <use xlink:href="#DejaVuSans-20" x="575.927734"/>
     <use xlink:href="#DejaVuSans-61" x="607.714844"/>
     <use xlink:href="#DejaVuSans-6e" x="668.994141"/>
     <use xlink:href="#DejaVuSans-64" x="732.373047"/>
     <use xlink:href="#DejaVuSans-20" x="795.849609"/>
     <use xlink:href="#DejaVuSans-76" x="827.636719"/>
     <use xlink:href="#DejaVuSans-61" x="886.816406"/>
     <use xlink:href="#DejaVuSans-6c" x="948.095703"/>
     <use xlink:href="#DejaVuSans-69" x="975.878906"/>
     <use xlink:href="#DejaVuSans-64" x="1003.662109"/>
     <use xlink:href="#DejaVuSans-61" x="1067.138672"/>
     <use xlink:href="#DejaVuSans-74" x="1128.417969"/>
     <use xlink:href="#DejaVuSans-69" x="1167.626953"/>
     <use xlink:href="#DejaVuSans-6f" x="1195.410156"/>
     <use xlink:href="#DejaVuSans-6e" x="1256.591797"/>
     <use xlink:href="#DejaVuSans-20" x="1319.970703"/>
     <use xlink:href="#DejaVuSans-6c" x="1351.757812"/>
     <use xlink:href="#DejaVuSans-6f" x="1379.541016"/>
     <use xlink:href="#DejaVuSans-73" x="1440.722656"/>
     <use xlink:href="#DejaVuSans-73" x="1492.822266"/>
     <use xlink:href="#DejaVuSans-20" x="1544.921875"/>
     <use xlink:href="#DejaVuSans-6f" x="1576.708984"/>
     <use xlink:href="#DejaVuSans-76" x="1637.890625"/>
     <use xlink:href="#DejaVuSans-65" x="1697.070312"/>
     <use xlink:href="#DejaVuSans-72" x="1758.59375"/>
     <use xlink:href="#DejaVuSans-20" x="1799.707031"/>
     <use xlink:href="#DejaVuSans-74" x="1831.494141"/>
     <use xlink:href="#DejaVuSans-69" x="1870.703125"/>
     <use xlink:href="#DejaVuSans-6d" x="1898.486328"/>
     <use xlink:href="#DejaVuSans-65" x="1995.898438"/>
    </g>
   </g>
   <g id="legend_1">
    <g id="patch_7">
     <path d="M 97 80.55625 
L 178.234375 80.55625 
Q 180.234375 80.55625 180.234375 78.55625 
L 180.234375 50.2 
Q 180.234375 48.2 178.234375 48.2 
L 97 48.2 
Q 95 48.2 95 50.2 
L 95 78.55625 
Q 95 80.55625 97 80.55625 
z
" style="fill: #ffffff; opacity: 0.8; stroke: #cccccc; stroke-linejoin: miter"/>
    </g>
    <g id="line2d_27">
     <path d="M 99 56.298437 
L 109 56.298437 
L 119 56.298437 
" style="fill: none; stroke: #1f77b4; stroke-width: 1.5; stroke-linecap: square"/>
    </g>
    <g id="text_16">
     <!-- train -->
     <g transform="translate(127 59.798437) scale(0.1 -0.1)">
      <use xlink:href="#DejaVuSans-74"/>
      <use xlink:href="#DejaVuSans-72" x="39.208984"/>
      <use xlink:href="#DejaVuSans-61" x="80.322266"/>
      <use xlink:href="#DejaVuSans-69" x="141.601562"/>
      <use xlink:href="#DejaVuSans-6e" x="169.384766"/>
     </g>
    </g>
    <g id="line2d_28">
     <path d="M 99 70.976562 
L 109 70.976562 
L 119 70.976562 
" style="fill: none; stroke: #ff7f0e; stroke-width: 1.5; stroke-linecap: square"/>
    </g>
    <g id="text_17">
     <!-- validation -->
     <g transform="translate(127 74.476562) scale(0.1 -0.1)">
      <use xlink:href="#DejaVuSans-76"/>
      <use xlink:href="#DejaVuSans-61" x="59.179688"/>
      <use xlink:href="#DejaVuSans-6c" x="120.458984"/>
      <use xlink:href="#DejaVuSans-69" x="148.242188"/>
      <use xlink:href="#DejaVuSans-64" x="176.025391"/>
      <use xlink:href="#DejaVuSans-61" x="239.501953"/>
      <use xlink:href="#DejaVuSans-74" x="300.78125"/>
      <use xlink:href="#DejaVuSans-69" x="339.990234"/>
      <use xlink:href="#DejaVuSans-6f" x="367.773438"/>
      <use xlink:href="#DejaVuSans-6e" x="428.955078"/>
     </g>
    </g>
   </g>
  </g>
 </g>
 <defs>
  <clipPath id="pce7d9d0e1a">
   <rect x="90" y="43.2" width="558" height="277.2"/>
  </clipPath>
 </defs>
</svg>
