<?xml version="1.0" encoding="utf-8" standalone="no"?>
<!DOCTYPE svg PUBLIC "-//W3C//DTD SVG 1.1//EN"
  "http://www.w3.org/Graphics/SVG/1.1/DTD/svg11.dtd">
<svg xmlns:xlink="http://www.w3.org/1999/xlink" width="720pt" height="360pt" viewBox="0 0 720 360" xmlns="http://www.w3.org/2000/svg" version="1.1">
 <metadata>
  <rdf:RDF xmlns:dc="http://purl.org/dc/elements/1.1/" xmlns:cc="http://creativecommons.org/ns#" xmlns:rdf="http://www.w3.org/1999/02/22-rdf-syntax-ns#">
   <cc:Work>
    <dc:type rdf:resource="http://purl.org/dc/dcmitype/StillImage"/>
    <dc:date>2023-05-24T11:11:41.065592</dc:date>
    <dc:format>image/svg+xml</dc:format>
    <dc:creator>
     <cc:Agent>
      <dc:title>Matplotlib v3.7.1, https://matplotlib.org/</dc:title>
     </cc:Agent>
    </dc:creator>
   </cc:Work>
  </rdf:RDF>
 </metadata>
 <defs>
  <style type="text/css">*{stroke-linejoin: round; stroke-linecap: butt}</style>
 </defs>
 <g id="figure_1">
  <g id="patch_1">
   <path d="M 0 360 
L 720 360 
L 720 0 
L 0 0 
z
" style="fill: #ffffff"/>
  </g>
  <g id="axes_1">
   <g id="patch_2">
    <path d="M 90 320.4 
L 648 320.4 
L 648 43.2 
L 90 43.2 
z
" style="fill: #ffffff"/>
   </g>
   <g id="matplotlib.axis_1">
    <g id="xtick_1">
     <g id="line2d_1">
      <path d="M 115.363636 320.4 
L 115.363636 43.2 
" clip-path="url(#p09c3e75419)" style="fill: none; stroke: #b0b0b0; stroke-width: 0.8; stroke-linecap: square"/>
     </g>
     <g id="line2d_2">
      <defs>
       <path id="m43e47a8183" d="M 0 0 
L 0 3.5 
" style="stroke: #000000; stroke-width: 0.8"/>
      </defs>
      <g>
       <use xlink:href="#m43e47a8183" x="115.363636" y="320.4" style="stroke: #000000; stroke-width: 0.8"/>
      </g>
     </g>
     <g id="text_1">
      <!-- 0 -->
      <g transform="translate(112.182386 334.998438) scale(0.1 -0.1)">
       <defs>
        <path id="DejaVuSans-30" d="M 2034 4250 
Q 1547 4250 1301 3770 
Q 1056 3291 1056 2328 
Q 1056 1369 1301 889 
Q 1547 409 2034 409 
Q 2525 409 2770 889 
Q 3016 1369 3016 2328 
Q 3016 3291 2770 3770 
Q 2525 4250 2034 4250 
z
M 2034 4750 
Q 2819 4750 3233 4129 
Q 3647 3509 3647 2328 
Q 3647 1150 3233 529 
Q 2819 -91 2034 -91 
Q 1250 -91 836 529 
Q 422 1150 422 2328 
Q 422 3509 836 4129 
Q 1250 4750 2034 4750 
z
" transform="scale(0.015625)"/>
       </defs>
       <use xlink:href="#DejaVuSans-30"/>
      </g>
     </g>
    </g>
    <g id="xtick_2">
     <g id="line2d_3">
      <path d="M 217.021498 320.4 
L 217.021498 43.2 
" clip-path="url(#p09c3e75419)" style="fill: none; stroke: #b0b0b0; stroke-width: 0.8; stroke-linecap: square"/>
     </g>
     <g id="line2d_4">
      <g>
       <use xlink:href="#m43e47a8183" x="217.021498" y="320.4" style="stroke: #000000; stroke-width: 0.8"/>
      </g>
     </g>
     <g id="text_2">
      <!-- 100 -->
      <g transform="translate(207.477748 334.998438) scale(0.1 -0.1)">
       <defs>
        <path id="DejaVuSans-31" d="M 794 531 
L 1825 531 
L 1825 4091 
L 703 3866 
L 703 4441 
L 1819 4666 
L 2450 4666 
L 2450 531 
L 3481 531 
L 3481 0 
L 794 0 
L 794 531 
z
" transform="scale(0.015625)"/>
       </defs>
       <use xlink:href="#DejaVuSans-31"/>
       <use xlink:href="#DejaVuSans-30" x="63.623047"/>
       <use xlink:href="#DejaVuSans-30" x="127.246094"/>
      </g>
     </g>
    </g>
    <g id="xtick_3">
     <g id="line2d_5">
      <path d="M 318.679359 320.4 
L 318.679359 43.2 
" clip-path="url(#p09c3e75419)" style="fill: none; stroke: #b0b0b0; stroke-width: 0.8; stroke-linecap: square"/>
     </g>
     <g id="line2d_6">
      <g>
       <use xlink:href="#m43e47a8183" x="318.679359" y="320.4" style="stroke: #000000; stroke-width: 0.8"/>
      </g>
     </g>
     <g id="text_3">
      <!-- 200 -->
      <g transform="translate(309.135609 334.998438) scale(0.1 -0.1)">
       <defs>
        <path id="DejaVuSans-32" d="M 1228 531 
L 3431 531 
L 3431 0 
L 469 0 
L 469 531 
Q 828 903 1448 1529 
Q 2069 2156 2228 2338 
Q 2531 2678 2651 2914 
Q 2772 3150 2772 3378 
Q 2772 3750 2511 3984 
Q 2250 4219 1831 4219 
Q 1534 4219 1204 4116 
Q 875 4013 500 3803 
L 500 4441 
Q 881 4594 1212 4672 
Q 1544 4750 1819 4750 
Q 2544 4750 2975 4387 
Q 3406 4025 3406 3419 
Q 3406 3131 3298 2873 
Q 3191 2616 2906 2266 
Q 2828 2175 2409 1742 
Q 1991 1309 1228 531 
z
" transform="scale(0.015625)"/>
       </defs>
       <use xlink:href="#DejaVuSans-32"/>
       <use xlink:href="#DejaVuSans-30" x="63.623047"/>
       <use xlink:href="#DejaVuSans-30" x="127.246094"/>
      </g>
     </g>
    </g>
    <g id="xtick_4">
     <g id="line2d_7">
      <path d="M 420.33722 320.4 
L 420.33722 43.2 
" clip-path="url(#p09c3e75419)" style="fill: none; stroke: #b0b0b0; stroke-width: 0.8; stroke-linecap: square"/>
     </g>
     <g id="line2d_8">
      <g>
       <use xlink:href="#m43e47a8183" x="420.33722" y="320.4" style="stroke: #000000; stroke-width: 0.8"/>
      </g>
     </g>
     <g id="text_4">
      <!-- 300 -->
      <g transform="translate(410.79347 334.998438) scale(0.1 -0.1)">
       <defs>
        <path id="DejaVuSans-33" d="M 2597 2516 
Q 3050 2419 3304 2112 
Q 3559 1806 3559 1356 
Q 3559 666 3084 287 
Q 2609 -91 1734 -91 
Q 1441 -91 1130 -33 
Q 819 25 488 141 
L 488 750 
Q 750 597 1062 519 
Q 1375 441 1716 441 
Q 2309 441 2620 675 
Q 2931 909 2931 1356 
Q 2931 1769 2642 2001 
Q 2353 2234 1838 2234 
L 1294 2234 
L 1294 2753 
L 1863 2753 
Q 2328 2753 2575 2939 
Q 2822 3125 2822 3475 
Q 2822 3834 2567 4026 
Q 2313 4219 1838 4219 
Q 1578 4219 1281 4162 
Q 984 4106 628 3988 
L 628 4550 
Q 988 4650 1302 4700 
Q 1616 4750 1894 4750 
Q 2613 4750 3031 4423 
Q 3450 4097 3450 3541 
Q 3450 3153 3228 2886 
Q 3006 2619 2597 2516 
z
" transform="scale(0.015625)"/>
       </defs>
       <use xlink:href="#DejaVuSans-33"/>
       <use xlink:href="#DejaVuSans-30" x="63.623047"/>
       <use xlink:href="#DejaVuSans-30" x="127.246094"/>
      </g>
     </g>
    </g>
    <g id="xtick_5">
     <g id="line2d_9">
      <path d="M 521.995081 320.4 
L 521.995081 43.2 
" clip-path="url(#p09c3e75419)" style="fill: none; stroke: #b0b0b0; stroke-width: 0.8; stroke-linecap: square"/>
     </g>
     <g id="line2d_10">
      <g>
       <use xlink:href="#m43e47a8183" x="521.995081" y="320.4" style="stroke: #000000; stroke-width: 0.8"/>
      </g>
     </g>
     <g id="text_5">
      <!-- 400 -->
      <g transform="translate(512.451331 334.998438) scale(0.1 -0.1)">
       <defs>
        <path id="DejaVuSans-34" d="M 2419 4116 
L 825 1625 
L 2419 1625 
L 2419 4116 
z
M 2253 4666 
L 3047 4666 
L 3047 1625 
L 3713 1625 
L 3713 1100 
L 3047 1100 
L 3047 0 
L 2419 0 
L 2419 1100 
L 313 1100 
L 313 1709 
L 2253 4666 
z
" transform="scale(0.015625)"/>
       </defs>
       <use xlink:href="#DejaVuSans-34"/>
       <use xlink:href="#DejaVuSans-30" x="63.623047"/>
       <use xlink:href="#DejaVuSans-30" x="127.246094"/>
      </g>
     </g>
    </g>
    <g id="xtick_6">
     <g id="line2d_11">
      <path d="M 623.652942 320.4 
L 623.652942 43.2 
" clip-path="url(#p09c3e75419)" style="fill: none; stroke: #b0b0b0; stroke-width: 0.8; stroke-linecap: square"/>
     </g>
     <g id="line2d_12">
      <g>
       <use xlink:href="#m43e47a8183" x="623.652942" y="320.4" style="stroke: #000000; stroke-width: 0.8"/>
      </g>
     </g>
     <g id="text_6">
      <!-- 500 -->
      <g transform="translate(614.109192 334.998438) scale(0.1 -0.1)">
       <defs>
        <path id="DejaVuSans-35" d="M 691 4666 
L 3169 4666 
L 3169 4134 
L 1269 4134 
L 1269 2991 
Q 1406 3038 1543 3061 
Q 1681 3084 1819 3084 
Q 2600 3084 3056 2656 
Q 3513 2228 3513 1497 
Q 3513 744 3044 326 
Q 2575 -91 1722 -91 
Q 1428 -91 1123 -41 
Q 819 9 494 109 
L 494 744 
Q 775 591 1075 516 
Q 1375 441 1709 441 
Q 2250 441 2565 725 
Q 2881 1009 2881 1497 
Q 2881 1984 2565 2268 
Q 2250 2553 1709 2553 
Q 1456 2553 1204 2497 
Q 953 2441 691 2322 
L 691 4666 
z
" transform="scale(0.015625)"/>
       </defs>
       <use xlink:href="#DejaVuSans-35"/>
       <use xlink:href="#DejaVuSans-30" x="63.623047"/>
       <use xlink:href="#DejaVuSans-30" x="127.246094"/>
      </g>
     </g>
    </g>
    <g id="text_7">
     <!-- epoch -->
     <g transform="translate(353.771875 348.676562) scale(0.1 -0.1)">
      <defs>
       <path id="DejaVuSans-65" d="M 3597 1894 
L 3597 1613 
L 953 1613 
Q 991 1019 1311 708 
Q 1631 397 2203 397 
Q 2534 397 2845 478 
Q 3156 559 3463 722 
L 3463 178 
Q 3153 47 2828 -22 
Q 2503 -91 2169 -91 
Q 1331 -91 842 396 
Q 353 884 353 1716 
Q 353 2575 817 3079 
Q 1281 3584 2069 3584 
Q 2775 3584 3186 3129 
Q 3597 2675 3597 1894 
z
M 3022 2063 
Q 3016 2534 2758 2815 
Q 2500 3097 2075 3097 
Q 1594 3097 1305 2825 
Q 1016 2553 972 2059 
L 3022 2063 
z
" transform="scale(0.015625)"/>
       <path id="DejaVuSans-70" d="M 1159 525 
L 1159 -1331 
L 581 -1331 
L 581 3500 
L 1159 3500 
L 1159 2969 
Q 1341 3281 1617 3432 
Q 1894 3584 2278 3584 
Q 2916 3584 3314 3078 
Q 3713 2572 3713 1747 
Q 3713 922 3314 415 
Q 2916 -91 2278 -91 
Q 1894 -91 1617 61 
Q 1341 213 1159 525 
z
M 3116 1747 
Q 3116 2381 2855 2742 
Q 2594 3103 2138 3103 
Q 1681 3103 1420 2742 
Q 1159 2381 1159 1747 
Q 1159 1113 1420 752 
Q 1681 391 2138 391 
Q 2594 391 2855 752 
Q 3116 1113 3116 1747 
z
" transform="scale(0.015625)"/>
       <path id="DejaVuSans-6f" d="M 1959 3097 
Q 1497 3097 1228 2736 
Q 959 2375 959 1747 
Q 959 1119 1226 758 
Q 1494 397 1959 397 
Q 2419 397 2687 759 
Q 2956 1122 2956 1747 
Q 2956 2369 2687 2733 
Q 2419 3097 1959 3097 
z
M 1959 3584 
Q 2709 3584 3137 3096 
Q 3566 2609 3566 1747 
Q 3566 888 3137 398 
Q 2709 -91 1959 -91 
Q 1206 -91 779 398 
Q 353 888 353 1747 
Q 353 2609 779 3096 
Q 1206 3584 1959 3584 
z
" transform="scale(0.015625)"/>
       <path id="DejaVuSans-63" d="M 3122 3366 
L 3122 2828 
Q 2878 2963 2633 3030 
Q 2388 3097 2138 3097 
Q 1578 3097 1268 2742 
Q 959 2388 959 1747 
Q 959 1106 1268 751 
Q 1578 397 2138 397 
Q 2388 397 2633 464 
Q 2878 531 3122 666 
L 3122 134 
Q 2881 22 2623 -34 
Q 2366 -91 2075 -91 
Q 1284 -91 818 406 
Q 353 903 353 1747 
Q 353 2603 823 3093 
Q 1294 3584 2113 3584 
Q 2378 3584 2631 3529 
Q 2884 3475 3122 3366 
z
" transform="scale(0.015625)"/>
       <path id="DejaVuSans-68" d="M 3513 2113 
L 3513 0 
L 2938 0 
L 2938 2094 
Q 2938 2591 2744 2837 
Q 2550 3084 2163 3084 
Q 1697 3084 1428 2787 
Q 1159 2491 1159 1978 
L 1159 0 
L 581 0 
L 581 4863 
L 1159 4863 
L 1159 2956 
Q 1366 3272 1645 3428 
Q 1925 3584 2291 3584 
Q 2894 3584 3203 3211 
Q 3513 2838 3513 2113 
z
" transform="scale(0.015625)"/>
      </defs>
      <use xlink:href="#DejaVuSans-65"/>
      <use xlink:href="#DejaVuSans-70" x="61.523438"/>
      <use xlink:href="#DejaVuSans-6f" x="125"/>
      <use xlink:href="#DejaVuSans-63" x="186.181641"/>
      <use xlink:href="#DejaVuSans-68" x="241.162109"/>
     </g>
    </g>
   </g>
   <g id="matplotlib.axis_2">
    <g id="ytick_1">
     <g id="line2d_13">
      <path d="M 90 317.008366 
L 648 317.008366 
" clip-path="url(#p09c3e75419)" style="fill: none; stroke: #b0b0b0; stroke-width: 0.8; stroke-linecap: square"/>
     </g>
     <g id="line2d_14">
      <defs>
       <path id="mb8509e4d6d" d="M 0 0 
L -3.5 0 
" style="stroke: #000000; stroke-width: 0.8"/>
      </defs>
      <g>
       <use xlink:href="#mb8509e4d6d" x="90" y="317.008366" style="stroke: #000000; stroke-width: 0.8"/>
      </g>
     </g>
     <g id="text_8">
      <!-- 0 -->
      <g transform="translate(76.6375 320.807585) scale(0.1 -0.1)">
       <use xlink:href="#DejaVuSans-30"/>
      </g>
     </g>
    </g>
    <g id="ytick_2">
     <g id="line2d_15">
      <path d="M 90 262.958688 
L 648 262.958688 
" clip-path="url(#p09c3e75419)" style="fill: none; stroke: #b0b0b0; stroke-width: 0.8; stroke-linecap: square"/>
     </g>
     <g id="line2d_16">
      <g>
       <use xlink:href="#mb8509e4d6d" x="90" y="262.958688" style="stroke: #000000; stroke-width: 0.8"/>
      </g>
     </g>
     <g id="text_9">
      <!-- 1 -->
      <g transform="translate(76.6375 266.757907) scale(0.1 -0.1)">
       <use xlink:href="#DejaVuSans-31"/>
      </g>
     </g>
    </g>
    <g id="ytick_3">
     <g id="line2d_17">
      <path d="M 90 208.90901 
L 648 208.90901 
" clip-path="url(#p09c3e75419)" style="fill: none; stroke: #b0b0b0; stroke-width: 0.8; stroke-linecap: square"/>
     </g>
     <g id="line2d_18">
      <g>
       <use xlink:href="#mb8509e4d6d" x="90" y="208.90901" style="stroke: #000000; stroke-width: 0.8"/>
      </g>
     </g>
     <g id="text_10">
      <!-- 2 -->
      <g transform="translate(76.6375 212.708229) scale(0.1 -0.1)">
       <use xlink:href="#DejaVuSans-32"/>
      </g>
     </g>
    </g>
    <g id="ytick_4">
     <g id="line2d_19">
      <path d="M 90 154.859333 
L 648 154.859333 
" clip-path="url(#p09c3e75419)" style="fill: none; stroke: #b0b0b0; stroke-width: 0.8; stroke-linecap: square"/>
     </g>
     <g id="line2d_20">
      <g>
       <use xlink:href="#mb8509e4d6d" x="90" y="154.859333" style="stroke: #000000; stroke-width: 0.8"/>
      </g>
     </g>
     <g id="text_11">
      <!-- 3 -->
      <g transform="translate(76.6375 158.658551) scale(0.1 -0.1)">
       <use xlink:href="#DejaVuSans-33"/>
      </g>
     </g>
    </g>
    <g id="ytick_5">
     <g id="line2d_21">
      <path d="M 90 100.809655 
L 648 100.809655 
" clip-path="url(#p09c3e75419)" style="fill: none; stroke: #b0b0b0; stroke-width: 0.8; stroke-linecap: square"/>
     </g>
     <g id="line2d_22">
      <g>
       <use xlink:href="#mb8509e4d6d" x="90" y="100.809655" style="stroke: #000000; stroke-width: 0.8"/>
      </g>
     </g>
     <g id="text_12">
      <!-- 4 -->
      <g transform="translate(76.6375 104.608873) scale(0.1 -0.1)">
       <use xlink:href="#DejaVuSans-34"/>
      </g>
     </g>
    </g>
    <g id="ytick_6">
     <g id="line2d_23">
      <path d="M 90 46.759977 
L 648 46.759977 
" clip-path="url(#p09c3e75419)" style="fill: none; stroke: #b0b0b0; stroke-width: 0.8; stroke-linecap: square"/>
     </g>
     <g id="line2d_24">
      <g>
       <use xlink:href="#mb8509e4d6d" x="90" y="46.759977" style="stroke: #000000; stroke-width: 0.8"/>
      </g>
     </g>
     <g id="text_13">
      <!-- 5 -->
      <g transform="translate(76.6375 50.559195) scale(0.1 -0.1)">
       <use xlink:href="#DejaVuSans-35"/>
      </g>
     </g>
    </g>
    <g id="text_14">
     <!-- loss -->
     <g transform="translate(70.557812 191.457812) rotate(-90) scale(0.1 -0.1)">
      <defs>
       <path id="DejaVuSans-6c" d="M 603 4863 
L 1178 4863 
L 1178 0 
L 603 0 
L 603 4863 
z
" transform="scale(0.015625)"/>
       <path id="DejaVuSans-73" d="M 2834 3397 
L 2834 2853 
Q 2591 2978 2328 3040 
Q 2066 3103 1784 3103 
Q 1356 3103 1142 2972 
Q 928 2841 928 2578 
Q 928 2378 1081 2264 
Q 1234 2150 1697 2047 
L 1894 2003 
Q 2506 1872 2764 1633 
Q 3022 1394 3022 966 
Q 3022 478 2636 193 
Q 2250 -91 1575 -91 
Q 1294 -91 989 -36 
Q 684 19 347 128 
L 347 722 
Q 666 556 975 473 
Q 1284 391 1588 391 
Q 1994 391 2212 530 
Q 2431 669 2431 922 
Q 2431 1156 2273 1281 
Q 2116 1406 1581 1522 
L 1381 1569 
Q 847 1681 609 1914 
Q 372 2147 372 2553 
Q 372 3047 722 3315 
Q 1072 3584 1716 3584 
Q 2034 3584 2315 3537 
Q 2597 3491 2834 3397 
z
" transform="scale(0.015625)"/>
      </defs>
      <use xlink:href="#DejaVuSans-6c"/>
      <use xlink:href="#DejaVuSans-6f" x="27.783203"/>
      <use xlink:href="#DejaVuSans-73" x="88.964844"/>
      <use xlink:href="#DejaVuSans-73" x="141.064453"/>
     </g>
    </g>
   </g>
   <g id="line2d_25">
    <path d="M 115.363636 301.55043 
L 116.380215 301.970446 
L 117.396794 302.556145 
L 118.413372 302.283232 
L 119.429951 302.227145 
L 120.446529 302.528985 
L 121.463108 302.70121 
L 122.479687 303.012036 
L 125.529422 303.064357 
L 126.546001 303.345555 
L 127.56258 303.480153 
L 128.579158 303.327659 
L 129.595737 303.337065 
L 130.612316 303.658199 
L 131.628894 303.488742 
L 132.645473 303.515173 
L 133.662051 303.742502 
L 134.67863 303.423448 
L 135.695209 303.810084 
L 136.711787 303.420633 
L 137.728366 303.760433 
L 138.744944 303.272784 
L 139.761523 303.80579 
L 140.778102 303.511469 
L 141.79468 304.037322 
L 142.811259 303.85532 
L 143.827837 303.826743 
L 144.844416 303.341983 
L 145.860995 303.546305 
L 146.877573 304.251139 
L 147.894152 304.24999 
L 148.910731 304.12449 
L 150.943888 304.446272 
L 153.993624 304.245325 
L 155.010202 303.996969 
L 157.043359 304.375889 
L 158.059938 304.355365 
L 159.076517 304.473476 
L 160.093095 304.258373 
L 161.109674 304.521153 
L 162.126253 304.616243 
L 164.15941 303.746493 
L 165.175988 304.46256 
L 166.192567 304.46648 
L 167.209146 304.351036 
L 168.225724 304.567075 
L 169.242303 304.56176 
L 170.258881 304.350236 
L 171.27546 304.793256 
L 172.292039 304.993804 
L 173.308617 304.823678 
L 175.341774 304.652062 
L 176.358353 304.146442 
L 177.374932 304.982211 
L 179.408089 305.14545 
L 180.424668 304.698604 
L 181.441246 305.077217 
L 182.457825 304.980635 
L 183.474403 305.128255 
L 184.490982 304.743566 
L 185.507561 304.891874 
L 186.524139 304.894108 
L 187.540718 305.069896 
L 189.573875 305.153656 
L 190.590454 304.546835 
L 191.607032 305.146804 
L 192.623611 305.286299 
L 193.640189 305.145226 
L 195.673347 305.272721 
L 196.689925 305.041293 
L 197.706504 305.055687 
L 198.723083 304.904344 
L 199.739661 305.204256 
L 200.75624 305.260788 
L 201.772818 305.007166 
L 202.789397 304.519981 
L 203.805976 305.183523 
L 204.822554 305.101038 
L 205.839133 305.300102 
L 206.855711 305.007163 
L 207.87229 305.302483 
L 208.888869 305.330109 
L 209.905447 304.729119 
L 210.922026 305.316681 
L 211.938604 305.357305 
L 213.971762 305.044806 
L 214.98834 305.522635 
L 217.021498 305.47208 
L 218.038076 305.637428 
L 219.054655 305.212274 
L 220.071233 305.532065 
L 222.104391 305.484209 
L 223.120969 305.347488 
L 224.137548 305.483125 
L 225.154126 305.800551 
L 226.170705 305.751346 
L 227.187284 305.527895 
L 228.203862 305.682017 
L 229.220441 304.789367 
L 230.237019 305.697427 
L 231.253598 305.490285 
L 232.270177 305.405278 
L 234.303334 305.675685 
L 235.319913 305.243744 
L 236.336491 305.822968 
L 237.35307 305.853062 
L 238.369648 305.678184 
L 239.386227 305.817728 
L 240.402806 305.540953 
L 244.46912 305.548853 
L 245.485699 305.791436 
L 246.502277 305.739633 
L 247.518856 305.987225 
L 248.535435 306.005163 
L 249.552013 305.838357 
L 251.58517 306.183013 
L 252.601749 306.041489 
L 253.618328 305.463234 
L 254.634906 305.983677 
L 256.668063 305.878325 
L 257.684642 306.150039 
L 258.701221 305.742114 
L 259.717799 305.615897 
L 260.734378 305.972611 
L 261.750956 306.105054 
L 262.767535 305.73077 
L 263.784114 304.979555 
L 264.800692 305.962846 
L 265.817271 305.845231 
L 267.850428 306.050857 
L 268.867007 306.360234 
L 269.883585 306.303022 
L 270.900164 305.281842 
L 271.916743 305.902009 
L 272.933321 306.091979 
L 273.9499 305.959312 
L 275.983057 306.197759 
L 276.999636 306.110151 
L 278.016214 305.802991 
L 279.032793 306.094954 
L 280.049371 306.194291 
L 281.06595 306.086643 
L 283.099107 306.244096 
L 284.115686 306.039413 
L 285.132265 306.143391 
L 286.148843 305.94175 
L 287.165422 305.875439 
L 288.182 306.220372 
L 289.198579 305.731205 
L 290.215158 305.736126 
L 291.231736 306.239265 
L 292.248315 306.340333 
L 293.264893 306.275204 
L 294.281472 306.584292 
L 295.298051 306.107302 
L 296.314629 306.062915 
L 297.331208 305.811486 
L 298.347786 306.51832 
L 299.364365 306.25351 
L 300.380944 305.591828 
L 301.397522 306.082133 
L 302.414101 306.103765 
L 303.43068 306.332232 
L 305.463837 305.858368 
L 306.480415 306.361638 
L 307.496994 306.279232 
L 308.513573 306.593058 
L 309.530151 306.437678 
L 310.54673 306.410595 
L 311.563308 306.695941 
L 312.579887 306.098908 
L 313.596466 306.391466 
L 314.613044 306.438888 
L 315.629623 306.254309 
L 316.646201 306.279567 
L 317.66278 306.137501 
L 319.695937 306.456749 
L 320.712516 306.288499 
L 321.729095 306.269295 
L 322.745673 305.858242 
L 323.762252 306.565738 
L 324.77883 306.257313 
L 325.795409 306.235523 
L 326.811988 306.493927 
L 327.828566 306.347843 
L 328.845145 306.481655 
L 329.861723 306.235832 
L 333.928038 306.639358 
L 334.944617 305.93867 
L 335.961195 306.355543 
L 339.010931 306.566445 
L 340.02751 306.373065 
L 341.044088 306.668977 
L 342.060667 306.411079 
L 343.077245 306.579649 
L 344.093824 306.263406 
L 345.110403 306.388915 
L 346.126981 306.671923 
L 347.14356 306.551614 
L 348.160138 306.304861 
L 349.176717 306.729787 
L 350.193296 306.126539 
L 351.209874 306.147084 
L 353.243032 306.426252 
L 354.25961 306.523726 
L 355.276189 306.263757 
L 356.292767 306.636133 
L 357.309346 306.253615 
L 359.342503 306.56144 
L 360.359082 306.215663 
L 362.392239 306.351699 
L 364.425396 306.88902 
L 365.441975 306.910714 
L 366.458553 306.514856 
L 367.475132 306.364188 
L 368.491711 306.47791 
L 369.508289 306.853788 
L 370.524868 306.424013 
L 371.541447 306.734263 
L 372.558025 305.880842 
L 375.607761 306.411014 
L 376.62434 306.556235 
L 377.640918 306.960882 
L 378.657497 306.787208 
L 381.707233 306.928225 
L 382.723811 306.395418 
L 384.756968 306.990684 
L 385.773547 306.870632 
L 386.790126 307.085979 
L 388.823283 306.626814 
L 390.85644 306.671746 
L 391.873019 306.20655 
L 392.889597 306.404906 
L 393.906176 307.070356 
L 395.939333 306.673083 
L 397.97249 306.826565 
L 398.989069 306.511095 
L 400.005648 306.720763 
L 401.022226 306.547842 
L 402.038805 306.876065 
L 403.055383 307.034564 
L 404.071962 305.449766 
L 405.088541 305.674718 
L 406.105119 306.498607 
L 407.121698 306.310849 
L 408.138277 306.95607 
L 409.154855 306.694641 
L 410.171434 306.981396 
L 412.204591 306.921223 
L 415.254327 306.868506 
L 418.304063 306.535096 
L 419.320641 306.90948 
L 420.33722 306.714161 
L 421.353799 306.960512 
L 422.370377 306.817376 
L 423.386956 307.192245 
L 424.403534 306.807749 
L 425.420113 306.977357 
L 426.436692 306.867148 
L 427.45327 307.222843 
L 428.469849 307.049758 
L 429.486427 306.758339 
L 433.552742 307.128486 
L 434.56932 306.933763 
L 435.585899 306.981374 
L 436.602478 306.846757 
L 440.668792 306.857973 
L 441.685371 307.072181 
L 442.701949 306.530294 
L 443.718528 307.107759 
L 444.735107 306.963459 
L 445.751685 307.037198 
L 446.768264 306.618015 
L 447.784842 306.65357 
L 448.801421 306.899631 
L 450.834578 306.962948 
L 451.851157 306.77513 
L 452.867735 306.993982 
L 453.884314 307.072398 
L 454.900893 306.938668 
L 455.917471 307.112016 
L 456.93405 306.79176 
L 459.983786 306.854936 
L 461.000364 306.598573 
L 462.016943 307.114685 
L 465.066679 306.729752 
L 466.083257 306.964601 
L 467.099836 306.664492 
L 468.116415 306.680959 
L 469.132993 307.15681 
L 470.149572 306.968285 
L 471.16615 307.139483 
L 472.182729 306.893252 
L 473.199308 307.192344 
L 474.215886 306.890048 
L 476.249044 307.081183 
L 477.265622 306.696563 
L 478.282201 306.628337 
L 479.298779 307.0855 
L 480.315358 306.954498 
L 481.331937 307.083928 
L 482.348515 306.802049 
L 483.365094 307.159031 
L 484.381672 306.575258 
L 485.398251 306.987252 
L 486.41483 307.156741 
L 487.431408 306.819908 
L 488.447987 307.151659 
L 489.464565 306.960819 
L 491.497723 306.97621 
L 492.514301 306.881555 
L 493.53088 307.354352 
L 495.564037 307.214946 
L 496.580616 307.299511 
L 497.597194 307.183971 
L 499.630352 307.385008 
L 500.64693 307.010219 
L 501.663509 306.998862 
L 502.680087 307.351685 
L 503.696666 306.928923 
L 504.713245 307.03862 
L 505.729823 307.026658 
L 507.762981 307.253219 
L 509.796138 307.292281 
L 510.812716 307.050799 
L 511.829295 307.44061 
L 513.862452 307.050446 
L 516.912188 307.400332 
L 517.928767 306.804921 
L 518.945345 307.363368 
L 519.961924 306.88269 
L 520.978502 307.027827 
L 521.995081 306.761391 
L 523.01166 307.266387 
L 525.044817 306.909073 
L 527.077974 307.438499 
L 528.094553 307.103922 
L 530.12771 307.064131 
L 532.160867 307.445234 
L 534.194024 307.160362 
L 535.210603 307.36317 
L 536.227182 306.650196 
L 538.260339 307.47697 
L 539.276917 307.325789 
L 540.293496 307.372448 
L 543.343232 306.941634 
L 544.359811 307.268175 
L 545.376389 307.463582 
L 547.409546 307.011585 
L 548.426125 307.286869 
L 549.442704 307.423202 
L 550.459282 307.381253 
L 551.475861 307.494899 
L 552.492439 307.089257 
L 554.525597 307.406385 
L 556.558754 307.377298 
L 557.575332 307.090794 
L 558.591911 307.379046 
L 559.60849 307.277411 
L 560.625068 307.561229 
L 561.641647 307.372793 
L 562.658226 307.388928 
L 563.674804 307.115166 
L 564.691383 307.425704 
L 566.72454 307.473592 
L 567.741119 307.304532 
L 568.757697 307.39099 
L 569.774276 307.700177 
L 570.790854 307.510443 
L 571.807433 306.983015 
L 572.824012 307.152211 
L 573.84059 307.541118 
L 574.857169 307.204491 
L 578.923483 307.523527 
L 579.940062 307.8 
L 580.956641 307.551466 
L 582.989798 307.559679 
L 585.022955 307.7158 
L 586.039534 307.530714 
L 589.089269 307.379274 
L 590.105848 306.981326 
L 591.122427 307.447784 
L 592.139005 307.206131 
L 593.155584 307.204711 
L 594.172163 307.719665 
L 598.238477 306.996896 
L 599.255056 307.314321 
L 600.271634 307.097549 
L 601.288213 307.356242 
L 602.304791 307.068576 
L 603.32137 307.042671 
L 604.337949 307.528475 
L 605.354527 307.453864 
L 606.371106 307.147235 
L 607.387684 307.35358 
L 608.404263 307.172733 
L 609.420842 307.646883 
L 610.43742 307.469945 
L 611.453999 307.415572 
L 612.470578 307.753551 
L 613.487156 307.630967 
L 614.503735 307.233436 
L 615.520313 307.627189 
L 617.553471 306.865677 
L 618.570049 307.594501 
L 619.586628 307.586384 
L 620.603206 307.297424 
L 621.619785 307.252021 
L 622.636364 307.62911 
L 622.636364 307.62911 
" clip-path="url(#p09c3e75419)" style="fill: none; stroke: #1f77b4; stroke-width: 1.5; stroke-linecap: square"/>
   </g>
   <g id="line2d_26">
    <path d="M 115.363636 181.550657 
L 116.380215 179.106253 
L 118.413372 177.090967 
L 119.429951 176.929268 
L 120.446529 176.594942 
L 121.463108 175.382533 
L 122.479687 175.815428 
L 123.496265 176.671591 
L 124.512844 175.142266 
L 125.529422 174.536229 
L 126.546001 174.763443 
L 127.56258 174.04599 
L 128.579158 173.03171 
L 129.595737 173.55213 
L 130.612316 169.658374 
L 131.628894 167.843704 
L 133.662051 166.963405 
L 134.67863 165.920221 
L 135.695209 167.711708 
L 136.711787 165.623034 
L 137.728366 164.362765 
L 138.744944 163.950721 
L 139.761523 164.719887 
L 140.778102 162.004752 
L 141.79468 162.20395 
L 142.811259 162.895076 
L 143.827837 162.859458 
L 144.844416 162.678661 
L 145.860995 160.620386 
L 146.877573 161.219941 
L 147.894152 161.30101 
L 148.910731 160.889739 
L 149.927309 160.182724 
L 152.977045 159.379344 
L 153.993624 157.808976 
L 155.010202 157.927377 
L 156.026781 157.474134 
L 157.043359 157.871243 
L 158.059938 158.043561 
L 159.076517 158.452963 
L 160.093095 158.102143 
L 161.109674 156.659659 
L 162.126253 156.060156 
L 163.142831 156.404173 
L 164.15941 154.140642 
L 165.175988 153.839615 
L 166.192567 152.58874 
L 167.209146 152.235433 
L 168.225724 153.134031 
L 169.242303 151.533405 
L 170.258881 152.73544 
L 171.27546 151.492658 
L 172.292039 151.680143 
L 173.308617 152.137728 
L 174.325196 151.371164 
L 175.341774 149.669509 
L 176.358353 148.470915 
L 177.374932 149.736196 
L 178.39151 148.248224 
L 179.408089 149.850564 
L 180.424668 149.768245 
L 181.441246 148.472564 
L 182.457825 148.143908 
L 183.474403 148.574986 
L 184.490982 143.59775 
L 185.507561 146.086858 
L 186.524139 143.788431 
L 187.540718 144.91383 
L 188.557296 142.719333 
L 189.573875 142.161027 
L 190.590454 143.678522 
L 191.607032 143.146944 
L 192.623611 141.353163 
L 193.640189 141.420843 
L 194.656768 142.627053 
L 195.673347 141.81665 
L 196.689925 145.84293 
L 197.706504 142.446526 
L 198.723083 144.242124 
L 199.739661 143.287573 
L 200.75624 143.479878 
L 201.772818 143.096313 
L 202.789397 142.584437 
L 203.805976 141.61258 
L 204.822554 143.839603 
L 205.839133 141.054803 
L 206.855711 141.759705 
L 207.87229 143.407701 
L 208.888869 141.028463 
L 209.905447 140.43579 
L 210.922026 139.692461 
L 211.938604 140.962227 
L 212.955183 139.973669 
L 213.971762 136.081575 
L 214.98834 138.462836 
L 216.004919 135.913162 
L 217.021498 139.097867 
L 218.038076 139.219206 
L 219.054655 137.308558 
L 220.071233 138.039516 
L 221.087812 137.063252 
L 222.104391 137.491146 
L 223.120969 137.677845 
L 224.137548 138.247194 
L 225.154126 137.601274 
L 226.170705 135.909399 
L 227.187284 136.463787 
L 228.203862 137.295826 
L 229.220441 134.928161 
L 230.237019 136.490127 
L 231.253598 134.727364 
L 232.270177 135.444237 
L 233.286755 136.495423 
L 234.303334 135.720445 
L 236.336491 133.869823 
L 237.35307 134.587611 
L 238.369648 133.508255 
L 239.386227 134.591309 
L 240.402806 131.369594 
L 241.419384 134.994513 
L 242.435963 134.316544 
L 243.452541 132.966663 
L 244.46912 132.380974 
L 245.485699 132.67079 
L 246.502277 133.209031 
L 247.518856 132.554915 
L 248.535435 133.097332 
L 249.552013 132.250988 
L 250.568592 129.968489 
L 251.58517 129.054905 
L 252.601749 130.709499 
L 253.618328 129.843748 
L 254.634906 127.460671 
L 255.651485 128.633041 
L 256.668063 128.433881 
L 257.684642 125.341262 
L 258.701221 125.648037 
L 259.717799 126.265092 
L 260.734378 125.492871 
L 261.750956 125.217991 
L 262.767535 124.604982 
L 263.784114 124.788434 
L 264.800692 124.019693 
L 265.817271 123.795481 
L 266.83385 124.68895 
L 267.850428 124.480564 
L 268.867007 124.076844 
L 269.883585 122.632699 
L 270.900164 122.71985 
L 271.916743 121.37752 
L 272.933321 121.755634 
L 273.9499 122.804307 
L 274.966478 122.457907 
L 275.983057 123.940892 
L 276.999636 123.562172 
L 278.016214 122.036726 
L 279.032793 119.919844 
L 280.049371 121.973364 
L 281.06595 120.226644 
L 282.082529 119.633971 
L 283.099107 121.675377 
L 284.115686 118.391395 
L 285.132265 118.033848 
L 286.148843 116.711943 
L 287.165422 117.345067 
L 288.182 117.307774 
L 290.215158 118.136218 
L 291.231736 117.523171 
L 292.248315 120.337893 
L 293.264893 115.769531 
L 294.281472 116.821078 
L 295.298051 116.227271 
L 296.314629 119.719292 
L 297.331208 116.878488 
L 298.347786 114.759066 
L 299.364365 116.541378 
L 300.380944 115.61733 
L 301.397522 116.6234 
L 302.414101 116.923062 
L 303.43068 116.602666 
L 304.447258 117.105018 
L 305.463837 115.826386 
L 306.480415 112.567004 
L 307.496994 115.455785 
L 308.513573 114.217475 
L 309.530151 113.827338 
L 310.54673 114.417846 
L 311.563308 113.679659 
L 312.579887 114.47657 
L 313.596466 114.050995 
L 314.613044 110.78093 
L 315.629623 112.735843 
L 316.646201 112.91075 
L 317.66278 112.393347 
L 318.679359 113.494777 
L 319.695937 112.630535 
L 320.712516 111.948996 
L 321.729095 110.264145 
L 322.745673 111.532687 
L 323.762252 113.501774 
L 324.77883 112.393475 
L 325.795409 112.464776 
L 326.811988 112.010181 
L 327.828566 112.470382 
L 328.845145 112.148027 
L 329.861723 110.199841 
L 330.878302 108.869419 
L 331.894881 112.819063 
L 332.911459 111.730494 
L 333.928038 110.355613 
L 334.944617 110.365278 
L 335.961195 108.428161 
L 336.977774 108.655439 
L 337.994352 108.432916 
L 339.010931 108.889135 
L 340.02751 109.885206 
L 341.044088 108.576046 
L 342.060667 111.212329 
L 343.077245 111.86959 
L 344.093824 110.600159 
L 345.110403 109.919999 
L 346.126981 111.396838 
L 347.14356 109.341462 
L 348.160138 109.160498 
L 349.176717 109.607993 
L 350.193296 109.472646 
L 351.209874 105.756749 
L 352.226453 106.613053 
L 353.243032 105.057376 
L 354.25961 107.726996 
L 355.276189 109.886082 
L 356.292767 106.719985 
L 357.309346 107.026631 
L 358.325925 106.167801 
L 359.342503 106.537642 
L 360.359082 108.355378 
L 362.392239 105.573504 
L 363.408818 105.33745 
L 364.425396 106.144786 
L 365.441975 107.589163 
L 366.458553 106.224914 
L 367.475132 103.591942 
L 369.508289 102.006664 
L 370.524868 102.07763 
L 371.541447 100.294248 
L 372.558025 103.018302 
L 373.574604 102.294315 
L 374.591182 103.483837 
L 375.607761 104.296714 
L 376.62434 103.39791 
L 377.640918 103.258041 
L 378.657497 100.496565 
L 379.674075 101.904294 
L 380.690654 102.088905 
L 381.707233 103.21299 
L 382.723811 101.718768 
L 383.74039 103.027721 
L 384.756968 104.55818 
L 385.773547 100.833456 
L 386.790126 101.470588 
L 387.806704 103.162604 
L 388.823283 101.111777 
L 389.839862 100.408809 
L 390.85644 104.369961 
L 391.873019 104.850741 
L 392.889597 100.031983 
L 393.906176 103.830199 
L 394.922755 103.105195 
L 395.939333 97.454153 
L 396.955912 96.007443 
L 397.97249 99.59155 
L 398.989069 97.054956 
L 400.005648 96.22159 
L 401.022226 100.602518 
L 402.038805 98.051517 
L 403.055383 98.707952 
L 404.071962 98.470996 
L 405.088541 94.617227 
L 406.105119 101.744115 
L 407.121698 100.44252 
L 408.138277 102.071096 
L 409.154855 100.055514 
L 410.171434 99.136014 
L 411.188012 99.592787 
L 412.204591 96.840526 
L 413.22117 95.776028 
L 414.237748 96.314759 
L 415.254327 96.253239 
L 416.270905 95.199591 
L 417.287484 93.225001 
L 418.304063 96.041076 
L 419.320641 95.31477 
L 420.33722 95.704946 
L 421.353799 94.798153 
L 422.370377 94.125918 
L 423.386956 94.860678 
L 424.403534 94.331483 
L 425.420113 94.125892 
L 426.436692 96.148111 
L 427.45327 93.016447 
L 428.469849 97.188357 
L 429.486427 96.411768 
L 430.503006 95.182942 
L 431.519585 95.740384 
L 432.536163 92.288594 
L 433.552742 92.61658 
L 434.56932 91.971871 
L 435.585899 90.188 
L 436.602478 92.445938 
L 437.619056 88.717064 
L 438.635635 88.130911 
L 439.652214 92.857531 
L 440.668792 91.482418 
L 441.685371 88.084056 
L 442.701949 90.794024 
L 443.718528 90.520471 
L 444.735107 88.547324 
L 445.751685 90.737788 
L 446.768264 89.635378 
L 448.801421 92.60841 
L 449.818 91.63788 
L 450.834578 94.012337 
L 451.851157 92.510602 
L 452.867735 91.619427 
L 453.884314 93.674351 
L 454.900893 92.766063 
L 455.917471 93.734815 
L 456.93405 90.671706 
L 457.950629 93.736464 
L 458.967207 92.229033 
L 459.983786 90.231196 
L 461.000364 91.826641 
L 462.016943 86.819199 
L 463.033522 86.825153 
L 464.0501 87.004532 
L 466.083257 86.951646 
L 467.099836 87.859368 
L 468.116415 87.125562 
L 469.132993 83.799956 
L 470.149572 85.897329 
L 471.16615 82.73484 
L 472.182729 83.680473 
L 474.215886 86.126604 
L 475.232465 83.051073 
L 476.249044 82.963471 
L 477.265622 84.356677 
L 478.282201 84.470696 
L 479.298779 82.637315 
L 480.315358 85.932818 
L 481.331937 85.63728 
L 482.348515 82.116084 
L 483.365094 83.614624 
L 484.381672 83.477898 
L 485.398251 83.588799 
L 486.41483 85.163162 
L 487.431408 83.938176 
L 488.447987 81.317537 
L 489.464565 82.68399 
L 490.481144 83.489213 
L 491.497723 80.505278 
L 492.514301 82.537523 
L 493.53088 79.280808 
L 494.547459 79.946007 
L 495.564037 78.320742 
L 496.580616 79.608021 
L 497.597194 79.078981 
L 498.613773 81.231868 
L 499.630352 78.195872 
L 500.64693 78.596125 
L 501.663509 79.651732 
L 502.680087 79.941342 
L 503.696666 81.11424 
L 505.729823 76.531665 
L 506.746402 79.861832 
L 507.762981 77.057123 
L 509.796138 79.002203 
L 510.812716 79.102202 
L 511.829295 78.243655 
L 513.862452 77.608585 
L 514.879031 81.504829 
L 515.895609 76.503933 
L 516.912188 76.721766 
L 517.928767 77.779331 
L 518.945345 79.124599 
L 519.961924 81.456453 
L 520.978502 76.541072 
L 521.995081 80.21054 
L 523.01166 81.469262 
L 524.028238 81.049602 
L 525.044817 79.728071 
L 526.061396 80.388269 
L 527.077974 78.011235 
L 528.094553 77.014056 
L 529.111131 80.381981 
L 530.12771 78.900606 
L 531.144289 78.117007 
L 532.160867 77.81433 
L 533.177446 76.647025 
L 534.194024 76.293008 
L 535.210603 72.395115 
L 536.227182 73.529071 
L 537.24376 75.418843 
L 538.260339 75.825771 
L 539.276917 74.150301 
L 540.293496 74.589961 
L 541.310075 76.865991 
L 542.326653 75.98979 
L 543.343232 74.043962 
L 544.359811 69.969267 
L 545.376389 75.575594 
L 546.392968 75.305107 
L 547.409546 75.333225 
L 548.426125 75.664639 
L 549.442704 74.901143 
L 550.459282 70.891525 
L 551.475861 70.203002 
L 552.492439 74.288006 
L 553.509018 70.314521 
L 554.525597 69.665998 
L 555.542175 70.284161 
L 556.558754 71.262087 
L 557.575332 73.299048 
L 558.591911 73.304022 
L 559.60849 74.023885 
L 560.625068 72.925161 
L 561.641647 68.693741 
L 562.658226 71.828833 
L 563.674804 68.89794 
L 564.691383 73.170493 
L 565.707961 71.733319 
L 566.72454 69.391388 
L 567.741119 66.476654 
L 568.757697 66.910179 
L 569.774276 70.306222 
L 570.790854 67.165151 
L 571.807433 69.469016 
L 572.824012 70.517508 
L 573.84059 67.987177 
L 574.857169 65.007315 
L 575.873747 72.54916 
L 576.890326 65.157133 
L 577.906905 64.123073 
L 578.923483 64.690979 
L 579.940062 61.709828 
L 580.956641 64.012301 
L 581.973219 61.622741 
L 582.989798 65.032727 
L 584.006376 64.676572 
L 585.022955 61.35643 
L 586.039534 69.289507 
L 587.056112 65.875424 
L 588.072691 63.901478 
L 589.089269 63.660295 
L 590.105848 65.526175 
L 591.122427 61.947145 
L 592.139005 66.497401 
L 593.155584 65.953954 
L 594.172163 63.020302 
L 595.188741 66.583018 
L 596.20532 65.426563 
L 597.221898 71.185181 
L 598.238477 62.314357 
L 599.255056 68.081583 
L 600.271634 67.407467 
L 601.288213 58.489556 
L 603.32137 69.52569 
L 604.337949 69.396903 
L 605.354527 67.126311 
L 606.371106 64.461239 
L 607.387684 64.151861 
L 608.404263 62.736568 
L 609.420842 65.859882 
L 610.43742 64.049981 
L 611.453999 64.932368 
L 612.470578 67.032962 
L 613.487156 63.845421 
L 614.503735 61.94199 
L 615.520313 55.8 
L 616.536892 61.419264 
L 617.553471 63.19128 
L 618.570049 59.368206 
L 619.586628 64.531599 
L 620.603206 63.66496 
L 621.619785 60.061548 
L 622.636364 58.921819 
L 622.636364 58.921819 
" clip-path="url(#p09c3e75419)" style="fill: none; stroke: #ff7f0e; stroke-width: 1.5; stroke-linecap: square"/>
   </g>
   <g id="patch_3">
    <path d="M 90 320.4 
L 90 43.2 
" style="fill: none; stroke: #000000; stroke-width: 0.8; stroke-linejoin: miter; stroke-linecap: square"/>
   </g>
   <g id="patch_4">
    <path d="M 648 320.4 
L 648 43.2 
" style="fill: none; stroke: #000000; stroke-width: 0.8; stroke-linejoin: miter; stroke-linecap: square"/>
   </g>
   <g id="patch_5">
    <path d="M 90 320.4 
L 648 320.4 
" style="fill: none; stroke: #000000; stroke-width: 0.8; stroke-linejoin: miter; stroke-linecap: square"/>
   </g>
   <g id="patch_6">
    <path d="M 90 43.2 
L 648 43.2 
" style="fill: none; stroke: #000000; stroke-width: 0.8; stroke-linejoin: miter; stroke-linecap: square"/>
   </g>
   <g id="text_15">
    <!-- model train and validation loss over time -->
    <g transform="translate(245.555625 37.2) scale(0.12 -0.12)">
     <defs>
      <path id="DejaVuSans-6d" d="M 3328 2828 
Q 3544 3216 3844 3400 
Q 4144 3584 4550 3584 
Q 5097 3584 5394 3201 
Q 5691 2819 5691 2113 
L 5691 0 
L 5113 0 
L 5113 2094 
Q 5113 2597 4934 2840 
Q 4756 3084 4391 3084 
Q 3944 3084 3684 2787 
Q 3425 2491 3425 1978 
L 3425 0 
L 2847 0 
L 2847 2094 
Q 2847 2600 2669 2842 
Q 2491 3084 2119 3084 
Q 1678 3084 1418 2786 
Q 1159 2488 1159 1978 
L 1159 0 
L 581 0 
L 581 3500 
L 1159 3500 
L 1159 2956 
Q 1356 3278 1631 3431 
Q 1906 3584 2284 3584 
Q 2666 3584 2933 3390 
Q 3200 3197 3328 2828 
z
" transform="scale(0.015625)"/>
      <path id="DejaVuSans-64" d="M 2906 2969 
L 2906 4863 
L 3481 4863 
L 3481 0 
L 2906 0 
L 2906 525 
Q 2725 213 2448 61 
Q 2172 -91 1784 -91 
Q 1150 -91 751 415 
Q 353 922 353 1747 
Q 353 2572 751 3078 
Q 1150 3584 1784 3584 
Q 2172 3584 2448 3432 
Q 2725 3281 2906 2969 
z
M 947 1747 
Q 947 1113 1208 752 
Q 1469 391 1925 391 
Q 2381 391 2643 752 
Q 2906 1113 2906 1747 
Q 2906 2381 2643 2742 
Q 2381 3103 1925 3103 
Q 1469 3103 1208 2742 
Q 947 2381 947 1747 
z
" transform="scale(0.015625)"/>
      <path id="DejaVuSans-20" transform="scale(0.015625)"/>
      <path id="DejaVuSans-74" d="M 1172 4494 
L 1172 3500 
L 2356 3500 
L 2356 3053 
L 1172 3053 
L 1172 1153 
Q 1172 725 1289 603 
Q 1406 481 1766 481 
L 2356 481 
L 2356 0 
L 1766 0 
Q 1100 0 847 248 
Q 594 497 594 1153 
L 594 3053 
L 172 3053 
L 172 3500 
L 594 3500 
L 594 4494 
L 1172 4494 
z
" transform="scale(0.015625)"/>
      <path id="DejaVuSans-72" d="M 2631 2963 
Q 2534 3019 2420 3045 
Q 2306 3072 2169 3072 
Q 1681 3072 1420 2755 
Q 1159 2438 1159 1844 
L 1159 0 
L 581 0 
L 581 3500 
L 1159 3500 
L 1159 2956 
Q 1341 3275 1631 3429 
Q 1922 3584 2338 3584 
Q 2397 3584 2469 3576 
Q 2541 3569 2628 3553 
L 2631 2963 
z
" transform="scale(0.015625)"/>
      <path id="DejaVuSans-61" d="M 2194 1759 
Q 1497 1759 1228 1600 
Q 959 1441 959 1056 
Q 959 750 1161 570 
Q 1363 391 1709 391 
Q 2188 391 2477 730 
Q 2766 1069 2766 1631 
L 2766 1759 
L 2194 1759 
z
M 3341 1997 
L 3341 0 
L 2766 0 
L 2766 531 
Q 2569 213 2275 61 
Q 1981 -91 1556 -91 
Q 1019 -91 701 211 
Q 384 513 384 1019 
Q 384 1609 779 1909 
Q 1175 2209 1959 2209 
L 2766 2209 
L 2766 2266 
Q 2766 2663 2505 2880 
Q 2244 3097 1772 3097 
Q 1472 3097 1187 3025 
Q 903 2953 641 2809 
L 641 3341 
Q 956 3463 1253 3523 
Q 1550 3584 1831 3584 
Q 2591 3584 2966 3190 
Q 3341 2797 3341 1997 
z
" transform="scale(0.015625)"/>
      <path id="DejaVuSans-69" d="M 603 3500 
L 1178 3500 
L 1178 0 
L 603 0 
L 603 3500 
z
M 603 4863 
L 1178 4863 
L 1178 4134 
L 603 4134 
L 603 4863 
z
" transform="scale(0.015625)"/>
      <path id="DejaVuSans-6e" d="M 3513 2113 
L 3513 0 
L 2938 0 
L 2938 2094 
Q 2938 2591 2744 2837 
Q 2550 3084 2163 3084 
Q 1697 3084 1428 2787 
Q 1159 2491 1159 1978 
L 1159 0 
L 581 0 
L 581 3500 
L 1159 3500 
L 1159 2956 
Q 1366 3272 1645 3428 
Q 1925 3584 2291 3584 
Q 2894 3584 3203 3211 
Q 3513 2838 3513 2113 
z
" transform="scale(0.015625)"/>
      <path id="DejaVuSans-76" d="M 191 3500 
L 800 3500 
L 1894 563 
L 2988 3500 
L 3597 3500 
L 2284 0 
L 1503 0 
L 191 3500 
z
" transform="scale(0.015625)"/>
     </defs>
     <use xlink:href="#DejaVuSans-6d"/>
     <use xlink:href="#DejaVuSans-6f" x="97.412109"/>
     <use xlink:href="#DejaVuSans-64" x="158.59375"/>
     <use xlink:href="#DejaVuSans-65" x="222.070312"/>
     <use xlink:href="#DejaVuSans-6c" x="283.59375"/>
     <use xlink:href="#DejaVuSans-20" x="311.376953"/>
     <use xlink:href="#DejaVuSans-74" x="343.164062"/>
     <use xlink:href="#DejaVuSans-72" x="382.373047"/>
     <use xlink:href="#DejaVuSans-61" x="423.486328"/>
     <use xlink:href="#DejaVuSans-69" x="484.765625"/>
     <use xlink:href="#DejaVuSans-6e" x="512.548828"/>
     <use xlink:href="#DejaVuSans-20" x="575.927734"/>
     <use xlink:href="#DejaVuSans-61" x="607.714844"/>
     <use xlink:href="#DejaVuSans-6e" x="668.994141"/>
     <use xlink:href="#DejaVuSans-64" x="732.373047"/>
     <use xlink:href="#DejaVuSans-20" x="795.849609"/>
     <use xlink:href="#DejaVuSans-76" x="827.636719"/>
     <use xlink:href="#DejaVuSans-61" x="886.816406"/>
     <use xlink:href="#DejaVuSans-6c" x="948.095703"/>
     <use xlink:href="#DejaVuSans-69" x="975.878906"/>
     <use xlink:href="#DejaVuSans-64" x="1003.662109"/>
     <use xlink:href="#DejaVuSans-61" x="1067.138672"/>
     <use xlink:href="#DejaVuSans-74" x="1128.417969"/>
     <use xlink:href="#DejaVuSans-69" x="1167.626953"/>
     <use xlink:href="#DejaVuSans-6f" x="1195.410156"/>
     <use xlink:href="#DejaVuSans-6e" x="1256.591797"/>
     <use xlink:href="#DejaVuSans-20" x="1319.970703"/>
     <use xlink:href="#DejaVuSans-6c" x="1351.757812"/>
     <use xlink:href="#DejaVuSans-6f" x="1379.541016"/>
     <use xlink:href="#DejaVuSans-73" x="1440.722656"/>
     <use xlink:href="#DejaVuSans-73" x="1492.822266"/>
     <use xlink:href="#DejaVuSans-20" x="1544.921875"/>
     <use xlink:href="#DejaVuSans-6f" x="1576.708984"/>
     <use xlink:href="#DejaVuSans-76" x="1637.890625"/>
     <use xlink:href="#DejaVuSans-65" x="1697.070312"/>
     <use xlink:href="#DejaVuSans-72" x="1758.59375"/>
     <use xlink:href="#DejaVuSans-20" x="1799.707031"/>
     <use xlink:href="#DejaVuSans-74" x="1831.494141"/>
     <use xlink:href="#DejaVuSans-69" x="1870.703125"/>
     <use xlink:href="#DejaVuSans-6d" x="1898.486328"/>
     <use xlink:href="#DejaVuSans-65" x="1995.898438"/>
    </g>
   </g>
   <g id="legend_1">
    <g id="patch_7">
     <path d="M 97 80.55625 
L 178.234375 80.55625 
Q 180.234375 80.55625 180.234375 78.55625 
L 180.234375 50.2 
Q 180.234375 48.2 178.234375 48.2 
L 97 48.2 
Q 95 48.2 95 50.2 
L 95 78.55625 
Q 95 80.55625 97 80.55625 
z
" style="fill: #ffffff; opacity: 0.8; stroke: #cccccc; stroke-linejoin: miter"/>
    </g>
    <g id="line2d_27">
     <path d="M 99 56.298437 
L 109 56.298437 
L 119 56.298437 
" style="fill: none; stroke: #1f77b4; stroke-width: 1.5; stroke-linecap: square"/>
    </g>
    <g id="text_16">
     <!-- train -->
     <g transform="translate(127 59.798437) scale(0.1 -0.1)">
      <use xlink:href="#DejaVuSans-74"/>
      <use xlink:href="#DejaVuSans-72" x="39.208984"/>
      <use xlink:href="#DejaVuSans-61" x="80.322266"/>
      <use xlink:href="#DejaVuSans-69" x="141.601562"/>
      <use xlink:href="#DejaVuSans-6e" x="169.384766"/>
     </g>
    </g>
    <g id="line2d_28">
     <path d="M 99 70.976562 
L 109 70.976562 
L 119 70.976562 
" style="fill: none; stroke: #ff7f0e; stroke-width: 1.5; stroke-linecap: square"/>
    </g>
    <g id="text_17">
     <!-- validation -->
     <g transform="translate(127 74.476562) scale(0.1 -0.1)">
      <use xlink:href="#DejaVuSans-76"/>
      <use xlink:href="#DejaVuSans-61" x="59.179688"/>
      <use xlink:href="#DejaVuSans-6c" x="120.458984"/>
      <use xlink:href="#DejaVuSans-69" x="148.242188"/>
      <use xlink:href="#DejaVuSans-64" x="176.025391"/>
      <use xlink:href="#DejaVuSans-61" x="239.501953"/>
      <use xlink:href="#DejaVuSans-74" x="300.78125"/>
      <use xlink:href="#DejaVuSans-69" x="339.990234"/>
      <use xlink:href="#DejaVuSans-6f" x="367.773438"/>
      <use xlink:href="#DejaVuSans-6e" x="428.955078"/>
     </g>
    </g>
   </g>
  </g>
 </g>
 <defs>
  <clipPath id="p09c3e75419">
   <rect x="90" y="43.2" width="558" height="277.2"/>
  </clipPath>
 </defs>
</svg>
