<?xml version="1.0" encoding="utf-8" standalone="no"?>
<!DOCTYPE svg PUBLIC "-//W3C//DTD SVG 1.1//EN"
  "http://www.w3.org/Graphics/SVG/1.1/DTD/svg11.dtd">
<svg xmlns:xlink="http://www.w3.org/1999/xlink" width="720pt" height="360pt" viewBox="0 0 720 360" xmlns="http://www.w3.org/2000/svg" version="1.1">
 <metadata>
  <rdf:RDF xmlns:dc="http://purl.org/dc/elements/1.1/" xmlns:cc="http://creativecommons.org/ns#" xmlns:rdf="http://www.w3.org/1999/02/22-rdf-syntax-ns#">
   <cc:Work>
    <dc:type rdf:resource="http://purl.org/dc/dcmitype/StillImage"/>
    <dc:date>2023-05-24T11:13:22.940543</dc:date>
    <dc:format>image/svg+xml</dc:format>
    <dc:creator>
     <cc:Agent>
      <dc:title>Matplotlib v3.7.1, https://matplotlib.org/</dc:title>
     </cc:Agent>
    </dc:creator>
   </cc:Work>
  </rdf:RDF>
 </metadata>
 <defs>
  <style type="text/css">*{stroke-linejoin: round; stroke-linecap: butt}</style>
 </defs>
 <g id="figure_1">
  <g id="patch_1">
   <path d="M 0 360 
L 720 360 
L 720 0 
L 0 0 
z
" style="fill: #ffffff"/>
  </g>
  <g id="axes_1">
   <g id="patch_2">
    <path d="M 90 320.4 
L 648 320.4 
L 648 43.2 
L 90 43.2 
z
" style="fill: #ffffff"/>
   </g>
   <g id="matplotlib.axis_1">
    <g id="xtick_1">
     <g id="line2d_1">
      <path d="M 115.363636 320.4 
L 115.363636 43.2 
" clip-path="url(#p305d63c055)" style="fill: none; stroke: #b0b0b0; stroke-width: 0.8; stroke-linecap: square"/>
     </g>
     <g id="line2d_2">
      <defs>
       <path id="m3b87ac07a2" d="M 0 0 
L 0 3.5 
" style="stroke: #000000; stroke-width: 0.8"/>
      </defs>
      <g>
       <use xlink:href="#m3b87ac07a2" x="115.363636" y="320.4" style="stroke: #000000; stroke-width: 0.8"/>
      </g>
     </g>
     <g id="text_1">
      <!-- 0 -->
      <g transform="translate(112.182386 334.998438) scale(0.1 -0.1)">
       <defs>
        <path id="DejaVuSans-30" d="M 2034 4250 
Q 1547 4250 1301 3770 
Q 1056 3291 1056 2328 
Q 1056 1369 1301 889 
Q 1547 409 2034 409 
Q 2525 409 2770 889 
Q 3016 1369 3016 2328 
Q 3016 3291 2770 3770 
Q 2525 4250 2034 4250 
z
M 2034 4750 
Q 2819 4750 3233 4129 
Q 3647 3509 3647 2328 
Q 3647 1150 3233 529 
Q 2819 -91 2034 -91 
Q 1250 -91 836 529 
Q 422 1150 422 2328 
Q 422 3509 836 4129 
Q 1250 4750 2034 4750 
z
" transform="scale(0.015625)"/>
       </defs>
       <use xlink:href="#DejaVuSans-30"/>
      </g>
     </g>
    </g>
    <g id="xtick_2">
     <g id="line2d_3">
      <path d="M 217.021498 320.4 
L 217.021498 43.2 
" clip-path="url(#p305d63c055)" style="fill: none; stroke: #b0b0b0; stroke-width: 0.8; stroke-linecap: square"/>
     </g>
     <g id="line2d_4">
      <g>
       <use xlink:href="#m3b87ac07a2" x="217.021498" y="320.4" style="stroke: #000000; stroke-width: 0.8"/>
      </g>
     </g>
     <g id="text_2">
      <!-- 100 -->
      <g transform="translate(207.477748 334.998438) scale(0.1 -0.1)">
       <defs>
        <path id="DejaVuSans-31" d="M 794 531 
L 1825 531 
L 1825 4091 
L 703 3866 
L 703 4441 
L 1819 4666 
L 2450 4666 
L 2450 531 
L 3481 531 
L 3481 0 
L 794 0 
L 794 531 
z
" transform="scale(0.015625)"/>
       </defs>
       <use xlink:href="#DejaVuSans-31"/>
       <use xlink:href="#DejaVuSans-30" x="63.623047"/>
       <use xlink:href="#DejaVuSans-30" x="127.246094"/>
      </g>
     </g>
    </g>
    <g id="xtick_3">
     <g id="line2d_5">
      <path d="M 318.679359 320.4 
L 318.679359 43.2 
" clip-path="url(#p305d63c055)" style="fill: none; stroke: #b0b0b0; stroke-width: 0.8; stroke-linecap: square"/>
     </g>
     <g id="line2d_6">
      <g>
       <use xlink:href="#m3b87ac07a2" x="318.679359" y="320.4" style="stroke: #000000; stroke-width: 0.8"/>
      </g>
     </g>
     <g id="text_3">
      <!-- 200 -->
      <g transform="translate(309.135609 334.998438) scale(0.1 -0.1)">
       <defs>
        <path id="DejaVuSans-32" d="M 1228 531 
L 3431 531 
L 3431 0 
L 469 0 
L 469 531 
Q 828 903 1448 1529 
Q 2069 2156 2228 2338 
Q 2531 2678 2651 2914 
Q 2772 3150 2772 3378 
Q 2772 3750 2511 3984 
Q 2250 4219 1831 4219 
Q 1534 4219 1204 4116 
Q 875 4013 500 3803 
L 500 4441 
Q 881 4594 1212 4672 
Q 1544 4750 1819 4750 
Q 2544 4750 2975 4387 
Q 3406 4025 3406 3419 
Q 3406 3131 3298 2873 
Q 3191 2616 2906 2266 
Q 2828 2175 2409 1742 
Q 1991 1309 1228 531 
z
" transform="scale(0.015625)"/>
       </defs>
       <use xlink:href="#DejaVuSans-32"/>
       <use xlink:href="#DejaVuSans-30" x="63.623047"/>
       <use xlink:href="#DejaVuSans-30" x="127.246094"/>
      </g>
     </g>
    </g>
    <g id="xtick_4">
     <g id="line2d_7">
      <path d="M 420.33722 320.4 
L 420.33722 43.2 
" clip-path="url(#p305d63c055)" style="fill: none; stroke: #b0b0b0; stroke-width: 0.8; stroke-linecap: square"/>
     </g>
     <g id="line2d_8">
      <g>
       <use xlink:href="#m3b87ac07a2" x="420.33722" y="320.4" style="stroke: #000000; stroke-width: 0.8"/>
      </g>
     </g>
     <g id="text_4">
      <!-- 300 -->
      <g transform="translate(410.79347 334.998438) scale(0.1 -0.1)">
       <defs>
        <path id="DejaVuSans-33" d="M 2597 2516 
Q 3050 2419 3304 2112 
Q 3559 1806 3559 1356 
Q 3559 666 3084 287 
Q 2609 -91 1734 -91 
Q 1441 -91 1130 -33 
Q 819 25 488 141 
L 488 750 
Q 750 597 1062 519 
Q 1375 441 1716 441 
Q 2309 441 2620 675 
Q 2931 909 2931 1356 
Q 2931 1769 2642 2001 
Q 2353 2234 1838 2234 
L 1294 2234 
L 1294 2753 
L 1863 2753 
Q 2328 2753 2575 2939 
Q 2822 3125 2822 3475 
Q 2822 3834 2567 4026 
Q 2313 4219 1838 4219 
Q 1578 4219 1281 4162 
Q 984 4106 628 3988 
L 628 4550 
Q 988 4650 1302 4700 
Q 1616 4750 1894 4750 
Q 2613 4750 3031 4423 
Q 3450 4097 3450 3541 
Q 3450 3153 3228 2886 
Q 3006 2619 2597 2516 
z
" transform="scale(0.015625)"/>
       </defs>
       <use xlink:href="#DejaVuSans-33"/>
       <use xlink:href="#DejaVuSans-30" x="63.623047"/>
       <use xlink:href="#DejaVuSans-30" x="127.246094"/>
      </g>
     </g>
    </g>
    <g id="xtick_5">
     <g id="line2d_9">
      <path d="M 521.995081 320.4 
L 521.995081 43.2 
" clip-path="url(#p305d63c055)" style="fill: none; stroke: #b0b0b0; stroke-width: 0.8; stroke-linecap: square"/>
     </g>
     <g id="line2d_10">
      <g>
       <use xlink:href="#m3b87ac07a2" x="521.995081" y="320.4" style="stroke: #000000; stroke-width: 0.8"/>
      </g>
     </g>
     <g id="text_5">
      <!-- 400 -->
      <g transform="translate(512.451331 334.998438) scale(0.1 -0.1)">
       <defs>
        <path id="DejaVuSans-34" d="M 2419 4116 
L 825 1625 
L 2419 1625 
L 2419 4116 
z
M 2253 4666 
L 3047 4666 
L 3047 1625 
L 3713 1625 
L 3713 1100 
L 3047 1100 
L 3047 0 
L 2419 0 
L 2419 1100 
L 313 1100 
L 313 1709 
L 2253 4666 
z
" transform="scale(0.015625)"/>
       </defs>
       <use xlink:href="#DejaVuSans-34"/>
       <use xlink:href="#DejaVuSans-30" x="63.623047"/>
       <use xlink:href="#DejaVuSans-30" x="127.246094"/>
      </g>
     </g>
    </g>
    <g id="xtick_6">
     <g id="line2d_11">
      <path d="M 623.652942 320.4 
L 623.652942 43.2 
" clip-path="url(#p305d63c055)" style="fill: none; stroke: #b0b0b0; stroke-width: 0.8; stroke-linecap: square"/>
     </g>
     <g id="line2d_12">
      <g>
       <use xlink:href="#m3b87ac07a2" x="623.652942" y="320.4" style="stroke: #000000; stroke-width: 0.8"/>
      </g>
     </g>
     <g id="text_6">
      <!-- 500 -->
      <g transform="translate(614.109192 334.998438) scale(0.1 -0.1)">
       <defs>
        <path id="DejaVuSans-35" d="M 691 4666 
L 3169 4666 
L 3169 4134 
L 1269 4134 
L 1269 2991 
Q 1406 3038 1543 3061 
Q 1681 3084 1819 3084 
Q 2600 3084 3056 2656 
Q 3513 2228 3513 1497 
Q 3513 744 3044 326 
Q 2575 -91 1722 -91 
Q 1428 -91 1123 -41 
Q 819 9 494 109 
L 494 744 
Q 775 591 1075 516 
Q 1375 441 1709 441 
Q 2250 441 2565 725 
Q 2881 1009 2881 1497 
Q 2881 1984 2565 2268 
Q 2250 2553 1709 2553 
Q 1456 2553 1204 2497 
Q 953 2441 691 2322 
L 691 4666 
z
" transform="scale(0.015625)"/>
       </defs>
       <use xlink:href="#DejaVuSans-35"/>
       <use xlink:href="#DejaVuSans-30" x="63.623047"/>
       <use xlink:href="#DejaVuSans-30" x="127.246094"/>
      </g>
     </g>
    </g>
    <g id="text_7">
     <!-- epoch -->
     <g transform="translate(353.771875 348.676562) scale(0.1 -0.1)">
      <defs>
       <path id="DejaVuSans-65" d="M 3597 1894 
L 3597 1613 
L 953 1613 
Q 991 1019 1311 708 
Q 1631 397 2203 397 
Q 2534 397 2845 478 
Q 3156 559 3463 722 
L 3463 178 
Q 3153 47 2828 -22 
Q 2503 -91 2169 -91 
Q 1331 -91 842 396 
Q 353 884 353 1716 
Q 353 2575 817 3079 
Q 1281 3584 2069 3584 
Q 2775 3584 3186 3129 
Q 3597 2675 3597 1894 
z
M 3022 2063 
Q 3016 2534 2758 2815 
Q 2500 3097 2075 3097 
Q 1594 3097 1305 2825 
Q 1016 2553 972 2059 
L 3022 2063 
z
" transform="scale(0.015625)"/>
       <path id="DejaVuSans-70" d="M 1159 525 
L 1159 -1331 
L 581 -1331 
L 581 3500 
L 1159 3500 
L 1159 2969 
Q 1341 3281 1617 3432 
Q 1894 3584 2278 3584 
Q 2916 3584 3314 3078 
Q 3713 2572 3713 1747 
Q 3713 922 3314 415 
Q 2916 -91 2278 -91 
Q 1894 -91 1617 61 
Q 1341 213 1159 525 
z
M 3116 1747 
Q 3116 2381 2855 2742 
Q 2594 3103 2138 3103 
Q 1681 3103 1420 2742 
Q 1159 2381 1159 1747 
Q 1159 1113 1420 752 
Q 1681 391 2138 391 
Q 2594 391 2855 752 
Q 3116 1113 3116 1747 
z
" transform="scale(0.015625)"/>
       <path id="DejaVuSans-6f" d="M 1959 3097 
Q 1497 3097 1228 2736 
Q 959 2375 959 1747 
Q 959 1119 1226 758 
Q 1494 397 1959 397 
Q 2419 397 2687 759 
Q 2956 1122 2956 1747 
Q 2956 2369 2687 2733 
Q 2419 3097 1959 3097 
z
M 1959 3584 
Q 2709 3584 3137 3096 
Q 3566 2609 3566 1747 
Q 3566 888 3137 398 
Q 2709 -91 1959 -91 
Q 1206 -91 779 398 
Q 353 888 353 1747 
Q 353 2609 779 3096 
Q 1206 3584 1959 3584 
z
" transform="scale(0.015625)"/>
       <path id="DejaVuSans-63" d="M 3122 3366 
L 3122 2828 
Q 2878 2963 2633 3030 
Q 2388 3097 2138 3097 
Q 1578 3097 1268 2742 
Q 959 2388 959 1747 
Q 959 1106 1268 751 
Q 1578 397 2138 397 
Q 2388 397 2633 464 
Q 2878 531 3122 666 
L 3122 134 
Q 2881 22 2623 -34 
Q 2366 -91 2075 -91 
Q 1284 -91 818 406 
Q 353 903 353 1747 
Q 353 2603 823 3093 
Q 1294 3584 2113 3584 
Q 2378 3584 2631 3529 
Q 2884 3475 3122 3366 
z
" transform="scale(0.015625)"/>
       <path id="DejaVuSans-68" d="M 3513 2113 
L 3513 0 
L 2938 0 
L 2938 2094 
Q 2938 2591 2744 2837 
Q 2550 3084 2163 3084 
Q 1697 3084 1428 2787 
Q 1159 2491 1159 1978 
L 1159 0 
L 581 0 
L 581 4863 
L 1159 4863 
L 1159 2956 
Q 1366 3272 1645 3428 
Q 1925 3584 2291 3584 
Q 2894 3584 3203 3211 
Q 3513 2838 3513 2113 
z
" transform="scale(0.015625)"/>
      </defs>
      <use xlink:href="#DejaVuSans-65"/>
      <use xlink:href="#DejaVuSans-70" x="61.523438"/>
      <use xlink:href="#DejaVuSans-6f" x="125"/>
      <use xlink:href="#DejaVuSans-63" x="186.181641"/>
      <use xlink:href="#DejaVuSans-68" x="241.162109"/>
     </g>
    </g>
   </g>
   <g id="matplotlib.axis_2">
    <g id="ytick_1">
     <g id="line2d_13">
      <path d="M 90 315.799291 
L 648 315.799291 
" clip-path="url(#p305d63c055)" style="fill: none; stroke: #b0b0b0; stroke-width: 0.8; stroke-linecap: square"/>
     </g>
     <g id="line2d_14">
      <defs>
       <path id="m8a2708f608" d="M 0 0 
L -3.5 0 
" style="stroke: #000000; stroke-width: 0.8"/>
      </defs>
      <g>
       <use xlink:href="#m8a2708f608" x="90" y="315.799291" style="stroke: #000000; stroke-width: 0.8"/>
      </g>
     </g>
     <g id="text_8">
      <!-- 0 -->
      <g transform="translate(76.6375 319.598509) scale(0.1 -0.1)">
       <use xlink:href="#DejaVuSans-30"/>
      </g>
     </g>
    </g>
    <g id="ytick_2">
     <g id="line2d_15">
      <path d="M 90 265.002704 
L 648 265.002704 
" clip-path="url(#p305d63c055)" style="fill: none; stroke: #b0b0b0; stroke-width: 0.8; stroke-linecap: square"/>
     </g>
     <g id="line2d_16">
      <g>
       <use xlink:href="#m8a2708f608" x="90" y="265.002704" style="stroke: #000000; stroke-width: 0.8"/>
      </g>
     </g>
     <g id="text_9">
      <!-- 1 -->
      <g transform="translate(76.6375 268.801922) scale(0.1 -0.1)">
       <use xlink:href="#DejaVuSans-31"/>
      </g>
     </g>
    </g>
    <g id="ytick_3">
     <g id="line2d_17">
      <path d="M 90 214.206117 
L 648 214.206117 
" clip-path="url(#p305d63c055)" style="fill: none; stroke: #b0b0b0; stroke-width: 0.8; stroke-linecap: square"/>
     </g>
     <g id="line2d_18">
      <g>
       <use xlink:href="#m8a2708f608" x="90" y="214.206117" style="stroke: #000000; stroke-width: 0.8"/>
      </g>
     </g>
     <g id="text_10">
      <!-- 2 -->
      <g transform="translate(76.6375 218.005335) scale(0.1 -0.1)">
       <use xlink:href="#DejaVuSans-32"/>
      </g>
     </g>
    </g>
    <g id="ytick_4">
     <g id="line2d_19">
      <path d="M 90 163.40953 
L 648 163.40953 
" clip-path="url(#p305d63c055)" style="fill: none; stroke: #b0b0b0; stroke-width: 0.8; stroke-linecap: square"/>
     </g>
     <g id="line2d_20">
      <g>
       <use xlink:href="#m8a2708f608" x="90" y="163.40953" style="stroke: #000000; stroke-width: 0.8"/>
      </g>
     </g>
     <g id="text_11">
      <!-- 3 -->
      <g transform="translate(76.6375 167.208748) scale(0.1 -0.1)">
       <use xlink:href="#DejaVuSans-33"/>
      </g>
     </g>
    </g>
    <g id="ytick_5">
     <g id="line2d_21">
      <path d="M 90 112.612942 
L 648 112.612942 
" clip-path="url(#p305d63c055)" style="fill: none; stroke: #b0b0b0; stroke-width: 0.8; stroke-linecap: square"/>
     </g>
     <g id="line2d_22">
      <g>
       <use xlink:href="#m8a2708f608" x="90" y="112.612942" style="stroke: #000000; stroke-width: 0.8"/>
      </g>
     </g>
     <g id="text_12">
      <!-- 4 -->
      <g transform="translate(76.6375 116.412161) scale(0.1 -0.1)">
       <use xlink:href="#DejaVuSans-34"/>
      </g>
     </g>
    </g>
    <g id="ytick_6">
     <g id="line2d_23">
      <path d="M 90 61.816355 
L 648 61.816355 
" clip-path="url(#p305d63c055)" style="fill: none; stroke: #b0b0b0; stroke-width: 0.8; stroke-linecap: square"/>
     </g>
     <g id="line2d_24">
      <g>
       <use xlink:href="#m8a2708f608" x="90" y="61.816355" style="stroke: #000000; stroke-width: 0.8"/>
      </g>
     </g>
     <g id="text_13">
      <!-- 5 -->
      <g transform="translate(76.6375 65.615574) scale(0.1 -0.1)">
       <use xlink:href="#DejaVuSans-35"/>
      </g>
     </g>
    </g>
    <g id="text_14">
     <!-- loss -->
     <g transform="translate(70.557812 191.457812) rotate(-90) scale(0.1 -0.1)">
      <defs>
       <path id="DejaVuSans-6c" d="M 603 4863 
L 1178 4863 
L 1178 0 
L 603 0 
L 603 4863 
z
" transform="scale(0.015625)"/>
       <path id="DejaVuSans-73" d="M 2834 3397 
L 2834 2853 
Q 2591 2978 2328 3040 
Q 2066 3103 1784 3103 
Q 1356 3103 1142 2972 
Q 928 2841 928 2578 
Q 928 2378 1081 2264 
Q 1234 2150 1697 2047 
L 1894 2003 
Q 2506 1872 2764 1633 
Q 3022 1394 3022 966 
Q 3022 478 2636 193 
Q 2250 -91 1575 -91 
Q 1294 -91 989 -36 
Q 684 19 347 128 
L 347 722 
Q 666 556 975 473 
Q 1284 391 1588 391 
Q 1994 391 2212 530 
Q 2431 669 2431 922 
Q 2431 1156 2273 1281 
Q 2116 1406 1581 1522 
L 1381 1569 
Q 847 1681 609 1914 
Q 372 2147 372 2553 
Q 372 3047 722 3315 
Q 1072 3584 1716 3584 
Q 2034 3584 2315 3537 
Q 2597 3491 2834 3397 
z
" transform="scale(0.015625)"/>
      </defs>
      <use xlink:href="#DejaVuSans-6c"/>
      <use xlink:href="#DejaVuSans-6f" x="27.783203"/>
      <use xlink:href="#DejaVuSans-73" x="88.964844"/>
      <use xlink:href="#DejaVuSans-73" x="141.064453"/>
     </g>
    </g>
   </g>
   <g id="line2d_25">
    <path d="M 115.363636 307.206722 
L 116.380215 307.289606 
L 117.396794 307.221004 
L 118.413372 306.722722 
L 120.446529 307.393899 
L 121.463108 307.280926 
L 122.479687 307.008229 
L 123.496265 307.326772 
L 125.529422 307.273419 
L 126.546001 306.956699 
L 130.612316 307.402341 
L 131.628894 307.315332 
L 132.645473 307.380526 
L 133.662051 307.302228 
L 134.67863 307.454284 
L 135.695209 307.378354 
L 136.711787 307.524485 
L 137.728366 307.282839 
L 138.744944 307.270649 
L 139.761523 307.001065 
L 142.811259 307.531004 
L 143.827837 307.398881 
L 144.844416 307.39693 
L 145.860995 307.115782 
L 147.894152 307.387551 
L 148.910731 307.275751 
L 150.943888 307.390203 
L 151.960466 307.117971 
L 153.993624 307.644461 
L 156.026781 307.30198 
L 157.043359 307.397844 
L 158.059938 307.368714 
L 159.076517 307.508034 
L 161.109674 307.445727 
L 162.126253 307.204411 
L 163.142831 307.214649 
L 164.15941 307.451041 
L 165.175988 307.4985 
L 168.225724 306.926674 
L 169.242303 307.450681 
L 170.258881 307.462285 
L 171.27546 307.128216 
L 172.292039 307.356281 
L 174.325196 307.40246 
L 175.341774 307.528684 
L 176.358353 307.383989 
L 177.374932 307.075107 
L 178.39151 307.578527 
L 179.408089 306.694753 
L 180.424668 307.042828 
L 181.441246 307.109308 
L 182.457825 307.44202 
L 183.474403 307.415347 
L 184.490982 307.187483 
L 185.507561 307.112142 
L 186.524139 307.458256 
L 188.557296 306.964735 
L 190.590454 307.60471 
L 191.607032 307.060561 
L 192.623611 307.352898 
L 193.640189 307.502711 
L 195.673347 307.53496 
L 196.689925 307.254998 
L 197.706504 307.312784 
L 198.723083 307.082792 
L 201.772818 307.504274 
L 202.789397 307.252485 
L 205.839133 307.423321 
L 206.855711 307.323212 
L 207.87229 306.946303 
L 208.888869 307.462404 
L 209.905447 306.969485 
L 210.922026 307.552568 
L 211.938604 307.282686 
L 213.971762 307.275452 
L 214.98834 307.511415 
L 218.038076 307.157931 
L 220.071233 307.506015 
L 221.087812 307.440414 
L 223.120969 306.944779 
L 224.137548 307.294137 
L 228.203862 307.564503 
L 229.220441 307.223928 
L 230.237019 307.511353 
L 231.253598 307.518445 
L 232.270177 307.401331 
L 234.303334 307.577204 
L 236.336491 307.382677 
L 237.35307 307.555741 
L 238.369648 307.397407 
L 242.435963 307.238015 
L 243.452541 307.485588 
L 244.46912 307.508834 
L 246.502277 307.34112 
L 248.535435 307.52308 
L 249.552013 307.430592 
L 250.568592 307.006636 
L 251.58517 307.405933 
L 252.601749 307.579648 
L 256.668063 307.458064 
L 257.684642 307.163202 
L 259.717799 307.347435 
L 260.734378 307.481164 
L 261.750956 307.160083 
L 263.784114 307.618798 
L 264.800692 307.587598 
L 265.817271 307.409557 
L 266.83385 307.49826 
L 267.850428 307.333765 
L 268.867007 307.510992 
L 269.883585 307.231589 
L 270.900164 307.534466 
L 271.916743 307.574603 
L 273.9499 307.254831 
L 274.966478 307.426949 
L 275.983057 307.148881 
L 276.999636 307.566196 
L 278.016214 307.339524 
L 279.032793 307.517177 
L 280.049371 307.307051 
L 281.06595 307.534599 
L 282.082529 307.205064 
L 283.099107 307.44351 
L 284.115686 307.061025 
L 286.148843 307.507938 
L 287.165422 307.183281 
L 288.182 307.431984 
L 289.198579 307.024277 
L 290.215158 306.921074 
L 291.231736 307.527027 
L 292.248315 307.30736 
L 293.264893 307.436882 
L 294.281472 307.418753 
L 295.298051 307.239692 
L 297.331208 307.528488 
L 298.347786 307.3816 
L 299.364365 307.375671 
L 300.380944 307.540646 
L 301.397522 307.386978 
L 302.414101 307.664041 
L 303.43068 307.461922 
L 306.480415 307.584546 
L 307.496994 306.957209 
L 309.530151 307.446182 
L 310.54673 307.125781 
L 311.563308 307.506778 
L 312.579887 307.448489 
L 313.596466 307.540756 
L 314.613044 307.215365 
L 315.629623 307.263421 
L 316.646201 307.58411 
L 317.66278 307.575001 
L 318.679359 307.360147 
L 319.695937 307.288311 
L 320.712516 307.607726 
L 321.729095 307.220351 
L 323.762252 307.454132 
L 324.77883 307.273011 
L 325.795409 307.270709 
L 326.811988 307.448174 
L 329.861723 307.544343 
L 331.894881 307.375279 
L 332.911459 307.588339 
L 333.928038 307.088578 
L 334.944617 307.530441 
L 337.994352 307.553416 
L 339.010931 307.237508 
L 340.02751 307.58637 
L 343.077245 307.5972 
L 344.093824 307.724643 
L 346.126981 307.515816 
L 348.160138 307.596593 
L 350.193296 307.142835 
L 351.209874 307.493075 
L 352.226453 307.645853 
L 353.243032 307.669857 
L 354.25961 307.344637 
L 356.292767 307.587615 
L 358.325925 307.570039 
L 359.342503 307.181659 
L 360.359082 307.475423 
L 361.37566 307.563177 
L 362.392239 307.513388 
L 364.425396 307.631168 
L 365.441975 307.380704 
L 366.458553 307.516619 
L 367.475132 307.306907 
L 368.491711 307.56418 
L 369.508289 307.450726 
L 370.524868 307.507739 
L 372.558025 307.478576 
L 373.574604 307.527706 
L 374.591182 307.385869 
L 375.607761 307.677278 
L 377.640918 307.562104 
L 378.657497 307.296482 
L 379.674075 307.573589 
L 380.690654 307.351211 
L 381.707233 307.657173 
L 382.723811 307.232149 
L 383.74039 307.496418 
L 385.773547 307.632033 
L 386.790126 307.274586 
L 387.806704 307.644491 
L 388.823283 307.440492 
L 389.839862 307.110021 
L 390.85644 307.574924 
L 391.873019 307.629502 
L 392.889597 307.41641 
L 393.906176 307.583073 
L 394.922755 307.436587 
L 395.939333 307.505476 
L 396.955912 307.364323 
L 397.97249 307.397662 
L 398.989069 307.585818 
L 402.038805 307.555576 
L 403.055383 307.304172 
L 404.071962 307.464879 
L 406.105119 307.535812 
L 407.121698 307.396872 
L 408.138277 307.516507 
L 409.154855 307.390252 
L 410.171434 307.582365 
L 419.320641 307.289969 
L 420.33722 307.48252 
L 421.353799 307.418731 
L 422.370377 307.63905 
L 423.386956 307.350706 
L 424.403534 307.714662 
L 426.436692 307.712579 
L 427.45327 307.395253 
L 428.469849 307.454163 
L 429.486427 307.682841 
L 430.503006 307.329579 
L 431.519585 307.553215 
L 432.536163 307.623381 
L 433.552742 307.355646 
L 434.56932 307.621779 
L 436.602478 307.548363 
L 438.635635 307.336914 
L 439.652214 307.657856 
L 441.685371 307.446208 
L 442.701949 307.715539 
L 444.735107 307.509127 
L 446.768264 307.586709 
L 447.784842 307.031589 
L 448.801421 307.616825 
L 449.818 307.282328 
L 450.834578 307.311527 
L 451.851157 307.539081 
L 452.867735 307.280105 
L 454.900893 307.517565 
L 455.917471 307.733896 
L 456.93405 307.638469 
L 458.967207 307.058882 
L 459.983786 307.564072 
L 461.000364 307.645196 
L 462.016943 307.424984 
L 463.033522 307.521421 
L 464.0501 307.265721 
L 467.099836 307.493128 
L 470.149572 307.473384 
L 471.16615 307.747474 
L 472.182729 307.626315 
L 473.199308 307.727203 
L 474.215886 307.560319 
L 476.249044 307.509919 
L 477.265622 307.297324 
L 478.282201 307.574999 
L 479.298779 307.678593 
L 480.315358 307.541294 
L 481.331937 307.263672 
L 482.348515 307.713848 
L 484.381672 307.520438 
L 487.431408 307.61408 
L 488.447987 307.375437 
L 489.464565 307.613531 
L 490.481144 307.335725 
L 491.497723 307.547523 
L 492.514301 307.544855 
L 493.53088 307.8 
L 494.547459 307.482989 
L 495.564037 307.474171 
L 496.580616 307.603103 
L 497.597194 307.224336 
L 498.613773 307.358737 
L 499.630352 307.343547 
L 500.64693 307.538406 
L 501.663509 307.154182 
L 502.680087 307.664561 
L 503.696666 307.414602 
L 504.713245 307.676833 
L 506.746402 307.404858 
L 507.762981 307.600414 
L 510.812716 307.528711 
L 511.829295 307.657839 
L 513.862452 307.457463 
L 515.895609 307.693147 
L 516.912188 307.588245 
L 517.928767 307.700924 
L 518.945345 307.400569 
L 519.961924 307.540627 
L 520.978502 307.278847 
L 521.995081 307.534585 
L 523.01166 307.389889 
L 524.028238 307.617031 
L 526.061396 307.098178 
L 527.077974 307.622902 
L 529.111131 307.569275 
L 530.12771 307.335949 
L 532.160867 307.654093 
L 533.177446 307.400854 
L 534.194024 307.571975 
L 536.227182 307.672293 
L 537.24376 307.427438 
L 539.276917 307.606996 
L 540.293496 307.459977 
L 541.310075 307.749651 
L 542.326653 307.463154 
L 543.343232 307.613588 
L 544.359811 307.575598 
L 545.376389 307.749119 
L 546.392968 307.574578 
L 547.409546 307.223378 
L 548.426125 307.670811 
L 549.442704 307.616765 
L 550.459282 307.253653 
L 551.475861 307.634972 
L 554.525597 307.564017 
L 557.575332 307.670625 
L 558.591911 307.679757 
L 560.625068 307.387462 
L 562.658226 307.704284 
L 563.674804 307.453549 
L 566.72454 307.567801 
L 567.741119 307.524487 
L 568.757697 307.647243 
L 571.807433 307.526033 
L 572.824012 307.208919 
L 573.84059 307.751789 
L 574.857169 307.428344 
L 575.873747 307.344562 
L 576.890326 307.673387 
L 577.906905 307.693144 
L 578.923483 307.549702 
L 580.956641 307.777619 
L 581.973219 307.608035 
L 584.006376 307.575547 
L 585.022955 307.511286 
L 586.039534 307.703084 
L 587.056112 307.523459 
L 588.072691 307.713893 
L 589.089269 307.560922 
L 590.105848 307.239725 
L 591.122427 307.476183 
L 592.139005 307.385471 
L 593.155584 307.630643 
L 594.172163 307.696517 
L 595.188741 307.330586 
L 596.20532 307.73747 
L 597.221898 307.505261 
L 598.238477 307.622627 
L 599.255056 307.521698 
L 600.271634 307.5395 
L 601.288213 306.988692 
L 602.304791 307.634922 
L 603.32137 307.319704 
L 605.354527 307.55024 
L 606.371106 307.572788 
L 607.387684 307.468415 
L 608.404263 307.61134 
L 610.43742 307.432801 
L 611.453999 307.559849 
L 613.487156 307.466964 
L 614.503735 307.3164 
L 615.520313 307.52171 
L 616.536892 307.464745 
L 617.553471 307.191683 
L 618.570049 307.365802 
L 619.586628 307.222409 
L 620.603206 307.556494 
L 621.619785 307.721155 
L 622.636364 307.724042 
L 622.636364 307.724042 
" clip-path="url(#p305d63c055)" style="fill: none; stroke: #1f77b4; stroke-width: 1.5; stroke-linecap: square"/>
   </g>
   <g id="line2d_26">
    <path d="M 115.363636 75.684611 
L 116.380215 75.165298 
L 117.396794 75.388743 
L 119.429951 74.283022 
L 120.446529 74.387515 
L 121.463108 74.998313 
L 122.479687 74.858457 
L 123.496265 74.261707 
L 124.512844 74.075612 
L 125.529422 74.218689 
L 126.546001 74.477813 
L 127.56258 74.192675 
L 128.579158 74.485104 
L 130.612316 74.104969 
L 131.628894 74.121003 
L 132.645473 74.302109 
L 133.662051 73.979064 
L 134.67863 74.183956 
L 135.695209 73.955739 
L 137.728366 74.180129 
L 138.744944 73.79573 
L 139.761523 73.865973 
L 140.778102 73.679684 
L 141.79468 73.330674 
L 142.811259 73.152862 
L 143.827837 73.373328 
L 144.844416 73.411744 
L 145.860995 72.781398 
L 146.877573 73.934157 
L 147.894152 72.739616 
L 148.910731 72.895192 
L 149.927309 72.750249 
L 150.943888 73.274358 
L 151.960466 73.135447 
L 152.977045 72.58496 
L 155.010202 72.421464 
L 156.026781 72.102972 
L 160.093095 71.874441 
L 161.109674 72.290909 
L 162.126253 71.801848 
L 163.142831 71.79354 
L 164.15941 71.973847 
L 165.175988 71.420962 
L 167.209146 71.44436 
L 168.225724 71.710799 
L 172.292039 71.817205 
L 173.308617 71.470229 
L 174.325196 71.998674 
L 177.374932 72.045591 
L 178.39151 71.381287 
L 179.408089 71.268801 
L 180.424668 71.039858 
L 181.441246 72.073931 
L 182.457825 70.926549 
L 184.490982 71.48297 
L 185.507561 71.413841 
L 186.524139 72.110069 
L 187.540718 71.959701 
L 188.557296 71.235182 
L 189.573875 71.244047 
L 190.590454 71.057394 
L 191.607032 71.843873 
L 192.623611 71.653175 
L 193.640189 71.051121 
L 194.656768 71.407858 
L 195.673347 70.956995 
L 196.689925 71.442471 
L 197.706504 70.579064 
L 198.723083 71.138707 
L 200.75624 70.699688 
L 201.772818 70.136001 
L 202.789397 70.559105 
L 203.805976 70.294411 
L 204.822554 71.103173 
L 205.839133 70.977317 
L 206.855711 70.384249 
L 207.87229 71.023145 
L 208.888869 70.213486 
L 209.905447 69.696183 
L 210.922026 70.135855 
L 212.955183 70.301144 
L 213.971762 69.85595 
L 214.98834 69.917933 
L 216.004919 70.530839 
L 217.021498 70.315774 
L 218.038076 69.955234 
L 219.054655 70.294556 
L 220.071233 69.689643 
L 221.087812 70.1267 
L 222.104391 69.589874 
L 223.120969 69.547535 
L 224.137548 70.207164 
L 225.154126 69.306892 
L 226.170705 69.482742 
L 227.187284 70.073654 
L 229.220441 69.941452 
L 230.237019 69.688626 
L 231.253598 68.995692 
L 232.270177 69.666124 
L 233.286755 70.064716 
L 234.303334 69.84442 
L 235.319913 69.192566 
L 236.336491 69.411845 
L 237.35307 68.514067 
L 238.369648 69.213493 
L 239.386227 68.901179 
L 240.402806 69.130146 
L 241.419384 69.154998 
L 242.435963 68.94284 
L 243.452541 69.038564 
L 244.46912 68.186154 
L 245.485699 69.358678 
L 246.502277 68.689457 
L 247.518856 69.332155 
L 248.535435 68.905563 
L 249.552013 69.840109 
L 250.568592 68.210327 
L 251.58517 68.685872 
L 252.601749 68.818946 
L 253.618328 68.705467 
L 254.634906 69.456558 
L 255.651485 69.721471 
L 256.668063 68.538386 
L 257.684642 69.478866 
L 258.701221 68.674076 
L 259.717799 68.285463 
L 260.734378 69.285698 
L 261.750956 68.303096 
L 262.767535 69.241082 
L 264.800692 67.971211 
L 265.817271 67.965736 
L 266.83385 68.472769 
L 267.850428 68.659398 
L 268.867007 68.347228 
L 272.933321 68.089073 
L 273.9499 68.33347 
L 274.966478 68.178548 
L 275.983057 68.487278 
L 276.999636 68.437188 
L 279.032793 67.329529 
L 280.049371 67.505161 
L 281.06595 67.966221 
L 282.082529 67.609629 
L 283.099107 68.561421 
L 285.132265 67.345007 
L 286.148843 67.981093 
L 287.165422 68.059378 
L 288.182 68.000519 
L 289.198579 67.73316 
L 290.215158 67.695422 
L 291.231736 67.994149 
L 292.248315 67.538756 
L 293.264893 68.070132 
L 294.281472 67.945003 
L 295.298051 68.517604 
L 297.331208 67.938124 
L 299.364365 67.786302 
L 302.414101 68.283331 
L 303.43068 67.507777 
L 304.447258 67.494915 
L 305.463837 66.367516 
L 306.480415 67.647778 
L 307.496994 66.885279 
L 309.530151 67.746918 
L 310.54673 66.903906 
L 311.563308 66.925487 
L 312.579887 67.880767 
L 313.596466 67.611349 
L 314.613044 67.980052 
L 315.629623 66.918996 
L 316.646201 66.080804 
L 317.66278 66.681889 
L 318.679359 67.061831 
L 320.712516 67.045554 
L 321.729095 66.545521 
L 322.745673 67.068322 
L 323.762252 66.780811 
L 324.77883 67.342488 
L 325.795409 66.595684 
L 326.811988 67.386184 
L 327.828566 67.082904 
L 328.845145 66.147002 
L 329.861723 66.714298 
L 330.878302 66.078963 
L 331.894881 65.744146 
L 332.911459 66.492476 
L 333.928038 66.508898 
L 334.944617 66.267747 
L 335.961195 66.181106 
L 336.977774 67.335391 
L 339.010931 66.782288 
L 340.02751 66.787496 
L 341.044088 66.367056 
L 343.077245 66.846597 
L 344.093824 67.273626 
L 345.110403 66.962231 
L 346.126981 67.702277 
L 347.14356 67.750648 
L 348.160138 66.974996 
L 349.176717 67.378215 
L 350.193296 67.437703 
L 351.209874 67.656038 
L 352.226453 66.67564 
L 354.25961 67.033564 
L 357.309346 67.078447 
L 358.325925 66.392295 
L 359.342503 67.54394 
L 360.359082 67.136192 
L 361.37566 67.37027 
L 362.392239 66.807479 
L 363.408818 67.177369 
L 364.425396 66.68436 
L 365.441975 67.17204 
L 366.458553 67.036011 
L 367.475132 66.188833 
L 368.491711 66.891359 
L 369.508289 67.278736 
L 370.524868 66.47259 
L 371.541447 67.104946 
L 372.558025 66.772067 
L 373.574604 66.955449 
L 374.591182 66.996384 
L 375.607761 66.569162 
L 376.62434 67.017263 
L 377.640918 66.373911 
L 378.657497 67.206217 
L 379.674075 66.949345 
L 380.690654 66.477168 
L 383.74039 67.027242 
L 384.756968 66.399125 
L 385.773547 67.028454 
L 386.790126 67.329263 
L 387.806704 66.6629 
L 388.823283 66.607456 
L 389.839862 66.424558 
L 390.85644 66.612422 
L 391.873019 66.050672 
L 392.889597 65.984062 
L 393.906176 66.442046 
L 394.922755 66.134527 
L 395.939333 67.045118 
L 396.955912 65.963716 
L 397.97249 67.037367 
L 398.989069 67.421959 
L 400.005648 67.435184 
L 401.022226 66.516843 
L 404.071962 67.210988 
L 405.088541 65.979993 
L 406.105119 66.269491 
L 408.138277 65.978758 
L 409.154855 66.568217 
L 410.171434 66.836957 
L 411.188012 66.064091 
L 412.204591 66.168874 
L 413.22117 65.909169 
L 414.237748 66.34935 
L 415.254327 65.765268 
L 416.270905 65.88967 
L 417.287484 66.239456 
L 418.304063 66.187331 
L 420.33722 65.784524 
L 421.353799 65.947415 
L 423.386956 65.932688 
L 424.403534 64.93691 
L 425.420113 65.944048 
L 426.436692 66.287512 
L 428.469849 65.780503 
L 429.486427 65.173556 
L 431.519585 64.908861 
L 432.536163 64.965007 
L 433.552742 65.591865 
L 434.56932 65.419454 
L 435.585899 64.841282 
L 436.602478 65.042105 
L 437.619056 64.928335 
L 438.635635 66.133849 
L 439.652214 65.542646 
L 440.668792 65.561709 
L 441.685371 64.942021 
L 442.701949 64.863034 
L 443.718528 64.092057 
L 444.735107 64.482244 
L 445.751685 64.049911 
L 446.768264 64.41469 
L 447.784842 64.987242 
L 448.801421 65.739544 
L 449.818 62.546494 
L 450.834578 63.610699 
L 451.851157 63.832957 
L 452.867735 63.341475 
L 455.917471 63.99362 
L 456.93405 63.143148 
L 458.967207 63.567851 
L 459.983786 64.458749 
L 461.000364 64.137497 
L 463.033522 64.106251 
L 464.0501 64.378793 
L 466.083257 63.302744 
L 467.099836 62.488677 
L 468.116415 62.566114 
L 469.132993 63.220076 
L 470.149572 62.316509 
L 471.16615 63.612322 
L 472.182729 63.813895 
L 473.199308 64.278346 
L 474.215886 62.982873 
L 475.232465 62.902335 
L 476.249044 63.10495 
L 477.265622 62.663849 
L 478.282201 62.402521 
L 479.298779 62.745863 
L 480.315358 64.020215 
L 481.331937 62.815379 
L 482.348515 63.505407 
L 483.365094 62.792078 
L 484.381672 62.633281 
L 485.398251 62.618845 
L 486.41483 62.055351 
L 487.431408 62.606758 
L 488.447987 61.799255 
L 489.464565 63.408787 
L 490.481144 62.740777 
L 491.497723 62.214342 
L 492.514301 62.689717 
L 493.53088 61.963139 
L 494.547459 62.418967 
L 495.564037 62.02832 
L 496.580616 63.299838 
L 497.597194 62.671163 
L 499.630352 62.698655 
L 500.64693 62.174861 
L 501.663509 63.071984 
L 502.680087 63.748738 
L 503.696666 62.881771 
L 504.713245 62.36006 
L 505.729823 62.824535 
L 506.746402 62.459756 
L 507.762981 62.416351 
L 508.779559 62.182854 
L 509.796138 62.742908 
L 510.812716 62.373794 
L 511.829295 62.278239 
L 512.845874 62.69243 
L 513.862452 60.763753 
L 514.879031 61.32262 
L 515.895609 61.350015 
L 516.912188 61.941897 
L 517.928767 60.722479 
L 518.945345 60.88692 
L 519.961924 60.781411 
L 520.978502 59.871619 
L 521.995081 61.053735 
L 523.01166 60.415009 
L 524.028238 60.303371 
L 525.044817 61.035666 
L 526.061396 60.540066 
L 527.077974 61.020697 
L 528.094553 60.27152 
L 529.111131 61.052015 
L 530.12771 61.574066 
L 531.144289 59.765359 
L 532.160867 61.260007 
L 533.177446 60.250398 
L 534.194024 61.736206 
L 535.210603 61.528384 
L 537.24376 61.826892 
L 538.260339 60.923471 
L 539.276917 60.887284 
L 540.293496 60.258101 
L 541.310075 60.275855 
L 542.326653 60.131664 
L 543.343232 60.662531 
L 544.359811 60.207332 
L 545.376389 60.150387 
L 546.392968 59.835602 
L 547.409546 60.141546 
L 548.426125 60.59718 
L 549.442704 59.012573 
L 550.459282 59.768459 
L 551.475861 59.29524 
L 552.492439 59.734379 
L 553.509018 58.79821 
L 554.525597 58.457072 
L 555.542175 58.816716 
L 556.558754 59.589025 
L 557.575332 58.803733 
L 558.591911 59.663652 
L 559.60849 59.93697 
L 560.625068 59.595395 
L 561.641647 59.721929 
L 562.658226 58.547589 
L 563.674804 59.057625 
L 564.691383 59.302749 
L 565.707961 58.873879 
L 566.72454 59.444203 
L 567.741119 58.992783 
L 568.757697 58.992759 
L 569.774276 58.67686 
L 570.790854 58.904108 
L 571.807433 58.546741 
L 572.824012 59.172436 
L 573.84059 58.657967 
L 574.857169 59.283904 
L 575.873747 58.647455 
L 576.890326 59.357005 
L 577.906905 59.172533 
L 578.923483 58.655157 
L 579.940062 58.450435 
L 580.956641 58.684635 
L 581.973219 59.043552 
L 582.989798 58.251357 
L 585.022955 58.634278 
L 586.039534 57.346701 
L 587.056112 58.018587 
L 588.072691 58.199377 
L 589.089269 57.714871 
L 590.105848 58.118162 
L 591.122427 57.239181 
L 592.139005 58.128311 
L 593.155584 58.019192 
L 594.172163 57.789425 
L 595.188741 57.875218 
L 596.20532 57.730615 
L 597.221898 57.944541 
L 598.238477 57.319233 
L 599.255056 57.790927 
L 600.271634 57.791968 
L 601.288213 57.483481 
L 602.304791 56.657206 
L 603.32137 57.626074 
L 604.337949 57.197762 
L 605.354527 56.572842 
L 606.371106 57.685708 
L 607.387684 57.657368 
L 608.404263 57.449062 
L 609.420842 56.528177 
L 610.43742 56.576596 
L 611.453999 57.410428 
L 612.470578 55.8 
L 613.487156 56.264645 
L 614.503735 56.586285 
L 615.520313 57.423556 
L 616.536892 56.35768 
L 617.553471 57.155228 
L 618.570049 56.67421 
L 619.586628 56.776764 
L 620.603206 57.272728 
L 621.619785 57.243807 
L 622.636364 56.809294 
L 622.636364 56.809294 
" clip-path="url(#p305d63c055)" style="fill: none; stroke: #ff7f0e; stroke-width: 1.5; stroke-linecap: square"/>
   </g>
   <g id="patch_3">
    <path d="M 90 320.4 
L 90 43.2 
" style="fill: none; stroke: #000000; stroke-width: 0.8; stroke-linejoin: miter; stroke-linecap: square"/>
   </g>
   <g id="patch_4">
    <path d="M 648 320.4 
L 648 43.2 
" style="fill: none; stroke: #000000; stroke-width: 0.8; stroke-linejoin: miter; stroke-linecap: square"/>
   </g>
   <g id="patch_5">
    <path d="M 90 320.4 
L 648 320.4 
" style="fill: none; stroke: #000000; stroke-width: 0.8; stroke-linejoin: miter; stroke-linecap: square"/>
   </g>
   <g id="patch_6">
    <path d="M 90 43.2 
L 648 43.2 
" style="fill: none; stroke: #000000; stroke-width: 0.8; stroke-linejoin: miter; stroke-linecap: square"/>
   </g>
   <g id="text_15">
    <!-- model train and validation loss over time -->
    <g transform="translate(245.555625 37.2) scale(0.12 -0.12)">
     <defs>
      <path id="DejaVuSans-6d" d="M 3328 2828 
Q 3544 3216 3844 3400 
Q 4144 3584 4550 3584 
Q 5097 3584 5394 3201 
Q 5691 2819 5691 2113 
L 5691 0 
L 5113 0 
L 5113 2094 
Q 5113 2597 4934 2840 
Q 4756 3084 4391 3084 
Q 3944 3084 3684 2787 
Q 3425 2491 3425 1978 
L 3425 0 
L 2847 0 
L 2847 2094 
Q 2847 2600 2669 2842 
Q 2491 3084 2119 3084 
Q 1678 3084 1418 2786 
Q 1159 2488 1159 1978 
L 1159 0 
L 581 0 
L 581 3500 
L 1159 3500 
L 1159 2956 
Q 1356 3278 1631 3431 
Q 1906 3584 2284 3584 
Q 2666 3584 2933 3390 
Q 3200 3197 3328 2828 
z
" transform="scale(0.015625)"/>
      <path id="DejaVuSans-64" d="M 2906 2969 
L 2906 4863 
L 3481 4863 
L 3481 0 
L 2906 0 
L 2906 525 
Q 2725 213 2448 61 
Q 2172 -91 1784 -91 
Q 1150 -91 751 415 
Q 353 922 353 1747 
Q 353 2572 751 3078 
Q 1150 3584 1784 3584 
Q 2172 3584 2448 3432 
Q 2725 3281 2906 2969 
z
M 947 1747 
Q 947 1113 1208 752 
Q 1469 391 1925 391 
Q 2381 391 2643 752 
Q 2906 1113 2906 1747 
Q 2906 2381 2643 2742 
Q 2381 3103 1925 3103 
Q 1469 3103 1208 2742 
Q 947 2381 947 1747 
z
" transform="scale(0.015625)"/>
      <path id="DejaVuSans-20" transform="scale(0.015625)"/>
      <path id="DejaVuSans-74" d="M 1172 4494 
L 1172 3500 
L 2356 3500 
L 2356 3053 
L 1172 3053 
L 1172 1153 
Q 1172 725 1289 603 
Q 1406 481 1766 481 
L 2356 481 
L 2356 0 
L 1766 0 
Q 1100 0 847 248 
Q 594 497 594 1153 
L 594 3053 
L 172 3053 
L 172 3500 
L 594 3500 
L 594 4494 
L 1172 4494 
z
" transform="scale(0.015625)"/>
      <path id="DejaVuSans-72" d="M 2631 2963 
Q 2534 3019 2420 3045 
Q 2306 3072 2169 3072 
Q 1681 3072 1420 2755 
Q 1159 2438 1159 1844 
L 1159 0 
L 581 0 
L 581 3500 
L 1159 3500 
L 1159 2956 
Q 1341 3275 1631 3429 
Q 1922 3584 2338 3584 
Q 2397 3584 2469 3576 
Q 2541 3569 2628 3553 
L 2631 2963 
z
" transform="scale(0.015625)"/>
      <path id="DejaVuSans-61" d="M 2194 1759 
Q 1497 1759 1228 1600 
Q 959 1441 959 1056 
Q 959 750 1161 570 
Q 1363 391 1709 391 
Q 2188 391 2477 730 
Q 2766 1069 2766 1631 
L 2766 1759 
L 2194 1759 
z
M 3341 1997 
L 3341 0 
L 2766 0 
L 2766 531 
Q 2569 213 2275 61 
Q 1981 -91 1556 -91 
Q 1019 -91 701 211 
Q 384 513 384 1019 
Q 384 1609 779 1909 
Q 1175 2209 1959 2209 
L 2766 2209 
L 2766 2266 
Q 2766 2663 2505 2880 
Q 2244 3097 1772 3097 
Q 1472 3097 1187 3025 
Q 903 2953 641 2809 
L 641 3341 
Q 956 3463 1253 3523 
Q 1550 3584 1831 3584 
Q 2591 3584 2966 3190 
Q 3341 2797 3341 1997 
z
" transform="scale(0.015625)"/>
      <path id="DejaVuSans-69" d="M 603 3500 
L 1178 3500 
L 1178 0 
L 603 0 
L 603 3500 
z
M 603 4863 
L 1178 4863 
L 1178 4134 
L 603 4134 
L 603 4863 
z
" transform="scale(0.015625)"/>
      <path id="DejaVuSans-6e" d="M 3513 2113 
L 3513 0 
L 2938 0 
L 2938 2094 
Q 2938 2591 2744 2837 
Q 2550 3084 2163 3084 
Q 1697 3084 1428 2787 
Q 1159 2491 1159 1978 
L 1159 0 
L 581 0 
L 581 3500 
L 1159 3500 
L 1159 2956 
Q 1366 3272 1645 3428 
Q 1925 3584 2291 3584 
Q 2894 3584 3203 3211 
Q 3513 2838 3513 2113 
z
" transform="scale(0.015625)"/>
      <path id="DejaVuSans-76" d="M 191 3500 
L 800 3500 
L 1894 563 
L 2988 3500 
L 3597 3500 
L 2284 0 
L 1503 0 
L 191 3500 
z
" transform="scale(0.015625)"/>
     </defs>
     <use xlink:href="#DejaVuSans-6d"/>
     <use xlink:href="#DejaVuSans-6f" x="97.412109"/>
     <use xlink:href="#DejaVuSans-64" x="158.59375"/>
     <use xlink:href="#DejaVuSans-65" x="222.070312"/>
     <use xlink:href="#DejaVuSans-6c" x="283.59375"/>
     <use xlink:href="#DejaVuSans-20" x="311.376953"/>
     <use xlink:href="#DejaVuSans-74" x="343.164062"/>
     <use xlink:href="#DejaVuSans-72" x="382.373047"/>
     <use xlink:href="#DejaVuSans-61" x="423.486328"/>
     <use xlink:href="#DejaVuSans-69" x="484.765625"/>
     <use xlink:href="#DejaVuSans-6e" x="512.548828"/>
     <use xlink:href="#DejaVuSans-20" x="575.927734"/>
     <use xlink:href="#DejaVuSans-61" x="607.714844"/>
     <use xlink:href="#DejaVuSans-6e" x="668.994141"/>
     <use xlink:href="#DejaVuSans-64" x="732.373047"/>
     <use xlink:href="#DejaVuSans-20" x="795.849609"/>
     <use xlink:href="#DejaVuSans-76" x="827.636719"/>
     <use xlink:href="#DejaVuSans-61" x="886.816406"/>
     <use xlink:href="#DejaVuSans-6c" x="948.095703"/>
     <use xlink:href="#DejaVuSans-69" x="975.878906"/>
     <use xlink:href="#DejaVuSans-64" x="1003.662109"/>
     <use xlink:href="#DejaVuSans-61" x="1067.138672"/>
     <use xlink:href="#DejaVuSans-74" x="1128.417969"/>
     <use xlink:href="#DejaVuSans-69" x="1167.626953"/>
     <use xlink:href="#DejaVuSans-6f" x="1195.410156"/>
     <use xlink:href="#DejaVuSans-6e" x="1256.591797"/>
     <use xlink:href="#DejaVuSans-20" x="1319.970703"/>
     <use xlink:href="#DejaVuSans-6c" x="1351.757812"/>
     <use xlink:href="#DejaVuSans-6f" x="1379.541016"/>
     <use xlink:href="#DejaVuSans-73" x="1440.722656"/>
     <use xlink:href="#DejaVuSans-73" x="1492.822266"/>
     <use xlink:href="#DejaVuSans-20" x="1544.921875"/>
     <use xlink:href="#DejaVuSans-6f" x="1576.708984"/>
     <use xlink:href="#DejaVuSans-76" x="1637.890625"/>
     <use xlink:href="#DejaVuSans-65" x="1697.070312"/>
     <use xlink:href="#DejaVuSans-72" x="1758.59375"/>
     <use xlink:href="#DejaVuSans-20" x="1799.707031"/>
     <use xlink:href="#DejaVuSans-74" x="1831.494141"/>
     <use xlink:href="#DejaVuSans-69" x="1870.703125"/>
     <use xlink:href="#DejaVuSans-6d" x="1898.486328"/>
     <use xlink:href="#DejaVuSans-65" x="1995.898438"/>
    </g>
   </g>
   <g id="legend_1">
    <g id="patch_7">
     <path d="M 559.765625 197.978125 
L 641 197.978125 
Q 643 197.978125 643 195.978125 
L 643 167.621875 
Q 643 165.621875 641 165.621875 
L 559.765625 165.621875 
Q 557.765625 165.621875 557.765625 167.621875 
L 557.765625 195.978125 
Q 557.765625 197.978125 559.765625 197.978125 
z
" style="fill: #ffffff; opacity: 0.8; stroke: #cccccc; stroke-linejoin: miter"/>
    </g>
    <g id="line2d_27">
     <path d="M 561.765625 173.720312 
L 571.765625 173.720312 
L 581.765625 173.720312 
" style="fill: none; stroke: #1f77b4; stroke-width: 1.5; stroke-linecap: square"/>
    </g>
    <g id="text_16">
     <!-- train -->
     <g transform="translate(589.765625 177.220312) scale(0.1 -0.1)">
      <use xlink:href="#DejaVuSans-74"/>
      <use xlink:href="#DejaVuSans-72" x="39.208984"/>
      <use xlink:href="#DejaVuSans-61" x="80.322266"/>
      <use xlink:href="#DejaVuSans-69" x="141.601562"/>
      <use xlink:href="#DejaVuSans-6e" x="169.384766"/>
     </g>
    </g>
    <g id="line2d_28">
     <path d="M 561.765625 188.398437 
L 571.765625 188.398437 
L 581.765625 188.398437 
" style="fill: none; stroke: #ff7f0e; stroke-width: 1.5; stroke-linecap: square"/>
    </g>
    <g id="text_17">
     <!-- validation -->
     <g transform="translate(589.765625 191.898437) scale(0.1 -0.1)">
      <use xlink:href="#DejaVuSans-76"/>
      <use xlink:href="#DejaVuSans-61" x="59.179688"/>
      <use xlink:href="#DejaVuSans-6c" x="120.458984"/>
      <use xlink:href="#DejaVuSans-69" x="148.242188"/>
      <use xlink:href="#DejaVuSans-64" x="176.025391"/>
      <use xlink:href="#DejaVuSans-61" x="239.501953"/>
      <use xlink:href="#DejaVuSans-74" x="300.78125"/>
      <use xlink:href="#DejaVuSans-69" x="339.990234"/>
      <use xlink:href="#DejaVuSans-6f" x="367.773438"/>
      <use xlink:href="#DejaVuSans-6e" x="428.955078"/>
     </g>
    </g>
   </g>
  </g>
 </g>
 <defs>
  <clipPath id="p305d63c055">
   <rect x="90" y="43.2" width="558" height="277.2"/>
  </clipPath>
 </defs>
</svg>
