<?xml version="1.0" encoding="utf-8" standalone="no"?>
<!DOCTYPE svg PUBLIC "-//W3C//DTD SVG 1.1//EN"
  "http://www.w3.org/Graphics/SVG/1.1/DTD/svg11.dtd">
<svg xmlns:xlink="http://www.w3.org/1999/xlink" width="720pt" height="360pt" viewBox="0 0 720 360" xmlns="http://www.w3.org/2000/svg" version="1.1">
 <metadata>
  <rdf:RDF xmlns:dc="http://purl.org/dc/elements/1.1/" xmlns:cc="http://creativecommons.org/ns#" xmlns:rdf="http://www.w3.org/1999/02/22-rdf-syntax-ns#">
   <cc:Work>
    <dc:type rdf:resource="http://purl.org/dc/dcmitype/StillImage"/>
    <dc:date>2023-05-24T11:01:35.137583</dc:date>
    <dc:format>image/svg+xml</dc:format>
    <dc:creator>
     <cc:Agent>
      <dc:title>Matplotlib v3.7.1, https://matplotlib.org/</dc:title>
     </cc:Agent>
    </dc:creator>
   </cc:Work>
  </rdf:RDF>
 </metadata>
 <defs>
  <style type="text/css">*{stroke-linejoin: round; stroke-linecap: butt}</style>
 </defs>
 <g id="figure_1">
  <g id="patch_1">
   <path d="M 0 360 
L 720 360 
L 720 0 
L 0 0 
z
" style="fill: #ffffff"/>
  </g>
  <g id="axes_1">
   <g id="patch_2">
    <path d="M 90 320.4 
L 648 320.4 
L 648 43.2 
L 90 43.2 
z
" style="fill: #ffffff"/>
   </g>
   <g id="matplotlib.axis_1">
    <g id="xtick_1">
     <g id="line2d_1">
      <path d="M 115.363636 320.4 
L 115.363636 43.2 
" clip-path="url(#p0f19cb4e7f)" style="fill: none; stroke: #b0b0b0; stroke-width: 0.8; stroke-linecap: square"/>
     </g>
     <g id="line2d_2">
      <defs>
       <path id="mb18631b9c3" d="M 0 0 
L 0 3.5 
" style="stroke: #000000; stroke-width: 0.8"/>
      </defs>
      <g>
       <use xlink:href="#mb18631b9c3" x="115.363636" y="320.4" style="stroke: #000000; stroke-width: 0.8"/>
      </g>
     </g>
     <g id="text_1">
      <!-- 0 -->
      <g transform="translate(112.182386 334.998438) scale(0.1 -0.1)">
       <defs>
        <path id="DejaVuSans-30" d="M 2034 4250 
Q 1547 4250 1301 3770 
Q 1056 3291 1056 2328 
Q 1056 1369 1301 889 
Q 1547 409 2034 409 
Q 2525 409 2770 889 
Q 3016 1369 3016 2328 
Q 3016 3291 2770 3770 
Q 2525 4250 2034 4250 
z
M 2034 4750 
Q 2819 4750 3233 4129 
Q 3647 3509 3647 2328 
Q 3647 1150 3233 529 
Q 2819 -91 2034 -91 
Q 1250 -91 836 529 
Q 422 1150 422 2328 
Q 422 3509 836 4129 
Q 1250 4750 2034 4750 
z
" transform="scale(0.015625)"/>
       </defs>
       <use xlink:href="#DejaVuSans-30"/>
      </g>
     </g>
    </g>
    <g id="xtick_2">
     <g id="line2d_3">
      <path d="M 217.021498 320.4 
L 217.021498 43.2 
" clip-path="url(#p0f19cb4e7f)" style="fill: none; stroke: #b0b0b0; stroke-width: 0.8; stroke-linecap: square"/>
     </g>
     <g id="line2d_4">
      <g>
       <use xlink:href="#mb18631b9c3" x="217.021498" y="320.4" style="stroke: #000000; stroke-width: 0.8"/>
      </g>
     </g>
     <g id="text_2">
      <!-- 100 -->
      <g transform="translate(207.477748 334.998438) scale(0.1 -0.1)">
       <defs>
        <path id="DejaVuSans-31" d="M 794 531 
L 1825 531 
L 1825 4091 
L 703 3866 
L 703 4441 
L 1819 4666 
L 2450 4666 
L 2450 531 
L 3481 531 
L 3481 0 
L 794 0 
L 794 531 
z
" transform="scale(0.015625)"/>
       </defs>
       <use xlink:href="#DejaVuSans-31"/>
       <use xlink:href="#DejaVuSans-30" x="63.623047"/>
       <use xlink:href="#DejaVuSans-30" x="127.246094"/>
      </g>
     </g>
    </g>
    <g id="xtick_3">
     <g id="line2d_5">
      <path d="M 318.679359 320.4 
L 318.679359 43.2 
" clip-path="url(#p0f19cb4e7f)" style="fill: none; stroke: #b0b0b0; stroke-width: 0.8; stroke-linecap: square"/>
     </g>
     <g id="line2d_6">
      <g>
       <use xlink:href="#mb18631b9c3" x="318.679359" y="320.4" style="stroke: #000000; stroke-width: 0.8"/>
      </g>
     </g>
     <g id="text_3">
      <!-- 200 -->
      <g transform="translate(309.135609 334.998438) scale(0.1 -0.1)">
       <defs>
        <path id="DejaVuSans-32" d="M 1228 531 
L 3431 531 
L 3431 0 
L 469 0 
L 469 531 
Q 828 903 1448 1529 
Q 2069 2156 2228 2338 
Q 2531 2678 2651 2914 
Q 2772 3150 2772 3378 
Q 2772 3750 2511 3984 
Q 2250 4219 1831 4219 
Q 1534 4219 1204 4116 
Q 875 4013 500 3803 
L 500 4441 
Q 881 4594 1212 4672 
Q 1544 4750 1819 4750 
Q 2544 4750 2975 4387 
Q 3406 4025 3406 3419 
Q 3406 3131 3298 2873 
Q 3191 2616 2906 2266 
Q 2828 2175 2409 1742 
Q 1991 1309 1228 531 
z
" transform="scale(0.015625)"/>
       </defs>
       <use xlink:href="#DejaVuSans-32"/>
       <use xlink:href="#DejaVuSans-30" x="63.623047"/>
       <use xlink:href="#DejaVuSans-30" x="127.246094"/>
      </g>
     </g>
    </g>
    <g id="xtick_4">
     <g id="line2d_7">
      <path d="M 420.33722 320.4 
L 420.33722 43.2 
" clip-path="url(#p0f19cb4e7f)" style="fill: none; stroke: #b0b0b0; stroke-width: 0.8; stroke-linecap: square"/>
     </g>
     <g id="line2d_8">
      <g>
       <use xlink:href="#mb18631b9c3" x="420.33722" y="320.4" style="stroke: #000000; stroke-width: 0.8"/>
      </g>
     </g>
     <g id="text_4">
      <!-- 300 -->
      <g transform="translate(410.79347 334.998438) scale(0.1 -0.1)">
       <defs>
        <path id="DejaVuSans-33" d="M 2597 2516 
Q 3050 2419 3304 2112 
Q 3559 1806 3559 1356 
Q 3559 666 3084 287 
Q 2609 -91 1734 -91 
Q 1441 -91 1130 -33 
Q 819 25 488 141 
L 488 750 
Q 750 597 1062 519 
Q 1375 441 1716 441 
Q 2309 441 2620 675 
Q 2931 909 2931 1356 
Q 2931 1769 2642 2001 
Q 2353 2234 1838 2234 
L 1294 2234 
L 1294 2753 
L 1863 2753 
Q 2328 2753 2575 2939 
Q 2822 3125 2822 3475 
Q 2822 3834 2567 4026 
Q 2313 4219 1838 4219 
Q 1578 4219 1281 4162 
Q 984 4106 628 3988 
L 628 4550 
Q 988 4650 1302 4700 
Q 1616 4750 1894 4750 
Q 2613 4750 3031 4423 
Q 3450 4097 3450 3541 
Q 3450 3153 3228 2886 
Q 3006 2619 2597 2516 
z
" transform="scale(0.015625)"/>
       </defs>
       <use xlink:href="#DejaVuSans-33"/>
       <use xlink:href="#DejaVuSans-30" x="63.623047"/>
       <use xlink:href="#DejaVuSans-30" x="127.246094"/>
      </g>
     </g>
    </g>
    <g id="xtick_5">
     <g id="line2d_9">
      <path d="M 521.995081 320.4 
L 521.995081 43.2 
" clip-path="url(#p0f19cb4e7f)" style="fill: none; stroke: #b0b0b0; stroke-width: 0.8; stroke-linecap: square"/>
     </g>
     <g id="line2d_10">
      <g>
       <use xlink:href="#mb18631b9c3" x="521.995081" y="320.4" style="stroke: #000000; stroke-width: 0.8"/>
      </g>
     </g>
     <g id="text_5">
      <!-- 400 -->
      <g transform="translate(512.451331 334.998438) scale(0.1 -0.1)">
       <defs>
        <path id="DejaVuSans-34" d="M 2419 4116 
L 825 1625 
L 2419 1625 
L 2419 4116 
z
M 2253 4666 
L 3047 4666 
L 3047 1625 
L 3713 1625 
L 3713 1100 
L 3047 1100 
L 3047 0 
L 2419 0 
L 2419 1100 
L 313 1100 
L 313 1709 
L 2253 4666 
z
" transform="scale(0.015625)"/>
       </defs>
       <use xlink:href="#DejaVuSans-34"/>
       <use xlink:href="#DejaVuSans-30" x="63.623047"/>
       <use xlink:href="#DejaVuSans-30" x="127.246094"/>
      </g>
     </g>
    </g>
    <g id="xtick_6">
     <g id="line2d_11">
      <path d="M 623.652942 320.4 
L 623.652942 43.2 
" clip-path="url(#p0f19cb4e7f)" style="fill: none; stroke: #b0b0b0; stroke-width: 0.8; stroke-linecap: square"/>
     </g>
     <g id="line2d_12">
      <g>
       <use xlink:href="#mb18631b9c3" x="623.652942" y="320.4" style="stroke: #000000; stroke-width: 0.8"/>
      </g>
     </g>
     <g id="text_6">
      <!-- 500 -->
      <g transform="translate(614.109192 334.998438) scale(0.1 -0.1)">
       <defs>
        <path id="DejaVuSans-35" d="M 691 4666 
L 3169 4666 
L 3169 4134 
L 1269 4134 
L 1269 2991 
Q 1406 3038 1543 3061 
Q 1681 3084 1819 3084 
Q 2600 3084 3056 2656 
Q 3513 2228 3513 1497 
Q 3513 744 3044 326 
Q 2575 -91 1722 -91 
Q 1428 -91 1123 -41 
Q 819 9 494 109 
L 494 744 
Q 775 591 1075 516 
Q 1375 441 1709 441 
Q 2250 441 2565 725 
Q 2881 1009 2881 1497 
Q 2881 1984 2565 2268 
Q 2250 2553 1709 2553 
Q 1456 2553 1204 2497 
Q 953 2441 691 2322 
L 691 4666 
z
" transform="scale(0.015625)"/>
       </defs>
       <use xlink:href="#DejaVuSans-35"/>
       <use xlink:href="#DejaVuSans-30" x="63.623047"/>
       <use xlink:href="#DejaVuSans-30" x="127.246094"/>
      </g>
     </g>
    </g>
    <g id="text_7">
     <!-- epoch -->
     <g transform="translate(353.771875 348.676562) scale(0.1 -0.1)">
      <defs>
       <path id="DejaVuSans-65" d="M 3597 1894 
L 3597 1613 
L 953 1613 
Q 991 1019 1311 708 
Q 1631 397 2203 397 
Q 2534 397 2845 478 
Q 3156 559 3463 722 
L 3463 178 
Q 3153 47 2828 -22 
Q 2503 -91 2169 -91 
Q 1331 -91 842 396 
Q 353 884 353 1716 
Q 353 2575 817 3079 
Q 1281 3584 2069 3584 
Q 2775 3584 3186 3129 
Q 3597 2675 3597 1894 
z
M 3022 2063 
Q 3016 2534 2758 2815 
Q 2500 3097 2075 3097 
Q 1594 3097 1305 2825 
Q 1016 2553 972 2059 
L 3022 2063 
z
" transform="scale(0.015625)"/>
       <path id="DejaVuSans-70" d="M 1159 525 
L 1159 -1331 
L 581 -1331 
L 581 3500 
L 1159 3500 
L 1159 2969 
Q 1341 3281 1617 3432 
Q 1894 3584 2278 3584 
Q 2916 3584 3314 3078 
Q 3713 2572 3713 1747 
Q 3713 922 3314 415 
Q 2916 -91 2278 -91 
Q 1894 -91 1617 61 
Q 1341 213 1159 525 
z
M 3116 1747 
Q 3116 2381 2855 2742 
Q 2594 3103 2138 3103 
Q 1681 3103 1420 2742 
Q 1159 2381 1159 1747 
Q 1159 1113 1420 752 
Q 1681 391 2138 391 
Q 2594 391 2855 752 
Q 3116 1113 3116 1747 
z
" transform="scale(0.015625)"/>
       <path id="DejaVuSans-6f" d="M 1959 3097 
Q 1497 3097 1228 2736 
Q 959 2375 959 1747 
Q 959 1119 1226 758 
Q 1494 397 1959 397 
Q 2419 397 2687 759 
Q 2956 1122 2956 1747 
Q 2956 2369 2687 2733 
Q 2419 3097 1959 3097 
z
M 1959 3584 
Q 2709 3584 3137 3096 
Q 3566 2609 3566 1747 
Q 3566 888 3137 398 
Q 2709 -91 1959 -91 
Q 1206 -91 779 398 
Q 353 888 353 1747 
Q 353 2609 779 3096 
Q 1206 3584 1959 3584 
z
" transform="scale(0.015625)"/>
       <path id="DejaVuSans-63" d="M 3122 3366 
L 3122 2828 
Q 2878 2963 2633 3030 
Q 2388 3097 2138 3097 
Q 1578 3097 1268 2742 
Q 959 2388 959 1747 
Q 959 1106 1268 751 
Q 1578 397 2138 397 
Q 2388 397 2633 464 
Q 2878 531 3122 666 
L 3122 134 
Q 2881 22 2623 -34 
Q 2366 -91 2075 -91 
Q 1284 -91 818 406 
Q 353 903 353 1747 
Q 353 2603 823 3093 
Q 1294 3584 2113 3584 
Q 2378 3584 2631 3529 
Q 2884 3475 3122 3366 
z
" transform="scale(0.015625)"/>
       <path id="DejaVuSans-68" d="M 3513 2113 
L 3513 0 
L 2938 0 
L 2938 2094 
Q 2938 2591 2744 2837 
Q 2550 3084 2163 3084 
Q 1697 3084 1428 2787 
Q 1159 2491 1159 1978 
L 1159 0 
L 581 0 
L 581 4863 
L 1159 4863 
L 1159 2956 
Q 1366 3272 1645 3428 
Q 1925 3584 2291 3584 
Q 2894 3584 3203 3211 
Q 3513 2838 3513 2113 
z
" transform="scale(0.015625)"/>
      </defs>
      <use xlink:href="#DejaVuSans-65"/>
      <use xlink:href="#DejaVuSans-70" x="61.523438"/>
      <use xlink:href="#DejaVuSans-6f" x="125"/>
      <use xlink:href="#DejaVuSans-63" x="186.181641"/>
      <use xlink:href="#DejaVuSans-68" x="241.162109"/>
     </g>
    </g>
   </g>
   <g id="matplotlib.axis_2">
    <g id="ytick_1">
     <g id="line2d_13">
      <path d="M 90 299.065883 
L 648 299.065883 
" clip-path="url(#p0f19cb4e7f)" style="fill: none; stroke: #b0b0b0; stroke-width: 0.8; stroke-linecap: square"/>
     </g>
     <g id="line2d_14">
      <defs>
       <path id="m89f0625c7e" d="M 0 0 
L -3.5 0 
" style="stroke: #000000; stroke-width: 0.8"/>
      </defs>
      <g>
       <use xlink:href="#m89f0625c7e" x="90" y="299.065883" style="stroke: #000000; stroke-width: 0.8"/>
      </g>
     </g>
     <g id="text_8">
      <!-- 0.4 -->
      <g transform="translate(67.096875 302.865102) scale(0.1 -0.1)">
       <defs>
        <path id="DejaVuSans-2e" d="M 684 794 
L 1344 794 
L 1344 0 
L 684 0 
L 684 794 
z
" transform="scale(0.015625)"/>
       </defs>
       <use xlink:href="#DejaVuSans-30"/>
       <use xlink:href="#DejaVuSans-2e" x="63.623047"/>
       <use xlink:href="#DejaVuSans-34" x="95.410156"/>
      </g>
     </g>
    </g>
    <g id="ytick_2">
     <g id="line2d_15">
      <path d="M 90 255.052895 
L 648 255.052895 
" clip-path="url(#p0f19cb4e7f)" style="fill: none; stroke: #b0b0b0; stroke-width: 0.8; stroke-linecap: square"/>
     </g>
     <g id="line2d_16">
      <g>
       <use xlink:href="#m89f0625c7e" x="90" y="255.052895" style="stroke: #000000; stroke-width: 0.8"/>
      </g>
     </g>
     <g id="text_9">
      <!-- 0.5 -->
      <g transform="translate(67.096875 258.852113) scale(0.1 -0.1)">
       <use xlink:href="#DejaVuSans-30"/>
       <use xlink:href="#DejaVuSans-2e" x="63.623047"/>
       <use xlink:href="#DejaVuSans-35" x="95.410156"/>
      </g>
     </g>
    </g>
    <g id="ytick_3">
     <g id="line2d_17">
      <path d="M 90 211.039906 
L 648 211.039906 
" clip-path="url(#p0f19cb4e7f)" style="fill: none; stroke: #b0b0b0; stroke-width: 0.8; stroke-linecap: square"/>
     </g>
     <g id="line2d_18">
      <g>
       <use xlink:href="#m89f0625c7e" x="90" y="211.039906" style="stroke: #000000; stroke-width: 0.8"/>
      </g>
     </g>
     <g id="text_10">
      <!-- 0.6 -->
      <g transform="translate(67.096875 214.839125) scale(0.1 -0.1)">
       <defs>
        <path id="DejaVuSans-36" d="M 2113 2584 
Q 1688 2584 1439 2293 
Q 1191 2003 1191 1497 
Q 1191 994 1439 701 
Q 1688 409 2113 409 
Q 2538 409 2786 701 
Q 3034 994 3034 1497 
Q 3034 2003 2786 2293 
Q 2538 2584 2113 2584 
z
M 3366 4563 
L 3366 3988 
Q 3128 4100 2886 4159 
Q 2644 4219 2406 4219 
Q 1781 4219 1451 3797 
Q 1122 3375 1075 2522 
Q 1259 2794 1537 2939 
Q 1816 3084 2150 3084 
Q 2853 3084 3261 2657 
Q 3669 2231 3669 1497 
Q 3669 778 3244 343 
Q 2819 -91 2113 -91 
Q 1303 -91 875 529 
Q 447 1150 447 2328 
Q 447 3434 972 4092 
Q 1497 4750 2381 4750 
Q 2619 4750 2861 4703 
Q 3103 4656 3366 4563 
z
" transform="scale(0.015625)"/>
       </defs>
       <use xlink:href="#DejaVuSans-30"/>
       <use xlink:href="#DejaVuSans-2e" x="63.623047"/>
       <use xlink:href="#DejaVuSans-36" x="95.410156"/>
      </g>
     </g>
    </g>
    <g id="ytick_4">
     <g id="line2d_19">
      <path d="M 90 167.026917 
L 648 167.026917 
" clip-path="url(#p0f19cb4e7f)" style="fill: none; stroke: #b0b0b0; stroke-width: 0.8; stroke-linecap: square"/>
     </g>
     <g id="line2d_20">
      <g>
       <use xlink:href="#m89f0625c7e" x="90" y="167.026917" style="stroke: #000000; stroke-width: 0.8"/>
      </g>
     </g>
     <g id="text_11">
      <!-- 0.7 -->
      <g transform="translate(67.096875 170.826136) scale(0.1 -0.1)">
       <defs>
        <path id="DejaVuSans-37" d="M 525 4666 
L 3525 4666 
L 3525 4397 
L 1831 0 
L 1172 0 
L 2766 4134 
L 525 4134 
L 525 4666 
z
" transform="scale(0.015625)"/>
       </defs>
       <use xlink:href="#DejaVuSans-30"/>
       <use xlink:href="#DejaVuSans-2e" x="63.623047"/>
       <use xlink:href="#DejaVuSans-37" x="95.410156"/>
      </g>
     </g>
    </g>
    <g id="ytick_5">
     <g id="line2d_21">
      <path d="M 90 123.013928 
L 648 123.013928 
" clip-path="url(#p0f19cb4e7f)" style="fill: none; stroke: #b0b0b0; stroke-width: 0.8; stroke-linecap: square"/>
     </g>
     <g id="line2d_22">
      <g>
       <use xlink:href="#m89f0625c7e" x="90" y="123.013928" style="stroke: #000000; stroke-width: 0.8"/>
      </g>
     </g>
     <g id="text_12">
      <!-- 0.8 -->
      <g transform="translate(67.096875 126.813147) scale(0.1 -0.1)">
       <defs>
        <path id="DejaVuSans-38" d="M 2034 2216 
Q 1584 2216 1326 1975 
Q 1069 1734 1069 1313 
Q 1069 891 1326 650 
Q 1584 409 2034 409 
Q 2484 409 2743 651 
Q 3003 894 3003 1313 
Q 3003 1734 2745 1975 
Q 2488 2216 2034 2216 
z
M 1403 2484 
Q 997 2584 770 2862 
Q 544 3141 544 3541 
Q 544 4100 942 4425 
Q 1341 4750 2034 4750 
Q 2731 4750 3128 4425 
Q 3525 4100 3525 3541 
Q 3525 3141 3298 2862 
Q 3072 2584 2669 2484 
Q 3125 2378 3379 2068 
Q 3634 1759 3634 1313 
Q 3634 634 3220 271 
Q 2806 -91 2034 -91 
Q 1263 -91 848 271 
Q 434 634 434 1313 
Q 434 1759 690 2068 
Q 947 2378 1403 2484 
z
M 1172 3481 
Q 1172 3119 1398 2916 
Q 1625 2713 2034 2713 
Q 2441 2713 2670 2916 
Q 2900 3119 2900 3481 
Q 2900 3844 2670 4047 
Q 2441 4250 2034 4250 
Q 1625 4250 1398 4047 
Q 1172 3844 1172 3481 
z
" transform="scale(0.015625)"/>
       </defs>
       <use xlink:href="#DejaVuSans-30"/>
       <use xlink:href="#DejaVuSans-2e" x="63.623047"/>
       <use xlink:href="#DejaVuSans-38" x="95.410156"/>
      </g>
     </g>
    </g>
    <g id="ytick_6">
     <g id="line2d_23">
      <path d="M 90 79.00094 
L 648 79.00094 
" clip-path="url(#p0f19cb4e7f)" style="fill: none; stroke: #b0b0b0; stroke-width: 0.8; stroke-linecap: square"/>
     </g>
     <g id="line2d_24">
      <g>
       <use xlink:href="#m89f0625c7e" x="90" y="79.00094" style="stroke: #000000; stroke-width: 0.8"/>
      </g>
     </g>
     <g id="text_13">
      <!-- 0.9 -->
      <g transform="translate(67.096875 82.800158) scale(0.1 -0.1)">
       <defs>
        <path id="DejaVuSans-39" d="M 703 97 
L 703 672 
Q 941 559 1184 500 
Q 1428 441 1663 441 
Q 2288 441 2617 861 
Q 2947 1281 2994 2138 
Q 2813 1869 2534 1725 
Q 2256 1581 1919 1581 
Q 1219 1581 811 2004 
Q 403 2428 403 3163 
Q 403 3881 828 4315 
Q 1253 4750 1959 4750 
Q 2769 4750 3195 4129 
Q 3622 3509 3622 2328 
Q 3622 1225 3098 567 
Q 2575 -91 1691 -91 
Q 1453 -91 1209 -44 
Q 966 3 703 97 
z
M 1959 2075 
Q 2384 2075 2632 2365 
Q 2881 2656 2881 3163 
Q 2881 3666 2632 3958 
Q 2384 4250 1959 4250 
Q 1534 4250 1286 3958 
Q 1038 3666 1038 3163 
Q 1038 2656 1286 2365 
Q 1534 2075 1959 2075 
z
" transform="scale(0.015625)"/>
       </defs>
       <use xlink:href="#DejaVuSans-30"/>
       <use xlink:href="#DejaVuSans-2e" x="63.623047"/>
       <use xlink:href="#DejaVuSans-39" x="95.410156"/>
      </g>
     </g>
    </g>
    <g id="text_14">
     <!-- accruacy -->
     <g transform="translate(61.017187 204.359375) rotate(-90) scale(0.1 -0.1)">
      <defs>
       <path id="DejaVuSans-61" d="M 2194 1759 
Q 1497 1759 1228 1600 
Q 959 1441 959 1056 
Q 959 750 1161 570 
Q 1363 391 1709 391 
Q 2188 391 2477 730 
Q 2766 1069 2766 1631 
L 2766 1759 
L 2194 1759 
z
M 3341 1997 
L 3341 0 
L 2766 0 
L 2766 531 
Q 2569 213 2275 61 
Q 1981 -91 1556 -91 
Q 1019 -91 701 211 
Q 384 513 384 1019 
Q 384 1609 779 1909 
Q 1175 2209 1959 2209 
L 2766 2209 
L 2766 2266 
Q 2766 2663 2505 2880 
Q 2244 3097 1772 3097 
Q 1472 3097 1187 3025 
Q 903 2953 641 2809 
L 641 3341 
Q 956 3463 1253 3523 
Q 1550 3584 1831 3584 
Q 2591 3584 2966 3190 
Q 3341 2797 3341 1997 
z
" transform="scale(0.015625)"/>
       <path id="DejaVuSans-72" d="M 2631 2963 
Q 2534 3019 2420 3045 
Q 2306 3072 2169 3072 
Q 1681 3072 1420 2755 
Q 1159 2438 1159 1844 
L 1159 0 
L 581 0 
L 581 3500 
L 1159 3500 
L 1159 2956 
Q 1341 3275 1631 3429 
Q 1922 3584 2338 3584 
Q 2397 3584 2469 3576 
Q 2541 3569 2628 3553 
L 2631 2963 
z
" transform="scale(0.015625)"/>
       <path id="DejaVuSans-75" d="M 544 1381 
L 544 3500 
L 1119 3500 
L 1119 1403 
Q 1119 906 1312 657 
Q 1506 409 1894 409 
Q 2359 409 2629 706 
Q 2900 1003 2900 1516 
L 2900 3500 
L 3475 3500 
L 3475 0 
L 2900 0 
L 2900 538 
Q 2691 219 2414 64 
Q 2138 -91 1772 -91 
Q 1169 -91 856 284 
Q 544 659 544 1381 
z
M 1991 3584 
L 1991 3584 
z
" transform="scale(0.015625)"/>
       <path id="DejaVuSans-79" d="M 2059 -325 
Q 1816 -950 1584 -1140 
Q 1353 -1331 966 -1331 
L 506 -1331 
L 506 -850 
L 844 -850 
Q 1081 -850 1212 -737 
Q 1344 -625 1503 -206 
L 1606 56 
L 191 3500 
L 800 3500 
L 1894 763 
L 2988 3500 
L 3597 3500 
L 2059 -325 
z
" transform="scale(0.015625)"/>
      </defs>
      <use xlink:href="#DejaVuSans-61"/>
      <use xlink:href="#DejaVuSans-63" x="61.279297"/>
      <use xlink:href="#DejaVuSans-63" x="116.259766"/>
      <use xlink:href="#DejaVuSans-72" x="171.240234"/>
      <use xlink:href="#DejaVuSans-75" x="212.353516"/>
      <use xlink:href="#DejaVuSans-61" x="275.732422"/>
      <use xlink:href="#DejaVuSans-63" x="337.011719"/>
      <use xlink:href="#DejaVuSans-79" x="391.992188"/>
     </g>
    </g>
   </g>
   <g id="line2d_25">
    <path d="M 115.363636 307.8 
L 116.380215 301.326682 
L 117.396794 241.152661 
L 118.413372 217.479818 
L 119.429951 211.841757 
L 120.446529 202.375427 
L 121.463108 195.860345 
L 122.479687 194.419507 
L 124.512844 190.006512 
L 125.529422 188.802329 
L 126.546001 185.941534 
L 127.56258 188.384687 
L 128.579158 191.774485 
L 129.595737 187.646862 
L 130.612316 185.148041 
L 132.645473 167.558707 
L 134.67863 146.287226 
L 135.695209 146.711846 
L 137.728366 140.941541 
L 138.744944 140.231576 
L 139.761523 135.804625 
L 140.778102 137.823184 
L 141.79468 131.621359 
L 142.811259 129.526224 
L 143.827837 129.540128 
L 144.844416 131.155001 
L 145.860995 132.282608 
L 146.877573 134.182852 
L 147.894152 126.874251 
L 148.910731 120.978654 
L 149.927309 124.779116 
L 150.943888 120.957798 
L 151.960466 119.656156 
L 152.977045 122.349867 
L 153.993624 117.011135 
L 155.010202 116.781432 
L 156.026781 121.716479 
L 157.043359 113.718794 
L 158.059938 112.264026 
L 160.093095 106.368455 
L 161.109674 107.718787 
L 162.126253 107.238499 
L 163.142831 109.389328 
L 164.15941 108.06683 
L 165.175988 103.78608 
L 166.192567 101.092342 
L 167.209146 101.586534 
L 168.225724 104.231556 
L 169.242303 100.180508 
L 170.258881 95.440378 
L 172.292039 93.254763 
L 173.308617 95.9485 
L 175.341774 98.342937 
L 176.358353 96.943863 
L 177.374932 96.199085 
L 178.39151 89.753602 
L 179.408089 88.013462 
L 180.424668 85.090022 
L 181.441246 89.600449 
L 182.457825 85.521594 
L 183.474403 89.781436 
L 184.490982 88.08306 
L 185.507561 93.157304 
L 186.524139 89.537829 
L 187.540718 86.593506 
L 188.557296 86.482144 
L 189.573875 86.760563 
L 190.590454 87.373096 
L 192.623611 84.129472 
L 193.640189 81.818564 
L 194.656768 81.950808 
L 195.673347 83.934581 
L 196.689925 87.735043 
L 197.706504 85.75127 
L 198.723083 82.744328 
L 199.739661 83.322048 
L 200.75624 86.496048 
L 202.789397 76.382372 
L 203.805976 80.858014 
L 204.822554 89.308126 
L 205.839133 80.795367 
L 206.855711 82.312756 
L 207.87229 79.570302 
L 208.888869 81.387018 
L 209.905447 81.317393 
L 210.922026 81.700223 
L 211.938604 77.238512 
L 212.955183 78.609752 
L 213.971762 74.42646 
L 216.004919 77.781446 
L 217.021498 76.974023 
L 218.038076 73.799997 
L 219.054655 81.818564 
L 220.071233 81.602791 
L 221.087812 75.735054 
L 222.104391 72.909045 
L 223.120969 79.500704 
L 224.137548 78.825525 
L 225.154126 76.577263 
L 226.170705 78.129464 
L 227.187284 75.122521 
L 228.203862 74.593517 
L 229.220441 70.806958 
L 230.237019 71.155002 
L 231.253598 72.380067 
L 232.270177 73.124844 
L 233.286755 77.586556 
L 234.303334 78.957769 
L 235.319913 80.628311 
L 236.336491 73.967054 
L 237.35307 73.45198 
L 238.369648 72.4775 
L 239.386227 72.393971 
L 240.402806 71.322059 
L 241.419384 72.644556 
L 242.435963 72.09467 
L 243.452541 75.881202 
L 244.46912 70.180522 
L 245.485699 71.948495 
L 246.502277 71.684006 
L 247.518856 70.048277 
L 248.535435 70.062181 
L 249.552013 73.152679 
L 250.568592 71.802321 
L 251.58517 73.716469 
L 252.601749 70.493753 
L 253.618328 70.66081 
L 254.634906 69.68633 
L 255.651485 70.493753 
L 256.668063 70.096993 
L 257.684642 73.63294 
L 258.701221 71.767535 
L 259.717799 72.282609 
L 260.734378 69.28957 
L 261.750956 70.925299 
L 263.784114 68.412548 
L 264.800692 70.375413 
L 265.817271 67.883544 
L 266.83385 71.600478 
L 267.850428 72.644556 
L 268.867007 73.967054 
L 269.883585 70.445011 
L 270.900164 73.667753 
L 271.916743 69.122513 
L 272.933321 68.245492 
L 273.9499 68.823212 
L 274.966478 69.74895 
L 275.983057 72.393971 
L 276.999636 69.554059 
L 278.016214 68.148033 
L 279.032793 66.477492 
L 280.049371 65.816243 
L 281.06595 77.732704 
L 282.082529 91.257086 
L 283.099107 83.670066 
L 284.115686 77.238512 
L 285.132265 73.57032 
L 286.148843 71.816251 
L 287.165422 66.644549 
L 288.182 70.855674 
L 289.198579 72.213011 
L 290.215158 68.725753 
L 291.231736 69.268688 
L 292.248315 68.990269 
L 293.264893 69.602801 
L 294.281472 69.108609 
L 295.298051 66.428776 
L 296.314629 67.451972 
L 297.331208 66.825535 
L 298.347786 72.971692 
L 299.364365 79.800005 
L 300.380944 68.113221 
L 301.397522 71.684006 
L 302.414101 64.62599 
L 303.43068 66.345247 
L 304.447258 70.096993 
L 305.463837 66.742007 
L 306.480415 66.477492 
L 307.496994 65.419509 
L 308.513573 67.284915 
L 309.530151 62.941545 
L 310.54673 63.735038 
L 311.563308 63.567981 
L 312.579887 65.516942 
L 313.596466 65.419509 
L 314.613044 74.955464 
L 315.629623 75.435726 
L 316.646201 73.619037 
L 317.66278 74.906722 
L 319.695937 71.370775 
L 320.712516 71.189788 
L 321.729095 71.503019 
L 322.745673 71.997211 
L 323.762252 67.632959 
L 324.77883 74.704879 
L 325.795409 72.644556 
L 326.811988 69.28957 
L 327.828566 65.189806 
L 328.845145 68.064505 
L 329.861723 68.858024 
L 330.878302 66.97171 
L 331.894881 65.899771 
L 332.911459 63.881213 
L 333.928038 67.006496 
L 334.944617 73.187465 
L 335.961195 69.025081 
L 336.977774 66.742007 
L 337.994352 65.635282 
L 339.010931 67.069142 
L 340.02751 66.56102 
L 341.044088 65.238523 
L 342.060667 67.486784 
L 343.077245 66.693291 
L 344.093824 73.187465 
L 345.110403 72.261727 
L 346.126981 67.138767 
L 347.14356 65.335981 
L 348.160138 65.503038 
L 349.176717 67.403256 
L 350.193296 63.700252 
L 352.226453 60.957772 
L 353.243032 62.280296 
L 354.25961 63.916025 
L 355.276189 67.006496 
L 356.292767 69.038985 
L 357.309346 70.772146 
L 359.342503 79.006512 
L 360.359082 70.820888 
L 361.37566 64.22923 
L 362.392239 66.477492 
L 363.408818 65.419509 
L 364.425396 63.881213 
L 366.458553 69.400932 
L 367.475132 68.544793 
L 368.491711 64.096986 
L 369.508289 67.681675 
L 370.524868 68.725753 
L 372.558025 63.602794 
L 373.574604 64.145702 
L 374.591182 63.616724 
L 375.607761 61.883536 
L 376.62434 65.697902 
L 377.640918 63.616724 
L 378.657497 61.848724 
L 379.674075 60.707187 
L 380.690654 61.765196 
L 381.707233 71.983308 
L 382.723811 69.171229 
L 383.74039 68.642225 
L 384.756968 71.287247 
L 385.773547 69.206042 
L 386.790126 71.071474 
L 387.806704 71.287247 
L 388.823283 66.011134 
L 389.839862 67.862636 
L 390.85644 72.644556 
L 391.873019 74.377718 
L 392.889597 69.073797 
L 393.906176 66.936898 
L 394.922755 64.145702 
L 395.939333 60.839458 
L 396.955912 61.31972 
L 397.97249 62.329012 
L 398.989069 62.509973 
L 400.005648 63.700252 
L 401.022226 59.89979 
L 402.038805 58.180532 
L 403.055383 59.10627 
L 404.071962 61.222287 
L 405.088541 59.022742 
L 406.105119 61.500707 
L 407.121698 66.129474 
L 408.138277 69.185159 
L 409.154855 76.131787 
L 410.171434 76.062189 
L 411.188012 76.493735 
L 412.204591 73.333639 
L 413.22117 65.503038 
L 414.237748 63.832497 
L 415.254327 61.584235 
L 416.270905 60.874244 
L 417.287484 61.702576 
L 418.304063 65.516942 
L 419.320641 64.410217 
L 420.33722 63.65151 
L 421.353799 63.052907 
L 422.370377 61.271004 
L 423.386956 61.570305 
L 424.403534 62.656147 
L 425.420113 62.41254 
L 426.436692 64.674706 
L 427.45327 63.797684 
L 428.469849 68.725753 
L 429.486427 78.345237 
L 430.503006 71.454303 
L 431.519585 67.897448 
L 432.536163 63.916025 
L 433.552742 61.980995 
L 435.585899 61.33365 
L 436.602478 63.978645 
L 437.619056 65.649186 
L 438.635635 65.948487 
L 439.652214 64.410217 
L 440.668792 62.329012 
L 441.685371 64.542462 
L 442.701949 68.607439 
L 443.718528 67.222295 
L 444.735107 67.152671 
L 445.751685 68.920644 
L 446.768264 62.990261 
L 447.784842 66.143378 
L 448.801421 66.825535 
L 449.818 65.335981 
L 450.834578 66.658479 
L 451.851157 61.932252 
L 452.867735 61.055231 
L 454.900893 65.9833 
L 455.917471 64.974034 
L 456.93405 65.732715 
L 458.967207 66.790723 
L 459.983786 63.748968 
L 461.000364 66.045946 
L 462.016943 67.271011 
L 463.033522 68.078435 
L 464.0501 65.781431 
L 465.066679 66.213003 
L 466.083257 61.271004 
L 467.099836 68.607439 
L 469.132993 79.65383 
L 470.149572 71.23853 
L 471.16615 67.584216 
L 472.182729 63.470549 
L 473.199308 62.196768 
L 474.215886 64.890505 
L 475.232465 64.542462 
L 476.249044 62.593501 
L 477.265622 56.941537 
L 478.282201 58.361493 
L 479.298779 66.032016 
L 480.315358 60.561039 
L 481.331937 59.252445 
L 482.348515 62.823204 
L 483.365094 61.305816 
L 484.381672 58.13179 
L 485.398251 64.277972 
L 486.41483 65.20371 
L 487.431408 65.781431 
L 488.447987 60.825528 
L 489.464565 60.345266 
L 490.481144 62.677029 
L 491.497723 63.004191 
L 492.514301 60.922986 
L 493.53088 61.584235 
L 494.547459 63.254776 
L 495.564037 62.475187 
L 496.580616 67.305824 
L 497.597194 65.99723 
L 498.613773 67.486784 
L 499.630352 62.858016 
L 500.64693 62.029711 
L 501.663509 61.667763 
L 502.680087 62.064523 
L 503.696666 62.858016 
L 504.713245 63.038977 
L 505.729823 62.426444 
L 506.746402 65.816243 
L 508.779559 61.090043 
L 509.796138 61.584235 
L 510.812716 63.602794 
L 511.829295 60.526226 
L 512.845874 67.848732 
L 513.862452 61.932252 
L 514.879031 60.129467 
L 515.895609 59.203729 
L 516.912188 59.997222 
L 517.928767 62.87192 
L 518.945345 66.38006 
L 519.961924 63.004191 
L 520.978502 62.329012 
L 521.995081 60.790715 
L 523.01166 61.187475 
L 524.028238 72.909045 
L 525.044817 68.544793 
L 526.061396 62.363824 
L 527.077974 58.855685 
L 528.094553 58.312777 
L 529.111131 59.50303 
L 530.12771 56.461275 
L 532.160867 60.129467 
L 533.177446 60.094681 
L 534.194024 57.519257 
L 535.210603 61.980995 
L 536.227182 61.632951 
L 537.24376 62.774488 
L 538.260339 63.004191 
L 539.276917 59.370785 
L 540.293496 58.841781 
L 541.310075 60.094681 
L 542.326653 59.551746 
L 543.343232 67.319727 
L 544.359811 64.577274 
L 545.376389 64.841763 
L 546.392968 60.115563 
L 547.409546 62.607431 
L 548.426125 64.312758 
L 549.442704 60.08075 
L 550.459282 61.667763 
L 551.475861 60.129467 
L 552.492439 60.755929 
L 553.509018 62.377728 
L 554.525597 65.781431 
L 555.542175 63.435737 
L 556.558754 67.584216 
L 557.575332 63.916025 
L 558.591911 61.500707 
L 559.60849 58.326681 
L 560.625068 61.897466 
L 561.641647 57.484471 
L 562.658226 60.741999 
L 563.674804 62.628313 
L 564.691383 67.5355 
L 565.707961 65.635282 
L 566.72454 59.89979 
L 567.741119 62.426444 
L 568.757697 62.69096 
L 569.774276 60.741999 
L 570.790854 62.015781 
L 571.807433 60.296523 
L 572.824012 58.890497 
L 573.84059 56.377747 
L 574.857169 57.533188 
L 575.873747 60.393982 
L 576.890326 61.236191 
L 577.906905 58.110908 
L 578.923483 61.103947 
L 579.940062 64.660802 
L 580.956641 65.106278 
L 581.973219 60.561039 
L 582.989798 65.349885 
L 584.006376 65.106278 
L 585.022955 65.287239 
L 586.039534 60.345266 
L 587.056112 65.732715 
L 588.072691 62.509973 
L 589.089269 60.790715 
L 590.105848 58.410209 
L 591.122427 57.352201 
L 592.139005 57.400943 
L 593.155584 59.419502 
L 594.172163 55.8 
L 595.188741 59.252445 
L 596.20532 64.096986 
L 597.221898 63.435737 
L 598.238477 61.980995 
L 599.255056 63.352208 
L 600.271634 61.897466 
L 601.288213 59.287257 
L 602.304791 60.755929 
L 604.337949 59.649205 
L 605.354527 60.428794 
L 606.371106 62.607431 
L 607.387684 63.700252 
L 608.404263 61.236191 
L 609.420842 61.368462 
L 610.43742 66.755911 
L 611.453999 65.530846 
L 612.470578 63.78378 
L 613.487156 59.335973 
L 614.503735 57.038995 
L 615.520313 58.709537 
L 616.536892 63.748968 
L 617.553471 62.858016 
L 618.570049 60.35917 
L 619.586628 57.387013 
L 621.619785 62.342916 
L 622.636364 62.677029 
L 622.636364 62.677029 
" clip-path="url(#p0f19cb4e7f)" style="fill: none; stroke: #1f77b4; stroke-width: 1.5; stroke-linecap: square"/>
   </g>
   <g id="line2d_26">
    <path d="M 115.363636 296.667746 
L 116.380215 242.797677 
L 117.396794 224.194434 
L 118.413372 209.55871 
L 119.429951 210.175886 
L 120.446529 207.883525 
L 121.463108 200.477491 
L 122.479687 199.419483 
L 123.496265 205.943851 
L 124.512844 207.619036 
L 125.529422 196.245483 
L 126.546001 196.509972 
L 127.56258 205.062186 
L 128.579158 194.834788 
L 129.595737 201.623672 
L 130.612316 201.006496 
L 131.628894 208.941534 
L 132.645473 194.129466 
L 133.662051 182.315081 
L 134.67863 173.145691 
L 135.695209 175.790738 
L 136.711787 174.909021 
L 137.728366 181.1689 
L 138.744944 176.055201 
L 139.761523 183.72575 
L 140.778102 181.1689 
L 141.79468 182.050565 
L 142.811259 184.3429 
L 143.827837 182.932257 
L 144.844416 192.36611 
L 145.860995 189.809286 
L 146.877573 183.813922 
L 147.894152 188.04593 
L 148.910731 197.127148 
L 149.927309 190.338264 
L 150.943888 194.658444 
L 151.960466 188.04593 
L 152.977045 184.695587 
L 153.993624 188.310445 
L 155.010202 182.403252 
L 156.026781 178.083073 
L 157.043359 191.131784 
L 158.059938 186.370771 
L 159.076517 195.451964 
L 160.093095 191.484445 
L 161.109674 186.635261 
L 162.126253 186.370771 
L 163.142831 183.549433 
L 164.15941 179.493716 
L 165.175988 178.700222 
L 166.192567 188.310445 
L 167.209146 176.143373 
L 168.225724 184.431098 
L 169.242303 185.577252 
L 170.258881 190.690951 
L 171.27546 190.690951 
L 172.292039 199.507654 
L 173.308617 189.544797 
L 174.325196 203.475173 
L 175.341774 190.073775 
L 177.374932 178.435733 
L 178.39151 188.663106 
L 179.408089 180.728068 
L 180.424668 189.721114 
L 181.441246 179.581888 
L 182.457825 185.224591 
L 183.474403 186.987948 
L 184.490982 180.992583 
L 185.507561 182.138737 
L 186.524139 185.048248 
L 187.540718 179.052909 
L 188.557296 191.308127 
L 189.573875 187.869613 
L 190.590454 181.34527 
L 191.607032 179.229253 
L 192.623611 179.846403 
L 193.640189 179.934575 
L 194.656768 185.577252 
L 195.673347 181.080755 
L 196.689925 178.435733 
L 197.706504 178.435733 
L 198.723083 179.317398 
L 199.739661 184.695587 
L 200.75624 183.284918 
L 201.772818 188.663106 
L 202.789397 188.398617 
L 203.805976 184.166583 
L 204.822554 166.797692 
L 205.839133 175.878884 
L 206.855711 176.760575 
L 207.87229 167.679357 
L 208.888869 176.143373 
L 209.905447 172.17588 
L 210.922026 167.062181 
L 211.938604 168.208361 
L 212.955183 167.414841 
L 213.971762 173.057545 
L 214.98834 157.451984 
L 216.004919 177.818557 
L 217.021498 165.386996 
L 218.038076 175.08539 
L 219.054655 181.34527 
L 220.071233 173.674721 
L 221.087812 170.765211 
L 223.120969 174.997219 
L 224.137548 183.284918 
L 225.154126 171.646876 
L 226.170705 176.49606 
L 227.187284 183.902067 
L 228.203862 176.760575 
L 229.220441 175.349906 
L 230.237019 176.760575 
L 231.253598 169.354541 
L 232.270177 193.335947 
L 233.286755 183.284918 
L 234.303334 178.171218 
L 235.319913 187.605097 
L 236.336491 185.312763 
L 237.35307 169.707176 
L 238.369648 178.78842 
L 239.386227 169.883546 
L 240.402806 177.113236 
L 241.419384 177.113236 
L 242.435963 176.49606 
L 243.452541 176.49606 
L 244.46912 181.786076 
L 245.485699 177.289553 
L 246.502277 181.257072 
L 247.518856 182.755913 
L 248.535435 181.874248 
L 249.552013 185.224591 
L 250.568592 182.755913 
L 251.58517 177.377725 
L 252.601749 177.289553 
L 253.618328 182.226909 
L 254.634906 185.312763 
L 255.651485 187.605097 
L 256.668063 178.78842 
L 257.684642 172.793056 
L 258.701221 176.407888 
L 259.717799 185.577252 
L 260.734378 175.349906 
L 261.750956 183.284918 
L 262.767535 179.670086 
L 263.784114 173.32206 
L 264.800692 178.435733 
L 265.817271 182.226909 
L 266.83385 183.373089 
L 267.850428 196.157311 
L 268.867007 186.194428 
L 269.883585 171.646876 
L 270.900164 194.746642 
L 271.916743 183.902067 
L 272.933321 177.906755 
L 273.9499 188.222273 
L 274.966478 184.519243 
L 275.983057 178.171218 
L 276.999636 182.138737 
L 278.016214 179.052909 
L 279.032793 176.760575 
L 280.049371 175.614395 
L 281.06595 176.760575 
L 282.082529 177.64224 
L 283.099107 170.853356 
L 284.115686 179.052909 
L 285.132265 182.138737 
L 286.148843 181.34527 
L 287.165422 181.080755 
L 288.182 187.605097 
L 289.198579 172.264025 
L 290.215158 177.994901 
L 291.231736 185.400935 
L 292.248315 179.581888 
L 293.264893 181.080755 
L 294.281472 186.723432 
L 295.298051 181.609733 
L 296.314629 191.043612 
L 297.331208 178.78842 
L 298.347786 180.728068 
L 299.364365 185.400935 
L 300.380944 181.080755 
L 301.397522 185.400935 
L 302.414101 181.34527 
L 303.43068 190.514608 
L 304.447258 184.166583 
L 305.463837 183.1086 
L 306.480415 184.519243 
L 307.496994 187.340582 
L 308.513573 191.925277 
L 309.530151 176.231571 
L 310.54673 180.81624 
L 311.563308 178.523905 
L 312.579887 181.96242 
L 313.596466 182.226909 
L 314.613044 185.929939 
L 315.629623 185.577252 
L 316.646201 184.431098 
L 317.66278 191.572616 
L 318.679359 176.49606 
L 319.695937 186.811604 
L 320.712516 186.458917 
L 322.745673 177.64224 
L 324.77883 184.783759 
L 325.795409 176.848721 
L 327.828566 185.577252 
L 328.845145 178.171218 
L 329.861723 174.468241 
L 330.878302 185.577252 
L 331.894881 187.252437 
L 332.911459 184.166583 
L 333.928038 186.194428 
L 334.944617 178.78842 
L 335.961195 172.793056 
L 336.977774 177.994901 
L 337.994352 180.19909 
L 339.010931 187.605097 
L 340.02751 182.755913 
L 341.044088 179.581888 
L 342.060667 177.906755 
L 343.077245 185.048248 
L 344.093824 172.17588 
L 345.110403 181.080755 
L 346.126981 174.468241 
L 347.14356 185.577252 
L 348.160138 182.403252 
L 349.176717 180.110918 
L 350.193296 179.317398 
L 351.209874 177.818557 
L 352.226453 186.723432 
L 353.243032 177.025038 
L 354.25961 185.929939 
L 355.276189 187.340582 
L 356.292767 177.906755 
L 357.309346 174.732703 
L 358.325925 189.015767 
L 359.342503 178.523905 
L 360.359082 177.64224 
L 361.37566 176.231571 
L 362.392239 176.49606 
L 363.408818 179.670086 
L 364.425396 180.110918 
L 365.441975 173.674721 
L 366.458553 181.609733 
L 367.475132 168.825511 
L 368.491711 180.992583 
L 369.508289 179.317398 
L 370.524868 181.874248 
L 371.541447 175.614395 
L 372.558025 173.32206 
L 373.574604 173.233889 
L 374.591182 165.386996 
L 375.607761 171.911391 
L 376.62434 174.203725 
L 377.640918 180.728068 
L 378.657497 174.468241 
L 379.674075 177.025038 
L 380.690654 174.732703 
L 381.707233 168.208361 
L 382.723811 167.326696 
L 384.756968 177.289553 
L 385.773547 175.526223 
L 386.790126 171.911391 
L 387.806704 182.491424 
L 388.823283 172.793056 
L 389.839862 173.32206 
L 390.85644 190.161947 
L 391.873019 174.820875 
L 392.889597 179.052909 
L 393.906176 171.029726 
L 395.939333 180.728068 
L 396.955912 174.203725 
L 397.97249 179.581888 
L 398.989069 177.025038 
L 400.005648 187.076093 
L 401.022226 172.793056 
L 402.038805 178.78842 
L 403.055383 181.080755 
L 404.071962 181.874248 
L 405.088541 183.902067 
L 406.105119 177.64224 
L 407.121698 175.878884 
L 408.138277 177.64224 
L 409.154855 175.878884 
L 410.171434 173.057545 
L 411.188012 165.386996 
L 412.204591 165.651511 
L 413.22117 170.765211 
L 414.237748 173.32206 
L 415.254327 166.797692 
L 416.270905 174.203725 
L 417.287484 174.468241 
L 418.304063 176.143373 
L 419.320641 173.057545 
L 420.33722 170.500695 
L 421.353799 170.765211 
L 422.370377 178.171218 
L 423.386956 177.377725 
L 424.403534 180.992583 
L 425.420113 171.029726 
L 426.436692 172.528541 
L 427.45327 189.103938 
L 428.469849 173.93921 
L 429.486427 169.354541 
L 430.503006 181.34527 
L 432.536163 180.81624 
L 433.552742 180.19909 
L 434.56932 185.312763 
L 435.585899 181.34527 
L 436.602478 182.226909 
L 437.619056 177.025038 
L 438.635635 192.189792 
L 439.652214 171.029726 
L 440.668792 175.967055 
L 441.685371 172.793056 
L 442.701949 181.1689 
L 443.718528 175.614395 
L 444.735107 173.93921 
L 445.751685 175.08539 
L 446.768264 168.208361 
L 447.784842 164.240842 
L 448.801421 173.674721 
L 449.818 175.614395 
L 450.834578 167.943846 
L 451.851157 171.646876 
L 453.884314 185.048248 
L 454.900893 173.32206 
L 455.917471 174.468241 
L 456.93405 187.340582 
L 457.950629 182.491424 
L 458.967207 179.934575 
L 459.983786 177.025038 
L 462.016943 189.632943 
L 463.033522 169.61903 
L 464.0501 192.454281 
L 465.066679 174.203725 
L 466.083257 180.728068 
L 467.099836 182.755913 
L 468.116415 186.723432 
L 469.132993 171.911391 
L 470.149572 190.250119 
L 471.16615 183.373089 
L 472.182729 168.737365 
L 473.199308 185.929939 
L 474.215886 172.793056 
L 475.232465 186.194428 
L 476.249044 179.670086 
L 477.265622 179.141055 
L 478.282201 187.076093 
L 479.298779 184.519243 
L 480.315358 177.377725 
L 481.331937 175.70254 
L 482.348515 177.906755 
L 483.365094 169.090026 
L 484.381672 187.42878 
L 485.398251 183.1086 
L 486.41483 183.902067 
L 487.431408 179.934575 
L 488.447987 182.491424 
L 489.464565 173.93921 
L 490.481144 175.967055 
L 491.497723 173.674721 
L 492.514301 181.433416 
L 494.547459 182.491424 
L 495.564037 180.551751 
L 496.580616 175.349906 
L 497.597194 178.78842 
L 498.613773 172.881202 
L 499.630352 170.236206 
L 500.64693 183.373089 
L 501.663509 174.820875 
L 502.680087 179.40557 
L 503.696666 170.500695 
L 504.713245 169.971691 
L 505.729823 176.848721 
L 506.746402 175.967055 
L 507.762981 173.674721 
L 508.779559 168.825511 
L 509.796138 179.934575 
L 510.812716 176.143373 
L 511.829295 181.34527 
L 512.845874 170.853356 
L 513.862452 179.052909 
L 514.879031 172.264025 
L 515.895609 175.967055 
L 516.912188 168.913709 
L 517.928767 171.735021 
L 518.945345 174.909021 
L 519.961924 169.442687 
L 520.978502 173.410206 
L 521.995081 162.565657 
L 523.01166 168.825511 
L 524.028238 167.679357 
L 525.044817 173.410206 
L 526.061396 171.999536 
L 527.077974 167.943846 
L 528.094553 176.407888 
L 530.12771 172.264025 
L 531.144289 177.64224 
L 532.160867 166.268661 
L 533.177446 170.236206 
L 534.194024 175.08539 
L 536.227182 181.874248 
L 537.24376 179.670086 
L 538.260339 178.78842 
L 539.276917 177.64224 
L 540.293496 174.291871 
L 541.310075 172.528541 
L 542.326653 167.679357 
L 543.343232 172.17588 
L 544.359811 175.967055 
L 545.376389 177.64224 
L 546.392968 174.732703 
L 547.409546 179.141055 
L 548.426125 173.410206 
L 549.442704 173.93921 
L 551.475861 176.231571 
L 552.492439 178.78842 
L 553.509018 168.561022 
L 554.525597 174.997219 
L 555.542175 183.902067 
L 556.558754 172.528541 
L 557.575332 167.943846 
L 558.591911 173.93921 
L 559.60849 172.528541 
L 560.625068 170.853356 
L 561.641647 175.614395 
L 562.658226 170.236206 
L 563.674804 179.052909 
L 564.691383 181.34527 
L 565.707961 171.646876 
L 566.72454 179.052909 
L 567.741119 178.171218 
L 568.757697 177.025038 
L 569.774276 169.707176 
L 570.790854 174.468241 
L 571.807433 167.943846 
L 572.824012 164.769846 
L 573.84059 170.500695 
L 574.857169 167.943846 
L 575.873747 160.273297 
L 576.890326 167.326696 
L 577.906905 173.586523 
L 578.923483 169.61903 
L 579.940062 164.769846 
L 580.956641 179.934575 
L 581.973219 180.551751 
L 582.989798 170.236206 
L 584.006376 185.665424 
L 585.022955 179.052909 
L 586.039534 175.349906 
L 587.056112 172.17588 
L 588.072691 175.878884 
L 589.089269 166.797692 
L 590.105848 183.020402 
L 591.122427 174.468241 
L 592.139005 183.902067 
L 593.155584 182.755913 
L 594.172163 170.500695 
L 595.188741 183.902067 
L 596.20532 177.906755 
L 597.221898 179.052909 
L 598.238477 181.96242 
L 599.255056 183.549433 
L 600.271634 177.113236 
L 601.288213 169.354541 
L 602.304791 177.113236 
L 603.32137 177.113236 
L 604.337949 172.352223 
L 605.354527 174.291871 
L 606.371106 172.881202 
L 608.404263 178.25939 
L 609.420842 184.166583 
L 610.43742 160.273297 
L 611.453999 178.78842 
L 612.470578 176.231571 
L 613.487156 171.38236 
L 614.503735 176.848721 
L 615.520313 172.528541 
L 616.536892 178.78842 
L 617.553471 170.236206 
L 618.570049 173.93921 
L 619.586628 179.670086 
L 620.603206 179.141055 
L 621.619785 166.533176 
L 622.636364 172.528541 
L 622.636364 172.528541 
" clip-path="url(#p0f19cb4e7f)" style="fill: none; stroke: #ff7f0e; stroke-width: 1.5; stroke-linecap: square"/>
   </g>
   <g id="patch_3">
    <path d="M 90 320.4 
L 90 43.2 
" style="fill: none; stroke: #000000; stroke-width: 0.8; stroke-linejoin: miter; stroke-linecap: square"/>
   </g>
   <g id="patch_4">
    <path d="M 648 320.4 
L 648 43.2 
" style="fill: none; stroke: #000000; stroke-width: 0.8; stroke-linejoin: miter; stroke-linecap: square"/>
   </g>
   <g id="patch_5">
    <path d="M 90 320.4 
L 648 320.4 
" style="fill: none; stroke: #000000; stroke-width: 0.8; stroke-linejoin: miter; stroke-linecap: square"/>
   </g>
   <g id="patch_6">
    <path d="M 90 43.2 
L 648 43.2 
" style="fill: none; stroke: #000000; stroke-width: 0.8; stroke-linejoin: miter; stroke-linecap: square"/>
   </g>
   <g id="text_15">
    <!-- model train and validation accracy over time -->
    <g transform="translate(233.87625 37.2) scale(0.12 -0.12)">
     <defs>
      <path id="DejaVuSans-6d" d="M 3328 2828 
Q 3544 3216 3844 3400 
Q 4144 3584 4550 3584 
Q 5097 3584 5394 3201 
Q 5691 2819 5691 2113 
L 5691 0 
L 5113 0 
L 5113 2094 
Q 5113 2597 4934 2840 
Q 4756 3084 4391 3084 
Q 3944 3084 3684 2787 
Q 3425 2491 3425 1978 
L 3425 0 
L 2847 0 
L 2847 2094 
Q 2847 2600 2669 2842 
Q 2491 3084 2119 3084 
Q 1678 3084 1418 2786 
Q 1159 2488 1159 1978 
L 1159 0 
L 581 0 
L 581 3500 
L 1159 3500 
L 1159 2956 
Q 1356 3278 1631 3431 
Q 1906 3584 2284 3584 
Q 2666 3584 2933 3390 
Q 3200 3197 3328 2828 
z
" transform="scale(0.015625)"/>
      <path id="DejaVuSans-64" d="M 2906 2969 
L 2906 4863 
L 3481 4863 
L 3481 0 
L 2906 0 
L 2906 525 
Q 2725 213 2448 61 
Q 2172 -91 1784 -91 
Q 1150 -91 751 415 
Q 353 922 353 1747 
Q 353 2572 751 3078 
Q 1150 3584 1784 3584 
Q 2172 3584 2448 3432 
Q 2725 3281 2906 2969 
z
M 947 1747 
Q 947 1113 1208 752 
Q 1469 391 1925 391 
Q 2381 391 2643 752 
Q 2906 1113 2906 1747 
Q 2906 2381 2643 2742 
Q 2381 3103 1925 3103 
Q 1469 3103 1208 2742 
Q 947 2381 947 1747 
z
" transform="scale(0.015625)"/>
      <path id="DejaVuSans-6c" d="M 603 4863 
L 1178 4863 
L 1178 0 
L 603 0 
L 603 4863 
z
" transform="scale(0.015625)"/>
      <path id="DejaVuSans-20" transform="scale(0.015625)"/>
      <path id="DejaVuSans-74" d="M 1172 4494 
L 1172 3500 
L 2356 3500 
L 2356 3053 
L 1172 3053 
L 1172 1153 
Q 1172 725 1289 603 
Q 1406 481 1766 481 
L 2356 481 
L 2356 0 
L 1766 0 
Q 1100 0 847 248 
Q 594 497 594 1153 
L 594 3053 
L 172 3053 
L 172 3500 
L 594 3500 
L 594 4494 
L 1172 4494 
z
" transform="scale(0.015625)"/>
      <path id="DejaVuSans-69" d="M 603 3500 
L 1178 3500 
L 1178 0 
L 603 0 
L 603 3500 
z
M 603 4863 
L 1178 4863 
L 1178 4134 
L 603 4134 
L 603 4863 
z
" transform="scale(0.015625)"/>
      <path id="DejaVuSans-6e" d="M 3513 2113 
L 3513 0 
L 2938 0 
L 2938 2094 
Q 2938 2591 2744 2837 
Q 2550 3084 2163 3084 
Q 1697 3084 1428 2787 
Q 1159 2491 1159 1978 
L 1159 0 
L 581 0 
L 581 3500 
L 1159 3500 
L 1159 2956 
Q 1366 3272 1645 3428 
Q 1925 3584 2291 3584 
Q 2894 3584 3203 3211 
Q 3513 2838 3513 2113 
z
" transform="scale(0.015625)"/>
      <path id="DejaVuSans-76" d="M 191 3500 
L 800 3500 
L 1894 563 
L 2988 3500 
L 3597 3500 
L 2284 0 
L 1503 0 
L 191 3500 
z
" transform="scale(0.015625)"/>
     </defs>
     <use xlink:href="#DejaVuSans-6d"/>
     <use xlink:href="#DejaVuSans-6f" x="97.412109"/>
     <use xlink:href="#DejaVuSans-64" x="158.59375"/>
     <use xlink:href="#DejaVuSans-65" x="222.070312"/>
     <use xlink:href="#DejaVuSans-6c" x="283.59375"/>
     <use xlink:href="#DejaVuSans-20" x="311.376953"/>
     <use xlink:href="#DejaVuSans-74" x="343.164062"/>
     <use xlink:href="#DejaVuSans-72" x="382.373047"/>
     <use xlink:href="#DejaVuSans-61" x="423.486328"/>
     <use xlink:href="#DejaVuSans-69" x="484.765625"/>
     <use xlink:href="#DejaVuSans-6e" x="512.548828"/>
     <use xlink:href="#DejaVuSans-20" x="575.927734"/>
     <use xlink:href="#DejaVuSans-61" x="607.714844"/>
     <use xlink:href="#DejaVuSans-6e" x="668.994141"/>
     <use xlink:href="#DejaVuSans-64" x="732.373047"/>
     <use xlink:href="#DejaVuSans-20" x="795.849609"/>
     <use xlink:href="#DejaVuSans-76" x="827.636719"/>
     <use xlink:href="#DejaVuSans-61" x="886.816406"/>
     <use xlink:href="#DejaVuSans-6c" x="948.095703"/>
     <use xlink:href="#DejaVuSans-69" x="975.878906"/>
     <use xlink:href="#DejaVuSans-64" x="1003.662109"/>
     <use xlink:href="#DejaVuSans-61" x="1067.138672"/>
     <use xlink:href="#DejaVuSans-74" x="1128.417969"/>
     <use xlink:href="#DejaVuSans-69" x="1167.626953"/>
     <use xlink:href="#DejaVuSans-6f" x="1195.410156"/>
     <use xlink:href="#DejaVuSans-6e" x="1256.591797"/>
     <use xlink:href="#DejaVuSans-20" x="1319.970703"/>
     <use xlink:href="#DejaVuSans-61" x="1351.757812"/>
     <use xlink:href="#DejaVuSans-63" x="1413.037109"/>
     <use xlink:href="#DejaVuSans-63" x="1468.017578"/>
     <use xlink:href="#DejaVuSans-72" x="1522.998047"/>
     <use xlink:href="#DejaVuSans-61" x="1564.111328"/>
     <use xlink:href="#DejaVuSans-63" x="1625.390625"/>
     <use xlink:href="#DejaVuSans-79" x="1680.371094"/>
     <use xlink:href="#DejaVuSans-20" x="1739.550781"/>
     <use xlink:href="#DejaVuSans-6f" x="1771.337891"/>
     <use xlink:href="#DejaVuSans-76" x="1832.519531"/>
     <use xlink:href="#DejaVuSans-65" x="1891.699219"/>
     <use xlink:href="#DejaVuSans-72" x="1953.222656"/>
     <use xlink:href="#DejaVuSans-20" x="1994.335938"/>
     <use xlink:href="#DejaVuSans-74" x="2026.123047"/>
     <use xlink:href="#DejaVuSans-69" x="2065.332031"/>
     <use xlink:href="#DejaVuSans-6d" x="2093.115234"/>
     <use xlink:href="#DejaVuSans-65" x="2190.527344"/>
    </g>
   </g>
   <g id="legend_1">
    <g id="patch_7">
     <path d="M 97 80.55625 
L 178.234375 80.55625 
Q 180.234375 80.55625 180.234375 78.55625 
L 180.234375 50.2 
Q 180.234375 48.2 178.234375 48.2 
L 97 48.2 
Q 95 48.2 95 50.2 
L 95 78.55625 
Q 95 80.55625 97 80.55625 
z
" style="fill: #ffffff; opacity: 0.8; stroke: #cccccc; stroke-linejoin: miter"/>
    </g>
    <g id="line2d_27">
     <path d="M 99 56.298437 
L 109 56.298437 
L 119 56.298437 
" style="fill: none; stroke: #1f77b4; stroke-width: 1.5; stroke-linecap: square"/>
    </g>
    <g id="text_16">
     <!-- train -->
     <g transform="translate(127 59.798437) scale(0.1 -0.1)">
      <use xlink:href="#DejaVuSans-74"/>
      <use xlink:href="#DejaVuSans-72" x="39.208984"/>
      <use xlink:href="#DejaVuSans-61" x="80.322266"/>
      <use xlink:href="#DejaVuSans-69" x="141.601562"/>
      <use xlink:href="#DejaVuSans-6e" x="169.384766"/>
     </g>
    </g>
    <g id="line2d_28">
     <path d="M 99 70.976562 
L 109 70.976562 
L 119 70.976562 
" style="fill: none; stroke: #ff7f0e; stroke-width: 1.5; stroke-linecap: square"/>
    </g>
    <g id="text_17">
     <!-- validation -->
     <g transform="translate(127 74.476562) scale(0.1 -0.1)">
      <use xlink:href="#DejaVuSans-76"/>
      <use xlink:href="#DejaVuSans-61" x="59.179688"/>
      <use xlink:href="#DejaVuSans-6c" x="120.458984"/>
      <use xlink:href="#DejaVuSans-69" x="148.242188"/>
      <use xlink:href="#DejaVuSans-64" x="176.025391"/>
      <use xlink:href="#DejaVuSans-61" x="239.501953"/>
      <use xlink:href="#DejaVuSans-74" x="300.78125"/>
      <use xlink:href="#DejaVuSans-69" x="339.990234"/>
      <use xlink:href="#DejaVuSans-6f" x="367.773438"/>
      <use xlink:href="#DejaVuSans-6e" x="428.955078"/>
     </g>
    </g>
   </g>
  </g>
 </g>
 <defs>
  <clipPath id="p0f19cb4e7f">
   <rect x="90" y="43.2" width="558" height="277.2"/>
  </clipPath>
 </defs>
</svg>
