<?xml version="1.0" encoding="utf-8" standalone="no"?>
<!DOCTYPE svg PUBLIC "-//W3C//DTD SVG 1.1//EN"
  "http://www.w3.org/Graphics/SVG/1.1/DTD/svg11.dtd">
<svg xmlns:xlink="http://www.w3.org/1999/xlink" width="720pt" height="360pt" viewBox="0 0 720 360" xmlns="http://www.w3.org/2000/svg" version="1.1">
 <metadata>
  <rdf:RDF xmlns:dc="http://purl.org/dc/elements/1.1/" xmlns:cc="http://creativecommons.org/ns#" xmlns:rdf="http://www.w3.org/1999/02/22-rdf-syntax-ns#">
   <cc:Work>
    <dc:type rdf:resource="http://purl.org/dc/dcmitype/StillImage"/>
    <dc:date>2023-05-24T11:08:18.094049</dc:date>
    <dc:format>image/svg+xml</dc:format>
    <dc:creator>
     <cc:Agent>
      <dc:title>Matplotlib v3.7.1, https://matplotlib.org/</dc:title>
     </cc:Agent>
    </dc:creator>
   </cc:Work>
  </rdf:RDF>
 </metadata>
 <defs>
  <style type="text/css">*{stroke-linejoin: round; stroke-linecap: butt}</style>
 </defs>
 <g id="figure_1">
  <g id="patch_1">
   <path d="M 0 360 
L 720 360 
L 720 0 
L 0 0 
z
" style="fill: #ffffff"/>
  </g>
  <g id="axes_1">
   <g id="patch_2">
    <path d="M 90 320.4 
L 648 320.4 
L 648 43.2 
L 90 43.2 
z
" style="fill: #ffffff"/>
   </g>
   <g id="matplotlib.axis_1">
    <g id="xtick_1">
     <g id="line2d_1">
      <path d="M 115.363636 320.4 
L 115.363636 43.2 
" clip-path="url(#p329240acf4)" style="fill: none; stroke: #b0b0b0; stroke-width: 0.8; stroke-linecap: square"/>
     </g>
     <g id="line2d_2">
      <defs>
       <path id="m4d42f0d37b" d="M 0 0 
L 0 3.5 
" style="stroke: #000000; stroke-width: 0.8"/>
      </defs>
      <g>
       <use xlink:href="#m4d42f0d37b" x="115.363636" y="320.4" style="stroke: #000000; stroke-width: 0.8"/>
      </g>
     </g>
     <g id="text_1">
      <!-- 0 -->
      <g transform="translate(112.182386 334.998438) scale(0.1 -0.1)">
       <defs>
        <path id="DejaVuSans-30" d="M 2034 4250 
Q 1547 4250 1301 3770 
Q 1056 3291 1056 2328 
Q 1056 1369 1301 889 
Q 1547 409 2034 409 
Q 2525 409 2770 889 
Q 3016 1369 3016 2328 
Q 3016 3291 2770 3770 
Q 2525 4250 2034 4250 
z
M 2034 4750 
Q 2819 4750 3233 4129 
Q 3647 3509 3647 2328 
Q 3647 1150 3233 529 
Q 2819 -91 2034 -91 
Q 1250 -91 836 529 
Q 422 1150 422 2328 
Q 422 3509 836 4129 
Q 1250 4750 2034 4750 
z
" transform="scale(0.015625)"/>
       </defs>
       <use xlink:href="#DejaVuSans-30"/>
      </g>
     </g>
    </g>
    <g id="xtick_2">
     <g id="line2d_3">
      <path d="M 217.021498 320.4 
L 217.021498 43.2 
" clip-path="url(#p329240acf4)" style="fill: none; stroke: #b0b0b0; stroke-width: 0.8; stroke-linecap: square"/>
     </g>
     <g id="line2d_4">
      <g>
       <use xlink:href="#m4d42f0d37b" x="217.021498" y="320.4" style="stroke: #000000; stroke-width: 0.8"/>
      </g>
     </g>
     <g id="text_2">
      <!-- 100 -->
      <g transform="translate(207.477748 334.998438) scale(0.1 -0.1)">
       <defs>
        <path id="DejaVuSans-31" d="M 794 531 
L 1825 531 
L 1825 4091 
L 703 3866 
L 703 4441 
L 1819 4666 
L 2450 4666 
L 2450 531 
L 3481 531 
L 3481 0 
L 794 0 
L 794 531 
z
" transform="scale(0.015625)"/>
       </defs>
       <use xlink:href="#DejaVuSans-31"/>
       <use xlink:href="#DejaVuSans-30" x="63.623047"/>
       <use xlink:href="#DejaVuSans-30" x="127.246094"/>
      </g>
     </g>
    </g>
    <g id="xtick_3">
     <g id="line2d_5">
      <path d="M 318.679359 320.4 
L 318.679359 43.2 
" clip-path="url(#p329240acf4)" style="fill: none; stroke: #b0b0b0; stroke-width: 0.8; stroke-linecap: square"/>
     </g>
     <g id="line2d_6">
      <g>
       <use xlink:href="#m4d42f0d37b" x="318.679359" y="320.4" style="stroke: #000000; stroke-width: 0.8"/>
      </g>
     </g>
     <g id="text_3">
      <!-- 200 -->
      <g transform="translate(309.135609 334.998438) scale(0.1 -0.1)">
       <defs>
        <path id="DejaVuSans-32" d="M 1228 531 
L 3431 531 
L 3431 0 
L 469 0 
L 469 531 
Q 828 903 1448 1529 
Q 2069 2156 2228 2338 
Q 2531 2678 2651 2914 
Q 2772 3150 2772 3378 
Q 2772 3750 2511 3984 
Q 2250 4219 1831 4219 
Q 1534 4219 1204 4116 
Q 875 4013 500 3803 
L 500 4441 
Q 881 4594 1212 4672 
Q 1544 4750 1819 4750 
Q 2544 4750 2975 4387 
Q 3406 4025 3406 3419 
Q 3406 3131 3298 2873 
Q 3191 2616 2906 2266 
Q 2828 2175 2409 1742 
Q 1991 1309 1228 531 
z
" transform="scale(0.015625)"/>
       </defs>
       <use xlink:href="#DejaVuSans-32"/>
       <use xlink:href="#DejaVuSans-30" x="63.623047"/>
       <use xlink:href="#DejaVuSans-30" x="127.246094"/>
      </g>
     </g>
    </g>
    <g id="xtick_4">
     <g id="line2d_7">
      <path d="M 420.33722 320.4 
L 420.33722 43.2 
" clip-path="url(#p329240acf4)" style="fill: none; stroke: #b0b0b0; stroke-width: 0.8; stroke-linecap: square"/>
     </g>
     <g id="line2d_8">
      <g>
       <use xlink:href="#m4d42f0d37b" x="420.33722" y="320.4" style="stroke: #000000; stroke-width: 0.8"/>
      </g>
     </g>
     <g id="text_4">
      <!-- 300 -->
      <g transform="translate(410.79347 334.998438) scale(0.1 -0.1)">
       <defs>
        <path id="DejaVuSans-33" d="M 2597 2516 
Q 3050 2419 3304 2112 
Q 3559 1806 3559 1356 
Q 3559 666 3084 287 
Q 2609 -91 1734 -91 
Q 1441 -91 1130 -33 
Q 819 25 488 141 
L 488 750 
Q 750 597 1062 519 
Q 1375 441 1716 441 
Q 2309 441 2620 675 
Q 2931 909 2931 1356 
Q 2931 1769 2642 2001 
Q 2353 2234 1838 2234 
L 1294 2234 
L 1294 2753 
L 1863 2753 
Q 2328 2753 2575 2939 
Q 2822 3125 2822 3475 
Q 2822 3834 2567 4026 
Q 2313 4219 1838 4219 
Q 1578 4219 1281 4162 
Q 984 4106 628 3988 
L 628 4550 
Q 988 4650 1302 4700 
Q 1616 4750 1894 4750 
Q 2613 4750 3031 4423 
Q 3450 4097 3450 3541 
Q 3450 3153 3228 2886 
Q 3006 2619 2597 2516 
z
" transform="scale(0.015625)"/>
       </defs>
       <use xlink:href="#DejaVuSans-33"/>
       <use xlink:href="#DejaVuSans-30" x="63.623047"/>
       <use xlink:href="#DejaVuSans-30" x="127.246094"/>
      </g>
     </g>
    </g>
    <g id="xtick_5">
     <g id="line2d_9">
      <path d="M 521.995081 320.4 
L 521.995081 43.2 
" clip-path="url(#p329240acf4)" style="fill: none; stroke: #b0b0b0; stroke-width: 0.8; stroke-linecap: square"/>
     </g>
     <g id="line2d_10">
      <g>
       <use xlink:href="#m4d42f0d37b" x="521.995081" y="320.4" style="stroke: #000000; stroke-width: 0.8"/>
      </g>
     </g>
     <g id="text_5">
      <!-- 400 -->
      <g transform="translate(512.451331 334.998438) scale(0.1 -0.1)">
       <defs>
        <path id="DejaVuSans-34" d="M 2419 4116 
L 825 1625 
L 2419 1625 
L 2419 4116 
z
M 2253 4666 
L 3047 4666 
L 3047 1625 
L 3713 1625 
L 3713 1100 
L 3047 1100 
L 3047 0 
L 2419 0 
L 2419 1100 
L 313 1100 
L 313 1709 
L 2253 4666 
z
" transform="scale(0.015625)"/>
       </defs>
       <use xlink:href="#DejaVuSans-34"/>
       <use xlink:href="#DejaVuSans-30" x="63.623047"/>
       <use xlink:href="#DejaVuSans-30" x="127.246094"/>
      </g>
     </g>
    </g>
    <g id="xtick_6">
     <g id="line2d_11">
      <path d="M 623.652942 320.4 
L 623.652942 43.2 
" clip-path="url(#p329240acf4)" style="fill: none; stroke: #b0b0b0; stroke-width: 0.8; stroke-linecap: square"/>
     </g>
     <g id="line2d_12">
      <g>
       <use xlink:href="#m4d42f0d37b" x="623.652942" y="320.4" style="stroke: #000000; stroke-width: 0.8"/>
      </g>
     </g>
     <g id="text_6">
      <!-- 500 -->
      <g transform="translate(614.109192 334.998438) scale(0.1 -0.1)">
       <defs>
        <path id="DejaVuSans-35" d="M 691 4666 
L 3169 4666 
L 3169 4134 
L 1269 4134 
L 1269 2991 
Q 1406 3038 1543 3061 
Q 1681 3084 1819 3084 
Q 2600 3084 3056 2656 
Q 3513 2228 3513 1497 
Q 3513 744 3044 326 
Q 2575 -91 1722 -91 
Q 1428 -91 1123 -41 
Q 819 9 494 109 
L 494 744 
Q 775 591 1075 516 
Q 1375 441 1709 441 
Q 2250 441 2565 725 
Q 2881 1009 2881 1497 
Q 2881 1984 2565 2268 
Q 2250 2553 1709 2553 
Q 1456 2553 1204 2497 
Q 953 2441 691 2322 
L 691 4666 
z
" transform="scale(0.015625)"/>
       </defs>
       <use xlink:href="#DejaVuSans-35"/>
       <use xlink:href="#DejaVuSans-30" x="63.623047"/>
       <use xlink:href="#DejaVuSans-30" x="127.246094"/>
      </g>
     </g>
    </g>
    <g id="text_7">
     <!-- epoch -->
     <g transform="translate(353.771875 348.676562) scale(0.1 -0.1)">
      <defs>
       <path id="DejaVuSans-65" d="M 3597 1894 
L 3597 1613 
L 953 1613 
Q 991 1019 1311 708 
Q 1631 397 2203 397 
Q 2534 397 2845 478 
Q 3156 559 3463 722 
L 3463 178 
Q 3153 47 2828 -22 
Q 2503 -91 2169 -91 
Q 1331 -91 842 396 
Q 353 884 353 1716 
Q 353 2575 817 3079 
Q 1281 3584 2069 3584 
Q 2775 3584 3186 3129 
Q 3597 2675 3597 1894 
z
M 3022 2063 
Q 3016 2534 2758 2815 
Q 2500 3097 2075 3097 
Q 1594 3097 1305 2825 
Q 1016 2553 972 2059 
L 3022 2063 
z
" transform="scale(0.015625)"/>
       <path id="DejaVuSans-70" d="M 1159 525 
L 1159 -1331 
L 581 -1331 
L 581 3500 
L 1159 3500 
L 1159 2969 
Q 1341 3281 1617 3432 
Q 1894 3584 2278 3584 
Q 2916 3584 3314 3078 
Q 3713 2572 3713 1747 
Q 3713 922 3314 415 
Q 2916 -91 2278 -91 
Q 1894 -91 1617 61 
Q 1341 213 1159 525 
z
M 3116 1747 
Q 3116 2381 2855 2742 
Q 2594 3103 2138 3103 
Q 1681 3103 1420 2742 
Q 1159 2381 1159 1747 
Q 1159 1113 1420 752 
Q 1681 391 2138 391 
Q 2594 391 2855 752 
Q 3116 1113 3116 1747 
z
" transform="scale(0.015625)"/>
       <path id="DejaVuSans-6f" d="M 1959 3097 
Q 1497 3097 1228 2736 
Q 959 2375 959 1747 
Q 959 1119 1226 758 
Q 1494 397 1959 397 
Q 2419 397 2687 759 
Q 2956 1122 2956 1747 
Q 2956 2369 2687 2733 
Q 2419 3097 1959 3097 
z
M 1959 3584 
Q 2709 3584 3137 3096 
Q 3566 2609 3566 1747 
Q 3566 888 3137 398 
Q 2709 -91 1959 -91 
Q 1206 -91 779 398 
Q 353 888 353 1747 
Q 353 2609 779 3096 
Q 1206 3584 1959 3584 
z
" transform="scale(0.015625)"/>
       <path id="DejaVuSans-63" d="M 3122 3366 
L 3122 2828 
Q 2878 2963 2633 3030 
Q 2388 3097 2138 3097 
Q 1578 3097 1268 2742 
Q 959 2388 959 1747 
Q 959 1106 1268 751 
Q 1578 397 2138 397 
Q 2388 397 2633 464 
Q 2878 531 3122 666 
L 3122 134 
Q 2881 22 2623 -34 
Q 2366 -91 2075 -91 
Q 1284 -91 818 406 
Q 353 903 353 1747 
Q 353 2603 823 3093 
Q 1294 3584 2113 3584 
Q 2378 3584 2631 3529 
Q 2884 3475 3122 3366 
z
" transform="scale(0.015625)"/>
       <path id="DejaVuSans-68" d="M 3513 2113 
L 3513 0 
L 2938 0 
L 2938 2094 
Q 2938 2591 2744 2837 
Q 2550 3084 2163 3084 
Q 1697 3084 1428 2787 
Q 1159 2491 1159 1978 
L 1159 0 
L 581 0 
L 581 4863 
L 1159 4863 
L 1159 2956 
Q 1366 3272 1645 3428 
Q 1925 3584 2291 3584 
Q 2894 3584 3203 3211 
Q 3513 2838 3513 2113 
z
" transform="scale(0.015625)"/>
      </defs>
      <use xlink:href="#DejaVuSans-65"/>
      <use xlink:href="#DejaVuSans-70" x="61.523438"/>
      <use xlink:href="#DejaVuSans-6f" x="125"/>
      <use xlink:href="#DejaVuSans-63" x="186.181641"/>
      <use xlink:href="#DejaVuSans-68" x="241.162109"/>
     </g>
    </g>
   </g>
   <g id="matplotlib.axis_2">
    <g id="ytick_1">
     <g id="line2d_13">
      <path d="M 90 290.248138 
L 648 290.248138 
" clip-path="url(#p329240acf4)" style="fill: none; stroke: #b0b0b0; stroke-width: 0.8; stroke-linecap: square"/>
     </g>
     <g id="line2d_14">
      <defs>
       <path id="m4b12550a78" d="M 0 0 
L -3.5 0 
" style="stroke: #000000; stroke-width: 0.8"/>
      </defs>
      <g>
       <use xlink:href="#m4b12550a78" x="90" y="290.248138" style="stroke: #000000; stroke-width: 0.8"/>
      </g>
     </g>
     <g id="text_8">
      <!-- 0.35 -->
      <g transform="translate(60.734375 294.047357) scale(0.1 -0.1)">
       <defs>
        <path id="DejaVuSans-2e" d="M 684 794 
L 1344 794 
L 1344 0 
L 684 0 
L 684 794 
z
" transform="scale(0.015625)"/>
       </defs>
       <use xlink:href="#DejaVuSans-30"/>
       <use xlink:href="#DejaVuSans-2e" x="63.623047"/>
       <use xlink:href="#DejaVuSans-33" x="95.410156"/>
       <use xlink:href="#DejaVuSans-35" x="159.033203"/>
      </g>
     </g>
    </g>
    <g id="ytick_2">
     <g id="line2d_15">
      <path d="M 90 242.664588 
L 648 242.664588 
" clip-path="url(#p329240acf4)" style="fill: none; stroke: #b0b0b0; stroke-width: 0.8; stroke-linecap: square"/>
     </g>
     <g id="line2d_16">
      <g>
       <use xlink:href="#m4b12550a78" x="90" y="242.664588" style="stroke: #000000; stroke-width: 0.8"/>
      </g>
     </g>
     <g id="text_9">
      <!-- 0.40 -->
      <g transform="translate(60.734375 246.463806) scale(0.1 -0.1)">
       <use xlink:href="#DejaVuSans-30"/>
       <use xlink:href="#DejaVuSans-2e" x="63.623047"/>
       <use xlink:href="#DejaVuSans-34" x="95.410156"/>
       <use xlink:href="#DejaVuSans-30" x="159.033203"/>
      </g>
     </g>
    </g>
    <g id="ytick_3">
     <g id="line2d_17">
      <path d="M 90 195.081037 
L 648 195.081037 
" clip-path="url(#p329240acf4)" style="fill: none; stroke: #b0b0b0; stroke-width: 0.8; stroke-linecap: square"/>
     </g>
     <g id="line2d_18">
      <g>
       <use xlink:href="#m4b12550a78" x="90" y="195.081037" style="stroke: #000000; stroke-width: 0.8"/>
      </g>
     </g>
     <g id="text_10">
      <!-- 0.45 -->
      <g transform="translate(60.734375 198.880256) scale(0.1 -0.1)">
       <use xlink:href="#DejaVuSans-30"/>
       <use xlink:href="#DejaVuSans-2e" x="63.623047"/>
       <use xlink:href="#DejaVuSans-34" x="95.410156"/>
       <use xlink:href="#DejaVuSans-35" x="159.033203"/>
      </g>
     </g>
    </g>
    <g id="ytick_4">
     <g id="line2d_19">
      <path d="M 90 147.497486 
L 648 147.497486 
" clip-path="url(#p329240acf4)" style="fill: none; stroke: #b0b0b0; stroke-width: 0.8; stroke-linecap: square"/>
     </g>
     <g id="line2d_20">
      <g>
       <use xlink:href="#m4b12550a78" x="90" y="147.497486" style="stroke: #000000; stroke-width: 0.8"/>
      </g>
     </g>
     <g id="text_11">
      <!-- 0.50 -->
      <g transform="translate(60.734375 151.296705) scale(0.1 -0.1)">
       <use xlink:href="#DejaVuSans-30"/>
       <use xlink:href="#DejaVuSans-2e" x="63.623047"/>
       <use xlink:href="#DejaVuSans-35" x="95.410156"/>
       <use xlink:href="#DejaVuSans-30" x="159.033203"/>
      </g>
     </g>
    </g>
    <g id="ytick_5">
     <g id="line2d_21">
      <path d="M 90 99.913936 
L 648 99.913936 
" clip-path="url(#p329240acf4)" style="fill: none; stroke: #b0b0b0; stroke-width: 0.8; stroke-linecap: square"/>
     </g>
     <g id="line2d_22">
      <g>
       <use xlink:href="#m4b12550a78" x="90" y="99.913936" style="stroke: #000000; stroke-width: 0.8"/>
      </g>
     </g>
     <g id="text_12">
      <!-- 0.55 -->
      <g transform="translate(60.734375 103.713154) scale(0.1 -0.1)">
       <use xlink:href="#DejaVuSans-30"/>
       <use xlink:href="#DejaVuSans-2e" x="63.623047"/>
       <use xlink:href="#DejaVuSans-35" x="95.410156"/>
       <use xlink:href="#DejaVuSans-35" x="159.033203"/>
      </g>
     </g>
    </g>
    <g id="ytick_6">
     <g id="line2d_23">
      <path d="M 90 52.330385 
L 648 52.330385 
" clip-path="url(#p329240acf4)" style="fill: none; stroke: #b0b0b0; stroke-width: 0.8; stroke-linecap: square"/>
     </g>
     <g id="line2d_24">
      <g>
       <use xlink:href="#m4b12550a78" x="90" y="52.330385" style="stroke: #000000; stroke-width: 0.8"/>
      </g>
     </g>
     <g id="text_13">
      <!-- 0.60 -->
      <g transform="translate(60.734375 56.129604) scale(0.1 -0.1)">
       <defs>
        <path id="DejaVuSans-36" d="M 2113 2584 
Q 1688 2584 1439 2293 
Q 1191 2003 1191 1497 
Q 1191 994 1439 701 
Q 1688 409 2113 409 
Q 2538 409 2786 701 
Q 3034 994 3034 1497 
Q 3034 2003 2786 2293 
Q 2538 2584 2113 2584 
z
M 3366 4563 
L 3366 3988 
Q 3128 4100 2886 4159 
Q 2644 4219 2406 4219 
Q 1781 4219 1451 3797 
Q 1122 3375 1075 2522 
Q 1259 2794 1537 2939 
Q 1816 3084 2150 3084 
Q 2853 3084 3261 2657 
Q 3669 2231 3669 1497 
Q 3669 778 3244 343 
Q 2819 -91 2113 -91 
Q 1303 -91 875 529 
Q 447 1150 447 2328 
Q 447 3434 972 4092 
Q 1497 4750 2381 4750 
Q 2619 4750 2861 4703 
Q 3103 4656 3366 4563 
z
" transform="scale(0.015625)"/>
       </defs>
       <use xlink:href="#DejaVuSans-30"/>
       <use xlink:href="#DejaVuSans-2e" x="63.623047"/>
       <use xlink:href="#DejaVuSans-36" x="95.410156"/>
       <use xlink:href="#DejaVuSans-30" x="159.033203"/>
      </g>
     </g>
    </g>
    <g id="text_14">
     <!-- accruacy -->
     <g transform="translate(54.654687 204.359375) rotate(-90) scale(0.1 -0.1)">
      <defs>
       <path id="DejaVuSans-61" d="M 2194 1759 
Q 1497 1759 1228 1600 
Q 959 1441 959 1056 
Q 959 750 1161 570 
Q 1363 391 1709 391 
Q 2188 391 2477 730 
Q 2766 1069 2766 1631 
L 2766 1759 
L 2194 1759 
z
M 3341 1997 
L 3341 0 
L 2766 0 
L 2766 531 
Q 2569 213 2275 61 
Q 1981 -91 1556 -91 
Q 1019 -91 701 211 
Q 384 513 384 1019 
Q 384 1609 779 1909 
Q 1175 2209 1959 2209 
L 2766 2209 
L 2766 2266 
Q 2766 2663 2505 2880 
Q 2244 3097 1772 3097 
Q 1472 3097 1187 3025 
Q 903 2953 641 2809 
L 641 3341 
Q 956 3463 1253 3523 
Q 1550 3584 1831 3584 
Q 2591 3584 2966 3190 
Q 3341 2797 3341 1997 
z
" transform="scale(0.015625)"/>
       <path id="DejaVuSans-72" d="M 2631 2963 
Q 2534 3019 2420 3045 
Q 2306 3072 2169 3072 
Q 1681 3072 1420 2755 
Q 1159 2438 1159 1844 
L 1159 0 
L 581 0 
L 581 3500 
L 1159 3500 
L 1159 2956 
Q 1341 3275 1631 3429 
Q 1922 3584 2338 3584 
Q 2397 3584 2469 3576 
Q 2541 3569 2628 3553 
L 2631 2963 
z
" transform="scale(0.015625)"/>
       <path id="DejaVuSans-75" d="M 544 1381 
L 544 3500 
L 1119 3500 
L 1119 1403 
Q 1119 906 1312 657 
Q 1506 409 1894 409 
Q 2359 409 2629 706 
Q 2900 1003 2900 1516 
L 2900 3500 
L 3475 3500 
L 3475 0 
L 2900 0 
L 2900 538 
Q 2691 219 2414 64 
Q 2138 -91 1772 -91 
Q 1169 -91 856 284 
Q 544 659 544 1381 
z
M 1991 3584 
L 1991 3584 
z
" transform="scale(0.015625)"/>
       <path id="DejaVuSans-79" d="M 2059 -325 
Q 1816 -950 1584 -1140 
Q 1353 -1331 966 -1331 
L 506 -1331 
L 506 -850 
L 844 -850 
Q 1081 -850 1212 -737 
Q 1344 -625 1503 -206 
L 1606 56 
L 191 3500 
L 800 3500 
L 1894 763 
L 2988 3500 
L 3597 3500 
L 2059 -325 
z
" transform="scale(0.015625)"/>
      </defs>
      <use xlink:href="#DejaVuSans-61"/>
      <use xlink:href="#DejaVuSans-63" x="61.279297"/>
      <use xlink:href="#DejaVuSans-63" x="116.259766"/>
      <use xlink:href="#DejaVuSans-72" x="171.240234"/>
      <use xlink:href="#DejaVuSans-75" x="212.353516"/>
      <use xlink:href="#DejaVuSans-61" x="275.732422"/>
      <use xlink:href="#DejaVuSans-63" x="337.011719"/>
      <use xlink:href="#DejaVuSans-79" x="391.992188"/>
     </g>
    </g>
   </g>
   <g id="line2d_25">
    <path d="M 115.363636 307.8 
L 117.396794 240.027766 
L 118.413372 152.14809 
L 119.429951 101.217329 
L 120.446529 83.066439 
L 121.463108 72.335503 
L 122.479687 69.445755 
L 123.496265 66.044413 
L 124.512844 64.223232 
L 125.529422 63.395515 
L 126.546001 60.505767 
L 127.56258 94.339259 
L 128.579158 269.84273 
L 129.595737 265.65871 
L 130.612316 211.973658 
L 131.628894 216.80487 
L 132.645473 270.655443 
L 133.662051 280.995125 
L 134.67863 251.330621 
L 135.695209 189.382923 
L 136.711787 136.811647 
L 137.728366 138.346825 
L 138.744944 119.533739 
L 139.761523 152.283518 
L 140.778102 176.590041 
L 141.79468 177.703761 
L 142.811259 217.632672 
L 143.827837 159.146528 
L 144.844416 179.916196 
L 145.860995 198.398155 
L 146.877573 203.710983 
L 147.894152 193.431514 
L 148.910731 174.09166 
L 149.927309 169.019655 
L 150.943888 168.5531 
L 151.960466 162.909174 
L 152.977045 133.350064 
L 153.993624 87.3107 
L 155.010202 81.019609 
L 156.026781 200.249343 
L 157.043359 187.591947 
L 158.059938 195.568648 
L 159.076517 268.202215 
L 160.093095 217.978802 
L 161.109674 278.632201 
L 162.126253 269.662121 
L 163.142831 280.739271 
L 164.15941 260.481311 
L 165.175988 269.346054 
L 166.192567 268.879471 
L 167.209146 273.921385 
L 168.225724 274.523425 
L 169.242303 269.090201 
L 170.258881 269.421299 
L 171.27546 272.958154 
L 172.292039 271.498277 
L 173.308617 273.09364 
L 174.325196 275.411383 
L 175.341774 275.275954 
L 176.358353 272.988275 
L 177.374932 262.227191 
L 178.39151 260.872621 
L 179.408089 272.386235 
L 180.424668 264.936273 
L 181.441246 264.379385 
L 182.457825 269.481511 
L 183.474403 259.74387 
L 184.490982 259.51808 
L 185.507561 261.549934 
L 186.524139 260.872621 
L 187.540718 272.52172 
L 188.557296 262.799111 
L 189.573875 273.48495 
L 190.590454 261.519814 
L 191.607032 280.874699 
L 192.623611 266.456363 
L 193.640189 271.091906 
L 194.656768 280.498449 
L 195.673347 264.936273 
L 197.706504 275.020072 
L 198.723083 276.163912 
L 199.739661 274.854523 
L 200.75624 269.315962 
L 201.772818 265.598497 
L 202.789397 262.904476 
L 203.805976 271.633705 
L 204.822554 271.633705 
L 205.839133 265.44798 
L 206.855711 269.632 
L 207.87229 262.121854 
L 208.888869 267.841025 
L 209.905447 271.558489 
L 210.922026 262.227191 
L 211.938604 264.304141 
L 213.971762 273.454802 
L 214.98834 261.549934 
L 217.021498 277.804399 
L 218.038076 255.454485 
L 219.054655 260.195365 
L 220.071233 262.227191 
L 221.087812 266.561699 
L 222.104391 260.872621 
L 223.120969 258.840824 
L 224.137548 259.51808 
L 225.154126 263.581732 
L 226.170705 270.98657 
L 227.187284 266.546668 
L 228.203862 263.581732 
L 229.220441 269.195566 
L 230.237019 265.312523 
L 231.253598 264.845968 
L 232.270177 261.549934 
L 233.286755 260.872621 
L 234.303334 276.224096 
L 235.319913 266.050021 
L 236.336491 276.088668 
L 237.35307 281.115521 
L 238.369648 262.227191 
L 239.386227 277.699062 
L 240.402806 283.613902 
L 241.419384 270.459774 
L 242.435963 271.37788 
L 243.452541 264.274048 
L 244.46912 270.595231 
L 245.485699 271.16715 
L 246.502277 273.454802 
L 247.518856 273.123732 
L 248.535435 269.029988 
L 250.568592 253.618301 
L 251.58517 286.894876 
L 252.601749 264.379385 
L 253.618328 260.872621 
L 254.634906 271.844435 
L 255.651485 268.518281 
L 256.668063 268.172123 
L 257.684642 261.700423 
L 258.701221 265.372736 
L 259.717799 261.549934 
L 260.734378 262.904476 
L 261.750956 277.413117 
L 262.767535 265.598497 
L 263.784114 271.242395 
L 264.800692 264.258988 
L 265.817271 266.561699 
L 266.83385 262.227191 
L 267.850428 263.581732 
L 268.867007 269.948095 
L 269.883585 278.767629 
L 271.916743 260.872621 
L 272.933321 264.274048 
L 273.9499 265.989808 
L 274.966478 272.235746 
L 275.983057 271.121998 
L 276.999636 281.100489 
L 278.016214 269.812609 
L 279.032793 264.153652 
L 280.049371 274.372908 
L 281.06595 277.06693 
L 282.082529 264.153652 
L 283.099107 285.781156 
L 284.115686 273.710684 
L 285.132265 287.030361 
L 286.148843 275.953211 
L 287.165422 266.260722 
L 288.182 260.195365 
L 289.198579 264.936273 
L 290.215158 263.581732 
L 291.231736 258.840824 
L 292.248315 262.904476 
L 293.264893 263.581732 
L 294.281472 274.132115 
L 295.298051 261.549934 
L 296.314629 276.675619 
L 297.331208 264.258988 
L 298.347786 283.35802 
L 299.364365 265.839319 
L 300.380944 260.872621 
L 301.397522 268.412944 
L 302.414101 263.175389 
L 303.43068 268.232335 
L 304.447258 262.844235 
L 305.463837 270.595231 
L 306.480415 265.05667 
L 307.496994 264.951305 
L 309.530151 270.77584 
L 310.54673 260.195365 
L 311.563308 261.549934 
L 312.579887 256.809027 
L 313.596466 267.404533 
L 314.613044 280.272688 
L 315.629623 274.418089 
L 316.646201 264.51487 
L 317.66278 263.762341 
L 318.679359 269.195566 
L 319.695937 257.486283 
L 320.712516 270.520015 
L 321.729095 267.133619 
L 322.745673 262.738898 
L 323.762252 267.765752 
L 324.77883 271.34776 
L 325.795409 276.269277 
L 326.811988 272.596936 
L 327.828566 281.356315 
L 328.845145 284.170762 
L 329.861723 278.993419 
L 330.878302 261.023139 
L 331.894881 273.48495 
L 332.911459 283.493505 
L 333.928038 278.782689 
L 334.944617 266.877766 
L 336.977774 268.653738 
L 337.994352 268.12697 
L 339.010931 270.18886 
L 340.02751 268.337672 
L 341.044088 264.48475 
L 342.060667 276.600375 
L 343.077245 268.69889 
L 344.093824 266.591792 
L 345.110403 273.590287 
L 346.126981 276.269277 
L 347.14356 267.344321 
L 348.160138 261.549934 
L 349.176717 259.51808 
L 350.193296 263.626856 
L 351.209874 259.51808 
L 352.226453 270.700624 
L 353.243032 269.767485 
L 354.25961 271.9498 
L 355.276189 261.549934 
L 356.292767 271.558489 
L 357.309346 267.55505 
L 358.325925 258.840824 
L 359.342503 264.258988 
L 360.359082 256.131742 
L 361.37566 274.523425 
L 362.392239 268.443036 
L 363.408818 261.26396 
L 364.425396 258.389301 
L 365.441975 262.904476 
L 366.458553 271.663826 
L 367.475132 268.518281 
L 368.491711 257.486283 
L 369.508289 267.088495 
L 370.524868 284.035305 
L 371.541447 266.847674 
L 372.558025 268.458068 
L 373.574604 267.871117 
L 374.591182 271.588582 
L 375.607761 278.737537 
L 376.62434 276.555223 
L 377.640918 283.102195 
L 378.657497 266.817582 
L 379.674075 265.628589 
L 380.690654 269.84273 
L 381.707233 272.807666 
L 382.723811 279.95665 
L 383.74039 267.464746 
L 384.756968 273.66556 
L 385.773547 262.483016 
L 386.790126 268.307551 
L 387.806704 265.613529 
L 388.823283 285.284509 
L 389.839862 270.851084 
L 390.85644 280.814515 
L 392.889597 263.837586 
L 393.906176 287.602281 
L 394.922755 276.886321 
L 395.939333 268.593525 
L 396.955912 262.227191 
L 397.97249 268.48816 
L 398.989069 275.456535 
L 400.005648 270.98657 
L 401.022226 278.090373 
L 402.038805 279.174 
L 403.055383 267.600203 
L 404.071962 266.095144 
L 405.088541 269.526664 
L 406.105119 286.63905 
L 407.121698 259.51808 
L 408.138277 273.981597 
L 409.154855 268.367764 
L 410.171434 278.21077 
L 411.188012 258.479605 
L 412.204591 280.212475 
L 413.22117 268.834347 
L 414.237748 270.23404 
L 415.254327 281.386435 
L 416.270905 266.125265 
L 417.287484 264.334261 
L 418.304063 272.416355 
L 419.320641 273.168856 
L 420.33722 264.725572 
L 421.353799 284.53198 
L 422.370377 264.304141 
L 423.386956 261.549934 
L 424.403534 266.050021 
L 425.420113 266.591792 
L 426.436692 269.376175 
L 427.45327 260.917802 
L 428.469849 265.568405 
L 429.486427 273.81602 
L 430.503006 289.001974 
L 431.519585 273.349465 
L 432.536163 291.96691 
L 433.552742 261.309113 
L 434.56932 277.533485 
L 435.585899 269.632 
L 436.602478 265.733926 
L 437.619056 271.558489 
L 438.635635 257.772257 
L 439.652214 271.9498 
L 440.668792 264.51487 
L 441.685371 261.971337 
L 442.701949 275.125437 
L 443.718528 283.990152 
L 444.735107 268.202215 
L 445.751685 266.155357 
L 446.768264 263.837586 
L 447.784842 268.774135 
L 448.801421 272.627056 
L 449.818 275.953211 
L 450.834578 296.211114 
L 451.851157 269.948095 
L 452.867735 281.567044 
L 453.884314 269.526664 
L 454.900893 270.730688 
L 455.917471 281.281099 
L 456.93405 273.515042 
L 457.950629 277.62379 
L 458.967207 275.892998 
L 459.983786 269.556784 
L 461.000364 264.695479 
L 462.016943 279.565339 
L 463.033522 262.19707 
L 464.0501 273.996629 
L 465.066679 266.817582 
L 466.083257 270.625351 
L 467.099836 275.877966 
L 468.116415 276.780984 
L 469.132993 262.227191 
L 470.149572 270.595231 
L 471.16615 269.27081 
L 472.182729 280.814515 
L 473.199308 276.163912 
L 474.215886 269.767485 
L 475.232465 264.981425 
L 476.249044 268.202215 
L 477.265622 276.269277 
L 478.282201 264.845968 
L 479.298779 265.628589 
L 480.315358 258.163568 
L 481.331937 256.222046 
L 482.348515 264.87606 
L 483.365094 268.518281 
L 484.381672 263.55164 
L 485.398251 279.459946 
L 486.41483 262.904476 
L 487.431408 276.630495 
L 488.447987 267.238984 
L 489.464565 266.772401 
L 490.481144 276.70574 
L 491.497723 280.814515 
L 492.514301 264.906181 
L 493.53088 261.986369 
L 494.547459 260.872621 
L 495.564037 263.762341 
L 496.580616 284.592164 
L 497.597194 290.356515 
L 498.613773 279.700768 
L 499.630352 266.772401 
L 500.64693 265.613529 
L 501.663509 277.27766 
L 502.680087 270.670475 
L 503.696666 282.138964 
L 504.713245 266.050021 
L 505.729823 269.029988 
L 506.746402 275.486656 
L 507.762981 272.235746 
L 508.779559 262.618501 
L 509.796138 265.402828 
L 510.812716 264.665359 
L 511.829295 271.889587 
L 512.845874 263.882738 
L 513.862452 269.707273 
L 514.879031 277.021806 
L 515.895609 268.909591 
L 516.912188 263.054936 
L 517.928767 259.668597 
L 518.945345 281.567044 
L 519.961924 277.533485 
L 520.978502 267.314229 
L 521.995081 271.302607 
L 523.01166 279.896437 
L 524.028238 257.486283 
L 525.044817 266.983159 
L 526.061396 267.841025 
L 527.077974 273.349465 
L 528.094553 271.799283 
L 529.111131 262.738898 
L 530.12771 266.351027 
L 531.144289 263.71716 
L 532.160867 292.042126 
L 533.177446 276.630495 
L 534.194024 275.125437 
L 535.210603 276.916441 
L 536.227182 270.881176 
L 537.24376 276.735832 
L 538.260339 281.672409 
L 539.276917 264.12356 
L 540.293496 276.946533 
L 541.310075 285.389874 
L 542.326653 270.77584 
L 543.343232 265.869411 
L 544.359811 264.274048 
L 545.376389 279.670676 
L 546.392968 269.571816 
L 547.409546 277.66897 
L 549.442704 261.489722 
L 550.459282 268.924652 
L 551.475861 265.779107 
L 552.492439 267.269105 
L 553.509018 279.098756 
L 554.525597 273.123732 
L 555.542175 259.51808 
L 556.558754 260.872621 
L 557.575332 278.270982 
L 558.591911 269.692213 
L 559.60849 278.316106 
L 560.625068 271.769191 
L 561.641647 274.523425 
L 562.658226 276.449886 
L 563.674804 268.412944 
L 564.691383 267.55505 
L 565.707961 271.37788 
L 566.72454 262.227191 
L 567.741119 274.177239 
L 568.757697 270.128704 
L 569.774276 268.563433 
L 570.790854 266.652004 
L 571.807433 287.21097 
L 572.824012 258.163568 
L 573.84059 265.944656 
L 574.857169 272.025016 
L 575.873747 274.101994 
L 576.890326 267.494838 
L 577.906905 278.135554 
L 578.923483 280.423205 
L 579.940062 278.782689 
L 580.956641 277.608758 
L 581.973219 275.591992 
L 582.989798 277.383024 
L 584.006376 274.704034 
L 585.022955 262.904476 
L 586.039534 266.125265 
L 587.056112 264.198776 
L 588.072691 273.710684 
L 589.089269 257.486283 
L 590.105848 261.26396 
L 591.122427 281.988447 
L 592.139005 262.121854 
L 593.155584 274.568549 
L 594.172163 269.045048 
L 595.188741 280.242595 
L 596.20532 269.948095 
L 597.221898 273.66556 
L 598.238477 272.627056 
L 599.255056 268.307551 
L 600.271634 258.976309 
L 601.288213 270.20392 
L 602.304791 260.195365 
L 603.32137 269.346054 
L 604.337949 266.200481 
L 605.354527 260.195365 
L 606.371106 273.800988 
L 607.387684 277.383024 
L 608.404263 260.872621 
L 610.43742 256.628417 
L 611.453999 271.453096 
L 612.470578 278.060281 
L 613.487156 276.630495 
L 614.503735 283.102195 
L 615.520313 268.021605 
L 616.536892 276.058576 
L 617.553471 281.070341 
L 618.570049 270.655443 
L 619.586628 272.988275 
L 620.603206 267.028283 
L 621.619785 274.05687 
L 622.636364 266.200481 
L 622.636364 266.200481 
" clip-path="url(#p329240acf4)" style="fill: none; stroke: #1f77b4; stroke-width: 1.5; stroke-linecap: square"/>
   </g>
   <g id="line2d_26">
    <path d="M 115.363636 237.479213 
L 117.396794 237.479213 
L 118.413372 79.248629 
L 119.429951 80.96436 
L 121.463108 61.328549 
L 122.479687 68.763479 
L 123.496265 57.706381 
L 124.512844 60.756658 
L 125.529422 55.8 
L 126.546001 55.8 
L 127.56258 237.479213 
L 129.595737 237.479213 
L 130.612316 87.827399 
L 131.628894 237.479213 
L 132.645473 302.105902 
L 133.662051 302.105902 
L 134.67863 237.479213 
L 135.695209 119.854797 
L 136.711787 94.499787 
L 137.728366 181.621887 
L 138.744944 190.391306 
L 139.761523 113.563707 
L 140.778102 222.799975 
L 141.79468 291.048832 
L 142.811259 179.906155 
L 143.827837 148.450677 
L 144.844416 216.508913 
L 145.860995 140.825097 
L 146.877573 232.522584 
L 147.894152 215.365045 
L 148.910731 167.514596 
L 149.927309 140.253206 
L 150.943888 153.597927 
L 151.960466 127.48032 
L 153.993624 81.917551 
L 155.010202 93.355948 
L 156.026781 237.479213 
L 157.043359 237.479213 
L 158.059938 140.825097 
L 159.076517 237.479213 
L 160.093095 237.479213 
L 161.109674 302.105902 
L 162.126253 237.479213 
L 163.142831 302.105902 
L 164.15941 237.479213 
L 179.408089 237.479213 
L 180.424668 302.105902 
L 181.441246 237.479213 
L 185.507561 237.479213 
L 186.524139 302.105902 
L 187.540718 237.479213 
L 188.557296 302.105902 
L 189.573875 237.479213 
L 190.590454 302.105902 
L 191.607032 237.479213 
L 197.706504 237.479213 
L 198.723083 302.105902 
L 199.739661 237.479213 
L 206.855711 237.479213 
L 207.87229 302.105902 
L 208.888869 237.479213 
L 233.286755 237.479213 
L 234.303334 302.105902 
L 235.319913 237.479213 
L 249.552013 237.479213 
L 250.568592 302.105902 
L 251.58517 237.479213 
L 263.784114 237.479213 
L 264.800692 302.105902 
L 265.817271 237.479213 
L 274.966478 237.479213 
L 275.983057 302.105902 
L 276.999636 237.479213 
L 278.016214 237.479213 
L 279.032793 302.105902 
L 280.049371 237.479213 
L 281.06595 237.479213 
L 282.082529 302.105902 
L 284.115686 302.105902 
L 285.132265 237.479213 
L 307.496994 237.479213 
L 308.513573 302.105902 
L 309.530151 237.479213 
L 312.579887 237.479213 
L 313.596466 302.105902 
L 314.613044 302.105902 
L 315.629623 237.479213 
L 316.646201 237.479213 
L 317.66278 302.105902 
L 318.679359 237.479213 
L 322.745673 237.479213 
L 323.762252 302.105902 
L 324.77883 237.479213 
L 325.795409 302.105902 
L 326.811988 302.105902 
L 327.828566 237.479213 
L 328.845145 302.105902 
L 329.861723 237.479213 
L 339.010931 237.479213 
L 340.02751 302.105902 
L 341.044088 302.105902 
L 342.060667 237.479213 
L 344.093824 237.479213 
L 345.110403 302.105902 
L 346.126981 237.479213 
L 362.392239 237.479213 
L 363.408818 302.105902 
L 364.425396 237.479213 
L 373.574604 237.479213 
L 374.591182 302.105902 
L 375.607761 302.105902 
L 376.62434 237.479213 
L 390.85644 237.479213 
L 391.873019 302.105902 
L 392.889597 302.105902 
L 393.906176 237.479213 
L 407.121698 237.479213 
L 408.138277 302.105902 
L 409.154855 237.479213 
L 410.171434 237.479213 
L 411.188012 302.105902 
L 412.204591 237.479213 
L 416.270905 237.479213 
L 417.287484 302.105902 
L 418.304063 302.105902 
L 419.320641 237.479213 
L 420.33722 302.105902 
L 421.353799 237.479213 
L 423.386956 237.479213 
L 424.403534 302.105902 
L 425.420113 237.479213 
L 426.436692 302.105902 
L 427.45327 237.479213 
L 428.469849 237.479213 
L 429.486427 302.105902 
L 430.503006 237.479213 
L 431.519585 302.105902 
L 432.536163 237.479213 
L 438.635635 237.479213 
L 439.652214 302.105902 
L 440.668792 237.479213 
L 441.685371 302.105902 
L 442.701949 302.105902 
L 443.718528 237.479213 
L 444.735107 237.479213 
L 445.751685 302.105902 
L 446.768264 237.479213 
L 455.917471 237.479213 
L 456.93405 302.105902 
L 457.950629 237.479213 
L 470.149572 237.479213 
L 471.16615 302.105902 
L 473.199308 237.479213 
L 488.447987 237.479213 
L 489.464565 302.105902 
L 490.481144 237.479213 
L 491.497723 237.479213 
L 492.514301 302.105902 
L 493.53088 237.479213 
L 494.547459 237.479213 
L 495.564037 302.105902 
L 496.580616 237.479213 
L 499.630352 237.479213 
L 500.64693 302.105902 
L 504.713245 302.105902 
L 505.729823 237.479213 
L 506.746402 302.105902 
L 507.762981 237.479213 
L 508.779559 302.105902 
L 509.796138 237.479213 
L 513.862452 237.479213 
L 514.879031 302.105902 
L 515.895609 237.479213 
L 516.912188 237.479213 
L 517.928767 302.105902 
L 518.945345 302.105902 
L 519.961924 237.479213 
L 530.12771 237.479213 
L 531.144289 302.105902 
L 534.194024 302.105902 
L 535.210603 237.479213 
L 551.475861 237.479213 
L 552.492439 302.105902 
L 553.509018 237.479213 
L 557.575332 237.479213 
L 558.591911 302.105902 
L 559.60849 237.479213 
L 560.625068 302.105902 
L 561.641647 237.479213 
L 573.84059 237.479213 
L 574.857169 302.105902 
L 575.873747 237.479213 
L 576.890326 237.479213 
L 577.906905 302.105902 
L 578.923483 237.479213 
L 591.122427 237.479213 
L 592.139005 302.105902 
L 593.155584 237.479213 
L 594.172163 302.105902 
L 595.188741 237.479213 
L 596.20532 302.105902 
L 597.221898 302.105902 
L 598.238477 237.479213 
L 602.304791 237.479213 
L 603.32137 302.105902 
L 604.337949 237.479213 
L 605.354527 237.479213 
L 606.371106 302.105902 
L 607.387684 237.479213 
L 609.420842 237.479213 
L 610.43742 302.105902 
L 611.453999 237.479213 
L 612.470578 237.479213 
L 613.487156 302.105902 
L 614.503735 302.105902 
L 615.520313 237.479213 
L 618.570049 237.479213 
L 619.586628 302.105902 
L 620.603206 237.479213 
L 621.619785 302.105902 
L 622.636364 302.105902 
L 622.636364 302.105902 
" clip-path="url(#p329240acf4)" style="fill: none; stroke: #ff7f0e; stroke-width: 1.5; stroke-linecap: square"/>
   </g>
   <g id="patch_3">
    <path d="M 90 320.4 
L 90 43.2 
" style="fill: none; stroke: #000000; stroke-width: 0.8; stroke-linejoin: miter; stroke-linecap: square"/>
   </g>
   <g id="patch_4">
    <path d="M 648 320.4 
L 648 43.2 
" style="fill: none; stroke: #000000; stroke-width: 0.8; stroke-linejoin: miter; stroke-linecap: square"/>
   </g>
   <g id="patch_5">
    <path d="M 90 320.4 
L 648 320.4 
" style="fill: none; stroke: #000000; stroke-width: 0.8; stroke-linejoin: miter; stroke-linecap: square"/>
   </g>
   <g id="patch_6">
    <path d="M 90 43.2 
L 648 43.2 
" style="fill: none; stroke: #000000; stroke-width: 0.8; stroke-linejoin: miter; stroke-linecap: square"/>
   </g>
   <g id="text_15">
    <!-- model train and validation accracy over time -->
    <g transform="translate(233.87625 37.2) scale(0.12 -0.12)">
     <defs>
      <path id="DejaVuSans-6d" d="M 3328 2828 
Q 3544 3216 3844 3400 
Q 4144 3584 4550 3584 
Q 5097 3584 5394 3201 
Q 5691 2819 5691 2113 
L 5691 0 
L 5113 0 
L 5113 2094 
Q 5113 2597 4934 2840 
Q 4756 3084 4391 3084 
Q 3944 3084 3684 2787 
Q 3425 2491 3425 1978 
L 3425 0 
L 2847 0 
L 2847 2094 
Q 2847 2600 2669 2842 
Q 2491 3084 2119 3084 
Q 1678 3084 1418 2786 
Q 1159 2488 1159 1978 
L 1159 0 
L 581 0 
L 581 3500 
L 1159 3500 
L 1159 2956 
Q 1356 3278 1631 3431 
Q 1906 3584 2284 3584 
Q 2666 3584 2933 3390 
Q 3200 3197 3328 2828 
z
" transform="scale(0.015625)"/>
      <path id="DejaVuSans-64" d="M 2906 2969 
L 2906 4863 
L 3481 4863 
L 3481 0 
L 2906 0 
L 2906 525 
Q 2725 213 2448 61 
Q 2172 -91 1784 -91 
Q 1150 -91 751 415 
Q 353 922 353 1747 
Q 353 2572 751 3078 
Q 1150 3584 1784 3584 
Q 2172 3584 2448 3432 
Q 2725 3281 2906 2969 
z
M 947 1747 
Q 947 1113 1208 752 
Q 1469 391 1925 391 
Q 2381 391 2643 752 
Q 2906 1113 2906 1747 
Q 2906 2381 2643 2742 
Q 2381 3103 1925 3103 
Q 1469 3103 1208 2742 
Q 947 2381 947 1747 
z
" transform="scale(0.015625)"/>
      <path id="DejaVuSans-6c" d="M 603 4863 
L 1178 4863 
L 1178 0 
L 603 0 
L 603 4863 
z
" transform="scale(0.015625)"/>
      <path id="DejaVuSans-20" transform="scale(0.015625)"/>
      <path id="DejaVuSans-74" d="M 1172 4494 
L 1172 3500 
L 2356 3500 
L 2356 3053 
L 1172 3053 
L 1172 1153 
Q 1172 725 1289 603 
Q 1406 481 1766 481 
L 2356 481 
L 2356 0 
L 1766 0 
Q 1100 0 847 248 
Q 594 497 594 1153 
L 594 3053 
L 172 3053 
L 172 3500 
L 594 3500 
L 594 4494 
L 1172 4494 
z
" transform="scale(0.015625)"/>
      <path id="DejaVuSans-69" d="M 603 3500 
L 1178 3500 
L 1178 0 
L 603 0 
L 603 3500 
z
M 603 4863 
L 1178 4863 
L 1178 4134 
L 603 4134 
L 603 4863 
z
" transform="scale(0.015625)"/>
      <path id="DejaVuSans-6e" d="M 3513 2113 
L 3513 0 
L 2938 0 
L 2938 2094 
Q 2938 2591 2744 2837 
Q 2550 3084 2163 3084 
Q 1697 3084 1428 2787 
Q 1159 2491 1159 1978 
L 1159 0 
L 581 0 
L 581 3500 
L 1159 3500 
L 1159 2956 
Q 1366 3272 1645 3428 
Q 1925 3584 2291 3584 
Q 2894 3584 3203 3211 
Q 3513 2838 3513 2113 
z
" transform="scale(0.015625)"/>
      <path id="DejaVuSans-76" d="M 191 3500 
L 800 3500 
L 1894 563 
L 2988 3500 
L 3597 3500 
L 2284 0 
L 1503 0 
L 191 3500 
z
" transform="scale(0.015625)"/>
     </defs>
     <use xlink:href="#DejaVuSans-6d"/>
     <use xlink:href="#DejaVuSans-6f" x="97.412109"/>
     <use xlink:href="#DejaVuSans-64" x="158.59375"/>
     <use xlink:href="#DejaVuSans-65" x="222.070312"/>
     <use xlink:href="#DejaVuSans-6c" x="283.59375"/>
     <use xlink:href="#DejaVuSans-20" x="311.376953"/>
     <use xlink:href="#DejaVuSans-74" x="343.164062"/>
     <use xlink:href="#DejaVuSans-72" x="382.373047"/>
     <use xlink:href="#DejaVuSans-61" x="423.486328"/>
     <use xlink:href="#DejaVuSans-69" x="484.765625"/>
     <use xlink:href="#DejaVuSans-6e" x="512.548828"/>
     <use xlink:href="#DejaVuSans-20" x="575.927734"/>
     <use xlink:href="#DejaVuSans-61" x="607.714844"/>
     <use xlink:href="#DejaVuSans-6e" x="668.994141"/>
     <use xlink:href="#DejaVuSans-64" x="732.373047"/>
     <use xlink:href="#DejaVuSans-20" x="795.849609"/>
     <use xlink:href="#DejaVuSans-76" x="827.636719"/>
     <use xlink:href="#DejaVuSans-61" x="886.816406"/>
     <use xlink:href="#DejaVuSans-6c" x="948.095703"/>
     <use xlink:href="#DejaVuSans-69" x="975.878906"/>
     <use xlink:href="#DejaVuSans-64" x="1003.662109"/>
     <use xlink:href="#DejaVuSans-61" x="1067.138672"/>
     <use xlink:href="#DejaVuSans-74" x="1128.417969"/>
     <use xlink:href="#DejaVuSans-69" x="1167.626953"/>
     <use xlink:href="#DejaVuSans-6f" x="1195.410156"/>
     <use xlink:href="#DejaVuSans-6e" x="1256.591797"/>
     <use xlink:href="#DejaVuSans-20" x="1319.970703"/>
     <use xlink:href="#DejaVuSans-61" x="1351.757812"/>
     <use xlink:href="#DejaVuSans-63" x="1413.037109"/>
     <use xlink:href="#DejaVuSans-63" x="1468.017578"/>
     <use xlink:href="#DejaVuSans-72" x="1522.998047"/>
     <use xlink:href="#DejaVuSans-61" x="1564.111328"/>
     <use xlink:href="#DejaVuSans-63" x="1625.390625"/>
     <use xlink:href="#DejaVuSans-79" x="1680.371094"/>
     <use xlink:href="#DejaVuSans-20" x="1739.550781"/>
     <use xlink:href="#DejaVuSans-6f" x="1771.337891"/>
     <use xlink:href="#DejaVuSans-76" x="1832.519531"/>
     <use xlink:href="#DejaVuSans-65" x="1891.699219"/>
     <use xlink:href="#DejaVuSans-72" x="1953.222656"/>
     <use xlink:href="#DejaVuSans-20" x="1994.335938"/>
     <use xlink:href="#DejaVuSans-74" x="2026.123047"/>
     <use xlink:href="#DejaVuSans-69" x="2065.332031"/>
     <use xlink:href="#DejaVuSans-6d" x="2093.115234"/>
     <use xlink:href="#DejaVuSans-65" x="2190.527344"/>
    </g>
   </g>
   <g id="legend_1">
    <g id="patch_7">
     <path d="M 559.765625 80.55625 
L 641 80.55625 
Q 643 80.55625 643 78.55625 
L 643 50.2 
Q 643 48.2 641 48.2 
L 559.765625 48.2 
Q 557.765625 48.2 557.765625 50.2 
L 557.765625 78.55625 
Q 557.765625 80.55625 559.765625 80.55625 
z
" style="fill: #ffffff; opacity: 0.8; stroke: #cccccc; stroke-linejoin: miter"/>
    </g>
    <g id="line2d_27">
     <path d="M 561.765625 56.298437 
L 571.765625 56.298437 
L 581.765625 56.298437 
" style="fill: none; stroke: #1f77b4; stroke-width: 1.5; stroke-linecap: square"/>
    </g>
    <g id="text_16">
     <!-- train -->
     <g transform="translate(589.765625 59.798437) scale(0.1 -0.1)">
      <use xlink:href="#DejaVuSans-74"/>
      <use xlink:href="#DejaVuSans-72" x="39.208984"/>
      <use xlink:href="#DejaVuSans-61" x="80.322266"/>
      <use xlink:href="#DejaVuSans-69" x="141.601562"/>
      <use xlink:href="#DejaVuSans-6e" x="169.384766"/>
     </g>
    </g>
    <g id="line2d_28">
     <path d="M 561.765625 70.976562 
L 571.765625 70.976562 
L 581.765625 70.976562 
" style="fill: none; stroke: #ff7f0e; stroke-width: 1.5; stroke-linecap: square"/>
    </g>
    <g id="text_17">
     <!-- validation -->
     <g transform="translate(589.765625 74.476562) scale(0.1 -0.1)">
      <use xlink:href="#DejaVuSans-76"/>
      <use xlink:href="#DejaVuSans-61" x="59.179688"/>
      <use xlink:href="#DejaVuSans-6c" x="120.458984"/>
      <use xlink:href="#DejaVuSans-69" x="148.242188"/>
      <use xlink:href="#DejaVuSans-64" x="176.025391"/>
      <use xlink:href="#DejaVuSans-61" x="239.501953"/>
      <use xlink:href="#DejaVuSans-74" x="300.78125"/>
      <use xlink:href="#DejaVuSans-69" x="339.990234"/>
      <use xlink:href="#DejaVuSans-6f" x="367.773438"/>
      <use xlink:href="#DejaVuSans-6e" x="428.955078"/>
     </g>
    </g>
   </g>
  </g>
 </g>
 <defs>
  <clipPath id="p329240acf4">
   <rect x="90" y="43.2" width="558" height="277.2"/>
  </clipPath>
 </defs>
</svg>
