<?xml version="1.0" encoding="utf-8" standalone="no"?>
<!DOCTYPE svg PUBLIC "-//W3C//DTD SVG 1.1//EN"
  "http://www.w3.org/Graphics/SVG/1.1/DTD/svg11.dtd">
<svg xmlns:xlink="http://www.w3.org/1999/xlink" width="720pt" height="360pt" viewBox="0 0 720 360" xmlns="http://www.w3.org/2000/svg" version="1.1">
 <metadata>
  <rdf:RDF xmlns:dc="http://purl.org/dc/elements/1.1/" xmlns:cc="http://creativecommons.org/ns#" xmlns:rdf="http://www.w3.org/1999/02/22-rdf-syntax-ns#">
   <cc:Work>
    <dc:type rdf:resource="http://purl.org/dc/dcmitype/StillImage"/>
    <dc:date>2023-05-24T11:01:35.259582</dc:date>
    <dc:format>image/svg+xml</dc:format>
    <dc:creator>
     <cc:Agent>
      <dc:title>Matplotlib v3.7.1, https://matplotlib.org/</dc:title>
     </cc:Agent>
    </dc:creator>
   </cc:Work>
  </rdf:RDF>
 </metadata>
 <defs>
  <style type="text/css">*{stroke-linejoin: round; stroke-linecap: butt}</style>
 </defs>
 <g id="figure_1">
  <g id="patch_1">
   <path d="M 0 360 
L 720 360 
L 720 0 
L 0 0 
z
" style="fill: #ffffff"/>
  </g>
  <g id="axes_1">
   <g id="patch_2">
    <path d="M 90 320.4 
L 648 320.4 
L 648 43.2 
L 90 43.2 
z
" style="fill: #ffffff"/>
   </g>
   <g id="matplotlib.axis_1">
    <g id="xtick_1">
     <g id="line2d_1">
      <path d="M 115.363636 320.4 
L 115.363636 43.2 
" clip-path="url(#p785ca38250)" style="fill: none; stroke: #b0b0b0; stroke-width: 0.8; stroke-linecap: square"/>
     </g>
     <g id="line2d_2">
      <defs>
       <path id="mbecf0cc67a" d="M 0 0 
L 0 3.5 
" style="stroke: #000000; stroke-width: 0.8"/>
      </defs>
      <g>
       <use xlink:href="#mbecf0cc67a" x="115.363636" y="320.4" style="stroke: #000000; stroke-width: 0.8"/>
      </g>
     </g>
     <g id="text_1">
      <!-- 0 -->
      <g transform="translate(112.182386 334.998438) scale(0.1 -0.1)">
       <defs>
        <path id="DejaVuSans-30" d="M 2034 4250 
Q 1547 4250 1301 3770 
Q 1056 3291 1056 2328 
Q 1056 1369 1301 889 
Q 1547 409 2034 409 
Q 2525 409 2770 889 
Q 3016 1369 3016 2328 
Q 3016 3291 2770 3770 
Q 2525 4250 2034 4250 
z
M 2034 4750 
Q 2819 4750 3233 4129 
Q 3647 3509 3647 2328 
Q 3647 1150 3233 529 
Q 2819 -91 2034 -91 
Q 1250 -91 836 529 
Q 422 1150 422 2328 
Q 422 3509 836 4129 
Q 1250 4750 2034 4750 
z
" transform="scale(0.015625)"/>
       </defs>
       <use xlink:href="#DejaVuSans-30"/>
      </g>
     </g>
    </g>
    <g id="xtick_2">
     <g id="line2d_3">
      <path d="M 217.021498 320.4 
L 217.021498 43.2 
" clip-path="url(#p785ca38250)" style="fill: none; stroke: #b0b0b0; stroke-width: 0.8; stroke-linecap: square"/>
     </g>
     <g id="line2d_4">
      <g>
       <use xlink:href="#mbecf0cc67a" x="217.021498" y="320.4" style="stroke: #000000; stroke-width: 0.8"/>
      </g>
     </g>
     <g id="text_2">
      <!-- 100 -->
      <g transform="translate(207.477748 334.998438) scale(0.1 -0.1)">
       <defs>
        <path id="DejaVuSans-31" d="M 794 531 
L 1825 531 
L 1825 4091 
L 703 3866 
L 703 4441 
L 1819 4666 
L 2450 4666 
L 2450 531 
L 3481 531 
L 3481 0 
L 794 0 
L 794 531 
z
" transform="scale(0.015625)"/>
       </defs>
       <use xlink:href="#DejaVuSans-31"/>
       <use xlink:href="#DejaVuSans-30" x="63.623047"/>
       <use xlink:href="#DejaVuSans-30" x="127.246094"/>
      </g>
     </g>
    </g>
    <g id="xtick_3">
     <g id="line2d_5">
      <path d="M 318.679359 320.4 
L 318.679359 43.2 
" clip-path="url(#p785ca38250)" style="fill: none; stroke: #b0b0b0; stroke-width: 0.8; stroke-linecap: square"/>
     </g>
     <g id="line2d_6">
      <g>
       <use xlink:href="#mbecf0cc67a" x="318.679359" y="320.4" style="stroke: #000000; stroke-width: 0.8"/>
      </g>
     </g>
     <g id="text_3">
      <!-- 200 -->
      <g transform="translate(309.135609 334.998438) scale(0.1 -0.1)">
       <defs>
        <path id="DejaVuSans-32" d="M 1228 531 
L 3431 531 
L 3431 0 
L 469 0 
L 469 531 
Q 828 903 1448 1529 
Q 2069 2156 2228 2338 
Q 2531 2678 2651 2914 
Q 2772 3150 2772 3378 
Q 2772 3750 2511 3984 
Q 2250 4219 1831 4219 
Q 1534 4219 1204 4116 
Q 875 4013 500 3803 
L 500 4441 
Q 881 4594 1212 4672 
Q 1544 4750 1819 4750 
Q 2544 4750 2975 4387 
Q 3406 4025 3406 3419 
Q 3406 3131 3298 2873 
Q 3191 2616 2906 2266 
Q 2828 2175 2409 1742 
Q 1991 1309 1228 531 
z
" transform="scale(0.015625)"/>
       </defs>
       <use xlink:href="#DejaVuSans-32"/>
       <use xlink:href="#DejaVuSans-30" x="63.623047"/>
       <use xlink:href="#DejaVuSans-30" x="127.246094"/>
      </g>
     </g>
    </g>
    <g id="xtick_4">
     <g id="line2d_7">
      <path d="M 420.33722 320.4 
L 420.33722 43.2 
" clip-path="url(#p785ca38250)" style="fill: none; stroke: #b0b0b0; stroke-width: 0.8; stroke-linecap: square"/>
     </g>
     <g id="line2d_8">
      <g>
       <use xlink:href="#mbecf0cc67a" x="420.33722" y="320.4" style="stroke: #000000; stroke-width: 0.8"/>
      </g>
     </g>
     <g id="text_4">
      <!-- 300 -->
      <g transform="translate(410.79347 334.998438) scale(0.1 -0.1)">
       <defs>
        <path id="DejaVuSans-33" d="M 2597 2516 
Q 3050 2419 3304 2112 
Q 3559 1806 3559 1356 
Q 3559 666 3084 287 
Q 2609 -91 1734 -91 
Q 1441 -91 1130 -33 
Q 819 25 488 141 
L 488 750 
Q 750 597 1062 519 
Q 1375 441 1716 441 
Q 2309 441 2620 675 
Q 2931 909 2931 1356 
Q 2931 1769 2642 2001 
Q 2353 2234 1838 2234 
L 1294 2234 
L 1294 2753 
L 1863 2753 
Q 2328 2753 2575 2939 
Q 2822 3125 2822 3475 
Q 2822 3834 2567 4026 
Q 2313 4219 1838 4219 
Q 1578 4219 1281 4162 
Q 984 4106 628 3988 
L 628 4550 
Q 988 4650 1302 4700 
Q 1616 4750 1894 4750 
Q 2613 4750 3031 4423 
Q 3450 4097 3450 3541 
Q 3450 3153 3228 2886 
Q 3006 2619 2597 2516 
z
" transform="scale(0.015625)"/>
       </defs>
       <use xlink:href="#DejaVuSans-33"/>
       <use xlink:href="#DejaVuSans-30" x="63.623047"/>
       <use xlink:href="#DejaVuSans-30" x="127.246094"/>
      </g>
     </g>
    </g>
    <g id="xtick_5">
     <g id="line2d_9">
      <path d="M 521.995081 320.4 
L 521.995081 43.2 
" clip-path="url(#p785ca38250)" style="fill: none; stroke: #b0b0b0; stroke-width: 0.8; stroke-linecap: square"/>
     </g>
     <g id="line2d_10">
      <g>
       <use xlink:href="#mbecf0cc67a" x="521.995081" y="320.4" style="stroke: #000000; stroke-width: 0.8"/>
      </g>
     </g>
     <g id="text_5">
      <!-- 400 -->
      <g transform="translate(512.451331 334.998438) scale(0.1 -0.1)">
       <defs>
        <path id="DejaVuSans-34" d="M 2419 4116 
L 825 1625 
L 2419 1625 
L 2419 4116 
z
M 2253 4666 
L 3047 4666 
L 3047 1625 
L 3713 1625 
L 3713 1100 
L 3047 1100 
L 3047 0 
L 2419 0 
L 2419 1100 
L 313 1100 
L 313 1709 
L 2253 4666 
z
" transform="scale(0.015625)"/>
       </defs>
       <use xlink:href="#DejaVuSans-34"/>
       <use xlink:href="#DejaVuSans-30" x="63.623047"/>
       <use xlink:href="#DejaVuSans-30" x="127.246094"/>
      </g>
     </g>
    </g>
    <g id="xtick_6">
     <g id="line2d_11">
      <path d="M 623.652942 320.4 
L 623.652942 43.2 
" clip-path="url(#p785ca38250)" style="fill: none; stroke: #b0b0b0; stroke-width: 0.8; stroke-linecap: square"/>
     </g>
     <g id="line2d_12">
      <g>
       <use xlink:href="#mbecf0cc67a" x="623.652942" y="320.4" style="stroke: #000000; stroke-width: 0.8"/>
      </g>
     </g>
     <g id="text_6">
      <!-- 500 -->
      <g transform="translate(614.109192 334.998438) scale(0.1 -0.1)">
       <defs>
        <path id="DejaVuSans-35" d="M 691 4666 
L 3169 4666 
L 3169 4134 
L 1269 4134 
L 1269 2991 
Q 1406 3038 1543 3061 
Q 1681 3084 1819 3084 
Q 2600 3084 3056 2656 
Q 3513 2228 3513 1497 
Q 3513 744 3044 326 
Q 2575 -91 1722 -91 
Q 1428 -91 1123 -41 
Q 819 9 494 109 
L 494 744 
Q 775 591 1075 516 
Q 1375 441 1709 441 
Q 2250 441 2565 725 
Q 2881 1009 2881 1497 
Q 2881 1984 2565 2268 
Q 2250 2553 1709 2553 
Q 1456 2553 1204 2497 
Q 953 2441 691 2322 
L 691 4666 
z
" transform="scale(0.015625)"/>
       </defs>
       <use xlink:href="#DejaVuSans-35"/>
       <use xlink:href="#DejaVuSans-30" x="63.623047"/>
       <use xlink:href="#DejaVuSans-30" x="127.246094"/>
      </g>
     </g>
    </g>
    <g id="text_7">
     <!-- epoch -->
     <g transform="translate(353.771875 348.676562) scale(0.1 -0.1)">
      <defs>
       <path id="DejaVuSans-65" d="M 3597 1894 
L 3597 1613 
L 953 1613 
Q 991 1019 1311 708 
Q 1631 397 2203 397 
Q 2534 397 2845 478 
Q 3156 559 3463 722 
L 3463 178 
Q 3153 47 2828 -22 
Q 2503 -91 2169 -91 
Q 1331 -91 842 396 
Q 353 884 353 1716 
Q 353 2575 817 3079 
Q 1281 3584 2069 3584 
Q 2775 3584 3186 3129 
Q 3597 2675 3597 1894 
z
M 3022 2063 
Q 3016 2534 2758 2815 
Q 2500 3097 2075 3097 
Q 1594 3097 1305 2825 
Q 1016 2553 972 2059 
L 3022 2063 
z
" transform="scale(0.015625)"/>
       <path id="DejaVuSans-70" d="M 1159 525 
L 1159 -1331 
L 581 -1331 
L 581 3500 
L 1159 3500 
L 1159 2969 
Q 1341 3281 1617 3432 
Q 1894 3584 2278 3584 
Q 2916 3584 3314 3078 
Q 3713 2572 3713 1747 
Q 3713 922 3314 415 
Q 2916 -91 2278 -91 
Q 1894 -91 1617 61 
Q 1341 213 1159 525 
z
M 3116 1747 
Q 3116 2381 2855 2742 
Q 2594 3103 2138 3103 
Q 1681 3103 1420 2742 
Q 1159 2381 1159 1747 
Q 1159 1113 1420 752 
Q 1681 391 2138 391 
Q 2594 391 2855 752 
Q 3116 1113 3116 1747 
z
" transform="scale(0.015625)"/>
       <path id="DejaVuSans-6f" d="M 1959 3097 
Q 1497 3097 1228 2736 
Q 959 2375 959 1747 
Q 959 1119 1226 758 
Q 1494 397 1959 397 
Q 2419 397 2687 759 
Q 2956 1122 2956 1747 
Q 2956 2369 2687 2733 
Q 2419 3097 1959 3097 
z
M 1959 3584 
Q 2709 3584 3137 3096 
Q 3566 2609 3566 1747 
Q 3566 888 3137 398 
Q 2709 -91 1959 -91 
Q 1206 -91 779 398 
Q 353 888 353 1747 
Q 353 2609 779 3096 
Q 1206 3584 1959 3584 
z
" transform="scale(0.015625)"/>
       <path id="DejaVuSans-63" d="M 3122 3366 
L 3122 2828 
Q 2878 2963 2633 3030 
Q 2388 3097 2138 3097 
Q 1578 3097 1268 2742 
Q 959 2388 959 1747 
Q 959 1106 1268 751 
Q 1578 397 2138 397 
Q 2388 397 2633 464 
Q 2878 531 3122 666 
L 3122 134 
Q 2881 22 2623 -34 
Q 2366 -91 2075 -91 
Q 1284 -91 818 406 
Q 353 903 353 1747 
Q 353 2603 823 3093 
Q 1294 3584 2113 3584 
Q 2378 3584 2631 3529 
Q 2884 3475 3122 3366 
z
" transform="scale(0.015625)"/>
       <path id="DejaVuSans-68" d="M 3513 2113 
L 3513 0 
L 2938 0 
L 2938 2094 
Q 2938 2591 2744 2837 
Q 2550 3084 2163 3084 
Q 1697 3084 1428 2787 
Q 1159 2491 1159 1978 
L 1159 0 
L 581 0 
L 581 4863 
L 1159 4863 
L 1159 2956 
Q 1366 3272 1645 3428 
Q 1925 3584 2291 3584 
Q 2894 3584 3203 3211 
Q 3513 2838 3513 2113 
z
" transform="scale(0.015625)"/>
      </defs>
      <use xlink:href="#DejaVuSans-65"/>
      <use xlink:href="#DejaVuSans-70" x="61.523438"/>
      <use xlink:href="#DejaVuSans-6f" x="125"/>
      <use xlink:href="#DejaVuSans-63" x="186.181641"/>
      <use xlink:href="#DejaVuSans-68" x="241.162109"/>
     </g>
    </g>
   </g>
   <g id="matplotlib.axis_2">
    <g id="ytick_1">
     <g id="line2d_13">
      <path d="M 90 300.957586 
L 648 300.957586 
" clip-path="url(#p785ca38250)" style="fill: none; stroke: #b0b0b0; stroke-width: 0.8; stroke-linecap: square"/>
     </g>
     <g id="line2d_14">
      <defs>
       <path id="meaaaeb8896" d="M 0 0 
L -3.5 0 
" style="stroke: #000000; stroke-width: 0.8"/>
      </defs>
      <g>
       <use xlink:href="#meaaaeb8896" x="90" y="300.957586" style="stroke: #000000; stroke-width: 0.8"/>
      </g>
     </g>
     <g id="text_8">
      <!-- 0.2 -->
      <g transform="translate(67.096875 304.756804) scale(0.1 -0.1)">
       <defs>
        <path id="DejaVuSans-2e" d="M 684 794 
L 1344 794 
L 1344 0 
L 684 0 
L 684 794 
z
" transform="scale(0.015625)"/>
       </defs>
       <use xlink:href="#DejaVuSans-30"/>
       <use xlink:href="#DejaVuSans-2e" x="63.623047"/>
       <use xlink:href="#DejaVuSans-32" x="95.410156"/>
      </g>
     </g>
    </g>
    <g id="ytick_2">
     <g id="line2d_15">
      <path d="M 90 266.716242 
L 648 266.716242 
" clip-path="url(#p785ca38250)" style="fill: none; stroke: #b0b0b0; stroke-width: 0.8; stroke-linecap: square"/>
     </g>
     <g id="line2d_16">
      <g>
       <use xlink:href="#meaaaeb8896" x="90" y="266.716242" style="stroke: #000000; stroke-width: 0.8"/>
      </g>
     </g>
     <g id="text_9">
      <!-- 0.4 -->
      <g transform="translate(67.096875 270.515461) scale(0.1 -0.1)">
       <use xlink:href="#DejaVuSans-30"/>
       <use xlink:href="#DejaVuSans-2e" x="63.623047"/>
       <use xlink:href="#DejaVuSans-34" x="95.410156"/>
      </g>
     </g>
    </g>
    <g id="ytick_3">
     <g id="line2d_17">
      <path d="M 90 232.474898 
L 648 232.474898 
" clip-path="url(#p785ca38250)" style="fill: none; stroke: #b0b0b0; stroke-width: 0.8; stroke-linecap: square"/>
     </g>
     <g id="line2d_18">
      <g>
       <use xlink:href="#meaaaeb8896" x="90" y="232.474898" style="stroke: #000000; stroke-width: 0.8"/>
      </g>
     </g>
     <g id="text_10">
      <!-- 0.6 -->
      <g transform="translate(67.096875 236.274117) scale(0.1 -0.1)">
       <defs>
        <path id="DejaVuSans-36" d="M 2113 2584 
Q 1688 2584 1439 2293 
Q 1191 2003 1191 1497 
Q 1191 994 1439 701 
Q 1688 409 2113 409 
Q 2538 409 2786 701 
Q 3034 994 3034 1497 
Q 3034 2003 2786 2293 
Q 2538 2584 2113 2584 
z
M 3366 4563 
L 3366 3988 
Q 3128 4100 2886 4159 
Q 2644 4219 2406 4219 
Q 1781 4219 1451 3797 
Q 1122 3375 1075 2522 
Q 1259 2794 1537 2939 
Q 1816 3084 2150 3084 
Q 2853 3084 3261 2657 
Q 3669 2231 3669 1497 
Q 3669 778 3244 343 
Q 2819 -91 2113 -91 
Q 1303 -91 875 529 
Q 447 1150 447 2328 
Q 447 3434 972 4092 
Q 1497 4750 2381 4750 
Q 2619 4750 2861 4703 
Q 3103 4656 3366 4563 
z
" transform="scale(0.015625)"/>
       </defs>
       <use xlink:href="#DejaVuSans-30"/>
       <use xlink:href="#DejaVuSans-2e" x="63.623047"/>
       <use xlink:href="#DejaVuSans-36" x="95.410156"/>
      </g>
     </g>
    </g>
    <g id="ytick_4">
     <g id="line2d_19">
      <path d="M 90 198.233555 
L 648 198.233555 
" clip-path="url(#p785ca38250)" style="fill: none; stroke: #b0b0b0; stroke-width: 0.8; stroke-linecap: square"/>
     </g>
     <g id="line2d_20">
      <g>
       <use xlink:href="#meaaaeb8896" x="90" y="198.233555" style="stroke: #000000; stroke-width: 0.8"/>
      </g>
     </g>
     <g id="text_11">
      <!-- 0.8 -->
      <g transform="translate(67.096875 202.032774) scale(0.1 -0.1)">
       <defs>
        <path id="DejaVuSans-38" d="M 2034 2216 
Q 1584 2216 1326 1975 
Q 1069 1734 1069 1313 
Q 1069 891 1326 650 
Q 1584 409 2034 409 
Q 2484 409 2743 651 
Q 3003 894 3003 1313 
Q 3003 1734 2745 1975 
Q 2488 2216 2034 2216 
z
M 1403 2484 
Q 997 2584 770 2862 
Q 544 3141 544 3541 
Q 544 4100 942 4425 
Q 1341 4750 2034 4750 
Q 2731 4750 3128 4425 
Q 3525 4100 3525 3541 
Q 3525 3141 3298 2862 
Q 3072 2584 2669 2484 
Q 3125 2378 3379 2068 
Q 3634 1759 3634 1313 
Q 3634 634 3220 271 
Q 2806 -91 2034 -91 
Q 1263 -91 848 271 
Q 434 634 434 1313 
Q 434 1759 690 2068 
Q 947 2378 1403 2484 
z
M 1172 3481 
Q 1172 3119 1398 2916 
Q 1625 2713 2034 2713 
Q 2441 2713 2670 2916 
Q 2900 3119 2900 3481 
Q 2900 3844 2670 4047 
Q 2441 4250 2034 4250 
Q 1625 4250 1398 4047 
Q 1172 3844 1172 3481 
z
" transform="scale(0.015625)"/>
       </defs>
       <use xlink:href="#DejaVuSans-30"/>
       <use xlink:href="#DejaVuSans-2e" x="63.623047"/>
       <use xlink:href="#DejaVuSans-38" x="95.410156"/>
      </g>
     </g>
    </g>
    <g id="ytick_5">
     <g id="line2d_21">
      <path d="M 90 163.992211 
L 648 163.992211 
" clip-path="url(#p785ca38250)" style="fill: none; stroke: #b0b0b0; stroke-width: 0.8; stroke-linecap: square"/>
     </g>
     <g id="line2d_22">
      <g>
       <use xlink:href="#meaaaeb8896" x="90" y="163.992211" style="stroke: #000000; stroke-width: 0.8"/>
      </g>
     </g>
     <g id="text_12">
      <!-- 1.0 -->
      <g transform="translate(67.096875 167.79143) scale(0.1 -0.1)">
       <use xlink:href="#DejaVuSans-31"/>
       <use xlink:href="#DejaVuSans-2e" x="63.623047"/>
       <use xlink:href="#DejaVuSans-30" x="95.410156"/>
      </g>
     </g>
    </g>
    <g id="ytick_6">
     <g id="line2d_23">
      <path d="M 90 129.750868 
L 648 129.750868 
" clip-path="url(#p785ca38250)" style="fill: none; stroke: #b0b0b0; stroke-width: 0.8; stroke-linecap: square"/>
     </g>
     <g id="line2d_24">
      <g>
       <use xlink:href="#meaaaeb8896" x="90" y="129.750868" style="stroke: #000000; stroke-width: 0.8"/>
      </g>
     </g>
     <g id="text_13">
      <!-- 1.2 -->
      <g transform="translate(67.096875 133.550086) scale(0.1 -0.1)">
       <use xlink:href="#DejaVuSans-31"/>
       <use xlink:href="#DejaVuSans-2e" x="63.623047"/>
       <use xlink:href="#DejaVuSans-32" x="95.410156"/>
      </g>
     </g>
    </g>
    <g id="ytick_7">
     <g id="line2d_25">
      <path d="M 90 95.509524 
L 648 95.509524 
" clip-path="url(#p785ca38250)" style="fill: none; stroke: #b0b0b0; stroke-width: 0.8; stroke-linecap: square"/>
     </g>
     <g id="line2d_26">
      <g>
       <use xlink:href="#meaaaeb8896" x="90" y="95.509524" style="stroke: #000000; stroke-width: 0.8"/>
      </g>
     </g>
     <g id="text_14">
      <!-- 1.4 -->
      <g transform="translate(67.096875 99.308743) scale(0.1 -0.1)">
       <use xlink:href="#DejaVuSans-31"/>
       <use xlink:href="#DejaVuSans-2e" x="63.623047"/>
       <use xlink:href="#DejaVuSans-34" x="95.410156"/>
      </g>
     </g>
    </g>
    <g id="ytick_8">
     <g id="line2d_27">
      <path d="M 90 61.268181 
L 648 61.268181 
" clip-path="url(#p785ca38250)" style="fill: none; stroke: #b0b0b0; stroke-width: 0.8; stroke-linecap: square"/>
     </g>
     <g id="line2d_28">
      <g>
       <use xlink:href="#meaaaeb8896" x="90" y="61.268181" style="stroke: #000000; stroke-width: 0.8"/>
      </g>
     </g>
     <g id="text_15">
      <!-- 1.6 -->
      <g transform="translate(67.096875 65.067399) scale(0.1 -0.1)">
       <use xlink:href="#DejaVuSans-31"/>
       <use xlink:href="#DejaVuSans-2e" x="63.623047"/>
       <use xlink:href="#DejaVuSans-36" x="95.410156"/>
      </g>
     </g>
    </g>
    <g id="text_16">
     <!-- loss -->
     <g transform="translate(61.017187 191.457812) rotate(-90) scale(0.1 -0.1)">
      <defs>
       <path id="DejaVuSans-6c" d="M 603 4863 
L 1178 4863 
L 1178 0 
L 603 0 
L 603 4863 
z
" transform="scale(0.015625)"/>
       <path id="DejaVuSans-73" d="M 2834 3397 
L 2834 2853 
Q 2591 2978 2328 3040 
Q 2066 3103 1784 3103 
Q 1356 3103 1142 2972 
Q 928 2841 928 2578 
Q 928 2378 1081 2264 
Q 1234 2150 1697 2047 
L 1894 2003 
Q 2506 1872 2764 1633 
Q 3022 1394 3022 966 
Q 3022 478 2636 193 
Q 2250 -91 1575 -91 
Q 1294 -91 989 -36 
Q 684 19 347 128 
L 347 722 
Q 666 556 975 473 
Q 1284 391 1588 391 
Q 1994 391 2212 530 
Q 2431 669 2431 922 
Q 2431 1156 2273 1281 
Q 2116 1406 1581 1522 
L 1381 1569 
Q 847 1681 609 1914 
Q 372 2147 372 2553 
Q 372 3047 722 3315 
Q 1072 3584 1716 3584 
Q 2034 3584 2315 3537 
Q 2597 3491 2834 3397 
z
" transform="scale(0.015625)"/>
      </defs>
      <use xlink:href="#DejaVuSans-6c"/>
      <use xlink:href="#DejaVuSans-6f" x="27.783203"/>
      <use xlink:href="#DejaVuSans-73" x="88.964844"/>
      <use xlink:href="#DejaVuSans-73" x="141.064453"/>
     </g>
    </g>
   </g>
   <g id="line2d_29">
    <path d="M 115.363636 97.840204 
L 116.380215 98.022684 
L 117.396794 108.233135 
L 118.413372 127.819862 
L 119.429951 139.014455 
L 120.446529 147.245702 
L 121.463108 153.226787 
L 123.496265 163.051581 
L 124.512844 165.680979 
L 125.529422 168.638337 
L 126.546001 170.127633 
L 127.56258 168.443743 
L 128.579158 162.277044 
L 129.595737 171.499984 
L 130.612316 175.578054 
L 131.628894 187.716859 
L 132.645473 197.228358 
L 133.662051 204.611857 
L 134.67863 214.074394 
L 135.695209 215.404885 
L 136.711787 218.915695 
L 137.728366 223.522655 
L 138.744944 225.711433 
L 139.761523 226.038913 
L 140.778102 227.755081 
L 141.79468 232.492936 
L 142.811259 236.01089 
L 143.827837 231.838834 
L 144.844416 231.450923 
L 145.860995 230.831813 
L 146.877573 235.333531 
L 147.894152 239.132063 
L 148.910731 242.174303 
L 149.927309 242.382153 
L 150.943888 242.377193 
L 151.960466 245.032736 
L 152.977045 243.252462 
L 153.993624 246.510032 
L 155.010202 246.005378 
L 156.026781 241.396796 
L 157.043359 249.349249 
L 158.059938 253.361513 
L 159.076517 255.393237 
L 160.093095 253.64297 
L 161.109674 256.13517 
L 162.126253 258.135356 
L 163.142831 254.508865 
L 164.15941 257.748658 
L 165.175988 259.359014 
L 166.192567 260.641012 
L 167.209146 260.793327 
L 168.225724 262.08053 
L 169.242303 264.667634 
L 170.258881 265.528152 
L 171.27546 265.963873 
L 172.292039 269.419394 
L 173.308617 268.736234 
L 174.325196 266.499421 
L 175.341774 264.692365 
L 176.358353 265.998038 
L 177.374932 265.780739 
L 178.39151 272.073834 
L 179.408089 273.267296 
L 180.424668 276.366463 
L 181.441246 273.626614 
L 182.457825 278.151217 
L 183.474403 273.222706 
L 184.490982 274.840108 
L 185.507561 271.656783 
L 186.524139 274.113303 
L 187.540718 274.728887 
L 188.557296 274.73779 
L 189.573875 276.246507 
L 190.590454 277.105932 
L 191.607032 277.242324 
L 192.623611 279.2722 
L 193.640189 279.949645 
L 195.673347 279.043267 
L 196.689925 277.217072 
L 197.706504 279.1805 
L 198.723083 280.738275 
L 199.739661 280.423853 
L 200.75624 275.991975 
L 201.772818 281.535978 
L 202.789397 285.012092 
L 203.805976 283.827733 
L 204.822554 272.033418 
L 205.839133 281.390091 
L 206.855711 281.186181 
L 207.87229 282.161461 
L 208.888869 282.826528 
L 209.905447 281.812638 
L 210.922026 281.672742 
L 211.938604 287.118299 
L 212.955183 286.554009 
L 213.971762 287.134561 
L 214.98834 288.207877 
L 216.004919 288.323206 
L 217.021498 287.330874 
L 218.038076 289.279719 
L 219.054655 283.969619 
L 220.071233 283.977349 
L 221.087812 288.160277 
L 222.104391 288.856147 
L 223.120969 284.696083 
L 224.137548 285.567407 
L 225.154126 287.152286 
L 226.170705 286.571245 
L 227.187284 288.711317 
L 229.220441 291.417561 
L 231.253598 292.79391 
L 232.270177 291.839042 
L 233.286755 286.878361 
L 234.303334 285.434266 
L 235.319913 285.522624 
L 236.336491 290.678117 
L 237.35307 290.97259 
L 238.369648 293.037943 
L 239.386227 291.871365 
L 240.402806 293.38365 
L 241.419384 291.668669 
L 242.435963 292.762747 
L 243.452541 291.396228 
L 244.46912 292.504667 
L 245.485699 291.706686 
L 246.502277 293.41641 
L 247.518856 293.076708 
L 248.535435 293.419038 
L 249.552013 290.228105 
L 250.568592 289.70646 
L 251.58517 290.561279 
L 252.601749 294.618344 
L 253.618328 293.157356 
L 254.634906 295.598946 
L 256.668063 292.887446 
L 257.684642 289.894717 
L 258.701221 291.404668 
L 259.717799 291.373028 
L 260.734378 294.283831 
L 261.750956 294.280318 
L 262.767535 296.694889 
L 263.784114 294.657926 
L 264.800692 294.575576 
L 265.817271 297.788865 
L 267.850428 290.508984 
L 268.867007 292.116589 
L 269.883585 295.039794 
L 270.900164 290.703017 
L 271.916743 293.831497 
L 272.933321 295.720992 
L 273.9499 294.961134 
L 274.966478 293.951982 
L 275.983057 291.575913 
L 276.999636 294.671978 
L 278.016214 295.839045 
L 279.032793 298.950825 
L 280.049371 299.174232 
L 282.082529 272.23815 
L 283.099107 277.985543 
L 284.115686 286.225672 
L 285.132265 289.728278 
L 286.148843 290.170872 
L 287.165422 295.192474 
L 288.182 291.321897 
L 289.198579 289.089509 
L 290.215158 293.646447 
L 291.231736 294.402936 
L 292.248315 296.216803 
L 293.264893 294.104277 
L 294.281472 295.341601 
L 296.314629 297.261322 
L 297.331208 296.23133 
L 298.347786 288.492145 
L 299.364365 286.482872 
L 300.380944 294.590664 
L 301.397522 292.812362 
L 302.414101 296.7196 
L 304.447258 294.900089 
L 305.463837 296.201744 
L 307.496994 297.118831 
L 308.513573 295.23411 
L 309.530151 299.859956 
L 311.563308 300.199112 
L 312.579887 298.935957 
L 313.596466 298.201687 
L 314.613044 287.997063 
L 315.629623 286.356471 
L 316.646201 290.285113 
L 318.679359 290.277552 
L 319.695937 292.47228 
L 320.712516 293.591571 
L 321.729095 293.295969 
L 322.745673 294.214733 
L 323.762252 297.143909 
L 324.77883 292.393244 
L 325.795409 293.198593 
L 326.811988 295.275431 
L 327.828566 295.951159 
L 328.845145 297.302685 
L 329.861723 296.265396 
L 330.878302 296.12692 
L 331.894881 298.648615 
L 332.911459 299.619974 
L 333.928038 297.641979 
L 334.944617 292.509471 
L 335.961195 296.066644 
L 336.977774 297.182448 
L 337.994352 297.944102 
L 339.010931 297.05871 
L 340.02751 297.775477 
L 341.044088 297.961093 
L 342.060667 296.293755 
L 343.077245 297.366729 
L 344.093824 291.553167 
L 345.110403 293.668796 
L 346.126981 298.046703 
L 347.14356 296.440394 
L 348.160138 299.134214 
L 349.176717 298.858146 
L 350.193296 301.061303 
L 352.226453 302.29128 
L 353.243032 302.171056 
L 354.25961 301.323781 
L 355.276189 297.900791 
L 356.292767 294.014082 
L 357.309346 292.839708 
L 358.325925 289.442265 
L 359.342503 284.393477 
L 360.359082 292.810388 
L 361.37566 298.803311 
L 362.392239 297.824337 
L 363.408818 299.431391 
L 364.425396 299.837776 
L 365.441975 298.829922 
L 366.458553 297.175942 
L 367.475132 297.32474 
L 368.491711 299.817701 
L 369.508289 296.288568 
L 370.524868 296.974312 
L 372.558025 299.93419 
L 373.574604 301.601153 
L 374.591182 300.549067 
L 375.607761 302.436394 
L 376.62434 299.854601 
L 377.640918 301.559339 
L 379.674075 303.247011 
L 380.690654 302.236458 
L 381.707233 296.84973 
L 382.723811 297.044732 
L 383.74039 296.490228 
L 384.756968 292.28313 
L 385.773547 295.316247 
L 386.790126 293.998972 
L 387.806704 293.665897 
L 388.823283 296.400787 
L 389.839862 298.558513 
L 390.85644 293.674099 
L 391.873019 291.171388 
L 392.889597 295.713736 
L 393.906176 298.475694 
L 394.922755 302.023822 
L 395.939333 303.054514 
L 396.955912 302.13798 
L 397.97249 302.813241 
L 398.989069 301.25481 
L 400.005648 300.718177 
L 401.022226 304.181574 
L 402.038805 304.808786 
L 403.055383 305.785385 
L 404.071962 303.774656 
L 405.088541 304.912471 
L 406.105119 302.234006 
L 407.121698 299.072945 
L 408.138277 296.428089 
L 409.154855 287.574782 
L 410.171434 288.424972 
L 411.188012 286.732173 
L 412.204591 290.731442 
L 413.22117 298.324868 
L 414.237748 300.583243 
L 415.254327 300.43793 
L 416.270905 302.8725 
L 417.287484 302.522654 
L 418.304063 299.810802 
L 419.320641 298.075641 
L 420.33722 300.719471 
L 421.353799 302.599366 
L 422.370377 303.731745 
L 423.386956 301.531299 
L 424.403534 301.629826 
L 425.420113 301.198572 
L 426.436692 301.283256 
L 427.45327 300.178391 
L 429.486427 286.805872 
L 430.503006 293.333624 
L 431.519585 296.588696 
L 432.536163 299.095954 
L 433.552742 300.769441 
L 434.56932 303.173156 
L 435.585899 302.484157 
L 436.602478 298.43537 
L 437.619056 299.782757 
L 438.635635 299.100401 
L 439.652214 299.538262 
L 440.668792 301.762561 
L 441.685371 301.434903 
L 442.701949 298.506076 
L 443.718528 299.121604 
L 444.735107 297.931364 
L 445.751685 297.624557 
L 446.768264 300.143256 
L 447.784842 299.17627 
L 448.801421 296.968646 
L 449.818 296.339505 
L 450.834578 298.160957 
L 451.851157 302.628765 
L 452.867735 303.986355 
L 453.884314 301.487363 
L 454.900893 299.66525 
L 455.917471 300.063282 
L 456.93405 298.555074 
L 457.950629 296.566687 
L 458.967207 298.975204 
L 459.983786 302.40593 
L 461.000364 297.762782 
L 462.016943 297.068741 
L 463.033522 295.661424 
L 464.0501 299.065144 
L 465.066679 299.121861 
L 466.083257 301.786568 
L 467.099836 296.336688 
L 468.116415 288.544464 
L 469.132993 285.513516 
L 470.149572 294.227728 
L 471.16615 297.564474 
L 472.182729 301.739498 
L 473.199308 303.145065 
L 474.215886 300.881884 
L 475.232465 301.652618 
L 476.249044 303.01569 
L 477.265622 306.346162 
L 478.282201 305.591766 
L 479.298779 299.146276 
L 480.315358 302.469858 
L 481.331937 303.403676 
L 482.348515 302.463322 
L 483.365094 303.526939 
L 484.381672 306.535391 
L 485.398251 302.406576 
L 486.41483 300.992279 
L 487.431408 299.247502 
L 489.464565 304.191426 
L 490.481144 303.709963 
L 491.497723 304.322914 
L 492.514301 304.424959 
L 494.547459 301.12371 
L 495.564037 301.647896 
L 496.580616 298.23563 
L 497.597194 298.300713 
L 498.613773 299.283272 
L 499.630352 302.578423 
L 500.64693 302.322928 
L 501.663509 303.297289 
L 502.680087 303.252363 
L 503.696666 301.056982 
L 504.713245 300.542151 
L 505.729823 299.823004 
L 506.746402 300.02951 
L 507.762981 301.585726 
L 508.779559 304.347497 
L 509.796138 303.488972 
L 510.812716 301.372537 
L 511.829295 301.60585 
L 512.845874 296.560922 
L 513.862452 301.082391 
L 515.895609 304.565008 
L 516.912188 304.703757 
L 517.928767 300.367827 
L 518.945345 298.65334 
L 519.961924 299.756582 
L 520.978502 299.426082 
L 521.995081 301.178135 
L 523.01166 302.093579 
L 524.028238 293.54055 
L 525.044817 296.459497 
L 526.061396 301.441768 
L 527.077974 304.300181 
L 528.094553 305.246752 
L 529.111131 304.106888 
L 530.12771 306.464945 
L 531.144289 306.756129 
L 532.160867 303.343476 
L 533.177446 304.807569 
L 534.194024 305.650019 
L 535.210603 302.151695 
L 536.227182 302.481812 
L 537.24376 300.128679 
L 538.260339 302.057021 
L 539.276917 303.556298 
L 540.293496 306.094034 
L 541.310075 305.40355 
L 542.326653 304.383854 
L 543.343232 297.411191 
L 544.359811 300.361456 
L 546.392968 303.100417 
L 547.409546 303.609344 
L 548.426125 302.241757 
L 549.442704 304.351663 
L 550.459282 302.545059 
L 551.475861 303.202416 
L 552.492439 303.32475 
L 554.525597 297.973469 
L 555.542175 300.313867 
L 556.558754 298.456527 
L 557.575332 301.091711 
L 558.591911 303.32685 
L 559.60849 304.625793 
L 560.625068 302.79124 
L 561.641647 305.321754 
L 562.658226 304.513224 
L 563.674804 302.22371 
L 564.691383 295.945978 
L 566.72454 301.406669 
L 567.741119 302.405435 
L 568.757697 303.04508 
L 569.774276 303.184496 
L 570.790854 301.632522 
L 571.807433 305.055365 
L 572.824012 305.87398 
L 573.84059 307.8 
L 574.857169 306.890395 
L 575.873747 305.538362 
L 576.890326 304.941567 
L 577.906905 306.067173 
L 578.923483 302.409818 
L 579.940062 300.611166 
L 580.956641 301.378377 
L 581.973219 302.385883 
L 582.989798 298.52247 
L 584.006376 297.754197 
L 585.022955 298.993193 
L 586.039534 301.655881 
L 587.056112 301.443911 
L 588.072691 301.992767 
L 589.089269 304.428461 
L 590.105848 305.560085 
L 591.122427 306.131123 
L 592.139005 305.56218 
L 593.155584 305.767358 
L 594.172163 307.276149 
L 595.188741 304.100648 
L 596.20532 301.516592 
L 597.221898 302.334872 
L 598.238477 303.400969 
L 599.255056 301.548045 
L 600.271634 302.233208 
L 601.288213 304.20492 
L 602.304791 303.28462 
L 603.32137 303.831279 
L 604.337949 303.302277 
L 606.371106 301.320784 
L 607.387684 301.608289 
L 608.404263 302.482629 
L 609.420842 303.636588 
L 610.43742 298.680648 
L 611.453999 299.903665 
L 612.470578 302.16666 
L 613.487156 303.828179 
L 614.503735 306.496149 
L 615.520313 305.837707 
L 616.536892 303.073086 
L 617.553471 301.146839 
L 618.570049 303.447025 
L 619.586628 306.410452 
L 621.619785 301.374037 
L 622.636364 302.073379 
L 622.636364 302.073379 
" clip-path="url(#p785ca38250)" style="fill: none; stroke: #1f77b4; stroke-width: 1.5; stroke-linecap: square"/>
   </g>
   <g id="line2d_30">
    <path d="M 115.363636 99.586067 
L 116.380215 101.260212 
L 117.396794 119.597719 
L 119.429951 138.029925 
L 120.446529 140.839487 
L 121.463108 140.921656 
L 122.479687 144.658173 
L 123.496265 142.107831 
L 124.512844 146.23668 
L 125.529422 139.172853 
L 126.546001 146.558904 
L 127.56258 136.066742 
L 128.579158 144.638744 
L 129.595737 150.846231 
L 130.612316 158.681432 
L 131.628894 153.006529 
L 132.645473 164.55196 
L 133.662051 165.95515 
L 134.67863 170.023117 
L 135.695209 166.923414 
L 136.711787 162.49373 
L 137.728366 160.372456 
L 138.744944 159.315778 
L 139.761523 152.768963 
L 140.778102 154.459762 
L 141.79468 144.945579 
L 142.811259 154.031899 
L 143.827837 152.899992 
L 144.844416 139.281799 
L 145.860995 154.172887 
L 146.877573 153.403656 
L 147.894152 150.004261 
L 148.910731 143.294027 
L 149.927309 139.397724 
L 150.943888 133.93263 
L 151.960466 136.524321 
L 152.977045 141.501569 
L 153.993624 144.680195 
L 155.010202 139.095522 
L 156.026781 147.764244 
L 157.043359 142.937924 
L 158.059938 140.308515 
L 159.076517 131.430944 
L 160.093095 139.169771 
L 161.109674 138.589633 
L 162.126253 135.211729 
L 163.142831 143.501408 
L 164.15941 122.40475 
L 165.175988 136.504544 
L 166.192567 135.592569 
L 167.209146 130.010692 
L 168.225724 141.049908 
L 169.242303 132.297834 
L 170.258881 117.757053 
L 171.27546 125.630297 
L 172.292039 114.851036 
L 173.308617 126.013464 
L 174.325196 93.337271 
L 175.341774 114.581774 
L 176.358353 120.618986 
L 177.374932 125.64885 
L 178.39151 129.214051 
L 179.408089 124.935601 
L 180.424668 101.668523 
L 181.441246 114.409886 
L 182.457825 100.321256 
L 184.490982 113.572344 
L 185.507561 113.219567 
L 186.524139 103.223518 
L 187.540718 104.453594 
L 188.557296 109.88185 
L 189.573875 111.819378 
L 190.590454 126.490514 
L 191.607032 121.948477 
L 192.623611 122.216351 
L 193.640189 108.133986 
L 194.656768 118.637087 
L 195.673347 118.621576 
L 198.723083 109.655856 
L 199.739661 96.560104 
L 200.75624 108.862664 
L 201.772818 105.579991 
L 203.805976 86.625446 
L 204.822554 116.579858 
L 205.839133 117.654026 
L 207.87229 103.345035 
L 208.888869 106.341038 
L 209.905447 100.445814 
L 210.922026 106.411063 
L 211.938604 115.03366 
L 212.955183 109.222686 
L 213.971762 98.032522 
L 214.98834 106.934095 
L 216.004919 112.2751 
L 217.021498 114.066722 
L 218.038076 101.848698 
L 219.054655 94.340966 
L 220.071233 102.663687 
L 221.087812 116.812301 
L 222.104391 94.605676 
L 223.120969 102.791981 
L 224.137548 107.072981 
L 225.154126 104.260643 
L 226.170705 119.393094 
L 227.187284 103.682526 
L 228.203862 101.651359 
L 229.220441 96.061154 
L 230.237019 99.719096 
L 231.253598 107.312853 
L 232.270177 88.090292 
L 233.286755 98.874554 
L 234.303334 94.889633 
L 235.319913 93.494383 
L 236.336491 97.586453 
L 237.35307 108.839356 
L 238.369648 98.949905 
L 239.386227 98.676868 
L 240.402806 97.838938 
L 241.419384 96.283821 
L 242.435963 80.890824 
L 243.452541 87.830582 
L 244.46912 65.905036 
L 245.485699 98.200144 
L 246.502277 93.215406 
L 247.518856 87.567198 
L 248.535435 89.042739 
L 249.552013 84.79325 
L 250.568592 85.332447 
L 251.58517 95.102442 
L 252.601749 91.016025 
L 253.618328 98.40379 
L 254.634906 90.314797 
L 255.651485 86.840255 
L 256.668063 97.911677 
L 257.684642 104.163127 
L 258.701221 108.093739 
L 259.717799 93.618696 
L 260.734378 94.744562 
L 261.750956 91.632022 
L 262.767535 88.128396 
L 263.784114 90.166237 
L 264.800692 83.351446 
L 265.817271 66.205136 
L 266.83385 80.235763 
L 267.850428 78.25764 
L 268.867007 79.036648 
L 269.883585 82.423654 
L 270.900164 91.183994 
L 271.916743 82.439471 
L 272.933321 95.94878 
L 273.9499 88.988348 
L 274.966478 91.878282 
L 275.983057 84.007324 
L 276.999636 92.527037 
L 278.016214 102.797818 
L 279.032793 111.929079 
L 280.049371 77.445549 
L 281.06595 102.978482 
L 282.082529 100.576945 
L 283.099107 123.03634 
L 284.115686 100.113957 
L 285.132265 88.720106 
L 286.148843 105.122432 
L 287.165422 99.350787 
L 288.182 99.274068 
L 289.198579 109.098862 
L 290.215158 114.09007 
L 291.231736 100.72028 
L 292.248315 84.4129 
L 293.264893 80.888946 
L 294.281472 88.31504 
L 295.298051 93.709376 
L 296.314629 78.076098 
L 297.331208 84.919707 
L 298.347786 74.477936 
L 299.364365 93.686946 
L 300.380944 89.790846 
L 301.397522 95.037397 
L 302.414101 89.834563 
L 303.43068 100.811164 
L 305.463837 82.264869 
L 306.480415 84.843947 
L 308.513573 81.183148 
L 309.530151 87.425679 
L 310.54673 83.367345 
L 311.563308 79.92407 
L 312.579887 73.064603 
L 313.596466 89.411884 
L 314.613044 97.09779 
L 315.629623 95.7803 
L 316.646201 92.635207 
L 317.66278 94.578185 
L 318.679359 109.554544 
L 319.695937 109.159029 
L 320.712516 97.20145 
L 321.729095 104.438471 
L 322.745673 94.691416 
L 323.762252 92.013107 
L 324.77883 94.725806 
L 325.795409 84.006671 
L 326.811988 100.253721 
L 327.828566 80.474043 
L 329.861723 99.196084 
L 330.878302 88.295039 
L 331.894881 99.299764 
L 332.911459 81.015607 
L 333.928038 88.113538 
L 335.961195 113.635471 
L 336.977774 95.544796 
L 337.994352 105.285442 
L 339.010931 102.035648 
L 340.02751 89.35535 
L 341.044088 97.125914 
L 342.060667 106.469107 
L 343.077245 82.107553 
L 344.093824 101.472837 
L 345.110403 91.669004 
L 346.126981 94.900103 
L 347.14356 84.860928 
L 348.160138 69.867343 
L 349.176717 87.11968 
L 350.193296 89.171788 
L 351.209874 72.291596 
L 352.226453 74.62421 
L 354.25961 71.562224 
L 355.276189 61.938361 
L 356.292767 71.829833 
L 357.309346 84.039183 
L 358.325925 73.115525 
L 359.342503 88.833746 
L 360.359082 82.668547 
L 361.37566 83.352487 
L 362.392239 74.821774 
L 363.408818 96.774872 
L 364.425396 91.587121 
L 365.441975 93.835751 
L 366.458553 75.196409 
L 367.475132 91.032148 
L 368.491711 100.736588 
L 369.508289 93.059621 
L 370.524868 98.178959 
L 371.541447 72.88302 
L 372.558025 90.43456 
L 373.574604 89.136785 
L 374.591182 89.635041 
L 375.607761 71.875325 
L 376.62434 79.936132 
L 377.640918 77.615417 
L 378.657497 96.159977 
L 379.674075 74.668458 
L 380.690654 76.540513 
L 381.707233 91.350535 
L 383.74039 66.274936 
L 384.756968 80.002606 
L 385.773547 97.816345 
L 386.790126 102.108591 
L 387.806704 102.050567 
L 388.823283 109.599301 
L 389.839862 107.957546 
L 390.85644 81.560702 
L 391.873019 109.923097 
L 392.889597 88.982653 
L 393.906176 98.327662 
L 394.922755 88.99645 
L 395.939333 82.944503 
L 396.955912 85.535582 
L 398.989069 72.335007 
L 400.005648 88.456845 
L 401.022226 91.651574 
L 402.038805 80.91303 
L 403.055383 81.358894 
L 404.071962 86.21144 
L 405.088541 80.718079 
L 406.105119 73.646252 
L 407.121698 87.097169 
L 408.138277 83.18513 
L 409.154855 94.428726 
L 410.171434 117.721969 
L 412.204591 102.031321 
L 413.22117 97.469303 
L 414.237748 96.671702 
L 415.254327 94.721153 
L 416.270905 93.536222 
L 417.287484 77.719443 
L 418.304063 96.683132 
L 419.320641 85.953628 
L 420.33722 90.029657 
L 421.353799 92.369047 
L 422.370377 89.340002 
L 423.386956 92.49677 
L 424.403534 80.250499 
L 425.420113 83.987976 
L 426.436692 74.358398 
L 427.45327 67.60408 
L 428.469849 87.927016 
L 429.486427 97.966701 
L 430.503006 93.563897 
L 431.519585 84.068164 
L 432.536163 89.568751 
L 433.552742 88.30553 
L 434.56932 78.887516 
L 435.585899 80.062426 
L 436.602478 78.51286 
L 437.619056 83.860213 
L 438.635635 67.85581 
L 439.652214 86.624793 
L 440.668792 73.518244 
L 441.685371 72.735828 
L 442.701949 84.090839 
L 443.718528 90.25761 
L 444.735107 88.69686 
L 445.751685 83.280891 
L 446.768264 90.039025 
L 447.784842 91.647819 
L 448.801421 90.490441 
L 449.818 94.614493 
L 450.834578 93.847425 
L 451.851157 94.853977 
L 453.884314 72.089196 
L 454.900893 86.672204 
L 455.917471 90.27055 
L 456.93405 84.457148 
L 457.950629 86.990591 
L 458.967207 92.358965 
L 459.983786 104.582255 
L 461.000364 65.89728 
L 462.016943 57.43451 
L 463.033522 97.452424 
L 464.0501 81.738122 
L 465.066679 95.966761 
L 466.083257 93.10097 
L 467.099836 95.539326 
L 468.116415 94.170404 
L 469.132993 95.501691 
L 470.149572 83.954035 
L 471.16615 89.486093 
L 472.182729 102.06965 
L 473.199308 92.585632 
L 474.215886 92.195649 
L 475.232465 95.073134 
L 477.265622 85.264688 
L 478.282201 70.726315 
L 479.298779 87.40182 
L 480.315358 91.514382 
L 481.331937 85.044858 
L 482.348515 82.279196 
L 483.365094 89.630204 
L 484.381672 78.791571 
L 485.398251 71.660536 
L 486.41483 70.322821 
L 487.431408 77.569475 
L 488.447987 73.744319 
L 489.464565 83.291585 
L 490.481144 75.973335 
L 491.497723 71.611227 
L 492.514301 74.723829 
L 493.53088 92.877038 
L 494.547459 81.259949 
L 495.564037 68.331085 
L 496.580616 64.577545 
L 497.597194 69.948818 
L 498.613773 94.867529 
L 499.630352 84.012957 
L 500.64693 84.975282 
L 501.663509 86.710839 
L 502.680087 91.029413 
L 503.696666 101.26658 
L 504.713245 89.90069 
L 505.729823 88.853033 
L 506.746402 88.37933 
L 507.762981 93.787584 
L 508.779559 89.846238 
L 509.796138 83.084736 
L 510.812716 77.260476 
L 511.829295 72.266656 
L 512.845874 75.346684 
L 513.862452 73.609188 
L 514.879031 82.714284 
L 515.895609 74.623802 
L 516.912188 78.720955 
L 517.928767 99.529696 
L 518.945345 81.046181 
L 519.961924 82.88603 
L 520.978502 75.709257 
L 521.995081 79.545965 
L 523.01166 84.824824 
L 524.028238 77.566597 
L 525.044817 74.82112 
L 526.061396 80.600908 
L 527.077974 78.926865 
L 528.094553 83.891419 
L 529.111131 74.215593 
L 530.12771 81.398692 
L 531.144289 71.62086 
L 532.160867 93.113604 
L 533.177446 83.99416 
L 534.194024 78.08216 
L 535.210603 73.088258 
L 536.227182 76.2697 
L 537.24376 80.484411 
L 538.260339 83.129963 
L 539.276917 73.912962 
L 540.293496 76.997562 
L 541.310075 71.281962 
L 542.326653 72.308291 
L 543.343232 71.311535 
L 544.359811 72.823609 
L 545.376389 84.205765 
L 546.392968 75.161958 
L 547.409546 70.311228 
L 548.426125 76.841246 
L 549.442704 69.313513 
L 550.459282 75.923066 
L 551.475861 75.365644 
L 552.492439 76.927619 
L 553.509018 67.846708 
L 554.525597 77.938539 
L 555.542175 57.088917 
L 556.558754 79.718139 
L 557.575332 83.238786 
L 558.591911 81.533374 
L 559.60849 76.67395 
L 560.625068 85.301118 
L 562.658226 79.355341 
L 563.674804 69.034292 
L 564.691383 76.442915 
L 565.707961 86.746616 
L 566.72454 90.809644 
L 567.741119 89.878893 
L 568.757697 89.618591 
L 569.774276 81.990137 
L 570.790854 77.591027 
L 571.807433 92.321534 
L 572.824012 87.03739 
L 573.84059 87.422454 
L 574.857169 79.80145 
L 575.873747 94.852569 
L 576.890326 92.16381 
L 577.906905 82.338873 
L 578.923483 89.337124 
L 579.940062 88.298958 
L 580.956641 82.339649 
L 581.973219 86.092188 
L 582.989798 91.493503 
L 584.006376 84.705551 
L 585.022955 75.120649 
L 586.039534 84.529315 
L 587.056112 80.364751 
L 588.072691 85.371878 
L 589.089269 69.046619 
L 590.105848 78.596049 
L 591.122427 76.368074 
L 592.139005 81.965401 
L 593.155584 74.00058 
L 594.172163 78.901292 
L 595.188741 75.23884 
L 596.20532 69.251734 
L 597.221898 78.838023 
L 598.238477 75.11273 
L 599.255056 74.331682 
L 600.271634 84.791883 
L 601.288213 84.310751 
L 602.304791 81.54864 
L 603.32137 69.742927 
L 604.337949 72.126504 
L 605.354527 81.27146 
L 606.371106 76.773303 
L 607.387684 64.289691 
L 609.420842 55.8 
L 610.43742 75.368318 
L 611.453999 63.27226 
L 612.470578 82.014302 
L 613.487156 91.171299 
L 615.520313 70.416377 
L 616.536892 82.447451 
L 617.553471 90.979839 
L 619.586628 66.68337 
L 620.603206 86.41482 
L 621.619785 82.668894 
L 622.636364 84.372408 
L 622.636364 84.372408 
" clip-path="url(#p785ca38250)" style="fill: none; stroke: #ff7f0e; stroke-width: 1.5; stroke-linecap: square"/>
   </g>
   <g id="patch_3">
    <path d="M 90 320.4 
L 90 43.2 
" style="fill: none; stroke: #000000; stroke-width: 0.8; stroke-linejoin: miter; stroke-linecap: square"/>
   </g>
   <g id="patch_4">
    <path d="M 648 320.4 
L 648 43.2 
" style="fill: none; stroke: #000000; stroke-width: 0.8; stroke-linejoin: miter; stroke-linecap: square"/>
   </g>
   <g id="patch_5">
    <path d="M 90 320.4 
L 648 320.4 
" style="fill: none; stroke: #000000; stroke-width: 0.8; stroke-linejoin: miter; stroke-linecap: square"/>
   </g>
   <g id="patch_6">
    <path d="M 90 43.2 
L 648 43.2 
" style="fill: none; stroke: #000000; stroke-width: 0.8; stroke-linejoin: miter; stroke-linecap: square"/>
   </g>
   <g id="text_17">
    <!-- model train and validation loss over time -->
    <g transform="translate(245.555625 37.2) scale(0.12 -0.12)">
     <defs>
      <path id="DejaVuSans-6d" d="M 3328 2828 
Q 3544 3216 3844 3400 
Q 4144 3584 4550 3584 
Q 5097 3584 5394 3201 
Q 5691 2819 5691 2113 
L 5691 0 
L 5113 0 
L 5113 2094 
Q 5113 2597 4934 2840 
Q 4756 3084 4391 3084 
Q 3944 3084 3684 2787 
Q 3425 2491 3425 1978 
L 3425 0 
L 2847 0 
L 2847 2094 
Q 2847 2600 2669 2842 
Q 2491 3084 2119 3084 
Q 1678 3084 1418 2786 
Q 1159 2488 1159 1978 
L 1159 0 
L 581 0 
L 581 3500 
L 1159 3500 
L 1159 2956 
Q 1356 3278 1631 3431 
Q 1906 3584 2284 3584 
Q 2666 3584 2933 3390 
Q 3200 3197 3328 2828 
z
" transform="scale(0.015625)"/>
      <path id="DejaVuSans-64" d="M 2906 2969 
L 2906 4863 
L 3481 4863 
L 3481 0 
L 2906 0 
L 2906 525 
Q 2725 213 2448 61 
Q 2172 -91 1784 -91 
Q 1150 -91 751 415 
Q 353 922 353 1747 
Q 353 2572 751 3078 
Q 1150 3584 1784 3584 
Q 2172 3584 2448 3432 
Q 2725 3281 2906 2969 
z
M 947 1747 
Q 947 1113 1208 752 
Q 1469 391 1925 391 
Q 2381 391 2643 752 
Q 2906 1113 2906 1747 
Q 2906 2381 2643 2742 
Q 2381 3103 1925 3103 
Q 1469 3103 1208 2742 
Q 947 2381 947 1747 
z
" transform="scale(0.015625)"/>
      <path id="DejaVuSans-20" transform="scale(0.015625)"/>
      <path id="DejaVuSans-74" d="M 1172 4494 
L 1172 3500 
L 2356 3500 
L 2356 3053 
L 1172 3053 
L 1172 1153 
Q 1172 725 1289 603 
Q 1406 481 1766 481 
L 2356 481 
L 2356 0 
L 1766 0 
Q 1100 0 847 248 
Q 594 497 594 1153 
L 594 3053 
L 172 3053 
L 172 3500 
L 594 3500 
L 594 4494 
L 1172 4494 
z
" transform="scale(0.015625)"/>
      <path id="DejaVuSans-72" d="M 2631 2963 
Q 2534 3019 2420 3045 
Q 2306 3072 2169 3072 
Q 1681 3072 1420 2755 
Q 1159 2438 1159 1844 
L 1159 0 
L 581 0 
L 581 3500 
L 1159 3500 
L 1159 2956 
Q 1341 3275 1631 3429 
Q 1922 3584 2338 3584 
Q 2397 3584 2469 3576 
Q 2541 3569 2628 3553 
L 2631 2963 
z
" transform="scale(0.015625)"/>
      <path id="DejaVuSans-61" d="M 2194 1759 
Q 1497 1759 1228 1600 
Q 959 1441 959 1056 
Q 959 750 1161 570 
Q 1363 391 1709 391 
Q 2188 391 2477 730 
Q 2766 1069 2766 1631 
L 2766 1759 
L 2194 1759 
z
M 3341 1997 
L 3341 0 
L 2766 0 
L 2766 531 
Q 2569 213 2275 61 
Q 1981 -91 1556 -91 
Q 1019 -91 701 211 
Q 384 513 384 1019 
Q 384 1609 779 1909 
Q 1175 2209 1959 2209 
L 2766 2209 
L 2766 2266 
Q 2766 2663 2505 2880 
Q 2244 3097 1772 3097 
Q 1472 3097 1187 3025 
Q 903 2953 641 2809 
L 641 3341 
Q 956 3463 1253 3523 
Q 1550 3584 1831 3584 
Q 2591 3584 2966 3190 
Q 3341 2797 3341 1997 
z
" transform="scale(0.015625)"/>
      <path id="DejaVuSans-69" d="M 603 3500 
L 1178 3500 
L 1178 0 
L 603 0 
L 603 3500 
z
M 603 4863 
L 1178 4863 
L 1178 4134 
L 603 4134 
L 603 4863 
z
" transform="scale(0.015625)"/>
      <path id="DejaVuSans-6e" d="M 3513 2113 
L 3513 0 
L 2938 0 
L 2938 2094 
Q 2938 2591 2744 2837 
Q 2550 3084 2163 3084 
Q 1697 3084 1428 2787 
Q 1159 2491 1159 1978 
L 1159 0 
L 581 0 
L 581 3500 
L 1159 3500 
L 1159 2956 
Q 1366 3272 1645 3428 
Q 1925 3584 2291 3584 
Q 2894 3584 3203 3211 
Q 3513 2838 3513 2113 
z
" transform="scale(0.015625)"/>
      <path id="DejaVuSans-76" d="M 191 3500 
L 800 3500 
L 1894 563 
L 2988 3500 
L 3597 3500 
L 2284 0 
L 1503 0 
L 191 3500 
z
" transform="scale(0.015625)"/>
     </defs>
     <use xlink:href="#DejaVuSans-6d"/>
     <use xlink:href="#DejaVuSans-6f" x="97.412109"/>
     <use xlink:href="#DejaVuSans-64" x="158.59375"/>
     <use xlink:href="#DejaVuSans-65" x="222.070312"/>
     <use xlink:href="#DejaVuSans-6c" x="283.59375"/>
     <use xlink:href="#DejaVuSans-20" x="311.376953"/>
     <use xlink:href="#DejaVuSans-74" x="343.164062"/>
     <use xlink:href="#DejaVuSans-72" x="382.373047"/>
     <use xlink:href="#DejaVuSans-61" x="423.486328"/>
     <use xlink:href="#DejaVuSans-69" x="484.765625"/>
     <use xlink:href="#DejaVuSans-6e" x="512.548828"/>
     <use xlink:href="#DejaVuSans-20" x="575.927734"/>
     <use xlink:href="#DejaVuSans-61" x="607.714844"/>
     <use xlink:href="#DejaVuSans-6e" x="668.994141"/>
     <use xlink:href="#DejaVuSans-64" x="732.373047"/>
     <use xlink:href="#DejaVuSans-20" x="795.849609"/>
     <use xlink:href="#DejaVuSans-76" x="827.636719"/>
     <use xlink:href="#DejaVuSans-61" x="886.816406"/>
     <use xlink:href="#DejaVuSans-6c" x="948.095703"/>
     <use xlink:href="#DejaVuSans-69" x="975.878906"/>
     <use xlink:href="#DejaVuSans-64" x="1003.662109"/>
     <use xlink:href="#DejaVuSans-61" x="1067.138672"/>
     <use xlink:href="#DejaVuSans-74" x="1128.417969"/>
     <use xlink:href="#DejaVuSans-69" x="1167.626953"/>
     <use xlink:href="#DejaVuSans-6f" x="1195.410156"/>
     <use xlink:href="#DejaVuSans-6e" x="1256.591797"/>
     <use xlink:href="#DejaVuSans-20" x="1319.970703"/>
     <use xlink:href="#DejaVuSans-6c" x="1351.757812"/>
     <use xlink:href="#DejaVuSans-6f" x="1379.541016"/>
     <use xlink:href="#DejaVuSans-73" x="1440.722656"/>
     <use xlink:href="#DejaVuSans-73" x="1492.822266"/>
     <use xlink:href="#DejaVuSans-20" x="1544.921875"/>
     <use xlink:href="#DejaVuSans-6f" x="1576.708984"/>
     <use xlink:href="#DejaVuSans-76" x="1637.890625"/>
     <use xlink:href="#DejaVuSans-65" x="1697.070312"/>
     <use xlink:href="#DejaVuSans-72" x="1758.59375"/>
     <use xlink:href="#DejaVuSans-20" x="1799.707031"/>
     <use xlink:href="#DejaVuSans-74" x="1831.494141"/>
     <use xlink:href="#DejaVuSans-69" x="1870.703125"/>
     <use xlink:href="#DejaVuSans-6d" x="1898.486328"/>
     <use xlink:href="#DejaVuSans-65" x="1995.898438"/>
    </g>
   </g>
   <g id="legend_1">
    <g id="patch_7">
     <path d="M 97 80.55625 
L 178.234375 80.55625 
Q 180.234375 80.55625 180.234375 78.55625 
L 180.234375 50.2 
Q 180.234375 48.2 178.234375 48.2 
L 97 48.2 
Q 95 48.2 95 50.2 
L 95 78.55625 
Q 95 80.55625 97 80.55625 
z
" style="fill: #ffffff; opacity: 0.8; stroke: #cccccc; stroke-linejoin: miter"/>
    </g>
    <g id="line2d_31">
     <path d="M 99 56.298437 
L 109 56.298437 
L 119 56.298437 
" style="fill: none; stroke: #1f77b4; stroke-width: 1.5; stroke-linecap: square"/>
    </g>
    <g id="text_18">
     <!-- train -->
     <g transform="translate(127 59.798437) scale(0.1 -0.1)">
      <use xlink:href="#DejaVuSans-74"/>
      <use xlink:href="#DejaVuSans-72" x="39.208984"/>
      <use xlink:href="#DejaVuSans-61" x="80.322266"/>
      <use xlink:href="#DejaVuSans-69" x="141.601562"/>
      <use xlink:href="#DejaVuSans-6e" x="169.384766"/>
     </g>
    </g>
    <g id="line2d_32">
     <path d="M 99 70.976562 
L 109 70.976562 
L 119 70.976562 
" style="fill: none; stroke: #ff7f0e; stroke-width: 1.5; stroke-linecap: square"/>
    </g>
    <g id="text_19">
     <!-- validation -->
     <g transform="translate(127 74.476562) scale(0.1 -0.1)">
      <use xlink:href="#DejaVuSans-76"/>
      <use xlink:href="#DejaVuSans-61" x="59.179688"/>
      <use xlink:href="#DejaVuSans-6c" x="120.458984"/>
      <use xlink:href="#DejaVuSans-69" x="148.242188"/>
      <use xlink:href="#DejaVuSans-64" x="176.025391"/>
      <use xlink:href="#DejaVuSans-61" x="239.501953"/>
      <use xlink:href="#DejaVuSans-74" x="300.78125"/>
      <use xlink:href="#DejaVuSans-69" x="339.990234"/>
      <use xlink:href="#DejaVuSans-6f" x="367.773438"/>
      <use xlink:href="#DejaVuSans-6e" x="428.955078"/>
     </g>
    </g>
   </g>
  </g>
 </g>
 <defs>
  <clipPath id="p785ca38250">
   <rect x="90" y="43.2" width="558" height="277.2"/>
  </clipPath>
 </defs>
</svg>
