<?xml version="1.0" encoding="utf-8" standalone="no"?>
<!DOCTYPE svg PUBLIC "-//W3C//DTD SVG 1.1//EN"
  "http://www.w3.org/Graphics/SVG/1.1/DTD/svg11.dtd">
<svg xmlns:xlink="http://www.w3.org/1999/xlink" width="720pt" height="360pt" viewBox="0 0 720 360" xmlns="http://www.w3.org/2000/svg" version="1.1">
 <metadata>
  <rdf:RDF xmlns:dc="http://purl.org/dc/elements/1.1/" xmlns:cc="http://creativecommons.org/ns#" xmlns:rdf="http://www.w3.org/1999/02/22-rdf-syntax-ns#">
   <cc:Work>
    <dc:type rdf:resource="http://purl.org/dc/dcmitype/StillImage"/>
    <dc:date>2023-05-24T11:11:40.937592</dc:date>
    <dc:format>image/svg+xml</dc:format>
    <dc:creator>
     <cc:Agent>
      <dc:title>Matplotlib v3.7.1, https://matplotlib.org/</dc:title>
     </cc:Agent>
    </dc:creator>
   </cc:Work>
  </rdf:RDF>
 </metadata>
 <defs>
  <style type="text/css">*{stroke-linejoin: round; stroke-linecap: butt}</style>
 </defs>
 <g id="figure_1">
  <g id="patch_1">
   <path d="M 0 360 
L 720 360 
L 720 0 
L 0 0 
z
" style="fill: #ffffff"/>
  </g>
  <g id="axes_1">
   <g id="patch_2">
    <path d="M 90 320.4 
L 648 320.4 
L 648 43.2 
L 90 43.2 
z
" style="fill: #ffffff"/>
   </g>
   <g id="matplotlib.axis_1">
    <g id="xtick_1">
     <g id="line2d_1">
      <path d="M 115.363636 320.4 
L 115.363636 43.2 
" clip-path="url(#pc1b74a0b89)" style="fill: none; stroke: #b0b0b0; stroke-width: 0.8; stroke-linecap: square"/>
     </g>
     <g id="line2d_2">
      <defs>
       <path id="m64f910833f" d="M 0 0 
L 0 3.5 
" style="stroke: #000000; stroke-width: 0.8"/>
      </defs>
      <g>
       <use xlink:href="#m64f910833f" x="115.363636" y="320.4" style="stroke: #000000; stroke-width: 0.8"/>
      </g>
     </g>
     <g id="text_1">
      <!-- 0 -->
      <g transform="translate(112.182386 334.998438) scale(0.1 -0.1)">
       <defs>
        <path id="DejaVuSans-30" d="M 2034 4250 
Q 1547 4250 1301 3770 
Q 1056 3291 1056 2328 
Q 1056 1369 1301 889 
Q 1547 409 2034 409 
Q 2525 409 2770 889 
Q 3016 1369 3016 2328 
Q 3016 3291 2770 3770 
Q 2525 4250 2034 4250 
z
M 2034 4750 
Q 2819 4750 3233 4129 
Q 3647 3509 3647 2328 
Q 3647 1150 3233 529 
Q 2819 -91 2034 -91 
Q 1250 -91 836 529 
Q 422 1150 422 2328 
Q 422 3509 836 4129 
Q 1250 4750 2034 4750 
z
" transform="scale(0.015625)"/>
       </defs>
       <use xlink:href="#DejaVuSans-30"/>
      </g>
     </g>
    </g>
    <g id="xtick_2">
     <g id="line2d_3">
      <path d="M 217.021498 320.4 
L 217.021498 43.2 
" clip-path="url(#pc1b74a0b89)" style="fill: none; stroke: #b0b0b0; stroke-width: 0.8; stroke-linecap: square"/>
     </g>
     <g id="line2d_4">
      <g>
       <use xlink:href="#m64f910833f" x="217.021498" y="320.4" style="stroke: #000000; stroke-width: 0.8"/>
      </g>
     </g>
     <g id="text_2">
      <!-- 100 -->
      <g transform="translate(207.477748 334.998438) scale(0.1 -0.1)">
       <defs>
        <path id="DejaVuSans-31" d="M 794 531 
L 1825 531 
L 1825 4091 
L 703 3866 
L 703 4441 
L 1819 4666 
L 2450 4666 
L 2450 531 
L 3481 531 
L 3481 0 
L 794 0 
L 794 531 
z
" transform="scale(0.015625)"/>
       </defs>
       <use xlink:href="#DejaVuSans-31"/>
       <use xlink:href="#DejaVuSans-30" x="63.623047"/>
       <use xlink:href="#DejaVuSans-30" x="127.246094"/>
      </g>
     </g>
    </g>
    <g id="xtick_3">
     <g id="line2d_5">
      <path d="M 318.679359 320.4 
L 318.679359 43.2 
" clip-path="url(#pc1b74a0b89)" style="fill: none; stroke: #b0b0b0; stroke-width: 0.8; stroke-linecap: square"/>
     </g>
     <g id="line2d_6">
      <g>
       <use xlink:href="#m64f910833f" x="318.679359" y="320.4" style="stroke: #000000; stroke-width: 0.8"/>
      </g>
     </g>
     <g id="text_3">
      <!-- 200 -->
      <g transform="translate(309.135609 334.998438) scale(0.1 -0.1)">
       <defs>
        <path id="DejaVuSans-32" d="M 1228 531 
L 3431 531 
L 3431 0 
L 469 0 
L 469 531 
Q 828 903 1448 1529 
Q 2069 2156 2228 2338 
Q 2531 2678 2651 2914 
Q 2772 3150 2772 3378 
Q 2772 3750 2511 3984 
Q 2250 4219 1831 4219 
Q 1534 4219 1204 4116 
Q 875 4013 500 3803 
L 500 4441 
Q 881 4594 1212 4672 
Q 1544 4750 1819 4750 
Q 2544 4750 2975 4387 
Q 3406 4025 3406 3419 
Q 3406 3131 3298 2873 
Q 3191 2616 2906 2266 
Q 2828 2175 2409 1742 
Q 1991 1309 1228 531 
z
" transform="scale(0.015625)"/>
       </defs>
       <use xlink:href="#DejaVuSans-32"/>
       <use xlink:href="#DejaVuSans-30" x="63.623047"/>
       <use xlink:href="#DejaVuSans-30" x="127.246094"/>
      </g>
     </g>
    </g>
    <g id="xtick_4">
     <g id="line2d_7">
      <path d="M 420.33722 320.4 
L 420.33722 43.2 
" clip-path="url(#pc1b74a0b89)" style="fill: none; stroke: #b0b0b0; stroke-width: 0.8; stroke-linecap: square"/>
     </g>
     <g id="line2d_8">
      <g>
       <use xlink:href="#m64f910833f" x="420.33722" y="320.4" style="stroke: #000000; stroke-width: 0.8"/>
      </g>
     </g>
     <g id="text_4">
      <!-- 300 -->
      <g transform="translate(410.79347 334.998438) scale(0.1 -0.1)">
       <defs>
        <path id="DejaVuSans-33" d="M 2597 2516 
Q 3050 2419 3304 2112 
Q 3559 1806 3559 1356 
Q 3559 666 3084 287 
Q 2609 -91 1734 -91 
Q 1441 -91 1130 -33 
Q 819 25 488 141 
L 488 750 
Q 750 597 1062 519 
Q 1375 441 1716 441 
Q 2309 441 2620 675 
Q 2931 909 2931 1356 
Q 2931 1769 2642 2001 
Q 2353 2234 1838 2234 
L 1294 2234 
L 1294 2753 
L 1863 2753 
Q 2328 2753 2575 2939 
Q 2822 3125 2822 3475 
Q 2822 3834 2567 4026 
Q 2313 4219 1838 4219 
Q 1578 4219 1281 4162 
Q 984 4106 628 3988 
L 628 4550 
Q 988 4650 1302 4700 
Q 1616 4750 1894 4750 
Q 2613 4750 3031 4423 
Q 3450 4097 3450 3541 
Q 3450 3153 3228 2886 
Q 3006 2619 2597 2516 
z
" transform="scale(0.015625)"/>
       </defs>
       <use xlink:href="#DejaVuSans-33"/>
       <use xlink:href="#DejaVuSans-30" x="63.623047"/>
       <use xlink:href="#DejaVuSans-30" x="127.246094"/>
      </g>
     </g>
    </g>
    <g id="xtick_5">
     <g id="line2d_9">
      <path d="M 521.995081 320.4 
L 521.995081 43.2 
" clip-path="url(#pc1b74a0b89)" style="fill: none; stroke: #b0b0b0; stroke-width: 0.8; stroke-linecap: square"/>
     </g>
     <g id="line2d_10">
      <g>
       <use xlink:href="#m64f910833f" x="521.995081" y="320.4" style="stroke: #000000; stroke-width: 0.8"/>
      </g>
     </g>
     <g id="text_5">
      <!-- 400 -->
      <g transform="translate(512.451331 334.998438) scale(0.1 -0.1)">
       <defs>
        <path id="DejaVuSans-34" d="M 2419 4116 
L 825 1625 
L 2419 1625 
L 2419 4116 
z
M 2253 4666 
L 3047 4666 
L 3047 1625 
L 3713 1625 
L 3713 1100 
L 3047 1100 
L 3047 0 
L 2419 0 
L 2419 1100 
L 313 1100 
L 313 1709 
L 2253 4666 
z
" transform="scale(0.015625)"/>
       </defs>
       <use xlink:href="#DejaVuSans-34"/>
       <use xlink:href="#DejaVuSans-30" x="63.623047"/>
       <use xlink:href="#DejaVuSans-30" x="127.246094"/>
      </g>
     </g>
    </g>
    <g id="xtick_6">
     <g id="line2d_11">
      <path d="M 623.652942 320.4 
L 623.652942 43.2 
" clip-path="url(#pc1b74a0b89)" style="fill: none; stroke: #b0b0b0; stroke-width: 0.8; stroke-linecap: square"/>
     </g>
     <g id="line2d_12">
      <g>
       <use xlink:href="#m64f910833f" x="623.652942" y="320.4" style="stroke: #000000; stroke-width: 0.8"/>
      </g>
     </g>
     <g id="text_6">
      <!-- 500 -->
      <g transform="translate(614.109192 334.998438) scale(0.1 -0.1)">
       <defs>
        <path id="DejaVuSans-35" d="M 691 4666 
L 3169 4666 
L 3169 4134 
L 1269 4134 
L 1269 2991 
Q 1406 3038 1543 3061 
Q 1681 3084 1819 3084 
Q 2600 3084 3056 2656 
Q 3513 2228 3513 1497 
Q 3513 744 3044 326 
Q 2575 -91 1722 -91 
Q 1428 -91 1123 -41 
Q 819 9 494 109 
L 494 744 
Q 775 591 1075 516 
Q 1375 441 1709 441 
Q 2250 441 2565 725 
Q 2881 1009 2881 1497 
Q 2881 1984 2565 2268 
Q 2250 2553 1709 2553 
Q 1456 2553 1204 2497 
Q 953 2441 691 2322 
L 691 4666 
z
" transform="scale(0.015625)"/>
       </defs>
       <use xlink:href="#DejaVuSans-35"/>
       <use xlink:href="#DejaVuSans-30" x="63.623047"/>
       <use xlink:href="#DejaVuSans-30" x="127.246094"/>
      </g>
     </g>
    </g>
    <g id="text_7">
     <!-- epoch -->
     <g transform="translate(353.771875 348.676562) scale(0.1 -0.1)">
      <defs>
       <path id="DejaVuSans-65" d="M 3597 1894 
L 3597 1613 
L 953 1613 
Q 991 1019 1311 708 
Q 1631 397 2203 397 
Q 2534 397 2845 478 
Q 3156 559 3463 722 
L 3463 178 
Q 3153 47 2828 -22 
Q 2503 -91 2169 -91 
Q 1331 -91 842 396 
Q 353 884 353 1716 
Q 353 2575 817 3079 
Q 1281 3584 2069 3584 
Q 2775 3584 3186 3129 
Q 3597 2675 3597 1894 
z
M 3022 2063 
Q 3016 2534 2758 2815 
Q 2500 3097 2075 3097 
Q 1594 3097 1305 2825 
Q 1016 2553 972 2059 
L 3022 2063 
z
" transform="scale(0.015625)"/>
       <path id="DejaVuSans-70" d="M 1159 525 
L 1159 -1331 
L 581 -1331 
L 581 3500 
L 1159 3500 
L 1159 2969 
Q 1341 3281 1617 3432 
Q 1894 3584 2278 3584 
Q 2916 3584 3314 3078 
Q 3713 2572 3713 1747 
Q 3713 922 3314 415 
Q 2916 -91 2278 -91 
Q 1894 -91 1617 61 
Q 1341 213 1159 525 
z
M 3116 1747 
Q 3116 2381 2855 2742 
Q 2594 3103 2138 3103 
Q 1681 3103 1420 2742 
Q 1159 2381 1159 1747 
Q 1159 1113 1420 752 
Q 1681 391 2138 391 
Q 2594 391 2855 752 
Q 3116 1113 3116 1747 
z
" transform="scale(0.015625)"/>
       <path id="DejaVuSans-6f" d="M 1959 3097 
Q 1497 3097 1228 2736 
Q 959 2375 959 1747 
Q 959 1119 1226 758 
Q 1494 397 1959 397 
Q 2419 397 2687 759 
Q 2956 1122 2956 1747 
Q 2956 2369 2687 2733 
Q 2419 3097 1959 3097 
z
M 1959 3584 
Q 2709 3584 3137 3096 
Q 3566 2609 3566 1747 
Q 3566 888 3137 398 
Q 2709 -91 1959 -91 
Q 1206 -91 779 398 
Q 353 888 353 1747 
Q 353 2609 779 3096 
Q 1206 3584 1959 3584 
z
" transform="scale(0.015625)"/>
       <path id="DejaVuSans-63" d="M 3122 3366 
L 3122 2828 
Q 2878 2963 2633 3030 
Q 2388 3097 2138 3097 
Q 1578 3097 1268 2742 
Q 959 2388 959 1747 
Q 959 1106 1268 751 
Q 1578 397 2138 397 
Q 2388 397 2633 464 
Q 2878 531 3122 666 
L 3122 134 
Q 2881 22 2623 -34 
Q 2366 -91 2075 -91 
Q 1284 -91 818 406 
Q 353 903 353 1747 
Q 353 2603 823 3093 
Q 1294 3584 2113 3584 
Q 2378 3584 2631 3529 
Q 2884 3475 3122 3366 
z
" transform="scale(0.015625)"/>
       <path id="DejaVuSans-68" d="M 3513 2113 
L 3513 0 
L 2938 0 
L 2938 2094 
Q 2938 2591 2744 2837 
Q 2550 3084 2163 3084 
Q 1697 3084 1428 2787 
Q 1159 2491 1159 1978 
L 1159 0 
L 581 0 
L 581 4863 
L 1159 4863 
L 1159 2956 
Q 1366 3272 1645 3428 
Q 1925 3584 2291 3584 
Q 2894 3584 3203 3211 
Q 3513 2838 3513 2113 
z
" transform="scale(0.015625)"/>
      </defs>
      <use xlink:href="#DejaVuSans-65"/>
      <use xlink:href="#DejaVuSans-70" x="61.523438"/>
      <use xlink:href="#DejaVuSans-6f" x="125"/>
      <use xlink:href="#DejaVuSans-63" x="186.181641"/>
      <use xlink:href="#DejaVuSans-68" x="241.162109"/>
     </g>
    </g>
   </g>
   <g id="matplotlib.axis_2">
    <g id="ytick_1">
     <g id="line2d_13">
      <path d="M 90 296.105894 
L 648 296.105894 
" clip-path="url(#pc1b74a0b89)" style="fill: none; stroke: #b0b0b0; stroke-width: 0.8; stroke-linecap: square"/>
     </g>
     <g id="line2d_14">
      <defs>
       <path id="m0e0c7307f5" d="M 0 0 
L -3.5 0 
" style="stroke: #000000; stroke-width: 0.8"/>
      </defs>
      <g>
       <use xlink:href="#m0e0c7307f5" x="90" y="296.105894" style="stroke: #000000; stroke-width: 0.8"/>
      </g>
     </g>
     <g id="text_8">
      <!-- 0.60 -->
      <g transform="translate(60.734375 299.905113) scale(0.1 -0.1)">
       <defs>
        <path id="DejaVuSans-2e" d="M 684 794 
L 1344 794 
L 1344 0 
L 684 0 
L 684 794 
z
" transform="scale(0.015625)"/>
        <path id="DejaVuSans-36" d="M 2113 2584 
Q 1688 2584 1439 2293 
Q 1191 2003 1191 1497 
Q 1191 994 1439 701 
Q 1688 409 2113 409 
Q 2538 409 2786 701 
Q 3034 994 3034 1497 
Q 3034 2003 2786 2293 
Q 2538 2584 2113 2584 
z
M 3366 4563 
L 3366 3988 
Q 3128 4100 2886 4159 
Q 2644 4219 2406 4219 
Q 1781 4219 1451 3797 
Q 1122 3375 1075 2522 
Q 1259 2794 1537 2939 
Q 1816 3084 2150 3084 
Q 2853 3084 3261 2657 
Q 3669 2231 3669 1497 
Q 3669 778 3244 343 
Q 2819 -91 2113 -91 
Q 1303 -91 875 529 
Q 447 1150 447 2328 
Q 447 3434 972 4092 
Q 1497 4750 2381 4750 
Q 2619 4750 2861 4703 
Q 3103 4656 3366 4563 
z
" transform="scale(0.015625)"/>
       </defs>
       <use xlink:href="#DejaVuSans-30"/>
       <use xlink:href="#DejaVuSans-2e" x="63.623047"/>
       <use xlink:href="#DejaVuSans-36" x="95.410156"/>
       <use xlink:href="#DejaVuSans-30" x="159.033203"/>
      </g>
     </g>
    </g>
    <g id="ytick_2">
     <g id="line2d_15">
      <path d="M 90 261.847068 
L 648 261.847068 
" clip-path="url(#pc1b74a0b89)" style="fill: none; stroke: #b0b0b0; stroke-width: 0.8; stroke-linecap: square"/>
     </g>
     <g id="line2d_16">
      <g>
       <use xlink:href="#m0e0c7307f5" x="90" y="261.847068" style="stroke: #000000; stroke-width: 0.8"/>
      </g>
     </g>
     <g id="text_9">
      <!-- 0.65 -->
      <g transform="translate(60.734375 265.646287) scale(0.1 -0.1)">
       <use xlink:href="#DejaVuSans-30"/>
       <use xlink:href="#DejaVuSans-2e" x="63.623047"/>
       <use xlink:href="#DejaVuSans-36" x="95.410156"/>
       <use xlink:href="#DejaVuSans-35" x="159.033203"/>
      </g>
     </g>
    </g>
    <g id="ytick_3">
     <g id="line2d_17">
      <path d="M 90 227.588242 
L 648 227.588242 
" clip-path="url(#pc1b74a0b89)" style="fill: none; stroke: #b0b0b0; stroke-width: 0.8; stroke-linecap: square"/>
     </g>
     <g id="line2d_18">
      <g>
       <use xlink:href="#m0e0c7307f5" x="90" y="227.588242" style="stroke: #000000; stroke-width: 0.8"/>
      </g>
     </g>
     <g id="text_10">
      <!-- 0.70 -->
      <g transform="translate(60.734375 231.387461) scale(0.1 -0.1)">
       <defs>
        <path id="DejaVuSans-37" d="M 525 4666 
L 3525 4666 
L 3525 4397 
L 1831 0 
L 1172 0 
L 2766 4134 
L 525 4134 
L 525 4666 
z
" transform="scale(0.015625)"/>
       </defs>
       <use xlink:href="#DejaVuSans-30"/>
       <use xlink:href="#DejaVuSans-2e" x="63.623047"/>
       <use xlink:href="#DejaVuSans-37" x="95.410156"/>
       <use xlink:href="#DejaVuSans-30" x="159.033203"/>
      </g>
     </g>
    </g>
    <g id="ytick_4">
     <g id="line2d_19">
      <path d="M 90 193.329416 
L 648 193.329416 
" clip-path="url(#pc1b74a0b89)" style="fill: none; stroke: #b0b0b0; stroke-width: 0.8; stroke-linecap: square"/>
     </g>
     <g id="line2d_20">
      <g>
       <use xlink:href="#m0e0c7307f5" x="90" y="193.329416" style="stroke: #000000; stroke-width: 0.8"/>
      </g>
     </g>
     <g id="text_11">
      <!-- 0.75 -->
      <g transform="translate(60.734375 197.128635) scale(0.1 -0.1)">
       <use xlink:href="#DejaVuSans-30"/>
       <use xlink:href="#DejaVuSans-2e" x="63.623047"/>
       <use xlink:href="#DejaVuSans-37" x="95.410156"/>
       <use xlink:href="#DejaVuSans-35" x="159.033203"/>
      </g>
     </g>
    </g>
    <g id="ytick_5">
     <g id="line2d_21">
      <path d="M 90 159.07059 
L 648 159.07059 
" clip-path="url(#pc1b74a0b89)" style="fill: none; stroke: #b0b0b0; stroke-width: 0.8; stroke-linecap: square"/>
     </g>
     <g id="line2d_22">
      <g>
       <use xlink:href="#m0e0c7307f5" x="90" y="159.07059" style="stroke: #000000; stroke-width: 0.8"/>
      </g>
     </g>
     <g id="text_12">
      <!-- 0.80 -->
      <g transform="translate(60.734375 162.869808) scale(0.1 -0.1)">
       <defs>
        <path id="DejaVuSans-38" d="M 2034 2216 
Q 1584 2216 1326 1975 
Q 1069 1734 1069 1313 
Q 1069 891 1326 650 
Q 1584 409 2034 409 
Q 2484 409 2743 651 
Q 3003 894 3003 1313 
Q 3003 1734 2745 1975 
Q 2488 2216 2034 2216 
z
M 1403 2484 
Q 997 2584 770 2862 
Q 544 3141 544 3541 
Q 544 4100 942 4425 
Q 1341 4750 2034 4750 
Q 2731 4750 3128 4425 
Q 3525 4100 3525 3541 
Q 3525 3141 3298 2862 
Q 3072 2584 2669 2484 
Q 3125 2378 3379 2068 
Q 3634 1759 3634 1313 
Q 3634 634 3220 271 
Q 2806 -91 2034 -91 
Q 1263 -91 848 271 
Q 434 634 434 1313 
Q 434 1759 690 2068 
Q 947 2378 1403 2484 
z
M 1172 3481 
Q 1172 3119 1398 2916 
Q 1625 2713 2034 2713 
Q 2441 2713 2670 2916 
Q 2900 3119 2900 3481 
Q 2900 3844 2670 4047 
Q 2441 4250 2034 4250 
Q 1625 4250 1398 4047 
Q 1172 3844 1172 3481 
z
" transform="scale(0.015625)"/>
       </defs>
       <use xlink:href="#DejaVuSans-30"/>
       <use xlink:href="#DejaVuSans-2e" x="63.623047"/>
       <use xlink:href="#DejaVuSans-38" x="95.410156"/>
       <use xlink:href="#DejaVuSans-30" x="159.033203"/>
      </g>
     </g>
    </g>
    <g id="ytick_6">
     <g id="line2d_23">
      <path d="M 90 124.811764 
L 648 124.811764 
" clip-path="url(#pc1b74a0b89)" style="fill: none; stroke: #b0b0b0; stroke-width: 0.8; stroke-linecap: square"/>
     </g>
     <g id="line2d_24">
      <g>
       <use xlink:href="#m0e0c7307f5" x="90" y="124.811764" style="stroke: #000000; stroke-width: 0.8"/>
      </g>
     </g>
     <g id="text_13">
      <!-- 0.85 -->
      <g transform="translate(60.734375 128.610982) scale(0.1 -0.1)">
       <use xlink:href="#DejaVuSans-30"/>
       <use xlink:href="#DejaVuSans-2e" x="63.623047"/>
       <use xlink:href="#DejaVuSans-38" x="95.410156"/>
       <use xlink:href="#DejaVuSans-35" x="159.033203"/>
      </g>
     </g>
    </g>
    <g id="ytick_7">
     <g id="line2d_25">
      <path d="M 90 90.552937 
L 648 90.552937 
" clip-path="url(#pc1b74a0b89)" style="fill: none; stroke: #b0b0b0; stroke-width: 0.8; stroke-linecap: square"/>
     </g>
     <g id="line2d_26">
      <g>
       <use xlink:href="#m0e0c7307f5" x="90" y="90.552937" style="stroke: #000000; stroke-width: 0.8"/>
      </g>
     </g>
     <g id="text_14">
      <!-- 0.90 -->
      <g transform="translate(60.734375 94.352156) scale(0.1 -0.1)">
       <defs>
        <path id="DejaVuSans-39" d="M 703 97 
L 703 672 
Q 941 559 1184 500 
Q 1428 441 1663 441 
Q 2288 441 2617 861 
Q 2947 1281 2994 2138 
Q 2813 1869 2534 1725 
Q 2256 1581 1919 1581 
Q 1219 1581 811 2004 
Q 403 2428 403 3163 
Q 403 3881 828 4315 
Q 1253 4750 1959 4750 
Q 2769 4750 3195 4129 
Q 3622 3509 3622 2328 
Q 3622 1225 3098 567 
Q 2575 -91 1691 -91 
Q 1453 -91 1209 -44 
Q 966 3 703 97 
z
M 1959 2075 
Q 2384 2075 2632 2365 
Q 2881 2656 2881 3163 
Q 2881 3666 2632 3958 
Q 2384 4250 1959 4250 
Q 1534 4250 1286 3958 
Q 1038 3666 1038 3163 
Q 1038 2656 1286 2365 
Q 1534 2075 1959 2075 
z
" transform="scale(0.015625)"/>
       </defs>
       <use xlink:href="#DejaVuSans-30"/>
       <use xlink:href="#DejaVuSans-2e" x="63.623047"/>
       <use xlink:href="#DejaVuSans-39" x="95.410156"/>
       <use xlink:href="#DejaVuSans-30" x="159.033203"/>
      </g>
     </g>
    </g>
    <g id="ytick_8">
     <g id="line2d_27">
      <path d="M 90 56.294111 
L 648 56.294111 
" clip-path="url(#pc1b74a0b89)" style="fill: none; stroke: #b0b0b0; stroke-width: 0.8; stroke-linecap: square"/>
     </g>
     <g id="line2d_28">
      <g>
       <use xlink:href="#m0e0c7307f5" x="90" y="56.294111" style="stroke: #000000; stroke-width: 0.8"/>
      </g>
     </g>
     <g id="text_15">
      <!-- 0.95 -->
      <g transform="translate(60.734375 60.09333) scale(0.1 -0.1)">
       <use xlink:href="#DejaVuSans-30"/>
       <use xlink:href="#DejaVuSans-2e" x="63.623047"/>
       <use xlink:href="#DejaVuSans-39" x="95.410156"/>
       <use xlink:href="#DejaVuSans-35" x="159.033203"/>
      </g>
     </g>
    </g>
    <g id="text_16">
     <!-- accruacy -->
     <g transform="translate(54.654687 204.359375) rotate(-90) scale(0.1 -0.1)">
      <defs>
       <path id="DejaVuSans-61" d="M 2194 1759 
Q 1497 1759 1228 1600 
Q 959 1441 959 1056 
Q 959 750 1161 570 
Q 1363 391 1709 391 
Q 2188 391 2477 730 
Q 2766 1069 2766 1631 
L 2766 1759 
L 2194 1759 
z
M 3341 1997 
L 3341 0 
L 2766 0 
L 2766 531 
Q 2569 213 2275 61 
Q 1981 -91 1556 -91 
Q 1019 -91 701 211 
Q 384 513 384 1019 
Q 384 1609 779 1909 
Q 1175 2209 1959 2209 
L 2766 2209 
L 2766 2266 
Q 2766 2663 2505 2880 
Q 2244 3097 1772 3097 
Q 1472 3097 1187 3025 
Q 903 2953 641 2809 
L 641 3341 
Q 956 3463 1253 3523 
Q 1550 3584 1831 3584 
Q 2591 3584 2966 3190 
Q 3341 2797 3341 1997 
z
" transform="scale(0.015625)"/>
       <path id="DejaVuSans-72" d="M 2631 2963 
Q 2534 3019 2420 3045 
Q 2306 3072 2169 3072 
Q 1681 3072 1420 2755 
Q 1159 2438 1159 1844 
L 1159 0 
L 581 0 
L 581 3500 
L 1159 3500 
L 1159 2956 
Q 1341 3275 1631 3429 
Q 1922 3584 2338 3584 
Q 2397 3584 2469 3576 
Q 2541 3569 2628 3553 
L 2631 2963 
z
" transform="scale(0.015625)"/>
       <path id="DejaVuSans-75" d="M 544 1381 
L 544 3500 
L 1119 3500 
L 1119 1403 
Q 1119 906 1312 657 
Q 1506 409 1894 409 
Q 2359 409 2629 706 
Q 2900 1003 2900 1516 
L 2900 3500 
L 3475 3500 
L 3475 0 
L 2900 0 
L 2900 538 
Q 2691 219 2414 64 
Q 2138 -91 1772 -91 
Q 1169 -91 856 284 
Q 544 659 544 1381 
z
M 1991 3584 
L 1991 3584 
z
" transform="scale(0.015625)"/>
       <path id="DejaVuSans-79" d="M 2059 -325 
Q 1816 -950 1584 -1140 
Q 1353 -1331 966 -1331 
L 506 -1331 
L 506 -850 
L 844 -850 
Q 1081 -850 1212 -737 
Q 1344 -625 1503 -206 
L 1606 56 
L 191 3500 
L 800 3500 
L 1894 763 
L 2988 3500 
L 3597 3500 
L 2059 -325 
z
" transform="scale(0.015625)"/>
      </defs>
      <use xlink:href="#DejaVuSans-61"/>
      <use xlink:href="#DejaVuSans-63" x="61.279297"/>
      <use xlink:href="#DejaVuSans-63" x="116.259766"/>
      <use xlink:href="#DejaVuSans-72" x="171.240234"/>
      <use xlink:href="#DejaVuSans-75" x="212.353516"/>
      <use xlink:href="#DejaVuSans-61" x="275.732422"/>
      <use xlink:href="#DejaVuSans-63" x="337.011719"/>
      <use xlink:href="#DejaVuSans-79" x="391.992188"/>
     </g>
    </g>
   </g>
   <g id="line2d_29">
    <path d="M 115.363636 81.556947 
L 116.380215 79.573976 
L 117.396794 77.005893 
L 118.413372 80.473348 
L 119.429951 79.238069 
L 120.446529 79.032196 
L 121.463108 76.951699 
L 122.479687 76.87586 
L 123.496265 75.510507 
L 124.512844 74.481101 
L 125.529422 75.998133 
L 126.546001 74.405262 
L 127.56258 75.510507 
L 128.579158 74.481101 
L 129.595737 75.304634 
L 130.612316 72.682357 
L 131.628894 74.838694 
L 132.645473 73.733408 
L 133.662051 74.632821 
L 134.67863 74.091 
L 135.695209 74.069355 
L 136.711787 74.968727 
L 137.728366 74.069355 
L 138.744944 76.225692 
L 139.761523 72.834036 
L 140.778102 76.128166 
L 141.79468 72.779842 
L 143.827837 74.990372 
L 144.844416 76.431565 
L 145.860995 72.498129 
L 146.877573 69.66998 
L 147.894152 71.934664 
L 148.910731 72.909875 
L 149.927309 71.262851 
L 150.943888 69.258193 
L 152.977045 71.598758 
L 153.993624 72.779842 
L 155.010202 72.931561 
L 156.026781 72.443935 
L 157.043359 72.985756 
L 158.059938 71.132817 
L 159.076517 71.468724 
L 160.093095 70.926904 
L 161.109674 70.981098 
L 162.126253 70.157565 
L 163.142831 72.725688 
L 164.15941 73.906772 
L 165.175988 72.498129 
L 166.192567 72.162223 
L 167.209146 70.699386 
L 168.225724 71.056937 
L 169.242303 70.309285 
L 170.258881 70.851064 
L 171.27546 69.334033 
L 173.308617 68.922287 
L 174.325196 70.233405 
L 175.341774 71.33869 
L 176.358353 72.032189 
L 177.374932 70.027532 
L 178.39151 69.334033 
L 179.408089 68.358821 
L 180.424668 70.309285 
L 181.441246 69.12816 
L 182.457825 69.258193 
L 183.474403 69.745819 
L 184.490982 68.250433 
L 185.507561 70.25509 
L 186.524139 70.027532 
L 187.540718 68.58638 
L 188.557296 68.098754 
L 189.573875 68.976481 
L 190.590454 70.645191 
L 191.607032 69.05232 
L 192.623611 67.892881 
L 193.640189 68.304627 
L 194.656768 67.686967 
L 195.673347 67.892881 
L 197.706504 69.615786 
L 198.723083 68.58638 
L 199.739661 68.304627 
L 200.75624 66.169977 
L 201.772818 68.58638 
L 202.789397 71.717928 
L 203.805976 68.943932 
L 204.822554 68.716414 
L 205.839133 67.762848 
L 206.855711 71.284496 
L 207.87229 67.405255 
L 208.888869 68.5105 
L 209.905447 68.58638 
L 210.922026 67.686967 
L 211.938604 68.304627 
L 212.955183 70.179251 
L 213.971762 69.843304 
L 214.98834 66.451689 
L 216.004919 67.611128 
L 217.021498 65.21641 
L 218.038076 66.169977 
L 219.054655 68.326313 
L 220.071233 65.834029 
L 221.087812 67.762848 
L 222.104391 68.174593 
L 223.120969 65.628156 
L 224.137548 67.405255 
L 225.154126 65.346444 
L 226.170705 65.552317 
L 227.187284 66.039943 
L 228.203862 66.30001 
L 229.220441 69.951692 
L 230.237019 67.069349 
L 231.253598 65.010497 
L 232.270177 66.473375 
L 233.286755 66.939315 
L 234.303334 64.804624 
L 235.319913 68.608025 
L 236.336491 65.909909 
L 237.35307 66.039943 
L 238.369648 65.75819 
L 240.402806 66.809281 
L 241.419384 65.964063 
L 242.435963 67.4269 
L 243.452541 66.039943 
L 244.46912 67.221027 
L 245.485699 65.909909 
L 246.502277 65.573962 
L 247.518856 64.317038 
L 248.535435 65.552317 
L 249.552013 64.468717 
L 250.568592 64.652945 
L 251.58517 64.111125 
L 252.601749 64.111125 
L 253.618328 66.679248 
L 254.634906 64.392878 
L 255.651485 63.417626 
L 256.668063 65.552317 
L 257.684642 63.157558 
L 258.701221 67.654459 
L 259.717799 66.473375 
L 260.734378 64.392878 
L 261.750956 64.522911 
L 262.767535 66.527528 
L 263.784114 66.625053 
L 264.800692 64.241158 
L 265.817271 65.834029 
L 266.83385 66.527528 
L 267.850428 64.598751 
L 268.867007 63.211753 
L 269.883585 63.157558 
L 270.900164 65.779876 
L 271.916743 65.162216 
L 272.933321 65.14053 
L 273.9499 65.909909 
L 274.966478 62.38822 
L 275.983057 62.669973 
L 276.999636 65.086377 
L 278.016214 67.090994 
L 279.032793 64.750429 
L 280.049371 63.775218 
L 281.06595 64.598751 
L 283.099107 64.598751 
L 284.115686 63.569345 
L 285.132265 64.880463 
L 286.148843 64.468717 
L 287.165422 64.544556 
L 288.182 62.951685 
L 289.198579 65.801521 
L 290.215158 64.262844 
L 291.231736 65.855715 
L 292.248315 64.468717 
L 293.264893 62.334026 
L 294.281472 61.770601 
L 295.298051 64.056971 
L 296.314629 65.855715 
L 298.347786 62.464059 
L 299.364365 64.522911 
L 300.380944 65.725681 
L 301.397522 66.267461 
L 302.414101 63.851057 
L 303.43068 63.645184 
L 304.447258 64.414523 
L 305.463837 65.368089 
L 306.480415 63.493506 
L 307.496994 63.645184 
L 308.513573 62.669973 
L 309.530151 63.569345 
L 310.54673 64.056971 
L 311.563308 62.182347 
L 312.579887 63.233439 
L 313.596466 62.951685 
L 314.613044 62.464059 
L 315.629623 63.905252 
L 316.646201 63.981091 
L 317.66278 63.233439 
L 318.679359 63.721024 
L 319.695937 62.745813 
L 320.712516 64.056971 
L 321.729095 63.981091 
L 322.745673 64.414523 
L 323.762252 62.800007 
L 324.77883 65.162216 
L 325.795409 62.691618 
L 326.811988 63.569345 
L 328.845145 61.846441 
L 329.861723 65.108022 
L 330.878302 62.203992 
L 331.894881 63.027525 
L 332.911459 62.485745 
L 333.928038 62.669973 
L 334.944617 65.238055 
L 335.961195 63.926938 
L 336.977774 64.262844 
L 339.010931 61.510534 
L 340.02751 64.750429 
L 341.044088 60.817035 
L 342.060667 64.902149 
L 343.077245 61.846441 
L 344.093824 61.640568 
L 345.110403 62.691618 
L 346.126981 61.022908 
L 347.14356 63.699379 
L 348.160138 64.20865 
L 349.176717 61.716407 
L 350.193296 64.338683 
L 351.209874 63.796904 
L 352.226453 65.443928 
L 353.243032 62.485745 
L 354.25961 63.981091 
L 355.276189 61.586373 
L 356.292767 62.128153 
L 357.309346 64.187005 
L 358.325925 63.59099 
L 359.342503 61.30462 
L 360.359082 63.796904 
L 361.37566 63.515151 
L 362.392239 62.561585 
L 363.408818 60.405248 
L 364.425396 59.300003 
L 365.441975 60.329409 
L 366.458553 60.762841 
L 367.475132 63.179244 
L 368.491711 62.745813 
L 369.508289 61.434654 
L 370.524868 62.767458 
L 371.541447 61.022908 
L 372.558025 64.977988 
L 373.574604 63.775218 
L 374.591182 64.002777 
L 375.607761 64.880463 
L 376.62434 63.233439 
L 377.640918 60.741155 
L 378.657497 61.640568 
L 380.690654 62.334026 
L 381.707233 61.30462 
L 382.723811 62.485745 
L 383.74039 63.851057 
L 384.756968 61.022908 
L 385.773547 59.863469 
L 386.790126 59.993502 
L 389.839862 61.792246 
L 390.85644 63.157558 
L 391.873019 65.443928 
L 392.889597 63.775218 
L 393.906176 59.711749 
L 394.922755 60.069342 
L 395.939333 62.073959 
L 396.955912 61.228781 
L 397.97249 62.615779 
L 398.989069 61.510534 
L 400.005648 63.103405 
L 401.022226 62.897491 
L 402.038805 61.510534 
L 403.055383 61.098747 
L 404.071962 65.476478 
L 405.088541 66.039943 
L 406.105119 63.493506 
L 407.121698 62.897491 
L 408.138277 60.611121 
L 409.154855 62.669973 
L 410.171434 62.052314 
L 411.188012 61.586373 
L 413.22117 61.716407 
L 414.237748 59.657555 
L 415.254327 61.510534 
L 416.270905 60.892874 
L 417.287484 62.615779 
L 418.304063 62.821652 
L 419.320641 61.662213 
L 420.33722 61.30462 
L 421.353799 61.792246 
L 423.386956 58.682344 
L 424.403534 62.615779 
L 425.420113 61.92228 
L 426.436692 62.53994 
L 427.45327 59.09413 
L 428.469849 60.199375 
L 429.486427 62.073959 
L 430.503006 61.792246 
L 431.519585 62.745813 
L 433.552742 58.964097 
L 434.56932 61.250467 
L 435.585899 61.228781 
L 436.602478 61.3805 
L 437.619056 61.098747 
L 438.635635 61.510534 
L 439.652214 62.38822 
L 440.668792 61.846441 
L 441.685371 59.993502 
L 442.701949 64.132811 
L 443.718528 62.334026 
L 445.751685 60.762841 
L 446.768264 64.078616 
L 447.784842 62.355712 
L 448.801421 60.892874 
L 449.818 61.792246 
L 450.834578 61.434654 
L 451.851157 61.92228 
L 452.867735 63.796904 
L 453.884314 62.485745 
L 454.900893 62.279872 
L 455.917471 59.16997 
L 456.93405 61.998119 
L 457.950629 63.179244 
L 459.983786 60.405248 
L 461.000364 63.103405 
L 462.016943 59.505876 
L 463.033522 61.3805 
L 464.0501 62.279872 
L 465.066679 60.351054 
L 466.083257 60.481088 
L 467.099836 62.409906 
L 468.116415 63.309278 
L 469.132993 60.892874 
L 470.149572 61.868086 
L 471.16615 60.611121 
L 472.182729 61.792246 
L 473.199308 60.892874 
L 474.215886 61.3805 
L 475.232465 60.762841 
L 476.249044 58.55231 
L 477.265622 62.615779 
L 478.282201 64.696276 
L 480.315358 60.145181 
L 481.331937 59.321648 
L 482.348515 60.145181 
L 483.365094 61.532179 
L 485.398251 60.481088 
L 486.41483 60.199375 
L 487.431408 61.250467 
L 488.447987 61.716407 
L 489.464565 61.92228 
L 490.481144 59.451682 
L 491.497723 60.556968 
L 492.514301 61.45634 
L 493.53088 58.476471 
L 494.547459 60.123536 
L 495.564037 60.892874 
L 496.580616 59.451682 
L 497.597194 61.3805 
L 498.613773 59.787589 
L 499.630352 59.300003 
L 500.64693 60.069342 
L 501.663509 62.019805 
L 502.680087 61.30462 
L 503.696666 62.409906 
L 504.713245 62.279872 
L 505.729823 61.174587 
L 506.746402 61.434654 
L 507.762981 61.510534 
L 508.779559 60.611121 
L 509.796138 59.993502 
L 510.812716 60.762841 
L 511.829295 59.505876 
L 512.845874 59.787589 
L 513.862452 59.603402 
L 514.879031 61.250467 
L 515.895609 60.145181 
L 516.912188 59.581716 
L 517.928767 61.813891 
L 518.945345 60.405248 
L 519.961924 60.199375 
L 520.978502 62.149839 
L 521.995081 60.611121 
L 523.01166 61.098747 
L 524.028238 59.581716 
L 525.044817 60.145181 
L 526.061396 62.485745 
L 527.077974 59.505876 
L 528.094553 63.796904 
L 529.111131 61.228781 
L 530.12771 63.157558 
L 531.144289 61.228781 
L 532.160867 60.687001 
L 534.194024 61.30462 
L 535.210603 60.481088 
L 536.227182 64.642082 
L 537.24376 62.279872 
L 538.260339 60.481088 
L 539.276917 60.199375 
L 540.293496 60.069342 
L 541.310075 59.451682 
L 542.326653 59.527521 
L 543.343232 61.250467 
L 544.359811 60.275215 
L 545.376389 58.346437 
L 546.392968 62.203992 
L 547.409546 61.586373 
L 548.426125 59.527521 
L 549.442704 58.758183 
L 550.459282 61.30462 
L 551.475861 59.300003 
L 552.492439 61.250467 
L 553.509018 61.044553 
L 554.525597 59.939308 
L 555.542175 59.451682 
L 556.558754 58.682344 
L 557.575332 61.586373 
L 558.591911 61.662213 
L 559.60849 61.174587 
L 560.625068 58.682344 
L 561.641647 60.351054 
L 562.658226 60.275215 
L 563.674804 62.615779 
L 564.691383 58.216404 
L 565.707961 60.275215 
L 566.72454 60.405248 
L 567.741119 60.762841 
L 568.757697 60.351054 
L 569.774276 59.09413 
L 570.790854 59.16997 
L 571.807433 60.708646 
L 573.84059 59.09413 
L 574.857169 61.044553 
L 575.873747 58.628149 
L 576.890326 60.426934 
L 577.906905 59.733435 
L 578.923483 60.329409 
L 579.940062 55.8 
L 580.956641 58.422277 
L 581.973219 59.321648 
L 582.989798 58.55231 
L 584.006376 58.70403 
L 586.039534 59.863469 
L 587.056112 61.098747 
L 588.072691 60.199375 
L 589.089269 60.632807 
L 590.105848 61.868086 
L 591.122427 59.039936 
L 592.139005 59.657555 
L 593.155584 62.431551 
L 594.172163 58.064684 
L 595.188741 58.70403 
L 596.20532 60.892874 
L 597.221898 62.485745 
L 599.255056 60.275215 
L 600.271634 60.708646 
L 601.288213 59.245809 
L 602.304791 61.662213 
L 603.32137 61.846441 
L 604.337949 59.505876 
L 606.371106 61.998119 
L 607.387684 60.892874 
L 608.404263 60.145181 
L 609.420842 60.275215 
L 610.43742 61.044553 
L 611.453999 59.527521 
L 612.470578 59.581716 
L 613.487156 60.351054 
L 614.503735 59.473368 
L 615.520313 60.817035 
L 616.536892 60.556968 
L 617.553471 62.073959 
L 618.570049 58.682344 
L 619.586628 62.279872 
L 620.603206 59.451682 
L 621.619785 59.939308 
L 622.636364 58.270598 
L 622.636364 58.270598 
" clip-path="url(#pc1b74a0b89)" style="fill: none; stroke: #1f77b4; stroke-width: 1.5; stroke-linecap: square"/>
   </g>
   <g id="line2d_30">
    <path d="M 115.363636 292.839232 
L 116.380215 293.250978 
L 117.396794 295.035306 
L 118.413372 295.035306 
L 119.429951 289.682364 
L 120.446529 289.270577 
L 121.463108 289.270577 
L 122.479687 291.878438 
L 123.496265 293.662765 
L 124.512844 290.094151 
L 125.529422 288.309823 
L 126.546001 291.878438 
L 127.56258 290.094151 
L 128.579158 284.329423 
L 129.595737 291.878438 
L 130.612316 288.309823 
L 131.628894 284.329423 
L 132.645473 286.525496 
L 133.662051 282.545095 
L 134.67863 284.329423 
L 135.695209 278.152948 
L 137.728366 290.094151 
L 138.744944 284.329423 
L 139.761523 283.917636 
L 140.778102 283.917636 
L 141.79468 286.11375 
L 142.811259 284.741209 
L 143.827837 288.309823 
L 145.860995 291.878438 
L 146.877573 282.133349 
L 147.894152 284.329423 
L 148.910731 286.11375 
L 149.927309 284.329423 
L 151.960466 288.721569 
L 152.977045 284.329423 
L 153.993624 288.309823 
L 155.010202 284.329423 
L 156.026781 288.721569 
L 157.043359 282.545095 
L 159.076517 286.11375 
L 160.093095 286.525496 
L 161.109674 290.505897 
L 162.126253 286.11375 
L 163.142831 286.525496 
L 164.15941 288.721569 
L 165.175988 287.898037 
L 166.192567 288.309823 
L 167.209146 286.525496 
L 168.225724 284.329423 
L 170.258881 288.721569 
L 173.308617 288.721569 
L 174.325196 290.094151 
L 175.341774 285.152955 
L 176.358353 286.525496 
L 177.374932 290.505897 
L 178.39151 290.917643 
L 179.408089 288.721569 
L 180.424668 292.290183 
L 181.441246 288.721569 
L 182.457825 292.290183 
L 183.474403 290.505897 
L 184.490982 286.525496 
L 185.507561 290.505897 
L 186.524139 290.094151 
L 187.540718 286.525496 
L 188.557296 290.094151 
L 189.573875 286.525496 
L 190.590454 291.878438 
L 191.607032 290.094151 
L 192.623611 290.505897 
L 193.640189 290.505897 
L 194.656768 290.094151 
L 195.673347 292.70197 
L 196.689925 287.898037 
L 198.723083 296.270584 
L 200.75624 284.329423 
L 201.772818 292.290183 
L 202.789397 296.68233 
L 204.822554 296.68233 
L 205.839133 292.70197 
L 206.855711 290.505897 
L 207.87229 294.486298 
L 208.888869 290.917643 
L 209.905447 296.68233 
L 210.922026 292.70197 
L 211.938604 292.70197 
L 212.955183 292.290183 
L 213.971762 292.70197 
L 214.98834 294.486298 
L 216.004919 294.486298 
L 217.021498 294.074511 
L 218.038076 290.505897 
L 219.054655 298.054912 
L 221.087812 294.486298 
L 222.104391 300.250985 
L 223.120969 292.70197 
L 225.154126 296.270584 
L 226.170705 294.486298 
L 227.187284 294.486298 
L 228.203862 295.858838 
L 229.220441 296.270584 
L 230.237019 291.878438 
L 231.253598 290.094151 
L 232.270177 294.074511 
L 233.286755 292.290183 
L 234.303334 290.094151 
L 236.336491 290.094151 
L 237.35307 291.878438 
L 238.369648 287.898037 
L 239.386227 293.662765 
L 240.402806 279.937235 
L 241.419384 287.898037 
L 242.435963 290.094151 
L 243.452541 284.329423 
L 244.46912 288.721569 
L 245.485699 290.917643 
L 246.502277 286.11375 
L 247.518856 292.290183 
L 248.535435 286.525496 
L 249.552013 288.721569 
L 250.568592 292.290183 
L 251.58517 291.878438 
L 252.601749 286.11375 
L 253.618328 289.682364 
L 254.634906 290.094151 
L 255.651485 286.11375 
L 256.668063 278.564694 
L 257.684642 290.505897 
L 258.701221 292.290183 
L 259.717799 286.525496 
L 260.734378 287.898037 
L 261.750956 286.11375 
L 262.767535 292.290183 
L 263.784114 293.662765 
L 264.800692 281.721562 
L 265.817271 291.878438 
L 266.83385 290.094151 
L 267.850428 289.682364 
L 268.867007 285.701963 
L 269.883585 289.682364 
L 270.900164 297.643125 
L 271.916743 291.466692 
L 272.933321 289.682364 
L 273.9499 291.466692 
L 274.966478 289.682364 
L 275.983057 290.094151 
L 276.999636 287.486291 
L 278.016214 287.898037 
L 279.032793 296.270584 
L 280.049371 290.094151 
L 281.06595 282.133349 
L 282.082529 288.721569 
L 283.099107 292.290183 
L 284.115686 288.309823 
L 285.132265 286.525496 
L 286.148843 281.721562 
L 287.165422 283.917636 
L 288.182 287.898037 
L 289.198579 286.11375 
L 290.215158 287.486291 
L 291.231736 285.290177 
L 292.248315 295.858838 
L 293.264893 283.917636 
L 294.281472 292.290183 
L 295.298051 296.270584 
L 296.314629 294.486298 
L 297.331208 287.898037 
L 298.347786 292.290183 
L 299.364365 300.250985 
L 300.380944 286.11375 
L 301.397522 292.290183 
L 302.414101 282.545095 
L 303.43068 300.250985 
L 304.447258 288.721569 
L 305.463837 290.505897 
L 306.480415 290.505897 
L 307.496994 291.878438 
L 308.513573 285.701963 
L 309.530151 290.505897 
L 310.54673 290.094151 
L 311.563308 286.11375 
L 312.579887 292.290183 
L 313.596466 288.309823 
L 314.613044 292.70197 
L 315.629623 290.505897 
L 316.646201 290.094151 
L 317.66278 286.11375 
L 318.679359 294.074511 
L 319.695937 284.329423 
L 320.712516 288.721569 
L 321.729095 286.11375 
L 322.745673 288.309823 
L 323.762252 290.094151 
L 324.77883 289.682364 
L 325.795409 290.094151 
L 326.811988 289.133356 
L 327.828566 287.898037 
L 328.845145 299.839239 
L 329.861723 291.466692 
L 330.878302 294.074511 
L 331.894881 286.11375 
L 332.911459 288.309823 
L 333.928038 288.309823 
L 334.944617 283.50589 
L 335.961195 289.133356 
L 336.977774 288.721569 
L 337.994352 290.094151 
L 339.010931 293.662765 
L 340.02751 286.525496 
L 341.044088 290.094151 
L 342.060667 292.70197 
L 343.077245 294.898043 
L 344.093824 293.113716 
L 345.110403 289.545102 
L 346.126981 286.937242 
L 347.14356 287.349029 
L 348.160138 290.505897 
L 349.176717 292.290183 
L 350.193296 287.898037 
L 351.209874 290.094151 
L 352.226453 282.133349 
L 353.243032 290.505897 
L 354.25961 290.094151 
L 355.276189 284.741209 
L 356.292767 281.172554 
L 357.309346 288.309823 
L 358.325925 291.878438 
L 359.342503 290.094151 
L 360.359082 292.70197 
L 361.37566 286.525496 
L 362.392239 292.290183 
L 363.408818 290.505897 
L 364.425396 292.70197 
L 365.441975 292.70197 
L 366.458553 292.290183 
L 367.475132 292.290183 
L 368.491711 286.11375 
L 369.508289 288.309823 
L 370.524868 287.486291 
L 371.541447 288.309823 
L 372.558025 290.505897 
L 373.574604 288.309823 
L 374.591182 288.721569 
L 375.607761 287.349029 
L 376.62434 288.721569 
L 377.640918 292.290183 
L 378.657497 281.721562 
L 379.674075 291.878438 
L 380.690654 284.741209 
L 381.707233 286.525496 
L 382.723811 285.152955 
L 383.74039 286.937242 
L 384.756968 291.329389 
L 385.773547 286.937242 
L 386.790126 288.721569 
L 387.806704 286.937242 
L 388.823283 287.898037 
L 389.839862 284.329423 
L 390.85644 290.505897 
L 391.873019 286.525496 
L 392.889597 290.505897 
L 393.906176 292.70197 
L 394.922755 290.917643 
L 395.939333 296.270584 
L 396.955912 290.917643 
L 397.97249 294.486298 
L 400.005648 286.525496 
L 401.022226 284.741209 
L 402.038805 290.505897 
L 403.055383 290.917643 
L 404.071962 292.70197 
L 405.088541 290.917643 
L 406.105119 284.741209 
L 407.121698 282.956882 
L 408.138277 287.349029 
L 409.154855 293.113716 
L 410.171434 290.917643 
L 411.188012 285.152955 
L 412.204591 285.564701 
L 413.22117 289.545102 
L 414.237748 289.545102 
L 415.254327 293.113716 
L 417.287484 289.545102 
L 418.304063 287.349029 
L 419.320641 289.133356 
L 420.33722 293.113716 
L 421.353799 289.133356 
L 422.370377 292.70197 
L 423.386956 290.505897 
L 424.403534 290.917643 
L 425.420113 290.917643 
L 426.436692 289.133356 
L 427.45327 285.152955 
L 428.469849 293.113716 
L 429.486427 288.721569 
L 430.503006 289.133356 
L 431.519585 292.290183 
L 432.536163 289.133356 
L 433.552742 288.721569 
L 434.56932 289.133356 
L 436.602478 287.349029 
L 437.619056 293.525503 
L 438.635635 290.505897 
L 439.652214 282.545095 
L 440.668792 288.309823 
L 441.685371 284.741209 
L 442.701949 286.937242 
L 443.718528 290.917643 
L 444.735107 286.937242 
L 445.751685 296.270584 
L 446.768264 290.917643 
L 447.784842 293.113716 
L 448.801421 296.68233 
L 449.818 292.70197 
L 450.834578 298.466658 
L 451.851157 292.70197 
L 452.867735 294.074511 
L 453.884314 290.917643 
L 454.900893 297.643125 
L 455.917471 288.309823 
L 456.93405 288.721569 
L 457.950629 286.937242 
L 458.967207 286.937242 
L 459.983786 288.309823 
L 461.000364 282.545095 
L 462.016943 288.309823 
L 463.033522 288.309823 
L 464.0501 278.564694 
L 465.066679 288.721569 
L 466.083257 286.11375 
L 467.099836 292.290183 
L 468.116415 291.878438 
L 469.132993 281.309776 
L 470.149572 280.760808 
L 471.16615 286.11375 
L 473.199308 286.11375 
L 474.215886 280.349022 
L 475.232465 286.11375 
L 476.249044 284.329423 
L 477.265622 294.074511 
L 478.282201 286.525496 
L 479.298779 288.721569 
L 480.315358 290.505897 
L 481.331937 295.858838 
L 482.348515 286.525496 
L 483.365094 294.074511 
L 484.381672 292.70197 
L 485.398251 290.505897 
L 486.41483 292.290183 
L 487.431408 292.290183 
L 488.447987 296.270584 
L 489.464565 294.074511 
L 490.481144 290.094151 
L 491.497723 290.094151 
L 492.514301 295.447092 
L 493.53088 297.643125 
L 494.547459 287.898037 
L 495.564037 290.094151 
L 496.580616 287.898037 
L 497.597194 294.486298 
L 498.613773 287.898037 
L 499.630352 290.094151 
L 500.64693 295.447092 
L 501.663509 293.662765 
L 502.680087 293.662765 
L 503.696666 293.250978 
L 504.713245 294.486298 
L 505.729823 296.68233 
L 506.746402 295.858838 
L 507.762981 295.858838 
L 508.779559 292.70197 
L 509.796138 297.643125 
L 510.812716 289.682364 
L 511.829295 299.839239 
L 512.845874 292.290183 
L 513.862452 292.70197 
L 514.879031 295.858838 
L 515.895609 294.074511 
L 516.912188 294.074511 
L 517.928767 299.427452 
L 518.945345 298.466658 
L 519.961924 301.623526 
L 520.978502 302.858845 
L 521.995081 296.68233 
L 523.01166 304.231386 
L 524.028238 296.270584 
L 525.044817 306.427459 
L 526.061396 302.858845 
L 527.077974 300.250985 
L 528.094553 295.858838 
L 530.12771 292.290183 
L 531.144289 295.858838 
L 532.160867 295.858838 
L 533.177446 292.290183 
L 534.194024 294.074511 
L 535.210603 299.839239 
L 536.227182 298.054912 
L 537.24376 293.113716 
L 538.260339 296.68233 
L 539.276917 294.486298 
L 540.293496 298.054912 
L 541.310075 299.29019 
L 542.326653 294.486298 
L 543.343232 290.505897 
L 544.359811 297.643125 
L 545.376389 296.68233 
L 546.392968 296.270584 
L 547.409546 298.878444 
L 548.426125 294.898043 
L 549.442704 294.898043 
L 550.459282 302.035272 
L 551.475861 296.270584 
L 552.492439 294.486298 
L 553.509018 299.839239 
L 554.525597 296.270584 
L 555.542175 298.054912 
L 556.558754 294.486298 
L 557.575332 296.68233 
L 558.591911 297.094117 
L 559.60849 295.309789 
L 560.625068 294.898043 
L 561.641647 296.68233 
L 562.658226 296.68233 
L 563.674804 298.054912 
L 564.691383 298.878444 
L 565.707961 296.68233 
L 566.72454 298.466658 
L 567.741119 302.447058 
L 568.757697 300.662731 
L 569.774276 292.290183 
L 570.790854 305.603927 
L 571.807433 300.250985 
L 572.824012 300.662731 
L 574.857169 296.270584 
L 575.873747 294.486298 
L 576.890326 299.839239 
L 577.906905 298.878444 
L 578.923483 294.898043 
L 579.940062 302.035272 
L 580.956641 300.662731 
L 581.973219 295.858838 
L 582.989798 294.486298 
L 585.022955 290.917643 
L 586.039534 297.094117 
L 587.056112 298.054912 
L 588.072691 294.898043 
L 589.089269 299.29019 
L 590.105848 291.329389 
L 591.122427 302.035272 
L 592.139005 298.466658 
L 593.155584 298.466658 
L 594.172163 300.250985 
L 595.188741 296.270584 
L 596.20532 289.133356 
L 597.221898 294.898043 
L 598.238477 294.898043 
L 599.255056 292.70197 
L 600.271634 294.486298 
L 601.288213 298.466658 
L 602.304791 298.878444 
L 603.32137 304.643132 
L 604.337949 300.662731 
L 605.354527 302.858845 
L 606.371106 298.878444 
L 607.387684 300.662731 
L 608.404263 298.878444 
L 609.420842 298.878444 
L 610.43742 302.035272 
L 611.453999 304.231386 
L 612.470578 304.643132 
L 613.487156 304.231386 
L 614.503735 298.466658 
L 615.520313 300.250985 
L 616.536892 304.231386 
L 617.553471 302.858845 
L 618.570049 300.250985 
L 619.586628 300.662731 
L 620.603206 306.015673 
L 621.619785 307.8 
L 622.636364 306.015673 
L 622.636364 306.015673 
" clip-path="url(#pc1b74a0b89)" style="fill: none; stroke: #ff7f0e; stroke-width: 1.5; stroke-linecap: square"/>
   </g>
   <g id="patch_3">
    <path d="M 90 320.4 
L 90 43.2 
" style="fill: none; stroke: #000000; stroke-width: 0.8; stroke-linejoin: miter; stroke-linecap: square"/>
   </g>
   <g id="patch_4">
    <path d="M 648 320.4 
L 648 43.2 
" style="fill: none; stroke: #000000; stroke-width: 0.8; stroke-linejoin: miter; stroke-linecap: square"/>
   </g>
   <g id="patch_5">
    <path d="M 90 320.4 
L 648 320.4 
" style="fill: none; stroke: #000000; stroke-width: 0.8; stroke-linejoin: miter; stroke-linecap: square"/>
   </g>
   <g id="patch_6">
    <path d="M 90 43.2 
L 648 43.2 
" style="fill: none; stroke: #000000; stroke-width: 0.8; stroke-linejoin: miter; stroke-linecap: square"/>
   </g>
   <g id="text_17">
    <!-- model train and validation accracy over time -->
    <g transform="translate(233.87625 37.2) scale(0.12 -0.12)">
     <defs>
      <path id="DejaVuSans-6d" d="M 3328 2828 
Q 3544 3216 3844 3400 
Q 4144 3584 4550 3584 
Q 5097 3584 5394 3201 
Q 5691 2819 5691 2113 
L 5691 0 
L 5113 0 
L 5113 2094 
Q 5113 2597 4934 2840 
Q 4756 3084 4391 3084 
Q 3944 3084 3684 2787 
Q 3425 2491 3425 1978 
L 3425 0 
L 2847 0 
L 2847 2094 
Q 2847 2600 2669 2842 
Q 2491 3084 2119 3084 
Q 1678 3084 1418 2786 
Q 1159 2488 1159 1978 
L 1159 0 
L 581 0 
L 581 3500 
L 1159 3500 
L 1159 2956 
Q 1356 3278 1631 3431 
Q 1906 3584 2284 3584 
Q 2666 3584 2933 3390 
Q 3200 3197 3328 2828 
z
" transform="scale(0.015625)"/>
      <path id="DejaVuSans-64" d="M 2906 2969 
L 2906 4863 
L 3481 4863 
L 3481 0 
L 2906 0 
L 2906 525 
Q 2725 213 2448 61 
Q 2172 -91 1784 -91 
Q 1150 -91 751 415 
Q 353 922 353 1747 
Q 353 2572 751 3078 
Q 1150 3584 1784 3584 
Q 2172 3584 2448 3432 
Q 2725 3281 2906 2969 
z
M 947 1747 
Q 947 1113 1208 752 
Q 1469 391 1925 391 
Q 2381 391 2643 752 
Q 2906 1113 2906 1747 
Q 2906 2381 2643 2742 
Q 2381 3103 1925 3103 
Q 1469 3103 1208 2742 
Q 947 2381 947 1747 
z
" transform="scale(0.015625)"/>
      <path id="DejaVuSans-6c" d="M 603 4863 
L 1178 4863 
L 1178 0 
L 603 0 
L 603 4863 
z
" transform="scale(0.015625)"/>
      <path id="DejaVuSans-20" transform="scale(0.015625)"/>
      <path id="DejaVuSans-74" d="M 1172 4494 
L 1172 3500 
L 2356 3500 
L 2356 3053 
L 1172 3053 
L 1172 1153 
Q 1172 725 1289 603 
Q 1406 481 1766 481 
L 2356 481 
L 2356 0 
L 1766 0 
Q 1100 0 847 248 
Q 594 497 594 1153 
L 594 3053 
L 172 3053 
L 172 3500 
L 594 3500 
L 594 4494 
L 1172 4494 
z
" transform="scale(0.015625)"/>
      <path id="DejaVuSans-69" d="M 603 3500 
L 1178 3500 
L 1178 0 
L 603 0 
L 603 3500 
z
M 603 4863 
L 1178 4863 
L 1178 4134 
L 603 4134 
L 603 4863 
z
" transform="scale(0.015625)"/>
      <path id="DejaVuSans-6e" d="M 3513 2113 
L 3513 0 
L 2938 0 
L 2938 2094 
Q 2938 2591 2744 2837 
Q 2550 3084 2163 3084 
Q 1697 3084 1428 2787 
Q 1159 2491 1159 1978 
L 1159 0 
L 581 0 
L 581 3500 
L 1159 3500 
L 1159 2956 
Q 1366 3272 1645 3428 
Q 1925 3584 2291 3584 
Q 2894 3584 3203 3211 
Q 3513 2838 3513 2113 
z
" transform="scale(0.015625)"/>
      <path id="DejaVuSans-76" d="M 191 3500 
L 800 3500 
L 1894 563 
L 2988 3500 
L 3597 3500 
L 2284 0 
L 1503 0 
L 191 3500 
z
" transform="scale(0.015625)"/>
     </defs>
     <use xlink:href="#DejaVuSans-6d"/>
     <use xlink:href="#DejaVuSans-6f" x="97.412109"/>
     <use xlink:href="#DejaVuSans-64" x="158.59375"/>
     <use xlink:href="#DejaVuSans-65" x="222.070312"/>
     <use xlink:href="#DejaVuSans-6c" x="283.59375"/>
     <use xlink:href="#DejaVuSans-20" x="311.376953"/>
     <use xlink:href="#DejaVuSans-74" x="343.164062"/>
     <use xlink:href="#DejaVuSans-72" x="382.373047"/>
     <use xlink:href="#DejaVuSans-61" x="423.486328"/>
     <use xlink:href="#DejaVuSans-69" x="484.765625"/>
     <use xlink:href="#DejaVuSans-6e" x="512.548828"/>
     <use xlink:href="#DejaVuSans-20" x="575.927734"/>
     <use xlink:href="#DejaVuSans-61" x="607.714844"/>
     <use xlink:href="#DejaVuSans-6e" x="668.994141"/>
     <use xlink:href="#DejaVuSans-64" x="732.373047"/>
     <use xlink:href="#DejaVuSans-20" x="795.849609"/>
     <use xlink:href="#DejaVuSans-76" x="827.636719"/>
     <use xlink:href="#DejaVuSans-61" x="886.816406"/>
     <use xlink:href="#DejaVuSans-6c" x="948.095703"/>
     <use xlink:href="#DejaVuSans-69" x="975.878906"/>
     <use xlink:href="#DejaVuSans-64" x="1003.662109"/>
     <use xlink:href="#DejaVuSans-61" x="1067.138672"/>
     <use xlink:href="#DejaVuSans-74" x="1128.417969"/>
     <use xlink:href="#DejaVuSans-69" x="1167.626953"/>
     <use xlink:href="#DejaVuSans-6f" x="1195.410156"/>
     <use xlink:href="#DejaVuSans-6e" x="1256.591797"/>
     <use xlink:href="#DejaVuSans-20" x="1319.970703"/>
     <use xlink:href="#DejaVuSans-61" x="1351.757812"/>
     <use xlink:href="#DejaVuSans-63" x="1413.037109"/>
     <use xlink:href="#DejaVuSans-63" x="1468.017578"/>
     <use xlink:href="#DejaVuSans-72" x="1522.998047"/>
     <use xlink:href="#DejaVuSans-61" x="1564.111328"/>
     <use xlink:href="#DejaVuSans-63" x="1625.390625"/>
     <use xlink:href="#DejaVuSans-79" x="1680.371094"/>
     <use xlink:href="#DejaVuSans-20" x="1739.550781"/>
     <use xlink:href="#DejaVuSans-6f" x="1771.337891"/>
     <use xlink:href="#DejaVuSans-76" x="1832.519531"/>
     <use xlink:href="#DejaVuSans-65" x="1891.699219"/>
     <use xlink:href="#DejaVuSans-72" x="1953.222656"/>
     <use xlink:href="#DejaVuSans-20" x="1994.335938"/>
     <use xlink:href="#DejaVuSans-74" x="2026.123047"/>
     <use xlink:href="#DejaVuSans-69" x="2065.332031"/>
     <use xlink:href="#DejaVuSans-6d" x="2093.115234"/>
     <use xlink:href="#DejaVuSans-65" x="2190.527344"/>
    </g>
   </g>
   <g id="legend_1">
    <g id="patch_7">
     <path d="M 559.765625 197.978125 
L 641 197.978125 
Q 643 197.978125 643 195.978125 
L 643 167.621875 
Q 643 165.621875 641 165.621875 
L 559.765625 165.621875 
Q 557.765625 165.621875 557.765625 167.621875 
L 557.765625 195.978125 
Q 557.765625 197.978125 559.765625 197.978125 
z
" style="fill: #ffffff; opacity: 0.8; stroke: #cccccc; stroke-linejoin: miter"/>
    </g>
    <g id="line2d_31">
     <path d="M 561.765625 173.720312 
L 571.765625 173.720312 
L 581.765625 173.720312 
" style="fill: none; stroke: #1f77b4; stroke-width: 1.5; stroke-linecap: square"/>
    </g>
    <g id="text_18">
     <!-- train -->
     <g transform="translate(589.765625 177.220312) scale(0.1 -0.1)">
      <use xlink:href="#DejaVuSans-74"/>
      <use xlink:href="#DejaVuSans-72" x="39.208984"/>
      <use xlink:href="#DejaVuSans-61" x="80.322266"/>
      <use xlink:href="#DejaVuSans-69" x="141.601562"/>
      <use xlink:href="#DejaVuSans-6e" x="169.384766"/>
     </g>
    </g>
    <g id="line2d_32">
     <path d="M 561.765625 188.398437 
L 571.765625 188.398437 
L 581.765625 188.398437 
" style="fill: none; stroke: #ff7f0e; stroke-width: 1.5; stroke-linecap: square"/>
    </g>
    <g id="text_19">
     <!-- validation -->
     <g transform="translate(589.765625 191.898437) scale(0.1 -0.1)">
      <use xlink:href="#DejaVuSans-76"/>
      <use xlink:href="#DejaVuSans-61" x="59.179688"/>
      <use xlink:href="#DejaVuSans-6c" x="120.458984"/>
      <use xlink:href="#DejaVuSans-69" x="148.242188"/>
      <use xlink:href="#DejaVuSans-64" x="176.025391"/>
      <use xlink:href="#DejaVuSans-61" x="239.501953"/>
      <use xlink:href="#DejaVuSans-74" x="300.78125"/>
      <use xlink:href="#DejaVuSans-69" x="339.990234"/>
      <use xlink:href="#DejaVuSans-6f" x="367.773438"/>
      <use xlink:href="#DejaVuSans-6e" x="428.955078"/>
     </g>
    </g>
   </g>
  </g>
 </g>
 <defs>
  <clipPath id="pc1b74a0b89">
   <rect x="90" y="43.2" width="558" height="277.2"/>
  </clipPath>
 </defs>
</svg>
