<?xml version="1.0" encoding="utf-8" standalone="no"?>
<!DOCTYPE svg PUBLIC "-//W3C//DTD SVG 1.1//EN"
  "http://www.w3.org/Graphics/SVG/1.1/DTD/svg11.dtd">
<svg xmlns:xlink="http://www.w3.org/1999/xlink" width="720pt" height="360pt" viewBox="0 0 720 360" xmlns="http://www.w3.org/2000/svg" version="1.1">
 <metadata>
  <rdf:RDF xmlns:dc="http://purl.org/dc/elements/1.1/" xmlns:cc="http://creativecommons.org/ns#" xmlns:rdf="http://www.w3.org/1999/02/22-rdf-syntax-ns#">
   <cc:Work>
    <dc:type rdf:resource="http://purl.org/dc/dcmitype/StillImage"/>
    <dc:date>2023-05-24T11:08:18.213049</dc:date>
    <dc:format>image/svg+xml</dc:format>
    <dc:creator>
     <cc:Agent>
      <dc:title>Matplotlib v3.7.1, https://matplotlib.org/</dc:title>
     </cc:Agent>
    </dc:creator>
   </cc:Work>
  </rdf:RDF>
 </metadata>
 <defs>
  <style type="text/css">*{stroke-linejoin: round; stroke-linecap: butt}</style>
 </defs>
 <g id="figure_1">
  <g id="patch_1">
   <path d="M 0 360 
L 720 360 
L 720 0 
L 0 0 
z
" style="fill: #ffffff"/>
  </g>
  <g id="axes_1">
   <g id="patch_2">
    <path d="M 90 320.4 
L 648 320.4 
L 648 43.2 
L 90 43.2 
z
" style="fill: #ffffff"/>
   </g>
   <g id="matplotlib.axis_1">
    <g id="xtick_1">
     <g id="line2d_1">
      <path d="M 115.363636 320.4 
L 115.363636 43.2 
" clip-path="url(#pf1f5729861)" style="fill: none; stroke: #b0b0b0; stroke-width: 0.8; stroke-linecap: square"/>
     </g>
     <g id="line2d_2">
      <defs>
       <path id="m8bce6305d3" d="M 0 0 
L 0 3.5 
" style="stroke: #000000; stroke-width: 0.8"/>
      </defs>
      <g>
       <use xlink:href="#m8bce6305d3" x="115.363636" y="320.4" style="stroke: #000000; stroke-width: 0.8"/>
      </g>
     </g>
     <g id="text_1">
      <!-- 0 -->
      <g transform="translate(112.182386 334.998438) scale(0.1 -0.1)">
       <defs>
        <path id="DejaVuSans-30" d="M 2034 4250 
Q 1547 4250 1301 3770 
Q 1056 3291 1056 2328 
Q 1056 1369 1301 889 
Q 1547 409 2034 409 
Q 2525 409 2770 889 
Q 3016 1369 3016 2328 
Q 3016 3291 2770 3770 
Q 2525 4250 2034 4250 
z
M 2034 4750 
Q 2819 4750 3233 4129 
Q 3647 3509 3647 2328 
Q 3647 1150 3233 529 
Q 2819 -91 2034 -91 
Q 1250 -91 836 529 
Q 422 1150 422 2328 
Q 422 3509 836 4129 
Q 1250 4750 2034 4750 
z
" transform="scale(0.015625)"/>
       </defs>
       <use xlink:href="#DejaVuSans-30"/>
      </g>
     </g>
    </g>
    <g id="xtick_2">
     <g id="line2d_3">
      <path d="M 217.021498 320.4 
L 217.021498 43.2 
" clip-path="url(#pf1f5729861)" style="fill: none; stroke: #b0b0b0; stroke-width: 0.8; stroke-linecap: square"/>
     </g>
     <g id="line2d_4">
      <g>
       <use xlink:href="#m8bce6305d3" x="217.021498" y="320.4" style="stroke: #000000; stroke-width: 0.8"/>
      </g>
     </g>
     <g id="text_2">
      <!-- 100 -->
      <g transform="translate(207.477748 334.998438) scale(0.1 -0.1)">
       <defs>
        <path id="DejaVuSans-31" d="M 794 531 
L 1825 531 
L 1825 4091 
L 703 3866 
L 703 4441 
L 1819 4666 
L 2450 4666 
L 2450 531 
L 3481 531 
L 3481 0 
L 794 0 
L 794 531 
z
" transform="scale(0.015625)"/>
       </defs>
       <use xlink:href="#DejaVuSans-31"/>
       <use xlink:href="#DejaVuSans-30" x="63.623047"/>
       <use xlink:href="#DejaVuSans-30" x="127.246094"/>
      </g>
     </g>
    </g>
    <g id="xtick_3">
     <g id="line2d_5">
      <path d="M 318.679359 320.4 
L 318.679359 43.2 
" clip-path="url(#pf1f5729861)" style="fill: none; stroke: #b0b0b0; stroke-width: 0.8; stroke-linecap: square"/>
     </g>
     <g id="line2d_6">
      <g>
       <use xlink:href="#m8bce6305d3" x="318.679359" y="320.4" style="stroke: #000000; stroke-width: 0.8"/>
      </g>
     </g>
     <g id="text_3">
      <!-- 200 -->
      <g transform="translate(309.135609 334.998438) scale(0.1 -0.1)">
       <defs>
        <path id="DejaVuSans-32" d="M 1228 531 
L 3431 531 
L 3431 0 
L 469 0 
L 469 531 
Q 828 903 1448 1529 
Q 2069 2156 2228 2338 
Q 2531 2678 2651 2914 
Q 2772 3150 2772 3378 
Q 2772 3750 2511 3984 
Q 2250 4219 1831 4219 
Q 1534 4219 1204 4116 
Q 875 4013 500 3803 
L 500 4441 
Q 881 4594 1212 4672 
Q 1544 4750 1819 4750 
Q 2544 4750 2975 4387 
Q 3406 4025 3406 3419 
Q 3406 3131 3298 2873 
Q 3191 2616 2906 2266 
Q 2828 2175 2409 1742 
Q 1991 1309 1228 531 
z
" transform="scale(0.015625)"/>
       </defs>
       <use xlink:href="#DejaVuSans-32"/>
       <use xlink:href="#DejaVuSans-30" x="63.623047"/>
       <use xlink:href="#DejaVuSans-30" x="127.246094"/>
      </g>
     </g>
    </g>
    <g id="xtick_4">
     <g id="line2d_7">
      <path d="M 420.33722 320.4 
L 420.33722 43.2 
" clip-path="url(#pf1f5729861)" style="fill: none; stroke: #b0b0b0; stroke-width: 0.8; stroke-linecap: square"/>
     </g>
     <g id="line2d_8">
      <g>
       <use xlink:href="#m8bce6305d3" x="420.33722" y="320.4" style="stroke: #000000; stroke-width: 0.8"/>
      </g>
     </g>
     <g id="text_4">
      <!-- 300 -->
      <g transform="translate(410.79347 334.998438) scale(0.1 -0.1)">
       <defs>
        <path id="DejaVuSans-33" d="M 2597 2516 
Q 3050 2419 3304 2112 
Q 3559 1806 3559 1356 
Q 3559 666 3084 287 
Q 2609 -91 1734 -91 
Q 1441 -91 1130 -33 
Q 819 25 488 141 
L 488 750 
Q 750 597 1062 519 
Q 1375 441 1716 441 
Q 2309 441 2620 675 
Q 2931 909 2931 1356 
Q 2931 1769 2642 2001 
Q 2353 2234 1838 2234 
L 1294 2234 
L 1294 2753 
L 1863 2753 
Q 2328 2753 2575 2939 
Q 2822 3125 2822 3475 
Q 2822 3834 2567 4026 
Q 2313 4219 1838 4219 
Q 1578 4219 1281 4162 
Q 984 4106 628 3988 
L 628 4550 
Q 988 4650 1302 4700 
Q 1616 4750 1894 4750 
Q 2613 4750 3031 4423 
Q 3450 4097 3450 3541 
Q 3450 3153 3228 2886 
Q 3006 2619 2597 2516 
z
" transform="scale(0.015625)"/>
       </defs>
       <use xlink:href="#DejaVuSans-33"/>
       <use xlink:href="#DejaVuSans-30" x="63.623047"/>
       <use xlink:href="#DejaVuSans-30" x="127.246094"/>
      </g>
     </g>
    </g>
    <g id="xtick_5">
     <g id="line2d_9">
      <path d="M 521.995081 320.4 
L 521.995081 43.2 
" clip-path="url(#pf1f5729861)" style="fill: none; stroke: #b0b0b0; stroke-width: 0.8; stroke-linecap: square"/>
     </g>
     <g id="line2d_10">
      <g>
       <use xlink:href="#m8bce6305d3" x="521.995081" y="320.4" style="stroke: #000000; stroke-width: 0.8"/>
      </g>
     </g>
     <g id="text_5">
      <!-- 400 -->
      <g transform="translate(512.451331 334.998438) scale(0.1 -0.1)">
       <defs>
        <path id="DejaVuSans-34" d="M 2419 4116 
L 825 1625 
L 2419 1625 
L 2419 4116 
z
M 2253 4666 
L 3047 4666 
L 3047 1625 
L 3713 1625 
L 3713 1100 
L 3047 1100 
L 3047 0 
L 2419 0 
L 2419 1100 
L 313 1100 
L 313 1709 
L 2253 4666 
z
" transform="scale(0.015625)"/>
       </defs>
       <use xlink:href="#DejaVuSans-34"/>
       <use xlink:href="#DejaVuSans-30" x="63.623047"/>
       <use xlink:href="#DejaVuSans-30" x="127.246094"/>
      </g>
     </g>
    </g>
    <g id="xtick_6">
     <g id="line2d_11">
      <path d="M 623.652942 320.4 
L 623.652942 43.2 
" clip-path="url(#pf1f5729861)" style="fill: none; stroke: #b0b0b0; stroke-width: 0.8; stroke-linecap: square"/>
     </g>
     <g id="line2d_12">
      <g>
       <use xlink:href="#m8bce6305d3" x="623.652942" y="320.4" style="stroke: #000000; stroke-width: 0.8"/>
      </g>
     </g>
     <g id="text_6">
      <!-- 500 -->
      <g transform="translate(614.109192 334.998438) scale(0.1 -0.1)">
       <defs>
        <path id="DejaVuSans-35" d="M 691 4666 
L 3169 4666 
L 3169 4134 
L 1269 4134 
L 1269 2991 
Q 1406 3038 1543 3061 
Q 1681 3084 1819 3084 
Q 2600 3084 3056 2656 
Q 3513 2228 3513 1497 
Q 3513 744 3044 326 
Q 2575 -91 1722 -91 
Q 1428 -91 1123 -41 
Q 819 9 494 109 
L 494 744 
Q 775 591 1075 516 
Q 1375 441 1709 441 
Q 2250 441 2565 725 
Q 2881 1009 2881 1497 
Q 2881 1984 2565 2268 
Q 2250 2553 1709 2553 
Q 1456 2553 1204 2497 
Q 953 2441 691 2322 
L 691 4666 
z
" transform="scale(0.015625)"/>
       </defs>
       <use xlink:href="#DejaVuSans-35"/>
       <use xlink:href="#DejaVuSans-30" x="63.623047"/>
       <use xlink:href="#DejaVuSans-30" x="127.246094"/>
      </g>
     </g>
    </g>
    <g id="text_7">
     <!-- epoch -->
     <g transform="translate(353.771875 348.676562) scale(0.1 -0.1)">
      <defs>
       <path id="DejaVuSans-65" d="M 3597 1894 
L 3597 1613 
L 953 1613 
Q 991 1019 1311 708 
Q 1631 397 2203 397 
Q 2534 397 2845 478 
Q 3156 559 3463 722 
L 3463 178 
Q 3153 47 2828 -22 
Q 2503 -91 2169 -91 
Q 1331 -91 842 396 
Q 353 884 353 1716 
Q 353 2575 817 3079 
Q 1281 3584 2069 3584 
Q 2775 3584 3186 3129 
Q 3597 2675 3597 1894 
z
M 3022 2063 
Q 3016 2534 2758 2815 
Q 2500 3097 2075 3097 
Q 1594 3097 1305 2825 
Q 1016 2553 972 2059 
L 3022 2063 
z
" transform="scale(0.015625)"/>
       <path id="DejaVuSans-70" d="M 1159 525 
L 1159 -1331 
L 581 -1331 
L 581 3500 
L 1159 3500 
L 1159 2969 
Q 1341 3281 1617 3432 
Q 1894 3584 2278 3584 
Q 2916 3584 3314 3078 
Q 3713 2572 3713 1747 
Q 3713 922 3314 415 
Q 2916 -91 2278 -91 
Q 1894 -91 1617 61 
Q 1341 213 1159 525 
z
M 3116 1747 
Q 3116 2381 2855 2742 
Q 2594 3103 2138 3103 
Q 1681 3103 1420 2742 
Q 1159 2381 1159 1747 
Q 1159 1113 1420 752 
Q 1681 391 2138 391 
Q 2594 391 2855 752 
Q 3116 1113 3116 1747 
z
" transform="scale(0.015625)"/>
       <path id="DejaVuSans-6f" d="M 1959 3097 
Q 1497 3097 1228 2736 
Q 959 2375 959 1747 
Q 959 1119 1226 758 
Q 1494 397 1959 397 
Q 2419 397 2687 759 
Q 2956 1122 2956 1747 
Q 2956 2369 2687 2733 
Q 2419 3097 1959 3097 
z
M 1959 3584 
Q 2709 3584 3137 3096 
Q 3566 2609 3566 1747 
Q 3566 888 3137 398 
Q 2709 -91 1959 -91 
Q 1206 -91 779 398 
Q 353 888 353 1747 
Q 353 2609 779 3096 
Q 1206 3584 1959 3584 
z
" transform="scale(0.015625)"/>
       <path id="DejaVuSans-63" d="M 3122 3366 
L 3122 2828 
Q 2878 2963 2633 3030 
Q 2388 3097 2138 3097 
Q 1578 3097 1268 2742 
Q 959 2388 959 1747 
Q 959 1106 1268 751 
Q 1578 397 2138 397 
Q 2388 397 2633 464 
Q 2878 531 3122 666 
L 3122 134 
Q 2881 22 2623 -34 
Q 2366 -91 2075 -91 
Q 1284 -91 818 406 
Q 353 903 353 1747 
Q 353 2603 823 3093 
Q 1294 3584 2113 3584 
Q 2378 3584 2631 3529 
Q 2884 3475 3122 3366 
z
" transform="scale(0.015625)"/>
       <path id="DejaVuSans-68" d="M 3513 2113 
L 3513 0 
L 2938 0 
L 2938 2094 
Q 2938 2591 2744 2837 
Q 2550 3084 2163 3084 
Q 1697 3084 1428 2787 
Q 1159 2491 1159 1978 
L 1159 0 
L 581 0 
L 581 4863 
L 1159 4863 
L 1159 2956 
Q 1366 3272 1645 3428 
Q 1925 3584 2291 3584 
Q 2894 3584 3203 3211 
Q 3513 2838 3513 2113 
z
" transform="scale(0.015625)"/>
      </defs>
      <use xlink:href="#DejaVuSans-65"/>
      <use xlink:href="#DejaVuSans-70" x="61.523438"/>
      <use xlink:href="#DejaVuSans-6f" x="125"/>
      <use xlink:href="#DejaVuSans-63" x="186.181641"/>
      <use xlink:href="#DejaVuSans-68" x="241.162109"/>
     </g>
    </g>
   </g>
   <g id="matplotlib.axis_2">
    <g id="ytick_1">
     <g id="line2d_13">
      <path d="M 90 286.84598 
L 648 286.84598 
" clip-path="url(#pf1f5729861)" style="fill: none; stroke: #b0b0b0; stroke-width: 0.8; stroke-linecap: square"/>
     </g>
     <g id="line2d_14">
      <defs>
       <path id="mbfd1207bac" d="M 0 0 
L -3.5 0 
" style="stroke: #000000; stroke-width: 0.8"/>
      </defs>
      <g>
       <use xlink:href="#mbfd1207bac" x="90" y="286.84598" style="stroke: #000000; stroke-width: 0.8"/>
      </g>
     </g>
     <g id="text_8">
      <!-- 1.25 -->
      <g transform="translate(60.734375 290.645199) scale(0.1 -0.1)">
       <defs>
        <path id="DejaVuSans-2e" d="M 684 794 
L 1344 794 
L 1344 0 
L 684 0 
L 684 794 
z
" transform="scale(0.015625)"/>
       </defs>
       <use xlink:href="#DejaVuSans-31"/>
       <use xlink:href="#DejaVuSans-2e" x="63.623047"/>
       <use xlink:href="#DejaVuSans-32" x="95.410156"/>
       <use xlink:href="#DejaVuSans-35" x="159.033203"/>
      </g>
     </g>
    </g>
    <g id="ytick_2">
     <g id="line2d_15">
      <path d="M 90 250.180497 
L 648 250.180497 
" clip-path="url(#pf1f5729861)" style="fill: none; stroke: #b0b0b0; stroke-width: 0.8; stroke-linecap: square"/>
     </g>
     <g id="line2d_16">
      <g>
       <use xlink:href="#mbfd1207bac" x="90" y="250.180497" style="stroke: #000000; stroke-width: 0.8"/>
      </g>
     </g>
     <g id="text_9">
      <!-- 1.50 -->
      <g transform="translate(60.734375 253.979716) scale(0.1 -0.1)">
       <use xlink:href="#DejaVuSans-31"/>
       <use xlink:href="#DejaVuSans-2e" x="63.623047"/>
       <use xlink:href="#DejaVuSans-35" x="95.410156"/>
       <use xlink:href="#DejaVuSans-30" x="159.033203"/>
      </g>
     </g>
    </g>
    <g id="ytick_3">
     <g id="line2d_17">
      <path d="M 90 213.515014 
L 648 213.515014 
" clip-path="url(#pf1f5729861)" style="fill: none; stroke: #b0b0b0; stroke-width: 0.8; stroke-linecap: square"/>
     </g>
     <g id="line2d_18">
      <g>
       <use xlink:href="#mbfd1207bac" x="90" y="213.515014" style="stroke: #000000; stroke-width: 0.8"/>
      </g>
     </g>
     <g id="text_10">
      <!-- 1.75 -->
      <g transform="translate(60.734375 217.314233) scale(0.1 -0.1)">
       <defs>
        <path id="DejaVuSans-37" d="M 525 4666 
L 3525 4666 
L 3525 4397 
L 1831 0 
L 1172 0 
L 2766 4134 
L 525 4134 
L 525 4666 
z
" transform="scale(0.015625)"/>
       </defs>
       <use xlink:href="#DejaVuSans-31"/>
       <use xlink:href="#DejaVuSans-2e" x="63.623047"/>
       <use xlink:href="#DejaVuSans-37" x="95.410156"/>
       <use xlink:href="#DejaVuSans-35" x="159.033203"/>
      </g>
     </g>
    </g>
    <g id="ytick_4">
     <g id="line2d_19">
      <path d="M 90 176.849531 
L 648 176.849531 
" clip-path="url(#pf1f5729861)" style="fill: none; stroke: #b0b0b0; stroke-width: 0.8; stroke-linecap: square"/>
     </g>
     <g id="line2d_20">
      <g>
       <use xlink:href="#mbfd1207bac" x="90" y="176.849531" style="stroke: #000000; stroke-width: 0.8"/>
      </g>
     </g>
     <g id="text_11">
      <!-- 2.00 -->
      <g transform="translate(60.734375 180.648749) scale(0.1 -0.1)">
       <use xlink:href="#DejaVuSans-32"/>
       <use xlink:href="#DejaVuSans-2e" x="63.623047"/>
       <use xlink:href="#DejaVuSans-30" x="95.410156"/>
       <use xlink:href="#DejaVuSans-30" x="159.033203"/>
      </g>
     </g>
    </g>
    <g id="ytick_5">
     <g id="line2d_21">
      <path d="M 90 140.184048 
L 648 140.184048 
" clip-path="url(#pf1f5729861)" style="fill: none; stroke: #b0b0b0; stroke-width: 0.8; stroke-linecap: square"/>
     </g>
     <g id="line2d_22">
      <g>
       <use xlink:href="#mbfd1207bac" x="90" y="140.184048" style="stroke: #000000; stroke-width: 0.8"/>
      </g>
     </g>
     <g id="text_12">
      <!-- 2.25 -->
      <g transform="translate(60.734375 143.983266) scale(0.1 -0.1)">
       <use xlink:href="#DejaVuSans-32"/>
       <use xlink:href="#DejaVuSans-2e" x="63.623047"/>
       <use xlink:href="#DejaVuSans-32" x="95.410156"/>
       <use xlink:href="#DejaVuSans-35" x="159.033203"/>
      </g>
     </g>
    </g>
    <g id="ytick_6">
     <g id="line2d_23">
      <path d="M 90 103.518565 
L 648 103.518565 
" clip-path="url(#pf1f5729861)" style="fill: none; stroke: #b0b0b0; stroke-width: 0.8; stroke-linecap: square"/>
     </g>
     <g id="line2d_24">
      <g>
       <use xlink:href="#mbfd1207bac" x="90" y="103.518565" style="stroke: #000000; stroke-width: 0.8"/>
      </g>
     </g>
     <g id="text_13">
      <!-- 2.50 -->
      <g transform="translate(60.734375 107.317783) scale(0.1 -0.1)">
       <use xlink:href="#DejaVuSans-32"/>
       <use xlink:href="#DejaVuSans-2e" x="63.623047"/>
       <use xlink:href="#DejaVuSans-35" x="95.410156"/>
       <use xlink:href="#DejaVuSans-30" x="159.033203"/>
      </g>
     </g>
    </g>
    <g id="ytick_7">
     <g id="line2d_25">
      <path d="M 90 66.853081 
L 648 66.853081 
" clip-path="url(#pf1f5729861)" style="fill: none; stroke: #b0b0b0; stroke-width: 0.8; stroke-linecap: square"/>
     </g>
     <g id="line2d_26">
      <g>
       <use xlink:href="#mbfd1207bac" x="90" y="66.853081" style="stroke: #000000; stroke-width: 0.8"/>
      </g>
     </g>
     <g id="text_14">
      <!-- 2.75 -->
      <g transform="translate(60.734375 70.6523) scale(0.1 -0.1)">
       <use xlink:href="#DejaVuSans-32"/>
       <use xlink:href="#DejaVuSans-2e" x="63.623047"/>
       <use xlink:href="#DejaVuSans-37" x="95.410156"/>
       <use xlink:href="#DejaVuSans-35" x="159.033203"/>
      </g>
     </g>
    </g>
    <g id="text_15">
     <!-- loss -->
     <g transform="translate(54.654688 191.457812) rotate(-90) scale(0.1 -0.1)">
      <defs>
       <path id="DejaVuSans-6c" d="M 603 4863 
L 1178 4863 
L 1178 0 
L 603 0 
L 603 4863 
z
" transform="scale(0.015625)"/>
       <path id="DejaVuSans-73" d="M 2834 3397 
L 2834 2853 
Q 2591 2978 2328 3040 
Q 2066 3103 1784 3103 
Q 1356 3103 1142 2972 
Q 928 2841 928 2578 
Q 928 2378 1081 2264 
Q 1234 2150 1697 2047 
L 1894 2003 
Q 2506 1872 2764 1633 
Q 3022 1394 3022 966 
Q 3022 478 2636 193 
Q 2250 -91 1575 -91 
Q 1294 -91 989 -36 
Q 684 19 347 128 
L 347 722 
Q 666 556 975 473 
Q 1284 391 1588 391 
Q 1994 391 2212 530 
Q 2431 669 2431 922 
Q 2431 1156 2273 1281 
Q 2116 1406 1581 1522 
L 1381 1569 
Q 847 1681 609 1914 
Q 372 2147 372 2553 
Q 372 3047 722 3315 
Q 1072 3584 1716 3584 
Q 2034 3584 2315 3537 
Q 2597 3491 2834 3397 
z
" transform="scale(0.015625)"/>
      </defs>
      <use xlink:href="#DejaVuSans-6c"/>
      <use xlink:href="#DejaVuSans-6f" x="27.783203"/>
      <use xlink:href="#DejaVuSans-73" x="88.964844"/>
      <use xlink:href="#DejaVuSans-73" x="141.064453"/>
     </g>
    </g>
   </g>
   <g id="line2d_27">
    <path d="M 115.363636 55.8 
L 116.380215 265.099347 
L 117.396794 267.74984 
L 118.413372 275.84402 
L 119.429951 289.624522 
L 120.446529 293.085724 
L 121.463108 299.274573 
L 122.479687 300.331431 
L 123.496265 303.059428 
L 124.512844 304.09667 
L 125.529422 304.542953 
L 126.546001 307.8 
L 127.56258 291.383691 
L 128.579158 264.25299 
L 129.595737 266.20974 
L 130.612316 268.666429 
L 131.628894 267.427428 
L 132.645473 263.76452 
L 133.662051 266.373577 
L 134.67863 267.113198 
L 135.695209 271.780723 
L 136.711787 280.752433 
L 137.728366 280.197421 
L 138.744944 288.437989 
L 139.761523 277.671672 
L 140.778102 273.221728 
L 141.79468 272.214173 
L 142.811259 267.911125 
L 143.827837 275.374345 
L 144.844416 271.91858 
L 145.860995 271.178103 
L 146.877573 270.599628 
L 147.894152 271.193279 
L 148.910731 274.962417 
L 149.927309 274.95322 
L 150.943888 276.081236 
L 151.960466 278.318315 
L 152.977045 289.463727 
L 153.993624 297.269447 
L 155.010202 299.974628 
L 156.026781 271.232582 
L 157.043359 270.848348 
L 158.059938 272.959161 
L 159.076517 259.997165 
L 160.093095 267.745627 
L 161.109674 266.032999 
L 162.126253 265.30476 
L 163.142831 266.110154 
L 164.15941 265.356721 
L 165.175988 266.649991 
L 166.192567 265.73648 
L 167.209146 266.10386 
L 168.225724 265.37146 
L 169.242303 265.156903 
L 170.258881 266.014239 
L 171.27546 265.335654 
L 172.292039 266.616545 
L 173.308617 265.291491 
L 174.325196 265.250334 
L 175.341774 265.961842 
L 176.358353 266.099786 
L 177.374932 265.93705 
L 178.39151 265.934392 
L 179.408089 265.745221 
L 180.424668 266.334904 
L 181.441246 265.387964 
L 182.457825 265.337559 
L 183.474403 266.272628 
L 184.490982 266.369503 
L 185.507561 266.116483 
L 186.524139 266.705343 
L 187.540718 266.175857 
L 188.557296 266.284883 
L 189.573875 265.341406 
L 190.590454 266.383176 
L 191.607032 266.055028 
L 192.623611 265.38487 
L 193.640189 265.203042 
L 194.656768 265.968398 
L 195.673347 265.618134 
L 196.689925 265.874284 
L 197.706504 265.772321 
L 198.723083 265.963433 
L 199.739661 265.571156 
L 200.75624 266.04585 
L 201.772818 266.078684 
L 202.789397 265.256436 
L 203.805976 266.549706 
L 204.822554 265.416497 
L 206.855711 265.641317 
L 207.87229 266.203096 
L 208.888869 266.336582 
L 209.905447 266.195456 
L 210.922026 265.626614 
L 211.938604 265.468423 
L 212.955183 266.208656 
L 214.98834 265.551942 
L 216.004919 264.795205 
L 217.021498 265.53472 
L 218.038076 266.031705 
L 219.054655 266.037055 
L 220.071233 265.913972 
L 221.087812 266.263117 
L 223.120969 265.051582 
L 224.137548 266.869513 
L 225.154126 265.840471 
L 226.170705 266.215317 
L 227.187284 265.950267 
L 228.203862 265.421165 
L 229.220441 265.861609 
L 230.237019 266.689451 
L 231.253598 266.23273 
L 232.270177 266.380798 
L 233.286755 266.189179 
L 234.303334 265.50332 
L 235.319913 266.400694 
L 236.336491 266.482936 
L 237.35307 264.763105 
L 238.369648 265.714188 
L 239.386227 266.241262 
L 240.402806 266.282663 
L 241.419384 265.721304 
L 242.435963 264.883933 
L 243.452541 265.735763 
L 244.46912 265.440712 
L 245.485699 266.284289 
L 246.502277 265.855874 
L 247.518856 265.861609 
L 248.535435 266.260232 
L 249.552013 265.609899 
L 250.568592 266.514774 
L 251.58517 265.600668 
L 253.618328 266.388403 
L 254.634906 266.090205 
L 255.651485 266.530351 
L 256.668063 266.456694 
L 257.684642 266.892941 
L 258.701221 265.230386 
L 259.717799 266.395431 
L 260.734378 266.336652 
L 261.750956 264.971193 
L 262.767535 265.75746 
L 263.784114 265.065814 
L 264.800692 265.413752 
L 265.817271 266.26455 
L 266.83385 265.856521 
L 267.850428 265.935354 
L 268.867007 266.4415 
L 269.883585 265.454769 
L 270.900164 265.733123 
L 271.916743 265.489211 
L 272.933321 266.447375 
L 273.9499 265.814264 
L 274.966478 264.722351 
L 275.983057 265.5357 
L 276.999636 265.440624 
L 279.032793 266.091254 
L 280.049371 263.981874 
L 281.06595 264.649987 
L 282.082529 265.560788 
L 283.099107 264.742108 
L 284.115686 265.5828 
L 285.132265 265.201713 
L 286.148843 265.361809 
L 287.165422 265.384188 
L 288.182 265.735868 
L 289.198579 266.459421 
L 290.215158 266.24899 
L 291.231736 266.572434 
L 292.248315 265.921787 
L 293.264893 265.439208 
L 294.281472 265.095623 
L 295.298051 266.046514 
L 296.314629 265.863392 
L 297.331208 266.011634 
L 298.347786 265.742424 
L 299.364365 264.338275 
L 300.380944 265.709101 
L 301.397522 265.771517 
L 302.414101 265.557204 
L 303.43068 265.499334 
L 304.447258 266.082303 
L 305.463837 265.307505 
L 306.480415 266.244654 
L 307.496994 266.478408 
L 308.513573 266.322263 
L 309.530151 266.026111 
L 310.54673 265.396077 
L 311.563308 265.830681 
L 312.579887 266.820437 
L 313.596466 265.070832 
L 314.613044 265.482235 
L 315.629623 265.180366 
L 316.646201 265.794787 
L 317.66278 265.27857 
L 318.679359 265.129908 
L 319.695937 265.885474 
L 320.712516 266.08468 
L 321.729095 265.699677 
L 322.745673 265.92913 
L 324.77883 265.434785 
L 325.795409 264.693416 
L 326.811988 264.244074 
L 327.828566 263.634915 
L 328.845145 264.494105 
L 329.861723 264.250927 
L 330.878302 265.528776 
L 331.894881 265.772548 
L 332.911459 264.970914 
L 333.928038 265.281 
L 335.961195 265.661983 
L 336.977774 265.36111 
L 337.994352 265.548218 
L 339.010931 265.579251 
L 341.044088 265.233865 
L 342.060667 264.614303 
L 343.077245 264.657208 
L 344.093824 265.321142 
L 345.110403 266.231367 
L 346.126981 265.31025 
L 347.14356 266.398963 
L 348.160138 265.950145 
L 349.176717 266.263064 
L 350.193296 265.946124 
L 351.209874 266.305462 
L 353.243032 265.939008 
L 354.25961 265.004622 
L 356.292767 264.952084 
L 357.309346 265.595703 
L 358.325925 266.825245 
L 359.342503 265.371914 
L 360.359082 266.197693 
L 361.37566 264.738121 
L 362.392239 265.879232 
L 363.408818 266.069295 
L 364.425396 266.691864 
L 366.458553 265.082266 
L 367.475132 265.51687 
L 368.491711 266.282541 
L 369.508289 266.230667 
L 370.524868 265.058016 
L 371.541447 265.102704 
L 372.558025 266.458389 
L 373.574604 265.061286 
L 374.591182 265.728297 
L 375.607761 264.445955 
L 376.62434 264.928429 
L 377.640918 264.962994 
L 378.657497 265.342735 
L 379.674075 265.426113 
L 380.690654 265.32387 
L 381.707233 265.421218 
L 382.723811 265.092144 
L 383.74039 266.498147 
L 384.756968 265.400535 
L 385.773547 266.0555 
L 386.790126 266.059941 
L 387.806704 265.309621 
L 388.823283 265.887344 
L 389.839862 266.057686 
L 390.85644 265.555701 
L 391.873019 265.800172 
L 393.906176 264.576924 
L 394.922755 266.325078 
L 395.939333 265.385132 
L 396.955912 265.293798 
L 397.97249 265.479071 
L 398.989069 265.033592 
L 400.005648 265.623309 
L 401.022226 265.106498 
L 403.055383 266.13741 
L 404.071962 265.722493 
L 405.088541 266.028733 
L 406.105119 265.698471 
L 407.121698 265.036232 
L 408.138277 265.968608 
L 409.154855 265.019693 
L 410.171434 265.811938 
L 411.188012 265.671126 
L 413.22117 264.673502 
L 414.237748 265.446464 
L 415.254327 265.286385 
L 417.287484 265.567904 
L 418.304063 265.504107 
L 419.320641 265.994396 
L 420.33722 266.129333 
L 421.353799 265.136517 
L 422.370377 265.60955 
L 423.386956 265.824894 
L 424.403534 265.515891 
L 425.420113 265.331178 
L 426.436692 266.163618 
L 427.45327 266.316511 
L 428.469849 266.269446 
L 429.486427 264.827637 
L 430.503006 264.439941 
L 431.519585 265.47185 
L 432.536163 264.115151 
L 433.552742 265.890089 
L 434.56932 265.431638 
L 435.585899 265.863602 
L 436.602478 265.610634 
L 437.619056 266.873115 
L 439.652214 266.374941 
L 440.668792 265.70737 
L 441.685371 265.516118 
L 442.701949 264.940912 
L 443.718528 264.89785 
L 444.735107 265.712213 
L 445.751685 266.221995 
L 446.768264 266.16187 
L 447.784842 265.635635 
L 448.801421 264.592554 
L 449.818 266.108056 
L 450.834578 265.472025 
L 451.851157 265.315705 
L 452.867735 265.732826 
L 453.884314 265.987577 
L 454.900893 264.492199 
L 455.917471 265.520367 
L 456.93405 265.292662 
L 457.950629 265.770817 
L 459.983786 265.828915 
L 461.000364 264.946314 
L 462.016943 264.977697 
L 463.033522 266.65861 
L 464.0501 264.785641 
L 465.066679 266.01611 
L 466.083257 265.304096 
L 467.099836 265.648905 
L 468.116415 265.820523 
L 469.132993 265.719311 
L 470.149572 266.232923 
L 471.16615 266.042248 
L 472.182729 265.734889 
L 473.199308 265.582468 
L 474.215886 265.775905 
L 476.249044 266.524145 
L 477.265622 265.82874 
L 478.282201 265.96894 
L 479.298779 265.677211 
L 480.315358 266.198148 
L 481.331937 265.390167 
L 482.348515 265.569198 
L 483.365094 265.922241 
L 484.381672 265.041127 
L 485.398251 264.515085 
L 486.41483 265.140154 
L 487.431408 264.806499 
L 488.447987 265.885614 
L 489.464565 265.408333 
L 490.481144 266.105486 
L 491.497723 265.251698 
L 492.514301 264.926593 
L 493.53088 266.287628 
L 494.547459 266.303206 
L 495.564037 264.546975 
L 496.580616 264.41695 
L 497.597194 265.252258 
L 498.613773 264.317015 
L 499.630352 265.961317 
L 500.64693 265.446132 
L 501.663509 266.25698 
L 503.696666 264.764294 
L 505.729823 265.571278 
L 506.746402 264.88993 
L 507.762981 265.265598 
L 509.796138 265.487725 
L 510.812716 266.633346 
L 511.829295 265.635583 
L 512.845874 266.090607 
L 513.862452 266.702039 
L 514.879031 265.894897 
L 516.912188 266.059522 
L 517.928767 266.225457 
L 518.945345 264.386004 
L 519.961924 264.630074 
L 520.978502 266.141449 
L 521.995081 265.746638 
L 523.01166 264.3777 
L 524.028238 266.572556 
L 525.044817 264.836081 
L 526.061396 264.657383 
L 527.077974 265.110152 
L 528.094553 265.983766 
L 529.111131 265.614777 
L 530.12771 266.151747 
L 531.144289 264.550943 
L 532.160867 264.12662 
L 533.177446 265.185978 
L 534.194024 264.562465 
L 536.227182 265.799001 
L 537.24376 264.98817 
L 538.260339 265.524563 
L 539.276917 264.499 
L 540.293496 265.573202 
L 541.310075 265.694152 
L 542.326653 265.54264 
L 543.343232 265.573464 
L 544.359811 266.689713 
L 545.376389 264.793859 
L 546.392968 265.943711 
L 547.409546 264.769417 
L 548.426125 266.137708 
L 549.442704 266.406359 
L 550.459282 266.327596 
L 551.475861 266.37634 
L 552.492439 265.532483 
L 553.509018 265.280983 
L 554.525597 265.258482 
L 555.542175 266.578204 
L 556.558754 264.649445 
L 557.575332 265.618816 
L 558.591911 265.285284 
L 560.625068 266.217852 
L 561.641647 265.938344 
L 563.674804 264.994167 
L 565.707961 266.170856 
L 566.72454 264.807373 
L 567.741119 265.92691 
L 568.757697 264.946787 
L 569.774276 264.721862 
L 570.790854 265.485679 
L 571.807433 264.88729 
L 572.824012 265.790101 
L 573.84059 265.432984 
L 574.857169 266.03723 
L 575.873747 265.708681 
L 576.890326 266.187273 
L 577.906905 266.07433 
L 578.923483 265.53493 
L 579.940062 265.250946 
L 580.956641 265.714083 
L 581.973219 264.906417 
L 582.989798 265.126552 
L 584.006376 266.283817 
L 585.022955 265.716653 
L 586.039534 265.469734 
L 589.089269 266.322525 
L 590.105848 266.087653 
L 591.122427 264.400306 
L 592.139005 265.754243 
L 593.155584 265.98408 
L 595.188741 263.88075 
L 596.20532 264.969428 
L 597.221898 264.829805 
L 598.238477 265.874214 
L 599.255056 265.107197 
L 600.271634 265.423089 
L 601.288213 265.904111 
L 602.304791 265.579338 
L 603.32137 265.578342 
L 604.337949 266.338278 
L 605.354527 265.897083 
L 606.371106 265.276297 
L 608.404263 266.060553 
L 609.420842 265.917364 
L 610.43742 266.129403 
L 613.487156 265.083437 
L 614.503735 263.957729 
L 615.520313 265.535717 
L 616.536892 265.123649 
L 617.553471 265.942347 
L 618.570049 265.008608 
L 619.586628 265.033522 
L 620.603206 265.642873 
L 621.619785 264.687279 
L 622.636364 265.453562 
L 622.636364 265.453562 
" clip-path="url(#pf1f5729861)" style="fill: none; stroke: #1f77b4; stroke-width: 1.5; stroke-linecap: square"/>
   </g>
   <g id="line2d_28">
    <path d="M 115.363636 268.158167 
L 116.380215 267.004695 
L 117.396794 272.049881 
L 118.413372 284.514735 
L 119.429951 287.861367 
L 120.446529 294.733138 
L 121.463108 295.401391 
L 122.479687 294.375199 
L 123.496265 302.041261 
L 124.512844 301.57468 
L 125.529422 301.601273 
L 126.546001 304.035653 
L 127.56258 267.192415 
L 128.579158 266.779159 
L 129.595737 268.581861 
L 130.612316 274.743978 
L 131.628894 265.72856 
L 132.645473 266.751972 
L 133.662051 266.672352 
L 134.67863 269.74598 
L 135.695209 283.995284 
L 136.711787 287.773705 
L 137.728366 288.022215 
L 138.744944 284.988484 
L 139.761523 282.887654 
L 140.778102 269.124618 
L 141.79468 260.578141 
L 142.811259 273.335807 
L 143.827837 274.401023 
L 144.844416 273.575051 
L 145.860995 276.33375 
L 146.877573 267.437498 
L 147.894152 272.640682 
L 148.910731 277.234515 
L 149.927309 281.173959 
L 150.943888 277.229917 
L 151.960466 287.871927 
L 152.977045 291.855185 
L 153.993624 300.618177 
L 156.026781 269.707377 
L 157.043359 271.091647 
L 158.059938 275.66242 
L 159.076517 269.769093 
L 160.093095 266.36494 
L 161.109674 266.767759 
L 162.126253 266.828672 
L 163.142831 265.356477 
L 164.15941 267.416169 
L 165.175988 268.382182 
L 166.192567 266.997684 
L 167.209146 268.013159 
L 168.225724 267.637894 
L 169.242303 267.992633 
L 170.258881 267.340238 
L 171.27546 267.010762 
L 172.292039 266.456501 
L 173.308617 268.075662 
L 174.325196 268.285586 
L 175.341774 268.157188 
L 176.358353 267.722094 
L 177.374932 267.617368 
L 178.39151 267.771293 
L 179.408089 267.553798 
L 180.424668 267.598556 
L 181.441246 267.763775 
L 182.457825 267.20343 
L 183.474403 267.67683 
L 184.490982 267.993543 
L 185.507561 267.883886 
L 186.524139 267.554218 
L 187.540718 267.001636 
L 188.557296 267.634222 
L 189.573875 267.722654 
L 190.590454 267.372268 
L 191.607032 267.220459 
L 192.623611 266.942961 
L 193.640189 264.701843 
L 194.656768 267.229061 
L 195.673347 267.987843 
L 196.689925 268.15502 
L 197.706504 266.984677 
L 198.723083 267.078196 
L 199.739661 267.467395 
L 201.772818 267.449754 
L 202.789397 267.92763 
L 205.839133 267.727042 
L 206.855711 268.137991 
L 207.87229 266.176871 
L 208.888869 267.382006 
L 209.905447 268.031604 
L 210.922026 267.886072 
L 211.938604 266.567049 
L 212.955183 267.845877 
L 214.98834 267.648908 
L 216.004919 267.687547 
L 217.021498 266.372213 
L 218.038076 266.786519 
L 219.054655 267.685921 
L 220.071233 267.312841 
L 221.087812 268.075505 
L 222.104391 266.655183 
L 223.120969 268.004662 
L 224.137548 267.627177 
L 225.154126 267.801119 
L 226.170705 268.295062 
L 227.187284 266.694591 
L 228.203862 267.828464 
L 229.220441 267.165805 
L 230.237019 267.984032 
L 232.270177 268.201333 
L 233.286755 267.778636 
L 234.303334 266.815384 
L 235.319913 267.832572 
L 236.336491 267.20885 
L 237.35307 267.836296 
L 238.369648 268.03601 
L 239.386227 267.928399 
L 240.402806 267.951302 
L 242.435963 267.696603 
L 243.452541 267.973576 
L 244.46912 267.12617 
L 245.485699 267.54899 
L 246.502277 267.79278 
L 247.518856 267.856332 
L 248.535435 266.869321 
L 249.552013 267.260443 
L 250.568592 265.11996 
L 251.58517 267.513796 
L 252.601749 267.743774 
L 253.618328 267.716779 
L 254.634906 268.047287 
L 257.684642 268.150002 
L 258.701221 267.312631 
L 259.717799 268.169706 
L 260.734378 267.848168 
L 262.767535 267.706551 
L 264.800692 266.527134 
L 265.817271 267.91735 
L 266.83385 267.872977 
L 267.850428 267.351725 
L 268.867007 267.915846 
L 270.900164 266.909463 
L 271.916743 267.673875 
L 272.933321 266.784736 
L 273.9499 268.114983 
L 274.966478 268.248976 
L 275.983057 267.443233 
L 276.999636 267.369767 
L 278.016214 267.466049 
L 279.032793 266.972316 
L 280.049371 266.971844 
L 281.06595 267.536053 
L 282.082529 265.934305 
L 283.099107 265.943886 
L 284.115686 266.292961 
L 285.132265 268.25791 
L 286.148843 266.648575 
L 287.165422 267.648804 
L 288.182 268.314993 
L 289.198579 267.040239 
L 290.215158 267.96938 
L 291.231736 267.879166 
L 292.248315 268.338771 
L 293.264893 267.586755 
L 294.281472 267.882138 
L 295.298051 267.423092 
L 296.314629 268.142607 
L 297.331208 267.345815 
L 298.347786 266.99917 
L 299.364365 268.336673 
L 300.380944 267.19266 
L 301.397522 263.398556 
L 302.414101 266.832501 
L 303.43068 266.838672 
L 305.463837 267.627963 
L 306.480415 267.761642 
L 307.496994 266.644728 
L 308.513573 266.712249 
L 309.530151 265.771919 
L 310.54673 268.161052 
L 311.563308 267.625498 
L 313.596466 267.263328 
L 314.613044 265.975111 
L 315.629623 267.213728 
L 316.646201 267.800822 
L 317.66278 266.776868 
L 318.679359 268.396152 
L 319.695937 268.324854 
L 320.712516 267.355326 
L 322.745673 268.039786 
L 323.762252 267.120663 
L 324.77883 267.392496 
L 325.795409 266.698665 
L 326.811988 266.20612 
L 327.828566 264.709448 
L 328.845145 266.894549 
L 329.861723 268.142257 
L 330.878302 267.257366 
L 331.894881 268.022862 
L 332.911459 266.706847 
L 333.928038 267.358158 
L 335.961195 267.659678 
L 336.977774 267.664451 
L 339.010931 266.985813 
L 340.02751 265.34193 
L 341.044088 265.328818 
L 342.060667 264.148019 
L 343.077245 267.691586 
L 344.093824 267.057985 
L 348.160138 268.134057 
L 349.176717 267.033858 
L 350.193296 265.124646 
L 351.209874 268.044909 
L 352.226453 268.026499 
L 353.243032 266.722914 
L 355.276189 268.525215 
L 356.292767 266.076253 
L 357.309346 267.879375 
L 359.342503 267.029434 
L 360.359082 267.850755 
L 361.37566 267.330325 
L 362.392239 267.460734 
L 363.408818 266.168409 
L 364.425396 267.703772 
L 365.441975 267.094683 
L 366.458553 267.986217 
L 367.475132 268.013404 
L 368.491711 267.491662 
L 369.508289 267.896195 
L 370.524868 267.291546 
L 371.541447 267.411221 
L 372.558025 268.111696 
L 373.574604 267.317317 
L 374.591182 266.774543 
L 375.607761 266.745503 
L 376.62434 267.723126 
L 377.640918 267.54927 
L 378.657497 268.463026 
L 380.690654 267.105243 
L 382.723811 267.950393 
L 383.74039 267.408144 
L 384.756968 267.933015 
L 385.773547 267.904622 
L 386.790126 268.321113 
L 387.806704 267.545022 
L 388.823283 267.884166 
L 389.839862 266.899812 
L 390.85644 264.150432 
L 391.873019 266.23787 
L 392.889597 261.304299 
L 393.906176 266.710991 
L 394.922755 266.786904 
L 395.939333 265.373156 
L 396.955912 266.389225 
L 397.97249 267.81369 
L 398.989069 267.423232 
L 400.005648 265.938676 
L 401.022226 268.013229 
L 402.038805 266.402827 
L 403.055383 266.139474 
L 404.071962 268.369192 
L 405.088541 268.061273 
L 406.105119 268.049 
L 407.121698 267.688578 
L 408.138277 267.001915 
L 409.154855 267.418844 
L 410.171434 267.40435 
L 411.188012 266.74629 
L 413.22117 267.755855 
L 414.237748 265.708838 
L 415.254327 265.480469 
L 416.270905 264.823685 
L 417.287484 265.240281 
L 418.304063 267.138671 
L 419.320641 267.407165 
L 420.33722 266.224775 
L 421.353799 268.246878 
L 422.370377 267.60186 
L 423.386956 268.40325 
L 424.403534 266.298311 
L 425.420113 268.387847 
L 426.436692 266.167779 
L 427.45327 268.003421 
L 428.469849 265.80192 
L 429.486427 264.286034 
L 430.503006 266.75594 
L 431.519585 266.749874 
L 432.536163 265.476063 
L 433.552742 267.819267 
L 434.56932 266.377581 
L 435.585899 267.924238 
L 436.602478 267.938802 
L 437.619056 267.252488 
L 438.635635 267.915252 
L 439.652214 267.628733 
L 440.668792 267.08414 
L 441.685371 266.740887 
L 442.701949 267.585409 
L 443.718528 268.223852 
L 444.735107 267.118897 
L 445.751685 267.022686 
L 446.768264 266.08809 
L 447.784842 267.155665 
L 448.801421 267.126677 
L 449.818 267.983472 
L 450.834578 267.010098 
L 451.851157 268.170825 
L 452.867735 264.539457 
L 453.884314 267.831716 
L 454.900893 268.064823 
L 455.917471 267.523727 
L 456.93405 267.238554 
L 457.950629 267.404315 
L 458.967207 267.226106 
L 459.983786 267.319975 
L 461.000364 268.283348 
L 462.016943 267.871945 
L 463.033522 268.368003 
L 464.0501 267.448408 
L 465.066679 267.226193 
L 466.083257 266.834039 
L 467.099836 268.240164 
L 468.116415 268.075295 
L 469.132993 267.773985 
L 470.149572 267.70524 
L 471.16615 266.0562 
L 472.182729 267.094788 
L 473.199308 267.062478 
L 474.215886 267.846209 
L 475.232465 268.02232 
L 476.249044 267.976286 
L 477.265622 267.678211 
L 478.282201 266.639081 
L 479.298779 266.644553 
L 480.315358 267.571632 
L 481.331937 267.692337 
L 482.348515 267.946862 
L 483.365094 267.675291 
L 484.381672 267.167204 
L 485.398251 267.923329 
L 486.41483 267.408144 
L 487.431408 267.958855 
L 488.447987 267.257873 
L 490.481144 267.685938 
L 491.497723 267.568764 
L 492.514301 267.631233 
L 493.53088 268.354401 
L 494.547459 267.939501 
L 495.564037 264.50379 
L 496.580616 268.174322 
L 497.597194 267.046865 
L 498.613773 267.734822 
L 499.630352 267.322212 
L 500.64693 266.230527 
L 501.663509 266.596911 
L 502.680087 265.203409 
L 503.696666 264.153841 
L 504.713245 266.914988 
L 505.729823 268.089999 
L 506.746402 267.395503 
L 507.762981 267.940043 
L 508.779559 266.305706 
L 509.796138 267.484372 
L 510.812716 267.994626 
L 511.829295 267.248625 
L 512.845874 267.879865 
L 513.862452 267.617386 
L 514.879031 267.224148 
L 515.895609 267.65223 
L 516.912188 266.66153 
L 517.928767 263.848458 
L 518.945345 264.714659 
L 519.961924 266.888395 
L 520.978502 267.5631 
L 521.995081 267.967597 
L 523.01166 267.726413 
L 524.028238 267.939868 
L 525.044817 263.812722 
L 526.061396 266.088859 
L 527.077974 267.607088 
L 528.094553 266.872118 
L 529.111131 267.617473 
L 532.160867 266.109105 
L 533.177446 265.923745 
L 534.194024 265.374554 
L 535.210603 266.873237 
L 536.227182 267.809197 
L 538.260339 268.337757 
L 539.276917 267.068265 
L 540.293496 266.615985 
L 541.310075 267.579989 
L 542.326653 266.954133 
L 543.343232 266.675849 
L 544.359811 265.294935 
L 545.376389 266.808391 
L 546.392968 267.841174 
L 547.409546 266.010498 
L 548.426125 266.853096 
L 549.442704 267.364907 
L 550.459282 266.846435 
L 551.475861 267.842206 
L 552.492439 265.859388 
L 553.509018 267.579429 
L 554.525597 267.905024 
L 555.542175 266.962473 
L 556.558754 266.744174 
L 557.575332 267.665063 
L 558.591911 265.545718 
L 559.60849 267.801364 
L 560.625068 265.420833 
L 561.641647 266.959728 
L 562.658226 268.000256 
L 563.674804 266.347824 
L 564.691383 267.865529 
L 565.707961 264.372752 
L 566.72454 267.723633 
L 567.741119 266.684416 
L 568.757697 266.053472 
L 569.774276 266.667264 
L 570.790854 267.145682 
L 571.807433 268.307476 
L 572.824012 268.097359 
L 573.84059 266.50306 
L 574.857169 267.659399 
L 575.873747 267.860249 
L 576.890326 267.759334 
L 577.906905 266.989607 
L 578.923483 267.018665 
L 580.956641 268.369822 
L 581.973219 264.84227 
L 582.989798 267.340885 
L 584.006376 268.190494 
L 585.022955 268.124459 
L 586.039534 266.453529 
L 587.056112 267.945848 
L 588.072691 267.9013 
L 589.089269 267.653804 
L 590.105848 267.540528 
L 591.122427 265.627907 
L 593.155584 267.309607 
L 594.172163 266.002263 
L 595.188741 265.582573 
L 596.20532 266.808531 
L 597.221898 267.367774 
L 598.238477 267.770803 
L 599.255056 267.320656 
L 600.271634 268.142869 
L 601.288213 266.886769 
L 602.304791 267.605165 
L 603.32137 264.926453 
L 604.337949 268.16224 
L 605.354527 266.997265 
L 606.371106 267.427445 
L 607.387684 268.356359 
L 608.404263 266.983837 
L 609.420842 267.806714 
L 610.43742 266.184389 
L 611.453999 267.563607 
L 612.470578 267.45659 
L 613.487156 267.821383 
L 614.503735 266.845176 
L 615.520313 267.39108 
L 616.536892 267.327353 
L 617.553471 268.349803 
L 618.570049 264.684377 
L 619.586628 265.332507 
L 620.603206 267.57859 
L 621.619785 267.622071 
L 622.636364 264.277012 
L 622.636364 264.277012 
" clip-path="url(#pf1f5729861)" style="fill: none; stroke: #ff7f0e; stroke-width: 1.5; stroke-linecap: square"/>
   </g>
   <g id="patch_3">
    <path d="M 90 320.4 
L 90 43.2 
" style="fill: none; stroke: #000000; stroke-width: 0.8; stroke-linejoin: miter; stroke-linecap: square"/>
   </g>
   <g id="patch_4">
    <path d="M 648 320.4 
L 648 43.2 
" style="fill: none; stroke: #000000; stroke-width: 0.8; stroke-linejoin: miter; stroke-linecap: square"/>
   </g>
   <g id="patch_5">
    <path d="M 90 320.4 
L 648 320.4 
" style="fill: none; stroke: #000000; stroke-width: 0.8; stroke-linejoin: miter; stroke-linecap: square"/>
   </g>
   <g id="patch_6">
    <path d="M 90 43.2 
L 648 43.2 
" style="fill: none; stroke: #000000; stroke-width: 0.8; stroke-linejoin: miter; stroke-linecap: square"/>
   </g>
   <g id="text_16">
    <!-- model train and validation loss over time -->
    <g transform="translate(245.555625 37.2) scale(0.12 -0.12)">
     <defs>
      <path id="DejaVuSans-6d" d="M 3328 2828 
Q 3544 3216 3844 3400 
Q 4144 3584 4550 3584 
Q 5097 3584 5394 3201 
Q 5691 2819 5691 2113 
L 5691 0 
L 5113 0 
L 5113 2094 
Q 5113 2597 4934 2840 
Q 4756 3084 4391 3084 
Q 3944 3084 3684 2787 
Q 3425 2491 3425 1978 
L 3425 0 
L 2847 0 
L 2847 2094 
Q 2847 2600 2669 2842 
Q 2491 3084 2119 3084 
Q 1678 3084 1418 2786 
Q 1159 2488 1159 1978 
L 1159 0 
L 581 0 
L 581 3500 
L 1159 3500 
L 1159 2956 
Q 1356 3278 1631 3431 
Q 1906 3584 2284 3584 
Q 2666 3584 2933 3390 
Q 3200 3197 3328 2828 
z
" transform="scale(0.015625)"/>
      <path id="DejaVuSans-64" d="M 2906 2969 
L 2906 4863 
L 3481 4863 
L 3481 0 
L 2906 0 
L 2906 525 
Q 2725 213 2448 61 
Q 2172 -91 1784 -91 
Q 1150 -91 751 415 
Q 353 922 353 1747 
Q 353 2572 751 3078 
Q 1150 3584 1784 3584 
Q 2172 3584 2448 3432 
Q 2725 3281 2906 2969 
z
M 947 1747 
Q 947 1113 1208 752 
Q 1469 391 1925 391 
Q 2381 391 2643 752 
Q 2906 1113 2906 1747 
Q 2906 2381 2643 2742 
Q 2381 3103 1925 3103 
Q 1469 3103 1208 2742 
Q 947 2381 947 1747 
z
" transform="scale(0.015625)"/>
      <path id="DejaVuSans-20" transform="scale(0.015625)"/>
      <path id="DejaVuSans-74" d="M 1172 4494 
L 1172 3500 
L 2356 3500 
L 2356 3053 
L 1172 3053 
L 1172 1153 
Q 1172 725 1289 603 
Q 1406 481 1766 481 
L 2356 481 
L 2356 0 
L 1766 0 
Q 1100 0 847 248 
Q 594 497 594 1153 
L 594 3053 
L 172 3053 
L 172 3500 
L 594 3500 
L 594 4494 
L 1172 4494 
z
" transform="scale(0.015625)"/>
      <path id="DejaVuSans-72" d="M 2631 2963 
Q 2534 3019 2420 3045 
Q 2306 3072 2169 3072 
Q 1681 3072 1420 2755 
Q 1159 2438 1159 1844 
L 1159 0 
L 581 0 
L 581 3500 
L 1159 3500 
L 1159 2956 
Q 1341 3275 1631 3429 
Q 1922 3584 2338 3584 
Q 2397 3584 2469 3576 
Q 2541 3569 2628 3553 
L 2631 2963 
z
" transform="scale(0.015625)"/>
      <path id="DejaVuSans-61" d="M 2194 1759 
Q 1497 1759 1228 1600 
Q 959 1441 959 1056 
Q 959 750 1161 570 
Q 1363 391 1709 391 
Q 2188 391 2477 730 
Q 2766 1069 2766 1631 
L 2766 1759 
L 2194 1759 
z
M 3341 1997 
L 3341 0 
L 2766 0 
L 2766 531 
Q 2569 213 2275 61 
Q 1981 -91 1556 -91 
Q 1019 -91 701 211 
Q 384 513 384 1019 
Q 384 1609 779 1909 
Q 1175 2209 1959 2209 
L 2766 2209 
L 2766 2266 
Q 2766 2663 2505 2880 
Q 2244 3097 1772 3097 
Q 1472 3097 1187 3025 
Q 903 2953 641 2809 
L 641 3341 
Q 956 3463 1253 3523 
Q 1550 3584 1831 3584 
Q 2591 3584 2966 3190 
Q 3341 2797 3341 1997 
z
" transform="scale(0.015625)"/>
      <path id="DejaVuSans-69" d="M 603 3500 
L 1178 3500 
L 1178 0 
L 603 0 
L 603 3500 
z
M 603 4863 
L 1178 4863 
L 1178 4134 
L 603 4134 
L 603 4863 
z
" transform="scale(0.015625)"/>
      <path id="DejaVuSans-6e" d="M 3513 2113 
L 3513 0 
L 2938 0 
L 2938 2094 
Q 2938 2591 2744 2837 
Q 2550 3084 2163 3084 
Q 1697 3084 1428 2787 
Q 1159 2491 1159 1978 
L 1159 0 
L 581 0 
L 581 3500 
L 1159 3500 
L 1159 2956 
Q 1366 3272 1645 3428 
Q 1925 3584 2291 3584 
Q 2894 3584 3203 3211 
Q 3513 2838 3513 2113 
z
" transform="scale(0.015625)"/>
      <path id="DejaVuSans-76" d="M 191 3500 
L 800 3500 
L 1894 563 
L 2988 3500 
L 3597 3500 
L 2284 0 
L 1503 0 
L 191 3500 
z
" transform="scale(0.015625)"/>
     </defs>
     <use xlink:href="#DejaVuSans-6d"/>
     <use xlink:href="#DejaVuSans-6f" x="97.412109"/>
     <use xlink:href="#DejaVuSans-64" x="158.59375"/>
     <use xlink:href="#DejaVuSans-65" x="222.070312"/>
     <use xlink:href="#DejaVuSans-6c" x="283.59375"/>
     <use xlink:href="#DejaVuSans-20" x="311.376953"/>
     <use xlink:href="#DejaVuSans-74" x="343.164062"/>
     <use xlink:href="#DejaVuSans-72" x="382.373047"/>
     <use xlink:href="#DejaVuSans-61" x="423.486328"/>
     <use xlink:href="#DejaVuSans-69" x="484.765625"/>
     <use xlink:href="#DejaVuSans-6e" x="512.548828"/>
     <use xlink:href="#DejaVuSans-20" x="575.927734"/>
     <use xlink:href="#DejaVuSans-61" x="607.714844"/>
     <use xlink:href="#DejaVuSans-6e" x="668.994141"/>
     <use xlink:href="#DejaVuSans-64" x="732.373047"/>
     <use xlink:href="#DejaVuSans-20" x="795.849609"/>
     <use xlink:href="#DejaVuSans-76" x="827.636719"/>
     <use xlink:href="#DejaVuSans-61" x="886.816406"/>
     <use xlink:href="#DejaVuSans-6c" x="948.095703"/>
     <use xlink:href="#DejaVuSans-69" x="975.878906"/>
     <use xlink:href="#DejaVuSans-64" x="1003.662109"/>
     <use xlink:href="#DejaVuSans-61" x="1067.138672"/>
     <use xlink:href="#DejaVuSans-74" x="1128.417969"/>
     <use xlink:href="#DejaVuSans-69" x="1167.626953"/>
     <use xlink:href="#DejaVuSans-6f" x="1195.410156"/>
     <use xlink:href="#DejaVuSans-6e" x="1256.591797"/>
     <use xlink:href="#DejaVuSans-20" x="1319.970703"/>
     <use xlink:href="#DejaVuSans-6c" x="1351.757812"/>
     <use xlink:href="#DejaVuSans-6f" x="1379.541016"/>
     <use xlink:href="#DejaVuSans-73" x="1440.722656"/>
     <use xlink:href="#DejaVuSans-73" x="1492.822266"/>
     <use xlink:href="#DejaVuSans-20" x="1544.921875"/>
     <use xlink:href="#DejaVuSans-6f" x="1576.708984"/>
     <use xlink:href="#DejaVuSans-76" x="1637.890625"/>
     <use xlink:href="#DejaVuSans-65" x="1697.070312"/>
     <use xlink:href="#DejaVuSans-72" x="1758.59375"/>
     <use xlink:href="#DejaVuSans-20" x="1799.707031"/>
     <use xlink:href="#DejaVuSans-74" x="1831.494141"/>
     <use xlink:href="#DejaVuSans-69" x="1870.703125"/>
     <use xlink:href="#DejaVuSans-6d" x="1898.486328"/>
     <use xlink:href="#DejaVuSans-65" x="1995.898438"/>
    </g>
   </g>
   <g id="legend_1">
    <g id="patch_7">
     <path d="M 559.765625 80.55625 
L 641 80.55625 
Q 643 80.55625 643 78.55625 
L 643 50.2 
Q 643 48.2 641 48.2 
L 559.765625 48.2 
Q 557.765625 48.2 557.765625 50.2 
L 557.765625 78.55625 
Q 557.765625 80.55625 559.765625 80.55625 
z
" style="fill: #ffffff; opacity: 0.8; stroke: #cccccc; stroke-linejoin: miter"/>
    </g>
    <g id="line2d_29">
     <path d="M 561.765625 56.298437 
L 571.765625 56.298437 
L 581.765625 56.298437 
" style="fill: none; stroke: #1f77b4; stroke-width: 1.5; stroke-linecap: square"/>
    </g>
    <g id="text_17">
     <!-- train -->
     <g transform="translate(589.765625 59.798437) scale(0.1 -0.1)">
      <use xlink:href="#DejaVuSans-74"/>
      <use xlink:href="#DejaVuSans-72" x="39.208984"/>
      <use xlink:href="#DejaVuSans-61" x="80.322266"/>
      <use xlink:href="#DejaVuSans-69" x="141.601562"/>
      <use xlink:href="#DejaVuSans-6e" x="169.384766"/>
     </g>
    </g>
    <g id="line2d_30">
     <path d="M 561.765625 70.976562 
L 571.765625 70.976562 
L 581.765625 70.976562 
" style="fill: none; stroke: #ff7f0e; stroke-width: 1.5; stroke-linecap: square"/>
    </g>
    <g id="text_18">
     <!-- validation -->
     <g transform="translate(589.765625 74.476562) scale(0.1 -0.1)">
      <use xlink:href="#DejaVuSans-76"/>
      <use xlink:href="#DejaVuSans-61" x="59.179688"/>
      <use xlink:href="#DejaVuSans-6c" x="120.458984"/>
      <use xlink:href="#DejaVuSans-69" x="148.242188"/>
      <use xlink:href="#DejaVuSans-64" x="176.025391"/>
      <use xlink:href="#DejaVuSans-61" x="239.501953"/>
      <use xlink:href="#DejaVuSans-74" x="300.78125"/>
      <use xlink:href="#DejaVuSans-69" x="339.990234"/>
      <use xlink:href="#DejaVuSans-6f" x="367.773438"/>
      <use xlink:href="#DejaVuSans-6e" x="428.955078"/>
     </g>
    </g>
   </g>
  </g>
 </g>
 <defs>
  <clipPath id="pf1f5729861">
   <rect x="90" y="43.2" width="558" height="277.2"/>
  </clipPath>
 </defs>
</svg>
