<?xml version="1.0" encoding="utf-8" standalone="no"?>
<!DOCTYPE svg PUBLIC "-//W3C//DTD SVG 1.1//EN"
  "http://www.w3.org/Graphics/SVG/1.1/DTD/svg11.dtd">
<svg xmlns:xlink="http://www.w3.org/1999/xlink" width="720pt" height="360pt" viewBox="0 0 720 360" xmlns="http://www.w3.org/2000/svg" version="1.1">
 <metadata>
  <rdf:RDF xmlns:dc="http://purl.org/dc/elements/1.1/" xmlns:cc="http://creativecommons.org/ns#" xmlns:rdf="http://www.w3.org/1999/02/22-rdf-syntax-ns#">
   <cc:Work>
    <dc:type rdf:resource="http://purl.org/dc/dcmitype/StillImage"/>
    <dc:date>2023-05-24T11:20:12.298090</dc:date>
    <dc:format>image/svg+xml</dc:format>
    <dc:creator>
     <cc:Agent>
      <dc:title>Matplotlib v3.7.1, https://matplotlib.org/</dc:title>
     </cc:Agent>
    </dc:creator>
   </cc:Work>
  </rdf:RDF>
 </metadata>
 <defs>
  <style type="text/css">*{stroke-linejoin: round; stroke-linecap: butt}</style>
 </defs>
 <g id="figure_1">
  <g id="patch_1">
   <path d="M 0 360 
L 720 360 
L 720 0 
L 0 0 
z
" style="fill: #ffffff"/>
  </g>
  <g id="axes_1">
   <g id="patch_2">
    <path d="M 90 320.4 
L 648 320.4 
L 648 43.2 
L 90 43.2 
z
" style="fill: #ffffff"/>
   </g>
   <g id="matplotlib.axis_1">
    <g id="xtick_1">
     <g id="line2d_1">
      <path d="M 115.363636 320.4 
L 115.363636 43.2 
" clip-path="url(#p7ecbf1fe7b)" style="fill: none; stroke: #b0b0b0; stroke-width: 0.8; stroke-linecap: square"/>
     </g>
     <g id="line2d_2">
      <defs>
       <path id="mdc6a410df3" d="M 0 0 
L 0 3.5 
" style="stroke: #000000; stroke-width: 0.8"/>
      </defs>
      <g>
       <use xlink:href="#mdc6a410df3" x="115.363636" y="320.4" style="stroke: #000000; stroke-width: 0.8"/>
      </g>
     </g>
     <g id="text_1">
      <!-- 0 -->
      <g transform="translate(112.182386 334.998438) scale(0.1 -0.1)">
       <defs>
        <path id="DejaVuSans-30" d="M 2034 4250 
Q 1547 4250 1301 3770 
Q 1056 3291 1056 2328 
Q 1056 1369 1301 889 
Q 1547 409 2034 409 
Q 2525 409 2770 889 
Q 3016 1369 3016 2328 
Q 3016 3291 2770 3770 
Q 2525 4250 2034 4250 
z
M 2034 4750 
Q 2819 4750 3233 4129 
Q 3647 3509 3647 2328 
Q 3647 1150 3233 529 
Q 2819 -91 2034 -91 
Q 1250 -91 836 529 
Q 422 1150 422 2328 
Q 422 3509 836 4129 
Q 1250 4750 2034 4750 
z
" transform="scale(0.015625)"/>
       </defs>
       <use xlink:href="#DejaVuSans-30"/>
      </g>
     </g>
    </g>
    <g id="xtick_2">
     <g id="line2d_3">
      <path d="M 217.021498 320.4 
L 217.021498 43.2 
" clip-path="url(#p7ecbf1fe7b)" style="fill: none; stroke: #b0b0b0; stroke-width: 0.8; stroke-linecap: square"/>
     </g>
     <g id="line2d_4">
      <g>
       <use xlink:href="#mdc6a410df3" x="217.021498" y="320.4" style="stroke: #000000; stroke-width: 0.8"/>
      </g>
     </g>
     <g id="text_2">
      <!-- 100 -->
      <g transform="translate(207.477748 334.998438) scale(0.1 -0.1)">
       <defs>
        <path id="DejaVuSans-31" d="M 794 531 
L 1825 531 
L 1825 4091 
L 703 3866 
L 703 4441 
L 1819 4666 
L 2450 4666 
L 2450 531 
L 3481 531 
L 3481 0 
L 794 0 
L 794 531 
z
" transform="scale(0.015625)"/>
       </defs>
       <use xlink:href="#DejaVuSans-31"/>
       <use xlink:href="#DejaVuSans-30" x="63.623047"/>
       <use xlink:href="#DejaVuSans-30" x="127.246094"/>
      </g>
     </g>
    </g>
    <g id="xtick_3">
     <g id="line2d_5">
      <path d="M 318.679359 320.4 
L 318.679359 43.2 
" clip-path="url(#p7ecbf1fe7b)" style="fill: none; stroke: #b0b0b0; stroke-width: 0.8; stroke-linecap: square"/>
     </g>
     <g id="line2d_6">
      <g>
       <use xlink:href="#mdc6a410df3" x="318.679359" y="320.4" style="stroke: #000000; stroke-width: 0.8"/>
      </g>
     </g>
     <g id="text_3">
      <!-- 200 -->
      <g transform="translate(309.135609 334.998438) scale(0.1 -0.1)">
       <defs>
        <path id="DejaVuSans-32" d="M 1228 531 
L 3431 531 
L 3431 0 
L 469 0 
L 469 531 
Q 828 903 1448 1529 
Q 2069 2156 2228 2338 
Q 2531 2678 2651 2914 
Q 2772 3150 2772 3378 
Q 2772 3750 2511 3984 
Q 2250 4219 1831 4219 
Q 1534 4219 1204 4116 
Q 875 4013 500 3803 
L 500 4441 
Q 881 4594 1212 4672 
Q 1544 4750 1819 4750 
Q 2544 4750 2975 4387 
Q 3406 4025 3406 3419 
Q 3406 3131 3298 2873 
Q 3191 2616 2906 2266 
Q 2828 2175 2409 1742 
Q 1991 1309 1228 531 
z
" transform="scale(0.015625)"/>
       </defs>
       <use xlink:href="#DejaVuSans-32"/>
       <use xlink:href="#DejaVuSans-30" x="63.623047"/>
       <use xlink:href="#DejaVuSans-30" x="127.246094"/>
      </g>
     </g>
    </g>
    <g id="xtick_4">
     <g id="line2d_7">
      <path d="M 420.33722 320.4 
L 420.33722 43.2 
" clip-path="url(#p7ecbf1fe7b)" style="fill: none; stroke: #b0b0b0; stroke-width: 0.8; stroke-linecap: square"/>
     </g>
     <g id="line2d_8">
      <g>
       <use xlink:href="#mdc6a410df3" x="420.33722" y="320.4" style="stroke: #000000; stroke-width: 0.8"/>
      </g>
     </g>
     <g id="text_4">
      <!-- 300 -->
      <g transform="translate(410.79347 334.998438) scale(0.1 -0.1)">
       <defs>
        <path id="DejaVuSans-33" d="M 2597 2516 
Q 3050 2419 3304 2112 
Q 3559 1806 3559 1356 
Q 3559 666 3084 287 
Q 2609 -91 1734 -91 
Q 1441 -91 1130 -33 
Q 819 25 488 141 
L 488 750 
Q 750 597 1062 519 
Q 1375 441 1716 441 
Q 2309 441 2620 675 
Q 2931 909 2931 1356 
Q 2931 1769 2642 2001 
Q 2353 2234 1838 2234 
L 1294 2234 
L 1294 2753 
L 1863 2753 
Q 2328 2753 2575 2939 
Q 2822 3125 2822 3475 
Q 2822 3834 2567 4026 
Q 2313 4219 1838 4219 
Q 1578 4219 1281 4162 
Q 984 4106 628 3988 
L 628 4550 
Q 988 4650 1302 4700 
Q 1616 4750 1894 4750 
Q 2613 4750 3031 4423 
Q 3450 4097 3450 3541 
Q 3450 3153 3228 2886 
Q 3006 2619 2597 2516 
z
" transform="scale(0.015625)"/>
       </defs>
       <use xlink:href="#DejaVuSans-33"/>
       <use xlink:href="#DejaVuSans-30" x="63.623047"/>
       <use xlink:href="#DejaVuSans-30" x="127.246094"/>
      </g>
     </g>
    </g>
    <g id="xtick_5">
     <g id="line2d_9">
      <path d="M 521.995081 320.4 
L 521.995081 43.2 
" clip-path="url(#p7ecbf1fe7b)" style="fill: none; stroke: #b0b0b0; stroke-width: 0.8; stroke-linecap: square"/>
     </g>
     <g id="line2d_10">
      <g>
       <use xlink:href="#mdc6a410df3" x="521.995081" y="320.4" style="stroke: #000000; stroke-width: 0.8"/>
      </g>
     </g>
     <g id="text_5">
      <!-- 400 -->
      <g transform="translate(512.451331 334.998438) scale(0.1 -0.1)">
       <defs>
        <path id="DejaVuSans-34" d="M 2419 4116 
L 825 1625 
L 2419 1625 
L 2419 4116 
z
M 2253 4666 
L 3047 4666 
L 3047 1625 
L 3713 1625 
L 3713 1100 
L 3047 1100 
L 3047 0 
L 2419 0 
L 2419 1100 
L 313 1100 
L 313 1709 
L 2253 4666 
z
" transform="scale(0.015625)"/>
       </defs>
       <use xlink:href="#DejaVuSans-34"/>
       <use xlink:href="#DejaVuSans-30" x="63.623047"/>
       <use xlink:href="#DejaVuSans-30" x="127.246094"/>
      </g>
     </g>
    </g>
    <g id="xtick_6">
     <g id="line2d_11">
      <path d="M 623.652942 320.4 
L 623.652942 43.2 
" clip-path="url(#p7ecbf1fe7b)" style="fill: none; stroke: #b0b0b0; stroke-width: 0.8; stroke-linecap: square"/>
     </g>
     <g id="line2d_12">
      <g>
       <use xlink:href="#mdc6a410df3" x="623.652942" y="320.4" style="stroke: #000000; stroke-width: 0.8"/>
      </g>
     </g>
     <g id="text_6">
      <!-- 500 -->
      <g transform="translate(614.109192 334.998438) scale(0.1 -0.1)">
       <defs>
        <path id="DejaVuSans-35" d="M 691 4666 
L 3169 4666 
L 3169 4134 
L 1269 4134 
L 1269 2991 
Q 1406 3038 1543 3061 
Q 1681 3084 1819 3084 
Q 2600 3084 3056 2656 
Q 3513 2228 3513 1497 
Q 3513 744 3044 326 
Q 2575 -91 1722 -91 
Q 1428 -91 1123 -41 
Q 819 9 494 109 
L 494 744 
Q 775 591 1075 516 
Q 1375 441 1709 441 
Q 2250 441 2565 725 
Q 2881 1009 2881 1497 
Q 2881 1984 2565 2268 
Q 2250 2553 1709 2553 
Q 1456 2553 1204 2497 
Q 953 2441 691 2322 
L 691 4666 
z
" transform="scale(0.015625)"/>
       </defs>
       <use xlink:href="#DejaVuSans-35"/>
       <use xlink:href="#DejaVuSans-30" x="63.623047"/>
       <use xlink:href="#DejaVuSans-30" x="127.246094"/>
      </g>
     </g>
    </g>
    <g id="text_7">
     <!-- epoch -->
     <g transform="translate(353.771875 348.676562) scale(0.1 -0.1)">
      <defs>
       <path id="DejaVuSans-65" d="M 3597 1894 
L 3597 1613 
L 953 1613 
Q 991 1019 1311 708 
Q 1631 397 2203 397 
Q 2534 397 2845 478 
Q 3156 559 3463 722 
L 3463 178 
Q 3153 47 2828 -22 
Q 2503 -91 2169 -91 
Q 1331 -91 842 396 
Q 353 884 353 1716 
Q 353 2575 817 3079 
Q 1281 3584 2069 3584 
Q 2775 3584 3186 3129 
Q 3597 2675 3597 1894 
z
M 3022 2063 
Q 3016 2534 2758 2815 
Q 2500 3097 2075 3097 
Q 1594 3097 1305 2825 
Q 1016 2553 972 2059 
L 3022 2063 
z
" transform="scale(0.015625)"/>
       <path id="DejaVuSans-70" d="M 1159 525 
L 1159 -1331 
L 581 -1331 
L 581 3500 
L 1159 3500 
L 1159 2969 
Q 1341 3281 1617 3432 
Q 1894 3584 2278 3584 
Q 2916 3584 3314 3078 
Q 3713 2572 3713 1747 
Q 3713 922 3314 415 
Q 2916 -91 2278 -91 
Q 1894 -91 1617 61 
Q 1341 213 1159 525 
z
M 3116 1747 
Q 3116 2381 2855 2742 
Q 2594 3103 2138 3103 
Q 1681 3103 1420 2742 
Q 1159 2381 1159 1747 
Q 1159 1113 1420 752 
Q 1681 391 2138 391 
Q 2594 391 2855 752 
Q 3116 1113 3116 1747 
z
" transform="scale(0.015625)"/>
       <path id="DejaVuSans-6f" d="M 1959 3097 
Q 1497 3097 1228 2736 
Q 959 2375 959 1747 
Q 959 1119 1226 758 
Q 1494 397 1959 397 
Q 2419 397 2687 759 
Q 2956 1122 2956 1747 
Q 2956 2369 2687 2733 
Q 2419 3097 1959 3097 
z
M 1959 3584 
Q 2709 3584 3137 3096 
Q 3566 2609 3566 1747 
Q 3566 888 3137 398 
Q 2709 -91 1959 -91 
Q 1206 -91 779 398 
Q 353 888 353 1747 
Q 353 2609 779 3096 
Q 1206 3584 1959 3584 
z
" transform="scale(0.015625)"/>
       <path id="DejaVuSans-63" d="M 3122 3366 
L 3122 2828 
Q 2878 2963 2633 3030 
Q 2388 3097 2138 3097 
Q 1578 3097 1268 2742 
Q 959 2388 959 1747 
Q 959 1106 1268 751 
Q 1578 397 2138 397 
Q 2388 397 2633 464 
Q 2878 531 3122 666 
L 3122 134 
Q 2881 22 2623 -34 
Q 2366 -91 2075 -91 
Q 1284 -91 818 406 
Q 353 903 353 1747 
Q 353 2603 823 3093 
Q 1294 3584 2113 3584 
Q 2378 3584 2631 3529 
Q 2884 3475 3122 3366 
z
" transform="scale(0.015625)"/>
       <path id="DejaVuSans-68" d="M 3513 2113 
L 3513 0 
L 2938 0 
L 2938 2094 
Q 2938 2591 2744 2837 
Q 2550 3084 2163 3084 
Q 1697 3084 1428 2787 
Q 1159 2491 1159 1978 
L 1159 0 
L 581 0 
L 581 4863 
L 1159 4863 
L 1159 2956 
Q 1366 3272 1645 3428 
Q 1925 3584 2291 3584 
Q 2894 3584 3203 3211 
Q 3513 2838 3513 2113 
z
" transform="scale(0.015625)"/>
      </defs>
      <use xlink:href="#DejaVuSans-65"/>
      <use xlink:href="#DejaVuSans-70" x="61.523438"/>
      <use xlink:href="#DejaVuSans-6f" x="125"/>
      <use xlink:href="#DejaVuSans-63" x="186.181641"/>
      <use xlink:href="#DejaVuSans-68" x="241.162109"/>
     </g>
    </g>
   </g>
   <g id="matplotlib.axis_2">
    <g id="ytick_1">
     <g id="line2d_13">
      <path d="M 90 285.216486 
L 648 285.216486 
" clip-path="url(#p7ecbf1fe7b)" style="fill: none; stroke: #b0b0b0; stroke-width: 0.8; stroke-linecap: square"/>
     </g>
     <g id="line2d_14">
      <defs>
       <path id="m4482761af1" d="M 0 0 
L -3.5 0 
" style="stroke: #000000; stroke-width: 0.8"/>
      </defs>
      <g>
       <use xlink:href="#m4482761af1" x="90" y="285.216486" style="stroke: #000000; stroke-width: 0.8"/>
      </g>
     </g>
     <g id="text_8">
      <!-- 1.380 -->
      <g transform="translate(54.371875 289.015704) scale(0.1 -0.1)">
       <defs>
        <path id="DejaVuSans-2e" d="M 684 794 
L 1344 794 
L 1344 0 
L 684 0 
L 684 794 
z
" transform="scale(0.015625)"/>
        <path id="DejaVuSans-38" d="M 2034 2216 
Q 1584 2216 1326 1975 
Q 1069 1734 1069 1313 
Q 1069 891 1326 650 
Q 1584 409 2034 409 
Q 2484 409 2743 651 
Q 3003 894 3003 1313 
Q 3003 1734 2745 1975 
Q 2488 2216 2034 2216 
z
M 1403 2484 
Q 997 2584 770 2862 
Q 544 3141 544 3541 
Q 544 4100 942 4425 
Q 1341 4750 2034 4750 
Q 2731 4750 3128 4425 
Q 3525 4100 3525 3541 
Q 3525 3141 3298 2862 
Q 3072 2584 2669 2484 
Q 3125 2378 3379 2068 
Q 3634 1759 3634 1313 
Q 3634 634 3220 271 
Q 2806 -91 2034 -91 
Q 1263 -91 848 271 
Q 434 634 434 1313 
Q 434 1759 690 2068 
Q 947 2378 1403 2484 
z
M 1172 3481 
Q 1172 3119 1398 2916 
Q 1625 2713 2034 2713 
Q 2441 2713 2670 2916 
Q 2900 3119 2900 3481 
Q 2900 3844 2670 4047 
Q 2441 4250 2034 4250 
Q 1625 4250 1398 4047 
Q 1172 3844 1172 3481 
z
" transform="scale(0.015625)"/>
       </defs>
       <use xlink:href="#DejaVuSans-31"/>
       <use xlink:href="#DejaVuSans-2e" x="63.623047"/>
       <use xlink:href="#DejaVuSans-33" x="95.410156"/>
       <use xlink:href="#DejaVuSans-38" x="159.033203"/>
       <use xlink:href="#DejaVuSans-30" x="222.65625"/>
      </g>
     </g>
    </g>
    <g id="ytick_2">
     <g id="line2d_15">
      <path d="M 90 231.077307 
L 648 231.077307 
" clip-path="url(#p7ecbf1fe7b)" style="fill: none; stroke: #b0b0b0; stroke-width: 0.8; stroke-linecap: square"/>
     </g>
     <g id="line2d_16">
      <g>
       <use xlink:href="#m4482761af1" x="90" y="231.077307" style="stroke: #000000; stroke-width: 0.8"/>
      </g>
     </g>
     <g id="text_9">
      <!-- 1.385 -->
      <g transform="translate(54.371875 234.876525) scale(0.1 -0.1)">
       <use xlink:href="#DejaVuSans-31"/>
       <use xlink:href="#DejaVuSans-2e" x="63.623047"/>
       <use xlink:href="#DejaVuSans-33" x="95.410156"/>
       <use xlink:href="#DejaVuSans-38" x="159.033203"/>
       <use xlink:href="#DejaVuSans-35" x="222.65625"/>
      </g>
     </g>
    </g>
    <g id="ytick_3">
     <g id="line2d_17">
      <path d="M 90 176.938127 
L 648 176.938127 
" clip-path="url(#p7ecbf1fe7b)" style="fill: none; stroke: #b0b0b0; stroke-width: 0.8; stroke-linecap: square"/>
     </g>
     <g id="line2d_18">
      <g>
       <use xlink:href="#m4482761af1" x="90" y="176.938127" style="stroke: #000000; stroke-width: 0.8"/>
      </g>
     </g>
     <g id="text_10">
      <!-- 1.390 -->
      <g transform="translate(54.371875 180.737346) scale(0.1 -0.1)">
       <defs>
        <path id="DejaVuSans-39" d="M 703 97 
L 703 672 
Q 941 559 1184 500 
Q 1428 441 1663 441 
Q 2288 441 2617 861 
Q 2947 1281 2994 2138 
Q 2813 1869 2534 1725 
Q 2256 1581 1919 1581 
Q 1219 1581 811 2004 
Q 403 2428 403 3163 
Q 403 3881 828 4315 
Q 1253 4750 1959 4750 
Q 2769 4750 3195 4129 
Q 3622 3509 3622 2328 
Q 3622 1225 3098 567 
Q 2575 -91 1691 -91 
Q 1453 -91 1209 -44 
Q 966 3 703 97 
z
M 1959 2075 
Q 2384 2075 2632 2365 
Q 2881 2656 2881 3163 
Q 2881 3666 2632 3958 
Q 2384 4250 1959 4250 
Q 1534 4250 1286 3958 
Q 1038 3666 1038 3163 
Q 1038 2656 1286 2365 
Q 1534 2075 1959 2075 
z
" transform="scale(0.015625)"/>
       </defs>
       <use xlink:href="#DejaVuSans-31"/>
       <use xlink:href="#DejaVuSans-2e" x="63.623047"/>
       <use xlink:href="#DejaVuSans-33" x="95.410156"/>
       <use xlink:href="#DejaVuSans-39" x="159.033203"/>
       <use xlink:href="#DejaVuSans-30" x="222.65625"/>
      </g>
     </g>
    </g>
    <g id="ytick_4">
     <g id="line2d_19">
      <path d="M 90 122.798948 
L 648 122.798948 
" clip-path="url(#p7ecbf1fe7b)" style="fill: none; stroke: #b0b0b0; stroke-width: 0.8; stroke-linecap: square"/>
     </g>
     <g id="line2d_20">
      <g>
       <use xlink:href="#m4482761af1" x="90" y="122.798948" style="stroke: #000000; stroke-width: 0.8"/>
      </g>
     </g>
     <g id="text_11">
      <!-- 1.395 -->
      <g transform="translate(54.371875 126.598167) scale(0.1 -0.1)">
       <use xlink:href="#DejaVuSans-31"/>
       <use xlink:href="#DejaVuSans-2e" x="63.623047"/>
       <use xlink:href="#DejaVuSans-33" x="95.410156"/>
       <use xlink:href="#DejaVuSans-39" x="159.033203"/>
       <use xlink:href="#DejaVuSans-35" x="222.65625"/>
      </g>
     </g>
    </g>
    <g id="ytick_5">
     <g id="line2d_21">
      <path d="M 90 68.659769 
L 648 68.659769 
" clip-path="url(#p7ecbf1fe7b)" style="fill: none; stroke: #b0b0b0; stroke-width: 0.8; stroke-linecap: square"/>
     </g>
     <g id="line2d_22">
      <g>
       <use xlink:href="#m4482761af1" x="90" y="68.659769" style="stroke: #000000; stroke-width: 0.8"/>
      </g>
     </g>
     <g id="text_12">
      <!-- 1.400 -->
      <g transform="translate(54.371875 72.458988) scale(0.1 -0.1)">
       <use xlink:href="#DejaVuSans-31"/>
       <use xlink:href="#DejaVuSans-2e" x="63.623047"/>
       <use xlink:href="#DejaVuSans-34" x="95.410156"/>
       <use xlink:href="#DejaVuSans-30" x="159.033203"/>
       <use xlink:href="#DejaVuSans-30" x="222.65625"/>
      </g>
     </g>
    </g>
    <g id="text_13">
     <!-- loss -->
     <g transform="translate(48.292188 191.457812) rotate(-90) scale(0.1 -0.1)">
      <defs>
       <path id="DejaVuSans-6c" d="M 603 4863 
L 1178 4863 
L 1178 0 
L 603 0 
L 603 4863 
z
" transform="scale(0.015625)"/>
       <path id="DejaVuSans-73" d="M 2834 3397 
L 2834 2853 
Q 2591 2978 2328 3040 
Q 2066 3103 1784 3103 
Q 1356 3103 1142 2972 
Q 928 2841 928 2578 
Q 928 2378 1081 2264 
Q 1234 2150 1697 2047 
L 1894 2003 
Q 2506 1872 2764 1633 
Q 3022 1394 3022 966 
Q 3022 478 2636 193 
Q 2250 -91 1575 -91 
Q 1294 -91 989 -36 
Q 684 19 347 128 
L 347 722 
Q 666 556 975 473 
Q 1284 391 1588 391 
Q 1994 391 2212 530 
Q 2431 669 2431 922 
Q 2431 1156 2273 1281 
Q 2116 1406 1581 1522 
L 1381 1569 
Q 847 1681 609 1914 
Q 372 2147 372 2553 
Q 372 3047 722 3315 
Q 1072 3584 1716 3584 
Q 2034 3584 2315 3537 
Q 2597 3491 2834 3397 
z
" transform="scale(0.015625)"/>
      </defs>
      <use xlink:href="#DejaVuSans-6c"/>
      <use xlink:href="#DejaVuSans-6f" x="27.783203"/>
      <use xlink:href="#DejaVuSans-73" x="88.964844"/>
      <use xlink:href="#DejaVuSans-73" x="141.064453"/>
     </g>
    </g>
   </g>
   <g id="line2d_23">
    <path d="M 115.363636 206.401595 
L 116.380215 177.724367 
L 117.396794 182.013624 
L 118.413372 226.337671 
L 119.429951 227.773017 
L 121.463108 151.81973 
L 122.479687 127.009675 
L 123.496265 172.327621 
L 124.512844 117.376594 
L 125.529422 180.68154 
L 126.546001 150.985887 
L 127.56258 229.089611 
L 128.579158 194.797495 
L 129.595737 172.186926 
L 130.612316 200.119376 
L 131.628894 208.637224 
L 132.645473 165.927941 
L 133.662051 184.242799 
L 134.67863 224.468623 
L 135.695209 199.155164 
L 136.711787 176.682708 
L 137.728366 158.413028 
L 138.744944 191.889371 
L 139.761523 191.12523 
L 140.778102 177.041545 
L 141.79468 198.056711 
L 142.811259 202.228508 
L 143.827837 151.787461 
L 144.844416 202.993939 
L 145.860995 171.052332 
L 146.877573 107.077471 
L 147.894152 205.807837 
L 148.910731 220.175494 
L 149.927309 175.114412 
L 150.943888 198.969292 
L 151.960466 184.70877 
L 152.977045 187.451674 
L 153.993624 164.821743 
L 155.010202 136.702131 
L 156.026781 132.460633 
L 157.043359 220.734401 
L 158.059938 184.166643 
L 159.076517 201.543104 
L 160.093095 222.162002 
L 161.109674 191.850648 
L 162.126253 168.61276 
L 163.142831 182.013624 
L 164.15941 153.877232 
L 165.175988 154.365146 
L 166.192567 183.594828 
L 167.209146 148.591493 
L 168.225724 120.134988 
L 169.242303 206.892091 
L 170.258881 180.109725 
L 171.27546 173.757804 
L 172.292039 191.649286 
L 173.308617 187.082511 
L 174.325196 234.54186 
L 175.341774 247.55678 
L 176.358353 212.301744 
L 177.374932 156.174818 
L 178.39151 207.592984 
L 179.408089 232.756713 
L 180.424668 216.017896 
L 181.441246 181.06232 
L 182.457825 187.199972 
L 183.474403 180.718973 
L 184.490982 184.058217 
L 185.507561 75.08036 
L 186.524139 243.715423 
L 187.540718 154.566507 
L 188.557296 128.963914 
L 189.573875 151.225972 
L 190.590454 165.8776 
L 191.607032 226.062735 
L 192.623611 204.566108 
L 193.640189 158.79768 
L 194.656768 219.917338 
L 195.673347 220.362657 
L 196.689925 175.85661 
L 197.706504 208.990897 
L 198.723083 190.691528 
L 199.739661 163.680695 
L 200.75624 166.246763 
L 201.772818 219.073169 
L 202.789397 186.158314 
L 203.805976 159.618615 
L 204.822554 147.949976 
L 205.839133 174.754285 
L 206.855711 197.850187 
L 207.87229 187.782113 
L 208.888869 193.975269 
L 209.905447 205.153412 
L 210.922026 239.853414 
L 211.938604 205.754915 
L 212.955183 203.467655 
L 213.971762 193.128519 
L 214.98834 178.069004 
L 216.004919 153.69265 
L 217.021498 237.59326 
L 218.038076 137.625038 
L 219.054655 176.751119 
L 220.071233 226.737812 
L 221.087812 107.320138 
L 222.104391 107.80547 
L 223.120969 208.110586 
L 224.137548 167.043173 
L 225.154126 180.463399 
L 226.170705 164.901772 
L 227.187284 130.320522 
L 228.203862 193.613851 
L 229.220441 154.841443 
L 230.237019 228.796604 
L 231.253598 104.934779 
L 232.270177 207.262544 
L 233.286755 231.695693 
L 234.303334 172.399905 
L 235.319913 139.982 
L 236.336491 162.431221 
L 237.35307 155.886974 
L 238.369648 221.923208 
L 239.386227 134.035383 
L 240.402806 213.016835 
L 241.419384 198.491704 
L 242.435963 210.177122 
L 243.452541 238.057941 
L 244.46912 119.311471 
L 245.485699 173.610655 
L 246.502277 145.620121 
L 247.518856 193.540277 
L 248.535435 176.069588 
L 249.552013 155.196407 
L 250.568592 153.757189 
L 251.58517 169.797695 
L 252.601749 176.703361 
L 253.618328 203.440549 
L 254.634906 202.757727 
L 255.651485 204.813937 
L 256.668063 142.579046 
L 257.684642 174.849803 
L 258.701221 249.496821 
L 259.717799 197.82179 
L 260.734378 195.951451 
L 261.750956 187.465873 
L 262.767535 271.717575 
L 263.784114 174.459987 
L 264.800692 184.007877 
L 265.817271 221.670215 
L 266.83385 167.03801 
L 267.850428 188.351347 
L 268.867007 198.611746 
L 269.883585 215.789428 
L 270.900164 123.498757 
L 271.916743 183.579338 
L 272.933321 216.611654 
L 273.9499 178.507869 
L 275.983057 210.430115 
L 276.999636 139.729007 
L 278.016214 137.37979 
L 279.032793 220.955124 
L 280.049371 154.930507 
L 281.06595 200.431744 
L 282.082529 138.103917 
L 283.099107 151.303419 
L 284.115686 146.084801 
L 285.132265 199.137093 
L 286.148843 172.828443 
L 287.165422 166.35777 
L 288.182 232.514046 
L 289.198579 173.307322 
L 290.215158 188.37329 
L 291.231736 207.7027 
L 292.248315 223.095235 
L 293.264893 154.066976 
L 294.281472 212.1959 
L 295.298051 116.090978 
L 297.331208 226.559685 
L 298.347786 55.8 
L 299.364365 154.15604 
L 300.380944 136.091593 
L 301.397522 194.190829 
L 302.414101 175.962454 
L 303.43068 200.928694 
L 304.447258 177.548821 
L 305.463837 167.270351 
L 306.480415 167.160634 
L 307.496994 228.890831 
L 308.513573 181.674149 
L 309.530151 176.421971 
L 310.54673 185.054698 
L 311.563308 190.009997 
L 312.579887 149.527308 
L 313.596466 214.706465 
L 314.613044 220.651791 
L 315.629623 173.964328 
L 316.646201 95.796066 
L 317.66278 205.97951 
L 318.679359 98.245964 
L 319.695937 153.678452 
L 320.712516 189.755714 
L 321.729095 242.596318 
L 322.745673 181.94134 
L 323.762252 228.426151 
L 324.77883 165.498111 
L 325.795409 124.975408 
L 326.811988 179.688932 
L 327.828566 174.092115 
L 328.845145 196.049551 
L 329.861723 177.128027 
L 330.878302 161.365038 
L 331.894881 119.115273 
L 332.911459 157.534007 
L 333.928038 230.572715 
L 334.944617 182.101397 
L 335.961195 217.899851 
L 336.977774 191.993924 
L 337.994352 183.851693 
L 339.010931 239.129287 
L 340.02751 108.618661 
L 341.044088 178.408479 
L 342.060667 176.456822 
L 343.077245 154.840152 
L 344.093824 178.618876 
L 345.110403 199.4301 
L 346.126981 187.149632 
L 347.14356 158.011595 
L 348.160138 208.225465 
L 349.176717 203.738719 
L 350.193296 189.471743 
L 351.209874 232.732188 
L 352.226453 230.406205 
L 353.243032 171.824217 
L 354.25961 198.26969 
L 355.276189 91.610071 
L 356.292767 217.515199 
L 357.309346 148.6186 
L 358.325925 169.336887 
L 359.342503 192.648349 
L 360.359082 154.709784 
L 361.37566 210.183576 
L 362.392239 182.936531 
L 363.408818 166.356479 
L 364.425396 189.377516 
L 365.441975 154.193472 
L 366.458553 162.118853 
L 367.475132 160.202047 
L 368.491711 165.481331 
L 369.508289 178.888649 
L 370.524868 171.301452 
L 371.541447 158.108404 
L 372.558025 224.487985 
L 373.574604 84.339115 
L 374.591182 171.639636 
L 375.607761 185.645875 
L 376.62434 242.447879 
L 377.640918 192.413427 
L 378.657497 214.161756 
L 379.674075 171.758388 
L 380.690654 186.726257 
L 381.707233 171.058786 
L 383.74039 207.62009 
L 384.756968 152.188893 
L 385.773547 188.418467 
L 386.790126 205.567752 
L 387.806704 178.340068 
L 388.823283 200.177461 
L 389.839862 208.541706 
L 390.85644 209.263251 
L 391.873019 176.385829 
L 392.889597 183.885253 
L 393.906176 169.564064 
L 394.922755 180.11747 
L 395.939333 230.380389 
L 396.955912 88.079792 
L 397.97249 166.853429 
L 398.989069 170.093283 
L 400.005648 214.165628 
L 401.022226 186.555874 
L 402.038805 144.393881 
L 403.055383 200.007078 
L 404.071962 177.377147 
L 405.088541 186.927618 
L 406.105119 167.430407 
L 407.121698 167.897669 
L 408.138277 119.377301 
L 409.154855 169.366575 
L 410.171434 135.197083 
L 411.188012 212.62573 
L 412.204591 211.784142 
L 413.22117 216.05791 
L 414.237748 243.403055 
L 415.254327 222.646044 
L 416.270905 225.918168 
L 417.287484 159.640558 
L 418.304063 177.528168 
L 419.320641 228.103456 
L 420.33722 198.083818 
L 421.353799 147.509821 
L 422.370377 224.685474 
L 423.386956 184.373167 
L 424.403534 169.365284 
L 425.420113 172.478642 
L 426.436692 121.035951 
L 427.45327 99.312147 
L 428.469849 168.450122 
L 429.486427 132.560023 
L 430.503006 163.079192 
L 431.519585 209.356187 
L 432.536163 164.886282 
L 433.552742 130.152721 
L 435.585899 207.911806 
L 437.619056 181.073937 
L 438.635635 237.647473 
L 439.652214 184.184713 
L 440.668792 184.597763 
L 441.685371 178.485926 
L 442.701949 198.250328 
L 443.718528 173.584839 
L 444.735107 109.100121 
L 445.751685 166.795344 
L 446.768264 199.209377 
L 447.784842 148.670231 
L 448.801421 187.814383 
L 449.818 146.509467 
L 450.834578 167.391684 
L 451.851157 159.337225 
L 452.867735 218.219964 
L 453.884314 212.943261 
L 454.900893 172.265664 
L 455.917471 169.899667 
L 456.93405 161.741946 
L 457.950629 195.013055 
L 458.967207 168.792178 
L 459.983786 222.298824 
L 461.000364 178.174848 
L 462.016943 167.443315 
L 463.033522 180.192335 
L 464.0501 176.770481 
L 465.066679 127.518241 
L 466.083257 114.856994 
L 467.099836 173.942385 
L 468.116415 173.338301 
L 469.132993 162.268583 
L 470.149572 209.451705 
L 471.16615 177.988976 
L 472.182729 180.442746 
L 473.199308 172.003636 
L 474.215886 210.9361 
L 475.232465 209.223237 
L 476.249044 198.039931 
L 477.265622 167.914449 
L 478.282201 179.779286 
L 479.298779 186.683661 
L 480.315358 178.618876 
L 481.331937 182.426673 
L 482.348515 194.157269 
L 483.365094 171.656416 
L 484.381672 216.509682 
L 485.398251 174.950483 
L 486.41483 186.536512 
L 487.431408 161.723875 
L 488.447987 236.49868 
L 489.464565 160.318217 
L 490.481144 119.092039 
L 491.497723 149.318202 
L 492.514301 228.316434 
L 493.53088 150.454087 
L 494.547459 204.101428 
L 495.564037 192.142364 
L 496.580616 238.482607 
L 497.597194 190.64377 
L 498.613773 191.533116 
L 499.630352 182.00717 
L 500.64693 215.75974 
L 501.663509 218.86019 
L 502.680087 96.516321 
L 503.696666 177.578509 
L 504.713245 176.952481 
L 505.729823 163.059831 
L 506.746402 197.927633 
L 507.762981 146.46429 
L 508.779559 145.118008 
L 509.796138 217.219611 
L 510.812716 178.639529 
L 511.829295 131.882364 
L 512.845874 212.864524 
L 513.862452 218.612361 
L 514.879031 185.472911 
L 515.895609 211.013547 
L 516.912188 146.255184 
L 517.928767 184.757819 
L 518.945345 158.455623 
L 519.961924 180.291725 
L 520.978502 157.484958 
L 521.995081 197.936669 
L 523.01166 131.01367 
L 524.028238 163.911745 
L 525.044817 181.138476 
L 526.061396 161.325024 
L 527.077974 170.706403 
L 528.094553 148.986471 
L 529.111131 177.484282 
L 530.12771 146.626928 
L 531.144289 173.637761 
L 532.160867 156.236775 
L 533.177446 169.029682 
L 534.194024 120.347966 
L 535.210603 150.550895 
L 536.227182 176.318709 
L 537.24376 135.575282 
L 538.260339 194.966587 
L 539.276917 165.243828 
L 540.293496 154.028253 
L 541.310075 178.039317 
L 542.326653 185.120528 
L 543.343232 173.907534 
L 544.359811 141.516736 
L 545.376389 163.490951 
L 546.392968 171.159466 
L 547.409546 232.071309 
L 548.426125 174.63037 
L 549.442704 166.983798 
L 550.459282 139.672213 
L 551.475861 188.351347 
L 552.492439 186.462938 
L 553.509018 153.613913 
L 554.525597 129.160112 
L 555.542175 229.986702 
L 556.558754 154.633628 
L 557.575332 210.120328 
L 558.591911 207.102488 
L 559.60849 153.437076 
L 560.625068 168.373966 
L 561.641647 185.700088 
L 562.658226 227.399982 
L 563.674804 197.337748 
L 564.691383 132.97049 
L 565.707961 146.020262 
L 566.72454 195.431268 
L 567.741119 204.40347 
L 568.757697 210.332016 
L 569.774276 197.957321 
L 570.790854 151.273731 
L 571.807433 216.921441 
L 572.824012 222.044541 
L 573.84059 198.232257 
L 574.857169 77.064287 
L 575.873747 182.674503 
L 576.890326 213.209161 
L 577.906905 182.154319 
L 578.923483 189.395587 
L 579.940062 163.791702 
L 580.956641 225.365714 
L 581.973219 167.5014 
L 582.989798 182.563496 
L 584.006376 166.471359 
L 585.022955 217.655894 
L 586.039534 181.461171 
L 587.056112 154.606522 
L 588.072691 227.501953 
L 589.089269 202.278848 
L 590.105848 203.338577 
L 591.122427 164.324794 
L 592.139005 200.504028 
L 593.155584 209.416854 
L 594.172163 150.131392 
L 595.188741 238.889202 
L 596.20532 133.329327 
L 597.221898 198.70081 
L 598.238477 200.638269 
L 599.255056 198.348427 
L 600.271634 146.617893 
L 601.288213 179.42045 
L 602.304791 105.262637 
L 603.32137 183.538033 
L 604.337949 192.916831 
L 605.354527 205.1831 
L 606.371106 223.466979 
L 607.387684 182.95202 
L 608.404263 148.506302 
L 609.420842 212.686396 
L 610.43742 207.129594 
L 611.453999 193.225327 
L 612.470578 198.209023 
L 613.487156 229.827936 
L 614.503735 201.514707 
L 615.520313 102.724966 
L 616.536892 226.449968 
L 617.553471 137.703776 
L 618.570049 156.333583 
L 619.586628 118.071033 
L 620.603206 138.464044 
L 621.619785 170.940034 
L 622.636364 170.499879 
L 622.636364 170.499879 
" clip-path="url(#p7ecbf1fe7b)" style="fill: none; stroke: #1f77b4; stroke-width: 1.5; stroke-linecap: square"/>
   </g>
   <g id="line2d_24">
    <path d="M 115.363636 295.307845 
L 116.380215 295.892567 
L 117.396794 294.466257 
L 118.413372 289.938206 
L 119.429951 289.476107 
L 120.446529 292.536543 
L 121.463108 292.935393 
L 122.479687 292.956046 
L 123.496265 295.442086 
L 124.512844 292.39843 
L 126.546001 287.672889 
L 127.56258 291.334828 
L 128.579158 298.91428 
L 129.595737 298.452181 
L 130.612316 290.242829 
L 131.628894 290.578432 
L 132.645473 297.259502 
L 133.662051 291.90148 
L 134.67863 291.048275 
L 135.695209 290.041468 
L 136.711787 291.115396 
L 137.728366 291.975054 
L 138.744944 294.333307 
L 139.761523 296.402425 
L 140.778102 293.727932 
L 141.79468 288.43703 
L 142.811259 299.7094 
L 143.827837 299.190507 
L 144.844416 284.036766 
L 145.860995 293.851846 
L 146.877573 291.152828 
L 147.894152 286.158806 
L 148.910731 295.475646 
L 149.927309 289.837525 
L 150.943888 285.740593 
L 151.960466 286.485373 
L 152.977045 286.872606 
L 153.993624 291.882118 
L 155.010202 300.563895 
L 156.026781 293.255507 
L 157.043359 284.444652 
L 159.076517 297.183346 
L 160.093095 289.903354 
L 161.109674 301.795298 
L 162.126253 295.566 
L 163.142831 287.108819 
L 164.15941 296.960041 
L 165.175988 299.244719 
L 166.192567 294.911576 
L 167.209146 297.282736 
L 168.225724 295.127136 
L 169.242303 278.837509 
L 170.258881 297.664806 
L 171.27546 290.218304 
L 172.292039 291.621381 
L 173.308617 292.74694 
L 174.325196 289.629709 
L 175.341774 291.9686 
L 176.358353 299.606137 
L 177.374932 297.003928 
L 178.39151 296.435985 
L 179.408089 296.506978 
L 180.424668 304.829918 
L 181.441246 287.884577 
L 182.457825 297.391161 
L 183.474403 290.621027 
L 184.490982 295.500171 
L 185.507561 298.170792 
L 186.524139 288.353129 
L 187.540718 306.560853 
L 188.557296 290.115042 
L 189.573875 290.770758 
L 190.590454 288.384108 
L 191.607032 286.615741 
L 192.623611 300.112123 
L 193.640189 299.668095 
L 194.656768 285.655402 
L 195.673347 289.437383 
L 196.689925 299.176308 
L 197.706504 281.42423 
L 198.723083 296.371446 
L 199.739661 299.247301 
L 200.75624 286.26465 
L 201.772818 288.462846 
L 202.789397 298.108834 
L 203.805976 298.8975 
L 204.822554 286.238834 
L 205.839133 296.028099 
L 206.855711 280.848542 
L 207.87229 285.421771 
L 208.888869 291.98538 
L 209.905447 295.594397 
L 210.922026 289.871085 
L 211.938604 296.992311 
L 212.955183 289.810418 
L 213.971762 289.486433 
L 214.98834 296.663162 
L 216.004919 290.269936 
L 217.021498 291.853721 
L 218.038076 294.197775 
L 219.054655 295.147788 
L 220.071233 286.223345 
L 221.087812 296.960041 
L 222.104391 290.574559 
L 223.120969 287.962023 
L 224.137548 289.267001 
L 225.154126 293.813123 
L 226.170705 299.815243 
L 227.187284 295.679589 
L 228.203862 282.229676 
L 229.220441 298.315359 
L 230.237019 297.910054 
L 231.253598 295.737674 
L 232.270177 288.60354 
L 233.286755 295.671844 
L 234.303334 300.843994 
L 235.319913 291.989253 
L 236.336491 290.32673 
L 237.35307 291.632998 
L 238.369648 287.108819 
L 239.386227 307.8 
L 240.402806 283.471405 
L 241.419384 294.33847 
L 242.435963 295.318171 
L 243.452541 291.146374 
L 244.46912 290.418375 
L 245.485699 298.490905 
L 246.502277 291.807253 
L 247.518856 289.473525 
L 248.535435 300.137938 
L 249.552013 296.130071 
L 250.568592 286.019402 
L 251.58517 301.010504 
L 252.601749 287.292109 
L 253.618328 289.128887 
L 254.634906 295.749291 
L 255.651485 293.152244 
L 256.668063 295.097448 
L 257.684642 293.684045 
L 258.701221 290.650715 
L 259.717799 302.257397 
L 260.734378 294.9361 
L 261.750956 289.297979 
L 262.767535 290.346092 
L 263.784114 298.36699 
L 264.800692 294.792824 
L 265.817271 290.439028 
L 266.83385 290.500985 
L 267.850428 296.84129 
L 268.867007 287.099783 
L 269.883585 284.535006 
L 270.900164 294.484328 
L 271.916743 284.35817 
L 272.933321 296.732864 
L 273.9499 297.194963 
L 275.983057 294.494654 
L 276.999636 288.9172 
L 278.016214 293.672428 
L 279.032793 292.209976 
L 280.049371 301.803043 
L 281.06595 292.102841 
L 282.082529 299.895272 
L 283.099107 301.988915 
L 284.115686 299.138875 
L 285.132265 291.177353 
L 286.148843 294.556611 
L 287.165422 294.892214 
L 288.182 292.966372 
L 289.198579 297.307261 
L 290.215158 290.719127 
L 291.231736 287.186266 
L 292.248315 290.188617 
L 293.264893 296.372737 
L 294.281472 292.05121 
L 295.298051 294.946427 
L 296.314629 288.195654 
L 297.331208 296.469545 
L 298.347786 294.019647 
L 299.364365 295.617631 
L 300.380944 281.284826 
L 301.397522 299.853967 
L 302.414101 303.708232 
L 303.43068 292.650131 
L 304.447258 288.262775 
L 305.463837 288.074321 
L 306.480415 283.625007 
L 307.496994 287.852307 
L 308.513573 299.480932 
L 309.530151 290.8069 
L 310.54673 291.432927 
L 311.563308 286.984904 
L 312.579887 294.164215 
L 313.596466 290.759141 
L 314.613044 302.691098 
L 315.629623 300.065655 
L 316.646201 284.331063 
L 317.66278 293.023166 
L 318.679359 294.832838 
L 319.695937 296.12878 
L 320.712516 289.104363 
L 321.729095 297.685459 
L 322.745673 301.98117 
L 323.762252 291.621381 
L 324.77883 285.98326 
L 325.795409 283.31393 
L 326.811988 291.333537 
L 327.828566 301.675255 
L 328.845145 297.482807 
L 329.861723 290.766885 
L 330.878302 302.303865 
L 331.894881 297.176892 
L 332.911459 278.565155 
L 333.928038 295.056143 
L 334.944617 292.555905 
L 335.961195 296.043588 
L 336.977774 295.509206 
L 337.994352 289.504504 
L 339.010931 295.121972 
L 340.02751 294.969661 
L 341.044088 285.514707 
L 342.060667 301.485511 
L 343.077245 281.429393 
L 344.093824 301.033738 
L 345.110403 285.882579 
L 346.126981 288.781668 
L 347.14356 303.493963 
L 348.160138 291.896317 
L 349.176717 285.412736 
L 350.193296 292.639805 
L 351.209874 295.620213 
L 352.226453 296.408879 
L 353.243032 290.347382 
L 354.25961 289.707156 
L 355.276189 299.465442 
L 356.292767 290.082773 
L 357.309346 298.01977 
L 358.325925 295.875787 
L 359.342503 288.318278 
L 360.359082 286.040054 
L 361.37566 284.26007 
L 362.392239 300.215385 
L 363.408818 292.743067 
L 364.425396 291.67043 
L 365.441975 295.045816 
L 366.458553 299.269244 
L 367.475132 286.340806 
L 368.491711 297.437629 
L 369.508289 283.825078 
L 370.524868 294.071279 
L 371.541447 292.932812 
L 372.558025 285.665728 
L 373.574604 299.727471 
L 374.591182 284.196822 
L 375.607761 300.131484 
L 376.62434 292.323564 
L 377.640918 296.166212 
L 378.657497 289.758787 
L 379.674075 284.333645 
L 380.690654 289.958858 
L 381.707233 301.298348 
L 382.723811 291.306431 
L 383.74039 293.789889 
L 384.756968 297.6377 
L 385.773547 290.271226 
L 386.790126 295.520823 
L 387.806704 294.097094 
L 388.823283 291.745296 
L 389.839862 289.991127 
L 390.85644 297.73709 
L 391.873019 287.884577 
L 392.889597 296.517304 
L 393.906176 292.377777 
L 394.922755 299.397031 
L 396.955912 286.254323 
L 397.97249 289.465781 
L 398.989069 286.667372 
L 400.005648 290.889509 
L 401.022226 296.739318 
L 402.038805 288.624193 
L 403.055383 285.097786 
L 404.071962 288.853951 
L 405.088541 294.523051 
L 406.105119 291.414856 
L 407.121698 285.252679 
L 408.138277 295.664099 
L 409.154855 285.044864 
L 410.171434 283.636624 
L 411.188012 292.624316 
L 412.204591 293.544641 
L 413.22117 287.910392 
L 414.237748 288.8191 
L 415.254327 296.177829 
L 416.270905 302.001822 
L 417.287484 286.256905 
L 418.304063 295.036781 
L 419.320641 292.376486 
L 420.33722 300.822051 
L 421.353799 295.204582 
L 422.370377 294.099676 
L 423.386956 290.650715 
L 424.403534 297.481516 
L 425.420113 289.79622 
L 426.436692 291.190261 
L 427.45327 291.400658 
L 428.469849 284.899006 
L 429.486427 296.895502 
L 430.503006 285.504381 
L 431.519585 286.934564 
L 432.536163 296.998765 
L 433.552742 297.313715 
L 434.56932 290.37707 
L 435.585899 294.146144 
L 437.619056 293.689208 
L 438.635635 283.825078 
L 439.652214 298.501231 
L 440.668792 296.171375 
L 441.685371 286.743528 
L 442.701949 286.935854 
L 443.718528 299.536435 
L 444.735107 283.814752 
L 445.751685 295.737674 
L 446.768264 289.308306 
L 447.784842 292.364869 
L 448.801421 294.08935 
L 449.818 289.583241 
L 450.834578 291.333537 
L 451.851157 289.510958 
L 452.867735 287.936208 
L 453.884314 296.035844 
L 454.900893 299.035613 
L 455.917471 294.746356 
L 456.93405 293.372967 
L 457.950629 285.910976 
L 458.967207 303.585608 
L 459.983786 292.811479 
L 461.000364 290.945013 
L 462.016943 290.423538 
L 463.033522 290.760431 
L 464.0501 291.962146 
L 465.066679 289.48127 
L 466.083257 291.450998 
L 467.099836 286.273685 
L 468.116415 295.080668 
L 469.132993 287.517996 
L 470.149572 299.621627 
L 471.16615 287.281783 
L 472.182729 287.822619 
L 473.199308 294.133236 
L 474.215886 285.27075 
L 475.232465 290.49195 
L 476.249044 289.556135 
L 477.265622 292.047338 
L 478.282201 288.865568 
L 479.298779 292.572685 
L 480.315358 291.864047 
L 481.331937 287.545102 
L 482.348515 296.769006 
L 483.365094 292.047338 
L 484.381672 299.882364 
L 485.398251 289.473525 
L 486.41483 293.206457 
L 487.431408 294.353959 
L 488.447987 287.462492 
L 489.464565 297.931997 
L 490.481144 292.770174 
L 491.497723 281.012471 
L 492.514301 289.273455 
L 493.53088 290.95663 
L 494.547459 288.926235 
L 495.564037 302.518134 
L 496.580616 285.872253 
L 497.597194 304.400089 
L 498.613773 293.077379 
L 499.630352 290.124078 
L 500.64693 294.157761 
L 501.663509 295.911929 
L 502.680087 289.184391 
L 503.696666 281.033124 
L 504.713245 295.102611 
L 505.729823 283.959319 
L 506.746402 293.926711 
L 507.762981 297.136878 
L 508.779559 292.684982 
L 509.796138 290.488077 
L 510.812716 301.588773 
L 511.829295 295.553092 
L 512.845874 285.030665 
L 514.879031 300.370278 
L 515.895609 285.696707 
L 516.912188 294.081605 
L 518.945345 296.949715 
L 519.961924 286.41438 
L 520.978502 295.748 
L 521.995081 288.748108 
L 523.01166 292.784372 
L 524.028238 284.853829 
L 525.044817 293.234854 
L 526.061396 295.493717 
L 527.077974 291.611055 
L 528.094553 296.572808 
L 529.111131 281.20867 
L 530.12771 298.397969 
L 531.144289 286.334352 
L 532.160867 290.903708 
L 533.177446 283.273916 
L 534.194024 290.488077 
L 535.210603 291.875664 
L 536.227182 300.248945 
L 537.24376 287.119145 
L 538.260339 297.059431 
L 539.276917 301.014377 
L 540.293496 293.353606 
L 541.310075 289.976929 
L 542.326653 283.693419 
L 543.343232 300.889171 
L 544.359811 294.788952 
L 545.376389 290.402886 
L 546.392968 299.320875 
L 548.426125 300.705881 
L 549.442704 294.32169 
L 550.459282 295.056143 
L 551.475861 285.487601 
L 552.492439 291.065055 
L 553.509018 299.646151 
L 554.525597 288.567399 
L 555.542175 293.689208 
L 556.558754 299.837187 
L 557.575332 291.762076 
L 558.591911 302.465212 
L 559.60849 291.374842 
L 560.625068 288.51964 
L 561.641647 291.250927 
L 562.658226 292.985734 
L 563.674804 295.58149 
L 564.691383 290.681694 
L 565.707961 282.520101 
L 566.72454 297.400197 
L 567.741119 295.778979 
L 568.757697 291.722062 
L 569.774276 291.920841 
L 570.790854 295.617631 
L 571.807433 286.645429 
L 572.824012 289.402532 
L 573.84059 304.107082 
L 574.857169 299.000762 
L 575.873747 292.617862 
L 576.890326 290.557779 
L 577.906905 293.828612 
L 578.923483 300.363824 
L 579.940062 288.763597 
L 580.956641 288.580306 
L 581.973219 289.510958 
L 582.989798 296.539247 
L 584.006376 292.360997 
L 585.022955 295.154242 
L 586.039534 299.128549 
L 587.056112 295.742837 
L 588.072691 286.882933 
L 589.089269 296.704467 
L 590.105848 297.744835 
L 591.122427 286.228508 
L 592.139005 298.645798 
L 593.155584 291.23931 
L 594.172163 288.96754 
L 595.188741 293.366514 
L 596.20532 306.362073 
L 597.221898 293.885407 
L 598.238477 287.614804 
L 599.255056 293.414272 
L 600.271634 300.055328 
L 601.288213 288.184037 
L 602.304791 298.999471 
L 603.32137 284.003205 
L 604.337949 295.660227 
L 605.354527 297.580906 
L 606.371106 294.745065 
L 607.387684 298.16821 
L 608.404263 292.437153 
L 609.420842 294.075151 
L 610.43742 287.910392 
L 611.453999 287.294691 
L 612.470578 297.6377 
L 613.487156 297.265956 
L 614.503735 290.543581 
L 615.520313 293.136755 
L 616.536892 304.922854 
L 617.553471 299.57774 
L 618.570049 281.579123 
L 619.586628 300.7872 
L 620.603206 292.354543 
L 621.619785 289.01659 
L 622.636364 299.59323 
L 622.636364 299.59323 
" clip-path="url(#p7ecbf1fe7b)" style="fill: none; stroke: #ff7f0e; stroke-width: 1.5; stroke-linecap: square"/>
   </g>
   <g id="patch_3">
    <path d="M 90 320.4 
L 90 43.2 
" style="fill: none; stroke: #000000; stroke-width: 0.8; stroke-linejoin: miter; stroke-linecap: square"/>
   </g>
   <g id="patch_4">
    <path d="M 648 320.4 
L 648 43.2 
" style="fill: none; stroke: #000000; stroke-width: 0.8; stroke-linejoin: miter; stroke-linecap: square"/>
   </g>
   <g id="patch_5">
    <path d="M 90 320.4 
L 648 320.4 
" style="fill: none; stroke: #000000; stroke-width: 0.8; stroke-linejoin: miter; stroke-linecap: square"/>
   </g>
   <g id="patch_6">
    <path d="M 90 43.2 
L 648 43.2 
" style="fill: none; stroke: #000000; stroke-width: 0.8; stroke-linejoin: miter; stroke-linecap: square"/>
   </g>
   <g id="text_14">
    <!-- model train and validation loss over time -->
    <g transform="translate(245.555625 37.2) scale(0.12 -0.12)">
     <defs>
      <path id="DejaVuSans-6d" d="M 3328 2828 
Q 3544 3216 3844 3400 
Q 4144 3584 4550 3584 
Q 5097 3584 5394 3201 
Q 5691 2819 5691 2113 
L 5691 0 
L 5113 0 
L 5113 2094 
Q 5113 2597 4934 2840 
Q 4756 3084 4391 3084 
Q 3944 3084 3684 2787 
Q 3425 2491 3425 1978 
L 3425 0 
L 2847 0 
L 2847 2094 
Q 2847 2600 2669 2842 
Q 2491 3084 2119 3084 
Q 1678 3084 1418 2786 
Q 1159 2488 1159 1978 
L 1159 0 
L 581 0 
L 581 3500 
L 1159 3500 
L 1159 2956 
Q 1356 3278 1631 3431 
Q 1906 3584 2284 3584 
Q 2666 3584 2933 3390 
Q 3200 3197 3328 2828 
z
" transform="scale(0.015625)"/>
      <path id="DejaVuSans-64" d="M 2906 2969 
L 2906 4863 
L 3481 4863 
L 3481 0 
L 2906 0 
L 2906 525 
Q 2725 213 2448 61 
Q 2172 -91 1784 -91 
Q 1150 -91 751 415 
Q 353 922 353 1747 
Q 353 2572 751 3078 
Q 1150 3584 1784 3584 
Q 2172 3584 2448 3432 
Q 2725 3281 2906 2969 
z
M 947 1747 
Q 947 1113 1208 752 
Q 1469 391 1925 391 
Q 2381 391 2643 752 
Q 2906 1113 2906 1747 
Q 2906 2381 2643 2742 
Q 2381 3103 1925 3103 
Q 1469 3103 1208 2742 
Q 947 2381 947 1747 
z
" transform="scale(0.015625)"/>
      <path id="DejaVuSans-20" transform="scale(0.015625)"/>
      <path id="DejaVuSans-74" d="M 1172 4494 
L 1172 3500 
L 2356 3500 
L 2356 3053 
L 1172 3053 
L 1172 1153 
Q 1172 725 1289 603 
Q 1406 481 1766 481 
L 2356 481 
L 2356 0 
L 1766 0 
Q 1100 0 847 248 
Q 594 497 594 1153 
L 594 3053 
L 172 3053 
L 172 3500 
L 594 3500 
L 594 4494 
L 1172 4494 
z
" transform="scale(0.015625)"/>
      <path id="DejaVuSans-72" d="M 2631 2963 
Q 2534 3019 2420 3045 
Q 2306 3072 2169 3072 
Q 1681 3072 1420 2755 
Q 1159 2438 1159 1844 
L 1159 0 
L 581 0 
L 581 3500 
L 1159 3500 
L 1159 2956 
Q 1341 3275 1631 3429 
Q 1922 3584 2338 3584 
Q 2397 3584 2469 3576 
Q 2541 3569 2628 3553 
L 2631 2963 
z
" transform="scale(0.015625)"/>
      <path id="DejaVuSans-61" d="M 2194 1759 
Q 1497 1759 1228 1600 
Q 959 1441 959 1056 
Q 959 750 1161 570 
Q 1363 391 1709 391 
Q 2188 391 2477 730 
Q 2766 1069 2766 1631 
L 2766 1759 
L 2194 1759 
z
M 3341 1997 
L 3341 0 
L 2766 0 
L 2766 531 
Q 2569 213 2275 61 
Q 1981 -91 1556 -91 
Q 1019 -91 701 211 
Q 384 513 384 1019 
Q 384 1609 779 1909 
Q 1175 2209 1959 2209 
L 2766 2209 
L 2766 2266 
Q 2766 2663 2505 2880 
Q 2244 3097 1772 3097 
Q 1472 3097 1187 3025 
Q 903 2953 641 2809 
L 641 3341 
Q 956 3463 1253 3523 
Q 1550 3584 1831 3584 
Q 2591 3584 2966 3190 
Q 3341 2797 3341 1997 
z
" transform="scale(0.015625)"/>
      <path id="DejaVuSans-69" d="M 603 3500 
L 1178 3500 
L 1178 0 
L 603 0 
L 603 3500 
z
M 603 4863 
L 1178 4863 
L 1178 4134 
L 603 4134 
L 603 4863 
z
" transform="scale(0.015625)"/>
      <path id="DejaVuSans-6e" d="M 3513 2113 
L 3513 0 
L 2938 0 
L 2938 2094 
Q 2938 2591 2744 2837 
Q 2550 3084 2163 3084 
Q 1697 3084 1428 2787 
Q 1159 2491 1159 1978 
L 1159 0 
L 581 0 
L 581 3500 
L 1159 3500 
L 1159 2956 
Q 1366 3272 1645 3428 
Q 1925 3584 2291 3584 
Q 2894 3584 3203 3211 
Q 3513 2838 3513 2113 
z
" transform="scale(0.015625)"/>
      <path id="DejaVuSans-76" d="M 191 3500 
L 800 3500 
L 1894 563 
L 2988 3500 
L 3597 3500 
L 2284 0 
L 1503 0 
L 191 3500 
z
" transform="scale(0.015625)"/>
     </defs>
     <use xlink:href="#DejaVuSans-6d"/>
     <use xlink:href="#DejaVuSans-6f" x="97.412109"/>
     <use xlink:href="#DejaVuSans-64" x="158.59375"/>
     <use xlink:href="#DejaVuSans-65" x="222.070312"/>
     <use xlink:href="#DejaVuSans-6c" x="283.59375"/>
     <use xlink:href="#DejaVuSans-20" x="311.376953"/>
     <use xlink:href="#DejaVuSans-74" x="343.164062"/>
     <use xlink:href="#DejaVuSans-72" x="382.373047"/>
     <use xlink:href="#DejaVuSans-61" x="423.486328"/>
     <use xlink:href="#DejaVuSans-69" x="484.765625"/>
     <use xlink:href="#DejaVuSans-6e" x="512.548828"/>
     <use xlink:href="#DejaVuSans-20" x="575.927734"/>
     <use xlink:href="#DejaVuSans-61" x="607.714844"/>
     <use xlink:href="#DejaVuSans-6e" x="668.994141"/>
     <use xlink:href="#DejaVuSans-64" x="732.373047"/>
     <use xlink:href="#DejaVuSans-20" x="795.849609"/>
     <use xlink:href="#DejaVuSans-76" x="827.636719"/>
     <use xlink:href="#DejaVuSans-61" x="886.816406"/>
     <use xlink:href="#DejaVuSans-6c" x="948.095703"/>
     <use xlink:href="#DejaVuSans-69" x="975.878906"/>
     <use xlink:href="#DejaVuSans-64" x="1003.662109"/>
     <use xlink:href="#DejaVuSans-61" x="1067.138672"/>
     <use xlink:href="#DejaVuSans-74" x="1128.417969"/>
     <use xlink:href="#DejaVuSans-69" x="1167.626953"/>
     <use xlink:href="#DejaVuSans-6f" x="1195.410156"/>
     <use xlink:href="#DejaVuSans-6e" x="1256.591797"/>
     <use xlink:href="#DejaVuSans-20" x="1319.970703"/>
     <use xlink:href="#DejaVuSans-6c" x="1351.757812"/>
     <use xlink:href="#DejaVuSans-6f" x="1379.541016"/>
     <use xlink:href="#DejaVuSans-73" x="1440.722656"/>
     <use xlink:href="#DejaVuSans-73" x="1492.822266"/>
     <use xlink:href="#DejaVuSans-20" x="1544.921875"/>
     <use xlink:href="#DejaVuSans-6f" x="1576.708984"/>
     <use xlink:href="#DejaVuSans-76" x="1637.890625"/>
     <use xlink:href="#DejaVuSans-65" x="1697.070312"/>
     <use xlink:href="#DejaVuSans-72" x="1758.59375"/>
     <use xlink:href="#DejaVuSans-20" x="1799.707031"/>
     <use xlink:href="#DejaVuSans-74" x="1831.494141"/>
     <use xlink:href="#DejaVuSans-69" x="1870.703125"/>
     <use xlink:href="#DejaVuSans-6d" x="1898.486328"/>
     <use xlink:href="#DejaVuSans-65" x="1995.898438"/>
    </g>
   </g>
   <g id="legend_1">
    <g id="patch_7">
     <path d="M 97 80.55625 
L 178.234375 80.55625 
Q 180.234375 80.55625 180.234375 78.55625 
L 180.234375 50.2 
Q 180.234375 48.2 178.234375 48.2 
L 97 48.2 
Q 95 48.2 95 50.2 
L 95 78.55625 
Q 95 80.55625 97 80.55625 
z
" style="fill: #ffffff; opacity: 0.8; stroke: #cccccc; stroke-linejoin: miter"/>
    </g>
    <g id="line2d_25">
     <path d="M 99 56.298437 
L 109 56.298437 
L 119 56.298437 
" style="fill: none; stroke: #1f77b4; stroke-width: 1.5; stroke-linecap: square"/>
    </g>
    <g id="text_15">
     <!-- train -->
     <g transform="translate(127 59.798437) scale(0.1 -0.1)">
      <use xlink:href="#DejaVuSans-74"/>
      <use xlink:href="#DejaVuSans-72" x="39.208984"/>
      <use xlink:href="#DejaVuSans-61" x="80.322266"/>
      <use xlink:href="#DejaVuSans-69" x="141.601562"/>
      <use xlink:href="#DejaVuSans-6e" x="169.384766"/>
     </g>
    </g>
    <g id="line2d_26">
     <path d="M 99 70.976562 
L 109 70.976562 
L 119 70.976562 
" style="fill: none; stroke: #ff7f0e; stroke-width: 1.5; stroke-linecap: square"/>
    </g>
    <g id="text_16">
     <!-- validation -->
     <g transform="translate(127 74.476562) scale(0.1 -0.1)">
      <use xlink:href="#DejaVuSans-76"/>
      <use xlink:href="#DejaVuSans-61" x="59.179688"/>
      <use xlink:href="#DejaVuSans-6c" x="120.458984"/>
      <use xlink:href="#DejaVuSans-69" x="148.242188"/>
      <use xlink:href="#DejaVuSans-64" x="176.025391"/>
      <use xlink:href="#DejaVuSans-61" x="239.501953"/>
      <use xlink:href="#DejaVuSans-74" x="300.78125"/>
      <use xlink:href="#DejaVuSans-69" x="339.990234"/>
      <use xlink:href="#DejaVuSans-6f" x="367.773438"/>
      <use xlink:href="#DejaVuSans-6e" x="428.955078"/>
     </g>
    </g>
   </g>
  </g>
 </g>
 <defs>
  <clipPath id="p7ecbf1fe7b">
   <rect x="90" y="43.2" width="558" height="277.2"/>
  </clipPath>
 </defs>
</svg>
