<?xml version="1.0" encoding="utf-8" standalone="no"?>
<!DOCTYPE svg PUBLIC "-//W3C//DTD SVG 1.1//EN"
  "http://www.w3.org/Graphics/SVG/1.1/DTD/svg11.dtd">
<svg xmlns:xlink="http://www.w3.org/1999/xlink" width="720pt" height="360pt" viewBox="0 0 720 360" xmlns="http://www.w3.org/2000/svg" version="1.1">
 <metadata>
  <rdf:RDF xmlns:dc="http://purl.org/dc/elements/1.1/" xmlns:cc="http://creativecommons.org/ns#" xmlns:rdf="http://www.w3.org/1999/02/22-rdf-syntax-ns#">
   <cc:Work>
    <dc:type rdf:resource="http://purl.org/dc/dcmitype/StillImage"/>
    <dc:date>2023-05-24T11:27:23.458101</dc:date>
    <dc:format>image/svg+xml</dc:format>
    <dc:creator>
     <cc:Agent>
      <dc:title>Matplotlib v3.7.1, https://matplotlib.org/</dc:title>
     </cc:Agent>
    </dc:creator>
   </cc:Work>
  </rdf:RDF>
 </metadata>
 <defs>
  <style type="text/css">*{stroke-linejoin: round; stroke-linecap: butt}</style>
 </defs>
 <g id="figure_1">
  <g id="patch_1">
   <path d="M 0 360 
L 720 360 
L 720 0 
L 0 0 
z
" style="fill: #ffffff"/>
  </g>
  <g id="axes_1">
   <g id="patch_2">
    <path d="M 90 320.4 
L 648 320.4 
L 648 43.2 
L 90 43.2 
z
" style="fill: #ffffff"/>
   </g>
   <g id="matplotlib.axis_1">
    <g id="xtick_1">
     <g id="line2d_1">
      <path d="M 115.363636 320.4 
L 115.363636 43.2 
" clip-path="url(#p0453c5fcd9)" style="fill: none; stroke: #b0b0b0; stroke-width: 0.8; stroke-linecap: square"/>
     </g>
     <g id="line2d_2">
      <defs>
       <path id="ma75eca6267" d="M 0 0 
L 0 3.5 
" style="stroke: #000000; stroke-width: 0.8"/>
      </defs>
      <g>
       <use xlink:href="#ma75eca6267" x="115.363636" y="320.4" style="stroke: #000000; stroke-width: 0.8"/>
      </g>
     </g>
     <g id="text_1">
      <!-- 0 -->
      <g transform="translate(112.182386 334.998438) scale(0.1 -0.1)">
       <defs>
        <path id="DejaVuSans-30" d="M 2034 4250 
Q 1547 4250 1301 3770 
Q 1056 3291 1056 2328 
Q 1056 1369 1301 889 
Q 1547 409 2034 409 
Q 2525 409 2770 889 
Q 3016 1369 3016 2328 
Q 3016 3291 2770 3770 
Q 2525 4250 2034 4250 
z
M 2034 4750 
Q 2819 4750 3233 4129 
Q 3647 3509 3647 2328 
Q 3647 1150 3233 529 
Q 2819 -91 2034 -91 
Q 1250 -91 836 529 
Q 422 1150 422 2328 
Q 422 3509 836 4129 
Q 1250 4750 2034 4750 
z
" transform="scale(0.015625)"/>
       </defs>
       <use xlink:href="#DejaVuSans-30"/>
      </g>
     </g>
    </g>
    <g id="xtick_2">
     <g id="line2d_3">
      <path d="M 217.021498 320.4 
L 217.021498 43.2 
" clip-path="url(#p0453c5fcd9)" style="fill: none; stroke: #b0b0b0; stroke-width: 0.8; stroke-linecap: square"/>
     </g>
     <g id="line2d_4">
      <g>
       <use xlink:href="#ma75eca6267" x="217.021498" y="320.4" style="stroke: #000000; stroke-width: 0.8"/>
      </g>
     </g>
     <g id="text_2">
      <!-- 100 -->
      <g transform="translate(207.477748 334.998438) scale(0.1 -0.1)">
       <defs>
        <path id="DejaVuSans-31" d="M 794 531 
L 1825 531 
L 1825 4091 
L 703 3866 
L 703 4441 
L 1819 4666 
L 2450 4666 
L 2450 531 
L 3481 531 
L 3481 0 
L 794 0 
L 794 531 
z
" transform="scale(0.015625)"/>
       </defs>
       <use xlink:href="#DejaVuSans-31"/>
       <use xlink:href="#DejaVuSans-30" x="63.623047"/>
       <use xlink:href="#DejaVuSans-30" x="127.246094"/>
      </g>
     </g>
    </g>
    <g id="xtick_3">
     <g id="line2d_5">
      <path d="M 318.679359 320.4 
L 318.679359 43.2 
" clip-path="url(#p0453c5fcd9)" style="fill: none; stroke: #b0b0b0; stroke-width: 0.8; stroke-linecap: square"/>
     </g>
     <g id="line2d_6">
      <g>
       <use xlink:href="#ma75eca6267" x="318.679359" y="320.4" style="stroke: #000000; stroke-width: 0.8"/>
      </g>
     </g>
     <g id="text_3">
      <!-- 200 -->
      <g transform="translate(309.135609 334.998438) scale(0.1 -0.1)">
       <defs>
        <path id="DejaVuSans-32" d="M 1228 531 
L 3431 531 
L 3431 0 
L 469 0 
L 469 531 
Q 828 903 1448 1529 
Q 2069 2156 2228 2338 
Q 2531 2678 2651 2914 
Q 2772 3150 2772 3378 
Q 2772 3750 2511 3984 
Q 2250 4219 1831 4219 
Q 1534 4219 1204 4116 
Q 875 4013 500 3803 
L 500 4441 
Q 881 4594 1212 4672 
Q 1544 4750 1819 4750 
Q 2544 4750 2975 4387 
Q 3406 4025 3406 3419 
Q 3406 3131 3298 2873 
Q 3191 2616 2906 2266 
Q 2828 2175 2409 1742 
Q 1991 1309 1228 531 
z
" transform="scale(0.015625)"/>
       </defs>
       <use xlink:href="#DejaVuSans-32"/>
       <use xlink:href="#DejaVuSans-30" x="63.623047"/>
       <use xlink:href="#DejaVuSans-30" x="127.246094"/>
      </g>
     </g>
    </g>
    <g id="xtick_4">
     <g id="line2d_7">
      <path d="M 420.33722 320.4 
L 420.33722 43.2 
" clip-path="url(#p0453c5fcd9)" style="fill: none; stroke: #b0b0b0; stroke-width: 0.8; stroke-linecap: square"/>
     </g>
     <g id="line2d_8">
      <g>
       <use xlink:href="#ma75eca6267" x="420.33722" y="320.4" style="stroke: #000000; stroke-width: 0.8"/>
      </g>
     </g>
     <g id="text_4">
      <!-- 300 -->
      <g transform="translate(410.79347 334.998438) scale(0.1 -0.1)">
       <defs>
        <path id="DejaVuSans-33" d="M 2597 2516 
Q 3050 2419 3304 2112 
Q 3559 1806 3559 1356 
Q 3559 666 3084 287 
Q 2609 -91 1734 -91 
Q 1441 -91 1130 -33 
Q 819 25 488 141 
L 488 750 
Q 750 597 1062 519 
Q 1375 441 1716 441 
Q 2309 441 2620 675 
Q 2931 909 2931 1356 
Q 2931 1769 2642 2001 
Q 2353 2234 1838 2234 
L 1294 2234 
L 1294 2753 
L 1863 2753 
Q 2328 2753 2575 2939 
Q 2822 3125 2822 3475 
Q 2822 3834 2567 4026 
Q 2313 4219 1838 4219 
Q 1578 4219 1281 4162 
Q 984 4106 628 3988 
L 628 4550 
Q 988 4650 1302 4700 
Q 1616 4750 1894 4750 
Q 2613 4750 3031 4423 
Q 3450 4097 3450 3541 
Q 3450 3153 3228 2886 
Q 3006 2619 2597 2516 
z
" transform="scale(0.015625)"/>
       </defs>
       <use xlink:href="#DejaVuSans-33"/>
       <use xlink:href="#DejaVuSans-30" x="63.623047"/>
       <use xlink:href="#DejaVuSans-30" x="127.246094"/>
      </g>
     </g>
    </g>
    <g id="xtick_5">
     <g id="line2d_9">
      <path d="M 521.995081 320.4 
L 521.995081 43.2 
" clip-path="url(#p0453c5fcd9)" style="fill: none; stroke: #b0b0b0; stroke-width: 0.8; stroke-linecap: square"/>
     </g>
     <g id="line2d_10">
      <g>
       <use xlink:href="#ma75eca6267" x="521.995081" y="320.4" style="stroke: #000000; stroke-width: 0.8"/>
      </g>
     </g>
     <g id="text_5">
      <!-- 400 -->
      <g transform="translate(512.451331 334.998438) scale(0.1 -0.1)">
       <defs>
        <path id="DejaVuSans-34" d="M 2419 4116 
L 825 1625 
L 2419 1625 
L 2419 4116 
z
M 2253 4666 
L 3047 4666 
L 3047 1625 
L 3713 1625 
L 3713 1100 
L 3047 1100 
L 3047 0 
L 2419 0 
L 2419 1100 
L 313 1100 
L 313 1709 
L 2253 4666 
z
" transform="scale(0.015625)"/>
       </defs>
       <use xlink:href="#DejaVuSans-34"/>
       <use xlink:href="#DejaVuSans-30" x="63.623047"/>
       <use xlink:href="#DejaVuSans-30" x="127.246094"/>
      </g>
     </g>
    </g>
    <g id="xtick_6">
     <g id="line2d_11">
      <path d="M 623.652942 320.4 
L 623.652942 43.2 
" clip-path="url(#p0453c5fcd9)" style="fill: none; stroke: #b0b0b0; stroke-width: 0.8; stroke-linecap: square"/>
     </g>
     <g id="line2d_12">
      <g>
       <use xlink:href="#ma75eca6267" x="623.652942" y="320.4" style="stroke: #000000; stroke-width: 0.8"/>
      </g>
     </g>
     <g id="text_6">
      <!-- 500 -->
      <g transform="translate(614.109192 334.998438) scale(0.1 -0.1)">
       <defs>
        <path id="DejaVuSans-35" d="M 691 4666 
L 3169 4666 
L 3169 4134 
L 1269 4134 
L 1269 2991 
Q 1406 3038 1543 3061 
Q 1681 3084 1819 3084 
Q 2600 3084 3056 2656 
Q 3513 2228 3513 1497 
Q 3513 744 3044 326 
Q 2575 -91 1722 -91 
Q 1428 -91 1123 -41 
Q 819 9 494 109 
L 494 744 
Q 775 591 1075 516 
Q 1375 441 1709 441 
Q 2250 441 2565 725 
Q 2881 1009 2881 1497 
Q 2881 1984 2565 2268 
Q 2250 2553 1709 2553 
Q 1456 2553 1204 2497 
Q 953 2441 691 2322 
L 691 4666 
z
" transform="scale(0.015625)"/>
       </defs>
       <use xlink:href="#DejaVuSans-35"/>
       <use xlink:href="#DejaVuSans-30" x="63.623047"/>
       <use xlink:href="#DejaVuSans-30" x="127.246094"/>
      </g>
     </g>
    </g>
    <g id="text_7">
     <!-- epoch -->
     <g transform="translate(353.771875 348.676562) scale(0.1 -0.1)">
      <defs>
       <path id="DejaVuSans-65" d="M 3597 1894 
L 3597 1613 
L 953 1613 
Q 991 1019 1311 708 
Q 1631 397 2203 397 
Q 2534 397 2845 478 
Q 3156 559 3463 722 
L 3463 178 
Q 3153 47 2828 -22 
Q 2503 -91 2169 -91 
Q 1331 -91 842 396 
Q 353 884 353 1716 
Q 353 2575 817 3079 
Q 1281 3584 2069 3584 
Q 2775 3584 3186 3129 
Q 3597 2675 3597 1894 
z
M 3022 2063 
Q 3016 2534 2758 2815 
Q 2500 3097 2075 3097 
Q 1594 3097 1305 2825 
Q 1016 2553 972 2059 
L 3022 2063 
z
" transform="scale(0.015625)"/>
       <path id="DejaVuSans-70" d="M 1159 525 
L 1159 -1331 
L 581 -1331 
L 581 3500 
L 1159 3500 
L 1159 2969 
Q 1341 3281 1617 3432 
Q 1894 3584 2278 3584 
Q 2916 3584 3314 3078 
Q 3713 2572 3713 1747 
Q 3713 922 3314 415 
Q 2916 -91 2278 -91 
Q 1894 -91 1617 61 
Q 1341 213 1159 525 
z
M 3116 1747 
Q 3116 2381 2855 2742 
Q 2594 3103 2138 3103 
Q 1681 3103 1420 2742 
Q 1159 2381 1159 1747 
Q 1159 1113 1420 752 
Q 1681 391 2138 391 
Q 2594 391 2855 752 
Q 3116 1113 3116 1747 
z
" transform="scale(0.015625)"/>
       <path id="DejaVuSans-6f" d="M 1959 3097 
Q 1497 3097 1228 2736 
Q 959 2375 959 1747 
Q 959 1119 1226 758 
Q 1494 397 1959 397 
Q 2419 397 2687 759 
Q 2956 1122 2956 1747 
Q 2956 2369 2687 2733 
Q 2419 3097 1959 3097 
z
M 1959 3584 
Q 2709 3584 3137 3096 
Q 3566 2609 3566 1747 
Q 3566 888 3137 398 
Q 2709 -91 1959 -91 
Q 1206 -91 779 398 
Q 353 888 353 1747 
Q 353 2609 779 3096 
Q 1206 3584 1959 3584 
z
" transform="scale(0.015625)"/>
       <path id="DejaVuSans-63" d="M 3122 3366 
L 3122 2828 
Q 2878 2963 2633 3030 
Q 2388 3097 2138 3097 
Q 1578 3097 1268 2742 
Q 959 2388 959 1747 
Q 959 1106 1268 751 
Q 1578 397 2138 397 
Q 2388 397 2633 464 
Q 2878 531 3122 666 
L 3122 134 
Q 2881 22 2623 -34 
Q 2366 -91 2075 -91 
Q 1284 -91 818 406 
Q 353 903 353 1747 
Q 353 2603 823 3093 
Q 1294 3584 2113 3584 
Q 2378 3584 2631 3529 
Q 2884 3475 3122 3366 
z
" transform="scale(0.015625)"/>
       <path id="DejaVuSans-68" d="M 3513 2113 
L 3513 0 
L 2938 0 
L 2938 2094 
Q 2938 2591 2744 2837 
Q 2550 3084 2163 3084 
Q 1697 3084 1428 2787 
Q 1159 2491 1159 1978 
L 1159 0 
L 581 0 
L 581 4863 
L 1159 4863 
L 1159 2956 
Q 1366 3272 1645 3428 
Q 1925 3584 2291 3584 
Q 2894 3584 3203 3211 
Q 3513 2838 3513 2113 
z
" transform="scale(0.015625)"/>
      </defs>
      <use xlink:href="#DejaVuSans-65"/>
      <use xlink:href="#DejaVuSans-70" x="61.523438"/>
      <use xlink:href="#DejaVuSans-6f" x="125"/>
      <use xlink:href="#DejaVuSans-63" x="186.181641"/>
      <use xlink:href="#DejaVuSans-68" x="241.162109"/>
     </g>
    </g>
   </g>
   <g id="matplotlib.axis_2">
    <g id="ytick_1">
     <g id="line2d_13">
      <path d="M 90 314.133955 
L 648 314.133955 
" clip-path="url(#p0453c5fcd9)" style="fill: none; stroke: #b0b0b0; stroke-width: 0.8; stroke-linecap: square"/>
     </g>
     <g id="line2d_14">
      <defs>
       <path id="m8613938537" d="M 0 0 
L -3.5 0 
" style="stroke: #000000; stroke-width: 0.8"/>
      </defs>
      <g>
       <use xlink:href="#m8613938537" x="90" y="314.133955" style="stroke: #000000; stroke-width: 0.8"/>
      </g>
     </g>
     <g id="text_8">
      <!-- 1.375 -->
      <g transform="translate(54.371875 317.933174) scale(0.1 -0.1)">
       <defs>
        <path id="DejaVuSans-2e" d="M 684 794 
L 1344 794 
L 1344 0 
L 684 0 
L 684 794 
z
" transform="scale(0.015625)"/>
        <path id="DejaVuSans-37" d="M 525 4666 
L 3525 4666 
L 3525 4397 
L 1831 0 
L 1172 0 
L 2766 4134 
L 525 4134 
L 525 4666 
z
" transform="scale(0.015625)"/>
       </defs>
       <use xlink:href="#DejaVuSans-31"/>
       <use xlink:href="#DejaVuSans-2e" x="63.623047"/>
       <use xlink:href="#DejaVuSans-33" x="95.410156"/>
       <use xlink:href="#DejaVuSans-37" x="159.033203"/>
       <use xlink:href="#DejaVuSans-35" x="222.65625"/>
      </g>
     </g>
    </g>
    <g id="ytick_2">
     <g id="line2d_15">
      <path d="M 90 272.823845 
L 648 272.823845 
" clip-path="url(#p0453c5fcd9)" style="fill: none; stroke: #b0b0b0; stroke-width: 0.8; stroke-linecap: square"/>
     </g>
     <g id="line2d_16">
      <g>
       <use xlink:href="#m8613938537" x="90" y="272.823845" style="stroke: #000000; stroke-width: 0.8"/>
      </g>
     </g>
     <g id="text_9">
      <!-- 1.380 -->
      <g transform="translate(54.371875 276.623063) scale(0.1 -0.1)">
       <defs>
        <path id="DejaVuSans-38" d="M 2034 2216 
Q 1584 2216 1326 1975 
Q 1069 1734 1069 1313 
Q 1069 891 1326 650 
Q 1584 409 2034 409 
Q 2484 409 2743 651 
Q 3003 894 3003 1313 
Q 3003 1734 2745 1975 
Q 2488 2216 2034 2216 
z
M 1403 2484 
Q 997 2584 770 2862 
Q 544 3141 544 3541 
Q 544 4100 942 4425 
Q 1341 4750 2034 4750 
Q 2731 4750 3128 4425 
Q 3525 4100 3525 3541 
Q 3525 3141 3298 2862 
Q 3072 2584 2669 2484 
Q 3125 2378 3379 2068 
Q 3634 1759 3634 1313 
Q 3634 634 3220 271 
Q 2806 -91 2034 -91 
Q 1263 -91 848 271 
Q 434 634 434 1313 
Q 434 1759 690 2068 
Q 947 2378 1403 2484 
z
M 1172 3481 
Q 1172 3119 1398 2916 
Q 1625 2713 2034 2713 
Q 2441 2713 2670 2916 
Q 2900 3119 2900 3481 
Q 2900 3844 2670 4047 
Q 2441 4250 2034 4250 
Q 1625 4250 1398 4047 
Q 1172 3844 1172 3481 
z
" transform="scale(0.015625)"/>
       </defs>
       <use xlink:href="#DejaVuSans-31"/>
       <use xlink:href="#DejaVuSans-2e" x="63.623047"/>
       <use xlink:href="#DejaVuSans-33" x="95.410156"/>
       <use xlink:href="#DejaVuSans-38" x="159.033203"/>
       <use xlink:href="#DejaVuSans-30" x="222.65625"/>
      </g>
     </g>
    </g>
    <g id="ytick_3">
     <g id="line2d_17">
      <path d="M 90 231.513735 
L 648 231.513735 
" clip-path="url(#p0453c5fcd9)" style="fill: none; stroke: #b0b0b0; stroke-width: 0.8; stroke-linecap: square"/>
     </g>
     <g id="line2d_18">
      <g>
       <use xlink:href="#m8613938537" x="90" y="231.513735" style="stroke: #000000; stroke-width: 0.8"/>
      </g>
     </g>
     <g id="text_10">
      <!-- 1.385 -->
      <g transform="translate(54.371875 235.312953) scale(0.1 -0.1)">
       <use xlink:href="#DejaVuSans-31"/>
       <use xlink:href="#DejaVuSans-2e" x="63.623047"/>
       <use xlink:href="#DejaVuSans-33" x="95.410156"/>
       <use xlink:href="#DejaVuSans-38" x="159.033203"/>
       <use xlink:href="#DejaVuSans-35" x="222.65625"/>
      </g>
     </g>
    </g>
    <g id="ytick_4">
     <g id="line2d_19">
      <path d="M 90 190.203624 
L 648 190.203624 
" clip-path="url(#p0453c5fcd9)" style="fill: none; stroke: #b0b0b0; stroke-width: 0.8; stroke-linecap: square"/>
     </g>
     <g id="line2d_20">
      <g>
       <use xlink:href="#m8613938537" x="90" y="190.203624" style="stroke: #000000; stroke-width: 0.8"/>
      </g>
     </g>
     <g id="text_11">
      <!-- 1.390 -->
      <g transform="translate(54.371875 194.002843) scale(0.1 -0.1)">
       <defs>
        <path id="DejaVuSans-39" d="M 703 97 
L 703 672 
Q 941 559 1184 500 
Q 1428 441 1663 441 
Q 2288 441 2617 861 
Q 2947 1281 2994 2138 
Q 2813 1869 2534 1725 
Q 2256 1581 1919 1581 
Q 1219 1581 811 2004 
Q 403 2428 403 3163 
Q 403 3881 828 4315 
Q 1253 4750 1959 4750 
Q 2769 4750 3195 4129 
Q 3622 3509 3622 2328 
Q 3622 1225 3098 567 
Q 2575 -91 1691 -91 
Q 1453 -91 1209 -44 
Q 966 3 703 97 
z
M 1959 2075 
Q 2384 2075 2632 2365 
Q 2881 2656 2881 3163 
Q 2881 3666 2632 3958 
Q 2384 4250 1959 4250 
Q 1534 4250 1286 3958 
Q 1038 3666 1038 3163 
Q 1038 2656 1286 2365 
Q 1534 2075 1959 2075 
z
" transform="scale(0.015625)"/>
       </defs>
       <use xlink:href="#DejaVuSans-31"/>
       <use xlink:href="#DejaVuSans-2e" x="63.623047"/>
       <use xlink:href="#DejaVuSans-33" x="95.410156"/>
       <use xlink:href="#DejaVuSans-39" x="159.033203"/>
       <use xlink:href="#DejaVuSans-30" x="222.65625"/>
      </g>
     </g>
    </g>
    <g id="ytick_5">
     <g id="line2d_21">
      <path d="M 90 148.893514 
L 648 148.893514 
" clip-path="url(#p0453c5fcd9)" style="fill: none; stroke: #b0b0b0; stroke-width: 0.8; stroke-linecap: square"/>
     </g>
     <g id="line2d_22">
      <g>
       <use xlink:href="#m8613938537" x="90" y="148.893514" style="stroke: #000000; stroke-width: 0.8"/>
      </g>
     </g>
     <g id="text_12">
      <!-- 1.395 -->
      <g transform="translate(54.371875 152.692733) scale(0.1 -0.1)">
       <use xlink:href="#DejaVuSans-31"/>
       <use xlink:href="#DejaVuSans-2e" x="63.623047"/>
       <use xlink:href="#DejaVuSans-33" x="95.410156"/>
       <use xlink:href="#DejaVuSans-39" x="159.033203"/>
       <use xlink:href="#DejaVuSans-35" x="222.65625"/>
      </g>
     </g>
    </g>
    <g id="ytick_6">
     <g id="line2d_23">
      <path d="M 90 107.583404 
L 648 107.583404 
" clip-path="url(#p0453c5fcd9)" style="fill: none; stroke: #b0b0b0; stroke-width: 0.8; stroke-linecap: square"/>
     </g>
     <g id="line2d_24">
      <g>
       <use xlink:href="#m8613938537" x="90" y="107.583404" style="stroke: #000000; stroke-width: 0.8"/>
      </g>
     </g>
     <g id="text_13">
      <!-- 1.400 -->
      <g transform="translate(54.371875 111.382623) scale(0.1 -0.1)">
       <use xlink:href="#DejaVuSans-31"/>
       <use xlink:href="#DejaVuSans-2e" x="63.623047"/>
       <use xlink:href="#DejaVuSans-34" x="95.410156"/>
       <use xlink:href="#DejaVuSans-30" x="159.033203"/>
       <use xlink:href="#DejaVuSans-30" x="222.65625"/>
      </g>
     </g>
    </g>
    <g id="ytick_7">
     <g id="line2d_25">
      <path d="M 90 66.273294 
L 648 66.273294 
" clip-path="url(#p0453c5fcd9)" style="fill: none; stroke: #b0b0b0; stroke-width: 0.8; stroke-linecap: square"/>
     </g>
     <g id="line2d_26">
      <g>
       <use xlink:href="#m8613938537" x="90" y="66.273294" style="stroke: #000000; stroke-width: 0.8"/>
      </g>
     </g>
     <g id="text_14">
      <!-- 1.405 -->
      <g transform="translate(54.371875 70.072513) scale(0.1 -0.1)">
       <use xlink:href="#DejaVuSans-31"/>
       <use xlink:href="#DejaVuSans-2e" x="63.623047"/>
       <use xlink:href="#DejaVuSans-34" x="95.410156"/>
       <use xlink:href="#DejaVuSans-30" x="159.033203"/>
       <use xlink:href="#DejaVuSans-35" x="222.65625"/>
      </g>
     </g>
    </g>
    <g id="text_15">
     <!-- loss -->
     <g transform="translate(48.292188 191.457812) rotate(-90) scale(0.1 -0.1)">
      <defs>
       <path id="DejaVuSans-6c" d="M 603 4863 
L 1178 4863 
L 1178 0 
L 603 0 
L 603 4863 
z
" transform="scale(0.015625)"/>
       <path id="DejaVuSans-73" d="M 2834 3397 
L 2834 2853 
Q 2591 2978 2328 3040 
Q 2066 3103 1784 3103 
Q 1356 3103 1142 2972 
Q 928 2841 928 2578 
Q 928 2378 1081 2264 
Q 1234 2150 1697 2047 
L 1894 2003 
Q 2506 1872 2764 1633 
Q 3022 1394 3022 966 
Q 3022 478 2636 193 
Q 2250 -91 1575 -91 
Q 1294 -91 989 -36 
Q 684 19 347 128 
L 347 722 
Q 666 556 975 473 
Q 1284 391 1588 391 
Q 1994 391 2212 530 
Q 2431 669 2431 922 
Q 2431 1156 2273 1281 
Q 2116 1406 1581 1522 
L 1381 1569 
Q 847 1681 609 1914 
Q 372 2147 372 2553 
Q 372 3047 722 3315 
Q 1072 3584 1716 3584 
Q 2034 3584 2315 3537 
Q 2597 3491 2834 3397 
z
" transform="scale(0.015625)"/>
      </defs>
      <use xlink:href="#DejaVuSans-6c"/>
      <use xlink:href="#DejaVuSans-6f" x="27.783203"/>
      <use xlink:href="#DejaVuSans-73" x="88.964844"/>
      <use xlink:href="#DejaVuSans-73" x="141.064453"/>
     </g>
    </g>
   </g>
   <g id="line2d_27">
    <path d="M 115.363636 164.023856 
L 116.380215 214.017876 
L 117.396794 205.295515 
L 118.413372 157.989314 
L 119.429951 201.651349 
L 120.446529 132.494924 
L 121.463108 115.247184 
L 122.479687 167.223828 
L 123.496265 173.947807 
L 125.529422 131.61343 
L 126.546001 55.8 
L 127.56258 102.027725 
L 128.579158 189.642344 
L 129.595737 184.785754 
L 130.612316 145.524296 
L 131.628894 177.599852 
L 132.645473 157.209265 
L 133.662051 156.459749 
L 134.67863 163.243807 
L 135.695209 155.24437 
L 136.711787 118.883471 
L 137.728366 134.83113 
L 138.744944 160.645615 
L 139.761523 174.065996 
L 140.778102 202.873622 
L 141.79468 208.041444 
L 142.811259 207.355946 
L 143.827837 200.057765 
L 144.844416 165.420458 
L 145.860995 153.655711 
L 146.877573 223.647339 
L 147.894152 151.97447 
L 148.910731 197.023258 
L 149.927309 164.596089 
L 150.943888 139.36467 
L 151.960466 128.965992 
L 152.977045 148.443568 
L 153.993624 201.681881 
L 155.010202 215.384931 
L 156.026781 129.767709 
L 157.043359 207.575581 
L 158.059938 109.866622 
L 159.076517 195.351866 
L 160.093095 126.437729 
L 161.109674 185.844532 
L 162.126253 124.244335 
L 163.142831 156.328756 
L 164.15941 166.398473 
L 165.175988 184.813331 
L 166.192567 166.487115 
L 167.209146 206.847733 
L 168.225724 184.854698 
L 169.242303 130.898385 
L 170.258881 154.230898 
L 171.27546 126.25946 
L 172.292039 159.741468 
L 173.308617 139.814774 
L 174.325196 142.836477 
L 175.341774 147.015449 
L 176.358353 172.643786 
L 177.374932 173.069267 
L 178.39151 140.273742 
L 179.408089 175.958993 
L 180.424668 142.397207 
L 181.441246 162.105252 
L 183.474403 163.720504 
L 184.490982 189.346871 
L 185.507561 109.520919 
L 186.524139 192.437518 
L 187.540718 239.140955 
L 188.557296 156.66855 
L 189.573875 197.358127 
L 191.607032 127.874712 
L 192.623611 210.732217 
L 193.640189 175.044996 
L 194.656768 195.540969 
L 195.673347 187.83011 
L 196.689925 190.125935 
L 197.706504 216.142326 
L 198.723083 176.323409 
L 199.739661 150.202617 
L 200.75624 159.181055 
L 201.772818 188.745091 
L 202.789397 180.893391 
L 203.805976 188.722438 
L 204.822554 215.77397 
L 205.839133 139.14011 
L 206.855711 138.924415 
L 207.87229 161.800915 
L 208.888869 163.622013 
L 209.905447 146.886426 
L 210.922026 156.794618 
L 211.938604 172.942214 
L 212.955183 162.420423 
L 213.971762 163.574737 
L 214.98834 194.402413 
L 216.004919 163.934229 
L 217.021498 119.839818 
L 218.038076 134.99955 
L 219.054655 204.886778 
L 220.071233 167.273073 
L 221.087812 163.713609 
L 222.104391 171.895255 
L 223.120969 146.017735 
L 224.137548 128.545436 
L 225.154126 162.335721 
L 226.170705 213.073348 
L 227.187284 243.833065 
L 228.203862 171.367343 
L 229.220441 131.247044 
L 230.237019 134.330796 
L 231.253598 196.208738 
L 232.270177 157.629822 
L 233.286755 196.116156 
L 234.303334 187.192873 
L 235.319913 142.265229 
L 236.336491 147.506919 
L 238.369648 173.544979 
L 239.386227 207.362841 
L 240.402806 146.878547 
L 241.419384 123.989243 
L 242.435963 164.223793 
L 243.452541 157.9706 
L 244.46912 175.002645 
L 245.485699 145.337163 
L 246.502277 138.561968 
L 247.518856 104.635766 
L 248.535435 187.754272 
L 249.552013 132.042851 
L 250.568592 160.088156 
L 251.58517 184.915762 
L 252.601749 201.773478 
L 253.618328 133.439453 
L 254.634906 204.085061 
L 255.651485 203.562074 
L 256.668063 213.746041 
L 257.684642 129.504738 
L 258.701221 175.866411 
L 259.717799 198.124387 
L 260.734378 140.904084 
L 261.750956 171.134904 
L 262.767535 134.528763 
L 263.784114 187.811397 
L 264.800692 172.820085 
L 265.817271 145.040705 
L 266.83385 182.709564 
L 267.850428 83.232692 
L 268.867007 208.35366 
L 269.883585 193.744493 
L 270.900164 197.215315 
L 271.916743 160.492954 
L 272.933321 167.459221 
L 273.9499 197.923465 
L 274.966478 196.541637 
L 275.983057 150.737423 
L 276.999636 142.96353 
L 278.016214 155.51719 
L 279.032793 175.877245 
L 280.049371 175.857547 
L 281.06595 236.134025 
L 282.082529 91.517753 
L 284.115686 202.979007 
L 285.132265 173.219958 
L 286.148843 192.815723 
L 287.165422 197.562004 
L 288.182 169.952028 
L 289.198579 163.251687 
L 290.215158 136.031735 
L 292.248315 197.504879 
L 293.264893 162.986746 
L 294.281472 186.432523 
L 295.298051 184.729614 
L 296.314629 191.042886 
L 297.331208 112.215632 
L 298.347786 201.186472 
L 299.364365 192.801935 
L 300.380944 194.737282 
L 301.397522 158.371459 
L 302.414101 195.069197 
L 303.43068 112.18707 
L 304.447258 228.54431 
L 305.463837 174.2354 
L 306.480415 182.719413 
L 307.496994 139.697569 
L 308.513573 164.260234 
L 309.530151 135.900742 
L 310.54673 114.865039 
L 311.563308 154.454473 
L 312.579887 180.51814 
L 313.596466 104.881994 
L 314.613044 131.377052 
L 315.629623 146.616561 
L 316.646201 152.578219 
L 317.66278 169.298048 
L 318.679359 150.936375 
L 319.695937 169.098111 
L 320.712516 123.756805 
L 321.729095 90.02266 
L 322.745673 160.32552 
L 323.762252 169.020303 
L 324.77883 199.330902 
L 325.795409 153.017489 
L 326.811988 141.174934 
L 327.828566 187.622294 
L 328.845145 149.414689 
L 329.861723 121.90025 
L 330.878302 174.192064 
L 331.894881 134.007746 
L 332.911459 157.162974 
L 333.928038 165.776995 
L 334.944617 169.413282 
L 335.961195 194.668339 
L 336.977774 214.876717 
L 337.994352 153.045067 
L 339.010931 163.506778 
L 340.02751 156.742418 
L 341.044088 171.7879 
L 342.060667 189.898421 
L 343.077245 141.058715 
L 344.093824 118.091604 
L 345.110403 87.584023 
L 346.126981 140.826276 
L 347.14356 209.601541 
L 348.160138 203.946189 
L 349.176717 116.584692 
L 350.193296 131.008695 
L 351.209874 152.482683 
L 352.226453 131.105217 
L 353.243032 129.422991 
L 354.25961 148.74889 
L 355.276189 179.288973 
L 356.292767 132.856386 
L 357.309346 102.726026 
L 358.325925 177.655992 
L 359.342503 198.136206 
L 360.359082 209.099237 
L 361.37566 151.221999 
L 362.392239 197.333505 
L 363.408818 168.735664 
L 364.425396 151.190482 
L 365.441975 162.479517 
L 366.458553 196.733694 
L 367.475132 163.365936 
L 368.491711 197.073488 
L 369.508289 191.686032 
L 370.524868 143.052172 
L 371.541447 159.479482 
L 372.558025 135.136452 
L 373.574604 215.074684 
L 374.591182 192.913229 
L 375.607761 156.710901 
L 376.62434 172.580752 
L 377.640918 143.160512 
L 378.657497 131.294319 
L 379.674075 170.773443 
L 380.690654 149.533863 
L 381.707233 136.726097 
L 382.723811 159.404629 
L 383.74039 140.254043 
L 384.756968 177.491512 
L 385.773547 153.626163 
L 386.790126 154.879954 
L 387.806704 158.719132 
L 388.823283 168.115171 
L 389.839862 161.719167 
L 390.85644 129.429885 
L 391.873019 178.861522 
L 392.889597 158.496542 
L 393.906176 149.45704 
L 394.922755 229.067297 
L 395.939333 129.622927 
L 396.955912 185.845517 
L 397.97249 134.097372 
L 398.989069 203.522678 
L 400.005648 127.293616 
L 401.022226 120.682901 
L 402.038805 189.920089 
L 403.055383 185.15214 
L 404.071962 129.059559 
L 405.088541 119.494115 
L 406.105119 214.141975 
L 407.121698 106.052067 
L 408.138277 130.57829 
L 409.154855 121.495452 
L 410.171434 177.064061 
L 411.188012 203.00363 
L 413.22117 112.12502 
L 414.237748 175.910732 
L 415.254327 187.701087 
L 416.270905 124.995821 
L 417.287484 172.949108 
L 418.304063 215.208632 
L 419.320641 210.870104 
L 420.33722 181.566084 
L 421.353799 158.813683 
L 422.370377 156.042147 
L 423.386956 100.153442 
L 424.403534 151.764684 
L 425.420113 179.273214 
L 426.436692 156.50013 
L 427.45327 120.891702 
L 428.469849 152.996806 
L 429.486427 125.894059 
L 430.503006 196.154568 
L 431.519585 203.436005 
L 432.536163 185.182673 
L 433.552742 156.691203 
L 434.56932 206.287319 
L 435.585899 166.414232 
L 436.602478 201.708474 
L 437.619056 129.851426 
L 438.635635 121.448176 
L 439.652214 152.450181 
L 440.668792 211.584164 
L 441.685371 187.752302 
L 442.701949 144.760006 
L 443.718528 133.666967 
L 444.735107 115.803658 
L 445.751685 129.959766 
L 446.768264 172.150346 
L 447.784842 173.538084 
L 448.801421 177.881536 
L 449.818 170.383418 
L 450.834578 192.799965 
L 451.851157 126.408182 
L 452.867735 170.933983 
L 453.884314 206.399599 
L 454.900893 175.602455 
L 455.917471 174.045313 
L 456.93405 192.085905 
L 457.950629 187.161356 
L 458.967207 143.866692 
L 459.983786 180.423589 
L 461.000364 189.012002 
L 462.016943 109.420458 
L 463.033522 117.500658 
L 464.0501 182.681002 
L 465.066679 125.482367 
L 466.083257 124.565416 
L 467.099836 178.495135 
L 468.116415 125.817236 
L 469.132993 147.197657 
L 470.149572 224.378142 
L 471.16615 181.327736 
L 472.182729 185.69975 
L 473.199308 147.008555 
L 474.215886 153.416378 
L 475.232465 142.1431 
L 476.249044 146.957339 
L 477.265622 167.218903 
L 479.298779 142.610932 
L 480.315358 167.444448 
L 481.331937 179.216089 
L 482.348515 160.976545 
L 483.365094 183.814633 
L 484.381672 140.084639 
L 485.398251 183.121256 
L 486.41483 160.593415 
L 487.431408 211.121256 
L 488.447987 141.435935 
L 489.464565 194.240888 
L 490.481144 161.63348 
L 491.497723 146.703233 
L 492.514301 171.097478 
L 493.53088 153.997474 
L 494.547459 147.020374 
L 495.564037 178.130719 
L 496.580616 185.686946 
L 497.597194 158.492603 
L 498.613773 184.471568 
L 499.630352 180.023715 
L 500.64693 159.06385 
L 501.663509 212.067755 
L 502.680087 162.942425 
L 503.696666 175.011509 
L 504.713245 154.784417 
L 505.729823 172.542341 
L 506.746402 145.857195 
L 507.762981 201.413001 
L 508.779559 143.026564 
L 509.796138 200.461578 
L 510.812716 116.842738 
L 511.829295 183.291646 
L 512.845874 118.188125 
L 513.862452 135.625952 
L 514.879031 155.455141 
L 515.895609 101.608154 
L 516.912188 182.023082 
L 517.928767 160.26544 
L 518.945345 180.46003 
L 519.961924 149.376278 
L 520.978502 174.923852 
L 521.995081 135.035991 
L 523.01166 192.598058 
L 524.028238 131.470618 
L 525.044817 182.563798 
L 526.061396 138.632882 
L 527.077974 152.037504 
L 528.094553 152.064097 
L 529.111131 147.54533 
L 530.12771 173.343072 
L 531.144289 177.67963 
L 532.160867 216.434845 
L 533.177446 152.313279 
L 534.194024 210.160969 
L 535.210603 195.223828 
L 536.227182 235.704604 
L 537.24376 185.167899 
L 538.260339 165.397805 
L 539.276917 190.735594 
L 540.293496 179.917345 
L 541.310075 85.673298 
L 542.326653 166.939189 
L 543.343232 197.552154 
L 544.359811 132.230968 
L 545.376389 177.038454 
L 546.392968 213.076302 
L 547.409546 171.172331 
L 548.426125 148.974435 
L 549.442704 187.205677 
L 550.459282 148.4219 
L 551.475861 104.826839 
L 552.492439 170.462211 
L 553.509018 175.325696 
L 554.525597 167.501572 
L 555.542175 143.228471 
L 556.558754 146.963249 
L 557.575332 173.515431 
L 558.591911 119.642837 
L 559.60849 176.843442 
L 560.625068 147.188793 
L 561.641647 177.085729 
L 562.658226 178.238074 
L 563.674804 110.037996 
L 564.691383 141.670344 
L 565.707961 155.992902 
L 566.72454 176.152035 
L 567.741119 213.009329 
L 568.757697 158.986042 
L 569.774276 133.866904 
L 570.790854 165.72578 
L 571.807433 158.370474 
L 572.824012 205.813578 
L 573.84059 144.314826 
L 574.857169 179.110704 
L 575.873747 169.539351 
L 576.890326 127.588104 
L 577.906905 135.144331 
L 579.940062 162.872496 
L 580.956641 182.118618 
L 581.973219 160.336354 
L 582.989798 150.154356 
L 584.006376 192.573436 
L 585.022955 139.365655 
L 586.039534 151.032896 
L 587.056112 174.164487 
L 588.072691 174.860818 
L 589.089269 181.694122 
L 590.105848 159.506075 
L 591.122427 159.28841 
L 592.139005 136.006128 
L 593.155584 144.782659 
L 594.172163 133.469 
L 595.188741 193.901094 
L 596.20532 145.004263 
L 597.221898 179.651419 
L 598.238477 192.513356 
L 599.255056 143.367343 
L 600.271634 185.563833 
L 601.288213 159.799578 
L 602.304791 94.650751 
L 603.32137 199.875557 
L 604.337949 159.000816 
L 605.354527 157.115699 
L 606.371106 228.539386 
L 607.387684 197.593521 
L 608.404263 150.353308 
L 609.420842 152.291611 
L 610.43742 159.962088 
L 611.453999 158.133111 
L 612.470578 159.668585 
L 613.487156 170.323339 
L 614.503735 128.88326 
L 615.520313 147.538436 
L 616.536892 144.956003 
L 617.553471 179.278139 
L 618.570049 166.522572 
L 619.586628 163.21229 
L 621.619785 202.102438 
L 622.636364 168.864687 
L 622.636364 168.864687 
" clip-path="url(#p0453c5fcd9)" style="fill: none; stroke: #1f77b4; stroke-width: 1.5; stroke-linecap: square"/>
   </g>
   <g id="line2d_28">
    <path d="M 115.363636 288.960646 
L 116.380215 214.295621 
L 117.396794 278.041936 
L 118.413372 244.828809 
L 119.429951 239.205959 
L 120.446529 284.783643 
L 121.463108 294.687896 
L 122.479687 238.968595 
L 123.496265 226.503577 
L 124.512844 218.096387 
L 125.529422 181.364177 
L 126.546001 153.633058 
L 127.56258 283.097478 
L 129.595737 208.105463 
L 130.612316 268.316937 
L 131.628894 278.618108 
L 132.645473 259.227205 
L 133.662051 203.722614 
L 134.67863 288.58835 
L 135.695209 112.569215 
L 136.711787 193.357424 
L 137.728366 189.386268 
L 138.744944 207.235787 
L 139.761523 247.396468 
L 140.778102 293.006655 
L 141.79468 261.550607 
L 142.811259 267.35862 
L 143.827837 212.093362 
L 144.844416 237.031278 
L 145.860995 242.386232 
L 146.877573 290.776819 
L 147.894152 270.968314 
L 149.927309 192.175532 
L 150.943888 119.898913 
L 151.960466 263.742031 
L 152.977045 247.013338 
L 153.993624 269.352077 
L 155.010202 250.737282 
L 156.026781 302.523838 
L 157.043359 268.717795 
L 158.059938 296.585817 
L 159.076517 189.759548 
L 160.093095 225.231074 
L 161.109674 290.77485 
L 162.126253 229.570586 
L 163.142831 205.913054 
L 164.15941 269.683992 
L 165.175988 271.195828 
L 166.192567 256.694017 
L 167.209146 205.810623 
L 168.225724 290.242998 
L 169.242303 268.17905 
L 170.258881 217.19815 
L 171.27546 270.588139 
L 172.292039 265.471533 
L 173.308617 281.745197 
L 174.325196 273.001168 
L 175.341774 278.122699 
L 176.358353 242.021816 
L 177.374932 262.123824 
L 178.39151 259.585712 
L 179.408089 210.022097 
L 180.424668 271.271666 
L 181.441246 277.206733 
L 182.457825 221.761237 
L 183.474403 298.68663 
L 184.490982 288.359851 
L 185.507561 202.889381 
L 186.524139 268.741433 
L 187.540718 266.579556 
L 188.557296 243.016575 
L 189.573875 265.983686 
L 190.590454 249.961173 
L 191.607032 269.899687 
L 192.623611 271.844884 
L 193.640189 257.242611 
L 194.656768 297.846502 
L 195.673347 284.65462 
L 197.706504 240.419368 
L 198.723083 237.016504 
L 199.739661 208.476774 
L 200.75624 259.925506 
L 201.772818 239.19414 
L 202.789397 211.84812 
L 203.805976 154.500763 
L 204.822554 289.518105 
L 205.839133 167.213979 
L 206.855711 241.184642 
L 207.87229 257.756734 
L 208.888869 240.081543 
L 209.905447 289.889416 
L 210.922026 205.861838 
L 211.938604 250.970706 
L 212.955183 266.288023 
L 213.971762 161.948651 
L 214.98834 276.340012 
L 217.021498 169.331535 
L 218.038076 215.871476 
L 219.054655 269.910521 
L 220.071233 197.074473 
L 221.087812 280.812487 
L 222.104391 298.989982 
L 223.120969 293.765036 
L 224.137548 263.177678 
L 225.154126 236.511246 
L 226.170705 200.249822 
L 227.187284 282.148025 
L 228.203862 210.336283 
L 229.220441 288.462281 
L 230.237019 250.576742 
L 231.253598 266.620922 
L 232.270177 287.219325 
L 233.286755 242.767392 
L 234.303334 302.215562 
L 235.319913 267.547722 
L 236.336491 280.804608 
L 237.35307 273.539913 
L 238.369648 296.94137 
L 239.386227 226.927089 
L 240.402806 277.826241 
L 241.419384 277.216582 
L 242.435963 290.38581 
L 243.452541 244.663344 
L 244.46912 260.086046 
L 245.485699 257.656274 
L 246.502277 238.508643 
L 247.518856 284.798417 
L 248.535435 270.585184 
L 249.552013 258.012811 
L 250.568592 262.220345 
L 251.58517 283.628344 
L 252.601749 287.289254 
L 253.618328 294.384544 
L 254.634906 270.255239 
L 255.651485 252.872567 
L 256.668063 273.776292 
L 257.684642 265.502065 
L 258.701221 271.67154 
L 259.717799 278.950023 
L 260.734378 243.393795 
L 261.750956 242.837321 
L 262.767535 264.671786 
L 263.784114 295.289676 
L 264.800692 214.830427 
L 265.817271 245.241486 
L 266.83385 298.382293 
L 267.850428 282.36963 
L 268.867007 275.828844 
L 270.900164 220.331148 
L 271.916743 224.525879 
L 272.933321 270.877702 
L 273.9499 296.897049 
L 274.966478 304.785191 
L 275.983057 291.145176 
L 276.999636 236.382222 
L 278.016214 277.035358 
L 279.032793 243.193858 
L 280.049371 238.91541 
L 281.06595 250.846607 
L 282.082529 218.464744 
L 283.099107 270.03462 
L 284.115686 284.717655 
L 285.132265 176.250526 
L 286.148843 245.339977 
L 287.165422 293.273566 
L 288.182 240.591727 
L 289.198579 216.065504 
L 290.215158 261.928812 
L 291.231736 248.573436 
L 292.248315 292.217742 
L 293.264893 293.434106 
L 294.281472 283.147708 
L 295.298051 226.280003 
L 296.314629 264.430483 
L 297.331208 254.664118 
L 298.347786 280.013725 
L 299.364365 282.133251 
L 300.380944 282.104689 
L 301.397522 273.111478 
L 302.414101 282.060368 
L 303.43068 267.609772 
L 304.447258 299.213557 
L 305.463837 258.883471 
L 306.480415 191.760885 
L 307.496994 184.030328 
L 308.513573 207.388448 
L 309.530151 261.331957 
L 310.54673 307.614837 
L 311.563308 290.362172 
L 312.579887 220.68473 
L 313.596466 205.313244 
L 314.613044 262.899933 
L 315.629623 213.331394 
L 316.646201 283.663801 
L 317.66278 202.709142 
L 318.679359 154.657364 
L 319.695937 260.772528 
L 320.712516 210.311661 
L 321.729095 199.56531 
L 322.745673 197.189708 
L 323.762252 288.759724 
L 324.77883 266.043765 
L 325.795409 253.287214 
L 326.811988 302.272686 
L 327.828566 296.375047 
L 328.845145 259.153336 
L 329.861723 264.35366 
L 330.878302 281.114855 
L 331.894881 255.193999 
L 333.928038 295.719097 
L 334.944617 238.142256 
L 335.961195 250.531436 
L 336.977774 254.935953 
L 337.994352 182.409167 
L 339.010931 229.444518 
L 340.02751 224.149643 
L 341.044088 259.393654 
L 342.060667 269.86817 
L 343.077245 290.468543 
L 345.110403 177.126111 
L 346.126981 259.602455 
L 347.14356 263.111689 
L 348.160138 267.178381 
L 349.176717 281.238953 
L 350.193296 229.053509 
L 351.209874 196.992726 
L 352.226453 238.638651 
L 353.243032 201.865074 
L 354.25961 235.416026 
L 355.276189 224.648007 
L 356.292767 260.609033 
L 357.309346 194.368926 
L 358.325925 228.032157 
L 359.342503 268.013585 
L 360.359082 278.467417 
L 361.37566 281.240923 
L 362.392239 280.588913 
L 363.408818 291.925224 
L 364.425396 282.637525 
L 365.441975 262.403539 
L 366.458553 268.320877 
L 367.475132 217.133146 
L 368.491711 277.254008 
L 369.508289 241.462387 
L 370.524868 258.336846 
L 371.541447 268.67052 
L 372.558025 239.301495 
L 373.574604 246.198818 
L 374.591182 281.890963 
L 375.607761 306.429006 
L 376.62434 287.065679 
L 377.640918 265.472517 
L 378.657497 234.623174 
L 379.674075 208.038489 
L 380.690654 213.239797 
L 381.707233 224.850899 
L 382.723811 284.749172 
L 383.74039 233.974118 
L 384.756968 260.940948 
L 385.773547 277.5613 
L 386.790126 253.325625 
L 387.806704 292.770277 
L 388.823283 248.484794 
L 389.839862 303.809146 
L 390.85644 290.00465 
L 391.873019 235.913405 
L 392.889597 248.841331 
L 393.906176 286.579134 
L 394.922755 261.551592 
L 395.939333 279.058363 
L 396.955912 236.95347 
L 397.97249 264.296535 
L 398.989069 282.518351 
L 400.005648 269.887868 
L 401.022226 266.800176 
L 402.038805 289.925857 
L 403.055383 210.434774 
L 404.071962 205.384157 
L 405.088541 248.566541 
L 406.105119 194.27142 
L 407.121698 256.480291 
L 408.138277 304.1972 
L 409.154855 270.695494 
L 410.171434 278.727433 
L 411.188012 203.816181 
L 412.204591 264.519125 
L 413.22117 252.000922 
L 414.237748 258.57027 
L 415.254327 164.337057 
L 416.270905 240.529677 
L 417.287484 254.606008 
L 418.304063 275.496929 
L 419.320641 262.209511 
L 420.33722 287.680263 
L 421.353799 274.238214 
L 422.370377 273.90236 
L 423.386956 274.669605 
L 424.403534 271.464709 
L 425.420113 281.786563 
L 426.436692 279.082001 
L 427.45327 252.56823 
L 428.469849 204.31947 
L 429.486427 250.280284 
L 430.503006 204.540089 
L 431.519585 263.774533 
L 432.536163 279.704464 
L 433.552742 272.350142 
L 434.56932 277.136804 
L 435.585899 235.218059 
L 436.602478 273.993957 
L 437.619056 287.065679 
L 438.635635 242.499497 
L 439.652214 254.084991 
L 440.668792 279.034725 
L 441.685371 275.563903 
L 442.701949 268.761131 
L 443.718528 223.440508 
L 444.735107 218.015625 
L 445.751685 227.774111 
L 446.768264 113.888994 
L 447.784842 292.30343 
L 448.801421 289.02565 
L 449.818 272.717514 
L 450.834578 254.25932 
L 451.851157 266.818889 
L 452.867735 277.192944 
L 453.884314 296.782799 
L 454.900893 279.437553 
L 455.917471 266.955792 
L 456.93405 181.382891 
L 457.950629 285.615892 
L 458.967207 275.148271 
L 459.983786 210.628802 
L 461.000364 269.81203 
L 462.016943 216.729333 
L 463.033522 227.774111 
L 464.0501 213.917415 
L 465.066679 225.343354 
L 466.083257 225.035077 
L 468.116415 280.930676 
L 469.132993 272.091111 
L 470.149572 260.906476 
L 471.16615 239.963354 
L 472.182729 260.079152 
L 473.199308 222.073453 
L 474.215886 269.686946 
L 475.232465 234.99153 
L 477.265622 265.789658 
L 478.282201 258.448141 
L 479.298779 239.182321 
L 480.315358 228.250807 
L 481.331937 274.004791 
L 482.348515 245.622646 
L 483.365094 290.294214 
L 484.381672 182.636681 
L 485.398251 271.874431 
L 486.41483 266.343178 
L 487.431408 282.100749 
L 488.447987 270.826487 
L 489.464565 266.65047 
L 490.481144 254.484864 
L 491.497723 268.949249 
L 492.514301 256.155271 
L 493.53088 217.431573 
L 494.547459 243.682374 
L 495.564037 260.885793 
L 496.580616 282.657223 
L 497.597194 272.27135 
L 498.613773 268.938415 
L 500.64693 285.185487 
L 501.663509 274.892195 
L 502.680087 297.48504 
L 503.696666 201.376559 
L 504.713245 283.349615 
L 505.729823 241.31859 
L 506.746402 294.281128 
L 507.762981 237.515854 
L 508.779559 287.284329 
L 509.796138 282.463196 
L 510.812716 262.884175 
L 511.829295 205.84411 
L 512.845874 167.365655 
L 513.862452 210.084146 
L 514.879031 169.05576 
L 515.895609 280.801653 
L 516.912188 288.072257 
L 517.928767 273.158753 
L 518.945345 212.009645 
L 519.961924 239.189215 
L 520.978502 277.833135 
L 521.995081 293.439031 
L 523.01166 174.040388 
L 524.028238 217.109508 
L 525.044817 267.961385 
L 527.077974 242.117352 
L 528.094553 202.279721 
L 529.111131 279.381413 
L 530.12771 271.783819 
L 531.144289 271.892159 
L 532.160867 266.302796 
L 533.177446 295.269978 
L 534.194024 303.903697 
L 535.210603 275.057659 
L 536.227182 233.728875 
L 537.24376 271.161356 
L 538.260339 262.876295 
L 539.276917 274.878406 
L 540.293496 254.69268 
L 541.310075 259.92846 
L 542.326653 287.337515 
L 543.343232 275.999233 
L 544.359811 285.686806 
L 545.376389 242.720117 
L 546.392968 298.348806 
L 547.409546 246.55831 
L 548.426125 300.531366 
L 549.442704 306.718569 
L 550.459282 198.408041 
L 551.475861 117.578466 
L 552.492439 266.226958 
L 553.509018 283.378177 
L 554.525597 221.815407 
L 555.542175 279.299666 
L 556.558754 213.347153 
L 557.575332 251.288832 
L 559.60849 269.182673 
L 560.625068 274.193894 
L 561.641647 283.026564 
L 562.658226 299.314017 
L 563.674804 230.086679 
L 564.691383 307.8 
L 565.707961 282.4238 
L 566.72454 285.954701 
L 567.741119 241.869155 
L 568.757697 261.345746 
L 569.774276 270.651173 
L 570.790854 287.230159 
L 571.807433 202.930747 
L 572.824012 256.38574 
L 573.84059 215.391825 
L 574.857169 207.807035 
L 575.873747 253.417222 
L 576.890326 238.572662 
L 577.906905 288.289922 
L 578.923483 245.839326 
L 579.940062 283.67168 
L 580.956641 299.455844 
L 581.973219 271.056956 
L 582.989798 194.680158 
L 584.006376 269.617018 
L 585.022955 252.528833 
L 586.039534 285.737036 
L 587.056112 306.00254 
L 588.072691 258.001977 
L 589.089269 263.362841 
L 590.105848 186.387217 
L 591.122427 239.808723 
L 592.139005 217.337022 
L 593.155584 289.739709 
L 594.172163 212.188899 
L 595.188741 226.613887 
L 596.20532 187.00968 
L 597.221898 211.431503 
L 598.238477 243.625249 
L 599.255056 286.813543 
L 600.271634 245.615752 
L 601.288213 259.832924 
L 602.304791 296.952204 
L 603.32137 260.264315 
L 604.337949 235.937043 
L 605.354527 286.449126 
L 606.371106 290.954103 
L 607.387684 282.19924 
L 608.404263 268.758177 
L 609.420842 261.134975 
L 610.43742 166.526512 
L 611.453999 146.540723 
L 612.470578 206.959028 
L 613.487156 118.948475 
L 614.503735 160.802216 
L 615.520313 273.193225 
L 616.536892 232.633656 
L 617.553471 282.345992 
L 618.570049 282.054458 
L 619.586628 254.960575 
L 620.603206 302.524823 
L 621.619785 275.907637 
L 622.636364 224.269802 
L 622.636364 224.269802 
" clip-path="url(#p0453c5fcd9)" style="fill: none; stroke: #ff7f0e; stroke-width: 1.5; stroke-linecap: square"/>
   </g>
   <g id="patch_3">
    <path d="M 90 320.4 
L 90 43.2 
" style="fill: none; stroke: #000000; stroke-width: 0.8; stroke-linejoin: miter; stroke-linecap: square"/>
   </g>
   <g id="patch_4">
    <path d="M 648 320.4 
L 648 43.2 
" style="fill: none; stroke: #000000; stroke-width: 0.8; stroke-linejoin: miter; stroke-linecap: square"/>
   </g>
   <g id="patch_5">
    <path d="M 90 320.4 
L 648 320.4 
" style="fill: none; stroke: #000000; stroke-width: 0.8; stroke-linejoin: miter; stroke-linecap: square"/>
   </g>
   <g id="patch_6">
    <path d="M 90 43.2 
L 648 43.2 
" style="fill: none; stroke: #000000; stroke-width: 0.8; stroke-linejoin: miter; stroke-linecap: square"/>
   </g>
   <g id="text_16">
    <!-- model train and validation loss over time -->
    <g transform="translate(245.555625 37.2) scale(0.12 -0.12)">
     <defs>
      <path id="DejaVuSans-6d" d="M 3328 2828 
Q 3544 3216 3844 3400 
Q 4144 3584 4550 3584 
Q 5097 3584 5394 3201 
Q 5691 2819 5691 2113 
L 5691 0 
L 5113 0 
L 5113 2094 
Q 5113 2597 4934 2840 
Q 4756 3084 4391 3084 
Q 3944 3084 3684 2787 
Q 3425 2491 3425 1978 
L 3425 0 
L 2847 0 
L 2847 2094 
Q 2847 2600 2669 2842 
Q 2491 3084 2119 3084 
Q 1678 3084 1418 2786 
Q 1159 2488 1159 1978 
L 1159 0 
L 581 0 
L 581 3500 
L 1159 3500 
L 1159 2956 
Q 1356 3278 1631 3431 
Q 1906 3584 2284 3584 
Q 2666 3584 2933 3390 
Q 3200 3197 3328 2828 
z
" transform="scale(0.015625)"/>
      <path id="DejaVuSans-64" d="M 2906 2969 
L 2906 4863 
L 3481 4863 
L 3481 0 
L 2906 0 
L 2906 525 
Q 2725 213 2448 61 
Q 2172 -91 1784 -91 
Q 1150 -91 751 415 
Q 353 922 353 1747 
Q 353 2572 751 3078 
Q 1150 3584 1784 3584 
Q 2172 3584 2448 3432 
Q 2725 3281 2906 2969 
z
M 947 1747 
Q 947 1113 1208 752 
Q 1469 391 1925 391 
Q 2381 391 2643 752 
Q 2906 1113 2906 1747 
Q 2906 2381 2643 2742 
Q 2381 3103 1925 3103 
Q 1469 3103 1208 2742 
Q 947 2381 947 1747 
z
" transform="scale(0.015625)"/>
      <path id="DejaVuSans-20" transform="scale(0.015625)"/>
      <path id="DejaVuSans-74" d="M 1172 4494 
L 1172 3500 
L 2356 3500 
L 2356 3053 
L 1172 3053 
L 1172 1153 
Q 1172 725 1289 603 
Q 1406 481 1766 481 
L 2356 481 
L 2356 0 
L 1766 0 
Q 1100 0 847 248 
Q 594 497 594 1153 
L 594 3053 
L 172 3053 
L 172 3500 
L 594 3500 
L 594 4494 
L 1172 4494 
z
" transform="scale(0.015625)"/>
      <path id="DejaVuSans-72" d="M 2631 2963 
Q 2534 3019 2420 3045 
Q 2306 3072 2169 3072 
Q 1681 3072 1420 2755 
Q 1159 2438 1159 1844 
L 1159 0 
L 581 0 
L 581 3500 
L 1159 3500 
L 1159 2956 
Q 1341 3275 1631 3429 
Q 1922 3584 2338 3584 
Q 2397 3584 2469 3576 
Q 2541 3569 2628 3553 
L 2631 2963 
z
" transform="scale(0.015625)"/>
      <path id="DejaVuSans-61" d="M 2194 1759 
Q 1497 1759 1228 1600 
Q 959 1441 959 1056 
Q 959 750 1161 570 
Q 1363 391 1709 391 
Q 2188 391 2477 730 
Q 2766 1069 2766 1631 
L 2766 1759 
L 2194 1759 
z
M 3341 1997 
L 3341 0 
L 2766 0 
L 2766 531 
Q 2569 213 2275 61 
Q 1981 -91 1556 -91 
Q 1019 -91 701 211 
Q 384 513 384 1019 
Q 384 1609 779 1909 
Q 1175 2209 1959 2209 
L 2766 2209 
L 2766 2266 
Q 2766 2663 2505 2880 
Q 2244 3097 1772 3097 
Q 1472 3097 1187 3025 
Q 903 2953 641 2809 
L 641 3341 
Q 956 3463 1253 3523 
Q 1550 3584 1831 3584 
Q 2591 3584 2966 3190 
Q 3341 2797 3341 1997 
z
" transform="scale(0.015625)"/>
      <path id="DejaVuSans-69" d="M 603 3500 
L 1178 3500 
L 1178 0 
L 603 0 
L 603 3500 
z
M 603 4863 
L 1178 4863 
L 1178 4134 
L 603 4134 
L 603 4863 
z
" transform="scale(0.015625)"/>
      <path id="DejaVuSans-6e" d="M 3513 2113 
L 3513 0 
L 2938 0 
L 2938 2094 
Q 2938 2591 2744 2837 
Q 2550 3084 2163 3084 
Q 1697 3084 1428 2787 
Q 1159 2491 1159 1978 
L 1159 0 
L 581 0 
L 581 3500 
L 1159 3500 
L 1159 2956 
Q 1366 3272 1645 3428 
Q 1925 3584 2291 3584 
Q 2894 3584 3203 3211 
Q 3513 2838 3513 2113 
z
" transform="scale(0.015625)"/>
      <path id="DejaVuSans-76" d="M 191 3500 
L 800 3500 
L 1894 563 
L 2988 3500 
L 3597 3500 
L 2284 0 
L 1503 0 
L 191 3500 
z
" transform="scale(0.015625)"/>
     </defs>
     <use xlink:href="#DejaVuSans-6d"/>
     <use xlink:href="#DejaVuSans-6f" x="97.412109"/>
     <use xlink:href="#DejaVuSans-64" x="158.59375"/>
     <use xlink:href="#DejaVuSans-65" x="222.070312"/>
     <use xlink:href="#DejaVuSans-6c" x="283.59375"/>
     <use xlink:href="#DejaVuSans-20" x="311.376953"/>
     <use xlink:href="#DejaVuSans-74" x="343.164062"/>
     <use xlink:href="#DejaVuSans-72" x="382.373047"/>
     <use xlink:href="#DejaVuSans-61" x="423.486328"/>
     <use xlink:href="#DejaVuSans-69" x="484.765625"/>
     <use xlink:href="#DejaVuSans-6e" x="512.548828"/>
     <use xlink:href="#DejaVuSans-20" x="575.927734"/>
     <use xlink:href="#DejaVuSans-61" x="607.714844"/>
     <use xlink:href="#DejaVuSans-6e" x="668.994141"/>
     <use xlink:href="#DejaVuSans-64" x="732.373047"/>
     <use xlink:href="#DejaVuSans-20" x="795.849609"/>
     <use xlink:href="#DejaVuSans-76" x="827.636719"/>
     <use xlink:href="#DejaVuSans-61" x="886.816406"/>
     <use xlink:href="#DejaVuSans-6c" x="948.095703"/>
     <use xlink:href="#DejaVuSans-69" x="975.878906"/>
     <use xlink:href="#DejaVuSans-64" x="1003.662109"/>
     <use xlink:href="#DejaVuSans-61" x="1067.138672"/>
     <use xlink:href="#DejaVuSans-74" x="1128.417969"/>
     <use xlink:href="#DejaVuSans-69" x="1167.626953"/>
     <use xlink:href="#DejaVuSans-6f" x="1195.410156"/>
     <use xlink:href="#DejaVuSans-6e" x="1256.591797"/>
     <use xlink:href="#DejaVuSans-20" x="1319.970703"/>
     <use xlink:href="#DejaVuSans-6c" x="1351.757812"/>
     <use xlink:href="#DejaVuSans-6f" x="1379.541016"/>
     <use xlink:href="#DejaVuSans-73" x="1440.722656"/>
     <use xlink:href="#DejaVuSans-73" x="1492.822266"/>
     <use xlink:href="#DejaVuSans-20" x="1544.921875"/>
     <use xlink:href="#DejaVuSans-6f" x="1576.708984"/>
     <use xlink:href="#DejaVuSans-76" x="1637.890625"/>
     <use xlink:href="#DejaVuSans-65" x="1697.070312"/>
     <use xlink:href="#DejaVuSans-72" x="1758.59375"/>
     <use xlink:href="#DejaVuSans-20" x="1799.707031"/>
     <use xlink:href="#DejaVuSans-74" x="1831.494141"/>
     <use xlink:href="#DejaVuSans-69" x="1870.703125"/>
     <use xlink:href="#DejaVuSans-6d" x="1898.486328"/>
     <use xlink:href="#DejaVuSans-65" x="1995.898438"/>
    </g>
   </g>
   <g id="legend_1">
    <g id="patch_7">
     <path d="M 559.765625 80.55625 
L 641 80.55625 
Q 643 80.55625 643 78.55625 
L 643 50.2 
Q 643 48.2 641 48.2 
L 559.765625 48.2 
Q 557.765625 48.2 557.765625 50.2 
L 557.765625 78.55625 
Q 557.765625 80.55625 559.765625 80.55625 
z
" style="fill: #ffffff; opacity: 0.8; stroke: #cccccc; stroke-linejoin: miter"/>
    </g>
    <g id="line2d_29">
     <path d="M 561.765625 56.298437 
L 571.765625 56.298437 
L 581.765625 56.298437 
" style="fill: none; stroke: #1f77b4; stroke-width: 1.5; stroke-linecap: square"/>
    </g>
    <g id="text_17">
     <!-- train -->
     <g transform="translate(589.765625 59.798437) scale(0.1 -0.1)">
      <use xlink:href="#DejaVuSans-74"/>
      <use xlink:href="#DejaVuSans-72" x="39.208984"/>
      <use xlink:href="#DejaVuSans-61" x="80.322266"/>
      <use xlink:href="#DejaVuSans-69" x="141.601562"/>
      <use xlink:href="#DejaVuSans-6e" x="169.384766"/>
     </g>
    </g>
    <g id="line2d_30">
     <path d="M 561.765625 70.976562 
L 571.765625 70.976562 
L 581.765625 70.976562 
" style="fill: none; stroke: #ff7f0e; stroke-width: 1.5; stroke-linecap: square"/>
    </g>
    <g id="text_18">
     <!-- validation -->
     <g transform="translate(589.765625 74.476562) scale(0.1 -0.1)">
      <use xlink:href="#DejaVuSans-76"/>
      <use xlink:href="#DejaVuSans-61" x="59.179688"/>
      <use xlink:href="#DejaVuSans-6c" x="120.458984"/>
      <use xlink:href="#DejaVuSans-69" x="148.242188"/>
      <use xlink:href="#DejaVuSans-64" x="176.025391"/>
      <use xlink:href="#DejaVuSans-61" x="239.501953"/>
      <use xlink:href="#DejaVuSans-74" x="300.78125"/>
      <use xlink:href="#DejaVuSans-69" x="339.990234"/>
      <use xlink:href="#DejaVuSans-6f" x="367.773438"/>
      <use xlink:href="#DejaVuSans-6e" x="428.955078"/>
     </g>
    </g>
   </g>
  </g>
 </g>
 <defs>
  <clipPath id="p0453c5fcd9">
   <rect x="90" y="43.2" width="558" height="277.2"/>
  </clipPath>
 </defs>
</svg>
