<?xml version="1.0" encoding="utf-8" standalone="no"?>
<!DOCTYPE svg PUBLIC "-//W3C//DTD SVG 1.1//EN"
  "http://www.w3.org/Graphics/SVG/1.1/DTD/svg11.dtd">
<svg xmlns:xlink="http://www.w3.org/1999/xlink" width="720pt" height="360pt" viewBox="0 0 720 360" xmlns="http://www.w3.org/2000/svg" version="1.1">
 <metadata>
  <rdf:RDF xmlns:dc="http://purl.org/dc/elements/1.1/" xmlns:cc="http://creativecommons.org/ns#" xmlns:rdf="http://www.w3.org/1999/02/22-rdf-syntax-ns#">
   <cc:Work>
    <dc:type rdf:resource="http://purl.org/dc/dcmitype/StillImage"/>
    <dc:date>2023-05-24T11:36:23.152385</dc:date>
    <dc:format>image/svg+xml</dc:format>
    <dc:creator>
     <cc:Agent>
      <dc:title>Matplotlib v3.7.1, https://matplotlib.org/</dc:title>
     </cc:Agent>
    </dc:creator>
   </cc:Work>
  </rdf:RDF>
 </metadata>
 <defs>
  <style type="text/css">*{stroke-linejoin: round; stroke-linecap: butt}</style>
 </defs>
 <g id="figure_1">
  <g id="patch_1">
   <path d="M 0 360 
L 720 360 
L 720 0 
L 0 0 
z
" style="fill: #ffffff"/>
  </g>
  <g id="axes_1">
   <g id="patch_2">
    <path d="M 90 320.4 
L 648 320.4 
L 648 43.2 
L 90 43.2 
z
" style="fill: #ffffff"/>
   </g>
   <g id="matplotlib.axis_1">
    <g id="xtick_1">
     <g id="line2d_1">
      <path d="M 115.363636 320.4 
L 115.363636 43.2 
" clip-path="url(#p0df361bc73)" style="fill: none; stroke: #b0b0b0; stroke-width: 0.8; stroke-linecap: square"/>
     </g>
     <g id="line2d_2">
      <defs>
       <path id="m6287a931a8" d="M 0 0 
L 0 3.5 
" style="stroke: #000000; stroke-width: 0.8"/>
      </defs>
      <g>
       <use xlink:href="#m6287a931a8" x="115.363636" y="320.4" style="stroke: #000000; stroke-width: 0.8"/>
      </g>
     </g>
     <g id="text_1">
      <!-- 0 -->
      <g transform="translate(112.182386 334.998438) scale(0.1 -0.1)">
       <defs>
        <path id="DejaVuSans-30" d="M 2034 4250 
Q 1547 4250 1301 3770 
Q 1056 3291 1056 2328 
Q 1056 1369 1301 889 
Q 1547 409 2034 409 
Q 2525 409 2770 889 
Q 3016 1369 3016 2328 
Q 3016 3291 2770 3770 
Q 2525 4250 2034 4250 
z
M 2034 4750 
Q 2819 4750 3233 4129 
Q 3647 3509 3647 2328 
Q 3647 1150 3233 529 
Q 2819 -91 2034 -91 
Q 1250 -91 836 529 
Q 422 1150 422 2328 
Q 422 3509 836 4129 
Q 1250 4750 2034 4750 
z
" transform="scale(0.015625)"/>
       </defs>
       <use xlink:href="#DejaVuSans-30"/>
      </g>
     </g>
    </g>
    <g id="xtick_2">
     <g id="line2d_3">
      <path d="M 217.021498 320.4 
L 217.021498 43.2 
" clip-path="url(#p0df361bc73)" style="fill: none; stroke: #b0b0b0; stroke-width: 0.8; stroke-linecap: square"/>
     </g>
     <g id="line2d_4">
      <g>
       <use xlink:href="#m6287a931a8" x="217.021498" y="320.4" style="stroke: #000000; stroke-width: 0.8"/>
      </g>
     </g>
     <g id="text_2">
      <!-- 100 -->
      <g transform="translate(207.477748 334.998438) scale(0.1 -0.1)">
       <defs>
        <path id="DejaVuSans-31" d="M 794 531 
L 1825 531 
L 1825 4091 
L 703 3866 
L 703 4441 
L 1819 4666 
L 2450 4666 
L 2450 531 
L 3481 531 
L 3481 0 
L 794 0 
L 794 531 
z
" transform="scale(0.015625)"/>
       </defs>
       <use xlink:href="#DejaVuSans-31"/>
       <use xlink:href="#DejaVuSans-30" x="63.623047"/>
       <use xlink:href="#DejaVuSans-30" x="127.246094"/>
      </g>
     </g>
    </g>
    <g id="xtick_3">
     <g id="line2d_5">
      <path d="M 318.679359 320.4 
L 318.679359 43.2 
" clip-path="url(#p0df361bc73)" style="fill: none; stroke: #b0b0b0; stroke-width: 0.8; stroke-linecap: square"/>
     </g>
     <g id="line2d_6">
      <g>
       <use xlink:href="#m6287a931a8" x="318.679359" y="320.4" style="stroke: #000000; stroke-width: 0.8"/>
      </g>
     </g>
     <g id="text_3">
      <!-- 200 -->
      <g transform="translate(309.135609 334.998438) scale(0.1 -0.1)">
       <defs>
        <path id="DejaVuSans-32" d="M 1228 531 
L 3431 531 
L 3431 0 
L 469 0 
L 469 531 
Q 828 903 1448 1529 
Q 2069 2156 2228 2338 
Q 2531 2678 2651 2914 
Q 2772 3150 2772 3378 
Q 2772 3750 2511 3984 
Q 2250 4219 1831 4219 
Q 1534 4219 1204 4116 
Q 875 4013 500 3803 
L 500 4441 
Q 881 4594 1212 4672 
Q 1544 4750 1819 4750 
Q 2544 4750 2975 4387 
Q 3406 4025 3406 3419 
Q 3406 3131 3298 2873 
Q 3191 2616 2906 2266 
Q 2828 2175 2409 1742 
Q 1991 1309 1228 531 
z
" transform="scale(0.015625)"/>
       </defs>
       <use xlink:href="#DejaVuSans-32"/>
       <use xlink:href="#DejaVuSans-30" x="63.623047"/>
       <use xlink:href="#DejaVuSans-30" x="127.246094"/>
      </g>
     </g>
    </g>
    <g id="xtick_4">
     <g id="line2d_7">
      <path d="M 420.33722 320.4 
L 420.33722 43.2 
" clip-path="url(#p0df361bc73)" style="fill: none; stroke: #b0b0b0; stroke-width: 0.8; stroke-linecap: square"/>
     </g>
     <g id="line2d_8">
      <g>
       <use xlink:href="#m6287a931a8" x="420.33722" y="320.4" style="stroke: #000000; stroke-width: 0.8"/>
      </g>
     </g>
     <g id="text_4">
      <!-- 300 -->
      <g transform="translate(410.79347 334.998438) scale(0.1 -0.1)">
       <defs>
        <path id="DejaVuSans-33" d="M 2597 2516 
Q 3050 2419 3304 2112 
Q 3559 1806 3559 1356 
Q 3559 666 3084 287 
Q 2609 -91 1734 -91 
Q 1441 -91 1130 -33 
Q 819 25 488 141 
L 488 750 
Q 750 597 1062 519 
Q 1375 441 1716 441 
Q 2309 441 2620 675 
Q 2931 909 2931 1356 
Q 2931 1769 2642 2001 
Q 2353 2234 1838 2234 
L 1294 2234 
L 1294 2753 
L 1863 2753 
Q 2328 2753 2575 2939 
Q 2822 3125 2822 3475 
Q 2822 3834 2567 4026 
Q 2313 4219 1838 4219 
Q 1578 4219 1281 4162 
Q 984 4106 628 3988 
L 628 4550 
Q 988 4650 1302 4700 
Q 1616 4750 1894 4750 
Q 2613 4750 3031 4423 
Q 3450 4097 3450 3541 
Q 3450 3153 3228 2886 
Q 3006 2619 2597 2516 
z
" transform="scale(0.015625)"/>
       </defs>
       <use xlink:href="#DejaVuSans-33"/>
       <use xlink:href="#DejaVuSans-30" x="63.623047"/>
       <use xlink:href="#DejaVuSans-30" x="127.246094"/>
      </g>
     </g>
    </g>
    <g id="xtick_5">
     <g id="line2d_9">
      <path d="M 521.995081 320.4 
L 521.995081 43.2 
" clip-path="url(#p0df361bc73)" style="fill: none; stroke: #b0b0b0; stroke-width: 0.8; stroke-linecap: square"/>
     </g>
     <g id="line2d_10">
      <g>
       <use xlink:href="#m6287a931a8" x="521.995081" y="320.4" style="stroke: #000000; stroke-width: 0.8"/>
      </g>
     </g>
     <g id="text_5">
      <!-- 400 -->
      <g transform="translate(512.451331 334.998438) scale(0.1 -0.1)">
       <defs>
        <path id="DejaVuSans-34" d="M 2419 4116 
L 825 1625 
L 2419 1625 
L 2419 4116 
z
M 2253 4666 
L 3047 4666 
L 3047 1625 
L 3713 1625 
L 3713 1100 
L 3047 1100 
L 3047 0 
L 2419 0 
L 2419 1100 
L 313 1100 
L 313 1709 
L 2253 4666 
z
" transform="scale(0.015625)"/>
       </defs>
       <use xlink:href="#DejaVuSans-34"/>
       <use xlink:href="#DejaVuSans-30" x="63.623047"/>
       <use xlink:href="#DejaVuSans-30" x="127.246094"/>
      </g>
     </g>
    </g>
    <g id="xtick_6">
     <g id="line2d_11">
      <path d="M 623.652942 320.4 
L 623.652942 43.2 
" clip-path="url(#p0df361bc73)" style="fill: none; stroke: #b0b0b0; stroke-width: 0.8; stroke-linecap: square"/>
     </g>
     <g id="line2d_12">
      <g>
       <use xlink:href="#m6287a931a8" x="623.652942" y="320.4" style="stroke: #000000; stroke-width: 0.8"/>
      </g>
     </g>
     <g id="text_6">
      <!-- 500 -->
      <g transform="translate(614.109192 334.998438) scale(0.1 -0.1)">
       <defs>
        <path id="DejaVuSans-35" d="M 691 4666 
L 3169 4666 
L 3169 4134 
L 1269 4134 
L 1269 2991 
Q 1406 3038 1543 3061 
Q 1681 3084 1819 3084 
Q 2600 3084 3056 2656 
Q 3513 2228 3513 1497 
Q 3513 744 3044 326 
Q 2575 -91 1722 -91 
Q 1428 -91 1123 -41 
Q 819 9 494 109 
L 494 744 
Q 775 591 1075 516 
Q 1375 441 1709 441 
Q 2250 441 2565 725 
Q 2881 1009 2881 1497 
Q 2881 1984 2565 2268 
Q 2250 2553 1709 2553 
Q 1456 2553 1204 2497 
Q 953 2441 691 2322 
L 691 4666 
z
" transform="scale(0.015625)"/>
       </defs>
       <use xlink:href="#DejaVuSans-35"/>
       <use xlink:href="#DejaVuSans-30" x="63.623047"/>
       <use xlink:href="#DejaVuSans-30" x="127.246094"/>
      </g>
     </g>
    </g>
    <g id="text_7">
     <!-- epoch -->
     <g transform="translate(353.771875 348.676562) scale(0.1 -0.1)">
      <defs>
       <path id="DejaVuSans-65" d="M 3597 1894 
L 3597 1613 
L 953 1613 
Q 991 1019 1311 708 
Q 1631 397 2203 397 
Q 2534 397 2845 478 
Q 3156 559 3463 722 
L 3463 178 
Q 3153 47 2828 -22 
Q 2503 -91 2169 -91 
Q 1331 -91 842 396 
Q 353 884 353 1716 
Q 353 2575 817 3079 
Q 1281 3584 2069 3584 
Q 2775 3584 3186 3129 
Q 3597 2675 3597 1894 
z
M 3022 2063 
Q 3016 2534 2758 2815 
Q 2500 3097 2075 3097 
Q 1594 3097 1305 2825 
Q 1016 2553 972 2059 
L 3022 2063 
z
" transform="scale(0.015625)"/>
       <path id="DejaVuSans-70" d="M 1159 525 
L 1159 -1331 
L 581 -1331 
L 581 3500 
L 1159 3500 
L 1159 2969 
Q 1341 3281 1617 3432 
Q 1894 3584 2278 3584 
Q 2916 3584 3314 3078 
Q 3713 2572 3713 1747 
Q 3713 922 3314 415 
Q 2916 -91 2278 -91 
Q 1894 -91 1617 61 
Q 1341 213 1159 525 
z
M 3116 1747 
Q 3116 2381 2855 2742 
Q 2594 3103 2138 3103 
Q 1681 3103 1420 2742 
Q 1159 2381 1159 1747 
Q 1159 1113 1420 752 
Q 1681 391 2138 391 
Q 2594 391 2855 752 
Q 3116 1113 3116 1747 
z
" transform="scale(0.015625)"/>
       <path id="DejaVuSans-6f" d="M 1959 3097 
Q 1497 3097 1228 2736 
Q 959 2375 959 1747 
Q 959 1119 1226 758 
Q 1494 397 1959 397 
Q 2419 397 2687 759 
Q 2956 1122 2956 1747 
Q 2956 2369 2687 2733 
Q 2419 3097 1959 3097 
z
M 1959 3584 
Q 2709 3584 3137 3096 
Q 3566 2609 3566 1747 
Q 3566 888 3137 398 
Q 2709 -91 1959 -91 
Q 1206 -91 779 398 
Q 353 888 353 1747 
Q 353 2609 779 3096 
Q 1206 3584 1959 3584 
z
" transform="scale(0.015625)"/>
       <path id="DejaVuSans-63" d="M 3122 3366 
L 3122 2828 
Q 2878 2963 2633 3030 
Q 2388 3097 2138 3097 
Q 1578 3097 1268 2742 
Q 959 2388 959 1747 
Q 959 1106 1268 751 
Q 1578 397 2138 397 
Q 2388 397 2633 464 
Q 2878 531 3122 666 
L 3122 134 
Q 2881 22 2623 -34 
Q 2366 -91 2075 -91 
Q 1284 -91 818 406 
Q 353 903 353 1747 
Q 353 2603 823 3093 
Q 1294 3584 2113 3584 
Q 2378 3584 2631 3529 
Q 2884 3475 3122 3366 
z
" transform="scale(0.015625)"/>
       <path id="DejaVuSans-68" d="M 3513 2113 
L 3513 0 
L 2938 0 
L 2938 2094 
Q 2938 2591 2744 2837 
Q 2550 3084 2163 3084 
Q 1697 3084 1428 2787 
Q 1159 2491 1159 1978 
L 1159 0 
L 581 0 
L 581 4863 
L 1159 4863 
L 1159 2956 
Q 1366 3272 1645 3428 
Q 1925 3584 2291 3584 
Q 2894 3584 3203 3211 
Q 3513 2838 3513 2113 
z
" transform="scale(0.015625)"/>
      </defs>
      <use xlink:href="#DejaVuSans-65"/>
      <use xlink:href="#DejaVuSans-70" x="61.523438"/>
      <use xlink:href="#DejaVuSans-6f" x="125"/>
      <use xlink:href="#DejaVuSans-63" x="186.181641"/>
      <use xlink:href="#DejaVuSans-68" x="241.162109"/>
     </g>
    </g>
   </g>
   <g id="matplotlib.axis_2">
    <g id="ytick_1">
     <g id="line2d_13">
      <path d="M 90 297.867702 
L 648 297.867702 
" clip-path="url(#p0df361bc73)" style="fill: none; stroke: #b0b0b0; stroke-width: 0.8; stroke-linecap: square"/>
     </g>
     <g id="line2d_14">
      <defs>
       <path id="mcc5dc16e2f" d="M 0 0 
L -3.5 0 
" style="stroke: #000000; stroke-width: 0.8"/>
      </defs>
      <g>
       <use xlink:href="#mcc5dc16e2f" x="90" y="297.867702" style="stroke: #000000; stroke-width: 0.8"/>
      </g>
     </g>
     <g id="text_8">
      <!-- 0.375 -->
      <g transform="translate(54.371875 301.66692) scale(0.1 -0.1)">
       <defs>
        <path id="DejaVuSans-2e" d="M 684 794 
L 1344 794 
L 1344 0 
L 684 0 
L 684 794 
z
" transform="scale(0.015625)"/>
        <path id="DejaVuSans-37" d="M 525 4666 
L 3525 4666 
L 3525 4397 
L 1831 0 
L 1172 0 
L 2766 4134 
L 525 4134 
L 525 4666 
z
" transform="scale(0.015625)"/>
       </defs>
       <use xlink:href="#DejaVuSans-30"/>
       <use xlink:href="#DejaVuSans-2e" x="63.623047"/>
       <use xlink:href="#DejaVuSans-33" x="95.410156"/>
       <use xlink:href="#DejaVuSans-37" x="159.033203"/>
       <use xlink:href="#DejaVuSans-35" x="222.65625"/>
      </g>
     </g>
    </g>
    <g id="ytick_2">
     <g id="line2d_15">
      <path d="M 90 258.11762 
L 648 258.11762 
" clip-path="url(#p0df361bc73)" style="fill: none; stroke: #b0b0b0; stroke-width: 0.8; stroke-linecap: square"/>
     </g>
     <g id="line2d_16">
      <g>
       <use xlink:href="#mcc5dc16e2f" x="90" y="258.11762" style="stroke: #000000; stroke-width: 0.8"/>
      </g>
     </g>
     <g id="text_9">
      <!-- 0.380 -->
      <g transform="translate(54.371875 261.916839) scale(0.1 -0.1)">
       <defs>
        <path id="DejaVuSans-38" d="M 2034 2216 
Q 1584 2216 1326 1975 
Q 1069 1734 1069 1313 
Q 1069 891 1326 650 
Q 1584 409 2034 409 
Q 2484 409 2743 651 
Q 3003 894 3003 1313 
Q 3003 1734 2745 1975 
Q 2488 2216 2034 2216 
z
M 1403 2484 
Q 997 2584 770 2862 
Q 544 3141 544 3541 
Q 544 4100 942 4425 
Q 1341 4750 2034 4750 
Q 2731 4750 3128 4425 
Q 3525 4100 3525 3541 
Q 3525 3141 3298 2862 
Q 3072 2584 2669 2484 
Q 3125 2378 3379 2068 
Q 3634 1759 3634 1313 
Q 3634 634 3220 271 
Q 2806 -91 2034 -91 
Q 1263 -91 848 271 
Q 434 634 434 1313 
Q 434 1759 690 2068 
Q 947 2378 1403 2484 
z
M 1172 3481 
Q 1172 3119 1398 2916 
Q 1625 2713 2034 2713 
Q 2441 2713 2670 2916 
Q 2900 3119 2900 3481 
Q 2900 3844 2670 4047 
Q 2441 4250 2034 4250 
Q 1625 4250 1398 4047 
Q 1172 3844 1172 3481 
z
" transform="scale(0.015625)"/>
       </defs>
       <use xlink:href="#DejaVuSans-30"/>
       <use xlink:href="#DejaVuSans-2e" x="63.623047"/>
       <use xlink:href="#DejaVuSans-33" x="95.410156"/>
       <use xlink:href="#DejaVuSans-38" x="159.033203"/>
       <use xlink:href="#DejaVuSans-30" x="222.65625"/>
      </g>
     </g>
    </g>
    <g id="ytick_3">
     <g id="line2d_17">
      <path d="M 90 218.367538 
L 648 218.367538 
" clip-path="url(#p0df361bc73)" style="fill: none; stroke: #b0b0b0; stroke-width: 0.8; stroke-linecap: square"/>
     </g>
     <g id="line2d_18">
      <g>
       <use xlink:href="#mcc5dc16e2f" x="90" y="218.367538" style="stroke: #000000; stroke-width: 0.8"/>
      </g>
     </g>
     <g id="text_10">
      <!-- 0.385 -->
      <g transform="translate(54.371875 222.166757) scale(0.1 -0.1)">
       <use xlink:href="#DejaVuSans-30"/>
       <use xlink:href="#DejaVuSans-2e" x="63.623047"/>
       <use xlink:href="#DejaVuSans-33" x="95.410156"/>
       <use xlink:href="#DejaVuSans-38" x="159.033203"/>
       <use xlink:href="#DejaVuSans-35" x="222.65625"/>
      </g>
     </g>
    </g>
    <g id="ytick_4">
     <g id="line2d_19">
      <path d="M 90 178.617457 
L 648 178.617457 
" clip-path="url(#p0df361bc73)" style="fill: none; stroke: #b0b0b0; stroke-width: 0.8; stroke-linecap: square"/>
     </g>
     <g id="line2d_20">
      <g>
       <use xlink:href="#mcc5dc16e2f" x="90" y="178.617457" style="stroke: #000000; stroke-width: 0.8"/>
      </g>
     </g>
     <g id="text_11">
      <!-- 0.390 -->
      <g transform="translate(54.371875 182.416675) scale(0.1 -0.1)">
       <defs>
        <path id="DejaVuSans-39" d="M 703 97 
L 703 672 
Q 941 559 1184 500 
Q 1428 441 1663 441 
Q 2288 441 2617 861 
Q 2947 1281 2994 2138 
Q 2813 1869 2534 1725 
Q 2256 1581 1919 1581 
Q 1219 1581 811 2004 
Q 403 2428 403 3163 
Q 403 3881 828 4315 
Q 1253 4750 1959 4750 
Q 2769 4750 3195 4129 
Q 3622 3509 3622 2328 
Q 3622 1225 3098 567 
Q 2575 -91 1691 -91 
Q 1453 -91 1209 -44 
Q 966 3 703 97 
z
M 1959 2075 
Q 2384 2075 2632 2365 
Q 2881 2656 2881 3163 
Q 2881 3666 2632 3958 
Q 2384 4250 1959 4250 
Q 1534 4250 1286 3958 
Q 1038 3666 1038 3163 
Q 1038 2656 1286 2365 
Q 1534 2075 1959 2075 
z
" transform="scale(0.015625)"/>
       </defs>
       <use xlink:href="#DejaVuSans-30"/>
       <use xlink:href="#DejaVuSans-2e" x="63.623047"/>
       <use xlink:href="#DejaVuSans-33" x="95.410156"/>
       <use xlink:href="#DejaVuSans-39" x="159.033203"/>
       <use xlink:href="#DejaVuSans-30" x="222.65625"/>
      </g>
     </g>
    </g>
    <g id="ytick_5">
     <g id="line2d_21">
      <path d="M 90 138.867375 
L 648 138.867375 
" clip-path="url(#p0df361bc73)" style="fill: none; stroke: #b0b0b0; stroke-width: 0.8; stroke-linecap: square"/>
     </g>
     <g id="line2d_22">
      <g>
       <use xlink:href="#mcc5dc16e2f" x="90" y="138.867375" style="stroke: #000000; stroke-width: 0.8"/>
      </g>
     </g>
     <g id="text_12">
      <!-- 0.395 -->
      <g transform="translate(54.371875 142.666594) scale(0.1 -0.1)">
       <use xlink:href="#DejaVuSans-30"/>
       <use xlink:href="#DejaVuSans-2e" x="63.623047"/>
       <use xlink:href="#DejaVuSans-33" x="95.410156"/>
       <use xlink:href="#DejaVuSans-39" x="159.033203"/>
       <use xlink:href="#DejaVuSans-35" x="222.65625"/>
      </g>
     </g>
    </g>
    <g id="ytick_6">
     <g id="line2d_23">
      <path d="M 90 99.117293 
L 648 99.117293 
" clip-path="url(#p0df361bc73)" style="fill: none; stroke: #b0b0b0; stroke-width: 0.8; stroke-linecap: square"/>
     </g>
     <g id="line2d_24">
      <g>
       <use xlink:href="#mcc5dc16e2f" x="90" y="99.117293" style="stroke: #000000; stroke-width: 0.8"/>
      </g>
     </g>
     <g id="text_13">
      <!-- 0.400 -->
      <g transform="translate(54.371875 102.916512) scale(0.1 -0.1)">
       <use xlink:href="#DejaVuSans-30"/>
       <use xlink:href="#DejaVuSans-2e" x="63.623047"/>
       <use xlink:href="#DejaVuSans-34" x="95.410156"/>
       <use xlink:href="#DejaVuSans-30" x="159.033203"/>
       <use xlink:href="#DejaVuSans-30" x="222.65625"/>
      </g>
     </g>
    </g>
    <g id="ytick_7">
     <g id="line2d_25">
      <path d="M 90 59.367212 
L 648 59.367212 
" clip-path="url(#p0df361bc73)" style="fill: none; stroke: #b0b0b0; stroke-width: 0.8; stroke-linecap: square"/>
     </g>
     <g id="line2d_26">
      <g>
       <use xlink:href="#mcc5dc16e2f" x="90" y="59.367212" style="stroke: #000000; stroke-width: 0.8"/>
      </g>
     </g>
     <g id="text_14">
      <!-- 0.405 -->
      <g transform="translate(54.371875 63.16643) scale(0.1 -0.1)">
       <use xlink:href="#DejaVuSans-30"/>
       <use xlink:href="#DejaVuSans-2e" x="63.623047"/>
       <use xlink:href="#DejaVuSans-34" x="95.410156"/>
       <use xlink:href="#DejaVuSans-30" x="159.033203"/>
       <use xlink:href="#DejaVuSans-35" x="222.65625"/>
      </g>
     </g>
    </g>
    <g id="text_15">
     <!-- accruacy -->
     <g transform="translate(48.292187 204.359375) rotate(-90) scale(0.1 -0.1)">
      <defs>
       <path id="DejaVuSans-61" d="M 2194 1759 
Q 1497 1759 1228 1600 
Q 959 1441 959 1056 
Q 959 750 1161 570 
Q 1363 391 1709 391 
Q 2188 391 2477 730 
Q 2766 1069 2766 1631 
L 2766 1759 
L 2194 1759 
z
M 3341 1997 
L 3341 0 
L 2766 0 
L 2766 531 
Q 2569 213 2275 61 
Q 1981 -91 1556 -91 
Q 1019 -91 701 211 
Q 384 513 384 1019 
Q 384 1609 779 1909 
Q 1175 2209 1959 2209 
L 2766 2209 
L 2766 2266 
Q 2766 2663 2505 2880 
Q 2244 3097 1772 3097 
Q 1472 3097 1187 3025 
Q 903 2953 641 2809 
L 641 3341 
Q 956 3463 1253 3523 
Q 1550 3584 1831 3584 
Q 2591 3584 2966 3190 
Q 3341 2797 3341 1997 
z
" transform="scale(0.015625)"/>
       <path id="DejaVuSans-72" d="M 2631 2963 
Q 2534 3019 2420 3045 
Q 2306 3072 2169 3072 
Q 1681 3072 1420 2755 
Q 1159 2438 1159 1844 
L 1159 0 
L 581 0 
L 581 3500 
L 1159 3500 
L 1159 2956 
Q 1341 3275 1631 3429 
Q 1922 3584 2338 3584 
Q 2397 3584 2469 3576 
Q 2541 3569 2628 3553 
L 2631 2963 
z
" transform="scale(0.015625)"/>
       <path id="DejaVuSans-75" d="M 544 1381 
L 544 3500 
L 1119 3500 
L 1119 1403 
Q 1119 906 1312 657 
Q 1506 409 1894 409 
Q 2359 409 2629 706 
Q 2900 1003 2900 1516 
L 2900 3500 
L 3475 3500 
L 3475 0 
L 2900 0 
L 2900 538 
Q 2691 219 2414 64 
Q 2138 -91 1772 -91 
Q 1169 -91 856 284 
Q 544 659 544 1381 
z
M 1991 3584 
L 1991 3584 
z
" transform="scale(0.015625)"/>
       <path id="DejaVuSans-79" d="M 2059 -325 
Q 1816 -950 1584 -1140 
Q 1353 -1331 966 -1331 
L 506 -1331 
L 506 -850 
L 844 -850 
Q 1081 -850 1212 -737 
Q 1344 -625 1503 -206 
L 1606 56 
L 191 3500 
L 800 3500 
L 1894 763 
L 2988 3500 
L 3597 3500 
L 2059 -325 
z
" transform="scale(0.015625)"/>
      </defs>
      <use xlink:href="#DejaVuSans-61"/>
      <use xlink:href="#DejaVuSans-63" x="61.279297"/>
      <use xlink:href="#DejaVuSans-63" x="116.259766"/>
      <use xlink:href="#DejaVuSans-72" x="171.240234"/>
      <use xlink:href="#DejaVuSans-75" x="212.353516"/>
      <use xlink:href="#DejaVuSans-61" x="275.732422"/>
      <use xlink:href="#DejaVuSans-63" x="337.011719"/>
      <use xlink:href="#DejaVuSans-79" x="391.992188"/>
     </g>
    </g>
   </g>
   <g id="line2d_27">
    <path d="M 115.363636 239.907062 
L 116.380215 268.196141 
L 117.396794 245.564925 
L 118.413372 251.222551 
L 119.429951 268.196141 
L 120.446529 222.933946 
L 121.463108 251.222551 
L 122.479687 234.249435 
L 123.496265 256.880652 
L 124.512844 262.538278 
L 125.529422 256.880652 
L 126.546001 239.907062 
L 127.56258 228.591809 
L 128.579158 285.169258 
L 129.595737 239.907062 
L 130.612316 279.511394 
L 132.645473 234.249435 
L 133.662051 251.222551 
L 134.67863 228.591809 
L 135.695209 268.196141 
L 136.711787 256.880652 
L 137.728366 262.538278 
L 138.744944 262.538278 
L 139.761523 279.511394 
L 140.778102 251.222551 
L 141.79468 268.196141 
L 142.811259 256.880652 
L 143.827837 239.907062 
L 144.844416 268.196141 
L 145.860995 268.196141 
L 146.877573 285.169258 
L 147.894152 228.591809 
L 148.910731 245.564925 
L 149.927309 256.880652 
L 150.943888 239.907062 
L 151.960466 234.249435 
L 152.977045 256.880652 
L 153.993624 251.222551 
L 155.010202 251.222551 
L 156.026781 239.907062 
L 157.043359 239.907062 
L 158.059938 245.564925 
L 159.076517 256.880652 
L 160.093095 222.933946 
L 161.109674 251.222551 
L 162.126253 251.222551 
L 163.142831 245.564925 
L 164.15941 251.222551 
L 165.175988 222.933946 
L 166.192567 251.222551 
L 167.209146 251.222551 
L 168.225724 268.196141 
L 169.242303 239.907062 
L 170.258881 256.880652 
L 171.27546 251.222551 
L 172.292039 251.222551 
L 173.308617 245.564925 
L 174.325196 234.249435 
L 175.341774 251.222551 
L 176.358353 262.538278 
L 177.374932 222.933946 
L 178.39151 239.907062 
L 179.408089 239.907062 
L 180.424668 279.511394 
L 181.441246 234.249435 
L 182.457825 262.538278 
L 183.474403 256.880652 
L 184.490982 262.538278 
L 185.507561 285.169258 
L 186.524139 285.169258 
L 187.540718 256.880652 
L 188.557296 234.249435 
L 189.573875 262.538278 
L 190.590454 268.196141 
L 191.607032 285.169258 
L 192.623611 245.564925 
L 193.640189 251.222551 
L 194.656768 262.538278 
L 195.673347 245.564925 
L 196.689925 234.249435 
L 197.706504 234.249435 
L 198.723083 251.222551 
L 199.739661 262.538278 
L 200.75624 251.222551 
L 201.772818 268.196141 
L 202.789397 222.933946 
L 203.805976 256.880652 
L 204.822554 273.853768 
L 205.839133 279.511394 
L 206.855711 256.880652 
L 207.87229 268.196141 
L 208.888869 273.853768 
L 209.905447 239.907062 
L 210.922026 262.538278 
L 211.938604 268.196141 
L 212.955183 268.196141 
L 213.971762 262.538278 
L 214.98834 245.564925 
L 216.004919 239.907062 
L 217.021498 245.564925 
L 218.038076 262.538278 
L 219.054655 239.907062 
L 220.071233 262.538278 
L 221.087812 239.907062 
L 222.104391 251.222551 
L 223.120969 245.564925 
L 224.137548 251.222551 
L 225.154126 239.907062 
L 226.170705 239.907062 
L 227.187284 268.196141 
L 229.220441 245.564925 
L 230.237019 251.222551 
L 231.253598 268.196141 
L 232.270177 273.853768 
L 233.286755 251.222551 
L 234.303334 251.222551 
L 235.319913 228.591809 
L 236.336491 256.880652 
L 237.35307 262.538278 
L 238.369648 256.880652 
L 239.386227 273.853768 
L 240.402806 262.538278 
L 241.419384 245.564925 
L 242.435963 251.222551 
L 243.452541 268.196141 
L 244.46912 256.880652 
L 245.485699 262.538278 
L 246.502277 262.538278 
L 247.518856 239.907062 
L 248.535435 256.880652 
L 249.552013 285.169258 
L 250.568592 285.169258 
L 251.58517 296.48451 
L 252.601749 268.196141 
L 253.618328 268.196141 
L 254.634906 256.880652 
L 255.651485 234.249435 
L 256.668063 268.196141 
L 258.701221 279.511394 
L 259.717799 245.564925 
L 260.734378 245.564925 
L 261.750956 234.249435 
L 262.767535 251.222551 
L 263.784114 307.8 
L 264.800692 256.880652 
L 265.817271 262.538278 
L 266.83385 234.249435 
L 268.867007 245.564925 
L 269.883585 273.853768 
L 270.900164 239.907062 
L 271.916743 256.880652 
L 272.933321 245.564925 
L 273.9499 256.880652 
L 274.966478 239.907062 
L 275.983057 228.591809 
L 276.999636 268.196141 
L 279.032793 234.249435 
L 280.049371 273.853768 
L 281.06595 251.222551 
L 282.082529 279.511394 
L 283.099107 262.538278 
L 284.115686 239.907062 
L 285.132265 251.222551 
L 286.148843 279.511394 
L 287.165422 234.249435 
L 288.182 262.538278 
L 289.198579 234.249435 
L 290.215158 222.933946 
L 291.231736 256.880652 
L 292.248315 239.907062 
L 293.264893 251.222551 
L 294.281472 251.222551 
L 295.298051 279.511394 
L 296.314629 245.564925 
L 297.331208 262.538278 
L 298.347786 239.907062 
L 299.364365 273.853768 
L 300.380944 251.222551 
L 301.397522 268.196141 
L 302.414101 279.511394 
L 303.43068 239.907062 
L 304.447258 268.196141 
L 307.496994 251.222551 
L 308.513573 256.880652 
L 309.530151 273.853768 
L 310.54673 251.222551 
L 311.563308 251.222551 
L 312.579887 222.933946 
L 313.596466 268.196141 
L 314.613044 251.222551 
L 315.629623 239.907062 
L 316.646201 217.276319 
L 317.66278 228.591809 
L 318.679359 256.880652 
L 319.695937 279.511394 
L 320.712516 268.196141 
L 321.729095 228.591809 
L 322.745673 262.538278 
L 323.762252 245.564925 
L 324.77883 245.564925 
L 325.795409 262.538278 
L 326.811988 262.538278 
L 327.828566 228.591809 
L 328.845145 256.880652 
L 329.861723 262.538278 
L 330.878302 251.222551 
L 331.894881 262.538278 
L 332.911459 245.564925 
L 333.928038 256.880652 
L 335.961195 234.249435 
L 336.977774 251.222551 
L 337.994352 239.907062 
L 339.010931 245.564925 
L 340.02751 234.249435 
L 341.044088 251.222551 
L 342.060667 256.880652 
L 343.077245 279.511394 
L 344.093824 239.907062 
L 345.110403 262.538278 
L 346.126981 239.907062 
L 347.14356 234.249435 
L 348.160138 262.538278 
L 349.176717 273.853768 
L 350.193296 262.538278 
L 351.209874 222.933946 
L 352.226453 273.853768 
L 353.243032 268.196141 
L 354.25961 251.222551 
L 355.276189 239.907062 
L 356.292767 234.249435 
L 357.309346 290.826884 
L 358.325925 222.933946 
L 359.342503 256.880652 
L 360.359082 234.249435 
L 361.37566 268.196141 
L 362.392239 256.880652 
L 363.408818 256.880652 
L 364.425396 273.853768 
L 365.441975 262.538278 
L 367.475132 251.222551 
L 368.491711 268.196141 
L 369.508289 273.853768 
L 370.524868 239.907062 
L 371.541447 290.826884 
L 372.558025 256.880652 
L 373.574604 273.853768 
L 374.591182 268.196141 
L 375.607761 245.564925 
L 376.62434 239.907062 
L 377.640918 273.853768 
L 378.657497 245.564925 
L 379.674075 273.853768 
L 380.690654 268.196141 
L 381.707233 251.222551 
L 382.723811 273.853768 
L 383.74039 279.511394 
L 384.756968 268.196141 
L 385.773547 268.196141 
L 386.790126 262.538278 
L 387.806704 245.564925 
L 388.823283 268.196141 
L 389.839862 251.222551 
L 390.85644 256.880652 
L 391.873019 256.880652 
L 392.889597 228.591809 
L 393.906176 290.826884 
L 394.922755 268.196141 
L 396.955912 234.249435 
L 397.97249 273.853768 
L 398.989069 273.853768 
L 400.005648 222.933946 
L 401.022226 262.538278 
L 403.055383 239.907062 
L 404.071962 268.196141 
L 405.088541 262.538278 
L 406.105119 262.538278 
L 407.121698 228.591809 
L 408.138277 268.196141 
L 409.154855 239.907062 
L 410.171434 268.196141 
L 411.188012 262.538278 
L 412.204591 239.907062 
L 413.22117 268.196141 
L 414.237748 234.249435 
L 415.254327 251.222551 
L 417.287484 251.222551 
L 418.304063 222.933946 
L 419.320641 217.276319 
L 420.33722 273.853768 
L 421.353799 256.880652 
L 422.370377 228.591809 
L 423.386956 268.196141 
L 424.403534 239.907062 
L 425.420113 273.853768 
L 426.436692 251.222551 
L 427.45327 262.538278 
L 428.469849 268.196141 
L 429.486427 239.907062 
L 430.503006 228.591809 
L 432.536163 262.538278 
L 433.552742 211.618456 
L 434.56932 239.907062 
L 435.585899 279.511394 
L 436.602478 268.196141 
L 437.619056 245.564925 
L 438.635635 239.907062 
L 439.652214 245.564925 
L 440.668792 273.853768 
L 441.685371 251.222551 
L 442.701949 268.196141 
L 443.718528 262.538278 
L 444.735107 279.511394 
L 446.768264 245.564925 
L 448.801421 256.880652 
L 449.818 279.511394 
L 450.834578 290.826884 
L 451.851157 273.853768 
L 452.867735 239.907062 
L 453.884314 228.591809 
L 454.900893 234.249435 
L 455.917471 222.933946 
L 456.93405 262.538278 
L 459.983786 262.538278 
L 461.000364 239.907062 
L 462.016943 245.564925 
L 464.0501 234.249435 
L 465.066679 279.511394 
L 466.083257 251.222551 
L 467.099836 251.222551 
L 468.116415 262.538278 
L 469.132993 279.511394 
L 470.149572 273.853768 
L 471.16615 251.222551 
L 472.182729 239.907062 
L 473.199308 268.196141 
L 475.232465 245.564925 
L 476.249044 273.853768 
L 477.265622 239.907062 
L 479.298779 251.222551 
L 480.315358 285.169258 
L 481.331937 268.196141 
L 482.348515 285.169258 
L 483.365094 262.538278 
L 484.381672 262.538278 
L 485.398251 228.591809 
L 486.41483 256.880652 
L 487.431408 239.907062 
L 488.447987 262.538278 
L 489.464565 268.196141 
L 490.481144 251.222551 
L 491.497723 251.222551 
L 492.514301 285.169258 
L 493.53088 228.591809 
L 494.547459 234.249435 
L 495.564037 256.880652 
L 496.580616 256.880652 
L 497.597194 268.196141 
L 498.613773 268.196141 
L 499.630352 251.222551 
L 500.64693 245.564925 
L 501.663509 245.564925 
L 502.680087 239.907062 
L 503.696666 245.564925 
L 504.713245 245.564925 
L 505.729823 217.276319 
L 506.746402 228.591809 
L 507.762981 262.538278 
L 508.779559 279.511394 
L 509.796138 273.853768 
L 510.812716 239.907062 
L 511.829295 256.880652 
L 512.845874 251.222551 
L 513.862452 256.880652 
L 514.879031 251.222551 
L 515.895609 228.591809 
L 516.912188 239.907062 
L 518.945345 217.276319 
L 519.961924 262.538278 
L 520.978502 285.169258 
L 521.995081 268.196141 
L 523.01166 245.564925 
L 524.028238 273.853768 
L 525.044817 228.591809 
L 526.061396 279.511394 
L 527.077974 273.853768 
L 528.094553 239.907062 
L 529.111131 262.538278 
L 530.12771 268.196141 
L 532.160867 245.564925 
L 533.177446 245.564925 
L 534.194024 262.538278 
L 535.210603 239.907062 
L 536.227182 279.511394 
L 537.24376 217.276319 
L 538.260339 268.196141 
L 539.276917 268.196141 
L 540.293496 302.142374 
L 541.310075 228.591809 
L 542.326653 279.511394 
L 543.343232 234.249435 
L 544.359811 222.933946 
L 545.376389 234.249435 
L 546.392968 239.907062 
L 547.409546 262.538278 
L 548.426125 279.511394 
L 549.442704 245.564925 
L 550.459282 239.907062 
L 552.492439 217.276319 
L 553.509018 262.538278 
L 554.525597 302.142374 
L 555.542175 279.511394 
L 556.558754 268.196141 
L 557.575332 251.222551 
L 558.591911 251.222551 
L 559.60849 262.538278 
L 560.625068 239.907062 
L 561.641647 245.564925 
L 562.658226 239.907062 
L 563.674804 245.564925 
L 564.691383 228.591809 
L 565.707961 256.880652 
L 567.741119 256.880652 
L 568.757697 222.933946 
L 570.790854 268.196141 
L 571.807433 262.538278 
L 572.824012 268.196141 
L 573.84059 262.538278 
L 574.857169 245.564925 
L 575.873747 205.96083 
L 576.890326 268.196141 
L 577.906905 251.222551 
L 578.923483 268.196141 
L 579.940062 245.564925 
L 580.956641 262.538278 
L 581.973219 256.880652 
L 582.989798 279.511394 
L 584.006376 239.907062 
L 585.022955 279.511394 
L 586.039534 239.907062 
L 587.056112 256.880652 
L 588.072691 234.249435 
L 589.089269 279.511394 
L 590.105848 285.169258 
L 591.122427 234.249435 
L 592.139005 222.933946 
L 593.155584 251.222551 
L 594.172163 268.196141 
L 595.188741 245.564925 
L 596.20532 228.591809 
L 599.255056 245.564925 
L 600.271634 245.564925 
L 601.288213 256.880652 
L 603.32137 245.564925 
L 604.337949 279.511394 
L 605.354527 211.618456 
L 606.371106 251.222551 
L 607.387684 234.249435 
L 608.404263 256.880652 
L 609.420842 251.222551 
L 610.43742 256.880652 
L 611.453999 239.907062 
L 612.470578 245.564925 
L 613.487156 256.880652 
L 614.503735 262.538278 
L 615.520313 251.222551 
L 616.536892 194.645103 
L 617.553471 273.853768 
L 619.586628 251.222551 
L 620.603206 251.222551 
L 621.619785 256.880652 
L 622.636364 245.564925 
L 622.636364 245.564925 
" clip-path="url(#p0df361bc73)" style="fill: none; stroke: #1f77b4; stroke-width: 1.5; stroke-linecap: square"/>
   </g>
   <g id="line2d_28">
    <path d="M 115.363636 55.8 
L 622.636364 55.8 
L 622.636364 55.8 
" clip-path="url(#p0df361bc73)" style="fill: none; stroke: #ff7f0e; stroke-width: 1.5; stroke-linecap: square"/>
   </g>
   <g id="patch_3">
    <path d="M 90 320.4 
L 90 43.2 
" style="fill: none; stroke: #000000; stroke-width: 0.8; stroke-linejoin: miter; stroke-linecap: square"/>
   </g>
   <g id="patch_4">
    <path d="M 648 320.4 
L 648 43.2 
" style="fill: none; stroke: #000000; stroke-width: 0.8; stroke-linejoin: miter; stroke-linecap: square"/>
   </g>
   <g id="patch_5">
    <path d="M 90 320.4 
L 648 320.4 
" style="fill: none; stroke: #000000; stroke-width: 0.8; stroke-linejoin: miter; stroke-linecap: square"/>
   </g>
   <g id="patch_6">
    <path d="M 90 43.2 
L 648 43.2 
" style="fill: none; stroke: #000000; stroke-width: 0.8; stroke-linejoin: miter; stroke-linecap: square"/>
   </g>
   <g id="text_16">
    <!-- model train and validation accracy over time -->
    <g transform="translate(233.87625 37.2) scale(0.12 -0.12)">
     <defs>
      <path id="DejaVuSans-6d" d="M 3328 2828 
Q 3544 3216 3844 3400 
Q 4144 3584 4550 3584 
Q 5097 3584 5394 3201 
Q 5691 2819 5691 2113 
L 5691 0 
L 5113 0 
L 5113 2094 
Q 5113 2597 4934 2840 
Q 4756 3084 4391 3084 
Q 3944 3084 3684 2787 
Q 3425 2491 3425 1978 
L 3425 0 
L 2847 0 
L 2847 2094 
Q 2847 2600 2669 2842 
Q 2491 3084 2119 3084 
Q 1678 3084 1418 2786 
Q 1159 2488 1159 1978 
L 1159 0 
L 581 0 
L 581 3500 
L 1159 3500 
L 1159 2956 
Q 1356 3278 1631 3431 
Q 1906 3584 2284 3584 
Q 2666 3584 2933 3390 
Q 3200 3197 3328 2828 
z
" transform="scale(0.015625)"/>
      <path id="DejaVuSans-64" d="M 2906 2969 
L 2906 4863 
L 3481 4863 
L 3481 0 
L 2906 0 
L 2906 525 
Q 2725 213 2448 61 
Q 2172 -91 1784 -91 
Q 1150 -91 751 415 
Q 353 922 353 1747 
Q 353 2572 751 3078 
Q 1150 3584 1784 3584 
Q 2172 3584 2448 3432 
Q 2725 3281 2906 2969 
z
M 947 1747 
Q 947 1113 1208 752 
Q 1469 391 1925 391 
Q 2381 391 2643 752 
Q 2906 1113 2906 1747 
Q 2906 2381 2643 2742 
Q 2381 3103 1925 3103 
Q 1469 3103 1208 2742 
Q 947 2381 947 1747 
z
" transform="scale(0.015625)"/>
      <path id="DejaVuSans-6c" d="M 603 4863 
L 1178 4863 
L 1178 0 
L 603 0 
L 603 4863 
z
" transform="scale(0.015625)"/>
      <path id="DejaVuSans-20" transform="scale(0.015625)"/>
      <path id="DejaVuSans-74" d="M 1172 4494 
L 1172 3500 
L 2356 3500 
L 2356 3053 
L 1172 3053 
L 1172 1153 
Q 1172 725 1289 603 
Q 1406 481 1766 481 
L 2356 481 
L 2356 0 
L 1766 0 
Q 1100 0 847 248 
Q 594 497 594 1153 
L 594 3053 
L 172 3053 
L 172 3500 
L 594 3500 
L 594 4494 
L 1172 4494 
z
" transform="scale(0.015625)"/>
      <path id="DejaVuSans-69" d="M 603 3500 
L 1178 3500 
L 1178 0 
L 603 0 
L 603 3500 
z
M 603 4863 
L 1178 4863 
L 1178 4134 
L 603 4134 
L 603 4863 
z
" transform="scale(0.015625)"/>
      <path id="DejaVuSans-6e" d="M 3513 2113 
L 3513 0 
L 2938 0 
L 2938 2094 
Q 2938 2591 2744 2837 
Q 2550 3084 2163 3084 
Q 1697 3084 1428 2787 
Q 1159 2491 1159 1978 
L 1159 0 
L 581 0 
L 581 3500 
L 1159 3500 
L 1159 2956 
Q 1366 3272 1645 3428 
Q 1925 3584 2291 3584 
Q 2894 3584 3203 3211 
Q 3513 2838 3513 2113 
z
" transform="scale(0.015625)"/>
      <path id="DejaVuSans-76" d="M 191 3500 
L 800 3500 
L 1894 563 
L 2988 3500 
L 3597 3500 
L 2284 0 
L 1503 0 
L 191 3500 
z
" transform="scale(0.015625)"/>
     </defs>
     <use xlink:href="#DejaVuSans-6d"/>
     <use xlink:href="#DejaVuSans-6f" x="97.412109"/>
     <use xlink:href="#DejaVuSans-64" x="158.59375"/>
     <use xlink:href="#DejaVuSans-65" x="222.070312"/>
     <use xlink:href="#DejaVuSans-6c" x="283.59375"/>
     <use xlink:href="#DejaVuSans-20" x="311.376953"/>
     <use xlink:href="#DejaVuSans-74" x="343.164062"/>
     <use xlink:href="#DejaVuSans-72" x="382.373047"/>
     <use xlink:href="#DejaVuSans-61" x="423.486328"/>
     <use xlink:href="#DejaVuSans-69" x="484.765625"/>
     <use xlink:href="#DejaVuSans-6e" x="512.548828"/>
     <use xlink:href="#DejaVuSans-20" x="575.927734"/>
     <use xlink:href="#DejaVuSans-61" x="607.714844"/>
     <use xlink:href="#DejaVuSans-6e" x="668.994141"/>
     <use xlink:href="#DejaVuSans-64" x="732.373047"/>
     <use xlink:href="#DejaVuSans-20" x="795.849609"/>
     <use xlink:href="#DejaVuSans-76" x="827.636719"/>
     <use xlink:href="#DejaVuSans-61" x="886.816406"/>
     <use xlink:href="#DejaVuSans-6c" x="948.095703"/>
     <use xlink:href="#DejaVuSans-69" x="975.878906"/>
     <use xlink:href="#DejaVuSans-64" x="1003.662109"/>
     <use xlink:href="#DejaVuSans-61" x="1067.138672"/>
     <use xlink:href="#DejaVuSans-74" x="1128.417969"/>
     <use xlink:href="#DejaVuSans-69" x="1167.626953"/>
     <use xlink:href="#DejaVuSans-6f" x="1195.410156"/>
     <use xlink:href="#DejaVuSans-6e" x="1256.591797"/>
     <use xlink:href="#DejaVuSans-20" x="1319.970703"/>
     <use xlink:href="#DejaVuSans-61" x="1351.757812"/>
     <use xlink:href="#DejaVuSans-63" x="1413.037109"/>
     <use xlink:href="#DejaVuSans-63" x="1468.017578"/>
     <use xlink:href="#DejaVuSans-72" x="1522.998047"/>
     <use xlink:href="#DejaVuSans-61" x="1564.111328"/>
     <use xlink:href="#DejaVuSans-63" x="1625.390625"/>
     <use xlink:href="#DejaVuSans-79" x="1680.371094"/>
     <use xlink:href="#DejaVuSans-20" x="1739.550781"/>
     <use xlink:href="#DejaVuSans-6f" x="1771.337891"/>
     <use xlink:href="#DejaVuSans-76" x="1832.519531"/>
     <use xlink:href="#DejaVuSans-65" x="1891.699219"/>
     <use xlink:href="#DejaVuSans-72" x="1953.222656"/>
     <use xlink:href="#DejaVuSans-20" x="1994.335938"/>
     <use xlink:href="#DejaVuSans-74" x="2026.123047"/>
     <use xlink:href="#DejaVuSans-69" x="2065.332031"/>
     <use xlink:href="#DejaVuSans-6d" x="2093.115234"/>
     <use xlink:href="#DejaVuSans-65" x="2190.527344"/>
    </g>
   </g>
   <g id="legend_1">
    <g id="patch_7">
     <path d="M 97 197.978125 
L 178.234375 197.978125 
Q 180.234375 197.978125 180.234375 195.978125 
L 180.234375 167.621875 
Q 180.234375 165.621875 178.234375 165.621875 
L 97 165.621875 
Q 95 165.621875 95 167.621875 
L 95 195.978125 
Q 95 197.978125 97 197.978125 
z
" style="fill: #ffffff; opacity: 0.8; stroke: #cccccc; stroke-linejoin: miter"/>
    </g>
    <g id="line2d_29">
     <path d="M 99 173.720312 
L 109 173.720312 
L 119 173.720312 
" style="fill: none; stroke: #1f77b4; stroke-width: 1.5; stroke-linecap: square"/>
    </g>
    <g id="text_17">
     <!-- train -->
     <g transform="translate(127 177.220312) scale(0.1 -0.1)">
      <use xlink:href="#DejaVuSans-74"/>
      <use xlink:href="#DejaVuSans-72" x="39.208984"/>
      <use xlink:href="#DejaVuSans-61" x="80.322266"/>
      <use xlink:href="#DejaVuSans-69" x="141.601562"/>
      <use xlink:href="#DejaVuSans-6e" x="169.384766"/>
     </g>
    </g>
    <g id="line2d_30">
     <path d="M 99 188.398437 
L 109 188.398437 
L 119 188.398437 
" style="fill: none; stroke: #ff7f0e; stroke-width: 1.5; stroke-linecap: square"/>
    </g>
    <g id="text_18">
     <!-- validation -->
     <g transform="translate(127 191.898437) scale(0.1 -0.1)">
      <use xlink:href="#DejaVuSans-76"/>
      <use xlink:href="#DejaVuSans-61" x="59.179688"/>
      <use xlink:href="#DejaVuSans-6c" x="120.458984"/>
      <use xlink:href="#DejaVuSans-69" x="148.242188"/>
      <use xlink:href="#DejaVuSans-64" x="176.025391"/>
      <use xlink:href="#DejaVuSans-61" x="239.501953"/>
      <use xlink:href="#DejaVuSans-74" x="300.78125"/>
      <use xlink:href="#DejaVuSans-69" x="339.990234"/>
      <use xlink:href="#DejaVuSans-6f" x="367.773438"/>
      <use xlink:href="#DejaVuSans-6e" x="428.955078"/>
     </g>
    </g>
   </g>
  </g>
 </g>
 <defs>
  <clipPath id="p0df361bc73">
   <rect x="90" y="43.2" width="558" height="277.2"/>
  </clipPath>
 </defs>
</svg>
