<?xml version="1.0" encoding="utf-8" standalone="no"?>
<!DOCTYPE svg PUBLIC "-//W3C//DTD SVG 1.1//EN"
  "http://www.w3.org/Graphics/SVG/1.1/DTD/svg11.dtd">
<svg xmlns:xlink="http://www.w3.org/1999/xlink" width="720pt" height="360pt" viewBox="0 0 720 360" xmlns="http://www.w3.org/2000/svg" version="1.1">
 <metadata>
  <rdf:RDF xmlns:dc="http://purl.org/dc/elements/1.1/" xmlns:cc="http://creativecommons.org/ns#" xmlns:rdf="http://www.w3.org/1999/02/22-rdf-syntax-ns#">
   <cc:Work>
    <dc:type rdf:resource="http://purl.org/dc/dcmitype/StillImage"/>
    <dc:date>2023-05-24T11:29:15.734390</dc:date>
    <dc:format>image/svg+xml</dc:format>
    <dc:creator>
     <cc:Agent>
      <dc:title>Matplotlib v3.7.1, https://matplotlib.org/</dc:title>
     </cc:Agent>
    </dc:creator>
   </cc:Work>
  </rdf:RDF>
 </metadata>
 <defs>
  <style type="text/css">*{stroke-linejoin: round; stroke-linecap: butt}</style>
 </defs>
 <g id="figure_1">
  <g id="patch_1">
   <path d="M 0 360 
L 720 360 
L 720 0 
L 0 0 
z
" style="fill: #ffffff"/>
  </g>
  <g id="axes_1">
   <g id="patch_2">
    <path d="M 90 320.4 
L 648 320.4 
L 648 43.2 
L 90 43.2 
z
" style="fill: #ffffff"/>
   </g>
   <g id="matplotlib.axis_1">
    <g id="xtick_1">
     <g id="line2d_1">
      <path d="M 115.363636 320.4 
L 115.363636 43.2 
" clip-path="url(#pae90a71e93)" style="fill: none; stroke: #b0b0b0; stroke-width: 0.8; stroke-linecap: square"/>
     </g>
     <g id="line2d_2">
      <defs>
       <path id="m26e49aae7f" d="M 0 0 
L 0 3.5 
" style="stroke: #000000; stroke-width: 0.8"/>
      </defs>
      <g>
       <use xlink:href="#m26e49aae7f" x="115.363636" y="320.4" style="stroke: #000000; stroke-width: 0.8"/>
      </g>
     </g>
     <g id="text_1">
      <!-- 0 -->
      <g transform="translate(112.182386 334.998438) scale(0.1 -0.1)">
       <defs>
        <path id="DejaVuSans-30" d="M 2034 4250 
Q 1547 4250 1301 3770 
Q 1056 3291 1056 2328 
Q 1056 1369 1301 889 
Q 1547 409 2034 409 
Q 2525 409 2770 889 
Q 3016 1369 3016 2328 
Q 3016 3291 2770 3770 
Q 2525 4250 2034 4250 
z
M 2034 4750 
Q 2819 4750 3233 4129 
Q 3647 3509 3647 2328 
Q 3647 1150 3233 529 
Q 2819 -91 2034 -91 
Q 1250 -91 836 529 
Q 422 1150 422 2328 
Q 422 3509 836 4129 
Q 1250 4750 2034 4750 
z
" transform="scale(0.015625)"/>
       </defs>
       <use xlink:href="#DejaVuSans-30"/>
      </g>
     </g>
    </g>
    <g id="xtick_2">
     <g id="line2d_3">
      <path d="M 217.021498 320.4 
L 217.021498 43.2 
" clip-path="url(#pae90a71e93)" style="fill: none; stroke: #b0b0b0; stroke-width: 0.8; stroke-linecap: square"/>
     </g>
     <g id="line2d_4">
      <g>
       <use xlink:href="#m26e49aae7f" x="217.021498" y="320.4" style="stroke: #000000; stroke-width: 0.8"/>
      </g>
     </g>
     <g id="text_2">
      <!-- 100 -->
      <g transform="translate(207.477748 334.998438) scale(0.1 -0.1)">
       <defs>
        <path id="DejaVuSans-31" d="M 794 531 
L 1825 531 
L 1825 4091 
L 703 3866 
L 703 4441 
L 1819 4666 
L 2450 4666 
L 2450 531 
L 3481 531 
L 3481 0 
L 794 0 
L 794 531 
z
" transform="scale(0.015625)"/>
       </defs>
       <use xlink:href="#DejaVuSans-31"/>
       <use xlink:href="#DejaVuSans-30" x="63.623047"/>
       <use xlink:href="#DejaVuSans-30" x="127.246094"/>
      </g>
     </g>
    </g>
    <g id="xtick_3">
     <g id="line2d_5">
      <path d="M 318.679359 320.4 
L 318.679359 43.2 
" clip-path="url(#pae90a71e93)" style="fill: none; stroke: #b0b0b0; stroke-width: 0.8; stroke-linecap: square"/>
     </g>
     <g id="line2d_6">
      <g>
       <use xlink:href="#m26e49aae7f" x="318.679359" y="320.4" style="stroke: #000000; stroke-width: 0.8"/>
      </g>
     </g>
     <g id="text_3">
      <!-- 200 -->
      <g transform="translate(309.135609 334.998438) scale(0.1 -0.1)">
       <defs>
        <path id="DejaVuSans-32" d="M 1228 531 
L 3431 531 
L 3431 0 
L 469 0 
L 469 531 
Q 828 903 1448 1529 
Q 2069 2156 2228 2338 
Q 2531 2678 2651 2914 
Q 2772 3150 2772 3378 
Q 2772 3750 2511 3984 
Q 2250 4219 1831 4219 
Q 1534 4219 1204 4116 
Q 875 4013 500 3803 
L 500 4441 
Q 881 4594 1212 4672 
Q 1544 4750 1819 4750 
Q 2544 4750 2975 4387 
Q 3406 4025 3406 3419 
Q 3406 3131 3298 2873 
Q 3191 2616 2906 2266 
Q 2828 2175 2409 1742 
Q 1991 1309 1228 531 
z
" transform="scale(0.015625)"/>
       </defs>
       <use xlink:href="#DejaVuSans-32"/>
       <use xlink:href="#DejaVuSans-30" x="63.623047"/>
       <use xlink:href="#DejaVuSans-30" x="127.246094"/>
      </g>
     </g>
    </g>
    <g id="xtick_4">
     <g id="line2d_7">
      <path d="M 420.33722 320.4 
L 420.33722 43.2 
" clip-path="url(#pae90a71e93)" style="fill: none; stroke: #b0b0b0; stroke-width: 0.8; stroke-linecap: square"/>
     </g>
     <g id="line2d_8">
      <g>
       <use xlink:href="#m26e49aae7f" x="420.33722" y="320.4" style="stroke: #000000; stroke-width: 0.8"/>
      </g>
     </g>
     <g id="text_4">
      <!-- 300 -->
      <g transform="translate(410.79347 334.998438) scale(0.1 -0.1)">
       <defs>
        <path id="DejaVuSans-33" d="M 2597 2516 
Q 3050 2419 3304 2112 
Q 3559 1806 3559 1356 
Q 3559 666 3084 287 
Q 2609 -91 1734 -91 
Q 1441 -91 1130 -33 
Q 819 25 488 141 
L 488 750 
Q 750 597 1062 519 
Q 1375 441 1716 441 
Q 2309 441 2620 675 
Q 2931 909 2931 1356 
Q 2931 1769 2642 2001 
Q 2353 2234 1838 2234 
L 1294 2234 
L 1294 2753 
L 1863 2753 
Q 2328 2753 2575 2939 
Q 2822 3125 2822 3475 
Q 2822 3834 2567 4026 
Q 2313 4219 1838 4219 
Q 1578 4219 1281 4162 
Q 984 4106 628 3988 
L 628 4550 
Q 988 4650 1302 4700 
Q 1616 4750 1894 4750 
Q 2613 4750 3031 4423 
Q 3450 4097 3450 3541 
Q 3450 3153 3228 2886 
Q 3006 2619 2597 2516 
z
" transform="scale(0.015625)"/>
       </defs>
       <use xlink:href="#DejaVuSans-33"/>
       <use xlink:href="#DejaVuSans-30" x="63.623047"/>
       <use xlink:href="#DejaVuSans-30" x="127.246094"/>
      </g>
     </g>
    </g>
    <g id="xtick_5">
     <g id="line2d_9">
      <path d="M 521.995081 320.4 
L 521.995081 43.2 
" clip-path="url(#pae90a71e93)" style="fill: none; stroke: #b0b0b0; stroke-width: 0.8; stroke-linecap: square"/>
     </g>
     <g id="line2d_10">
      <g>
       <use xlink:href="#m26e49aae7f" x="521.995081" y="320.4" style="stroke: #000000; stroke-width: 0.8"/>
      </g>
     </g>
     <g id="text_5">
      <!-- 400 -->
      <g transform="translate(512.451331 334.998438) scale(0.1 -0.1)">
       <defs>
        <path id="DejaVuSans-34" d="M 2419 4116 
L 825 1625 
L 2419 1625 
L 2419 4116 
z
M 2253 4666 
L 3047 4666 
L 3047 1625 
L 3713 1625 
L 3713 1100 
L 3047 1100 
L 3047 0 
L 2419 0 
L 2419 1100 
L 313 1100 
L 313 1709 
L 2253 4666 
z
" transform="scale(0.015625)"/>
       </defs>
       <use xlink:href="#DejaVuSans-34"/>
       <use xlink:href="#DejaVuSans-30" x="63.623047"/>
       <use xlink:href="#DejaVuSans-30" x="127.246094"/>
      </g>
     </g>
    </g>
    <g id="xtick_6">
     <g id="line2d_11">
      <path d="M 623.652942 320.4 
L 623.652942 43.2 
" clip-path="url(#pae90a71e93)" style="fill: none; stroke: #b0b0b0; stroke-width: 0.8; stroke-linecap: square"/>
     </g>
     <g id="line2d_12">
      <g>
       <use xlink:href="#m26e49aae7f" x="623.652942" y="320.4" style="stroke: #000000; stroke-width: 0.8"/>
      </g>
     </g>
     <g id="text_6">
      <!-- 500 -->
      <g transform="translate(614.109192 334.998438) scale(0.1 -0.1)">
       <defs>
        <path id="DejaVuSans-35" d="M 691 4666 
L 3169 4666 
L 3169 4134 
L 1269 4134 
L 1269 2991 
Q 1406 3038 1543 3061 
Q 1681 3084 1819 3084 
Q 2600 3084 3056 2656 
Q 3513 2228 3513 1497 
Q 3513 744 3044 326 
Q 2575 -91 1722 -91 
Q 1428 -91 1123 -41 
Q 819 9 494 109 
L 494 744 
Q 775 591 1075 516 
Q 1375 441 1709 441 
Q 2250 441 2565 725 
Q 2881 1009 2881 1497 
Q 2881 1984 2565 2268 
Q 2250 2553 1709 2553 
Q 1456 2553 1204 2497 
Q 953 2441 691 2322 
L 691 4666 
z
" transform="scale(0.015625)"/>
       </defs>
       <use xlink:href="#DejaVuSans-35"/>
       <use xlink:href="#DejaVuSans-30" x="63.623047"/>
       <use xlink:href="#DejaVuSans-30" x="127.246094"/>
      </g>
     </g>
    </g>
    <g id="text_7">
     <!-- epoch -->
     <g transform="translate(353.771875 348.676562) scale(0.1 -0.1)">
      <defs>
       <path id="DejaVuSans-65" d="M 3597 1894 
L 3597 1613 
L 953 1613 
Q 991 1019 1311 708 
Q 1631 397 2203 397 
Q 2534 397 2845 478 
Q 3156 559 3463 722 
L 3463 178 
Q 3153 47 2828 -22 
Q 2503 -91 2169 -91 
Q 1331 -91 842 396 
Q 353 884 353 1716 
Q 353 2575 817 3079 
Q 1281 3584 2069 3584 
Q 2775 3584 3186 3129 
Q 3597 2675 3597 1894 
z
M 3022 2063 
Q 3016 2534 2758 2815 
Q 2500 3097 2075 3097 
Q 1594 3097 1305 2825 
Q 1016 2553 972 2059 
L 3022 2063 
z
" transform="scale(0.015625)"/>
       <path id="DejaVuSans-70" d="M 1159 525 
L 1159 -1331 
L 581 -1331 
L 581 3500 
L 1159 3500 
L 1159 2969 
Q 1341 3281 1617 3432 
Q 1894 3584 2278 3584 
Q 2916 3584 3314 3078 
Q 3713 2572 3713 1747 
Q 3713 922 3314 415 
Q 2916 -91 2278 -91 
Q 1894 -91 1617 61 
Q 1341 213 1159 525 
z
M 3116 1747 
Q 3116 2381 2855 2742 
Q 2594 3103 2138 3103 
Q 1681 3103 1420 2742 
Q 1159 2381 1159 1747 
Q 1159 1113 1420 752 
Q 1681 391 2138 391 
Q 2594 391 2855 752 
Q 3116 1113 3116 1747 
z
" transform="scale(0.015625)"/>
       <path id="DejaVuSans-6f" d="M 1959 3097 
Q 1497 3097 1228 2736 
Q 959 2375 959 1747 
Q 959 1119 1226 758 
Q 1494 397 1959 397 
Q 2419 397 2687 759 
Q 2956 1122 2956 1747 
Q 2956 2369 2687 2733 
Q 2419 3097 1959 3097 
z
M 1959 3584 
Q 2709 3584 3137 3096 
Q 3566 2609 3566 1747 
Q 3566 888 3137 398 
Q 2709 -91 1959 -91 
Q 1206 -91 779 398 
Q 353 888 353 1747 
Q 353 2609 779 3096 
Q 1206 3584 1959 3584 
z
" transform="scale(0.015625)"/>
       <path id="DejaVuSans-63" d="M 3122 3366 
L 3122 2828 
Q 2878 2963 2633 3030 
Q 2388 3097 2138 3097 
Q 1578 3097 1268 2742 
Q 959 2388 959 1747 
Q 959 1106 1268 751 
Q 1578 397 2138 397 
Q 2388 397 2633 464 
Q 2878 531 3122 666 
L 3122 134 
Q 2881 22 2623 -34 
Q 2366 -91 2075 -91 
Q 1284 -91 818 406 
Q 353 903 353 1747 
Q 353 2603 823 3093 
Q 1294 3584 2113 3584 
Q 2378 3584 2631 3529 
Q 2884 3475 3122 3366 
z
" transform="scale(0.015625)"/>
       <path id="DejaVuSans-68" d="M 3513 2113 
L 3513 0 
L 2938 0 
L 2938 2094 
Q 2938 2591 2744 2837 
Q 2550 3084 2163 3084 
Q 1697 3084 1428 2787 
Q 1159 2491 1159 1978 
L 1159 0 
L 581 0 
L 581 4863 
L 1159 4863 
L 1159 2956 
Q 1366 3272 1645 3428 
Q 1925 3584 2291 3584 
Q 2894 3584 3203 3211 
Q 3513 2838 3513 2113 
z
" transform="scale(0.015625)"/>
      </defs>
      <use xlink:href="#DejaVuSans-65"/>
      <use xlink:href="#DejaVuSans-70" x="61.523438"/>
      <use xlink:href="#DejaVuSans-6f" x="125"/>
      <use xlink:href="#DejaVuSans-63" x="186.181641"/>
      <use xlink:href="#DejaVuSans-68" x="241.162109"/>
     </g>
    </g>
   </g>
   <g id="matplotlib.axis_2">
    <g id="ytick_1">
     <g id="line2d_13">
      <path d="M 90 286.168638 
L 648 286.168638 
" clip-path="url(#pae90a71e93)" style="fill: none; stroke: #b0b0b0; stroke-width: 0.8; stroke-linecap: square"/>
     </g>
     <g id="line2d_14">
      <defs>
       <path id="mf8596ca665" d="M 0 0 
L -3.5 0 
" style="stroke: #000000; stroke-width: 0.8"/>
      </defs>
      <g>
       <use xlink:href="#mf8596ca665" x="90" y="286.168638" style="stroke: #000000; stroke-width: 0.8"/>
      </g>
     </g>
     <g id="text_8">
      <!-- 1.380 -->
      <g transform="translate(54.371875 289.967856) scale(0.1 -0.1)">
       <defs>
        <path id="DejaVuSans-2e" d="M 684 794 
L 1344 794 
L 1344 0 
L 684 0 
L 684 794 
z
" transform="scale(0.015625)"/>
        <path id="DejaVuSans-38" d="M 2034 2216 
Q 1584 2216 1326 1975 
Q 1069 1734 1069 1313 
Q 1069 891 1326 650 
Q 1584 409 2034 409 
Q 2484 409 2743 651 
Q 3003 894 3003 1313 
Q 3003 1734 2745 1975 
Q 2488 2216 2034 2216 
z
M 1403 2484 
Q 997 2584 770 2862 
Q 544 3141 544 3541 
Q 544 4100 942 4425 
Q 1341 4750 2034 4750 
Q 2731 4750 3128 4425 
Q 3525 4100 3525 3541 
Q 3525 3141 3298 2862 
Q 3072 2584 2669 2484 
Q 3125 2378 3379 2068 
Q 3634 1759 3634 1313 
Q 3634 634 3220 271 
Q 2806 -91 2034 -91 
Q 1263 -91 848 271 
Q 434 634 434 1313 
Q 434 1759 690 2068 
Q 947 2378 1403 2484 
z
M 1172 3481 
Q 1172 3119 1398 2916 
Q 1625 2713 2034 2713 
Q 2441 2713 2670 2916 
Q 2900 3119 2900 3481 
Q 2900 3844 2670 4047 
Q 2441 4250 2034 4250 
Q 1625 4250 1398 4047 
Q 1172 3844 1172 3481 
z
" transform="scale(0.015625)"/>
       </defs>
       <use xlink:href="#DejaVuSans-31"/>
       <use xlink:href="#DejaVuSans-2e" x="63.623047"/>
       <use xlink:href="#DejaVuSans-33" x="95.410156"/>
       <use xlink:href="#DejaVuSans-38" x="159.033203"/>
       <use xlink:href="#DejaVuSans-30" x="222.65625"/>
      </g>
     </g>
    </g>
    <g id="ytick_2">
     <g id="line2d_15">
      <path d="M 90 229.356939 
L 648 229.356939 
" clip-path="url(#pae90a71e93)" style="fill: none; stroke: #b0b0b0; stroke-width: 0.8; stroke-linecap: square"/>
     </g>
     <g id="line2d_16">
      <g>
       <use xlink:href="#mf8596ca665" x="90" y="229.356939" style="stroke: #000000; stroke-width: 0.8"/>
      </g>
     </g>
     <g id="text_9">
      <!-- 1.385 -->
      <g transform="translate(54.371875 233.156158) scale(0.1 -0.1)">
       <use xlink:href="#DejaVuSans-31"/>
       <use xlink:href="#DejaVuSans-2e" x="63.623047"/>
       <use xlink:href="#DejaVuSans-33" x="95.410156"/>
       <use xlink:href="#DejaVuSans-38" x="159.033203"/>
       <use xlink:href="#DejaVuSans-35" x="222.65625"/>
      </g>
     </g>
    </g>
    <g id="ytick_3">
     <g id="line2d_17">
      <path d="M 90 172.545241 
L 648 172.545241 
" clip-path="url(#pae90a71e93)" style="fill: none; stroke: #b0b0b0; stroke-width: 0.8; stroke-linecap: square"/>
     </g>
     <g id="line2d_18">
      <g>
       <use xlink:href="#mf8596ca665" x="90" y="172.545241" style="stroke: #000000; stroke-width: 0.8"/>
      </g>
     </g>
     <g id="text_10">
      <!-- 1.390 -->
      <g transform="translate(54.371875 176.344459) scale(0.1 -0.1)">
       <defs>
        <path id="DejaVuSans-39" d="M 703 97 
L 703 672 
Q 941 559 1184 500 
Q 1428 441 1663 441 
Q 2288 441 2617 861 
Q 2947 1281 2994 2138 
Q 2813 1869 2534 1725 
Q 2256 1581 1919 1581 
Q 1219 1581 811 2004 
Q 403 2428 403 3163 
Q 403 3881 828 4315 
Q 1253 4750 1959 4750 
Q 2769 4750 3195 4129 
Q 3622 3509 3622 2328 
Q 3622 1225 3098 567 
Q 2575 -91 1691 -91 
Q 1453 -91 1209 -44 
Q 966 3 703 97 
z
M 1959 2075 
Q 2384 2075 2632 2365 
Q 2881 2656 2881 3163 
Q 2881 3666 2632 3958 
Q 2384 4250 1959 4250 
Q 1534 4250 1286 3958 
Q 1038 3666 1038 3163 
Q 1038 2656 1286 2365 
Q 1534 2075 1959 2075 
z
" transform="scale(0.015625)"/>
       </defs>
       <use xlink:href="#DejaVuSans-31"/>
       <use xlink:href="#DejaVuSans-2e" x="63.623047"/>
       <use xlink:href="#DejaVuSans-33" x="95.410156"/>
       <use xlink:href="#DejaVuSans-39" x="159.033203"/>
       <use xlink:href="#DejaVuSans-30" x="222.65625"/>
      </g>
     </g>
    </g>
    <g id="ytick_4">
     <g id="line2d_19">
      <path d="M 90 115.733542 
L 648 115.733542 
" clip-path="url(#pae90a71e93)" style="fill: none; stroke: #b0b0b0; stroke-width: 0.8; stroke-linecap: square"/>
     </g>
     <g id="line2d_20">
      <g>
       <use xlink:href="#mf8596ca665" x="90" y="115.733542" style="stroke: #000000; stroke-width: 0.8"/>
      </g>
     </g>
     <g id="text_11">
      <!-- 1.395 -->
      <g transform="translate(54.371875 119.532761) scale(0.1 -0.1)">
       <use xlink:href="#DejaVuSans-31"/>
       <use xlink:href="#DejaVuSans-2e" x="63.623047"/>
       <use xlink:href="#DejaVuSans-33" x="95.410156"/>
       <use xlink:href="#DejaVuSans-39" x="159.033203"/>
       <use xlink:href="#DejaVuSans-35" x="222.65625"/>
      </g>
     </g>
    </g>
    <g id="ytick_5">
     <g id="line2d_21">
      <path d="M 90 58.921843 
L 648 58.921843 
" clip-path="url(#pae90a71e93)" style="fill: none; stroke: #b0b0b0; stroke-width: 0.8; stroke-linecap: square"/>
     </g>
     <g id="line2d_22">
      <g>
       <use xlink:href="#mf8596ca665" x="90" y="58.921843" style="stroke: #000000; stroke-width: 0.8"/>
      </g>
     </g>
     <g id="text_12">
      <!-- 1.400 -->
      <g transform="translate(54.371875 62.721062) scale(0.1 -0.1)">
       <use xlink:href="#DejaVuSans-31"/>
       <use xlink:href="#DejaVuSans-2e" x="63.623047"/>
       <use xlink:href="#DejaVuSans-34" x="95.410156"/>
       <use xlink:href="#DejaVuSans-30" x="159.033203"/>
       <use xlink:href="#DejaVuSans-30" x="222.65625"/>
      </g>
     </g>
    </g>
    <g id="text_13">
     <!-- loss -->
     <g transform="translate(48.292188 191.457812) rotate(-90) scale(0.1 -0.1)">
      <defs>
       <path id="DejaVuSans-6c" d="M 603 4863 
L 1178 4863 
L 1178 0 
L 603 0 
L 603 4863 
z
" transform="scale(0.015625)"/>
       <path id="DejaVuSans-73" d="M 2834 3397 
L 2834 2853 
Q 2591 2978 2328 3040 
Q 2066 3103 1784 3103 
Q 1356 3103 1142 2972 
Q 928 2841 928 2578 
Q 928 2378 1081 2264 
Q 1234 2150 1697 2047 
L 1894 2003 
Q 2506 1872 2764 1633 
Q 3022 1394 3022 966 
Q 3022 478 2636 193 
Q 2250 -91 1575 -91 
Q 1294 -91 989 -36 
Q 684 19 347 128 
L 347 722 
Q 666 556 975 473 
Q 1284 391 1588 391 
Q 1994 391 2212 530 
Q 2431 669 2431 922 
Q 2431 1156 2273 1281 
Q 2116 1406 1581 1522 
L 1381 1569 
Q 847 1681 609 1914 
Q 372 2147 372 2553 
Q 372 3047 722 3315 
Q 1072 3584 1716 3584 
Q 2034 3584 2315 3537 
Q 2597 3491 2834 3397 
z
" transform="scale(0.015625)"/>
      </defs>
      <use xlink:href="#DejaVuSans-6c"/>
      <use xlink:href="#DejaVuSans-6f" x="27.783203"/>
      <use xlink:href="#DejaVuSans-73" x="88.964844"/>
      <use xlink:href="#DejaVuSans-73" x="141.064453"/>
     </g>
    </g>
   </g>
   <g id="line2d_23">
    <path d="M 115.363636 161.007802 
L 116.380215 127.784714 
L 117.396794 87.72819 
L 118.413372 195.938911 
L 119.429951 201.75241 
L 120.446529 131.073431 
L 121.463108 159.03701 
L 122.479687 167.525639 
L 123.496265 172.254186 
L 124.512844 204.974757 
L 125.529422 169.798484 
L 126.546001 224.415844 
L 127.56258 142.145085 
L 128.579158 206.051582 
L 129.595737 169.294612 
L 130.612316 152.940422 
L 131.628894 229.143037 
L 132.645473 221.376354 
L 133.662051 179.29215 
L 134.67863 198.295735 
L 135.695209 171.438779 
L 136.711787 170.53533 
L 137.728366 157.452249 
L 138.744944 174.772195 
L 139.761523 207.672914 
L 140.778102 201.881087 
L 141.79468 96.860205 
L 142.811259 174.787095 
L 143.827837 196.817979 
L 144.844416 228.991333 
L 146.877573 180.948699 
L 147.894152 183.077967 
L 148.910731 228.236879 
L 149.927309 154.592907 
L 150.943888 137.184919 
L 151.960466 153.135469 
L 152.977045 158.863634 
L 153.993624 217.067701 
L 155.010202 137.554696 
L 156.026781 146.705674 
L 157.043359 228.503715 
L 158.059938 165.403143 
L 159.076517 211.976149 
L 161.109674 182.970962 
L 162.126253 119.56292 
L 163.142831 162.450341 
L 164.15941 211.701186 
L 165.175988 212.795619 
L 166.192567 150.177249 
L 167.209146 135.464708 
L 168.225724 125.518641 
L 169.242303 224.316966 
L 170.258881 217.651489 
L 171.27546 160.197813 
L 172.292039 201.583098 
L 173.308617 161.159506 
L 174.325196 192.923802 
L 175.341774 203.009383 
L 176.358353 217.100209 
L 177.374932 207.942459 
L 178.39151 193.479146 
L 179.408089 143.150121 
L 180.424668 238.75048 
L 181.441246 128.960416 
L 182.457825 173.410926 
L 183.474403 117.03543 
L 184.490982 200.706739 
L 185.507561 175.047158 
L 186.524139 163.66397 
L 187.540718 140.584705 
L 188.557296 137.702337 
L 189.573875 204.749911 
L 190.590454 136.617385 
L 191.607032 115.461505 
L 192.623611 141.219964 
L 193.640189 151.099661 
L 194.656768 163.425578 
L 195.673347 236.724154 
L 196.689925 193.032162 
L 197.706504 198.030254 
L 198.723083 227.970043 
L 199.739661 164.958868 
L 200.75624 203.494292 
L 201.772818 172.078102 
L 202.789397 192.792416 
L 203.805976 192.857432 
L 204.822554 171.617573 
L 205.839133 127.519232 
L 206.855711 209.699241 
L 207.87229 154.554981 
L 208.888869 107.419859 
L 209.905447 164.942615 
L 210.922026 160.104353 
L 211.938604 211.863726 
L 212.955183 215.799893 
L 213.971762 162.700923 
L 214.98834 205.18064 
L 216.004919 187.676483 
L 217.021498 173.177953 
L 218.038076 188.005625 
L 219.054655 254.95703 
L 220.071233 261.03601 
L 221.087812 193.202828 
L 222.104391 176.516787 
L 223.120969 203.960239 
L 224.137548 212.783429 
L 225.154126 198.977047 
L 226.170705 197.657767 
L 227.187284 157.01881 
L 228.203862 225.006405 
L 229.220441 151.473502 
L 230.237019 155.645351 
L 231.253598 195.512245 
L 232.270177 161.897706 
L 233.286755 215.734877 
L 234.303334 165.126826 
L 235.319913 177.750733 
L 236.336491 154.58478 
L 237.35307 204.477657 
L 238.369648 206.946904 
L 239.386227 216.635617 
L 240.402806 185.20859 
L 241.419384 132.836985 
L 242.435963 170.009786 
L 243.452541 166.038402 
L 244.46912 158.531783 
L 245.485699 124.268441 
L 246.502277 140.840705 
L 247.518856 172.904345 
L 248.535435 163.710023 
L 249.552013 244.504381 
L 250.568592 235.423837 
L 251.58517 195.416076 
L 252.601749 254.828353 
L 253.618328 143.189402 
L 254.634906 189.226027 
L 255.651485 214.629608 
L 257.684642 87.492508 
L 258.701221 118.530794 
L 259.717799 177.487961 
L 260.734378 157.725857 
L 261.750956 176.236406 
L 262.767535 203.461784 
L 263.784114 205.43664 
L 264.800692 164.426551 
L 265.817271 205.301191 
L 266.83385 171.201743 
L 267.850428 128.285877 
L 268.867007 208.975939 
L 269.883585 163.296901 
L 270.900164 194.362277 
L 271.916743 236.73499 
L 272.933321 262.524602 
L 273.9499 206.627243 
L 274.966478 124.582684 
L 275.983057 177.873992 
L 276.999636 225.246151 
L 278.016214 193.892267 
L 279.032793 151.870369 
L 280.049371 193.820479 
L 281.06595 94.511508 
L 282.082529 191.884903 
L 283.099107 154.254283 
L 284.115686 201.190294 
L 285.132265 132.442827 
L 286.148843 224.946807 
L 287.165422 159.000439 
L 288.182 161.450723 
L 289.198579 191.512417 
L 290.215158 141.714355 
L 291.231736 166.322846 
L 292.248315 215.974623 
L 293.264893 113.286184 
L 294.281472 155.302663 
L 295.298051 216.240104 
L 296.314629 143.593042 
L 297.331208 207.83139 
L 298.347786 143.403412 
L 299.364365 158.311 
L 300.380944 188.005625 
L 301.397522 185.778833 
L 302.414101 111.690587 
L 303.43068 211.335472 
L 304.447258 172.325975 
L 305.463837 180.947344 
L 306.480415 126.478979 
L 307.496994 151.958412 
L 308.513573 132.285705 
L 309.530151 219.620927 
L 310.54673 138.734463 
L 311.563308 159.261856 
L 312.579887 213.505376 
L 313.596466 171.67988 
L 314.613044 197.451884 
L 316.646201 178.556658 
L 317.66278 146.518754 
L 318.679359 154.205521 
L 319.695937 167.792475 
L 320.712516 206.013656 
L 321.729095 103.090889 
L 322.745673 200.347797 
L 323.762252 218.797393 
L 324.77883 194.255272 
L 325.795409 202.899668 
L 326.811988 197.576497 
L 327.828566 209.490648 
L 328.845145 249.750346 
L 329.861723 176.809358 
L 330.878302 186.638939 
L 331.894881 151.596761 
L 332.911459 170.784558 
L 333.928038 227.072012 
L 334.944617 171.281658 
L 335.961195 170.515013 
L 336.977774 218.011785 
L 337.994352 166.394635 
L 339.010931 168.588919 
L 340.02751 219.167171 
L 341.044088 165.583291 
L 342.060667 164.223377 
L 343.077245 192.20321 
L 344.093824 142.403794 
L 345.110403 178.352129 
L 346.126981 141.689974 
L 347.14356 164.973768 
L 348.160138 195.945684 
L 349.176717 238.411856 
L 350.193296 157.846408 
L 351.209874 190.235127 
L 352.226453 198.133195 
L 353.243032 186.942346 
L 354.25961 128.911655 
L 355.276189 204.632069 
L 356.292767 199.803289 
L 357.309346 166.199587 
L 358.325925 208.144279 
L 359.342503 150.498264 
L 360.359082 248.087024 
L 361.37566 180.467853 
L 362.392239 121.736887 
L 363.408818 203.931795 
L 364.425396 220.158662 
L 365.441975 140.823096 
L 366.458553 160.728776 
L 367.475132 207.57539 
L 368.491711 175.30993 
L 369.508289 195.439102 
L 370.524868 224.390109 
L 371.541447 148.601969 
L 372.558025 182.567322 
L 373.574604 187.607404 
L 374.591182 228.930381 
L 375.607761 150.119005 
L 376.62434 180.312086 
L 377.640918 130.589876 
L 378.657497 132.199017 
L 379.674075 215.309565 
L 380.690654 111.133889 
L 381.707233 122.913944 
L 382.723811 132.320922 
L 383.74039 134.78746 
L 384.756968 107.235648 
L 385.773547 209.184532 
L 386.790126 143.014672 
L 387.806704 210.111007 
L 388.823283 136.223226 
L 389.839862 209.907833 
L 390.85644 222.680734 
L 391.873019 169.640008 
L 392.889597 198.811798 
L 393.906176 207.565909 
L 394.922755 195.462128 
L 395.939333 210.841081 
L 396.955912 173.49626 
L 397.97249 192.738236 
L 398.989069 182.429164 
L 400.005648 72.458952 
L 401.022226 163.765557 
L 403.055383 153.071808 
L 404.071962 180.172573 
L 405.088541 179.458753 
L 406.105119 187.14552 
L 407.121698 175.859856 
L 408.138277 199.582507 
L 409.154855 206.143687 
L 410.171434 221.435952 
L 411.188012 201.020982 
L 412.204591 215.363745 
L 413.22117 171.685298 
L 414.237748 218.931488 
L 415.254327 141.016789 
L 416.270905 179.544086 
L 417.287484 206.319772 
L 418.304063 128.808713 
L 419.320641 131.001643 
L 420.33722 126.881264 
L 421.353799 142.119349 
L 422.370377 178.944044 
L 423.386956 171.400854 
L 424.403534 181.945608 
L 425.420113 115.938288 
L 426.436692 192.506617 
L 427.45327 193.400585 
L 428.469849 172.286694 
L 429.486427 254.940776 
L 430.503006 148.103515 
L 431.519585 165.30562 
L 432.536163 222.470787 
L 433.552742 187.836313 
L 434.56932 121.774813 
L 435.585899 215.855427 
L 436.602478 147.660594 
L 437.619056 151.16874 
L 438.635635 156.283319 
L 439.652214 105.45584 
L 440.668792 191.081687 
L 441.685371 202.273891 
L 442.701949 161.254321 
L 443.718528 210.740848 
L 444.735107 152.910623 
L 445.751685 176.403009 
L 446.768264 76.54005 
L 447.784842 199.208666 
L 448.801421 181.917164 
L 449.818 198.674994 
L 450.834578 203.628387 
L 451.851157 176.388109 
L 452.867735 188.502726 
L 453.884314 206.426777 
L 454.900893 193.280035 
L 455.917471 210.436087 
L 456.93405 163.227822 
L 457.950629 180.010033 
L 458.967207 182.209735 
L 459.983786 123.341965 
L 461.000364 225.503505 
L 462.016943 157.058091 
L 463.033522 180.600593 
L 464.0501 192.824924 
L 465.066679 232.797468 
L 466.083257 183.883893 
L 467.099836 172.596874 
L 468.116415 187.062896 
L 469.132993 194.398849 
L 470.149572 199.390168 
L 471.16615 167.544602 
L 472.182729 122.932907 
L 473.199308 200.783945 
L 474.215886 205.119688 
L 475.232465 171.865446 
L 476.249044 144.356978 
L 477.265622 230.295713 
L 478.282201 205.241593 
L 479.298779 166.837555 
L 480.315358 180.405546 
L 481.331937 137.039988 
L 482.348515 183.378666 
L 483.365094 137.921765 
L 484.381672 151.850052 
L 485.398251 197.837915 
L 486.41483 156.680186 
L 487.431408 189.427847 
L 488.447987 161.273284 
L 489.464565 137.323078 
L 490.481144 142.2399 
L 491.497723 174.781677 
L 492.514301 101.670022 
L 493.53088 155.043954 
L 494.547459 226.638573 
L 495.564037 216.454114 
L 496.580616 153.242474 
L 497.597194 198.897131 
L 498.613773 126.050958 
L 499.630352 178.155727 
L 500.64693 196.824752 
L 501.663509 178.381928 
L 502.680087 189.649984 
L 503.696666 202.986356 
L 504.713245 170.665362 
L 505.729823 115.693124 
L 506.746402 223.236078 
L 507.762981 222.961115 
L 508.779559 124.542049 
L 509.796138 159.394597 
L 510.812716 187.406938 
L 511.829295 128.214089 
L 512.845874 170.55023 
L 513.862452 153.99422 
L 514.879031 153.395532 
L 515.895609 175.465697 
L 516.912188 208.056236 
L 517.928767 55.8 
L 518.945345 164.13398 
L 519.961924 144.611623 
L 520.978502 128.818194 
L 521.995081 138.402611 
L 523.01166 143.874777 
L 524.028238 201.290527 
L 525.044817 142.892767 
L 526.061396 160.731485 
L 527.077974 158.799973 
L 528.094553 185.449691 
L 529.111131 155.591171 
L 530.12771 168.353237 
L 531.144289 201.923076 
L 532.160867 190.900184 
L 533.177446 158.912396 
L 534.194024 160.11248 
L 535.210603 176.692871 
L 536.227182 140.699837 
L 537.24376 82.870966 
L 538.260339 196.081133 
L 539.276917 183.942136 
L 540.293496 144.170057 
L 541.310075 186.117457 
L 542.326653 138.27258 
L 543.343232 190.163338 
L 544.359811 197.148476 
L 545.376389 194.267463 
L 546.392968 62.099763 
L 547.409546 191.535443 
L 548.426125 192.177475 
L 549.442704 96.005518 
L 550.459282 237.068196 
L 551.475861 201.407013 
L 552.492439 158.484375 
L 553.509018 150.408868 
L 554.525597 157.468503 
L 555.542175 178.32233 
L 556.558754 176.29194 
L 557.575332 165.882635 
L 558.591911 186.762198 
L 559.60849 180.725207 
L 560.625068 147.079515 
L 561.641647 202.363288 
L 562.658226 143.792153 
L 563.674804 187.022261 
L 564.691383 190.989581 
L 565.707961 181.013715 
L 566.72454 113.590945 
L 567.741119 199.774845 
L 568.757697 198.485364 
L 569.774276 106.249575 
L 570.790854 164.077091 
L 571.807433 200.965447 
L 572.824012 142.046207 
L 573.84059 188.914493 
L 574.857169 163.118108 
L 575.873747 157.121752 
L 576.890326 195.543398 
L 577.906905 208.19304 
L 578.923483 212.572127 
L 579.940062 193.54687 
L 580.956641 191.187338 
L 581.973219 157.352016 
L 582.989798 189.693328 
L 584.006376 78.844048 
L 585.022955 128.131465 
L 586.039534 163.626044 
L 587.056112 204.973402 
L 588.072691 233.918991 
L 589.089269 208.744321 
L 590.105848 214.587618 
L 591.122427 131.455399 
L 592.139005 162.11578 
L 593.155584 215.355618 
L 594.172163 162.715822 
L 595.188741 145.666776 
L 596.20532 231.121956 
L 597.221898 173.402799 
L 598.238477 125.242324 
L 599.255056 171.589129 
L 600.271634 167.785703 
L 601.288213 201.0264 
L 602.304791 182.652656 
L 603.32137 193.657939 
L 604.337949 213.635407 
L 606.371106 135.239862 
L 607.387684 199.127396 
L 608.404263 178.186881 
L 609.420842 165.02253 
L 610.43742 132.639229 
L 611.453999 173.806439 
L 612.470578 106.445977 
L 613.487156 215.649543 
L 614.503735 168.576728 
L 615.520313 215.12129 
L 616.536892 196.580942 
L 617.553471 215.923152 
L 618.570049 206.438968 
L 619.586628 149.016445 
L 620.603206 193.846214 
L 621.619785 222.279803 
L 622.636364 117.562329 
L 622.636364 117.562329 
" clip-path="url(#pae90a71e93)" style="fill: none; stroke: #1f77b4; stroke-width: 1.5; stroke-linecap: square"/>
   </g>
   <g id="line2d_24">
    <path d="M 115.363636 279.421945 
L 116.380215 284.884629 
L 117.396794 291.368604 
L 118.413372 292.846359 
L 119.429951 291.12344 
L 120.446529 297.941975 
L 121.463108 289.72289 
L 122.479687 299.972365 
L 123.496265 288.939992 
L 124.512844 299.253127 
L 126.546001 282.347657 
L 127.56258 292.678402 
L 128.579158 292.993999 
L 129.595737 281.436081 
L 130.612316 298.253509 
L 131.628894 290.940583 
L 132.645473 287.501516 
L 133.662051 288.843822 
L 134.67863 295.509299 
L 135.695209 296.981637 
L 136.711787 294.794125 
L 137.728366 290.714382 
L 138.744944 299.517254 
L 139.761523 291.000181 
L 140.778102 288.644711 
L 141.79468 302.507982 
L 142.811259 283.798323 
L 143.827837 292.706846 
L 145.860995 303.634923 
L 146.877573 292.423756 
L 147.894152 284.623211 
L 148.910731 289.503462 
L 149.927309 297.069679 
L 150.943888 297.042589 
L 151.960466 288.937283 
L 152.977045 288.789642 
L 153.993624 292.197555 
L 155.010202 286.835104 
L 156.026781 290.100795 
L 157.043359 288.663674 
L 158.059938 302.360342 
L 159.076517 280.612547 
L 160.093095 289.99379 
L 161.109674 295.670484 
L 162.126253 286.828332 
L 163.142831 288.040606 
L 164.15941 287.333559 
L 165.175988 298.617869 
L 166.192567 289.162129 
L 167.209146 298.460747 
L 168.225724 300.718693 
L 169.242303 293.119968 
L 170.258881 303.829971 
L 171.27546 290.570805 
L 172.292039 295.758527 
L 173.308617 288.48759 
L 174.325196 292.542952 
L 175.341774 293.718655 
L 176.358353 300.19992 
L 177.374932 291.426847 
L 178.39151 291.762762 
L 179.408089 294.314633 
L 180.424668 284.795232 
L 181.441246 292.456264 
L 182.457825 292.331651 
L 183.474403 288.448309 
L 184.490982 302.432131 
L 185.507561 291.288688 
L 186.524139 293.46401 
L 187.540718 294.315988 
L 188.557296 290.378467 
L 189.573875 292.788116 
L 190.590454 294.305152 
L 191.607032 277.147745 
L 192.623611 303.313908 
L 193.640189 296.107987 
L 194.656768 290.973091 
L 195.673347 294.787353 
L 196.689925 296.411394 
L 197.706504 287.655929 
L 198.723083 290.317514 
L 199.739661 291.341514 
L 200.75624 289.040224 
L 201.772818 301.7752 
L 202.789397 295.9915 
L 203.805976 281.620293 
L 204.822554 301.057317 
L 205.839133 285.6892 
L 206.855711 294.69931 
L 207.87229 298.2657 
L 208.888869 290.909429 
L 209.905447 288.644711 
L 210.922026 296.595605 
L 211.938604 290.578932 
L 212.955183 297.020917 
L 213.971762 287.292924 
L 214.98834 296.175712 
L 216.004919 292.207037 
L 217.021498 293.877131 
L 218.038076 292.603904 
L 219.054655 290.089959 
L 220.071233 294.363395 
L 221.087812 297.755054 
L 222.104391 292.226 
L 223.120969 295.162548 
L 224.137548 286.58994 
L 226.170705 293.014317 
L 227.187284 297.909467 
L 228.203862 288.950827 
L 230.237019 296.145913 
L 231.253598 294.213046 
L 232.270177 281.49297 
L 233.286755 295.782908 
L 234.303334 288.213981 
L 235.319913 297.397467 
L 236.336491 286.206618 
L 237.35307 294.821215 
L 238.369648 293.415248 
L 239.386227 298.733001 
L 241.419384 290.140075 
L 242.435963 289.460118 
L 243.452541 287.024734 
L 244.46912 297.589806 
L 245.485699 289.305706 
L 246.502277 292.965555 
L 247.518856 283.096694 
L 248.535435 298.905022 
L 249.552013 292.743418 
L 250.568592 295.595987 
L 251.58517 299.217911 
L 252.601749 294.038316 
L 253.618328 294.934993 
L 254.634906 288.598658 
L 256.668063 290.43671 
L 257.684642 296.479119 
L 258.701221 294.001745 
L 259.717799 284.872439 
L 260.734378 287.706045 
L 261.750956 291.346932 
L 262.767535 295.931902 
L 263.784114 289.335504 
L 264.800692 295.42532 
L 265.817271 281.037859 
L 266.83385 295.849278 
L 267.850428 286.274343 
L 268.867007 296.349087 
L 269.883585 291.546043 
L 270.900164 289.779779 
L 271.916743 290.046615 
L 272.933321 295.62714 
L 273.9499 302.833062 
L 274.966478 295.969828 
L 275.983057 293.205301 
L 276.999636 297.696811 
L 278.016214 291.277852 
L 279.032793 299.765127 
L 280.049371 293.633322 
L 281.06595 294.179184 
L 282.082529 294.19002 
L 283.099107 299.896513 
L 284.115686 296.938293 
L 285.132265 286.102321 
L 286.148843 290.876921 
L 287.165422 301.912004 
L 288.182 299.370969 
L 289.198579 277.3902 
L 290.215158 293.546634 
L 291.231736 287.787315 
L 292.248315 299.257191 
L 293.264893 294.347141 
L 294.281472 292.415629 
L 295.298051 289.638912 
L 296.314629 297.611478 
L 297.331208 291.180329 
L 298.347786 293.492454 
L 299.364365 291.93072 
L 300.380944 287.597686 
L 301.397522 282.552186 
L 302.414101 295.176093 
L 303.43068 288.547188 
L 304.447258 295.430738 
L 305.463837 294.225237 
L 306.480415 285.679719 
L 307.496994 288.020288 
L 308.513573 298.424176 
L 309.530151 292.077005 
L 310.54673 307.8 
L 311.563308 284.822322 
L 312.579887 293.514126 
L 313.596466 298.226419 
L 314.613044 287.960691 
L 315.629623 293.626549 
L 316.646201 296.54278 
L 317.66278 298.80208 
L 318.679359 293.35565 
L 319.695937 299.159667 
L 320.712516 287.347104 
L 321.729095 298.000218 
L 322.745673 290.649366 
L 323.762252 292.987227 
L 324.77883 291.433619 
L 325.795409 290.264689 
L 327.828566 290.772625 
L 328.845145 286.163274 
L 329.861723 296.416812 
L 330.878302 290.286361 
L 332.911459 293.352941 
L 333.928038 296.113405 
L 334.944617 290.045261 
L 335.961195 301.005846 
L 336.977774 287.203527 
L 337.994352 297.020917 
L 339.010931 294.385067 
L 340.02751 282.938218 
L 341.044088 292.933047 
L 342.060667 293.488391 
L 343.077245 288.415801 
L 344.093824 302.828998 
L 345.110403 287.076204 
L 346.126981 286.64412 
L 347.14356 282.05915 
L 348.160138 287.601749 
L 349.176717 295.822188 
L 350.193296 293.358359 
L 351.209874 298.23861 
L 352.226453 279.476125 
L 353.243032 293.073915 
L 354.25961 280.664018 
L 355.276189 292.282889 
L 356.292767 296.829933 
L 357.309346 294.456856 
L 358.325925 292.66892 
L 359.342503 287.093813 
L 360.359082 295.453765 
L 361.37566 293.352941 
L 362.392239 298.080134 
L 363.408818 279.650855 
L 364.425396 295.432093 
L 365.441975 288.842468 
L 366.458553 291.715355 
L 367.475132 290.317514 
L 368.491711 293.195819 
L 369.508289 290.593832 
L 370.524868 297.978546 
L 371.541447 294.785998 
L 372.558025 277.800613 
L 373.574604 293.264899 
L 374.591182 293.027862 
L 375.607761 290.317514 
L 376.62434 293.730845 
L 377.640918 293.499227 
L 378.657497 286.55066 
L 379.674075 290.224054 
L 380.690654 286.057623 
L 381.707233 288.059569 
L 382.723811 288.486235 
L 383.74039 294.960728 
L 384.756968 296.216346 
L 385.773547 280.116802 
L 386.790126 298.646313 
L 387.806704 283.237561 
L 388.823283 294.348496 
L 389.839862 293.850041 
L 390.85644 296.7446 
L 391.873019 290.056097 
L 392.889597 298.397086 
L 393.906176 291.146466 
L 394.922755 294.651903 
L 395.939333 289.896266 
L 396.955912 288.818087 
L 398.989069 294.523226 
L 401.022226 289.820414 
L 402.038805 295.861468 
L 403.055383 294.001745 
L 404.071962 298.256218 
L 405.088541 295.13004 
L 406.105119 291.570424 
L 407.121698 298.043562 
L 408.138277 286.243189 
L 409.154855 293.06037 
L 410.171434 303.500828 
L 411.188012 293.4762 
L 412.204591 305.578626 
L 413.22117 295.497109 
L 414.237748 295.230273 
L 415.254327 295.269553 
L 416.270905 291.493217 
L 417.287484 284.676037 
L 418.304063 295.774781 
L 419.320641 296.628113 
L 420.33722 300.718693 
L 421.353799 279.42059 
L 422.370377 293.022444 
L 423.386956 298.84407 
L 424.403534 292.234127 
L 425.420113 295.773426 
L 426.436692 287.31595 
L 427.45327 299.571434 
L 428.469849 292.007926 
L 429.486427 297.438102 
L 430.503006 298.276535 
L 431.519585 294.937702 
L 432.536163 293.366486 
L 433.552742 295.177448 
L 434.56932 294.749427 
L 435.585899 287.095167 
L 436.602478 302.357633 
L 437.619056 296.495373 
L 438.635635 292.407502 
L 439.652214 285.121666 
L 440.668792 293.748454 
L 441.685371 286.612967 
L 442.701949 294.157512 
L 443.718528 291.374022 
L 444.735107 298.926694 
L 445.751685 293.282507 
L 446.768264 288.422574 
L 447.784842 286.178173 
L 448.801421 295.383331 
L 449.818 291.462064 
L 450.834578 289.808224 
L 451.851157 284.795232 
L 452.867735 292.746127 
L 453.884314 291.33745 
L 454.900893 294.991882 
L 455.917471 293.214782 
L 456.93405 289.852922 
L 457.950629 300.438312 
L 458.967207 295.800516 
L 459.983786 296.137786 
L 462.016943 290.989345 
L 463.033522 296.548198 
L 464.0501 297.837679 
L 466.083257 292.927629 
L 467.099836 299.421085 
L 468.116415 284.216862 
L 469.132993 287.353876 
L 470.149572 299.571434 
L 471.16615 288.568859 
L 472.182729 285.620121 
L 474.215886 291.758699 
L 475.232465 289.461473 
L 476.249044 297.555943 
L 477.265622 285.435909 
L 478.282201 301.711538 
L 479.298779 293.459946 
L 480.315358 286.92721 
L 481.331937 294.922802 
L 482.348515 282.728271 
L 483.365094 292.597132 
L 484.381672 282.558959 
L 485.398251 295.633913 
L 486.41483 285.603867 
L 488.447987 291.688265 
L 489.464565 287.045051 
L 490.481144 293.333978 
L 491.497723 283.906683 
L 492.514301 297.809234 
L 493.53088 292.488772 
L 494.547459 283.664228 
L 495.564037 298.957847 
L 496.580616 298.914503 
L 497.597194 281.799086 
L 498.613773 292.995354 
L 499.630352 290.042552 
L 500.64693 295.887204 
L 501.663509 290.633112 
L 502.680087 291.134276 
L 503.696666 294.154803 
L 504.713245 290.467863 
L 505.729823 297.356832 
L 506.746402 281.696145 
L 507.762981 289.032097 
L 508.779559 278.831385 
L 509.796138 278.74876 
L 510.812716 289.598277 
L 512.845874 299.385868 
L 513.862452 280.710071 
L 514.879031 301.397295 
L 515.895609 291.514889 
L 516.912188 292.582232 
L 517.928767 299.874841 
L 518.945345 290.897239 
L 519.961924 302.969866 
L 521.995081 288.746299 
L 523.01166 285.131148 
L 524.028238 287.202173 
L 525.044817 295.251945 
L 526.061396 283.573477 
L 528.094553 297.035817 
L 529.111131 291.700455 
L 530.12771 293.389512 
L 531.144289 295.302061 
L 532.160867 291.157302 
L 533.177446 294.829342 
L 534.194024 287.455463 
L 535.210603 300.092915 
L 536.227182 288.942701 
L 537.24376 289.302997 
L 538.260339 287.213009 
L 539.276917 306.152932 
L 540.293496 295.468664 
L 541.310075 301.233401 
L 542.326653 292.949301 
L 543.343232 299.440048 
L 544.359811 300.99501 
L 545.376389 293.702401 
L 546.392968 297.787562 
L 547.409546 284.218217 
L 548.426125 287.326786 
L 549.442704 293.818888 
L 550.459282 277.288613 
L 551.475861 291.304942 
L 552.492439 296.342315 
L 553.509018 287.695209 
L 554.525597 287.62613 
L 555.542175 294.650549 
L 556.558754 287.783252 
L 557.575332 300.011645 
L 558.591911 294.230655 
L 559.60849 285.802978 
L 560.625068 290.967673 
L 561.641647 287.928183 
L 562.658226 295.42532 
L 563.674804 286.569623 
L 564.691383 294.314633 
L 565.707961 289.760816 
L 566.72454 288.350786 
L 567.741119 292.181301 
L 568.757697 298.649022 
L 569.774276 297.973128 
L 570.790854 289.251526 
L 571.807433 293.835142 
L 572.824012 289.674129 
L 573.84059 290.733345 
L 574.857169 296.714801 
L 575.873747 292.41292 
L 576.890326 289.554933 
L 577.906905 287.760225 
L 578.923483 292.630994 
L 579.940062 289.194637 
L 580.956641 297.989382 
L 581.973219 292.169111 
L 582.989798 278.859829 
L 584.006376 287.076204 
L 585.022955 290.920265 
L 586.039534 294.09385 
L 587.056112 288.746299 
L 588.072691 297.779435 
L 589.089269 298.838652 
L 590.105848 288.605431 
L 591.122427 293.335332 
L 592.139005 294.615332 
L 593.155584 293.400348 
L 594.172163 296.233955 
L 595.188741 282.338176 
L 596.20532 285.262534 
L 597.221898 285.174491 
L 598.238477 292.540243 
L 599.255056 291.509471 
L 600.271634 287.42431 
L 601.288213 282.038832 
L 602.304791 289.69851 
L 603.32137 293.090169 
L 604.337949 292.654021 
L 605.354527 286.420628 
L 606.371106 294.769744 
L 607.387684 281.664991 
L 608.404263 302.350861 
L 609.420842 284.054323 
L 610.43742 297.538335 
L 611.453999 278.506305 
L 612.470578 298.877932 
L 613.487156 297.557298 
L 614.503735 299.849106 
L 615.520313 298.565043 
L 616.536892 291.979482 
L 617.553471 302.161231 
L 618.570049 301.244237 
L 619.586628 291.451228 
L 620.603206 296.071415 
L 621.619785 296.40733 
L 622.636364 297.278272 
L 622.636364 297.278272 
" clip-path="url(#pae90a71e93)" style="fill: none; stroke: #ff7f0e; stroke-width: 1.5; stroke-linecap: square"/>
   </g>
   <g id="patch_3">
    <path d="M 90 320.4 
L 90 43.2 
" style="fill: none; stroke: #000000; stroke-width: 0.8; stroke-linejoin: miter; stroke-linecap: square"/>
   </g>
   <g id="patch_4">
    <path d="M 648 320.4 
L 648 43.2 
" style="fill: none; stroke: #000000; stroke-width: 0.8; stroke-linejoin: miter; stroke-linecap: square"/>
   </g>
   <g id="patch_5">
    <path d="M 90 320.4 
L 648 320.4 
" style="fill: none; stroke: #000000; stroke-width: 0.8; stroke-linejoin: miter; stroke-linecap: square"/>
   </g>
   <g id="patch_6">
    <path d="M 90 43.2 
L 648 43.2 
" style="fill: none; stroke: #000000; stroke-width: 0.8; stroke-linejoin: miter; stroke-linecap: square"/>
   </g>
   <g id="text_14">
    <!-- model train and validation loss over time -->
    <g transform="translate(245.555625 37.2) scale(0.12 -0.12)">
     <defs>
      <path id="DejaVuSans-6d" d="M 3328 2828 
Q 3544 3216 3844 3400 
Q 4144 3584 4550 3584 
Q 5097 3584 5394 3201 
Q 5691 2819 5691 2113 
L 5691 0 
L 5113 0 
L 5113 2094 
Q 5113 2597 4934 2840 
Q 4756 3084 4391 3084 
Q 3944 3084 3684 2787 
Q 3425 2491 3425 1978 
L 3425 0 
L 2847 0 
L 2847 2094 
Q 2847 2600 2669 2842 
Q 2491 3084 2119 3084 
Q 1678 3084 1418 2786 
Q 1159 2488 1159 1978 
L 1159 0 
L 581 0 
L 581 3500 
L 1159 3500 
L 1159 2956 
Q 1356 3278 1631 3431 
Q 1906 3584 2284 3584 
Q 2666 3584 2933 3390 
Q 3200 3197 3328 2828 
z
" transform="scale(0.015625)"/>
      <path id="DejaVuSans-64" d="M 2906 2969 
L 2906 4863 
L 3481 4863 
L 3481 0 
L 2906 0 
L 2906 525 
Q 2725 213 2448 61 
Q 2172 -91 1784 -91 
Q 1150 -91 751 415 
Q 353 922 353 1747 
Q 353 2572 751 3078 
Q 1150 3584 1784 3584 
Q 2172 3584 2448 3432 
Q 2725 3281 2906 2969 
z
M 947 1747 
Q 947 1113 1208 752 
Q 1469 391 1925 391 
Q 2381 391 2643 752 
Q 2906 1113 2906 1747 
Q 2906 2381 2643 2742 
Q 2381 3103 1925 3103 
Q 1469 3103 1208 2742 
Q 947 2381 947 1747 
z
" transform="scale(0.015625)"/>
      <path id="DejaVuSans-20" transform="scale(0.015625)"/>
      <path id="DejaVuSans-74" d="M 1172 4494 
L 1172 3500 
L 2356 3500 
L 2356 3053 
L 1172 3053 
L 1172 1153 
Q 1172 725 1289 603 
Q 1406 481 1766 481 
L 2356 481 
L 2356 0 
L 1766 0 
Q 1100 0 847 248 
Q 594 497 594 1153 
L 594 3053 
L 172 3053 
L 172 3500 
L 594 3500 
L 594 4494 
L 1172 4494 
z
" transform="scale(0.015625)"/>
      <path id="DejaVuSans-72" d="M 2631 2963 
Q 2534 3019 2420 3045 
Q 2306 3072 2169 3072 
Q 1681 3072 1420 2755 
Q 1159 2438 1159 1844 
L 1159 0 
L 581 0 
L 581 3500 
L 1159 3500 
L 1159 2956 
Q 1341 3275 1631 3429 
Q 1922 3584 2338 3584 
Q 2397 3584 2469 3576 
Q 2541 3569 2628 3553 
L 2631 2963 
z
" transform="scale(0.015625)"/>
      <path id="DejaVuSans-61" d="M 2194 1759 
Q 1497 1759 1228 1600 
Q 959 1441 959 1056 
Q 959 750 1161 570 
Q 1363 391 1709 391 
Q 2188 391 2477 730 
Q 2766 1069 2766 1631 
L 2766 1759 
L 2194 1759 
z
M 3341 1997 
L 3341 0 
L 2766 0 
L 2766 531 
Q 2569 213 2275 61 
Q 1981 -91 1556 -91 
Q 1019 -91 701 211 
Q 384 513 384 1019 
Q 384 1609 779 1909 
Q 1175 2209 1959 2209 
L 2766 2209 
L 2766 2266 
Q 2766 2663 2505 2880 
Q 2244 3097 1772 3097 
Q 1472 3097 1187 3025 
Q 903 2953 641 2809 
L 641 3341 
Q 956 3463 1253 3523 
Q 1550 3584 1831 3584 
Q 2591 3584 2966 3190 
Q 3341 2797 3341 1997 
z
" transform="scale(0.015625)"/>
      <path id="DejaVuSans-69" d="M 603 3500 
L 1178 3500 
L 1178 0 
L 603 0 
L 603 3500 
z
M 603 4863 
L 1178 4863 
L 1178 4134 
L 603 4134 
L 603 4863 
z
" transform="scale(0.015625)"/>
      <path id="DejaVuSans-6e" d="M 3513 2113 
L 3513 0 
L 2938 0 
L 2938 2094 
Q 2938 2591 2744 2837 
Q 2550 3084 2163 3084 
Q 1697 3084 1428 2787 
Q 1159 2491 1159 1978 
L 1159 0 
L 581 0 
L 581 3500 
L 1159 3500 
L 1159 2956 
Q 1366 3272 1645 3428 
Q 1925 3584 2291 3584 
Q 2894 3584 3203 3211 
Q 3513 2838 3513 2113 
z
" transform="scale(0.015625)"/>
      <path id="DejaVuSans-76" d="M 191 3500 
L 800 3500 
L 1894 563 
L 2988 3500 
L 3597 3500 
L 2284 0 
L 1503 0 
L 191 3500 
z
" transform="scale(0.015625)"/>
     </defs>
     <use xlink:href="#DejaVuSans-6d"/>
     <use xlink:href="#DejaVuSans-6f" x="97.412109"/>
     <use xlink:href="#DejaVuSans-64" x="158.59375"/>
     <use xlink:href="#DejaVuSans-65" x="222.070312"/>
     <use xlink:href="#DejaVuSans-6c" x="283.59375"/>
     <use xlink:href="#DejaVuSans-20" x="311.376953"/>
     <use xlink:href="#DejaVuSans-74" x="343.164062"/>
     <use xlink:href="#DejaVuSans-72" x="382.373047"/>
     <use xlink:href="#DejaVuSans-61" x="423.486328"/>
     <use xlink:href="#DejaVuSans-69" x="484.765625"/>
     <use xlink:href="#DejaVuSans-6e" x="512.548828"/>
     <use xlink:href="#DejaVuSans-20" x="575.927734"/>
     <use xlink:href="#DejaVuSans-61" x="607.714844"/>
     <use xlink:href="#DejaVuSans-6e" x="668.994141"/>
     <use xlink:href="#DejaVuSans-64" x="732.373047"/>
     <use xlink:href="#DejaVuSans-20" x="795.849609"/>
     <use xlink:href="#DejaVuSans-76" x="827.636719"/>
     <use xlink:href="#DejaVuSans-61" x="886.816406"/>
     <use xlink:href="#DejaVuSans-6c" x="948.095703"/>
     <use xlink:href="#DejaVuSans-69" x="975.878906"/>
     <use xlink:href="#DejaVuSans-64" x="1003.662109"/>
     <use xlink:href="#DejaVuSans-61" x="1067.138672"/>
     <use xlink:href="#DejaVuSans-74" x="1128.417969"/>
     <use xlink:href="#DejaVuSans-69" x="1167.626953"/>
     <use xlink:href="#DejaVuSans-6f" x="1195.410156"/>
     <use xlink:href="#DejaVuSans-6e" x="1256.591797"/>
     <use xlink:href="#DejaVuSans-20" x="1319.970703"/>
     <use xlink:href="#DejaVuSans-6c" x="1351.757812"/>
     <use xlink:href="#DejaVuSans-6f" x="1379.541016"/>
     <use xlink:href="#DejaVuSans-73" x="1440.722656"/>
     <use xlink:href="#DejaVuSans-73" x="1492.822266"/>
     <use xlink:href="#DejaVuSans-20" x="1544.921875"/>
     <use xlink:href="#DejaVuSans-6f" x="1576.708984"/>
     <use xlink:href="#DejaVuSans-76" x="1637.890625"/>
     <use xlink:href="#DejaVuSans-65" x="1697.070312"/>
     <use xlink:href="#DejaVuSans-72" x="1758.59375"/>
     <use xlink:href="#DejaVuSans-20" x="1799.707031"/>
     <use xlink:href="#DejaVuSans-74" x="1831.494141"/>
     <use xlink:href="#DejaVuSans-69" x="1870.703125"/>
     <use xlink:href="#DejaVuSans-6d" x="1898.486328"/>
     <use xlink:href="#DejaVuSans-65" x="1995.898438"/>
    </g>
   </g>
   <g id="legend_1">
    <g id="patch_7">
     <path d="M 97 80.55625 
L 178.234375 80.55625 
Q 180.234375 80.55625 180.234375 78.55625 
L 180.234375 50.2 
Q 180.234375 48.2 178.234375 48.2 
L 97 48.2 
Q 95 48.2 95 50.2 
L 95 78.55625 
Q 95 80.55625 97 80.55625 
z
" style="fill: #ffffff; opacity: 0.8; stroke: #cccccc; stroke-linejoin: miter"/>
    </g>
    <g id="line2d_25">
     <path d="M 99 56.298437 
L 109 56.298437 
L 119 56.298437 
" style="fill: none; stroke: #1f77b4; stroke-width: 1.5; stroke-linecap: square"/>
    </g>
    <g id="text_15">
     <!-- train -->
     <g transform="translate(127 59.798437) scale(0.1 -0.1)">
      <use xlink:href="#DejaVuSans-74"/>
      <use xlink:href="#DejaVuSans-72" x="39.208984"/>
      <use xlink:href="#DejaVuSans-61" x="80.322266"/>
      <use xlink:href="#DejaVuSans-69" x="141.601562"/>
      <use xlink:href="#DejaVuSans-6e" x="169.384766"/>
     </g>
    </g>
    <g id="line2d_26">
     <path d="M 99 70.976562 
L 109 70.976562 
L 119 70.976562 
" style="fill: none; stroke: #ff7f0e; stroke-width: 1.5; stroke-linecap: square"/>
    </g>
    <g id="text_16">
     <!-- validation -->
     <g transform="translate(127 74.476562) scale(0.1 -0.1)">
      <use xlink:href="#DejaVuSans-76"/>
      <use xlink:href="#DejaVuSans-61" x="59.179688"/>
      <use xlink:href="#DejaVuSans-6c" x="120.458984"/>
      <use xlink:href="#DejaVuSans-69" x="148.242188"/>
      <use xlink:href="#DejaVuSans-64" x="176.025391"/>
      <use xlink:href="#DejaVuSans-61" x="239.501953"/>
      <use xlink:href="#DejaVuSans-74" x="300.78125"/>
      <use xlink:href="#DejaVuSans-69" x="339.990234"/>
      <use xlink:href="#DejaVuSans-6f" x="367.773438"/>
      <use xlink:href="#DejaVuSans-6e" x="428.955078"/>
     </g>
    </g>
   </g>
  </g>
 </g>
 <defs>
  <clipPath id="pae90a71e93">
   <rect x="90" y="43.2" width="558" height="277.2"/>
  </clipPath>
 </defs>
</svg>
