<?xml version="1.0" encoding="utf-8" standalone="no"?>
<!DOCTYPE svg PUBLIC "-//W3C//DTD SVG 1.1//EN"
  "http://www.w3.org/Graphics/SVG/1.1/DTD/svg11.dtd">
<svg xmlns:xlink="http://www.w3.org/1999/xlink" width="720pt" height="360pt" viewBox="0 0 720 360" xmlns="http://www.w3.org/2000/svg" version="1.1">
 <metadata>
  <rdf:RDF xmlns:dc="http://purl.org/dc/elements/1.1/" xmlns:cc="http://creativecommons.org/ns#" xmlns:rdf="http://www.w3.org/1999/02/22-rdf-syntax-ns#">
   <cc:Work>
    <dc:type rdf:resource="http://purl.org/dc/dcmitype/StillImage"/>
    <dc:date>2023-05-24T11:21:57.433904</dc:date>
    <dc:format>image/svg+xml</dc:format>
    <dc:creator>
     <cc:Agent>
      <dc:title>Matplotlib v3.7.1, https://matplotlib.org/</dc:title>
     </cc:Agent>
    </dc:creator>
   </cc:Work>
  </rdf:RDF>
 </metadata>
 <defs>
  <style type="text/css">*{stroke-linejoin: round; stroke-linecap: butt}</style>
 </defs>
 <g id="figure_1">
  <g id="patch_1">
   <path d="M 0 360 
L 720 360 
L 720 0 
L 0 0 
z
" style="fill: #ffffff"/>
  </g>
  <g id="axes_1">
   <g id="patch_2">
    <path d="M 90 320.4 
L 648 320.4 
L 648 43.2 
L 90 43.2 
z
" style="fill: #ffffff"/>
   </g>
   <g id="matplotlib.axis_1">
    <g id="xtick_1">
     <g id="line2d_1">
      <path d="M 115.363636 320.4 
L 115.363636 43.2 
" clip-path="url(#pebb9df5432)" style="fill: none; stroke: #b0b0b0; stroke-width: 0.8; stroke-linecap: square"/>
     </g>
     <g id="line2d_2">
      <defs>
       <path id="m4529c9cfff" d="M 0 0 
L 0 3.5 
" style="stroke: #000000; stroke-width: 0.8"/>
      </defs>
      <g>
       <use xlink:href="#m4529c9cfff" x="115.363636" y="320.4" style="stroke: #000000; stroke-width: 0.8"/>
      </g>
     </g>
     <g id="text_1">
      <!-- 0 -->
      <g transform="translate(112.182386 334.998438) scale(0.1 -0.1)">
       <defs>
        <path id="DejaVuSans-30" d="M 2034 4250 
Q 1547 4250 1301 3770 
Q 1056 3291 1056 2328 
Q 1056 1369 1301 889 
Q 1547 409 2034 409 
Q 2525 409 2770 889 
Q 3016 1369 3016 2328 
Q 3016 3291 2770 3770 
Q 2525 4250 2034 4250 
z
M 2034 4750 
Q 2819 4750 3233 4129 
Q 3647 3509 3647 2328 
Q 3647 1150 3233 529 
Q 2819 -91 2034 -91 
Q 1250 -91 836 529 
Q 422 1150 422 2328 
Q 422 3509 836 4129 
Q 1250 4750 2034 4750 
z
" transform="scale(0.015625)"/>
       </defs>
       <use xlink:href="#DejaVuSans-30"/>
      </g>
     </g>
    </g>
    <g id="xtick_2">
     <g id="line2d_3">
      <path d="M 217.021498 320.4 
L 217.021498 43.2 
" clip-path="url(#pebb9df5432)" style="fill: none; stroke: #b0b0b0; stroke-width: 0.8; stroke-linecap: square"/>
     </g>
     <g id="line2d_4">
      <g>
       <use xlink:href="#m4529c9cfff" x="217.021498" y="320.4" style="stroke: #000000; stroke-width: 0.8"/>
      </g>
     </g>
     <g id="text_2">
      <!-- 100 -->
      <g transform="translate(207.477748 334.998438) scale(0.1 -0.1)">
       <defs>
        <path id="DejaVuSans-31" d="M 794 531 
L 1825 531 
L 1825 4091 
L 703 3866 
L 703 4441 
L 1819 4666 
L 2450 4666 
L 2450 531 
L 3481 531 
L 3481 0 
L 794 0 
L 794 531 
z
" transform="scale(0.015625)"/>
       </defs>
       <use xlink:href="#DejaVuSans-31"/>
       <use xlink:href="#DejaVuSans-30" x="63.623047"/>
       <use xlink:href="#DejaVuSans-30" x="127.246094"/>
      </g>
     </g>
    </g>
    <g id="xtick_3">
     <g id="line2d_5">
      <path d="M 318.679359 320.4 
L 318.679359 43.2 
" clip-path="url(#pebb9df5432)" style="fill: none; stroke: #b0b0b0; stroke-width: 0.8; stroke-linecap: square"/>
     </g>
     <g id="line2d_6">
      <g>
       <use xlink:href="#m4529c9cfff" x="318.679359" y="320.4" style="stroke: #000000; stroke-width: 0.8"/>
      </g>
     </g>
     <g id="text_3">
      <!-- 200 -->
      <g transform="translate(309.135609 334.998438) scale(0.1 -0.1)">
       <defs>
        <path id="DejaVuSans-32" d="M 1228 531 
L 3431 531 
L 3431 0 
L 469 0 
L 469 531 
Q 828 903 1448 1529 
Q 2069 2156 2228 2338 
Q 2531 2678 2651 2914 
Q 2772 3150 2772 3378 
Q 2772 3750 2511 3984 
Q 2250 4219 1831 4219 
Q 1534 4219 1204 4116 
Q 875 4013 500 3803 
L 500 4441 
Q 881 4594 1212 4672 
Q 1544 4750 1819 4750 
Q 2544 4750 2975 4387 
Q 3406 4025 3406 3419 
Q 3406 3131 3298 2873 
Q 3191 2616 2906 2266 
Q 2828 2175 2409 1742 
Q 1991 1309 1228 531 
z
" transform="scale(0.015625)"/>
       </defs>
       <use xlink:href="#DejaVuSans-32"/>
       <use xlink:href="#DejaVuSans-30" x="63.623047"/>
       <use xlink:href="#DejaVuSans-30" x="127.246094"/>
      </g>
     </g>
    </g>
    <g id="xtick_4">
     <g id="line2d_7">
      <path d="M 420.33722 320.4 
L 420.33722 43.2 
" clip-path="url(#pebb9df5432)" style="fill: none; stroke: #b0b0b0; stroke-width: 0.8; stroke-linecap: square"/>
     </g>
     <g id="line2d_8">
      <g>
       <use xlink:href="#m4529c9cfff" x="420.33722" y="320.4" style="stroke: #000000; stroke-width: 0.8"/>
      </g>
     </g>
     <g id="text_4">
      <!-- 300 -->
      <g transform="translate(410.79347 334.998438) scale(0.1 -0.1)">
       <defs>
        <path id="DejaVuSans-33" d="M 2597 2516 
Q 3050 2419 3304 2112 
Q 3559 1806 3559 1356 
Q 3559 666 3084 287 
Q 2609 -91 1734 -91 
Q 1441 -91 1130 -33 
Q 819 25 488 141 
L 488 750 
Q 750 597 1062 519 
Q 1375 441 1716 441 
Q 2309 441 2620 675 
Q 2931 909 2931 1356 
Q 2931 1769 2642 2001 
Q 2353 2234 1838 2234 
L 1294 2234 
L 1294 2753 
L 1863 2753 
Q 2328 2753 2575 2939 
Q 2822 3125 2822 3475 
Q 2822 3834 2567 4026 
Q 2313 4219 1838 4219 
Q 1578 4219 1281 4162 
Q 984 4106 628 3988 
L 628 4550 
Q 988 4650 1302 4700 
Q 1616 4750 1894 4750 
Q 2613 4750 3031 4423 
Q 3450 4097 3450 3541 
Q 3450 3153 3228 2886 
Q 3006 2619 2597 2516 
z
" transform="scale(0.015625)"/>
       </defs>
       <use xlink:href="#DejaVuSans-33"/>
       <use xlink:href="#DejaVuSans-30" x="63.623047"/>
       <use xlink:href="#DejaVuSans-30" x="127.246094"/>
      </g>
     </g>
    </g>
    <g id="xtick_5">
     <g id="line2d_9">
      <path d="M 521.995081 320.4 
L 521.995081 43.2 
" clip-path="url(#pebb9df5432)" style="fill: none; stroke: #b0b0b0; stroke-width: 0.8; stroke-linecap: square"/>
     </g>
     <g id="line2d_10">
      <g>
       <use xlink:href="#m4529c9cfff" x="521.995081" y="320.4" style="stroke: #000000; stroke-width: 0.8"/>
      </g>
     </g>
     <g id="text_5">
      <!-- 400 -->
      <g transform="translate(512.451331 334.998438) scale(0.1 -0.1)">
       <defs>
        <path id="DejaVuSans-34" d="M 2419 4116 
L 825 1625 
L 2419 1625 
L 2419 4116 
z
M 2253 4666 
L 3047 4666 
L 3047 1625 
L 3713 1625 
L 3713 1100 
L 3047 1100 
L 3047 0 
L 2419 0 
L 2419 1100 
L 313 1100 
L 313 1709 
L 2253 4666 
z
" transform="scale(0.015625)"/>
       </defs>
       <use xlink:href="#DejaVuSans-34"/>
       <use xlink:href="#DejaVuSans-30" x="63.623047"/>
       <use xlink:href="#DejaVuSans-30" x="127.246094"/>
      </g>
     </g>
    </g>
    <g id="xtick_6">
     <g id="line2d_11">
      <path d="M 623.652942 320.4 
L 623.652942 43.2 
" clip-path="url(#pebb9df5432)" style="fill: none; stroke: #b0b0b0; stroke-width: 0.8; stroke-linecap: square"/>
     </g>
     <g id="line2d_12">
      <g>
       <use xlink:href="#m4529c9cfff" x="623.652942" y="320.4" style="stroke: #000000; stroke-width: 0.8"/>
      </g>
     </g>
     <g id="text_6">
      <!-- 500 -->
      <g transform="translate(614.109192 334.998438) scale(0.1 -0.1)">
       <defs>
        <path id="DejaVuSans-35" d="M 691 4666 
L 3169 4666 
L 3169 4134 
L 1269 4134 
L 1269 2991 
Q 1406 3038 1543 3061 
Q 1681 3084 1819 3084 
Q 2600 3084 3056 2656 
Q 3513 2228 3513 1497 
Q 3513 744 3044 326 
Q 2575 -91 1722 -91 
Q 1428 -91 1123 -41 
Q 819 9 494 109 
L 494 744 
Q 775 591 1075 516 
Q 1375 441 1709 441 
Q 2250 441 2565 725 
Q 2881 1009 2881 1497 
Q 2881 1984 2565 2268 
Q 2250 2553 1709 2553 
Q 1456 2553 1204 2497 
Q 953 2441 691 2322 
L 691 4666 
z
" transform="scale(0.015625)"/>
       </defs>
       <use xlink:href="#DejaVuSans-35"/>
       <use xlink:href="#DejaVuSans-30" x="63.623047"/>
       <use xlink:href="#DejaVuSans-30" x="127.246094"/>
      </g>
     </g>
    </g>
    <g id="text_7">
     <!-- epoch -->
     <g transform="translate(353.771875 348.676562) scale(0.1 -0.1)">
      <defs>
       <path id="DejaVuSans-65" d="M 3597 1894 
L 3597 1613 
L 953 1613 
Q 991 1019 1311 708 
Q 1631 397 2203 397 
Q 2534 397 2845 478 
Q 3156 559 3463 722 
L 3463 178 
Q 3153 47 2828 -22 
Q 2503 -91 2169 -91 
Q 1331 -91 842 396 
Q 353 884 353 1716 
Q 353 2575 817 3079 
Q 1281 3584 2069 3584 
Q 2775 3584 3186 3129 
Q 3597 2675 3597 1894 
z
M 3022 2063 
Q 3016 2534 2758 2815 
Q 2500 3097 2075 3097 
Q 1594 3097 1305 2825 
Q 1016 2553 972 2059 
L 3022 2063 
z
" transform="scale(0.015625)"/>
       <path id="DejaVuSans-70" d="M 1159 525 
L 1159 -1331 
L 581 -1331 
L 581 3500 
L 1159 3500 
L 1159 2969 
Q 1341 3281 1617 3432 
Q 1894 3584 2278 3584 
Q 2916 3584 3314 3078 
Q 3713 2572 3713 1747 
Q 3713 922 3314 415 
Q 2916 -91 2278 -91 
Q 1894 -91 1617 61 
Q 1341 213 1159 525 
z
M 3116 1747 
Q 3116 2381 2855 2742 
Q 2594 3103 2138 3103 
Q 1681 3103 1420 2742 
Q 1159 2381 1159 1747 
Q 1159 1113 1420 752 
Q 1681 391 2138 391 
Q 2594 391 2855 752 
Q 3116 1113 3116 1747 
z
" transform="scale(0.015625)"/>
       <path id="DejaVuSans-6f" d="M 1959 3097 
Q 1497 3097 1228 2736 
Q 959 2375 959 1747 
Q 959 1119 1226 758 
Q 1494 397 1959 397 
Q 2419 397 2687 759 
Q 2956 1122 2956 1747 
Q 2956 2369 2687 2733 
Q 2419 3097 1959 3097 
z
M 1959 3584 
Q 2709 3584 3137 3096 
Q 3566 2609 3566 1747 
Q 3566 888 3137 398 
Q 2709 -91 1959 -91 
Q 1206 -91 779 398 
Q 353 888 353 1747 
Q 353 2609 779 3096 
Q 1206 3584 1959 3584 
z
" transform="scale(0.015625)"/>
       <path id="DejaVuSans-63" d="M 3122 3366 
L 3122 2828 
Q 2878 2963 2633 3030 
Q 2388 3097 2138 3097 
Q 1578 3097 1268 2742 
Q 959 2388 959 1747 
Q 959 1106 1268 751 
Q 1578 397 2138 397 
Q 2388 397 2633 464 
Q 2878 531 3122 666 
L 3122 134 
Q 2881 22 2623 -34 
Q 2366 -91 2075 -91 
Q 1284 -91 818 406 
Q 353 903 353 1747 
Q 353 2603 823 3093 
Q 1294 3584 2113 3584 
Q 2378 3584 2631 3529 
Q 2884 3475 3122 3366 
z
" transform="scale(0.015625)"/>
       <path id="DejaVuSans-68" d="M 3513 2113 
L 3513 0 
L 2938 0 
L 2938 2094 
Q 2938 2591 2744 2837 
Q 2550 3084 2163 3084 
Q 1697 3084 1428 2787 
Q 1159 2491 1159 1978 
L 1159 0 
L 581 0 
L 581 4863 
L 1159 4863 
L 1159 2956 
Q 1366 3272 1645 3428 
Q 1925 3584 2291 3584 
Q 2894 3584 3203 3211 
Q 3513 2838 3513 2113 
z
" transform="scale(0.015625)"/>
      </defs>
      <use xlink:href="#DejaVuSans-65"/>
      <use xlink:href="#DejaVuSans-70" x="61.523438"/>
      <use xlink:href="#DejaVuSans-6f" x="125"/>
      <use xlink:href="#DejaVuSans-63" x="186.181641"/>
      <use xlink:href="#DejaVuSans-68" x="241.162109"/>
     </g>
    </g>
   </g>
   <g id="matplotlib.axis_2">
    <g id="ytick_1">
     <g id="line2d_13">
      <path d="M 90 292.376805 
L 648 292.376805 
" clip-path="url(#pebb9df5432)" style="fill: none; stroke: #b0b0b0; stroke-width: 0.8; stroke-linecap: square"/>
     </g>
     <g id="line2d_14">
      <defs>
       <path id="m1cbccf62eb" d="M 0 0 
L -3.5 0 
" style="stroke: #000000; stroke-width: 0.8"/>
      </defs>
      <g>
       <use xlink:href="#m1cbccf62eb" x="90" y="292.376805" style="stroke: #000000; stroke-width: 0.8"/>
      </g>
     </g>
     <g id="text_8">
      <!-- 1.380 -->
      <g transform="translate(54.371875 296.176024) scale(0.1 -0.1)">
       <defs>
        <path id="DejaVuSans-2e" d="M 684 794 
L 1344 794 
L 1344 0 
L 684 0 
L 684 794 
z
" transform="scale(0.015625)"/>
        <path id="DejaVuSans-38" d="M 2034 2216 
Q 1584 2216 1326 1975 
Q 1069 1734 1069 1313 
Q 1069 891 1326 650 
Q 1584 409 2034 409 
Q 2484 409 2743 651 
Q 3003 894 3003 1313 
Q 3003 1734 2745 1975 
Q 2488 2216 2034 2216 
z
M 1403 2484 
Q 997 2584 770 2862 
Q 544 3141 544 3541 
Q 544 4100 942 4425 
Q 1341 4750 2034 4750 
Q 2731 4750 3128 4425 
Q 3525 4100 3525 3541 
Q 3525 3141 3298 2862 
Q 3072 2584 2669 2484 
Q 3125 2378 3379 2068 
Q 3634 1759 3634 1313 
Q 3634 634 3220 271 
Q 2806 -91 2034 -91 
Q 1263 -91 848 271 
Q 434 634 434 1313 
Q 434 1759 690 2068 
Q 947 2378 1403 2484 
z
M 1172 3481 
Q 1172 3119 1398 2916 
Q 1625 2713 2034 2713 
Q 2441 2713 2670 2916 
Q 2900 3119 2900 3481 
Q 2900 3844 2670 4047 
Q 2441 4250 2034 4250 
Q 1625 4250 1398 4047 
Q 1172 3844 1172 3481 
z
" transform="scale(0.015625)"/>
       </defs>
       <use xlink:href="#DejaVuSans-31"/>
       <use xlink:href="#DejaVuSans-2e" x="63.623047"/>
       <use xlink:href="#DejaVuSans-33" x="95.410156"/>
       <use xlink:href="#DejaVuSans-38" x="159.033203"/>
       <use xlink:href="#DejaVuSans-30" x="222.65625"/>
      </g>
     </g>
    </g>
    <g id="ytick_2">
     <g id="line2d_15">
      <path d="M 90 234.834254 
L 648 234.834254 
" clip-path="url(#pebb9df5432)" style="fill: none; stroke: #b0b0b0; stroke-width: 0.8; stroke-linecap: square"/>
     </g>
     <g id="line2d_16">
      <g>
       <use xlink:href="#m1cbccf62eb" x="90" y="234.834254" style="stroke: #000000; stroke-width: 0.8"/>
      </g>
     </g>
     <g id="text_9">
      <!-- 1.385 -->
      <g transform="translate(54.371875 238.633472) scale(0.1 -0.1)">
       <use xlink:href="#DejaVuSans-31"/>
       <use xlink:href="#DejaVuSans-2e" x="63.623047"/>
       <use xlink:href="#DejaVuSans-33" x="95.410156"/>
       <use xlink:href="#DejaVuSans-38" x="159.033203"/>
       <use xlink:href="#DejaVuSans-35" x="222.65625"/>
      </g>
     </g>
    </g>
    <g id="ytick_3">
     <g id="line2d_17">
      <path d="M 90 177.291702 
L 648 177.291702 
" clip-path="url(#pebb9df5432)" style="fill: none; stroke: #b0b0b0; stroke-width: 0.8; stroke-linecap: square"/>
     </g>
     <g id="line2d_18">
      <g>
       <use xlink:href="#m1cbccf62eb" x="90" y="177.291702" style="stroke: #000000; stroke-width: 0.8"/>
      </g>
     </g>
     <g id="text_10">
      <!-- 1.390 -->
      <g transform="translate(54.371875 181.090921) scale(0.1 -0.1)">
       <defs>
        <path id="DejaVuSans-39" d="M 703 97 
L 703 672 
Q 941 559 1184 500 
Q 1428 441 1663 441 
Q 2288 441 2617 861 
Q 2947 1281 2994 2138 
Q 2813 1869 2534 1725 
Q 2256 1581 1919 1581 
Q 1219 1581 811 2004 
Q 403 2428 403 3163 
Q 403 3881 828 4315 
Q 1253 4750 1959 4750 
Q 2769 4750 3195 4129 
Q 3622 3509 3622 2328 
Q 3622 1225 3098 567 
Q 2575 -91 1691 -91 
Q 1453 -91 1209 -44 
Q 966 3 703 97 
z
M 1959 2075 
Q 2384 2075 2632 2365 
Q 2881 2656 2881 3163 
Q 2881 3666 2632 3958 
Q 2384 4250 1959 4250 
Q 1534 4250 1286 3958 
Q 1038 3666 1038 3163 
Q 1038 2656 1286 2365 
Q 1534 2075 1959 2075 
z
" transform="scale(0.015625)"/>
       </defs>
       <use xlink:href="#DejaVuSans-31"/>
       <use xlink:href="#DejaVuSans-2e" x="63.623047"/>
       <use xlink:href="#DejaVuSans-33" x="95.410156"/>
       <use xlink:href="#DejaVuSans-39" x="159.033203"/>
       <use xlink:href="#DejaVuSans-30" x="222.65625"/>
      </g>
     </g>
    </g>
    <g id="ytick_4">
     <g id="line2d_19">
      <path d="M 90 119.74915 
L 648 119.74915 
" clip-path="url(#pebb9df5432)" style="fill: none; stroke: #b0b0b0; stroke-width: 0.8; stroke-linecap: square"/>
     </g>
     <g id="line2d_20">
      <g>
       <use xlink:href="#m1cbccf62eb" x="90" y="119.74915" style="stroke: #000000; stroke-width: 0.8"/>
      </g>
     </g>
     <g id="text_11">
      <!-- 1.395 -->
      <g transform="translate(54.371875 123.548369) scale(0.1 -0.1)">
       <use xlink:href="#DejaVuSans-31"/>
       <use xlink:href="#DejaVuSans-2e" x="63.623047"/>
       <use xlink:href="#DejaVuSans-33" x="95.410156"/>
       <use xlink:href="#DejaVuSans-39" x="159.033203"/>
       <use xlink:href="#DejaVuSans-35" x="222.65625"/>
      </g>
     </g>
    </g>
    <g id="ytick_5">
     <g id="line2d_21">
      <path d="M 90 62.206598 
L 648 62.206598 
" clip-path="url(#pebb9df5432)" style="fill: none; stroke: #b0b0b0; stroke-width: 0.8; stroke-linecap: square"/>
     </g>
     <g id="line2d_22">
      <g>
       <use xlink:href="#m1cbccf62eb" x="90" y="62.206598" style="stroke: #000000; stroke-width: 0.8"/>
      </g>
     </g>
     <g id="text_12">
      <!-- 1.400 -->
      <g transform="translate(54.371875 66.005817) scale(0.1 -0.1)">
       <use xlink:href="#DejaVuSans-31"/>
       <use xlink:href="#DejaVuSans-2e" x="63.623047"/>
       <use xlink:href="#DejaVuSans-34" x="95.410156"/>
       <use xlink:href="#DejaVuSans-30" x="159.033203"/>
       <use xlink:href="#DejaVuSans-30" x="222.65625"/>
      </g>
     </g>
    </g>
    <g id="text_13">
     <!-- loss -->
     <g transform="translate(48.292188 191.457812) rotate(-90) scale(0.1 -0.1)">
      <defs>
       <path id="DejaVuSans-6c" d="M 603 4863 
L 1178 4863 
L 1178 0 
L 603 0 
L 603 4863 
z
" transform="scale(0.015625)"/>
       <path id="DejaVuSans-73" d="M 2834 3397 
L 2834 2853 
Q 2591 2978 2328 3040 
Q 2066 3103 1784 3103 
Q 1356 3103 1142 2972 
Q 928 2841 928 2578 
Q 928 2378 1081 2264 
Q 1234 2150 1697 2047 
L 1894 2003 
Q 2506 1872 2764 1633 
Q 3022 1394 3022 966 
Q 3022 478 2636 193 
Q 2250 -91 1575 -91 
Q 1294 -91 989 -36 
Q 684 19 347 128 
L 347 722 
Q 666 556 975 473 
Q 1284 391 1588 391 
Q 1994 391 2212 530 
Q 2431 669 2431 922 
Q 2431 1156 2273 1281 
Q 2116 1406 1581 1522 
L 1381 1569 
Q 847 1681 609 1914 
Q 372 2147 372 2553 
Q 372 3047 722 3315 
Q 1072 3584 1716 3584 
Q 2034 3584 2315 3537 
Q 2597 3491 2834 3397 
z
" transform="scale(0.015625)"/>
      </defs>
      <use xlink:href="#DejaVuSans-6c"/>
      <use xlink:href="#DejaVuSans-6f" x="27.783203"/>
      <use xlink:href="#DejaVuSans-73" x="88.964844"/>
      <use xlink:href="#DejaVuSans-73" x="141.064453"/>
     </g>
    </g>
   </g>
   <g id="line2d_23">
    <path d="M 115.363636 214.385876 
L 116.380215 226.590488 
L 117.396794 216.561743 
L 118.413372 164.467146 
L 119.429951 173.414817 
L 120.446529 183.523133 
L 121.463108 134.936539 
L 122.479687 237.763415 
L 123.496265 251.263121 
L 124.512844 228.09137 
L 125.529422 130.125211 
L 126.546001 200.871079 
L 127.56258 181.404887 
L 128.579158 221.748978 
L 131.628894 190.83273 
L 132.645473 125.851676 
L 133.662051 222.867093 
L 134.67863 164.940459 
L 135.695209 244.787653 
L 136.711787 141.114301 
L 137.728366 151.944248 
L 138.744944 236.080068 
L 139.761523 225.627399 
L 140.778102 184.51366 
L 141.79468 214.609499 
L 142.811259 206.944574 
L 143.827837 152.704292 
L 144.844416 156.552532 
L 145.860995 222.292258 
L 146.877573 166.365885 
L 147.894152 138.089214 
L 148.910731 154.657908 
L 149.927309 227.999451 
L 150.943888 228.664833 
L 151.960466 160.511897 
L 152.977045 185.342301 
L 153.993624 200.875194 
L 155.010202 143.104959 
L 156.026781 227.727811 
L 157.043359 241.518364 
L 158.059938 200.983576 
L 159.076517 104.073796 
L 160.093095 220.176756 
L 161.109674 178.492298 
L 162.126253 214.704161 
L 163.142831 157.965611 
L 164.15941 209.652747 
L 165.175988 197.273901 
L 166.192567 126.367518 
L 167.209146 214.683583 
L 168.225724 159.519997 
L 169.242303 221.541817 
L 170.258881 171.715006 
L 171.27546 115.962867 
L 172.292039 161.195113 
L 175.341774 228.995466 
L 176.358353 243.627007 
L 177.374932 87.697171 
L 178.39151 106.860169 
L 179.408089 140.687633 
L 180.424668 226.509545 
L 181.441246 195.611132 
L 182.457825 170.413053 
L 183.474403 124.391951 
L 184.490982 196.461723 
L 185.507561 155.504384 
L 186.524139 183.181525 
L 187.540718 130.870164 
L 188.557296 185.044594 
L 189.573875 181.351382 
L 190.590454 182.798759 
L 191.607032 219.055896 
L 192.623611 187.843314 
L 193.640189 206.874606 
L 194.656768 188.831097 
L 195.673347 155.947514 
L 196.689925 142.922493 
L 197.706504 151.776873 
L 198.723083 227.578271 
L 199.739661 175.789613 
L 200.75624 253.386856 
L 202.789397 186.754008 
L 203.805976 200.426576 
L 204.822554 219.422199 
L 205.839133 208.799412 
L 206.855711 176.664898 
L 207.87229 192.745188 
L 208.888869 196.712785 
L 209.905447 197.264297 
L 210.922026 171.923538 
L 211.938604 151.937388 
L 212.955183 202.694362 
L 213.971762 238.860953 
L 214.98834 123.125668 
L 216.004919 182.638244 
L 217.021498 196.453492 
L 218.038076 249.773215 
L 219.054655 192.372026 
L 220.071233 251.6404 
L 221.087812 205.574025 
L 222.104391 215.864807 
L 223.120969 184.980114 
L 224.137548 253.585784 
L 225.154126 206.494584 
L 226.170705 131.971817 
L 227.187284 139.731404 
L 229.220441 219.15879 
L 230.237019 209.991612 
L 231.253598 180.61466 
L 232.270177 137.876566 
L 233.286755 200.670778 
L 234.303334 175.935036 
L 235.319913 124.851545 
L 236.336491 189.927262 
L 237.35307 219.386529 
L 238.369648 216.786738 
L 239.386227 214.997753 
L 240.402806 183.125276 
L 241.419384 195.649546 
L 242.435963 177.548416 
L 243.452541 208.256131 
L 244.46912 137.517123 
L 245.485699 156.285007 
L 246.502277 179.521239 
L 247.518856 145.016045 
L 248.535435 133.640073 
L 249.552013 149.621585 
L 250.568592 186.959796 
L 251.58517 150.78223 
L 252.601749 196.125603 
L 253.618328 227.410897 
L 254.634906 202.155197 
L 255.651485 206.413641 
L 256.668063 115.016241 
L 257.684642 145.461919 
L 258.701221 127.113843 
L 259.717799 177.540184 
L 260.734378 55.8 
L 261.750956 171.827504 
L 262.767535 208.19851 
L 263.784114 159.717554 
L 264.800692 217.353342 
L 265.817271 181.082485 
L 266.83385 161.255478 
L 267.850428 194.627465 
L 268.867007 209.146508 
L 269.883585 186.107833 
L 270.900164 195.560371 
L 271.916743 177.911975 
L 272.933321 197.900869 
L 273.9499 134.291736 
L 274.966478 170.093395 
L 275.983057 186.523525 
L 276.999636 220.160293 
L 278.016214 192.234834 
L 279.032793 200.405997 
L 280.049371 199.840766 
L 281.06595 240.400248 
L 282.082529 208.219089 
L 283.099107 162.026498 
L 285.132265 208.102476 
L 286.148843 174.730489 
L 287.165422 167.862651 
L 288.182 162.494323 
L 289.198579 137.488313 
L 290.215158 140.389926 
L 291.231736 229.228693 
L 292.248315 150.994878 
L 293.264893 185.259986 
L 294.281472 196.96659 
L 295.298051 135.463357 
L 296.314629 196.310812 
L 297.331208 175.067982 
L 298.347786 138.732645 
L 299.364365 230.74055 
L 300.380944 184.797648 
L 301.397522 169.167348 
L 302.414101 192.083922 
L 303.43068 155.610022 
L 304.447258 196.021337 
L 305.463837 170.113974 
L 306.480415 198.183485 
L 307.496994 189.533521 
L 308.513573 150.168982 
L 309.530151 195.534305 
L 310.54673 164.19139 
L 311.563308 256.344718 
L 312.579887 207.664833 
L 313.596466 178.507389 
L 314.613044 196.350598 
L 315.629623 194.483413 
L 316.646201 170.140041 
L 317.66278 109.780989 
L 318.679359 237.001999 
L 319.695937 249.664833 
L 320.712516 234.178585 
L 321.729095 215.685085 
L 322.745673 237.692076 
L 323.762252 163.646737 
L 324.77883 155.091435 
L 325.795409 211.979526 
L 326.811988 203.565532 
L 327.828566 185.840308 
L 328.845145 215.922428 
L 329.861723 224.636872 
L 330.878302 223.159313 
L 331.894881 156.992918 
L 332.911459 203.171791 
L 333.928038 199.125995 
L 334.944617 136.659672 
L 335.961195 237.889632 
L 336.977774 147.746168 
L 337.994352 176.128477 
L 339.010931 217.534435 
L 340.02751 167.537506 
L 341.044088 165.081767 
L 342.060667 218.596302 
L 343.077245 215.88127 
L 344.093824 174.886888 
L 345.110403 176.741726 
L 346.126981 202.821951 
L 347.14356 203.828941 
L 348.160138 218.648435 
L 349.176717 186.218959 
L 350.193296 105.979395 
L 351.209874 233.74643 
L 352.226453 160.680643 
L 353.243032 220.256327 
L 354.25961 193.859189 
L 355.276189 186.169569 
L 356.292767 212.049494 
L 357.309346 195.339492 
L 358.325925 149.459698 
L 359.342503 209.242543 
L 360.359082 180.659933 
L 361.37566 197.077716 
L 362.392239 100.16382 
L 363.408818 173.339361 
L 364.425396 197.507127 
L 365.441975 208.343934 
L 366.458553 207.523525 
L 367.475132 179.341517 
L 368.491711 211.86154 
L 369.508289 142.018397 
L 370.524868 177.969596 
L 371.541447 104.632168 
L 372.558025 177.020226 
L 373.574604 155.099667 
L 374.591182 180.648958 
L 375.607761 231.209747 
L 376.62434 158.009512 
L 377.640918 210.371634 
L 378.657497 215.494388 
L 379.674075 188.338577 
L 380.690654 167.809146 
L 381.707233 192.809669 
L 382.723811 189.626811 
L 383.74039 179.320938 
L 384.756968 140.772692 
L 385.773547 191.87539 
L 386.790126 176.202561 
L 387.806704 212.131809 
L 388.823283 174.144679 
L 389.839862 166.409786 
L 390.85644 193.665748 
L 391.873019 203.754857 
L 392.889597 218.490664 
L 393.906176 174.965088 
L 394.922755 178.508761 
L 395.939333 193.826262 
L 396.955912 128.240191 
L 397.97249 169.574809 
L 398.989069 215.464206 
L 400.005648 154.862324 
L 401.022226 190.145398 
L 402.038805 211.197531 
L 403.055383 148.322375 
L 404.071962 238.205174 
L 405.088541 142.944444 
L 406.105119 167.272725 
L 407.121698 166.342562 
L 408.138277 171.365166 
L 409.154855 105.148011 
L 410.171434 199.338642 
L 411.188012 194.493016 
L 412.204591 159.754596 
L 413.22117 235.300817 
L 414.237748 165.607212 
L 415.254327 199.249468 
L 416.270905 206.078892 
L 417.287484 267.572522 
L 418.304063 184.454668 
L 419.320641 164.836193 
L 420.33722 232.967178 
L 421.353799 172.422918 
L 422.370377 196.183223 
L 423.386956 180.402012 
L 424.403534 208.822735 
L 425.420113 118.566773 
L 426.436692 119.197857 
L 427.45327 133.924061 
L 429.486427 228.375358 
L 430.503006 208.785693 
L 431.519585 230.344065 
L 432.536163 140.152584 
L 433.552742 223.872712 
L 434.56932 184.418998 
L 435.585899 171.601137 
L 436.602478 226.724936 
L 437.619056 208.51268 
L 438.635635 169.425269 
L 439.652214 185.207853 
L 440.668792 154.818423 
L 441.685371 145.335703 
L 443.718528 262.167152 
L 444.735107 240.010623 
L 445.751685 161.730163 
L 446.768264 191.105742 
L 447.784842 205.198119 
L 448.801421 169.492494 
L 449.818 165.972143 
L 450.834578 229.741791 
L 451.851157 165.981747 
L 452.867735 122.080264 
L 453.884314 128.226472 
L 454.900893 213.966068 
L 455.917471 174.855334 
L 456.93405 197.973581 
L 457.950629 215.032051 
L 458.967207 192.808297 
L 459.983786 198.113517 
L 462.016943 189.74754 
L 463.033522 216.929418 
L 464.0501 145.637525 
L 465.066679 183.728921 
L 466.083257 227.836193 
L 467.099836 173.075952 
L 468.116415 135.652682 
L 469.132993 199.234376 
L 470.149572 210.296178 
L 471.16615 130.572457 
L 472.182729 183.834559 
L 473.199308 202.404887 
L 474.215886 200.355236 
L 475.232465 219.098426 
L 476.249044 174.303822 
L 478.282201 204.831816 
L 479.298779 200.473221 
L 480.315358 202.731404 
L 481.331937 178.242608 
L 482.348515 90.725002 
L 483.365094 172.277494 
L 484.381672 148.06171 
L 485.398251 244.393911 
L 487.431408 164.645496 
L 488.447987 132.225622 
L 489.464565 236.278997 
L 490.481144 164.025387 
L 491.497723 168.334592 
L 492.514301 155.719775 
L 493.53088 197.210792 
L 494.547459 196.3163 
L 495.564037 231.29755 
L 496.580616 140.554557 
L 497.597194 156.069615 
L 498.613773 237.058248 
L 499.630352 163.237904 
L 500.64693 199.226145 
L 501.663509 225.846907 
L 502.680087 143.244894 
L 503.696666 226.122663 
L 504.713245 196.848605 
L 505.729823 175.328647 
L 506.746402 173.192565 
L 507.762981 170.063213 
L 508.779559 146.350924 
L 509.796138 181.376076 
L 510.812716 134.150428 
L 511.829295 114.862586 
L 512.845874 168.459437 
L 513.862452 185.301143 
L 514.879031 128.327994 
L 515.895609 195.504122 
L 516.912188 223.491318 
L 517.928767 88.686327 
L 518.945345 197.371307 
L 519.961924 197.696453 
L 520.978502 178.769426 
L 521.995081 174.848475 
L 523.01166 157.353734 
L 524.028238 153.877285 
L 525.044817 208.453688 
L 526.061396 133.456236 
L 527.077974 137.149448 
L 528.094553 156.457869 
L 529.111131 158.242739 
L 530.12771 187.652616 
L 531.144289 176.836389 
L 532.160867 168.438858 
L 533.177446 154.950127 
L 534.194024 84.401816 
L 535.210603 202.8782 
L 536.227182 178.125995 
L 537.24376 200.654315 
L 538.260339 144.601725 
L 539.276917 159.55018 
L 540.293496 182.18551 
L 541.310075 165.394565 
L 542.326653 205.117175 
L 543.343232 229.243784 
L 544.359811 223.570889 
L 545.376389 154.646933 
L 546.392968 192.57507 
L 547.409546 173.938891 
L 548.426125 171.373398 
L 549.442704 139.713569 
L 550.459282 197.081832 
L 551.475861 211.717489 
L 552.492439 229.579905 
L 553.509018 190.908186 
L 554.525597 181.360985 
L 555.542175 229.599112 
L 556.558754 187.695146 
L 557.575332 203.383067 
L 558.591911 183.088234 
L 559.60849 73.881923 
L 560.625068 188.940851 
L 561.641647 234.736957 
L 562.658226 179.670778 
L 563.674804 178.31532 
L 564.691383 195.172117 
L 565.707961 127.98227 
L 566.72454 229.474267 
L 567.741119 103.046227 
L 568.757697 161.083988 
L 569.774276 165.242281 
L 570.790854 156.235618 
L 571.807433 207.416515 
L 572.824012 171.306174 
L 573.84059 173.488901 
L 574.857169 227.409525 
L 575.873747 171.731469 
L 576.890326 186.870621 
L 577.906905 220.050539 
L 578.923483 169.528164 
L 579.940062 163.472503 
L 580.956641 146.718599 
L 581.973219 236.697433 
L 582.989798 186.929614 
L 584.006376 121.045835 
L 585.022955 186.453557 
L 586.039534 168.176821 
L 587.056112 206.652355 
L 588.072691 199.378428 
L 589.089269 187.688286 
L 590.105848 189.965676 
L 591.122427 194.890873 
L 592.139005 145.523656 
L 593.155584 135.224642 
L 594.172163 182.601202 
L 595.188741 223.635369 
L 596.20532 201.808101 
L 597.221898 188.766617 
L 598.238477 169.798432 
L 599.255056 201.078239 
L 600.271634 141.385941 
L 601.288213 151.654772 
L 602.304791 194.289972 
L 603.32137 138.948037 
L 604.337949 176.091435 
L 605.354527 184.646737 
L 606.371106 113.706056 
L 607.387684 170.436376 
L 608.404263 215.565728 
L 609.420842 200.652943 
L 610.43742 179.659803 
L 611.453999 190.064454 
L 612.470578 220.038192 
L 613.487156 194.273509 
L 614.503735 181.094832 
L 615.520313 150.324009 
L 616.536892 208.031136 
L 617.553471 216.764787 
L 618.570049 150.623087 
L 620.603206 222.860234 
L 621.619785 219.442778 
L 622.636364 152.442255 
L 622.636364 152.442255 
" clip-path="url(#pebb9df5432)" style="fill: none; stroke: #1f77b4; stroke-width: 1.5; stroke-linecap: square"/>
   </g>
   <g id="line2d_24">
    <path d="M 115.363636 307.640857 
L 116.380215 307.500921 
L 118.413372 307.8 
L 121.463108 307.51464 
L 123.496265 307.262207 
L 126.546001 307.400771 
L 127.56258 307.153825 
L 130.612316 307.094832 
L 132.645473 306.967244 
L 134.67863 307.009773 
L 137.728366 306.764199 
L 139.761523 306.732645 
L 140.778102 306.880813 
L 144.844416 306.699719 
L 145.860995 306.422591 
L 157.043359 305.871079 
L 159.076517 306.013758 
L 161.109674 305.7723 
L 162.126253 305.846384 
L 167.209146 305.66529 
L 168.225724 305.673522 
L 169.242303 305.534958 
L 170.258881 305.820318 
L 171.27546 305.558281 
L 172.292039 305.418345 
L 173.308617 305.480081 
L 174.325196 305.382675 
L 177.374932 305.452643 
L 178.39151 305.308591 
L 179.408089 305.513007 
L 180.424668 305.149448 
L 182.457825 305.399138 
L 183.474403 305.17963 
L 185.507561 305.289384 
L 187.540718 305.139845 
L 188.557296 304.924453 
L 189.573875 304.897014 
L 190.590454 304.718665 
L 192.623611 304.754335 
L 193.640189 304.569125 
L 195.673347 304.673391 
L 196.689925 304.459372 
L 197.706504 304.607539 
L 200.75624 304.152061 
L 201.772818 304.409982 
L 202.789397 304.27279 
L 203.805976 304.293369 
L 204.822554 304.433305 
L 205.839133 304.233005 
L 209.905447 304.090325 
L 212.955183 303.976455 
L 213.971762 303.95862 
L 214.98834 304.1013 
L 216.004919 303.88728 
L 217.021498 303.791246 
L 219.054655 303.921578 
L 220.071233 303.713046 
L 221.087812 303.876305 
L 225.154126 303.685608 
L 226.170705 303.817312 
L 228.203862 303.610152 
L 229.220441 303.412596 
L 230.237019 303.50863 
L 232.270177 303.376926 
L 233.286755 303.268544 
L 234.303334 303.349487 
L 237.35307 303.120376 
L 238.369648 303.242477 
L 257.684642 302.762305 
L 258.701221 302.509871 
L 260.734378 302.450879 
L 261.750956 302.317802 
L 263.784114 302.304083 
L 264.800692 302.076344 
L 265.817271 302.013236 
L 269.883585 302.166891 
L 270.900164 302.188842 
L 272.933321 301.999517 
L 273.9499 302.183354 
L 282.082529 302.048906 
L 283.099107 302.169635 
L 284.115686 302.105155 
L 285.132265 302.227256 
L 293.264893 302.262925 
L 294.281472 302.439903 
L 296.314629 302.213536 
L 297.331208 302.406977 
L 299.364365 302.099667 
L 301.397522 302.35896 
L 302.414101 302.308199 
L 303.43068 302.444019 
L 304.447258 302.143568 
L 307.496994 302.166891 
L 309.530151 302.275273 
L 311.563308 301.989913 
L 313.596466 302.246462 
L 316.646201 302.224512 
L 328.845145 302.551029 
L 329.861723 302.641576 
L 333.928038 302.49478 
L 336.977774 302.652551 
L 337.994352 302.544169 
L 339.010931 302.551029 
L 340.02751 302.685477 
L 341.044088 302.504384 
L 343.077245 302.353472 
L 344.093824 302.593559 
L 346.126981 302.433044 
L 347.14356 302.326034 
L 350.193296 302.380911 
L 352.226453 302.368563 
L 353.243032 302.246462 
L 355.276189 302.578467 
L 356.292767 302.341125 
L 357.309346 302.441275 
L 358.325925 302.150428 
L 359.342503 302.01598 
L 360.359082 302.176494 
L 362.392239 302.158659 
L 363.408818 302.00226 
L 368.491711 301.952871 
L 370.524868 301.880159 
L 377.640918 301.892507 
L 379.674075 302.043418 
L 380.690654 302.227256 
L 381.707233 302.253322 
L 382.723811 302.062625 
L 384.756968 302.165519 
L 385.773547 301.983054 
L 394.922755 301.963847 
L 395.939333 301.752571 
L 396.955912 301.840374 
L 397.97249 301.620866 
L 401.022226 301.692206 
L 402.038805 301.538551 
L 405.088541 301.560502 
L 406.105119 301.360201 
L 408.138277 301.496021 
L 411.188012 301.45212 
L 412.204591 301.283374 
L 415.254327 301.250448 
L 417.287484 301.275142 
L 418.304063 301.464467 
L 420.33722 301.491906 
L 422.370377 301.369805 
L 423.386956 301.474071 
L 424.403534 301.44526 
L 425.420113 301.601659 
L 426.436692 301.431541 
L 427.45327 301.083073 
L 431.519585 301.089933 
L 433.552742 301.044659 
L 434.56932 301.214778 
L 437.619056 301.272398 
L 439.652214 301.061122 
L 441.685371 301.148925 
L 443.718528 301.058379 
L 445.751685 301.210662 
L 450.834578 301.261423 
L 451.851157 301.342366 
L 454.900893 300.954112 
L 457.950629 301.233984 
L 458.967207 301.096792 
L 465.066679 301.128347 
L 466.083257 301.014477 
L 468.116415 301.126975 
L 469.132993 300.915699 
L 470.149572 300.853962 
L 471.16615 301.050147 
L 472.182729 300.833383 
L 473.199308 300.753812 
L 476.249044 300.991154 
L 477.265622 300.810061 
L 478.282201 300.914327 
L 480.315358 300.875913 
L 482.348515 300.940393 
L 483.365094 300.822408 
L 485.398251 300.815548 
L 486.41483 300.722258 
L 488.447987 301.03094 
L 489.464565 300.948625 
L 491.497723 301.239472 
L 492.514301 301.080329 
L 493.53088 301.111883 
L 495.564037 300.951369 
L 496.580616 300.9596 
L 497.597194 300.773019 
L 499.630352 301.083073 
L 501.663509 300.819664 
L 502.680087 301.028196 
L 507.762981 301.033684 
L 508.779559 300.826524 
L 510.812716 301.028196 
L 511.829295 300.978807 
L 512.845874 300.775763 
L 515.895609 300.819664 
L 516.912188 300.748324 
L 519.961924 300.822408 
L 521.995081 300.515098 
L 523.01166 300.727745 
L 524.028238 300.775763 
L 525.044817 300.644058 
L 532.160867 300.804573 
L 533.177446 300.646802 
L 537.24376 300.676984 
L 539.276917 300.523329 
L 540.293496 300.54528 
L 542.326653 300.43141 
L 544.359811 300.386137 
L 545.376389 300.57409 
L 547.409546 300.712654 
L 548.426125 300.815548 
L 551.475861 300.668753 
L 555.542175 300.72363 
L 556.558754 301.022709 
L 557.575332 300.683844 
L 558.591911 300.842987 
L 559.60849 300.877285 
L 560.625068 300.490403 
L 561.641647 300.81692 
L 563.674804 300.753812 
L 564.691383 300.912955 
L 566.72454 300.689332 
L 567.741119 300.782622 
L 568.757697 300.668753 
L 569.774276 300.748324 
L 570.790854 300.679728 
L 571.807433 300.797713 
L 574.857169 300.600157 
L 575.873747 300.877285 
L 576.890326 300.742837 
L 579.940062 301.013105 
L 580.956641 300.877285 
L 581.973219 300.910211 
L 584.006376 301.170876 
L 585.022955 300.844359 
L 587.056112 300.837499 
L 588.072691 300.965088 
L 589.089269 300.891004 
L 590.105848 300.940393 
L 591.122427 300.838871 
L 592.139005 300.980179 
L 594.172163 300.899236 
L 596.20532 301.02408 
L 598.238477 300.797713 
L 599.255056 300.970576 
L 600.271634 300.844359 
L 602.304791 300.85945 
L 603.32137 300.704423 
L 607.387684 300.612504 
L 610.43742 300.591925 
L 611.453999 300.513726 
L 613.487156 300.541164 
L 614.503735 300.855334 
L 616.536892 300.388881 
L 617.553471 300.585066 
L 619.586628 300.766159 
L 620.603206 300.619364 
L 622.636364 300.657777 
L 622.636364 300.657777 
" clip-path="url(#pebb9df5432)" style="fill: none; stroke: #ff7f0e; stroke-width: 1.5; stroke-linecap: square"/>
   </g>
   <g id="patch_3">
    <path d="M 90 320.4 
L 90 43.2 
" style="fill: none; stroke: #000000; stroke-width: 0.8; stroke-linejoin: miter; stroke-linecap: square"/>
   </g>
   <g id="patch_4">
    <path d="M 648 320.4 
L 648 43.2 
" style="fill: none; stroke: #000000; stroke-width: 0.8; stroke-linejoin: miter; stroke-linecap: square"/>
   </g>
   <g id="patch_5">
    <path d="M 90 320.4 
L 648 320.4 
" style="fill: none; stroke: #000000; stroke-width: 0.8; stroke-linejoin: miter; stroke-linecap: square"/>
   </g>
   <g id="patch_6">
    <path d="M 90 43.2 
L 648 43.2 
" style="fill: none; stroke: #000000; stroke-width: 0.8; stroke-linejoin: miter; stroke-linecap: square"/>
   </g>
   <g id="text_14">
    <!-- model train and validation loss over time -->
    <g transform="translate(245.555625 37.2) scale(0.12 -0.12)">
     <defs>
      <path id="DejaVuSans-6d" d="M 3328 2828 
Q 3544 3216 3844 3400 
Q 4144 3584 4550 3584 
Q 5097 3584 5394 3201 
Q 5691 2819 5691 2113 
L 5691 0 
L 5113 0 
L 5113 2094 
Q 5113 2597 4934 2840 
Q 4756 3084 4391 3084 
Q 3944 3084 3684 2787 
Q 3425 2491 3425 1978 
L 3425 0 
L 2847 0 
L 2847 2094 
Q 2847 2600 2669 2842 
Q 2491 3084 2119 3084 
Q 1678 3084 1418 2786 
Q 1159 2488 1159 1978 
L 1159 0 
L 581 0 
L 581 3500 
L 1159 3500 
L 1159 2956 
Q 1356 3278 1631 3431 
Q 1906 3584 2284 3584 
Q 2666 3584 2933 3390 
Q 3200 3197 3328 2828 
z
" transform="scale(0.015625)"/>
      <path id="DejaVuSans-64" d="M 2906 2969 
L 2906 4863 
L 3481 4863 
L 3481 0 
L 2906 0 
L 2906 525 
Q 2725 213 2448 61 
Q 2172 -91 1784 -91 
Q 1150 -91 751 415 
Q 353 922 353 1747 
Q 353 2572 751 3078 
Q 1150 3584 1784 3584 
Q 2172 3584 2448 3432 
Q 2725 3281 2906 2969 
z
M 947 1747 
Q 947 1113 1208 752 
Q 1469 391 1925 391 
Q 2381 391 2643 752 
Q 2906 1113 2906 1747 
Q 2906 2381 2643 2742 
Q 2381 3103 1925 3103 
Q 1469 3103 1208 2742 
Q 947 2381 947 1747 
z
" transform="scale(0.015625)"/>
      <path id="DejaVuSans-20" transform="scale(0.015625)"/>
      <path id="DejaVuSans-74" d="M 1172 4494 
L 1172 3500 
L 2356 3500 
L 2356 3053 
L 1172 3053 
L 1172 1153 
Q 1172 725 1289 603 
Q 1406 481 1766 481 
L 2356 481 
L 2356 0 
L 1766 0 
Q 1100 0 847 248 
Q 594 497 594 1153 
L 594 3053 
L 172 3053 
L 172 3500 
L 594 3500 
L 594 4494 
L 1172 4494 
z
" transform="scale(0.015625)"/>
      <path id="DejaVuSans-72" d="M 2631 2963 
Q 2534 3019 2420 3045 
Q 2306 3072 2169 3072 
Q 1681 3072 1420 2755 
Q 1159 2438 1159 1844 
L 1159 0 
L 581 0 
L 581 3500 
L 1159 3500 
L 1159 2956 
Q 1341 3275 1631 3429 
Q 1922 3584 2338 3584 
Q 2397 3584 2469 3576 
Q 2541 3569 2628 3553 
L 2631 2963 
z
" transform="scale(0.015625)"/>
      <path id="DejaVuSans-61" d="M 2194 1759 
Q 1497 1759 1228 1600 
Q 959 1441 959 1056 
Q 959 750 1161 570 
Q 1363 391 1709 391 
Q 2188 391 2477 730 
Q 2766 1069 2766 1631 
L 2766 1759 
L 2194 1759 
z
M 3341 1997 
L 3341 0 
L 2766 0 
L 2766 531 
Q 2569 213 2275 61 
Q 1981 -91 1556 -91 
Q 1019 -91 701 211 
Q 384 513 384 1019 
Q 384 1609 779 1909 
Q 1175 2209 1959 2209 
L 2766 2209 
L 2766 2266 
Q 2766 2663 2505 2880 
Q 2244 3097 1772 3097 
Q 1472 3097 1187 3025 
Q 903 2953 641 2809 
L 641 3341 
Q 956 3463 1253 3523 
Q 1550 3584 1831 3584 
Q 2591 3584 2966 3190 
Q 3341 2797 3341 1997 
z
" transform="scale(0.015625)"/>
      <path id="DejaVuSans-69" d="M 603 3500 
L 1178 3500 
L 1178 0 
L 603 0 
L 603 3500 
z
M 603 4863 
L 1178 4863 
L 1178 4134 
L 603 4134 
L 603 4863 
z
" transform="scale(0.015625)"/>
      <path id="DejaVuSans-6e" d="M 3513 2113 
L 3513 0 
L 2938 0 
L 2938 2094 
Q 2938 2591 2744 2837 
Q 2550 3084 2163 3084 
Q 1697 3084 1428 2787 
Q 1159 2491 1159 1978 
L 1159 0 
L 581 0 
L 581 3500 
L 1159 3500 
L 1159 2956 
Q 1366 3272 1645 3428 
Q 1925 3584 2291 3584 
Q 2894 3584 3203 3211 
Q 3513 2838 3513 2113 
z
" transform="scale(0.015625)"/>
      <path id="DejaVuSans-76" d="M 191 3500 
L 800 3500 
L 1894 563 
L 2988 3500 
L 3597 3500 
L 2284 0 
L 1503 0 
L 191 3500 
z
" transform="scale(0.015625)"/>
     </defs>
     <use xlink:href="#DejaVuSans-6d"/>
     <use xlink:href="#DejaVuSans-6f" x="97.412109"/>
     <use xlink:href="#DejaVuSans-64" x="158.59375"/>
     <use xlink:href="#DejaVuSans-65" x="222.070312"/>
     <use xlink:href="#DejaVuSans-6c" x="283.59375"/>
     <use xlink:href="#DejaVuSans-20" x="311.376953"/>
     <use xlink:href="#DejaVuSans-74" x="343.164062"/>
     <use xlink:href="#DejaVuSans-72" x="382.373047"/>
     <use xlink:href="#DejaVuSans-61" x="423.486328"/>
     <use xlink:href="#DejaVuSans-69" x="484.765625"/>
     <use xlink:href="#DejaVuSans-6e" x="512.548828"/>
     <use xlink:href="#DejaVuSans-20" x="575.927734"/>
     <use xlink:href="#DejaVuSans-61" x="607.714844"/>
     <use xlink:href="#DejaVuSans-6e" x="668.994141"/>
     <use xlink:href="#DejaVuSans-64" x="732.373047"/>
     <use xlink:href="#DejaVuSans-20" x="795.849609"/>
     <use xlink:href="#DejaVuSans-76" x="827.636719"/>
     <use xlink:href="#DejaVuSans-61" x="886.816406"/>
     <use xlink:href="#DejaVuSans-6c" x="948.095703"/>
     <use xlink:href="#DejaVuSans-69" x="975.878906"/>
     <use xlink:href="#DejaVuSans-64" x="1003.662109"/>
     <use xlink:href="#DejaVuSans-61" x="1067.138672"/>
     <use xlink:href="#DejaVuSans-74" x="1128.417969"/>
     <use xlink:href="#DejaVuSans-69" x="1167.626953"/>
     <use xlink:href="#DejaVuSans-6f" x="1195.410156"/>
     <use xlink:href="#DejaVuSans-6e" x="1256.591797"/>
     <use xlink:href="#DejaVuSans-20" x="1319.970703"/>
     <use xlink:href="#DejaVuSans-6c" x="1351.757812"/>
     <use xlink:href="#DejaVuSans-6f" x="1379.541016"/>
     <use xlink:href="#DejaVuSans-73" x="1440.722656"/>
     <use xlink:href="#DejaVuSans-73" x="1492.822266"/>
     <use xlink:href="#DejaVuSans-20" x="1544.921875"/>
     <use xlink:href="#DejaVuSans-6f" x="1576.708984"/>
     <use xlink:href="#DejaVuSans-76" x="1637.890625"/>
     <use xlink:href="#DejaVuSans-65" x="1697.070312"/>
     <use xlink:href="#DejaVuSans-72" x="1758.59375"/>
     <use xlink:href="#DejaVuSans-20" x="1799.707031"/>
     <use xlink:href="#DejaVuSans-74" x="1831.494141"/>
     <use xlink:href="#DejaVuSans-69" x="1870.703125"/>
     <use xlink:href="#DejaVuSans-6d" x="1898.486328"/>
     <use xlink:href="#DejaVuSans-65" x="1995.898438"/>
    </g>
   </g>
   <g id="legend_1">
    <g id="patch_7">
     <path d="M 97 80.55625 
L 178.234375 80.55625 
Q 180.234375 80.55625 180.234375 78.55625 
L 180.234375 50.2 
Q 180.234375 48.2 178.234375 48.2 
L 97 48.2 
Q 95 48.2 95 50.2 
L 95 78.55625 
Q 95 80.55625 97 80.55625 
z
" style="fill: #ffffff; opacity: 0.8; stroke: #cccccc; stroke-linejoin: miter"/>
    </g>
    <g id="line2d_25">
     <path d="M 99 56.298437 
L 109 56.298437 
L 119 56.298437 
" style="fill: none; stroke: #1f77b4; stroke-width: 1.5; stroke-linecap: square"/>
    </g>
    <g id="text_15">
     <!-- train -->
     <g transform="translate(127 59.798437) scale(0.1 -0.1)">
      <use xlink:href="#DejaVuSans-74"/>
      <use xlink:href="#DejaVuSans-72" x="39.208984"/>
      <use xlink:href="#DejaVuSans-61" x="80.322266"/>
      <use xlink:href="#DejaVuSans-69" x="141.601562"/>
      <use xlink:href="#DejaVuSans-6e" x="169.384766"/>
     </g>
    </g>
    <g id="line2d_26">
     <path d="M 99 70.976562 
L 109 70.976562 
L 119 70.976562 
" style="fill: none; stroke: #ff7f0e; stroke-width: 1.5; stroke-linecap: square"/>
    </g>
    <g id="text_16">
     <!-- validation -->
     <g transform="translate(127 74.476562) scale(0.1 -0.1)">
      <use xlink:href="#DejaVuSans-76"/>
      <use xlink:href="#DejaVuSans-61" x="59.179688"/>
      <use xlink:href="#DejaVuSans-6c" x="120.458984"/>
      <use xlink:href="#DejaVuSans-69" x="148.242188"/>
      <use xlink:href="#DejaVuSans-64" x="176.025391"/>
      <use xlink:href="#DejaVuSans-61" x="239.501953"/>
      <use xlink:href="#DejaVuSans-74" x="300.78125"/>
      <use xlink:href="#DejaVuSans-69" x="339.990234"/>
      <use xlink:href="#DejaVuSans-6f" x="367.773438"/>
      <use xlink:href="#DejaVuSans-6e" x="428.955078"/>
     </g>
    </g>
   </g>
  </g>
 </g>
 <defs>
  <clipPath id="pebb9df5432">
   <rect x="90" y="43.2" width="558" height="277.2"/>
  </clipPath>
 </defs>
</svg>
