<?xml version="1.0" encoding="utf-8" standalone="no"?>
<!DOCTYPE svg PUBLIC "-//W3C//DTD SVG 1.1//EN"
  "http://www.w3.org/Graphics/SVG/1.1/DTD/svg11.dtd">
<svg xmlns:xlink="http://www.w3.org/1999/xlink" width="720pt" height="360pt" viewBox="0 0 720 360" xmlns="http://www.w3.org/2000/svg" version="1.1">
 <metadata>
  <rdf:RDF xmlns:dc="http://purl.org/dc/elements/1.1/" xmlns:cc="http://creativecommons.org/ns#" xmlns:rdf="http://www.w3.org/1999/02/22-rdf-syntax-ns#">
   <cc:Work>
    <dc:type rdf:resource="http://purl.org/dc/dcmitype/StillImage"/>
    <dc:date>2023-05-24T11:34:38.515456</dc:date>
    <dc:format>image/svg+xml</dc:format>
    <dc:creator>
     <cc:Agent>
      <dc:title>Matplotlib v3.7.1, https://matplotlib.org/</dc:title>
     </cc:Agent>
    </dc:creator>
   </cc:Work>
  </rdf:RDF>
 </metadata>
 <defs>
  <style type="text/css">*{stroke-linejoin: round; stroke-linecap: butt}</style>
 </defs>
 <g id="figure_1">
  <g id="patch_1">
   <path d="M 0 360 
L 720 360 
L 720 0 
L 0 0 
z
" style="fill: #ffffff"/>
  </g>
  <g id="axes_1">
   <g id="patch_2">
    <path d="M 90 320.4 
L 648 320.4 
L 648 43.2 
L 90 43.2 
z
" style="fill: #ffffff"/>
   </g>
   <g id="matplotlib.axis_1">
    <g id="xtick_1">
     <g id="line2d_1">
      <path d="M 115.363636 320.4 
L 115.363636 43.2 
" clip-path="url(#pa1c3c6192f)" style="fill: none; stroke: #b0b0b0; stroke-width: 0.8; stroke-linecap: square"/>
     </g>
     <g id="line2d_2">
      <defs>
       <path id="m40d6494431" d="M 0 0 
L 0 3.5 
" style="stroke: #000000; stroke-width: 0.8"/>
      </defs>
      <g>
       <use xlink:href="#m40d6494431" x="115.363636" y="320.4" style="stroke: #000000; stroke-width: 0.8"/>
      </g>
     </g>
     <g id="text_1">
      <!-- 0 -->
      <g transform="translate(112.182386 334.998438) scale(0.1 -0.1)">
       <defs>
        <path id="DejaVuSans-30" d="M 2034 4250 
Q 1547 4250 1301 3770 
Q 1056 3291 1056 2328 
Q 1056 1369 1301 889 
Q 1547 409 2034 409 
Q 2525 409 2770 889 
Q 3016 1369 3016 2328 
Q 3016 3291 2770 3770 
Q 2525 4250 2034 4250 
z
M 2034 4750 
Q 2819 4750 3233 4129 
Q 3647 3509 3647 2328 
Q 3647 1150 3233 529 
Q 2819 -91 2034 -91 
Q 1250 -91 836 529 
Q 422 1150 422 2328 
Q 422 3509 836 4129 
Q 1250 4750 2034 4750 
z
" transform="scale(0.015625)"/>
       </defs>
       <use xlink:href="#DejaVuSans-30"/>
      </g>
     </g>
    </g>
    <g id="xtick_2">
     <g id="line2d_3">
      <path d="M 217.021498 320.4 
L 217.021498 43.2 
" clip-path="url(#pa1c3c6192f)" style="fill: none; stroke: #b0b0b0; stroke-width: 0.8; stroke-linecap: square"/>
     </g>
     <g id="line2d_4">
      <g>
       <use xlink:href="#m40d6494431" x="217.021498" y="320.4" style="stroke: #000000; stroke-width: 0.8"/>
      </g>
     </g>
     <g id="text_2">
      <!-- 100 -->
      <g transform="translate(207.477748 334.998438) scale(0.1 -0.1)">
       <defs>
        <path id="DejaVuSans-31" d="M 794 531 
L 1825 531 
L 1825 4091 
L 703 3866 
L 703 4441 
L 1819 4666 
L 2450 4666 
L 2450 531 
L 3481 531 
L 3481 0 
L 794 0 
L 794 531 
z
" transform="scale(0.015625)"/>
       </defs>
       <use xlink:href="#DejaVuSans-31"/>
       <use xlink:href="#DejaVuSans-30" x="63.623047"/>
       <use xlink:href="#DejaVuSans-30" x="127.246094"/>
      </g>
     </g>
    </g>
    <g id="xtick_3">
     <g id="line2d_5">
      <path d="M 318.679359 320.4 
L 318.679359 43.2 
" clip-path="url(#pa1c3c6192f)" style="fill: none; stroke: #b0b0b0; stroke-width: 0.8; stroke-linecap: square"/>
     </g>
     <g id="line2d_6">
      <g>
       <use xlink:href="#m40d6494431" x="318.679359" y="320.4" style="stroke: #000000; stroke-width: 0.8"/>
      </g>
     </g>
     <g id="text_3">
      <!-- 200 -->
      <g transform="translate(309.135609 334.998438) scale(0.1 -0.1)">
       <defs>
        <path id="DejaVuSans-32" d="M 1228 531 
L 3431 531 
L 3431 0 
L 469 0 
L 469 531 
Q 828 903 1448 1529 
Q 2069 2156 2228 2338 
Q 2531 2678 2651 2914 
Q 2772 3150 2772 3378 
Q 2772 3750 2511 3984 
Q 2250 4219 1831 4219 
Q 1534 4219 1204 4116 
Q 875 4013 500 3803 
L 500 4441 
Q 881 4594 1212 4672 
Q 1544 4750 1819 4750 
Q 2544 4750 2975 4387 
Q 3406 4025 3406 3419 
Q 3406 3131 3298 2873 
Q 3191 2616 2906 2266 
Q 2828 2175 2409 1742 
Q 1991 1309 1228 531 
z
" transform="scale(0.015625)"/>
       </defs>
       <use xlink:href="#DejaVuSans-32"/>
       <use xlink:href="#DejaVuSans-30" x="63.623047"/>
       <use xlink:href="#DejaVuSans-30" x="127.246094"/>
      </g>
     </g>
    </g>
    <g id="xtick_4">
     <g id="line2d_7">
      <path d="M 420.33722 320.4 
L 420.33722 43.2 
" clip-path="url(#pa1c3c6192f)" style="fill: none; stroke: #b0b0b0; stroke-width: 0.8; stroke-linecap: square"/>
     </g>
     <g id="line2d_8">
      <g>
       <use xlink:href="#m40d6494431" x="420.33722" y="320.4" style="stroke: #000000; stroke-width: 0.8"/>
      </g>
     </g>
     <g id="text_4">
      <!-- 300 -->
      <g transform="translate(410.79347 334.998438) scale(0.1 -0.1)">
       <defs>
        <path id="DejaVuSans-33" d="M 2597 2516 
Q 3050 2419 3304 2112 
Q 3559 1806 3559 1356 
Q 3559 666 3084 287 
Q 2609 -91 1734 -91 
Q 1441 -91 1130 -33 
Q 819 25 488 141 
L 488 750 
Q 750 597 1062 519 
Q 1375 441 1716 441 
Q 2309 441 2620 675 
Q 2931 909 2931 1356 
Q 2931 1769 2642 2001 
Q 2353 2234 1838 2234 
L 1294 2234 
L 1294 2753 
L 1863 2753 
Q 2328 2753 2575 2939 
Q 2822 3125 2822 3475 
Q 2822 3834 2567 4026 
Q 2313 4219 1838 4219 
Q 1578 4219 1281 4162 
Q 984 4106 628 3988 
L 628 4550 
Q 988 4650 1302 4700 
Q 1616 4750 1894 4750 
Q 2613 4750 3031 4423 
Q 3450 4097 3450 3541 
Q 3450 3153 3228 2886 
Q 3006 2619 2597 2516 
z
" transform="scale(0.015625)"/>
       </defs>
       <use xlink:href="#DejaVuSans-33"/>
       <use xlink:href="#DejaVuSans-30" x="63.623047"/>
       <use xlink:href="#DejaVuSans-30" x="127.246094"/>
      </g>
     </g>
    </g>
    <g id="xtick_5">
     <g id="line2d_9">
      <path d="M 521.995081 320.4 
L 521.995081 43.2 
" clip-path="url(#pa1c3c6192f)" style="fill: none; stroke: #b0b0b0; stroke-width: 0.8; stroke-linecap: square"/>
     </g>
     <g id="line2d_10">
      <g>
       <use xlink:href="#m40d6494431" x="521.995081" y="320.4" style="stroke: #000000; stroke-width: 0.8"/>
      </g>
     </g>
     <g id="text_5">
      <!-- 400 -->
      <g transform="translate(512.451331 334.998438) scale(0.1 -0.1)">
       <defs>
        <path id="DejaVuSans-34" d="M 2419 4116 
L 825 1625 
L 2419 1625 
L 2419 4116 
z
M 2253 4666 
L 3047 4666 
L 3047 1625 
L 3713 1625 
L 3713 1100 
L 3047 1100 
L 3047 0 
L 2419 0 
L 2419 1100 
L 313 1100 
L 313 1709 
L 2253 4666 
z
" transform="scale(0.015625)"/>
       </defs>
       <use xlink:href="#DejaVuSans-34"/>
       <use xlink:href="#DejaVuSans-30" x="63.623047"/>
       <use xlink:href="#DejaVuSans-30" x="127.246094"/>
      </g>
     </g>
    </g>
    <g id="xtick_6">
     <g id="line2d_11">
      <path d="M 623.652942 320.4 
L 623.652942 43.2 
" clip-path="url(#pa1c3c6192f)" style="fill: none; stroke: #b0b0b0; stroke-width: 0.8; stroke-linecap: square"/>
     </g>
     <g id="line2d_12">
      <g>
       <use xlink:href="#m40d6494431" x="623.652942" y="320.4" style="stroke: #000000; stroke-width: 0.8"/>
      </g>
     </g>
     <g id="text_6">
      <!-- 500 -->
      <g transform="translate(614.109192 334.998438) scale(0.1 -0.1)">
       <defs>
        <path id="DejaVuSans-35" d="M 691 4666 
L 3169 4666 
L 3169 4134 
L 1269 4134 
L 1269 2991 
Q 1406 3038 1543 3061 
Q 1681 3084 1819 3084 
Q 2600 3084 3056 2656 
Q 3513 2228 3513 1497 
Q 3513 744 3044 326 
Q 2575 -91 1722 -91 
Q 1428 -91 1123 -41 
Q 819 9 494 109 
L 494 744 
Q 775 591 1075 516 
Q 1375 441 1709 441 
Q 2250 441 2565 725 
Q 2881 1009 2881 1497 
Q 2881 1984 2565 2268 
Q 2250 2553 1709 2553 
Q 1456 2553 1204 2497 
Q 953 2441 691 2322 
L 691 4666 
z
" transform="scale(0.015625)"/>
       </defs>
       <use xlink:href="#DejaVuSans-35"/>
       <use xlink:href="#DejaVuSans-30" x="63.623047"/>
       <use xlink:href="#DejaVuSans-30" x="127.246094"/>
      </g>
     </g>
    </g>
    <g id="text_7">
     <!-- epoch -->
     <g transform="translate(353.771875 348.676562) scale(0.1 -0.1)">
      <defs>
       <path id="DejaVuSans-65" d="M 3597 1894 
L 3597 1613 
L 953 1613 
Q 991 1019 1311 708 
Q 1631 397 2203 397 
Q 2534 397 2845 478 
Q 3156 559 3463 722 
L 3463 178 
Q 3153 47 2828 -22 
Q 2503 -91 2169 -91 
Q 1331 -91 842 396 
Q 353 884 353 1716 
Q 353 2575 817 3079 
Q 1281 3584 2069 3584 
Q 2775 3584 3186 3129 
Q 3597 2675 3597 1894 
z
M 3022 2063 
Q 3016 2534 2758 2815 
Q 2500 3097 2075 3097 
Q 1594 3097 1305 2825 
Q 1016 2553 972 2059 
L 3022 2063 
z
" transform="scale(0.015625)"/>
       <path id="DejaVuSans-70" d="M 1159 525 
L 1159 -1331 
L 581 -1331 
L 581 3500 
L 1159 3500 
L 1159 2969 
Q 1341 3281 1617 3432 
Q 1894 3584 2278 3584 
Q 2916 3584 3314 3078 
Q 3713 2572 3713 1747 
Q 3713 922 3314 415 
Q 2916 -91 2278 -91 
Q 1894 -91 1617 61 
Q 1341 213 1159 525 
z
M 3116 1747 
Q 3116 2381 2855 2742 
Q 2594 3103 2138 3103 
Q 1681 3103 1420 2742 
Q 1159 2381 1159 1747 
Q 1159 1113 1420 752 
Q 1681 391 2138 391 
Q 2594 391 2855 752 
Q 3116 1113 3116 1747 
z
" transform="scale(0.015625)"/>
       <path id="DejaVuSans-6f" d="M 1959 3097 
Q 1497 3097 1228 2736 
Q 959 2375 959 1747 
Q 959 1119 1226 758 
Q 1494 397 1959 397 
Q 2419 397 2687 759 
Q 2956 1122 2956 1747 
Q 2956 2369 2687 2733 
Q 2419 3097 1959 3097 
z
M 1959 3584 
Q 2709 3584 3137 3096 
Q 3566 2609 3566 1747 
Q 3566 888 3137 398 
Q 2709 -91 1959 -91 
Q 1206 -91 779 398 
Q 353 888 353 1747 
Q 353 2609 779 3096 
Q 1206 3584 1959 3584 
z
" transform="scale(0.015625)"/>
       <path id="DejaVuSans-63" d="M 3122 3366 
L 3122 2828 
Q 2878 2963 2633 3030 
Q 2388 3097 2138 3097 
Q 1578 3097 1268 2742 
Q 959 2388 959 1747 
Q 959 1106 1268 751 
Q 1578 397 2138 397 
Q 2388 397 2633 464 
Q 2878 531 3122 666 
L 3122 134 
Q 2881 22 2623 -34 
Q 2366 -91 2075 -91 
Q 1284 -91 818 406 
Q 353 903 353 1747 
Q 353 2603 823 3093 
Q 1294 3584 2113 3584 
Q 2378 3584 2631 3529 
Q 2884 3475 3122 3366 
z
" transform="scale(0.015625)"/>
       <path id="DejaVuSans-68" d="M 3513 2113 
L 3513 0 
L 2938 0 
L 2938 2094 
Q 2938 2591 2744 2837 
Q 2550 3084 2163 3084 
Q 1697 3084 1428 2787 
Q 1159 2491 1159 1978 
L 1159 0 
L 581 0 
L 581 4863 
L 1159 4863 
L 1159 2956 
Q 1366 3272 1645 3428 
Q 1925 3584 2291 3584 
Q 2894 3584 3203 3211 
Q 3513 2838 3513 2113 
z
" transform="scale(0.015625)"/>
      </defs>
      <use xlink:href="#DejaVuSans-65"/>
      <use xlink:href="#DejaVuSans-70" x="61.523438"/>
      <use xlink:href="#DejaVuSans-6f" x="125"/>
      <use xlink:href="#DejaVuSans-63" x="186.181641"/>
      <use xlink:href="#DejaVuSans-68" x="241.162109"/>
     </g>
    </g>
   </g>
   <g id="matplotlib.axis_2">
    <g id="ytick_1">
     <g id="line2d_13">
      <path d="M 90 299.455427 
L 648 299.455427 
" clip-path="url(#pa1c3c6192f)" style="fill: none; stroke: #b0b0b0; stroke-width: 0.8; stroke-linecap: square"/>
     </g>
     <g id="line2d_14">
      <defs>
       <path id="m70e56a6708" d="M 0 0 
L -3.5 0 
" style="stroke: #000000; stroke-width: 0.8"/>
      </defs>
      <g>
       <use xlink:href="#m70e56a6708" x="90" y="299.455427" style="stroke: #000000; stroke-width: 0.8"/>
      </g>
     </g>
     <g id="text_8">
      <!-- 1.3800 -->
      <g transform="translate(48.009375 303.254646) scale(0.1 -0.1)">
       <defs>
        <path id="DejaVuSans-2e" d="M 684 794 
L 1344 794 
L 1344 0 
L 684 0 
L 684 794 
z
" transform="scale(0.015625)"/>
        <path id="DejaVuSans-38" d="M 2034 2216 
Q 1584 2216 1326 1975 
Q 1069 1734 1069 1313 
Q 1069 891 1326 650 
Q 1584 409 2034 409 
Q 2484 409 2743 651 
Q 3003 894 3003 1313 
Q 3003 1734 2745 1975 
Q 2488 2216 2034 2216 
z
M 1403 2484 
Q 997 2584 770 2862 
Q 544 3141 544 3541 
Q 544 4100 942 4425 
Q 1341 4750 2034 4750 
Q 2731 4750 3128 4425 
Q 3525 4100 3525 3541 
Q 3525 3141 3298 2862 
Q 3072 2584 2669 2484 
Q 3125 2378 3379 2068 
Q 3634 1759 3634 1313 
Q 3634 634 3220 271 
Q 2806 -91 2034 -91 
Q 1263 -91 848 271 
Q 434 634 434 1313 
Q 434 1759 690 2068 
Q 947 2378 1403 2484 
z
M 1172 3481 
Q 1172 3119 1398 2916 
Q 1625 2713 2034 2713 
Q 2441 2713 2670 2916 
Q 2900 3119 2900 3481 
Q 2900 3844 2670 4047 
Q 2441 4250 2034 4250 
Q 1625 4250 1398 4047 
Q 1172 3844 1172 3481 
z
" transform="scale(0.015625)"/>
       </defs>
       <use xlink:href="#DejaVuSans-31"/>
       <use xlink:href="#DejaVuSans-2e" x="63.623047"/>
       <use xlink:href="#DejaVuSans-33" x="95.410156"/>
       <use xlink:href="#DejaVuSans-38" x="159.033203"/>
       <use xlink:href="#DejaVuSans-30" x="222.65625"/>
       <use xlink:href="#DejaVuSans-30" x="286.279297"/>
      </g>
     </g>
    </g>
    <g id="ytick_2">
     <g id="line2d_15">
      <path d="M 90 267.486646 
L 648 267.486646 
" clip-path="url(#pa1c3c6192f)" style="fill: none; stroke: #b0b0b0; stroke-width: 0.8; stroke-linecap: square"/>
     </g>
     <g id="line2d_16">
      <g>
       <use xlink:href="#m70e56a6708" x="90" y="267.486646" style="stroke: #000000; stroke-width: 0.8"/>
      </g>
     </g>
     <g id="text_9">
      <!-- 1.3825 -->
      <g transform="translate(48.009375 271.285865) scale(0.1 -0.1)">
       <use xlink:href="#DejaVuSans-31"/>
       <use xlink:href="#DejaVuSans-2e" x="63.623047"/>
       <use xlink:href="#DejaVuSans-33" x="95.410156"/>
       <use xlink:href="#DejaVuSans-38" x="159.033203"/>
       <use xlink:href="#DejaVuSans-32" x="222.65625"/>
       <use xlink:href="#DejaVuSans-35" x="286.279297"/>
      </g>
     </g>
    </g>
    <g id="ytick_3">
     <g id="line2d_17">
      <path d="M 90 235.517866 
L 648 235.517866 
" clip-path="url(#pa1c3c6192f)" style="fill: none; stroke: #b0b0b0; stroke-width: 0.8; stroke-linecap: square"/>
     </g>
     <g id="line2d_18">
      <g>
       <use xlink:href="#m70e56a6708" x="90" y="235.517866" style="stroke: #000000; stroke-width: 0.8"/>
      </g>
     </g>
     <g id="text_10">
      <!-- 1.3850 -->
      <g transform="translate(48.009375 239.317085) scale(0.1 -0.1)">
       <use xlink:href="#DejaVuSans-31"/>
       <use xlink:href="#DejaVuSans-2e" x="63.623047"/>
       <use xlink:href="#DejaVuSans-33" x="95.410156"/>
       <use xlink:href="#DejaVuSans-38" x="159.033203"/>
       <use xlink:href="#DejaVuSans-35" x="222.65625"/>
       <use xlink:href="#DejaVuSans-30" x="286.279297"/>
      </g>
     </g>
    </g>
    <g id="ytick_4">
     <g id="line2d_19">
      <path d="M 90 203.549085 
L 648 203.549085 
" clip-path="url(#pa1c3c6192f)" style="fill: none; stroke: #b0b0b0; stroke-width: 0.8; stroke-linecap: square"/>
     </g>
     <g id="line2d_20">
      <g>
       <use xlink:href="#m70e56a6708" x="90" y="203.549085" style="stroke: #000000; stroke-width: 0.8"/>
      </g>
     </g>
     <g id="text_11">
      <!-- 1.3875 -->
      <g transform="translate(48.009375 207.348304) scale(0.1 -0.1)">
       <defs>
        <path id="DejaVuSans-37" d="M 525 4666 
L 3525 4666 
L 3525 4397 
L 1831 0 
L 1172 0 
L 2766 4134 
L 525 4134 
L 525 4666 
z
" transform="scale(0.015625)"/>
       </defs>
       <use xlink:href="#DejaVuSans-31"/>
       <use xlink:href="#DejaVuSans-2e" x="63.623047"/>
       <use xlink:href="#DejaVuSans-33" x="95.410156"/>
       <use xlink:href="#DejaVuSans-38" x="159.033203"/>
       <use xlink:href="#DejaVuSans-37" x="222.65625"/>
       <use xlink:href="#DejaVuSans-35" x="286.279297"/>
      </g>
     </g>
    </g>
    <g id="ytick_5">
     <g id="line2d_21">
      <path d="M 90 171.580305 
L 648 171.580305 
" clip-path="url(#pa1c3c6192f)" style="fill: none; stroke: #b0b0b0; stroke-width: 0.8; stroke-linecap: square"/>
     </g>
     <g id="line2d_22">
      <g>
       <use xlink:href="#m70e56a6708" x="90" y="171.580305" style="stroke: #000000; stroke-width: 0.8"/>
      </g>
     </g>
     <g id="text_12">
      <!-- 1.3900 -->
      <g transform="translate(48.009375 175.379524) scale(0.1 -0.1)">
       <defs>
        <path id="DejaVuSans-39" d="M 703 97 
L 703 672 
Q 941 559 1184 500 
Q 1428 441 1663 441 
Q 2288 441 2617 861 
Q 2947 1281 2994 2138 
Q 2813 1869 2534 1725 
Q 2256 1581 1919 1581 
Q 1219 1581 811 2004 
Q 403 2428 403 3163 
Q 403 3881 828 4315 
Q 1253 4750 1959 4750 
Q 2769 4750 3195 4129 
Q 3622 3509 3622 2328 
Q 3622 1225 3098 567 
Q 2575 -91 1691 -91 
Q 1453 -91 1209 -44 
Q 966 3 703 97 
z
M 1959 2075 
Q 2384 2075 2632 2365 
Q 2881 2656 2881 3163 
Q 2881 3666 2632 3958 
Q 2384 4250 1959 4250 
Q 1534 4250 1286 3958 
Q 1038 3666 1038 3163 
Q 1038 2656 1286 2365 
Q 1534 2075 1959 2075 
z
" transform="scale(0.015625)"/>
       </defs>
       <use xlink:href="#DejaVuSans-31"/>
       <use xlink:href="#DejaVuSans-2e" x="63.623047"/>
       <use xlink:href="#DejaVuSans-33" x="95.410156"/>
       <use xlink:href="#DejaVuSans-39" x="159.033203"/>
       <use xlink:href="#DejaVuSans-30" x="222.65625"/>
       <use xlink:href="#DejaVuSans-30" x="286.279297"/>
      </g>
     </g>
    </g>
    <g id="ytick_6">
     <g id="line2d_23">
      <path d="M 90 139.611524 
L 648 139.611524 
" clip-path="url(#pa1c3c6192f)" style="fill: none; stroke: #b0b0b0; stroke-width: 0.8; stroke-linecap: square"/>
     </g>
     <g id="line2d_24">
      <g>
       <use xlink:href="#m70e56a6708" x="90" y="139.611524" style="stroke: #000000; stroke-width: 0.8"/>
      </g>
     </g>
     <g id="text_13">
      <!-- 1.3925 -->
      <g transform="translate(48.009375 143.410743) scale(0.1 -0.1)">
       <use xlink:href="#DejaVuSans-31"/>
       <use xlink:href="#DejaVuSans-2e" x="63.623047"/>
       <use xlink:href="#DejaVuSans-33" x="95.410156"/>
       <use xlink:href="#DejaVuSans-39" x="159.033203"/>
       <use xlink:href="#DejaVuSans-32" x="222.65625"/>
       <use xlink:href="#DejaVuSans-35" x="286.279297"/>
      </g>
     </g>
    </g>
    <g id="ytick_7">
     <g id="line2d_25">
      <path d="M 90 107.642744 
L 648 107.642744 
" clip-path="url(#pa1c3c6192f)" style="fill: none; stroke: #b0b0b0; stroke-width: 0.8; stroke-linecap: square"/>
     </g>
     <g id="line2d_26">
      <g>
       <use xlink:href="#m70e56a6708" x="90" y="107.642744" style="stroke: #000000; stroke-width: 0.8"/>
      </g>
     </g>
     <g id="text_14">
      <!-- 1.3950 -->
      <g transform="translate(48.009375 111.441963) scale(0.1 -0.1)">
       <use xlink:href="#DejaVuSans-31"/>
       <use xlink:href="#DejaVuSans-2e" x="63.623047"/>
       <use xlink:href="#DejaVuSans-33" x="95.410156"/>
       <use xlink:href="#DejaVuSans-39" x="159.033203"/>
       <use xlink:href="#DejaVuSans-35" x="222.65625"/>
       <use xlink:href="#DejaVuSans-30" x="286.279297"/>
      </g>
     </g>
    </g>
    <g id="ytick_8">
     <g id="line2d_27">
      <path d="M 90 75.673963 
L 648 75.673963 
" clip-path="url(#pa1c3c6192f)" style="fill: none; stroke: #b0b0b0; stroke-width: 0.8; stroke-linecap: square"/>
     </g>
     <g id="line2d_28">
      <g>
       <use xlink:href="#m70e56a6708" x="90" y="75.673963" style="stroke: #000000; stroke-width: 0.8"/>
      </g>
     </g>
     <g id="text_15">
      <!-- 1.3975 -->
      <g transform="translate(48.009375 79.473182) scale(0.1 -0.1)">
       <use xlink:href="#DejaVuSans-31"/>
       <use xlink:href="#DejaVuSans-2e" x="63.623047"/>
       <use xlink:href="#DejaVuSans-33" x="95.410156"/>
       <use xlink:href="#DejaVuSans-39" x="159.033203"/>
       <use xlink:href="#DejaVuSans-37" x="222.65625"/>
       <use xlink:href="#DejaVuSans-35" x="286.279297"/>
      </g>
     </g>
    </g>
    <g id="ytick_9">
     <g id="line2d_29">
      <path d="M 90 43.705183 
L 648 43.705183 
" clip-path="url(#pa1c3c6192f)" style="fill: none; stroke: #b0b0b0; stroke-width: 0.8; stroke-linecap: square"/>
     </g>
     <g id="line2d_30">
      <g>
       <use xlink:href="#m70e56a6708" x="90" y="43.705183" style="stroke: #000000; stroke-width: 0.8"/>
      </g>
     </g>
     <g id="text_16">
      <!-- 1.4000 -->
      <g transform="translate(48.009375 47.504402) scale(0.1 -0.1)">
       <use xlink:href="#DejaVuSans-31"/>
       <use xlink:href="#DejaVuSans-2e" x="63.623047"/>
       <use xlink:href="#DejaVuSans-34" x="95.410156"/>
       <use xlink:href="#DejaVuSans-30" x="159.033203"/>
       <use xlink:href="#DejaVuSans-30" x="222.65625"/>
       <use xlink:href="#DejaVuSans-30" x="286.279297"/>
      </g>
     </g>
    </g>
    <g id="text_17">
     <!-- loss -->
     <g transform="translate(41.929688 191.457812) rotate(-90) scale(0.1 -0.1)">
      <defs>
       <path id="DejaVuSans-6c" d="M 603 4863 
L 1178 4863 
L 1178 0 
L 603 0 
L 603 4863 
z
" transform="scale(0.015625)"/>
       <path id="DejaVuSans-73" d="M 2834 3397 
L 2834 2853 
Q 2591 2978 2328 3040 
Q 2066 3103 1784 3103 
Q 1356 3103 1142 2972 
Q 928 2841 928 2578 
Q 928 2378 1081 2264 
Q 1234 2150 1697 2047 
L 1894 2003 
Q 2506 1872 2764 1633 
Q 3022 1394 3022 966 
Q 3022 478 2636 193 
Q 2250 -91 1575 -91 
Q 1294 -91 989 -36 
Q 684 19 347 128 
L 347 722 
Q 666 556 975 473 
Q 1284 391 1588 391 
Q 1994 391 2212 530 
Q 2431 669 2431 922 
Q 2431 1156 2273 1281 
Q 2116 1406 1581 1522 
L 1381 1569 
Q 847 1681 609 1914 
Q 372 2147 372 2553 
Q 372 3047 722 3315 
Q 1072 3584 1716 3584 
Q 2034 3584 2315 3537 
Q 2597 3491 2834 3397 
z
" transform="scale(0.015625)"/>
      </defs>
      <use xlink:href="#DejaVuSans-6c"/>
      <use xlink:href="#DejaVuSans-6f" x="27.783203"/>
      <use xlink:href="#DejaVuSans-73" x="88.964844"/>
      <use xlink:href="#DejaVuSans-73" x="141.064453"/>
     </g>
    </g>
   </g>
   <g id="line2d_31">
    <path d="M 115.363636 186.394512 
L 116.380215 158.082012 
L 117.396794 117.670427 
L 118.413372 249.252744 
L 119.429951 195.252744 
L 120.446529 212.057622 
L 121.463108 238.379268 
L 122.479687 162.054573 
L 123.496265 148.197866 
L 124.512844 201.309146 
L 125.529422 151.992073 
L 126.546001 127.940244 
L 127.56258 224.865549 
L 128.579158 135.037805 
L 129.595737 209.048476 
L 130.612316 188.239024 
L 131.628894 197.929573 
L 132.645473 208.740549 
L 133.662051 210.719207 
L 134.67863 180.499695 
L 135.695209 80.2375 
L 136.711787 109.789329 
L 137.728366 133.842683 
L 138.744944 135.333537 
L 139.761523 152.086585 
L 140.778102 180.110976 
L 141.79468 227.609451 
L 142.811259 195.028659 
L 143.827837 220.620122 
L 144.844416 172.455488 
L 145.860995 162.841159 
L 146.877573 161.9875 
L 147.894152 224.021037 
L 148.910731 224.235976 
L 149.927309 184.572866 
L 150.943888 173.304573 
L 151.960466 213.943293 
L 152.977045 169.472256 
L 153.993624 188.322866 
L 155.010202 156.772561 
L 156.026781 109.085061 
L 157.043359 166.899085 
L 158.059938 135.716159 
L 159.076517 219.7375 
L 160.093095 158.769512 
L 161.109674 210.717683 
L 162.126253 234.469207 
L 163.142831 158.01189 
L 164.15941 202.115549 
L 165.175988 166.505793 
L 166.192567 223.796951 
L 167.209146 151.078963 
L 168.225724 143.806098 
L 169.242303 125.566768 
L 170.258881 227.2375 
L 171.27546 167.350305 
L 172.292039 199.562195 
L 173.308617 186.711585 
L 174.325196 250.530183 
L 175.341774 143.383841 
L 176.358353 232.554573 
L 177.374932 184.46311 
L 178.39151 195.970732 
L 179.408089 196.976829 
L 180.424668 157.335061 
L 181.441246 178.582012 
L 182.457825 247.114024 
L 183.474403 113.604878 
L 184.490982 183.002744 
L 185.507561 231.065244 
L 186.524139 188.521037 
L 187.540718 138.203963 
L 188.557296 159.123171 
L 189.573875 216.670427 
L 190.590454 151.671951 
L 191.607032 140.292378 
L 192.623611 174.351829 
L 193.640189 198.75122 
L 194.656768 119.638415 
L 195.673347 142.630793 
L 196.689925 204.249695 
L 197.706504 55.8 
L 198.723083 222.940244 
L 199.739661 212.857927 
L 200.75624 164.830488 
L 201.772818 224.008841 
L 202.789397 194.139939 
L 203.805976 216.964634 
L 204.822554 67.696341 
L 205.839133 175.028659 
L 206.855711 228.717683 
L 207.87229 223.146037 
L 208.888869 190.367073 
L 209.905447 112.316768 
L 210.922026 207.537805 
L 211.938604 213.531707 
L 212.955183 235.745122 
L 213.971762 195.377744 
L 214.98834 128.458537 
L 216.004919 188.47378 
L 217.021498 133.952439 
L 218.038076 152.03628 
L 219.054655 211.591159 
L 220.071233 175.207012 
L 221.087812 181.670427 
L 222.104391 148.560671 
L 223.120969 130.897561 
L 224.137548 222.482927 
L 225.154126 233.403659 
L 226.170705 221.19939 
L 227.187284 180.825915 
L 228.203862 208.533232 
L 229.220441 115.475305 
L 230.237019 149.249695 
L 231.253598 214.707012 
L 232.270177 201.566768 
L 233.286755 209.455488 
L 234.303334 145.758841 
L 235.319913 166.440244 
L 236.336491 191.609451 
L 237.35307 191.610976 
L 238.369648 165.245122 
L 239.386227 223.53628 
L 240.402806 138.382317 
L 241.419384 104.301524 
L 242.435963 206.426524 
L 243.452541 128.999695 
L 244.46912 229.996646 
L 245.485699 180.391463 
L 246.502277 220.368598 
L 247.518856 157.328963 
L 248.535435 196.075915 
L 249.552013 155.092683 
L 250.568592 254.554573 
L 251.58517 186.139939 
L 252.601749 236.620122 
L 253.618328 165.420427 
L 254.634906 215.667378 
L 255.651485 212.249695 
L 256.668063 168.452439 
L 257.684642 229.325915 
L 258.701221 137.004268 
L 259.717799 186.516463 
L 260.734378 81.239024 
L 261.750956 183.748171 
L 262.767535 149.978354 
L 263.784114 142.847256 
L 264.800692 188.280183 
L 265.817271 168.225305 
L 266.83385 258.630793 
L 267.850428 174.149085 
L 268.867007 213.042378 
L 269.883585 171.659756 
L 270.900164 240.008841 
L 271.916743 205.002744 
L 272.933321 182.2375 
L 273.9499 220.264939 
L 274.966478 125.464634 
L 275.983057 162.685671 
L 276.999636 258.63689 
L 278.016214 187.594207 
L 279.032793 156.659756 
L 280.049371 224.21311 
L 281.06595 235.781707 
L 282.082529 211.935671 
L 283.099107 216.190244 
L 284.115686 124.717683 
L 285.132265 228.296951 
L 286.148843 186.182622 
L 287.165422 115.918902 
L 288.182 173.859451 
L 289.198579 241.106402 
L 290.215158 151.630793 
L 291.231736 154.748171 
L 292.248315 229.365549 
L 293.264893 134.434146 
L 294.281472 97.147561 
L 295.298051 190.675 
L 296.314629 120.117073 
L 297.331208 182.578963 
L 298.347786 219.106402 
L 300.380944 155.62622 
L 301.397522 173.6125 
L 302.414101 196.781707 
L 303.43068 205.19939 
L 304.447258 209.280183 
L 305.463837 69.804573 
L 306.480415 202.277134 
L 307.496994 184.638415 
L 308.513573 178.66128 
L 309.530151 173.970732 
L 310.54673 126.635366 
L 311.563308 180.106402 
L 312.579887 157.428049 
L 313.596466 88.391463 
L 314.613044 218.78628 
L 315.629623 173.008841 
L 316.646201 193.347256 
L 317.66278 210.33811 
L 318.679359 167.005793 
L 319.695937 186.28628 
L 320.712516 134.328963 
L 322.745673 229.354878 
L 323.762252 242.267988 
L 324.77883 247.482927 
L 325.795409 244.295427 
L 326.811988 201.792378 
L 327.828566 183.264939 
L 328.845145 263.981402 
L 330.878302 144.897561 
L 331.894881 241.953963 
L 332.911459 61.330488 
L 333.928038 234.295427 
L 334.944617 173.758841 
L 335.961195 95.719207 
L 336.977774 230.595732 
L 337.994352 139.130793 
L 339.010931 193.633841 
L 340.02751 204.12622 
L 341.044088 162.542378 
L 342.060667 211.796951 
L 343.077245 184.264939 
L 344.093824 204.728354 
L 345.110403 164.542378 
L 346.126981 205.725305 
L 347.14356 186.312195 
L 348.160138 158.254268 
L 349.176717 140.103354 
L 350.193296 177.377744 
L 351.209874 208.452439 
L 352.226453 216.732927 
L 353.243032 141.321341 
L 354.25961 131.891463 
L 355.276189 200.264939 
L 356.292767 224.447866 
L 357.309346 129.008841 
L 358.325925 217.999695 
L 359.342503 200.048476 
L 360.359082 202.214634 
L 361.37566 127.260366 
L 362.392239 138.069817 
L 363.408818 186.02561 
L 364.425396 211.792378 
L 365.441975 205.408232 
L 366.458553 186.781707 
L 367.475132 171.950915 
L 368.491711 162.857927 
L 369.508289 147.220732 
L 370.524868 141.935671 
L 371.541447 148.110976 
L 372.558025 144.914329 
L 373.574604 202.394512 
L 374.591182 216.269512 
L 375.607761 233.618598 
L 376.62434 198.772561 
L 377.640918 173.121646 
L 378.657497 111.060671 
L 379.674075 184.360976 
L 380.690654 204.766463 
L 381.707233 170.781707 
L 382.723811 59.330488 
L 383.74039 196.646037 
L 384.756968 241.955488 
L 386.790126 173.118598 
L 387.806704 212.434146 
L 388.823283 85.428049 
L 389.839862 238.972256 
L 390.85644 202.179573 
L 391.873019 179.96311 
L 392.889597 173.121646 
L 393.906176 212.435671 
L 394.922755 177.807622 
L 395.939333 203.918902 
L 396.955912 85.902134 
L 397.97249 231.444817 
L 398.989069 187.030183 
L 400.005648 195.303049 
L 401.022226 168.833537 
L 402.038805 184.179573 
L 403.055383 169.993598 
L 404.071962 216.93872 
L 405.088541 188.835061 
L 406.105119 227.190244 
L 407.121698 212.671951 
L 408.138277 100.203963 
L 409.154855 199.118598 
L 410.171434 168.472256 
L 411.188012 165.452439 
L 412.204591 170.841159 
L 413.22117 174.289329 
L 414.237748 157.717683 
L 415.254327 153.328963 
L 416.270905 154.533232 
L 417.287484 106.354878 
L 418.304063 212.859451 
L 419.320641 166.005793 
L 420.33722 109.243598 
L 421.353799 222.05 
L 422.370377 202.21311 
L 423.386956 223.328963 
L 424.403534 264.828963 
L 425.420113 169.635366 
L 426.436692 190.75122 
L 427.45327 141.807622 
L 428.469849 194.062195 
L 429.486427 231.484451 
L 430.503006 189.342683 
L 431.519585 163.792378 
L 432.536163 185.295427 
L 433.552742 175.284756 
L 434.56932 201.328963 
L 435.585899 213.440244 
L 436.602478 143.31372 
L 437.619056 133.149085 
L 438.635635 171.197866 
L 439.652214 144.379268 
L 440.668792 158.176524 
L 441.685371 179.094207 
L 442.701949 232.76189 
L 443.718528 111.685671 
L 444.735107 159.560671 
L 445.751685 181.03628 
L 446.768264 176.423476 
L 447.784842 146.757317 
L 448.801421 244.777134 
L 449.818 149.2375 
L 450.834578 259.464634 
L 451.851157 157.822866 
L 452.867735 146.505793 
L 453.884314 162.15061 
L 454.900893 249.342683 
L 455.917471 121.103354 
L 456.93405 157.121646 
L 457.950629 116.615549 
L 458.967207 173.225305 
L 459.983786 242.127744 
L 461.000364 198.101829 
L 462.016943 138.630793 
L 463.033522 229.758841 
L 464.0501 135.435671 
L 465.066679 170.216159 
L 466.083257 180.822866 
L 467.099836 168.533232 
L 468.116415 144.710061 
L 469.132993 175.235976 
L 470.149572 225.271037 
L 471.16615 132.970732 
L 472.182729 214.806098 
L 473.199308 138.38689 
L 474.215886 241.755793 
L 475.232465 147.476829 
L 476.249044 262.02561 
L 477.265622 239.603354 
L 478.282201 137.138415 
L 479.298779 152.295427 
L 480.315358 241.062195 
L 481.331937 201.328963 
L 482.348515 222.181098 
L 483.365094 161.3625 
L 484.381672 203.460061 
L 485.398251 171.426524 
L 486.41483 161.479878 
L 487.431408 213.743598 
L 488.447987 166.492073 
L 489.464565 180.164329 
L 490.481144 137.452439 
L 491.497723 220.760366 
L 492.514301 247.912805 
L 493.53088 219.950915 
L 494.547459 171.825915 
L 495.564037 137.84878 
L 496.580616 198.121646 
L 497.597194 194.505793 
L 498.613773 181.053049 
L 499.630352 94.894512 
L 500.64693 209.455488 
L 501.663509 176.969207 
L 502.680087 213.571341 
L 503.696666 202.127744 
L 504.713245 149.7375 
L 505.729823 177.725305 
L 506.746402 153.545427 
L 507.762981 229.447866 
L 508.779559 204.371646 
L 509.796138 194.295427 
L 510.812716 195.52561 
L 511.829295 220.341159 
L 512.845874 192.565244 
L 513.862452 146.296951 
L 514.879031 225.069817 
L 515.895609 195.565244 
L 516.912188 234.466159 
L 517.928767 134.030183 
L 518.945345 161.184146 
L 519.961924 229.9875 
L 520.978502 172.716159 
L 521.995081 215.455488 
L 523.01166 192.960061 
L 524.028238 182.072866 
L 525.044817 163.516463 
L 526.061396 167.745122 
L 527.077974 202.091159 
L 528.094553 175.490549 
L 529.111131 168.972256 
L 530.12771 157.194817 
L 531.144289 225.281707 
L 532.160867 168.431098 
L 533.177446 238.943293 
L 535.210603 183.135366 
L 536.227182 206.604878 
L 537.24376 217.158232 
L 538.260339 131.91128 
L 539.276917 203.289329 
L 540.293496 149.610976 
L 541.310075 176.327439 
L 542.326653 102.710061 
L 543.343232 268.02561 
L 544.359811 151.002744 
L 545.376389 224.027134 
L 546.392968 211.354878 
L 547.409546 179.675 
L 548.426125 225.946341 
L 550.459282 147.903659 
L 551.475861 138.109451 
L 552.492439 181.138415 
L 553.509018 185.908232 
L 554.525597 206.271037 
L 555.542175 193.757317 
L 556.558754 182.871646 
L 557.575332 159.874695 
L 558.591911 175.082012 
L 559.60849 155.790854 
L 560.625068 207.396037 
L 561.641647 187.214634 
L 562.658226 205.597256 
L 563.674804 254.668902 
L 565.707961 214.517988 
L 566.72454 241.066768 
L 568.757697 157.960061 
L 569.774276 200.694817 
L 570.790854 203.062195 
L 571.807433 188.278659 
L 572.824012 167.142988 
L 573.84059 274.220732 
L 574.857169 234.671951 
L 575.873747 166.769512 
L 576.890326 121.057622 
L 577.906905 177.414329 
L 578.923483 190.928049 
L 579.940062 131.664329 
L 580.956641 235.734451 
L 581.973219 160.420427 
L 582.989798 176.447866 
L 584.006376 251.359451 
L 585.022955 203.475305 
L 586.039534 89.02561 
L 587.056112 197.937195 
L 588.072691 152.187195 
L 589.089269 208.597256 
L 590.105848 212.638415 
L 591.122427 169.638415 
L 592.139005 182.222256 
L 593.155584 214.371646 
L 594.172163 212.684146 
L 595.188741 232.55 
L 596.20532 159.246646 
L 597.221898 136.22378 
L 598.238477 191.635366 
L 599.255056 134.571341 
L 600.271634 182.118598 
L 601.288213 235.655183 
L 602.304791 179.764939 
L 603.32137 134.44939 
L 604.337949 145.757317 
L 605.354527 152.09878 
L 606.371106 184.554573 
L 607.387684 212.769512 
L 608.404263 258.621646 
L 609.420842 83.993598 
L 610.43742 200.028659 
L 611.453999 165.354878 
L 612.470578 213.582012 
L 613.487156 180.05 
L 614.503735 201.810671 
L 615.520313 201.798476 
L 616.536892 136.580488 
L 617.553471 213.985976 
L 618.570049 179.342683 
L 619.586628 120.767988 
L 620.603206 195.793902 
L 621.619785 182.638415 
L 622.636364 192.580488 
L 622.636364 192.580488 
" clip-path="url(#pa1c3c6192f)" style="fill: none; stroke: #1f77b4; stroke-width: 1.5; stroke-linecap: square"/>
   </g>
   <g id="line2d_32">
    <path d="M 115.363636 307.787805 
L 180.424668 307.678049 
L 191.607032 307.685671 
L 197.706504 307.656707 
L 213.971762 307.644512 
L 367.475132 307.534756 
L 443.718528 307.397561 
L 446.768264 307.40061 
L 456.93405 307.434146 
L 508.779559 307.309146 
L 556.558754 307.339634 
L 568.757697 307.34878 
L 575.873747 307.339634 
L 591.122427 307.327439 
L 622.636364 307.3 
L 622.636364 307.3 
" clip-path="url(#pa1c3c6192f)" style="fill: none; stroke: #ff7f0e; stroke-width: 1.5; stroke-linecap: square"/>
   </g>
   <g id="patch_3">
    <path d="M 90 320.4 
L 90 43.2 
" style="fill: none; stroke: #000000; stroke-width: 0.8; stroke-linejoin: miter; stroke-linecap: square"/>
   </g>
   <g id="patch_4">
    <path d="M 648 320.4 
L 648 43.2 
" style="fill: none; stroke: #000000; stroke-width: 0.8; stroke-linejoin: miter; stroke-linecap: square"/>
   </g>
   <g id="patch_5">
    <path d="M 90 320.4 
L 648 320.4 
" style="fill: none; stroke: #000000; stroke-width: 0.8; stroke-linejoin: miter; stroke-linecap: square"/>
   </g>
   <g id="patch_6">
    <path d="M 90 43.2 
L 648 43.2 
" style="fill: none; stroke: #000000; stroke-width: 0.8; stroke-linejoin: miter; stroke-linecap: square"/>
   </g>
   <g id="text_18">
    <!-- model train and validation loss over time -->
    <g transform="translate(245.555625 37.2) scale(0.12 -0.12)">
     <defs>
      <path id="DejaVuSans-6d" d="M 3328 2828 
Q 3544 3216 3844 3400 
Q 4144 3584 4550 3584 
Q 5097 3584 5394 3201 
Q 5691 2819 5691 2113 
L 5691 0 
L 5113 0 
L 5113 2094 
Q 5113 2597 4934 2840 
Q 4756 3084 4391 3084 
Q 3944 3084 3684 2787 
Q 3425 2491 3425 1978 
L 3425 0 
L 2847 0 
L 2847 2094 
Q 2847 2600 2669 2842 
Q 2491 3084 2119 3084 
Q 1678 3084 1418 2786 
Q 1159 2488 1159 1978 
L 1159 0 
L 581 0 
L 581 3500 
L 1159 3500 
L 1159 2956 
Q 1356 3278 1631 3431 
Q 1906 3584 2284 3584 
Q 2666 3584 2933 3390 
Q 3200 3197 3328 2828 
z
" transform="scale(0.015625)"/>
      <path id="DejaVuSans-64" d="M 2906 2969 
L 2906 4863 
L 3481 4863 
L 3481 0 
L 2906 0 
L 2906 525 
Q 2725 213 2448 61 
Q 2172 -91 1784 -91 
Q 1150 -91 751 415 
Q 353 922 353 1747 
Q 353 2572 751 3078 
Q 1150 3584 1784 3584 
Q 2172 3584 2448 3432 
Q 2725 3281 2906 2969 
z
M 947 1747 
Q 947 1113 1208 752 
Q 1469 391 1925 391 
Q 2381 391 2643 752 
Q 2906 1113 2906 1747 
Q 2906 2381 2643 2742 
Q 2381 3103 1925 3103 
Q 1469 3103 1208 2742 
Q 947 2381 947 1747 
z
" transform="scale(0.015625)"/>
      <path id="DejaVuSans-20" transform="scale(0.015625)"/>
      <path id="DejaVuSans-74" d="M 1172 4494 
L 1172 3500 
L 2356 3500 
L 2356 3053 
L 1172 3053 
L 1172 1153 
Q 1172 725 1289 603 
Q 1406 481 1766 481 
L 2356 481 
L 2356 0 
L 1766 0 
Q 1100 0 847 248 
Q 594 497 594 1153 
L 594 3053 
L 172 3053 
L 172 3500 
L 594 3500 
L 594 4494 
L 1172 4494 
z
" transform="scale(0.015625)"/>
      <path id="DejaVuSans-72" d="M 2631 2963 
Q 2534 3019 2420 3045 
Q 2306 3072 2169 3072 
Q 1681 3072 1420 2755 
Q 1159 2438 1159 1844 
L 1159 0 
L 581 0 
L 581 3500 
L 1159 3500 
L 1159 2956 
Q 1341 3275 1631 3429 
Q 1922 3584 2338 3584 
Q 2397 3584 2469 3576 
Q 2541 3569 2628 3553 
L 2631 2963 
z
" transform="scale(0.015625)"/>
      <path id="DejaVuSans-61" d="M 2194 1759 
Q 1497 1759 1228 1600 
Q 959 1441 959 1056 
Q 959 750 1161 570 
Q 1363 391 1709 391 
Q 2188 391 2477 730 
Q 2766 1069 2766 1631 
L 2766 1759 
L 2194 1759 
z
M 3341 1997 
L 3341 0 
L 2766 0 
L 2766 531 
Q 2569 213 2275 61 
Q 1981 -91 1556 -91 
Q 1019 -91 701 211 
Q 384 513 384 1019 
Q 384 1609 779 1909 
Q 1175 2209 1959 2209 
L 2766 2209 
L 2766 2266 
Q 2766 2663 2505 2880 
Q 2244 3097 1772 3097 
Q 1472 3097 1187 3025 
Q 903 2953 641 2809 
L 641 3341 
Q 956 3463 1253 3523 
Q 1550 3584 1831 3584 
Q 2591 3584 2966 3190 
Q 3341 2797 3341 1997 
z
" transform="scale(0.015625)"/>
      <path id="DejaVuSans-69" d="M 603 3500 
L 1178 3500 
L 1178 0 
L 603 0 
L 603 3500 
z
M 603 4863 
L 1178 4863 
L 1178 4134 
L 603 4134 
L 603 4863 
z
" transform="scale(0.015625)"/>
      <path id="DejaVuSans-6e" d="M 3513 2113 
L 3513 0 
L 2938 0 
L 2938 2094 
Q 2938 2591 2744 2837 
Q 2550 3084 2163 3084 
Q 1697 3084 1428 2787 
Q 1159 2491 1159 1978 
L 1159 0 
L 581 0 
L 581 3500 
L 1159 3500 
L 1159 2956 
Q 1366 3272 1645 3428 
Q 1925 3584 2291 3584 
Q 2894 3584 3203 3211 
Q 3513 2838 3513 2113 
z
" transform="scale(0.015625)"/>
      <path id="DejaVuSans-76" d="M 191 3500 
L 800 3500 
L 1894 563 
L 2988 3500 
L 3597 3500 
L 2284 0 
L 1503 0 
L 191 3500 
z
" transform="scale(0.015625)"/>
     </defs>
     <use xlink:href="#DejaVuSans-6d"/>
     <use xlink:href="#DejaVuSans-6f" x="97.412109"/>
     <use xlink:href="#DejaVuSans-64" x="158.59375"/>
     <use xlink:href="#DejaVuSans-65" x="222.070312"/>
     <use xlink:href="#DejaVuSans-6c" x="283.59375"/>
     <use xlink:href="#DejaVuSans-20" x="311.376953"/>
     <use xlink:href="#DejaVuSans-74" x="343.164062"/>
     <use xlink:href="#DejaVuSans-72" x="382.373047"/>
     <use xlink:href="#DejaVuSans-61" x="423.486328"/>
     <use xlink:href="#DejaVuSans-69" x="484.765625"/>
     <use xlink:href="#DejaVuSans-6e" x="512.548828"/>
     <use xlink:href="#DejaVuSans-20" x="575.927734"/>
     <use xlink:href="#DejaVuSans-61" x="607.714844"/>
     <use xlink:href="#DejaVuSans-6e" x="668.994141"/>
     <use xlink:href="#DejaVuSans-64" x="732.373047"/>
     <use xlink:href="#DejaVuSans-20" x="795.849609"/>
     <use xlink:href="#DejaVuSans-76" x="827.636719"/>
     <use xlink:href="#DejaVuSans-61" x="886.816406"/>
     <use xlink:href="#DejaVuSans-6c" x="948.095703"/>
     <use xlink:href="#DejaVuSans-69" x="975.878906"/>
     <use xlink:href="#DejaVuSans-64" x="1003.662109"/>
     <use xlink:href="#DejaVuSans-61" x="1067.138672"/>
     <use xlink:href="#DejaVuSans-74" x="1128.417969"/>
     <use xlink:href="#DejaVuSans-69" x="1167.626953"/>
     <use xlink:href="#DejaVuSans-6f" x="1195.410156"/>
     <use xlink:href="#DejaVuSans-6e" x="1256.591797"/>
     <use xlink:href="#DejaVuSans-20" x="1319.970703"/>
     <use xlink:href="#DejaVuSans-6c" x="1351.757812"/>
     <use xlink:href="#DejaVuSans-6f" x="1379.541016"/>
     <use xlink:href="#DejaVuSans-73" x="1440.722656"/>
     <use xlink:href="#DejaVuSans-73" x="1492.822266"/>
     <use xlink:href="#DejaVuSans-20" x="1544.921875"/>
     <use xlink:href="#DejaVuSans-6f" x="1576.708984"/>
     <use xlink:href="#DejaVuSans-76" x="1637.890625"/>
     <use xlink:href="#DejaVuSans-65" x="1697.070312"/>
     <use xlink:href="#DejaVuSans-72" x="1758.59375"/>
     <use xlink:href="#DejaVuSans-20" x="1799.707031"/>
     <use xlink:href="#DejaVuSans-74" x="1831.494141"/>
     <use xlink:href="#DejaVuSans-69" x="1870.703125"/>
     <use xlink:href="#DejaVuSans-6d" x="1898.486328"/>
     <use xlink:href="#DejaVuSans-65" x="1995.898438"/>
    </g>
   </g>
   <g id="legend_1">
    <g id="patch_7">
     <path d="M 559.765625 80.55625 
L 641 80.55625 
Q 643 80.55625 643 78.55625 
L 643 50.2 
Q 643 48.2 641 48.2 
L 559.765625 48.2 
Q 557.765625 48.2 557.765625 50.2 
L 557.765625 78.55625 
Q 557.765625 80.55625 559.765625 80.55625 
z
" style="fill: #ffffff; opacity: 0.8; stroke: #cccccc; stroke-linejoin: miter"/>
    </g>
    <g id="line2d_33">
     <path d="M 561.765625 56.298437 
L 571.765625 56.298437 
L 581.765625 56.298437 
" style="fill: none; stroke: #1f77b4; stroke-width: 1.5; stroke-linecap: square"/>
    </g>
    <g id="text_19">
     <!-- train -->
     <g transform="translate(589.765625 59.798437) scale(0.1 -0.1)">
      <use xlink:href="#DejaVuSans-74"/>
      <use xlink:href="#DejaVuSans-72" x="39.208984"/>
      <use xlink:href="#DejaVuSans-61" x="80.322266"/>
      <use xlink:href="#DejaVuSans-69" x="141.601562"/>
      <use xlink:href="#DejaVuSans-6e" x="169.384766"/>
     </g>
    </g>
    <g id="line2d_34">
     <path d="M 561.765625 70.976562 
L 571.765625 70.976562 
L 581.765625 70.976562 
" style="fill: none; stroke: #ff7f0e; stroke-width: 1.5; stroke-linecap: square"/>
    </g>
    <g id="text_20">
     <!-- validation -->
     <g transform="translate(589.765625 74.476562) scale(0.1 -0.1)">
      <use xlink:href="#DejaVuSans-76"/>
      <use xlink:href="#DejaVuSans-61" x="59.179688"/>
      <use xlink:href="#DejaVuSans-6c" x="120.458984"/>
      <use xlink:href="#DejaVuSans-69" x="148.242188"/>
      <use xlink:href="#DejaVuSans-64" x="176.025391"/>
      <use xlink:href="#DejaVuSans-61" x="239.501953"/>
      <use xlink:href="#DejaVuSans-74" x="300.78125"/>
      <use xlink:href="#DejaVuSans-69" x="339.990234"/>
      <use xlink:href="#DejaVuSans-6f" x="367.773438"/>
      <use xlink:href="#DejaVuSans-6e" x="428.955078"/>
     </g>
    </g>
   </g>
  </g>
 </g>
 <defs>
  <clipPath id="pa1c3c6192f">
   <rect x="90" y="43.2" width="558" height="277.2"/>
  </clipPath>
 </defs>
</svg>
