<?xml version="1.0" encoding="utf-8" standalone="no"?>
<!DOCTYPE svg PUBLIC "-//W3C//DTD SVG 1.1//EN"
  "http://www.w3.org/Graphics/SVG/1.1/DTD/svg11.dtd">
<svg xmlns:xlink="http://www.w3.org/1999/xlink" width="720pt" height="360pt" viewBox="0 0 720 360" xmlns="http://www.w3.org/2000/svg" version="1.1">
 <metadata>
  <rdf:RDF xmlns:dc="http://purl.org/dc/elements/1.1/" xmlns:cc="http://creativecommons.org/ns#" xmlns:rdf="http://www.w3.org/1999/02/22-rdf-syntax-ns#">
   <cc:Work>
    <dc:type rdf:resource="http://purl.org/dc/dcmitype/StillImage"/>
    <dc:date>2023-05-24T11:18:31.872029</dc:date>
    <dc:format>image/svg+xml</dc:format>
    <dc:creator>
     <cc:Agent>
      <dc:title>Matplotlib v3.7.1, https://matplotlib.org/</dc:title>
     </cc:Agent>
    </dc:creator>
   </cc:Work>
  </rdf:RDF>
 </metadata>
 <defs>
  <style type="text/css">*{stroke-linejoin: round; stroke-linecap: butt}</style>
 </defs>
 <g id="figure_1">
  <g id="patch_1">
   <path d="M 0 360 
L 720 360 
L 720 0 
L 0 0 
z
" style="fill: #ffffff"/>
  </g>
  <g id="axes_1">
   <g id="patch_2">
    <path d="M 90 320.4 
L 648 320.4 
L 648 43.2 
L 90 43.2 
z
" style="fill: #ffffff"/>
   </g>
   <g id="matplotlib.axis_1">
    <g id="xtick_1">
     <g id="line2d_1">
      <path d="M 115.363636 320.4 
L 115.363636 43.2 
" clip-path="url(#pb3a7d7652e)" style="fill: none; stroke: #b0b0b0; stroke-width: 0.8; stroke-linecap: square"/>
     </g>
     <g id="line2d_2">
      <defs>
       <path id="mf383bc4807" d="M 0 0 
L 0 3.5 
" style="stroke: #000000; stroke-width: 0.8"/>
      </defs>
      <g>
       <use xlink:href="#mf383bc4807" x="115.363636" y="320.4" style="stroke: #000000; stroke-width: 0.8"/>
      </g>
     </g>
     <g id="text_1">
      <!-- 0 -->
      <g transform="translate(112.182386 334.998438) scale(0.1 -0.1)">
       <defs>
        <path id="DejaVuSans-30" d="M 2034 4250 
Q 1547 4250 1301 3770 
Q 1056 3291 1056 2328 
Q 1056 1369 1301 889 
Q 1547 409 2034 409 
Q 2525 409 2770 889 
Q 3016 1369 3016 2328 
Q 3016 3291 2770 3770 
Q 2525 4250 2034 4250 
z
M 2034 4750 
Q 2819 4750 3233 4129 
Q 3647 3509 3647 2328 
Q 3647 1150 3233 529 
Q 2819 -91 2034 -91 
Q 1250 -91 836 529 
Q 422 1150 422 2328 
Q 422 3509 836 4129 
Q 1250 4750 2034 4750 
z
" transform="scale(0.015625)"/>
       </defs>
       <use xlink:href="#DejaVuSans-30"/>
      </g>
     </g>
    </g>
    <g id="xtick_2">
     <g id="line2d_3">
      <path d="M 217.021498 320.4 
L 217.021498 43.2 
" clip-path="url(#pb3a7d7652e)" style="fill: none; stroke: #b0b0b0; stroke-width: 0.8; stroke-linecap: square"/>
     </g>
     <g id="line2d_4">
      <g>
       <use xlink:href="#mf383bc4807" x="217.021498" y="320.4" style="stroke: #000000; stroke-width: 0.8"/>
      </g>
     </g>
     <g id="text_2">
      <!-- 100 -->
      <g transform="translate(207.477748 334.998438) scale(0.1 -0.1)">
       <defs>
        <path id="DejaVuSans-31" d="M 794 531 
L 1825 531 
L 1825 4091 
L 703 3866 
L 703 4441 
L 1819 4666 
L 2450 4666 
L 2450 531 
L 3481 531 
L 3481 0 
L 794 0 
L 794 531 
z
" transform="scale(0.015625)"/>
       </defs>
       <use xlink:href="#DejaVuSans-31"/>
       <use xlink:href="#DejaVuSans-30" x="63.623047"/>
       <use xlink:href="#DejaVuSans-30" x="127.246094"/>
      </g>
     </g>
    </g>
    <g id="xtick_3">
     <g id="line2d_5">
      <path d="M 318.679359 320.4 
L 318.679359 43.2 
" clip-path="url(#pb3a7d7652e)" style="fill: none; stroke: #b0b0b0; stroke-width: 0.8; stroke-linecap: square"/>
     </g>
     <g id="line2d_6">
      <g>
       <use xlink:href="#mf383bc4807" x="318.679359" y="320.4" style="stroke: #000000; stroke-width: 0.8"/>
      </g>
     </g>
     <g id="text_3">
      <!-- 200 -->
      <g transform="translate(309.135609 334.998438) scale(0.1 -0.1)">
       <defs>
        <path id="DejaVuSans-32" d="M 1228 531 
L 3431 531 
L 3431 0 
L 469 0 
L 469 531 
Q 828 903 1448 1529 
Q 2069 2156 2228 2338 
Q 2531 2678 2651 2914 
Q 2772 3150 2772 3378 
Q 2772 3750 2511 3984 
Q 2250 4219 1831 4219 
Q 1534 4219 1204 4116 
Q 875 4013 500 3803 
L 500 4441 
Q 881 4594 1212 4672 
Q 1544 4750 1819 4750 
Q 2544 4750 2975 4387 
Q 3406 4025 3406 3419 
Q 3406 3131 3298 2873 
Q 3191 2616 2906 2266 
Q 2828 2175 2409 1742 
Q 1991 1309 1228 531 
z
" transform="scale(0.015625)"/>
       </defs>
       <use xlink:href="#DejaVuSans-32"/>
       <use xlink:href="#DejaVuSans-30" x="63.623047"/>
       <use xlink:href="#DejaVuSans-30" x="127.246094"/>
      </g>
     </g>
    </g>
    <g id="xtick_4">
     <g id="line2d_7">
      <path d="M 420.33722 320.4 
L 420.33722 43.2 
" clip-path="url(#pb3a7d7652e)" style="fill: none; stroke: #b0b0b0; stroke-width: 0.8; stroke-linecap: square"/>
     </g>
     <g id="line2d_8">
      <g>
       <use xlink:href="#mf383bc4807" x="420.33722" y="320.4" style="stroke: #000000; stroke-width: 0.8"/>
      </g>
     </g>
     <g id="text_4">
      <!-- 300 -->
      <g transform="translate(410.79347 334.998438) scale(0.1 -0.1)">
       <defs>
        <path id="DejaVuSans-33" d="M 2597 2516 
Q 3050 2419 3304 2112 
Q 3559 1806 3559 1356 
Q 3559 666 3084 287 
Q 2609 -91 1734 -91 
Q 1441 -91 1130 -33 
Q 819 25 488 141 
L 488 750 
Q 750 597 1062 519 
Q 1375 441 1716 441 
Q 2309 441 2620 675 
Q 2931 909 2931 1356 
Q 2931 1769 2642 2001 
Q 2353 2234 1838 2234 
L 1294 2234 
L 1294 2753 
L 1863 2753 
Q 2328 2753 2575 2939 
Q 2822 3125 2822 3475 
Q 2822 3834 2567 4026 
Q 2313 4219 1838 4219 
Q 1578 4219 1281 4162 
Q 984 4106 628 3988 
L 628 4550 
Q 988 4650 1302 4700 
Q 1616 4750 1894 4750 
Q 2613 4750 3031 4423 
Q 3450 4097 3450 3541 
Q 3450 3153 3228 2886 
Q 3006 2619 2597 2516 
z
" transform="scale(0.015625)"/>
       </defs>
       <use xlink:href="#DejaVuSans-33"/>
       <use xlink:href="#DejaVuSans-30" x="63.623047"/>
       <use xlink:href="#DejaVuSans-30" x="127.246094"/>
      </g>
     </g>
    </g>
    <g id="xtick_5">
     <g id="line2d_9">
      <path d="M 521.995081 320.4 
L 521.995081 43.2 
" clip-path="url(#pb3a7d7652e)" style="fill: none; stroke: #b0b0b0; stroke-width: 0.8; stroke-linecap: square"/>
     </g>
     <g id="line2d_10">
      <g>
       <use xlink:href="#mf383bc4807" x="521.995081" y="320.4" style="stroke: #000000; stroke-width: 0.8"/>
      </g>
     </g>
     <g id="text_5">
      <!-- 400 -->
      <g transform="translate(512.451331 334.998438) scale(0.1 -0.1)">
       <defs>
        <path id="DejaVuSans-34" d="M 2419 4116 
L 825 1625 
L 2419 1625 
L 2419 4116 
z
M 2253 4666 
L 3047 4666 
L 3047 1625 
L 3713 1625 
L 3713 1100 
L 3047 1100 
L 3047 0 
L 2419 0 
L 2419 1100 
L 313 1100 
L 313 1709 
L 2253 4666 
z
" transform="scale(0.015625)"/>
       </defs>
       <use xlink:href="#DejaVuSans-34"/>
       <use xlink:href="#DejaVuSans-30" x="63.623047"/>
       <use xlink:href="#DejaVuSans-30" x="127.246094"/>
      </g>
     </g>
    </g>
    <g id="xtick_6">
     <g id="line2d_11">
      <path d="M 623.652942 320.4 
L 623.652942 43.2 
" clip-path="url(#pb3a7d7652e)" style="fill: none; stroke: #b0b0b0; stroke-width: 0.8; stroke-linecap: square"/>
     </g>
     <g id="line2d_12">
      <g>
       <use xlink:href="#mf383bc4807" x="623.652942" y="320.4" style="stroke: #000000; stroke-width: 0.8"/>
      </g>
     </g>
     <g id="text_6">
      <!-- 500 -->
      <g transform="translate(614.109192 334.998438) scale(0.1 -0.1)">
       <defs>
        <path id="DejaVuSans-35" d="M 691 4666 
L 3169 4666 
L 3169 4134 
L 1269 4134 
L 1269 2991 
Q 1406 3038 1543 3061 
Q 1681 3084 1819 3084 
Q 2600 3084 3056 2656 
Q 3513 2228 3513 1497 
Q 3513 744 3044 326 
Q 2575 -91 1722 -91 
Q 1428 -91 1123 -41 
Q 819 9 494 109 
L 494 744 
Q 775 591 1075 516 
Q 1375 441 1709 441 
Q 2250 441 2565 725 
Q 2881 1009 2881 1497 
Q 2881 1984 2565 2268 
Q 2250 2553 1709 2553 
Q 1456 2553 1204 2497 
Q 953 2441 691 2322 
L 691 4666 
z
" transform="scale(0.015625)"/>
       </defs>
       <use xlink:href="#DejaVuSans-35"/>
       <use xlink:href="#DejaVuSans-30" x="63.623047"/>
       <use xlink:href="#DejaVuSans-30" x="127.246094"/>
      </g>
     </g>
    </g>
    <g id="text_7">
     <!-- epoch -->
     <g transform="translate(353.771875 348.676562) scale(0.1 -0.1)">
      <defs>
       <path id="DejaVuSans-65" d="M 3597 1894 
L 3597 1613 
L 953 1613 
Q 991 1019 1311 708 
Q 1631 397 2203 397 
Q 2534 397 2845 478 
Q 3156 559 3463 722 
L 3463 178 
Q 3153 47 2828 -22 
Q 2503 -91 2169 -91 
Q 1331 -91 842 396 
Q 353 884 353 1716 
Q 353 2575 817 3079 
Q 1281 3584 2069 3584 
Q 2775 3584 3186 3129 
Q 3597 2675 3597 1894 
z
M 3022 2063 
Q 3016 2534 2758 2815 
Q 2500 3097 2075 3097 
Q 1594 3097 1305 2825 
Q 1016 2553 972 2059 
L 3022 2063 
z
" transform="scale(0.015625)"/>
       <path id="DejaVuSans-70" d="M 1159 525 
L 1159 -1331 
L 581 -1331 
L 581 3500 
L 1159 3500 
L 1159 2969 
Q 1341 3281 1617 3432 
Q 1894 3584 2278 3584 
Q 2916 3584 3314 3078 
Q 3713 2572 3713 1747 
Q 3713 922 3314 415 
Q 2916 -91 2278 -91 
Q 1894 -91 1617 61 
Q 1341 213 1159 525 
z
M 3116 1747 
Q 3116 2381 2855 2742 
Q 2594 3103 2138 3103 
Q 1681 3103 1420 2742 
Q 1159 2381 1159 1747 
Q 1159 1113 1420 752 
Q 1681 391 2138 391 
Q 2594 391 2855 752 
Q 3116 1113 3116 1747 
z
" transform="scale(0.015625)"/>
       <path id="DejaVuSans-6f" d="M 1959 3097 
Q 1497 3097 1228 2736 
Q 959 2375 959 1747 
Q 959 1119 1226 758 
Q 1494 397 1959 397 
Q 2419 397 2687 759 
Q 2956 1122 2956 1747 
Q 2956 2369 2687 2733 
Q 2419 3097 1959 3097 
z
M 1959 3584 
Q 2709 3584 3137 3096 
Q 3566 2609 3566 1747 
Q 3566 888 3137 398 
Q 2709 -91 1959 -91 
Q 1206 -91 779 398 
Q 353 888 353 1747 
Q 353 2609 779 3096 
Q 1206 3584 1959 3584 
z
" transform="scale(0.015625)"/>
       <path id="DejaVuSans-63" d="M 3122 3366 
L 3122 2828 
Q 2878 2963 2633 3030 
Q 2388 3097 2138 3097 
Q 1578 3097 1268 2742 
Q 959 2388 959 1747 
Q 959 1106 1268 751 
Q 1578 397 2138 397 
Q 2388 397 2633 464 
Q 2878 531 3122 666 
L 3122 134 
Q 2881 22 2623 -34 
Q 2366 -91 2075 -91 
Q 1284 -91 818 406 
Q 353 903 353 1747 
Q 353 2603 823 3093 
Q 1294 3584 2113 3584 
Q 2378 3584 2631 3529 
Q 2884 3475 3122 3366 
z
" transform="scale(0.015625)"/>
       <path id="DejaVuSans-68" d="M 3513 2113 
L 3513 0 
L 2938 0 
L 2938 2094 
Q 2938 2591 2744 2837 
Q 2550 3084 2163 3084 
Q 1697 3084 1428 2787 
Q 1159 2491 1159 1978 
L 1159 0 
L 581 0 
L 581 4863 
L 1159 4863 
L 1159 2956 
Q 1366 3272 1645 3428 
Q 1925 3584 2291 3584 
Q 2894 3584 3203 3211 
Q 3513 2838 3513 2113 
z
" transform="scale(0.015625)"/>
      </defs>
      <use xlink:href="#DejaVuSans-65"/>
      <use xlink:href="#DejaVuSans-70" x="61.523438"/>
      <use xlink:href="#DejaVuSans-6f" x="125"/>
      <use xlink:href="#DejaVuSans-63" x="186.181641"/>
      <use xlink:href="#DejaVuSans-68" x="241.162109"/>
     </g>
    </g>
   </g>
   <g id="matplotlib.axis_2">
    <g id="ytick_1">
     <g id="line2d_13">
      <path d="M 90 295.94067 
L 648 295.94067 
" clip-path="url(#pb3a7d7652e)" style="fill: none; stroke: #b0b0b0; stroke-width: 0.8; stroke-linecap: square"/>
     </g>
     <g id="line2d_14">
      <defs>
       <path id="m20fa5456e2" d="M 0 0 
L -3.5 0 
" style="stroke: #000000; stroke-width: 0.8"/>
      </defs>
      <g>
       <use xlink:href="#m20fa5456e2" x="90" y="295.94067" style="stroke: #000000; stroke-width: 0.8"/>
      </g>
     </g>
     <g id="text_8">
      <!-- 1.38 -->
      <g transform="translate(60.734375 299.739888) scale(0.1 -0.1)">
       <defs>
        <path id="DejaVuSans-2e" d="M 684 794 
L 1344 794 
L 1344 0 
L 684 0 
L 684 794 
z
" transform="scale(0.015625)"/>
        <path id="DejaVuSans-38" d="M 2034 2216 
Q 1584 2216 1326 1975 
Q 1069 1734 1069 1313 
Q 1069 891 1326 650 
Q 1584 409 2034 409 
Q 2484 409 2743 651 
Q 3003 894 3003 1313 
Q 3003 1734 2745 1975 
Q 2488 2216 2034 2216 
z
M 1403 2484 
Q 997 2584 770 2862 
Q 544 3141 544 3541 
Q 544 4100 942 4425 
Q 1341 4750 2034 4750 
Q 2731 4750 3128 4425 
Q 3525 4100 3525 3541 
Q 3525 3141 3298 2862 
Q 3072 2584 2669 2484 
Q 3125 2378 3379 2068 
Q 3634 1759 3634 1313 
Q 3634 634 3220 271 
Q 2806 -91 2034 -91 
Q 1263 -91 848 271 
Q 434 634 434 1313 
Q 434 1759 690 2068 
Q 947 2378 1403 2484 
z
M 1172 3481 
Q 1172 3119 1398 2916 
Q 1625 2713 2034 2713 
Q 2441 2713 2670 2916 
Q 2900 3119 2900 3481 
Q 2900 3844 2670 4047 
Q 2441 4250 2034 4250 
Q 1625 4250 1398 4047 
Q 1172 3844 1172 3481 
z
" transform="scale(0.015625)"/>
       </defs>
       <use xlink:href="#DejaVuSans-31"/>
       <use xlink:href="#DejaVuSans-2e" x="63.623047"/>
       <use xlink:href="#DejaVuSans-33" x="95.410156"/>
       <use xlink:href="#DejaVuSans-38" x="159.033203"/>
      </g>
     </g>
    </g>
    <g id="ytick_2">
     <g id="line2d_15">
      <path d="M 90 245.172293 
L 648 245.172293 
" clip-path="url(#pb3a7d7652e)" style="fill: none; stroke: #b0b0b0; stroke-width: 0.8; stroke-linecap: square"/>
     </g>
     <g id="line2d_16">
      <g>
       <use xlink:href="#m20fa5456e2" x="90" y="245.172293" style="stroke: #000000; stroke-width: 0.8"/>
      </g>
     </g>
     <g id="text_9">
      <!-- 1.40 -->
      <g transform="translate(60.734375 248.971511) scale(0.1 -0.1)">
       <use xlink:href="#DejaVuSans-31"/>
       <use xlink:href="#DejaVuSans-2e" x="63.623047"/>
       <use xlink:href="#DejaVuSans-34" x="95.410156"/>
       <use xlink:href="#DejaVuSans-30" x="159.033203"/>
      </g>
     </g>
    </g>
    <g id="ytick_3">
     <g id="line2d_17">
      <path d="M 90 194.403916 
L 648 194.403916 
" clip-path="url(#pb3a7d7652e)" style="fill: none; stroke: #b0b0b0; stroke-width: 0.8; stroke-linecap: square"/>
     </g>
     <g id="line2d_18">
      <g>
       <use xlink:href="#m20fa5456e2" x="90" y="194.403916" style="stroke: #000000; stroke-width: 0.8"/>
      </g>
     </g>
     <g id="text_10">
      <!-- 1.42 -->
      <g transform="translate(60.734375 198.203134) scale(0.1 -0.1)">
       <use xlink:href="#DejaVuSans-31"/>
       <use xlink:href="#DejaVuSans-2e" x="63.623047"/>
       <use xlink:href="#DejaVuSans-34" x="95.410156"/>
       <use xlink:href="#DejaVuSans-32" x="159.033203"/>
      </g>
     </g>
    </g>
    <g id="ytick_4">
     <g id="line2d_19">
      <path d="M 90 143.635539 
L 648 143.635539 
" clip-path="url(#pb3a7d7652e)" style="fill: none; stroke: #b0b0b0; stroke-width: 0.8; stroke-linecap: square"/>
     </g>
     <g id="line2d_20">
      <g>
       <use xlink:href="#m20fa5456e2" x="90" y="143.635539" style="stroke: #000000; stroke-width: 0.8"/>
      </g>
     </g>
     <g id="text_11">
      <!-- 1.44 -->
      <g transform="translate(60.734375 147.434758) scale(0.1 -0.1)">
       <use xlink:href="#DejaVuSans-31"/>
       <use xlink:href="#DejaVuSans-2e" x="63.623047"/>
       <use xlink:href="#DejaVuSans-34" x="95.410156"/>
       <use xlink:href="#DejaVuSans-34" x="159.033203"/>
      </g>
     </g>
    </g>
    <g id="ytick_5">
     <g id="line2d_21">
      <path d="M 90 92.867162 
L 648 92.867162 
" clip-path="url(#pb3a7d7652e)" style="fill: none; stroke: #b0b0b0; stroke-width: 0.8; stroke-linecap: square"/>
     </g>
     <g id="line2d_22">
      <g>
       <use xlink:href="#m20fa5456e2" x="90" y="92.867162" style="stroke: #000000; stroke-width: 0.8"/>
      </g>
     </g>
     <g id="text_12">
      <!-- 1.46 -->
      <g transform="translate(60.734375 96.666381) scale(0.1 -0.1)">
       <defs>
        <path id="DejaVuSans-36" d="M 2113 2584 
Q 1688 2584 1439 2293 
Q 1191 2003 1191 1497 
Q 1191 994 1439 701 
Q 1688 409 2113 409 
Q 2538 409 2786 701 
Q 3034 994 3034 1497 
Q 3034 2003 2786 2293 
Q 2538 2584 2113 2584 
z
M 3366 4563 
L 3366 3988 
Q 3128 4100 2886 4159 
Q 2644 4219 2406 4219 
Q 1781 4219 1451 3797 
Q 1122 3375 1075 2522 
Q 1259 2794 1537 2939 
Q 1816 3084 2150 3084 
Q 2853 3084 3261 2657 
Q 3669 2231 3669 1497 
Q 3669 778 3244 343 
Q 2819 -91 2113 -91 
Q 1303 -91 875 529 
Q 447 1150 447 2328 
Q 447 3434 972 4092 
Q 1497 4750 2381 4750 
Q 2619 4750 2861 4703 
Q 3103 4656 3366 4563 
z
" transform="scale(0.015625)"/>
       </defs>
       <use xlink:href="#DejaVuSans-31"/>
       <use xlink:href="#DejaVuSans-2e" x="63.623047"/>
       <use xlink:href="#DejaVuSans-34" x="95.410156"/>
       <use xlink:href="#DejaVuSans-36" x="159.033203"/>
      </g>
     </g>
    </g>
    <g id="text_13">
     <!-- loss -->
     <g transform="translate(54.654688 191.457812) rotate(-90) scale(0.1 -0.1)">
      <defs>
       <path id="DejaVuSans-6c" d="M 603 4863 
L 1178 4863 
L 1178 0 
L 603 0 
L 603 4863 
z
" transform="scale(0.015625)"/>
       <path id="DejaVuSans-73" d="M 2834 3397 
L 2834 2853 
Q 2591 2978 2328 3040 
Q 2066 3103 1784 3103 
Q 1356 3103 1142 2972 
Q 928 2841 928 2578 
Q 928 2378 1081 2264 
Q 1234 2150 1697 2047 
L 1894 2003 
Q 2506 1872 2764 1633 
Q 3022 1394 3022 966 
Q 3022 478 2636 193 
Q 2250 -91 1575 -91 
Q 1294 -91 989 -36 
Q 684 19 347 128 
L 347 722 
Q 666 556 975 473 
Q 1284 391 1588 391 
Q 1994 391 2212 530 
Q 2431 669 2431 922 
Q 2431 1156 2273 1281 
Q 2116 1406 1581 1522 
L 1381 1569 
Q 847 1681 609 1914 
Q 372 2147 372 2553 
Q 372 3047 722 3315 
Q 1072 3584 1716 3584 
Q 2034 3584 2315 3537 
Q 2597 3491 2834 3397 
z
" transform="scale(0.015625)"/>
      </defs>
      <use xlink:href="#DejaVuSans-6c"/>
      <use xlink:href="#DejaVuSans-6f" x="27.783203"/>
      <use xlink:href="#DejaVuSans-73" x="88.964844"/>
      <use xlink:href="#DejaVuSans-73" x="141.064453"/>
     </g>
    </g>
   </g>
   <g id="line2d_23">
    <path d="M 115.363636 55.8 
L 116.380215 259.16926 
L 117.396794 263.612381 
L 118.413372 252.321049 
L 119.429951 263.779721 
L 120.446529 241.257577 
L 121.463108 266.383923 
L 122.479687 208.867243 
L 123.496265 248.518841 
L 124.512844 243.146123 
L 125.529422 248.619305 
L 126.546001 253.472151 
L 127.56258 249.365524 
L 128.579158 280.184743 
L 129.595737 262.864044 
L 130.612316 272.293459 
L 131.628894 261.502935 
L 132.645473 271.365073 
L 133.662051 262.835296 
L 134.67863 265.903692 
L 135.695209 270.092627 
L 136.711787 252.580682 
L 137.728366 258.205166 
L 138.744944 269.898356 
L 139.761523 259.621046 
L 140.778102 263.894407 
L 141.79468 262.265495 
L 142.811259 277.805677 
L 143.827837 277.185946 
L 144.844416 267.141944 
L 145.860995 255.705967 
L 146.877573 273.039678 
L 147.894152 269.346408 
L 148.910731 275.95768 
L 149.927309 261.757122 
L 150.943888 253.971144 
L 151.960466 262.738463 
L 152.977045 267.630345 
L 153.993624 260.374831 
L 155.010202 256.184383 
L 156.026781 261.28143 
L 157.043359 254.383289 
L 158.059938 259.382898 
L 159.076517 260.628109 
L 160.093095 267.820683 
L 161.109674 245.899206 
L 163.142831 263.346091 
L 164.15941 263.694689 
L 165.175988 259.854353 
L 166.192567 262.162912 
L 167.209146 258.907811 
L 168.225724 264.54107 
L 169.242303 259.108134 
L 170.258881 261.360712 
L 171.27546 267.59948 
L 172.292039 247.826788 
L 173.308617 262.167149 
L 174.325196 251.915561 
L 175.341774 256.399836 
L 176.358353 249.893869 
L 177.374932 240.745875 
L 178.39151 257.267399 
L 179.408089 260.229279 
L 180.424668 273.627031 
L 181.441246 269.373339 
L 182.457825 272.429933 
L 183.474403 261.234829 
L 184.490982 262.347198 
L 185.507561 260.448666 
L 186.524139 254.263156 
L 187.540718 254.111552 
L 188.557296 266.003248 
L 189.573875 247.324466 
L 190.590454 279.662147 
L 191.607032 267.930528 
L 192.623611 269.620263 
L 193.640189 273.856404 
L 194.656768 264.794652 
L 195.673347 247.678209 
L 196.689925 262.802313 
L 197.706504 266.47652 
L 198.723083 267.892097 
L 199.739661 262.296663 
L 200.75624 263.482262 
L 201.772818 251.891958 
L 202.789397 263.941008 
L 204.822554 253.862509 
L 205.839133 260.85022 
L 206.855711 265.184102 
L 207.87229 275.365486 
L 208.888869 267.610071 
L 209.905447 260.777293 
L 210.922026 270.006385 
L 211.938604 261.437875 
L 212.955183 259.052455 
L 213.971762 255.368262 
L 214.98834 271.523032 
L 216.004919 276.759881 
L 217.021498 253.296036 
L 218.038076 258.075652 
L 219.054655 277.869224 
L 220.071233 265.759956 
L 221.087812 265.021907 
L 222.104391 267.920844 
L 223.120969 264.441816 
L 224.137548 266.105831 
L 225.154126 252.979211 
L 226.170705 257.960058 
L 227.187284 271.051273 
L 228.203862 270.877579 
L 229.220441 266.933148 
L 230.237019 251.126977 
L 231.253598 263.852043 
L 232.270177 264.545307 
L 233.286755 257.252572 
L 234.303334 278.890207 
L 235.319913 268.159598 
L 236.336491 268.848323 
L 237.35307 274.407445 
L 238.369648 273.821908 
L 239.386227 269.718609 
L 240.402806 260.00505 
L 241.419384 279.829184 
L 242.435963 265.857091 
L 243.452541 271.7751 
L 244.46912 262.916697 
L 245.485699 272.520412 
L 246.502277 268.295164 
L 247.518856 263.50647 
L 248.535435 256.293925 
L 250.568592 275.299518 
L 251.58517 253.19769 
L 252.601749 245.512176 
L 253.618328 258.694778 
L 254.634906 259.520582 
L 255.651485 234.373053 
L 256.668063 257.440186 
L 257.684642 264.219706 
L 258.701221 254.263156 
L 259.717799 270.728699 
L 260.734378 271.952426 
L 261.750956 265.761771 
L 262.767535 268.15173 
L 263.784114 251.82599 
L 264.800692 275.997019 
L 265.817271 260.625083 
L 266.83385 267.31473 
L 267.850428 256.650694 
L 268.867007 255.827614 
L 269.883585 251.788467 
L 270.900164 253.999286 
L 271.916743 262.26489 
L 272.933321 273.802238 
L 273.9499 269.692888 
L 274.966478 267.112289 
L 275.983057 262.528457 
L 276.999636 259.007972 
L 278.016214 251.838397 
L 279.032793 258.394293 
L 280.049371 278.114333 
L 281.06595 263.699531 
L 282.082529 277.154173 
L 283.099107 260.878362 
L 284.115686 274.08608 
L 285.132265 269.60362 
L 286.148843 272.835119 
L 287.165422 277.162041 
L 288.182 269.149716 
L 289.198579 267.40884 
L 290.215158 258.59734 
L 291.231736 269.844795 
L 292.248315 256.365037 
L 294.281472 272.800925 
L 295.298051 255.958943 
L 296.314629 252.289881 
L 297.331208 260.419313 
L 298.347786 262.872517 
L 299.364365 255.394286 
L 300.380944 246.577642 
L 301.397522 248.427152 
L 302.414101 264.986502 
L 303.43068 259.011301 
L 304.447258 273.24091 
L 305.463837 253.894888 
L 306.480415 267.939908 
L 307.496994 266.035627 
L 308.513573 266.037745 
L 309.530151 261.881794 
L 310.54673 256.838611 
L 312.579887 274.625016 
L 313.596466 239.322732 
L 314.613044 249.923222 
L 315.629623 265.9627 
L 316.646201 268.652236 
L 317.66278 267.347714 
L 318.679359 275.576098 
L 319.695937 264.202155 
L 320.712516 274.786909 
L 321.729095 282.689692 
L 322.745673 265.574762 
L 323.762252 253.756295 
L 324.77883 238.965963 
L 325.795409 247.455494 
L 326.811988 267.457862 
L 327.828566 277.194419 
L 329.861723 244.135937 
L 330.878302 268.150217 
L 331.894881 255.071409 
L 332.911459 253.680645 
L 333.928038 247.920292 
L 334.944617 270.286293 
L 335.961195 251.869565 
L 336.977774 257.147266 
L 337.994352 266.488321 
L 339.010931 264.460275 
L 340.02751 267.469058 
L 341.044088 265.241294 
L 342.060667 253.861299 
L 343.077245 254.680445 
L 344.093824 275.73799 
L 345.110403 271.774495 
L 346.126981 260.8363 
L 347.14356 262.952404 
L 348.160138 255.810063 
L 349.176717 258.782533 
L 350.193296 241.155297 
L 351.209874 272.644781 
L 352.226453 280.480386 
L 353.243032 261.586151 
L 354.25961 276.149833 
L 355.276189 267.272668 
L 356.292767 256.110548 
L 357.309346 267.832182 
L 358.325925 260.981852 
L 359.342503 270.298397 
L 360.359082 264.939901 
L 361.37566 271.022526 
L 363.408818 258.837909 
L 364.425396 265.461891 
L 365.441975 270.569227 
L 366.458553 264.986502 
L 367.475132 274.628042 
L 368.491711 271.805966 
L 369.508289 253.817421 
L 370.524868 260.295246 
L 372.558025 267.76924 
L 373.574604 243.866621 
L 375.607761 276.624617 
L 376.62434 251.103677 
L 377.640918 267.522013 
L 378.657497 260.144852 
L 379.674075 275.792459 
L 380.690654 256.527535 
L 381.707233 271.949097 
L 382.723811 259.451286 
L 383.74039 264.064168 
L 384.756968 260.555485 
L 385.773547 251.27495 
L 386.790126 260.723127 
L 387.806704 258.481746 
L 388.823283 239.588721 
L 389.839862 269.385746 
L 390.85644 254.404169 
L 391.873019 243.442069 
L 392.889597 265.20831 
L 393.906176 251.648665 
L 394.922755 249.686284 
L 395.939333 255.658459 
L 396.955912 249.732582 
L 397.97249 252.489599 
L 398.989069 259.101477 
L 400.005648 255.168242 
L 401.022226 241.482411 
L 402.038805 265.482166 
L 403.055383 270.834004 
L 404.071962 274.743031 
L 405.088541 272.066809 
L 406.105119 250.824677 
L 407.121698 276.611908 
L 408.138277 276.105351 
L 409.154855 270.096258 
L 410.171434 248.951563 
L 411.188012 274.527881 
L 412.204591 253.334467 
L 413.22117 255.503828 
L 414.237748 245.139369 
L 415.254327 264.052971 
L 416.270905 264.85487 
L 417.287484 257.610249 
L 418.304063 269.606041 
L 419.320641 261.734729 
L 420.33722 272.791241 
L 421.353799 277.345721 
L 422.370377 270.264203 
L 423.386956 269.550665 
L 424.403534 255.686601 
L 425.420113 267.387355 
L 426.436692 267.551971 
L 427.45327 270.328657 
L 428.469849 247.227936 
L 429.486427 258.516545 
L 430.503006 276.031213 
L 431.519585 271.072758 
L 432.536163 249.181542 
L 433.552742 266.638412 
L 434.56932 260.985484 
L 436.602478 245.065232 
L 437.619056 264.357995 
L 438.635635 263.885632 
L 439.652214 265.819568 
L 440.668792 257.769115 
L 441.685371 261.841245 
L 442.701949 266.589693 
L 443.718528 276.852478 
L 444.735107 276.756552 
L 445.751685 252.382477 
L 446.768264 256.707281 
L 447.784842 250.2927 
L 448.801421 264.149804 
L 449.818 271.668886 
L 450.834578 248.431691 
L 451.851157 248.460438 
L 452.867735 259.893086 
L 453.884314 264.400057 
L 454.900893 263.626906 
L 455.917471 265.808069 
L 456.93405 263.935864 
L 457.950629 279.813449 
L 458.967207 258.951083 
L 459.983786 266.400264 
L 461.000364 268.770856 
L 462.016943 243.391534 
L 463.033522 256.922129 
L 464.0501 275.071961 
L 465.066679 265.429513 
L 466.083257 268.697626 
L 467.099836 260.159377 
L 468.116415 271.746353 
L 469.132993 265.143553 
L 470.149572 271.903404 
L 471.16615 264.507481 
L 472.182729 264.019988 
L 473.199308 263.179054 
L 474.215886 262.773868 
L 475.232465 266.213558 
L 476.249044 264.346194 
L 477.265622 263.100679 
L 478.282201 268.63408 
L 479.298779 257.735829 
L 480.315358 265.97904 
L 481.331937 270.895433 
L 482.348515 270.502957 
L 483.365094 248.469214 
L 484.381672 268.613503 
L 485.398251 269.74191 
L 487.431408 244.566239 
L 488.447987 263.707399 
L 489.464565 258.810675 
L 490.481144 258.987698 
L 491.497723 261.97318 
L 492.514301 268.920342 
L 493.53088 261.013323 
L 494.547459 264.961689 
L 495.564037 268.127522 
L 496.580616 269.275598 
L 497.597194 268.38413 
L 498.613773 268.190464 
L 499.630352 264.688438 
L 500.64693 258.471457 
L 501.663509 250.177711 
L 502.680087 258.864841 
L 503.696666 257.86262 
L 504.713245 264.95261 
L 505.729823 266.330665 
L 506.746402 273.337137 
L 507.762981 271.683109 
L 508.779559 255.283231 
L 509.796138 254.889847 
L 510.812716 251.745498 
L 511.829295 263.910748 
L 512.845874 262.3242 
L 513.862452 257.345471 
L 514.879031 258.621548 
L 515.895609 266.134276 
L 516.912188 266.452311 
L 517.928767 267.389776 
L 518.945345 261.716573 
L 519.961924 262.107233 
L 520.978502 250.909405 
L 521.995081 256.067275 
L 523.01166 253.353833 
L 524.028238 267.389776 
L 525.044817 278.860854 
L 526.061396 277.2038 
L 527.077974 257.696491 
L 528.094553 259.260646 
L 529.111131 251.922823 
L 530.12771 261.888451 
L 531.144289 259.052455 
L 532.160867 259.667647 
L 533.177446 267.26238 
L 534.194024 257.136675 
L 535.210603 254.553352 
L 536.227182 255.285349 
L 537.24376 262.348408 
L 538.260339 268.581427 
L 539.276917 279.254238 
L 540.293496 243.511062 
L 541.310075 268.493672 
L 542.326653 266.808778 
L 543.343232 261.97318 
L 544.359811 263.39723 
L 545.376389 271.095151 
L 546.392968 269.862346 
L 547.409546 267.46694 
L 548.426125 252.243885 
L 549.442704 256.742686 
L 550.459282 272.215388 
L 551.475861 258.33347 
L 552.492439 254.481938 
L 553.509018 265.903692 
L 554.525597 255.492632 
L 555.542175 261.206081 
L 556.558754 261.744715 
L 557.575332 258.526228 
L 558.591911 259.787175 
L 559.60849 259.527542 
L 560.625068 259.754797 
L 561.641647 248.587229 
L 562.658226 265.428 
L 563.674804 267.532302 
L 564.691383 249.097721 
L 565.707961 261.979838 
L 567.741119 279.814054 
L 568.757697 258.652111 
L 569.774276 272.662332 
L 570.790854 252.727748 
L 571.807433 260.048019 
L 572.824012 249.598831 
L 573.84059 240.968893 
L 574.857169 276.970493 
L 575.873747 272.599996 
L 576.890326 263.765498 
L 577.906905 253.111448 
L 578.923483 245.080664 
L 579.940062 242.724899 
L 580.956641 256.299977 
L 581.973219 264.655454 
L 582.989798 263.310686 
L 584.006376 265.531188 
L 585.022955 257.508574 
L 586.039534 271.650428 
L 587.056112 267.294758 
L 588.072691 263.981557 
L 589.089269 264.291423 
L 590.105848 273.502359 
L 591.122427 246.432392 
L 592.139005 247.747203 
L 593.155584 261.842758 
L 594.172163 264.695095 
L 595.188741 276.224879 
L 596.20532 266.13125 
L 597.221898 264.460578 
L 598.238477 264.23998 
L 599.255056 269.463515 
L 600.271634 271.040682 
L 601.288213 257.824794 
L 602.304791 263.640826 
L 603.32137 255.034188 
L 604.337949 251.697081 
L 605.354527 262.544798 
L 606.371106 255.997071 
L 607.387684 260.763676 
L 608.404263 262.018873 
L 609.420842 257.244099 
L 610.43742 245.061903 
L 611.453999 252.155222 
L 612.470578 242.277349 
L 613.487156 244.79531 
L 614.503735 263.624183 
L 615.520313 274.583257 
L 616.536892 271.042195 
L 617.553471 260.260144 
L 618.570049 242.634723 
L 619.586628 262.219197 
L 620.603206 253.353531 
L 621.619785 262.450385 
L 622.636364 263.332776 
L 622.636364 263.332776 
" clip-path="url(#pb3a7d7652e)" style="fill: none; stroke: #1f77b4; stroke-width: 1.5; stroke-linecap: square"/>
   </g>
   <g id="line2d_24">
    <path d="M 115.363636 272.994288 
L 116.380215 304.675018 
L 117.396794 292.632322 
L 118.413372 271.065496 
L 119.429951 280.701589 
L 120.446529 277.200774 
L 121.463108 107.794174 
L 122.479687 287.973747 
L 123.496265 291.760825 
L 124.512844 284.430265 
L 125.529422 290.115874 
L 126.546001 274.451019 
L 127.56258 283.984833 
L 128.579158 271.97391 
L 129.595737 299.805226 
L 130.612316 300.091186 
L 131.628894 291.505428 
L 132.645473 300.947553 
L 133.662051 279.020024 
L 134.67863 294.661276 
L 135.695209 254.522487 
L 136.711787 285.960529 
L 137.728366 295.192344 
L 138.744944 293.299259 
L 139.761523 293.358569 
L 140.778102 294.148666 
L 141.79468 301.435349 
L 142.811259 290.879947 
L 143.827837 302.297768 
L 144.844416 303.05246 
L 145.860995 299.871799 
L 146.877573 290.247809 
L 147.894152 282.073894 
L 148.910731 304.45563 
L 149.927309 300.377751 
L 150.943888 280.621399 
L 151.960466 300.927278 
L 152.977045 281.055635 
L 153.993624 273.965644 
L 155.010202 272.214782 
L 156.026781 288.635843 
L 157.043359 274.58598 
L 158.059938 291.016421 
L 159.076517 291.858868 
L 160.093095 299.227859 
L 161.109674 282.158623 
L 162.126253 284.799743 
L 163.142831 289.690717 
L 164.15941 296.665719 
L 165.175988 305.917809 
L 166.192567 295.799971 
L 167.209146 295.53126 
L 168.225724 304.859908 
L 169.242303 295.060107 
L 170.258881 305.527148 
L 171.27546 297.940888 
L 172.292039 293.061716 
L 173.308617 297.614077 
L 174.325196 284.663874 
L 175.341774 304.529768 
L 176.358353 305.00425 
L 177.374932 304.204772 
L 178.39151 291.258504 
L 179.408089 300.215253 
L 180.424668 299.658766 
L 181.441246 281.505 
L 182.457825 300.302403 
L 183.474403 299.771334 
L 184.490982 294.014915 
L 185.507561 283.19867 
L 186.524139 288.161966 
L 187.540718 281.237197 
L 188.557296 288.952668 
L 189.573875 291.218258 
L 190.590454 291.30692 
L 191.607032 270.309593 
L 192.623611 297.874618 
L 193.640189 294.106302 
L 194.656768 285.876707 
L 195.673347 273.957171 
L 196.689925 277.618063 
L 199.739661 301.120642 
L 200.75624 285.070875 
L 201.772818 278.459905 
L 202.789397 285.962647 
L 203.805976 284.314065 
L 204.822554 277.054011 
L 205.839133 290.982227 
L 206.855711 295.256193 
L 208.888869 288.59832 
L 209.905447 297.063642 
L 210.922026 297.361101 
L 211.938604 281.082264 
L 212.955183 300.22191 
L 213.971762 274.875874 
L 214.98834 293.346768 
L 216.004919 278.795795 
L 217.021498 261.849416 
L 218.038076 278.39303 
L 219.054655 271.255228 
L 220.071233 282.703309 
L 221.087812 296.662087 
L 222.104391 281.868427 
L 223.120969 302.850926 
L 224.137548 299.61852 
L 225.154126 302.874529 
L 226.170705 293.70505 
L 227.187284 297.85858 
L 228.203862 291.119004 
L 229.220441 288.388313 
L 230.237019 295.283428 
L 231.253598 298.369677 
L 232.270177 299.247528 
L 233.286755 292.833553 
L 234.303334 294.761437 
L 235.319913 294.673077 
L 236.336491 293.497767 
L 237.35307 301.803617 
L 238.369648 271.680385 
L 239.386227 301.284047 
L 240.402806 291.402845 
L 241.419384 294.476688 
L 242.435963 276.542309 
L 243.452541 280.06703 
L 244.46912 297.806835 
L 245.485699 305.21123 
L 246.502277 286.640478 
L 247.518856 285.866419 
L 248.535435 291.227033 
L 249.552013 299.344967 
L 250.568592 303.532388 
L 251.58517 303.958151 
L 252.601749 288.860374 
L 253.618328 301.156349 
L 254.634906 284.055037 
L 255.651485 298.695278 
L 256.668063 302.474488 
L 257.684642 307.071029 
L 258.701221 293.599744 
L 259.717799 293.587035 
L 260.734378 269.290729 
L 261.750956 286.588733 
L 262.767535 283.895262 
L 263.784114 285.886996 
L 264.800692 304.288896 
L 265.817271 275.679285 
L 266.83385 296.251758 
L 267.850428 272.116739 
L 268.867007 289.410507 
L 269.883585 283.973939 
L 270.900164 273.937804 
L 271.916743 292.451063 
L 272.933321 291.53357 
L 273.9499 288.451255 
L 274.966478 296.453594 
L 275.983057 291.254873 
L 276.999636 280.657712 
L 278.016214 299.824895 
L 279.032793 300.259131 
L 280.049371 279.323535 
L 281.06595 299.234214 
L 282.082529 293.77132 
L 283.099107 302.534403 
L 284.115686 288.772619 
L 285.132265 295.951575 
L 286.148843 291.275147 
L 287.165422 291.879748 
L 288.182 304.26953 
L 289.198579 299.477507 
L 290.215158 291.442184 
L 291.231736 297.435541 
L 292.248315 291.959635 
L 293.264893 288.925736 
L 294.281472 288.8053 
L 295.298051 283.812046 
L 296.314629 294.696983 
L 297.331208 274.240408 
L 298.347786 283.481301 
L 299.364365 298.533082 
L 300.380944 299.712932 
L 301.397522 295.983954 
L 302.414101 297.159567 
L 303.43068 296.360392 
L 304.447258 294.082093 
L 305.463837 258.445131 
L 306.480415 300.93212 
L 307.496994 297.350207 
L 308.513573 287.875704 
L 309.530151 284.055339 
L 310.54673 294.548405 
L 311.563308 295.007454 
L 312.579887 298.096426 
L 313.596466 298.398424 
L 314.613044 287.982825 
L 315.629623 288.120207 
L 316.646201 288.433401 
L 317.66278 297.855251 
L 318.679359 264.785876 
L 319.695937 303.95573 
L 320.712516 296.868463 
L 321.729095 305.397029 
L 322.745673 287.534367 
L 323.762252 265.707605 
L 324.77883 275.581545 
L 325.795409 270.776812 
L 326.811988 295.544877 
L 327.828566 296.867555 
L 328.845145 285.01792 
L 329.861723 300.69155 
L 330.878302 273.511437 
L 331.894881 289.783011 
L 332.911459 271.305157 
L 333.928038 299.129513 
L 334.944617 294.81984 
L 335.961195 289.48071 
L 336.977774 286.380239 
L 337.994352 297.40286 
L 339.010931 302.763474 
L 340.02751 265.632862 
L 341.044088 269.973704 
L 342.060667 289.418677 
L 343.077245 299.197599 
L 344.093824 273.154062 
L 345.110403 287.343122 
L 346.126981 289.079459 
L 347.14356 299.218176 
L 348.160138 288.74599 
L 349.176717 269.439307 
L 350.193296 299.98588 
L 351.209874 307.8 
L 352.226453 299.01634 
L 353.243032 305.340745 
L 354.25961 259.370491 
L 355.276189 297.094205 
L 356.292767 294.723612 
L 357.309346 290.847871 
L 358.325925 298.957635 
L 359.342503 296.234509 
L 360.359082 302.236944 
L 361.37566 295.923131 
L 362.392239 303.847701 
L 363.408818 288.660959 
L 364.425396 301.190846 
L 365.441975 288.931183 
L 366.458553 301.347594 
L 367.475132 295.860189 
L 368.491711 307.764595 
L 369.508289 302.040555 
L 370.524868 303.096337 
L 371.541447 294.097223 
L 372.558025 275.330384 
L 373.574604 272.599088 
L 374.591182 282.433084 
L 375.607761 282.997136 
L 376.62434 282.609804 
L 377.640918 296.547098 
L 378.657497 292.617494 
L 379.674075 301.098249 
L 380.690654 302.015742 
L 381.707233 285.552317 
L 382.723811 292.285841 
L 383.74039 302.653629 
L 384.756968 280.234975 
L 385.773547 302.986492 
L 386.790126 301.200831 
L 387.806704 301.72615 
L 388.823283 299.425156 
L 389.839862 304.598762 
L 390.85644 282.103852 
L 391.873019 281.229934 
L 392.889597 276.446384 
L 393.906176 303.461882 
L 394.922755 290.877224 
L 395.939333 297.892774 
L 396.955912 297.910023 
L 397.97249 301.19599 
L 398.989069 307.173914 
L 400.005648 302.356473 
L 401.022226 302.221512 
L 402.038805 292.570893 
L 403.055383 287.600335 
L 404.071962 299.221505 
L 405.088541 295.648972 
L 406.105119 301.630528 
L 407.121698 303.458553 
L 408.138277 289.146637 
L 409.154855 302.411546 
L 410.171434 298.23986 
L 411.188012 293.597928 
L 412.204591 299.378253 
L 413.22117 295.507959 
L 414.237748 266.870206 
L 415.254327 304.375441 
L 416.270905 255.095919 
L 417.287484 256.43161 
L 418.304063 268.569323 
L 419.320641 285.023972 
L 420.33722 273.841879 
L 421.353799 297.168645 
L 422.370377 303.706385 
L 423.386956 287.476268 
L 424.403534 294.096013 
L 425.420113 272.313128 
L 426.436692 292.155117 
L 427.45327 278.012053 
L 428.469849 292.527924 
L 429.486427 249.898711 
L 430.503006 295.006243 
L 431.519585 306.829249 
L 432.536163 301.696193 
L 433.552742 293.304101 
L 434.56932 276.968677 
L 435.585899 284.579145 
L 436.602478 295.941892 
L 437.619056 301.394497 
L 438.635635 284.498653 
L 439.652214 300.140813 
L 440.668792 287.964669 
L 441.685371 269.153952 
L 442.701949 301.839021 
L 443.718528 290.804902 
L 444.735107 287.393959 
L 445.751685 287.064727 
L 446.768264 302.409731 
L 447.784842 262.236142 
L 448.801421 261.272957 
L 449.818 284.069562 
L 450.834578 297.069391 
L 451.851157 289.759105 
L 453.884314 301.671984 
L 454.900893 300.433127 
L 455.917471 301.901358 
L 456.93405 290.692939 
L 457.950629 296.311068 
L 458.967207 298.950372 
L 459.983786 291.134134 
L 461.000364 300.982049 
L 462.016943 304.357587 
L 463.033522 299.699012 
L 464.0501 289.27494 
L 465.066679 296.792812 
L 466.083257 294.801684 
L 467.099836 289.041028 
L 468.116415 290.656021 
L 469.132993 297.802296 
L 470.149572 272.097675 
L 471.16615 290.162173 
L 472.182729 291.628587 
L 473.199308 289.883173 
L 474.215886 303.10481 
L 475.232465 299.726852 
L 476.249044 292.54729 
L 477.265622 299.059914 
L 478.282201 297.43312 
L 479.298779 306.209215 
L 480.315358 298.169959 
L 481.331937 303.771747 
L 483.365094 276.044527 
L 484.381672 287.981615 
L 486.41483 300.460059 
L 487.431408 300.937264 
L 488.447987 272.051679 
L 489.464565 298.889852 
L 490.481144 295.492829 
L 491.497723 302.632447 
L 492.514301 271.730617 
L 493.53088 256.929694 
L 494.547459 297.803204 
L 495.564037 294.354739 
L 496.580616 296.013306 
L 497.597194 288.003402 
L 498.613773 293.109224 
L 499.630352 284.787639 
L 500.64693 281.4817 
L 501.663509 279.996827 
L 502.680087 297.465499 
L 503.696666 287.509554 
L 504.713245 297.097533 
L 505.729823 292.812673 
L 506.746402 290.685071 
L 507.762981 248.454386 
L 508.779559 295.486172 
L 509.796138 305.200942 
L 510.812716 278.523755 
L 511.829295 276.757763 
L 512.845874 279.283591 
L 513.862452 289.769696 
L 514.879031 292.052232 
L 515.895609 288.355027 
L 516.912188 297.621944 
L 517.928767 286.101844 
L 518.945345 283.986043 
L 519.961924 285.139869 
L 520.978502 280.497937 
L 521.995081 283.765143 
L 523.01166 302.285361 
L 524.028238 296.836992 
L 525.044817 292.716748 
L 526.061396 297.730276 
L 527.077974 289.856846 
L 528.094553 286.762124 
L 529.111131 273.235463 
L 530.12771 295.577255 
L 531.144289 286.867127 
L 532.160867 305.039049 
L 533.177446 285.013683 
L 534.194024 294.166217 
L 535.210603 297.467012 
L 536.227182 305.03451 
L 537.24376 292.084913 
L 538.260339 300.249447 
L 539.276917 293.890243 
L 540.293496 297.707884 
L 541.310075 297.348996 
L 542.326653 287.504107 
L 543.343232 303.546611 
L 544.359811 294.257906 
L 545.376389 290.659652 
L 546.392968 296.938061 
L 547.409546 286.470415 
L 548.426125 280.086094 
L 549.442704 302.631842 
L 550.459282 278.210258 
L 551.475861 286.886797 
L 552.492439 278.131278 
L 553.509018 286.066137 
L 554.525597 299.774966 
L 555.542175 294.45248 
L 556.558754 285.614048 
L 557.575332 293.974972 
L 558.591911 291.668834 
L 559.60849 281.18061 
L 560.625068 283.214103 
L 561.641647 283.782089 
L 562.658226 288.017927 
L 563.674804 276.394942 
L 564.691383 300.041559 
L 565.707961 300.426167 
L 566.72454 293.976182 
L 567.741119 303.982057 
L 568.757697 284.343115 
L 569.774276 299.67662 
L 570.790854 288.793196 
L 571.807433 298.880168 
L 572.824012 279.891823 
L 573.84059 304.1382 
L 574.857169 296.936246 
L 575.873747 280.400802 
L 576.890326 288.366526 
L 577.906905 297.325091 
L 578.923483 285.027301 
L 579.940062 277.693412 
L 580.956641 289.289465 
L 581.973219 292.922821 
L 582.989798 285.803478 
L 584.006376 297.849502 
L 585.022955 292.523082 
L 586.039534 300.090883 
L 587.056112 292.144526 
L 588.072691 290.586422 
L 589.089269 301.36454 
L 590.105848 264.746538 
L 591.122427 293.336479 
L 592.139005 299.995563 
L 593.155584 292.320035 
L 594.172163 285.753851 
L 595.188741 291.248518 
L 596.20532 255.842744 
L 597.221898 295.938866 
L 598.238477 285.85371 
L 599.255056 283.092154 
L 600.271634 297.6168 
L 601.288213 300.602585 
L 602.304791 285.655202 
L 603.32137 282.224288 
L 604.337949 298.76064 
L 605.354527 269.077393 
L 606.371106 293.005431 
L 607.387684 292.28221 
L 608.404263 275.201475 
L 609.420842 295.572111 
L 610.43742 262.032793 
L 611.453999 304.904693 
L 612.470578 294.048504 
L 613.487156 272.090413 
L 614.503735 287.720468 
L 615.520313 305.597957 
L 616.536892 294.827707 
L 617.553471 289.046778 
L 618.570049 269.004769 
L 619.586628 297.632838 
L 620.603206 295.703138 
L 621.619785 278.398174 
L 622.636364 297.061221 
L 622.636364 297.061221 
" clip-path="url(#pb3a7d7652e)" style="fill: none; stroke: #ff7f0e; stroke-width: 1.5; stroke-linecap: square"/>
   </g>
   <g id="patch_3">
    <path d="M 90 320.4 
L 90 43.2 
" style="fill: none; stroke: #000000; stroke-width: 0.8; stroke-linejoin: miter; stroke-linecap: square"/>
   </g>
   <g id="patch_4">
    <path d="M 648 320.4 
L 648 43.2 
" style="fill: none; stroke: #000000; stroke-width: 0.8; stroke-linejoin: miter; stroke-linecap: square"/>
   </g>
   <g id="patch_5">
    <path d="M 90 320.4 
L 648 320.4 
" style="fill: none; stroke: #000000; stroke-width: 0.8; stroke-linejoin: miter; stroke-linecap: square"/>
   </g>
   <g id="patch_6">
    <path d="M 90 43.2 
L 648 43.2 
" style="fill: none; stroke: #000000; stroke-width: 0.8; stroke-linejoin: miter; stroke-linecap: square"/>
   </g>
   <g id="text_14">
    <!-- model train and validation loss over time -->
    <g transform="translate(245.555625 37.2) scale(0.12 -0.12)">
     <defs>
      <path id="DejaVuSans-6d" d="M 3328 2828 
Q 3544 3216 3844 3400 
Q 4144 3584 4550 3584 
Q 5097 3584 5394 3201 
Q 5691 2819 5691 2113 
L 5691 0 
L 5113 0 
L 5113 2094 
Q 5113 2597 4934 2840 
Q 4756 3084 4391 3084 
Q 3944 3084 3684 2787 
Q 3425 2491 3425 1978 
L 3425 0 
L 2847 0 
L 2847 2094 
Q 2847 2600 2669 2842 
Q 2491 3084 2119 3084 
Q 1678 3084 1418 2786 
Q 1159 2488 1159 1978 
L 1159 0 
L 581 0 
L 581 3500 
L 1159 3500 
L 1159 2956 
Q 1356 3278 1631 3431 
Q 1906 3584 2284 3584 
Q 2666 3584 2933 3390 
Q 3200 3197 3328 2828 
z
" transform="scale(0.015625)"/>
      <path id="DejaVuSans-64" d="M 2906 2969 
L 2906 4863 
L 3481 4863 
L 3481 0 
L 2906 0 
L 2906 525 
Q 2725 213 2448 61 
Q 2172 -91 1784 -91 
Q 1150 -91 751 415 
Q 353 922 353 1747 
Q 353 2572 751 3078 
Q 1150 3584 1784 3584 
Q 2172 3584 2448 3432 
Q 2725 3281 2906 2969 
z
M 947 1747 
Q 947 1113 1208 752 
Q 1469 391 1925 391 
Q 2381 391 2643 752 
Q 2906 1113 2906 1747 
Q 2906 2381 2643 2742 
Q 2381 3103 1925 3103 
Q 1469 3103 1208 2742 
Q 947 2381 947 1747 
z
" transform="scale(0.015625)"/>
      <path id="DejaVuSans-20" transform="scale(0.015625)"/>
      <path id="DejaVuSans-74" d="M 1172 4494 
L 1172 3500 
L 2356 3500 
L 2356 3053 
L 1172 3053 
L 1172 1153 
Q 1172 725 1289 603 
Q 1406 481 1766 481 
L 2356 481 
L 2356 0 
L 1766 0 
Q 1100 0 847 248 
Q 594 497 594 1153 
L 594 3053 
L 172 3053 
L 172 3500 
L 594 3500 
L 594 4494 
L 1172 4494 
z
" transform="scale(0.015625)"/>
      <path id="DejaVuSans-72" d="M 2631 2963 
Q 2534 3019 2420 3045 
Q 2306 3072 2169 3072 
Q 1681 3072 1420 2755 
Q 1159 2438 1159 1844 
L 1159 0 
L 581 0 
L 581 3500 
L 1159 3500 
L 1159 2956 
Q 1341 3275 1631 3429 
Q 1922 3584 2338 3584 
Q 2397 3584 2469 3576 
Q 2541 3569 2628 3553 
L 2631 2963 
z
" transform="scale(0.015625)"/>
      <path id="DejaVuSans-61" d="M 2194 1759 
Q 1497 1759 1228 1600 
Q 959 1441 959 1056 
Q 959 750 1161 570 
Q 1363 391 1709 391 
Q 2188 391 2477 730 
Q 2766 1069 2766 1631 
L 2766 1759 
L 2194 1759 
z
M 3341 1997 
L 3341 0 
L 2766 0 
L 2766 531 
Q 2569 213 2275 61 
Q 1981 -91 1556 -91 
Q 1019 -91 701 211 
Q 384 513 384 1019 
Q 384 1609 779 1909 
Q 1175 2209 1959 2209 
L 2766 2209 
L 2766 2266 
Q 2766 2663 2505 2880 
Q 2244 3097 1772 3097 
Q 1472 3097 1187 3025 
Q 903 2953 641 2809 
L 641 3341 
Q 956 3463 1253 3523 
Q 1550 3584 1831 3584 
Q 2591 3584 2966 3190 
Q 3341 2797 3341 1997 
z
" transform="scale(0.015625)"/>
      <path id="DejaVuSans-69" d="M 603 3500 
L 1178 3500 
L 1178 0 
L 603 0 
L 603 3500 
z
M 603 4863 
L 1178 4863 
L 1178 4134 
L 603 4134 
L 603 4863 
z
" transform="scale(0.015625)"/>
      <path id="DejaVuSans-6e" d="M 3513 2113 
L 3513 0 
L 2938 0 
L 2938 2094 
Q 2938 2591 2744 2837 
Q 2550 3084 2163 3084 
Q 1697 3084 1428 2787 
Q 1159 2491 1159 1978 
L 1159 0 
L 581 0 
L 581 3500 
L 1159 3500 
L 1159 2956 
Q 1366 3272 1645 3428 
Q 1925 3584 2291 3584 
Q 2894 3584 3203 3211 
Q 3513 2838 3513 2113 
z
" transform="scale(0.015625)"/>
      <path id="DejaVuSans-76" d="M 191 3500 
L 800 3500 
L 1894 563 
L 2988 3500 
L 3597 3500 
L 2284 0 
L 1503 0 
L 191 3500 
z
" transform="scale(0.015625)"/>
     </defs>
     <use xlink:href="#DejaVuSans-6d"/>
     <use xlink:href="#DejaVuSans-6f" x="97.412109"/>
     <use xlink:href="#DejaVuSans-64" x="158.59375"/>
     <use xlink:href="#DejaVuSans-65" x="222.070312"/>
     <use xlink:href="#DejaVuSans-6c" x="283.59375"/>
     <use xlink:href="#DejaVuSans-20" x="311.376953"/>
     <use xlink:href="#DejaVuSans-74" x="343.164062"/>
     <use xlink:href="#DejaVuSans-72" x="382.373047"/>
     <use xlink:href="#DejaVuSans-61" x="423.486328"/>
     <use xlink:href="#DejaVuSans-69" x="484.765625"/>
     <use xlink:href="#DejaVuSans-6e" x="512.548828"/>
     <use xlink:href="#DejaVuSans-20" x="575.927734"/>
     <use xlink:href="#DejaVuSans-61" x="607.714844"/>
     <use xlink:href="#DejaVuSans-6e" x="668.994141"/>
     <use xlink:href="#DejaVuSans-64" x="732.373047"/>
     <use xlink:href="#DejaVuSans-20" x="795.849609"/>
     <use xlink:href="#DejaVuSans-76" x="827.636719"/>
     <use xlink:href="#DejaVuSans-61" x="886.816406"/>
     <use xlink:href="#DejaVuSans-6c" x="948.095703"/>
     <use xlink:href="#DejaVuSans-69" x="975.878906"/>
     <use xlink:href="#DejaVuSans-64" x="1003.662109"/>
     <use xlink:href="#DejaVuSans-61" x="1067.138672"/>
     <use xlink:href="#DejaVuSans-74" x="1128.417969"/>
     <use xlink:href="#DejaVuSans-69" x="1167.626953"/>
     <use xlink:href="#DejaVuSans-6f" x="1195.410156"/>
     <use xlink:href="#DejaVuSans-6e" x="1256.591797"/>
     <use xlink:href="#DejaVuSans-20" x="1319.970703"/>
     <use xlink:href="#DejaVuSans-6c" x="1351.757812"/>
     <use xlink:href="#DejaVuSans-6f" x="1379.541016"/>
     <use xlink:href="#DejaVuSans-73" x="1440.722656"/>
     <use xlink:href="#DejaVuSans-73" x="1492.822266"/>
     <use xlink:href="#DejaVuSans-20" x="1544.921875"/>
     <use xlink:href="#DejaVuSans-6f" x="1576.708984"/>
     <use xlink:href="#DejaVuSans-76" x="1637.890625"/>
     <use xlink:href="#DejaVuSans-65" x="1697.070312"/>
     <use xlink:href="#DejaVuSans-72" x="1758.59375"/>
     <use xlink:href="#DejaVuSans-20" x="1799.707031"/>
     <use xlink:href="#DejaVuSans-74" x="1831.494141"/>
     <use xlink:href="#DejaVuSans-69" x="1870.703125"/>
     <use xlink:href="#DejaVuSans-6d" x="1898.486328"/>
     <use xlink:href="#DejaVuSans-65" x="1995.898438"/>
    </g>
   </g>
   <g id="legend_1">
    <g id="patch_7">
     <path d="M 559.765625 80.55625 
L 641 80.55625 
Q 643 80.55625 643 78.55625 
L 643 50.2 
Q 643 48.2 641 48.2 
L 559.765625 48.2 
Q 557.765625 48.2 557.765625 50.2 
L 557.765625 78.55625 
Q 557.765625 80.55625 559.765625 80.55625 
z
" style="fill: #ffffff; opacity: 0.8; stroke: #cccccc; stroke-linejoin: miter"/>
    </g>
    <g id="line2d_25">
     <path d="M 561.765625 56.298437 
L 571.765625 56.298437 
L 581.765625 56.298437 
" style="fill: none; stroke: #1f77b4; stroke-width: 1.5; stroke-linecap: square"/>
    </g>
    <g id="text_15">
     <!-- train -->
     <g transform="translate(589.765625 59.798437) scale(0.1 -0.1)">
      <use xlink:href="#DejaVuSans-74"/>
      <use xlink:href="#DejaVuSans-72" x="39.208984"/>
      <use xlink:href="#DejaVuSans-61" x="80.322266"/>
      <use xlink:href="#DejaVuSans-69" x="141.601562"/>
      <use xlink:href="#DejaVuSans-6e" x="169.384766"/>
     </g>
    </g>
    <g id="line2d_26">
     <path d="M 561.765625 70.976562 
L 571.765625 70.976562 
L 581.765625 70.976562 
" style="fill: none; stroke: #ff7f0e; stroke-width: 1.5; stroke-linecap: square"/>
    </g>
    <g id="text_16">
     <!-- validation -->
     <g transform="translate(589.765625 74.476562) scale(0.1 -0.1)">
      <use xlink:href="#DejaVuSans-76"/>
      <use xlink:href="#DejaVuSans-61" x="59.179688"/>
      <use xlink:href="#DejaVuSans-6c" x="120.458984"/>
      <use xlink:href="#DejaVuSans-69" x="148.242188"/>
      <use xlink:href="#DejaVuSans-64" x="176.025391"/>
      <use xlink:href="#DejaVuSans-61" x="239.501953"/>
      <use xlink:href="#DejaVuSans-74" x="300.78125"/>
      <use xlink:href="#DejaVuSans-69" x="339.990234"/>
      <use xlink:href="#DejaVuSans-6f" x="367.773438"/>
      <use xlink:href="#DejaVuSans-6e" x="428.955078"/>
     </g>
    </g>
   </g>
  </g>
 </g>
 <defs>
  <clipPath id="pb3a7d7652e">
   <rect x="90" y="43.2" width="558" height="277.2"/>
  </clipPath>
 </defs>
</svg>
