<?xml version="1.0" encoding="utf-8" standalone="no"?>
<!DOCTYPE svg PUBLIC "-//W3C//DTD SVG 1.1//EN"
  "http://www.w3.org/Graphics/SVG/1.1/DTD/svg11.dtd">
<svg xmlns:xlink="http://www.w3.org/1999/xlink" width="720pt" height="360pt" viewBox="0 0 720 360" xmlns="http://www.w3.org/2000/svg" version="1.1">
 <metadata>
  <rdf:RDF xmlns:dc="http://purl.org/dc/elements/1.1/" xmlns:cc="http://creativecommons.org/ns#" xmlns:rdf="http://www.w3.org/1999/02/22-rdf-syntax-ns#">
   <cc:Work>
    <dc:type rdf:resource="http://purl.org/dc/dcmitype/StillImage"/>
    <dc:date>2023-05-24T11:25:29.915514</dc:date>
    <dc:format>image/svg+xml</dc:format>
    <dc:creator>
     <cc:Agent>
      <dc:title>Matplotlib v3.7.1, https://matplotlib.org/</dc:title>
     </cc:Agent>
    </dc:creator>
   </cc:Work>
  </rdf:RDF>
 </metadata>
 <defs>
  <style type="text/css">*{stroke-linejoin: round; stroke-linecap: butt}</style>
 </defs>
 <g id="figure_1">
  <g id="patch_1">
   <path d="M 0 360 
L 720 360 
L 720 0 
L 0 0 
z
" style="fill: #ffffff"/>
  </g>
  <g id="axes_1">
   <g id="patch_2">
    <path d="M 90 320.4 
L 648 320.4 
L 648 43.2 
L 90 43.2 
z
" style="fill: #ffffff"/>
   </g>
   <g id="matplotlib.axis_1">
    <g id="xtick_1">
     <g id="line2d_1">
      <path d="M 115.363636 320.4 
L 115.363636 43.2 
" clip-path="url(#pa663cc5dd9)" style="fill: none; stroke: #b0b0b0; stroke-width: 0.8; stroke-linecap: square"/>
     </g>
     <g id="line2d_2">
      <defs>
       <path id="m40f0029bb5" d="M 0 0 
L 0 3.5 
" style="stroke: #000000; stroke-width: 0.8"/>
      </defs>
      <g>
       <use xlink:href="#m40f0029bb5" x="115.363636" y="320.4" style="stroke: #000000; stroke-width: 0.8"/>
      </g>
     </g>
     <g id="text_1">
      <!-- 0 -->
      <g transform="translate(112.182386 334.998438) scale(0.1 -0.1)">
       <defs>
        <path id="DejaVuSans-30" d="M 2034 4250 
Q 1547 4250 1301 3770 
Q 1056 3291 1056 2328 
Q 1056 1369 1301 889 
Q 1547 409 2034 409 
Q 2525 409 2770 889 
Q 3016 1369 3016 2328 
Q 3016 3291 2770 3770 
Q 2525 4250 2034 4250 
z
M 2034 4750 
Q 2819 4750 3233 4129 
Q 3647 3509 3647 2328 
Q 3647 1150 3233 529 
Q 2819 -91 2034 -91 
Q 1250 -91 836 529 
Q 422 1150 422 2328 
Q 422 3509 836 4129 
Q 1250 4750 2034 4750 
z
" transform="scale(0.015625)"/>
       </defs>
       <use xlink:href="#DejaVuSans-30"/>
      </g>
     </g>
    </g>
    <g id="xtick_2">
     <g id="line2d_3">
      <path d="M 217.021498 320.4 
L 217.021498 43.2 
" clip-path="url(#pa663cc5dd9)" style="fill: none; stroke: #b0b0b0; stroke-width: 0.8; stroke-linecap: square"/>
     </g>
     <g id="line2d_4">
      <g>
       <use xlink:href="#m40f0029bb5" x="217.021498" y="320.4" style="stroke: #000000; stroke-width: 0.8"/>
      </g>
     </g>
     <g id="text_2">
      <!-- 100 -->
      <g transform="translate(207.477748 334.998438) scale(0.1 -0.1)">
       <defs>
        <path id="DejaVuSans-31" d="M 794 531 
L 1825 531 
L 1825 4091 
L 703 3866 
L 703 4441 
L 1819 4666 
L 2450 4666 
L 2450 531 
L 3481 531 
L 3481 0 
L 794 0 
L 794 531 
z
" transform="scale(0.015625)"/>
       </defs>
       <use xlink:href="#DejaVuSans-31"/>
       <use xlink:href="#DejaVuSans-30" x="63.623047"/>
       <use xlink:href="#DejaVuSans-30" x="127.246094"/>
      </g>
     </g>
    </g>
    <g id="xtick_3">
     <g id="line2d_5">
      <path d="M 318.679359 320.4 
L 318.679359 43.2 
" clip-path="url(#pa663cc5dd9)" style="fill: none; stroke: #b0b0b0; stroke-width: 0.8; stroke-linecap: square"/>
     </g>
     <g id="line2d_6">
      <g>
       <use xlink:href="#m40f0029bb5" x="318.679359" y="320.4" style="stroke: #000000; stroke-width: 0.8"/>
      </g>
     </g>
     <g id="text_3">
      <!-- 200 -->
      <g transform="translate(309.135609 334.998438) scale(0.1 -0.1)">
       <defs>
        <path id="DejaVuSans-32" d="M 1228 531 
L 3431 531 
L 3431 0 
L 469 0 
L 469 531 
Q 828 903 1448 1529 
Q 2069 2156 2228 2338 
Q 2531 2678 2651 2914 
Q 2772 3150 2772 3378 
Q 2772 3750 2511 3984 
Q 2250 4219 1831 4219 
Q 1534 4219 1204 4116 
Q 875 4013 500 3803 
L 500 4441 
Q 881 4594 1212 4672 
Q 1544 4750 1819 4750 
Q 2544 4750 2975 4387 
Q 3406 4025 3406 3419 
Q 3406 3131 3298 2873 
Q 3191 2616 2906 2266 
Q 2828 2175 2409 1742 
Q 1991 1309 1228 531 
z
" transform="scale(0.015625)"/>
       </defs>
       <use xlink:href="#DejaVuSans-32"/>
       <use xlink:href="#DejaVuSans-30" x="63.623047"/>
       <use xlink:href="#DejaVuSans-30" x="127.246094"/>
      </g>
     </g>
    </g>
    <g id="xtick_4">
     <g id="line2d_7">
      <path d="M 420.33722 320.4 
L 420.33722 43.2 
" clip-path="url(#pa663cc5dd9)" style="fill: none; stroke: #b0b0b0; stroke-width: 0.8; stroke-linecap: square"/>
     </g>
     <g id="line2d_8">
      <g>
       <use xlink:href="#m40f0029bb5" x="420.33722" y="320.4" style="stroke: #000000; stroke-width: 0.8"/>
      </g>
     </g>
     <g id="text_4">
      <!-- 300 -->
      <g transform="translate(410.79347 334.998438) scale(0.1 -0.1)">
       <defs>
        <path id="DejaVuSans-33" d="M 2597 2516 
Q 3050 2419 3304 2112 
Q 3559 1806 3559 1356 
Q 3559 666 3084 287 
Q 2609 -91 1734 -91 
Q 1441 -91 1130 -33 
Q 819 25 488 141 
L 488 750 
Q 750 597 1062 519 
Q 1375 441 1716 441 
Q 2309 441 2620 675 
Q 2931 909 2931 1356 
Q 2931 1769 2642 2001 
Q 2353 2234 1838 2234 
L 1294 2234 
L 1294 2753 
L 1863 2753 
Q 2328 2753 2575 2939 
Q 2822 3125 2822 3475 
Q 2822 3834 2567 4026 
Q 2313 4219 1838 4219 
Q 1578 4219 1281 4162 
Q 984 4106 628 3988 
L 628 4550 
Q 988 4650 1302 4700 
Q 1616 4750 1894 4750 
Q 2613 4750 3031 4423 
Q 3450 4097 3450 3541 
Q 3450 3153 3228 2886 
Q 3006 2619 2597 2516 
z
" transform="scale(0.015625)"/>
       </defs>
       <use xlink:href="#DejaVuSans-33"/>
       <use xlink:href="#DejaVuSans-30" x="63.623047"/>
       <use xlink:href="#DejaVuSans-30" x="127.246094"/>
      </g>
     </g>
    </g>
    <g id="xtick_5">
     <g id="line2d_9">
      <path d="M 521.995081 320.4 
L 521.995081 43.2 
" clip-path="url(#pa663cc5dd9)" style="fill: none; stroke: #b0b0b0; stroke-width: 0.8; stroke-linecap: square"/>
     </g>
     <g id="line2d_10">
      <g>
       <use xlink:href="#m40f0029bb5" x="521.995081" y="320.4" style="stroke: #000000; stroke-width: 0.8"/>
      </g>
     </g>
     <g id="text_5">
      <!-- 400 -->
      <g transform="translate(512.451331 334.998438) scale(0.1 -0.1)">
       <defs>
        <path id="DejaVuSans-34" d="M 2419 4116 
L 825 1625 
L 2419 1625 
L 2419 4116 
z
M 2253 4666 
L 3047 4666 
L 3047 1625 
L 3713 1625 
L 3713 1100 
L 3047 1100 
L 3047 0 
L 2419 0 
L 2419 1100 
L 313 1100 
L 313 1709 
L 2253 4666 
z
" transform="scale(0.015625)"/>
       </defs>
       <use xlink:href="#DejaVuSans-34"/>
       <use xlink:href="#DejaVuSans-30" x="63.623047"/>
       <use xlink:href="#DejaVuSans-30" x="127.246094"/>
      </g>
     </g>
    </g>
    <g id="xtick_6">
     <g id="line2d_11">
      <path d="M 623.652942 320.4 
L 623.652942 43.2 
" clip-path="url(#pa663cc5dd9)" style="fill: none; stroke: #b0b0b0; stroke-width: 0.8; stroke-linecap: square"/>
     </g>
     <g id="line2d_12">
      <g>
       <use xlink:href="#m40f0029bb5" x="623.652942" y="320.4" style="stroke: #000000; stroke-width: 0.8"/>
      </g>
     </g>
     <g id="text_6">
      <!-- 500 -->
      <g transform="translate(614.109192 334.998438) scale(0.1 -0.1)">
       <defs>
        <path id="DejaVuSans-35" d="M 691 4666 
L 3169 4666 
L 3169 4134 
L 1269 4134 
L 1269 2991 
Q 1406 3038 1543 3061 
Q 1681 3084 1819 3084 
Q 2600 3084 3056 2656 
Q 3513 2228 3513 1497 
Q 3513 744 3044 326 
Q 2575 -91 1722 -91 
Q 1428 -91 1123 -41 
Q 819 9 494 109 
L 494 744 
Q 775 591 1075 516 
Q 1375 441 1709 441 
Q 2250 441 2565 725 
Q 2881 1009 2881 1497 
Q 2881 1984 2565 2268 
Q 2250 2553 1709 2553 
Q 1456 2553 1204 2497 
Q 953 2441 691 2322 
L 691 4666 
z
" transform="scale(0.015625)"/>
       </defs>
       <use xlink:href="#DejaVuSans-35"/>
       <use xlink:href="#DejaVuSans-30" x="63.623047"/>
       <use xlink:href="#DejaVuSans-30" x="127.246094"/>
      </g>
     </g>
    </g>
    <g id="text_7">
     <!-- epoch -->
     <g transform="translate(353.771875 348.676562) scale(0.1 -0.1)">
      <defs>
       <path id="DejaVuSans-65" d="M 3597 1894 
L 3597 1613 
L 953 1613 
Q 991 1019 1311 708 
Q 1631 397 2203 397 
Q 2534 397 2845 478 
Q 3156 559 3463 722 
L 3463 178 
Q 3153 47 2828 -22 
Q 2503 -91 2169 -91 
Q 1331 -91 842 396 
Q 353 884 353 1716 
Q 353 2575 817 3079 
Q 1281 3584 2069 3584 
Q 2775 3584 3186 3129 
Q 3597 2675 3597 1894 
z
M 3022 2063 
Q 3016 2534 2758 2815 
Q 2500 3097 2075 3097 
Q 1594 3097 1305 2825 
Q 1016 2553 972 2059 
L 3022 2063 
z
" transform="scale(0.015625)"/>
       <path id="DejaVuSans-70" d="M 1159 525 
L 1159 -1331 
L 581 -1331 
L 581 3500 
L 1159 3500 
L 1159 2969 
Q 1341 3281 1617 3432 
Q 1894 3584 2278 3584 
Q 2916 3584 3314 3078 
Q 3713 2572 3713 1747 
Q 3713 922 3314 415 
Q 2916 -91 2278 -91 
Q 1894 -91 1617 61 
Q 1341 213 1159 525 
z
M 3116 1747 
Q 3116 2381 2855 2742 
Q 2594 3103 2138 3103 
Q 1681 3103 1420 2742 
Q 1159 2381 1159 1747 
Q 1159 1113 1420 752 
Q 1681 391 2138 391 
Q 2594 391 2855 752 
Q 3116 1113 3116 1747 
z
" transform="scale(0.015625)"/>
       <path id="DejaVuSans-6f" d="M 1959 3097 
Q 1497 3097 1228 2736 
Q 959 2375 959 1747 
Q 959 1119 1226 758 
Q 1494 397 1959 397 
Q 2419 397 2687 759 
Q 2956 1122 2956 1747 
Q 2956 2369 2687 2733 
Q 2419 3097 1959 3097 
z
M 1959 3584 
Q 2709 3584 3137 3096 
Q 3566 2609 3566 1747 
Q 3566 888 3137 398 
Q 2709 -91 1959 -91 
Q 1206 -91 779 398 
Q 353 888 353 1747 
Q 353 2609 779 3096 
Q 1206 3584 1959 3584 
z
" transform="scale(0.015625)"/>
       <path id="DejaVuSans-63" d="M 3122 3366 
L 3122 2828 
Q 2878 2963 2633 3030 
Q 2388 3097 2138 3097 
Q 1578 3097 1268 2742 
Q 959 2388 959 1747 
Q 959 1106 1268 751 
Q 1578 397 2138 397 
Q 2388 397 2633 464 
Q 2878 531 3122 666 
L 3122 134 
Q 2881 22 2623 -34 
Q 2366 -91 2075 -91 
Q 1284 -91 818 406 
Q 353 903 353 1747 
Q 353 2603 823 3093 
Q 1294 3584 2113 3584 
Q 2378 3584 2631 3529 
Q 2884 3475 3122 3366 
z
" transform="scale(0.015625)"/>
       <path id="DejaVuSans-68" d="M 3513 2113 
L 3513 0 
L 2938 0 
L 2938 2094 
Q 2938 2591 2744 2837 
Q 2550 3084 2163 3084 
Q 1697 3084 1428 2787 
Q 1159 2491 1159 1978 
L 1159 0 
L 581 0 
L 581 4863 
L 1159 4863 
L 1159 2956 
Q 1366 3272 1645 3428 
Q 1925 3584 2291 3584 
Q 2894 3584 3203 3211 
Q 3513 2838 3513 2113 
z
" transform="scale(0.015625)"/>
      </defs>
      <use xlink:href="#DejaVuSans-65"/>
      <use xlink:href="#DejaVuSans-70" x="61.523438"/>
      <use xlink:href="#DejaVuSans-6f" x="125"/>
      <use xlink:href="#DejaVuSans-63" x="186.181641"/>
      <use xlink:href="#DejaVuSans-68" x="241.162109"/>
     </g>
    </g>
   </g>
   <g id="matplotlib.axis_2">
    <g id="ytick_1">
     <g id="line2d_13">
      <path d="M 90 319.83366 
L 648 319.83366 
" clip-path="url(#pa663cc5dd9)" style="fill: none; stroke: #b0b0b0; stroke-width: 0.8; stroke-linecap: square"/>
     </g>
     <g id="line2d_14">
      <defs>
       <path id="m3688047bd3" d="M 0 0 
L -3.5 0 
" style="stroke: #000000; stroke-width: 0.8"/>
      </defs>
      <g>
       <use xlink:href="#m3688047bd3" x="90" y="319.83366" style="stroke: #000000; stroke-width: 0.8"/>
      </g>
     </g>
     <g id="text_8">
      <!-- 0.370 -->
      <g transform="translate(54.371875 323.632879) scale(0.1 -0.1)">
       <defs>
        <path id="DejaVuSans-2e" d="M 684 794 
L 1344 794 
L 1344 0 
L 684 0 
L 684 794 
z
" transform="scale(0.015625)"/>
        <path id="DejaVuSans-37" d="M 525 4666 
L 3525 4666 
L 3525 4397 
L 1831 0 
L 1172 0 
L 2766 4134 
L 525 4134 
L 525 4666 
z
" transform="scale(0.015625)"/>
       </defs>
       <use xlink:href="#DejaVuSans-30"/>
       <use xlink:href="#DejaVuSans-2e" x="63.623047"/>
       <use xlink:href="#DejaVuSans-33" x="95.410156"/>
       <use xlink:href="#DejaVuSans-37" x="159.033203"/>
       <use xlink:href="#DejaVuSans-30" x="222.65625"/>
      </g>
     </g>
    </g>
    <g id="ytick_2">
     <g id="line2d_15">
      <path d="M 90 282.592009 
L 648 282.592009 
" clip-path="url(#pa663cc5dd9)" style="fill: none; stroke: #b0b0b0; stroke-width: 0.8; stroke-linecap: square"/>
     </g>
     <g id="line2d_16">
      <g>
       <use xlink:href="#m3688047bd3" x="90" y="282.592009" style="stroke: #000000; stroke-width: 0.8"/>
      </g>
     </g>
     <g id="text_9">
      <!-- 0.375 -->
      <g transform="translate(54.371875 286.391228) scale(0.1 -0.1)">
       <use xlink:href="#DejaVuSans-30"/>
       <use xlink:href="#DejaVuSans-2e" x="63.623047"/>
       <use xlink:href="#DejaVuSans-33" x="95.410156"/>
       <use xlink:href="#DejaVuSans-37" x="159.033203"/>
       <use xlink:href="#DejaVuSans-35" x="222.65625"/>
      </g>
     </g>
    </g>
    <g id="ytick_3">
     <g id="line2d_17">
      <path d="M 90 245.350358 
L 648 245.350358 
" clip-path="url(#pa663cc5dd9)" style="fill: none; stroke: #b0b0b0; stroke-width: 0.8; stroke-linecap: square"/>
     </g>
     <g id="line2d_18">
      <g>
       <use xlink:href="#m3688047bd3" x="90" y="245.350358" style="stroke: #000000; stroke-width: 0.8"/>
      </g>
     </g>
     <g id="text_10">
      <!-- 0.380 -->
      <g transform="translate(54.371875 249.149577) scale(0.1 -0.1)">
       <defs>
        <path id="DejaVuSans-38" d="M 2034 2216 
Q 1584 2216 1326 1975 
Q 1069 1734 1069 1313 
Q 1069 891 1326 650 
Q 1584 409 2034 409 
Q 2484 409 2743 651 
Q 3003 894 3003 1313 
Q 3003 1734 2745 1975 
Q 2488 2216 2034 2216 
z
M 1403 2484 
Q 997 2584 770 2862 
Q 544 3141 544 3541 
Q 544 4100 942 4425 
Q 1341 4750 2034 4750 
Q 2731 4750 3128 4425 
Q 3525 4100 3525 3541 
Q 3525 3141 3298 2862 
Q 3072 2584 2669 2484 
Q 3125 2378 3379 2068 
Q 3634 1759 3634 1313 
Q 3634 634 3220 271 
Q 2806 -91 2034 -91 
Q 1263 -91 848 271 
Q 434 634 434 1313 
Q 434 1759 690 2068 
Q 947 2378 1403 2484 
z
M 1172 3481 
Q 1172 3119 1398 2916 
Q 1625 2713 2034 2713 
Q 2441 2713 2670 2916 
Q 2900 3119 2900 3481 
Q 2900 3844 2670 4047 
Q 2441 4250 2034 4250 
Q 1625 4250 1398 4047 
Q 1172 3844 1172 3481 
z
" transform="scale(0.015625)"/>
       </defs>
       <use xlink:href="#DejaVuSans-30"/>
       <use xlink:href="#DejaVuSans-2e" x="63.623047"/>
       <use xlink:href="#DejaVuSans-33" x="95.410156"/>
       <use xlink:href="#DejaVuSans-38" x="159.033203"/>
       <use xlink:href="#DejaVuSans-30" x="222.65625"/>
      </g>
     </g>
    </g>
    <g id="ytick_4">
     <g id="line2d_19">
      <path d="M 90 208.108707 
L 648 208.108707 
" clip-path="url(#pa663cc5dd9)" style="fill: none; stroke: #b0b0b0; stroke-width: 0.8; stroke-linecap: square"/>
     </g>
     <g id="line2d_20">
      <g>
       <use xlink:href="#m3688047bd3" x="90" y="208.108707" style="stroke: #000000; stroke-width: 0.8"/>
      </g>
     </g>
     <g id="text_11">
      <!-- 0.385 -->
      <g transform="translate(54.371875 211.907926) scale(0.1 -0.1)">
       <use xlink:href="#DejaVuSans-30"/>
       <use xlink:href="#DejaVuSans-2e" x="63.623047"/>
       <use xlink:href="#DejaVuSans-33" x="95.410156"/>
       <use xlink:href="#DejaVuSans-38" x="159.033203"/>
       <use xlink:href="#DejaVuSans-35" x="222.65625"/>
      </g>
     </g>
    </g>
    <g id="ytick_5">
     <g id="line2d_21">
      <path d="M 90 170.867056 
L 648 170.867056 
" clip-path="url(#pa663cc5dd9)" style="fill: none; stroke: #b0b0b0; stroke-width: 0.8; stroke-linecap: square"/>
     </g>
     <g id="line2d_22">
      <g>
       <use xlink:href="#m3688047bd3" x="90" y="170.867056" style="stroke: #000000; stroke-width: 0.8"/>
      </g>
     </g>
     <g id="text_12">
      <!-- 0.390 -->
      <g transform="translate(54.371875 174.666274) scale(0.1 -0.1)">
       <defs>
        <path id="DejaVuSans-39" d="M 703 97 
L 703 672 
Q 941 559 1184 500 
Q 1428 441 1663 441 
Q 2288 441 2617 861 
Q 2947 1281 2994 2138 
Q 2813 1869 2534 1725 
Q 2256 1581 1919 1581 
Q 1219 1581 811 2004 
Q 403 2428 403 3163 
Q 403 3881 828 4315 
Q 1253 4750 1959 4750 
Q 2769 4750 3195 4129 
Q 3622 3509 3622 2328 
Q 3622 1225 3098 567 
Q 2575 -91 1691 -91 
Q 1453 -91 1209 -44 
Q 966 3 703 97 
z
M 1959 2075 
Q 2384 2075 2632 2365 
Q 2881 2656 2881 3163 
Q 2881 3666 2632 3958 
Q 2384 4250 1959 4250 
Q 1534 4250 1286 3958 
Q 1038 3666 1038 3163 
Q 1038 2656 1286 2365 
Q 1534 2075 1959 2075 
z
" transform="scale(0.015625)"/>
       </defs>
       <use xlink:href="#DejaVuSans-30"/>
       <use xlink:href="#DejaVuSans-2e" x="63.623047"/>
       <use xlink:href="#DejaVuSans-33" x="95.410156"/>
       <use xlink:href="#DejaVuSans-39" x="159.033203"/>
       <use xlink:href="#DejaVuSans-30" x="222.65625"/>
      </g>
     </g>
    </g>
    <g id="ytick_6">
     <g id="line2d_23">
      <path d="M 90 133.625405 
L 648 133.625405 
" clip-path="url(#pa663cc5dd9)" style="fill: none; stroke: #b0b0b0; stroke-width: 0.8; stroke-linecap: square"/>
     </g>
     <g id="line2d_24">
      <g>
       <use xlink:href="#m3688047bd3" x="90" y="133.625405" style="stroke: #000000; stroke-width: 0.8"/>
      </g>
     </g>
     <g id="text_13">
      <!-- 0.395 -->
      <g transform="translate(54.371875 137.424623) scale(0.1 -0.1)">
       <use xlink:href="#DejaVuSans-30"/>
       <use xlink:href="#DejaVuSans-2e" x="63.623047"/>
       <use xlink:href="#DejaVuSans-33" x="95.410156"/>
       <use xlink:href="#DejaVuSans-39" x="159.033203"/>
       <use xlink:href="#DejaVuSans-35" x="222.65625"/>
      </g>
     </g>
    </g>
    <g id="ytick_7">
     <g id="line2d_25">
      <path d="M 90 96.383754 
L 648 96.383754 
" clip-path="url(#pa663cc5dd9)" style="fill: none; stroke: #b0b0b0; stroke-width: 0.8; stroke-linecap: square"/>
     </g>
     <g id="line2d_26">
      <g>
       <use xlink:href="#m3688047bd3" x="90" y="96.383754" style="stroke: #000000; stroke-width: 0.8"/>
      </g>
     </g>
     <g id="text_14">
      <!-- 0.400 -->
      <g transform="translate(54.371875 100.182972) scale(0.1 -0.1)">
       <use xlink:href="#DejaVuSans-30"/>
       <use xlink:href="#DejaVuSans-2e" x="63.623047"/>
       <use xlink:href="#DejaVuSans-34" x="95.410156"/>
       <use xlink:href="#DejaVuSans-30" x="159.033203"/>
       <use xlink:href="#DejaVuSans-30" x="222.65625"/>
      </g>
     </g>
    </g>
    <g id="ytick_8">
     <g id="line2d_27">
      <path d="M 90 59.142103 
L 648 59.142103 
" clip-path="url(#pa663cc5dd9)" style="fill: none; stroke: #b0b0b0; stroke-width: 0.8; stroke-linecap: square"/>
     </g>
     <g id="line2d_28">
      <g>
       <use xlink:href="#m3688047bd3" x="90" y="59.142103" style="stroke: #000000; stroke-width: 0.8"/>
      </g>
     </g>
     <g id="text_15">
      <!-- 0.405 -->
      <g transform="translate(54.371875 62.941321) scale(0.1 -0.1)">
       <use xlink:href="#DejaVuSans-30"/>
       <use xlink:href="#DejaVuSans-2e" x="63.623047"/>
       <use xlink:href="#DejaVuSans-34" x="95.410156"/>
       <use xlink:href="#DejaVuSans-30" x="159.033203"/>
       <use xlink:href="#DejaVuSans-35" x="222.65625"/>
      </g>
     </g>
    </g>
    <g id="text_16">
     <!-- accruacy -->
     <g transform="translate(48.292187 204.359375) rotate(-90) scale(0.1 -0.1)">
      <defs>
       <path id="DejaVuSans-61" d="M 2194 1759 
Q 1497 1759 1228 1600 
Q 959 1441 959 1056 
Q 959 750 1161 570 
Q 1363 391 1709 391 
Q 2188 391 2477 730 
Q 2766 1069 2766 1631 
L 2766 1759 
L 2194 1759 
z
M 3341 1997 
L 3341 0 
L 2766 0 
L 2766 531 
Q 2569 213 2275 61 
Q 1981 -91 1556 -91 
Q 1019 -91 701 211 
Q 384 513 384 1019 
Q 384 1609 779 1909 
Q 1175 2209 1959 2209 
L 2766 2209 
L 2766 2266 
Q 2766 2663 2505 2880 
Q 2244 3097 1772 3097 
Q 1472 3097 1187 3025 
Q 903 2953 641 2809 
L 641 3341 
Q 956 3463 1253 3523 
Q 1550 3584 1831 3584 
Q 2591 3584 2966 3190 
Q 3341 2797 3341 1997 
z
" transform="scale(0.015625)"/>
       <path id="DejaVuSans-72" d="M 2631 2963 
Q 2534 3019 2420 3045 
Q 2306 3072 2169 3072 
Q 1681 3072 1420 2755 
Q 1159 2438 1159 1844 
L 1159 0 
L 581 0 
L 581 3500 
L 1159 3500 
L 1159 2956 
Q 1341 3275 1631 3429 
Q 1922 3584 2338 3584 
Q 2397 3584 2469 3576 
Q 2541 3569 2628 3553 
L 2631 2963 
z
" transform="scale(0.015625)"/>
       <path id="DejaVuSans-75" d="M 544 1381 
L 544 3500 
L 1119 3500 
L 1119 1403 
Q 1119 906 1312 657 
Q 1506 409 1894 409 
Q 2359 409 2629 706 
Q 2900 1003 2900 1516 
L 2900 3500 
L 3475 3500 
L 3475 0 
L 2900 0 
L 2900 538 
Q 2691 219 2414 64 
Q 2138 -91 1772 -91 
Q 1169 -91 856 284 
Q 544 659 544 1381 
z
M 1991 3584 
L 1991 3584 
z
" transform="scale(0.015625)"/>
       <path id="DejaVuSans-79" d="M 2059 -325 
Q 1816 -950 1584 -1140 
Q 1353 -1331 966 -1331 
L 506 -1331 
L 506 -850 
L 844 -850 
Q 1081 -850 1212 -737 
Q 1344 -625 1503 -206 
L 1606 56 
L 191 3500 
L 800 3500 
L 1894 763 
L 2988 3500 
L 3597 3500 
L 2059 -325 
z
" transform="scale(0.015625)"/>
      </defs>
      <use xlink:href="#DejaVuSans-61"/>
      <use xlink:href="#DejaVuSans-63" x="61.279297"/>
      <use xlink:href="#DejaVuSans-63" x="116.259766"/>
      <use xlink:href="#DejaVuSans-72" x="171.240234"/>
      <use xlink:href="#DejaVuSans-75" x="212.353516"/>
      <use xlink:href="#DejaVuSans-61" x="275.732422"/>
      <use xlink:href="#DejaVuSans-63" x="337.011719"/>
      <use xlink:href="#DejaVuSans-79" x="391.992188"/>
     </g>
    </g>
   </g>
   <g id="line2d_29">
    <path d="M 115.363636 238.890403 
L 117.396794 249.49205 
L 118.413372 238.890403 
L 119.429951 207.086349 
L 120.446529 228.288978 
L 121.463108 244.191449 
L 122.479687 238.890403 
L 123.496265 238.890403 
L 124.512844 222.988376 
L 125.529422 265.394077 
L 126.546001 212.386951 
L 127.56258 217.687774 
L 128.579158 249.49205 
L 129.595737 307.8 
L 130.612316 260.093475 
L 131.628894 238.890403 
L 132.645473 233.589801 
L 133.662051 244.191449 
L 134.67863 244.191449 
L 136.711787 265.394077 
L 137.728366 244.191449 
L 138.744944 265.394077 
L 139.761523 228.288978 
L 140.778102 260.093475 
L 141.79468 254.792874 
L 142.811259 260.093475 
L 143.827837 228.288978 
L 144.844416 260.093475 
L 145.860995 254.792874 
L 146.877573 265.394077 
L 147.894152 238.890403 
L 148.910731 217.687774 
L 149.927309 238.890403 
L 151.960466 249.49205 
L 152.977045 228.288978 
L 153.993624 233.589801 
L 155.010202 270.694901 
L 156.026781 238.890403 
L 157.043359 244.191449 
L 158.059938 233.589801 
L 159.076517 238.890403 
L 160.093095 238.890403 
L 161.109674 244.191449 
L 162.126253 238.890403 
L 163.142831 254.792874 
L 165.175988 265.394077 
L 166.192567 228.288978 
L 167.209146 233.589801 
L 168.225724 260.093475 
L 170.258881 228.288978 
L 171.27546 207.086349 
L 172.292039 233.589801 
L 173.308617 233.589801 
L 174.325196 244.191449 
L 175.341774 217.687774 
L 176.358353 244.191449 
L 177.374932 222.988376 
L 178.39151 244.191449 
L 179.408089 254.792874 
L 180.424668 228.288978 
L 181.441246 249.49205 
L 182.457825 254.792874 
L 183.474403 217.687774 
L 184.490982 260.093475 
L 185.507561 265.394077 
L 186.524139 254.792874 
L 187.540718 254.792874 
L 188.557296 265.394077 
L 189.573875 244.191449 
L 191.607032 233.589801 
L 192.623611 207.086349 
L 193.640189 212.386951 
L 194.656768 238.890403 
L 195.673347 233.589801 
L 196.689925 233.589801 
L 197.706504 249.49205 
L 198.723083 249.49205 
L 199.739661 233.589801 
L 200.75624 254.792874 
L 201.772818 201.785526 
L 202.789397 249.49205 
L 203.805976 228.288978 
L 205.839133 281.296104 
L 206.855711 249.49205 
L 207.87229 238.890403 
L 208.888869 222.988376 
L 210.922026 254.792874 
L 211.938604 244.191449 
L 212.955183 249.49205 
L 214.98834 238.890403 
L 216.004919 238.890403 
L 217.021498 233.589801 
L 218.038076 270.694901 
L 219.054655 244.191449 
L 220.071233 249.49205 
L 221.087812 233.589801 
L 222.104391 222.988376 
L 223.120969 265.394077 
L 224.137548 191.184322 
L 225.154126 244.191449 
L 226.170705 244.191449 
L 227.187284 238.890403 
L 228.203862 244.191449 
L 229.220441 265.394077 
L 230.237019 233.589801 
L 231.253598 244.191449 
L 232.270177 238.890403 
L 233.286755 238.890403 
L 234.303334 228.288978 
L 235.319913 228.288978 
L 236.336491 233.589801 
L 237.35307 249.49205 
L 238.369648 233.589801 
L 239.386227 238.890403 
L 240.402806 270.694901 
L 241.419384 228.288978 
L 242.435963 244.191449 
L 243.452541 217.687774 
L 244.46912 217.687774 
L 245.485699 265.394077 
L 246.502277 207.086349 
L 247.518856 270.694901 
L 248.535435 244.191449 
L 249.552013 265.394077 
L 250.568592 228.288978 
L 251.58517 222.988376 
L 252.601749 270.694901 
L 253.618328 228.288978 
L 254.634906 254.792874 
L 255.651485 260.093475 
L 256.668063 249.49205 
L 257.684642 217.687774 
L 258.701221 275.995502 
L 259.717799 275.995502 
L 260.734378 254.792874 
L 261.750956 254.792874 
L 262.767535 249.49205 
L 263.784114 233.589801 
L 264.800692 233.589801 
L 268.867007 254.792874 
L 269.883585 244.191449 
L 270.900164 249.49205 
L 271.916743 249.49205 
L 272.933321 238.890403 
L 273.9499 249.49205 
L 274.966478 233.589801 
L 275.983057 249.49205 
L 276.999636 222.988376 
L 278.016214 249.49205 
L 279.032793 260.093475 
L 280.049371 222.988376 
L 281.06595 196.484924 
L 282.082529 254.792874 
L 283.099107 244.191449 
L 284.115686 270.694901 
L 285.132265 201.785526 
L 286.148843 265.394077 
L 287.165422 249.49205 
L 288.182 249.49205 
L 289.198579 244.191449 
L 290.215158 260.093475 
L 292.248315 228.288978 
L 293.264893 228.288978 
L 295.298051 281.296104 
L 296.314629 244.191449 
L 297.331208 254.792874 
L 298.347786 249.49205 
L 299.364365 238.890403 
L 300.380944 249.49205 
L 301.397522 254.792874 
L 303.43068 244.191449 
L 304.447258 260.093475 
L 305.463837 249.49205 
L 306.480415 244.191449 
L 308.513573 254.792874 
L 309.530151 233.589801 
L 310.54673 265.394077 
L 311.563308 207.086349 
L 312.579887 228.288978 
L 313.596466 196.484924 
L 314.613044 254.792874 
L 315.629623 228.288978 
L 316.646201 265.394077 
L 317.66278 244.191449 
L 318.679359 238.890403 
L 319.695937 228.288978 
L 320.712516 222.988376 
L 321.729095 238.890403 
L 322.745673 260.093475 
L 323.762252 249.49205 
L 324.77883 265.394077 
L 325.795409 201.785526 
L 326.811988 254.792874 
L 327.828566 233.589801 
L 328.845145 244.191449 
L 329.861723 249.49205 
L 330.878302 233.589801 
L 331.894881 212.386951 
L 332.911459 260.093475 
L 333.928038 233.589801 
L 334.944617 233.589801 
L 335.961195 254.792874 
L 336.977774 254.792874 
L 337.994352 244.191449 
L 339.010931 238.890403 
L 340.02751 238.890403 
L 341.044088 233.589801 
L 342.060667 260.093475 
L 343.077245 222.988376 
L 344.093824 238.890403 
L 345.110403 249.49205 
L 346.126981 249.49205 
L 347.14356 238.890403 
L 348.160138 238.890403 
L 349.176717 260.093475 
L 350.193296 212.386951 
L 351.209874 275.995502 
L 352.226453 238.890403 
L 353.243032 249.49205 
L 354.25961 244.191449 
L 355.276189 254.792874 
L 356.292767 233.589801 
L 357.309346 233.589801 
L 358.325925 228.288978 
L 359.342503 228.288978 
L 360.359082 222.988376 
L 361.37566 244.191449 
L 362.392239 201.785526 
L 363.408818 254.792874 
L 364.425396 244.191449 
L 365.441975 254.792874 
L 366.458553 244.191449 
L 367.475132 238.890403 
L 368.491711 228.288978 
L 369.508289 244.191449 
L 370.524868 228.288978 
L 371.541447 254.792874 
L 372.558025 207.086349 
L 373.574604 244.191449 
L 374.591182 228.288978 
L 376.62434 249.49205 
L 377.640918 212.386951 
L 378.657497 254.792874 
L 379.674075 275.995502 
L 380.690654 265.394077 
L 381.707233 228.288978 
L 382.723811 233.589801 
L 383.74039 270.694901 
L 384.756968 222.988376 
L 385.773547 238.890403 
L 386.790126 260.093475 
L 387.806704 217.687774 
L 388.823283 228.288978 
L 389.839862 244.191449 
L 390.85644 254.792874 
L 391.873019 254.792874 
L 392.889597 228.288978 
L 393.906176 228.288978 
L 394.922755 260.093475 
L 395.939333 249.49205 
L 396.955912 222.988376 
L 397.97249 244.191449 
L 398.989069 281.296104 
L 400.005648 228.288978 
L 401.022226 244.191449 
L 402.038805 249.49205 
L 403.055383 217.687774 
L 404.071962 212.386951 
L 407.121698 244.191449 
L 408.138277 233.589801 
L 409.154855 265.394077 
L 410.171434 244.191449 
L 411.188012 217.687774 
L 412.204591 238.890403 
L 413.22117 222.988376 
L 414.237748 265.394077 
L 415.254327 254.792874 
L 416.270905 233.589801 
L 417.287484 249.49205 
L 418.304063 254.792874 
L 419.320641 222.988376 
L 420.33722 238.890403 
L 422.370377 249.49205 
L 423.386956 233.589801 
L 424.403534 244.191449 
L 426.436692 222.988376 
L 427.45327 260.093475 
L 428.469849 238.890403 
L 429.486427 238.890403 
L 430.503006 249.49205 
L 433.552742 233.589801 
L 435.585899 275.995502 
L 436.602478 228.288978 
L 437.619056 244.191449 
L 438.635635 254.792874 
L 439.652214 260.093475 
L 440.668792 207.086349 
L 441.685371 238.890403 
L 442.701949 249.49205 
L 443.718528 233.589801 
L 446.768264 233.589801 
L 447.784842 244.191449 
L 448.801421 265.394077 
L 449.818 254.792874 
L 450.834578 222.988376 
L 451.851157 254.792874 
L 452.867735 254.792874 
L 453.884314 238.890403 
L 454.900893 254.792874 
L 455.917471 233.589801 
L 457.950629 233.589801 
L 458.967207 254.792874 
L 459.983786 260.093475 
L 461.000364 260.093475 
L 462.016943 249.49205 
L 463.033522 233.589801 
L 464.0501 244.191449 
L 465.066679 238.890403 
L 466.083257 238.890403 
L 467.099836 244.191449 
L 468.116415 254.792874 
L 469.132993 238.890403 
L 470.149572 228.288978 
L 471.16615 222.988376 
L 472.182729 222.988376 
L 473.199308 249.49205 
L 474.215886 244.191449 
L 475.232465 249.49205 
L 476.249044 233.589801 
L 477.265622 228.288978 
L 478.282201 233.589801 
L 479.298779 228.288978 
L 480.315358 238.890403 
L 481.331937 217.687774 
L 482.348515 249.49205 
L 483.365094 260.093475 
L 484.381672 238.890403 
L 485.398251 270.694901 
L 486.41483 212.386951 
L 487.431408 270.694901 
L 488.447987 260.093475 
L 489.464565 254.792874 
L 490.481144 233.589801 
L 492.514301 254.792874 
L 493.53088 254.792874 
L 494.547459 281.296104 
L 495.564037 238.890403 
L 496.580616 233.589801 
L 497.597194 244.191449 
L 498.613773 212.386951 
L 499.630352 238.890403 
L 500.64693 254.792874 
L 501.663509 233.589801 
L 502.680087 254.792874 
L 503.696666 228.288978 
L 504.713245 212.386951 
L 506.746402 244.191449 
L 507.762981 249.49205 
L 508.779559 238.890403 
L 510.812716 238.890403 
L 511.829295 233.589801 
L 512.845874 238.890403 
L 513.862452 222.988376 
L 514.879031 238.890403 
L 515.895609 238.890403 
L 516.912188 249.49205 
L 517.928767 233.589801 
L 520.978502 249.49205 
L 521.995081 228.288978 
L 523.01166 249.49205 
L 524.028238 222.988376 
L 525.044817 222.988376 
L 526.061396 244.191449 
L 527.077974 244.191449 
L 528.094553 222.988376 
L 529.111131 254.792874 
L 530.12771 244.191449 
L 531.144289 249.49205 
L 532.160867 265.394077 
L 533.177446 260.093475 
L 534.194024 233.589801 
L 535.210603 233.589801 
L 536.227182 270.694901 
L 538.260339 238.890403 
L 539.276917 254.792874 
L 540.293496 233.589801 
L 541.310075 233.589801 
L 542.326653 222.988376 
L 543.343232 228.288978 
L 544.359811 249.49205 
L 545.376389 249.49205 
L 546.392968 244.191449 
L 547.409546 265.394077 
L 548.426125 228.288978 
L 549.442704 238.890403 
L 550.459282 270.694901 
L 551.475861 244.191449 
L 552.492439 249.49205 
L 553.509018 222.988376 
L 554.525597 228.288978 
L 555.542175 228.288978 
L 556.558754 238.890403 
L 557.575332 217.687774 
L 558.591911 254.792874 
L 559.60849 233.589801 
L 560.625068 254.792874 
L 561.641647 249.49205 
L 562.658226 254.792874 
L 563.674804 233.589801 
L 564.691383 244.191449 
L 565.707961 228.288978 
L 566.72454 254.792874 
L 567.741119 228.288978 
L 568.757697 249.49205 
L 569.774276 260.093475 
L 570.790854 207.086349 
L 571.807433 238.890403 
L 572.824012 233.589801 
L 573.84059 238.890403 
L 574.857169 233.589801 
L 576.890326 244.191449 
L 577.906905 238.890403 
L 578.923483 244.191449 
L 579.940062 207.086349 
L 580.956641 265.394077 
L 581.973219 265.394077 
L 582.989798 254.792874 
L 584.006376 238.890403 
L 585.022955 238.890403 
L 586.039534 254.792874 
L 587.056112 233.589801 
L 588.072691 244.191449 
L 589.089269 233.589801 
L 590.105848 228.288978 
L 591.122427 238.890403 
L 592.139005 233.589801 
L 593.155584 244.191449 
L 594.172163 233.589801 
L 595.188741 249.49205 
L 596.20532 233.589801 
L 597.221898 244.191449 
L 598.238477 244.191449 
L 599.255056 222.988376 
L 600.271634 249.49205 
L 601.288213 238.890403 
L 602.304791 238.890403 
L 603.32137 265.394077 
L 604.337949 265.394077 
L 605.354527 244.191449 
L 606.371106 233.589801 
L 607.387684 238.890403 
L 608.404263 212.386951 
L 609.420842 222.988376 
L 610.43742 254.792874 
L 611.453999 212.386951 
L 612.470578 265.394077 
L 613.487156 254.792874 
L 614.503735 249.49205 
L 615.520313 265.394077 
L 616.536892 260.093475 
L 617.553471 238.890403 
L 618.570049 249.49205 
L 619.586628 233.589801 
L 620.603206 228.288978 
L 621.619785 265.394077 
L 622.636364 238.890403 
L 622.636364 238.890403 
" clip-path="url(#pa663cc5dd9)" style="fill: none; stroke: #1f77b4; stroke-width: 1.5; stroke-linecap: square"/>
   </g>
   <g id="line2d_30">
    <path d="M 115.363636 55.8 
L 622.636364 55.8 
L 622.636364 55.8 
" clip-path="url(#pa663cc5dd9)" style="fill: none; stroke: #ff7f0e; stroke-width: 1.5; stroke-linecap: square"/>
   </g>
   <g id="patch_3">
    <path d="M 90 320.4 
L 90 43.2 
" style="fill: none; stroke: #000000; stroke-width: 0.8; stroke-linejoin: miter; stroke-linecap: square"/>
   </g>
   <g id="patch_4">
    <path d="M 648 320.4 
L 648 43.2 
" style="fill: none; stroke: #000000; stroke-width: 0.8; stroke-linejoin: miter; stroke-linecap: square"/>
   </g>
   <g id="patch_5">
    <path d="M 90 320.4 
L 648 320.4 
" style="fill: none; stroke: #000000; stroke-width: 0.8; stroke-linejoin: miter; stroke-linecap: square"/>
   </g>
   <g id="patch_6">
    <path d="M 90 43.2 
L 648 43.2 
" style="fill: none; stroke: #000000; stroke-width: 0.8; stroke-linejoin: miter; stroke-linecap: square"/>
   </g>
   <g id="text_17">
    <!-- model train and validation accracy over time -->
    <g transform="translate(233.87625 37.2) scale(0.12 -0.12)">
     <defs>
      <path id="DejaVuSans-6d" d="M 3328 2828 
Q 3544 3216 3844 3400 
Q 4144 3584 4550 3584 
Q 5097 3584 5394 3201 
Q 5691 2819 5691 2113 
L 5691 0 
L 5113 0 
L 5113 2094 
Q 5113 2597 4934 2840 
Q 4756 3084 4391 3084 
Q 3944 3084 3684 2787 
Q 3425 2491 3425 1978 
L 3425 0 
L 2847 0 
L 2847 2094 
Q 2847 2600 2669 2842 
Q 2491 3084 2119 3084 
Q 1678 3084 1418 2786 
Q 1159 2488 1159 1978 
L 1159 0 
L 581 0 
L 581 3500 
L 1159 3500 
L 1159 2956 
Q 1356 3278 1631 3431 
Q 1906 3584 2284 3584 
Q 2666 3584 2933 3390 
Q 3200 3197 3328 2828 
z
" transform="scale(0.015625)"/>
      <path id="DejaVuSans-64" d="M 2906 2969 
L 2906 4863 
L 3481 4863 
L 3481 0 
L 2906 0 
L 2906 525 
Q 2725 213 2448 61 
Q 2172 -91 1784 -91 
Q 1150 -91 751 415 
Q 353 922 353 1747 
Q 353 2572 751 3078 
Q 1150 3584 1784 3584 
Q 2172 3584 2448 3432 
Q 2725 3281 2906 2969 
z
M 947 1747 
Q 947 1113 1208 752 
Q 1469 391 1925 391 
Q 2381 391 2643 752 
Q 2906 1113 2906 1747 
Q 2906 2381 2643 2742 
Q 2381 3103 1925 3103 
Q 1469 3103 1208 2742 
Q 947 2381 947 1747 
z
" transform="scale(0.015625)"/>
      <path id="DejaVuSans-6c" d="M 603 4863 
L 1178 4863 
L 1178 0 
L 603 0 
L 603 4863 
z
" transform="scale(0.015625)"/>
      <path id="DejaVuSans-20" transform="scale(0.015625)"/>
      <path id="DejaVuSans-74" d="M 1172 4494 
L 1172 3500 
L 2356 3500 
L 2356 3053 
L 1172 3053 
L 1172 1153 
Q 1172 725 1289 603 
Q 1406 481 1766 481 
L 2356 481 
L 2356 0 
L 1766 0 
Q 1100 0 847 248 
Q 594 497 594 1153 
L 594 3053 
L 172 3053 
L 172 3500 
L 594 3500 
L 594 4494 
L 1172 4494 
z
" transform="scale(0.015625)"/>
      <path id="DejaVuSans-69" d="M 603 3500 
L 1178 3500 
L 1178 0 
L 603 0 
L 603 3500 
z
M 603 4863 
L 1178 4863 
L 1178 4134 
L 603 4134 
L 603 4863 
z
" transform="scale(0.015625)"/>
      <path id="DejaVuSans-6e" d="M 3513 2113 
L 3513 0 
L 2938 0 
L 2938 2094 
Q 2938 2591 2744 2837 
Q 2550 3084 2163 3084 
Q 1697 3084 1428 2787 
Q 1159 2491 1159 1978 
L 1159 0 
L 581 0 
L 581 3500 
L 1159 3500 
L 1159 2956 
Q 1366 3272 1645 3428 
Q 1925 3584 2291 3584 
Q 2894 3584 3203 3211 
Q 3513 2838 3513 2113 
z
" transform="scale(0.015625)"/>
      <path id="DejaVuSans-76" d="M 191 3500 
L 800 3500 
L 1894 563 
L 2988 3500 
L 3597 3500 
L 2284 0 
L 1503 0 
L 191 3500 
z
" transform="scale(0.015625)"/>
     </defs>
     <use xlink:href="#DejaVuSans-6d"/>
     <use xlink:href="#DejaVuSans-6f" x="97.412109"/>
     <use xlink:href="#DejaVuSans-64" x="158.59375"/>
     <use xlink:href="#DejaVuSans-65" x="222.070312"/>
     <use xlink:href="#DejaVuSans-6c" x="283.59375"/>
     <use xlink:href="#DejaVuSans-20" x="311.376953"/>
     <use xlink:href="#DejaVuSans-74" x="343.164062"/>
     <use xlink:href="#DejaVuSans-72" x="382.373047"/>
     <use xlink:href="#DejaVuSans-61" x="423.486328"/>
     <use xlink:href="#DejaVuSans-69" x="484.765625"/>
     <use xlink:href="#DejaVuSans-6e" x="512.548828"/>
     <use xlink:href="#DejaVuSans-20" x="575.927734"/>
     <use xlink:href="#DejaVuSans-61" x="607.714844"/>
     <use xlink:href="#DejaVuSans-6e" x="668.994141"/>
     <use xlink:href="#DejaVuSans-64" x="732.373047"/>
     <use xlink:href="#DejaVuSans-20" x="795.849609"/>
     <use xlink:href="#DejaVuSans-76" x="827.636719"/>
     <use xlink:href="#DejaVuSans-61" x="886.816406"/>
     <use xlink:href="#DejaVuSans-6c" x="948.095703"/>
     <use xlink:href="#DejaVuSans-69" x="975.878906"/>
     <use xlink:href="#DejaVuSans-64" x="1003.662109"/>
     <use xlink:href="#DejaVuSans-61" x="1067.138672"/>
     <use xlink:href="#DejaVuSans-74" x="1128.417969"/>
     <use xlink:href="#DejaVuSans-69" x="1167.626953"/>
     <use xlink:href="#DejaVuSans-6f" x="1195.410156"/>
     <use xlink:href="#DejaVuSans-6e" x="1256.591797"/>
     <use xlink:href="#DejaVuSans-20" x="1319.970703"/>
     <use xlink:href="#DejaVuSans-61" x="1351.757812"/>
     <use xlink:href="#DejaVuSans-63" x="1413.037109"/>
     <use xlink:href="#DejaVuSans-63" x="1468.017578"/>
     <use xlink:href="#DejaVuSans-72" x="1522.998047"/>
     <use xlink:href="#DejaVuSans-61" x="1564.111328"/>
     <use xlink:href="#DejaVuSans-63" x="1625.390625"/>
     <use xlink:href="#DejaVuSans-79" x="1680.371094"/>
     <use xlink:href="#DejaVuSans-20" x="1739.550781"/>
     <use xlink:href="#DejaVuSans-6f" x="1771.337891"/>
     <use xlink:href="#DejaVuSans-76" x="1832.519531"/>
     <use xlink:href="#DejaVuSans-65" x="1891.699219"/>
     <use xlink:href="#DejaVuSans-72" x="1953.222656"/>
     <use xlink:href="#DejaVuSans-20" x="1994.335938"/>
     <use xlink:href="#DejaVuSans-74" x="2026.123047"/>
     <use xlink:href="#DejaVuSans-69" x="2065.332031"/>
     <use xlink:href="#DejaVuSans-6d" x="2093.115234"/>
     <use xlink:href="#DejaVuSans-65" x="2190.527344"/>
    </g>
   </g>
   <g id="legend_1">
    <g id="patch_7">
     <path d="M 559.765625 315.4 
L 641 315.4 
Q 643 315.4 643 313.4 
L 643 285.04375 
Q 643 283.04375 641 283.04375 
L 559.765625 283.04375 
Q 557.765625 283.04375 557.765625 285.04375 
L 557.765625 313.4 
Q 557.765625 315.4 559.765625 315.4 
z
" style="fill: #ffffff; opacity: 0.8; stroke: #cccccc; stroke-linejoin: miter"/>
    </g>
    <g id="line2d_31">
     <path d="M 561.765625 291.142187 
L 571.765625 291.142187 
L 581.765625 291.142187 
" style="fill: none; stroke: #1f77b4; stroke-width: 1.5; stroke-linecap: square"/>
    </g>
    <g id="text_18">
     <!-- train -->
     <g transform="translate(589.765625 294.642187) scale(0.1 -0.1)">
      <use xlink:href="#DejaVuSans-74"/>
      <use xlink:href="#DejaVuSans-72" x="39.208984"/>
      <use xlink:href="#DejaVuSans-61" x="80.322266"/>
      <use xlink:href="#DejaVuSans-69" x="141.601562"/>
      <use xlink:href="#DejaVuSans-6e" x="169.384766"/>
     </g>
    </g>
    <g id="line2d_32">
     <path d="M 561.765625 305.820312 
L 571.765625 305.820312 
L 581.765625 305.820312 
" style="fill: none; stroke: #ff7f0e; stroke-width: 1.5; stroke-linecap: square"/>
    </g>
    <g id="text_19">
     <!-- validation -->
     <g transform="translate(589.765625 309.320312) scale(0.1 -0.1)">
      <use xlink:href="#DejaVuSans-76"/>
      <use xlink:href="#DejaVuSans-61" x="59.179688"/>
      <use xlink:href="#DejaVuSans-6c" x="120.458984"/>
      <use xlink:href="#DejaVuSans-69" x="148.242188"/>
      <use xlink:href="#DejaVuSans-64" x="176.025391"/>
      <use xlink:href="#DejaVuSans-61" x="239.501953"/>
      <use xlink:href="#DejaVuSans-74" x="300.78125"/>
      <use xlink:href="#DejaVuSans-69" x="339.990234"/>
      <use xlink:href="#DejaVuSans-6f" x="367.773438"/>
      <use xlink:href="#DejaVuSans-6e" x="428.955078"/>
     </g>
    </g>
   </g>
  </g>
 </g>
 <defs>
  <clipPath id="pa663cc5dd9">
   <rect x="90" y="43.2" width="558" height="277.2"/>
  </clipPath>
 </defs>
</svg>
