<?xml version="1.0" encoding="utf-8" standalone="no"?>
<!DOCTYPE svg PUBLIC "-//W3C//DTD SVG 1.1//EN"
  "http://www.w3.org/Graphics/SVG/1.1/DTD/svg11.dtd">
<svg xmlns:xlink="http://www.w3.org/1999/xlink" width="720pt" height="360pt" viewBox="0 0 720 360" xmlns="http://www.w3.org/2000/svg" version="1.1">
 <metadata>
  <rdf:RDF xmlns:dc="http://purl.org/dc/elements/1.1/" xmlns:cc="http://creativecommons.org/ns#" xmlns:rdf="http://www.w3.org/1999/02/22-rdf-syntax-ns#">
   <cc:Work>
    <dc:type rdf:resource="http://purl.org/dc/dcmitype/StillImage"/>
    <dc:date>2023-05-24T11:32:52.064947</dc:date>
    <dc:format>image/svg+xml</dc:format>
    <dc:creator>
     <cc:Agent>
      <dc:title>Matplotlib v3.7.1, https://matplotlib.org/</dc:title>
     </cc:Agent>
    </dc:creator>
   </cc:Work>
  </rdf:RDF>
 </metadata>
 <defs>
  <style type="text/css">*{stroke-linejoin: round; stroke-linecap: butt}</style>
 </defs>
 <g id="figure_1">
  <g id="patch_1">
   <path d="M 0 360 
L 720 360 
L 720 0 
L 0 0 
z
" style="fill: #ffffff"/>
  </g>
  <g id="axes_1">
   <g id="patch_2">
    <path d="M 90 320.4 
L 648 320.4 
L 648 43.2 
L 90 43.2 
z
" style="fill: #ffffff"/>
   </g>
   <g id="matplotlib.axis_1">
    <g id="xtick_1">
     <g id="line2d_1">
      <path d="M 115.363636 320.4 
L 115.363636 43.2 
" clip-path="url(#p091a42f555)" style="fill: none; stroke: #b0b0b0; stroke-width: 0.8; stroke-linecap: square"/>
     </g>
     <g id="line2d_2">
      <defs>
       <path id="m6c8a2be61c" d="M 0 0 
L 0 3.5 
" style="stroke: #000000; stroke-width: 0.8"/>
      </defs>
      <g>
       <use xlink:href="#m6c8a2be61c" x="115.363636" y="320.4" style="stroke: #000000; stroke-width: 0.8"/>
      </g>
     </g>
     <g id="text_1">
      <!-- 0 -->
      <g transform="translate(112.182386 334.998438) scale(0.1 -0.1)">
       <defs>
        <path id="DejaVuSans-30" d="M 2034 4250 
Q 1547 4250 1301 3770 
Q 1056 3291 1056 2328 
Q 1056 1369 1301 889 
Q 1547 409 2034 409 
Q 2525 409 2770 889 
Q 3016 1369 3016 2328 
Q 3016 3291 2770 3770 
Q 2525 4250 2034 4250 
z
M 2034 4750 
Q 2819 4750 3233 4129 
Q 3647 3509 3647 2328 
Q 3647 1150 3233 529 
Q 2819 -91 2034 -91 
Q 1250 -91 836 529 
Q 422 1150 422 2328 
Q 422 3509 836 4129 
Q 1250 4750 2034 4750 
z
" transform="scale(0.015625)"/>
       </defs>
       <use xlink:href="#DejaVuSans-30"/>
      </g>
     </g>
    </g>
    <g id="xtick_2">
     <g id="line2d_3">
      <path d="M 217.021498 320.4 
L 217.021498 43.2 
" clip-path="url(#p091a42f555)" style="fill: none; stroke: #b0b0b0; stroke-width: 0.8; stroke-linecap: square"/>
     </g>
     <g id="line2d_4">
      <g>
       <use xlink:href="#m6c8a2be61c" x="217.021498" y="320.4" style="stroke: #000000; stroke-width: 0.8"/>
      </g>
     </g>
     <g id="text_2">
      <!-- 100 -->
      <g transform="translate(207.477748 334.998438) scale(0.1 -0.1)">
       <defs>
        <path id="DejaVuSans-31" d="M 794 531 
L 1825 531 
L 1825 4091 
L 703 3866 
L 703 4441 
L 1819 4666 
L 2450 4666 
L 2450 531 
L 3481 531 
L 3481 0 
L 794 0 
L 794 531 
z
" transform="scale(0.015625)"/>
       </defs>
       <use xlink:href="#DejaVuSans-31"/>
       <use xlink:href="#DejaVuSans-30" x="63.623047"/>
       <use xlink:href="#DejaVuSans-30" x="127.246094"/>
      </g>
     </g>
    </g>
    <g id="xtick_3">
     <g id="line2d_5">
      <path d="M 318.679359 320.4 
L 318.679359 43.2 
" clip-path="url(#p091a42f555)" style="fill: none; stroke: #b0b0b0; stroke-width: 0.8; stroke-linecap: square"/>
     </g>
     <g id="line2d_6">
      <g>
       <use xlink:href="#m6c8a2be61c" x="318.679359" y="320.4" style="stroke: #000000; stroke-width: 0.8"/>
      </g>
     </g>
     <g id="text_3">
      <!-- 200 -->
      <g transform="translate(309.135609 334.998438) scale(0.1 -0.1)">
       <defs>
        <path id="DejaVuSans-32" d="M 1228 531 
L 3431 531 
L 3431 0 
L 469 0 
L 469 531 
Q 828 903 1448 1529 
Q 2069 2156 2228 2338 
Q 2531 2678 2651 2914 
Q 2772 3150 2772 3378 
Q 2772 3750 2511 3984 
Q 2250 4219 1831 4219 
Q 1534 4219 1204 4116 
Q 875 4013 500 3803 
L 500 4441 
Q 881 4594 1212 4672 
Q 1544 4750 1819 4750 
Q 2544 4750 2975 4387 
Q 3406 4025 3406 3419 
Q 3406 3131 3298 2873 
Q 3191 2616 2906 2266 
Q 2828 2175 2409 1742 
Q 1991 1309 1228 531 
z
" transform="scale(0.015625)"/>
       </defs>
       <use xlink:href="#DejaVuSans-32"/>
       <use xlink:href="#DejaVuSans-30" x="63.623047"/>
       <use xlink:href="#DejaVuSans-30" x="127.246094"/>
      </g>
     </g>
    </g>
    <g id="xtick_4">
     <g id="line2d_7">
      <path d="M 420.33722 320.4 
L 420.33722 43.2 
" clip-path="url(#p091a42f555)" style="fill: none; stroke: #b0b0b0; stroke-width: 0.8; stroke-linecap: square"/>
     </g>
     <g id="line2d_8">
      <g>
       <use xlink:href="#m6c8a2be61c" x="420.33722" y="320.4" style="stroke: #000000; stroke-width: 0.8"/>
      </g>
     </g>
     <g id="text_4">
      <!-- 300 -->
      <g transform="translate(410.79347 334.998438) scale(0.1 -0.1)">
       <defs>
        <path id="DejaVuSans-33" d="M 2597 2516 
Q 3050 2419 3304 2112 
Q 3559 1806 3559 1356 
Q 3559 666 3084 287 
Q 2609 -91 1734 -91 
Q 1441 -91 1130 -33 
Q 819 25 488 141 
L 488 750 
Q 750 597 1062 519 
Q 1375 441 1716 441 
Q 2309 441 2620 675 
Q 2931 909 2931 1356 
Q 2931 1769 2642 2001 
Q 2353 2234 1838 2234 
L 1294 2234 
L 1294 2753 
L 1863 2753 
Q 2328 2753 2575 2939 
Q 2822 3125 2822 3475 
Q 2822 3834 2567 4026 
Q 2313 4219 1838 4219 
Q 1578 4219 1281 4162 
Q 984 4106 628 3988 
L 628 4550 
Q 988 4650 1302 4700 
Q 1616 4750 1894 4750 
Q 2613 4750 3031 4423 
Q 3450 4097 3450 3541 
Q 3450 3153 3228 2886 
Q 3006 2619 2597 2516 
z
" transform="scale(0.015625)"/>
       </defs>
       <use xlink:href="#DejaVuSans-33"/>
       <use xlink:href="#DejaVuSans-30" x="63.623047"/>
       <use xlink:href="#DejaVuSans-30" x="127.246094"/>
      </g>
     </g>
    </g>
    <g id="xtick_5">
     <g id="line2d_9">
      <path d="M 521.995081 320.4 
L 521.995081 43.2 
" clip-path="url(#p091a42f555)" style="fill: none; stroke: #b0b0b0; stroke-width: 0.8; stroke-linecap: square"/>
     </g>
     <g id="line2d_10">
      <g>
       <use xlink:href="#m6c8a2be61c" x="521.995081" y="320.4" style="stroke: #000000; stroke-width: 0.8"/>
      </g>
     </g>
     <g id="text_5">
      <!-- 400 -->
      <g transform="translate(512.451331 334.998438) scale(0.1 -0.1)">
       <defs>
        <path id="DejaVuSans-34" d="M 2419 4116 
L 825 1625 
L 2419 1625 
L 2419 4116 
z
M 2253 4666 
L 3047 4666 
L 3047 1625 
L 3713 1625 
L 3713 1100 
L 3047 1100 
L 3047 0 
L 2419 0 
L 2419 1100 
L 313 1100 
L 313 1709 
L 2253 4666 
z
" transform="scale(0.015625)"/>
       </defs>
       <use xlink:href="#DejaVuSans-34"/>
       <use xlink:href="#DejaVuSans-30" x="63.623047"/>
       <use xlink:href="#DejaVuSans-30" x="127.246094"/>
      </g>
     </g>
    </g>
    <g id="xtick_6">
     <g id="line2d_11">
      <path d="M 623.652942 320.4 
L 623.652942 43.2 
" clip-path="url(#p091a42f555)" style="fill: none; stroke: #b0b0b0; stroke-width: 0.8; stroke-linecap: square"/>
     </g>
     <g id="line2d_12">
      <g>
       <use xlink:href="#m6c8a2be61c" x="623.652942" y="320.4" style="stroke: #000000; stroke-width: 0.8"/>
      </g>
     </g>
     <g id="text_6">
      <!-- 500 -->
      <g transform="translate(614.109192 334.998438) scale(0.1 -0.1)">
       <defs>
        <path id="DejaVuSans-35" d="M 691 4666 
L 3169 4666 
L 3169 4134 
L 1269 4134 
L 1269 2991 
Q 1406 3038 1543 3061 
Q 1681 3084 1819 3084 
Q 2600 3084 3056 2656 
Q 3513 2228 3513 1497 
Q 3513 744 3044 326 
Q 2575 -91 1722 -91 
Q 1428 -91 1123 -41 
Q 819 9 494 109 
L 494 744 
Q 775 591 1075 516 
Q 1375 441 1709 441 
Q 2250 441 2565 725 
Q 2881 1009 2881 1497 
Q 2881 1984 2565 2268 
Q 2250 2553 1709 2553 
Q 1456 2553 1204 2497 
Q 953 2441 691 2322 
L 691 4666 
z
" transform="scale(0.015625)"/>
       </defs>
       <use xlink:href="#DejaVuSans-35"/>
       <use xlink:href="#DejaVuSans-30" x="63.623047"/>
       <use xlink:href="#DejaVuSans-30" x="127.246094"/>
      </g>
     </g>
    </g>
    <g id="text_7">
     <!-- epoch -->
     <g transform="translate(353.771875 348.676562) scale(0.1 -0.1)">
      <defs>
       <path id="DejaVuSans-65" d="M 3597 1894 
L 3597 1613 
L 953 1613 
Q 991 1019 1311 708 
Q 1631 397 2203 397 
Q 2534 397 2845 478 
Q 3156 559 3463 722 
L 3463 178 
Q 3153 47 2828 -22 
Q 2503 -91 2169 -91 
Q 1331 -91 842 396 
Q 353 884 353 1716 
Q 353 2575 817 3079 
Q 1281 3584 2069 3584 
Q 2775 3584 3186 3129 
Q 3597 2675 3597 1894 
z
M 3022 2063 
Q 3016 2534 2758 2815 
Q 2500 3097 2075 3097 
Q 1594 3097 1305 2825 
Q 1016 2553 972 2059 
L 3022 2063 
z
" transform="scale(0.015625)"/>
       <path id="DejaVuSans-70" d="M 1159 525 
L 1159 -1331 
L 581 -1331 
L 581 3500 
L 1159 3500 
L 1159 2969 
Q 1341 3281 1617 3432 
Q 1894 3584 2278 3584 
Q 2916 3584 3314 3078 
Q 3713 2572 3713 1747 
Q 3713 922 3314 415 
Q 2916 -91 2278 -91 
Q 1894 -91 1617 61 
Q 1341 213 1159 525 
z
M 3116 1747 
Q 3116 2381 2855 2742 
Q 2594 3103 2138 3103 
Q 1681 3103 1420 2742 
Q 1159 2381 1159 1747 
Q 1159 1113 1420 752 
Q 1681 391 2138 391 
Q 2594 391 2855 752 
Q 3116 1113 3116 1747 
z
" transform="scale(0.015625)"/>
       <path id="DejaVuSans-6f" d="M 1959 3097 
Q 1497 3097 1228 2736 
Q 959 2375 959 1747 
Q 959 1119 1226 758 
Q 1494 397 1959 397 
Q 2419 397 2687 759 
Q 2956 1122 2956 1747 
Q 2956 2369 2687 2733 
Q 2419 3097 1959 3097 
z
M 1959 3584 
Q 2709 3584 3137 3096 
Q 3566 2609 3566 1747 
Q 3566 888 3137 398 
Q 2709 -91 1959 -91 
Q 1206 -91 779 398 
Q 353 888 353 1747 
Q 353 2609 779 3096 
Q 1206 3584 1959 3584 
z
" transform="scale(0.015625)"/>
       <path id="DejaVuSans-63" d="M 3122 3366 
L 3122 2828 
Q 2878 2963 2633 3030 
Q 2388 3097 2138 3097 
Q 1578 3097 1268 2742 
Q 959 2388 959 1747 
Q 959 1106 1268 751 
Q 1578 397 2138 397 
Q 2388 397 2633 464 
Q 2878 531 3122 666 
L 3122 134 
Q 2881 22 2623 -34 
Q 2366 -91 2075 -91 
Q 1284 -91 818 406 
Q 353 903 353 1747 
Q 353 2603 823 3093 
Q 1294 3584 2113 3584 
Q 2378 3584 2631 3529 
Q 2884 3475 3122 3366 
z
" transform="scale(0.015625)"/>
       <path id="DejaVuSans-68" d="M 3513 2113 
L 3513 0 
L 2938 0 
L 2938 2094 
Q 2938 2591 2744 2837 
Q 2550 3084 2163 3084 
Q 1697 3084 1428 2787 
Q 1159 2491 1159 1978 
L 1159 0 
L 581 0 
L 581 4863 
L 1159 4863 
L 1159 2956 
Q 1366 3272 1645 3428 
Q 1925 3584 2291 3584 
Q 2894 3584 3203 3211 
Q 3513 2838 3513 2113 
z
" transform="scale(0.015625)"/>
      </defs>
      <use xlink:href="#DejaVuSans-65"/>
      <use xlink:href="#DejaVuSans-70" x="61.523438"/>
      <use xlink:href="#DejaVuSans-6f" x="125"/>
      <use xlink:href="#DejaVuSans-63" x="186.181641"/>
      <use xlink:href="#DejaVuSans-68" x="241.162109"/>
     </g>
    </g>
   </g>
   <g id="matplotlib.axis_2">
    <g id="ytick_1">
     <g id="line2d_13">
      <path d="M 90 299.548144 
L 648 299.548144 
" clip-path="url(#p091a42f555)" style="fill: none; stroke: #b0b0b0; stroke-width: 0.8; stroke-linecap: square"/>
     </g>
     <g id="line2d_14">
      <defs>
       <path id="m71edbd8b60" d="M 0 0 
L -3.5 0 
" style="stroke: #000000; stroke-width: 0.8"/>
      </defs>
      <g>
       <use xlink:href="#m71edbd8b60" x="90" y="299.548144" style="stroke: #000000; stroke-width: 0.8"/>
      </g>
     </g>
     <g id="text_8">
      <!-- 1.380 -->
      <g transform="translate(54.371875 303.347363) scale(0.1 -0.1)">
       <defs>
        <path id="DejaVuSans-2e" d="M 684 794 
L 1344 794 
L 1344 0 
L 684 0 
L 684 794 
z
" transform="scale(0.015625)"/>
        <path id="DejaVuSans-38" d="M 2034 2216 
Q 1584 2216 1326 1975 
Q 1069 1734 1069 1313 
Q 1069 891 1326 650 
Q 1584 409 2034 409 
Q 2484 409 2743 651 
Q 3003 894 3003 1313 
Q 3003 1734 2745 1975 
Q 2488 2216 2034 2216 
z
M 1403 2484 
Q 997 2584 770 2862 
Q 544 3141 544 3541 
Q 544 4100 942 4425 
Q 1341 4750 2034 4750 
Q 2731 4750 3128 4425 
Q 3525 4100 3525 3541 
Q 3525 3141 3298 2862 
Q 3072 2584 2669 2484 
Q 3125 2378 3379 2068 
Q 3634 1759 3634 1313 
Q 3634 634 3220 271 
Q 2806 -91 2034 -91 
Q 1263 -91 848 271 
Q 434 634 434 1313 
Q 434 1759 690 2068 
Q 947 2378 1403 2484 
z
M 1172 3481 
Q 1172 3119 1398 2916 
Q 1625 2713 2034 2713 
Q 2441 2713 2670 2916 
Q 2900 3119 2900 3481 
Q 2900 3844 2670 4047 
Q 2441 4250 2034 4250 
Q 1625 4250 1398 4047 
Q 1172 3844 1172 3481 
z
" transform="scale(0.015625)"/>
       </defs>
       <use xlink:href="#DejaVuSans-31"/>
       <use xlink:href="#DejaVuSans-2e" x="63.623047"/>
       <use xlink:href="#DejaVuSans-33" x="95.410156"/>
       <use xlink:href="#DejaVuSans-38" x="159.033203"/>
       <use xlink:href="#DejaVuSans-30" x="222.65625"/>
      </g>
     </g>
    </g>
    <g id="ytick_2">
     <g id="line2d_15">
      <path d="M 90 239.198446 
L 648 239.198446 
" clip-path="url(#p091a42f555)" style="fill: none; stroke: #b0b0b0; stroke-width: 0.8; stroke-linecap: square"/>
     </g>
     <g id="line2d_16">
      <g>
       <use xlink:href="#m71edbd8b60" x="90" y="239.198446" style="stroke: #000000; stroke-width: 0.8"/>
      </g>
     </g>
     <g id="text_9">
      <!-- 1.385 -->
      <g transform="translate(54.371875 242.997665) scale(0.1 -0.1)">
       <use xlink:href="#DejaVuSans-31"/>
       <use xlink:href="#DejaVuSans-2e" x="63.623047"/>
       <use xlink:href="#DejaVuSans-33" x="95.410156"/>
       <use xlink:href="#DejaVuSans-38" x="159.033203"/>
       <use xlink:href="#DejaVuSans-35" x="222.65625"/>
      </g>
     </g>
    </g>
    <g id="ytick_3">
     <g id="line2d_17">
      <path d="M 90 178.848748 
L 648 178.848748 
" clip-path="url(#p091a42f555)" style="fill: none; stroke: #b0b0b0; stroke-width: 0.8; stroke-linecap: square"/>
     </g>
     <g id="line2d_18">
      <g>
       <use xlink:href="#m71edbd8b60" x="90" y="178.848748" style="stroke: #000000; stroke-width: 0.8"/>
      </g>
     </g>
     <g id="text_10">
      <!-- 1.390 -->
      <g transform="translate(54.371875 182.647967) scale(0.1 -0.1)">
       <defs>
        <path id="DejaVuSans-39" d="M 703 97 
L 703 672 
Q 941 559 1184 500 
Q 1428 441 1663 441 
Q 2288 441 2617 861 
Q 2947 1281 2994 2138 
Q 2813 1869 2534 1725 
Q 2256 1581 1919 1581 
Q 1219 1581 811 2004 
Q 403 2428 403 3163 
Q 403 3881 828 4315 
Q 1253 4750 1959 4750 
Q 2769 4750 3195 4129 
Q 3622 3509 3622 2328 
Q 3622 1225 3098 567 
Q 2575 -91 1691 -91 
Q 1453 -91 1209 -44 
Q 966 3 703 97 
z
M 1959 2075 
Q 2384 2075 2632 2365 
Q 2881 2656 2881 3163 
Q 2881 3666 2632 3958 
Q 2384 4250 1959 4250 
Q 1534 4250 1286 3958 
Q 1038 3666 1038 3163 
Q 1038 2656 1286 2365 
Q 1534 2075 1959 2075 
z
" transform="scale(0.015625)"/>
       </defs>
       <use xlink:href="#DejaVuSans-31"/>
       <use xlink:href="#DejaVuSans-2e" x="63.623047"/>
       <use xlink:href="#DejaVuSans-33" x="95.410156"/>
       <use xlink:href="#DejaVuSans-39" x="159.033203"/>
       <use xlink:href="#DejaVuSans-30" x="222.65625"/>
      </g>
     </g>
    </g>
    <g id="ytick_4">
     <g id="line2d_19">
      <path d="M 90 118.49905 
L 648 118.49905 
" clip-path="url(#p091a42f555)" style="fill: none; stroke: #b0b0b0; stroke-width: 0.8; stroke-linecap: square"/>
     </g>
     <g id="line2d_20">
      <g>
       <use xlink:href="#m71edbd8b60" x="90" y="118.49905" style="stroke: #000000; stroke-width: 0.8"/>
      </g>
     </g>
     <g id="text_11">
      <!-- 1.395 -->
      <g transform="translate(54.371875 122.298269) scale(0.1 -0.1)">
       <use xlink:href="#DejaVuSans-31"/>
       <use xlink:href="#DejaVuSans-2e" x="63.623047"/>
       <use xlink:href="#DejaVuSans-33" x="95.410156"/>
       <use xlink:href="#DejaVuSans-39" x="159.033203"/>
       <use xlink:href="#DejaVuSans-35" x="222.65625"/>
      </g>
     </g>
    </g>
    <g id="ytick_5">
     <g id="line2d_21">
      <path d="M 90 58.149353 
L 648 58.149353 
" clip-path="url(#p091a42f555)" style="fill: none; stroke: #b0b0b0; stroke-width: 0.8; stroke-linecap: square"/>
     </g>
     <g id="line2d_22">
      <g>
       <use xlink:href="#m71edbd8b60" x="90" y="58.149353" style="stroke: #000000; stroke-width: 0.8"/>
      </g>
     </g>
     <g id="text_12">
      <!-- 1.400 -->
      <g transform="translate(54.371875 61.948571) scale(0.1 -0.1)">
       <use xlink:href="#DejaVuSans-31"/>
       <use xlink:href="#DejaVuSans-2e" x="63.623047"/>
       <use xlink:href="#DejaVuSans-34" x="95.410156"/>
       <use xlink:href="#DejaVuSans-30" x="159.033203"/>
       <use xlink:href="#DejaVuSans-30" x="222.65625"/>
      </g>
     </g>
    </g>
    <g id="text_13">
     <!-- loss -->
     <g transform="translate(48.292188 191.457812) rotate(-90) scale(0.1 -0.1)">
      <defs>
       <path id="DejaVuSans-6c" d="M 603 4863 
L 1178 4863 
L 1178 0 
L 603 0 
L 603 4863 
z
" transform="scale(0.015625)"/>
       <path id="DejaVuSans-73" d="M 2834 3397 
L 2834 2853 
Q 2591 2978 2328 3040 
Q 2066 3103 1784 3103 
Q 1356 3103 1142 2972 
Q 928 2841 928 2578 
Q 928 2378 1081 2264 
Q 1234 2150 1697 2047 
L 1894 2003 
Q 2506 1872 2764 1633 
Q 3022 1394 3022 966 
Q 3022 478 2636 193 
Q 2250 -91 1575 -91 
Q 1294 -91 989 -36 
Q 684 19 347 128 
L 347 722 
Q 666 556 975 473 
Q 1284 391 1588 391 
Q 1994 391 2212 530 
Q 2431 669 2431 922 
Q 2431 1156 2273 1281 
Q 2116 1406 1581 1522 
L 1381 1569 
Q 847 1681 609 1914 
Q 372 2147 372 2553 
Q 372 3047 722 3315 
Q 1072 3584 1716 3584 
Q 2034 3584 2315 3537 
Q 2597 3491 2834 3397 
z
" transform="scale(0.015625)"/>
      </defs>
      <use xlink:href="#DejaVuSans-6c"/>
      <use xlink:href="#DejaVuSans-6f" x="27.783203"/>
      <use xlink:href="#DejaVuSans-73" x="88.964844"/>
      <use xlink:href="#DejaVuSans-73" x="141.064453"/>
     </g>
    </g>
   </g>
   <g id="line2d_23">
    <path d="M 115.363636 196.941007 
L 116.380215 225.503597 
L 117.396794 238.345324 
L 118.413372 186.404317 
L 119.429951 157.794245 
L 120.446529 205.715108 
L 121.463108 212.988489 
L 122.479687 178.282014 
L 123.496265 210.717986 
L 124.512844 238.366906 
L 125.529422 156.926619 
L 126.546001 257.979856 
L 127.56258 225.192806 
L 128.579158 204.961151 
L 129.595737 188.76259 
L 130.612316 188.929496 
L 131.628894 212.591367 
L 132.645473 192.945324 
L 133.662051 165.034532 
L 134.67863 243.388489 
L 135.695209 232.117986 
L 136.711787 167.093525 
L 137.728366 180.972662 
L 138.744944 132.503597 
L 139.761523 198.54964 
L 140.778102 167.830216 
L 141.79468 154.353957 
L 142.811259 188.210072 
L 143.827837 162.882014 
L 144.844416 163.976978 
L 145.860995 212.572662 
L 146.877573 250.240288 
L 147.894152 180.530935 
L 148.910731 146.45036 
L 149.927309 100.153957 
L 150.943888 176.889209 
L 151.960466 189.585612 
L 152.977045 215.260432 
L 153.993624 262.133813 
L 155.010202 226.004317 
L 156.026781 148.461871 
L 157.043359 135.884892 
L 158.059938 156.72518 
L 159.076517 174.834532 
L 160.093095 173.932374 
L 161.109674 217.578417 
L 162.126253 174.913669 
L 163.142831 170.116547 
L 164.15941 240.146763 
L 165.175988 187.966906 
L 166.192567 113.397122 
L 167.209146 225.982734 
L 168.225724 202.643165 
L 169.242303 151.933813 
L 170.258881 207.988489 
L 171.27546 244.729496 
L 172.292039 204.411511 
L 173.308617 135.536691 
L 174.325196 211.100719 
L 175.341774 167.244604 
L 176.358353 170.588489 
L 177.374932 122.300719 
L 178.39151 113.827338 
L 179.408089 229.861871 
L 180.424668 256.191367 
L 182.457825 182.448921 
L 183.474403 206.63741 
L 184.490982 208.658993 
L 185.507561 185.838849 
L 186.524139 145.798561 
L 187.540718 224.843165 
L 188.557296 108.63741 
L 189.573875 225.823022 
L 190.590454 212.646043 
L 191.607032 183.238849 
L 192.623611 113.290647 
L 193.640189 168.371223 
L 194.656768 116.730935 
L 196.689925 183.084892 
L 197.706504 195.509353 
L 198.723083 184.317986 
L 199.739661 168.52518 
L 200.75624 180.591367 
L 201.772818 138.283453 
L 202.789397 259.202878 
L 203.805976 208.001439 
L 204.822554 147.631655 
L 205.839133 63.233094 
L 206.855711 132.017266 
L 207.87229 214.063309 
L 208.888869 225.576978 
L 209.905447 144.899281 
L 210.922026 151.968345 
L 211.938604 181.071942 
L 212.955183 233.463309 
L 213.971762 176.879137 
L 214.98834 164.030216 
L 216.004919 219.32518 
L 217.021498 222.372662 
L 218.038076 68.866187 
L 219.054655 207.228777 
L 220.071233 204.174101 
L 221.087812 108.541007 
L 222.104391 210.703597 
L 223.120969 173.870504 
L 224.137548 268.748201 
L 225.154126 184.63741 
L 226.170705 127.994245 
L 227.187284 160.164029 
L 228.203862 138.345324 
L 229.220441 187.204317 
L 230.237019 167.351079 
L 231.253598 204.18705 
L 232.270177 186.431655 
L 233.286755 141.584173 
L 234.303334 214.729496 
L 235.319913 260.414388 
L 236.336491 170.814388 
L 237.35307 223.676259 
L 238.369648 238.446043 
L 239.386227 190.841727 
L 240.402806 204.640288 
L 241.419384 250.223022 
L 244.46912 129.536691 
L 245.485699 246.392806 
L 246.502277 230.471942 
L 247.518856 135.823022 
L 248.535435 196.597122 
L 250.568592 262.096403 
L 251.58517 172.01295 
L 252.601749 231.404317 
L 253.618328 210.410072 
L 254.634906 252.502158 
L 255.651485 216.107914 
L 256.668063 218.345324 
L 257.684642 182.594245 
L 258.701221 221.218705 
L 259.717799 235.480576 
L 260.734378 106.6 
L 261.750956 219.611511 
L 262.767535 211.083453 
L 263.784114 239.231655 
L 264.800692 70.915108 
L 265.817271 166.611511 
L 266.83385 157.982734 
L 267.850428 158.227338 
L 268.867007 202.502158 
L 269.883585 233.72518 
L 270.900164 177.484892 
L 271.916743 184.756835 
L 272.933321 222.807194 
L 273.9499 164.483453 
L 274.966478 254.090647 
L 275.983057 180.857554 
L 276.999636 193.794245 
L 278.016214 190.307914 
L 279.032793 142.574101 
L 280.049371 119.653237 
L 281.06595 220.248921 
L 282.082529 218.730935 
L 283.099107 165.574101 
L 284.115686 212.143885 
L 285.132265 204.243165 
L 286.148843 151.446043 
L 287.165422 165.661871 
L 288.182 198.585612 
L 289.198579 166.480576 
L 290.215158 250.283453 
L 291.231736 201.292086 
L 292.248315 282.253237 
L 293.264893 180.71223 
L 294.281472 133.651799 
L 295.298051 200.752518 
L 296.314629 187.979856 
L 297.331208 223.764029 
L 298.347786 139.900719 
L 299.364365 206.690647 
L 300.380944 241.307914 
L 301.397522 204.041727 
L 302.414101 230.353957 
L 303.43068 196.833094 
L 304.447258 225.915108 
L 305.463837 142.014388 
L 306.480415 223.178417 
L 307.496994 146.158273 
L 308.513573 161.848921 
L 309.530151 126.100719 
L 310.54673 138.883453 
L 311.563308 240.946763 
L 312.579887 225.848921 
L 313.596466 205.339568 
L 314.613044 233.539568 
L 315.629623 164.2 
L 316.646201 169.713669 
L 317.66278 258.902158 
L 318.679359 159.617266 
L 319.695937 223.870504 
L 320.712516 197.828777 
L 321.729095 203.82446 
L 322.745673 211.866187 
L 323.762252 275.810072 
L 324.77883 262.2 
L 325.795409 169.38705 
L 326.811988 150.161151 
L 327.828566 162.972662 
L 328.845145 137.948201 
L 329.861723 230.192806 
L 330.878302 182.768345 
L 331.894881 188.21295 
L 332.911459 179.402878 
L 333.928038 159.133813 
L 334.944617 250.42446 
L 335.961195 204.14964 
L 336.977774 224.492086 
L 337.994352 189.251799 
L 339.010931 159.188489 
L 340.02751 159.188489 
L 341.044088 225.794245 
L 342.060667 229.270504 
L 343.077245 193.889209 
L 344.093824 201.646043 
L 345.110403 160.522302 
L 346.126981 138.394245 
L 347.14356 203.690647 
L 348.160138 218.588489 
L 349.176717 235.502158 
L 350.193296 236.781295 
L 351.209874 216.666187 
L 352.226453 119.046043 
L 353.243032 204.923741 
L 354.25961 162.530935 
L 355.276189 203.680576 
L 357.309346 233.625899 
L 358.325925 161.981295 
L 359.342503 200.789928 
L 360.359082 221.820144 
L 361.37566 165.720863 
L 362.392239 197.72518 
L 363.408818 239.374101 
L 364.425396 136.995683 
L 365.441975 205.713669 
L 366.458553 213.657554 
L 367.475132 183.974101 
L 368.491711 203.959712 
L 369.508289 191.159712 
L 370.524868 161.905036 
L 371.541447 174.451799 
L 372.558025 148.001439 
L 373.574604 176.897842 
L 374.591182 156.804317 
L 375.607761 169.722302 
L 376.62434 179.033094 
L 378.657497 231.628777 
L 379.674075 208.133813 
L 380.690654 163.902158 
L 381.707233 168.805755 
L 382.723811 198.080576 
L 383.74039 186.433094 
L 384.756968 178.27482 
L 385.773547 196.358273 
L 386.790126 129.060432 
L 387.806704 183.784173 
L 388.823283 145.697842 
L 389.839862 199.146763 
L 390.85644 243.185612 
L 391.873019 178.651799 
L 392.889597 173.305036 
L 393.906176 181.256115 
L 394.922755 152.398561 
L 395.939333 202.215827 
L 396.955912 239.608633 
L 397.97249 164.677698 
L 398.989069 108.381295 
L 400.005648 245.594245 
L 401.022226 155.145324 
L 402.038805 247.227338 
L 403.055383 227.261871 
L 404.071962 149.17554 
L 405.088541 254.857554 
L 406.105119 181.671942 
L 407.121698 150.179856 
L 408.138277 107.978417 
L 409.154855 189.191367 
L 410.171434 185.732374 
L 411.188012 198.716547 
L 412.204591 55.8 
L 413.22117 154.486331 
L 414.237748 161.776978 
L 415.254327 182.631655 
L 416.270905 189.092086 
L 417.287484 237.463309 
L 418.304063 216.680576 
L 419.320641 176.148201 
L 420.33722 208.505036 
L 421.353799 223.41295 
L 422.370377 221.155396 
L 423.386956 198.335252 
L 424.403534 207.707914 
L 425.420113 111.788489 
L 426.436692 233.677698 
L 427.45327 180.700719 
L 428.469849 165.276259 
L 429.486427 184.683453 
L 430.503006 168.204317 
L 431.519585 196.385612 
L 432.536163 206.028777 
L 433.552742 188.328058 
L 434.56932 247.83741 
L 435.585899 137.625899 
L 436.602478 118.88777 
L 437.619056 181.543885 
L 438.635635 191.067626 
L 439.652214 171.368345 
L 440.668792 235.106475 
L 441.685371 239.528058 
L 442.701949 183.692086 
L 443.718528 202.205755 
L 444.735107 227.769784 
L 445.751685 220.358273 
L 446.768264 149.007194 
L 448.801421 211.846043 
L 449.818 207.126619 
L 450.834578 192.971223 
L 451.851157 211.843165 
L 452.867735 181.625899 
L 453.884314 188.517986 
L 454.900893 131.32518 
L 455.917471 111.856115 
L 456.93405 226.68777 
L 457.950629 191.371223 
L 458.967207 166.946763 
L 459.983786 228.798561 
L 461.000364 196.677698 
L 462.016943 189.251799 
L 463.033522 215.565468 
L 464.0501 232.299281 
L 465.066679 218.615827 
L 466.083257 153.45036 
L 467.099836 203.74964 
L 468.116415 165.57554 
L 469.132993 178.38705 
L 470.149572 115.677698 
L 471.16615 215.480576 
L 472.182729 128.774101 
L 473.199308 252.057554 
L 474.215886 208.428777 
L 475.232465 171.943885 
L 476.249044 160.057554 
L 477.265622 254.372662 
L 479.298779 174.810072 
L 480.315358 223.633094 
L 481.331937 207.233094 
L 482.348515 195.100719 
L 483.365094 168.505036 
L 484.381672 152.555396 
L 485.398251 193.460432 
L 486.41483 176.017266 
L 487.431408 229.879137 
L 488.447987 155.894964 
L 489.464565 196.926619 
L 490.481144 217.339568 
L 491.497723 59.207194 
L 492.514301 223.343885 
L 493.53088 198.500719 
L 494.547459 206.722302 
L 495.564037 213.552518 
L 496.580616 225.223022 
L 497.597194 192.745324 
L 498.613773 127.906475 
L 499.630352 130.656115 
L 500.64693 208.57554 
L 501.663509 196.03741 
L 502.680087 174.848921 
L 503.696666 201.595683 
L 504.713245 176.392806 
L 505.729823 203.866187 
L 506.746402 200.870504 
L 507.762981 214.736691 
L 508.779559 197.572662 
L 509.796138 161.319424 
L 510.812716 245.142446 
L 511.829295 182.178417 
L 512.845874 233.739568 
L 513.862452 225.998561 
L 514.879031 173.329496 
L 515.895609 98.094964 
L 516.912188 150.02446 
L 517.928767 107.276259 
L 518.945345 174.867626 
L 519.961924 211.978417 
L 520.978502 153.900719 
L 521.995081 220.610072 
L 523.01166 158.851799 
L 524.028238 149.089209 
L 525.044817 119.238849 
L 526.061396 189.241727 
L 527.077974 188.961151 
L 528.094553 190.228777 
L 529.111131 178.618705 
L 530.12771 219.517986 
L 531.144289 198.093525 
L 532.160867 173.198561 
L 533.177446 170.38705 
L 534.194024 201.361151 
L 535.210603 222.696403 
L 536.227182 223.941007 
L 537.24376 227.710791 
L 539.276917 151.539568 
L 540.293496 165.159712 
L 541.310075 233.811511 
L 542.326653 189.484892 
L 543.343232 207.938129 
L 544.359811 190.720863 
L 545.376389 238.329496 
L 546.392968 190.077698 
L 547.409546 147.467626 
L 548.426125 228.823022 
L 549.442704 136.271942 
L 550.459282 208.02446 
L 551.475861 138.123741 
L 552.492439 233.296403 
L 554.525597 131.976978 
L 555.542175 238.122302 
L 556.558754 195.87482 
L 557.575332 217.335252 
L 558.591911 154.294964 
L 559.60849 154.614388 
L 560.625068 185.992806 
L 561.641647 172.093525 
L 562.658226 190.784173 
L 563.674804 224.208633 
L 564.691383 198.768345 
L 565.707961 166.946763 
L 566.72454 120.326619 
L 567.741119 208.041727 
L 568.757697 186.520863 
L 569.774276 214.105036 
L 570.790854 234.515108 
L 571.807433 185.818705 
L 572.824012 201.391367 
L 573.84059 190.623022 
L 574.857169 157.666187 
L 575.873747 154.844604 
L 576.890326 183.117986 
L 577.906905 236.916547 
L 579.940062 90.253237 
L 581.973219 224.228777 
L 582.989798 214.57554 
L 584.006376 203.435971 
L 585.022955 213.858993 
L 586.039534 206.736691 
L 587.056112 180.027338 
L 588.072691 195.686331 
L 589.089269 182.782734 
L 590.105848 181.463309 
L 591.122427 205.467626 
L 592.139005 210.756835 
L 593.155584 275.660432 
L 594.172163 154.969784 
L 595.188741 131.184173 
L 596.20532 94.225899 
L 597.221898 194.211511 
L 598.238477 173.923741 
L 599.255056 167.981295 
L 600.271634 225.630216 
L 601.288213 229.25036 
L 602.304791 176.633094 
L 603.32137 244.434532 
L 604.337949 195.566906 
L 606.371106 243.164029 
L 607.387684 244.828777 
L 608.404263 235.920863 
L 609.420842 179.034532 
L 610.43742 222.467626 
L 611.453999 163.218705 
L 612.470578 188.159712 
L 613.487156 226.286331 
L 614.503735 107.513669 
L 615.520313 253.366906 
L 616.536892 197.117986 
L 617.553471 172.938129 
L 618.570049 158.83741 
L 619.586628 200.240288 
L 620.603206 213.657554 
L 621.619785 224.230216 
L 622.636364 202.972662 
L 622.636364 202.972662 
" clip-path="url(#p091a42f555)" style="fill: none; stroke: #1f77b4; stroke-width: 1.5; stroke-linecap: square"/>
   </g>
   <g id="line2d_24">
    <path d="M 115.363636 306.982734 
L 118.413372 307.035971 
L 119.429951 307.179856 
L 120.446529 306.909353 
L 124.512844 307.453237 
L 126.546001 307.420144 
L 127.56258 307.660432 
L 129.595737 307.621583 
L 130.612316 307.784173 
L 131.628894 307.673381 
L 138.744944 307.795683 
L 140.778102 307.617266 
L 141.79468 307.633094 
L 143.827837 307.366906 
L 145.860995 307.582734 
L 147.894152 307.738129 
L 148.910731 307.559712 
L 149.927309 307.605755 
L 152.977045 307.31223 
L 157.043359 307.473381 
L 158.059938 307.323741 
L 159.076517 307.323741 
L 160.093095 307.454676 
L 170.258881 307.523741 
L 171.27546 307.225899 
L 172.292039 307.471942 
L 174.325196 307.385612 
L 177.374932 307.482014 
L 179.408089 307.211511 
L 181.441246 307.381295 
L 188.557296 307.240288 
L 192.623611 307.368345 
L 193.640189 307.119424 
L 194.656768 307.182734 
L 195.673347 307.005755 
L 196.689925 307.044604 
L 197.706504 306.886331 
L 198.723083 306.879137 
L 200.75624 306.621583 
L 202.789397 306.539568 
L 203.805976 306.810072 
L 206.855711 306.654676 
L 207.87229 306.483453 
L 208.888869 306.889209 
L 209.905447 306.748201 
L 211.938604 306.820144 
L 212.955183 306.72518 
L 214.98834 306.902158 
L 216.004919 306.713669 
L 223.120969 306.656115 
L 224.137548 306.434532 
L 229.220441 306.506475 
L 230.237019 306.630216 
L 231.253598 306.411511 
L 232.270177 306.376978 
L 233.286755 306.517986 
L 234.303334 306.435971 
L 238.369648 306.710791 
L 239.386227 307.02446 
L 241.419384 306.994245 
L 244.46912 307.090647 
L 247.518856 307.044604 
L 248.535435 306.915108 
L 250.568592 307.02446 
L 251.58517 307.223022 
L 252.601749 307.27482 
L 253.618328 307.16259 
L 254.634906 307.309353 
L 255.651485 307.148201 
L 257.684642 307.374101 
L 258.701221 307.22446 
L 259.717799 307.368345 
L 262.767535 307.277698 
L 263.784114 307.404317 
L 264.800692 307.299281 
L 267.850428 307.299281 
L 268.867007 307.156835 
L 269.883585 307.253237 
L 271.916743 307.205755 
L 272.933321 307.374101 
L 274.966478 307.271942 
L 275.983057 307.378417 
L 278.016214 307.415827 
L 279.032793 307.574101 
L 281.06595 307.484892 
L 283.099107 307.579856 
L 284.115686 307.414388 
L 285.132265 307.505036 
L 289.198579 307.194245 
L 290.215158 307.328058 
L 292.248315 307.389928 
L 293.264893 307.522302 
L 295.298051 307.332374 
L 296.314629 307.458993 
L 297.331208 307.41295 
L 298.347786 307.523741 
L 300.380944 307.489209 
L 301.397522 307.715108 
L 304.447258 307.493525 
L 307.496994 307.692086 
L 310.54673 307.364029 
L 311.563308 307.133813 
L 314.613044 306.994245 
L 315.629623 307.161151 
L 316.646201 306.936691 
L 317.66278 307.01295 
L 318.679359 307.263309 
L 319.695937 307.335252 
L 321.729095 307.058993 
L 325.795409 307.448921 
L 326.811988 307.286331 
L 327.828566 307.482014 
L 329.861723 307.535252 
L 330.878302 307.323741 
L 333.928038 307.218705 
L 334.944617 307.133813 
L 337.994352 307.430216 
L 341.044088 307.458993 
L 342.060667 307.243165 
L 343.077245 307.384173 
L 345.110403 307.36259 
L 346.126981 307.425899 
L 348.160138 307.231655 
L 352.226453 307.374101 
L 355.276189 307.056115 
L 356.292767 307.110791 
L 357.309346 306.952518 
L 358.325925 307.176978 
L 361.37566 306.91223 
L 363.408818 307.028777 
L 364.425396 307.041727 
L 366.458553 306.844604 
L 367.475132 306.920863 
L 368.491711 306.863309 
L 369.508289 306.938129 
L 370.524868 306.774101 
L 372.558025 306.838849 
L 373.574604 306.929496 
L 374.591182 306.808633 
L 375.607761 307.017266 
L 377.640918 306.768345 
L 378.657497 306.782734 
L 379.674075 306.913669 
L 380.690654 306.758273 
L 381.707233 306.729496 
L 382.723811 306.873381 
L 388.823283 306.909353 
L 389.839862 307.018705 
L 390.85644 306.866187 
L 392.889597 306.953957 
L 393.906176 306.920863 
L 394.922755 306.742446 
L 405.088541 306.61295 
L 406.105119 306.78705 
L 409.154855 306.656115 
L 410.171434 306.699281 
L 411.188012 306.584173 
L 413.22117 306.706475 
L 419.320641 306.679137 
L 422.370377 306.791367 
L 424.403534 306.710791 
L 425.420113 306.866187 
L 427.45327 306.817266 
L 428.469849 306.930935 
L 434.56932 306.892086 
L 435.585899 307.142446 
L 437.619056 306.828777 
L 438.635635 306.935252 
L 439.652214 306.83741 
L 442.701949 307.010072 
L 443.718528 307.109353 
L 444.735107 306.879137 
L 446.768264 307.058993 
L 447.784842 306.758273 
L 449.818 306.889209 
L 451.851157 306.690647 
L 453.884314 306.707914 
L 454.900893 306.866187 
L 461.000364 306.821583 
L 462.016943 306.909353 
L 467.099836 306.745324 
L 468.116415 306.702158 
L 470.149572 306.825899 
L 471.16615 306.551079 
L 472.182729 306.776978 
L 473.199308 306.641727 
L 474.215886 306.656115 
L 475.232465 306.844604 
L 476.249044 306.808633 
L 477.265622 306.630216 
L 479.298779 306.716547 
L 480.315358 306.752518 
L 481.331937 306.670504 
L 483.365094 306.765468 
L 484.381672 306.817266 
L 485.398251 306.523741 
L 487.431408 306.78705 
L 491.497723 306.543885 
L 492.514301 306.666187 
L 493.53088 306.592806 
L 494.547459 306.677698 
L 496.580616 306.454676 
L 498.613773 306.627338 
L 499.630352 306.384173 
L 500.64693 306.564029 
L 501.663509 306.561151 
L 502.680087 306.408633 
L 504.713245 306.584173 
L 512.845874 306.296403 
L 513.862452 306.397122 
L 516.912188 306.161151 
L 517.928767 306.385612 
L 519.961924 306.305036 
L 525.044817 306.43741 
L 526.061396 306.391367 
L 527.077974 306.471942 
L 528.094553 306.247482 
L 530.12771 306.322302 
L 532.160867 306.218705 
L 534.194024 306.267626 
L 536.227182 306.284892 
L 538.260339 306.51223 
L 542.326653 306.440288 
L 544.359811 306.541007 
L 545.376389 306.332374 
L 546.392968 306.309353 
L 547.409546 306.407194 
L 552.492439 306.061871 
L 553.509018 306.273381 
L 554.525597 306.146763 
L 556.558754 306.320863 
L 558.591911 306.153957 
L 564.691383 306.517986 
L 570.790854 306.683453 
L 571.807433 306.844604 
L 573.84059 306.579856 
L 574.857169 306.690647 
L 576.890326 306.702158 
L 577.906905 306.733813 
L 578.923483 306.900719 
L 581.973219 306.555396 
L 584.006376 306.602878 
L 587.056112 306.610072 
L 592.139005 306.797122 
L 593.155584 306.745324 
L 596.20532 307.021583 
L 599.255056 306.648921 
L 600.271634 306.72518 
L 601.288213 306.65036 
L 603.32137 306.805755 
L 604.337949 306.782734 
L 606.371106 307.028777 
L 608.404263 306.879137 
L 610.43742 307.023022 
L 611.453999 306.917986 
L 613.487156 307.139568 
L 616.536892 307.207194 
L 620.603206 307.22446 
L 622.636364 307.392806 
L 622.636364 307.392806 
" clip-path="url(#p091a42f555)" style="fill: none; stroke: #ff7f0e; stroke-width: 1.5; stroke-linecap: square"/>
   </g>
   <g id="patch_3">
    <path d="M 90 320.4 
L 90 43.2 
" style="fill: none; stroke: #000000; stroke-width: 0.8; stroke-linejoin: miter; stroke-linecap: square"/>
   </g>
   <g id="patch_4">
    <path d="M 648 320.4 
L 648 43.2 
" style="fill: none; stroke: #000000; stroke-width: 0.8; stroke-linejoin: miter; stroke-linecap: square"/>
   </g>
   <g id="patch_5">
    <path d="M 90 320.4 
L 648 320.4 
" style="fill: none; stroke: #000000; stroke-width: 0.8; stroke-linejoin: miter; stroke-linecap: square"/>
   </g>
   <g id="patch_6">
    <path d="M 90 43.2 
L 648 43.2 
" style="fill: none; stroke: #000000; stroke-width: 0.8; stroke-linejoin: miter; stroke-linecap: square"/>
   </g>
   <g id="text_14">
    <!-- model train and validation loss over time -->
    <g transform="translate(245.555625 37.2) scale(0.12 -0.12)">
     <defs>
      <path id="DejaVuSans-6d" d="M 3328 2828 
Q 3544 3216 3844 3400 
Q 4144 3584 4550 3584 
Q 5097 3584 5394 3201 
Q 5691 2819 5691 2113 
L 5691 0 
L 5113 0 
L 5113 2094 
Q 5113 2597 4934 2840 
Q 4756 3084 4391 3084 
Q 3944 3084 3684 2787 
Q 3425 2491 3425 1978 
L 3425 0 
L 2847 0 
L 2847 2094 
Q 2847 2600 2669 2842 
Q 2491 3084 2119 3084 
Q 1678 3084 1418 2786 
Q 1159 2488 1159 1978 
L 1159 0 
L 581 0 
L 581 3500 
L 1159 3500 
L 1159 2956 
Q 1356 3278 1631 3431 
Q 1906 3584 2284 3584 
Q 2666 3584 2933 3390 
Q 3200 3197 3328 2828 
z
" transform="scale(0.015625)"/>
      <path id="DejaVuSans-64" d="M 2906 2969 
L 2906 4863 
L 3481 4863 
L 3481 0 
L 2906 0 
L 2906 525 
Q 2725 213 2448 61 
Q 2172 -91 1784 -91 
Q 1150 -91 751 415 
Q 353 922 353 1747 
Q 353 2572 751 3078 
Q 1150 3584 1784 3584 
Q 2172 3584 2448 3432 
Q 2725 3281 2906 2969 
z
M 947 1747 
Q 947 1113 1208 752 
Q 1469 391 1925 391 
Q 2381 391 2643 752 
Q 2906 1113 2906 1747 
Q 2906 2381 2643 2742 
Q 2381 3103 1925 3103 
Q 1469 3103 1208 2742 
Q 947 2381 947 1747 
z
" transform="scale(0.015625)"/>
      <path id="DejaVuSans-20" transform="scale(0.015625)"/>
      <path id="DejaVuSans-74" d="M 1172 4494 
L 1172 3500 
L 2356 3500 
L 2356 3053 
L 1172 3053 
L 1172 1153 
Q 1172 725 1289 603 
Q 1406 481 1766 481 
L 2356 481 
L 2356 0 
L 1766 0 
Q 1100 0 847 248 
Q 594 497 594 1153 
L 594 3053 
L 172 3053 
L 172 3500 
L 594 3500 
L 594 4494 
L 1172 4494 
z
" transform="scale(0.015625)"/>
      <path id="DejaVuSans-72" d="M 2631 2963 
Q 2534 3019 2420 3045 
Q 2306 3072 2169 3072 
Q 1681 3072 1420 2755 
Q 1159 2438 1159 1844 
L 1159 0 
L 581 0 
L 581 3500 
L 1159 3500 
L 1159 2956 
Q 1341 3275 1631 3429 
Q 1922 3584 2338 3584 
Q 2397 3584 2469 3576 
Q 2541 3569 2628 3553 
L 2631 2963 
z
" transform="scale(0.015625)"/>
      <path id="DejaVuSans-61" d="M 2194 1759 
Q 1497 1759 1228 1600 
Q 959 1441 959 1056 
Q 959 750 1161 570 
Q 1363 391 1709 391 
Q 2188 391 2477 730 
Q 2766 1069 2766 1631 
L 2766 1759 
L 2194 1759 
z
M 3341 1997 
L 3341 0 
L 2766 0 
L 2766 531 
Q 2569 213 2275 61 
Q 1981 -91 1556 -91 
Q 1019 -91 701 211 
Q 384 513 384 1019 
Q 384 1609 779 1909 
Q 1175 2209 1959 2209 
L 2766 2209 
L 2766 2266 
Q 2766 2663 2505 2880 
Q 2244 3097 1772 3097 
Q 1472 3097 1187 3025 
Q 903 2953 641 2809 
L 641 3341 
Q 956 3463 1253 3523 
Q 1550 3584 1831 3584 
Q 2591 3584 2966 3190 
Q 3341 2797 3341 1997 
z
" transform="scale(0.015625)"/>
      <path id="DejaVuSans-69" d="M 603 3500 
L 1178 3500 
L 1178 0 
L 603 0 
L 603 3500 
z
M 603 4863 
L 1178 4863 
L 1178 4134 
L 603 4134 
L 603 4863 
z
" transform="scale(0.015625)"/>
      <path id="DejaVuSans-6e" d="M 3513 2113 
L 3513 0 
L 2938 0 
L 2938 2094 
Q 2938 2591 2744 2837 
Q 2550 3084 2163 3084 
Q 1697 3084 1428 2787 
Q 1159 2491 1159 1978 
L 1159 0 
L 581 0 
L 581 3500 
L 1159 3500 
L 1159 2956 
Q 1366 3272 1645 3428 
Q 1925 3584 2291 3584 
Q 2894 3584 3203 3211 
Q 3513 2838 3513 2113 
z
" transform="scale(0.015625)"/>
      <path id="DejaVuSans-76" d="M 191 3500 
L 800 3500 
L 1894 563 
L 2988 3500 
L 3597 3500 
L 2284 0 
L 1503 0 
L 191 3500 
z
" transform="scale(0.015625)"/>
     </defs>
     <use xlink:href="#DejaVuSans-6d"/>
     <use xlink:href="#DejaVuSans-6f" x="97.412109"/>
     <use xlink:href="#DejaVuSans-64" x="158.59375"/>
     <use xlink:href="#DejaVuSans-65" x="222.070312"/>
     <use xlink:href="#DejaVuSans-6c" x="283.59375"/>
     <use xlink:href="#DejaVuSans-20" x="311.376953"/>
     <use xlink:href="#DejaVuSans-74" x="343.164062"/>
     <use xlink:href="#DejaVuSans-72" x="382.373047"/>
     <use xlink:href="#DejaVuSans-61" x="423.486328"/>
     <use xlink:href="#DejaVuSans-69" x="484.765625"/>
     <use xlink:href="#DejaVuSans-6e" x="512.548828"/>
     <use xlink:href="#DejaVuSans-20" x="575.927734"/>
     <use xlink:href="#DejaVuSans-61" x="607.714844"/>
     <use xlink:href="#DejaVuSans-6e" x="668.994141"/>
     <use xlink:href="#DejaVuSans-64" x="732.373047"/>
     <use xlink:href="#DejaVuSans-20" x="795.849609"/>
     <use xlink:href="#DejaVuSans-76" x="827.636719"/>
     <use xlink:href="#DejaVuSans-61" x="886.816406"/>
     <use xlink:href="#DejaVuSans-6c" x="948.095703"/>
     <use xlink:href="#DejaVuSans-69" x="975.878906"/>
     <use xlink:href="#DejaVuSans-64" x="1003.662109"/>
     <use xlink:href="#DejaVuSans-61" x="1067.138672"/>
     <use xlink:href="#DejaVuSans-74" x="1128.417969"/>
     <use xlink:href="#DejaVuSans-69" x="1167.626953"/>
     <use xlink:href="#DejaVuSans-6f" x="1195.410156"/>
     <use xlink:href="#DejaVuSans-6e" x="1256.591797"/>
     <use xlink:href="#DejaVuSans-20" x="1319.970703"/>
     <use xlink:href="#DejaVuSans-6c" x="1351.757812"/>
     <use xlink:href="#DejaVuSans-6f" x="1379.541016"/>
     <use xlink:href="#DejaVuSans-73" x="1440.722656"/>
     <use xlink:href="#DejaVuSans-73" x="1492.822266"/>
     <use xlink:href="#DejaVuSans-20" x="1544.921875"/>
     <use xlink:href="#DejaVuSans-6f" x="1576.708984"/>
     <use xlink:href="#DejaVuSans-76" x="1637.890625"/>
     <use xlink:href="#DejaVuSans-65" x="1697.070312"/>
     <use xlink:href="#DejaVuSans-72" x="1758.59375"/>
     <use xlink:href="#DejaVuSans-20" x="1799.707031"/>
     <use xlink:href="#DejaVuSans-74" x="1831.494141"/>
     <use xlink:href="#DejaVuSans-69" x="1870.703125"/>
     <use xlink:href="#DejaVuSans-6d" x="1898.486328"/>
     <use xlink:href="#DejaVuSans-65" x="1995.898438"/>
    </g>
   </g>
   <g id="legend_1">
    <g id="patch_7">
     <path d="M 559.765625 80.55625 
L 641 80.55625 
Q 643 80.55625 643 78.55625 
L 643 50.2 
Q 643 48.2 641 48.2 
L 559.765625 48.2 
Q 557.765625 48.2 557.765625 50.2 
L 557.765625 78.55625 
Q 557.765625 80.55625 559.765625 80.55625 
z
" style="fill: #ffffff; opacity: 0.8; stroke: #cccccc; stroke-linejoin: miter"/>
    </g>
    <g id="line2d_25">
     <path d="M 561.765625 56.298437 
L 571.765625 56.298437 
L 581.765625 56.298437 
" style="fill: none; stroke: #1f77b4; stroke-width: 1.5; stroke-linecap: square"/>
    </g>
    <g id="text_15">
     <!-- train -->
     <g transform="translate(589.765625 59.798437) scale(0.1 -0.1)">
      <use xlink:href="#DejaVuSans-74"/>
      <use xlink:href="#DejaVuSans-72" x="39.208984"/>
      <use xlink:href="#DejaVuSans-61" x="80.322266"/>
      <use xlink:href="#DejaVuSans-69" x="141.601562"/>
      <use xlink:href="#DejaVuSans-6e" x="169.384766"/>
     </g>
    </g>
    <g id="line2d_26">
     <path d="M 561.765625 70.976562 
L 571.765625 70.976562 
L 581.765625 70.976562 
" style="fill: none; stroke: #ff7f0e; stroke-width: 1.5; stroke-linecap: square"/>
    </g>
    <g id="text_16">
     <!-- validation -->
     <g transform="translate(589.765625 74.476562) scale(0.1 -0.1)">
      <use xlink:href="#DejaVuSans-76"/>
      <use xlink:href="#DejaVuSans-61" x="59.179688"/>
      <use xlink:href="#DejaVuSans-6c" x="120.458984"/>
      <use xlink:href="#DejaVuSans-69" x="148.242188"/>
      <use xlink:href="#DejaVuSans-64" x="176.025391"/>
      <use xlink:href="#DejaVuSans-61" x="239.501953"/>
      <use xlink:href="#DejaVuSans-74" x="300.78125"/>
      <use xlink:href="#DejaVuSans-69" x="339.990234"/>
      <use xlink:href="#DejaVuSans-6f" x="367.773438"/>
      <use xlink:href="#DejaVuSans-6e" x="428.955078"/>
     </g>
    </g>
   </g>
  </g>
 </g>
 <defs>
  <clipPath id="p091a42f555">
   <rect x="90" y="43.2" width="558" height="277.2"/>
  </clipPath>
 </defs>
</svg>
