<?xml version="1.0" encoding="utf-8" standalone="no"?>
<!DOCTYPE svg PUBLIC "-//W3C//DTD SVG 1.1//EN"
  "http://www.w3.org/Graphics/SVG/1.1/DTD/svg11.dtd">
<svg xmlns:xlink="http://www.w3.org/1999/xlink" width="720pt" height="360pt" viewBox="0 0 720 360" xmlns="http://www.w3.org/2000/svg" version="1.1">
 <metadata>
  <rdf:RDF xmlns:dc="http://purl.org/dc/elements/1.1/" xmlns:cc="http://creativecommons.org/ns#" xmlns:rdf="http://www.w3.org/1999/02/22-rdf-syntax-ns#">
   <cc:Work>
    <dc:type rdf:resource="http://purl.org/dc/dcmitype/StillImage"/>
    <dc:date>2023-05-24T11:31:03.484309</dc:date>
    <dc:format>image/svg+xml</dc:format>
    <dc:creator>
     <cc:Agent>
      <dc:title>Matplotlib v3.7.1, https://matplotlib.org/</dc:title>
     </cc:Agent>
    </dc:creator>
   </cc:Work>
  </rdf:RDF>
 </metadata>
 <defs>
  <style type="text/css">*{stroke-linejoin: round; stroke-linecap: butt}</style>
 </defs>
 <g id="figure_1">
  <g id="patch_1">
   <path d="M 0 360 
L 720 360 
L 720 0 
L 0 0 
z
" style="fill: #ffffff"/>
  </g>
  <g id="axes_1">
   <g id="patch_2">
    <path d="M 90 320.4 
L 648 320.4 
L 648 43.2 
L 90 43.2 
z
" style="fill: #ffffff"/>
   </g>
   <g id="matplotlib.axis_1">
    <g id="xtick_1">
     <g id="line2d_1">
      <path d="M 115.363636 320.4 
L 115.363636 43.2 
" clip-path="url(#p8d0517e0b8)" style="fill: none; stroke: #b0b0b0; stroke-width: 0.8; stroke-linecap: square"/>
     </g>
     <g id="line2d_2">
      <defs>
       <path id="m9a486663bd" d="M 0 0 
L 0 3.5 
" style="stroke: #000000; stroke-width: 0.8"/>
      </defs>
      <g>
       <use xlink:href="#m9a486663bd" x="115.363636" y="320.4" style="stroke: #000000; stroke-width: 0.8"/>
      </g>
     </g>
     <g id="text_1">
      <!-- 0 -->
      <g transform="translate(112.182386 334.998438) scale(0.1 -0.1)">
       <defs>
        <path id="DejaVuSans-30" d="M 2034 4250 
Q 1547 4250 1301 3770 
Q 1056 3291 1056 2328 
Q 1056 1369 1301 889 
Q 1547 409 2034 409 
Q 2525 409 2770 889 
Q 3016 1369 3016 2328 
Q 3016 3291 2770 3770 
Q 2525 4250 2034 4250 
z
M 2034 4750 
Q 2819 4750 3233 4129 
Q 3647 3509 3647 2328 
Q 3647 1150 3233 529 
Q 2819 -91 2034 -91 
Q 1250 -91 836 529 
Q 422 1150 422 2328 
Q 422 3509 836 4129 
Q 1250 4750 2034 4750 
z
" transform="scale(0.015625)"/>
       </defs>
       <use xlink:href="#DejaVuSans-30"/>
      </g>
     </g>
    </g>
    <g id="xtick_2">
     <g id="line2d_3">
      <path d="M 217.021498 320.4 
L 217.021498 43.2 
" clip-path="url(#p8d0517e0b8)" style="fill: none; stroke: #b0b0b0; stroke-width: 0.8; stroke-linecap: square"/>
     </g>
     <g id="line2d_4">
      <g>
       <use xlink:href="#m9a486663bd" x="217.021498" y="320.4" style="stroke: #000000; stroke-width: 0.8"/>
      </g>
     </g>
     <g id="text_2">
      <!-- 100 -->
      <g transform="translate(207.477748 334.998438) scale(0.1 -0.1)">
       <defs>
        <path id="DejaVuSans-31" d="M 794 531 
L 1825 531 
L 1825 4091 
L 703 3866 
L 703 4441 
L 1819 4666 
L 2450 4666 
L 2450 531 
L 3481 531 
L 3481 0 
L 794 0 
L 794 531 
z
" transform="scale(0.015625)"/>
       </defs>
       <use xlink:href="#DejaVuSans-31"/>
       <use xlink:href="#DejaVuSans-30" x="63.623047"/>
       <use xlink:href="#DejaVuSans-30" x="127.246094"/>
      </g>
     </g>
    </g>
    <g id="xtick_3">
     <g id="line2d_5">
      <path d="M 318.679359 320.4 
L 318.679359 43.2 
" clip-path="url(#p8d0517e0b8)" style="fill: none; stroke: #b0b0b0; stroke-width: 0.8; stroke-linecap: square"/>
     </g>
     <g id="line2d_6">
      <g>
       <use xlink:href="#m9a486663bd" x="318.679359" y="320.4" style="stroke: #000000; stroke-width: 0.8"/>
      </g>
     </g>
     <g id="text_3">
      <!-- 200 -->
      <g transform="translate(309.135609 334.998438) scale(0.1 -0.1)">
       <defs>
        <path id="DejaVuSans-32" d="M 1228 531 
L 3431 531 
L 3431 0 
L 469 0 
L 469 531 
Q 828 903 1448 1529 
Q 2069 2156 2228 2338 
Q 2531 2678 2651 2914 
Q 2772 3150 2772 3378 
Q 2772 3750 2511 3984 
Q 2250 4219 1831 4219 
Q 1534 4219 1204 4116 
Q 875 4013 500 3803 
L 500 4441 
Q 881 4594 1212 4672 
Q 1544 4750 1819 4750 
Q 2544 4750 2975 4387 
Q 3406 4025 3406 3419 
Q 3406 3131 3298 2873 
Q 3191 2616 2906 2266 
Q 2828 2175 2409 1742 
Q 1991 1309 1228 531 
z
" transform="scale(0.015625)"/>
       </defs>
       <use xlink:href="#DejaVuSans-32"/>
       <use xlink:href="#DejaVuSans-30" x="63.623047"/>
       <use xlink:href="#DejaVuSans-30" x="127.246094"/>
      </g>
     </g>
    </g>
    <g id="xtick_4">
     <g id="line2d_7">
      <path d="M 420.33722 320.4 
L 420.33722 43.2 
" clip-path="url(#p8d0517e0b8)" style="fill: none; stroke: #b0b0b0; stroke-width: 0.8; stroke-linecap: square"/>
     </g>
     <g id="line2d_8">
      <g>
       <use xlink:href="#m9a486663bd" x="420.33722" y="320.4" style="stroke: #000000; stroke-width: 0.8"/>
      </g>
     </g>
     <g id="text_4">
      <!-- 300 -->
      <g transform="translate(410.79347 334.998438) scale(0.1 -0.1)">
       <defs>
        <path id="DejaVuSans-33" d="M 2597 2516 
Q 3050 2419 3304 2112 
Q 3559 1806 3559 1356 
Q 3559 666 3084 287 
Q 2609 -91 1734 -91 
Q 1441 -91 1130 -33 
Q 819 25 488 141 
L 488 750 
Q 750 597 1062 519 
Q 1375 441 1716 441 
Q 2309 441 2620 675 
Q 2931 909 2931 1356 
Q 2931 1769 2642 2001 
Q 2353 2234 1838 2234 
L 1294 2234 
L 1294 2753 
L 1863 2753 
Q 2328 2753 2575 2939 
Q 2822 3125 2822 3475 
Q 2822 3834 2567 4026 
Q 2313 4219 1838 4219 
Q 1578 4219 1281 4162 
Q 984 4106 628 3988 
L 628 4550 
Q 988 4650 1302 4700 
Q 1616 4750 1894 4750 
Q 2613 4750 3031 4423 
Q 3450 4097 3450 3541 
Q 3450 3153 3228 2886 
Q 3006 2619 2597 2516 
z
" transform="scale(0.015625)"/>
       </defs>
       <use xlink:href="#DejaVuSans-33"/>
       <use xlink:href="#DejaVuSans-30" x="63.623047"/>
       <use xlink:href="#DejaVuSans-30" x="127.246094"/>
      </g>
     </g>
    </g>
    <g id="xtick_5">
     <g id="line2d_9">
      <path d="M 521.995081 320.4 
L 521.995081 43.2 
" clip-path="url(#p8d0517e0b8)" style="fill: none; stroke: #b0b0b0; stroke-width: 0.8; stroke-linecap: square"/>
     </g>
     <g id="line2d_10">
      <g>
       <use xlink:href="#m9a486663bd" x="521.995081" y="320.4" style="stroke: #000000; stroke-width: 0.8"/>
      </g>
     </g>
     <g id="text_5">
      <!-- 400 -->
      <g transform="translate(512.451331 334.998438) scale(0.1 -0.1)">
       <defs>
        <path id="DejaVuSans-34" d="M 2419 4116 
L 825 1625 
L 2419 1625 
L 2419 4116 
z
M 2253 4666 
L 3047 4666 
L 3047 1625 
L 3713 1625 
L 3713 1100 
L 3047 1100 
L 3047 0 
L 2419 0 
L 2419 1100 
L 313 1100 
L 313 1709 
L 2253 4666 
z
" transform="scale(0.015625)"/>
       </defs>
       <use xlink:href="#DejaVuSans-34"/>
       <use xlink:href="#DejaVuSans-30" x="63.623047"/>
       <use xlink:href="#DejaVuSans-30" x="127.246094"/>
      </g>
     </g>
    </g>
    <g id="xtick_6">
     <g id="line2d_11">
      <path d="M 623.652942 320.4 
L 623.652942 43.2 
" clip-path="url(#p8d0517e0b8)" style="fill: none; stroke: #b0b0b0; stroke-width: 0.8; stroke-linecap: square"/>
     </g>
     <g id="line2d_12">
      <g>
       <use xlink:href="#m9a486663bd" x="623.652942" y="320.4" style="stroke: #000000; stroke-width: 0.8"/>
      </g>
     </g>
     <g id="text_6">
      <!-- 500 -->
      <g transform="translate(614.109192 334.998438) scale(0.1 -0.1)">
       <defs>
        <path id="DejaVuSans-35" d="M 691 4666 
L 3169 4666 
L 3169 4134 
L 1269 4134 
L 1269 2991 
Q 1406 3038 1543 3061 
Q 1681 3084 1819 3084 
Q 2600 3084 3056 2656 
Q 3513 2228 3513 1497 
Q 3513 744 3044 326 
Q 2575 -91 1722 -91 
Q 1428 -91 1123 -41 
Q 819 9 494 109 
L 494 744 
Q 775 591 1075 516 
Q 1375 441 1709 441 
Q 2250 441 2565 725 
Q 2881 1009 2881 1497 
Q 2881 1984 2565 2268 
Q 2250 2553 1709 2553 
Q 1456 2553 1204 2497 
Q 953 2441 691 2322 
L 691 4666 
z
" transform="scale(0.015625)"/>
       </defs>
       <use xlink:href="#DejaVuSans-35"/>
       <use xlink:href="#DejaVuSans-30" x="63.623047"/>
       <use xlink:href="#DejaVuSans-30" x="127.246094"/>
      </g>
     </g>
    </g>
    <g id="text_7">
     <!-- epoch -->
     <g transform="translate(353.771875 348.676562) scale(0.1 -0.1)">
      <defs>
       <path id="DejaVuSans-65" d="M 3597 1894 
L 3597 1613 
L 953 1613 
Q 991 1019 1311 708 
Q 1631 397 2203 397 
Q 2534 397 2845 478 
Q 3156 559 3463 722 
L 3463 178 
Q 3153 47 2828 -22 
Q 2503 -91 2169 -91 
Q 1331 -91 842 396 
Q 353 884 353 1716 
Q 353 2575 817 3079 
Q 1281 3584 2069 3584 
Q 2775 3584 3186 3129 
Q 3597 2675 3597 1894 
z
M 3022 2063 
Q 3016 2534 2758 2815 
Q 2500 3097 2075 3097 
Q 1594 3097 1305 2825 
Q 1016 2553 972 2059 
L 3022 2063 
z
" transform="scale(0.015625)"/>
       <path id="DejaVuSans-70" d="M 1159 525 
L 1159 -1331 
L 581 -1331 
L 581 3500 
L 1159 3500 
L 1159 2969 
Q 1341 3281 1617 3432 
Q 1894 3584 2278 3584 
Q 2916 3584 3314 3078 
Q 3713 2572 3713 1747 
Q 3713 922 3314 415 
Q 2916 -91 2278 -91 
Q 1894 -91 1617 61 
Q 1341 213 1159 525 
z
M 3116 1747 
Q 3116 2381 2855 2742 
Q 2594 3103 2138 3103 
Q 1681 3103 1420 2742 
Q 1159 2381 1159 1747 
Q 1159 1113 1420 752 
Q 1681 391 2138 391 
Q 2594 391 2855 752 
Q 3116 1113 3116 1747 
z
" transform="scale(0.015625)"/>
       <path id="DejaVuSans-6f" d="M 1959 3097 
Q 1497 3097 1228 2736 
Q 959 2375 959 1747 
Q 959 1119 1226 758 
Q 1494 397 1959 397 
Q 2419 397 2687 759 
Q 2956 1122 2956 1747 
Q 2956 2369 2687 2733 
Q 2419 3097 1959 3097 
z
M 1959 3584 
Q 2709 3584 3137 3096 
Q 3566 2609 3566 1747 
Q 3566 888 3137 398 
Q 2709 -91 1959 -91 
Q 1206 -91 779 398 
Q 353 888 353 1747 
Q 353 2609 779 3096 
Q 1206 3584 1959 3584 
z
" transform="scale(0.015625)"/>
       <path id="DejaVuSans-63" d="M 3122 3366 
L 3122 2828 
Q 2878 2963 2633 3030 
Q 2388 3097 2138 3097 
Q 1578 3097 1268 2742 
Q 959 2388 959 1747 
Q 959 1106 1268 751 
Q 1578 397 2138 397 
Q 2388 397 2633 464 
Q 2878 531 3122 666 
L 3122 134 
Q 2881 22 2623 -34 
Q 2366 -91 2075 -91 
Q 1284 -91 818 406 
Q 353 903 353 1747 
Q 353 2603 823 3093 
Q 1294 3584 2113 3584 
Q 2378 3584 2631 3529 
Q 2884 3475 3122 3366 
z
" transform="scale(0.015625)"/>
       <path id="DejaVuSans-68" d="M 3513 2113 
L 3513 0 
L 2938 0 
L 2938 2094 
Q 2938 2591 2744 2837 
Q 2550 3084 2163 3084 
Q 1697 3084 1428 2787 
Q 1159 2491 1159 1978 
L 1159 0 
L 581 0 
L 581 4863 
L 1159 4863 
L 1159 2956 
Q 1366 3272 1645 3428 
Q 1925 3584 2291 3584 
Q 2894 3584 3203 3211 
Q 3513 2838 3513 2113 
z
" transform="scale(0.015625)"/>
      </defs>
      <use xlink:href="#DejaVuSans-65"/>
      <use xlink:href="#DejaVuSans-70" x="61.523438"/>
      <use xlink:href="#DejaVuSans-6f" x="125"/>
      <use xlink:href="#DejaVuSans-63" x="186.181641"/>
      <use xlink:href="#DejaVuSans-68" x="241.162109"/>
     </g>
    </g>
   </g>
   <g id="matplotlib.axis_2">
    <g id="ytick_1">
     <g id="line2d_13">
      <path d="M 90 295.918077 
L 648 295.918077 
" clip-path="url(#p8d0517e0b8)" style="fill: none; stroke: #b0b0b0; stroke-width: 0.8; stroke-linecap: square"/>
     </g>
     <g id="line2d_14">
      <defs>
       <path id="m7263d28199" d="M 0 0 
L -3.5 0 
" style="stroke: #000000; stroke-width: 0.8"/>
      </defs>
      <g>
       <use xlink:href="#m7263d28199" x="90" y="295.918077" style="stroke: #000000; stroke-width: 0.8"/>
      </g>
     </g>
     <g id="text_8">
      <!-- 1.3800 -->
      <g transform="translate(48.009375 299.717296) scale(0.1 -0.1)">
       <defs>
        <path id="DejaVuSans-2e" d="M 684 794 
L 1344 794 
L 1344 0 
L 684 0 
L 684 794 
z
" transform="scale(0.015625)"/>
        <path id="DejaVuSans-38" d="M 2034 2216 
Q 1584 2216 1326 1975 
Q 1069 1734 1069 1313 
Q 1069 891 1326 650 
Q 1584 409 2034 409 
Q 2484 409 2743 651 
Q 3003 894 3003 1313 
Q 3003 1734 2745 1975 
Q 2488 2216 2034 2216 
z
M 1403 2484 
Q 997 2584 770 2862 
Q 544 3141 544 3541 
Q 544 4100 942 4425 
Q 1341 4750 2034 4750 
Q 2731 4750 3128 4425 
Q 3525 4100 3525 3541 
Q 3525 3141 3298 2862 
Q 3072 2584 2669 2484 
Q 3125 2378 3379 2068 
Q 3634 1759 3634 1313 
Q 3634 634 3220 271 
Q 2806 -91 2034 -91 
Q 1263 -91 848 271 
Q 434 634 434 1313 
Q 434 1759 690 2068 
Q 947 2378 1403 2484 
z
M 1172 3481 
Q 1172 3119 1398 2916 
Q 1625 2713 2034 2713 
Q 2441 2713 2670 2916 
Q 2900 3119 2900 3481 
Q 2900 3844 2670 4047 
Q 2441 4250 2034 4250 
Q 1625 4250 1398 4047 
Q 1172 3844 1172 3481 
z
" transform="scale(0.015625)"/>
       </defs>
       <use xlink:href="#DejaVuSans-31"/>
       <use xlink:href="#DejaVuSans-2e" x="63.623047"/>
       <use xlink:href="#DejaVuSans-33" x="95.410156"/>
       <use xlink:href="#DejaVuSans-38" x="159.033203"/>
       <use xlink:href="#DejaVuSans-30" x="222.65625"/>
       <use xlink:href="#DejaVuSans-30" x="286.279297"/>
      </g>
     </g>
    </g>
    <g id="ytick_2">
     <g id="line2d_15">
      <path d="M 90 264.967792 
L 648 264.967792 
" clip-path="url(#p8d0517e0b8)" style="fill: none; stroke: #b0b0b0; stroke-width: 0.8; stroke-linecap: square"/>
     </g>
     <g id="line2d_16">
      <g>
       <use xlink:href="#m7263d28199" x="90" y="264.967792" style="stroke: #000000; stroke-width: 0.8"/>
      </g>
     </g>
     <g id="text_9">
      <!-- 1.3825 -->
      <g transform="translate(48.009375 268.767011) scale(0.1 -0.1)">
       <use xlink:href="#DejaVuSans-31"/>
       <use xlink:href="#DejaVuSans-2e" x="63.623047"/>
       <use xlink:href="#DejaVuSans-33" x="95.410156"/>
       <use xlink:href="#DejaVuSans-38" x="159.033203"/>
       <use xlink:href="#DejaVuSans-32" x="222.65625"/>
       <use xlink:href="#DejaVuSans-35" x="286.279297"/>
      </g>
     </g>
    </g>
    <g id="ytick_3">
     <g id="line2d_17">
      <path d="M 90 234.017507 
L 648 234.017507 
" clip-path="url(#p8d0517e0b8)" style="fill: none; stroke: #b0b0b0; stroke-width: 0.8; stroke-linecap: square"/>
     </g>
     <g id="line2d_18">
      <g>
       <use xlink:href="#m7263d28199" x="90" y="234.017507" style="stroke: #000000; stroke-width: 0.8"/>
      </g>
     </g>
     <g id="text_10">
      <!-- 1.3850 -->
      <g transform="translate(48.009375 237.816726) scale(0.1 -0.1)">
       <use xlink:href="#DejaVuSans-31"/>
       <use xlink:href="#DejaVuSans-2e" x="63.623047"/>
       <use xlink:href="#DejaVuSans-33" x="95.410156"/>
       <use xlink:href="#DejaVuSans-38" x="159.033203"/>
       <use xlink:href="#DejaVuSans-35" x="222.65625"/>
       <use xlink:href="#DejaVuSans-30" x="286.279297"/>
      </g>
     </g>
    </g>
    <g id="ytick_4">
     <g id="line2d_19">
      <path d="M 90 203.067223 
L 648 203.067223 
" clip-path="url(#p8d0517e0b8)" style="fill: none; stroke: #b0b0b0; stroke-width: 0.8; stroke-linecap: square"/>
     </g>
     <g id="line2d_20">
      <g>
       <use xlink:href="#m7263d28199" x="90" y="203.067223" style="stroke: #000000; stroke-width: 0.8"/>
      </g>
     </g>
     <g id="text_11">
      <!-- 1.3875 -->
      <g transform="translate(48.009375 206.866441) scale(0.1 -0.1)">
       <defs>
        <path id="DejaVuSans-37" d="M 525 4666 
L 3525 4666 
L 3525 4397 
L 1831 0 
L 1172 0 
L 2766 4134 
L 525 4134 
L 525 4666 
z
" transform="scale(0.015625)"/>
       </defs>
       <use xlink:href="#DejaVuSans-31"/>
       <use xlink:href="#DejaVuSans-2e" x="63.623047"/>
       <use xlink:href="#DejaVuSans-33" x="95.410156"/>
       <use xlink:href="#DejaVuSans-38" x="159.033203"/>
       <use xlink:href="#DejaVuSans-37" x="222.65625"/>
       <use xlink:href="#DejaVuSans-35" x="286.279297"/>
      </g>
     </g>
    </g>
    <g id="ytick_5">
     <g id="line2d_21">
      <path d="M 90 172.116938 
L 648 172.116938 
" clip-path="url(#p8d0517e0b8)" style="fill: none; stroke: #b0b0b0; stroke-width: 0.8; stroke-linecap: square"/>
     </g>
     <g id="line2d_22">
      <g>
       <use xlink:href="#m7263d28199" x="90" y="172.116938" style="stroke: #000000; stroke-width: 0.8"/>
      </g>
     </g>
     <g id="text_12">
      <!-- 1.3900 -->
      <g transform="translate(48.009375 175.916157) scale(0.1 -0.1)">
       <defs>
        <path id="DejaVuSans-39" d="M 703 97 
L 703 672 
Q 941 559 1184 500 
Q 1428 441 1663 441 
Q 2288 441 2617 861 
Q 2947 1281 2994 2138 
Q 2813 1869 2534 1725 
Q 2256 1581 1919 1581 
Q 1219 1581 811 2004 
Q 403 2428 403 3163 
Q 403 3881 828 4315 
Q 1253 4750 1959 4750 
Q 2769 4750 3195 4129 
Q 3622 3509 3622 2328 
Q 3622 1225 3098 567 
Q 2575 -91 1691 -91 
Q 1453 -91 1209 -44 
Q 966 3 703 97 
z
M 1959 2075 
Q 2384 2075 2632 2365 
Q 2881 2656 2881 3163 
Q 2881 3666 2632 3958 
Q 2384 4250 1959 4250 
Q 1534 4250 1286 3958 
Q 1038 3666 1038 3163 
Q 1038 2656 1286 2365 
Q 1534 2075 1959 2075 
z
" transform="scale(0.015625)"/>
       </defs>
       <use xlink:href="#DejaVuSans-31"/>
       <use xlink:href="#DejaVuSans-2e" x="63.623047"/>
       <use xlink:href="#DejaVuSans-33" x="95.410156"/>
       <use xlink:href="#DejaVuSans-39" x="159.033203"/>
       <use xlink:href="#DejaVuSans-30" x="222.65625"/>
       <use xlink:href="#DejaVuSans-30" x="286.279297"/>
      </g>
     </g>
    </g>
    <g id="ytick_6">
     <g id="line2d_23">
      <path d="M 90 141.166653 
L 648 141.166653 
" clip-path="url(#p8d0517e0b8)" style="fill: none; stroke: #b0b0b0; stroke-width: 0.8; stroke-linecap: square"/>
     </g>
     <g id="line2d_24">
      <g>
       <use xlink:href="#m7263d28199" x="90" y="141.166653" style="stroke: #000000; stroke-width: 0.8"/>
      </g>
     </g>
     <g id="text_13">
      <!-- 1.3925 -->
      <g transform="translate(48.009375 144.965872) scale(0.1 -0.1)">
       <use xlink:href="#DejaVuSans-31"/>
       <use xlink:href="#DejaVuSans-2e" x="63.623047"/>
       <use xlink:href="#DejaVuSans-33" x="95.410156"/>
       <use xlink:href="#DejaVuSans-39" x="159.033203"/>
       <use xlink:href="#DejaVuSans-32" x="222.65625"/>
       <use xlink:href="#DejaVuSans-35" x="286.279297"/>
      </g>
     </g>
    </g>
    <g id="ytick_7">
     <g id="line2d_25">
      <path d="M 90 110.216368 
L 648 110.216368 
" clip-path="url(#p8d0517e0b8)" style="fill: none; stroke: #b0b0b0; stroke-width: 0.8; stroke-linecap: square"/>
     </g>
     <g id="line2d_26">
      <g>
       <use xlink:href="#m7263d28199" x="90" y="110.216368" style="stroke: #000000; stroke-width: 0.8"/>
      </g>
     </g>
     <g id="text_14">
      <!-- 1.3950 -->
      <g transform="translate(48.009375 114.015587) scale(0.1 -0.1)">
       <use xlink:href="#DejaVuSans-31"/>
       <use xlink:href="#DejaVuSans-2e" x="63.623047"/>
       <use xlink:href="#DejaVuSans-33" x="95.410156"/>
       <use xlink:href="#DejaVuSans-39" x="159.033203"/>
       <use xlink:href="#DejaVuSans-35" x="222.65625"/>
       <use xlink:href="#DejaVuSans-30" x="286.279297"/>
      </g>
     </g>
    </g>
    <g id="ytick_8">
     <g id="line2d_27">
      <path d="M 90 79.266083 
L 648 79.266083 
" clip-path="url(#p8d0517e0b8)" style="fill: none; stroke: #b0b0b0; stroke-width: 0.8; stroke-linecap: square"/>
     </g>
     <g id="line2d_28">
      <g>
       <use xlink:href="#m7263d28199" x="90" y="79.266083" style="stroke: #000000; stroke-width: 0.8"/>
      </g>
     </g>
     <g id="text_15">
      <!-- 1.3975 -->
      <g transform="translate(48.009375 83.065302) scale(0.1 -0.1)">
       <use xlink:href="#DejaVuSans-31"/>
       <use xlink:href="#DejaVuSans-2e" x="63.623047"/>
       <use xlink:href="#DejaVuSans-33" x="95.410156"/>
       <use xlink:href="#DejaVuSans-39" x="159.033203"/>
       <use xlink:href="#DejaVuSans-37" x="222.65625"/>
       <use xlink:href="#DejaVuSans-35" x="286.279297"/>
      </g>
     </g>
    </g>
    <g id="ytick_9">
     <g id="line2d_29">
      <path d="M 90 48.315798 
L 648 48.315798 
" clip-path="url(#p8d0517e0b8)" style="fill: none; stroke: #b0b0b0; stroke-width: 0.8; stroke-linecap: square"/>
     </g>
     <g id="line2d_30">
      <g>
       <use xlink:href="#m7263d28199" x="90" y="48.315798" style="stroke: #000000; stroke-width: 0.8"/>
      </g>
     </g>
     <g id="text_16">
      <!-- 1.4000 -->
      <g transform="translate(48.009375 52.115017) scale(0.1 -0.1)">
       <use xlink:href="#DejaVuSans-31"/>
       <use xlink:href="#DejaVuSans-2e" x="63.623047"/>
       <use xlink:href="#DejaVuSans-34" x="95.410156"/>
       <use xlink:href="#DejaVuSans-30" x="159.033203"/>
       <use xlink:href="#DejaVuSans-30" x="222.65625"/>
       <use xlink:href="#DejaVuSans-30" x="286.279297"/>
      </g>
     </g>
    </g>
    <g id="text_17">
     <!-- loss -->
     <g transform="translate(41.929688 191.457812) rotate(-90) scale(0.1 -0.1)">
      <defs>
       <path id="DejaVuSans-6c" d="M 603 4863 
L 1178 4863 
L 1178 0 
L 603 0 
L 603 4863 
z
" transform="scale(0.015625)"/>
       <path id="DejaVuSans-73" d="M 2834 3397 
L 2834 2853 
Q 2591 2978 2328 3040 
Q 2066 3103 1784 3103 
Q 1356 3103 1142 2972 
Q 928 2841 928 2578 
Q 928 2378 1081 2264 
Q 1234 2150 1697 2047 
L 1894 2003 
Q 2506 1872 2764 1633 
Q 3022 1394 3022 966 
Q 3022 478 2636 193 
Q 2250 -91 1575 -91 
Q 1294 -91 989 -36 
Q 684 19 347 128 
L 347 722 
Q 666 556 975 473 
Q 1284 391 1588 391 
Q 1994 391 2212 530 
Q 2431 669 2431 922 
Q 2431 1156 2273 1281 
Q 2116 1406 1581 1522 
L 1381 1569 
Q 847 1681 609 1914 
Q 372 2147 372 2553 
Q 372 3047 722 3315 
Q 1072 3584 1716 3584 
Q 2034 3584 2315 3537 
Q 2597 3491 2834 3397 
z
" transform="scale(0.015625)"/>
      </defs>
      <use xlink:href="#DejaVuSans-6c"/>
      <use xlink:href="#DejaVuSans-6f" x="27.783203"/>
      <use xlink:href="#DejaVuSans-73" x="88.964844"/>
      <use xlink:href="#DejaVuSans-73" x="141.064453"/>
     </g>
    </g>
   </g>
   <g id="line2d_31">
    <path d="M 115.363636 207.266829 
L 116.380215 130.842729 
L 117.396794 137.42343 
L 118.413372 185.460045 
L 119.429951 203.597929 
L 120.446529 216.493684 
L 121.463108 106.997831 
L 122.479687 216.39628 
L 123.496265 205.631615 
L 124.512844 198.923993 
L 125.529422 145.220212 
L 126.546001 136.436104 
L 127.56258 209.12932 
L 128.579158 151.563306 
L 129.595737 231.136816 
L 130.612316 169.797119 
L 131.628894 137.123838 
L 132.645473 207.876345 
L 134.67863 139.586989 
L 135.695209 155.391595 
L 136.711787 219.601771 
L 137.728366 161.377539 
L 138.744944 166.761347 
L 139.761523 224.374588 
L 140.778102 195.287561 
L 141.79468 247.261675 
L 142.811259 237.665864 
L 143.827837 163.180997 
L 144.844416 129.166192 
L 145.860995 222.548993 
L 146.877573 94.288029 
L 147.894152 175.77716 
L 148.910731 163.75952 
L 149.927309 173.626883 
L 150.943888 256.461966 
L 151.960466 202.241646 
L 152.977045 203.243731 
L 153.993624 147.402956 
L 155.010202 256.2096 
L 156.026781 201.701495 
L 157.043359 201.705922 
L 158.059938 198.515189 
L 159.076517 250.847929 
L 160.093095 154.562181 
L 161.109674 123.782384 
L 162.126253 201.82694 
L 163.142831 121.310378 
L 164.15941 203.465105 
L 165.175988 232.614116 
L 166.192567 162.133162 
L 167.209146 250.632459 
L 168.225724 211.980613 
L 170.258881 158.971945 
L 171.27546 87.825394 
L 172.292039 191.361868 
L 173.308617 199.973304 
L 174.325196 158.878968 
L 175.341774 232.676101 
L 176.358353 170.744598 
L 177.374932 217.548899 
L 178.39151 225.350108 
L 179.408089 183.578369 
L 180.424668 208.320568 
L 181.441246 208.844486 
L 182.457825 221.132201 
L 183.474403 165.515751 
L 184.490982 199.694373 
L 185.507561 200.116459 
L 186.524139 193.3439 
L 187.540718 207.479348 
L 188.557296 118.441375 
L 189.573875 163.452549 
L 190.590454 216.346102 
L 191.607032 82.432731 
L 192.623611 163.080641 
L 193.640189 216.518773 
L 194.656768 199.377071 
L 195.673347 188.66406 
L 196.689925 112.55431 
L 197.706504 186.608237 
L 198.723083 91.664013 
L 199.739661 216.281166 
L 200.75624 225.34568 
L 201.772818 213.863765 
L 202.789397 223.012402 
L 203.805976 175.632529 
L 204.822554 223.66324 
L 205.839133 229.144453 
L 206.855711 245.734197 
L 207.87229 241.120769 
L 208.888869 222.426499 
L 209.905447 240.199855 
L 210.922026 165.055294 
L 211.938604 237.476958 
L 212.955183 87.999541 
L 213.971762 228.608728 
L 214.98834 149.600459 
L 216.004919 238.068764 
L 217.021498 250.210373 
L 218.038076 192.229652 
L 219.054655 193.30848 
L 220.071233 176.312884 
L 221.087812 204.670854 
L 222.104391 162.772194 
L 223.120969 204.285663 
L 224.137548 108.637472 
L 225.154126 162.83713 
L 226.170705 129.048126 
L 227.187284 121.356128 
L 228.203862 169.348468 
L 229.220441 199.48333 
L 230.237019 169.221547 
L 231.253598 190.513268 
L 232.270177 195.005678 
L 233.286755 139.461544 
L 234.303334 153.335771 
L 235.319913 140.710092 
L 236.336491 147.459038 
L 237.35307 168.66221 
L 238.369648 178.722906 
L 239.386227 148.650028 
L 240.402806 187.812509 
L 241.419384 137.510504 
L 243.452541 175.563165 
L 244.46912 180.545549 
L 245.485699 179.547892 
L 246.502277 122.917551 
L 247.518856 209.270999 
L 248.535435 163.67835 
L 249.552013 178.510387 
L 250.568592 207.318483 
L 251.58517 219.703603 
L 252.601749 181.947582 
L 253.618328 178.461685 
L 254.634906 180.769874 
L 255.651485 223.893469 
L 256.668063 102.353411 
L 257.684642 162.965527 
L 258.701221 121.428444 
L 259.717799 201.245465 
L 260.734378 204.205969 
L 261.750956 179.268961 
L 262.767535 181.028144 
L 263.784114 156.848234 
L 265.817271 187.734291 
L 266.83385 124.991084 
L 267.850428 208.345657 
L 268.867007 247.888901 
L 269.883585 184.53913 
L 270.900164 201.46979 
L 271.916743 222.572606 
L 272.933321 166.473562 
L 273.9499 161.622526 
L 274.966478 185.660757 
L 275.983057 144.119247 
L 276.999636 225.609853 
L 278.016214 182.664833 
L 279.032793 216.090784 
L 280.049371 180.00097 
L 281.06595 153.10997 
L 282.082529 174.307239 
L 283.099107 167.331016 
L 284.115686 214.86585 
L 286.148843 157.670268 
L 287.165422 218.509661 
L 288.182 189.590878 
L 289.198579 197.982417 
L 290.215158 230.441703 
L 291.231736 214.86585 
L 292.248315 211.291403 
L 293.264893 103.903027 
L 294.281472 176.1166 
L 295.298051 199.498088 
L 296.314629 171.094368 
L 297.331208 192.009754 
L 298.347786 195.628476 
L 299.364365 132.420385 
L 300.380944 202.584038 
L 301.397522 113.211052 
L 302.414101 209.992677 
L 303.43068 186.692359 
L 304.447258 211.571809 
L 305.463837 253.85566 
L 306.480415 206.986422 
L 307.496994 203.267344 
L 308.513573 144.402605 
L 309.530151 177.521585 
L 310.54673 159.851537 
L 311.563308 180.657712 
L 312.579887 186.468033 
L 313.596466 202.905767 
L 314.613044 183.745137 
L 315.629623 125.244926 
L 316.646201 243.28728 
L 317.66278 198.106386 
L 318.679359 190.740545 
L 319.695937 153.068647 
L 320.712516 200.233049 
L 321.729095 163.815602 
L 322.745673 110.141337 
L 323.762252 169.695287 
L 324.77883 140.175843 
L 325.795409 199.176359 
L 326.811988 138.199714 
L 327.828566 210.597765 
L 328.845145 106.510809 
L 329.861723 127.178256 
L 330.878302 182.582187 
L 331.894881 203.047447 
L 333.928038 150.035827 
L 334.944617 149.817405 
L 336.977774 94.572864 
L 337.994352 192.786038 
L 339.010931 126.525942 
L 340.02751 189.502329 
L 341.044088 165.388831 
L 342.060667 179.720563 
L 343.077245 218.376837 
L 344.093824 156.209202 
L 345.110403 161.967869 
L 346.126981 237.440063 
L 347.14356 225.536062 
L 348.160138 187.132154 
L 349.176717 176.680365 
L 350.193296 275.644734 
L 351.209874 200.569537 
L 352.226453 237.752938 
L 353.243032 228.353411 
L 354.25961 176.222859 
L 355.276189 167.558293 
L 356.292767 216.610275 
L 357.309346 227.655346 
L 358.325925 167.273459 
L 359.342503 218.571645 
L 360.359082 132.531072 
L 361.37566 168.544144 
L 362.392239 191.730824 
L 363.408818 146.270999 
L 364.425396 180.343361 
L 365.441975 164.141759 
L 367.475132 233.496659 
L 368.491711 185.908696 
L 369.508289 183.740709 
L 370.524868 181.048805 
L 371.541447 157.119785 
L 372.558025 142.932684 
L 373.574604 226.842166 
L 374.591182 230.331016 
L 375.607761 144.802553 
L 376.62434 250.037701 
L 377.640918 224.678608 
L 378.657497 234.289177 
L 379.674075 248.71979 
L 380.690654 204.605917 
L 381.707233 227.200792 
L 382.723811 96.045737 
L 383.74039 191.785429 
L 384.756968 156.87775 
L 386.790126 207.44688 
L 387.806704 175.427389 
L 388.823283 173.038029 
L 389.839862 179.856339 
L 390.85644 206.106831 
L 391.873019 165.604301 
L 392.889597 162.428326 
L 393.906176 164.056161 
L 394.922755 249.05923 
L 395.939333 184.900707 
L 396.955912 190.839426 
L 397.97249 177.080313 
L 398.989069 232.761699 
L 400.005648 185.765541 
L 401.022226 197.07626 
L 402.038805 135.538802 
L 403.055383 183.818928 
L 404.071962 187.021467 
L 405.088541 210.023669 
L 406.105119 184.038826 
L 407.121698 191.904971 
L 408.138277 187.014088 
L 409.154855 184.5288 
L 410.171434 165.72827 
L 411.188012 234.082562 
L 412.204591 163.822981 
L 414.237748 195.193108 
L 415.254327 167.863788 
L 416.270905 213.555318 
L 417.287484 112.219298 
L 418.304063 204.483424 
L 419.320641 160.025684 
L 420.33722 89.127071 
L 421.353799 208.881381 
L 422.370377 153.779994 
L 423.386956 180.409773 
L 424.403534 158.27388 
L 425.420113 180.52046 
L 426.436692 193.993263 
L 427.45327 151.634145 
L 428.469849 240.224944 
L 429.486427 163.358096 
L 430.503006 208.36927 
L 431.519585 152.988952 
L 432.536163 141.425867 
L 433.552742 231.362617 
L 434.56932 194.707562 
L 435.585899 186.770577 
L 436.602478 189.378359 
L 437.619056 229.041145 
L 438.635635 209.542551 
L 439.652214 196.112547 
L 440.668792 166.860228 
L 441.685371 192.123393 
L 442.701949 169.311572 
L 443.718528 181.237711 
L 444.735107 231.526434 
L 445.751685 171.997573 
L 446.768264 164.283438 
L 447.784842 200.143024 
L 448.801421 193.373416 
L 449.818 198.918089 
L 450.834578 183.185799 
L 451.851157 221.757951 
L 452.867735 223.555505 
L 453.884314 241.1311 
L 454.900893 106.134473 
L 455.917471 249.897498 
L 457.950629 137.140072 
L 458.967207 121.031447 
L 459.983786 230.038802 
L 461.000364 97.7695 
L 462.016943 176.60067 
L 463.033522 196.345727 
L 464.0501 168.911624 
L 465.066679 197.403893 
L 466.083257 197.333054 
L 467.099836 253.029198 
L 468.116415 239.092986 
L 469.132993 145.819397 
L 470.149572 172.784188 
L 471.16615 171.512027 
L 472.182729 234.43676 
L 473.199308 62.442686 
L 474.215886 238.645811 
L 475.232465 129.496777 
L 476.249044 180.575066 
L 477.265622 148.12611 
L 478.282201 146.840667 
L 479.298779 205.063423 
L 480.315358 174.580266 
L 481.331937 136.725365 
L 482.348515 229.230051 
L 483.365094 201.880069 
L 484.381672 132.023388 
L 485.398251 175.639908 
L 486.41483 227.066492 
L 487.431408 128.32202 
L 488.447987 172.945052 
L 489.464565 115.170947 
L 490.481144 221.576424 
L 491.497723 194.53489 
L 492.514301 184.134754 
L 493.53088 186.223046 
L 494.547459 185.45119 
L 495.564037 224.448379 
L 496.580616 243.89532 
L 497.597194 211.437509 
L 498.613773 160.878711 
L 499.630352 221.49673 
L 500.64693 142.708358 
L 501.663509 216.962997 
L 502.680087 183.382084 
L 503.696666 174.113906 
L 504.713245 213.78407 
L 505.729823 198.044401 
L 506.746402 123.1404 
L 507.762981 190.260902 
L 509.796138 163.645882 
L 510.812716 232.518188 
L 511.829295 176.123979 
L 512.845874 199.233916 
L 513.862452 233.805107 
L 514.879031 204.121847 
L 515.895609 181.318881 
L 516.912188 210.985907 
L 517.928767 176.870746 
L 518.945345 210.494457 
L 519.961924 196.156822 
L 520.978502 254.195099 
L 521.995081 237.605355 
L 523.01166 237.165559 
L 524.028238 174.689477 
L 525.044817 214.327174 
L 526.061396 156.243146 
L 527.077974 195.690461 
L 528.094553 162.992091 
L 529.111131 100.979418 
L 530.12771 173.039505 
L 531.144289 209.430388 
L 532.160867 139.017321 
L 533.177446 148.089215 
L 534.194024 175.690086 
L 535.210603 245.111399 
L 536.227182 208.903519 
L 537.24376 155.825487 
L 538.260339 143.584998 
L 539.276917 123.450323 
L 540.293496 55.8 
L 541.310075 136.146842 
L 542.326653 191.856269 
L 543.343232 180.780205 
L 544.359811 177.500923 
L 546.392968 220.379531 
L 547.409546 198.754273 
L 548.426125 243.02901 
L 549.442704 182.312111 
L 550.459282 129.172095 
L 551.475861 195.51041 
L 552.492439 127.780393 
L 553.509018 123.527066 
L 554.525597 142.727544 
L 555.542175 170.855285 
L 556.558754 218.75022 
L 557.575332 115.513339 
L 558.591911 231.402464 
L 559.60849 175.002352 
L 560.625068 219.294799 
L 561.641647 231.265213 
L 562.658226 178.108963 
L 563.674804 211.626415 
L 564.691383 267.287139 
L 565.707961 219.517649 
L 566.72454 149.079493 
L 567.741119 197.35224 
L 568.757697 155.754648 
L 569.774276 186.565438 
L 570.790854 240.849218 
L 571.807433 218.679381 
L 572.824012 222.348281 
L 574.857169 169.273201 
L 575.873747 169.510809 
L 576.890326 203.162561 
L 577.906905 193.960795 
L 578.923483 197.561807 
L 579.940062 235.956859 
L 580.956641 215.532923 
L 581.973219 199.123229 
L 582.989798 189.778308 
L 584.006376 115.476443 
L 585.022955 236.579657 
L 586.039534 143.24851 
L 587.056112 202.706531 
L 588.072691 203.310143 
L 589.089269 227.42069 
L 590.105848 176.991763 
L 591.122427 216.627984 
L 592.139005 192.23408 
L 593.155584 220.806044 
L 594.172163 171.399864 
L 595.188741 201.410757 
L 596.20532 160.828533 
L 597.221898 210.296697 
L 598.238477 163.542574 
L 599.255056 136.856714 
L 600.271634 179.119903 
L 601.288213 190.073473 
L 602.304791 256.315859 
L 603.32137 247.677858 
L 604.337949 171.134216 
L 605.354527 227.426593 
L 606.371106 214.991295 
L 607.387684 159.112149 
L 608.404263 174.758841 
L 609.420842 228.157126 
L 610.43742 119.841932 
L 611.453999 192.791942 
L 612.470578 110.268258 
L 613.487156 191.296931 
L 614.503735 199.081906 
L 615.520313 101.090105 
L 616.536892 191.575862 
L 617.553471 133.524302 
L 618.570049 132.392344 
L 619.586628 189.409352 
L 620.603206 209.967588 
L 621.619785 267.238437 
L 622.636364 264.561291 
L 622.636364 264.561291 
" clip-path="url(#p8d0517e0b8)" style="fill: none; stroke: #1f77b4; stroke-width: 1.5; stroke-linecap: square"/>
   </g>
   <g id="line2d_32">
    <path d="M 115.363636 307.8 
L 116.380215 307.122597 
L 117.396794 306.113132 
L 118.413372 306.0541 
L 119.429951 304.250642 
L 120.446529 304.539903 
L 121.463108 305.072676 
L 122.479687 303.626368 
L 123.496265 303.816749 
L 124.512844 304.539903 
L 125.529422 304.941328 
L 126.546001 303.312017 
L 127.56258 304.038123 
L 128.579158 303.980566 
L 129.595737 303.567335 
L 130.612316 302.639041 
L 131.628894 302.606573 
L 132.645473 301.588254 
L 133.662051 303.44189 
L 134.67863 303.725248 
L 135.695209 303.10245 
L 137.728366 303.247081 
L 138.744944 303.76362 
L 139.761523 300.876907 
L 140.778102 302.476701 
L 141.79468 301.095329 
L 142.811259 302.115124 
L 143.827837 302.54754 
L 145.860995 298.908157 
L 146.877573 299.73757 
L 147.894152 300.07701 
L 148.910731 299.982557 
L 149.927309 298.626274 
L 151.960466 302.146116 
L 152.977045 301.991154 
L 153.993624 302.61838 
L 155.010202 301.024489 
L 156.026781 301.558738 
L 157.043359 301.880468 
L 158.059938 301.01711 
L 159.076517 300.780978 
L 160.093095 303.090644 
L 161.109674 300.820826 
L 162.126253 301.784539 
L 163.142831 303.000618 
L 164.15941 301.635481 
L 165.175988 301.756498 
L 166.192567 302.551968 
L 167.209146 300.165559 
L 168.225724 301.287186 
L 169.242303 302.16235 
L 170.258881 303.726724 
L 171.27546 303.400567 
L 172.292039 302.606573 
L 173.308617 302.445708 
L 174.325196 302.878125 
L 175.341774 302.488507 
L 176.358353 303.492068 
L 177.374932 302.453088 
L 178.39151 302.569678 
L 179.408089 304.362805 
L 180.424668 303.241178 
L 181.441246 303.89792 
L 182.457825 304.386418 
L 183.474403 303.118684 
L 185.507561 304.33624 
L 186.524139 302.343876 
L 187.540718 303.596852 
L 188.557296 303.329727 
L 189.573875 304.216698 
L 190.590454 302.878125 
L 191.607032 303.409422 
L 192.623611 303.112781 
L 193.640189 302.665606 
L 194.656768 303.602755 
L 195.673347 302.084131 
L 196.689925 302.185963 
L 197.706504 301.666473 
L 198.723083 301.800773 
L 199.739661 302.211052 
L 200.75624 301.201588 
L 201.772818 301.275379 
L 202.789397 301.855379 
L 203.805976 301.365405 
L 204.822554 302.125454 
L 205.839133 302.166778 
L 206.855711 301.920315 
L 207.87229 302.509169 
L 209.905447 302.317312 
L 210.922026 302.575581 
L 211.938604 303.567335 
L 212.955183 303.69278 
L 213.971762 302.546064 
L 214.98834 303.295783 
L 216.004919 304.480871 
L 217.021498 304.395273 
L 218.038076 305.178936 
L 219.054655 305.302905 
L 220.071233 305.874049 
L 221.087812 304.759801 
L 222.104391 305.457866 
L 223.120969 304.176851 
L 224.137548 302.208101 
L 225.154126 303.737055 
L 226.170705 303.614561 
L 227.187284 302.512121 
L 228.203862 302.765962 
L 229.220441 302.256803 
L 230.237019 301.371308 
L 231.253598 301.797821 
L 232.270177 300.566984 
L 233.286755 302.85156 
L 234.303334 302.705454 
L 236.336491 303.456648 
L 238.369648 305.351607 
L 239.386227 304.023365 
L 240.402806 305.484431 
L 242.435963 304.004179 
L 243.452541 303.341534 
L 244.46912 303.165911 
L 245.485699 301.806676 
L 246.502277 302.174157 
L 247.518856 302.398482 
L 248.535435 303.602755 
L 249.552013 302.919448 
L 250.568592 303.136394 
L 251.58517 303.598327 
L 252.601749 304.317054 
L 253.618328 303.751813 
L 254.634906 302.872222 
L 255.651485 302.597718 
L 256.668063 302.73497 
L 257.684642 303.598327 
L 258.701221 302.447184 
L 259.717799 302.895835 
L 260.734378 302.857463 
L 261.750956 303.579142 
L 262.767535 302.842705 
L 263.784114 303.76362 
L 264.800692 302.287795 
L 265.817271 302.435378 
L 266.83385 303.937767 
L 267.850428 302.611001 
L 268.867007 302.827947 
L 269.883585 303.737055 
L 270.900164 303.982042 
L 271.916743 303.982042 
L 272.933321 303.500923 
L 273.9499 301.725506 
L 274.966478 301.47314 
L 275.983057 302.146116 
L 276.999636 300.775075 
L 278.016214 301.062861 
L 279.032793 301.57202 
L 280.049371 301.251766 
L 281.06595 303.577666 
L 282.082529 302.878125 
L 283.099107 300.062252 
L 284.115686 300.590597 
L 285.132265 301.99263 
L 286.148843 302.622807 
L 287.165422 303.976138 
L 288.182 303.565859 
L 289.198579 302.988812 
L 290.215158 302.764487 
L 291.231736 302.339449 
L 292.248315 303.630796 
L 293.264893 304.476443 
L 294.281472 301.837669 
L 295.298051 302.156447 
L 296.314629 300.899044 
L 297.331208 300.785406 
L 298.347786 302.166778 
L 299.364365 302.733494 
L 300.380944 301.270952 
L 301.397522 301.05253 
L 302.414101 301.907032 
L 303.43068 302.026574 
L 304.447258 302.001485 
L 305.463837 302.205149 
L 306.480415 302.83385 
L 307.496994 304.383466 
L 308.513573 305.590691 
L 309.530151 304.953134 
L 310.54673 304.575323 
L 311.563308 305.67924 
L 312.579887 305.307332 
L 313.596466 304.528097 
L 314.613044 304.011558 
L 315.629623 303.025707 
L 316.646201 303.013901 
L 317.66278 305.456391 
L 318.679359 304.145858 
L 319.695937 304.111914 
L 320.712516 302.488507 
L 321.729095 301.304896 
L 322.745673 302.038381 
L 323.762252 301.406728 
L 324.77883 301.440672 
L 326.811988 304.849827 
L 327.828566 303.632271 
L 328.845145 303.455172 
L 329.861723 302.835326 
L 330.878302 302.433902 
L 331.894881 304.430692 
L 332.911459 303.734103 
L 333.928038 304.979699 
L 334.944617 304.796697 
L 335.961195 302.764487 
L 336.977774 303.531915 
L 337.994352 303.140822 
L 339.010931 304.956086 
L 340.02751 305.472625 
L 341.044088 304.519242 
L 342.060667 304.06764 
L 343.077245 304.110439 
L 344.093824 304.342143 
L 345.110403 303.602755 
L 346.126981 303.326776 
L 347.14356 305.366365 
L 349.176717 302.355683 
L 350.193296 302.54754 
L 351.209874 303.118684 
L 352.226453 304.534 
L 353.243032 304.483822 
L 354.25961 305.534609 
L 355.276189 304.086825 
L 356.292767 303.626368 
L 357.309346 304.618122 
L 358.325925 305.271912 
L 359.342503 304.185706 
L 360.359082 304.187181 
L 361.37566 304.764229 
L 362.392239 303.660312 
L 363.408818 302.031002 
L 364.425396 302.23319 
L 365.441975 302.103317 
L 366.458553 302.476701 
L 367.475132 303.238226 
L 368.491711 302.497362 
L 369.508289 304.362805 
L 370.524868 302.166778 
L 371.541447 302.810237 
L 372.558025 300.621589 
L 373.574604 300.655533 
L 375.607761 302.327642 
L 376.62434 302.563774 
L 377.640918 303.793136 
L 378.657497 302.54754 
L 380.690654 301.033344 
L 381.707233 304.90886 
L 382.723811 305.322091 
L 383.74039 304.501532 
L 384.756968 304.513339 
L 385.773547 305.484431 
L 386.790126 306.169214 
L 387.806704 306.418628 
L 390.85644 304.06764 
L 391.873019 304.941328 
L 392.889597 304.507435 
L 393.906176 305.233541 
L 394.922755 304.902956 
L 395.939333 305.590691 
L 396.955912 304.671252 
L 397.97249 303.952525 
L 398.989069 302.718736 
L 400.005648 303.968759 
L 401.022226 305.584787 
L 402.038805 305.62611 
L 403.055383 305.090386 
L 404.071962 303.804943 
L 405.088541 305.121378 
L 406.105119 304.681583 
L 407.121698 303.660312 
L 408.138277 303.618989 
L 409.154855 302.718736 
L 410.171434 303.010949 
L 411.188012 302.760059 
L 412.204591 303.449269 
L 413.22117 302.836802 
L 414.237748 303.93334 
L 415.254327 303.931864 
L 416.270905 303.374002 
L 417.287484 303.642602 
L 419.320641 301.766829 
L 420.33722 301.334412 
L 421.353799 302.113648 
L 422.370377 302.581484 
L 423.386956 302.08118 
L 424.403534 301.266525 
L 425.420113 302.433902 
L 426.436692 301.334412 
L 427.45327 301.690086 
L 428.469849 300.599452 
L 429.486427 303.79904 
L 430.503006 301.118942 
L 431.519585 301.355074 
L 432.536163 303.396139 
L 433.552742 301.272428 
L 434.56932 302.839754 
L 435.585899 302.280416 
L 436.602478 303.17329 
L 437.619056 303.669167 
L 438.635635 303.80937 
L 439.652214 303.232323 
L 440.668792 302.966674 
L 441.685371 300.705711 
L 442.701949 301.949831 
L 443.718528 301.306372 
L 444.735107 300.3279 
L 445.751685 303.099499 
L 446.768264 301.608916 
L 447.784842 302.038381 
L 448.801421 300.714566 
L 449.818 304.008607 
L 450.834578 303.67507 
L 451.851157 301.579399 
L 452.867735 301.856854 
L 454.900893 303.331203 
L 455.917471 303.090644 
L 456.93405 303.152628 
L 457.950629 304.8026 
L 458.967207 303.654409 
L 459.983786 301.939501 
L 461.000364 299.350904 
L 462.016943 300.443014 
L 465.066679 300.298384 
L 466.083257 301.300469 
L 467.099836 301.541028 
L 469.132993 302.659703 
L 470.149572 300.372175 
L 471.16615 299.765611 
L 472.182729 300.947746 
L 473.199308 303.645554 
L 474.215886 303.562908 
L 475.232465 303.984993 
L 476.249044 302.020671 
L 477.265622 303.006522 
L 479.298779 302.327642 
L 480.315358 302.813189 
L 481.331937 304.259497 
L 482.348515 301.555786 
L 483.365094 302.66413 
L 484.381672 302.399958 
L 485.398251 301.166168 
L 487.431408 303.37843 
L 488.447987 302.599194 
L 489.464565 302.095938 
L 490.481144 300.679146 
L 491.497723 301.969017 
L 492.514301 300.321997 
L 493.53088 302.02805 
L 494.547459 301.170596 
L 495.564037 301.217822 
L 496.580616 300.268867 
L 498.613773 299.917621 
L 499.630352 300.575839 
L 500.64693 301.809628 
L 501.663509 302.835326 
L 502.680087 302.326167 
L 503.696666 302.103317 
L 505.729823 300.696856 
L 506.746402 301.896702 
L 507.762981 302.311408 
L 508.779559 302.113648 
L 509.796138 302.240569 
L 510.812716 300.767696 
L 511.829295 301.963114 
L 512.845874 300.265915 
L 513.862452 300.575839 
L 514.879031 299.860064 
L 515.895609 299.97813 
L 516.912188 300.70276 
L 517.928767 301.878992 
L 518.945345 301.836193 
L 520.978502 301.520366 
L 521.995081 301.60744 
L 523.01166 303.973187 
L 524.028238 305.381124 
L 525.044817 305.348655 
L 526.061396 304.241787 
L 527.077974 303.571763 
L 528.094553 304.594509 
L 529.111131 304.770132 
L 531.144289 304.322957 
L 532.160867 304.675679 
L 535.210603 302.268609 
L 536.227182 302.900262 
L 538.260339 302.966674 
L 539.276917 302.308457 
L 540.293496 303.069982 
L 541.310075 301.713699 
L 543.343232 302.954868 
L 544.359811 301.601537 
L 545.376389 304.511863 
L 546.392968 303.030135 
L 547.409546 302.293698 
L 548.426125 303.043417 
L 549.442704 303.468455 
L 550.459282 303.019804 
L 551.475861 302.435378 
L 552.492439 303.748862 
L 553.509018 301.163217 
L 554.525597 302.157923 
L 555.542175 300.856245 
L 556.558754 301.107135 
L 557.575332 300.504999 
L 558.591911 301.969017 
L 559.60849 303.108354 
L 560.625068 302.02805 
L 561.641647 303.034562 
L 562.658226 303.205758 
L 564.691383 303.875782 
L 565.707961 305.59807 
L 566.72454 304.458733 
L 567.741119 304.123721 
L 568.757697 304.228504 
L 569.774276 304.646163 
L 570.790854 303.787233 
L 571.807433 304.746519 
L 572.824012 305.08891 
L 573.84059 305.835677 
L 574.857169 305.165653 
L 575.873747 306.318272 
L 576.890326 305.763362 
L 577.906905 304.660921 
L 578.923483 306.389112 
L 579.940062 305.73237 
L 581.973219 305.218783 
L 582.989798 306.133794 
L 584.006376 306.548501 
L 585.022955 304.439547 
L 586.039534 305.826823 
L 587.056112 303.449269 
L 588.072691 302.703978 
L 589.089269 302.528355 
L 590.105848 303.899396 
L 591.122427 302.727591 
L 592.139005 303.896444 
L 593.155584 302.054615 
L 594.172163 302.588863 
L 595.188741 303.518633 
L 596.20532 303.213137 
L 597.221898 302.677413 
L 598.238477 302.516548 
L 599.255056 304.035171 
L 600.271634 303.790185 
L 601.288213 303.034562 
L 602.304791 302.482604 
L 603.32137 302.103317 
L 604.337949 302.56525 
L 605.354527 302.727591 
L 606.371106 304.811455 
L 607.387684 303.642602 
L 608.404263 303.621941 
L 609.420842 303.248557 
L 610.43742 305.041684 
L 611.453999 305.102193 
L 612.470578 305.274864 
L 613.487156 305.75008 
L 614.503735 304.315578 
L 615.520313 304.712575 
L 616.536892 304.287537 
L 617.553471 304.026317 
L 618.570049 304.070591 
L 619.586628 302.506217 
L 620.603206 304.764229 
L 621.619785 303.028659 
L 622.636364 303.661788 
L 622.636364 303.661788 
" clip-path="url(#p8d0517e0b8)" style="fill: none; stroke: #ff7f0e; stroke-width: 1.5; stroke-linecap: square"/>
   </g>
   <g id="patch_3">
    <path d="M 90 320.4 
L 90 43.2 
" style="fill: none; stroke: #000000; stroke-width: 0.8; stroke-linejoin: miter; stroke-linecap: square"/>
   </g>
   <g id="patch_4">
    <path d="M 648 320.4 
L 648 43.2 
" style="fill: none; stroke: #000000; stroke-width: 0.8; stroke-linejoin: miter; stroke-linecap: square"/>
   </g>
   <g id="patch_5">
    <path d="M 90 320.4 
L 648 320.4 
" style="fill: none; stroke: #000000; stroke-width: 0.8; stroke-linejoin: miter; stroke-linecap: square"/>
   </g>
   <g id="patch_6">
    <path d="M 90 43.2 
L 648 43.2 
" style="fill: none; stroke: #000000; stroke-width: 0.8; stroke-linejoin: miter; stroke-linecap: square"/>
   </g>
   <g id="text_18">
    <!-- model train and validation loss over time -->
    <g transform="translate(245.555625 37.2) scale(0.12 -0.12)">
     <defs>
      <path id="DejaVuSans-6d" d="M 3328 2828 
Q 3544 3216 3844 3400 
Q 4144 3584 4550 3584 
Q 5097 3584 5394 3201 
Q 5691 2819 5691 2113 
L 5691 0 
L 5113 0 
L 5113 2094 
Q 5113 2597 4934 2840 
Q 4756 3084 4391 3084 
Q 3944 3084 3684 2787 
Q 3425 2491 3425 1978 
L 3425 0 
L 2847 0 
L 2847 2094 
Q 2847 2600 2669 2842 
Q 2491 3084 2119 3084 
Q 1678 3084 1418 2786 
Q 1159 2488 1159 1978 
L 1159 0 
L 581 0 
L 581 3500 
L 1159 3500 
L 1159 2956 
Q 1356 3278 1631 3431 
Q 1906 3584 2284 3584 
Q 2666 3584 2933 3390 
Q 3200 3197 3328 2828 
z
" transform="scale(0.015625)"/>
      <path id="DejaVuSans-64" d="M 2906 2969 
L 2906 4863 
L 3481 4863 
L 3481 0 
L 2906 0 
L 2906 525 
Q 2725 213 2448 61 
Q 2172 -91 1784 -91 
Q 1150 -91 751 415 
Q 353 922 353 1747 
Q 353 2572 751 3078 
Q 1150 3584 1784 3584 
Q 2172 3584 2448 3432 
Q 2725 3281 2906 2969 
z
M 947 1747 
Q 947 1113 1208 752 
Q 1469 391 1925 391 
Q 2381 391 2643 752 
Q 2906 1113 2906 1747 
Q 2906 2381 2643 2742 
Q 2381 3103 1925 3103 
Q 1469 3103 1208 2742 
Q 947 2381 947 1747 
z
" transform="scale(0.015625)"/>
      <path id="DejaVuSans-20" transform="scale(0.015625)"/>
      <path id="DejaVuSans-74" d="M 1172 4494 
L 1172 3500 
L 2356 3500 
L 2356 3053 
L 1172 3053 
L 1172 1153 
Q 1172 725 1289 603 
Q 1406 481 1766 481 
L 2356 481 
L 2356 0 
L 1766 0 
Q 1100 0 847 248 
Q 594 497 594 1153 
L 594 3053 
L 172 3053 
L 172 3500 
L 594 3500 
L 594 4494 
L 1172 4494 
z
" transform="scale(0.015625)"/>
      <path id="DejaVuSans-72" d="M 2631 2963 
Q 2534 3019 2420 3045 
Q 2306 3072 2169 3072 
Q 1681 3072 1420 2755 
Q 1159 2438 1159 1844 
L 1159 0 
L 581 0 
L 581 3500 
L 1159 3500 
L 1159 2956 
Q 1341 3275 1631 3429 
Q 1922 3584 2338 3584 
Q 2397 3584 2469 3576 
Q 2541 3569 2628 3553 
L 2631 2963 
z
" transform="scale(0.015625)"/>
      <path id="DejaVuSans-61" d="M 2194 1759 
Q 1497 1759 1228 1600 
Q 959 1441 959 1056 
Q 959 750 1161 570 
Q 1363 391 1709 391 
Q 2188 391 2477 730 
Q 2766 1069 2766 1631 
L 2766 1759 
L 2194 1759 
z
M 3341 1997 
L 3341 0 
L 2766 0 
L 2766 531 
Q 2569 213 2275 61 
Q 1981 -91 1556 -91 
Q 1019 -91 701 211 
Q 384 513 384 1019 
Q 384 1609 779 1909 
Q 1175 2209 1959 2209 
L 2766 2209 
L 2766 2266 
Q 2766 2663 2505 2880 
Q 2244 3097 1772 3097 
Q 1472 3097 1187 3025 
Q 903 2953 641 2809 
L 641 3341 
Q 956 3463 1253 3523 
Q 1550 3584 1831 3584 
Q 2591 3584 2966 3190 
Q 3341 2797 3341 1997 
z
" transform="scale(0.015625)"/>
      <path id="DejaVuSans-69" d="M 603 3500 
L 1178 3500 
L 1178 0 
L 603 0 
L 603 3500 
z
M 603 4863 
L 1178 4863 
L 1178 4134 
L 603 4134 
L 603 4863 
z
" transform="scale(0.015625)"/>
      <path id="DejaVuSans-6e" d="M 3513 2113 
L 3513 0 
L 2938 0 
L 2938 2094 
Q 2938 2591 2744 2837 
Q 2550 3084 2163 3084 
Q 1697 3084 1428 2787 
Q 1159 2491 1159 1978 
L 1159 0 
L 581 0 
L 581 3500 
L 1159 3500 
L 1159 2956 
Q 1366 3272 1645 3428 
Q 1925 3584 2291 3584 
Q 2894 3584 3203 3211 
Q 3513 2838 3513 2113 
z
" transform="scale(0.015625)"/>
      <path id="DejaVuSans-76" d="M 191 3500 
L 800 3500 
L 1894 563 
L 2988 3500 
L 3597 3500 
L 2284 0 
L 1503 0 
L 191 3500 
z
" transform="scale(0.015625)"/>
     </defs>
     <use xlink:href="#DejaVuSans-6d"/>
     <use xlink:href="#DejaVuSans-6f" x="97.412109"/>
     <use xlink:href="#DejaVuSans-64" x="158.59375"/>
     <use xlink:href="#DejaVuSans-65" x="222.070312"/>
     <use xlink:href="#DejaVuSans-6c" x="283.59375"/>
     <use xlink:href="#DejaVuSans-20" x="311.376953"/>
     <use xlink:href="#DejaVuSans-74" x="343.164062"/>
     <use xlink:href="#DejaVuSans-72" x="382.373047"/>
     <use xlink:href="#DejaVuSans-61" x="423.486328"/>
     <use xlink:href="#DejaVuSans-69" x="484.765625"/>
     <use xlink:href="#DejaVuSans-6e" x="512.548828"/>
     <use xlink:href="#DejaVuSans-20" x="575.927734"/>
     <use xlink:href="#DejaVuSans-61" x="607.714844"/>
     <use xlink:href="#DejaVuSans-6e" x="668.994141"/>
     <use xlink:href="#DejaVuSans-64" x="732.373047"/>
     <use xlink:href="#DejaVuSans-20" x="795.849609"/>
     <use xlink:href="#DejaVuSans-76" x="827.636719"/>
     <use xlink:href="#DejaVuSans-61" x="886.816406"/>
     <use xlink:href="#DejaVuSans-6c" x="948.095703"/>
     <use xlink:href="#DejaVuSans-69" x="975.878906"/>
     <use xlink:href="#DejaVuSans-64" x="1003.662109"/>
     <use xlink:href="#DejaVuSans-61" x="1067.138672"/>
     <use xlink:href="#DejaVuSans-74" x="1128.417969"/>
     <use xlink:href="#DejaVuSans-69" x="1167.626953"/>
     <use xlink:href="#DejaVuSans-6f" x="1195.410156"/>
     <use xlink:href="#DejaVuSans-6e" x="1256.591797"/>
     <use xlink:href="#DejaVuSans-20" x="1319.970703"/>
     <use xlink:href="#DejaVuSans-6c" x="1351.757812"/>
     <use xlink:href="#DejaVuSans-6f" x="1379.541016"/>
     <use xlink:href="#DejaVuSans-73" x="1440.722656"/>
     <use xlink:href="#DejaVuSans-73" x="1492.822266"/>
     <use xlink:href="#DejaVuSans-20" x="1544.921875"/>
     <use xlink:href="#DejaVuSans-6f" x="1576.708984"/>
     <use xlink:href="#DejaVuSans-76" x="1637.890625"/>
     <use xlink:href="#DejaVuSans-65" x="1697.070312"/>
     <use xlink:href="#DejaVuSans-72" x="1758.59375"/>
     <use xlink:href="#DejaVuSans-20" x="1799.707031"/>
     <use xlink:href="#DejaVuSans-74" x="1831.494141"/>
     <use xlink:href="#DejaVuSans-69" x="1870.703125"/>
     <use xlink:href="#DejaVuSans-6d" x="1898.486328"/>
     <use xlink:href="#DejaVuSans-65" x="1995.898438"/>
    </g>
   </g>
   <g id="legend_1">
    <g id="patch_7">
     <path d="M 559.765625 80.55625 
L 641 80.55625 
Q 643 80.55625 643 78.55625 
L 643 50.2 
Q 643 48.2 641 48.2 
L 559.765625 48.2 
Q 557.765625 48.2 557.765625 50.2 
L 557.765625 78.55625 
Q 557.765625 80.55625 559.765625 80.55625 
z
" style="fill: #ffffff; opacity: 0.8; stroke: #cccccc; stroke-linejoin: miter"/>
    </g>
    <g id="line2d_33">
     <path d="M 561.765625 56.298437 
L 571.765625 56.298437 
L 581.765625 56.298437 
" style="fill: none; stroke: #1f77b4; stroke-width: 1.5; stroke-linecap: square"/>
    </g>
    <g id="text_19">
     <!-- train -->
     <g transform="translate(589.765625 59.798437) scale(0.1 -0.1)">
      <use xlink:href="#DejaVuSans-74"/>
      <use xlink:href="#DejaVuSans-72" x="39.208984"/>
      <use xlink:href="#DejaVuSans-61" x="80.322266"/>
      <use xlink:href="#DejaVuSans-69" x="141.601562"/>
      <use xlink:href="#DejaVuSans-6e" x="169.384766"/>
     </g>
    </g>
    <g id="line2d_34">
     <path d="M 561.765625 70.976562 
L 571.765625 70.976562 
L 581.765625 70.976562 
" style="fill: none; stroke: #ff7f0e; stroke-width: 1.5; stroke-linecap: square"/>
    </g>
    <g id="text_20">
     <!-- validation -->
     <g transform="translate(589.765625 74.476562) scale(0.1 -0.1)">
      <use xlink:href="#DejaVuSans-76"/>
      <use xlink:href="#DejaVuSans-61" x="59.179688"/>
      <use xlink:href="#DejaVuSans-6c" x="120.458984"/>
      <use xlink:href="#DejaVuSans-69" x="148.242188"/>
      <use xlink:href="#DejaVuSans-64" x="176.025391"/>
      <use xlink:href="#DejaVuSans-61" x="239.501953"/>
      <use xlink:href="#DejaVuSans-74" x="300.78125"/>
      <use xlink:href="#DejaVuSans-69" x="339.990234"/>
      <use xlink:href="#DejaVuSans-6f" x="367.773438"/>
      <use xlink:href="#DejaVuSans-6e" x="428.955078"/>
     </g>
    </g>
   </g>
  </g>
 </g>
 <defs>
  <clipPath id="p8d0517e0b8">
   <rect x="90" y="43.2" width="558" height="277.2"/>
  </clipPath>
 </defs>
</svg>
