<?xml version="1.0" encoding="utf-8" standalone="no"?>
<!DOCTYPE svg PUBLIC "-//W3C//DTD SVG 1.1//EN"
  "http://www.w3.org/Graphics/SVG/1.1/DTD/svg11.dtd">
<svg xmlns:xlink="http://www.w3.org/1999/xlink" width="720pt" height="360pt" viewBox="0 0 720 360" xmlns="http://www.w3.org/2000/svg" version="1.1">
 <metadata>
  <rdf:RDF xmlns:dc="http://purl.org/dc/elements/1.1/" xmlns:cc="http://creativecommons.org/ns#" xmlns:rdf="http://www.w3.org/1999/02/22-rdf-syntax-ns#">
   <cc:Work>
    <dc:type rdf:resource="http://purl.org/dc/dcmitype/StillImage"/>
    <dc:date>2023-05-24T11:25:30.045516</dc:date>
    <dc:format>image/svg+xml</dc:format>
    <dc:creator>
     <cc:Agent>
      <dc:title>Matplotlib v3.7.1, https://matplotlib.org/</dc:title>
     </cc:Agent>
    </dc:creator>
   </cc:Work>
  </rdf:RDF>
 </metadata>
 <defs>
  <style type="text/css">*{stroke-linejoin: round; stroke-linecap: butt}</style>
 </defs>
 <g id="figure_1">
  <g id="patch_1">
   <path d="M 0 360 
L 720 360 
L 720 0 
L 0 0 
z
" style="fill: #ffffff"/>
  </g>
  <g id="axes_1">
   <g id="patch_2">
    <path d="M 90 320.4 
L 648 320.4 
L 648 43.2 
L 90 43.2 
z
" style="fill: #ffffff"/>
   </g>
   <g id="matplotlib.axis_1">
    <g id="xtick_1">
     <g id="line2d_1">
      <path d="M 115.363636 320.4 
L 115.363636 43.2 
" clip-path="url(#p581fe556f7)" style="fill: none; stroke: #b0b0b0; stroke-width: 0.8; stroke-linecap: square"/>
     </g>
     <g id="line2d_2">
      <defs>
       <path id="mbc3ec3f201" d="M 0 0 
L 0 3.5 
" style="stroke: #000000; stroke-width: 0.8"/>
      </defs>
      <g>
       <use xlink:href="#mbc3ec3f201" x="115.363636" y="320.4" style="stroke: #000000; stroke-width: 0.8"/>
      </g>
     </g>
     <g id="text_1">
      <!-- 0 -->
      <g transform="translate(112.182386 334.998438) scale(0.1 -0.1)">
       <defs>
        <path id="DejaVuSans-30" d="M 2034 4250 
Q 1547 4250 1301 3770 
Q 1056 3291 1056 2328 
Q 1056 1369 1301 889 
Q 1547 409 2034 409 
Q 2525 409 2770 889 
Q 3016 1369 3016 2328 
Q 3016 3291 2770 3770 
Q 2525 4250 2034 4250 
z
M 2034 4750 
Q 2819 4750 3233 4129 
Q 3647 3509 3647 2328 
Q 3647 1150 3233 529 
Q 2819 -91 2034 -91 
Q 1250 -91 836 529 
Q 422 1150 422 2328 
Q 422 3509 836 4129 
Q 1250 4750 2034 4750 
z
" transform="scale(0.015625)"/>
       </defs>
       <use xlink:href="#DejaVuSans-30"/>
      </g>
     </g>
    </g>
    <g id="xtick_2">
     <g id="line2d_3">
      <path d="M 217.021498 320.4 
L 217.021498 43.2 
" clip-path="url(#p581fe556f7)" style="fill: none; stroke: #b0b0b0; stroke-width: 0.8; stroke-linecap: square"/>
     </g>
     <g id="line2d_4">
      <g>
       <use xlink:href="#mbc3ec3f201" x="217.021498" y="320.4" style="stroke: #000000; stroke-width: 0.8"/>
      </g>
     </g>
     <g id="text_2">
      <!-- 100 -->
      <g transform="translate(207.477748 334.998438) scale(0.1 -0.1)">
       <defs>
        <path id="DejaVuSans-31" d="M 794 531 
L 1825 531 
L 1825 4091 
L 703 3866 
L 703 4441 
L 1819 4666 
L 2450 4666 
L 2450 531 
L 3481 531 
L 3481 0 
L 794 0 
L 794 531 
z
" transform="scale(0.015625)"/>
       </defs>
       <use xlink:href="#DejaVuSans-31"/>
       <use xlink:href="#DejaVuSans-30" x="63.623047"/>
       <use xlink:href="#DejaVuSans-30" x="127.246094"/>
      </g>
     </g>
    </g>
    <g id="xtick_3">
     <g id="line2d_5">
      <path d="M 318.679359 320.4 
L 318.679359 43.2 
" clip-path="url(#p581fe556f7)" style="fill: none; stroke: #b0b0b0; stroke-width: 0.8; stroke-linecap: square"/>
     </g>
     <g id="line2d_6">
      <g>
       <use xlink:href="#mbc3ec3f201" x="318.679359" y="320.4" style="stroke: #000000; stroke-width: 0.8"/>
      </g>
     </g>
     <g id="text_3">
      <!-- 200 -->
      <g transform="translate(309.135609 334.998438) scale(0.1 -0.1)">
       <defs>
        <path id="DejaVuSans-32" d="M 1228 531 
L 3431 531 
L 3431 0 
L 469 0 
L 469 531 
Q 828 903 1448 1529 
Q 2069 2156 2228 2338 
Q 2531 2678 2651 2914 
Q 2772 3150 2772 3378 
Q 2772 3750 2511 3984 
Q 2250 4219 1831 4219 
Q 1534 4219 1204 4116 
Q 875 4013 500 3803 
L 500 4441 
Q 881 4594 1212 4672 
Q 1544 4750 1819 4750 
Q 2544 4750 2975 4387 
Q 3406 4025 3406 3419 
Q 3406 3131 3298 2873 
Q 3191 2616 2906 2266 
Q 2828 2175 2409 1742 
Q 1991 1309 1228 531 
z
" transform="scale(0.015625)"/>
       </defs>
       <use xlink:href="#DejaVuSans-32"/>
       <use xlink:href="#DejaVuSans-30" x="63.623047"/>
       <use xlink:href="#DejaVuSans-30" x="127.246094"/>
      </g>
     </g>
    </g>
    <g id="xtick_4">
     <g id="line2d_7">
      <path d="M 420.33722 320.4 
L 420.33722 43.2 
" clip-path="url(#p581fe556f7)" style="fill: none; stroke: #b0b0b0; stroke-width: 0.8; stroke-linecap: square"/>
     </g>
     <g id="line2d_8">
      <g>
       <use xlink:href="#mbc3ec3f201" x="420.33722" y="320.4" style="stroke: #000000; stroke-width: 0.8"/>
      </g>
     </g>
     <g id="text_4">
      <!-- 300 -->
      <g transform="translate(410.79347 334.998438) scale(0.1 -0.1)">
       <defs>
        <path id="DejaVuSans-33" d="M 2597 2516 
Q 3050 2419 3304 2112 
Q 3559 1806 3559 1356 
Q 3559 666 3084 287 
Q 2609 -91 1734 -91 
Q 1441 -91 1130 -33 
Q 819 25 488 141 
L 488 750 
Q 750 597 1062 519 
Q 1375 441 1716 441 
Q 2309 441 2620 675 
Q 2931 909 2931 1356 
Q 2931 1769 2642 2001 
Q 2353 2234 1838 2234 
L 1294 2234 
L 1294 2753 
L 1863 2753 
Q 2328 2753 2575 2939 
Q 2822 3125 2822 3475 
Q 2822 3834 2567 4026 
Q 2313 4219 1838 4219 
Q 1578 4219 1281 4162 
Q 984 4106 628 3988 
L 628 4550 
Q 988 4650 1302 4700 
Q 1616 4750 1894 4750 
Q 2613 4750 3031 4423 
Q 3450 4097 3450 3541 
Q 3450 3153 3228 2886 
Q 3006 2619 2597 2516 
z
" transform="scale(0.015625)"/>
       </defs>
       <use xlink:href="#DejaVuSans-33"/>
       <use xlink:href="#DejaVuSans-30" x="63.623047"/>
       <use xlink:href="#DejaVuSans-30" x="127.246094"/>
      </g>
     </g>
    </g>
    <g id="xtick_5">
     <g id="line2d_9">
      <path d="M 521.995081 320.4 
L 521.995081 43.2 
" clip-path="url(#p581fe556f7)" style="fill: none; stroke: #b0b0b0; stroke-width: 0.8; stroke-linecap: square"/>
     </g>
     <g id="line2d_10">
      <g>
       <use xlink:href="#mbc3ec3f201" x="521.995081" y="320.4" style="stroke: #000000; stroke-width: 0.8"/>
      </g>
     </g>
     <g id="text_5">
      <!-- 400 -->
      <g transform="translate(512.451331 334.998438) scale(0.1 -0.1)">
       <defs>
        <path id="DejaVuSans-34" d="M 2419 4116 
L 825 1625 
L 2419 1625 
L 2419 4116 
z
M 2253 4666 
L 3047 4666 
L 3047 1625 
L 3713 1625 
L 3713 1100 
L 3047 1100 
L 3047 0 
L 2419 0 
L 2419 1100 
L 313 1100 
L 313 1709 
L 2253 4666 
z
" transform="scale(0.015625)"/>
       </defs>
       <use xlink:href="#DejaVuSans-34"/>
       <use xlink:href="#DejaVuSans-30" x="63.623047"/>
       <use xlink:href="#DejaVuSans-30" x="127.246094"/>
      </g>
     </g>
    </g>
    <g id="xtick_6">
     <g id="line2d_11">
      <path d="M 623.652942 320.4 
L 623.652942 43.2 
" clip-path="url(#p581fe556f7)" style="fill: none; stroke: #b0b0b0; stroke-width: 0.8; stroke-linecap: square"/>
     </g>
     <g id="line2d_12">
      <g>
       <use xlink:href="#mbc3ec3f201" x="623.652942" y="320.4" style="stroke: #000000; stroke-width: 0.8"/>
      </g>
     </g>
     <g id="text_6">
      <!-- 500 -->
      <g transform="translate(614.109192 334.998438) scale(0.1 -0.1)">
       <defs>
        <path id="DejaVuSans-35" d="M 691 4666 
L 3169 4666 
L 3169 4134 
L 1269 4134 
L 1269 2991 
Q 1406 3038 1543 3061 
Q 1681 3084 1819 3084 
Q 2600 3084 3056 2656 
Q 3513 2228 3513 1497 
Q 3513 744 3044 326 
Q 2575 -91 1722 -91 
Q 1428 -91 1123 -41 
Q 819 9 494 109 
L 494 744 
Q 775 591 1075 516 
Q 1375 441 1709 441 
Q 2250 441 2565 725 
Q 2881 1009 2881 1497 
Q 2881 1984 2565 2268 
Q 2250 2553 1709 2553 
Q 1456 2553 1204 2497 
Q 953 2441 691 2322 
L 691 4666 
z
" transform="scale(0.015625)"/>
       </defs>
       <use xlink:href="#DejaVuSans-35"/>
       <use xlink:href="#DejaVuSans-30" x="63.623047"/>
       <use xlink:href="#DejaVuSans-30" x="127.246094"/>
      </g>
     </g>
    </g>
    <g id="text_7">
     <!-- epoch -->
     <g transform="translate(353.771875 348.676562) scale(0.1 -0.1)">
      <defs>
       <path id="DejaVuSans-65" d="M 3597 1894 
L 3597 1613 
L 953 1613 
Q 991 1019 1311 708 
Q 1631 397 2203 397 
Q 2534 397 2845 478 
Q 3156 559 3463 722 
L 3463 178 
Q 3153 47 2828 -22 
Q 2503 -91 2169 -91 
Q 1331 -91 842 396 
Q 353 884 353 1716 
Q 353 2575 817 3079 
Q 1281 3584 2069 3584 
Q 2775 3584 3186 3129 
Q 3597 2675 3597 1894 
z
M 3022 2063 
Q 3016 2534 2758 2815 
Q 2500 3097 2075 3097 
Q 1594 3097 1305 2825 
Q 1016 2553 972 2059 
L 3022 2063 
z
" transform="scale(0.015625)"/>
       <path id="DejaVuSans-70" d="M 1159 525 
L 1159 -1331 
L 581 -1331 
L 581 3500 
L 1159 3500 
L 1159 2969 
Q 1341 3281 1617 3432 
Q 1894 3584 2278 3584 
Q 2916 3584 3314 3078 
Q 3713 2572 3713 1747 
Q 3713 922 3314 415 
Q 2916 -91 2278 -91 
Q 1894 -91 1617 61 
Q 1341 213 1159 525 
z
M 3116 1747 
Q 3116 2381 2855 2742 
Q 2594 3103 2138 3103 
Q 1681 3103 1420 2742 
Q 1159 2381 1159 1747 
Q 1159 1113 1420 752 
Q 1681 391 2138 391 
Q 2594 391 2855 752 
Q 3116 1113 3116 1747 
z
" transform="scale(0.015625)"/>
       <path id="DejaVuSans-6f" d="M 1959 3097 
Q 1497 3097 1228 2736 
Q 959 2375 959 1747 
Q 959 1119 1226 758 
Q 1494 397 1959 397 
Q 2419 397 2687 759 
Q 2956 1122 2956 1747 
Q 2956 2369 2687 2733 
Q 2419 3097 1959 3097 
z
M 1959 3584 
Q 2709 3584 3137 3096 
Q 3566 2609 3566 1747 
Q 3566 888 3137 398 
Q 2709 -91 1959 -91 
Q 1206 -91 779 398 
Q 353 888 353 1747 
Q 353 2609 779 3096 
Q 1206 3584 1959 3584 
z
" transform="scale(0.015625)"/>
       <path id="DejaVuSans-63" d="M 3122 3366 
L 3122 2828 
Q 2878 2963 2633 3030 
Q 2388 3097 2138 3097 
Q 1578 3097 1268 2742 
Q 959 2388 959 1747 
Q 959 1106 1268 751 
Q 1578 397 2138 397 
Q 2388 397 2633 464 
Q 2878 531 3122 666 
L 3122 134 
Q 2881 22 2623 -34 
Q 2366 -91 2075 -91 
Q 1284 -91 818 406 
Q 353 903 353 1747 
Q 353 2603 823 3093 
Q 1294 3584 2113 3584 
Q 2378 3584 2631 3529 
Q 2884 3475 3122 3366 
z
" transform="scale(0.015625)"/>
       <path id="DejaVuSans-68" d="M 3513 2113 
L 3513 0 
L 2938 0 
L 2938 2094 
Q 2938 2591 2744 2837 
Q 2550 3084 2163 3084 
Q 1697 3084 1428 2787 
Q 1159 2491 1159 1978 
L 1159 0 
L 581 0 
L 581 4863 
L 1159 4863 
L 1159 2956 
Q 1366 3272 1645 3428 
Q 1925 3584 2291 3584 
Q 2894 3584 3203 3211 
Q 3513 2838 3513 2113 
z
" transform="scale(0.015625)"/>
      </defs>
      <use xlink:href="#DejaVuSans-65"/>
      <use xlink:href="#DejaVuSans-70" x="61.523438"/>
      <use xlink:href="#DejaVuSans-6f" x="125"/>
      <use xlink:href="#DejaVuSans-63" x="186.181641"/>
      <use xlink:href="#DejaVuSans-68" x="241.162109"/>
     </g>
    </g>
   </g>
   <g id="matplotlib.axis_2">
    <g id="ytick_1">
     <g id="line2d_13">
      <path d="M 90 297.197214 
L 648 297.197214 
" clip-path="url(#p581fe556f7)" style="fill: none; stroke: #b0b0b0; stroke-width: 0.8; stroke-linecap: square"/>
     </g>
     <g id="line2d_14">
      <defs>
       <path id="m75fa8ef2e2" d="M 0 0 
L -3.5 0 
" style="stroke: #000000; stroke-width: 0.8"/>
      </defs>
      <g>
       <use xlink:href="#m75fa8ef2e2" x="90" y="297.197214" style="stroke: #000000; stroke-width: 0.8"/>
      </g>
     </g>
     <g id="text_8">
      <!-- 1.3800 -->
      <g transform="translate(48.009375 300.996433) scale(0.1 -0.1)">
       <defs>
        <path id="DejaVuSans-2e" d="M 684 794 
L 1344 794 
L 1344 0 
L 684 0 
L 684 794 
z
" transform="scale(0.015625)"/>
        <path id="DejaVuSans-38" d="M 2034 2216 
Q 1584 2216 1326 1975 
Q 1069 1734 1069 1313 
Q 1069 891 1326 650 
Q 1584 409 2034 409 
Q 2484 409 2743 651 
Q 3003 894 3003 1313 
Q 3003 1734 2745 1975 
Q 2488 2216 2034 2216 
z
M 1403 2484 
Q 997 2584 770 2862 
Q 544 3141 544 3541 
Q 544 4100 942 4425 
Q 1341 4750 2034 4750 
Q 2731 4750 3128 4425 
Q 3525 4100 3525 3541 
Q 3525 3141 3298 2862 
Q 3072 2584 2669 2484 
Q 3125 2378 3379 2068 
Q 3634 1759 3634 1313 
Q 3634 634 3220 271 
Q 2806 -91 2034 -91 
Q 1263 -91 848 271 
Q 434 634 434 1313 
Q 434 1759 690 2068 
Q 947 2378 1403 2484 
z
M 1172 3481 
Q 1172 3119 1398 2916 
Q 1625 2713 2034 2713 
Q 2441 2713 2670 2916 
Q 2900 3119 2900 3481 
Q 2900 3844 2670 4047 
Q 2441 4250 2034 4250 
Q 1625 4250 1398 4047 
Q 1172 3844 1172 3481 
z
" transform="scale(0.015625)"/>
       </defs>
       <use xlink:href="#DejaVuSans-31"/>
       <use xlink:href="#DejaVuSans-2e" x="63.623047"/>
       <use xlink:href="#DejaVuSans-33" x="95.410156"/>
       <use xlink:href="#DejaVuSans-38" x="159.033203"/>
       <use xlink:href="#DejaVuSans-30" x="222.65625"/>
       <use xlink:href="#DejaVuSans-30" x="286.279297"/>
      </g>
     </g>
    </g>
    <g id="ytick_2">
     <g id="line2d_15">
      <path d="M 90 261.517638 
L 648 261.517638 
" clip-path="url(#p581fe556f7)" style="fill: none; stroke: #b0b0b0; stroke-width: 0.8; stroke-linecap: square"/>
     </g>
     <g id="line2d_16">
      <g>
       <use xlink:href="#m75fa8ef2e2" x="90" y="261.517638" style="stroke: #000000; stroke-width: 0.8"/>
      </g>
     </g>
     <g id="text_9">
      <!-- 1.3825 -->
      <g transform="translate(48.009375 265.316857) scale(0.1 -0.1)">
       <use xlink:href="#DejaVuSans-31"/>
       <use xlink:href="#DejaVuSans-2e" x="63.623047"/>
       <use xlink:href="#DejaVuSans-33" x="95.410156"/>
       <use xlink:href="#DejaVuSans-38" x="159.033203"/>
       <use xlink:href="#DejaVuSans-32" x="222.65625"/>
       <use xlink:href="#DejaVuSans-35" x="286.279297"/>
      </g>
     </g>
    </g>
    <g id="ytick_3">
     <g id="line2d_17">
      <path d="M 90 225.838063 
L 648 225.838063 
" clip-path="url(#p581fe556f7)" style="fill: none; stroke: #b0b0b0; stroke-width: 0.8; stroke-linecap: square"/>
     </g>
     <g id="line2d_18">
      <g>
       <use xlink:href="#m75fa8ef2e2" x="90" y="225.838063" style="stroke: #000000; stroke-width: 0.8"/>
      </g>
     </g>
     <g id="text_10">
      <!-- 1.3850 -->
      <g transform="translate(48.009375 229.637282) scale(0.1 -0.1)">
       <use xlink:href="#DejaVuSans-31"/>
       <use xlink:href="#DejaVuSans-2e" x="63.623047"/>
       <use xlink:href="#DejaVuSans-33" x="95.410156"/>
       <use xlink:href="#DejaVuSans-38" x="159.033203"/>
       <use xlink:href="#DejaVuSans-35" x="222.65625"/>
       <use xlink:href="#DejaVuSans-30" x="286.279297"/>
      </g>
     </g>
    </g>
    <g id="ytick_4">
     <g id="line2d_19">
      <path d="M 90 190.158487 
L 648 190.158487 
" clip-path="url(#p581fe556f7)" style="fill: none; stroke: #b0b0b0; stroke-width: 0.8; stroke-linecap: square"/>
     </g>
     <g id="line2d_20">
      <g>
       <use xlink:href="#m75fa8ef2e2" x="90" y="190.158487" style="stroke: #000000; stroke-width: 0.8"/>
      </g>
     </g>
     <g id="text_11">
      <!-- 1.3875 -->
      <g transform="translate(48.009375 193.957706) scale(0.1 -0.1)">
       <defs>
        <path id="DejaVuSans-37" d="M 525 4666 
L 3525 4666 
L 3525 4397 
L 1831 0 
L 1172 0 
L 2766 4134 
L 525 4134 
L 525 4666 
z
" transform="scale(0.015625)"/>
       </defs>
       <use xlink:href="#DejaVuSans-31"/>
       <use xlink:href="#DejaVuSans-2e" x="63.623047"/>
       <use xlink:href="#DejaVuSans-33" x="95.410156"/>
       <use xlink:href="#DejaVuSans-38" x="159.033203"/>
       <use xlink:href="#DejaVuSans-37" x="222.65625"/>
       <use xlink:href="#DejaVuSans-35" x="286.279297"/>
      </g>
     </g>
    </g>
    <g id="ytick_5">
     <g id="line2d_21">
      <path d="M 90 154.478912 
L 648 154.478912 
" clip-path="url(#p581fe556f7)" style="fill: none; stroke: #b0b0b0; stroke-width: 0.8; stroke-linecap: square"/>
     </g>
     <g id="line2d_22">
      <g>
       <use xlink:href="#m75fa8ef2e2" x="90" y="154.478912" style="stroke: #000000; stroke-width: 0.8"/>
      </g>
     </g>
     <g id="text_12">
      <!-- 1.3900 -->
      <g transform="translate(48.009375 158.278131) scale(0.1 -0.1)">
       <defs>
        <path id="DejaVuSans-39" d="M 703 97 
L 703 672 
Q 941 559 1184 500 
Q 1428 441 1663 441 
Q 2288 441 2617 861 
Q 2947 1281 2994 2138 
Q 2813 1869 2534 1725 
Q 2256 1581 1919 1581 
Q 1219 1581 811 2004 
Q 403 2428 403 3163 
Q 403 3881 828 4315 
Q 1253 4750 1959 4750 
Q 2769 4750 3195 4129 
Q 3622 3509 3622 2328 
Q 3622 1225 3098 567 
Q 2575 -91 1691 -91 
Q 1453 -91 1209 -44 
Q 966 3 703 97 
z
M 1959 2075 
Q 2384 2075 2632 2365 
Q 2881 2656 2881 3163 
Q 2881 3666 2632 3958 
Q 2384 4250 1959 4250 
Q 1534 4250 1286 3958 
Q 1038 3666 1038 3163 
Q 1038 2656 1286 2365 
Q 1534 2075 1959 2075 
z
" transform="scale(0.015625)"/>
       </defs>
       <use xlink:href="#DejaVuSans-31"/>
       <use xlink:href="#DejaVuSans-2e" x="63.623047"/>
       <use xlink:href="#DejaVuSans-33" x="95.410156"/>
       <use xlink:href="#DejaVuSans-39" x="159.033203"/>
       <use xlink:href="#DejaVuSans-30" x="222.65625"/>
       <use xlink:href="#DejaVuSans-30" x="286.279297"/>
      </g>
     </g>
    </g>
    <g id="ytick_6">
     <g id="line2d_23">
      <path d="M 90 118.799336 
L 648 118.799336 
" clip-path="url(#p581fe556f7)" style="fill: none; stroke: #b0b0b0; stroke-width: 0.8; stroke-linecap: square"/>
     </g>
     <g id="line2d_24">
      <g>
       <use xlink:href="#m75fa8ef2e2" x="90" y="118.799336" style="stroke: #000000; stroke-width: 0.8"/>
      </g>
     </g>
     <g id="text_13">
      <!-- 1.3925 -->
      <g transform="translate(48.009375 122.598555) scale(0.1 -0.1)">
       <use xlink:href="#DejaVuSans-31"/>
       <use xlink:href="#DejaVuSans-2e" x="63.623047"/>
       <use xlink:href="#DejaVuSans-33" x="95.410156"/>
       <use xlink:href="#DejaVuSans-39" x="159.033203"/>
       <use xlink:href="#DejaVuSans-32" x="222.65625"/>
       <use xlink:href="#DejaVuSans-35" x="286.279297"/>
      </g>
     </g>
    </g>
    <g id="ytick_7">
     <g id="line2d_25">
      <path d="M 90 83.119761 
L 648 83.119761 
" clip-path="url(#p581fe556f7)" style="fill: none; stroke: #b0b0b0; stroke-width: 0.8; stroke-linecap: square"/>
     </g>
     <g id="line2d_26">
      <g>
       <use xlink:href="#m75fa8ef2e2" x="90" y="83.119761" style="stroke: #000000; stroke-width: 0.8"/>
      </g>
     </g>
     <g id="text_14">
      <!-- 1.3950 -->
      <g transform="translate(48.009375 86.91898) scale(0.1 -0.1)">
       <use xlink:href="#DejaVuSans-31"/>
       <use xlink:href="#DejaVuSans-2e" x="63.623047"/>
       <use xlink:href="#DejaVuSans-33" x="95.410156"/>
       <use xlink:href="#DejaVuSans-39" x="159.033203"/>
       <use xlink:href="#DejaVuSans-35" x="222.65625"/>
       <use xlink:href="#DejaVuSans-30" x="286.279297"/>
      </g>
     </g>
    </g>
    <g id="ytick_8">
     <g id="line2d_27">
      <path d="M 90 47.440186 
L 648 47.440186 
" clip-path="url(#p581fe556f7)" style="fill: none; stroke: #b0b0b0; stroke-width: 0.8; stroke-linecap: square"/>
     </g>
     <g id="line2d_28">
      <g>
       <use xlink:href="#m75fa8ef2e2" x="90" y="47.440186" style="stroke: #000000; stroke-width: 0.8"/>
      </g>
     </g>
     <g id="text_15">
      <!-- 1.3975 -->
      <g transform="translate(48.009375 51.239404) scale(0.1 -0.1)">
       <use xlink:href="#DejaVuSans-31"/>
       <use xlink:href="#DejaVuSans-2e" x="63.623047"/>
       <use xlink:href="#DejaVuSans-33" x="95.410156"/>
       <use xlink:href="#DejaVuSans-39" x="159.033203"/>
       <use xlink:href="#DejaVuSans-37" x="222.65625"/>
       <use xlink:href="#DejaVuSans-35" x="286.279297"/>
      </g>
     </g>
    </g>
    <g id="text_16">
     <!-- loss -->
     <g transform="translate(41.929688 191.457812) rotate(-90) scale(0.1 -0.1)">
      <defs>
       <path id="DejaVuSans-6c" d="M 603 4863 
L 1178 4863 
L 1178 0 
L 603 0 
L 603 4863 
z
" transform="scale(0.015625)"/>
       <path id="DejaVuSans-73" d="M 2834 3397 
L 2834 2853 
Q 2591 2978 2328 3040 
Q 2066 3103 1784 3103 
Q 1356 3103 1142 2972 
Q 928 2841 928 2578 
Q 928 2378 1081 2264 
Q 1234 2150 1697 2047 
L 1894 2003 
Q 2506 1872 2764 1633 
Q 3022 1394 3022 966 
Q 3022 478 2636 193 
Q 2250 -91 1575 -91 
Q 1294 -91 989 -36 
Q 684 19 347 128 
L 347 722 
Q 666 556 975 473 
Q 1284 391 1588 391 
Q 1994 391 2212 530 
Q 2431 669 2431 922 
Q 2431 1156 2273 1281 
Q 2116 1406 1581 1522 
L 1381 1569 
Q 847 1681 609 1914 
Q 372 2147 372 2553 
Q 372 3047 722 3315 
Q 1072 3584 1716 3584 
Q 2034 3584 2315 3537 
Q 2597 3491 2834 3397 
z
" transform="scale(0.015625)"/>
      </defs>
      <use xlink:href="#DejaVuSans-6c"/>
      <use xlink:href="#DejaVuSans-6f" x="27.783203"/>
      <use xlink:href="#DejaVuSans-73" x="88.964844"/>
      <use xlink:href="#DejaVuSans-73" x="141.064453"/>
     </g>
    </g>
   </g>
   <g id="line2d_29">
    <path d="M 115.363636 151.295919 
L 116.380215 182.898212 
L 117.396794 148.922557 
L 118.413372 186.045681 
L 119.429951 200.010236 
L 120.446529 225.264849 
L 121.463108 159.744747 
L 122.479687 199.853714 
L 123.496265 149.599688 
L 124.512844 189.633796 
L 125.529422 56.771462 
L 126.546001 221.998287 
L 127.56258 183.96665 
L 128.579158 151.581743 
L 129.595737 70.797266 
L 130.612316 195.09508 
L 131.628894 150.184947 
L 132.645473 187.11582 
L 133.662051 159.48104 
L 134.67863 196.583748 
L 135.695209 141.744626 
L 136.711787 150.931833 
L 137.728366 146.076224 
L 138.744944 191.695814 
L 139.761523 161.32869 
L 140.778102 96.878727 
L 141.79468 155.149442 
L 142.811259 145.171114 
L 143.827837 204.0424 
L 144.844416 135.915853 
L 145.860995 122.740717 
L 146.877573 157.789914 
L 147.894152 186.887842 
L 148.910731 193.014348 
L 149.927309 186.768748 
L 150.943888 123.98099 
L 151.960466 187.843992 
L 152.977045 211.599729 
L 153.993624 125.275705 
L 155.010202 94.501963 
L 156.026781 145.307221 
L 157.043359 137.265011 
L 158.059938 226.035554 
L 159.076517 194.974286 
L 160.093095 174.595698 
L 161.109674 92.887396 
L 162.126253 183.968351 
L 163.142831 96.087607 
L 164.15941 78.836072 
L 165.175988 209.99537 
L 166.192567 92.67643 
L 167.209146 209.825236 
L 168.225724 201.810249 
L 169.242303 164.033812 
L 170.258881 188.420744 
L 171.27546 172.348235 
L 172.292039 159.897867 
L 173.308617 59.520819 
L 174.325196 111.569753 
L 175.341774 173.214214 
L 176.358353 153.026176 
L 177.374932 130.543038 
L 178.39151 142.020242 
L 179.408089 191.990144 
L 180.424668 183.543017 
L 181.441246 117.794937 
L 182.457825 134.644956 
L 183.474403 190.35346 
L 184.490982 160.791068 
L 185.507561 57.708898 
L 186.524139 189.191449 
L 187.540718 126.095749 
L 188.557296 171.312122 
L 189.573875 159.739643 
L 190.590454 154.094614 
L 191.607032 143.692654 
L 192.623611 177.423316 
L 193.640189 237.756049 
L 194.656768 154.096316 
L 195.673347 175.781528 
L 196.689925 178.697616 
L 197.706504 165.384672 
L 198.723083 209.182132 
L 199.739661 141.594908 
L 200.75624 162.237203 
L 201.772818 242.206741 
L 202.789397 181.589885 
L 203.805976 156.471379 
L 204.822554 125.656804 
L 205.839133 144.594361 
L 206.855711 168.304162 
L 207.87229 158.826026 
L 208.888869 179.968513 
L 209.905447 142.062775 
L 210.922026 132.108266 
L 211.938604 198.659377 
L 212.955183 119.751471 
L 214.98834 181.166253 
L 216.004919 197.630069 
L 217.021498 155.539048 
L 219.054655 88.266571 
L 220.071233 197.213242 
L 221.087812 196.73857 
L 222.104391 228.521204 
L 223.120969 115.926871 
L 224.137548 222.120783 
L 225.154126 145.814218 
L 226.170705 175.941454 
L 227.187284 156.871193 
L 228.203862 219.618119 
L 229.220441 125.820132 
L 230.237019 141.732716 
L 231.253598 184.992555 
L 232.270177 184.102757 
L 233.286755 159.086331 
L 234.303334 129.372519 
L 235.319913 184.618261 
L 236.336491 169.525721 
L 237.35307 158.552111 
L 238.369648 214.580467 
L 239.386227 170.294724 
L 240.402806 85.108894 
L 241.419384 197.204735 
L 242.435963 148.728605 
L 243.452541 202.254297 
L 244.46912 234.463966 
L 245.485699 154.844903 
L 246.502277 156.576862 
L 247.518856 119.497973 
L 248.535435 186.952492 
L 249.552013 104.859688 
L 250.568592 156.466275 
L 251.58517 91.878504 
L 252.601749 106.331343 
L 253.618328 186.217516 
L 254.634906 90.510631 
L 255.651485 95.036182 
L 256.668063 151.57834 
L 257.684642 234.463966 
L 258.701221 155.275341 
L 259.717799 130.039443 
L 260.734378 84.635922 
L 261.750956 170.908906 
L 262.767535 170.835748 
L 263.784114 182.751897 
L 264.800692 100.252474 
L 265.817271 150.033528 
L 266.83385 182.913524 
L 267.850428 140.130059 
L 268.867007 138.940826 
L 269.883585 154.8415 
L 270.900164 195.13251 
L 271.916743 171.956928 
L 272.933321 153.946598 
L 273.9499 128.401057 
L 274.966478 242.492565 
L 275.983057 179.629948 
L 276.999636 106.559322 
L 278.016214 144.88529 
L 279.032793 140.412481 
L 280.049371 139.087141 
L 281.06595 195.670131 
L 282.082529 175.647123 
L 283.099107 89.545975 
L 285.132265 228.528009 
L 286.148843 189.61338 
L 287.165422 176.829551 
L 288.182 152.534491 
L 289.198579 214.740393 
L 290.215158 169.842169 
L 291.231736 209.985162 
L 292.248315 259.300051 
L 293.264893 206.953383 
L 294.281472 100.398789 
L 295.298051 78.342685 
L 296.314629 182.915225 
L 297.331208 124.015016 
L 298.347786 113.737253 
L 300.380944 195.255006 
L 301.397522 91.488899 
L 302.414101 166.080518 
L 303.43068 171.184522 
L 304.447258 130.781225 
L 305.463837 156.450963 
L 306.480415 161.554967 
L 307.496994 138.030612 
L 308.513573 155.984797 
L 309.530151 81.986944 
L 311.563308 202.204958 
L 312.579887 243.673291 
L 313.596466 227.614392 
L 314.613044 132.227359 
L 315.629623 168.28885 
L 316.646201 135.070289 
L 317.66278 203.271695 
L 318.679359 145.276597 
L 319.695937 156.45947 
L 320.712516 174.226508 
L 321.729095 126.973637 
L 323.762252 195.392814 
L 324.77883 93.731258 
L 325.795409 175.476989 
L 326.811988 118.543524 
L 327.828566 137.668228 
L 328.845145 196.439135 
L 329.861723 126.442821 
L 330.878302 162.924542 
L 331.894881 217.358747 
L 332.911459 144.589257 
L 333.928038 249.320021 
L 334.944617 116.350503 
L 335.961195 173.685484 
L 336.977774 72.364195 
L 337.994352 166.689596 
L 339.010931 193.007543 
L 340.02751 151.551119 
L 341.044088 171.735754 
L 342.060667 99.529407 
L 343.077245 214.728483 
L 344.093824 188.711672 
L 345.110403 135.510935 
L 346.126981 176.96906 
L 347.14356 236.544699 
L 348.160138 140.538379 
L 349.176717 226.930456 
L 350.193296 190.004687 
L 351.209874 130.978579 
L 352.226453 154.348113 
L 353.243032 165.260474 
L 354.25961 120.932198 
L 355.276189 146.467531 
L 356.292767 200.90684 
L 357.309346 137.545731 
L 358.325925 121.833905 
L 359.342503 232.083799 
L 360.359082 189.468766 
L 361.37566 159.734539 
L 362.392239 194.474093 
L 363.408818 111.865785 
L 364.425396 171.303615 
L 365.441975 182.498398 
L 366.458553 118.155619 
L 367.475132 177.242975 
L 368.491711 204.867547 
L 369.508289 157.652105 
L 370.524868 183.932623 
L 371.541447 166.852924 
L 372.558025 156.702761 
L 373.574604 148.265842 
L 374.591182 264.172673 
L 376.62434 126.458133 
L 377.640918 222.093561 
L 378.657497 196.741972 
L 379.674075 138.814927 
L 380.690654 207.462083 
L 381.707233 186.448897 
L 382.723811 235.532404 
L 383.74039 195.263512 
L 384.756968 171.307018 
L 385.773547 129.20749 
L 386.790126 120.17 
L 387.806704 220.783534 
L 388.823283 243.67159 
L 389.839862 148.26414 
L 390.85644 123.053762 
L 391.873019 147.854119 
L 392.889597 206.827485 
L 393.906176 243.547392 
L 394.922755 140.289984 
L 395.939333 143.617795 
L 396.955912 224.47543 
L 397.97249 221.571251 
L 398.989069 108.019067 
L 400.005648 231.961303 
L 401.022226 162.528131 
L 402.038805 128.537164 
L 403.055383 241.163822 
L 404.071962 200.893229 
L 405.088541 112.263897 
L 406.105119 194.052162 
L 407.121698 132.518287 
L 408.138277 193.931367 
L 409.154855 88.538784 
L 410.171434 180.114828 
L 411.188012 115.525356 
L 412.204591 69.645462 
L 413.22117 206.051676 
L 414.237748 216.952128 
L 415.254327 64.267543 
L 416.270905 198.684897 
L 417.287484 165.120965 
L 418.304063 116.619314 
L 419.320641 184.713536 
L 420.33722 151.983258 
L 421.353799 161.553266 
L 422.370377 151.711044 
L 423.386956 127.911073 
L 424.403534 152.755664 
L 425.420113 170.87658 
L 426.436692 152.883264 
L 427.45327 131.733972 
L 428.469849 124.646211 
L 429.486427 215.92282 
L 430.503006 151.831839 
L 431.519585 187.762328 
L 432.536163 181.872307 
L 433.552742 219.18598 
L 434.56932 146.350139 
L 435.585899 146.484544 
L 436.602478 174.736909 
L 437.619056 158.470447 
L 438.635635 175.662435 
L 439.652214 137.613785 
L 440.668792 206.830887 
L 441.685371 174.464695 
L 442.701949 91.691358 
L 443.718528 160.137755 
L 444.735107 177.98816 
L 445.751685 132.212047 
L 447.784842 167.261244 
L 448.801421 118.982468 
L 449.818 115.782258 
L 450.834578 127.623547 
L 451.851157 148.565277 
L 452.867735 158.05362 
L 453.884314 163.133806 
L 454.900893 153.060203 
L 455.917471 173.668471 
L 456.93405 157.344164 
L 457.950629 166.973718 
L 458.967207 168.931955 
L 459.983786 90.27925 
L 461.000364 117.514216 
L 462.016943 115.00815 
L 463.033522 208.311049 
L 464.0501 198.657675 
L 465.066679 181.156045 
L 466.083257 165.765771 
L 467.099836 127.620145 
L 468.116415 176.479076 
L 469.132993 194.964078 
L 470.149572 216.446831 
L 471.16615 178.132773 
L 472.182729 148.818775 
L 473.199308 92.525012 
L 474.215886 208.021822 
L 475.232465 144.995876 
L 476.249044 126.211439 
L 477.265622 179.742236 
L 478.282201 168.794147 
L 479.298779 243.663083 
L 480.315358 78.691459 
L 481.331937 236.403488 
L 482.348515 154.242631 
L 483.365094 149.080781 
L 484.381672 129.083292 
L 485.398251 105.654212 
L 486.41483 215.243988 
L 487.431408 172.229141 
L 488.447987 174.597399 
L 489.464565 148.546562 
L 490.481144 160.25855 
L 491.497723 176.193251 
L 492.514301 132.24097 
L 493.53088 164.768789 
L 494.547459 155.932056 
L 495.564037 186.030369 
L 496.580616 182.722974 
L 497.597194 166.420785 
L 498.613773 192.08712 
L 499.630352 186.045681 
L 500.64693 189.312244 
L 501.663509 134.308091 
L 502.680087 70.826188 
L 503.696666 231.952796 
L 504.713245 212.469111 
L 505.729823 241.0073 
L 506.746402 173.277164 
L 507.762981 135.941373 
L 508.779559 243.254763 
L 509.796138 204.573216 
L 510.812716 130.765913 
L 511.829295 117.983785 
L 512.845874 147.10383 
L 513.862452 182.886302 
L 514.879031 184.206538 
L 515.895609 168.440269 
L 516.912188 88.0488 
L 517.928767 176.337865 
L 518.945345 236.541296 
L 519.961924 144.104377 
L 520.978502 72.285934 
L 521.995081 186.436988 
L 523.01166 200.125927 
L 524.028238 238.014652 
L 525.044817 159.85023 
L 526.061396 178.272282 
L 527.077974 95.652065 
L 528.094553 206.043169 
L 529.111131 87.996059 
L 530.12771 178.729941 
L 531.144289 108.412075 
L 532.160867 163.924927 
L 533.177446 100.914293 
L 534.194024 185.249456 
L 535.210603 196.718154 
L 536.227182 101.440006 
L 537.24376 127.472128 
L 538.260339 167.882231 
L 539.276917 125.532607 
L 540.293496 187.350605 
L 541.310075 149.244109 
L 542.326653 184.968736 
L 543.343232 230.115355 
L 544.359811 213.55116 
L 545.376389 163.174638 
L 546.392968 152.896875 
L 547.409546 129.998611 
L 548.426125 140.240646 
L 549.442704 181.987997 
L 550.459282 112.9053 
L 551.475861 196.309833 
L 552.492439 204.0424 
L 553.509018 189.701849 
L 554.525597 140.506054 
L 555.542175 195.367294 
L 556.558754 188.129816 
L 557.575332 193.67957 
L 558.591911 139.076933 
L 559.60849 187.211095 
L 560.625068 125.2689 
L 561.641647 165.359152 
L 562.658226 157.481972 
L 563.674804 198.921382 
L 564.691383 169.093582 
L 565.707961 142.755218 
L 566.72454 192.105835 
L 567.741119 177.069439 
L 568.757697 131.186142 
L 569.774276 182.127507 
L 570.790854 211.55039 
L 571.807433 158.948522 
L 572.824012 210.265882 
L 573.84059 163.807534 
L 574.857169 203.674911 
L 575.873747 165.665392 
L 576.890326 157.507492 
L 577.906905 145.14049 
L 578.923483 233.274733 
L 579.940062 185.720726 
L 580.956641 223.667296 
L 581.973219 157.789914 
L 582.989798 164.886181 
L 584.006376 190.775391 
L 585.022955 158.378575 
L 586.039534 158.05362 
L 587.056112 251.274855 
L 588.072691 162.500909 
L 589.089269 189.310542 
L 590.105848 195.229486 
L 591.122427 172.497952 
L 592.139005 185.249456 
L 593.155584 153.708411 
L 594.172163 180.256039 
L 595.188741 170.116084 
L 596.20532 125.251887 
L 597.221898 184.84624 
L 598.238477 123.838077 
L 600.271634 222.467855 
L 601.288213 115.407964 
L 602.304791 181.987997 
L 603.32137 127.781771 
L 604.337949 106.581439 
L 605.354527 172.128763 
L 606.371106 139.612853 
L 607.387684 220.788638 
L 608.404263 242.334341 
L 609.420842 219.70829 
L 610.43742 166.972017 
L 611.453999 240.253608 
L 612.470578 180.113127 
L 613.487156 161.975197 
L 614.503735 55.8 
L 615.520313 134.616033 
L 616.536892 138.137796 
L 617.553471 165.644976 
L 618.570049 172.212128 
L 619.586628 139.750661 
L 620.603206 220.501112 
L 621.619785 123.718984 
L 622.636364 187.990306 
L 622.636364 187.990306 
" clip-path="url(#p581fe556f7)" style="fill: none; stroke: #1f77b4; stroke-width: 1.5; stroke-linecap: square"/>
   </g>
   <g id="line2d_30">
    <path d="M 115.363636 307.793195 
L 622.636364 307.703024 
L 622.636364 307.703024 
" clip-path="url(#p581fe556f7)" style="fill: none; stroke: #ff7f0e; stroke-width: 1.5; stroke-linecap: square"/>
   </g>
   <g id="patch_3">
    <path d="M 90 320.4 
L 90 43.2 
" style="fill: none; stroke: #000000; stroke-width: 0.8; stroke-linejoin: miter; stroke-linecap: square"/>
   </g>
   <g id="patch_4">
    <path d="M 648 320.4 
L 648 43.2 
" style="fill: none; stroke: #000000; stroke-width: 0.8; stroke-linejoin: miter; stroke-linecap: square"/>
   </g>
   <g id="patch_5">
    <path d="M 90 320.4 
L 648 320.4 
" style="fill: none; stroke: #000000; stroke-width: 0.8; stroke-linejoin: miter; stroke-linecap: square"/>
   </g>
   <g id="patch_6">
    <path d="M 90 43.2 
L 648 43.2 
" style="fill: none; stroke: #000000; stroke-width: 0.8; stroke-linejoin: miter; stroke-linecap: square"/>
   </g>
   <g id="text_17">
    <!-- model train and validation loss over time -->
    <g transform="translate(245.555625 37.2) scale(0.12 -0.12)">
     <defs>
      <path id="DejaVuSans-6d" d="M 3328 2828 
Q 3544 3216 3844 3400 
Q 4144 3584 4550 3584 
Q 5097 3584 5394 3201 
Q 5691 2819 5691 2113 
L 5691 0 
L 5113 0 
L 5113 2094 
Q 5113 2597 4934 2840 
Q 4756 3084 4391 3084 
Q 3944 3084 3684 2787 
Q 3425 2491 3425 1978 
L 3425 0 
L 2847 0 
L 2847 2094 
Q 2847 2600 2669 2842 
Q 2491 3084 2119 3084 
Q 1678 3084 1418 2786 
Q 1159 2488 1159 1978 
L 1159 0 
L 581 0 
L 581 3500 
L 1159 3500 
L 1159 2956 
Q 1356 3278 1631 3431 
Q 1906 3584 2284 3584 
Q 2666 3584 2933 3390 
Q 3200 3197 3328 2828 
z
" transform="scale(0.015625)"/>
      <path id="DejaVuSans-64" d="M 2906 2969 
L 2906 4863 
L 3481 4863 
L 3481 0 
L 2906 0 
L 2906 525 
Q 2725 213 2448 61 
Q 2172 -91 1784 -91 
Q 1150 -91 751 415 
Q 353 922 353 1747 
Q 353 2572 751 3078 
Q 1150 3584 1784 3584 
Q 2172 3584 2448 3432 
Q 2725 3281 2906 2969 
z
M 947 1747 
Q 947 1113 1208 752 
Q 1469 391 1925 391 
Q 2381 391 2643 752 
Q 2906 1113 2906 1747 
Q 2906 2381 2643 2742 
Q 2381 3103 1925 3103 
Q 1469 3103 1208 2742 
Q 947 2381 947 1747 
z
" transform="scale(0.015625)"/>
      <path id="DejaVuSans-20" transform="scale(0.015625)"/>
      <path id="DejaVuSans-74" d="M 1172 4494 
L 1172 3500 
L 2356 3500 
L 2356 3053 
L 1172 3053 
L 1172 1153 
Q 1172 725 1289 603 
Q 1406 481 1766 481 
L 2356 481 
L 2356 0 
L 1766 0 
Q 1100 0 847 248 
Q 594 497 594 1153 
L 594 3053 
L 172 3053 
L 172 3500 
L 594 3500 
L 594 4494 
L 1172 4494 
z
" transform="scale(0.015625)"/>
      <path id="DejaVuSans-72" d="M 2631 2963 
Q 2534 3019 2420 3045 
Q 2306 3072 2169 3072 
Q 1681 3072 1420 2755 
Q 1159 2438 1159 1844 
L 1159 0 
L 581 0 
L 581 3500 
L 1159 3500 
L 1159 2956 
Q 1341 3275 1631 3429 
Q 1922 3584 2338 3584 
Q 2397 3584 2469 3576 
Q 2541 3569 2628 3553 
L 2631 2963 
z
" transform="scale(0.015625)"/>
      <path id="DejaVuSans-61" d="M 2194 1759 
Q 1497 1759 1228 1600 
Q 959 1441 959 1056 
Q 959 750 1161 570 
Q 1363 391 1709 391 
Q 2188 391 2477 730 
Q 2766 1069 2766 1631 
L 2766 1759 
L 2194 1759 
z
M 3341 1997 
L 3341 0 
L 2766 0 
L 2766 531 
Q 2569 213 2275 61 
Q 1981 -91 1556 -91 
Q 1019 -91 701 211 
Q 384 513 384 1019 
Q 384 1609 779 1909 
Q 1175 2209 1959 2209 
L 2766 2209 
L 2766 2266 
Q 2766 2663 2505 2880 
Q 2244 3097 1772 3097 
Q 1472 3097 1187 3025 
Q 903 2953 641 2809 
L 641 3341 
Q 956 3463 1253 3523 
Q 1550 3584 1831 3584 
Q 2591 3584 2966 3190 
Q 3341 2797 3341 1997 
z
" transform="scale(0.015625)"/>
      <path id="DejaVuSans-69" d="M 603 3500 
L 1178 3500 
L 1178 0 
L 603 0 
L 603 3500 
z
M 603 4863 
L 1178 4863 
L 1178 4134 
L 603 4134 
L 603 4863 
z
" transform="scale(0.015625)"/>
      <path id="DejaVuSans-6e" d="M 3513 2113 
L 3513 0 
L 2938 0 
L 2938 2094 
Q 2938 2591 2744 2837 
Q 2550 3084 2163 3084 
Q 1697 3084 1428 2787 
Q 1159 2491 1159 1978 
L 1159 0 
L 581 0 
L 581 3500 
L 1159 3500 
L 1159 2956 
Q 1366 3272 1645 3428 
Q 1925 3584 2291 3584 
Q 2894 3584 3203 3211 
Q 3513 2838 3513 2113 
z
" transform="scale(0.015625)"/>
      <path id="DejaVuSans-76" d="M 191 3500 
L 800 3500 
L 1894 563 
L 2988 3500 
L 3597 3500 
L 2284 0 
L 1503 0 
L 191 3500 
z
" transform="scale(0.015625)"/>
     </defs>
     <use xlink:href="#DejaVuSans-6d"/>
     <use xlink:href="#DejaVuSans-6f" x="97.412109"/>
     <use xlink:href="#DejaVuSans-64" x="158.59375"/>
     <use xlink:href="#DejaVuSans-65" x="222.070312"/>
     <use xlink:href="#DejaVuSans-6c" x="283.59375"/>
     <use xlink:href="#DejaVuSans-20" x="311.376953"/>
     <use xlink:href="#DejaVuSans-74" x="343.164062"/>
     <use xlink:href="#DejaVuSans-72" x="382.373047"/>
     <use xlink:href="#DejaVuSans-61" x="423.486328"/>
     <use xlink:href="#DejaVuSans-69" x="484.765625"/>
     <use xlink:href="#DejaVuSans-6e" x="512.548828"/>
     <use xlink:href="#DejaVuSans-20" x="575.927734"/>
     <use xlink:href="#DejaVuSans-61" x="607.714844"/>
     <use xlink:href="#DejaVuSans-6e" x="668.994141"/>
     <use xlink:href="#DejaVuSans-64" x="732.373047"/>
     <use xlink:href="#DejaVuSans-20" x="795.849609"/>
     <use xlink:href="#DejaVuSans-76" x="827.636719"/>
     <use xlink:href="#DejaVuSans-61" x="886.816406"/>
     <use xlink:href="#DejaVuSans-6c" x="948.095703"/>
     <use xlink:href="#DejaVuSans-69" x="975.878906"/>
     <use xlink:href="#DejaVuSans-64" x="1003.662109"/>
     <use xlink:href="#DejaVuSans-61" x="1067.138672"/>
     <use xlink:href="#DejaVuSans-74" x="1128.417969"/>
     <use xlink:href="#DejaVuSans-69" x="1167.626953"/>
     <use xlink:href="#DejaVuSans-6f" x="1195.410156"/>
     <use xlink:href="#DejaVuSans-6e" x="1256.591797"/>
     <use xlink:href="#DejaVuSans-20" x="1319.970703"/>
     <use xlink:href="#DejaVuSans-6c" x="1351.757812"/>
     <use xlink:href="#DejaVuSans-6f" x="1379.541016"/>
     <use xlink:href="#DejaVuSans-73" x="1440.722656"/>
     <use xlink:href="#DejaVuSans-73" x="1492.822266"/>
     <use xlink:href="#DejaVuSans-20" x="1544.921875"/>
     <use xlink:href="#DejaVuSans-6f" x="1576.708984"/>
     <use xlink:href="#DejaVuSans-76" x="1637.890625"/>
     <use xlink:href="#DejaVuSans-65" x="1697.070312"/>
     <use xlink:href="#DejaVuSans-72" x="1758.59375"/>
     <use xlink:href="#DejaVuSans-20" x="1799.707031"/>
     <use xlink:href="#DejaVuSans-74" x="1831.494141"/>
     <use xlink:href="#DejaVuSans-69" x="1870.703125"/>
     <use xlink:href="#DejaVuSans-6d" x="1898.486328"/>
     <use xlink:href="#DejaVuSans-65" x="1995.898438"/>
    </g>
   </g>
   <g id="legend_1">
    <g id="patch_7">
     <path d="M 559.765625 80.55625 
L 641 80.55625 
Q 643 80.55625 643 78.55625 
L 643 50.2 
Q 643 48.2 641 48.2 
L 559.765625 48.2 
Q 557.765625 48.2 557.765625 50.2 
L 557.765625 78.55625 
Q 557.765625 80.55625 559.765625 80.55625 
z
" style="fill: #ffffff; opacity: 0.8; stroke: #cccccc; stroke-linejoin: miter"/>
    </g>
    <g id="line2d_31">
     <path d="M 561.765625 56.298437 
L 571.765625 56.298437 
L 581.765625 56.298437 
" style="fill: none; stroke: #1f77b4; stroke-width: 1.5; stroke-linecap: square"/>
    </g>
    <g id="text_18">
     <!-- train -->
     <g transform="translate(589.765625 59.798437) scale(0.1 -0.1)">
      <use xlink:href="#DejaVuSans-74"/>
      <use xlink:href="#DejaVuSans-72" x="39.208984"/>
      <use xlink:href="#DejaVuSans-61" x="80.322266"/>
      <use xlink:href="#DejaVuSans-69" x="141.601562"/>
      <use xlink:href="#DejaVuSans-6e" x="169.384766"/>
     </g>
    </g>
    <g id="line2d_32">
     <path d="M 561.765625 70.976562 
L 571.765625 70.976562 
L 581.765625 70.976562 
" style="fill: none; stroke: #ff7f0e; stroke-width: 1.5; stroke-linecap: square"/>
    </g>
    <g id="text_19">
     <!-- validation -->
     <g transform="translate(589.765625 74.476562) scale(0.1 -0.1)">
      <use xlink:href="#DejaVuSans-76"/>
      <use xlink:href="#DejaVuSans-61" x="59.179688"/>
      <use xlink:href="#DejaVuSans-6c" x="120.458984"/>
      <use xlink:href="#DejaVuSans-69" x="148.242188"/>
      <use xlink:href="#DejaVuSans-64" x="176.025391"/>
      <use xlink:href="#DejaVuSans-61" x="239.501953"/>
      <use xlink:href="#DejaVuSans-74" x="300.78125"/>
      <use xlink:href="#DejaVuSans-69" x="339.990234"/>
      <use xlink:href="#DejaVuSans-6f" x="367.773438"/>
      <use xlink:href="#DejaVuSans-6e" x="428.955078"/>
     </g>
    </g>
   </g>
  </g>
 </g>
 <defs>
  <clipPath id="p581fe556f7">
   <rect x="90" y="43.2" width="558" height="277.2"/>
  </clipPath>
 </defs>
</svg>
