<?xml version="1.0" encoding="utf-8" standalone="no"?>
<!DOCTYPE svg PUBLIC "-//W3C//DTD SVG 1.1//EN"
  "http://www.w3.org/Graphics/SVG/1.1/DTD/svg11.dtd">
<svg xmlns:xlink="http://www.w3.org/1999/xlink" width="720pt" height="360pt" viewBox="0 0 720 360" xmlns="http://www.w3.org/2000/svg" version="1.1">
 <metadata>
  <rdf:RDF xmlns:dc="http://purl.org/dc/elements/1.1/" xmlns:cc="http://creativecommons.org/ns#" xmlns:rdf="http://www.w3.org/1999/02/22-rdf-syntax-ns#">
   <cc:Work>
    <dc:type rdf:resource="http://purl.org/dc/dcmitype/StillImage"/>
    <dc:date>2023-05-24T12:25:24.989603</dc:date>
    <dc:format>image/svg+xml</dc:format>
    <dc:creator>
     <cc:Agent>
      <dc:title>Matplotlib v3.7.1, https://matplotlib.org/</dc:title>
     </cc:Agent>
    </dc:creator>
   </cc:Work>
  </rdf:RDF>
 </metadata>
 <defs>
  <style type="text/css">*{stroke-linejoin: round; stroke-linecap: butt}</style>
 </defs>
 <g id="figure_1">
  <g id="patch_1">
   <path d="M 0 360 
L 720 360 
L 720 0 
L 0 0 
z
" style="fill: #ffffff"/>
  </g>
  <g id="axes_1">
   <g id="patch_2">
    <path d="M 90 320.4 
L 648 320.4 
L 648 43.2 
L 90 43.2 
z
" style="fill: #ffffff"/>
   </g>
   <g id="matplotlib.axis_1">
    <g id="xtick_1">
     <g id="line2d_1">
      <path d="M 115.363636 320.4 
L 115.363636 43.2 
" clip-path="url(#p6696ddf96c)" style="fill: none; stroke: #b0b0b0; stroke-width: 0.8; stroke-linecap: square"/>
     </g>
     <g id="line2d_2">
      <defs>
       <path id="m77723600a2" d="M 0 0 
L 0 3.5 
" style="stroke: #000000; stroke-width: 0.8"/>
      </defs>
      <g>
       <use xlink:href="#m77723600a2" x="115.363636" y="320.4" style="stroke: #000000; stroke-width: 0.8"/>
      </g>
     </g>
     <g id="text_1">
      <!-- 0 -->
      <g transform="translate(112.182386 334.998438) scale(0.1 -0.1)">
       <defs>
        <path id="DejaVuSans-30" d="M 2034 4250 
Q 1547 4250 1301 3770 
Q 1056 3291 1056 2328 
Q 1056 1369 1301 889 
Q 1547 409 2034 409 
Q 2525 409 2770 889 
Q 3016 1369 3016 2328 
Q 3016 3291 2770 3770 
Q 2525 4250 2034 4250 
z
M 2034 4750 
Q 2819 4750 3233 4129 
Q 3647 3509 3647 2328 
Q 3647 1150 3233 529 
Q 2819 -91 2034 -91 
Q 1250 -91 836 529 
Q 422 1150 422 2328 
Q 422 3509 836 4129 
Q 1250 4750 2034 4750 
z
" transform="scale(0.015625)"/>
       </defs>
       <use xlink:href="#DejaVuSans-30"/>
      </g>
     </g>
    </g>
    <g id="xtick_2">
     <g id="line2d_3">
      <path d="M 217.021498 320.4 
L 217.021498 43.2 
" clip-path="url(#p6696ddf96c)" style="fill: none; stroke: #b0b0b0; stroke-width: 0.8; stroke-linecap: square"/>
     </g>
     <g id="line2d_4">
      <g>
       <use xlink:href="#m77723600a2" x="217.021498" y="320.4" style="stroke: #000000; stroke-width: 0.8"/>
      </g>
     </g>
     <g id="text_2">
      <!-- 100 -->
      <g transform="translate(207.477748 334.998438) scale(0.1 -0.1)">
       <defs>
        <path id="DejaVuSans-31" d="M 794 531 
L 1825 531 
L 1825 4091 
L 703 3866 
L 703 4441 
L 1819 4666 
L 2450 4666 
L 2450 531 
L 3481 531 
L 3481 0 
L 794 0 
L 794 531 
z
" transform="scale(0.015625)"/>
       </defs>
       <use xlink:href="#DejaVuSans-31"/>
       <use xlink:href="#DejaVuSans-30" x="63.623047"/>
       <use xlink:href="#DejaVuSans-30" x="127.246094"/>
      </g>
     </g>
    </g>
    <g id="xtick_3">
     <g id="line2d_5">
      <path d="M 318.679359 320.4 
L 318.679359 43.2 
" clip-path="url(#p6696ddf96c)" style="fill: none; stroke: #b0b0b0; stroke-width: 0.8; stroke-linecap: square"/>
     </g>
     <g id="line2d_6">
      <g>
       <use xlink:href="#m77723600a2" x="318.679359" y="320.4" style="stroke: #000000; stroke-width: 0.8"/>
      </g>
     </g>
     <g id="text_3">
      <!-- 200 -->
      <g transform="translate(309.135609 334.998438) scale(0.1 -0.1)">
       <defs>
        <path id="DejaVuSans-32" d="M 1228 531 
L 3431 531 
L 3431 0 
L 469 0 
L 469 531 
Q 828 903 1448 1529 
Q 2069 2156 2228 2338 
Q 2531 2678 2651 2914 
Q 2772 3150 2772 3378 
Q 2772 3750 2511 3984 
Q 2250 4219 1831 4219 
Q 1534 4219 1204 4116 
Q 875 4013 500 3803 
L 500 4441 
Q 881 4594 1212 4672 
Q 1544 4750 1819 4750 
Q 2544 4750 2975 4387 
Q 3406 4025 3406 3419 
Q 3406 3131 3298 2873 
Q 3191 2616 2906 2266 
Q 2828 2175 2409 1742 
Q 1991 1309 1228 531 
z
" transform="scale(0.015625)"/>
       </defs>
       <use xlink:href="#DejaVuSans-32"/>
       <use xlink:href="#DejaVuSans-30" x="63.623047"/>
       <use xlink:href="#DejaVuSans-30" x="127.246094"/>
      </g>
     </g>
    </g>
    <g id="xtick_4">
     <g id="line2d_7">
      <path d="M 420.33722 320.4 
L 420.33722 43.2 
" clip-path="url(#p6696ddf96c)" style="fill: none; stroke: #b0b0b0; stroke-width: 0.8; stroke-linecap: square"/>
     </g>
     <g id="line2d_8">
      <g>
       <use xlink:href="#m77723600a2" x="420.33722" y="320.4" style="stroke: #000000; stroke-width: 0.8"/>
      </g>
     </g>
     <g id="text_4">
      <!-- 300 -->
      <g transform="translate(410.79347 334.998438) scale(0.1 -0.1)">
       <defs>
        <path id="DejaVuSans-33" d="M 2597 2516 
Q 3050 2419 3304 2112 
Q 3559 1806 3559 1356 
Q 3559 666 3084 287 
Q 2609 -91 1734 -91 
Q 1441 -91 1130 -33 
Q 819 25 488 141 
L 488 750 
Q 750 597 1062 519 
Q 1375 441 1716 441 
Q 2309 441 2620 675 
Q 2931 909 2931 1356 
Q 2931 1769 2642 2001 
Q 2353 2234 1838 2234 
L 1294 2234 
L 1294 2753 
L 1863 2753 
Q 2328 2753 2575 2939 
Q 2822 3125 2822 3475 
Q 2822 3834 2567 4026 
Q 2313 4219 1838 4219 
Q 1578 4219 1281 4162 
Q 984 4106 628 3988 
L 628 4550 
Q 988 4650 1302 4700 
Q 1616 4750 1894 4750 
Q 2613 4750 3031 4423 
Q 3450 4097 3450 3541 
Q 3450 3153 3228 2886 
Q 3006 2619 2597 2516 
z
" transform="scale(0.015625)"/>
       </defs>
       <use xlink:href="#DejaVuSans-33"/>
       <use xlink:href="#DejaVuSans-30" x="63.623047"/>
       <use xlink:href="#DejaVuSans-30" x="127.246094"/>
      </g>
     </g>
    </g>
    <g id="xtick_5">
     <g id="line2d_9">
      <path d="M 521.995081 320.4 
L 521.995081 43.2 
" clip-path="url(#p6696ddf96c)" style="fill: none; stroke: #b0b0b0; stroke-width: 0.8; stroke-linecap: square"/>
     </g>
     <g id="line2d_10">
      <g>
       <use xlink:href="#m77723600a2" x="521.995081" y="320.4" style="stroke: #000000; stroke-width: 0.8"/>
      </g>
     </g>
     <g id="text_5">
      <!-- 400 -->
      <g transform="translate(512.451331 334.998438) scale(0.1 -0.1)">
       <defs>
        <path id="DejaVuSans-34" d="M 2419 4116 
L 825 1625 
L 2419 1625 
L 2419 4116 
z
M 2253 4666 
L 3047 4666 
L 3047 1625 
L 3713 1625 
L 3713 1100 
L 3047 1100 
L 3047 0 
L 2419 0 
L 2419 1100 
L 313 1100 
L 313 1709 
L 2253 4666 
z
" transform="scale(0.015625)"/>
       </defs>
       <use xlink:href="#DejaVuSans-34"/>
       <use xlink:href="#DejaVuSans-30" x="63.623047"/>
       <use xlink:href="#DejaVuSans-30" x="127.246094"/>
      </g>
     </g>
    </g>
    <g id="xtick_6">
     <g id="line2d_11">
      <path d="M 623.652942 320.4 
L 623.652942 43.2 
" clip-path="url(#p6696ddf96c)" style="fill: none; stroke: #b0b0b0; stroke-width: 0.8; stroke-linecap: square"/>
     </g>
     <g id="line2d_12">
      <g>
       <use xlink:href="#m77723600a2" x="623.652942" y="320.4" style="stroke: #000000; stroke-width: 0.8"/>
      </g>
     </g>
     <g id="text_6">
      <!-- 500 -->
      <g transform="translate(614.109192 334.998438) scale(0.1 -0.1)">
       <defs>
        <path id="DejaVuSans-35" d="M 691 4666 
L 3169 4666 
L 3169 4134 
L 1269 4134 
L 1269 2991 
Q 1406 3038 1543 3061 
Q 1681 3084 1819 3084 
Q 2600 3084 3056 2656 
Q 3513 2228 3513 1497 
Q 3513 744 3044 326 
Q 2575 -91 1722 -91 
Q 1428 -91 1123 -41 
Q 819 9 494 109 
L 494 744 
Q 775 591 1075 516 
Q 1375 441 1709 441 
Q 2250 441 2565 725 
Q 2881 1009 2881 1497 
Q 2881 1984 2565 2268 
Q 2250 2553 1709 2553 
Q 1456 2553 1204 2497 
Q 953 2441 691 2322 
L 691 4666 
z
" transform="scale(0.015625)"/>
       </defs>
       <use xlink:href="#DejaVuSans-35"/>
       <use xlink:href="#DejaVuSans-30" x="63.623047"/>
       <use xlink:href="#DejaVuSans-30" x="127.246094"/>
      </g>
     </g>
    </g>
    <g id="text_7">
     <!-- epoch -->
     <g transform="translate(353.771875 348.676562) scale(0.1 -0.1)">
      <defs>
       <path id="DejaVuSans-65" d="M 3597 1894 
L 3597 1613 
L 953 1613 
Q 991 1019 1311 708 
Q 1631 397 2203 397 
Q 2534 397 2845 478 
Q 3156 559 3463 722 
L 3463 178 
Q 3153 47 2828 -22 
Q 2503 -91 2169 -91 
Q 1331 -91 842 396 
Q 353 884 353 1716 
Q 353 2575 817 3079 
Q 1281 3584 2069 3584 
Q 2775 3584 3186 3129 
Q 3597 2675 3597 1894 
z
M 3022 2063 
Q 3016 2534 2758 2815 
Q 2500 3097 2075 3097 
Q 1594 3097 1305 2825 
Q 1016 2553 972 2059 
L 3022 2063 
z
" transform="scale(0.015625)"/>
       <path id="DejaVuSans-70" d="M 1159 525 
L 1159 -1331 
L 581 -1331 
L 581 3500 
L 1159 3500 
L 1159 2969 
Q 1341 3281 1617 3432 
Q 1894 3584 2278 3584 
Q 2916 3584 3314 3078 
Q 3713 2572 3713 1747 
Q 3713 922 3314 415 
Q 2916 -91 2278 -91 
Q 1894 -91 1617 61 
Q 1341 213 1159 525 
z
M 3116 1747 
Q 3116 2381 2855 2742 
Q 2594 3103 2138 3103 
Q 1681 3103 1420 2742 
Q 1159 2381 1159 1747 
Q 1159 1113 1420 752 
Q 1681 391 2138 391 
Q 2594 391 2855 752 
Q 3116 1113 3116 1747 
z
" transform="scale(0.015625)"/>
       <path id="DejaVuSans-6f" d="M 1959 3097 
Q 1497 3097 1228 2736 
Q 959 2375 959 1747 
Q 959 1119 1226 758 
Q 1494 397 1959 397 
Q 2419 397 2687 759 
Q 2956 1122 2956 1747 
Q 2956 2369 2687 2733 
Q 2419 3097 1959 3097 
z
M 1959 3584 
Q 2709 3584 3137 3096 
Q 3566 2609 3566 1747 
Q 3566 888 3137 398 
Q 2709 -91 1959 -91 
Q 1206 -91 779 398 
Q 353 888 353 1747 
Q 353 2609 779 3096 
Q 1206 3584 1959 3584 
z
" transform="scale(0.015625)"/>
       <path id="DejaVuSans-63" d="M 3122 3366 
L 3122 2828 
Q 2878 2963 2633 3030 
Q 2388 3097 2138 3097 
Q 1578 3097 1268 2742 
Q 959 2388 959 1747 
Q 959 1106 1268 751 
Q 1578 397 2138 397 
Q 2388 397 2633 464 
Q 2878 531 3122 666 
L 3122 134 
Q 2881 22 2623 -34 
Q 2366 -91 2075 -91 
Q 1284 -91 818 406 
Q 353 903 353 1747 
Q 353 2603 823 3093 
Q 1294 3584 2113 3584 
Q 2378 3584 2631 3529 
Q 2884 3475 3122 3366 
z
" transform="scale(0.015625)"/>
       <path id="DejaVuSans-68" d="M 3513 2113 
L 3513 0 
L 2938 0 
L 2938 2094 
Q 2938 2591 2744 2837 
Q 2550 3084 2163 3084 
Q 1697 3084 1428 2787 
Q 1159 2491 1159 1978 
L 1159 0 
L 581 0 
L 581 4863 
L 1159 4863 
L 1159 2956 
Q 1366 3272 1645 3428 
Q 1925 3584 2291 3584 
Q 2894 3584 3203 3211 
Q 3513 2838 3513 2113 
z
" transform="scale(0.015625)"/>
      </defs>
      <use xlink:href="#DejaVuSans-65"/>
      <use xlink:href="#DejaVuSans-70" x="61.523438"/>
      <use xlink:href="#DejaVuSans-6f" x="125"/>
      <use xlink:href="#DejaVuSans-63" x="186.181641"/>
      <use xlink:href="#DejaVuSans-68" x="241.162109"/>
     </g>
    </g>
   </g>
   <g id="matplotlib.axis_2">
    <g id="ytick_1">
     <g id="line2d_13">
      <path d="M 90 289.316219 
L 648 289.316219 
" clip-path="url(#p6696ddf96c)" style="fill: none; stroke: #b0b0b0; stroke-width: 0.8; stroke-linecap: square"/>
     </g>
     <g id="line2d_14">
      <defs>
       <path id="m6a9ef4c055" d="M 0 0 
L -3.5 0 
" style="stroke: #000000; stroke-width: 0.8"/>
      </defs>
      <g>
       <use xlink:href="#m6a9ef4c055" x="90" y="289.316219" style="stroke: #000000; stroke-width: 0.8"/>
      </g>
     </g>
     <g id="text_8">
      <!-- 1.15 -->
      <g transform="translate(60.734375 293.115438) scale(0.1 -0.1)">
       <defs>
        <path id="DejaVuSans-2e" d="M 684 794 
L 1344 794 
L 1344 0 
L 684 0 
L 684 794 
z
" transform="scale(0.015625)"/>
       </defs>
       <use xlink:href="#DejaVuSans-31"/>
       <use xlink:href="#DejaVuSans-2e" x="63.623047"/>
       <use xlink:href="#DejaVuSans-31" x="95.410156"/>
       <use xlink:href="#DejaVuSans-35" x="159.033203"/>
      </g>
     </g>
    </g>
    <g id="ytick_2">
     <g id="line2d_15">
      <path d="M 90 239.769974 
L 648 239.769974 
" clip-path="url(#p6696ddf96c)" style="fill: none; stroke: #b0b0b0; stroke-width: 0.8; stroke-linecap: square"/>
     </g>
     <g id="line2d_16">
      <g>
       <use xlink:href="#m6a9ef4c055" x="90" y="239.769974" style="stroke: #000000; stroke-width: 0.8"/>
      </g>
     </g>
     <g id="text_9">
      <!-- 1.20 -->
      <g transform="translate(60.734375 243.569192) scale(0.1 -0.1)">
       <use xlink:href="#DejaVuSans-31"/>
       <use xlink:href="#DejaVuSans-2e" x="63.623047"/>
       <use xlink:href="#DejaVuSans-32" x="95.410156"/>
       <use xlink:href="#DejaVuSans-30" x="159.033203"/>
      </g>
     </g>
    </g>
    <g id="ytick_3">
     <g id="line2d_17">
      <path d="M 90 190.223728 
L 648 190.223728 
" clip-path="url(#p6696ddf96c)" style="fill: none; stroke: #b0b0b0; stroke-width: 0.8; stroke-linecap: square"/>
     </g>
     <g id="line2d_18">
      <g>
       <use xlink:href="#m6a9ef4c055" x="90" y="190.223728" style="stroke: #000000; stroke-width: 0.8"/>
      </g>
     </g>
     <g id="text_10">
      <!-- 1.25 -->
      <g transform="translate(60.734375 194.022947) scale(0.1 -0.1)">
       <use xlink:href="#DejaVuSans-31"/>
       <use xlink:href="#DejaVuSans-2e" x="63.623047"/>
       <use xlink:href="#DejaVuSans-32" x="95.410156"/>
       <use xlink:href="#DejaVuSans-35" x="159.033203"/>
      </g>
     </g>
    </g>
    <g id="ytick_4">
     <g id="line2d_19">
      <path d="M 90 140.677482 
L 648 140.677482 
" clip-path="url(#p6696ddf96c)" style="fill: none; stroke: #b0b0b0; stroke-width: 0.8; stroke-linecap: square"/>
     </g>
     <g id="line2d_20">
      <g>
       <use xlink:href="#m6a9ef4c055" x="90" y="140.677482" style="stroke: #000000; stroke-width: 0.8"/>
      </g>
     </g>
     <g id="text_11">
      <!-- 1.30 -->
      <g transform="translate(60.734375 144.476701) scale(0.1 -0.1)">
       <use xlink:href="#DejaVuSans-31"/>
       <use xlink:href="#DejaVuSans-2e" x="63.623047"/>
       <use xlink:href="#DejaVuSans-33" x="95.410156"/>
       <use xlink:href="#DejaVuSans-30" x="159.033203"/>
      </g>
     </g>
    </g>
    <g id="ytick_5">
     <g id="line2d_21">
      <path d="M 90 91.131237 
L 648 91.131237 
" clip-path="url(#p6696ddf96c)" style="fill: none; stroke: #b0b0b0; stroke-width: 0.8; stroke-linecap: square"/>
     </g>
     <g id="line2d_22">
      <g>
       <use xlink:href="#m6a9ef4c055" x="90" y="91.131237" style="stroke: #000000; stroke-width: 0.8"/>
      </g>
     </g>
     <g id="text_12">
      <!-- 1.35 -->
      <g transform="translate(60.734375 94.930455) scale(0.1 -0.1)">
       <use xlink:href="#DejaVuSans-31"/>
       <use xlink:href="#DejaVuSans-2e" x="63.623047"/>
       <use xlink:href="#DejaVuSans-33" x="95.410156"/>
       <use xlink:href="#DejaVuSans-35" x="159.033203"/>
      </g>
     </g>
    </g>
    <g id="text_13">
     <!-- loss -->
     <g transform="translate(54.654688 191.457812) rotate(-90) scale(0.1 -0.1)">
      <defs>
       <path id="DejaVuSans-6c" d="M 603 4863 
L 1178 4863 
L 1178 0 
L 603 0 
L 603 4863 
z
" transform="scale(0.015625)"/>
       <path id="DejaVuSans-73" d="M 2834 3397 
L 2834 2853 
Q 2591 2978 2328 3040 
Q 2066 3103 1784 3103 
Q 1356 3103 1142 2972 
Q 928 2841 928 2578 
Q 928 2378 1081 2264 
Q 1234 2150 1697 2047 
L 1894 2003 
Q 2506 1872 2764 1633 
Q 3022 1394 3022 966 
Q 3022 478 2636 193 
Q 2250 -91 1575 -91 
Q 1294 -91 989 -36 
Q 684 19 347 128 
L 347 722 
Q 666 556 975 473 
Q 1284 391 1588 391 
Q 1994 391 2212 530 
Q 2431 669 2431 922 
Q 2431 1156 2273 1281 
Q 2116 1406 1581 1522 
L 1381 1569 
Q 847 1681 609 1914 
Q 372 2147 372 2553 
Q 372 3047 722 3315 
Q 1072 3584 1716 3584 
Q 2034 3584 2315 3537 
Q 2597 3491 2834 3397 
z
" transform="scale(0.015625)"/>
      </defs>
      <use xlink:href="#DejaVuSans-6c"/>
      <use xlink:href="#DejaVuSans-6f" x="27.783203"/>
      <use xlink:href="#DejaVuSans-73" x="88.964844"/>
      <use xlink:href="#DejaVuSans-73" x="141.064453"/>
     </g>
    </g>
   </g>
   <g id="line2d_23">
    <path d="M 115.363636 297.809371 
L 116.380215 296.464962 
L 117.396794 298.464033 
L 118.413372 296.439801 
L 119.429951 297.507909 
L 120.446529 296.036041 
L 121.463108 302.738947 
L 122.479687 300.548864 
L 123.496265 300.297962 
L 124.512844 296.704997 
L 125.529422 301.524951 
L 126.546001 296.050098 
L 127.56258 294.823108 
L 128.579158 301.229042 
L 129.595737 301.914063 
L 130.612316 301.768176 
L 132.645473 298.790065 
L 133.662051 298.718007 
L 134.67863 294.75554 
L 135.695209 299.008246 
L 136.711787 300.288157 
L 137.728366 298.801877 
L 138.744944 300.692862 
L 139.761523 301.504043 
L 140.778102 299.930231 
L 141.79468 300.953451 
L 142.811259 294.980336 
L 143.827837 295.890863 
L 144.844416 301.463998 
L 145.860995 297.506374 
L 146.877573 302.619757 
L 147.894152 300.618323 
L 148.910731 299.865615 
L 149.927309 296.429878 
L 150.943888 297.95573 
L 151.960466 295.177845 
L 152.977045 298.219155 
L 153.993624 302.213989 
L 155.010202 302.123503 
L 156.026781 301.83858 
L 157.043359 297.920292 
L 158.059938 295.525612 
L 159.076517 300.441014 
L 160.093095 294.813895 
L 161.109674 301.897998 
L 162.126253 297.404548 
L 163.142831 297.380095 
L 164.15941 296.486697 
L 165.175988 297.662302 
L 166.192567 295.862748 
L 167.209146 296.976336 
L 168.225724 301.111742 
L 169.242303 293.183854 
L 170.258881 301.096503 
L 171.27546 292.457134 
L 172.292039 301.708876 
L 173.308617 297.923127 
L 174.325196 294.701437 
L 175.341774 300.107068 
L 176.358353 298.22199 
L 177.374932 299.629478 
L 178.39151 297.663601 
L 179.408089 304.073788 
L 180.424668 295.973552 
L 181.441246 295.749464 
L 182.457825 300.405458 
L 183.474403 297.244839 
L 184.490982 298.767266 
L 185.507561 298.839324 
L 186.524139 298.692964 
L 187.540718 297.4694 
L 188.557296 295.336845 
L 189.573875 300.074583 
L 190.590454 302.015889 
L 191.607032 300.363995 
L 192.623611 298.394692 
L 193.640189 302.477413 
L 195.673347 295.791163 
L 196.689925 294.287164 
L 197.706504 295.521124 
L 198.723083 298.559598 
L 199.739661 299.619319 
L 200.75624 301.301454 
L 201.772818 295.869836 
L 202.789397 300.785474 
L 203.805976 298.034167 
L 204.822554 297.691479 
L 205.839133 296.228943 
L 206.855711 291.139658 
L 207.87229 301.162891 
L 208.888869 300.745192 
L 209.905447 295.566485 
L 210.922026 293.969756 
L 211.938604 294.915012 
L 212.955183 301.778453 
L 213.971762 301.760025 
L 214.98834 299.073098 
L 216.004919 294.70628 
L 217.021498 299.2458 
L 218.038076 295.945083 
L 219.054655 300.972469 
L 220.071233 300.238898 
L 221.087812 290.972035 
L 222.104391 299.705198 
L 223.120969 295.09492 
L 224.137548 301.157575 
L 225.154126 295.386931 
L 226.170705 303.422669 
L 227.187284 299.199022 
L 228.203862 296.26509 
L 229.220441 297.036817 
L 230.237019 296.079985 
L 231.253598 302.157406 
L 232.270177 298.010542 
L 233.286755 299.042267 
L 234.303334 302.166265 
L 235.319913 298.09642 
L 236.336491 298.54625 
L 237.35307 301.833382 
L 238.369648 297.222041 
L 239.386227 294.940645 
L 240.402806 296.158776 
L 241.419384 299.166301 
L 242.435963 296.857381 
L 243.452541 304.603471 
L 244.46912 295.478361 
L 245.485699 302.548998 
L 247.518856 293.941641 
L 248.535435 302.411971 
L 249.552013 302.330817 
L 250.568592 301.440254 
L 251.58517 291.51932 
L 252.601749 302.237378 
L 253.618328 297.889107 
L 254.634906 299.175751 
L 255.651485 302.0127 
L 256.668063 300.918603 
L 257.684642 299.657238 
L 258.701221 295.509547 
L 259.717799 300.565402 
L 260.734378 295.635707 
L 261.750956 296.997126 
L 262.767535 296.558873 
L 263.784114 301.548341 
L 264.800692 297.596032 
L 265.817271 296.806941 
L 266.83385 299.377749 
L 267.850428 298.211594 
L 268.867007 299.769459 
L 269.883585 302.999064 
L 270.900164 298.924848 
L 271.916743 301.308069 
L 272.933321 294.651469 
L 273.9499 298.798334 
L 274.966478 300.831543 
L 275.983057 306.586713 
L 276.999636 300.317335 
L 278.016214 298.795499 
L 279.032793 300.654116 
L 280.049371 299.392869 
L 281.06595 297.676359 
L 282.082529 296.877345 
L 283.099107 302.563528 
L 284.115686 297.915921 
L 285.132265 297.583156 
L 286.148843 298.661542 
L 287.165422 301.405052 
L 288.182 301.28846 
L 289.198579 303.22894 
L 290.215158 296.320256 
L 291.231736 298.948828 
L 292.248315 293.037376 
L 293.264893 303.630691 
L 294.281472 294.026339 
L 295.298051 295.855897 
L 296.314629 301.500145 
L 297.331208 287.006497 
L 298.347786 299.384718 
L 299.364365 302.690515 
L 300.380944 302.114644 
L 301.397522 301.807158 
L 302.414101 300.290638 
L 303.43068 306.486068 
L 304.447258 296.203073 
L 305.463837 301.612838 
L 306.480415 302.364129 
L 307.496994 300.907972 
L 308.513573 298.095121 
L 310.54673 297.336152 
L 311.563308 298.576963 
L 312.579887 301.566769 
L 313.596466 295.822703 
L 314.613044 299.105347 
L 315.629623 294.419703 
L 316.646201 301.908629 
L 317.66278 301.298147 
L 318.679359 296.925068 
L 319.695937 298.638625 
L 320.712516 302.563292 
L 321.729095 301.165726 
L 322.745673 299.300848 
L 323.762252 301.781997 
L 324.77883 303.913607 
L 325.795409 296.33325 
L 326.811988 302.884598 
L 327.828566 299.576793 
L 328.845145 291.054252 
L 329.861723 302.847743 
L 330.878302 303.550365 
L 331.894881 299.62936 
L 332.911459 301.711711 
L 333.928038 297.229365 
L 334.944617 303.258236 
L 335.961195 295.572155 
L 337.994352 302.693114 
L 339.010931 297.910015 
L 340.02751 299.135233 
L 341.044088 300.787836 
L 342.060667 297.067884 
L 344.093824 292.353654 
L 345.110403 302.026757 
L 346.126981 304.031262 
L 347.14356 300.035837 
L 348.160138 298.516127 
L 349.176717 301.209787 
L 350.193296 297.946398 
L 351.209874 303.419361 
L 353.243032 295.901376 
L 354.25961 296.498274 
L 355.276189 300.691799 
L 356.292767 300.12018 
L 357.309346 302.346292 
L 358.325925 299.505208 
L 359.342503 299.802535 
L 360.359082 302.15209 
L 361.37566 299.609869 
L 362.392239 299.6811 
L 363.408818 302.822109 
L 364.425396 294.467545 
L 365.441975 301.521408 
L 366.458553 301.294603 
L 367.475132 298.649493 
L 368.491711 296.991338 
L 369.508289 301.143872 
L 370.524868 296.613212 
L 371.541447 300.360924 
L 372.558025 297.740266 
L 373.574604 299.118813 
L 374.591182 300.178771 
L 375.607761 298.138828 
L 376.62434 295.733044 
L 377.640918 300.591745 
L 378.657497 299.60101 
L 379.674075 298.10209 
L 380.690654 295.264078 
L 381.707233 302.157997 
L 382.723811 301.55909 
L 383.74039 301.722461 
L 384.756968 300.644784 
L 385.773547 299.138423 
L 386.790126 300.215391 
L 387.806704 297.499995 
L 388.823283 299.099204 
L 389.839862 294.860791 
L 390.85644 300.757359 
L 391.873019 302.31109 
L 392.889597 301.243454 
L 393.906176 304.318666 
L 394.922755 301.272513 
L 395.939333 300.257562 
L 396.955912 299.913929 
L 397.97249 302.013054 
L 398.989069 300.682939 
L 400.005648 297.238933 
L 401.022226 294.390526 
L 402.038805 300.086041 
L 403.055383 300.987708 
L 404.071962 300.742593 
L 405.088541 297.746054 
L 406.105119 301.816254 
L 407.121698 304.593076 
L 408.138277 299.288917 
L 410.171434 298.268532 
L 411.188012 301.771483 
L 412.204591 298.722968 
L 413.22117 302.881291 
L 414.237748 299.083139 
L 415.254327 296.005328 
L 416.270905 302.977683 
L 417.287484 299.434568 
L 418.304063 300.450346 
L 419.320641 302.807225 
L 420.33722 299.095897 
L 421.353799 301.041574 
L 422.370377 301.10489 
L 424.403534 299.323056 
L 425.420113 299.212725 
L 426.436692 299.59723 
L 427.45327 301.702497 
L 428.469849 299.484418 
L 429.486427 296.632349 
L 430.503006 304.163092 
L 431.519585 299.452642 
L 432.536163 304.32091 
L 433.552742 300.844183 
L 434.56932 302.867943 
L 435.585899 297.327056 
L 436.602478 298.815226 
L 437.619056 300.998812 
L 438.635635 301.240737 
L 439.652214 298.783922 
L 440.668792 302.124685 
L 441.685371 299.748905 
L 442.701949 304.362019 
L 443.718528 302.62649 
L 444.735107 300.16684 
L 445.751685 295.195919 
L 446.768264 299.527062 
L 447.784842 297.219088 
L 448.801421 303.214883 
L 450.834578 299.971457 
L 451.851157 305.174145 
L 452.867735 299.775956 
L 453.884314 298.258137 
L 454.900893 302.400512 
L 455.917471 300.483185 
L 456.93405 299.764734 
L 457.950629 296.811784 
L 458.967207 301.104772 
L 459.983786 301.489749 
L 462.016943 301.864804 
L 463.033522 300.846782 
L 464.0501 298.817706 
L 465.066679 298.896734 
L 466.083257 300.192474 
L 467.099836 298.285306 
L 468.116415 299.626643 
L 469.132993 301.792628 
L 470.149572 305.303849 
L 471.16615 299.560256 
L 472.182729 304.867958 
L 473.199308 297.650843 
L 474.215886 295.909054 
L 475.232465 301.106662 
L 476.249044 305.160678 
L 477.265622 301.773374 
L 478.282201 301.841061 
L 479.298779 300.078008 
L 480.315358 294.147656 
L 481.331937 303.669201 
L 482.348515 302.63027 
L 483.365094 302.153153 
L 484.381672 299.876601 
L 485.398251 298.803059 
L 486.41483 302.080977 
L 487.431408 301.542434 
L 488.447987 302.99493 
L 489.464565 301.073823 
L 490.481144 304.750185 
L 491.497723 301.86823 
L 492.514301 301.003773 
L 493.53088 300.28922 
L 494.547459 300.910571 
L 495.564037 303.715743 
L 496.580616 302.832977 
L 497.597194 299.788124 
L 498.613773 300.208303 
L 499.630352 303.217718 
L 500.64693 303.581669 
L 502.680087 298.517545 
L 503.696666 301.087289 
L 504.713245 299.80537 
L 505.729823 298.063935 
L 506.746402 297.188493 
L 507.762981 303.42574 
L 508.779559 294.936511 
L 509.796138 300.868281 
L 510.812716 300.64502 
L 511.829295 295.920985 
L 512.845874 302.736939 
L 513.862452 298.997378 
L 514.879031 298.828456 
L 515.895609 301.374693 
L 516.912188 302.961263 
L 517.928767 297.224758 
L 518.945345 301.033069 
L 519.961924 303.614862 
L 521.995081 301.213095 
L 523.01166 300.840403 
L 524.028238 298.778606 
L 525.044817 304.419783 
L 526.061396 298.946584 
L 527.077974 304.30449 
L 528.094553 302.958901 
L 529.111131 304.039412 
L 530.12771 306.751383 
L 531.144289 301.263417 
L 532.160867 299.381529 
L 533.177446 302.744145 
L 534.194024 299.750323 
L 535.210603 297.836776 
L 536.227182 303.57151 
L 537.24376 299.914756 
L 538.260339 295.05452 
L 539.276917 304.71522 
L 540.293496 301.333467 
L 541.310075 299.68488 
L 542.326653 301.885004 
L 543.343232 300.83178 
L 544.359811 302.353852 
L 545.376389 301.43423 
L 546.392968 304.114542 
L 547.409546 302.52242 
L 548.426125 295.398153 
L 549.442704 300.718023 
L 550.459282 301.133595 
L 551.475861 300.119825 
L 552.492439 301.468723 
L 553.509018 300.673016 
L 554.525597 301.001529 
L 555.542175 296.515875 
L 556.558754 296.75083 
L 557.575332 301.595001 
L 558.591911 302.976147 
L 559.60849 298.339527 
L 560.625068 303.861749 
L 561.641647 300.227794 
L 562.658226 300.296662 
L 563.674804 305.936067 
L 564.691383 299.975119 
L 565.707961 304.171243 
L 566.72454 303.568911 
L 567.741119 307.8 
L 568.757697 300.320996 
L 569.774276 303.594899 
L 570.790854 299.430906 
L 571.807433 301.365007 
L 572.824012 305.092519 
L 573.84059 306.471775 
L 574.857169 302.530334 
L 575.873747 300.279297 
L 576.890326 303.652663 
L 577.906905 303.867773 
L 578.923483 299.815293 
L 579.940062 298.254475 
L 580.956641 301.213095 
L 581.973219 302.836875 
L 582.989798 306.163226 
L 584.006376 298.010896 
L 585.022955 301.407178 
L 586.039534 301.968874 
L 587.056112 295.826011 
L 588.072691 304.225463 
L 589.089269 305.662366 
L 590.105848 300.620095 
L 591.122427 306.235166 
L 592.139005 304.376666 
L 593.155584 297.037526 
L 594.172163 301.008616 
L 595.188741 299.943107 
L 596.20532 305.79963 
L 597.221898 304.398992 
L 598.238477 302.170282 
L 599.255056 304.926904 
L 600.271634 300.901239 
L 601.288213 302.63724 
L 602.304791 301.433639 
L 603.32137 300.696524 
L 604.337949 295.1971 
L 605.354527 300.663566 
L 606.371106 297.25996 
L 607.387684 299.761545 
L 608.404263 298.270304 
L 609.420842 295.483323 
L 610.43742 302.854594 
L 611.453999 301.89032 
L 612.470578 299.330498 
L 613.487156 295.831681 
L 614.503735 296.53702 
L 615.520313 303.430111 
L 616.536892 304.42309 
L 617.553471 304.235386 
L 618.570049 301.142337 
L 619.586628 301.641661 
L 620.603206 301.49353 
L 622.636364 298.04409 
L 622.636364 298.04409 
" clip-path="url(#p6696ddf96c)" style="fill: none; stroke: #1f77b4; stroke-width: 1.5; stroke-linecap: square"/>
   </g>
   <g id="line2d_24">
    <path d="M 115.363636 60.745288 
L 122.479687 60.620427 
L 123.496265 60.723552 
L 124.512844 60.41524 
L 126.546001 60.515412 
L 129.595737 60.326408 
L 130.612316 60.43792 
L 131.628894 60.399174 
L 132.645473 60.110235 
L 135.695209 59.865711 
L 136.711787 60.008054 
L 137.728366 59.783258 
L 139.761523 59.812553 
L 140.778102 59.559052 
L 141.79468 59.683558 
L 143.827837 59.592718 
L 146.877573 59.42356 
L 147.894152 59.507312 
L 148.910731 59.474945 
L 149.927309 59.616934 
L 150.943888 59.332483 
L 155.010202 59.662295 
L 156.026781 59.854843 
L 157.043359 59.754907 
L 158.059938 59.793653 
L 159.076517 59.697261 
L 161.109674 59.721241 
L 162.126253 59.338508 
L 163.142831 59.214592 
L 166.192567 59.234674 
L 167.209146 58.975738 
L 170.258881 58.906043 
L 171.27546 59.222861 
L 172.292039 59.212466 
L 174.325196 59.567557 
L 175.341774 59.65887 
L 180.424668 59.53141 
L 182.457825 59.628038 
L 183.474403 59.470456 
L 185.507561 59.711791 
L 187.540718 59.732109 
L 190.590454 59.777115 
L 191.607032 59.885202 
L 193.640189 59.590946 
L 194.656768 59.675526 
L 198.723083 59.473764 
L 202.789397 59.528102 
L 203.805976 59.108868 
L 208.888869 59.076856 
L 210.922026 59.432183 
L 212.955183 59.575353 
L 213.971762 59.437144 
L 218.038076 59.497153 
L 220.071233 59.542632 
L 221.087812 59.292556 
L 222.104391 59.259008 
L 224.137548 59.519479 
L 225.154126 59.511919 
L 226.170705 59.306968 
L 227.187284 59.444823 
L 228.203862 59.388121 
L 230.237019 59.021099 
L 233.286755 59.005861 
L 235.319913 59.104497 
L 237.35307 58.91006 
L 238.369648 58.886198 
L 239.386227 58.713496 
L 240.402806 58.88478 
L 241.419384 58.814967 
L 242.435963 58.960028 
L 245.485699 59.00527 
L 248.535435 59.388594 
L 249.552013 59.296336 
L 250.568592 58.986134 
L 251.58517 58.872613 
L 254.634906 58.863636 
L 255.651485 59.168286 
L 259.717799 59.08666 
L 260.734378 58.919864 
L 261.750956 59.068705 
L 263.784114 58.985661 
L 264.800692 59.141471 
L 265.817271 59.112766 
L 266.83385 59.226169 
L 267.850428 59.535426 
L 268.867007 59.419425 
L 269.883585 58.839538 
L 271.916743 59.189549 
L 272.933321 58.823827 
L 275.983057 58.746453 
L 276.999636 58.611197 
L 278.016214 58.734168 
L 279.032793 58.645454 
L 282.082529 58.700265 
L 283.099107 58.092618 
L 284.115686 58.343048 
L 285.132265 58.268391 
L 286.148843 58.424674 
L 287.165422 58.359822 
L 288.182 58.498976 
L 289.198579 58.385337 
L 290.215158 58.688807 
L 291.231736 58.352852 
L 292.248315 58.460939 
L 293.264893 58.756258 
L 294.281472 58.647817 
L 295.298051 58.812132 
L 296.314629 58.183694 
L 297.331208 58.793586 
L 299.364365 58.692114 
L 300.380944 59.041299 
L 301.397522 58.922817 
L 302.414101 58.973258 
L 303.43068 59.338862 
L 304.447258 59.324451 
L 305.463837 59.158482 
L 306.480415 59.501642 
L 307.496994 59.128241 
L 309.530151 59.319017 
L 310.54673 59.653081 
L 311.563308 59.653672 
L 312.579887 59.183879 
L 313.596466 59.631464 
L 314.613044 59.692536 
L 317.66278 59.427222 
L 321.729095 59.513691 
L 323.762252 59.412692 
L 324.77883 59.374419 
L 327.828566 59.739787 
L 330.878302 59.517117 
L 331.894881 59.643749 
L 335.961195 59.561651 
L 336.977774 59.310039 
L 339.010931 59.283815 
L 340.02751 58.858438 
L 341.044088 58.864581 
L 344.093824 59.381979 
L 345.110403 59.395563 
L 347.14356 59.741677 
L 348.160138 59.903748 
L 351.209874 59.836415 
L 353.243032 59.896896 
L 354.25961 59.697025 
L 355.276189 59.615399 
L 357.309346 59.81527 
L 358.325925 59.676471 
L 361.37566 60.034869 
L 364.425396 59.852953 
L 366.458553 60.308689 
L 368.491711 60.200838 
L 370.524868 60.052588 
L 371.541447 60.203083 
L 372.558025 60.490841 
L 373.574604 60.428942 
L 374.591182 60.193396 
L 381.707233 60.327943 
L 382.723811 60.110943 
L 388.823283 59.979822 
L 391.873019 60.366099 
L 395.939333 60.127954 
L 396.955912 60.413586 
L 398.989069 59.99069 
L 400.005648 59.942966 
L 401.022226 59.751363 
L 402.038805 59.788692 
L 403.055383 59.995651 
L 405.088541 60.154532 
L 406.105119 59.903748 
L 407.121698 59.851063 
L 409.154855 60.226826 
L 410.171434 60.265572 
L 411.188012 59.948872 
L 412.204591 59.852244 
L 416.270905 60.046682 
L 418.304063 59.910599 
L 419.320641 59.463605 
L 421.353799 59.404777 
L 424.403534 59.595671 
L 426.436692 59.706593 
L 427.45327 59.932571 
L 429.486427 59.796252 
L 430.503006 59.87587 
L 431.519585 59.83547 
L 432.536163 59.907528 
L 434.56932 59.80712 
L 437.619056 59.77428 
L 439.652214 59.68155 
L 440.668792 59.839723 
L 441.685371 59.783494 
L 442.701949 59.402769 
L 445.751685 59.290784 
L 446.768264 59.080045 
L 448.801421 59.117964 
L 450.834578 59.174074 
L 451.851157 58.905807 
L 454.900893 59.034566 
L 455.917471 59.222152 
L 456.93405 59.157537 
L 458.967207 59.264206 
L 459.983786 59.134974 
L 462.016943 59.200653 
L 466.083257 59.01094 
L 467.099836 58.584028 
L 468.116415 59.062562 
L 469.132993 58.685972 
L 470.149572 58.937229 
L 475.232465 58.933213 
L 476.249044 58.563592 
L 478.282201 58.231417 
L 479.298779 58.843436 
L 480.315358 58.411798 
L 481.331937 58.468263 
L 482.348515 58.786616 
L 483.365094 58.607063 
L 485.398251 58.618875 
L 486.41483 58.189482 
L 487.431408 58.736885 
L 488.447987 58.137742 
L 489.464565 59.190258 
L 490.481144 59.294446 
L 492.514301 59.050277 
L 493.53088 58.751296 
L 494.547459 58.791696 
L 495.564037 59.424859 
L 501.663509 59.098355 
L 503.696666 59.310275 
L 504.713245 58.565482 
L 505.729823 58.530516 
L 507.762981 57.41681 
L 509.796138 56.993087 
L 510.812716 57.146889 
L 511.829295 57.511903 
L 512.845874 57.558682 
L 513.862452 56.952688 
L 514.879031 57.119129 
L 516.912188 56.879212 
L 517.928767 57.17524 
L 519.961924 56.959539 
L 521.995081 56.748563 
L 524.028238 57.450359 
L 525.044817 57.007499 
L 528.094553 56.880157 
L 532.160867 56.485494 
L 534.194024 56.929653 
L 535.210603 56.666937 
L 536.227182 56.553181 
L 538.260339 56.672253 
L 539.276917 56.234237 
L 541.310075 56.595588 
L 542.326653 56.760849 
L 544.359811 56.689145 
L 546.392968 56.195727 
L 547.409546 56.215809 
L 548.426125 55.8 
L 550.459282 55.897337 
L 553.509018 56.176827 
L 554.525597 56.189348 
L 555.542175 56.435762 
L 558.591911 56.707928 
L 559.60849 56.983873 
L 560.625068 56.789436 
L 561.641647 56.942292 
L 562.658226 56.952333 
L 564.691383 57.681416 
L 565.707961 57.916608 
L 566.72454 57.497255 
L 568.757697 58.173653 
L 569.774276 57.946612 
L 570.790854 58.030955 
L 571.807433 58.227755 
L 574.857169 58.314107 
L 575.873747 58.694359 
L 576.890326 58.378959 
L 577.906905 57.905031 
L 578.923483 59.151748 
L 579.940062 58.483265 
L 580.956641 58.099587 
L 581.973219 58.222085 
L 582.989798 58.607063 
L 584.006376 58.57694 
L 585.022955 58.335724 
L 586.039534 57.822815 
L 587.056112 57.525606 
L 588.072691 58.356987 
L 589.089269 57.784777 
L 590.105848 58.193026 
L 592.139005 57.690394 
L 595.188741 58.138333 
L 596.20532 57.919207 
L 598.238477 57.862033 
L 600.271634 57.0831 
L 601.288213 56.930952 
L 602.304791 57.223436 
L 603.32137 57.394957 
L 604.337949 56.539005 
L 606.371106 56.630082 
L 607.387684 56.882047 
L 610.43742 56.799713 
L 611.453999 56.926818 
L 612.470578 57.289587 
L 613.487156 57.094086 
L 614.503735 57.201819 
L 615.520313 56.88949 
L 616.536892 57.109325 
L 617.553471 57.114522 
L 618.570049 57.231587 
L 619.586628 56.535698 
L 620.603206 57.307188 
L 621.619785 57.274467 
L 622.636364 57.053805 
L 622.636364 57.053805 
" clip-path="url(#p6696ddf96c)" style="fill: none; stroke: #ff7f0e; stroke-width: 1.5; stroke-linecap: square"/>
   </g>
   <g id="patch_3">
    <path d="M 90 320.4 
L 90 43.2 
" style="fill: none; stroke: #000000; stroke-width: 0.8; stroke-linejoin: miter; stroke-linecap: square"/>
   </g>
   <g id="patch_4">
    <path d="M 648 320.4 
L 648 43.2 
" style="fill: none; stroke: #000000; stroke-width: 0.8; stroke-linejoin: miter; stroke-linecap: square"/>
   </g>
   <g id="patch_5">
    <path d="M 90 320.4 
L 648 320.4 
" style="fill: none; stroke: #000000; stroke-width: 0.8; stroke-linejoin: miter; stroke-linecap: square"/>
   </g>
   <g id="patch_6">
    <path d="M 90 43.2 
L 648 43.2 
" style="fill: none; stroke: #000000; stroke-width: 0.8; stroke-linejoin: miter; stroke-linecap: square"/>
   </g>
   <g id="text_14">
    <!-- model train and validation loss over time -->
    <g transform="translate(245.555625 37.2) scale(0.12 -0.12)">
     <defs>
      <path id="DejaVuSans-6d" d="M 3328 2828 
Q 3544 3216 3844 3400 
Q 4144 3584 4550 3584 
Q 5097 3584 5394 3201 
Q 5691 2819 5691 2113 
L 5691 0 
L 5113 0 
L 5113 2094 
Q 5113 2597 4934 2840 
Q 4756 3084 4391 3084 
Q 3944 3084 3684 2787 
Q 3425 2491 3425 1978 
L 3425 0 
L 2847 0 
L 2847 2094 
Q 2847 2600 2669 2842 
Q 2491 3084 2119 3084 
Q 1678 3084 1418 2786 
Q 1159 2488 1159 1978 
L 1159 0 
L 581 0 
L 581 3500 
L 1159 3500 
L 1159 2956 
Q 1356 3278 1631 3431 
Q 1906 3584 2284 3584 
Q 2666 3584 2933 3390 
Q 3200 3197 3328 2828 
z
" transform="scale(0.015625)"/>
      <path id="DejaVuSans-64" d="M 2906 2969 
L 2906 4863 
L 3481 4863 
L 3481 0 
L 2906 0 
L 2906 525 
Q 2725 213 2448 61 
Q 2172 -91 1784 -91 
Q 1150 -91 751 415 
Q 353 922 353 1747 
Q 353 2572 751 3078 
Q 1150 3584 1784 3584 
Q 2172 3584 2448 3432 
Q 2725 3281 2906 2969 
z
M 947 1747 
Q 947 1113 1208 752 
Q 1469 391 1925 391 
Q 2381 391 2643 752 
Q 2906 1113 2906 1747 
Q 2906 2381 2643 2742 
Q 2381 3103 1925 3103 
Q 1469 3103 1208 2742 
Q 947 2381 947 1747 
z
" transform="scale(0.015625)"/>
      <path id="DejaVuSans-20" transform="scale(0.015625)"/>
      <path id="DejaVuSans-74" d="M 1172 4494 
L 1172 3500 
L 2356 3500 
L 2356 3053 
L 1172 3053 
L 1172 1153 
Q 1172 725 1289 603 
Q 1406 481 1766 481 
L 2356 481 
L 2356 0 
L 1766 0 
Q 1100 0 847 248 
Q 594 497 594 1153 
L 594 3053 
L 172 3053 
L 172 3500 
L 594 3500 
L 594 4494 
L 1172 4494 
z
" transform="scale(0.015625)"/>
      <path id="DejaVuSans-72" d="M 2631 2963 
Q 2534 3019 2420 3045 
Q 2306 3072 2169 3072 
Q 1681 3072 1420 2755 
Q 1159 2438 1159 1844 
L 1159 0 
L 581 0 
L 581 3500 
L 1159 3500 
L 1159 2956 
Q 1341 3275 1631 3429 
Q 1922 3584 2338 3584 
Q 2397 3584 2469 3576 
Q 2541 3569 2628 3553 
L 2631 2963 
z
" transform="scale(0.015625)"/>
      <path id="DejaVuSans-61" d="M 2194 1759 
Q 1497 1759 1228 1600 
Q 959 1441 959 1056 
Q 959 750 1161 570 
Q 1363 391 1709 391 
Q 2188 391 2477 730 
Q 2766 1069 2766 1631 
L 2766 1759 
L 2194 1759 
z
M 3341 1997 
L 3341 0 
L 2766 0 
L 2766 531 
Q 2569 213 2275 61 
Q 1981 -91 1556 -91 
Q 1019 -91 701 211 
Q 384 513 384 1019 
Q 384 1609 779 1909 
Q 1175 2209 1959 2209 
L 2766 2209 
L 2766 2266 
Q 2766 2663 2505 2880 
Q 2244 3097 1772 3097 
Q 1472 3097 1187 3025 
Q 903 2953 641 2809 
L 641 3341 
Q 956 3463 1253 3523 
Q 1550 3584 1831 3584 
Q 2591 3584 2966 3190 
Q 3341 2797 3341 1997 
z
" transform="scale(0.015625)"/>
      <path id="DejaVuSans-69" d="M 603 3500 
L 1178 3500 
L 1178 0 
L 603 0 
L 603 3500 
z
M 603 4863 
L 1178 4863 
L 1178 4134 
L 603 4134 
L 603 4863 
z
" transform="scale(0.015625)"/>
      <path id="DejaVuSans-6e" d="M 3513 2113 
L 3513 0 
L 2938 0 
L 2938 2094 
Q 2938 2591 2744 2837 
Q 2550 3084 2163 3084 
Q 1697 3084 1428 2787 
Q 1159 2491 1159 1978 
L 1159 0 
L 581 0 
L 581 3500 
L 1159 3500 
L 1159 2956 
Q 1366 3272 1645 3428 
Q 1925 3584 2291 3584 
Q 2894 3584 3203 3211 
Q 3513 2838 3513 2113 
z
" transform="scale(0.015625)"/>
      <path id="DejaVuSans-76" d="M 191 3500 
L 800 3500 
L 1894 563 
L 2988 3500 
L 3597 3500 
L 2284 0 
L 1503 0 
L 191 3500 
z
" transform="scale(0.015625)"/>
     </defs>
     <use xlink:href="#DejaVuSans-6d"/>
     <use xlink:href="#DejaVuSans-6f" x="97.412109"/>
     <use xlink:href="#DejaVuSans-64" x="158.59375"/>
     <use xlink:href="#DejaVuSans-65" x="222.070312"/>
     <use xlink:href="#DejaVuSans-6c" x="283.59375"/>
     <use xlink:href="#DejaVuSans-20" x="311.376953"/>
     <use xlink:href="#DejaVuSans-74" x="343.164062"/>
     <use xlink:href="#DejaVuSans-72" x="382.373047"/>
     <use xlink:href="#DejaVuSans-61" x="423.486328"/>
     <use xlink:href="#DejaVuSans-69" x="484.765625"/>
     <use xlink:href="#DejaVuSans-6e" x="512.548828"/>
     <use xlink:href="#DejaVuSans-20" x="575.927734"/>
     <use xlink:href="#DejaVuSans-61" x="607.714844"/>
     <use xlink:href="#DejaVuSans-6e" x="668.994141"/>
     <use xlink:href="#DejaVuSans-64" x="732.373047"/>
     <use xlink:href="#DejaVuSans-20" x="795.849609"/>
     <use xlink:href="#DejaVuSans-76" x="827.636719"/>
     <use xlink:href="#DejaVuSans-61" x="886.816406"/>
     <use xlink:href="#DejaVuSans-6c" x="948.095703"/>
     <use xlink:href="#DejaVuSans-69" x="975.878906"/>
     <use xlink:href="#DejaVuSans-64" x="1003.662109"/>
     <use xlink:href="#DejaVuSans-61" x="1067.138672"/>
     <use xlink:href="#DejaVuSans-74" x="1128.417969"/>
     <use xlink:href="#DejaVuSans-69" x="1167.626953"/>
     <use xlink:href="#DejaVuSans-6f" x="1195.410156"/>
     <use xlink:href="#DejaVuSans-6e" x="1256.591797"/>
     <use xlink:href="#DejaVuSans-20" x="1319.970703"/>
     <use xlink:href="#DejaVuSans-6c" x="1351.757812"/>
     <use xlink:href="#DejaVuSans-6f" x="1379.541016"/>
     <use xlink:href="#DejaVuSans-73" x="1440.722656"/>
     <use xlink:href="#DejaVuSans-73" x="1492.822266"/>
     <use xlink:href="#DejaVuSans-20" x="1544.921875"/>
     <use xlink:href="#DejaVuSans-6f" x="1576.708984"/>
     <use xlink:href="#DejaVuSans-76" x="1637.890625"/>
     <use xlink:href="#DejaVuSans-65" x="1697.070312"/>
     <use xlink:href="#DejaVuSans-72" x="1758.59375"/>
     <use xlink:href="#DejaVuSans-20" x="1799.707031"/>
     <use xlink:href="#DejaVuSans-74" x="1831.494141"/>
     <use xlink:href="#DejaVuSans-69" x="1870.703125"/>
     <use xlink:href="#DejaVuSans-6d" x="1898.486328"/>
     <use xlink:href="#DejaVuSans-65" x="1995.898438"/>
    </g>
   </g>
   <g id="legend_1">
    <g id="patch_7">
     <path d="M 559.765625 197.978125 
L 641 197.978125 
Q 643 197.978125 643 195.978125 
L 643 167.621875 
Q 643 165.621875 641 165.621875 
L 559.765625 165.621875 
Q 557.765625 165.621875 557.765625 167.621875 
L 557.765625 195.978125 
Q 557.765625 197.978125 559.765625 197.978125 
z
" style="fill: #ffffff; opacity: 0.8; stroke: #cccccc; stroke-linejoin: miter"/>
    </g>
    <g id="line2d_25">
     <path d="M 561.765625 173.720312 
L 571.765625 173.720312 
L 581.765625 173.720312 
" style="fill: none; stroke: #1f77b4; stroke-width: 1.5; stroke-linecap: square"/>
    </g>
    <g id="text_15">
     <!-- train -->
     <g transform="translate(589.765625 177.220312) scale(0.1 -0.1)">
      <use xlink:href="#DejaVuSans-74"/>
      <use xlink:href="#DejaVuSans-72" x="39.208984"/>
      <use xlink:href="#DejaVuSans-61" x="80.322266"/>
      <use xlink:href="#DejaVuSans-69" x="141.601562"/>
      <use xlink:href="#DejaVuSans-6e" x="169.384766"/>
     </g>
    </g>
    <g id="line2d_26">
     <path d="M 561.765625 188.398437 
L 571.765625 188.398437 
L 581.765625 188.398437 
" style="fill: none; stroke: #ff7f0e; stroke-width: 1.5; stroke-linecap: square"/>
    </g>
    <g id="text_16">
     <!-- validation -->
     <g transform="translate(589.765625 191.898437) scale(0.1 -0.1)">
      <use xlink:href="#DejaVuSans-76"/>
      <use xlink:href="#DejaVuSans-61" x="59.179688"/>
      <use xlink:href="#DejaVuSans-6c" x="120.458984"/>
      <use xlink:href="#DejaVuSans-69" x="148.242188"/>
      <use xlink:href="#DejaVuSans-64" x="176.025391"/>
      <use xlink:href="#DejaVuSans-61" x="239.501953"/>
      <use xlink:href="#DejaVuSans-74" x="300.78125"/>
      <use xlink:href="#DejaVuSans-69" x="339.990234"/>
      <use xlink:href="#DejaVuSans-6f" x="367.773438"/>
      <use xlink:href="#DejaVuSans-6e" x="428.955078"/>
     </g>
    </g>
   </g>
  </g>
 </g>
 <defs>
  <clipPath id="p6696ddf96c">
   <rect x="90" y="43.2" width="558" height="277.2"/>
  </clipPath>
 </defs>
</svg>
