<?xml version="1.0" encoding="utf-8" standalone="no"?>
<!DOCTYPE svg PUBLIC "-//W3C//DTD SVG 1.1//EN"
  "http://www.w3.org/Graphics/SVG/1.1/DTD/svg11.dtd">
<svg xmlns:xlink="http://www.w3.org/1999/xlink" width="720pt" height="360pt" viewBox="0 0 720 360" xmlns="http://www.w3.org/2000/svg" version="1.1">
 <metadata>
  <rdf:RDF xmlns:dc="http://purl.org/dc/elements/1.1/" xmlns:cc="http://creativecommons.org/ns#" xmlns:rdf="http://www.w3.org/1999/02/22-rdf-syntax-ns#">
   <cc:Work>
    <dc:type rdf:resource="http://purl.org/dc/dcmitype/StillImage"/>
    <dc:date>2023-05-24T12:17:39.812357</dc:date>
    <dc:format>image/svg+xml</dc:format>
    <dc:creator>
     <cc:Agent>
      <dc:title>Matplotlib v3.7.1, https://matplotlib.org/</dc:title>
     </cc:Agent>
    </dc:creator>
   </cc:Work>
  </rdf:RDF>
 </metadata>
 <defs>
  <style type="text/css">*{stroke-linejoin: round; stroke-linecap: butt}</style>
 </defs>
 <g id="figure_1">
  <g id="patch_1">
   <path d="M 0 360 
L 720 360 
L 720 0 
L 0 0 
z
" style="fill: #ffffff"/>
  </g>
  <g id="axes_1">
   <g id="patch_2">
    <path d="M 90 320.4 
L 648 320.4 
L 648 43.2 
L 90 43.2 
z
" style="fill: #ffffff"/>
   </g>
   <g id="matplotlib.axis_1">
    <g id="xtick_1">
     <g id="line2d_1">
      <path d="M 115.363636 320.4 
L 115.363636 43.2 
" clip-path="url(#pb428ca685d)" style="fill: none; stroke: #b0b0b0; stroke-width: 0.8; stroke-linecap: square"/>
     </g>
     <g id="line2d_2">
      <defs>
       <path id="m99241bbc26" d="M 0 0 
L 0 3.5 
" style="stroke: #000000; stroke-width: 0.8"/>
      </defs>
      <g>
       <use xlink:href="#m99241bbc26" x="115.363636" y="320.4" style="stroke: #000000; stroke-width: 0.8"/>
      </g>
     </g>
     <g id="text_1">
      <!-- 0 -->
      <g transform="translate(112.182386 334.998438) scale(0.1 -0.1)">
       <defs>
        <path id="DejaVuSans-30" d="M 2034 4250 
Q 1547 4250 1301 3770 
Q 1056 3291 1056 2328 
Q 1056 1369 1301 889 
Q 1547 409 2034 409 
Q 2525 409 2770 889 
Q 3016 1369 3016 2328 
Q 3016 3291 2770 3770 
Q 2525 4250 2034 4250 
z
M 2034 4750 
Q 2819 4750 3233 4129 
Q 3647 3509 3647 2328 
Q 3647 1150 3233 529 
Q 2819 -91 2034 -91 
Q 1250 -91 836 529 
Q 422 1150 422 2328 
Q 422 3509 836 4129 
Q 1250 4750 2034 4750 
z
" transform="scale(0.015625)"/>
       </defs>
       <use xlink:href="#DejaVuSans-30"/>
      </g>
     </g>
    </g>
    <g id="xtick_2">
     <g id="line2d_3">
      <path d="M 217.021498 320.4 
L 217.021498 43.2 
" clip-path="url(#pb428ca685d)" style="fill: none; stroke: #b0b0b0; stroke-width: 0.8; stroke-linecap: square"/>
     </g>
     <g id="line2d_4">
      <g>
       <use xlink:href="#m99241bbc26" x="217.021498" y="320.4" style="stroke: #000000; stroke-width: 0.8"/>
      </g>
     </g>
     <g id="text_2">
      <!-- 100 -->
      <g transform="translate(207.477748 334.998438) scale(0.1 -0.1)">
       <defs>
        <path id="DejaVuSans-31" d="M 794 531 
L 1825 531 
L 1825 4091 
L 703 3866 
L 703 4441 
L 1819 4666 
L 2450 4666 
L 2450 531 
L 3481 531 
L 3481 0 
L 794 0 
L 794 531 
z
" transform="scale(0.015625)"/>
       </defs>
       <use xlink:href="#DejaVuSans-31"/>
       <use xlink:href="#DejaVuSans-30" x="63.623047"/>
       <use xlink:href="#DejaVuSans-30" x="127.246094"/>
      </g>
     </g>
    </g>
    <g id="xtick_3">
     <g id="line2d_5">
      <path d="M 318.679359 320.4 
L 318.679359 43.2 
" clip-path="url(#pb428ca685d)" style="fill: none; stroke: #b0b0b0; stroke-width: 0.8; stroke-linecap: square"/>
     </g>
     <g id="line2d_6">
      <g>
       <use xlink:href="#m99241bbc26" x="318.679359" y="320.4" style="stroke: #000000; stroke-width: 0.8"/>
      </g>
     </g>
     <g id="text_3">
      <!-- 200 -->
      <g transform="translate(309.135609 334.998438) scale(0.1 -0.1)">
       <defs>
        <path id="DejaVuSans-32" d="M 1228 531 
L 3431 531 
L 3431 0 
L 469 0 
L 469 531 
Q 828 903 1448 1529 
Q 2069 2156 2228 2338 
Q 2531 2678 2651 2914 
Q 2772 3150 2772 3378 
Q 2772 3750 2511 3984 
Q 2250 4219 1831 4219 
Q 1534 4219 1204 4116 
Q 875 4013 500 3803 
L 500 4441 
Q 881 4594 1212 4672 
Q 1544 4750 1819 4750 
Q 2544 4750 2975 4387 
Q 3406 4025 3406 3419 
Q 3406 3131 3298 2873 
Q 3191 2616 2906 2266 
Q 2828 2175 2409 1742 
Q 1991 1309 1228 531 
z
" transform="scale(0.015625)"/>
       </defs>
       <use xlink:href="#DejaVuSans-32"/>
       <use xlink:href="#DejaVuSans-30" x="63.623047"/>
       <use xlink:href="#DejaVuSans-30" x="127.246094"/>
      </g>
     </g>
    </g>
    <g id="xtick_4">
     <g id="line2d_7">
      <path d="M 420.33722 320.4 
L 420.33722 43.2 
" clip-path="url(#pb428ca685d)" style="fill: none; stroke: #b0b0b0; stroke-width: 0.8; stroke-linecap: square"/>
     </g>
     <g id="line2d_8">
      <g>
       <use xlink:href="#m99241bbc26" x="420.33722" y="320.4" style="stroke: #000000; stroke-width: 0.8"/>
      </g>
     </g>
     <g id="text_4">
      <!-- 300 -->
      <g transform="translate(410.79347 334.998438) scale(0.1 -0.1)">
       <defs>
        <path id="DejaVuSans-33" d="M 2597 2516 
Q 3050 2419 3304 2112 
Q 3559 1806 3559 1356 
Q 3559 666 3084 287 
Q 2609 -91 1734 -91 
Q 1441 -91 1130 -33 
Q 819 25 488 141 
L 488 750 
Q 750 597 1062 519 
Q 1375 441 1716 441 
Q 2309 441 2620 675 
Q 2931 909 2931 1356 
Q 2931 1769 2642 2001 
Q 2353 2234 1838 2234 
L 1294 2234 
L 1294 2753 
L 1863 2753 
Q 2328 2753 2575 2939 
Q 2822 3125 2822 3475 
Q 2822 3834 2567 4026 
Q 2313 4219 1838 4219 
Q 1578 4219 1281 4162 
Q 984 4106 628 3988 
L 628 4550 
Q 988 4650 1302 4700 
Q 1616 4750 1894 4750 
Q 2613 4750 3031 4423 
Q 3450 4097 3450 3541 
Q 3450 3153 3228 2886 
Q 3006 2619 2597 2516 
z
" transform="scale(0.015625)"/>
       </defs>
       <use xlink:href="#DejaVuSans-33"/>
       <use xlink:href="#DejaVuSans-30" x="63.623047"/>
       <use xlink:href="#DejaVuSans-30" x="127.246094"/>
      </g>
     </g>
    </g>
    <g id="xtick_5">
     <g id="line2d_9">
      <path d="M 521.995081 320.4 
L 521.995081 43.2 
" clip-path="url(#pb428ca685d)" style="fill: none; stroke: #b0b0b0; stroke-width: 0.8; stroke-linecap: square"/>
     </g>
     <g id="line2d_10">
      <g>
       <use xlink:href="#m99241bbc26" x="521.995081" y="320.4" style="stroke: #000000; stroke-width: 0.8"/>
      </g>
     </g>
     <g id="text_5">
      <!-- 400 -->
      <g transform="translate(512.451331 334.998438) scale(0.1 -0.1)">
       <defs>
        <path id="DejaVuSans-34" d="M 2419 4116 
L 825 1625 
L 2419 1625 
L 2419 4116 
z
M 2253 4666 
L 3047 4666 
L 3047 1625 
L 3713 1625 
L 3713 1100 
L 3047 1100 
L 3047 0 
L 2419 0 
L 2419 1100 
L 313 1100 
L 313 1709 
L 2253 4666 
z
" transform="scale(0.015625)"/>
       </defs>
       <use xlink:href="#DejaVuSans-34"/>
       <use xlink:href="#DejaVuSans-30" x="63.623047"/>
       <use xlink:href="#DejaVuSans-30" x="127.246094"/>
      </g>
     </g>
    </g>
    <g id="xtick_6">
     <g id="line2d_11">
      <path d="M 623.652942 320.4 
L 623.652942 43.2 
" clip-path="url(#pb428ca685d)" style="fill: none; stroke: #b0b0b0; stroke-width: 0.8; stroke-linecap: square"/>
     </g>
     <g id="line2d_12">
      <g>
       <use xlink:href="#m99241bbc26" x="623.652942" y="320.4" style="stroke: #000000; stroke-width: 0.8"/>
      </g>
     </g>
     <g id="text_6">
      <!-- 500 -->
      <g transform="translate(614.109192 334.998438) scale(0.1 -0.1)">
       <defs>
        <path id="DejaVuSans-35" d="M 691 4666 
L 3169 4666 
L 3169 4134 
L 1269 4134 
L 1269 2991 
Q 1406 3038 1543 3061 
Q 1681 3084 1819 3084 
Q 2600 3084 3056 2656 
Q 3513 2228 3513 1497 
Q 3513 744 3044 326 
Q 2575 -91 1722 -91 
Q 1428 -91 1123 -41 
Q 819 9 494 109 
L 494 744 
Q 775 591 1075 516 
Q 1375 441 1709 441 
Q 2250 441 2565 725 
Q 2881 1009 2881 1497 
Q 2881 1984 2565 2268 
Q 2250 2553 1709 2553 
Q 1456 2553 1204 2497 
Q 953 2441 691 2322 
L 691 4666 
z
" transform="scale(0.015625)"/>
       </defs>
       <use xlink:href="#DejaVuSans-35"/>
       <use xlink:href="#DejaVuSans-30" x="63.623047"/>
       <use xlink:href="#DejaVuSans-30" x="127.246094"/>
      </g>
     </g>
    </g>
    <g id="text_7">
     <!-- epoch -->
     <g transform="translate(353.771875 348.676562) scale(0.1 -0.1)">
      <defs>
       <path id="DejaVuSans-65" d="M 3597 1894 
L 3597 1613 
L 953 1613 
Q 991 1019 1311 708 
Q 1631 397 2203 397 
Q 2534 397 2845 478 
Q 3156 559 3463 722 
L 3463 178 
Q 3153 47 2828 -22 
Q 2503 -91 2169 -91 
Q 1331 -91 842 396 
Q 353 884 353 1716 
Q 353 2575 817 3079 
Q 1281 3584 2069 3584 
Q 2775 3584 3186 3129 
Q 3597 2675 3597 1894 
z
M 3022 2063 
Q 3016 2534 2758 2815 
Q 2500 3097 2075 3097 
Q 1594 3097 1305 2825 
Q 1016 2553 972 2059 
L 3022 2063 
z
" transform="scale(0.015625)"/>
       <path id="DejaVuSans-70" d="M 1159 525 
L 1159 -1331 
L 581 -1331 
L 581 3500 
L 1159 3500 
L 1159 2969 
Q 1341 3281 1617 3432 
Q 1894 3584 2278 3584 
Q 2916 3584 3314 3078 
Q 3713 2572 3713 1747 
Q 3713 922 3314 415 
Q 2916 -91 2278 -91 
Q 1894 -91 1617 61 
Q 1341 213 1159 525 
z
M 3116 1747 
Q 3116 2381 2855 2742 
Q 2594 3103 2138 3103 
Q 1681 3103 1420 2742 
Q 1159 2381 1159 1747 
Q 1159 1113 1420 752 
Q 1681 391 2138 391 
Q 2594 391 2855 752 
Q 3116 1113 3116 1747 
z
" transform="scale(0.015625)"/>
       <path id="DejaVuSans-6f" d="M 1959 3097 
Q 1497 3097 1228 2736 
Q 959 2375 959 1747 
Q 959 1119 1226 758 
Q 1494 397 1959 397 
Q 2419 397 2687 759 
Q 2956 1122 2956 1747 
Q 2956 2369 2687 2733 
Q 2419 3097 1959 3097 
z
M 1959 3584 
Q 2709 3584 3137 3096 
Q 3566 2609 3566 1747 
Q 3566 888 3137 398 
Q 2709 -91 1959 -91 
Q 1206 -91 779 398 
Q 353 888 353 1747 
Q 353 2609 779 3096 
Q 1206 3584 1959 3584 
z
" transform="scale(0.015625)"/>
       <path id="DejaVuSans-63" d="M 3122 3366 
L 3122 2828 
Q 2878 2963 2633 3030 
Q 2388 3097 2138 3097 
Q 1578 3097 1268 2742 
Q 959 2388 959 1747 
Q 959 1106 1268 751 
Q 1578 397 2138 397 
Q 2388 397 2633 464 
Q 2878 531 3122 666 
L 3122 134 
Q 2881 22 2623 -34 
Q 2366 -91 2075 -91 
Q 1284 -91 818 406 
Q 353 903 353 1747 
Q 353 2603 823 3093 
Q 1294 3584 2113 3584 
Q 2378 3584 2631 3529 
Q 2884 3475 3122 3366 
z
" transform="scale(0.015625)"/>
       <path id="DejaVuSans-68" d="M 3513 2113 
L 3513 0 
L 2938 0 
L 2938 2094 
Q 2938 2591 2744 2837 
Q 2550 3084 2163 3084 
Q 1697 3084 1428 2787 
Q 1159 2491 1159 1978 
L 1159 0 
L 581 0 
L 581 4863 
L 1159 4863 
L 1159 2956 
Q 1366 3272 1645 3428 
Q 1925 3584 2291 3584 
Q 2894 3584 3203 3211 
Q 3513 2838 3513 2113 
z
" transform="scale(0.015625)"/>
      </defs>
      <use xlink:href="#DejaVuSans-65"/>
      <use xlink:href="#DejaVuSans-70" x="61.523438"/>
      <use xlink:href="#DejaVuSans-6f" x="125"/>
      <use xlink:href="#DejaVuSans-63" x="186.181641"/>
      <use xlink:href="#DejaVuSans-68" x="241.162109"/>
     </g>
    </g>
   </g>
   <g id="matplotlib.axis_2">
    <g id="ytick_1">
     <g id="line2d_13">
      <path d="M 90 288.004686 
L 648 288.004686 
" clip-path="url(#pb428ca685d)" style="fill: none; stroke: #b0b0b0; stroke-width: 0.8; stroke-linecap: square"/>
     </g>
     <g id="line2d_14">
      <defs>
       <path id="m16eeba9580" d="M 0 0 
L -3.5 0 
" style="stroke: #000000; stroke-width: 0.8"/>
      </defs>
      <g>
       <use xlink:href="#m16eeba9580" x="90" y="288.004686" style="stroke: #000000; stroke-width: 0.8"/>
      </g>
     </g>
     <g id="text_8">
      <!-- 1.38 -->
      <g transform="translate(60.734375 291.803905) scale(0.1 -0.1)">
       <defs>
        <path id="DejaVuSans-2e" d="M 684 794 
L 1344 794 
L 1344 0 
L 684 0 
L 684 794 
z
" transform="scale(0.015625)"/>
        <path id="DejaVuSans-38" d="M 2034 2216 
Q 1584 2216 1326 1975 
Q 1069 1734 1069 1313 
Q 1069 891 1326 650 
Q 1584 409 2034 409 
Q 2484 409 2743 651 
Q 3003 894 3003 1313 
Q 3003 1734 2745 1975 
Q 2488 2216 2034 2216 
z
M 1403 2484 
Q 997 2584 770 2862 
Q 544 3141 544 3541 
Q 544 4100 942 4425 
Q 1341 4750 2034 4750 
Q 2731 4750 3128 4425 
Q 3525 4100 3525 3541 
Q 3525 3141 3298 2862 
Q 3072 2584 2669 2484 
Q 3125 2378 3379 2068 
Q 3634 1759 3634 1313 
Q 3634 634 3220 271 
Q 2806 -91 2034 -91 
Q 1263 -91 848 271 
Q 434 634 434 1313 
Q 434 1759 690 2068 
Q 947 2378 1403 2484 
z
M 1172 3481 
Q 1172 3119 1398 2916 
Q 1625 2713 2034 2713 
Q 2441 2713 2670 2916 
Q 2900 3119 2900 3481 
Q 2900 3844 2670 4047 
Q 2441 4250 2034 4250 
Q 1625 4250 1398 4047 
Q 1172 3844 1172 3481 
z
" transform="scale(0.015625)"/>
       </defs>
       <use xlink:href="#DejaVuSans-31"/>
       <use xlink:href="#DejaVuSans-2e" x="63.623047"/>
       <use xlink:href="#DejaVuSans-33" x="95.410156"/>
       <use xlink:href="#DejaVuSans-38" x="159.033203"/>
      </g>
     </g>
    </g>
    <g id="ytick_2">
     <g id="line2d_15">
      <path d="M 90 249.716705 
L 648 249.716705 
" clip-path="url(#pb428ca685d)" style="fill: none; stroke: #b0b0b0; stroke-width: 0.8; stroke-linecap: square"/>
     </g>
     <g id="line2d_16">
      <g>
       <use xlink:href="#m16eeba9580" x="90" y="249.716705" style="stroke: #000000; stroke-width: 0.8"/>
      </g>
     </g>
     <g id="text_9">
      <!-- 1.39 -->
      <g transform="translate(60.734375 253.515924) scale(0.1 -0.1)">
       <defs>
        <path id="DejaVuSans-39" d="M 703 97 
L 703 672 
Q 941 559 1184 500 
Q 1428 441 1663 441 
Q 2288 441 2617 861 
Q 2947 1281 2994 2138 
Q 2813 1869 2534 1725 
Q 2256 1581 1919 1581 
Q 1219 1581 811 2004 
Q 403 2428 403 3163 
Q 403 3881 828 4315 
Q 1253 4750 1959 4750 
Q 2769 4750 3195 4129 
Q 3622 3509 3622 2328 
Q 3622 1225 3098 567 
Q 2575 -91 1691 -91 
Q 1453 -91 1209 -44 
Q 966 3 703 97 
z
M 1959 2075 
Q 2384 2075 2632 2365 
Q 2881 2656 2881 3163 
Q 2881 3666 2632 3958 
Q 2384 4250 1959 4250 
Q 1534 4250 1286 3958 
Q 1038 3666 1038 3163 
Q 1038 2656 1286 2365 
Q 1534 2075 1959 2075 
z
" transform="scale(0.015625)"/>
       </defs>
       <use xlink:href="#DejaVuSans-31"/>
       <use xlink:href="#DejaVuSans-2e" x="63.623047"/>
       <use xlink:href="#DejaVuSans-33" x="95.410156"/>
       <use xlink:href="#DejaVuSans-39" x="159.033203"/>
      </g>
     </g>
    </g>
    <g id="ytick_3">
     <g id="line2d_17">
      <path d="M 90 211.428724 
L 648 211.428724 
" clip-path="url(#pb428ca685d)" style="fill: none; stroke: #b0b0b0; stroke-width: 0.8; stroke-linecap: square"/>
     </g>
     <g id="line2d_18">
      <g>
       <use xlink:href="#m16eeba9580" x="90" y="211.428724" style="stroke: #000000; stroke-width: 0.8"/>
      </g>
     </g>
     <g id="text_10">
      <!-- 1.40 -->
      <g transform="translate(60.734375 215.227943) scale(0.1 -0.1)">
       <use xlink:href="#DejaVuSans-31"/>
       <use xlink:href="#DejaVuSans-2e" x="63.623047"/>
       <use xlink:href="#DejaVuSans-34" x="95.410156"/>
       <use xlink:href="#DejaVuSans-30" x="159.033203"/>
      </g>
     </g>
    </g>
    <g id="ytick_4">
     <g id="line2d_19">
      <path d="M 90 173.140743 
L 648 173.140743 
" clip-path="url(#pb428ca685d)" style="fill: none; stroke: #b0b0b0; stroke-width: 0.8; stroke-linecap: square"/>
     </g>
     <g id="line2d_20">
      <g>
       <use xlink:href="#m16eeba9580" x="90" y="173.140743" style="stroke: #000000; stroke-width: 0.8"/>
      </g>
     </g>
     <g id="text_11">
      <!-- 1.41 -->
      <g transform="translate(60.734375 176.939961) scale(0.1 -0.1)">
       <use xlink:href="#DejaVuSans-31"/>
       <use xlink:href="#DejaVuSans-2e" x="63.623047"/>
       <use xlink:href="#DejaVuSans-34" x="95.410156"/>
       <use xlink:href="#DejaVuSans-31" x="159.033203"/>
      </g>
     </g>
    </g>
    <g id="ytick_5">
     <g id="line2d_21">
      <path d="M 90 134.852761 
L 648 134.852761 
" clip-path="url(#pb428ca685d)" style="fill: none; stroke: #b0b0b0; stroke-width: 0.8; stroke-linecap: square"/>
     </g>
     <g id="line2d_22">
      <g>
       <use xlink:href="#m16eeba9580" x="90" y="134.852761" style="stroke: #000000; stroke-width: 0.8"/>
      </g>
     </g>
     <g id="text_12">
      <!-- 1.42 -->
      <g transform="translate(60.734375 138.65198) scale(0.1 -0.1)">
       <use xlink:href="#DejaVuSans-31"/>
       <use xlink:href="#DejaVuSans-2e" x="63.623047"/>
       <use xlink:href="#DejaVuSans-34" x="95.410156"/>
       <use xlink:href="#DejaVuSans-32" x="159.033203"/>
      </g>
     </g>
    </g>
    <g id="ytick_6">
     <g id="line2d_23">
      <path d="M 90 96.56478 
L 648 96.56478 
" clip-path="url(#pb428ca685d)" style="fill: none; stroke: #b0b0b0; stroke-width: 0.8; stroke-linecap: square"/>
     </g>
     <g id="line2d_24">
      <g>
       <use xlink:href="#m16eeba9580" x="90" y="96.56478" style="stroke: #000000; stroke-width: 0.8"/>
      </g>
     </g>
     <g id="text_13">
      <!-- 1.43 -->
      <g transform="translate(60.734375 100.363999) scale(0.1 -0.1)">
       <use xlink:href="#DejaVuSans-31"/>
       <use xlink:href="#DejaVuSans-2e" x="63.623047"/>
       <use xlink:href="#DejaVuSans-34" x="95.410156"/>
       <use xlink:href="#DejaVuSans-33" x="159.033203"/>
      </g>
     </g>
    </g>
    <g id="ytick_7">
     <g id="line2d_25">
      <path d="M 90 58.276799 
L 648 58.276799 
" clip-path="url(#pb428ca685d)" style="fill: none; stroke: #b0b0b0; stroke-width: 0.8; stroke-linecap: square"/>
     </g>
     <g id="line2d_26">
      <g>
       <use xlink:href="#m16eeba9580" x="90" y="58.276799" style="stroke: #000000; stroke-width: 0.8"/>
      </g>
     </g>
     <g id="text_14">
      <!-- 1.44 -->
      <g transform="translate(60.734375 62.076018) scale(0.1 -0.1)">
       <use xlink:href="#DejaVuSans-31"/>
       <use xlink:href="#DejaVuSans-2e" x="63.623047"/>
       <use xlink:href="#DejaVuSans-34" x="95.410156"/>
       <use xlink:href="#DejaVuSans-34" x="159.033203"/>
      </g>
     </g>
    </g>
    <g id="text_15">
     <!-- loss -->
     <g transform="translate(54.654688 191.457812) rotate(-90) scale(0.1 -0.1)">
      <defs>
       <path id="DejaVuSans-6c" d="M 603 4863 
L 1178 4863 
L 1178 0 
L 603 0 
L 603 4863 
z
" transform="scale(0.015625)"/>
       <path id="DejaVuSans-73" d="M 2834 3397 
L 2834 2853 
Q 2591 2978 2328 3040 
Q 2066 3103 1784 3103 
Q 1356 3103 1142 2972 
Q 928 2841 928 2578 
Q 928 2378 1081 2264 
Q 1234 2150 1697 2047 
L 1894 2003 
Q 2506 1872 2764 1633 
Q 3022 1394 3022 966 
Q 3022 478 2636 193 
Q 2250 -91 1575 -91 
Q 1294 -91 989 -36 
Q 684 19 347 128 
L 347 722 
Q 666 556 975 473 
Q 1284 391 1588 391 
Q 1994 391 2212 530 
Q 2431 669 2431 922 
Q 2431 1156 2273 1281 
Q 2116 1406 1581 1522 
L 1381 1569 
Q 847 1681 609 1914 
Q 372 2147 372 2553 
Q 372 3047 722 3315 
Q 1072 3584 1716 3584 
Q 2034 3584 2315 3537 
Q 2597 3491 2834 3397 
z
" transform="scale(0.015625)"/>
      </defs>
      <use xlink:href="#DejaVuSans-6c"/>
      <use xlink:href="#DejaVuSans-6f" x="27.783203"/>
      <use xlink:href="#DejaVuSans-73" x="88.964844"/>
      <use xlink:href="#DejaVuSans-73" x="141.064453"/>
     </g>
    </g>
   </g>
   <g id="line2d_27">
    <path d="M 115.363636 55.8 
L 116.380215 200.728766 
L 117.396794 218.188518 
L 118.413372 223.318772 
L 119.429951 206.854491 
L 120.446529 247.961793 
L 121.463108 230.003165 
L 122.479687 220.973187 
L 123.496265 234.189069 
L 124.512844 215.285178 
L 125.529422 233.934382 
L 126.546001 214.729248 
L 127.56258 213.017642 
L 128.579158 232.295348 
L 130.612316 236.469385 
L 131.628894 233.964963 
L 132.645473 217.934744 
L 133.662051 229.627068 
L 134.67863 224.312873 
L 135.695209 239.174179 
L 136.711787 209.76057 
L 137.728366 226.486385 
L 138.744944 224.081464 
L 139.761523 233.906083 
L 140.778102 233.656874 
L 141.79468 231.732572 
L 142.811259 202.867133 
L 143.827837 230.173869 
L 144.844416 250.325635 
L 145.860995 245.40762 
L 146.877573 224.6698 
L 147.894152 239.726457 
L 148.910731 235.594412 
L 149.927309 230.832952 
L 150.943888 239.552558 
L 151.960466 230.79735 
L 152.977045 218.407604 
L 153.993624 244.970362 
L 155.010202 221.224223 
L 156.026781 223.05587 
L 157.043359 237.277263 
L 158.059938 226.371365 
L 159.076517 220.135185 
L 160.093095 235.094166 
L 161.109674 225.105689 
L 162.126253 244.674596 
L 163.142831 224.602249 
L 164.15941 235.704867 
L 165.175988 242.582329 
L 166.192567 236.749632 
L 167.209146 206.956274 
L 168.225724 242.691415 
L 169.242303 205.877734 
L 170.258881 215.350904 
L 171.27546 222.452015 
L 172.292039 204.036959 
L 173.308617 209.897042 
L 174.325196 235.60993 
L 175.341774 219.092703 
L 176.358353 227.033186 
L 177.374932 224.006153 
L 178.39151 209.918494 
L 179.408089 252.632424 
L 180.424668 238.121655 
L 181.441246 217.776364 
L 182.457825 212.642002 
L 183.474403 218.840754 
L 184.490982 251.577162 
L 185.507561 213.927304 
L 186.524139 232.798332 
L 187.540718 204.670481 
L 188.557296 209.970527 
L 189.573875 238.682149 
L 190.590454 196.740039 
L 191.607032 217.658605 
L 192.623611 212.183291 
L 193.640189 242.093038 
L 194.656768 213.556227 
L 195.673347 236.839548 
L 196.689925 256.787747 
L 197.706504 234.13019 
L 198.723083 228.449939 
L 199.739661 224.60727 
L 200.75624 241.292006 
L 201.772818 238.178252 
L 202.789397 243.528048 
L 203.805976 184.254443 
L 204.822554 228.203925 
L 205.839133 246.452385 
L 206.855711 249.42921 
L 207.87229 219.612118 
L 208.888869 254.257309 
L 209.905447 205.509396 
L 210.922026 202.965722 
L 211.938604 226.23398 
L 212.955183 198.548865 
L 213.971762 221.896085 
L 214.98834 236.562496 
L 216.004919 214.041867 
L 217.021498 234.884209 
L 218.038076 224.77204 
L 219.054655 223.51458 
L 220.071233 252.612797 
L 221.087812 228.487823 
L 222.104391 235.73134 
L 223.120969 169.616788 
L 224.137548 183.465735 
L 226.170705 234.854998 
L 227.187284 211.083755 
L 228.203862 239.592724 
L 229.220441 248.45291 
L 230.237019 222.937655 
L 231.253598 233.525422 
L 232.270177 232.422691 
L 233.286755 208.811655 
L 234.303334 223.065911 
L 235.319913 223.357569 
L 236.336491 228.858899 
L 237.35307 225.397347 
L 238.369648 240.419772 
L 239.386227 226.822316 
L 240.402806 217.623004 
L 241.419384 238.990695 
L 242.435963 247.445573 
L 243.452541 252.732838 
L 244.46912 222.900228 
L 245.485699 233.681977 
L 246.502277 233.521314 
L 247.518856 221.032523 
L 248.535435 225.377721 
L 249.552013 222.509069 
L 250.568592 231.432242 
L 251.58517 222.716287 
L 252.601749 244.55273 
L 253.618328 203.397503 
L 254.634906 215.353642 
L 255.651485 191.656797 
L 256.668063 229.700097 
L 257.684642 214.349043 
L 258.701221 221.5492 
L 259.717799 203.217214 
L 260.734378 231.447304 
L 261.750956 242.092581 
L 262.767535 218.903285 
L 263.784114 236.937224 
L 264.800692 207.778758 
L 265.817271 230.228641 
L 266.83385 221.337417 
L 267.850428 223.090102 
L 268.867007 229.286116 
L 269.883585 219.538177 
L 270.900164 229.555865 
L 271.916743 228.131809 
L 272.933321 228.827862 
L 273.9499 214.534353 
L 274.966478 211.254003 
L 275.983057 225.417886 
L 276.999636 221.988284 
L 278.016214 232.028337 
L 279.032793 251.460316 
L 280.049371 247.735405 
L 281.06595 218.019183 
L 282.082529 218.416276 
L 283.099107 248.447889 
L 284.115686 240.028613 
L 285.132265 217.805575 
L 286.148843 222.41687 
L 287.165422 225.655229 
L 288.182 190.968047 
L 289.198579 216.740271 
L 290.215158 226.516053 
L 291.231736 212.525156 
L 292.248315 216.229984 
L 293.264893 224.812206 
L 294.281472 267.615139 
L 295.298051 212.303332 
L 296.314629 223.990635 
L 297.331208 202.91734 
L 298.347786 233.07082 
L 299.364365 240.340353 
L 300.380944 226.920448 
L 301.397522 218.451421 
L 302.414101 218.341422 
L 303.43068 223.346615 
L 304.447258 234.289027 
L 305.463837 239.533844 
L 306.480415 238.497296 
L 307.496994 234.871886 
L 308.513573 238.59771 
L 309.530151 235.332422 
L 310.54673 239.436625 
L 311.563308 231.196725 
L 312.579887 238.766588 
L 313.596466 210.771102 
L 314.613044 230.531709 
L 315.629623 247.332835 
L 316.646201 262.274928 
L 317.66278 234.750932 
L 318.679359 219.086313 
L 319.695937 241.742044 
L 320.712516 238.283687 
L 321.729095 236.774279 
L 322.745673 228.988981 
L 323.762252 228.720145 
L 324.77883 232.723021 
L 325.795409 216.614297 
L 326.811988 216.220856 
L 327.828566 184.202867 
L 329.861723 223.475327 
L 330.878302 233.576542 
L 331.894881 212.309722 
L 332.911459 219.132868 
L 333.928038 232.500741 
L 334.944617 236.769258 
L 336.977774 227.287873 
L 337.994352 212.735569 
L 339.010931 188.742959 
L 340.02751 243.513443 
L 341.044088 233.888283 
L 342.060667 231.316766 
L 343.077245 206.350594 
L 344.093824 228.867571 
L 345.110403 242.040549 
L 346.126981 226.40651 
L 347.14356 224.569842 
L 348.160138 226.77074 
L 349.176717 194.836277 
L 350.193296 198.393679 
L 351.209874 220.830782 
L 352.226453 232.581528 
L 353.243032 255.484188 
L 354.25961 205.959891 
L 355.276189 229.027778 
L 356.292767 222.620437 
L 357.309346 238.245347 
L 358.325925 216.894544 
L 359.342503 229.372381 
L 360.359082 231.883193 
L 361.37566 246.131059 
L 362.392239 231.130999 
L 363.408818 233.691106 
L 364.425396 224.046319 
L 365.441975 231.692406 
L 366.458553 216.516165 
L 367.475132 232.674183 
L 368.491711 227.073352 
L 369.508289 203.64443 
L 370.524868 213.773487 
L 371.541447 244.949823 
L 372.558025 233.116462 
L 373.574604 236.374448 
L 374.591182 231.897342 
L 375.607761 242.842493 
L 377.640918 210.521892 
L 378.657497 233.843553 
L 379.674075 209.954095 
L 380.690654 260.696143 
L 381.707233 240.316162 
L 382.723811 234.81894 
L 383.74039 249.9007 
L 384.756968 219.23237 
L 385.773547 210.411893 
L 386.790126 220.077675 
L 387.806704 245.533594 
L 388.823283 256.785009 
L 389.839862 213.739712 
L 390.85644 221.216464 
L 391.873019 237.043572 
L 392.889597 208.029794 
L 393.906176 216.291146 
L 394.922755 217.711551 
L 395.939333 222.350688 
L 396.955912 211.188277 
L 397.97249 218.781419 
L 400.005648 194.004665 
L 401.022226 210.139862 
L 402.038805 242.334945 
L 403.055383 225.271829 
L 404.071962 218.92565 
L 405.088541 243.435393 
L 406.105119 245.982263 
L 407.121698 232.386634 
L 408.138277 244.609784 
L 409.154855 247.841752 
L 410.171434 214.75207 
L 411.188012 239.262269 
L 412.204591 215.257336 
L 413.22117 226.135391 
L 414.237748 233.03111 
L 415.254327 228.629316 
L 416.270905 237.998876 
L 417.287484 241.167401 
L 418.304063 217.193048 
L 419.320641 209.463435 
L 420.33722 239.590441 
L 421.353799 230.031463 
L 422.370377 236.724985 
L 423.386956 212.556649 
L 424.403534 227.413847 
L 425.420113 211.17778 
L 426.436692 213.114405 
L 427.45327 233.361564 
L 428.469849 259.959924 
L 429.486427 252.249937 
L 430.503006 235.590304 
L 431.519585 233.53592 
L 432.536163 238.017133 
L 433.552742 220.646841 
L 434.56932 253.129018 
L 435.585899 209.895672 
L 436.602478 216.127745 
L 437.619056 227.035468 
L 438.635635 216.154217 
L 439.652214 218.685112 
L 440.668792 216.549941 
L 441.685371 244.741691 
L 442.701949 218.38889 
L 443.718528 230.410299 
L 444.735107 202.218548 
L 445.751685 231.867675 
L 446.768264 246.22554 
L 447.784842 228.645747 
L 448.801421 222.457949 
L 449.818 202.039172 
L 450.834578 211.044046 
L 451.851157 242.902742 
L 452.867735 235.51408 
L 453.884314 214.441698 
L 454.900893 222.76832 
L 456.93405 254.421623 
L 457.950629 232.688333 
L 458.967207 216.128201 
L 459.983786 210.222932 
L 461.000364 234.602137 
L 462.016943 244.857624 
L 463.033522 222.413219 
L 464.0501 233.531356 
L 465.066679 210.061812 
L 466.083257 221.024307 
L 467.099836 216.408904 
L 468.116415 199.610973 
L 469.132993 236.391792 
L 470.149572 226.905386 
L 471.16615 206.274827 
L 472.182729 203.258748 
L 473.199308 223.952295 
L 474.215886 213.075152 
L 476.249044 249.775639 
L 477.265622 245.519445 
L 478.282201 223.227487 
L 479.298779 204.599278 
L 480.315358 179.864972 
L 481.331937 228.72973 
L 482.348515 219.220046 
L 483.365094 205.299896 
L 484.381672 226.186511 
L 485.398251 240.440311 
L 486.41483 235.41321 
L 487.431408 226.752483 
L 488.447987 232.761361 
L 489.464565 225.540209 
L 490.481144 235.482587 
L 491.497723 254.735645 
L 492.514301 236.656977 
L 493.53088 232.324559 
L 494.547459 223.363046 
L 495.564037 219.359257 
L 496.580616 239.800855 
L 497.597194 226.036803 
L 498.613773 225.74195 
L 499.630352 214.571324 
L 500.64693 213.626061 
L 501.663509 209.273104 
L 502.680087 242.63208 
L 503.696666 246.853129 
L 504.713245 201.460877 
L 505.729823 228.182929 
L 506.746402 223.079148 
L 507.762981 238.64883 
L 508.779559 240.056455 
L 509.796138 242.713324 
L 510.812716 248.417308 
L 511.829295 243.22498 
L 512.845874 245.603428 
L 513.862452 236.482165 
L 514.879031 241.703248 
L 515.895609 254.826475 
L 516.912188 222.044425 
L 517.928767 213.783529 
L 518.945345 204.30899 
L 519.961924 217.090352 
L 520.978502 241.087526 
L 521.995081 228.968442 
L 523.01166 227.057377 
L 524.028238 242.533948 
L 525.044817 244.657252 
L 526.061396 263.234797 
L 527.077974 219.875477 
L 528.094553 235.884244 
L 529.111131 242.112664 
L 530.12771 241.731547 
L 531.144289 242.665399 
L 532.160867 245.147912 
L 533.177446 219.127391 
L 534.194024 243.936095 
L 535.210603 223.061803 
L 536.227182 256.362356 
L 537.24376 214.030913 
L 538.260339 238.548872 
L 539.276917 248.185443 
L 540.293496 226.877544 
L 541.310075 246.177615 
L 542.326653 210.528739 
L 543.343232 225.501869 
L 544.359811 222.844543 
L 545.376389 256.271983 
L 547.409546 232.683768 
L 548.426125 247.771006 
L 549.442704 234.332387 
L 550.459282 235.420056 
L 551.475861 225.174153 
L 552.492439 239.277788 
L 553.509018 249.829498 
L 555.542175 241.05512 
L 556.558754 235.342463 
L 557.575332 201.317559 
L 558.591911 254.399258 
L 559.60849 228.479607 
L 560.625068 208.203236 
L 561.641647 231.500706 
L 562.658226 222.869191 
L 563.674804 216.42351 
L 564.691383 180.331442 
L 565.707961 198.344385 
L 566.72454 253.148188 
L 567.741119 226.15091 
L 568.757697 222.922136 
L 569.774276 245.214095 
L 570.790854 228.662179 
L 571.807433 227.637497 
L 572.824012 215.894053 
L 573.84059 217.300765 
L 574.857169 192.777785 
L 575.873747 229.998601 
L 576.890326 224.63283 
L 577.906905 250.431527 
L 578.923483 228.379649 
L 579.940062 225.403737 
L 580.956641 200.441217 
L 581.973219 202.798212 
L 582.989798 226.334851 
L 584.006376 153.80885 
L 585.022955 240.641139 
L 586.039534 246.999186 
L 587.056112 251.310607 
L 588.072691 227.252728 
L 589.089269 219.017849 
L 591.122427 225.412409 
L 592.139005 244.701982 
L 593.155584 217.359188 
L 594.172163 201.947886 
L 595.188741 232.578333 
L 596.20532 205.455994 
L 597.221898 233.880067 
L 598.238477 212.807229 
L 599.255056 219.595687 
L 600.271634 218.121423 
L 601.288213 224.005697 
L 602.304791 221.536876 
L 603.32137 228.798651 
L 604.337949 232.834846 
L 605.354527 240.765288 
L 606.371106 232.066221 
L 607.387684 225.295107 
L 608.404263 208.193195 
L 609.420842 231.328176 
L 610.43742 224.26221 
L 611.453999 235.39267 
L 612.470578 250.757873 
L 613.487156 217.377902 
L 615.520313 246.993252 
L 616.536892 214.585017 
L 617.553471 233.025177 
L 618.570049 225.699502 
L 619.586628 227.307499 
L 620.603206 223.545617 
L 621.619785 218.942994 
L 622.636364 235.508147 
L 622.636364 235.508147 
" clip-path="url(#pb428ca685d)" style="fill: none; stroke: #1f77b4; stroke-width: 1.5; stroke-linecap: square"/>
   </g>
   <g id="line2d_28">
    <path d="M 115.363636 71.646278 
L 116.380215 273.752731 
L 117.396794 224.72092 
L 118.413372 192.077624 
L 119.429951 284.888212 
L 120.446529 271.017356 
L 121.463108 245.790107 
L 122.479687 271.732123 
L 123.496265 270.546322 
L 124.512844 248.121543 
L 125.529422 269.926036 
L 126.546001 195.894734 
L 127.56258 229.172465 
L 128.579158 300.623578 
L 129.595737 258.885948 
L 130.612316 233.643637 
L 131.628894 225.674399 
L 132.645473 287.142968 
L 133.662051 276.972832 
L 134.67863 280.131316 
L 135.695209 261.847711 
L 136.711787 274.770109 
L 137.728366 283.780917 
L 138.744944 246.263423 
L 139.761523 297.950277 
L 140.778102 279.574474 
L 141.79468 283.898675 
L 142.811259 287.191349 
L 143.827837 285.349205 
L 144.844416 287.288568 
L 145.860995 268.119036 
L 146.877573 282.316695 
L 147.894152 262.491275 
L 148.910731 280.64708 
L 149.927309 289.813073 
L 150.943888 280.153681 
L 151.960466 264.953249 
L 152.977045 274.650982 
L 153.993624 258.723003 
L 155.010202 260.462908 
L 156.026781 283.575068 
L 157.043359 283.666353 
L 158.059938 258.093588 
L 159.076517 245.211812 
L 160.093095 289.80075 
L 161.109674 250.792561 
L 162.126253 284.325892 
L 163.142831 305.348067 
L 164.15941 251.055008 
L 165.175988 288.007899 
L 166.192567 268.99264 
L 167.209146 233.883262 
L 168.225724 287.542799 
L 169.242303 227.221234 
L 170.258881 271.100426 
L 171.27546 191.744888 
L 172.292039 264.043588 
L 173.308617 284.28527 
L 174.325196 280.393306 
L 175.341774 257.201271 
L 176.358353 267.468626 
L 177.374932 292.343512 
L 178.39151 281.307076 
L 179.408089 301.931245 
L 180.424668 284.905556 
L 181.441246 262.963222 
L 182.457825 266.359961 
L 183.474403 284.341867 
L 184.490982 177.440881 
L 185.507561 287.221474 
L 186.524139 213.909503 
L 187.540718 204.107249 
L 188.557296 269.355044 
L 189.573875 283.761291 
L 190.590454 268.182936 
L 191.607032 237.161786 
L 192.623611 238.604556 
L 193.640189 293.24085 
L 194.656768 233.898781 
L 196.689925 296.970782 
L 197.706504 273.433231 
L 198.723083 285.56829 
L 199.739661 221.862766 
L 200.75624 301.110587 
L 201.772818 287.56562 
L 202.789397 295.515689 
L 203.805976 294.916855 
L 204.822554 283.617516 
L 205.839133 299.085871 
L 206.855711 268.2336 
L 207.87229 251.444797 
L 208.888869 260.295855 
L 209.905447 267.085226 
L 210.922026 271.563244 
L 212.955183 276.998849 
L 213.971762 198.346667 
L 214.98834 248.142995 
L 216.004919 281.576368 
L 217.021498 271.576481 
L 218.038076 279.423396 
L 219.054655 274.814839 
L 220.071233 292.070111 
L 221.087812 295.891329 
L 222.104391 231.702904 
L 223.120969 298.952594 
L 224.137548 244.590157 
L 225.154126 277.084657 
L 226.170705 277.873822 
L 227.187284 247.170346 
L 228.203862 301.859129 
L 229.220441 269.215377 
L 230.237019 281.762135 
L 231.253598 269.24824 
L 232.270177 280.131316 
L 233.286755 154.168515 
L 234.303334 294.558558 
L 235.319913 273.272112 
L 236.336491 261.5629 
L 237.35307 275.664252 
L 238.369648 293.71371 
L 239.386227 300.949924 
L 240.402806 278.060045 
L 241.419384 270.599724 
L 242.435963 275.576162 
L 243.452541 291.53107 
L 244.46912 279.138585 
L 245.485699 246.599354 
L 246.502277 298.440025 
L 247.518856 262.842725 
L 248.535435 269.648984 
L 249.552013 273.684723 
L 250.568592 291.56302 
L 251.58517 256.076175 
L 252.601749 285.676007 
L 253.618328 241.83972 
L 254.634906 232.75771 
L 255.651485 294.181092 
L 256.668063 293.543462 
L 257.684642 274.36754 
L 258.701221 208.740909 
L 259.717799 290.84734 
L 261.750956 258.462839 
L 262.767535 278.145397 
L 263.784114 268.027294 
L 264.800692 289.17453 
L 265.817271 286.929359 
L 266.83385 295.080712 
L 267.850428 221.910235 
L 268.867007 262.691191 
L 269.883585 236.108806 
L 270.900164 262.187294 
L 271.916743 284.651782 
L 272.933321 259.340551 
L 273.9499 295.665397 
L 274.966478 289.206024 
L 275.983057 245.416292 
L 276.999636 282.395657 
L 278.016214 264.683957 
L 279.032793 252.094751 
L 280.049371 277.484489 
L 281.06595 240.424336 
L 282.082529 290.089213 
L 283.099107 280.987576 
L 285.132265 240.272802 
L 287.165422 275.383549 
L 288.182 289.336562 
L 289.198579 289.840916 
L 290.215158 252.317488 
L 291.231736 278.859707 
L 292.248315 283.982658 
L 293.264893 266.11349 
L 294.281472 203.738455 
L 295.298051 289.415068 
L 296.314629 170.165414 
L 297.331208 295.708301 
L 298.347786 269.946575 
L 299.364365 277.466231 
L 300.380944 230.696936 
L 301.397522 258.183048 
L 302.414101 259.996438 
L 303.43068 197.310575 
L 304.447258 300.907933 
L 305.463837 250.950942 
L 306.480415 304.457576 
L 307.496994 282.869886 
L 308.513573 239.993011 
L 309.530151 290.241203 
L 310.54673 272.830289 
L 311.563308 290.645599 
L 312.579887 260.003284 
L 313.596466 178.95668 
L 314.613044 274.752765 
L 315.629623 299.434582 
L 316.646201 300.14661 
L 317.66278 293.072884 
L 318.679359 271.79511 
L 319.695937 278.54751 
L 320.712516 300.961335 
L 321.729095 292.687659 
L 322.745673 269.613839 
L 323.762252 291.462149 
L 324.77883 286.691104 
L 325.795409 208.179958 
L 326.811988 221.254804 
L 327.828566 263.538322 
L 328.845145 289.185028 
L 329.861723 199.991635 
L 330.878302 277.526023 
L 331.894881 250.790279 
L 332.911459 276.171344 
L 333.928038 295.473241 
L 334.944617 258.997316 
L 335.961195 293.722382 
L 336.977774 277.216565 
L 337.994352 258.597942 
L 339.010931 287.694333 
L 340.02751 275.228363 
L 341.044088 289.51959 
L 342.060667 264.888437 
L 343.077245 294.112628 
L 344.093824 260.636351 
L 345.110403 290.715889 
L 346.126981 304.671184 
L 347.14356 285.058916 
L 348.160138 239.632433 
L 349.176717 282.746194 
L 350.193296 268.065178 
L 351.209874 270.548148 
L 352.226453 227.773969 
L 353.243032 304.175046 
L 354.25961 282.348189 
L 355.276189 172.462162 
L 356.292767 294.385572 
L 357.309346 244.665468 
L 358.325925 278.338466 
L 359.342503 257.915125 
L 360.359082 258.67234 
L 361.37566 248.663323 
L 362.392239 283.180714 
L 363.408818 289.197808 
L 364.425396 296.502943 
L 365.441975 287.697985 
L 366.458553 247.057608 
L 367.475132 193.954458 
L 368.491711 285.094061 
L 369.508289 246.239233 
L 370.524868 289.776559 
L 371.541447 284.262905 
L 372.558025 269.994956 
L 373.574604 269.000856 
L 374.591182 278.471743 
L 375.607761 294.345406 
L 376.62434 284.127802 
L 377.640918 294.251382 
L 378.657497 296.499292 
L 379.674075 294.442169 
L 381.707233 284.977216 
L 382.723811 271.523078 
L 383.74039 282.023212 
L 384.756968 248.211003 
L 385.773547 283.801456 
L 386.790126 280.575877 
L 387.806704 276.969181 
L 388.823283 276.776112 
L 389.839862 257.00592 
L 390.85644 280.192021 
L 391.873019 278.371329 
L 392.889597 264.647899 
L 393.906176 262.448371 
L 394.922755 290.877464 
L 396.955912 271.928387 
L 397.97249 269.07571 
L 398.989069 282.302089 
L 400.005648 256.701939 
L 401.022226 194.594826 
L 402.038805 293.103009 
L 403.055383 286.326874 
L 404.071962 291.798537 
L 405.088541 283.248722 
L 406.105119 189.551294 
L 407.121698 287.144794 
L 408.138277 303.859198 
L 409.154855 272.034735 
L 410.171434 258.546365 
L 411.188012 256.376962 
L 412.204591 285.834844 
L 413.22117 273.12286 
L 414.237748 284.113197 
L 415.254327 291.92588 
L 416.270905 301.158055 
L 417.287484 286.736747 
L 418.304063 294.538932 
L 419.320641 280.040031 
L 420.33722 278.364939 
L 421.353799 252.546615 
L 422.370377 295.086646 
L 423.386956 279.354019 
L 424.403534 276.189601 
L 425.420113 228.326704 
L 426.436692 307.8 
L 427.45327 252.529271 
L 428.469849 300.461546 
L 429.486427 253.904033 
L 430.503006 285.93252 
L 431.519585 271.320881 
L 432.536163 302.123858 
L 433.552742 274.937619 
L 434.56932 285.423146 
L 435.585899 286.506707 
L 436.602478 232.858124 
L 437.619056 274.503555 
L 438.635635 126.927048 
L 439.652214 293.571304 
L 440.668792 294.091632 
L 441.685371 281.334918 
L 442.701949 266.920912 
L 443.718528 246.928896 
L 444.735107 250.740072 
L 445.751685 289.203742 
L 446.768264 288.732708 
L 447.784842 274.261648 
L 448.801421 269.585997 
L 449.818 277.599965 
L 450.834578 261.74821 
L 451.851157 248.261666 
L 452.867735 271.625318 
L 453.884314 288.528228 
L 454.900893 277.493161 
L 455.917471 286.916123 
L 456.93405 302.198712 
L 457.950629 242.565898 
L 458.967207 249.176349 
L 459.983786 300.055325 
L 461.000364 288.394951 
L 462.016943 261.33286 
L 463.033522 261.681571 
L 464.0501 293.482757 
L 465.066679 240.009899 
L 466.083257 283.980833 
L 467.099836 278.660704 
L 468.116415 243.349585 
L 469.132993 295.910043 
L 470.149572 295.686849 
L 471.16615 297.020989 
L 472.182729 280.140445 
L 473.199308 277.724113 
L 474.215886 183.44337 
L 475.232465 255.156016 
L 476.249044 256.91007 
L 477.265622 295.278346 
L 478.282201 250.708122 
L 479.298779 194.516777 
L 480.315358 252.500972 
L 481.331937 275.376246 
L 482.348515 252.408774 
L 483.365094 254.312993 
L 484.381672 246.872755 
L 485.398251 299.166659 
L 486.41483 265.296027 
L 487.431408 273.427754 
L 488.447987 245.351936 
L 489.464565 263.344796 
L 490.481144 291.306507 
L 491.497723 303.128913 
L 492.514301 275.959562 
L 493.53088 296.451823 
L 494.547459 290.507757 
L 495.564037 293.146826 
L 496.580616 300.021092 
L 497.597194 241.412047 
L 498.613773 243.667259 
L 499.630352 264.436573 
L 500.64693 260.726723 
L 501.663509 294.341755 
L 502.680087 233.722599 
L 503.696666 275.819438 
L 504.713245 304.616869 
L 505.729823 277.632828 
L 506.746402 243.544936 
L 507.762981 278.274566 
L 508.779559 273.919327 
L 509.796138 291.843267 
L 510.812716 288.500386 
L 511.829295 274.472518 
L 512.845874 238.734182 
L 513.862452 281.551721 
L 514.879031 256.949323 
L 515.895609 250.297337 
L 516.912188 286.304509 
L 518.945345 273.578832 
L 519.961924 284.491119 
L 520.978502 281.645745 
L 521.995081 247.41134 
L 523.01166 282.14736 
L 524.028238 288.015659 
L 525.044817 287.032969 
L 526.061396 274.066297 
L 527.077974 269.863962 
L 528.094553 258.374292 
L 529.111131 281.884914 
L 530.12771 283.135527 
L 531.144289 256.824261 
L 532.160867 280.337622 
L 533.177446 274.729944 
L 534.194024 249.786137 
L 535.210603 290.077802 
L 536.227182 282.651257 
L 537.24376 265.759302 
L 538.260339 298.42907 
L 539.276917 304.190565 
L 540.293496 292.59044 
L 541.310075 286.811601 
L 542.326653 269.814211 
L 543.343232 279.443022 
L 544.359811 269.453632 
L 545.376389 281.56085 
L 546.392968 279.30792 
L 547.409546 278.242159 
L 548.426125 287.966364 
L 549.442704 302.646924 
L 550.459282 273.828954 
L 551.475861 252.083797 
L 552.492439 294.681338 
L 553.509018 290.641947 
L 554.525597 264.913084 
L 555.542175 262.593515 
L 556.558754 232.632648 
L 557.575332 285.162069 
L 558.591911 289.04673 
L 559.60849 298.215006 
L 560.625068 284.20859 
L 561.641647 247.967727 
L 562.658226 289.992906 
L 563.674804 203.667252 
L 564.691383 300.647312 
L 565.707961 274.3292 
L 566.72454 272.62444 
L 567.741119 286.110527 
L 568.757697 276.10927 
L 569.774276 282.377856 
L 570.790854 220.545514 
L 571.807433 272.160252 
L 572.824012 244.122775 
L 573.84059 264.266325 
L 574.857169 302.969163 
L 575.873747 272.892363 
L 576.890326 292.663468 
L 577.906905 301.450169 
L 578.923483 251.473096 
L 579.940062 287.719437 
L 580.956641 278.833234 
L 581.973219 215.397916 
L 582.989798 244.33547 
L 584.006376 208.423691 
L 585.022955 287.87234 
L 586.039534 297.255593 
L 587.056112 298.538157 
L 588.072691 267.494642 
L 589.089269 273.734474 
L 590.105848 272.850828 
L 591.122427 292.925914 
L 592.139005 300.519056 
L 593.155584 263.763797 
L 594.172163 250.299619 
L 595.188741 276.431508 
L 596.20532 273.305431 
L 597.221898 183.746439 
L 598.238477 284.37473 
L 599.255056 270.601093 
L 600.271634 291.002526 
L 601.288213 292.982512 
L 602.304791 216.854835 
L 603.32137 225.04681 
L 604.337949 273.964057 
L 605.354527 302.531448 
L 606.371106 279.947832 
L 607.387684 276.55018 
L 608.404263 280.827369 
L 609.420842 263.391808 
L 610.43742 296.502943 
L 611.453999 295.680916 
L 612.470578 280.595504 
L 613.487156 281.40749 
L 614.503735 279.51103 
L 615.520313 256.665424 
L 616.536892 297.696503 
L 617.553471 289.492204 
L 618.570049 275.051269 
L 619.586628 275.59305 
L 620.603206 265.94233 
L 621.619785 260.38851 
L 622.636364 296.183443 
L 622.636364 296.183443 
" clip-path="url(#pb428ca685d)" style="fill: none; stroke: #ff7f0e; stroke-width: 1.5; stroke-linecap: square"/>
   </g>
   <g id="patch_3">
    <path d="M 90 320.4 
L 90 43.2 
" style="fill: none; stroke: #000000; stroke-width: 0.8; stroke-linejoin: miter; stroke-linecap: square"/>
   </g>
   <g id="patch_4">
    <path d="M 648 320.4 
L 648 43.2 
" style="fill: none; stroke: #000000; stroke-width: 0.8; stroke-linejoin: miter; stroke-linecap: square"/>
   </g>
   <g id="patch_5">
    <path d="M 90 320.4 
L 648 320.4 
" style="fill: none; stroke: #000000; stroke-width: 0.8; stroke-linejoin: miter; stroke-linecap: square"/>
   </g>
   <g id="patch_6">
    <path d="M 90 43.2 
L 648 43.2 
" style="fill: none; stroke: #000000; stroke-width: 0.8; stroke-linejoin: miter; stroke-linecap: square"/>
   </g>
   <g id="text_16">
    <!-- model train and validation loss over time -->
    <g transform="translate(245.555625 37.2) scale(0.12 -0.12)">
     <defs>
      <path id="DejaVuSans-6d" d="M 3328 2828 
Q 3544 3216 3844 3400 
Q 4144 3584 4550 3584 
Q 5097 3584 5394 3201 
Q 5691 2819 5691 2113 
L 5691 0 
L 5113 0 
L 5113 2094 
Q 5113 2597 4934 2840 
Q 4756 3084 4391 3084 
Q 3944 3084 3684 2787 
Q 3425 2491 3425 1978 
L 3425 0 
L 2847 0 
L 2847 2094 
Q 2847 2600 2669 2842 
Q 2491 3084 2119 3084 
Q 1678 3084 1418 2786 
Q 1159 2488 1159 1978 
L 1159 0 
L 581 0 
L 581 3500 
L 1159 3500 
L 1159 2956 
Q 1356 3278 1631 3431 
Q 1906 3584 2284 3584 
Q 2666 3584 2933 3390 
Q 3200 3197 3328 2828 
z
" transform="scale(0.015625)"/>
      <path id="DejaVuSans-64" d="M 2906 2969 
L 2906 4863 
L 3481 4863 
L 3481 0 
L 2906 0 
L 2906 525 
Q 2725 213 2448 61 
Q 2172 -91 1784 -91 
Q 1150 -91 751 415 
Q 353 922 353 1747 
Q 353 2572 751 3078 
Q 1150 3584 1784 3584 
Q 2172 3584 2448 3432 
Q 2725 3281 2906 2969 
z
M 947 1747 
Q 947 1113 1208 752 
Q 1469 391 1925 391 
Q 2381 391 2643 752 
Q 2906 1113 2906 1747 
Q 2906 2381 2643 2742 
Q 2381 3103 1925 3103 
Q 1469 3103 1208 2742 
Q 947 2381 947 1747 
z
" transform="scale(0.015625)"/>
      <path id="DejaVuSans-20" transform="scale(0.015625)"/>
      <path id="DejaVuSans-74" d="M 1172 4494 
L 1172 3500 
L 2356 3500 
L 2356 3053 
L 1172 3053 
L 1172 1153 
Q 1172 725 1289 603 
Q 1406 481 1766 481 
L 2356 481 
L 2356 0 
L 1766 0 
Q 1100 0 847 248 
Q 594 497 594 1153 
L 594 3053 
L 172 3053 
L 172 3500 
L 594 3500 
L 594 4494 
L 1172 4494 
z
" transform="scale(0.015625)"/>
      <path id="DejaVuSans-72" d="M 2631 2963 
Q 2534 3019 2420 3045 
Q 2306 3072 2169 3072 
Q 1681 3072 1420 2755 
Q 1159 2438 1159 1844 
L 1159 0 
L 581 0 
L 581 3500 
L 1159 3500 
L 1159 2956 
Q 1341 3275 1631 3429 
Q 1922 3584 2338 3584 
Q 2397 3584 2469 3576 
Q 2541 3569 2628 3553 
L 2631 2963 
z
" transform="scale(0.015625)"/>
      <path id="DejaVuSans-61" d="M 2194 1759 
Q 1497 1759 1228 1600 
Q 959 1441 959 1056 
Q 959 750 1161 570 
Q 1363 391 1709 391 
Q 2188 391 2477 730 
Q 2766 1069 2766 1631 
L 2766 1759 
L 2194 1759 
z
M 3341 1997 
L 3341 0 
L 2766 0 
L 2766 531 
Q 2569 213 2275 61 
Q 1981 -91 1556 -91 
Q 1019 -91 701 211 
Q 384 513 384 1019 
Q 384 1609 779 1909 
Q 1175 2209 1959 2209 
L 2766 2209 
L 2766 2266 
Q 2766 2663 2505 2880 
Q 2244 3097 1772 3097 
Q 1472 3097 1187 3025 
Q 903 2953 641 2809 
L 641 3341 
Q 956 3463 1253 3523 
Q 1550 3584 1831 3584 
Q 2591 3584 2966 3190 
Q 3341 2797 3341 1997 
z
" transform="scale(0.015625)"/>
      <path id="DejaVuSans-69" d="M 603 3500 
L 1178 3500 
L 1178 0 
L 603 0 
L 603 3500 
z
M 603 4863 
L 1178 4863 
L 1178 4134 
L 603 4134 
L 603 4863 
z
" transform="scale(0.015625)"/>
      <path id="DejaVuSans-6e" d="M 3513 2113 
L 3513 0 
L 2938 0 
L 2938 2094 
Q 2938 2591 2744 2837 
Q 2550 3084 2163 3084 
Q 1697 3084 1428 2787 
Q 1159 2491 1159 1978 
L 1159 0 
L 581 0 
L 581 3500 
L 1159 3500 
L 1159 2956 
Q 1366 3272 1645 3428 
Q 1925 3584 2291 3584 
Q 2894 3584 3203 3211 
Q 3513 2838 3513 2113 
z
" transform="scale(0.015625)"/>
      <path id="DejaVuSans-76" d="M 191 3500 
L 800 3500 
L 1894 563 
L 2988 3500 
L 3597 3500 
L 2284 0 
L 1503 0 
L 191 3500 
z
" transform="scale(0.015625)"/>
     </defs>
     <use xlink:href="#DejaVuSans-6d"/>
     <use xlink:href="#DejaVuSans-6f" x="97.412109"/>
     <use xlink:href="#DejaVuSans-64" x="158.59375"/>
     <use xlink:href="#DejaVuSans-65" x="222.070312"/>
     <use xlink:href="#DejaVuSans-6c" x="283.59375"/>
     <use xlink:href="#DejaVuSans-20" x="311.376953"/>
     <use xlink:href="#DejaVuSans-74" x="343.164062"/>
     <use xlink:href="#DejaVuSans-72" x="382.373047"/>
     <use xlink:href="#DejaVuSans-61" x="423.486328"/>
     <use xlink:href="#DejaVuSans-69" x="484.765625"/>
     <use xlink:href="#DejaVuSans-6e" x="512.548828"/>
     <use xlink:href="#DejaVuSans-20" x="575.927734"/>
     <use xlink:href="#DejaVuSans-61" x="607.714844"/>
     <use xlink:href="#DejaVuSans-6e" x="668.994141"/>
     <use xlink:href="#DejaVuSans-64" x="732.373047"/>
     <use xlink:href="#DejaVuSans-20" x="795.849609"/>
     <use xlink:href="#DejaVuSans-76" x="827.636719"/>
     <use xlink:href="#DejaVuSans-61" x="886.816406"/>
     <use xlink:href="#DejaVuSans-6c" x="948.095703"/>
     <use xlink:href="#DejaVuSans-69" x="975.878906"/>
     <use xlink:href="#DejaVuSans-64" x="1003.662109"/>
     <use xlink:href="#DejaVuSans-61" x="1067.138672"/>
     <use xlink:href="#DejaVuSans-74" x="1128.417969"/>
     <use xlink:href="#DejaVuSans-69" x="1167.626953"/>
     <use xlink:href="#DejaVuSans-6f" x="1195.410156"/>
     <use xlink:href="#DejaVuSans-6e" x="1256.591797"/>
     <use xlink:href="#DejaVuSans-20" x="1319.970703"/>
     <use xlink:href="#DejaVuSans-6c" x="1351.757812"/>
     <use xlink:href="#DejaVuSans-6f" x="1379.541016"/>
     <use xlink:href="#DejaVuSans-73" x="1440.722656"/>
     <use xlink:href="#DejaVuSans-73" x="1492.822266"/>
     <use xlink:href="#DejaVuSans-20" x="1544.921875"/>
     <use xlink:href="#DejaVuSans-6f" x="1576.708984"/>
     <use xlink:href="#DejaVuSans-76" x="1637.890625"/>
     <use xlink:href="#DejaVuSans-65" x="1697.070312"/>
     <use xlink:href="#DejaVuSans-72" x="1758.59375"/>
     <use xlink:href="#DejaVuSans-20" x="1799.707031"/>
     <use xlink:href="#DejaVuSans-74" x="1831.494141"/>
     <use xlink:href="#DejaVuSans-69" x="1870.703125"/>
     <use xlink:href="#DejaVuSans-6d" x="1898.486328"/>
     <use xlink:href="#DejaVuSans-65" x="1995.898438"/>
    </g>
   </g>
   <g id="legend_1">
    <g id="patch_7">
     <path d="M 559.765625 80.55625 
L 641 80.55625 
Q 643 80.55625 643 78.55625 
L 643 50.2 
Q 643 48.2 641 48.2 
L 559.765625 48.2 
Q 557.765625 48.2 557.765625 50.2 
L 557.765625 78.55625 
Q 557.765625 80.55625 559.765625 80.55625 
z
" style="fill: #ffffff; opacity: 0.8; stroke: #cccccc; stroke-linejoin: miter"/>
    </g>
    <g id="line2d_29">
     <path d="M 561.765625 56.298437 
L 571.765625 56.298437 
L 581.765625 56.298437 
" style="fill: none; stroke: #1f77b4; stroke-width: 1.5; stroke-linecap: square"/>
    </g>
    <g id="text_17">
     <!-- train -->
     <g transform="translate(589.765625 59.798437) scale(0.1 -0.1)">
      <use xlink:href="#DejaVuSans-74"/>
      <use xlink:href="#DejaVuSans-72" x="39.208984"/>
      <use xlink:href="#DejaVuSans-61" x="80.322266"/>
      <use xlink:href="#DejaVuSans-69" x="141.601562"/>
      <use xlink:href="#DejaVuSans-6e" x="169.384766"/>
     </g>
    </g>
    <g id="line2d_30">
     <path d="M 561.765625 70.976562 
L 571.765625 70.976562 
L 581.765625 70.976562 
" style="fill: none; stroke: #ff7f0e; stroke-width: 1.5; stroke-linecap: square"/>
    </g>
    <g id="text_18">
     <!-- validation -->
     <g transform="translate(589.765625 74.476562) scale(0.1 -0.1)">
      <use xlink:href="#DejaVuSans-76"/>
      <use xlink:href="#DejaVuSans-61" x="59.179688"/>
      <use xlink:href="#DejaVuSans-6c" x="120.458984"/>
      <use xlink:href="#DejaVuSans-69" x="148.242188"/>
      <use xlink:href="#DejaVuSans-64" x="176.025391"/>
      <use xlink:href="#DejaVuSans-61" x="239.501953"/>
      <use xlink:href="#DejaVuSans-74" x="300.78125"/>
      <use xlink:href="#DejaVuSans-69" x="339.990234"/>
      <use xlink:href="#DejaVuSans-6f" x="367.773438"/>
      <use xlink:href="#DejaVuSans-6e" x="428.955078"/>
     </g>
    </g>
   </g>
  </g>
 </g>
 <defs>
  <clipPath id="pb428ca685d">
   <rect x="90" y="43.2" width="558" height="277.2"/>
  </clipPath>
 </defs>
</svg>
