<?xml version="1.0" encoding="utf-8" standalone="no"?>
<!DOCTYPE svg PUBLIC "-//W3C//DTD SVG 1.1//EN"
  "http://www.w3.org/Graphics/SVG/1.1/DTD/svg11.dtd">
<svg xmlns:xlink="http://www.w3.org/1999/xlink" width="720pt" height="360pt" viewBox="0 0 720 360" xmlns="http://www.w3.org/2000/svg" version="1.1">
 <metadata>
  <rdf:RDF xmlns:dc="http://purl.org/dc/elements/1.1/" xmlns:cc="http://creativecommons.org/ns#" xmlns:rdf="http://www.w3.org/1999/02/22-rdf-syntax-ns#">
   <cc:Work>
    <dc:type rdf:resource="http://purl.org/dc/dcmitype/StillImage"/>
    <dc:date>2023-05-24T12:23:27.794601</dc:date>
    <dc:format>image/svg+xml</dc:format>
    <dc:creator>
     <cc:Agent>
      <dc:title>Matplotlib v3.7.1, https://matplotlib.org/</dc:title>
     </cc:Agent>
    </dc:creator>
   </cc:Work>
  </rdf:RDF>
 </metadata>
 <defs>
  <style type="text/css">*{stroke-linejoin: round; stroke-linecap: butt}</style>
 </defs>
 <g id="figure_1">
  <g id="patch_1">
   <path d="M 0 360 
L 720 360 
L 720 0 
L 0 0 
z
" style="fill: #ffffff"/>
  </g>
  <g id="axes_1">
   <g id="patch_2">
    <path d="M 90 320.4 
L 648 320.4 
L 648 43.2 
L 90 43.2 
z
" style="fill: #ffffff"/>
   </g>
   <g id="matplotlib.axis_1">
    <g id="xtick_1">
     <g id="line2d_1">
      <path d="M 115.363636 320.4 
L 115.363636 43.2 
" clip-path="url(#p587b6d29dc)" style="fill: none; stroke: #b0b0b0; stroke-width: 0.8; stroke-linecap: square"/>
     </g>
     <g id="line2d_2">
      <defs>
       <path id="m78aa2aafdf" d="M 0 0 
L 0 3.5 
" style="stroke: #000000; stroke-width: 0.8"/>
      </defs>
      <g>
       <use xlink:href="#m78aa2aafdf" x="115.363636" y="320.4" style="stroke: #000000; stroke-width: 0.8"/>
      </g>
     </g>
     <g id="text_1">
      <!-- 0 -->
      <g transform="translate(112.182386 334.998438) scale(0.1 -0.1)">
       <defs>
        <path id="DejaVuSans-30" d="M 2034 4250 
Q 1547 4250 1301 3770 
Q 1056 3291 1056 2328 
Q 1056 1369 1301 889 
Q 1547 409 2034 409 
Q 2525 409 2770 889 
Q 3016 1369 3016 2328 
Q 3016 3291 2770 3770 
Q 2525 4250 2034 4250 
z
M 2034 4750 
Q 2819 4750 3233 4129 
Q 3647 3509 3647 2328 
Q 3647 1150 3233 529 
Q 2819 -91 2034 -91 
Q 1250 -91 836 529 
Q 422 1150 422 2328 
Q 422 3509 836 4129 
Q 1250 4750 2034 4750 
z
" transform="scale(0.015625)"/>
       </defs>
       <use xlink:href="#DejaVuSans-30"/>
      </g>
     </g>
    </g>
    <g id="xtick_2">
     <g id="line2d_3">
      <path d="M 217.021498 320.4 
L 217.021498 43.2 
" clip-path="url(#p587b6d29dc)" style="fill: none; stroke: #b0b0b0; stroke-width: 0.8; stroke-linecap: square"/>
     </g>
     <g id="line2d_4">
      <g>
       <use xlink:href="#m78aa2aafdf" x="217.021498" y="320.4" style="stroke: #000000; stroke-width: 0.8"/>
      </g>
     </g>
     <g id="text_2">
      <!-- 100 -->
      <g transform="translate(207.477748 334.998438) scale(0.1 -0.1)">
       <defs>
        <path id="DejaVuSans-31" d="M 794 531 
L 1825 531 
L 1825 4091 
L 703 3866 
L 703 4441 
L 1819 4666 
L 2450 4666 
L 2450 531 
L 3481 531 
L 3481 0 
L 794 0 
L 794 531 
z
" transform="scale(0.015625)"/>
       </defs>
       <use xlink:href="#DejaVuSans-31"/>
       <use xlink:href="#DejaVuSans-30" x="63.623047"/>
       <use xlink:href="#DejaVuSans-30" x="127.246094"/>
      </g>
     </g>
    </g>
    <g id="xtick_3">
     <g id="line2d_5">
      <path d="M 318.679359 320.4 
L 318.679359 43.2 
" clip-path="url(#p587b6d29dc)" style="fill: none; stroke: #b0b0b0; stroke-width: 0.8; stroke-linecap: square"/>
     </g>
     <g id="line2d_6">
      <g>
       <use xlink:href="#m78aa2aafdf" x="318.679359" y="320.4" style="stroke: #000000; stroke-width: 0.8"/>
      </g>
     </g>
     <g id="text_3">
      <!-- 200 -->
      <g transform="translate(309.135609 334.998438) scale(0.1 -0.1)">
       <defs>
        <path id="DejaVuSans-32" d="M 1228 531 
L 3431 531 
L 3431 0 
L 469 0 
L 469 531 
Q 828 903 1448 1529 
Q 2069 2156 2228 2338 
Q 2531 2678 2651 2914 
Q 2772 3150 2772 3378 
Q 2772 3750 2511 3984 
Q 2250 4219 1831 4219 
Q 1534 4219 1204 4116 
Q 875 4013 500 3803 
L 500 4441 
Q 881 4594 1212 4672 
Q 1544 4750 1819 4750 
Q 2544 4750 2975 4387 
Q 3406 4025 3406 3419 
Q 3406 3131 3298 2873 
Q 3191 2616 2906 2266 
Q 2828 2175 2409 1742 
Q 1991 1309 1228 531 
z
" transform="scale(0.015625)"/>
       </defs>
       <use xlink:href="#DejaVuSans-32"/>
       <use xlink:href="#DejaVuSans-30" x="63.623047"/>
       <use xlink:href="#DejaVuSans-30" x="127.246094"/>
      </g>
     </g>
    </g>
    <g id="xtick_4">
     <g id="line2d_7">
      <path d="M 420.33722 320.4 
L 420.33722 43.2 
" clip-path="url(#p587b6d29dc)" style="fill: none; stroke: #b0b0b0; stroke-width: 0.8; stroke-linecap: square"/>
     </g>
     <g id="line2d_8">
      <g>
       <use xlink:href="#m78aa2aafdf" x="420.33722" y="320.4" style="stroke: #000000; stroke-width: 0.8"/>
      </g>
     </g>
     <g id="text_4">
      <!-- 300 -->
      <g transform="translate(410.79347 334.998438) scale(0.1 -0.1)">
       <defs>
        <path id="DejaVuSans-33" d="M 2597 2516 
Q 3050 2419 3304 2112 
Q 3559 1806 3559 1356 
Q 3559 666 3084 287 
Q 2609 -91 1734 -91 
Q 1441 -91 1130 -33 
Q 819 25 488 141 
L 488 750 
Q 750 597 1062 519 
Q 1375 441 1716 441 
Q 2309 441 2620 675 
Q 2931 909 2931 1356 
Q 2931 1769 2642 2001 
Q 2353 2234 1838 2234 
L 1294 2234 
L 1294 2753 
L 1863 2753 
Q 2328 2753 2575 2939 
Q 2822 3125 2822 3475 
Q 2822 3834 2567 4026 
Q 2313 4219 1838 4219 
Q 1578 4219 1281 4162 
Q 984 4106 628 3988 
L 628 4550 
Q 988 4650 1302 4700 
Q 1616 4750 1894 4750 
Q 2613 4750 3031 4423 
Q 3450 4097 3450 3541 
Q 3450 3153 3228 2886 
Q 3006 2619 2597 2516 
z
" transform="scale(0.015625)"/>
       </defs>
       <use xlink:href="#DejaVuSans-33"/>
       <use xlink:href="#DejaVuSans-30" x="63.623047"/>
       <use xlink:href="#DejaVuSans-30" x="127.246094"/>
      </g>
     </g>
    </g>
    <g id="xtick_5">
     <g id="line2d_9">
      <path d="M 521.995081 320.4 
L 521.995081 43.2 
" clip-path="url(#p587b6d29dc)" style="fill: none; stroke: #b0b0b0; stroke-width: 0.8; stroke-linecap: square"/>
     </g>
     <g id="line2d_10">
      <g>
       <use xlink:href="#m78aa2aafdf" x="521.995081" y="320.4" style="stroke: #000000; stroke-width: 0.8"/>
      </g>
     </g>
     <g id="text_5">
      <!-- 400 -->
      <g transform="translate(512.451331 334.998438) scale(0.1 -0.1)">
       <defs>
        <path id="DejaVuSans-34" d="M 2419 4116 
L 825 1625 
L 2419 1625 
L 2419 4116 
z
M 2253 4666 
L 3047 4666 
L 3047 1625 
L 3713 1625 
L 3713 1100 
L 3047 1100 
L 3047 0 
L 2419 0 
L 2419 1100 
L 313 1100 
L 313 1709 
L 2253 4666 
z
" transform="scale(0.015625)"/>
       </defs>
       <use xlink:href="#DejaVuSans-34"/>
       <use xlink:href="#DejaVuSans-30" x="63.623047"/>
       <use xlink:href="#DejaVuSans-30" x="127.246094"/>
      </g>
     </g>
    </g>
    <g id="xtick_6">
     <g id="line2d_11">
      <path d="M 623.652942 320.4 
L 623.652942 43.2 
" clip-path="url(#p587b6d29dc)" style="fill: none; stroke: #b0b0b0; stroke-width: 0.8; stroke-linecap: square"/>
     </g>
     <g id="line2d_12">
      <g>
       <use xlink:href="#m78aa2aafdf" x="623.652942" y="320.4" style="stroke: #000000; stroke-width: 0.8"/>
      </g>
     </g>
     <g id="text_6">
      <!-- 500 -->
      <g transform="translate(614.109192 334.998438) scale(0.1 -0.1)">
       <defs>
        <path id="DejaVuSans-35" d="M 691 4666 
L 3169 4666 
L 3169 4134 
L 1269 4134 
L 1269 2991 
Q 1406 3038 1543 3061 
Q 1681 3084 1819 3084 
Q 2600 3084 3056 2656 
Q 3513 2228 3513 1497 
Q 3513 744 3044 326 
Q 2575 -91 1722 -91 
Q 1428 -91 1123 -41 
Q 819 9 494 109 
L 494 744 
Q 775 591 1075 516 
Q 1375 441 1709 441 
Q 2250 441 2565 725 
Q 2881 1009 2881 1497 
Q 2881 1984 2565 2268 
Q 2250 2553 1709 2553 
Q 1456 2553 1204 2497 
Q 953 2441 691 2322 
L 691 4666 
z
" transform="scale(0.015625)"/>
       </defs>
       <use xlink:href="#DejaVuSans-35"/>
       <use xlink:href="#DejaVuSans-30" x="63.623047"/>
       <use xlink:href="#DejaVuSans-30" x="127.246094"/>
      </g>
     </g>
    </g>
    <g id="text_7">
     <!-- epoch -->
     <g transform="translate(353.771875 348.676562) scale(0.1 -0.1)">
      <defs>
       <path id="DejaVuSans-65" d="M 3597 1894 
L 3597 1613 
L 953 1613 
Q 991 1019 1311 708 
Q 1631 397 2203 397 
Q 2534 397 2845 478 
Q 3156 559 3463 722 
L 3463 178 
Q 3153 47 2828 -22 
Q 2503 -91 2169 -91 
Q 1331 -91 842 396 
Q 353 884 353 1716 
Q 353 2575 817 3079 
Q 1281 3584 2069 3584 
Q 2775 3584 3186 3129 
Q 3597 2675 3597 1894 
z
M 3022 2063 
Q 3016 2534 2758 2815 
Q 2500 3097 2075 3097 
Q 1594 3097 1305 2825 
Q 1016 2553 972 2059 
L 3022 2063 
z
" transform="scale(0.015625)"/>
       <path id="DejaVuSans-70" d="M 1159 525 
L 1159 -1331 
L 581 -1331 
L 581 3500 
L 1159 3500 
L 1159 2969 
Q 1341 3281 1617 3432 
Q 1894 3584 2278 3584 
Q 2916 3584 3314 3078 
Q 3713 2572 3713 1747 
Q 3713 922 3314 415 
Q 2916 -91 2278 -91 
Q 1894 -91 1617 61 
Q 1341 213 1159 525 
z
M 3116 1747 
Q 3116 2381 2855 2742 
Q 2594 3103 2138 3103 
Q 1681 3103 1420 2742 
Q 1159 2381 1159 1747 
Q 1159 1113 1420 752 
Q 1681 391 2138 391 
Q 2594 391 2855 752 
Q 3116 1113 3116 1747 
z
" transform="scale(0.015625)"/>
       <path id="DejaVuSans-6f" d="M 1959 3097 
Q 1497 3097 1228 2736 
Q 959 2375 959 1747 
Q 959 1119 1226 758 
Q 1494 397 1959 397 
Q 2419 397 2687 759 
Q 2956 1122 2956 1747 
Q 2956 2369 2687 2733 
Q 2419 3097 1959 3097 
z
M 1959 3584 
Q 2709 3584 3137 3096 
Q 3566 2609 3566 1747 
Q 3566 888 3137 398 
Q 2709 -91 1959 -91 
Q 1206 -91 779 398 
Q 353 888 353 1747 
Q 353 2609 779 3096 
Q 1206 3584 1959 3584 
z
" transform="scale(0.015625)"/>
       <path id="DejaVuSans-63" d="M 3122 3366 
L 3122 2828 
Q 2878 2963 2633 3030 
Q 2388 3097 2138 3097 
Q 1578 3097 1268 2742 
Q 959 2388 959 1747 
Q 959 1106 1268 751 
Q 1578 397 2138 397 
Q 2388 397 2633 464 
Q 2878 531 3122 666 
L 3122 134 
Q 2881 22 2623 -34 
Q 2366 -91 2075 -91 
Q 1284 -91 818 406 
Q 353 903 353 1747 
Q 353 2603 823 3093 
Q 1294 3584 2113 3584 
Q 2378 3584 2631 3529 
Q 2884 3475 3122 3366 
z
" transform="scale(0.015625)"/>
       <path id="DejaVuSans-68" d="M 3513 2113 
L 3513 0 
L 2938 0 
L 2938 2094 
Q 2938 2591 2744 2837 
Q 2550 3084 2163 3084 
Q 1697 3084 1428 2787 
Q 1159 2491 1159 1978 
L 1159 0 
L 581 0 
L 581 4863 
L 1159 4863 
L 1159 2956 
Q 1366 3272 1645 3428 
Q 1925 3584 2291 3584 
Q 2894 3584 3203 3211 
Q 3513 2838 3513 2113 
z
" transform="scale(0.015625)"/>
      </defs>
      <use xlink:href="#DejaVuSans-65"/>
      <use xlink:href="#DejaVuSans-70" x="61.523438"/>
      <use xlink:href="#DejaVuSans-6f" x="125"/>
      <use xlink:href="#DejaVuSans-63" x="186.181641"/>
      <use xlink:href="#DejaVuSans-68" x="241.162109"/>
     </g>
    </g>
   </g>
   <g id="matplotlib.axis_2">
    <g id="ytick_1">
     <g id="line2d_13">
      <path d="M 90 296.666669 
L 648 296.666669 
" clip-path="url(#p587b6d29dc)" style="fill: none; stroke: #b0b0b0; stroke-width: 0.8; stroke-linecap: square"/>
     </g>
     <g id="line2d_14">
      <defs>
       <path id="mb6ee74cc45" d="M 0 0 
L -3.5 0 
" style="stroke: #000000; stroke-width: 0.8"/>
      </defs>
      <g>
       <use xlink:href="#mb6ee74cc45" x="90" y="296.666669" style="stroke: #000000; stroke-width: 0.8"/>
      </g>
     </g>
     <g id="text_8">
      <!-- 1.15 -->
      <g transform="translate(60.734375 300.465888) scale(0.1 -0.1)">
       <defs>
        <path id="DejaVuSans-2e" d="M 684 794 
L 1344 794 
L 1344 0 
L 684 0 
L 684 794 
z
" transform="scale(0.015625)"/>
       </defs>
       <use xlink:href="#DejaVuSans-31"/>
       <use xlink:href="#DejaVuSans-2e" x="63.623047"/>
       <use xlink:href="#DejaVuSans-31" x="95.410156"/>
       <use xlink:href="#DejaVuSans-35" x="159.033203"/>
      </g>
     </g>
    </g>
    <g id="ytick_2">
     <g id="line2d_15">
      <path d="M 90 245.483479 
L 648 245.483479 
" clip-path="url(#p587b6d29dc)" style="fill: none; stroke: #b0b0b0; stroke-width: 0.8; stroke-linecap: square"/>
     </g>
     <g id="line2d_16">
      <g>
       <use xlink:href="#mb6ee74cc45" x="90" y="245.483479" style="stroke: #000000; stroke-width: 0.8"/>
      </g>
     </g>
     <g id="text_9">
      <!-- 1.20 -->
      <g transform="translate(60.734375 249.282698) scale(0.1 -0.1)">
       <use xlink:href="#DejaVuSans-31"/>
       <use xlink:href="#DejaVuSans-2e" x="63.623047"/>
       <use xlink:href="#DejaVuSans-32" x="95.410156"/>
       <use xlink:href="#DejaVuSans-30" x="159.033203"/>
      </g>
     </g>
    </g>
    <g id="ytick_3">
     <g id="line2d_17">
      <path d="M 90 194.300289 
L 648 194.300289 
" clip-path="url(#p587b6d29dc)" style="fill: none; stroke: #b0b0b0; stroke-width: 0.8; stroke-linecap: square"/>
     </g>
     <g id="line2d_18">
      <g>
       <use xlink:href="#mb6ee74cc45" x="90" y="194.300289" style="stroke: #000000; stroke-width: 0.8"/>
      </g>
     </g>
     <g id="text_10">
      <!-- 1.25 -->
      <g transform="translate(60.734375 198.099508) scale(0.1 -0.1)">
       <use xlink:href="#DejaVuSans-31"/>
       <use xlink:href="#DejaVuSans-2e" x="63.623047"/>
       <use xlink:href="#DejaVuSans-32" x="95.410156"/>
       <use xlink:href="#DejaVuSans-35" x="159.033203"/>
      </g>
     </g>
    </g>
    <g id="ytick_4">
     <g id="line2d_19">
      <path d="M 90 143.117099 
L 648 143.117099 
" clip-path="url(#p587b6d29dc)" style="fill: none; stroke: #b0b0b0; stroke-width: 0.8; stroke-linecap: square"/>
     </g>
     <g id="line2d_20">
      <g>
       <use xlink:href="#mb6ee74cc45" x="90" y="143.117099" style="stroke: #000000; stroke-width: 0.8"/>
      </g>
     </g>
     <g id="text_11">
      <!-- 1.30 -->
      <g transform="translate(60.734375 146.916318) scale(0.1 -0.1)">
       <use xlink:href="#DejaVuSans-31"/>
       <use xlink:href="#DejaVuSans-2e" x="63.623047"/>
       <use xlink:href="#DejaVuSans-33" x="95.410156"/>
       <use xlink:href="#DejaVuSans-30" x="159.033203"/>
      </g>
     </g>
    </g>
    <g id="ytick_5">
     <g id="line2d_21">
      <path d="M 90 91.933909 
L 648 91.933909 
" clip-path="url(#p587b6d29dc)" style="fill: none; stroke: #b0b0b0; stroke-width: 0.8; stroke-linecap: square"/>
     </g>
     <g id="line2d_22">
      <g>
       <use xlink:href="#mb6ee74cc45" x="90" y="91.933909" style="stroke: #000000; stroke-width: 0.8"/>
      </g>
     </g>
     <g id="text_12">
      <!-- 1.35 -->
      <g transform="translate(60.734375 95.733128) scale(0.1 -0.1)">
       <use xlink:href="#DejaVuSans-31"/>
       <use xlink:href="#DejaVuSans-2e" x="63.623047"/>
       <use xlink:href="#DejaVuSans-33" x="95.410156"/>
       <use xlink:href="#DejaVuSans-35" x="159.033203"/>
      </g>
     </g>
    </g>
    <g id="text_13">
     <!-- loss -->
     <g transform="translate(54.654688 191.457812) rotate(-90) scale(0.1 -0.1)">
      <defs>
       <path id="DejaVuSans-6c" d="M 603 4863 
L 1178 4863 
L 1178 0 
L 603 0 
L 603 4863 
z
" transform="scale(0.015625)"/>
       <path id="DejaVuSans-73" d="M 2834 3397 
L 2834 2853 
Q 2591 2978 2328 3040 
Q 2066 3103 1784 3103 
Q 1356 3103 1142 2972 
Q 928 2841 928 2578 
Q 928 2378 1081 2264 
Q 1234 2150 1697 2047 
L 1894 2003 
Q 2506 1872 2764 1633 
Q 3022 1394 3022 966 
Q 3022 478 2636 193 
Q 2250 -91 1575 -91 
Q 1294 -91 989 -36 
Q 684 19 347 128 
L 347 722 
Q 666 556 975 473 
Q 1284 391 1588 391 
Q 1994 391 2212 530 
Q 2431 669 2431 922 
Q 2431 1156 2273 1281 
Q 2116 1406 1581 1522 
L 1381 1569 
Q 847 1681 609 1914 
Q 372 2147 372 2553 
Q 372 3047 722 3315 
Q 1072 3584 1716 3584 
Q 2034 3584 2315 3537 
Q 2597 3491 2834 3397 
z
" transform="scale(0.015625)"/>
      </defs>
      <use xlink:href="#DejaVuSans-6c"/>
      <use xlink:href="#DejaVuSans-6f" x="27.783203"/>
      <use xlink:href="#DejaVuSans-73" x="88.964844"/>
      <use xlink:href="#DejaVuSans-73" x="141.064453"/>
     </g>
    </g>
   </g>
   <g id="line2d_23">
    <path d="M 115.363636 244.002105 
L 116.380215 244.857537 
L 117.396794 244.686695 
L 118.413372 242.286482 
L 120.446529 249.728496 
L 121.463108 244.947352 
L 122.479687 247.341219 
L 123.496265 252.222184 
L 124.512844 252.039627 
L 125.529422 247.893405 
L 126.546001 252.266481 
L 127.56258 253.629315 
L 128.579158 251.075954 
L 129.595737 246.100903 
L 130.612316 249.793782 
L 131.628894 251.03605 
L 132.645473 251.124522 
L 133.662051 253.060166 
L 134.67863 254.421047 
L 135.695209 252.610118 
L 136.711787 253.83701 
L 137.728366 253.184514 
L 138.744944 249.095037 
L 139.761523 254.096202 
L 140.778102 256.3573 
L 141.79468 257.011993 
L 142.811259 251.234959 
L 143.827837 255.231572 
L 144.844416 254.043119 
L 145.860995 258.166887 
L 147.894152 253.31167 
L 148.910731 251.691352 
L 149.927309 256.420756 
L 150.943888 257.823128 
L 151.960466 261.190674 
L 152.977045 259.410863 
L 153.993624 258.196052 
L 155.010202 257.501944 
L 156.026781 260.480214 
L 157.043359 255.133947 
L 158.059938 254.42788 
L 159.076517 259.183643 
L 160.093095 255.983156 
L 161.109674 257.773461 
L 162.126253 258.671604 
L 163.142831 256.546325 
L 164.15941 259.88373 
L 165.175988 256.005243 
L 166.192567 256.09103 
L 167.209146 255.251829 
L 168.225724 262.946933 
L 169.242303 261.77886 
L 170.258881 259.251247 
L 171.27546 263.642383 
L 172.292039 257.401147 
L 173.308617 261.488306 
L 174.325196 257.904888 
L 175.341774 260.548307 
L 177.374932 264.039836 
L 178.39151 262.398895 
L 179.408089 258.532367 
L 180.424668 262.686277 
L 181.441246 262.7418 
L 183.474403 258.489169 
L 184.490982 263.736347 
L 185.507561 263.000993 
L 186.524139 265.620005 
L 187.540718 261.274143 
L 188.557296 261.954949 
L 189.573875 261.846464 
L 190.590454 266.135095 
L 191.607032 269.32826 
L 192.623611 263.52377 
L 193.640189 267.629721 
L 194.656768 268.247682 
L 195.673347 263.464585 
L 196.689925 267.465957 
L 197.706504 260.694133 
L 198.723083 269.039659 
L 199.739661 262.829784 
L 200.75624 265.452946 
L 201.772818 268.551416 
L 202.789397 265.320909 
L 203.805976 264.554315 
L 204.822554 268.669663 
L 205.839133 265.117363 
L 206.855711 262.888847 
L 207.87229 266.421012 
L 208.888869 264.844015 
L 209.905447 266.38306 
L 210.922026 264.299882 
L 211.938604 268.64782 
L 212.955183 265.159829 
L 213.971762 265.143111 
L 214.98834 266.13778 
L 216.004919 264.013721 
L 217.021498 269.144361 
L 218.038076 267.531609 
L 219.054655 269.11666 
L 220.071233 269.653593 
L 221.087812 265.175693 
L 222.104391 261.773002 
L 223.120969 269.522776 
L 224.137548 270.872919 
L 225.154126 270.463874 
L 226.170705 271.935924 
L 227.187284 270.926246 
L 228.203862 267.473889 
L 229.220441 270.006748 
L 230.237019 266.210998 
L 231.253598 273.019675 
L 232.270177 265.753384 
L 233.286755 264.721619 
L 234.303334 266.11435 
L 235.319913 270.471683 
L 236.336491 271.066093 
L 237.35307 270.115965 
L 238.369648 268.259153 
L 239.386227 272.175836 
L 240.402806 272.550591 
L 241.419384 276.197464 
L 242.435963 270.312312 
L 243.452541 274.081338 
L 244.46912 272.034769 
L 245.485699 276.816523 
L 246.502277 269.903145 
L 247.518856 269.963916 
L 248.535435 272.534238 
L 249.552013 269.727909 
L 250.568592 270.677671 
L 251.58517 276.604557 
L 252.601749 273.369047 
L 253.618328 273.288629 
L 254.634906 273.336709 
L 255.651485 269.768423 
L 256.668063 269.241375 
L 257.684642 275.014747 
L 258.701221 276.969915 
L 259.717799 270.685358 
L 260.734378 275.914232 
L 261.750956 276.272513 
L 262.767535 273.944542 
L 263.784114 275.71276 
L 264.800692 270.987871 
L 265.817271 275.984399 
L 266.83385 274.660127 
L 267.850428 275.094189 
L 268.867007 274.748355 
L 269.883585 280.863656 
L 270.900164 271.382517 
L 271.916743 270.551247 
L 272.933321 274.046803 
L 273.9499 276.41663 
L 274.966478 274.733711 
L 275.983057 275.359971 
L 276.999636 280.437405 
L 278.016214 274.383851 
L 279.032793 275.622702 
L 280.049371 277.615211 
L 281.06595 271.570566 
L 282.082529 279.345844 
L 283.099107 268.669785 
L 284.115686 270.735879 
L 285.132265 279.076279 
L 286.148843 279.002085 
L 287.165422 275.84382 
L 288.182 276.782355 
L 289.198579 284.666362 
L 290.215158 276.367208 
L 291.231736 276.709259 
L 292.248315 281.714451 
L 293.264893 275.589509 
L 294.281472 277.006036 
L 295.298051 280.068751 
L 296.314629 277.011284 
L 297.331208 277.683792 
L 298.347786 277.369931 
L 299.364365 280.435208 
L 300.380944 276.08422 
L 301.397522 277.913941 
L 302.414101 275.817218 
L 303.43068 277.00506 
L 304.447258 269.492391 
L 305.463837 272.146915 
L 306.480415 278.744601 
L 307.496994 277.056191 
L 308.513573 277.7071 
L 309.530151 283.844245 
L 310.54673 278.173622 
L 311.563308 275.465893 
L 312.579887 277.361388 
L 313.596466 280.040928 
L 314.613044 279.841043 
L 315.629623 281.020953 
L 316.646201 272.336305 
L 317.66278 279.694851 
L 318.679359 276.816646 
L 319.695937 278.599629 
L 321.729095 283.699761 
L 323.762252 277.262056 
L 324.77883 280.639365 
L 325.795409 278.814525 
L 326.811988 279.864717 
L 327.828566 277.603252 
L 328.845145 281.924831 
L 329.861723 279.075669 
L 330.878302 281.236825 
L 331.894881 282.60759 
L 332.911459 279.45018 
L 333.928038 284.562027 
L 334.944617 278.063306 
L 335.961195 286.251535 
L 336.977774 282.285308 
L 337.994352 286.507799 
L 339.010931 283.280343 
L 340.02751 283.479862 
L 341.044088 284.307716 
L 342.060667 285.649926 
L 343.077245 285.036236 
L 344.093824 283.659003 
L 345.110403 279.490938 
L 346.126981 284.209237 
L 347.14356 282.598194 
L 348.160138 282.748535 
L 349.176717 285.022447 
L 350.193296 278.118708 
L 351.209874 284.935073 
L 352.226453 284.291852 
L 353.243032 283.201389 
L 354.25961 286.957602 
L 355.276189 278.541909 
L 356.292767 278.213892 
L 357.309346 281.580096 
L 358.325925 283.131832 
L 359.342503 283.931008 
L 360.359082 283.689632 
L 361.37566 285.226359 
L 362.392239 282.167793 
L 363.408818 281.940329 
L 364.425396 280.211039 
L 365.441975 285.629791 
L 366.458553 282.789537 
L 367.475132 278.85089 
L 368.491711 281.922391 
L 369.508289 280.888794 
L 370.524868 283.442399 
L 371.541447 284.769844 
L 372.558025 287.758731 
L 373.574604 282.451025 
L 374.591182 280.706603 
L 375.607761 286.815925 
L 376.62434 286.739046 
L 377.640918 281.2594 
L 378.657497 287.504053 
L 379.674075 282.714733 
L 380.690654 285.505442 
L 381.707233 282.396356 
L 382.723811 289.143164 
L 383.74039 285.486039 
L 384.756968 282.974901 
L 385.773547 288.219151 
L 386.790126 285.282249 
L 387.806704 288.197673 
L 388.823283 288.261861 
L 389.839862 289.479845 
L 390.85644 287.586302 
L 391.873019 293.33356 
L 392.889597 284.443657 
L 393.906176 287.375434 
L 394.922755 288.693604 
L 395.939333 283.048608 
L 396.955912 285.491775 
L 397.97249 290.191403 
L 398.989069 287.422293 
L 400.005648 289.375143 
L 401.022226 290.896372 
L 402.038805 287.514426 
L 403.055383 288.952308 
L 404.071962 288.361926 
L 405.088541 287.135278 
L 406.105119 278.220725 
L 407.121698 289.856796 
L 408.138277 288.350699 
L 409.154855 285.743767 
L 410.171434 292.755381 
L 411.188012 291.733255 
L 412.204591 286.819586 
L 413.22117 285.338505 
L 414.237748 276.395519 
L 415.254327 283.899524 
L 416.270905 287.273416 
L 417.287484 291.397794 
L 418.304063 286.236281 
L 419.320641 294.509199 
L 420.33722 288.364245 
L 421.353799 286.154399 
L 422.370377 285.81003 
L 423.386956 286.949792 
L 424.403534 292.295693 
L 425.420113 286.493399 
L 426.436692 294.528602 
L 427.45327 291.433183 
L 428.469849 284.749709 
L 429.486427 290.122212 
L 430.503006 293.069852 
L 431.519585 292.122776 
L 432.536163 290.238751 
L 433.552742 286.977615 
L 434.56932 290.471341 
L 435.585899 290.152964 
L 436.602478 290.840238 
L 437.619056 294.463682 
L 439.652214 284.947154 
L 440.668792 286.193205 
L 441.685371 290.228378 
L 443.718528 292.462264 
L 444.735107 292.999563 
L 445.751685 292.855689 
L 446.768264 287.808885 
L 447.784842 287.353224 
L 448.801421 286.218465 
L 449.818 291.625747 
L 450.834578 291.912152 
L 451.851157 289.057132 
L 452.867735 287.864043 
L 453.884314 292.411377 
L 454.900893 293.095357 
L 455.917471 290.021171 
L 456.93405 286.568448 
L 457.950629 294.941186 
L 458.967207 290.142469 
L 459.983786 290.598008 
L 461.000364 292.086167 
L 462.016943 292.092512 
L 464.0501 291.550576 
L 465.066679 290.594103 
L 466.083257 288.884948 
L 467.099836 285.830897 
L 468.116415 296.340507 
L 469.132993 290.715157 
L 470.149572 286.480464 
L 471.16615 292.009532 
L 472.182729 295.188175 
L 473.199308 295.594414 
L 474.215886 289.346832 
L 475.232465 296.849129 
L 476.249044 293.930898 
L 477.265622 296.125978 
L 478.282201 290.510512 
L 479.298779 291.640268 
L 480.315358 291.876031 
L 481.331937 294.176301 
L 482.348515 292.405764 
L 483.365094 291.215603 
L 484.381672 291.260632 
L 485.398251 293.765913 
L 486.41483 293.329533 
L 487.431408 293.17968 
L 488.447987 290.263767 
L 489.464565 291.509086 
L 490.481144 296.265092 
L 491.497723 292.002942 
L 492.514301 295.091161 
L 493.53088 296.6911 
L 494.547459 295.943542 
L 495.564037 294.239024 
L 496.580616 295.025143 
L 497.597194 296.765172 
L 498.613773 293.151735 
L 499.630352 299.072276 
L 500.64693 293.605687 
L 501.663509 296.290352 
L 502.680087 292.842144 
L 503.696666 294.168369 
L 504.713245 294.534947 
L 505.729823 295.841769 
L 506.746402 298.66079 
L 507.762981 293.354305 
L 508.779559 295.309229 
L 509.796138 298.450043 
L 510.812716 291.585843 
L 511.829295 294.470637 
L 512.845874 301.019268 
L 513.862452 296.957736 
L 514.879031 293.984469 
L 515.895609 298.155707 
L 516.912188 290.165289 
L 517.928767 293.992401 
L 518.945345 296.527945 
L 519.961924 294.707132 
L 520.978502 293.334048 
L 521.995081 294.798045 
L 523.01166 296.83656 
L 524.028238 299.493768 
L 525.044817 297.324925 
L 526.061396 298.917053 
L 527.077974 294.60121 
L 528.094553 297.503455 
L 529.111131 298.373042 
L 530.12771 293.428011 
L 531.144289 294.746914 
L 532.160867 304.217802 
L 533.177446 294.852348 
L 534.194024 300.025942 
L 535.210603 298.40355 
L 536.227182 301.739368 
L 537.24376 294.733735 
L 538.260339 294.518107 
L 539.276917 302.356353 
L 540.293496 299.934297 
L 541.310075 294.748988 
L 542.326653 299.258128 
L 543.343232 299.384063 
L 544.359811 301.683112 
L 545.376389 302.291677 
L 546.392968 294.477471 
L 547.409546 299.160503 
L 548.426125 296.695249 
L 549.442704 298.929622 
L 550.459282 300.285134 
L 551.475861 302.693279 
L 552.492439 302.825315 
L 553.509018 297.755203 
L 554.525597 300.933969 
L 555.542175 299.308282 
L 556.558754 299.017606 
L 557.575332 298.173279 
L 558.591911 300.621816 
L 559.60849 300.718219 
L 560.625068 301.4227 
L 561.641647 300.138332 
L 562.658226 300.198981 
L 563.674804 299.30633 
L 564.691383 301.532283 
L 565.707961 298.039778 
L 566.72454 304.825269 
L 567.741119 303.075233 
L 568.757697 300.171768 
L 569.774276 303.908334 
L 570.790854 300.172134 
L 571.807433 300.925305 
L 572.824012 298.1601 
L 574.857169 293.605199 
L 575.873747 297.076227 
L 576.890326 301.451255 
L 577.906905 298.502272 
L 578.923483 297.854048 
L 579.940062 304.106389 
L 580.956641 303.604112 
L 581.973219 307.181429 
L 582.989798 299.766017 
L 584.006376 304.841133 
L 585.022955 300.333092 
L 586.039534 305.09459 
L 587.056112 297.791934 
L 588.072691 300.158223 
L 589.089269 303.87807 
L 590.105848 300.570319 
L 591.122427 305.059567 
L 592.139005 305.853862 
L 593.155584 304.694575 
L 594.172163 295.907666 
L 595.188741 305.564528 
L 596.20532 302.168549 
L 597.221898 299.929416 
L 598.238477 301.307259 
L 599.255056 297.757278 
L 600.271634 302.736599 
L 601.288213 304.384008 
L 603.32137 304.361798 
L 604.337949 304.692256 
L 605.354527 305.85557 
L 606.371106 304.290044 
L 607.387684 304.453443 
L 608.404263 303.901378 
L 609.420842 302.282159 
L 610.43742 300.975459 
L 611.453999 306.991916 
L 612.470578 297.870156 
L 613.487156 300.048762 
L 614.503735 304.018039 
L 615.520313 302.814455 
L 616.536892 298.670918 
L 617.553471 301.102004 
L 618.570049 307.8 
L 619.586628 303.321979 
L 620.603206 305.054198 
L 621.619785 301.612579 
L 622.636364 305.583199 
L 622.636364 305.583199 
" clip-path="url(#p587b6d29dc)" style="fill: none; stroke: #1f77b4; stroke-width: 1.5; stroke-linecap: square"/>
   </g>
   <g id="line2d_24">
    <path d="M 115.363636 81.781579 
L 117.396794 80.828157 
L 119.429951 81.684565 
L 120.446529 81.51653 
L 121.463108 81.491025 
L 122.479687 82.311679 
L 123.496265 81.428668 
L 124.512844 80.963855 
L 125.529422 81.859679 
L 126.546001 81.206939 
L 127.56258 81.002904 
L 128.579158 80.502336 
L 129.595737 81.53459 
L 130.612316 80.627173 
L 131.628894 81.290041 
L 132.645473 80.277557 
L 133.662051 80.570673 
L 134.67863 81.736306 
L 135.695209 79.677168 
L 136.711787 81.548746 
L 137.728366 80.1864 
L 138.744944 81.39096 
L 139.761523 81.376805 
L 141.79468 80.242656 
L 142.811259 80.424969 
L 143.827837 80.053143 
L 144.844416 78.709468 
L 145.860995 79.641047 
L 146.877573 78.592197 
L 147.894152 80.424725 
L 148.910731 79.021377 
L 149.927309 79.782602 
L 150.943888 78.848949 
L 151.960466 79.769667 
L 152.977045 79.432863 
L 153.993624 79.274956 
L 155.010202 79.584669 
L 156.026781 78.557662 
L 157.043359 79.356228 
L 158.059938 78.351431 
L 160.093095 79.67668 
L 161.109674 78.621484 
L 163.142831 79.519139 
L 164.15941 79.966135 
L 165.175988 80.629126 
L 166.192567 81.524828 
L 167.209146 83.146976 
L 169.242303 81.840764 
L 170.258881 82.668007 
L 171.27546 83.728328 
L 172.292039 84.356539 
L 173.308617 83.581403 
L 174.325196 84.016075 
L 175.341774 84.007533 
L 176.358353 84.654293 
L 177.374932 84.709207 
L 178.39151 84.257695 
L 179.408089 84.091978 
L 180.424668 83.723324 
L 181.441246 84.222184 
L 182.457825 82.945626 
L 183.474403 84.530676 
L 184.490982 82.980404 
L 185.507561 83.39787 
L 186.524139 83.108658 
L 187.540718 83.868418 
L 188.557296 83.811308 
L 189.573875 84.114675 
L 190.590454 80.006894 
L 191.607032 84.256352 
L 192.623611 84.341896 
L 193.640189 83.491955 
L 194.656768 83.983981 
L 195.673347 83.742361 
L 196.689925 84.001919 
L 197.706504 82.772587 
L 198.723083 83.989838 
L 199.739661 83.808868 
L 200.75624 82.43139 
L 201.772818 83.280721 
L 203.805976 82.948188 
L 204.822554 84.506392 
L 205.839133 84.464658 
L 206.855711 82.211126 
L 207.87229 82.225403 
L 208.888869 81.771451 
L 209.905447 77.912733 
L 210.922026 76.785783 
L 211.938604 80.451328 
L 212.955183 77.135644 
L 213.971762 76.840453 
L 214.98834 75.753896 
L 216.004919 76.508409 
L 217.021498 76.321458 
L 218.038076 76.902444 
L 219.054655 75.930596 
L 220.071233 76.016505 
L 221.087812 77.74128 
L 222.104391 79.042611 
L 223.120969 76.833985 
L 224.137548 77.430591 
L 225.154126 76.416764 
L 227.187284 75.997712 
L 228.203862 76.575769 
L 229.220441 76.73868 
L 230.237019 77.040094 
L 231.253598 76.698288 
L 232.270177 76.176853 
L 233.286755 76.762232 
L 234.303334 75.760974 
L 235.319913 75.263578 
L 236.336491 74.134311 
L 237.35307 73.634475 
L 238.369648 73.678772 
L 239.386227 73.117921 
L 240.402806 73.432759 
L 241.419384 73.615926 
L 242.435963 72.947444 
L 243.452541 75.774397 
L 244.46912 75.614171 
L 245.485699 76.694505 
L 246.502277 76.533791 
L 247.518856 75.361935 
L 248.535435 74.543356 
L 249.552013 75.298967 
L 250.568592 75.518011 
L 251.58517 74.846967 
L 252.601749 75.747794 
L 253.618328 75.129345 
L 254.634906 73.80129 
L 255.651485 75.608924 
L 256.668063 74.948252 
L 257.684642 76.032613 
L 258.701221 73.957611 
L 259.717799 74.990353 
L 260.734378 73.079725 
L 261.750956 73.700127 
L 262.767535 73.155872 
L 263.784114 73.314633 
L 264.800692 73.217497 
L 265.817271 72.63224 
L 266.83385 73.233605 
L 267.850428 74.972292 
L 268.867007 73.56748 
L 269.883585 73.309752 
L 270.900164 73.825818 
L 271.916743 72.023676 
L 272.933321 73.487306 
L 273.9499 72.949885 
L 274.966478 73.479618 
L 275.983057 71.003259 
L 276.999636 71.435368 
L 278.016214 71.416209 
L 279.032793 71.609139 
L 280.049371 70.327699 
L 281.06595 70.793367 
L 282.082529 71.659781 
L 283.099107 71.548124 
L 284.115686 71.841484 
L 285.132265 71.818177 
L 286.148843 71.14701 
L 287.165422 72.145706 
L 288.182 71.429999 
L 290.215158 71.484668 
L 291.231736 71.374231 
L 292.248315 73.833506 
L 293.264893 71.244024 
L 294.281472 73.323786 
L 295.298051 72.530833 
L 296.314629 72.193298 
L 297.331208 71.208026 
L 298.347786 70.896482 
L 299.364365 72.133381 
L 300.380944 72.770257 
L 301.397522 71.433293 
L 302.414101 74.003372 
L 303.43068 71.535921 
L 306.480415 68.980486 
L 307.496994 70.134892 
L 308.513573 70.020427 
L 309.530151 70.372729 
L 310.54673 70.038244 
L 311.563308 69.875699 
L 312.579887 67.830473 
L 313.596466 68.540201 
L 314.613044 69.080062 
L 315.629623 69.302279 
L 316.646201 70.153928 
L 317.66278 70.012129 
L 318.679359 70.71783 
L 319.695937 68.573393 
L 320.712516 69.641157 
L 321.729095 69.312042 
L 322.745673 69.992482 
L 323.762252 69.698023 
L 324.77883 69.646527 
L 325.795409 71.655022 
L 326.811988 71.337256 
L 327.828566 70.066311 
L 328.845145 71.859057 
L 329.861723 70.608613 
L 330.878302 72.497397 
L 331.894881 71.967298 
L 332.911459 72.750244 
L 333.928038 72.706069 
L 334.944617 71.46856 
L 335.961195 68.806348 
L 336.977774 72.294461 
L 337.994352 72.340222 
L 339.010931 72.889358 
L 340.02751 72.649325 
L 341.044088 71.626711 
L 342.060667 71.361173 
L 343.077245 71.336157 
L 344.093824 72.057234 
L 345.110403 72.303369 
L 346.126981 72.287139 
L 347.14356 71.842583 
L 348.160138 73.518546 
L 349.176717 72.583062 
L 350.193296 71.482105 
L 351.209874 71.852223 
L 352.226453 72.397088 
L 353.243032 72.361455 
L 354.25961 70.976412 
L 355.276189 71.531406 
L 356.292767 70.268393 
L 357.309346 68.284669 
L 358.325925 67.954699 
L 359.342503 69.233088 
L 360.359082 71.105032 
L 361.37566 66.021252 
L 362.392239 70.578838 
L 363.408818 69.512049 
L 364.425396 72.249065 
L 365.441975 66.643851 
L 366.458553 65.052332 
L 367.475132 69.715596 
L 368.491711 66.633844 
L 369.508289 68.627696 
L 370.524868 74.784976 
L 371.541447 68.709701 
L 372.558025 70.546378 
L 373.574604 71.642941 
L 374.591182 68.056229 
L 375.607761 71.858569 
L 376.62434 72.522901 
L 377.640918 69.753913 
L 378.657497 69.626758 
L 379.674075 71.69273 
L 380.690654 69.027101 
L 381.707233 71.748619 
L 382.723811 68.246352 
L 383.74039 69.601497 
L 384.756968 72.95501 
L 386.790126 70.53027 
L 387.806704 72.318989 
L 388.823283 71.93618 
L 389.839862 70.262291 
L 390.85644 71.580218 
L 391.873019 70.58018 
L 392.889597 71.773758 
L 393.906176 74.064997 
L 394.922755 73.061421 
L 395.939333 71.586807 
L 396.955912 71.860887 
L 397.97249 69.906207 
L 398.989069 71.144814 
L 400.005648 71.042553 
L 401.022226 68.693226 
L 402.038805 70.51465 
L 403.055383 70.132695 
L 404.071962 72.601001 
L 405.088541 71.43671 
L 406.105119 66.618102 
L 407.121698 70.82241 
L 409.154855 67.74554 
L 410.171434 70.54113 
L 411.188012 70.689885 
L 412.204591 69.060049 
L 413.22117 66.73098 
L 414.237748 65.413908 
L 415.254327 65.794642 
L 416.270905 69.619924 
L 417.287484 65.915696 
L 418.304063 67.050577 
L 419.320641 64.614244 
L 420.33722 65.622702 
L 421.353799 67.056557 
L 422.370377 66.09081 
L 423.386956 69.54573 
L 424.403534 67.498672 
L 426.436692 70.032142 
L 427.45327 69.283731 
L 428.469849 67.973614 
L 429.486427 68.959618 
L 430.503006 68.256236 
L 431.519585 63.559414 
L 432.536163 67.7071 
L 433.552742 68.741306 
L 434.56932 67.854147 
L 435.585899 68.090885 
L 436.602478 67.339057 
L 437.619056 65.461378 
L 438.635635 71.310043 
L 439.652214 70.04703 
L 441.685371 69.488742 
L 442.701949 70.295117 
L 443.718528 67.408492 
L 444.735107 66.769786 
L 445.751685 67.385428 
L 447.784842 62.07333 
L 448.801421 63.129502 
L 449.818 64.729196 
L 450.834578 65.513851 
L 451.851157 62.540218 
L 452.867735 65.923872 
L 453.884314 64.857572 
L 454.900893 65.586703 
L 455.917471 66.715727 
L 456.93405 65.040373 
L 457.950629 66.543298 
L 458.967207 67.009453 
L 459.983786 65.371563 
L 461.000364 65.06539 
L 462.016943 65.517024 
L 463.033522 65.290901 
L 464.0501 69.233332 
L 465.066679 69.736097 
L 466.083257 68.380707 
L 467.099836 66.611147 
L 468.116415 68.420123 
L 469.132993 65.815754 
L 470.149572 65.761816 
L 471.16615 65.271377 
L 472.182729 65.759864 
L 473.199308 66.384781 
L 474.215886 66.448114 
L 475.232465 67.237528 
L 476.249044 65.4543 
L 477.265622 66.464954 
L 478.282201 65.400241 
L 479.298779 66.18282 
L 480.315358 67.19616 
L 481.331937 66.734397 
L 482.348515 65.603909 
L 483.365094 66.509617 
L 484.381672 65.757423 
L 485.398251 67.38311 
L 486.41483 66.846665 
L 487.431408 67.048259 
L 488.447987 66.277272 
L 490.481144 66.526458 
L 491.497723 65.680788 
L 492.514301 64.26841 
L 493.53088 65.981593 
L 494.547459 68.935578 
L 495.564037 65.962068 
L 496.580616 66.269706 
L 497.597194 68.442576 
L 498.613773 65.939126 
L 499.630352 69.51327 
L 500.64693 69.024417 
L 501.663509 69.308015 
L 502.680087 65.691527 
L 503.696666 68.338363 
L 504.713245 65.002056 
L 505.729823 69.954775 
L 506.746402 67.089749 
L 507.762981 64.7126 
L 508.779559 63.135726 
L 509.796138 66.959299 
L 510.812716 68.712995 
L 511.829295 64.00275 
L 512.845874 63.739653 
L 513.862452 64.159803 
L 514.879031 65.217683 
L 515.895609 67.86098 
L 516.912188 68.06892 
L 517.928767 66.894501 
L 518.945345 67.872573 
L 519.961924 67.145151 
L 520.978502 66.86619 
L 524.028238 66.483503 
L 525.044817 65.029147 
L 526.061396 67.197136 
L 527.077974 65.941567 
L 528.094553 66.22187 
L 530.12771 67.641692 
L 531.144289 66.247619 
L 532.160867 65.362777 
L 533.177446 67.323925 
L 534.194024 66.821771 
L 535.210603 66.928547 
L 536.227182 66.389174 
L 537.24376 65.48554 
L 538.260339 65.250876 
L 539.276917 63.6463 
L 540.293496 65.188762 
L 542.326653 65.53484 
L 543.343232 65.489567 
L 544.359811 64.644019 
L 545.376389 65.117497 
L 546.392968 64.906262 
L 547.409546 64.177376 
L 548.426125 64.071697 
L 549.442704 64.477204 
L 550.459282 63.059213 
L 551.475861 63.739287 
L 552.492439 62.982456 
L 553.509018 63.905614 
L 554.525597 63.038345 
L 555.542175 63.321333 
L 556.558754 62.985018 
L 557.575332 63.51768 
L 558.591911 64.993514 
L 559.60849 64.175667 
L 560.625068 66.488384 
L 561.641647 64.530287 
L 562.658226 64.485624 
L 563.674804 65.150689 
L 564.691383 65.599028 
L 565.707961 65.105782 
L 566.72454 63.940149 
L 567.741119 64.675503 
L 569.774276 64.230703 
L 570.790854 63.110587 
L 571.807433 64.02618 
L 572.824012 63.903174 
L 573.84059 65.449663 
L 574.857169 62.996611 
L 575.873747 64.784598 
L 576.890326 64.047657 
L 577.906905 63.097286 
L 578.923483 65.944007 
L 579.940062 65.289803 
L 580.956641 63.751368 
L 581.973219 63.149637 
L 582.989798 64.074626 
L 584.006376 64.56653 
L 585.022955 64.777276 
L 586.039534 63.236278 
L 587.056112 64.401179 
L 588.072691 64.311121 
L 589.089269 64.043264 
L 590.105848 63.658625 
L 591.122427 63.961138 
L 592.139005 63.497179 
L 593.155584 61.929579 
L 594.172163 64.436324 
L 596.20532 64.330279 
L 597.221898 62.932667 
L 598.238477 64.512227 
L 599.255056 64.301968 
L 600.271634 62.534971 
L 601.288213 63.515118 
L 602.304791 63.419446 
L 603.32137 62.398297 
L 604.337949 63.329754 
L 605.354527 61.380077 
L 606.371106 63.748073 
L 607.387684 64.257427 
L 608.404263 60.407252 
L 609.420842 62.26443 
L 611.453999 62.340577 
L 612.470578 57.327697 
L 613.487156 58.030591 
L 614.503735 60.147571 
L 615.520313 60.621537 
L 616.536892 56.499477 
L 617.553471 57.491705 
L 618.570049 55.8 
L 619.586628 59.161567 
L 620.603206 58.657948 
L 621.619785 59.467985 
L 622.636364 59.457856 
L 622.636364 59.457856 
" clip-path="url(#p587b6d29dc)" style="fill: none; stroke: #ff7f0e; stroke-width: 1.5; stroke-linecap: square"/>
   </g>
   <g id="patch_3">
    <path d="M 90 320.4 
L 90 43.2 
" style="fill: none; stroke: #000000; stroke-width: 0.8; stroke-linejoin: miter; stroke-linecap: square"/>
   </g>
   <g id="patch_4">
    <path d="M 648 320.4 
L 648 43.2 
" style="fill: none; stroke: #000000; stroke-width: 0.8; stroke-linejoin: miter; stroke-linecap: square"/>
   </g>
   <g id="patch_5">
    <path d="M 90 320.4 
L 648 320.4 
" style="fill: none; stroke: #000000; stroke-width: 0.8; stroke-linejoin: miter; stroke-linecap: square"/>
   </g>
   <g id="patch_6">
    <path d="M 90 43.2 
L 648 43.2 
" style="fill: none; stroke: #000000; stroke-width: 0.8; stroke-linejoin: miter; stroke-linecap: square"/>
   </g>
   <g id="text_14">
    <!-- model train and validation loss over time -->
    <g transform="translate(245.555625 37.2) scale(0.12 -0.12)">
     <defs>
      <path id="DejaVuSans-6d" d="M 3328 2828 
Q 3544 3216 3844 3400 
Q 4144 3584 4550 3584 
Q 5097 3584 5394 3201 
Q 5691 2819 5691 2113 
L 5691 0 
L 5113 0 
L 5113 2094 
Q 5113 2597 4934 2840 
Q 4756 3084 4391 3084 
Q 3944 3084 3684 2787 
Q 3425 2491 3425 1978 
L 3425 0 
L 2847 0 
L 2847 2094 
Q 2847 2600 2669 2842 
Q 2491 3084 2119 3084 
Q 1678 3084 1418 2786 
Q 1159 2488 1159 1978 
L 1159 0 
L 581 0 
L 581 3500 
L 1159 3500 
L 1159 2956 
Q 1356 3278 1631 3431 
Q 1906 3584 2284 3584 
Q 2666 3584 2933 3390 
Q 3200 3197 3328 2828 
z
" transform="scale(0.015625)"/>
      <path id="DejaVuSans-64" d="M 2906 2969 
L 2906 4863 
L 3481 4863 
L 3481 0 
L 2906 0 
L 2906 525 
Q 2725 213 2448 61 
Q 2172 -91 1784 -91 
Q 1150 -91 751 415 
Q 353 922 353 1747 
Q 353 2572 751 3078 
Q 1150 3584 1784 3584 
Q 2172 3584 2448 3432 
Q 2725 3281 2906 2969 
z
M 947 1747 
Q 947 1113 1208 752 
Q 1469 391 1925 391 
Q 2381 391 2643 752 
Q 2906 1113 2906 1747 
Q 2906 2381 2643 2742 
Q 2381 3103 1925 3103 
Q 1469 3103 1208 2742 
Q 947 2381 947 1747 
z
" transform="scale(0.015625)"/>
      <path id="DejaVuSans-20" transform="scale(0.015625)"/>
      <path id="DejaVuSans-74" d="M 1172 4494 
L 1172 3500 
L 2356 3500 
L 2356 3053 
L 1172 3053 
L 1172 1153 
Q 1172 725 1289 603 
Q 1406 481 1766 481 
L 2356 481 
L 2356 0 
L 1766 0 
Q 1100 0 847 248 
Q 594 497 594 1153 
L 594 3053 
L 172 3053 
L 172 3500 
L 594 3500 
L 594 4494 
L 1172 4494 
z
" transform="scale(0.015625)"/>
      <path id="DejaVuSans-72" d="M 2631 2963 
Q 2534 3019 2420 3045 
Q 2306 3072 2169 3072 
Q 1681 3072 1420 2755 
Q 1159 2438 1159 1844 
L 1159 0 
L 581 0 
L 581 3500 
L 1159 3500 
L 1159 2956 
Q 1341 3275 1631 3429 
Q 1922 3584 2338 3584 
Q 2397 3584 2469 3576 
Q 2541 3569 2628 3553 
L 2631 2963 
z
" transform="scale(0.015625)"/>
      <path id="DejaVuSans-61" d="M 2194 1759 
Q 1497 1759 1228 1600 
Q 959 1441 959 1056 
Q 959 750 1161 570 
Q 1363 391 1709 391 
Q 2188 391 2477 730 
Q 2766 1069 2766 1631 
L 2766 1759 
L 2194 1759 
z
M 3341 1997 
L 3341 0 
L 2766 0 
L 2766 531 
Q 2569 213 2275 61 
Q 1981 -91 1556 -91 
Q 1019 -91 701 211 
Q 384 513 384 1019 
Q 384 1609 779 1909 
Q 1175 2209 1959 2209 
L 2766 2209 
L 2766 2266 
Q 2766 2663 2505 2880 
Q 2244 3097 1772 3097 
Q 1472 3097 1187 3025 
Q 903 2953 641 2809 
L 641 3341 
Q 956 3463 1253 3523 
Q 1550 3584 1831 3584 
Q 2591 3584 2966 3190 
Q 3341 2797 3341 1997 
z
" transform="scale(0.015625)"/>
      <path id="DejaVuSans-69" d="M 603 3500 
L 1178 3500 
L 1178 0 
L 603 0 
L 603 3500 
z
M 603 4863 
L 1178 4863 
L 1178 4134 
L 603 4134 
L 603 4863 
z
" transform="scale(0.015625)"/>
      <path id="DejaVuSans-6e" d="M 3513 2113 
L 3513 0 
L 2938 0 
L 2938 2094 
Q 2938 2591 2744 2837 
Q 2550 3084 2163 3084 
Q 1697 3084 1428 2787 
Q 1159 2491 1159 1978 
L 1159 0 
L 581 0 
L 581 3500 
L 1159 3500 
L 1159 2956 
Q 1366 3272 1645 3428 
Q 1925 3584 2291 3584 
Q 2894 3584 3203 3211 
Q 3513 2838 3513 2113 
z
" transform="scale(0.015625)"/>
      <path id="DejaVuSans-76" d="M 191 3500 
L 800 3500 
L 1894 563 
L 2988 3500 
L 3597 3500 
L 2284 0 
L 1503 0 
L 191 3500 
z
" transform="scale(0.015625)"/>
     </defs>
     <use xlink:href="#DejaVuSans-6d"/>
     <use xlink:href="#DejaVuSans-6f" x="97.412109"/>
     <use xlink:href="#DejaVuSans-64" x="158.59375"/>
     <use xlink:href="#DejaVuSans-65" x="222.070312"/>
     <use xlink:href="#DejaVuSans-6c" x="283.59375"/>
     <use xlink:href="#DejaVuSans-20" x="311.376953"/>
     <use xlink:href="#DejaVuSans-74" x="343.164062"/>
     <use xlink:href="#DejaVuSans-72" x="382.373047"/>
     <use xlink:href="#DejaVuSans-61" x="423.486328"/>
     <use xlink:href="#DejaVuSans-69" x="484.765625"/>
     <use xlink:href="#DejaVuSans-6e" x="512.548828"/>
     <use xlink:href="#DejaVuSans-20" x="575.927734"/>
     <use xlink:href="#DejaVuSans-61" x="607.714844"/>
     <use xlink:href="#DejaVuSans-6e" x="668.994141"/>
     <use xlink:href="#DejaVuSans-64" x="732.373047"/>
     <use xlink:href="#DejaVuSans-20" x="795.849609"/>
     <use xlink:href="#DejaVuSans-76" x="827.636719"/>
     <use xlink:href="#DejaVuSans-61" x="886.816406"/>
     <use xlink:href="#DejaVuSans-6c" x="948.095703"/>
     <use xlink:href="#DejaVuSans-69" x="975.878906"/>
     <use xlink:href="#DejaVuSans-64" x="1003.662109"/>
     <use xlink:href="#DejaVuSans-61" x="1067.138672"/>
     <use xlink:href="#DejaVuSans-74" x="1128.417969"/>
     <use xlink:href="#DejaVuSans-69" x="1167.626953"/>
     <use xlink:href="#DejaVuSans-6f" x="1195.410156"/>
     <use xlink:href="#DejaVuSans-6e" x="1256.591797"/>
     <use xlink:href="#DejaVuSans-20" x="1319.970703"/>
     <use xlink:href="#DejaVuSans-6c" x="1351.757812"/>
     <use xlink:href="#DejaVuSans-6f" x="1379.541016"/>
     <use xlink:href="#DejaVuSans-73" x="1440.722656"/>
     <use xlink:href="#DejaVuSans-73" x="1492.822266"/>
     <use xlink:href="#DejaVuSans-20" x="1544.921875"/>
     <use xlink:href="#DejaVuSans-6f" x="1576.708984"/>
     <use xlink:href="#DejaVuSans-76" x="1637.890625"/>
     <use xlink:href="#DejaVuSans-65" x="1697.070312"/>
     <use xlink:href="#DejaVuSans-72" x="1758.59375"/>
     <use xlink:href="#DejaVuSans-20" x="1799.707031"/>
     <use xlink:href="#DejaVuSans-74" x="1831.494141"/>
     <use xlink:href="#DejaVuSans-69" x="1870.703125"/>
     <use xlink:href="#DejaVuSans-6d" x="1898.486328"/>
     <use xlink:href="#DejaVuSans-65" x="1995.898438"/>
    </g>
   </g>
   <g id="legend_1">
    <g id="patch_7">
     <path d="M 97 315.4 
L 178.234375 315.4 
Q 180.234375 315.4 180.234375 313.4 
L 180.234375 285.04375 
Q 180.234375 283.04375 178.234375 283.04375 
L 97 283.04375 
Q 95 283.04375 95 285.04375 
L 95 313.4 
Q 95 315.4 97 315.4 
z
" style="fill: #ffffff; opacity: 0.8; stroke: #cccccc; stroke-linejoin: miter"/>
    </g>
    <g id="line2d_25">
     <path d="M 99 291.142187 
L 109 291.142187 
L 119 291.142187 
" style="fill: none; stroke: #1f77b4; stroke-width: 1.5; stroke-linecap: square"/>
    </g>
    <g id="text_15">
     <!-- train -->
     <g transform="translate(127 294.642187) scale(0.1 -0.1)">
      <use xlink:href="#DejaVuSans-74"/>
      <use xlink:href="#DejaVuSans-72" x="39.208984"/>
      <use xlink:href="#DejaVuSans-61" x="80.322266"/>
      <use xlink:href="#DejaVuSans-69" x="141.601562"/>
      <use xlink:href="#DejaVuSans-6e" x="169.384766"/>
     </g>
    </g>
    <g id="line2d_26">
     <path d="M 99 305.820312 
L 109 305.820312 
L 119 305.820312 
" style="fill: none; stroke: #ff7f0e; stroke-width: 1.5; stroke-linecap: square"/>
    </g>
    <g id="text_16">
     <!-- validation -->
     <g transform="translate(127 309.320312) scale(0.1 -0.1)">
      <use xlink:href="#DejaVuSans-76"/>
      <use xlink:href="#DejaVuSans-61" x="59.179688"/>
      <use xlink:href="#DejaVuSans-6c" x="120.458984"/>
      <use xlink:href="#DejaVuSans-69" x="148.242188"/>
      <use xlink:href="#DejaVuSans-64" x="176.025391"/>
      <use xlink:href="#DejaVuSans-61" x="239.501953"/>
      <use xlink:href="#DejaVuSans-74" x="300.78125"/>
      <use xlink:href="#DejaVuSans-69" x="339.990234"/>
      <use xlink:href="#DejaVuSans-6f" x="367.773438"/>
      <use xlink:href="#DejaVuSans-6e" x="428.955078"/>
     </g>
    </g>
   </g>
  </g>
 </g>
 <defs>
  <clipPath id="p587b6d29dc">
   <rect x="90" y="43.2" width="558" height="277.2"/>
  </clipPath>
 </defs>
</svg>
