<?xml version="1.0" encoding="utf-8" standalone="no"?>
<!DOCTYPE svg PUBLIC "-//W3C//DTD SVG 1.1//EN"
  "http://www.w3.org/Graphics/SVG/1.1/DTD/svg11.dtd">
<svg xmlns:xlink="http://www.w3.org/1999/xlink" width="720pt" height="360pt" viewBox="0 0 720 360" xmlns="http://www.w3.org/2000/svg" version="1.1">
 <metadata>
  <rdf:RDF xmlns:dc="http://purl.org/dc/elements/1.1/" xmlns:cc="http://creativecommons.org/ns#" xmlns:rdf="http://www.w3.org/1999/02/22-rdf-syntax-ns#">
   <cc:Work>
    <dc:type rdf:resource="http://purl.org/dc/dcmitype/StillImage"/>
    <dc:date>2023-05-24T12:23:27.680002</dc:date>
    <dc:format>image/svg+xml</dc:format>
    <dc:creator>
     <cc:Agent>
      <dc:title>Matplotlib v3.7.1, https://matplotlib.org/</dc:title>
     </cc:Agent>
    </dc:creator>
   </cc:Work>
  </rdf:RDF>
 </metadata>
 <defs>
  <style type="text/css">*{stroke-linejoin: round; stroke-linecap: butt}</style>
 </defs>
 <g id="figure_1">
  <g id="patch_1">
   <path d="M 0 360 
L 720 360 
L 720 0 
L 0 0 
z
" style="fill: #ffffff"/>
  </g>
  <g id="axes_1">
   <g id="patch_2">
    <path d="M 90 320.4 
L 648 320.4 
L 648 43.2 
L 90 43.2 
z
" style="fill: #ffffff"/>
   </g>
   <g id="matplotlib.axis_1">
    <g id="xtick_1">
     <g id="line2d_1">
      <path d="M 115.363636 320.4 
L 115.363636 43.2 
" clip-path="url(#pecf081ce2f)" style="fill: none; stroke: #b0b0b0; stroke-width: 0.8; stroke-linecap: square"/>
     </g>
     <g id="line2d_2">
      <defs>
       <path id="m33520e7b2d" d="M 0 0 
L 0 3.5 
" style="stroke: #000000; stroke-width: 0.8"/>
      </defs>
      <g>
       <use xlink:href="#m33520e7b2d" x="115.363636" y="320.4" style="stroke: #000000; stroke-width: 0.8"/>
      </g>
     </g>
     <g id="text_1">
      <!-- 0 -->
      <g transform="translate(112.182386 334.998438) scale(0.1 -0.1)">
       <defs>
        <path id="DejaVuSans-30" d="M 2034 4250 
Q 1547 4250 1301 3770 
Q 1056 3291 1056 2328 
Q 1056 1369 1301 889 
Q 1547 409 2034 409 
Q 2525 409 2770 889 
Q 3016 1369 3016 2328 
Q 3016 3291 2770 3770 
Q 2525 4250 2034 4250 
z
M 2034 4750 
Q 2819 4750 3233 4129 
Q 3647 3509 3647 2328 
Q 3647 1150 3233 529 
Q 2819 -91 2034 -91 
Q 1250 -91 836 529 
Q 422 1150 422 2328 
Q 422 3509 836 4129 
Q 1250 4750 2034 4750 
z
" transform="scale(0.015625)"/>
       </defs>
       <use xlink:href="#DejaVuSans-30"/>
      </g>
     </g>
    </g>
    <g id="xtick_2">
     <g id="line2d_3">
      <path d="M 217.021498 320.4 
L 217.021498 43.2 
" clip-path="url(#pecf081ce2f)" style="fill: none; stroke: #b0b0b0; stroke-width: 0.8; stroke-linecap: square"/>
     </g>
     <g id="line2d_4">
      <g>
       <use xlink:href="#m33520e7b2d" x="217.021498" y="320.4" style="stroke: #000000; stroke-width: 0.8"/>
      </g>
     </g>
     <g id="text_2">
      <!-- 100 -->
      <g transform="translate(207.477748 334.998438) scale(0.1 -0.1)">
       <defs>
        <path id="DejaVuSans-31" d="M 794 531 
L 1825 531 
L 1825 4091 
L 703 3866 
L 703 4441 
L 1819 4666 
L 2450 4666 
L 2450 531 
L 3481 531 
L 3481 0 
L 794 0 
L 794 531 
z
" transform="scale(0.015625)"/>
       </defs>
       <use xlink:href="#DejaVuSans-31"/>
       <use xlink:href="#DejaVuSans-30" x="63.623047"/>
       <use xlink:href="#DejaVuSans-30" x="127.246094"/>
      </g>
     </g>
    </g>
    <g id="xtick_3">
     <g id="line2d_5">
      <path d="M 318.679359 320.4 
L 318.679359 43.2 
" clip-path="url(#pecf081ce2f)" style="fill: none; stroke: #b0b0b0; stroke-width: 0.8; stroke-linecap: square"/>
     </g>
     <g id="line2d_6">
      <g>
       <use xlink:href="#m33520e7b2d" x="318.679359" y="320.4" style="stroke: #000000; stroke-width: 0.8"/>
      </g>
     </g>
     <g id="text_3">
      <!-- 200 -->
      <g transform="translate(309.135609 334.998438) scale(0.1 -0.1)">
       <defs>
        <path id="DejaVuSans-32" d="M 1228 531 
L 3431 531 
L 3431 0 
L 469 0 
L 469 531 
Q 828 903 1448 1529 
Q 2069 2156 2228 2338 
Q 2531 2678 2651 2914 
Q 2772 3150 2772 3378 
Q 2772 3750 2511 3984 
Q 2250 4219 1831 4219 
Q 1534 4219 1204 4116 
Q 875 4013 500 3803 
L 500 4441 
Q 881 4594 1212 4672 
Q 1544 4750 1819 4750 
Q 2544 4750 2975 4387 
Q 3406 4025 3406 3419 
Q 3406 3131 3298 2873 
Q 3191 2616 2906 2266 
Q 2828 2175 2409 1742 
Q 1991 1309 1228 531 
z
" transform="scale(0.015625)"/>
       </defs>
       <use xlink:href="#DejaVuSans-32"/>
       <use xlink:href="#DejaVuSans-30" x="63.623047"/>
       <use xlink:href="#DejaVuSans-30" x="127.246094"/>
      </g>
     </g>
    </g>
    <g id="xtick_4">
     <g id="line2d_7">
      <path d="M 420.33722 320.4 
L 420.33722 43.2 
" clip-path="url(#pecf081ce2f)" style="fill: none; stroke: #b0b0b0; stroke-width: 0.8; stroke-linecap: square"/>
     </g>
     <g id="line2d_8">
      <g>
       <use xlink:href="#m33520e7b2d" x="420.33722" y="320.4" style="stroke: #000000; stroke-width: 0.8"/>
      </g>
     </g>
     <g id="text_4">
      <!-- 300 -->
      <g transform="translate(410.79347 334.998438) scale(0.1 -0.1)">
       <defs>
        <path id="DejaVuSans-33" d="M 2597 2516 
Q 3050 2419 3304 2112 
Q 3559 1806 3559 1356 
Q 3559 666 3084 287 
Q 2609 -91 1734 -91 
Q 1441 -91 1130 -33 
Q 819 25 488 141 
L 488 750 
Q 750 597 1062 519 
Q 1375 441 1716 441 
Q 2309 441 2620 675 
Q 2931 909 2931 1356 
Q 2931 1769 2642 2001 
Q 2353 2234 1838 2234 
L 1294 2234 
L 1294 2753 
L 1863 2753 
Q 2328 2753 2575 2939 
Q 2822 3125 2822 3475 
Q 2822 3834 2567 4026 
Q 2313 4219 1838 4219 
Q 1578 4219 1281 4162 
Q 984 4106 628 3988 
L 628 4550 
Q 988 4650 1302 4700 
Q 1616 4750 1894 4750 
Q 2613 4750 3031 4423 
Q 3450 4097 3450 3541 
Q 3450 3153 3228 2886 
Q 3006 2619 2597 2516 
z
" transform="scale(0.015625)"/>
       </defs>
       <use xlink:href="#DejaVuSans-33"/>
       <use xlink:href="#DejaVuSans-30" x="63.623047"/>
       <use xlink:href="#DejaVuSans-30" x="127.246094"/>
      </g>
     </g>
    </g>
    <g id="xtick_5">
     <g id="line2d_9">
      <path d="M 521.995081 320.4 
L 521.995081 43.2 
" clip-path="url(#pecf081ce2f)" style="fill: none; stroke: #b0b0b0; stroke-width: 0.8; stroke-linecap: square"/>
     </g>
     <g id="line2d_10">
      <g>
       <use xlink:href="#m33520e7b2d" x="521.995081" y="320.4" style="stroke: #000000; stroke-width: 0.8"/>
      </g>
     </g>
     <g id="text_5">
      <!-- 400 -->
      <g transform="translate(512.451331 334.998438) scale(0.1 -0.1)">
       <defs>
        <path id="DejaVuSans-34" d="M 2419 4116 
L 825 1625 
L 2419 1625 
L 2419 4116 
z
M 2253 4666 
L 3047 4666 
L 3047 1625 
L 3713 1625 
L 3713 1100 
L 3047 1100 
L 3047 0 
L 2419 0 
L 2419 1100 
L 313 1100 
L 313 1709 
L 2253 4666 
z
" transform="scale(0.015625)"/>
       </defs>
       <use xlink:href="#DejaVuSans-34"/>
       <use xlink:href="#DejaVuSans-30" x="63.623047"/>
       <use xlink:href="#DejaVuSans-30" x="127.246094"/>
      </g>
     </g>
    </g>
    <g id="xtick_6">
     <g id="line2d_11">
      <path d="M 623.652942 320.4 
L 623.652942 43.2 
" clip-path="url(#pecf081ce2f)" style="fill: none; stroke: #b0b0b0; stroke-width: 0.8; stroke-linecap: square"/>
     </g>
     <g id="line2d_12">
      <g>
       <use xlink:href="#m33520e7b2d" x="623.652942" y="320.4" style="stroke: #000000; stroke-width: 0.8"/>
      </g>
     </g>
     <g id="text_6">
      <!-- 500 -->
      <g transform="translate(614.109192 334.998438) scale(0.1 -0.1)">
       <defs>
        <path id="DejaVuSans-35" d="M 691 4666 
L 3169 4666 
L 3169 4134 
L 1269 4134 
L 1269 2991 
Q 1406 3038 1543 3061 
Q 1681 3084 1819 3084 
Q 2600 3084 3056 2656 
Q 3513 2228 3513 1497 
Q 3513 744 3044 326 
Q 2575 -91 1722 -91 
Q 1428 -91 1123 -41 
Q 819 9 494 109 
L 494 744 
Q 775 591 1075 516 
Q 1375 441 1709 441 
Q 2250 441 2565 725 
Q 2881 1009 2881 1497 
Q 2881 1984 2565 2268 
Q 2250 2553 1709 2553 
Q 1456 2553 1204 2497 
Q 953 2441 691 2322 
L 691 4666 
z
" transform="scale(0.015625)"/>
       </defs>
       <use xlink:href="#DejaVuSans-35"/>
       <use xlink:href="#DejaVuSans-30" x="63.623047"/>
       <use xlink:href="#DejaVuSans-30" x="127.246094"/>
      </g>
     </g>
    </g>
    <g id="text_7">
     <!-- epoch -->
     <g transform="translate(353.771875 348.676562) scale(0.1 -0.1)">
      <defs>
       <path id="DejaVuSans-65" d="M 3597 1894 
L 3597 1613 
L 953 1613 
Q 991 1019 1311 708 
Q 1631 397 2203 397 
Q 2534 397 2845 478 
Q 3156 559 3463 722 
L 3463 178 
Q 3153 47 2828 -22 
Q 2503 -91 2169 -91 
Q 1331 -91 842 396 
Q 353 884 353 1716 
Q 353 2575 817 3079 
Q 1281 3584 2069 3584 
Q 2775 3584 3186 3129 
Q 3597 2675 3597 1894 
z
M 3022 2063 
Q 3016 2534 2758 2815 
Q 2500 3097 2075 3097 
Q 1594 3097 1305 2825 
Q 1016 2553 972 2059 
L 3022 2063 
z
" transform="scale(0.015625)"/>
       <path id="DejaVuSans-70" d="M 1159 525 
L 1159 -1331 
L 581 -1331 
L 581 3500 
L 1159 3500 
L 1159 2969 
Q 1341 3281 1617 3432 
Q 1894 3584 2278 3584 
Q 2916 3584 3314 3078 
Q 3713 2572 3713 1747 
Q 3713 922 3314 415 
Q 2916 -91 2278 -91 
Q 1894 -91 1617 61 
Q 1341 213 1159 525 
z
M 3116 1747 
Q 3116 2381 2855 2742 
Q 2594 3103 2138 3103 
Q 1681 3103 1420 2742 
Q 1159 2381 1159 1747 
Q 1159 1113 1420 752 
Q 1681 391 2138 391 
Q 2594 391 2855 752 
Q 3116 1113 3116 1747 
z
" transform="scale(0.015625)"/>
       <path id="DejaVuSans-6f" d="M 1959 3097 
Q 1497 3097 1228 2736 
Q 959 2375 959 1747 
Q 959 1119 1226 758 
Q 1494 397 1959 397 
Q 2419 397 2687 759 
Q 2956 1122 2956 1747 
Q 2956 2369 2687 2733 
Q 2419 3097 1959 3097 
z
M 1959 3584 
Q 2709 3584 3137 3096 
Q 3566 2609 3566 1747 
Q 3566 888 3137 398 
Q 2709 -91 1959 -91 
Q 1206 -91 779 398 
Q 353 888 353 1747 
Q 353 2609 779 3096 
Q 1206 3584 1959 3584 
z
" transform="scale(0.015625)"/>
       <path id="DejaVuSans-63" d="M 3122 3366 
L 3122 2828 
Q 2878 2963 2633 3030 
Q 2388 3097 2138 3097 
Q 1578 3097 1268 2742 
Q 959 2388 959 1747 
Q 959 1106 1268 751 
Q 1578 397 2138 397 
Q 2388 397 2633 464 
Q 2878 531 3122 666 
L 3122 134 
Q 2881 22 2623 -34 
Q 2366 -91 2075 -91 
Q 1284 -91 818 406 
Q 353 903 353 1747 
Q 353 2603 823 3093 
Q 1294 3584 2113 3584 
Q 2378 3584 2631 3529 
Q 2884 3475 3122 3366 
z
" transform="scale(0.015625)"/>
       <path id="DejaVuSans-68" d="M 3513 2113 
L 3513 0 
L 2938 0 
L 2938 2094 
Q 2938 2591 2744 2837 
Q 2550 3084 2163 3084 
Q 1697 3084 1428 2787 
Q 1159 2491 1159 1978 
L 1159 0 
L 581 0 
L 581 4863 
L 1159 4863 
L 1159 2956 
Q 1366 3272 1645 3428 
Q 1925 3584 2291 3584 
Q 2894 3584 3203 3211 
Q 3513 2838 3513 2113 
z
" transform="scale(0.015625)"/>
      </defs>
      <use xlink:href="#DejaVuSans-65"/>
      <use xlink:href="#DejaVuSans-70" x="61.523438"/>
      <use xlink:href="#DejaVuSans-6f" x="125"/>
      <use xlink:href="#DejaVuSans-63" x="186.181641"/>
      <use xlink:href="#DejaVuSans-68" x="241.162109"/>
     </g>
    </g>
   </g>
   <g id="matplotlib.axis_2">
    <g id="ytick_1">
     <g id="line2d_13">
      <path d="M 90 273.629477 
L 648 273.629477 
" clip-path="url(#pecf081ce2f)" style="fill: none; stroke: #b0b0b0; stroke-width: 0.8; stroke-linecap: square"/>
     </g>
     <g id="line2d_14">
      <defs>
       <path id="m755d2fe102" d="M 0 0 
L -3.5 0 
" style="stroke: #000000; stroke-width: 0.8"/>
      </defs>
      <g>
       <use xlink:href="#m755d2fe102" x="90" y="273.629477" style="stroke: #000000; stroke-width: 0.8"/>
      </g>
     </g>
     <g id="text_8">
      <!-- 0.40 -->
      <g transform="translate(60.734375 277.428695) scale(0.1 -0.1)">
       <defs>
        <path id="DejaVuSans-2e" d="M 684 794 
L 1344 794 
L 1344 0 
L 684 0 
L 684 794 
z
" transform="scale(0.015625)"/>
       </defs>
       <use xlink:href="#DejaVuSans-30"/>
       <use xlink:href="#DejaVuSans-2e" x="63.623047"/>
       <use xlink:href="#DejaVuSans-34" x="95.410156"/>
       <use xlink:href="#DejaVuSans-30" x="159.033203"/>
      </g>
     </g>
    </g>
    <g id="ytick_2">
     <g id="line2d_15">
      <path d="M 90 214.605658 
L 648 214.605658 
" clip-path="url(#pecf081ce2f)" style="fill: none; stroke: #b0b0b0; stroke-width: 0.8; stroke-linecap: square"/>
     </g>
     <g id="line2d_16">
      <g>
       <use xlink:href="#m755d2fe102" x="90" y="214.605658" style="stroke: #000000; stroke-width: 0.8"/>
      </g>
     </g>
     <g id="text_9">
      <!-- 0.42 -->
      <g transform="translate(60.734375 218.404877) scale(0.1 -0.1)">
       <use xlink:href="#DejaVuSans-30"/>
       <use xlink:href="#DejaVuSans-2e" x="63.623047"/>
       <use xlink:href="#DejaVuSans-34" x="95.410156"/>
       <use xlink:href="#DejaVuSans-32" x="159.033203"/>
      </g>
     </g>
    </g>
    <g id="ytick_3">
     <g id="line2d_17">
      <path d="M 90 155.581839 
L 648 155.581839 
" clip-path="url(#pecf081ce2f)" style="fill: none; stroke: #b0b0b0; stroke-width: 0.8; stroke-linecap: square"/>
     </g>
     <g id="line2d_18">
      <g>
       <use xlink:href="#m755d2fe102" x="90" y="155.581839" style="stroke: #000000; stroke-width: 0.8"/>
      </g>
     </g>
     <g id="text_10">
      <!-- 0.44 -->
      <g transform="translate(60.734375 159.381058) scale(0.1 -0.1)">
       <use xlink:href="#DejaVuSans-30"/>
       <use xlink:href="#DejaVuSans-2e" x="63.623047"/>
       <use xlink:href="#DejaVuSans-34" x="95.410156"/>
       <use xlink:href="#DejaVuSans-34" x="159.033203"/>
      </g>
     </g>
    </g>
    <g id="ytick_4">
     <g id="line2d_19">
      <path d="M 90 96.55802 
L 648 96.55802 
" clip-path="url(#pecf081ce2f)" style="fill: none; stroke: #b0b0b0; stroke-width: 0.8; stroke-linecap: square"/>
     </g>
     <g id="line2d_20">
      <g>
       <use xlink:href="#m755d2fe102" x="90" y="96.55802" style="stroke: #000000; stroke-width: 0.8"/>
      </g>
     </g>
     <g id="text_11">
      <!-- 0.46 -->
      <g transform="translate(60.734375 100.357239) scale(0.1 -0.1)">
       <defs>
        <path id="DejaVuSans-36" d="M 2113 2584 
Q 1688 2584 1439 2293 
Q 1191 2003 1191 1497 
Q 1191 994 1439 701 
Q 1688 409 2113 409 
Q 2538 409 2786 701 
Q 3034 994 3034 1497 
Q 3034 2003 2786 2293 
Q 2538 2584 2113 2584 
z
M 3366 4563 
L 3366 3988 
Q 3128 4100 2886 4159 
Q 2644 4219 2406 4219 
Q 1781 4219 1451 3797 
Q 1122 3375 1075 2522 
Q 1259 2794 1537 2939 
Q 1816 3084 2150 3084 
Q 2853 3084 3261 2657 
Q 3669 2231 3669 1497 
Q 3669 778 3244 343 
Q 2819 -91 2113 -91 
Q 1303 -91 875 529 
Q 447 1150 447 2328 
Q 447 3434 972 4092 
Q 1497 4750 2381 4750 
Q 2619 4750 2861 4703 
Q 3103 4656 3366 4563 
z
" transform="scale(0.015625)"/>
       </defs>
       <use xlink:href="#DejaVuSans-30"/>
       <use xlink:href="#DejaVuSans-2e" x="63.623047"/>
       <use xlink:href="#DejaVuSans-34" x="95.410156"/>
       <use xlink:href="#DejaVuSans-36" x="159.033203"/>
      </g>
     </g>
    </g>
    <g id="text_12">
     <!-- accruacy -->
     <g transform="translate(54.654687 204.359375) rotate(-90) scale(0.1 -0.1)">
      <defs>
       <path id="DejaVuSans-61" d="M 2194 1759 
Q 1497 1759 1228 1600 
Q 959 1441 959 1056 
Q 959 750 1161 570 
Q 1363 391 1709 391 
Q 2188 391 2477 730 
Q 2766 1069 2766 1631 
L 2766 1759 
L 2194 1759 
z
M 3341 1997 
L 3341 0 
L 2766 0 
L 2766 531 
Q 2569 213 2275 61 
Q 1981 -91 1556 -91 
Q 1019 -91 701 211 
Q 384 513 384 1019 
Q 384 1609 779 1909 
Q 1175 2209 1959 2209 
L 2766 2209 
L 2766 2266 
Q 2766 2663 2505 2880 
Q 2244 3097 1772 3097 
Q 1472 3097 1187 3025 
Q 903 2953 641 2809 
L 641 3341 
Q 956 3463 1253 3523 
Q 1550 3584 1831 3584 
Q 2591 3584 2966 3190 
Q 3341 2797 3341 1997 
z
" transform="scale(0.015625)"/>
       <path id="DejaVuSans-72" d="M 2631 2963 
Q 2534 3019 2420 3045 
Q 2306 3072 2169 3072 
Q 1681 3072 1420 2755 
Q 1159 2438 1159 1844 
L 1159 0 
L 581 0 
L 581 3500 
L 1159 3500 
L 1159 2956 
Q 1341 3275 1631 3429 
Q 1922 3584 2338 3584 
Q 2397 3584 2469 3576 
Q 2541 3569 2628 3553 
L 2631 2963 
z
" transform="scale(0.015625)"/>
       <path id="DejaVuSans-75" d="M 544 1381 
L 544 3500 
L 1119 3500 
L 1119 1403 
Q 1119 906 1312 657 
Q 1506 409 1894 409 
Q 2359 409 2629 706 
Q 2900 1003 2900 1516 
L 2900 3500 
L 3475 3500 
L 3475 0 
L 2900 0 
L 2900 538 
Q 2691 219 2414 64 
Q 2138 -91 1772 -91 
Q 1169 -91 856 284 
Q 544 659 544 1381 
z
M 1991 3584 
L 1991 3584 
z
" transform="scale(0.015625)"/>
       <path id="DejaVuSans-79" d="M 2059 -325 
Q 1816 -950 1584 -1140 
Q 1353 -1331 966 -1331 
L 506 -1331 
L 506 -850 
L 844 -850 
Q 1081 -850 1212 -737 
Q 1344 -625 1503 -206 
L 1606 56 
L 191 3500 
L 800 3500 
L 1894 763 
L 2988 3500 
L 3597 3500 
L 2059 -325 
z
" transform="scale(0.015625)"/>
      </defs>
      <use xlink:href="#DejaVuSans-61"/>
      <use xlink:href="#DejaVuSans-63" x="61.279297"/>
      <use xlink:href="#DejaVuSans-63" x="116.259766"/>
      <use xlink:href="#DejaVuSans-72" x="171.240234"/>
      <use xlink:href="#DejaVuSans-75" x="212.353516"/>
      <use xlink:href="#DejaVuSans-61" x="275.732422"/>
      <use xlink:href="#DejaVuSans-63" x="337.011719"/>
      <use xlink:href="#DejaVuSans-79" x="391.992188"/>
     </g>
    </g>
   </g>
   <g id="line2d_21">
    <path d="M 115.363636 122.261452 
L 116.380215 119.274415 
L 117.396794 130.335829 
L 118.413372 118.714334 
L 119.429951 102.565756 
L 120.446529 124.128417 
L 121.463108 113.067002 
L 122.479687 107.092927 
L 123.496265 106.532847 
L 124.512844 112.833577 
L 125.529422 117.921004 
L 126.546001 106.532847 
L 127.56258 106.859502 
L 128.579158 102.332331 
L 129.595737 115.820702 
L 130.612316 111.060018 
L 131.628894 94.584785 
L 132.645473 94.91144 
L 133.662051 104.852605 
L 134.67863 91.037667 
L 135.695209 107.839731 
L 136.711787 97.991795 
L 137.728366 95.891493 
L 138.744944 103.965782 
L 139.761523 97.665052 
L 140.778102 92.5778 
L 141.79468 97.104971 
L 142.811259 93.791279 
L 143.827837 102.192311 
L 144.844416 85.71699 
L 145.860995 90.804241 
L 146.877573 102.192311 
L 147.894152 93.557853 
L 148.910731 104.292613 
L 149.927309 91.457639 
L 150.943888 84.270086 
L 151.960466 77.969356 
L 152.977045 77.08262 
L 153.993624 95.658155 
L 155.010202 95.658155 
L 156.026781 96.871634 
L 157.043359 89.68408 
L 158.059938 100.185414 
L 159.076517 83.710005 
L 160.093095 97.52512 
L 161.109674 78.296099 
L 162.126253 85.810307 
L 163.142831 85.483564 
L 164.15941 87.910521 
L 165.175988 88.237264 
L 166.192567 93.884596 
L 167.209146 88.237264 
L 168.225724 87.350441 
L 169.242303 85.810307 
L 170.258881 80.723056 
L 171.27546 80.723056 
L 172.292039 81.936534 
L 173.308617 84.923484 
L 174.325196 93.651347 
L 175.341774 83.149925 
L 176.358353 88.563919 
L 177.374932 91.224302 
L 178.39151 92.437692 
L 179.408089 85.810307 
L 180.424668 83.710005 
L 181.441246 87.350441 
L 182.457825 91.550957 
L 183.474403 90.664221 
L 184.490982 84.036748 
L 185.507561 87.677184 
L 186.524139 78.949497 
L 187.540718 92.764523 
L 188.557296 81.376454 
L 189.573875 97.851775 
L 190.590454 90.337478 
L 191.607032 84.690146 
L 192.623611 81.376454 
L 193.640189 76.52254 
L 194.656768 75.075636 
L 195.673347 85.576882 
L 196.689925 84.363403 
L 197.706504 85.250227 
L 198.723083 77.175938 
L 200.75624 87.023786 
L 201.772818 95.424906 
L 202.789397 88.563919 
L 203.805976 92.764523 
L 204.822554 85.576882 
L 205.839133 81.049711 
L 206.855711 84.036748 
L 207.87229 91.877788 
L 208.888869 91.224302 
L 209.905447 92.997773 
L 210.922026 88.237264 
L 211.938604 84.363403 
L 212.955183 74.748981 
L 213.971762 83.803323 
L 214.98834 88.003839 
L 216.004919 85.903625 
L 217.021498 88.890662 
L 218.038076 80.48963 
L 219.054655 88.890662 
L 220.071233 79.276152 
L 221.087812 87.677184 
L 222.104391 97.665052 
L 223.120969 88.563919 
L 224.137548 72.975422 
L 225.154126 82.916587 
L 226.170705 78.716071 
L 227.187284 84.690146 
L 228.203862 82.589844 
L 230.237019 76.289114 
L 231.253598 80.816373 
L 232.270177 90.430884 
L 233.286755 85.016801 
L 234.303334 81.703109 
L 235.319913 79.92955 
L 236.336491 84.456721 
L 237.35307 77.829336 
L 238.369648 81.143028 
L 239.386227 79.042814 
L 240.402806 79.602895 
L 241.419384 72.415341 
L 242.435963 92.531186 
L 243.452541 82.916587 
L 244.46912 69.428304 
L 245.485699 68.214825 
L 246.502277 91.644362 
L 247.518856 92.204443 
L 248.535435 83.243242 
L 249.552013 76.942512 
L 250.568592 85.343544 
L 251.58517 77.829336 
L 252.601749 79.92955 
L 253.618328 87.117103 
L 254.634906 79.602895 
L 255.651485 81.143028 
L 256.668063 92.531186 
L 257.684642 82.029764 
L 258.701221 74.1889 
L 259.717799 83.803323 
L 260.734378 74.842298 
L 261.750956 73.302077 
L 262.767535 79.92955 
L 263.784114 74.842298 
L 264.800692 86.79036 
L 265.817271 72.741996 
L 266.83385 81.143028 
L 268.867007 76.942512 
L 269.883585 78.389416 
L 270.900164 88.33067 
L 271.916743 94.958055 
L 272.933321 72.181916 
L 273.9499 88.657325 
L 274.966478 77.269255 
L 275.983057 74.842298 
L 276.999636 82.029764 
L 278.016214 85.343544 
L 279.032793 86.557111 
L 280.049371 66.441266 
L 281.06595 80.256293 
L 282.082529 85.343544 
L 283.099107 83.569985 
L 284.115686 81.143028 
L 285.132265 92.531186 
L 286.148843 71.855261 
L 287.165422 73.068739 
L 288.182 82.356507 
L 289.198579 65.554531 
L 290.215158 86.557111 
L 291.231736 72.741996 
L 292.248315 80.256293 
L 293.264893 81.143028 
L 294.281472 70.641782 
L 295.298051 86.557111 
L 296.314629 86.557111 
L 297.331208 79.92955 
L 298.347786 81.469683 
L 299.364365 71.855261 
L 300.380944 81.469683 
L 301.397522 88.657325 
L 302.414101 69.755047 
L 304.447258 86.557111 
L 305.463837 83.243242 
L 306.480415 73.62882 
L 307.496994 69.755047 
L 308.513573 77.269255 
L 309.530151 68.868223 
L 310.54673 71.855261 
L 311.563308 90.757627 
L 312.579887 67.654745 
L 313.596466 64.340964 
L 314.613044 79.369469 
L 315.629623 77.269255 
L 316.646201 90.757627 
L 317.66278 76.055777 
L 318.679359 79.042814 
L 319.695937 87.770589 
L 320.712516 73.068739 
L 321.729095 80.256293 
L 322.745673 77.269255 
L 323.762252 82.356507 
L 324.77883 71.855261 
L 325.795409 70.968525 
L 326.811988 83.569985 
L 327.828566 91.644362 
L 328.845145 78.155991 
L 329.861723 90.757627 
L 330.878302 78.155991 
L 331.894881 84.456721 
L 332.911459 82.916587 
L 333.928038 74.515555 
L 334.944617 76.055777 
L 335.961195 64.667707 
L 336.977774 73.62882 
L 337.994352 71.855261 
L 339.010931 69.755047 
L 340.02751 77.269255 
L 341.044088 72.741996 
L 342.060667 67.654745 
L 343.077245 82.356507 
L 344.093824 70.968525 
L 345.110403 87.770589 
L 346.126981 78.155991 
L 347.14356 66.441266 
L 348.160138 88.657325 
L 349.176717 77.269255 
L 350.193296 83.243242 
L 351.209874 80.582948 
L 352.226453 67.654745 
L 353.243032 84.456721 
L 354.25961 78.155991 
L 355.276189 78.482734 
L 356.292767 74.608873 
L 357.309346 78.482734 
L 358.325925 77.59591 
L 359.342503 78.155991 
L 360.359082 82.683162 
L 361.37566 84.783552 
L 362.392239 72.181916 
L 363.408818 67.094664 
L 364.425396 73.068739 
L 365.441975 66.768009 
L 366.458553 68.868223 
L 367.475132 87.443846 
L 368.491711 79.696212 
L 369.508289 81.796426 
L 371.541447 73.395394 
L 372.558025 80.256293 
L 373.574604 73.068739 
L 374.591182 76.055777 
L 375.607761 72.741996 
L 376.62434 78.155991 
L 377.640918 85.670287 
L 378.657497 76.942512 
L 379.674075 82.683162 
L 380.690654 75.168953 
L 381.707233 81.143028 
L 382.723811 78.482734 
L 383.74039 81.796426 
L 384.756968 69.755047 
L 385.773547 86.883766 
L 386.790126 75.168953 
L 387.806704 67.981488 
L 388.823283 80.256293 
L 389.839862 81.469683 
L 390.85644 73.068739 
L 391.873019 73.068739 
L 392.889597 79.369469 
L 393.906176 72.181916 
L 394.922755 71.855261 
L 395.939333 73.955475 
L 396.955912 78.482734 
L 397.97249 70.408445 
L 398.989069 71.855261 
L 400.005648 77.269255 
L 401.022226 74.282218 
L 402.038805 73.068739 
L 403.055383 91.971105 
L 404.071962 88.33067 
L 405.088541 82.029764 
L 406.105119 71.621835 
L 407.121698 74.515555 
L 408.138277 68.868223 
L 409.154855 77.59591 
L 410.171434 78.155991 
L 411.188012 69.194966 
L 412.204591 83.569985 
L 413.22117 76.942512 
L 414.237748 88.097244 
L 415.254327 77.269255 
L 416.270905 77.59591 
L 417.287484 74.282218 
L 418.304063 81.796426 
L 419.320641 79.696212 
L 420.33722 73.068739 
L 421.353799 80.582948 
L 422.370377 84.783552 
L 423.386956 72.181916 
L 424.403534 62.567405 
L 425.420113 85.670287 
L 426.436692 65.554531 
L 427.45327 78.155991 
L 428.469849 79.369469 
L 429.486427 82.356507 
L 430.503006 73.955475 
L 431.519585 75.168953 
L 432.536163 88.097244 
L 433.552742 80.256293 
L 434.56932 81.469683 
L 435.585899 76.382432 
L 436.602478 70.641782 
L 437.619056 63.780972 
L 438.635635 76.055777 
L 439.652214 80.256293 
L 440.668792 91.084282 
L 442.701949 72.741996 
L 443.718528 83.569985 
L 444.735107 74.842298 
L 445.751685 77.829336 
L 446.768264 72.181916 
L 447.784842 91.971105 
L 448.801421 78.482734 
L 449.818 87.770589 
L 450.834578 66.768009 
L 451.851157 72.508659 
L 452.867735 85.343544 
L 453.884314 82.683162 
L 454.900893 82.683162 
L 456.93405 76.382432 
L 457.950629 67.981488 
L 458.967207 70.081702 
L 459.983786 77.269255 
L 461.000364 81.796426 
L 462.016943 70.081702 
L 463.033522 79.696212 
L 464.0501 86.557111 
L 465.066679 83.569985 
L 466.083257 73.722137 
L 467.099836 79.042814 
L 468.116415 74.282218 
L 469.132993 77.269255 
L 470.149572 89.870803 
L 471.16615 71.855261 
L 474.215886 85.670287 
L 475.232465 76.382432 
L 476.249044 82.356507 
L 477.265622 80.582948 
L 479.298779 75.168953 
L 480.315358 77.269255 
L 481.331937 72.181916 
L 482.348515 94.397974 
L 483.365094 77.269255 
L 484.381672 72.181916 
L 485.398251 80.582948 
L 486.41483 77.59591 
L 487.431408 85.670287 
L 488.447987 79.696212 
L 489.464565 91.411024 
L 490.481144 82.683162 
L 491.497723 81.796426 
L 492.514301 73.068739 
L 493.53088 71.29518 
L 494.547459 72.508659 
L 495.564037 67.981488 
L 496.580616 75.168953 
L 497.597194 79.369469 
L 498.613773 81.796426 
L 499.630352 60.793846 
L 500.64693 85.670287 
L 501.663509 79.696212 
L 502.680087 78.809389 
L 503.696666 84.783552 
L 504.713245 80.909603 
L 505.729823 64.99445 
L 506.746402 75.495696 
L 507.762981 74.282218 
L 508.779559 72.181916 
L 509.796138 79.696212 
L 510.812716 76.709175 
L 511.829295 79.92955 
L 512.845874 72.181916 
L 513.862452 75.168953 
L 514.879031 81.469683 
L 515.895609 76.055777 
L 517.928767 87.443846 
L 518.945345 81.143028 
L 519.961924 87.443846 
L 520.978502 74.842298 
L 521.995081 83.569985 
L 523.01166 79.696212 
L 524.028238 74.282218 
L 525.044817 70.641782 
L 526.061396 80.256293 
L 527.077974 88.097244 
L 528.094553 83.009993 
L 529.111131 71.29518 
L 530.12771 80.582948 
L 531.144289 79.696212 
L 532.160867 63.220891 
L 533.177446 77.269255 
L 534.194024 66.207929 
L 535.210603 79.369469 
L 536.227182 73.722137 
L 537.24376 82.123257 
L 538.260339 79.696212 
L 540.293496 65.881186 
L 541.310075 78.809389 
L 542.326653 62.894148 
L 543.343232 77.922653 
L 544.359811 72.508659 
L 546.392968 83.009993 
L 547.409546 77.922653 
L 548.426125 80.022867 
L 549.442704 80.256293 
L 550.459282 67.094664 
L 551.475861 64.667707 
L 552.492439 62.894148 
L 553.509018 76.709175 
L 554.525597 68.308143 
L 555.542175 62.660811 
L 556.558754 83.336735 
L 557.575332 70.7351 
L 558.591911 70.408445 
L 559.60849 73.722137 
L 560.625068 80.582948 
L 561.641647 76.382432 
L 562.658226 76.709175 
L 563.674804 76.709175 
L 564.691383 84.223471 
L 565.707961 78.809389 
L 566.72454 87.443846 
L 568.757697 71.621835 
L 569.774276 68.308143 
L 570.790854 77.59591 
L 571.807433 69.521621 
L 572.824012 77.922653 
L 573.84059 82.123257 
L 574.857169 87.537163 
L 575.873747 77.362573 
L 576.890326 81.889831 
L 577.906905 68.961541 
L 578.923483 77.03583 
L 579.940062 77.922653 
L 580.956641 77.03583 
L 581.973219 68.074805 
L 582.989798 73.162057 
L 584.006376 65.647848 
L 585.022955 65.647848 
L 586.039534 66.534584 
L 587.056112 71.948578 
L 588.072691 63.874289 
L 589.089269 69.194966 
L 590.105848 73.722137 
L 591.122427 74.608873 
L 592.139005 69.521621 
L 593.155584 65.647848 
L 594.172163 76.475749 
L 595.188741 65.974503 
L 596.20532 69.521621 
L 597.221898 79.462874 
L 598.238477 65.087768 
L 599.255056 73.162057 
L 600.271634 74.375535 
L 601.288213 67.514724 
L 602.304791 75.262271 
L 603.32137 62.987466 
L 604.337949 64.761025 
L 605.354527 73.162057 
L 606.371106 74.935616 
L 607.387684 62.987466 
L 608.404263 55.8 
L 609.420842 80.676353 
L 610.43742 77.922653 
L 611.453999 66.861327 
L 612.470578 85.436949 
L 613.487156 92.064422 
L 614.503735 65.087768 
L 615.520313 84.550126 
L 616.536892 73.162057 
L 617.553471 78.576139 
L 618.570049 87.537163 
L 619.586628 69.848364 
L 620.603206 76.475749 
L 621.619785 80.909603 
L 622.636364 81.563176 
L 622.636364 81.563176 
" clip-path="url(#pecf081ce2f)" style="fill: none; stroke: #1f77b4; stroke-width: 1.5; stroke-linecap: square"/>
   </g>
   <g id="line2d_22">
    <path d="M 115.363636 292.429185 
L 116.380215 292.429185 
L 117.396794 284.743821 
L 120.446529 284.743821 
L 121.463108 277.058369 
L 134.67863 277.058369 
L 135.695209 284.743821 
L 136.711787 277.058369 
L 137.728366 284.743821 
L 138.744944 277.058369 
L 139.761523 277.058369 
L 140.778102 267.599446 
L 142.811259 267.599446 
L 143.827837 275.28481 
L 144.844416 290.655626 
L 145.860995 275.28481 
L 146.877573 290.655626 
L 147.894152 275.28481 
L 148.910731 282.970174 
L 149.927309 275.28481 
L 152.977045 275.28481 
L 153.993624 267.599446 
L 155.010202 275.28481 
L 156.026781 290.655626 
L 157.043359 275.28481 
L 158.059938 290.655626 
L 160.093095 275.28481 
L 161.109674 282.970174 
L 162.126253 282.970174 
L 163.142831 275.28481 
L 164.15941 282.970174 
L 165.175988 275.28481 
L 166.192567 282.970174 
L 167.209146 275.28481 
L 168.225724 275.28481 
L 169.242303 282.970174 
L 171.27546 282.970174 
L 172.292039 275.28481 
L 173.308617 282.970174 
L 174.325196 275.28481 
L 175.341774 275.28481 
L 176.358353 267.599446 
L 177.374932 267.599446 
L 178.39151 275.28481 
L 179.408089 275.28481 
L 180.424668 282.970174 
L 181.441246 275.28481 
L 182.457825 275.28481 
L 183.474403 267.599446 
L 184.490982 282.970174 
L 186.524139 267.599446 
L 187.540718 282.970174 
L 189.573875 267.599446 
L 190.590454 282.970174 
L 192.623611 267.599446 
L 193.640189 265.825799 
L 194.656768 275.28481 
L 195.673347 258.140436 
L 196.689925 265.825799 
L 203.805976 265.825799 
L 204.822554 258.140436 
L 205.839133 273.511251 
L 206.855711 265.825799 
L 207.87229 265.825799 
L 208.888869 273.511251 
L 209.905447 300.114548 
L 210.922026 282.970174 
L 213.971762 282.970174 
L 214.98834 290.655626 
L 216.004919 282.970174 
L 217.021498 284.743821 
L 220.071233 284.743821 
L 221.087812 282.970174 
L 222.104391 292.429185 
L 224.137548 292.429185 
L 225.154126 284.743821 
L 226.170705 275.28481 
L 227.187284 275.28481 
L 228.203862 282.970174 
L 229.220441 292.429185 
L 230.237019 284.743821 
L 231.253598 292.429185 
L 232.270177 292.429185 
L 233.286755 284.743821 
L 234.303334 292.429185 
L 235.319913 284.743821 
L 237.35307 300.114548 
L 239.386227 284.743821 
L 240.402806 292.429185 
L 241.419384 284.743821 
L 242.435963 292.429185 
L 243.452541 277.058369 
L 244.46912 292.429185 
L 245.485699 284.743821 
L 246.502277 284.743821 
L 248.535435 300.114548 
L 250.568592 284.743821 
L 251.58517 292.429185 
L 252.601749 284.743821 
L 253.618328 292.429185 
L 256.668063 292.429185 
L 257.684642 284.743821 
L 258.701221 300.114548 
L 263.784114 300.114548 
L 264.800692 307.8 
L 266.83385 292.429185 
L 267.850428 300.114548 
L 268.867007 292.429185 
L 269.883585 292.429185 
L 270.900164 300.114548 
L 274.966478 300.114548 
L 276.999636 284.743821 
L 278.016214 292.429185 
L 279.032793 292.429185 
L 280.049371 300.114548 
L 281.06595 300.114548 
L 282.082529 292.429185 
L 285.132265 292.429185 
L 286.148843 300.114548 
L 288.182 284.743821 
L 289.198579 292.429185 
L 290.215158 292.429185 
L 291.231736 300.114548 
L 292.248315 292.429185 
L 293.264893 300.114548 
L 295.298051 284.743821 
L 296.314629 292.429185 
L 297.331208 292.429185 
L 298.347786 275.28481 
L 299.364365 292.429185 
L 300.380944 292.429185 
L 301.397522 284.743821 
L 302.414101 282.970174 
L 303.43068 290.655626 
L 304.447258 275.28481 
L 305.463837 292.429185 
L 307.496994 292.429185 
L 308.513573 284.743821 
L 309.530151 292.429185 
L 313.596466 292.429185 
L 314.613044 300.114548 
L 316.646201 284.743821 
L 317.66278 292.429185 
L 320.712516 292.429185 
L 321.729095 282.970174 
L 325.795409 282.970174 
L 326.811988 275.28481 
L 327.828566 282.970174 
L 328.845145 275.28481 
L 329.861723 282.970174 
L 331.894881 282.970174 
L 332.911459 275.28481 
L 333.928038 282.970174 
L 334.944617 275.28481 
L 335.961195 282.970174 
L 336.977774 275.28481 
L 337.994352 282.970174 
L 339.010931 275.28481 
L 340.02751 275.28481 
L 341.044088 282.970174 
L 346.126981 282.970174 
L 347.14356 275.28481 
L 348.160138 275.28481 
L 349.176717 267.599446 
L 350.193296 275.28481 
L 354.25961 275.28481 
L 355.276189 282.970174 
L 356.292767 282.970174 
L 357.309346 275.28481 
L 358.325925 282.970174 
L 359.342503 292.429185 
L 360.359082 284.743821 
L 361.37566 292.429185 
L 363.408818 292.429185 
L 364.425396 284.743821 
L 365.441975 294.202656 
L 366.458553 292.429185 
L 367.475132 292.429185 
L 368.491711 277.058369 
L 370.524868 277.058369 
L 371.541447 284.743821 
L 372.558025 284.743821 
L 373.574604 277.058369 
L 374.591182 284.743821 
L 375.607761 269.373005 
L 376.62434 284.743821 
L 377.640918 277.058369 
L 378.657497 284.743821 
L 379.674075 269.373005 
L 380.690654 284.743821 
L 381.707233 277.058369 
L 383.74039 277.058369 
L 384.756968 261.687642 
L 385.773547 269.373005 
L 387.806704 269.373005 
L 388.823283 261.687642 
L 389.839862 269.373005 
L 390.85644 269.373005 
L 391.873019 261.687642 
L 392.889597 269.373005 
L 393.906176 269.373005 
L 394.922755 261.687642 
L 395.939333 269.373005 
L 396.955912 284.743821 
L 397.97249 269.373005 
L 398.989069 277.058369 
L 400.005648 277.058369 
L 401.022226 269.373005 
L 404.071962 269.373005 
L 405.088541 277.058369 
L 406.105119 277.058369 
L 407.121698 269.373005 
L 408.138277 269.373005 
L 409.154855 277.058369 
L 410.171434 261.687642 
L 412.204591 277.058369 
L 413.22117 277.058369 
L 414.237748 269.373005 
L 415.254327 284.743821 
L 416.270905 277.058369 
L 417.287484 277.058369 
L 418.304063 284.743821 
L 419.320641 284.743821 
L 421.353799 269.373005 
L 422.370377 277.058369 
L 423.386956 269.373005 
L 424.403534 269.373005 
L 425.420113 277.058369 
L 426.436692 277.058369 
L 427.45327 269.373005 
L 428.469849 269.373005 
L 429.486427 261.687642 
L 430.503006 269.373005 
L 431.519585 269.373005 
L 432.536163 277.058369 
L 435.585899 277.058369 
L 436.602478 284.743821 
L 437.619056 277.058369 
L 438.635635 277.058369 
L 439.652214 284.743821 
L 440.668792 269.373005 
L 441.685371 284.743821 
L 442.701949 277.058369 
L 443.718528 284.743821 
L 444.735107 277.058369 
L 445.751685 284.743821 
L 446.768264 277.058369 
L 448.801421 292.429185 
L 449.818 294.202656 
L 450.834578 284.743821 
L 451.851157 286.517292 
L 452.867735 284.743821 
L 453.884314 277.058369 
L 454.900893 284.743821 
L 455.917471 277.058369 
L 456.93405 284.743821 
L 457.950629 277.058369 
L 458.967207 284.743821 
L 462.016943 284.743821 
L 463.033522 277.058369 
L 464.0501 284.743821 
L 465.066679 277.058369 
L 466.083257 284.743821 
L 467.099836 284.743821 
L 468.116415 277.058369 
L 470.149572 277.058369 
L 471.16615 284.743821 
L 474.215886 284.743821 
L 475.232465 269.373005 
L 477.265622 284.743821 
L 478.282201 277.058369 
L 479.298779 277.058369 
L 480.315358 284.743821 
L 482.348515 284.743821 
L 484.381672 269.373005 
L 485.398251 277.058369 
L 486.41483 269.373005 
L 487.431408 284.743821 
L 488.447987 269.373005 
L 490.481144 269.373005 
L 491.497723 284.743821 
L 492.514301 269.373005 
L 493.53088 269.373005 
L 494.547459 277.058369 
L 495.564037 277.058369 
L 496.580616 284.743821 
L 497.597194 269.373005 
L 498.613773 269.373005 
L 499.630352 277.058369 
L 500.64693 269.373005 
L 501.663509 277.058369 
L 502.680087 277.058369 
L 503.696666 284.743821 
L 505.729823 269.373005 
L 506.746402 269.373005 
L 507.762981 284.743821 
L 508.779559 284.743821 
L 509.796138 277.058369 
L 510.812716 277.058369 
L 511.829295 284.743821 
L 513.862452 284.743821 
L 514.879031 277.058369 
L 515.895609 277.058369 
L 516.912188 284.743821 
L 517.928767 284.743821 
L 518.945345 277.058369 
L 519.961924 284.743821 
L 520.978502 277.058369 
L 521.995081 284.743821 
L 523.01166 284.743821 
L 524.028238 277.058369 
L 525.044817 277.058369 
L 526.061396 284.743821 
L 538.260339 284.743821 
L 539.276917 277.058369 
L 540.293496 284.743821 
L 561.641647 284.743821 
L 562.658226 294.202656 
L 565.707961 294.202656 
L 566.72454 286.517292 
L 567.741119 294.202656 
L 568.757697 286.517292 
L 569.774276 294.202656 
L 576.890326 294.202656 
L 577.906905 301.888019 
L 578.923483 286.517292 
L 579.940062 286.517292 
L 580.956641 294.202656 
L 582.989798 294.202656 
L 584.006376 286.517292 
L 585.022955 294.202656 
L 587.056112 294.202656 
L 588.072691 286.517292 
L 589.089269 294.202656 
L 590.105848 294.202656 
L 591.122427 286.517292 
L 592.139005 294.202656 
L 595.188741 294.202656 
L 596.20532 286.517292 
L 597.221898 294.202656 
L 598.238477 294.202656 
L 599.255056 286.517292 
L 600.271634 294.202656 
L 605.354527 294.202656 
L 606.371106 286.517292 
L 607.387684 286.517292 
L 608.404263 294.202656 
L 618.570049 294.202656 
L 619.586628 286.517292 
L 620.603206 294.202656 
L 622.636364 294.202656 
L 622.636364 294.202656 
" clip-path="url(#pecf081ce2f)" style="fill: none; stroke: #ff7f0e; stroke-width: 1.5; stroke-linecap: square"/>
   </g>
   <g id="patch_3">
    <path d="M 90 320.4 
L 90 43.2 
" style="fill: none; stroke: #000000; stroke-width: 0.8; stroke-linejoin: miter; stroke-linecap: square"/>
   </g>
   <g id="patch_4">
    <path d="M 648 320.4 
L 648 43.2 
" style="fill: none; stroke: #000000; stroke-width: 0.8; stroke-linejoin: miter; stroke-linecap: square"/>
   </g>
   <g id="patch_5">
    <path d="M 90 320.4 
L 648 320.4 
" style="fill: none; stroke: #000000; stroke-width: 0.8; stroke-linejoin: miter; stroke-linecap: square"/>
   </g>
   <g id="patch_6">
    <path d="M 90 43.2 
L 648 43.2 
" style="fill: none; stroke: #000000; stroke-width: 0.8; stroke-linejoin: miter; stroke-linecap: square"/>
   </g>
   <g id="text_13">
    <!-- model train and validation accracy over time -->
    <g transform="translate(233.87625 37.2) scale(0.12 -0.12)">
     <defs>
      <path id="DejaVuSans-6d" d="M 3328 2828 
Q 3544 3216 3844 3400 
Q 4144 3584 4550 3584 
Q 5097 3584 5394 3201 
Q 5691 2819 5691 2113 
L 5691 0 
L 5113 0 
L 5113 2094 
Q 5113 2597 4934 2840 
Q 4756 3084 4391 3084 
Q 3944 3084 3684 2787 
Q 3425 2491 3425 1978 
L 3425 0 
L 2847 0 
L 2847 2094 
Q 2847 2600 2669 2842 
Q 2491 3084 2119 3084 
Q 1678 3084 1418 2786 
Q 1159 2488 1159 1978 
L 1159 0 
L 581 0 
L 581 3500 
L 1159 3500 
L 1159 2956 
Q 1356 3278 1631 3431 
Q 1906 3584 2284 3584 
Q 2666 3584 2933 3390 
Q 3200 3197 3328 2828 
z
" transform="scale(0.015625)"/>
      <path id="DejaVuSans-64" d="M 2906 2969 
L 2906 4863 
L 3481 4863 
L 3481 0 
L 2906 0 
L 2906 525 
Q 2725 213 2448 61 
Q 2172 -91 1784 -91 
Q 1150 -91 751 415 
Q 353 922 353 1747 
Q 353 2572 751 3078 
Q 1150 3584 1784 3584 
Q 2172 3584 2448 3432 
Q 2725 3281 2906 2969 
z
M 947 1747 
Q 947 1113 1208 752 
Q 1469 391 1925 391 
Q 2381 391 2643 752 
Q 2906 1113 2906 1747 
Q 2906 2381 2643 2742 
Q 2381 3103 1925 3103 
Q 1469 3103 1208 2742 
Q 947 2381 947 1747 
z
" transform="scale(0.015625)"/>
      <path id="DejaVuSans-6c" d="M 603 4863 
L 1178 4863 
L 1178 0 
L 603 0 
L 603 4863 
z
" transform="scale(0.015625)"/>
      <path id="DejaVuSans-20" transform="scale(0.015625)"/>
      <path id="DejaVuSans-74" d="M 1172 4494 
L 1172 3500 
L 2356 3500 
L 2356 3053 
L 1172 3053 
L 1172 1153 
Q 1172 725 1289 603 
Q 1406 481 1766 481 
L 2356 481 
L 2356 0 
L 1766 0 
Q 1100 0 847 248 
Q 594 497 594 1153 
L 594 3053 
L 172 3053 
L 172 3500 
L 594 3500 
L 594 4494 
L 1172 4494 
z
" transform="scale(0.015625)"/>
      <path id="DejaVuSans-69" d="M 603 3500 
L 1178 3500 
L 1178 0 
L 603 0 
L 603 3500 
z
M 603 4863 
L 1178 4863 
L 1178 4134 
L 603 4134 
L 603 4863 
z
" transform="scale(0.015625)"/>
      <path id="DejaVuSans-6e" d="M 3513 2113 
L 3513 0 
L 2938 0 
L 2938 2094 
Q 2938 2591 2744 2837 
Q 2550 3084 2163 3084 
Q 1697 3084 1428 2787 
Q 1159 2491 1159 1978 
L 1159 0 
L 581 0 
L 581 3500 
L 1159 3500 
L 1159 2956 
Q 1366 3272 1645 3428 
Q 1925 3584 2291 3584 
Q 2894 3584 3203 3211 
Q 3513 2838 3513 2113 
z
" transform="scale(0.015625)"/>
      <path id="DejaVuSans-76" d="M 191 3500 
L 800 3500 
L 1894 563 
L 2988 3500 
L 3597 3500 
L 2284 0 
L 1503 0 
L 191 3500 
z
" transform="scale(0.015625)"/>
     </defs>
     <use xlink:href="#DejaVuSans-6d"/>
     <use xlink:href="#DejaVuSans-6f" x="97.412109"/>
     <use xlink:href="#DejaVuSans-64" x="158.59375"/>
     <use xlink:href="#DejaVuSans-65" x="222.070312"/>
     <use xlink:href="#DejaVuSans-6c" x="283.59375"/>
     <use xlink:href="#DejaVuSans-20" x="311.376953"/>
     <use xlink:href="#DejaVuSans-74" x="343.164062"/>
     <use xlink:href="#DejaVuSans-72" x="382.373047"/>
     <use xlink:href="#DejaVuSans-61" x="423.486328"/>
     <use xlink:href="#DejaVuSans-69" x="484.765625"/>
     <use xlink:href="#DejaVuSans-6e" x="512.548828"/>
     <use xlink:href="#DejaVuSans-20" x="575.927734"/>
     <use xlink:href="#DejaVuSans-61" x="607.714844"/>
     <use xlink:href="#DejaVuSans-6e" x="668.994141"/>
     <use xlink:href="#DejaVuSans-64" x="732.373047"/>
     <use xlink:href="#DejaVuSans-20" x="795.849609"/>
     <use xlink:href="#DejaVuSans-76" x="827.636719"/>
     <use xlink:href="#DejaVuSans-61" x="886.816406"/>
     <use xlink:href="#DejaVuSans-6c" x="948.095703"/>
     <use xlink:href="#DejaVuSans-69" x="975.878906"/>
     <use xlink:href="#DejaVuSans-64" x="1003.662109"/>
     <use xlink:href="#DejaVuSans-61" x="1067.138672"/>
     <use xlink:href="#DejaVuSans-74" x="1128.417969"/>
     <use xlink:href="#DejaVuSans-69" x="1167.626953"/>
     <use xlink:href="#DejaVuSans-6f" x="1195.410156"/>
     <use xlink:href="#DejaVuSans-6e" x="1256.591797"/>
     <use xlink:href="#DejaVuSans-20" x="1319.970703"/>
     <use xlink:href="#DejaVuSans-61" x="1351.757812"/>
     <use xlink:href="#DejaVuSans-63" x="1413.037109"/>
     <use xlink:href="#DejaVuSans-63" x="1468.017578"/>
     <use xlink:href="#DejaVuSans-72" x="1522.998047"/>
     <use xlink:href="#DejaVuSans-61" x="1564.111328"/>
     <use xlink:href="#DejaVuSans-63" x="1625.390625"/>
     <use xlink:href="#DejaVuSans-79" x="1680.371094"/>
     <use xlink:href="#DejaVuSans-20" x="1739.550781"/>
     <use xlink:href="#DejaVuSans-6f" x="1771.337891"/>
     <use xlink:href="#DejaVuSans-76" x="1832.519531"/>
     <use xlink:href="#DejaVuSans-65" x="1891.699219"/>
     <use xlink:href="#DejaVuSans-72" x="1953.222656"/>
     <use xlink:href="#DejaVuSans-20" x="1994.335938"/>
     <use xlink:href="#DejaVuSans-74" x="2026.123047"/>
     <use xlink:href="#DejaVuSans-69" x="2065.332031"/>
     <use xlink:href="#DejaVuSans-6d" x="2093.115234"/>
     <use xlink:href="#DejaVuSans-65" x="2190.527344"/>
    </g>
   </g>
   <g id="legend_1">
    <g id="patch_7">
     <path d="M 559.765625 197.978125 
L 641 197.978125 
Q 643 197.978125 643 195.978125 
L 643 167.621875 
Q 643 165.621875 641 165.621875 
L 559.765625 165.621875 
Q 557.765625 165.621875 557.765625 167.621875 
L 557.765625 195.978125 
Q 557.765625 197.978125 559.765625 197.978125 
z
" style="fill: #ffffff; opacity: 0.8; stroke: #cccccc; stroke-linejoin: miter"/>
    </g>
    <g id="line2d_23">
     <path d="M 561.765625 173.720312 
L 571.765625 173.720312 
L 581.765625 173.720312 
" style="fill: none; stroke: #1f77b4; stroke-width: 1.5; stroke-linecap: square"/>
    </g>
    <g id="text_14">
     <!-- train -->
     <g transform="translate(589.765625 177.220312) scale(0.1 -0.1)">
      <use xlink:href="#DejaVuSans-74"/>
      <use xlink:href="#DejaVuSans-72" x="39.208984"/>
      <use xlink:href="#DejaVuSans-61" x="80.322266"/>
      <use xlink:href="#DejaVuSans-69" x="141.601562"/>
      <use xlink:href="#DejaVuSans-6e" x="169.384766"/>
     </g>
    </g>
    <g id="line2d_24">
     <path d="M 561.765625 188.398437 
L 571.765625 188.398437 
L 581.765625 188.398437 
" style="fill: none; stroke: #ff7f0e; stroke-width: 1.5; stroke-linecap: square"/>
    </g>
    <g id="text_15">
     <!-- validation -->
     <g transform="translate(589.765625 191.898437) scale(0.1 -0.1)">
      <use xlink:href="#DejaVuSans-76"/>
      <use xlink:href="#DejaVuSans-61" x="59.179688"/>
      <use xlink:href="#DejaVuSans-6c" x="120.458984"/>
      <use xlink:href="#DejaVuSans-69" x="148.242188"/>
      <use xlink:href="#DejaVuSans-64" x="176.025391"/>
      <use xlink:href="#DejaVuSans-61" x="239.501953"/>
      <use xlink:href="#DejaVuSans-74" x="300.78125"/>
      <use xlink:href="#DejaVuSans-69" x="339.990234"/>
      <use xlink:href="#DejaVuSans-6f" x="367.773438"/>
      <use xlink:href="#DejaVuSans-6e" x="428.955078"/>
     </g>
    </g>
   </g>
  </g>
 </g>
 <defs>
  <clipPath id="pecf081ce2f">
   <rect x="90" y="43.2" width="558" height="277.2"/>
  </clipPath>
 </defs>
</svg>
