<?xml version="1.0" encoding="utf-8" standalone="no"?>
<!DOCTYPE svg PUBLIC "-//W3C//DTD SVG 1.1//EN"
  "http://www.w3.org/Graphics/SVG/1.1/DTD/svg11.dtd">
<svg xmlns:xlink="http://www.w3.org/1999/xlink" width="720pt" height="360pt" viewBox="0 0 720 360" xmlns="http://www.w3.org/2000/svg" version="1.1">
 <metadata>
  <rdf:RDF xmlns:dc="http://purl.org/dc/elements/1.1/" xmlns:cc="http://creativecommons.org/ns#" xmlns:rdf="http://www.w3.org/1999/02/22-rdf-syntax-ns#">
   <cc:Work>
    <dc:type rdf:resource="http://purl.org/dc/dcmitype/StillImage"/>
    <dc:date>2023-05-24T12:21:31.073226</dc:date>
    <dc:format>image/svg+xml</dc:format>
    <dc:creator>
     <cc:Agent>
      <dc:title>Matplotlib v3.7.1, https://matplotlib.org/</dc:title>
     </cc:Agent>
    </dc:creator>
   </cc:Work>
  </rdf:RDF>
 </metadata>
 <defs>
  <style type="text/css">*{stroke-linejoin: round; stroke-linecap: butt}</style>
 </defs>
 <g id="figure_1">
  <g id="patch_1">
   <path d="M 0 360 
L 720 360 
L 720 0 
L 0 0 
z
" style="fill: #ffffff"/>
  </g>
  <g id="axes_1">
   <g id="patch_2">
    <path d="M 90 320.4 
L 648 320.4 
L 648 43.2 
L 90 43.2 
z
" style="fill: #ffffff"/>
   </g>
   <g id="matplotlib.axis_1">
    <g id="xtick_1">
     <g id="line2d_1">
      <path d="M 115.363636 320.4 
L 115.363636 43.2 
" clip-path="url(#p033957408f)" style="fill: none; stroke: #b0b0b0; stroke-width: 0.8; stroke-linecap: square"/>
     </g>
     <g id="line2d_2">
      <defs>
       <path id="m71d344d313" d="M 0 0 
L 0 3.5 
" style="stroke: #000000; stroke-width: 0.8"/>
      </defs>
      <g>
       <use xlink:href="#m71d344d313" x="115.363636" y="320.4" style="stroke: #000000; stroke-width: 0.8"/>
      </g>
     </g>
     <g id="text_1">
      <!-- 0 -->
      <g transform="translate(112.182386 334.998438) scale(0.1 -0.1)">
       <defs>
        <path id="DejaVuSans-30" d="M 2034 4250 
Q 1547 4250 1301 3770 
Q 1056 3291 1056 2328 
Q 1056 1369 1301 889 
Q 1547 409 2034 409 
Q 2525 409 2770 889 
Q 3016 1369 3016 2328 
Q 3016 3291 2770 3770 
Q 2525 4250 2034 4250 
z
M 2034 4750 
Q 2819 4750 3233 4129 
Q 3647 3509 3647 2328 
Q 3647 1150 3233 529 
Q 2819 -91 2034 -91 
Q 1250 -91 836 529 
Q 422 1150 422 2328 
Q 422 3509 836 4129 
Q 1250 4750 2034 4750 
z
" transform="scale(0.015625)"/>
       </defs>
       <use xlink:href="#DejaVuSans-30"/>
      </g>
     </g>
    </g>
    <g id="xtick_2">
     <g id="line2d_3">
      <path d="M 217.021498 320.4 
L 217.021498 43.2 
" clip-path="url(#p033957408f)" style="fill: none; stroke: #b0b0b0; stroke-width: 0.8; stroke-linecap: square"/>
     </g>
     <g id="line2d_4">
      <g>
       <use xlink:href="#m71d344d313" x="217.021498" y="320.4" style="stroke: #000000; stroke-width: 0.8"/>
      </g>
     </g>
     <g id="text_2">
      <!-- 100 -->
      <g transform="translate(207.477748 334.998438) scale(0.1 -0.1)">
       <defs>
        <path id="DejaVuSans-31" d="M 794 531 
L 1825 531 
L 1825 4091 
L 703 3866 
L 703 4441 
L 1819 4666 
L 2450 4666 
L 2450 531 
L 3481 531 
L 3481 0 
L 794 0 
L 794 531 
z
" transform="scale(0.015625)"/>
       </defs>
       <use xlink:href="#DejaVuSans-31"/>
       <use xlink:href="#DejaVuSans-30" x="63.623047"/>
       <use xlink:href="#DejaVuSans-30" x="127.246094"/>
      </g>
     </g>
    </g>
    <g id="xtick_3">
     <g id="line2d_5">
      <path d="M 318.679359 320.4 
L 318.679359 43.2 
" clip-path="url(#p033957408f)" style="fill: none; stroke: #b0b0b0; stroke-width: 0.8; stroke-linecap: square"/>
     </g>
     <g id="line2d_6">
      <g>
       <use xlink:href="#m71d344d313" x="318.679359" y="320.4" style="stroke: #000000; stroke-width: 0.8"/>
      </g>
     </g>
     <g id="text_3">
      <!-- 200 -->
      <g transform="translate(309.135609 334.998438) scale(0.1 -0.1)">
       <defs>
        <path id="DejaVuSans-32" d="M 1228 531 
L 3431 531 
L 3431 0 
L 469 0 
L 469 531 
Q 828 903 1448 1529 
Q 2069 2156 2228 2338 
Q 2531 2678 2651 2914 
Q 2772 3150 2772 3378 
Q 2772 3750 2511 3984 
Q 2250 4219 1831 4219 
Q 1534 4219 1204 4116 
Q 875 4013 500 3803 
L 500 4441 
Q 881 4594 1212 4672 
Q 1544 4750 1819 4750 
Q 2544 4750 2975 4387 
Q 3406 4025 3406 3419 
Q 3406 3131 3298 2873 
Q 3191 2616 2906 2266 
Q 2828 2175 2409 1742 
Q 1991 1309 1228 531 
z
" transform="scale(0.015625)"/>
       </defs>
       <use xlink:href="#DejaVuSans-32"/>
       <use xlink:href="#DejaVuSans-30" x="63.623047"/>
       <use xlink:href="#DejaVuSans-30" x="127.246094"/>
      </g>
     </g>
    </g>
    <g id="xtick_4">
     <g id="line2d_7">
      <path d="M 420.33722 320.4 
L 420.33722 43.2 
" clip-path="url(#p033957408f)" style="fill: none; stroke: #b0b0b0; stroke-width: 0.8; stroke-linecap: square"/>
     </g>
     <g id="line2d_8">
      <g>
       <use xlink:href="#m71d344d313" x="420.33722" y="320.4" style="stroke: #000000; stroke-width: 0.8"/>
      </g>
     </g>
     <g id="text_4">
      <!-- 300 -->
      <g transform="translate(410.79347 334.998438) scale(0.1 -0.1)">
       <defs>
        <path id="DejaVuSans-33" d="M 2597 2516 
Q 3050 2419 3304 2112 
Q 3559 1806 3559 1356 
Q 3559 666 3084 287 
Q 2609 -91 1734 -91 
Q 1441 -91 1130 -33 
Q 819 25 488 141 
L 488 750 
Q 750 597 1062 519 
Q 1375 441 1716 441 
Q 2309 441 2620 675 
Q 2931 909 2931 1356 
Q 2931 1769 2642 2001 
Q 2353 2234 1838 2234 
L 1294 2234 
L 1294 2753 
L 1863 2753 
Q 2328 2753 2575 2939 
Q 2822 3125 2822 3475 
Q 2822 3834 2567 4026 
Q 2313 4219 1838 4219 
Q 1578 4219 1281 4162 
Q 984 4106 628 3988 
L 628 4550 
Q 988 4650 1302 4700 
Q 1616 4750 1894 4750 
Q 2613 4750 3031 4423 
Q 3450 4097 3450 3541 
Q 3450 3153 3228 2886 
Q 3006 2619 2597 2516 
z
" transform="scale(0.015625)"/>
       </defs>
       <use xlink:href="#DejaVuSans-33"/>
       <use xlink:href="#DejaVuSans-30" x="63.623047"/>
       <use xlink:href="#DejaVuSans-30" x="127.246094"/>
      </g>
     </g>
    </g>
    <g id="xtick_5">
     <g id="line2d_9">
      <path d="M 521.995081 320.4 
L 521.995081 43.2 
" clip-path="url(#p033957408f)" style="fill: none; stroke: #b0b0b0; stroke-width: 0.8; stroke-linecap: square"/>
     </g>
     <g id="line2d_10">
      <g>
       <use xlink:href="#m71d344d313" x="521.995081" y="320.4" style="stroke: #000000; stroke-width: 0.8"/>
      </g>
     </g>
     <g id="text_5">
      <!-- 400 -->
      <g transform="translate(512.451331 334.998438) scale(0.1 -0.1)">
       <defs>
        <path id="DejaVuSans-34" d="M 2419 4116 
L 825 1625 
L 2419 1625 
L 2419 4116 
z
M 2253 4666 
L 3047 4666 
L 3047 1625 
L 3713 1625 
L 3713 1100 
L 3047 1100 
L 3047 0 
L 2419 0 
L 2419 1100 
L 313 1100 
L 313 1709 
L 2253 4666 
z
" transform="scale(0.015625)"/>
       </defs>
       <use xlink:href="#DejaVuSans-34"/>
       <use xlink:href="#DejaVuSans-30" x="63.623047"/>
       <use xlink:href="#DejaVuSans-30" x="127.246094"/>
      </g>
     </g>
    </g>
    <g id="xtick_6">
     <g id="line2d_11">
      <path d="M 623.652942 320.4 
L 623.652942 43.2 
" clip-path="url(#p033957408f)" style="fill: none; stroke: #b0b0b0; stroke-width: 0.8; stroke-linecap: square"/>
     </g>
     <g id="line2d_12">
      <g>
       <use xlink:href="#m71d344d313" x="623.652942" y="320.4" style="stroke: #000000; stroke-width: 0.8"/>
      </g>
     </g>
     <g id="text_6">
      <!-- 500 -->
      <g transform="translate(614.109192 334.998438) scale(0.1 -0.1)">
       <defs>
        <path id="DejaVuSans-35" d="M 691 4666 
L 3169 4666 
L 3169 4134 
L 1269 4134 
L 1269 2991 
Q 1406 3038 1543 3061 
Q 1681 3084 1819 3084 
Q 2600 3084 3056 2656 
Q 3513 2228 3513 1497 
Q 3513 744 3044 326 
Q 2575 -91 1722 -91 
Q 1428 -91 1123 -41 
Q 819 9 494 109 
L 494 744 
Q 775 591 1075 516 
Q 1375 441 1709 441 
Q 2250 441 2565 725 
Q 2881 1009 2881 1497 
Q 2881 1984 2565 2268 
Q 2250 2553 1709 2553 
Q 1456 2553 1204 2497 
Q 953 2441 691 2322 
L 691 4666 
z
" transform="scale(0.015625)"/>
       </defs>
       <use xlink:href="#DejaVuSans-35"/>
       <use xlink:href="#DejaVuSans-30" x="63.623047"/>
       <use xlink:href="#DejaVuSans-30" x="127.246094"/>
      </g>
     </g>
    </g>
    <g id="text_7">
     <!-- epoch -->
     <g transform="translate(353.771875 348.676562) scale(0.1 -0.1)">
      <defs>
       <path id="DejaVuSans-65" d="M 3597 1894 
L 3597 1613 
L 953 1613 
Q 991 1019 1311 708 
Q 1631 397 2203 397 
Q 2534 397 2845 478 
Q 3156 559 3463 722 
L 3463 178 
Q 3153 47 2828 -22 
Q 2503 -91 2169 -91 
Q 1331 -91 842 396 
Q 353 884 353 1716 
Q 353 2575 817 3079 
Q 1281 3584 2069 3584 
Q 2775 3584 3186 3129 
Q 3597 2675 3597 1894 
z
M 3022 2063 
Q 3016 2534 2758 2815 
Q 2500 3097 2075 3097 
Q 1594 3097 1305 2825 
Q 1016 2553 972 2059 
L 3022 2063 
z
" transform="scale(0.015625)"/>
       <path id="DejaVuSans-70" d="M 1159 525 
L 1159 -1331 
L 581 -1331 
L 581 3500 
L 1159 3500 
L 1159 2969 
Q 1341 3281 1617 3432 
Q 1894 3584 2278 3584 
Q 2916 3584 3314 3078 
Q 3713 2572 3713 1747 
Q 3713 922 3314 415 
Q 2916 -91 2278 -91 
Q 1894 -91 1617 61 
Q 1341 213 1159 525 
z
M 3116 1747 
Q 3116 2381 2855 2742 
Q 2594 3103 2138 3103 
Q 1681 3103 1420 2742 
Q 1159 2381 1159 1747 
Q 1159 1113 1420 752 
Q 1681 391 2138 391 
Q 2594 391 2855 752 
Q 3116 1113 3116 1747 
z
" transform="scale(0.015625)"/>
       <path id="DejaVuSans-6f" d="M 1959 3097 
Q 1497 3097 1228 2736 
Q 959 2375 959 1747 
Q 959 1119 1226 758 
Q 1494 397 1959 397 
Q 2419 397 2687 759 
Q 2956 1122 2956 1747 
Q 2956 2369 2687 2733 
Q 2419 3097 1959 3097 
z
M 1959 3584 
Q 2709 3584 3137 3096 
Q 3566 2609 3566 1747 
Q 3566 888 3137 398 
Q 2709 -91 1959 -91 
Q 1206 -91 779 398 
Q 353 888 353 1747 
Q 353 2609 779 3096 
Q 1206 3584 1959 3584 
z
" transform="scale(0.015625)"/>
       <path id="DejaVuSans-63" d="M 3122 3366 
L 3122 2828 
Q 2878 2963 2633 3030 
Q 2388 3097 2138 3097 
Q 1578 3097 1268 2742 
Q 959 2388 959 1747 
Q 959 1106 1268 751 
Q 1578 397 2138 397 
Q 2388 397 2633 464 
Q 2878 531 3122 666 
L 3122 134 
Q 2881 22 2623 -34 
Q 2366 -91 2075 -91 
Q 1284 -91 818 406 
Q 353 903 353 1747 
Q 353 2603 823 3093 
Q 1294 3584 2113 3584 
Q 2378 3584 2631 3529 
Q 2884 3475 3122 3366 
z
" transform="scale(0.015625)"/>
       <path id="DejaVuSans-68" d="M 3513 2113 
L 3513 0 
L 2938 0 
L 2938 2094 
Q 2938 2591 2744 2837 
Q 2550 3084 2163 3084 
Q 1697 3084 1428 2787 
Q 1159 2491 1159 1978 
L 1159 0 
L 581 0 
L 581 4863 
L 1159 4863 
L 1159 2956 
Q 1366 3272 1645 3428 
Q 1925 3584 2291 3584 
Q 2894 3584 3203 3211 
Q 3513 2838 3513 2113 
z
" transform="scale(0.015625)"/>
      </defs>
      <use xlink:href="#DejaVuSans-65"/>
      <use xlink:href="#DejaVuSans-70" x="61.523438"/>
      <use xlink:href="#DejaVuSans-6f" x="125"/>
      <use xlink:href="#DejaVuSans-63" x="186.181641"/>
      <use xlink:href="#DejaVuSans-68" x="241.162109"/>
     </g>
    </g>
   </g>
   <g id="matplotlib.axis_2">
    <g id="ytick_1">
     <g id="line2d_13">
      <path d="M 90 289.766036 
L 648 289.766036 
" clip-path="url(#p033957408f)" style="fill: none; stroke: #b0b0b0; stroke-width: 0.8; stroke-linecap: square"/>
     </g>
     <g id="line2d_14">
      <defs>
       <path id="med0f4eaa86" d="M 0 0 
L -3.5 0 
" style="stroke: #000000; stroke-width: 0.8"/>
      </defs>
      <g>
       <use xlink:href="#med0f4eaa86" x="90" y="289.766036" style="stroke: #000000; stroke-width: 0.8"/>
      </g>
     </g>
     <g id="text_8">
      <!-- 0.38 -->
      <g transform="translate(60.734375 293.565255) scale(0.1 -0.1)">
       <defs>
        <path id="DejaVuSans-2e" d="M 684 794 
L 1344 794 
L 1344 0 
L 684 0 
L 684 794 
z
" transform="scale(0.015625)"/>
        <path id="DejaVuSans-38" d="M 2034 2216 
Q 1584 2216 1326 1975 
Q 1069 1734 1069 1313 
Q 1069 891 1326 650 
Q 1584 409 2034 409 
Q 2484 409 2743 651 
Q 3003 894 3003 1313 
Q 3003 1734 2745 1975 
Q 2488 2216 2034 2216 
z
M 1403 2484 
Q 997 2584 770 2862 
Q 544 3141 544 3541 
Q 544 4100 942 4425 
Q 1341 4750 2034 4750 
Q 2731 4750 3128 4425 
Q 3525 4100 3525 3541 
Q 3525 3141 3298 2862 
Q 3072 2584 2669 2484 
Q 3125 2378 3379 2068 
Q 3634 1759 3634 1313 
Q 3634 634 3220 271 
Q 2806 -91 2034 -91 
Q 1263 -91 848 271 
Q 434 634 434 1313 
Q 434 1759 690 2068 
Q 947 2378 1403 2484 
z
M 1172 3481 
Q 1172 3119 1398 2916 
Q 1625 2713 2034 2713 
Q 2441 2713 2670 2916 
Q 2900 3119 2900 3481 
Q 2900 3844 2670 4047 
Q 2441 4250 2034 4250 
Q 1625 4250 1398 4047 
Q 1172 3844 1172 3481 
z
" transform="scale(0.015625)"/>
       </defs>
       <use xlink:href="#DejaVuSans-30"/>
       <use xlink:href="#DejaVuSans-2e" x="63.623047"/>
       <use xlink:href="#DejaVuSans-33" x="95.410156"/>
       <use xlink:href="#DejaVuSans-38" x="159.033203"/>
      </g>
     </g>
    </g>
    <g id="ytick_2">
     <g id="line2d_15">
      <path d="M 90 257.200197 
L 648 257.200197 
" clip-path="url(#p033957408f)" style="fill: none; stroke: #b0b0b0; stroke-width: 0.8; stroke-linecap: square"/>
     </g>
     <g id="line2d_16">
      <g>
       <use xlink:href="#med0f4eaa86" x="90" y="257.200197" style="stroke: #000000; stroke-width: 0.8"/>
      </g>
     </g>
     <g id="text_9">
      <!-- 0.39 -->
      <g transform="translate(60.734375 260.999416) scale(0.1 -0.1)">
       <defs>
        <path id="DejaVuSans-39" d="M 703 97 
L 703 672 
Q 941 559 1184 500 
Q 1428 441 1663 441 
Q 2288 441 2617 861 
Q 2947 1281 2994 2138 
Q 2813 1869 2534 1725 
Q 2256 1581 1919 1581 
Q 1219 1581 811 2004 
Q 403 2428 403 3163 
Q 403 3881 828 4315 
Q 1253 4750 1959 4750 
Q 2769 4750 3195 4129 
Q 3622 3509 3622 2328 
Q 3622 1225 3098 567 
Q 2575 -91 1691 -91 
Q 1453 -91 1209 -44 
Q 966 3 703 97 
z
M 1959 2075 
Q 2384 2075 2632 2365 
Q 2881 2656 2881 3163 
Q 2881 3666 2632 3958 
Q 2384 4250 1959 4250 
Q 1534 4250 1286 3958 
Q 1038 3666 1038 3163 
Q 1038 2656 1286 2365 
Q 1534 2075 1959 2075 
z
" transform="scale(0.015625)"/>
       </defs>
       <use xlink:href="#DejaVuSans-30"/>
       <use xlink:href="#DejaVuSans-2e" x="63.623047"/>
       <use xlink:href="#DejaVuSans-33" x="95.410156"/>
       <use xlink:href="#DejaVuSans-39" x="159.033203"/>
      </g>
     </g>
    </g>
    <g id="ytick_3">
     <g id="line2d_17">
      <path d="M 90 224.634358 
L 648 224.634358 
" clip-path="url(#p033957408f)" style="fill: none; stroke: #b0b0b0; stroke-width: 0.8; stroke-linecap: square"/>
     </g>
     <g id="line2d_18">
      <g>
       <use xlink:href="#med0f4eaa86" x="90" y="224.634358" style="stroke: #000000; stroke-width: 0.8"/>
      </g>
     </g>
     <g id="text_10">
      <!-- 0.40 -->
      <g transform="translate(60.734375 228.433577) scale(0.1 -0.1)">
       <use xlink:href="#DejaVuSans-30"/>
       <use xlink:href="#DejaVuSans-2e" x="63.623047"/>
       <use xlink:href="#DejaVuSans-34" x="95.410156"/>
       <use xlink:href="#DejaVuSans-30" x="159.033203"/>
      </g>
     </g>
    </g>
    <g id="ytick_4">
     <g id="line2d_19">
      <path d="M 90 192.068519 
L 648 192.068519 
" clip-path="url(#p033957408f)" style="fill: none; stroke: #b0b0b0; stroke-width: 0.8; stroke-linecap: square"/>
     </g>
     <g id="line2d_20">
      <g>
       <use xlink:href="#med0f4eaa86" x="90" y="192.068519" style="stroke: #000000; stroke-width: 0.8"/>
      </g>
     </g>
     <g id="text_11">
      <!-- 0.41 -->
      <g transform="translate(60.734375 195.867738) scale(0.1 -0.1)">
       <use xlink:href="#DejaVuSans-30"/>
       <use xlink:href="#DejaVuSans-2e" x="63.623047"/>
       <use xlink:href="#DejaVuSans-34" x="95.410156"/>
       <use xlink:href="#DejaVuSans-31" x="159.033203"/>
      </g>
     </g>
    </g>
    <g id="ytick_5">
     <g id="line2d_21">
      <path d="M 90 159.50268 
L 648 159.50268 
" clip-path="url(#p033957408f)" style="fill: none; stroke: #b0b0b0; stroke-width: 0.8; stroke-linecap: square"/>
     </g>
     <g id="line2d_22">
      <g>
       <use xlink:href="#med0f4eaa86" x="90" y="159.50268" style="stroke: #000000; stroke-width: 0.8"/>
      </g>
     </g>
     <g id="text_12">
      <!-- 0.42 -->
      <g transform="translate(60.734375 163.301899) scale(0.1 -0.1)">
       <use xlink:href="#DejaVuSans-30"/>
       <use xlink:href="#DejaVuSans-2e" x="63.623047"/>
       <use xlink:href="#DejaVuSans-34" x="95.410156"/>
       <use xlink:href="#DejaVuSans-32" x="159.033203"/>
      </g>
     </g>
    </g>
    <g id="ytick_6">
     <g id="line2d_23">
      <path d="M 90 126.936841 
L 648 126.936841 
" clip-path="url(#p033957408f)" style="fill: none; stroke: #b0b0b0; stroke-width: 0.8; stroke-linecap: square"/>
     </g>
     <g id="line2d_24">
      <g>
       <use xlink:href="#med0f4eaa86" x="90" y="126.936841" style="stroke: #000000; stroke-width: 0.8"/>
      </g>
     </g>
     <g id="text_13">
      <!-- 0.43 -->
      <g transform="translate(60.734375 130.73606) scale(0.1 -0.1)">
       <use xlink:href="#DejaVuSans-30"/>
       <use xlink:href="#DejaVuSans-2e" x="63.623047"/>
       <use xlink:href="#DejaVuSans-34" x="95.410156"/>
       <use xlink:href="#DejaVuSans-33" x="159.033203"/>
      </g>
     </g>
    </g>
    <g id="ytick_7">
     <g id="line2d_25">
      <path d="M 90 94.371002 
L 648 94.371002 
" clip-path="url(#p033957408f)" style="fill: none; stroke: #b0b0b0; stroke-width: 0.8; stroke-linecap: square"/>
     </g>
     <g id="line2d_26">
      <g>
       <use xlink:href="#med0f4eaa86" x="90" y="94.371002" style="stroke: #000000; stroke-width: 0.8"/>
      </g>
     </g>
     <g id="text_14">
      <!-- 0.44 -->
      <g transform="translate(60.734375 98.170221) scale(0.1 -0.1)">
       <use xlink:href="#DejaVuSans-30"/>
       <use xlink:href="#DejaVuSans-2e" x="63.623047"/>
       <use xlink:href="#DejaVuSans-34" x="95.410156"/>
       <use xlink:href="#DejaVuSans-34" x="159.033203"/>
      </g>
     </g>
    </g>
    <g id="ytick_8">
     <g id="line2d_27">
      <path d="M 90 61.805163 
L 648 61.805163 
" clip-path="url(#p033957408f)" style="fill: none; stroke: #b0b0b0; stroke-width: 0.8; stroke-linecap: square"/>
     </g>
     <g id="line2d_28">
      <g>
       <use xlink:href="#med0f4eaa86" x="90" y="61.805163" style="stroke: #000000; stroke-width: 0.8"/>
      </g>
     </g>
     <g id="text_15">
      <!-- 0.45 -->
      <g transform="translate(60.734375 65.604382) scale(0.1 -0.1)">
       <use xlink:href="#DejaVuSans-30"/>
       <use xlink:href="#DejaVuSans-2e" x="63.623047"/>
       <use xlink:href="#DejaVuSans-34" x="95.410156"/>
       <use xlink:href="#DejaVuSans-35" x="159.033203"/>
      </g>
     </g>
    </g>
    <g id="text_16">
     <!-- accruacy -->
     <g transform="translate(54.654687 204.359375) rotate(-90) scale(0.1 -0.1)">
      <defs>
       <path id="DejaVuSans-61" d="M 2194 1759 
Q 1497 1759 1228 1600 
Q 959 1441 959 1056 
Q 959 750 1161 570 
Q 1363 391 1709 391 
Q 2188 391 2477 730 
Q 2766 1069 2766 1631 
L 2766 1759 
L 2194 1759 
z
M 3341 1997 
L 3341 0 
L 2766 0 
L 2766 531 
Q 2569 213 2275 61 
Q 1981 -91 1556 -91 
Q 1019 -91 701 211 
Q 384 513 384 1019 
Q 384 1609 779 1909 
Q 1175 2209 1959 2209 
L 2766 2209 
L 2766 2266 
Q 2766 2663 2505 2880 
Q 2244 3097 1772 3097 
Q 1472 3097 1187 3025 
Q 903 2953 641 2809 
L 641 3341 
Q 956 3463 1253 3523 
Q 1550 3584 1831 3584 
Q 2591 3584 2966 3190 
Q 3341 2797 3341 1997 
z
" transform="scale(0.015625)"/>
       <path id="DejaVuSans-72" d="M 2631 2963 
Q 2534 3019 2420 3045 
Q 2306 3072 2169 3072 
Q 1681 3072 1420 2755 
Q 1159 2438 1159 1844 
L 1159 0 
L 581 0 
L 581 3500 
L 1159 3500 
L 1159 2956 
Q 1341 3275 1631 3429 
Q 1922 3584 2338 3584 
Q 2397 3584 2469 3576 
Q 2541 3569 2628 3553 
L 2631 2963 
z
" transform="scale(0.015625)"/>
       <path id="DejaVuSans-75" d="M 544 1381 
L 544 3500 
L 1119 3500 
L 1119 1403 
Q 1119 906 1312 657 
Q 1506 409 1894 409 
Q 2359 409 2629 706 
Q 2900 1003 2900 1516 
L 2900 3500 
L 3475 3500 
L 3475 0 
L 2900 0 
L 2900 538 
Q 2691 219 2414 64 
Q 2138 -91 1772 -91 
Q 1169 -91 856 284 
Q 544 659 544 1381 
z
M 1991 3584 
L 1991 3584 
z
" transform="scale(0.015625)"/>
       <path id="DejaVuSans-79" d="M 2059 -325 
Q 1816 -950 1584 -1140 
Q 1353 -1331 966 -1331 
L 506 -1331 
L 506 -850 
L 844 -850 
Q 1081 -850 1212 -737 
Q 1344 -625 1503 -206 
L 1606 56 
L 191 3500 
L 800 3500 
L 1894 763 
L 2988 3500 
L 3597 3500 
L 2059 -325 
z
" transform="scale(0.015625)"/>
      </defs>
      <use xlink:href="#DejaVuSans-61"/>
      <use xlink:href="#DejaVuSans-63" x="61.279297"/>
      <use xlink:href="#DejaVuSans-63" x="116.259766"/>
      <use xlink:href="#DejaVuSans-72" x="171.240234"/>
      <use xlink:href="#DejaVuSans-75" x="212.353516"/>
      <use xlink:href="#DejaVuSans-61" x="275.732422"/>
      <use xlink:href="#DejaVuSans-63" x="337.011719"/>
      <use xlink:href="#DejaVuSans-79" x="391.992188"/>
     </g>
    </g>
   </g>
   <g id="line2d_29">
    <path d="M 115.363636 282.306403 
L 116.380215 291.576881 
L 117.396794 293.894525 
L 118.413372 286.941593 
L 119.429951 289.259334 
L 120.446529 277.671309 
L 121.463108 293.894525 
L 122.479687 291.576881 
L 123.496265 286.941593 
L 124.512844 275.353665 
L 125.529422 277.671309 
L 126.546001 293.894525 
L 127.56258 282.306403 
L 128.579158 277.671309 
L 129.595737 289.259334 
L 130.612316 293.894525 
L 131.628894 282.306403 
L 132.645473 282.306403 
L 133.662051 277.671309 
L 134.67863 296.212072 
L 135.695209 300.847262 
L 136.711787 291.576881 
L 137.728366 298.529619 
L 138.744944 289.259334 
L 140.778102 279.988856 
L 141.79468 293.894525 
L 142.811259 305.482356 
L 143.827837 298.529619 
L 144.844416 289.259334 
L 145.860995 289.259334 
L 146.877573 284.624047 
L 147.894152 282.306403 
L 148.910731 282.306403 
L 149.927309 286.941593 
L 150.943888 300.847262 
L 151.960466 293.894525 
L 152.977045 282.306403 
L 153.993624 282.306403 
L 155.010202 298.529619 
L 156.026781 279.988856 
L 157.043359 286.941593 
L 158.059938 279.988856 
L 159.076517 286.941593 
L 160.093095 289.259334 
L 161.109674 284.624047 
L 162.126253 286.941593 
L 163.142831 291.576881 
L 164.15941 277.671309 
L 165.175988 296.212072 
L 166.192567 296.212072 
L 167.209146 286.941593 
L 168.225724 279.988856 
L 169.242303 289.259334 
L 170.258881 282.306403 
L 171.27546 291.576881 
L 172.292039 291.576881 
L 173.308617 284.624047 
L 174.325196 300.847262 
L 175.341774 270.718474 
L 176.358353 296.212072 
L 177.374932 307.8 
L 178.39151 286.941593 
L 179.408089 300.847262 
L 180.424668 282.306403 
L 181.441246 284.624047 
L 182.457825 300.847262 
L 183.474403 279.988856 
L 184.490982 293.894525 
L 185.507561 300.847262 
L 186.524139 293.894525 
L 187.540718 291.576881 
L 188.557296 279.988856 
L 189.573875 296.212072 
L 190.590454 303.164809 
L 191.607032 307.8 
L 192.623611 296.212072 
L 193.640189 286.941593 
L 194.656768 286.941593 
L 195.673347 282.306403 
L 196.689925 291.576881 
L 197.706504 289.259334 
L 198.723083 284.624047 
L 199.739661 289.259334 
L 200.75624 289.259334 
L 201.772818 286.941593 
L 202.789397 286.941593 
L 203.805976 300.847262 
L 204.822554 259.130449 
L 205.839133 286.941593 
L 206.855711 275.353665 
L 207.87229 286.941593 
L 208.888869 291.576881 
L 209.905447 282.306403 
L 210.922026 296.212072 
L 211.938604 279.988856 
L 212.955183 279.988856 
L 213.971762 291.576881 
L 214.98834 286.941593 
L 216.004919 286.941593 
L 217.021498 270.718474 
L 218.038076 289.259334 
L 219.054655 279.988856 
L 221.087812 284.624047 
L 222.104391 291.576881 
L 223.120969 296.212072 
L 224.137548 279.988856 
L 225.154126 282.306403 
L 226.170705 291.576881 
L 227.187284 282.306403 
L 228.203862 286.941593 
L 229.220441 289.259334 
L 230.237019 298.529619 
L 231.253598 291.576881 
L 232.270177 291.576881 
L 233.286755 284.624047 
L 234.303334 284.624047 
L 235.319913 289.259334 
L 236.336491 284.624047 
L 237.35307 296.212072 
L 238.369648 296.212072 
L 239.386227 286.941593 
L 240.402806 275.353665 
L 241.419384 286.941593 
L 242.435963 291.576881 
L 243.452541 286.941593 
L 244.46912 284.624047 
L 245.485699 289.259334 
L 246.502277 289.259334 
L 247.518856 282.306403 
L 248.535435 286.941593 
L 249.552013 279.988856 
L 250.568592 298.529619 
L 251.58517 286.941593 
L 252.601749 291.576881 
L 253.618328 289.259334 
L 254.634906 293.894525 
L 255.651485 305.482356 
L 256.668063 291.576881 
L 257.684642 284.624047 
L 258.701221 289.259334 
L 259.717799 291.576881 
L 260.734378 296.212072 
L 261.750956 284.624047 
L 262.767535 270.718474 
L 263.784114 289.259334 
L 265.817271 289.259334 
L 266.83385 300.847262 
L 267.850428 284.624047 
L 268.867007 277.671309 
L 269.883585 289.259334 
L 270.900164 284.624047 
L 271.916743 296.212072 
L 272.933321 296.212072 
L 273.9499 293.894525 
L 274.966478 275.353665 
L 275.983057 293.894525 
L 276.999636 279.988856 
L 278.016214 284.624047 
L 279.032793 286.941593 
L 280.049371 293.894525 
L 281.06595 291.576881 
L 282.082529 282.306403 
L 283.099107 289.259334 
L 284.115686 293.894525 
L 285.132265 289.259334 
L 286.148843 293.894525 
L 287.165422 289.259334 
L 288.182 293.894525 
L 290.215158 289.259334 
L 291.231736 289.259334 
L 292.248315 279.988856 
L 293.264893 293.894525 
L 294.281472 286.941593 
L 295.298051 293.894525 
L 296.314629 286.941593 
L 297.331208 273.036118 
L 298.347786 291.576881 
L 299.364365 293.894525 
L 300.380944 282.306403 
L 301.397522 284.624047 
L 302.414101 279.988856 
L 303.43068 282.306403 
L 304.447258 291.576881 
L 305.463837 289.259334 
L 306.480415 293.894525 
L 307.496994 284.624047 
L 308.513573 291.576881 
L 309.530151 282.306403 
L 311.563308 286.941593 
L 312.579887 298.529619 
L 313.596466 275.353665 
L 314.613044 293.894525 
L 315.629623 277.671309 
L 316.646201 266.083381 
L 317.66278 291.576881 
L 318.679359 293.894525 
L 319.695937 282.306403 
L 321.729095 286.941593 
L 322.745673 279.988856 
L 323.762252 289.259334 
L 324.77883 289.259334 
L 325.795409 284.624047 
L 326.811988 296.212072 
L 327.828566 291.576881 
L 328.845145 296.212072 
L 329.861723 286.941593 
L 330.878302 286.941593 
L 331.894881 293.894525 
L 332.911459 282.306403 
L 333.928038 284.624047 
L 334.944617 282.306403 
L 335.961195 275.353665 
L 336.977774 286.941593 
L 337.994352 286.941593 
L 339.010931 293.894525 
L 340.02751 277.671309 
L 341.044088 291.576881 
L 342.060667 286.941593 
L 343.077245 303.164809 
L 344.093824 298.529619 
L 345.110403 277.671309 
L 346.126981 286.941593 
L 347.14356 289.259334 
L 348.160138 293.894525 
L 350.193296 284.624047 
L 351.209874 286.941593 
L 352.226453 291.576881 
L 353.243032 282.306403 
L 354.25961 293.894525 
L 355.276189 279.988856 
L 356.292767 291.576881 
L 357.309346 284.624047 
L 358.325925 289.259334 
L 359.342503 286.941593 
L 360.359082 293.894525 
L 361.37566 293.894525 
L 362.392239 296.212072 
L 363.408818 282.306403 
L 364.425396 275.353665 
L 365.441975 296.212072 
L 366.458553 284.624047 
L 367.475132 286.941593 
L 368.491711 300.847262 
L 369.508289 298.529619 
L 370.524868 282.306403 
L 371.541447 289.259334 
L 372.558025 284.624047 
L 373.574604 286.941593 
L 374.591182 300.847262 
L 375.607761 275.353665 
L 377.640918 284.624047 
L 378.657497 296.212072 
L 379.674075 291.576881 
L 380.690654 291.576881 
L 381.707233 300.847262 
L 382.723811 286.941593 
L 383.74039 296.212072 
L 384.756968 289.259334 
L 385.773547 289.259334 
L 386.790126 291.576881 
L 387.806704 289.259334 
L 388.823283 298.529619 
L 390.85644 284.624047 
L 391.873019 291.576881 
L 392.889597 289.259334 
L 393.906176 289.259334 
L 394.922755 300.847262 
L 395.939333 296.212072 
L 396.955912 284.624047 
L 397.97249 284.624047 
L 398.989069 277.671309 
L 400.005648 298.529619 
L 401.022226 289.259334 
L 402.038805 289.259334 
L 403.055383 293.894525 
L 404.071962 268.400928 
L 405.088541 289.259334 
L 406.105119 289.259334 
L 407.121698 273.036118 
L 408.138277 282.306403 
L 410.171434 296.212072 
L 411.188012 293.894525 
L 412.204591 289.259334 
L 413.22117 298.529619 
L 414.237748 286.941593 
L 415.254327 293.894525 
L 416.270905 284.624047 
L 417.287484 289.259334 
L 418.304063 286.941593 
L 419.320641 293.894525 
L 420.33722 291.576881 
L 421.353799 291.576881 
L 422.370377 275.353665 
L 423.386956 289.259334 
L 424.403534 296.212072 
L 425.420113 300.847262 
L 426.436692 279.988856 
L 427.45327 291.576881 
L 428.469849 291.576881 
L 429.486427 289.259334 
L 430.503006 275.353665 
L 431.519585 291.576881 
L 432.536163 296.212072 
L 433.552742 282.306403 
L 434.56932 284.624047 
L 436.602478 284.624047 
L 437.619056 282.306403 
L 438.635635 300.847262 
L 439.652214 296.212072 
L 440.668792 289.259334 
L 441.685371 277.671309 
L 442.701949 298.529619 
L 443.718528 289.259334 
L 444.735107 291.576881 
L 445.751685 291.576881 
L 446.768264 279.988856 
L 447.784842 282.306403 
L 448.801421 282.306403 
L 449.818 286.941593 
L 450.834578 305.482356 
L 451.851157 286.941593 
L 452.867735 282.306403 
L 453.884314 293.894525 
L 454.900893 282.306403 
L 455.917471 289.259334 
L 456.93405 286.941593 
L 457.950629 289.259334 
L 458.967207 300.847262 
L 459.983786 286.941593 
L 461.000364 293.894525 
L 463.033522 284.624047 
L 464.0501 293.894525 
L 467.099836 293.894525 
L 468.116415 298.529619 
L 469.132993 282.306403 
L 470.149572 286.941593 
L 471.16615 293.894525 
L 474.215886 293.894525 
L 475.232465 303.164809 
L 476.249044 293.894525 
L 477.265622 279.988856 
L 478.282201 282.306403 
L 479.298779 293.894525 
L 480.315358 291.576881 
L 481.331937 284.624047 
L 482.348515 298.529619 
L 483.365094 286.941593 
L 484.381672 296.212072 
L 485.398251 286.941593 
L 486.41483 293.894525 
L 487.431408 284.624047 
L 488.447987 298.529619 
L 489.464565 291.576881 
L 490.481144 282.306403 
L 491.497723 291.576881 
L 492.514301 289.259334 
L 493.53088 284.624047 
L 494.547459 284.624047 
L 495.564037 296.212072 
L 496.580616 286.941593 
L 497.597194 286.941593 
L 498.613773 282.306403 
L 499.630352 286.941593 
L 500.64693 289.259334 
L 501.663509 284.624047 
L 502.680087 289.259334 
L 503.696666 291.576881 
L 504.713245 289.259334 
L 505.729823 282.306403 
L 507.762981 296.212072 
L 508.779559 289.259334 
L 509.796138 277.671309 
L 510.812716 286.941593 
L 511.829295 286.941593 
L 512.845874 279.988856 
L 513.862452 289.259334 
L 514.879031 286.941593 
L 515.895609 296.212072 
L 516.912188 291.576881 
L 517.928767 293.894525 
L 518.945345 289.259334 
L 520.978502 289.259334 
L 521.995081 286.941593 
L 523.01166 291.576881 
L 524.028238 284.624047 
L 525.044817 284.624047 
L 526.061396 291.576881 
L 527.077974 282.306403 
L 528.094553 286.941593 
L 530.12771 291.576881 
L 531.144289 291.576881 
L 532.160867 277.671309 
L 534.194024 286.941593 
L 535.210603 286.941593 
L 536.227182 284.624047 
L 537.24376 303.164809 
L 538.260339 286.941593 
L 539.276917 296.212072 
L 540.293496 286.941593 
L 541.310075 293.894525 
L 542.326653 293.894525 
L 543.343232 289.259334 
L 544.359811 305.482356 
L 545.376389 296.212072 
L 546.392968 273.036118 
L 548.426125 291.576881 
L 550.459282 286.941593 
L 551.475861 293.894525 
L 552.492439 277.671309 
L 553.509018 296.212072 
L 554.525597 270.718474 
L 555.542175 275.353665 
L 556.558754 296.212072 
L 557.575332 286.941593 
L 558.591911 282.306403 
L 559.60849 293.894525 
L 560.625068 298.529619 
L 562.658226 289.259334 
L 564.691383 270.718474 
L 565.707961 286.941593 
L 566.72454 284.624047 
L 567.741119 289.259334 
L 568.757697 298.529619 
L 569.774276 284.624047 
L 570.790854 286.941593 
L 571.807433 286.941593 
L 572.824012 296.212072 
L 573.84059 293.894525 
L 574.857169 292.915932 
L 575.873747 289.259334 
L 576.890326 296.212072 
L 577.906905 283.284996 
L 578.923483 284.624047 
L 579.940062 282.306403 
L 580.956641 286.941593 
L 581.973219 284.624047 
L 582.989798 289.619792 
L 584.006376 258.100418 
L 585.022955 260.263552 
L 586.039534 253.774343 
L 587.056112 227.405224 
L 588.072691 246.666999 
L 589.089269 221.533956 
L 590.105848 226.993231 
L 592.139005 189.087524 
L 593.155584 195.679901 
L 595.188741 158.031776 
L 596.20532 151.54247 
L 597.221898 154.83861 
L 598.238477 133.104778 
L 600.271634 155.044655 
L 601.288213 123.679887 
L 602.304791 132.692785 
L 603.32137 146.752867 
L 604.337949 127.800111 
L 605.354527 114.873035 
L 606.371106 110.340818 
L 607.387684 104.727034 
L 608.404263 143.920159 
L 609.420842 108.383729 
L 610.43742 102.615436 
L 611.453999 116.521008 
L 612.470578 104.572525 
L 613.487156 108.229219 
L 614.503735 86.340781 
L 615.520313 94.89015 
L 616.536892 72.898738 
L 617.553471 75.731349 
L 618.570049 70.220636 
L 619.586628 84.641176 
L 620.603206 65.945903 
L 621.619785 55.8 
L 622.636364 59.199114 
L 622.636364 59.199114 
" clip-path="url(#p033957408f)" style="fill: none; stroke: #1f77b4; stroke-width: 1.5; stroke-linecap: square"/>
   </g>
   <g id="line2d_30">
    <path d="M 115.363636 206.890193 
L 581.973219 206.890193 
L 582.989798 208.847185 
L 584.006376 189.928786 
L 585.022955 198.409441 
L 586.039534 186.014705 
L 587.056112 164.486725 
L 588.072691 189.928786 
L 589.089269 172.96738 
L 590.105848 189.928786 
L 591.122427 191.885779 
L 592.139005 164.486725 
L 593.155584 171.01029 
L 594.172163 154.048884 
L 595.188741 164.486725 
L 596.20532 164.486725 
L 597.221898 181.448132 
L 598.238477 181.448132 
L 599.255056 179.490945 
L 600.271634 198.409441 
L 601.288213 187.971697 
L 602.304791 186.014705 
L 603.32137 202.976015 
L 606.371106 202.976015 
L 607.387684 177.533953 
L 608.404263 211.456767 
L 609.420842 228.418077 
L 610.43742 217.980333 
L 611.453999 202.976015 
L 612.470578 236.898829 
L 613.487156 211.456767 
L 614.503735 202.976015 
L 615.520313 211.456767 
L 616.536892 192.538271 
L 617.553471 201.018926 
L 618.570049 249.94596 
L 619.586628 268.864456 
L 620.603206 228.418077 
L 621.619785 251.90305 
L 622.636364 226.460988 
L 622.636364 226.460988 
" clip-path="url(#p033957408f)" style="fill: none; stroke: #ff7f0e; stroke-width: 1.5; stroke-linecap: square"/>
   </g>
   <g id="patch_3">
    <path d="M 90 320.4 
L 90 43.2 
" style="fill: none; stroke: #000000; stroke-width: 0.8; stroke-linejoin: miter; stroke-linecap: square"/>
   </g>
   <g id="patch_4">
    <path d="M 648 320.4 
L 648 43.2 
" style="fill: none; stroke: #000000; stroke-width: 0.8; stroke-linejoin: miter; stroke-linecap: square"/>
   </g>
   <g id="patch_5">
    <path d="M 90 320.4 
L 648 320.4 
" style="fill: none; stroke: #000000; stroke-width: 0.8; stroke-linejoin: miter; stroke-linecap: square"/>
   </g>
   <g id="patch_6">
    <path d="M 90 43.2 
L 648 43.2 
" style="fill: none; stroke: #000000; stroke-width: 0.8; stroke-linejoin: miter; stroke-linecap: square"/>
   </g>
   <g id="text_17">
    <!-- model train and validation accracy over time -->
    <g transform="translate(233.87625 37.2) scale(0.12 -0.12)">
     <defs>
      <path id="DejaVuSans-6d" d="M 3328 2828 
Q 3544 3216 3844 3400 
Q 4144 3584 4550 3584 
Q 5097 3584 5394 3201 
Q 5691 2819 5691 2113 
L 5691 0 
L 5113 0 
L 5113 2094 
Q 5113 2597 4934 2840 
Q 4756 3084 4391 3084 
Q 3944 3084 3684 2787 
Q 3425 2491 3425 1978 
L 3425 0 
L 2847 0 
L 2847 2094 
Q 2847 2600 2669 2842 
Q 2491 3084 2119 3084 
Q 1678 3084 1418 2786 
Q 1159 2488 1159 1978 
L 1159 0 
L 581 0 
L 581 3500 
L 1159 3500 
L 1159 2956 
Q 1356 3278 1631 3431 
Q 1906 3584 2284 3584 
Q 2666 3584 2933 3390 
Q 3200 3197 3328 2828 
z
" transform="scale(0.015625)"/>
      <path id="DejaVuSans-64" d="M 2906 2969 
L 2906 4863 
L 3481 4863 
L 3481 0 
L 2906 0 
L 2906 525 
Q 2725 213 2448 61 
Q 2172 -91 1784 -91 
Q 1150 -91 751 415 
Q 353 922 353 1747 
Q 353 2572 751 3078 
Q 1150 3584 1784 3584 
Q 2172 3584 2448 3432 
Q 2725 3281 2906 2969 
z
M 947 1747 
Q 947 1113 1208 752 
Q 1469 391 1925 391 
Q 2381 391 2643 752 
Q 2906 1113 2906 1747 
Q 2906 2381 2643 2742 
Q 2381 3103 1925 3103 
Q 1469 3103 1208 2742 
Q 947 2381 947 1747 
z
" transform="scale(0.015625)"/>
      <path id="DejaVuSans-6c" d="M 603 4863 
L 1178 4863 
L 1178 0 
L 603 0 
L 603 4863 
z
" transform="scale(0.015625)"/>
      <path id="DejaVuSans-20" transform="scale(0.015625)"/>
      <path id="DejaVuSans-74" d="M 1172 4494 
L 1172 3500 
L 2356 3500 
L 2356 3053 
L 1172 3053 
L 1172 1153 
Q 1172 725 1289 603 
Q 1406 481 1766 481 
L 2356 481 
L 2356 0 
L 1766 0 
Q 1100 0 847 248 
Q 594 497 594 1153 
L 594 3053 
L 172 3053 
L 172 3500 
L 594 3500 
L 594 4494 
L 1172 4494 
z
" transform="scale(0.015625)"/>
      <path id="DejaVuSans-69" d="M 603 3500 
L 1178 3500 
L 1178 0 
L 603 0 
L 603 3500 
z
M 603 4863 
L 1178 4863 
L 1178 4134 
L 603 4134 
L 603 4863 
z
" transform="scale(0.015625)"/>
      <path id="DejaVuSans-6e" d="M 3513 2113 
L 3513 0 
L 2938 0 
L 2938 2094 
Q 2938 2591 2744 2837 
Q 2550 3084 2163 3084 
Q 1697 3084 1428 2787 
Q 1159 2491 1159 1978 
L 1159 0 
L 581 0 
L 581 3500 
L 1159 3500 
L 1159 2956 
Q 1366 3272 1645 3428 
Q 1925 3584 2291 3584 
Q 2894 3584 3203 3211 
Q 3513 2838 3513 2113 
z
" transform="scale(0.015625)"/>
      <path id="DejaVuSans-76" d="M 191 3500 
L 800 3500 
L 1894 563 
L 2988 3500 
L 3597 3500 
L 2284 0 
L 1503 0 
L 191 3500 
z
" transform="scale(0.015625)"/>
     </defs>
     <use xlink:href="#DejaVuSans-6d"/>
     <use xlink:href="#DejaVuSans-6f" x="97.412109"/>
     <use xlink:href="#DejaVuSans-64" x="158.59375"/>
     <use xlink:href="#DejaVuSans-65" x="222.070312"/>
     <use xlink:href="#DejaVuSans-6c" x="283.59375"/>
     <use xlink:href="#DejaVuSans-20" x="311.376953"/>
     <use xlink:href="#DejaVuSans-74" x="343.164062"/>
     <use xlink:href="#DejaVuSans-72" x="382.373047"/>
     <use xlink:href="#DejaVuSans-61" x="423.486328"/>
     <use xlink:href="#DejaVuSans-69" x="484.765625"/>
     <use xlink:href="#DejaVuSans-6e" x="512.548828"/>
     <use xlink:href="#DejaVuSans-20" x="575.927734"/>
     <use xlink:href="#DejaVuSans-61" x="607.714844"/>
     <use xlink:href="#DejaVuSans-6e" x="668.994141"/>
     <use xlink:href="#DejaVuSans-64" x="732.373047"/>
     <use xlink:href="#DejaVuSans-20" x="795.849609"/>
     <use xlink:href="#DejaVuSans-76" x="827.636719"/>
     <use xlink:href="#DejaVuSans-61" x="886.816406"/>
     <use xlink:href="#DejaVuSans-6c" x="948.095703"/>
     <use xlink:href="#DejaVuSans-69" x="975.878906"/>
     <use xlink:href="#DejaVuSans-64" x="1003.662109"/>
     <use xlink:href="#DejaVuSans-61" x="1067.138672"/>
     <use xlink:href="#DejaVuSans-74" x="1128.417969"/>
     <use xlink:href="#DejaVuSans-69" x="1167.626953"/>
     <use xlink:href="#DejaVuSans-6f" x="1195.410156"/>
     <use xlink:href="#DejaVuSans-6e" x="1256.591797"/>
     <use xlink:href="#DejaVuSans-20" x="1319.970703"/>
     <use xlink:href="#DejaVuSans-61" x="1351.757812"/>
     <use xlink:href="#DejaVuSans-63" x="1413.037109"/>
     <use xlink:href="#DejaVuSans-63" x="1468.017578"/>
     <use xlink:href="#DejaVuSans-72" x="1522.998047"/>
     <use xlink:href="#DejaVuSans-61" x="1564.111328"/>
     <use xlink:href="#DejaVuSans-63" x="1625.390625"/>
     <use xlink:href="#DejaVuSans-79" x="1680.371094"/>
     <use xlink:href="#DejaVuSans-20" x="1739.550781"/>
     <use xlink:href="#DejaVuSans-6f" x="1771.337891"/>
     <use xlink:href="#DejaVuSans-76" x="1832.519531"/>
     <use xlink:href="#DejaVuSans-65" x="1891.699219"/>
     <use xlink:href="#DejaVuSans-72" x="1953.222656"/>
     <use xlink:href="#DejaVuSans-20" x="1994.335938"/>
     <use xlink:href="#DejaVuSans-74" x="2026.123047"/>
     <use xlink:href="#DejaVuSans-69" x="2065.332031"/>
     <use xlink:href="#DejaVuSans-6d" x="2093.115234"/>
     <use xlink:href="#DejaVuSans-65" x="2190.527344"/>
    </g>
   </g>
   <g id="legend_1">
    <g id="patch_7">
     <path d="M 97 80.55625 
L 178.234375 80.55625 
Q 180.234375 80.55625 180.234375 78.55625 
L 180.234375 50.2 
Q 180.234375 48.2 178.234375 48.2 
L 97 48.2 
Q 95 48.2 95 50.2 
L 95 78.55625 
Q 95 80.55625 97 80.55625 
z
" style="fill: #ffffff; opacity: 0.8; stroke: #cccccc; stroke-linejoin: miter"/>
    </g>
    <g id="line2d_31">
     <path d="M 99 56.298437 
L 109 56.298437 
L 119 56.298437 
" style="fill: none; stroke: #1f77b4; stroke-width: 1.5; stroke-linecap: square"/>
    </g>
    <g id="text_18">
     <!-- train -->
     <g transform="translate(127 59.798437) scale(0.1 -0.1)">
      <use xlink:href="#DejaVuSans-74"/>
      <use xlink:href="#DejaVuSans-72" x="39.208984"/>
      <use xlink:href="#DejaVuSans-61" x="80.322266"/>
      <use xlink:href="#DejaVuSans-69" x="141.601562"/>
      <use xlink:href="#DejaVuSans-6e" x="169.384766"/>
     </g>
    </g>
    <g id="line2d_32">
     <path d="M 99 70.976562 
L 109 70.976562 
L 119 70.976562 
" style="fill: none; stroke: #ff7f0e; stroke-width: 1.5; stroke-linecap: square"/>
    </g>
    <g id="text_19">
     <!-- validation -->
     <g transform="translate(127 74.476562) scale(0.1 -0.1)">
      <use xlink:href="#DejaVuSans-76"/>
      <use xlink:href="#DejaVuSans-61" x="59.179688"/>
      <use xlink:href="#DejaVuSans-6c" x="120.458984"/>
      <use xlink:href="#DejaVuSans-69" x="148.242188"/>
      <use xlink:href="#DejaVuSans-64" x="176.025391"/>
      <use xlink:href="#DejaVuSans-61" x="239.501953"/>
      <use xlink:href="#DejaVuSans-74" x="300.78125"/>
      <use xlink:href="#DejaVuSans-69" x="339.990234"/>
      <use xlink:href="#DejaVuSans-6f" x="367.773438"/>
      <use xlink:href="#DejaVuSans-6e" x="428.955078"/>
     </g>
    </g>
   </g>
  </g>
 </g>
 <defs>
  <clipPath id="p033957408f">
   <rect x="90" y="43.2" width="558" height="277.2"/>
  </clipPath>
 </defs>
</svg>
