<?xml version="1.0" encoding="utf-8" standalone="no"?>
<!DOCTYPE svg PUBLIC "-//W3C//DTD SVG 1.1//EN"
  "http://www.w3.org/Graphics/SVG/1.1/DTD/svg11.dtd">
<svg xmlns:xlink="http://www.w3.org/1999/xlink" width="720pt" height="360pt" viewBox="0 0 720 360" xmlns="http://www.w3.org/2000/svg" version="1.1">
 <metadata>
  <rdf:RDF xmlns:dc="http://purl.org/dc/elements/1.1/" xmlns:cc="http://creativecommons.org/ns#" xmlns:rdf="http://www.w3.org/1999/02/22-rdf-syntax-ns#">
   <cc:Work>
    <dc:type rdf:resource="http://purl.org/dc/dcmitype/StillImage"/>
    <dc:date>2023-05-24T12:21:31.201226</dc:date>
    <dc:format>image/svg+xml</dc:format>
    <dc:creator>
     <cc:Agent>
      <dc:title>Matplotlib v3.7.1, https://matplotlib.org/</dc:title>
     </cc:Agent>
    </dc:creator>
   </cc:Work>
  </rdf:RDF>
 </metadata>
 <defs>
  <style type="text/css">*{stroke-linejoin: round; stroke-linecap: butt}</style>
 </defs>
 <g id="figure_1">
  <g id="patch_1">
   <path d="M 0 360 
L 720 360 
L 720 0 
L 0 0 
z
" style="fill: #ffffff"/>
  </g>
  <g id="axes_1">
   <g id="patch_2">
    <path d="M 90 320.4 
L 648 320.4 
L 648 43.2 
L 90 43.2 
z
" style="fill: #ffffff"/>
   </g>
   <g id="matplotlib.axis_1">
    <g id="xtick_1">
     <g id="line2d_1">
      <path d="M 115.363636 320.4 
L 115.363636 43.2 
" clip-path="url(#pa41a519813)" style="fill: none; stroke: #b0b0b0; stroke-width: 0.8; stroke-linecap: square"/>
     </g>
     <g id="line2d_2">
      <defs>
       <path id="m264b06974b" d="M 0 0 
L 0 3.5 
" style="stroke: #000000; stroke-width: 0.8"/>
      </defs>
      <g>
       <use xlink:href="#m264b06974b" x="115.363636" y="320.4" style="stroke: #000000; stroke-width: 0.8"/>
      </g>
     </g>
     <g id="text_1">
      <!-- 0 -->
      <g transform="translate(112.182386 334.998438) scale(0.1 -0.1)">
       <defs>
        <path id="DejaVuSans-30" d="M 2034 4250 
Q 1547 4250 1301 3770 
Q 1056 3291 1056 2328 
Q 1056 1369 1301 889 
Q 1547 409 2034 409 
Q 2525 409 2770 889 
Q 3016 1369 3016 2328 
Q 3016 3291 2770 3770 
Q 2525 4250 2034 4250 
z
M 2034 4750 
Q 2819 4750 3233 4129 
Q 3647 3509 3647 2328 
Q 3647 1150 3233 529 
Q 2819 -91 2034 -91 
Q 1250 -91 836 529 
Q 422 1150 422 2328 
Q 422 3509 836 4129 
Q 1250 4750 2034 4750 
z
" transform="scale(0.015625)"/>
       </defs>
       <use xlink:href="#DejaVuSans-30"/>
      </g>
     </g>
    </g>
    <g id="xtick_2">
     <g id="line2d_3">
      <path d="M 217.021498 320.4 
L 217.021498 43.2 
" clip-path="url(#pa41a519813)" style="fill: none; stroke: #b0b0b0; stroke-width: 0.8; stroke-linecap: square"/>
     </g>
     <g id="line2d_4">
      <g>
       <use xlink:href="#m264b06974b" x="217.021498" y="320.4" style="stroke: #000000; stroke-width: 0.8"/>
      </g>
     </g>
     <g id="text_2">
      <!-- 100 -->
      <g transform="translate(207.477748 334.998438) scale(0.1 -0.1)">
       <defs>
        <path id="DejaVuSans-31" d="M 794 531 
L 1825 531 
L 1825 4091 
L 703 3866 
L 703 4441 
L 1819 4666 
L 2450 4666 
L 2450 531 
L 3481 531 
L 3481 0 
L 794 0 
L 794 531 
z
" transform="scale(0.015625)"/>
       </defs>
       <use xlink:href="#DejaVuSans-31"/>
       <use xlink:href="#DejaVuSans-30" x="63.623047"/>
       <use xlink:href="#DejaVuSans-30" x="127.246094"/>
      </g>
     </g>
    </g>
    <g id="xtick_3">
     <g id="line2d_5">
      <path d="M 318.679359 320.4 
L 318.679359 43.2 
" clip-path="url(#pa41a519813)" style="fill: none; stroke: #b0b0b0; stroke-width: 0.8; stroke-linecap: square"/>
     </g>
     <g id="line2d_6">
      <g>
       <use xlink:href="#m264b06974b" x="318.679359" y="320.4" style="stroke: #000000; stroke-width: 0.8"/>
      </g>
     </g>
     <g id="text_3">
      <!-- 200 -->
      <g transform="translate(309.135609 334.998438) scale(0.1 -0.1)">
       <defs>
        <path id="DejaVuSans-32" d="M 1228 531 
L 3431 531 
L 3431 0 
L 469 0 
L 469 531 
Q 828 903 1448 1529 
Q 2069 2156 2228 2338 
Q 2531 2678 2651 2914 
Q 2772 3150 2772 3378 
Q 2772 3750 2511 3984 
Q 2250 4219 1831 4219 
Q 1534 4219 1204 4116 
Q 875 4013 500 3803 
L 500 4441 
Q 881 4594 1212 4672 
Q 1544 4750 1819 4750 
Q 2544 4750 2975 4387 
Q 3406 4025 3406 3419 
Q 3406 3131 3298 2873 
Q 3191 2616 2906 2266 
Q 2828 2175 2409 1742 
Q 1991 1309 1228 531 
z
" transform="scale(0.015625)"/>
       </defs>
       <use xlink:href="#DejaVuSans-32"/>
       <use xlink:href="#DejaVuSans-30" x="63.623047"/>
       <use xlink:href="#DejaVuSans-30" x="127.246094"/>
      </g>
     </g>
    </g>
    <g id="xtick_4">
     <g id="line2d_7">
      <path d="M 420.33722 320.4 
L 420.33722 43.2 
" clip-path="url(#pa41a519813)" style="fill: none; stroke: #b0b0b0; stroke-width: 0.8; stroke-linecap: square"/>
     </g>
     <g id="line2d_8">
      <g>
       <use xlink:href="#m264b06974b" x="420.33722" y="320.4" style="stroke: #000000; stroke-width: 0.8"/>
      </g>
     </g>
     <g id="text_4">
      <!-- 300 -->
      <g transform="translate(410.79347 334.998438) scale(0.1 -0.1)">
       <defs>
        <path id="DejaVuSans-33" d="M 2597 2516 
Q 3050 2419 3304 2112 
Q 3559 1806 3559 1356 
Q 3559 666 3084 287 
Q 2609 -91 1734 -91 
Q 1441 -91 1130 -33 
Q 819 25 488 141 
L 488 750 
Q 750 597 1062 519 
Q 1375 441 1716 441 
Q 2309 441 2620 675 
Q 2931 909 2931 1356 
Q 2931 1769 2642 2001 
Q 2353 2234 1838 2234 
L 1294 2234 
L 1294 2753 
L 1863 2753 
Q 2328 2753 2575 2939 
Q 2822 3125 2822 3475 
Q 2822 3834 2567 4026 
Q 2313 4219 1838 4219 
Q 1578 4219 1281 4162 
Q 984 4106 628 3988 
L 628 4550 
Q 988 4650 1302 4700 
Q 1616 4750 1894 4750 
Q 2613 4750 3031 4423 
Q 3450 4097 3450 3541 
Q 3450 3153 3228 2886 
Q 3006 2619 2597 2516 
z
" transform="scale(0.015625)"/>
       </defs>
       <use xlink:href="#DejaVuSans-33"/>
       <use xlink:href="#DejaVuSans-30" x="63.623047"/>
       <use xlink:href="#DejaVuSans-30" x="127.246094"/>
      </g>
     </g>
    </g>
    <g id="xtick_5">
     <g id="line2d_9">
      <path d="M 521.995081 320.4 
L 521.995081 43.2 
" clip-path="url(#pa41a519813)" style="fill: none; stroke: #b0b0b0; stroke-width: 0.8; stroke-linecap: square"/>
     </g>
     <g id="line2d_10">
      <g>
       <use xlink:href="#m264b06974b" x="521.995081" y="320.4" style="stroke: #000000; stroke-width: 0.8"/>
      </g>
     </g>
     <g id="text_5">
      <!-- 400 -->
      <g transform="translate(512.451331 334.998438) scale(0.1 -0.1)">
       <defs>
        <path id="DejaVuSans-34" d="M 2419 4116 
L 825 1625 
L 2419 1625 
L 2419 4116 
z
M 2253 4666 
L 3047 4666 
L 3047 1625 
L 3713 1625 
L 3713 1100 
L 3047 1100 
L 3047 0 
L 2419 0 
L 2419 1100 
L 313 1100 
L 313 1709 
L 2253 4666 
z
" transform="scale(0.015625)"/>
       </defs>
       <use xlink:href="#DejaVuSans-34"/>
       <use xlink:href="#DejaVuSans-30" x="63.623047"/>
       <use xlink:href="#DejaVuSans-30" x="127.246094"/>
      </g>
     </g>
    </g>
    <g id="xtick_6">
     <g id="line2d_11">
      <path d="M 623.652942 320.4 
L 623.652942 43.2 
" clip-path="url(#pa41a519813)" style="fill: none; stroke: #b0b0b0; stroke-width: 0.8; stroke-linecap: square"/>
     </g>
     <g id="line2d_12">
      <g>
       <use xlink:href="#m264b06974b" x="623.652942" y="320.4" style="stroke: #000000; stroke-width: 0.8"/>
      </g>
     </g>
     <g id="text_6">
      <!-- 500 -->
      <g transform="translate(614.109192 334.998438) scale(0.1 -0.1)">
       <defs>
        <path id="DejaVuSans-35" d="M 691 4666 
L 3169 4666 
L 3169 4134 
L 1269 4134 
L 1269 2991 
Q 1406 3038 1543 3061 
Q 1681 3084 1819 3084 
Q 2600 3084 3056 2656 
Q 3513 2228 3513 1497 
Q 3513 744 3044 326 
Q 2575 -91 1722 -91 
Q 1428 -91 1123 -41 
Q 819 9 494 109 
L 494 744 
Q 775 591 1075 516 
Q 1375 441 1709 441 
Q 2250 441 2565 725 
Q 2881 1009 2881 1497 
Q 2881 1984 2565 2268 
Q 2250 2553 1709 2553 
Q 1456 2553 1204 2497 
Q 953 2441 691 2322 
L 691 4666 
z
" transform="scale(0.015625)"/>
       </defs>
       <use xlink:href="#DejaVuSans-35"/>
       <use xlink:href="#DejaVuSans-30" x="63.623047"/>
       <use xlink:href="#DejaVuSans-30" x="127.246094"/>
      </g>
     </g>
    </g>
    <g id="text_7">
     <!-- epoch -->
     <g transform="translate(353.771875 348.676562) scale(0.1 -0.1)">
      <defs>
       <path id="DejaVuSans-65" d="M 3597 1894 
L 3597 1613 
L 953 1613 
Q 991 1019 1311 708 
Q 1631 397 2203 397 
Q 2534 397 2845 478 
Q 3156 559 3463 722 
L 3463 178 
Q 3153 47 2828 -22 
Q 2503 -91 2169 -91 
Q 1331 -91 842 396 
Q 353 884 353 1716 
Q 353 2575 817 3079 
Q 1281 3584 2069 3584 
Q 2775 3584 3186 3129 
Q 3597 2675 3597 1894 
z
M 3022 2063 
Q 3016 2534 2758 2815 
Q 2500 3097 2075 3097 
Q 1594 3097 1305 2825 
Q 1016 2553 972 2059 
L 3022 2063 
z
" transform="scale(0.015625)"/>
       <path id="DejaVuSans-70" d="M 1159 525 
L 1159 -1331 
L 581 -1331 
L 581 3500 
L 1159 3500 
L 1159 2969 
Q 1341 3281 1617 3432 
Q 1894 3584 2278 3584 
Q 2916 3584 3314 3078 
Q 3713 2572 3713 1747 
Q 3713 922 3314 415 
Q 2916 -91 2278 -91 
Q 1894 -91 1617 61 
Q 1341 213 1159 525 
z
M 3116 1747 
Q 3116 2381 2855 2742 
Q 2594 3103 2138 3103 
Q 1681 3103 1420 2742 
Q 1159 2381 1159 1747 
Q 1159 1113 1420 752 
Q 1681 391 2138 391 
Q 2594 391 2855 752 
Q 3116 1113 3116 1747 
z
" transform="scale(0.015625)"/>
       <path id="DejaVuSans-6f" d="M 1959 3097 
Q 1497 3097 1228 2736 
Q 959 2375 959 1747 
Q 959 1119 1226 758 
Q 1494 397 1959 397 
Q 2419 397 2687 759 
Q 2956 1122 2956 1747 
Q 2956 2369 2687 2733 
Q 2419 3097 1959 3097 
z
M 1959 3584 
Q 2709 3584 3137 3096 
Q 3566 2609 3566 1747 
Q 3566 888 3137 398 
Q 2709 -91 1959 -91 
Q 1206 -91 779 398 
Q 353 888 353 1747 
Q 353 2609 779 3096 
Q 1206 3584 1959 3584 
z
" transform="scale(0.015625)"/>
       <path id="DejaVuSans-63" d="M 3122 3366 
L 3122 2828 
Q 2878 2963 2633 3030 
Q 2388 3097 2138 3097 
Q 1578 3097 1268 2742 
Q 959 2388 959 1747 
Q 959 1106 1268 751 
Q 1578 397 2138 397 
Q 2388 397 2633 464 
Q 2878 531 3122 666 
L 3122 134 
Q 2881 22 2623 -34 
Q 2366 -91 2075 -91 
Q 1284 -91 818 406 
Q 353 903 353 1747 
Q 353 2603 823 3093 
Q 1294 3584 2113 3584 
Q 2378 3584 2631 3529 
Q 2884 3475 3122 3366 
z
" transform="scale(0.015625)"/>
       <path id="DejaVuSans-68" d="M 3513 2113 
L 3513 0 
L 2938 0 
L 2938 2094 
Q 2938 2591 2744 2837 
Q 2550 3084 2163 3084 
Q 1697 3084 1428 2787 
Q 1159 2491 1159 1978 
L 1159 0 
L 581 0 
L 581 4863 
L 1159 4863 
L 1159 2956 
Q 1366 3272 1645 3428 
Q 1925 3584 2291 3584 
Q 2894 3584 3203 3211 
Q 3513 2838 3513 2113 
z
" transform="scale(0.015625)"/>
      </defs>
      <use xlink:href="#DejaVuSans-65"/>
      <use xlink:href="#DejaVuSans-70" x="61.523438"/>
      <use xlink:href="#DejaVuSans-6f" x="125"/>
      <use xlink:href="#DejaVuSans-63" x="186.181641"/>
      <use xlink:href="#DejaVuSans-68" x="241.162109"/>
     </g>
    </g>
   </g>
   <g id="matplotlib.axis_2">
    <g id="ytick_1">
     <g id="line2d_13">
      <path d="M 90 313.214358 
L 648 313.214358 
" clip-path="url(#pa41a519813)" style="fill: none; stroke: #b0b0b0; stroke-width: 0.8; stroke-linecap: square"/>
     </g>
     <g id="line2d_14">
      <defs>
       <path id="m5ef1c2cc6e" d="M 0 0 
L -3.5 0 
" style="stroke: #000000; stroke-width: 0.8"/>
      </defs>
      <g>
       <use xlink:href="#m5ef1c2cc6e" x="90" y="313.214358" style="stroke: #000000; stroke-width: 0.8"/>
      </g>
     </g>
     <g id="text_8">
      <!-- 1.200 -->
      <g transform="translate(54.371875 317.013577) scale(0.1 -0.1)">
       <defs>
        <path id="DejaVuSans-2e" d="M 684 794 
L 1344 794 
L 1344 0 
L 684 0 
L 684 794 
z
" transform="scale(0.015625)"/>
       </defs>
       <use xlink:href="#DejaVuSans-31"/>
       <use xlink:href="#DejaVuSans-2e" x="63.623047"/>
       <use xlink:href="#DejaVuSans-32" x="95.410156"/>
       <use xlink:href="#DejaVuSans-30" x="159.033203"/>
       <use xlink:href="#DejaVuSans-30" x="222.65625"/>
      </g>
     </g>
    </g>
    <g id="ytick_2">
     <g id="line2d_15">
      <path d="M 90 280.727156 
L 648 280.727156 
" clip-path="url(#pa41a519813)" style="fill: none; stroke: #b0b0b0; stroke-width: 0.8; stroke-linecap: square"/>
     </g>
     <g id="line2d_16">
      <g>
       <use xlink:href="#m5ef1c2cc6e" x="90" y="280.727156" style="stroke: #000000; stroke-width: 0.8"/>
      </g>
     </g>
     <g id="text_9">
      <!-- 1.225 -->
      <g transform="translate(54.371875 284.526375) scale(0.1 -0.1)">
       <use xlink:href="#DejaVuSans-31"/>
       <use xlink:href="#DejaVuSans-2e" x="63.623047"/>
       <use xlink:href="#DejaVuSans-32" x="95.410156"/>
       <use xlink:href="#DejaVuSans-32" x="159.033203"/>
       <use xlink:href="#DejaVuSans-35" x="222.65625"/>
      </g>
     </g>
    </g>
    <g id="ytick_3">
     <g id="line2d_17">
      <path d="M 90 248.239955 
L 648 248.239955 
" clip-path="url(#pa41a519813)" style="fill: none; stroke: #b0b0b0; stroke-width: 0.8; stroke-linecap: square"/>
     </g>
     <g id="line2d_18">
      <g>
       <use xlink:href="#m5ef1c2cc6e" x="90" y="248.239955" style="stroke: #000000; stroke-width: 0.8"/>
      </g>
     </g>
     <g id="text_10">
      <!-- 1.250 -->
      <g transform="translate(54.371875 252.039174) scale(0.1 -0.1)">
       <use xlink:href="#DejaVuSans-31"/>
       <use xlink:href="#DejaVuSans-2e" x="63.623047"/>
       <use xlink:href="#DejaVuSans-32" x="95.410156"/>
       <use xlink:href="#DejaVuSans-35" x="159.033203"/>
       <use xlink:href="#DejaVuSans-30" x="222.65625"/>
      </g>
     </g>
    </g>
    <g id="ytick_4">
     <g id="line2d_19">
      <path d="M 90 215.752753 
L 648 215.752753 
" clip-path="url(#pa41a519813)" style="fill: none; stroke: #b0b0b0; stroke-width: 0.8; stroke-linecap: square"/>
     </g>
     <g id="line2d_20">
      <g>
       <use xlink:href="#m5ef1c2cc6e" x="90" y="215.752753" style="stroke: #000000; stroke-width: 0.8"/>
      </g>
     </g>
     <g id="text_11">
      <!-- 1.275 -->
      <g transform="translate(54.371875 219.551972) scale(0.1 -0.1)">
       <defs>
        <path id="DejaVuSans-37" d="M 525 4666 
L 3525 4666 
L 3525 4397 
L 1831 0 
L 1172 0 
L 2766 4134 
L 525 4134 
L 525 4666 
z
" transform="scale(0.015625)"/>
       </defs>
       <use xlink:href="#DejaVuSans-31"/>
       <use xlink:href="#DejaVuSans-2e" x="63.623047"/>
       <use xlink:href="#DejaVuSans-32" x="95.410156"/>
       <use xlink:href="#DejaVuSans-37" x="159.033203"/>
       <use xlink:href="#DejaVuSans-35" x="222.65625"/>
      </g>
     </g>
    </g>
    <g id="ytick_5">
     <g id="line2d_21">
      <path d="M 90 183.265551 
L 648 183.265551 
" clip-path="url(#pa41a519813)" style="fill: none; stroke: #b0b0b0; stroke-width: 0.8; stroke-linecap: square"/>
     </g>
     <g id="line2d_22">
      <g>
       <use xlink:href="#m5ef1c2cc6e" x="90" y="183.265551" style="stroke: #000000; stroke-width: 0.8"/>
      </g>
     </g>
     <g id="text_12">
      <!-- 1.300 -->
      <g transform="translate(54.371875 187.06477) scale(0.1 -0.1)">
       <use xlink:href="#DejaVuSans-31"/>
       <use xlink:href="#DejaVuSans-2e" x="63.623047"/>
       <use xlink:href="#DejaVuSans-33" x="95.410156"/>
       <use xlink:href="#DejaVuSans-30" x="159.033203"/>
       <use xlink:href="#DejaVuSans-30" x="222.65625"/>
      </g>
     </g>
    </g>
    <g id="ytick_6">
     <g id="line2d_23">
      <path d="M 90 150.77835 
L 648 150.77835 
" clip-path="url(#pa41a519813)" style="fill: none; stroke: #b0b0b0; stroke-width: 0.8; stroke-linecap: square"/>
     </g>
     <g id="line2d_24">
      <g>
       <use xlink:href="#m5ef1c2cc6e" x="90" y="150.77835" style="stroke: #000000; stroke-width: 0.8"/>
      </g>
     </g>
     <g id="text_13">
      <!-- 1.325 -->
      <g transform="translate(54.371875 154.577569) scale(0.1 -0.1)">
       <use xlink:href="#DejaVuSans-31"/>
       <use xlink:href="#DejaVuSans-2e" x="63.623047"/>
       <use xlink:href="#DejaVuSans-33" x="95.410156"/>
       <use xlink:href="#DejaVuSans-32" x="159.033203"/>
       <use xlink:href="#DejaVuSans-35" x="222.65625"/>
      </g>
     </g>
    </g>
    <g id="ytick_7">
     <g id="line2d_25">
      <path d="M 90 118.291148 
L 648 118.291148 
" clip-path="url(#pa41a519813)" style="fill: none; stroke: #b0b0b0; stroke-width: 0.8; stroke-linecap: square"/>
     </g>
     <g id="line2d_26">
      <g>
       <use xlink:href="#m5ef1c2cc6e" x="90" y="118.291148" style="stroke: #000000; stroke-width: 0.8"/>
      </g>
     </g>
     <g id="text_14">
      <!-- 1.350 -->
      <g transform="translate(54.371875 122.090367) scale(0.1 -0.1)">
       <use xlink:href="#DejaVuSans-31"/>
       <use xlink:href="#DejaVuSans-2e" x="63.623047"/>
       <use xlink:href="#DejaVuSans-33" x="95.410156"/>
       <use xlink:href="#DejaVuSans-35" x="159.033203"/>
       <use xlink:href="#DejaVuSans-30" x="222.65625"/>
      </g>
     </g>
    </g>
    <g id="ytick_8">
     <g id="line2d_27">
      <path d="M 90 85.803947 
L 648 85.803947 
" clip-path="url(#pa41a519813)" style="fill: none; stroke: #b0b0b0; stroke-width: 0.8; stroke-linecap: square"/>
     </g>
     <g id="line2d_28">
      <g>
       <use xlink:href="#m5ef1c2cc6e" x="90" y="85.803947" style="stroke: #000000; stroke-width: 0.8"/>
      </g>
     </g>
     <g id="text_15">
      <!-- 1.375 -->
      <g transform="translate(54.371875 89.603165) scale(0.1 -0.1)">
       <use xlink:href="#DejaVuSans-31"/>
       <use xlink:href="#DejaVuSans-2e" x="63.623047"/>
       <use xlink:href="#DejaVuSans-33" x="95.410156"/>
       <use xlink:href="#DejaVuSans-37" x="159.033203"/>
       <use xlink:href="#DejaVuSans-35" x="222.65625"/>
      </g>
     </g>
    </g>
    <g id="ytick_9">
     <g id="line2d_29">
      <path d="M 90 53.316745 
L 648 53.316745 
" clip-path="url(#pa41a519813)" style="fill: none; stroke: #b0b0b0; stroke-width: 0.8; stroke-linecap: square"/>
     </g>
     <g id="line2d_30">
      <g>
       <use xlink:href="#m5ef1c2cc6e" x="90" y="53.316745" style="stroke: #000000; stroke-width: 0.8"/>
      </g>
     </g>
     <g id="text_16">
      <!-- 1.400 -->
      <g transform="translate(54.371875 57.115964) scale(0.1 -0.1)">
       <use xlink:href="#DejaVuSans-31"/>
       <use xlink:href="#DejaVuSans-2e" x="63.623047"/>
       <use xlink:href="#DejaVuSans-34" x="95.410156"/>
       <use xlink:href="#DejaVuSans-30" x="159.033203"/>
       <use xlink:href="#DejaVuSans-30" x="222.65625"/>
      </g>
     </g>
    </g>
    <g id="text_17">
     <!-- loss -->
     <g transform="translate(48.292188 191.457812) rotate(-90) scale(0.1 -0.1)">
      <defs>
       <path id="DejaVuSans-6c" d="M 603 4863 
L 1178 4863 
L 1178 0 
L 603 0 
L 603 4863 
z
" transform="scale(0.015625)"/>
       <path id="DejaVuSans-73" d="M 2834 3397 
L 2834 2853 
Q 2591 2978 2328 3040 
Q 2066 3103 1784 3103 
Q 1356 3103 1142 2972 
Q 928 2841 928 2578 
Q 928 2378 1081 2264 
Q 1234 2150 1697 2047 
L 1894 2003 
Q 2506 1872 2764 1633 
Q 3022 1394 3022 966 
Q 3022 478 2636 193 
Q 2250 -91 1575 -91 
Q 1294 -91 989 -36 
Q 684 19 347 128 
L 347 722 
Q 666 556 975 473 
Q 1284 391 1588 391 
Q 1994 391 2212 530 
Q 2431 669 2431 922 
Q 2431 1156 2273 1281 
Q 2116 1406 1581 1522 
L 1381 1569 
Q 847 1681 609 1914 
Q 372 2147 372 2553 
Q 372 3047 722 3315 
Q 1072 3584 1716 3584 
Q 2034 3584 2315 3537 
Q 2597 3491 2834 3397 
z
" transform="scale(0.015625)"/>
      </defs>
      <use xlink:href="#DejaVuSans-6c"/>
      <use xlink:href="#DejaVuSans-6f" x="27.783203"/>
      <use xlink:href="#DejaVuSans-73" x="88.964844"/>
      <use xlink:href="#DejaVuSans-73" x="141.064453"/>
     </g>
    </g>
   </g>
   <g id="line2d_31">
    <path d="M 115.363636 66.028312 
L 116.380215 72.647661 
L 117.396794 70.600666 
L 118.413372 67.813042 
L 119.429951 70.090389 
L 120.446529 72.830921 
L 121.463108 69.943534 
L 122.479687 69.766006 
L 123.496265 73.822506 
L 124.512844 73.165374 
L 125.529422 65.930563 
L 126.546001 63.855065 
L 127.56258 66.789855 
L 128.579158 70.258313 
L 129.595737 69.009885 
L 130.612316 70.722736 
L 131.628894 69.171612 
L 132.645473 72.424434 
L 133.662051 71.521458 
L 134.67863 60.1719 
L 135.695209 62.886096 
L 136.711787 65.04819 
L 137.728366 61.551692 
L 138.744944 65.644907 
L 139.761523 66.722313 
L 140.778102 71.865825 
L 141.79468 67.510965 
L 142.811259 58.022974 
L 143.827837 66.935626 
L 144.844416 72.887928 
L 145.860995 74.805882 
L 146.877573 72.669968 
L 147.894152 66.800079 
L 148.910731 68.527182 
L 149.927309 65.287837 
L 150.943888 60.276929 
L 151.960466 70.142439 
L 152.977045 65.557537 
L 153.993624 64.916051 
L 155.010202 66.708991 
L 156.026781 66.117386 
L 157.043359 68.658237 
L 158.059938 69.267192 
L 159.076517 66.170985 
L 160.093095 67.131433 
L 161.109674 69.124519 
L 162.126253 72.835413 
L 163.142831 65.397204 
L 164.15941 64.759745 
L 165.175988 58.669882 
L 166.192567 59.958432 
L 167.209146 71.777526 
L 168.225724 73.335776 
L 170.258881 67.927057 
L 171.27546 66.775758 
L 172.292039 67.727996 
L 173.308617 66.722004 
L 174.325196 65.113562 
L 175.341774 76.736383 
L 176.358353 66.223964 
L 177.374932 60.791544 
L 178.39151 65.174132 
L 179.408089 58.961115 
L 180.424668 61.912325 
L 181.441246 67.128955 
L 182.457825 61.262164 
L 183.474403 69.868557 
L 184.490982 62.420279 
L 185.507561 61.952447 
L 186.524139 69.875218 
L 187.540718 60.253693 
L 188.557296 70.521352 
L 189.573875 69.428609 
L 190.590454 60.989365 
L 191.607032 62.984 
L 192.623611 61.481053 
L 193.640189 72.39624 
L 194.656768 67.234604 
L 195.673347 77.450213 
L 196.689925 66.088417 
L 197.706504 68.684107 
L 198.723083 66.733002 
L 199.739661 72.050169 
L 200.75624 66.104218 
L 201.772818 66.796671 
L 202.789397 65.534301 
L 203.805976 62.535997 
L 204.822554 77.88319 
L 205.839133 71.145798 
L 206.855711 73.578057 
L 207.87229 67.417554 
L 208.888869 58.541461 
L 209.905447 65.306736 
L 210.922026 67.412907 
L 211.938604 71.005294 
L 212.955183 64.592286 
L 213.971762 64.681825 
L 214.98834 68.326727 
L 216.004919 64.728608 
L 217.021498 75.470605 
L 218.038076 67.152811 
L 219.054655 70.671151 
L 220.071233 67.919466 
L 221.087812 69.583985 
L 222.104391 71.718814 
L 223.120969 65.902679 
L 224.137548 67.857966 
L 225.154126 62.767279 
L 227.187284 67.760527 
L 228.203862 69.895511 
L 229.220441 65.528104 
L 230.237019 60.428123 
L 231.253598 65.54468 
L 232.270177 65.966193 
L 233.286755 70.542575 
L 234.303334 66.530843 
L 235.319913 71.834378 
L 236.336491 67.952927 
L 237.35307 65.021855 
L 238.369648 61.036303 
L 239.386227 69.882963 
L 240.402806 76.106205 
L 241.419384 65.607728 
L 242.435963 72.197954 
L 243.452541 69.396853 
L 244.46912 68.91384 
L 245.485699 64.266508 
L 246.502277 68.716019 
L 247.518856 63.429524 
L 248.535435 69.625966 
L 249.552013 62.133848 
L 250.568592 69.54123 
L 251.58517 72.124991 
L 252.601749 67.292231 
L 253.618328 67.603912 
L 254.634906 65.514007 
L 255.651485 62.336627 
L 256.668063 71.746388 
L 257.684642 71.622305 
L 258.701221 65.532751 
L 259.717799 68.157874 
L 260.734378 65.566987 
L 261.750956 69.960729 
L 262.767535 68.791305 
L 263.784114 67.386727 
L 264.800692 61.3469 
L 265.817271 70.407647 
L 266.83385 64.156986 
L 268.867007 64.584696 
L 269.883585 56.049252 
L 270.900164 69.53147 
L 271.916743 67.884921 
L 272.933321 73.241435 
L 273.9499 68.672024 
L 274.966478 71.048669 
L 275.983057 63.922761 
L 276.999636 70.370778 
L 278.016214 70.356062 
L 279.032793 71.349661 
L 280.049371 65.898651 
L 281.06595 68.115893 
L 282.082529 71.887512 
L 283.099107 66.368342 
L 284.115686 72.278508 
L 285.132265 66.174238 
L 286.148843 68.062604 
L 287.165422 63.338901 
L 288.182 62.457922 
L 289.198579 74.107698 
L 290.215158 64.354963 
L 291.231736 68.866127 
L 292.248315 72.296478 
L 293.264893 63.812619 
L 294.281472 68.131539 
L 295.298051 65.311848 
L 296.314629 63.012504 
L 297.331208 74.300252 
L 298.347786 66.021341 
L 299.364365 65.210072 
L 300.380944 66.39669 
L 301.397522 67.394782 
L 302.414101 68.740804 
L 303.43068 66.465006 
L 304.447258 65.810662 
L 305.463837 73.383798 
L 306.480415 69.087805 
L 307.496994 69.265488 
L 308.513573 69.670271 
L 309.530151 67.966404 
L 310.54673 71.425878 
L 311.563308 68.186533 
L 312.579887 66.831526 
L 313.596466 74.225585 
L 314.613044 74.467091 
L 315.629623 66.60582 
L 316.646201 74.668011 
L 317.66278 74.580796 
L 318.679359 66.978846 
L 319.695937 72.845637 
L 320.712516 69.281444 
L 322.745673 70.394325 
L 323.762252 72.346979 
L 324.77883 66.74524 
L 325.795409 72.296787 
L 326.811988 70.111302 
L 327.828566 72.87569 
L 328.845145 60.652434 
L 329.861723 69.856938 
L 330.878302 72.45712 
L 331.894881 67.38905 
L 332.911459 68.742353 
L 333.928038 60.958073 
L 334.944617 62.760308 
L 335.961195 71.254081 
L 336.977774 65.363898 
L 337.994352 66.455092 
L 339.010931 65.234548 
L 340.02751 72.252483 
L 341.044088 70.509579 
L 342.060667 65.462267 
L 343.077245 67.42561 
L 344.093824 71.880851 
L 345.110403 68.644605 
L 346.126981 74.151847 
L 347.14356 57.093662 
L 348.160138 64.400352 
L 349.176717 64.43877 
L 350.193296 70.832723 
L 351.209874 70.981438 
L 352.226453 58.476088 
L 353.243032 71.823689 
L 354.25961 59.399358 
L 355.276189 72.259919 
L 356.292767 63.721686 
L 357.309346 64.619551 
L 358.325925 61.233505 
L 359.342503 67.888794 
L 360.359082 64.977085 
L 361.37566 68.41735 
L 362.392239 64.609017 
L 363.408818 66.424884 
L 364.425396 73.273966 
L 365.441975 69.650907 
L 366.458553 64.085882 
L 367.475132 66.920445 
L 368.491711 64.569979 
L 369.508289 65.754739 
L 370.524868 64.822794 
L 371.541447 64.815049 
L 372.558025 67.831012 
L 373.574604 67.700732 
L 374.591182 58.315755 
L 375.607761 67.029502 
L 376.62434 71.516655 
L 377.640918 69.763527 
L 378.657497 64.162873 
L 379.674075 70.483709 
L 380.690654 63.437579 
L 381.707233 58.43891 
L 382.723811 68.770237 
L 383.74039 63.178723 
L 384.756968 71.67451 
L 385.773547 65.274824 
L 387.806704 68.541279 
L 388.823283 69.537667 
L 389.839862 67.736051 
L 390.85644 67.608714 
L 391.873019 70.769519 
L 392.889597 65.689212 
L 393.906176 66.813091 
L 394.922755 60.568007 
L 395.939333 65.766977 
L 396.955912 65.775342 
L 397.97249 69.68855 
L 398.989069 70.822499 
L 400.005648 69.724644 
L 401.022226 67.010758 
L 402.038805 63.404738 
L 403.055383 68.032551 
L 404.071962 74.847553 
L 405.088541 70.772773 
L 406.105119 72.50979 
L 407.121698 71.949477 
L 408.138277 67.352027 
L 409.154855 66.089966 
L 411.188012 65.941407 
L 412.204591 58.967621 
L 413.22117 58.85686 
L 414.237748 64.475948 
L 415.254327 65.513233 
L 416.270905 68.744987 
L 417.287484 68.280254 
L 418.304063 71.770555 
L 419.320641 66.14496 
L 420.33722 66.599624 
L 421.353799 64.379439 
L 422.370377 72.965229 
L 423.386956 67.961602 
L 424.403534 64.341176 
L 425.420113 58.903798 
L 426.436692 69.132419 
L 427.45327 73.916692 
L 428.469849 63.294132 
L 429.486427 71.697592 
L 430.503006 67.000069 
L 431.519585 68.603708 
L 432.536163 66.491496 
L 433.552742 70.735749 
L 434.56932 63.433397 
L 435.585899 67.679509 
L 436.602478 68.760323 
L 437.619056 68.146411 
L 438.635635 67.106183 
L 439.652214 67.063118 
L 440.668792 65.738009 
L 441.685371 69.768174 
L 442.701949 68.463668 
L 443.718528 64.889561 
L 444.735107 69.47973 
L 445.751685 64.964693 
L 446.768264 66.304208 
L 447.784842 70.095656 
L 448.801421 69.239463 
L 449.818 68.562192 
L 450.834578 67.200369 
L 452.867735 76.88045 
L 453.884314 64.072405 
L 454.900893 65.826927 
L 455.917471 64.48989 
L 456.93405 69.483603 
L 457.950629 70.009681 
L 458.967207 62.353047 
L 459.983786 68.62555 
L 461.000364 71.659483 
L 462.016943 70.901039 
L 463.033522 61.611488 
L 464.0501 63.023192 
L 465.066679 70.844032 
L 466.083257 72.575008 
L 467.099836 66.295688 
L 468.116415 62.364046 
L 469.132993 73.741643 
L 471.16615 64.424053 
L 472.182729 65.915537 
L 473.199308 69.405992 
L 474.215886 63.962573 
L 475.232465 55.8 
L 476.249044 67.519331 
L 477.265622 71.657624 
L 478.282201 70.538237 
L 479.298779 66.277099 
L 480.315358 66.879858 
L 481.331937 70.341655 
L 482.348515 60.901686 
L 483.365094 68.002034 
L 484.381672 62.625846 
L 485.398251 67.060174 
L 486.41483 61.174949 
L 487.431408 58.040324 
L 488.447987 64.494847 
L 489.464565 70.017736 
L 490.481144 76.229979 
L 491.497723 61.802958 
L 492.514301 65.688592 
L 493.53088 67.480913 
L 494.547459 68.924839 
L 495.564037 66.831216 
L 497.597194 74.324728 
L 498.613773 70.47178 
L 499.630352 74.344402 
L 500.64693 69.686846 
L 501.663509 68.773645 
L 502.680087 74.226205 
L 503.696666 71.163923 
L 504.713245 69.401345 
L 505.729823 75.842546 
L 506.746402 68.771322 
L 507.762981 66.166492 
L 508.779559 67.221437 
L 509.796138 74.336656 
L 510.812716 69.527907 
L 511.829295 65.760471 
L 512.845874 70.355132 
L 513.862452 71.334635 
L 514.879031 71.275924 
L 515.895609 69.922311 
L 516.912188 71.083059 
L 517.928767 70.762084 
L 518.945345 80.915109 
L 519.961924 73.452579 
L 520.978502 85.566003 
L 521.995081 80.399565 
L 524.028238 86.94812 
L 525.044817 80.40003 
L 526.061396 83.026856 
L 527.077974 91.001367 
L 528.094553 90.637326 
L 529.111131 91.420711 
L 530.12771 90.879452 
L 531.144289 89.292234 
L 532.160867 101.813074 
L 533.177446 94.199816 
L 534.194024 94.678801 
L 536.227182 102.750751 
L 537.24376 98.867595 
L 538.260339 101.351129 
L 539.276917 106.725768 
L 540.293496 109.453442 
L 541.310075 104.157653 
L 543.343232 117.182884 
L 544.359811 106.502696 
L 545.376389 110.183847 
L 546.392968 124.354026 
L 547.409546 126.255404 
L 548.426125 118.488784 
L 549.442704 119.265663 
L 550.459282 129.064871 
L 551.475861 129.863437 
L 552.492439 134.405429 
L 553.509018 128.322537 
L 554.525597 139.154692 
L 555.542175 135.821316 
L 556.558754 135.489497 
L 557.575332 143.430082 
L 558.591911 143.044044 
L 559.60849 137.118851 
L 560.625068 141.845497 
L 561.641647 145.355162 
L 562.658226 144.560933 
L 563.674804 149.400664 
L 564.691383 159.422789 
L 565.707961 150.180021 
L 566.72454 155.524453 
L 567.741119 155.465277 
L 568.757697 157.691968 
L 569.774276 169.427874 
L 570.790854 174.164434 
L 571.807433 183.335633 
L 572.824012 182.711961 
L 573.84059 182.325458 
L 574.857169 173.411412 
L 575.873747 168.937116 
L 576.890326 168.471763 
L 577.906905 188.001244 
L 578.923483 178.65639 
L 579.940062 177.251347 
L 580.956641 180.007989 
L 581.973219 192.480032 
L 582.989798 196.556672 
L 584.006376 209.909539 
L 585.022955 212.287269 
L 586.039534 214.205223 
L 587.056112 218.120445 
L 588.072691 218.212617 
L 590.105848 224.016049 
L 591.122427 225.565315 
L 592.139005 240.02781 
L 593.155584 235.995785 
L 594.172163 239.628295 
L 595.188741 253.935569 
L 596.20532 252.501403 
L 597.221898 255.98055 
L 598.238477 261.811712 
L 599.255056 261.649675 
L 600.271634 263.37337 
L 601.288213 267.110909 
L 602.304791 269.90442 
L 603.32137 274.686679 
L 604.337949 271.608906 
L 605.354527 281.838922 
L 606.371106 281.915603 
L 607.387684 285.640439 
L 608.404263 271.155327 
L 610.43742 292.819792 
L 611.453999 288.452539 
L 612.470578 290.864814 
L 613.487156 291.011825 
L 614.503735 294.009663 
L 615.520313 287.851949 
L 616.536892 299.59746 
L 617.553471 300.064362 
L 618.570049 302.454175 
L 619.586628 299.215449 
L 620.603206 296.473679 
L 621.619785 307.8 
L 622.636364 303.874399 
L 622.636364 303.874399 
" clip-path="url(#pa41a519813)" style="fill: none; stroke: #1f77b4; stroke-width: 1.5; stroke-linecap: square"/>
   </g>
   <g id="line2d_32">
    <path d="M 115.363636 81.913046 
L 119.429951 81.700198 
L 123.496265 81.495715 
L 131.628894 81.293092 
L 147.894152 80.821542 
L 149.927309 80.849736 
L 159.076517 80.690178 
L 163.142831 80.670349 
L 166.192567 80.580191 
L 175.341774 80.54797 
L 176.358353 80.607455 
L 180.424668 80.39058 
L 186.524139 80.391974 
L 188.557296 80.363006 
L 191.607032 80.345346 
L 193.640189 80.239077 
L 198.723083 80.211813 
L 219.054655 80.427449 
L 222.104391 80.458896 
L 228.203862 80.473302 
L 235.319913 80.387172 
L 237.35307 80.40762 
L 238.369648 80.289888 
L 242.435963 80.356809 
L 265.817271 80.276256 
L 272.933321 80.282142 
L 275.983057 80.219868 
L 278.016214 80.288648 
L 302.414101 80.307857 
L 303.43068 80.39089 
L 306.480415 80.314364 
L 322.745673 80.395072 
L 327.828566 80.370906 
L 333.928038 80.316997 
L 344.093824 80.336206 
L 346.126981 80.221727 
L 348.160138 80.250695 
L 353.243032 80.169677 
L 357.309346 80.158213 
L 387.806704 79.990909 
L 390.85644 79.932663 
L 392.889597 80.006555 
L 394.922755 79.976813 
L 405.088541 80.108022 
L 410.171434 80.230092 
L 414.237748 80.084476 
L 417.287484 80.086335 
L 423.386956 80.104614 
L 425.420113 80.158213 
L 426.436692 80.082927 
L 430.503006 80.19818 
L 432.536163 80.161931 
L 434.56932 80.149848 
L 439.652214 80.115458 
L 442.701949 80.198025 
L 447.784842 80.074561 
L 454.900893 80.132188 
L 461.000364 80.063563 
L 463.033522 80.098418 
L 469.132993 79.999739 
L 508.779559 80.070379 
L 514.879031 80.945781 
L 515.895609 81.197512 
L 517.928767 81.269855 
L 518.945345 81.685946 
L 519.961924 81.828154 
L 521.995081 81.336157 
L 523.01166 81.694931 
L 524.028238 81.935663 
L 525.044817 82.538886 
L 526.061396 84.790673 
L 527.077974 82.203814 
L 528.094553 82.21915 
L 529.111131 81.689354 
L 530.12771 81.946507 
L 531.144289 81.954252 
L 532.160867 82.954358 
L 533.177446 84.580924 
L 534.194024 83.357746 
L 535.210603 88.225516 
L 536.227182 87.524544 
L 537.24376 84.159256 
L 538.260339 84.013175 
L 539.276917 84.568841 
L 541.310075 86.271778 
L 542.326653 89.199132 
L 543.343232 82.819275 
L 544.359811 86.380216 
L 545.376389 82.612004 
L 546.392968 82.408761 
L 547.409546 82.451671 
L 548.426125 82.643296 
L 549.442704 83.485858 
L 550.459282 83.419091 
L 551.475861 82.916405 
L 552.492439 85.245492 
L 553.509018 85.173768 
L 554.525597 83.64712 
L 555.542175 82.37623 
L 556.558754 82.2286 
L 557.575332 81.379067 
L 558.591911 77.500869 
L 559.60849 80.109881 
L 560.625068 84.384187 
L 561.641647 89.590437 
L 562.658226 91.785837 
L 563.674804 88.948486 
L 564.691383 93.542528 
L 565.707961 83.445736 
L 566.72454 88.35812 
L 567.741119 107.39297 
L 568.757697 110.944151 
L 569.774276 103.424923 
L 570.790854 106.062129 
L 571.807433 106.46118 
L 572.824012 105.094555 
L 573.84059 103.221061 
L 574.857169 92.856737 
L 575.873747 91.092455 
L 576.890326 94.248613 
L 577.906905 103.706707 
L 578.923483 94.259456 
L 579.940062 93.534628 
L 580.956641 103.577046 
L 581.973219 103.053602 
L 582.989798 105.144281 
L 584.006376 102.742695 
L 585.022955 115.312797 
L 586.039534 102.288496 
L 587.056112 108.701813 
L 588.072691 108.751075 
L 589.089269 111.632111 
L 590.105848 109.791148 
L 591.122427 111.401913 
L 592.139005 111.75542 
L 593.155584 110.998525 
L 594.172163 115.501014 
L 595.188741 119.377508 
L 596.20532 118.293751 
L 597.221898 116.447211 
L 598.238477 116.498641 
L 599.255056 109.89153 
L 600.271634 109.483185 
L 601.288213 118.332014 
L 602.304791 119.828454 
L 604.337949 116.516766 
L 605.354527 116.954545 
L 606.371106 117.577597 
L 607.387684 118.904875 
L 608.404263 114.585955 
L 609.420842 112.210549 
L 610.43742 110.53596 
L 611.453999 117.186601 
L 612.470578 110.29306 
L 613.487156 113.017016 
L 614.503735 111.356059 
L 615.520313 112.231926 
L 616.536892 112.640737 
L 617.553471 109.528419 
L 618.570049 89.425612 
L 619.586628 90.075154 
L 620.603206 107.424107 
L 621.619785 99.740519 
L 622.636364 108.741161 
L 622.636364 108.741161 
" clip-path="url(#pa41a519813)" style="fill: none; stroke: #ff7f0e; stroke-width: 1.5; stroke-linecap: square"/>
   </g>
   <g id="patch_3">
    <path d="M 90 320.4 
L 90 43.2 
" style="fill: none; stroke: #000000; stroke-width: 0.8; stroke-linejoin: miter; stroke-linecap: square"/>
   </g>
   <g id="patch_4">
    <path d="M 648 320.4 
L 648 43.2 
" style="fill: none; stroke: #000000; stroke-width: 0.8; stroke-linejoin: miter; stroke-linecap: square"/>
   </g>
   <g id="patch_5">
    <path d="M 90 320.4 
L 648 320.4 
" style="fill: none; stroke: #000000; stroke-width: 0.8; stroke-linejoin: miter; stroke-linecap: square"/>
   </g>
   <g id="patch_6">
    <path d="M 90 43.2 
L 648 43.2 
" style="fill: none; stroke: #000000; stroke-width: 0.8; stroke-linejoin: miter; stroke-linecap: square"/>
   </g>
   <g id="text_18">
    <!-- model train and validation loss over time -->
    <g transform="translate(245.555625 37.2) scale(0.12 -0.12)">
     <defs>
      <path id="DejaVuSans-6d" d="M 3328 2828 
Q 3544 3216 3844 3400 
Q 4144 3584 4550 3584 
Q 5097 3584 5394 3201 
Q 5691 2819 5691 2113 
L 5691 0 
L 5113 0 
L 5113 2094 
Q 5113 2597 4934 2840 
Q 4756 3084 4391 3084 
Q 3944 3084 3684 2787 
Q 3425 2491 3425 1978 
L 3425 0 
L 2847 0 
L 2847 2094 
Q 2847 2600 2669 2842 
Q 2491 3084 2119 3084 
Q 1678 3084 1418 2786 
Q 1159 2488 1159 1978 
L 1159 0 
L 581 0 
L 581 3500 
L 1159 3500 
L 1159 2956 
Q 1356 3278 1631 3431 
Q 1906 3584 2284 3584 
Q 2666 3584 2933 3390 
Q 3200 3197 3328 2828 
z
" transform="scale(0.015625)"/>
      <path id="DejaVuSans-64" d="M 2906 2969 
L 2906 4863 
L 3481 4863 
L 3481 0 
L 2906 0 
L 2906 525 
Q 2725 213 2448 61 
Q 2172 -91 1784 -91 
Q 1150 -91 751 415 
Q 353 922 353 1747 
Q 353 2572 751 3078 
Q 1150 3584 1784 3584 
Q 2172 3584 2448 3432 
Q 2725 3281 2906 2969 
z
M 947 1747 
Q 947 1113 1208 752 
Q 1469 391 1925 391 
Q 2381 391 2643 752 
Q 2906 1113 2906 1747 
Q 2906 2381 2643 2742 
Q 2381 3103 1925 3103 
Q 1469 3103 1208 2742 
Q 947 2381 947 1747 
z
" transform="scale(0.015625)"/>
      <path id="DejaVuSans-20" transform="scale(0.015625)"/>
      <path id="DejaVuSans-74" d="M 1172 4494 
L 1172 3500 
L 2356 3500 
L 2356 3053 
L 1172 3053 
L 1172 1153 
Q 1172 725 1289 603 
Q 1406 481 1766 481 
L 2356 481 
L 2356 0 
L 1766 0 
Q 1100 0 847 248 
Q 594 497 594 1153 
L 594 3053 
L 172 3053 
L 172 3500 
L 594 3500 
L 594 4494 
L 1172 4494 
z
" transform="scale(0.015625)"/>
      <path id="DejaVuSans-72" d="M 2631 2963 
Q 2534 3019 2420 3045 
Q 2306 3072 2169 3072 
Q 1681 3072 1420 2755 
Q 1159 2438 1159 1844 
L 1159 0 
L 581 0 
L 581 3500 
L 1159 3500 
L 1159 2956 
Q 1341 3275 1631 3429 
Q 1922 3584 2338 3584 
Q 2397 3584 2469 3576 
Q 2541 3569 2628 3553 
L 2631 2963 
z
" transform="scale(0.015625)"/>
      <path id="DejaVuSans-61" d="M 2194 1759 
Q 1497 1759 1228 1600 
Q 959 1441 959 1056 
Q 959 750 1161 570 
Q 1363 391 1709 391 
Q 2188 391 2477 730 
Q 2766 1069 2766 1631 
L 2766 1759 
L 2194 1759 
z
M 3341 1997 
L 3341 0 
L 2766 0 
L 2766 531 
Q 2569 213 2275 61 
Q 1981 -91 1556 -91 
Q 1019 -91 701 211 
Q 384 513 384 1019 
Q 384 1609 779 1909 
Q 1175 2209 1959 2209 
L 2766 2209 
L 2766 2266 
Q 2766 2663 2505 2880 
Q 2244 3097 1772 3097 
Q 1472 3097 1187 3025 
Q 903 2953 641 2809 
L 641 3341 
Q 956 3463 1253 3523 
Q 1550 3584 1831 3584 
Q 2591 3584 2966 3190 
Q 3341 2797 3341 1997 
z
" transform="scale(0.015625)"/>
      <path id="DejaVuSans-69" d="M 603 3500 
L 1178 3500 
L 1178 0 
L 603 0 
L 603 3500 
z
M 603 4863 
L 1178 4863 
L 1178 4134 
L 603 4134 
L 603 4863 
z
" transform="scale(0.015625)"/>
      <path id="DejaVuSans-6e" d="M 3513 2113 
L 3513 0 
L 2938 0 
L 2938 2094 
Q 2938 2591 2744 2837 
Q 2550 3084 2163 3084 
Q 1697 3084 1428 2787 
Q 1159 2491 1159 1978 
L 1159 0 
L 581 0 
L 581 3500 
L 1159 3500 
L 1159 2956 
Q 1366 3272 1645 3428 
Q 1925 3584 2291 3584 
Q 2894 3584 3203 3211 
Q 3513 2838 3513 2113 
z
" transform="scale(0.015625)"/>
      <path id="DejaVuSans-76" d="M 191 3500 
L 800 3500 
L 1894 563 
L 2988 3500 
L 3597 3500 
L 2284 0 
L 1503 0 
L 191 3500 
z
" transform="scale(0.015625)"/>
     </defs>
     <use xlink:href="#DejaVuSans-6d"/>
     <use xlink:href="#DejaVuSans-6f" x="97.412109"/>
     <use xlink:href="#DejaVuSans-64" x="158.59375"/>
     <use xlink:href="#DejaVuSans-65" x="222.070312"/>
     <use xlink:href="#DejaVuSans-6c" x="283.59375"/>
     <use xlink:href="#DejaVuSans-20" x="311.376953"/>
     <use xlink:href="#DejaVuSans-74" x="343.164062"/>
     <use xlink:href="#DejaVuSans-72" x="382.373047"/>
     <use xlink:href="#DejaVuSans-61" x="423.486328"/>
     <use xlink:href="#DejaVuSans-69" x="484.765625"/>
     <use xlink:href="#DejaVuSans-6e" x="512.548828"/>
     <use xlink:href="#DejaVuSans-20" x="575.927734"/>
     <use xlink:href="#DejaVuSans-61" x="607.714844"/>
     <use xlink:href="#DejaVuSans-6e" x="668.994141"/>
     <use xlink:href="#DejaVuSans-64" x="732.373047"/>
     <use xlink:href="#DejaVuSans-20" x="795.849609"/>
     <use xlink:href="#DejaVuSans-76" x="827.636719"/>
     <use xlink:href="#DejaVuSans-61" x="886.816406"/>
     <use xlink:href="#DejaVuSans-6c" x="948.095703"/>
     <use xlink:href="#DejaVuSans-69" x="975.878906"/>
     <use xlink:href="#DejaVuSans-64" x="1003.662109"/>
     <use xlink:href="#DejaVuSans-61" x="1067.138672"/>
     <use xlink:href="#DejaVuSans-74" x="1128.417969"/>
     <use xlink:href="#DejaVuSans-69" x="1167.626953"/>
     <use xlink:href="#DejaVuSans-6f" x="1195.410156"/>
     <use xlink:href="#DejaVuSans-6e" x="1256.591797"/>
     <use xlink:href="#DejaVuSans-20" x="1319.970703"/>
     <use xlink:href="#DejaVuSans-6c" x="1351.757812"/>
     <use xlink:href="#DejaVuSans-6f" x="1379.541016"/>
     <use xlink:href="#DejaVuSans-73" x="1440.722656"/>
     <use xlink:href="#DejaVuSans-73" x="1492.822266"/>
     <use xlink:href="#DejaVuSans-20" x="1544.921875"/>
     <use xlink:href="#DejaVuSans-6f" x="1576.708984"/>
     <use xlink:href="#DejaVuSans-76" x="1637.890625"/>
     <use xlink:href="#DejaVuSans-65" x="1697.070312"/>
     <use xlink:href="#DejaVuSans-72" x="1758.59375"/>
     <use xlink:href="#DejaVuSans-20" x="1799.707031"/>
     <use xlink:href="#DejaVuSans-74" x="1831.494141"/>
     <use xlink:href="#DejaVuSans-69" x="1870.703125"/>
     <use xlink:href="#DejaVuSans-6d" x="1898.486328"/>
     <use xlink:href="#DejaVuSans-65" x="1995.898438"/>
    </g>
   </g>
   <g id="legend_1">
    <g id="patch_7">
     <path d="M 97 315.4 
L 178.234375 315.4 
Q 180.234375 315.4 180.234375 313.4 
L 180.234375 285.04375 
Q 180.234375 283.04375 178.234375 283.04375 
L 97 283.04375 
Q 95 283.04375 95 285.04375 
L 95 313.4 
Q 95 315.4 97 315.4 
z
" style="fill: #ffffff; opacity: 0.8; stroke: #cccccc; stroke-linejoin: miter"/>
    </g>
    <g id="line2d_33">
     <path d="M 99 291.142187 
L 109 291.142187 
L 119 291.142187 
" style="fill: none; stroke: #1f77b4; stroke-width: 1.5; stroke-linecap: square"/>
    </g>
    <g id="text_19">
     <!-- train -->
     <g transform="translate(127 294.642187) scale(0.1 -0.1)">
      <use xlink:href="#DejaVuSans-74"/>
      <use xlink:href="#DejaVuSans-72" x="39.208984"/>
      <use xlink:href="#DejaVuSans-61" x="80.322266"/>
      <use xlink:href="#DejaVuSans-69" x="141.601562"/>
      <use xlink:href="#DejaVuSans-6e" x="169.384766"/>
     </g>
    </g>
    <g id="line2d_34">
     <path d="M 99 305.820312 
L 109 305.820312 
L 119 305.820312 
" style="fill: none; stroke: #ff7f0e; stroke-width: 1.5; stroke-linecap: square"/>
    </g>
    <g id="text_20">
     <!-- validation -->
     <g transform="translate(127 309.320312) scale(0.1 -0.1)">
      <use xlink:href="#DejaVuSans-76"/>
      <use xlink:href="#DejaVuSans-61" x="59.179688"/>
      <use xlink:href="#DejaVuSans-6c" x="120.458984"/>
      <use xlink:href="#DejaVuSans-69" x="148.242188"/>
      <use xlink:href="#DejaVuSans-64" x="176.025391"/>
      <use xlink:href="#DejaVuSans-61" x="239.501953"/>
      <use xlink:href="#DejaVuSans-74" x="300.78125"/>
      <use xlink:href="#DejaVuSans-69" x="339.990234"/>
      <use xlink:href="#DejaVuSans-6f" x="367.773438"/>
      <use xlink:href="#DejaVuSans-6e" x="428.955078"/>
     </g>
    </g>
   </g>
  </g>
 </g>
 <defs>
  <clipPath id="pa41a519813">
   <rect x="90" y="43.2" width="558" height="277.2"/>
  </clipPath>
 </defs>
</svg>
