<?xml version="1.0" encoding="utf-8" standalone="no"?>
<!DOCTYPE svg PUBLIC "-//W3C//DTD SVG 1.1//EN"
  "http://www.w3.org/Graphics/SVG/1.1/DTD/svg11.dtd">
<svg xmlns:xlink="http://www.w3.org/1999/xlink" width="720pt" height="360pt" viewBox="0 0 720 360" xmlns="http://www.w3.org/2000/svg" version="1.1">
 <metadata>
  <rdf:RDF xmlns:dc="http://purl.org/dc/elements/1.1/" xmlns:cc="http://creativecommons.org/ns#" xmlns:rdf="http://www.w3.org/1999/02/22-rdf-syntax-ns#">
   <cc:Work>
    <dc:type rdf:resource="http://purl.org/dc/dcmitype/StillImage"/>
    <dc:date>2023-05-23T19:08:44.521861</dc:date>
    <dc:format>image/svg+xml</dc:format>
    <dc:creator>
     <cc:Agent>
      <dc:title>Matplotlib v3.7.1, https://matplotlib.org/</dc:title>
     </cc:Agent>
    </dc:creator>
   </cc:Work>
  </rdf:RDF>
 </metadata>
 <defs>
  <style type="text/css">*{stroke-linejoin: round; stroke-linecap: butt}</style>
 </defs>
 <g id="figure_1">
  <g id="patch_1">
   <path d="M 0 360 
L 720 360 
L 720 0 
L 0 0 
z
" style="fill: #ffffff"/>
  </g>
  <g id="axes_1">
   <g id="patch_2">
    <path d="M 90 320.4 
L 648 320.4 
L 648 43.2 
L 90 43.2 
z
" style="fill: #ffffff"/>
   </g>
   <g id="matplotlib.axis_1">
    <g id="xtick_1">
     <g id="line2d_1">
      <path d="M 115.363636 320.4 
L 115.363636 43.2 
" clip-path="url(#p2db00d5b7b)" style="fill: none; stroke: #b0b0b0; stroke-width: 0.8; stroke-linecap: square"/>
     </g>
     <g id="line2d_2">
      <defs>
       <path id="mc1fd693ab7" d="M 0 0 
L 0 3.5 
" style="stroke: #000000; stroke-width: 0.8"/>
      </defs>
      <g>
       <use xlink:href="#mc1fd693ab7" x="115.363636" y="320.4" style="stroke: #000000; stroke-width: 0.8"/>
      </g>
     </g>
     <g id="text_1">
      <!-- 0 -->
      <g transform="translate(112.182386 334.998438) scale(0.1 -0.1)">
       <defs>
        <path id="DejaVuSans-30" d="M 2034 4250 
Q 1547 4250 1301 3770 
Q 1056 3291 1056 2328 
Q 1056 1369 1301 889 
Q 1547 409 2034 409 
Q 2525 409 2770 889 
Q 3016 1369 3016 2328 
Q 3016 3291 2770 3770 
Q 2525 4250 2034 4250 
z
M 2034 4750 
Q 2819 4750 3233 4129 
Q 3647 3509 3647 2328 
Q 3647 1150 3233 529 
Q 2819 -91 2034 -91 
Q 1250 -91 836 529 
Q 422 1150 422 2328 
Q 422 3509 836 4129 
Q 1250 4750 2034 4750 
z
" transform="scale(0.015625)"/>
       </defs>
       <use xlink:href="#DejaVuSans-30"/>
      </g>
     </g>
    </g>
    <g id="xtick_2">
     <g id="line2d_3">
      <path d="M 200.191852 320.4 
L 200.191852 43.2 
" clip-path="url(#p2db00d5b7b)" style="fill: none; stroke: #b0b0b0; stroke-width: 0.8; stroke-linecap: square"/>
     </g>
     <g id="line2d_4">
      <g>
       <use xlink:href="#mc1fd693ab7" x="200.191852" y="320.4" style="stroke: #000000; stroke-width: 0.8"/>
      </g>
     </g>
     <g id="text_2">
      <!-- 50 -->
      <g transform="translate(193.829352 334.998438) scale(0.1 -0.1)">
       <defs>
        <path id="DejaVuSans-35" d="M 691 4666 
L 3169 4666 
L 3169 4134 
L 1269 4134 
L 1269 2991 
Q 1406 3038 1543 3061 
Q 1681 3084 1819 3084 
Q 2600 3084 3056 2656 
Q 3513 2228 3513 1497 
Q 3513 744 3044 326 
Q 2575 -91 1722 -91 
Q 1428 -91 1123 -41 
Q 819 9 494 109 
L 494 744 
Q 775 591 1075 516 
Q 1375 441 1709 441 
Q 2250 441 2565 725 
Q 2881 1009 2881 1497 
Q 2881 1984 2565 2268 
Q 2250 2553 1709 2553 
Q 1456 2553 1204 2497 
Q 953 2441 691 2322 
L 691 4666 
z
" transform="scale(0.015625)"/>
       </defs>
       <use xlink:href="#DejaVuSans-35"/>
       <use xlink:href="#DejaVuSans-30" x="63.623047"/>
      </g>
     </g>
    </g>
    <g id="xtick_3">
     <g id="line2d_5">
      <path d="M 285.020067 320.4 
L 285.020067 43.2 
" clip-path="url(#p2db00d5b7b)" style="fill: none; stroke: #b0b0b0; stroke-width: 0.8; stroke-linecap: square"/>
     </g>
     <g id="line2d_6">
      <g>
       <use xlink:href="#mc1fd693ab7" x="285.020067" y="320.4" style="stroke: #000000; stroke-width: 0.8"/>
      </g>
     </g>
     <g id="text_3">
      <!-- 100 -->
      <g transform="translate(275.476317 334.998438) scale(0.1 -0.1)">
       <defs>
        <path id="DejaVuSans-31" d="M 794 531 
L 1825 531 
L 1825 4091 
L 703 3866 
L 703 4441 
L 1819 4666 
L 2450 4666 
L 2450 531 
L 3481 531 
L 3481 0 
L 794 0 
L 794 531 
z
" transform="scale(0.015625)"/>
       </defs>
       <use xlink:href="#DejaVuSans-31"/>
       <use xlink:href="#DejaVuSans-30" x="63.623047"/>
       <use xlink:href="#DejaVuSans-30" x="127.246094"/>
      </g>
     </g>
    </g>
    <g id="xtick_4">
     <g id="line2d_7">
      <path d="M 369.848282 320.4 
L 369.848282 43.2 
" clip-path="url(#p2db00d5b7b)" style="fill: none; stroke: #b0b0b0; stroke-width: 0.8; stroke-linecap: square"/>
     </g>
     <g id="line2d_8">
      <g>
       <use xlink:href="#mc1fd693ab7" x="369.848282" y="320.4" style="stroke: #000000; stroke-width: 0.8"/>
      </g>
     </g>
     <g id="text_4">
      <!-- 150 -->
      <g transform="translate(360.304532 334.998438) scale(0.1 -0.1)">
       <use xlink:href="#DejaVuSans-31"/>
       <use xlink:href="#DejaVuSans-35" x="63.623047"/>
       <use xlink:href="#DejaVuSans-30" x="127.246094"/>
      </g>
     </g>
    </g>
    <g id="xtick_5">
     <g id="line2d_9">
      <path d="M 454.676497 320.4 
L 454.676497 43.2 
" clip-path="url(#p2db00d5b7b)" style="fill: none; stroke: #b0b0b0; stroke-width: 0.8; stroke-linecap: square"/>
     </g>
     <g id="line2d_10">
      <g>
       <use xlink:href="#mc1fd693ab7" x="454.676497" y="320.4" style="stroke: #000000; stroke-width: 0.8"/>
      </g>
     </g>
     <g id="text_5">
      <!-- 200 -->
      <g transform="translate(445.132747 334.998438) scale(0.1 -0.1)">
       <defs>
        <path id="DejaVuSans-32" d="M 1228 531 
L 3431 531 
L 3431 0 
L 469 0 
L 469 531 
Q 828 903 1448 1529 
Q 2069 2156 2228 2338 
Q 2531 2678 2651 2914 
Q 2772 3150 2772 3378 
Q 2772 3750 2511 3984 
Q 2250 4219 1831 4219 
Q 1534 4219 1204 4116 
Q 875 4013 500 3803 
L 500 4441 
Q 881 4594 1212 4672 
Q 1544 4750 1819 4750 
Q 2544 4750 2975 4387 
Q 3406 4025 3406 3419 
Q 3406 3131 3298 2873 
Q 3191 2616 2906 2266 
Q 2828 2175 2409 1742 
Q 1991 1309 1228 531 
z
" transform="scale(0.015625)"/>
       </defs>
       <use xlink:href="#DejaVuSans-32"/>
       <use xlink:href="#DejaVuSans-30" x="63.623047"/>
       <use xlink:href="#DejaVuSans-30" x="127.246094"/>
      </g>
     </g>
    </g>
    <g id="xtick_6">
     <g id="line2d_11">
      <path d="M 539.504713 320.4 
L 539.504713 43.2 
" clip-path="url(#p2db00d5b7b)" style="fill: none; stroke: #b0b0b0; stroke-width: 0.8; stroke-linecap: square"/>
     </g>
     <g id="line2d_12">
      <g>
       <use xlink:href="#mc1fd693ab7" x="539.504713" y="320.4" style="stroke: #000000; stroke-width: 0.8"/>
      </g>
     </g>
     <g id="text_6">
      <!-- 250 -->
      <g transform="translate(529.960963 334.998438) scale(0.1 -0.1)">
       <use xlink:href="#DejaVuSans-32"/>
       <use xlink:href="#DejaVuSans-35" x="63.623047"/>
       <use xlink:href="#DejaVuSans-30" x="127.246094"/>
      </g>
     </g>
    </g>
    <g id="xtick_7">
     <g id="line2d_13">
      <path d="M 624.332928 320.4 
L 624.332928 43.2 
" clip-path="url(#p2db00d5b7b)" style="fill: none; stroke: #b0b0b0; stroke-width: 0.8; stroke-linecap: square"/>
     </g>
     <g id="line2d_14">
      <g>
       <use xlink:href="#mc1fd693ab7" x="624.332928" y="320.4" style="stroke: #000000; stroke-width: 0.8"/>
      </g>
     </g>
     <g id="text_7">
      <!-- 300 -->
      <g transform="translate(614.789178 334.998438) scale(0.1 -0.1)">
       <defs>
        <path id="DejaVuSans-33" d="M 2597 2516 
Q 3050 2419 3304 2112 
Q 3559 1806 3559 1356 
Q 3559 666 3084 287 
Q 2609 -91 1734 -91 
Q 1441 -91 1130 -33 
Q 819 25 488 141 
L 488 750 
Q 750 597 1062 519 
Q 1375 441 1716 441 
Q 2309 441 2620 675 
Q 2931 909 2931 1356 
Q 2931 1769 2642 2001 
Q 2353 2234 1838 2234 
L 1294 2234 
L 1294 2753 
L 1863 2753 
Q 2328 2753 2575 2939 
Q 2822 3125 2822 3475 
Q 2822 3834 2567 4026 
Q 2313 4219 1838 4219 
Q 1578 4219 1281 4162 
Q 984 4106 628 3988 
L 628 4550 
Q 988 4650 1302 4700 
Q 1616 4750 1894 4750 
Q 2613 4750 3031 4423 
Q 3450 4097 3450 3541 
Q 3450 3153 3228 2886 
Q 3006 2619 2597 2516 
z
" transform="scale(0.015625)"/>
       </defs>
       <use xlink:href="#DejaVuSans-33"/>
       <use xlink:href="#DejaVuSans-30" x="63.623047"/>
       <use xlink:href="#DejaVuSans-30" x="127.246094"/>
      </g>
     </g>
    </g>
    <g id="text_8">
     <!-- epoch -->
     <g transform="translate(353.771875 348.676562) scale(0.1 -0.1)">
      <defs>
       <path id="DejaVuSans-65" d="M 3597 1894 
L 3597 1613 
L 953 1613 
Q 991 1019 1311 708 
Q 1631 397 2203 397 
Q 2534 397 2845 478 
Q 3156 559 3463 722 
L 3463 178 
Q 3153 47 2828 -22 
Q 2503 -91 2169 -91 
Q 1331 -91 842 396 
Q 353 884 353 1716 
Q 353 2575 817 3079 
Q 1281 3584 2069 3584 
Q 2775 3584 3186 3129 
Q 3597 2675 3597 1894 
z
M 3022 2063 
Q 3016 2534 2758 2815 
Q 2500 3097 2075 3097 
Q 1594 3097 1305 2825 
Q 1016 2553 972 2059 
L 3022 2063 
z
" transform="scale(0.015625)"/>
       <path id="DejaVuSans-70" d="M 1159 525 
L 1159 -1331 
L 581 -1331 
L 581 3500 
L 1159 3500 
L 1159 2969 
Q 1341 3281 1617 3432 
Q 1894 3584 2278 3584 
Q 2916 3584 3314 3078 
Q 3713 2572 3713 1747 
Q 3713 922 3314 415 
Q 2916 -91 2278 -91 
Q 1894 -91 1617 61 
Q 1341 213 1159 525 
z
M 3116 1747 
Q 3116 2381 2855 2742 
Q 2594 3103 2138 3103 
Q 1681 3103 1420 2742 
Q 1159 2381 1159 1747 
Q 1159 1113 1420 752 
Q 1681 391 2138 391 
Q 2594 391 2855 752 
Q 3116 1113 3116 1747 
z
" transform="scale(0.015625)"/>
       <path id="DejaVuSans-6f" d="M 1959 3097 
Q 1497 3097 1228 2736 
Q 959 2375 959 1747 
Q 959 1119 1226 758 
Q 1494 397 1959 397 
Q 2419 397 2687 759 
Q 2956 1122 2956 1747 
Q 2956 2369 2687 2733 
Q 2419 3097 1959 3097 
z
M 1959 3584 
Q 2709 3584 3137 3096 
Q 3566 2609 3566 1747 
Q 3566 888 3137 398 
Q 2709 -91 1959 -91 
Q 1206 -91 779 398 
Q 353 888 353 1747 
Q 353 2609 779 3096 
Q 1206 3584 1959 3584 
z
" transform="scale(0.015625)"/>
       <path id="DejaVuSans-63" d="M 3122 3366 
L 3122 2828 
Q 2878 2963 2633 3030 
Q 2388 3097 2138 3097 
Q 1578 3097 1268 2742 
Q 959 2388 959 1747 
Q 959 1106 1268 751 
Q 1578 397 2138 397 
Q 2388 397 2633 464 
Q 2878 531 3122 666 
L 3122 134 
Q 2881 22 2623 -34 
Q 2366 -91 2075 -91 
Q 1284 -91 818 406 
Q 353 903 353 1747 
Q 353 2603 823 3093 
Q 1294 3584 2113 3584 
Q 2378 3584 2631 3529 
Q 2884 3475 3122 3366 
z
" transform="scale(0.015625)"/>
       <path id="DejaVuSans-68" d="M 3513 2113 
L 3513 0 
L 2938 0 
L 2938 2094 
Q 2938 2591 2744 2837 
Q 2550 3084 2163 3084 
Q 1697 3084 1428 2787 
Q 1159 2491 1159 1978 
L 1159 0 
L 581 0 
L 581 4863 
L 1159 4863 
L 1159 2956 
Q 1366 3272 1645 3428 
Q 1925 3584 2291 3584 
Q 2894 3584 3203 3211 
Q 3513 2838 3513 2113 
z
" transform="scale(0.015625)"/>
      </defs>
      <use xlink:href="#DejaVuSans-65"/>
      <use xlink:href="#DejaVuSans-70" x="61.523438"/>
      <use xlink:href="#DejaVuSans-6f" x="125"/>
      <use xlink:href="#DejaVuSans-63" x="186.181641"/>
      <use xlink:href="#DejaVuSans-68" x="241.162109"/>
     </g>
    </g>
   </g>
   <g id="matplotlib.axis_2">
    <g id="ytick_1">
     <g id="line2d_15">
      <path d="M 90 290.988878 
L 648 290.988878 
" clip-path="url(#p2db00d5b7b)" style="fill: none; stroke: #b0b0b0; stroke-width: 0.8; stroke-linecap: square"/>
     </g>
     <g id="line2d_16">
      <defs>
       <path id="m6ffa692d53" d="M 0 0 
L -3.5 0 
" style="stroke: #000000; stroke-width: 0.8"/>
      </defs>
      <g>
       <use xlink:href="#m6ffa692d53" x="90" y="290.988878" style="stroke: #000000; stroke-width: 0.8"/>
      </g>
     </g>
     <g id="text_9">
      <!-- 0.37 -->
      <g transform="translate(60.734375 294.788097) scale(0.1 -0.1)">
       <defs>
        <path id="DejaVuSans-2e" d="M 684 794 
L 1344 794 
L 1344 0 
L 684 0 
L 684 794 
z
" transform="scale(0.015625)"/>
        <path id="DejaVuSans-37" d="M 525 4666 
L 3525 4666 
L 3525 4397 
L 1831 0 
L 1172 0 
L 2766 4134 
L 525 4134 
L 525 4666 
z
" transform="scale(0.015625)"/>
       </defs>
       <use xlink:href="#DejaVuSans-30"/>
       <use xlink:href="#DejaVuSans-2e" x="63.623047"/>
       <use xlink:href="#DejaVuSans-33" x="95.410156"/>
       <use xlink:href="#DejaVuSans-37" x="159.033203"/>
      </g>
     </g>
    </g>
    <g id="ytick_2">
     <g id="line2d_17">
      <path d="M 90 235.486379 
L 648 235.486379 
" clip-path="url(#p2db00d5b7b)" style="fill: none; stroke: #b0b0b0; stroke-width: 0.8; stroke-linecap: square"/>
     </g>
     <g id="line2d_18">
      <g>
       <use xlink:href="#m6ffa692d53" x="90" y="235.486379" style="stroke: #000000; stroke-width: 0.8"/>
      </g>
     </g>
     <g id="text_10">
      <!-- 0.38 -->
      <g transform="translate(60.734375 239.285598) scale(0.1 -0.1)">
       <defs>
        <path id="DejaVuSans-38" d="M 2034 2216 
Q 1584 2216 1326 1975 
Q 1069 1734 1069 1313 
Q 1069 891 1326 650 
Q 1584 409 2034 409 
Q 2484 409 2743 651 
Q 3003 894 3003 1313 
Q 3003 1734 2745 1975 
Q 2488 2216 2034 2216 
z
M 1403 2484 
Q 997 2584 770 2862 
Q 544 3141 544 3541 
Q 544 4100 942 4425 
Q 1341 4750 2034 4750 
Q 2731 4750 3128 4425 
Q 3525 4100 3525 3541 
Q 3525 3141 3298 2862 
Q 3072 2584 2669 2484 
Q 3125 2378 3379 2068 
Q 3634 1759 3634 1313 
Q 3634 634 3220 271 
Q 2806 -91 2034 -91 
Q 1263 -91 848 271 
Q 434 634 434 1313 
Q 434 1759 690 2068 
Q 947 2378 1403 2484 
z
M 1172 3481 
Q 1172 3119 1398 2916 
Q 1625 2713 2034 2713 
Q 2441 2713 2670 2916 
Q 2900 3119 2900 3481 
Q 2900 3844 2670 4047 
Q 2441 4250 2034 4250 
Q 1625 4250 1398 4047 
Q 1172 3844 1172 3481 
z
" transform="scale(0.015625)"/>
       </defs>
       <use xlink:href="#DejaVuSans-30"/>
       <use xlink:href="#DejaVuSans-2e" x="63.623047"/>
       <use xlink:href="#DejaVuSans-33" x="95.410156"/>
       <use xlink:href="#DejaVuSans-38" x="159.033203"/>
      </g>
     </g>
    </g>
    <g id="ytick_3">
     <g id="line2d_19">
      <path d="M 90 179.983881 
L 648 179.983881 
" clip-path="url(#p2db00d5b7b)" style="fill: none; stroke: #b0b0b0; stroke-width: 0.8; stroke-linecap: square"/>
     </g>
     <g id="line2d_20">
      <g>
       <use xlink:href="#m6ffa692d53" x="90" y="179.983881" style="stroke: #000000; stroke-width: 0.8"/>
      </g>
     </g>
     <g id="text_11">
      <!-- 0.39 -->
      <g transform="translate(60.734375 183.783099) scale(0.1 -0.1)">
       <defs>
        <path id="DejaVuSans-39" d="M 703 97 
L 703 672 
Q 941 559 1184 500 
Q 1428 441 1663 441 
Q 2288 441 2617 861 
Q 2947 1281 2994 2138 
Q 2813 1869 2534 1725 
Q 2256 1581 1919 1581 
Q 1219 1581 811 2004 
Q 403 2428 403 3163 
Q 403 3881 828 4315 
Q 1253 4750 1959 4750 
Q 2769 4750 3195 4129 
Q 3622 3509 3622 2328 
Q 3622 1225 3098 567 
Q 2575 -91 1691 -91 
Q 1453 -91 1209 -44 
Q 966 3 703 97 
z
M 1959 2075 
Q 2384 2075 2632 2365 
Q 2881 2656 2881 3163 
Q 2881 3666 2632 3958 
Q 2384 4250 1959 4250 
Q 1534 4250 1286 3958 
Q 1038 3666 1038 3163 
Q 1038 2656 1286 2365 
Q 1534 2075 1959 2075 
z
" transform="scale(0.015625)"/>
       </defs>
       <use xlink:href="#DejaVuSans-30"/>
       <use xlink:href="#DejaVuSans-2e" x="63.623047"/>
       <use xlink:href="#DejaVuSans-33" x="95.410156"/>
       <use xlink:href="#DejaVuSans-39" x="159.033203"/>
      </g>
     </g>
    </g>
    <g id="ytick_4">
     <g id="line2d_21">
      <path d="M 90 124.481382 
L 648 124.481382 
" clip-path="url(#p2db00d5b7b)" style="fill: none; stroke: #b0b0b0; stroke-width: 0.8; stroke-linecap: square"/>
     </g>
     <g id="line2d_22">
      <g>
       <use xlink:href="#m6ffa692d53" x="90" y="124.481382" style="stroke: #000000; stroke-width: 0.8"/>
      </g>
     </g>
     <g id="text_12">
      <!-- 0.40 -->
      <g transform="translate(60.734375 128.280601) scale(0.1 -0.1)">
       <defs>
        <path id="DejaVuSans-34" d="M 2419 4116 
L 825 1625 
L 2419 1625 
L 2419 4116 
z
M 2253 4666 
L 3047 4666 
L 3047 1625 
L 3713 1625 
L 3713 1100 
L 3047 1100 
L 3047 0 
L 2419 0 
L 2419 1100 
L 313 1100 
L 313 1709 
L 2253 4666 
z
" transform="scale(0.015625)"/>
       </defs>
       <use xlink:href="#DejaVuSans-30"/>
       <use xlink:href="#DejaVuSans-2e" x="63.623047"/>
       <use xlink:href="#DejaVuSans-34" x="95.410156"/>
       <use xlink:href="#DejaVuSans-30" x="159.033203"/>
      </g>
     </g>
    </g>
    <g id="ytick_5">
     <g id="line2d_23">
      <path d="M 90 68.978883 
L 648 68.978883 
" clip-path="url(#p2db00d5b7b)" style="fill: none; stroke: #b0b0b0; stroke-width: 0.8; stroke-linecap: square"/>
     </g>
     <g id="line2d_24">
      <g>
       <use xlink:href="#m6ffa692d53" x="90" y="68.978883" style="stroke: #000000; stroke-width: 0.8"/>
      </g>
     </g>
     <g id="text_13">
      <!-- 0.41 -->
      <g transform="translate(60.734375 72.778102) scale(0.1 -0.1)">
       <use xlink:href="#DejaVuSans-30"/>
       <use xlink:href="#DejaVuSans-2e" x="63.623047"/>
       <use xlink:href="#DejaVuSans-34" x="95.410156"/>
       <use xlink:href="#DejaVuSans-31" x="159.033203"/>
      </g>
     </g>
    </g>
    <g id="text_14">
     <!-- accruacy -->
     <g transform="translate(54.654687 204.359375) rotate(-90) scale(0.1 -0.1)">
      <defs>
       <path id="DejaVuSans-61" d="M 2194 1759 
Q 1497 1759 1228 1600 
Q 959 1441 959 1056 
Q 959 750 1161 570 
Q 1363 391 1709 391 
Q 2188 391 2477 730 
Q 2766 1069 2766 1631 
L 2766 1759 
L 2194 1759 
z
M 3341 1997 
L 3341 0 
L 2766 0 
L 2766 531 
Q 2569 213 2275 61 
Q 1981 -91 1556 -91 
Q 1019 -91 701 211 
Q 384 513 384 1019 
Q 384 1609 779 1909 
Q 1175 2209 1959 2209 
L 2766 2209 
L 2766 2266 
Q 2766 2663 2505 2880 
Q 2244 3097 1772 3097 
Q 1472 3097 1187 3025 
Q 903 2953 641 2809 
L 641 3341 
Q 956 3463 1253 3523 
Q 1550 3584 1831 3584 
Q 2591 3584 2966 3190 
Q 3341 2797 3341 1997 
z
" transform="scale(0.015625)"/>
       <path id="DejaVuSans-72" d="M 2631 2963 
Q 2534 3019 2420 3045 
Q 2306 3072 2169 3072 
Q 1681 3072 1420 2755 
Q 1159 2438 1159 1844 
L 1159 0 
L 581 0 
L 581 3500 
L 1159 3500 
L 1159 2956 
Q 1341 3275 1631 3429 
Q 1922 3584 2338 3584 
Q 2397 3584 2469 3576 
Q 2541 3569 2628 3553 
L 2631 2963 
z
" transform="scale(0.015625)"/>
       <path id="DejaVuSans-75" d="M 544 1381 
L 544 3500 
L 1119 3500 
L 1119 1403 
Q 1119 906 1312 657 
Q 1506 409 1894 409 
Q 2359 409 2629 706 
Q 2900 1003 2900 1516 
L 2900 3500 
L 3475 3500 
L 3475 0 
L 2900 0 
L 2900 538 
Q 2691 219 2414 64 
Q 2138 -91 1772 -91 
Q 1169 -91 856 284 
Q 544 659 544 1381 
z
M 1991 3584 
L 1991 3584 
z
" transform="scale(0.015625)"/>
       <path id="DejaVuSans-79" d="M 2059 -325 
Q 1816 -950 1584 -1140 
Q 1353 -1331 966 -1331 
L 506 -1331 
L 506 -850 
L 844 -850 
Q 1081 -850 1212 -737 
Q 1344 -625 1503 -206 
L 1606 56 
L 191 3500 
L 800 3500 
L 1894 763 
L 2988 3500 
L 3597 3500 
L 2059 -325 
z
" transform="scale(0.015625)"/>
      </defs>
      <use xlink:href="#DejaVuSans-61"/>
      <use xlink:href="#DejaVuSans-63" x="61.279297"/>
      <use xlink:href="#DejaVuSans-63" x="116.259766"/>
      <use xlink:href="#DejaVuSans-72" x="171.240234"/>
      <use xlink:href="#DejaVuSans-75" x="212.353516"/>
      <use xlink:href="#DejaVuSans-61" x="275.732422"/>
      <use xlink:href="#DejaVuSans-63" x="337.011719"/>
      <use xlink:href="#DejaVuSans-79" x="391.992188"/>
     </g>
    </g>
   </g>
   <g id="line2d_25">
    <path d="M 115.363636 220.116643 
L 117.060201 223.479766 
L 118.756765 164.863801 
L 120.453329 229.605572 
L 122.149894 214.230847 
L 123.846458 237.773369 
L 125.543022 248.463508 
L 127.239587 201.979234 
L 128.936151 233.209036 
L 130.632715 178.196536 
L 132.329279 275.128978 
L 134.025844 199.697068 
L 135.722408 185.763728 
L 137.418972 204.141312 
L 139.115537 231.76765 
L 140.812101 207.984952 
L 142.508665 174.352896 
L 144.20523 307.8 
L 145.901794 183.601815 
L 147.598358 244.379527 
L 149.294922 295.548387 
L 150.991487 224.801063 
L 152.688051 243.779087 
L 154.384615 284.257643 
L 156.08118 204.141312 
L 157.777744 206.303226 
L 159.474308 261.315726 
L 161.170873 206.303226 
L 162.867437 164.38345 
L 164.564001 167.86666 
L 166.260566 184.562683 
L 167.95713 220.83717 
L 169.653694 201.258541 
L 171.350258 197.534989 
L 173.046823 129.550183 
L 174.743387 185.763728 
L 176.439951 191.649358 
L 178.136516 247.622727 
L 179.83308 191.409183 
L 181.529644 196.934384 
L 183.226209 231.527475 
L 184.922773 221.798039 
L 186.619337 204.141312 
L 188.315901 189.847709 
L 190.012466 178.316789 
L 191.70903 68.051613 
L 193.405594 220.957258 
L 195.102159 236.331983 
L 196.798723 156.33574 
L 198.495287 169.187958 
L 200.191852 207.144006 
L 201.888416 236.091807 
L 203.58498 185.763728 
L 205.281545 186.964938 
L 206.978109 180.598956 
L 208.674673 138.919025 
L 210.371237 247.142376 
L 212.067802 208.945821 
L 213.764366 182.280352 
L 215.46093 195.973515 
L 217.157495 206.423479 
L 218.854059 144.924908 
L 220.550623 167.986914 
L 222.247188 167.145968 
L 223.943752 198.976375 
L 225.640316 121.982991 
L 227.336881 140.240488 
L 229.033445 210.987812 
L 230.730009 164.623625 
L 232.426573 153.212793 
L 234.123138 109.731213 
L 235.819702 185.163288 
L 237.516266 211.588417 
L 240.909395 166.064846 
L 242.605959 190.087885 
L 244.302524 152.612188 
L 245.999088 211.828592 
L 247.695652 143.363435 
L 249.392216 154.533926 
L 251.088781 73.336638 
L 252.785345 129.550183 
L 254.481909 190.68849 
L 256.178474 167.746572 
L 257.875038 125.706543 
L 259.571602 169.06787 
L 261.268167 200.658102 
L 262.964731 115.977273 
L 264.661295 203.180278 
L 266.35786 148.528207 
L 268.054424 152.251759 
L 269.750988 160.17938 
L 271.447552 121.622727 
L 273.144117 205.822874 
L 274.840681 163.18224 
L 276.537245 82.465304 
L 278.23381 87.870418 
L 279.930374 207.144006 
L 281.626938 158.497819 
L 283.323503 122.703519 
L 285.020067 123.664553 
L 286.716631 166.905792 
L 288.413196 103.125055 
L 290.10976 171.470125 
L 291.806324 128.469227 
L 293.502888 159.3386 
L 295.199453 158.737995 
L 296.896017 160.419722 
L 298.592581 120.781947 
L 300.289146 160.900073 
L 301.98571 87.510154 
L 303.682274 182.280352 
L 305.378839 140.120234 
L 307.075403 101.203152 
L 308.771967 135.075385 
L 310.468531 57.961913 
L 312.165096 129.069666 
L 313.86166 154.894355 
L 315.558224 137.357551 
L 317.254789 137.71798 
L 318.951353 119.820913 
L 320.647917 126.667412 
L 322.344482 75.378629 
L 324.041046 134.835209 
L 325.73761 109.611125 
L 327.434175 146.60647 
L 329.130739 139.399542 
L 330.827303 166.545528 
L 332.523867 169.428134 
L 334.220432 150.089681 
L 335.916996 147.927768 
L 337.61356 104.326099 
L 339.310125 108.890432 
L 341.006689 164.623625 
L 342.703253 140.961015 
L 344.399818 103.605407 
L 346.096382 122.823772 
L 347.792946 125.105938 
L 349.48951 55.8 
L 351.186075 87.390066 
L 352.882639 100.722801 
L 354.579203 101.32324 
L 356.275768 114.175458 
L 357.972332 58.082166 
L 359.668896 137.958321 
L 361.365461 86.188856 
L 363.062025 153.212793 
L 364.758589 107.929564 
L 366.455154 81.504435 
L 368.151718 124.625587 
L 369.848282 134.114516 
L 371.544846 140.360576 
L 373.241411 108.169739 
L 374.937975 65.769446 
L 376.634539 121.262298 
L 378.331104 103.004967 
L 380.027668 92.43475 
L 381.724232 103.72566 
L 383.420797 150.45011 
L 385.117361 114.415799 
L 386.813925 119.220308 
L 388.51049 93.876301 
L 390.207054 97.840029 
L 391.903618 113.815194 
L 393.600182 70.213526 
L 395.296747 131.111657 
L 396.993311 122.94386 
L 398.689875 130.390964 
L 400.38644 90.032661 
L 402.083004 132.072525 
L 403.779568 97.960117 
L 405.476133 153.933486 
L 407.172697 107.449047 
L 408.869261 106.127914 
L 410.565825 99.881854 
L 412.26239 105.527309 
L 413.958954 118.259439 
L 415.655518 106.007826 
L 417.352083 100.842889 
L 419.048647 106.728354 
L 420.745211 121.382386 
L 422.441776 102.164021 
L 424.13834 113.214755 
L 425.834904 99.161327 
L 427.531469 145.285172 
L 429.228033 90.753189 
L 430.924597 94.356653 
L 432.621161 115.977273 
L 434.317726 105.046792 
L 436.01429 81.744611 
L 437.710854 129.189919 
L 439.407419 101.32324 
L 441.103983 94.596994 
L 442.800547 60.964772 
L 444.497112 70.213526 
L 446.193676 100.722801 
L 447.89024 117.658834 
L 449.586804 76.339498 
L 451.283369 98.200293 
L 452.979933 135.075385 
L 454.676497 82.945821 
L 456.373062 77.660795 
L 458.069626 78.621664 
L 459.76619 102.404362 
L 461.462755 115.736931 
L 463.159319 109.971554 
L 464.855883 82.465304 
L 466.552448 93.756048 
L 468.249012 91.714058 
L 469.945576 79.942962 
L 471.64214 82.345216 
L 473.338705 86.068768 
L 475.035269 108.530168 
L 476.731833 111.533028 
L 478.428398 123.544465 
L 480.124962 122.94386 
L 481.821526 102.644538 
L 483.518091 98.440634 
L 485.214655 83.786602 
L 486.911219 90.152584 
L 488.607784 95.197434 
L 490.304348 96.758907 
L 492.000912 83.786602 
L 493.697476 117.658834 
L 495.394041 100.002108 
L 497.090605 121.742815 
L 498.787169 115.977273 
L 500.483734 94.837005 
L 502.180298 105.887573 
L 503.876862 88.471022 
L 505.573427 87.029637 
L 507.269991 106.848607 
L 508.966555 87.269813 
L 510.663119 94.957258 
L 512.359684 118.379527 
L 514.056248 109.971554 
L 515.752812 127.508193 
L 517.449377 99.881854 
L 519.145941 100.482459 
L 520.842505 110.692247 
L 522.53907 106.007826 
L 524.235634 100.962976 
L 525.932198 102.884714 
L 527.628763 116.697965 
L 529.325327 102.284274 
L 531.021891 80.783743 
L 532.718455 97.840029 
L 534.41502 102.164021 
L 536.111584 99.161327 
L 537.808148 119.10022 
L 539.504713 66.970491 
L 541.201277 78.501576 
L 542.897841 101.563581 
L 544.594406 93.876301 
L 546.29097 108.410081 
L 547.987534 124.265157 
L 551.380663 105.407221 
L 553.077227 90.032661 
L 554.773791 107.809476 
L 556.470356 96.278556 
L 558.16692 96.999249 
L 559.863484 113.815194 
L 561.560049 101.563581 
L 563.256613 128.82949 
L 564.953177 106.968695 
L 566.649742 135.916165 
L 568.346306 112.013379 
L 570.04287 101.32324 
L 571.739434 81.624523 
L 573.435999 88.59111 
L 575.132563 118.379527 
L 576.829127 97.599688 
L 578.525692 108.289993 
L 580.222256 98.320381 
L 581.91882 103.72566 
L 583.615385 100.002108 
L 585.311949 118.139186 
L 587.008513 109.130773 
L 588.705078 100.842889 
L 590.401642 103.004967 
L 592.098206 109.250861 
L 593.79477 96.879161 
L 595.491335 106.968695 
L 597.187899 120.541605 
L 598.884463 112.253721 
L 600.581028 105.887573 
L 602.277592 103.72566 
L 603.974156 88.350935 
L 605.670721 111.533028 
L 607.367285 98.560722 
L 609.063849 102.164021 
L 610.760413 100.722801 
L 612.456978 103.965836 
L 615.850106 124.385245 
L 617.546671 115.25658 
L 619.243235 122.703519 
L 620.939799 97.239424 
L 622.636364 98.440634 
L 622.636364 98.440634 
" clip-path="url(#p2db00d5b7b)" style="fill: none; stroke: #1f77b4; stroke-width: 1.5; stroke-linecap: square"/>
   </g>
   <g id="line2d_26">
    <path d="M 115.363636 253.763421 
L 117.060201 253.763421 
L 118.756765 264.603752 
L 120.453329 264.603752 
L 122.149894 259.183587 
L 123.846458 270.023918 
L 125.543022 259.183587 
L 127.239587 259.183587 
L 128.936151 248.122928 
L 130.632715 253.543094 
L 132.329279 248.122928 
L 134.025844 248.122928 
L 135.722408 237.282596 
L 137.418972 248.122928 
L 140.812101 248.122928 
L 142.508665 242.702762 
L 144.20523 258.96326 
L 145.901794 258.96326 
L 150.991487 242.702762 
L 152.688051 242.702762 
L 154.384615 231.862431 
L 156.08118 231.862431 
L 157.777744 226.442265 
L 159.474308 242.923089 
L 161.170873 243.143415 
L 162.867437 237.72325 
L 164.564001 237.502923 
L 166.260566 221.242425 
L 167.95713 215.82226 
L 169.653694 215.82226 
L 171.350258 204.981928 
L 173.046823 204.981928 
L 174.743387 215.82226 
L 176.439951 205.202254 
L 178.136516 204.981928 
L 179.83308 216.042586 
L 181.529644 205.202254 
L 183.226209 210.62242 
L 184.922773 199.782088 
L 186.619337 199.782088 
L 188.315901 205.202254 
L 190.012466 205.202254 
L 191.70903 199.782088 
L 193.405594 199.782088 
L 195.102159 205.202254 
L 196.798723 199.782088 
L 198.495287 210.62242 
L 200.191852 205.202254 
L 201.888416 216.042586 
L 203.58498 194.361923 
L 205.281545 194.361923 
L 208.674673 183.521591 
L 210.371237 194.361923 
L 212.067802 194.361923 
L 213.764366 188.941757 
L 217.157495 188.941757 
L 218.854059 183.301264 
L 220.550623 188.72143 
L 222.247188 183.301264 
L 225.640316 183.301264 
L 227.336881 177.881098 
L 229.033445 177.660772 
L 230.730009 183.080938 
L 232.426573 172.240606 
L 235.819702 172.240606 
L 237.516266 177.440445 
L 239.212831 166.379621 
L 240.909395 166.379621 
L 244.302524 177.219953 
L 245.999088 166.379621 
L 247.695652 177.440445 
L 249.392216 177.440445 
L 251.088781 172.020279 
L 252.785345 172.020279 
L 254.481909 172.240606 
L 256.178474 172.240606 
L 257.875038 166.82044 
L 259.571602 183.080938 
L 261.268167 172.020279 
L 262.964731 166.600113 
L 264.661295 177.440445 
L 266.35786 166.600113 
L 269.750988 166.600113 
L 271.447552 155.53929 
L 273.144117 150.119124 
L 281.626938 150.119124 
L 283.323503 144.698958 
L 285.020067 155.53929 
L 286.716631 133.6383 
L 288.413196 139.058465 
L 290.10976 139.058465 
L 291.806324 133.6383 
L 295.199453 144.478631 
L 296.896017 133.6383 
L 298.592581 144.478631 
L 300.289146 139.058465 
L 301.98571 139.058465 
L 303.682274 144.478631 
L 310.468531 144.478631 
L 312.165096 139.058465 
L 313.86166 144.478631 
L 318.951353 144.478631 
L 322.344482 133.6383 
L 324.041046 139.058465 
L 325.73761 155.318963 
L 327.434175 155.318963 
L 329.130739 160.739129 
L 330.827303 160.739129 
L 332.523867 171.579461 
L 334.220432 171.579461 
L 335.916996 166.159295 
L 339.310125 166.159295 
L 341.006689 171.579461 
L 342.703253 171.579461 
L 344.399818 165.938968 
L 346.096382 176.7793 
L 349.48951 176.7793 
L 351.186075 176.558974 
L 352.882639 165.718642 
L 354.579203 165.718642 
L 356.275768 171.138808 
L 357.972332 171.138808 
L 361.365461 160.298476 
L 363.062025 176.7793 
L 364.758589 171.359134 
L 366.455154 171.359134 
L 368.151718 182.199466 
L 371.544846 182.199466 
L 373.241411 182.419793 
L 376.634539 171.579461 
L 378.331104 176.999627 
L 380.027668 160.739129 
L 381.724232 160.739129 
L 383.420797 171.579461 
L 385.117361 160.739129 
L 388.51049 160.739129 
L 390.207054 155.318963 
L 391.903618 166.379621 
L 393.600182 160.739129 
L 395.296747 166.379621 
L 398.689875 155.318963 
L 400.38644 160.959456 
L 402.083004 155.318963 
L 403.779568 160.959456 
L 405.476133 155.318963 
L 407.172697 160.959456 
L 408.869261 144.478631 
L 410.565825 139.058465 
L 415.655518 139.058465 
L 417.352083 144.698958 
L 419.048647 144.698958 
L 420.745211 139.058465 
L 422.441776 139.058465 
L 424.13834 144.258305 
L 425.834904 139.058465 
L 427.531469 144.258305 
L 429.228033 144.478631 
L 430.924597 144.478631 
L 432.621161 138.838139 
L 434.317726 138.838139 
L 436.01429 155.098637 
L 437.710854 155.098637 
L 439.407419 149.678471 
L 441.103983 149.678471 
L 442.800547 144.037978 
L 444.497112 149.678471 
L 446.193676 138.617812 
L 447.89024 144.037978 
L 449.586804 144.037978 
L 451.283369 149.458144 
L 454.676497 149.458144 
L 456.373062 154.87831 
L 476.731833 154.87831 
L 478.428398 149.458144 
L 486.911219 149.458144 
L 488.607784 144.037978 
L 490.304348 149.458144 
L 492.000912 149.458144 
L 493.697476 154.87831 
L 497.090605 154.87831 
L 498.787169 149.458144 
L 500.483734 149.458144 
L 502.180298 154.87831 
L 508.966555 154.87831 
L 510.663119 149.458144 
L 512.359684 154.87831 
L 514.056248 154.87831 
L 515.752812 149.458144 
L 517.449377 149.458144 
L 519.145941 154.87831 
L 520.842505 149.458144 
L 541.201277 149.458144 
L 542.897841 160.298476 
L 544.594406 154.87831 
L 546.29097 160.298476 
L 547.987534 160.298476 
L 549.684099 154.87831 
L 551.380663 160.298476 
L 558.16692 160.298476 
L 559.863484 154.87831 
L 561.560049 160.298476 
L 570.04287 160.298476 
L 571.739434 171.138808 
L 573.435999 171.138808 
L 575.132563 176.7793 
L 576.829127 171.138808 
L 580.222256 171.138808 
L 581.91882 165.498315 
L 583.615385 171.138808 
L 588.705078 171.138808 
L 590.401642 176.558974 
L 620.939799 176.558974 
L 622.636364 181.979139 
L 622.636364 181.979139 
" clip-path="url(#p2db00d5b7b)" style="fill: none; stroke: #ff7f0e; stroke-width: 1.5; stroke-linecap: square"/>
   </g>
   <g id="patch_3">
    <path d="M 90 320.4 
L 90 43.2 
" style="fill: none; stroke: #000000; stroke-width: 0.8; stroke-linejoin: miter; stroke-linecap: square"/>
   </g>
   <g id="patch_4">
    <path d="M 648 320.4 
L 648 43.2 
" style="fill: none; stroke: #000000; stroke-width: 0.8; stroke-linejoin: miter; stroke-linecap: square"/>
   </g>
   <g id="patch_5">
    <path d="M 90 320.4 
L 648 320.4 
" style="fill: none; stroke: #000000; stroke-width: 0.8; stroke-linejoin: miter; stroke-linecap: square"/>
   </g>
   <g id="patch_6">
    <path d="M 90 43.2 
L 648 43.2 
" style="fill: none; stroke: #000000; stroke-width: 0.8; stroke-linejoin: miter; stroke-linecap: square"/>
   </g>
   <g id="text_15">
    <!-- model train and validation accracy over time -->
    <g transform="translate(233.87625 37.2) scale(0.12 -0.12)">
     <defs>
      <path id="DejaVuSans-6d" d="M 3328 2828 
Q 3544 3216 3844 3400 
Q 4144 3584 4550 3584 
Q 5097 3584 5394 3201 
Q 5691 2819 5691 2113 
L 5691 0 
L 5113 0 
L 5113 2094 
Q 5113 2597 4934 2840 
Q 4756 3084 4391 3084 
Q 3944 3084 3684 2787 
Q 3425 2491 3425 1978 
L 3425 0 
L 2847 0 
L 2847 2094 
Q 2847 2600 2669 2842 
Q 2491 3084 2119 3084 
Q 1678 3084 1418 2786 
Q 1159 2488 1159 1978 
L 1159 0 
L 581 0 
L 581 3500 
L 1159 3500 
L 1159 2956 
Q 1356 3278 1631 3431 
Q 1906 3584 2284 3584 
Q 2666 3584 2933 3390 
Q 3200 3197 3328 2828 
z
" transform="scale(0.015625)"/>
      <path id="DejaVuSans-64" d="M 2906 2969 
L 2906 4863 
L 3481 4863 
L 3481 0 
L 2906 0 
L 2906 525 
Q 2725 213 2448 61 
Q 2172 -91 1784 -91 
Q 1150 -91 751 415 
Q 353 922 353 1747 
Q 353 2572 751 3078 
Q 1150 3584 1784 3584 
Q 2172 3584 2448 3432 
Q 2725 3281 2906 2969 
z
M 947 1747 
Q 947 1113 1208 752 
Q 1469 391 1925 391 
Q 2381 391 2643 752 
Q 2906 1113 2906 1747 
Q 2906 2381 2643 2742 
Q 2381 3103 1925 3103 
Q 1469 3103 1208 2742 
Q 947 2381 947 1747 
z
" transform="scale(0.015625)"/>
      <path id="DejaVuSans-6c" d="M 603 4863 
L 1178 4863 
L 1178 0 
L 603 0 
L 603 4863 
z
" transform="scale(0.015625)"/>
      <path id="DejaVuSans-20" transform="scale(0.015625)"/>
      <path id="DejaVuSans-74" d="M 1172 4494 
L 1172 3500 
L 2356 3500 
L 2356 3053 
L 1172 3053 
L 1172 1153 
Q 1172 725 1289 603 
Q 1406 481 1766 481 
L 2356 481 
L 2356 0 
L 1766 0 
Q 1100 0 847 248 
Q 594 497 594 1153 
L 594 3053 
L 172 3053 
L 172 3500 
L 594 3500 
L 594 4494 
L 1172 4494 
z
" transform="scale(0.015625)"/>
      <path id="DejaVuSans-69" d="M 603 3500 
L 1178 3500 
L 1178 0 
L 603 0 
L 603 3500 
z
M 603 4863 
L 1178 4863 
L 1178 4134 
L 603 4134 
L 603 4863 
z
" transform="scale(0.015625)"/>
      <path id="DejaVuSans-6e" d="M 3513 2113 
L 3513 0 
L 2938 0 
L 2938 2094 
Q 2938 2591 2744 2837 
Q 2550 3084 2163 3084 
Q 1697 3084 1428 2787 
Q 1159 2491 1159 1978 
L 1159 0 
L 581 0 
L 581 3500 
L 1159 3500 
L 1159 2956 
Q 1366 3272 1645 3428 
Q 1925 3584 2291 3584 
Q 2894 3584 3203 3211 
Q 3513 2838 3513 2113 
z
" transform="scale(0.015625)"/>
      <path id="DejaVuSans-76" d="M 191 3500 
L 800 3500 
L 1894 563 
L 2988 3500 
L 3597 3500 
L 2284 0 
L 1503 0 
L 191 3500 
z
" transform="scale(0.015625)"/>
     </defs>
     <use xlink:href="#DejaVuSans-6d"/>
     <use xlink:href="#DejaVuSans-6f" x="97.412109"/>
     <use xlink:href="#DejaVuSans-64" x="158.59375"/>
     <use xlink:href="#DejaVuSans-65" x="222.070312"/>
     <use xlink:href="#DejaVuSans-6c" x="283.59375"/>
     <use xlink:href="#DejaVuSans-20" x="311.376953"/>
     <use xlink:href="#DejaVuSans-74" x="343.164062"/>
     <use xlink:href="#DejaVuSans-72" x="382.373047"/>
     <use xlink:href="#DejaVuSans-61" x="423.486328"/>
     <use xlink:href="#DejaVuSans-69" x="484.765625"/>
     <use xlink:href="#DejaVuSans-6e" x="512.548828"/>
     <use xlink:href="#DejaVuSans-20" x="575.927734"/>
     <use xlink:href="#DejaVuSans-61" x="607.714844"/>
     <use xlink:href="#DejaVuSans-6e" x="668.994141"/>
     <use xlink:href="#DejaVuSans-64" x="732.373047"/>
     <use xlink:href="#DejaVuSans-20" x="795.849609"/>
     <use xlink:href="#DejaVuSans-76" x="827.636719"/>
     <use xlink:href="#DejaVuSans-61" x="886.816406"/>
     <use xlink:href="#DejaVuSans-6c" x="948.095703"/>
     <use xlink:href="#DejaVuSans-69" x="975.878906"/>
     <use xlink:href="#DejaVuSans-64" x="1003.662109"/>
     <use xlink:href="#DejaVuSans-61" x="1067.138672"/>
     <use xlink:href="#DejaVuSans-74" x="1128.417969"/>
     <use xlink:href="#DejaVuSans-69" x="1167.626953"/>
     <use xlink:href="#DejaVuSans-6f" x="1195.410156"/>
     <use xlink:href="#DejaVuSans-6e" x="1256.591797"/>
     <use xlink:href="#DejaVuSans-20" x="1319.970703"/>
     <use xlink:href="#DejaVuSans-61" x="1351.757812"/>
     <use xlink:href="#DejaVuSans-63" x="1413.037109"/>
     <use xlink:href="#DejaVuSans-63" x="1468.017578"/>
     <use xlink:href="#DejaVuSans-72" x="1522.998047"/>
     <use xlink:href="#DejaVuSans-61" x="1564.111328"/>
     <use xlink:href="#DejaVuSans-63" x="1625.390625"/>
     <use xlink:href="#DejaVuSans-79" x="1680.371094"/>
     <use xlink:href="#DejaVuSans-20" x="1739.550781"/>
     <use xlink:href="#DejaVuSans-6f" x="1771.337891"/>
     <use xlink:href="#DejaVuSans-76" x="1832.519531"/>
     <use xlink:href="#DejaVuSans-65" x="1891.699219"/>
     <use xlink:href="#DejaVuSans-72" x="1953.222656"/>
     <use xlink:href="#DejaVuSans-20" x="1994.335938"/>
     <use xlink:href="#DejaVuSans-74" x="2026.123047"/>
     <use xlink:href="#DejaVuSans-69" x="2065.332031"/>
     <use xlink:href="#DejaVuSans-6d" x="2093.115234"/>
     <use xlink:href="#DejaVuSans-65" x="2190.527344"/>
    </g>
   </g>
   <g id="legend_1">
    <g id="patch_7">
     <path d="M 559.765625 80.55625 
L 641 80.55625 
Q 643 80.55625 643 78.55625 
L 643 50.2 
Q 643 48.2 641 48.2 
L 559.765625 48.2 
Q 557.765625 48.2 557.765625 50.2 
L 557.765625 78.55625 
Q 557.765625 80.55625 559.765625 80.55625 
z
" style="fill: #ffffff; opacity: 0.8; stroke: #cccccc; stroke-linejoin: miter"/>
    </g>
    <g id="line2d_27">
     <path d="M 561.765625 56.298437 
L 571.765625 56.298437 
L 581.765625 56.298437 
" style="fill: none; stroke: #1f77b4; stroke-width: 1.5; stroke-linecap: square"/>
    </g>
    <g id="text_16">
     <!-- train -->
     <g transform="translate(589.765625 59.798437) scale(0.1 -0.1)">
      <use xlink:href="#DejaVuSans-74"/>
      <use xlink:href="#DejaVuSans-72" x="39.208984"/>
      <use xlink:href="#DejaVuSans-61" x="80.322266"/>
      <use xlink:href="#DejaVuSans-69" x="141.601562"/>
      <use xlink:href="#DejaVuSans-6e" x="169.384766"/>
     </g>
    </g>
    <g id="line2d_28">
     <path d="M 561.765625 70.976562 
L 571.765625 70.976562 
L 581.765625 70.976562 
" style="fill: none; stroke: #ff7f0e; stroke-width: 1.5; stroke-linecap: square"/>
    </g>
    <g id="text_17">
     <!-- validation -->
     <g transform="translate(589.765625 74.476562) scale(0.1 -0.1)">
      <use xlink:href="#DejaVuSans-76"/>
      <use xlink:href="#DejaVuSans-61" x="59.179688"/>
      <use xlink:href="#DejaVuSans-6c" x="120.458984"/>
      <use xlink:href="#DejaVuSans-69" x="148.242188"/>
      <use xlink:href="#DejaVuSans-64" x="176.025391"/>
      <use xlink:href="#DejaVuSans-61" x="239.501953"/>
      <use xlink:href="#DejaVuSans-74" x="300.78125"/>
      <use xlink:href="#DejaVuSans-69" x="339.990234"/>
      <use xlink:href="#DejaVuSans-6f" x="367.773438"/>
      <use xlink:href="#DejaVuSans-6e" x="428.955078"/>
     </g>
    </g>
   </g>
  </g>
 </g>
 <defs>
  <clipPath id="p2db00d5b7b">
   <rect x="90" y="43.2" width="558" height="277.2"/>
  </clipPath>
 </defs>
</svg>
