<?xml version="1.0" encoding="utf-8" standalone="no"?>
<!DOCTYPE svg PUBLIC "-//W3C//DTD SVG 1.1//EN"
  "http://www.w3.org/Graphics/SVG/1.1/DTD/svg11.dtd">
<svg xmlns:xlink="http://www.w3.org/1999/xlink" width="720pt" height="360pt" viewBox="0 0 720 360" xmlns="http://www.w3.org/2000/svg" version="1.1">
 <metadata>
  <rdf:RDF xmlns:dc="http://purl.org/dc/elements/1.1/" xmlns:cc="http://creativecommons.org/ns#" xmlns:rdf="http://www.w3.org/1999/02/22-rdf-syntax-ns#">
   <cc:Work>
    <dc:type rdf:resource="http://purl.org/dc/dcmitype/StillImage"/>
    <dc:date>2023-05-23T19:09:05.983982</dc:date>
    <dc:format>image/svg+xml</dc:format>
    <dc:creator>
     <cc:Agent>
      <dc:title>Matplotlib v3.7.1, https://matplotlib.org/</dc:title>
     </cc:Agent>
    </dc:creator>
   </cc:Work>
  </rdf:RDF>
 </metadata>
 <defs>
  <style type="text/css">*{stroke-linejoin: round; stroke-linecap: butt}</style>
 </defs>
 <g id="figure_1">
  <g id="patch_1">
   <path d="M 0 360 
L 720 360 
L 720 0 
L 0 0 
z
" style="fill: #ffffff"/>
  </g>
  <g id="axes_1">
   <g id="patch_2">
    <path d="M 90 320.4 
L 648 320.4 
L 648 43.2 
L 90 43.2 
z
" style="fill: #ffffff"/>
   </g>
   <g id="matplotlib.axis_1">
    <g id="xtick_1">
     <g id="line2d_1">
      <path d="M 115.363636 320.4 
L 115.363636 43.2 
" clip-path="url(#p02417d70d9)" style="fill: none; stroke: #b0b0b0; stroke-width: 0.8; stroke-linecap: square"/>
     </g>
     <g id="line2d_2">
      <defs>
       <path id="me09f053563" d="M 0 0 
L 0 3.5 
" style="stroke: #000000; stroke-width: 0.8"/>
      </defs>
      <g>
       <use xlink:href="#me09f053563" x="115.363636" y="320.4" style="stroke: #000000; stroke-width: 0.8"/>
      </g>
     </g>
     <g id="text_1">
      <!-- 0 -->
      <g transform="translate(112.182386 334.998438) scale(0.1 -0.1)">
       <defs>
        <path id="DejaVuSans-30" d="M 2034 4250 
Q 1547 4250 1301 3770 
Q 1056 3291 1056 2328 
Q 1056 1369 1301 889 
Q 1547 409 2034 409 
Q 2525 409 2770 889 
Q 3016 1369 3016 2328 
Q 3016 3291 2770 3770 
Q 2525 4250 2034 4250 
z
M 2034 4750 
Q 2819 4750 3233 4129 
Q 3647 3509 3647 2328 
Q 3647 1150 3233 529 
Q 2819 -91 2034 -91 
Q 1250 -91 836 529 
Q 422 1150 422 2328 
Q 422 3509 836 4129 
Q 1250 4750 2034 4750 
z
" transform="scale(0.015625)"/>
       </defs>
       <use xlink:href="#DejaVuSans-30"/>
      </g>
     </g>
    </g>
    <g id="xtick_2">
     <g id="line2d_3">
      <path d="M 200.191852 320.4 
L 200.191852 43.2 
" clip-path="url(#p02417d70d9)" style="fill: none; stroke: #b0b0b0; stroke-width: 0.8; stroke-linecap: square"/>
     </g>
     <g id="line2d_4">
      <g>
       <use xlink:href="#me09f053563" x="200.191852" y="320.4" style="stroke: #000000; stroke-width: 0.8"/>
      </g>
     </g>
     <g id="text_2">
      <!-- 50 -->
      <g transform="translate(193.829352 334.998438) scale(0.1 -0.1)">
       <defs>
        <path id="DejaVuSans-35" d="M 691 4666 
L 3169 4666 
L 3169 4134 
L 1269 4134 
L 1269 2991 
Q 1406 3038 1543 3061 
Q 1681 3084 1819 3084 
Q 2600 3084 3056 2656 
Q 3513 2228 3513 1497 
Q 3513 744 3044 326 
Q 2575 -91 1722 -91 
Q 1428 -91 1123 -41 
Q 819 9 494 109 
L 494 744 
Q 775 591 1075 516 
Q 1375 441 1709 441 
Q 2250 441 2565 725 
Q 2881 1009 2881 1497 
Q 2881 1984 2565 2268 
Q 2250 2553 1709 2553 
Q 1456 2553 1204 2497 
Q 953 2441 691 2322 
L 691 4666 
z
" transform="scale(0.015625)"/>
       </defs>
       <use xlink:href="#DejaVuSans-35"/>
       <use xlink:href="#DejaVuSans-30" x="63.623047"/>
      </g>
     </g>
    </g>
    <g id="xtick_3">
     <g id="line2d_5">
      <path d="M 285.020067 320.4 
L 285.020067 43.2 
" clip-path="url(#p02417d70d9)" style="fill: none; stroke: #b0b0b0; stroke-width: 0.8; stroke-linecap: square"/>
     </g>
     <g id="line2d_6">
      <g>
       <use xlink:href="#me09f053563" x="285.020067" y="320.4" style="stroke: #000000; stroke-width: 0.8"/>
      </g>
     </g>
     <g id="text_3">
      <!-- 100 -->
      <g transform="translate(275.476317 334.998438) scale(0.1 -0.1)">
       <defs>
        <path id="DejaVuSans-31" d="M 794 531 
L 1825 531 
L 1825 4091 
L 703 3866 
L 703 4441 
L 1819 4666 
L 2450 4666 
L 2450 531 
L 3481 531 
L 3481 0 
L 794 0 
L 794 531 
z
" transform="scale(0.015625)"/>
       </defs>
       <use xlink:href="#DejaVuSans-31"/>
       <use xlink:href="#DejaVuSans-30" x="63.623047"/>
       <use xlink:href="#DejaVuSans-30" x="127.246094"/>
      </g>
     </g>
    </g>
    <g id="xtick_4">
     <g id="line2d_7">
      <path d="M 369.848282 320.4 
L 369.848282 43.2 
" clip-path="url(#p02417d70d9)" style="fill: none; stroke: #b0b0b0; stroke-width: 0.8; stroke-linecap: square"/>
     </g>
     <g id="line2d_8">
      <g>
       <use xlink:href="#me09f053563" x="369.848282" y="320.4" style="stroke: #000000; stroke-width: 0.8"/>
      </g>
     </g>
     <g id="text_4">
      <!-- 150 -->
      <g transform="translate(360.304532 334.998438) scale(0.1 -0.1)">
       <use xlink:href="#DejaVuSans-31"/>
       <use xlink:href="#DejaVuSans-35" x="63.623047"/>
       <use xlink:href="#DejaVuSans-30" x="127.246094"/>
      </g>
     </g>
    </g>
    <g id="xtick_5">
     <g id="line2d_9">
      <path d="M 454.676497 320.4 
L 454.676497 43.2 
" clip-path="url(#p02417d70d9)" style="fill: none; stroke: #b0b0b0; stroke-width: 0.8; stroke-linecap: square"/>
     </g>
     <g id="line2d_10">
      <g>
       <use xlink:href="#me09f053563" x="454.676497" y="320.4" style="stroke: #000000; stroke-width: 0.8"/>
      </g>
     </g>
     <g id="text_5">
      <!-- 200 -->
      <g transform="translate(445.132747 334.998438) scale(0.1 -0.1)">
       <defs>
        <path id="DejaVuSans-32" d="M 1228 531 
L 3431 531 
L 3431 0 
L 469 0 
L 469 531 
Q 828 903 1448 1529 
Q 2069 2156 2228 2338 
Q 2531 2678 2651 2914 
Q 2772 3150 2772 3378 
Q 2772 3750 2511 3984 
Q 2250 4219 1831 4219 
Q 1534 4219 1204 4116 
Q 875 4013 500 3803 
L 500 4441 
Q 881 4594 1212 4672 
Q 1544 4750 1819 4750 
Q 2544 4750 2975 4387 
Q 3406 4025 3406 3419 
Q 3406 3131 3298 2873 
Q 3191 2616 2906 2266 
Q 2828 2175 2409 1742 
Q 1991 1309 1228 531 
z
" transform="scale(0.015625)"/>
       </defs>
       <use xlink:href="#DejaVuSans-32"/>
       <use xlink:href="#DejaVuSans-30" x="63.623047"/>
       <use xlink:href="#DejaVuSans-30" x="127.246094"/>
      </g>
     </g>
    </g>
    <g id="xtick_6">
     <g id="line2d_11">
      <path d="M 539.504713 320.4 
L 539.504713 43.2 
" clip-path="url(#p02417d70d9)" style="fill: none; stroke: #b0b0b0; stroke-width: 0.8; stroke-linecap: square"/>
     </g>
     <g id="line2d_12">
      <g>
       <use xlink:href="#me09f053563" x="539.504713" y="320.4" style="stroke: #000000; stroke-width: 0.8"/>
      </g>
     </g>
     <g id="text_6">
      <!-- 250 -->
      <g transform="translate(529.960963 334.998438) scale(0.1 -0.1)">
       <use xlink:href="#DejaVuSans-32"/>
       <use xlink:href="#DejaVuSans-35" x="63.623047"/>
       <use xlink:href="#DejaVuSans-30" x="127.246094"/>
      </g>
     </g>
    </g>
    <g id="xtick_7">
     <g id="line2d_13">
      <path d="M 624.332928 320.4 
L 624.332928 43.2 
" clip-path="url(#p02417d70d9)" style="fill: none; stroke: #b0b0b0; stroke-width: 0.8; stroke-linecap: square"/>
     </g>
     <g id="line2d_14">
      <g>
       <use xlink:href="#me09f053563" x="624.332928" y="320.4" style="stroke: #000000; stroke-width: 0.8"/>
      </g>
     </g>
     <g id="text_7">
      <!-- 300 -->
      <g transform="translate(614.789178 334.998438) scale(0.1 -0.1)">
       <defs>
        <path id="DejaVuSans-33" d="M 2597 2516 
Q 3050 2419 3304 2112 
Q 3559 1806 3559 1356 
Q 3559 666 3084 287 
Q 2609 -91 1734 -91 
Q 1441 -91 1130 -33 
Q 819 25 488 141 
L 488 750 
Q 750 597 1062 519 
Q 1375 441 1716 441 
Q 2309 441 2620 675 
Q 2931 909 2931 1356 
Q 2931 1769 2642 2001 
Q 2353 2234 1838 2234 
L 1294 2234 
L 1294 2753 
L 1863 2753 
Q 2328 2753 2575 2939 
Q 2822 3125 2822 3475 
Q 2822 3834 2567 4026 
Q 2313 4219 1838 4219 
Q 1578 4219 1281 4162 
Q 984 4106 628 3988 
L 628 4550 
Q 988 4650 1302 4700 
Q 1616 4750 1894 4750 
Q 2613 4750 3031 4423 
Q 3450 4097 3450 3541 
Q 3450 3153 3228 2886 
Q 3006 2619 2597 2516 
z
" transform="scale(0.015625)"/>
       </defs>
       <use xlink:href="#DejaVuSans-33"/>
       <use xlink:href="#DejaVuSans-30" x="63.623047"/>
       <use xlink:href="#DejaVuSans-30" x="127.246094"/>
      </g>
     </g>
    </g>
    <g id="text_8">
     <!-- epoch -->
     <g transform="translate(353.771875 348.676562) scale(0.1 -0.1)">
      <defs>
       <path id="DejaVuSans-65" d="M 3597 1894 
L 3597 1613 
L 953 1613 
Q 991 1019 1311 708 
Q 1631 397 2203 397 
Q 2534 397 2845 478 
Q 3156 559 3463 722 
L 3463 178 
Q 3153 47 2828 -22 
Q 2503 -91 2169 -91 
Q 1331 -91 842 396 
Q 353 884 353 1716 
Q 353 2575 817 3079 
Q 1281 3584 2069 3584 
Q 2775 3584 3186 3129 
Q 3597 2675 3597 1894 
z
M 3022 2063 
Q 3016 2534 2758 2815 
Q 2500 3097 2075 3097 
Q 1594 3097 1305 2825 
Q 1016 2553 972 2059 
L 3022 2063 
z
" transform="scale(0.015625)"/>
       <path id="DejaVuSans-70" d="M 1159 525 
L 1159 -1331 
L 581 -1331 
L 581 3500 
L 1159 3500 
L 1159 2969 
Q 1341 3281 1617 3432 
Q 1894 3584 2278 3584 
Q 2916 3584 3314 3078 
Q 3713 2572 3713 1747 
Q 3713 922 3314 415 
Q 2916 -91 2278 -91 
Q 1894 -91 1617 61 
Q 1341 213 1159 525 
z
M 3116 1747 
Q 3116 2381 2855 2742 
Q 2594 3103 2138 3103 
Q 1681 3103 1420 2742 
Q 1159 2381 1159 1747 
Q 1159 1113 1420 752 
Q 1681 391 2138 391 
Q 2594 391 2855 752 
Q 3116 1113 3116 1747 
z
" transform="scale(0.015625)"/>
       <path id="DejaVuSans-6f" d="M 1959 3097 
Q 1497 3097 1228 2736 
Q 959 2375 959 1747 
Q 959 1119 1226 758 
Q 1494 397 1959 397 
Q 2419 397 2687 759 
Q 2956 1122 2956 1747 
Q 2956 2369 2687 2733 
Q 2419 3097 1959 3097 
z
M 1959 3584 
Q 2709 3584 3137 3096 
Q 3566 2609 3566 1747 
Q 3566 888 3137 398 
Q 2709 -91 1959 -91 
Q 1206 -91 779 398 
Q 353 888 353 1747 
Q 353 2609 779 3096 
Q 1206 3584 1959 3584 
z
" transform="scale(0.015625)"/>
       <path id="DejaVuSans-63" d="M 3122 3366 
L 3122 2828 
Q 2878 2963 2633 3030 
Q 2388 3097 2138 3097 
Q 1578 3097 1268 2742 
Q 959 2388 959 1747 
Q 959 1106 1268 751 
Q 1578 397 2138 397 
Q 2388 397 2633 464 
Q 2878 531 3122 666 
L 3122 134 
Q 2881 22 2623 -34 
Q 2366 -91 2075 -91 
Q 1284 -91 818 406 
Q 353 903 353 1747 
Q 353 2603 823 3093 
Q 1294 3584 2113 3584 
Q 2378 3584 2631 3529 
Q 2884 3475 3122 3366 
z
" transform="scale(0.015625)"/>
       <path id="DejaVuSans-68" d="M 3513 2113 
L 3513 0 
L 2938 0 
L 2938 2094 
Q 2938 2591 2744 2837 
Q 2550 3084 2163 3084 
Q 1697 3084 1428 2787 
Q 1159 2491 1159 1978 
L 1159 0 
L 581 0 
L 581 4863 
L 1159 4863 
L 1159 2956 
Q 1366 3272 1645 3428 
Q 1925 3584 2291 3584 
Q 2894 3584 3203 3211 
Q 3513 2838 3513 2113 
z
" transform="scale(0.015625)"/>
      </defs>
      <use xlink:href="#DejaVuSans-65"/>
      <use xlink:href="#DejaVuSans-70" x="61.523438"/>
      <use xlink:href="#DejaVuSans-6f" x="125"/>
      <use xlink:href="#DejaVuSans-63" x="186.181641"/>
      <use xlink:href="#DejaVuSans-68" x="241.162109"/>
     </g>
    </g>
   </g>
   <g id="matplotlib.axis_2">
    <g id="ytick_1">
     <g id="line2d_15">
      <path d="M 90 305.012598 
L 648 305.012598 
" clip-path="url(#p02417d70d9)" style="fill: none; stroke: #b0b0b0; stroke-width: 0.8; stroke-linecap: square"/>
     </g>
     <g id="line2d_16">
      <defs>
       <path id="mf6ecf2fb0a" d="M 0 0 
L -3.5 0 
" style="stroke: #000000; stroke-width: 0.8"/>
      </defs>
      <g>
       <use xlink:href="#mf6ecf2fb0a" x="90" y="305.012598" style="stroke: #000000; stroke-width: 0.8"/>
      </g>
     </g>
     <g id="text_9">
      <!-- 1.375 -->
      <g transform="translate(54.371875 308.811817) scale(0.1 -0.1)">
       <defs>
        <path id="DejaVuSans-2e" d="M 684 794 
L 1344 794 
L 1344 0 
L 684 0 
L 684 794 
z
" transform="scale(0.015625)"/>
        <path id="DejaVuSans-37" d="M 525 4666 
L 3525 4666 
L 3525 4397 
L 1831 0 
L 1172 0 
L 2766 4134 
L 525 4134 
L 525 4666 
z
" transform="scale(0.015625)"/>
       </defs>
       <use xlink:href="#DejaVuSans-31"/>
       <use xlink:href="#DejaVuSans-2e" x="63.623047"/>
       <use xlink:href="#DejaVuSans-33" x="95.410156"/>
       <use xlink:href="#DejaVuSans-37" x="159.033203"/>
       <use xlink:href="#DejaVuSans-35" x="222.65625"/>
      </g>
     </g>
    </g>
    <g id="ytick_2">
     <g id="line2d_17">
      <path d="M 90 258.434071 
L 648 258.434071 
" clip-path="url(#p02417d70d9)" style="fill: none; stroke: #b0b0b0; stroke-width: 0.8; stroke-linecap: square"/>
     </g>
     <g id="line2d_18">
      <g>
       <use xlink:href="#mf6ecf2fb0a" x="90" y="258.434071" style="stroke: #000000; stroke-width: 0.8"/>
      </g>
     </g>
     <g id="text_10">
      <!-- 1.380 -->
      <g transform="translate(54.371875 262.233289) scale(0.1 -0.1)">
       <defs>
        <path id="DejaVuSans-38" d="M 2034 2216 
Q 1584 2216 1326 1975 
Q 1069 1734 1069 1313 
Q 1069 891 1326 650 
Q 1584 409 2034 409 
Q 2484 409 2743 651 
Q 3003 894 3003 1313 
Q 3003 1734 2745 1975 
Q 2488 2216 2034 2216 
z
M 1403 2484 
Q 997 2584 770 2862 
Q 544 3141 544 3541 
Q 544 4100 942 4425 
Q 1341 4750 2034 4750 
Q 2731 4750 3128 4425 
Q 3525 4100 3525 3541 
Q 3525 3141 3298 2862 
Q 3072 2584 2669 2484 
Q 3125 2378 3379 2068 
Q 3634 1759 3634 1313 
Q 3634 634 3220 271 
Q 2806 -91 2034 -91 
Q 1263 -91 848 271 
Q 434 634 434 1313 
Q 434 1759 690 2068 
Q 947 2378 1403 2484 
z
M 1172 3481 
Q 1172 3119 1398 2916 
Q 1625 2713 2034 2713 
Q 2441 2713 2670 2916 
Q 2900 3119 2900 3481 
Q 2900 3844 2670 4047 
Q 2441 4250 2034 4250 
Q 1625 4250 1398 4047 
Q 1172 3844 1172 3481 
z
" transform="scale(0.015625)"/>
       </defs>
       <use xlink:href="#DejaVuSans-31"/>
       <use xlink:href="#DejaVuSans-2e" x="63.623047"/>
       <use xlink:href="#DejaVuSans-33" x="95.410156"/>
       <use xlink:href="#DejaVuSans-38" x="159.033203"/>
       <use xlink:href="#DejaVuSans-30" x="222.65625"/>
      </g>
     </g>
    </g>
    <g id="ytick_3">
     <g id="line2d_19">
      <path d="M 90 211.855543 
L 648 211.855543 
" clip-path="url(#p02417d70d9)" style="fill: none; stroke: #b0b0b0; stroke-width: 0.8; stroke-linecap: square"/>
     </g>
     <g id="line2d_20">
      <g>
       <use xlink:href="#mf6ecf2fb0a" x="90" y="211.855543" style="stroke: #000000; stroke-width: 0.8"/>
      </g>
     </g>
     <g id="text_11">
      <!-- 1.385 -->
      <g transform="translate(54.371875 215.654762) scale(0.1 -0.1)">
       <use xlink:href="#DejaVuSans-31"/>
       <use xlink:href="#DejaVuSans-2e" x="63.623047"/>
       <use xlink:href="#DejaVuSans-33" x="95.410156"/>
       <use xlink:href="#DejaVuSans-38" x="159.033203"/>
       <use xlink:href="#DejaVuSans-35" x="222.65625"/>
      </g>
     </g>
    </g>
    <g id="ytick_4">
     <g id="line2d_21">
      <path d="M 90 165.277015 
L 648 165.277015 
" clip-path="url(#p02417d70d9)" style="fill: none; stroke: #b0b0b0; stroke-width: 0.8; stroke-linecap: square"/>
     </g>
     <g id="line2d_22">
      <g>
       <use xlink:href="#mf6ecf2fb0a" x="90" y="165.277015" style="stroke: #000000; stroke-width: 0.8"/>
      </g>
     </g>
     <g id="text_12">
      <!-- 1.390 -->
      <g transform="translate(54.371875 169.076234) scale(0.1 -0.1)">
       <defs>
        <path id="DejaVuSans-39" d="M 703 97 
L 703 672 
Q 941 559 1184 500 
Q 1428 441 1663 441 
Q 2288 441 2617 861 
Q 2947 1281 2994 2138 
Q 2813 1869 2534 1725 
Q 2256 1581 1919 1581 
Q 1219 1581 811 2004 
Q 403 2428 403 3163 
Q 403 3881 828 4315 
Q 1253 4750 1959 4750 
Q 2769 4750 3195 4129 
Q 3622 3509 3622 2328 
Q 3622 1225 3098 567 
Q 2575 -91 1691 -91 
Q 1453 -91 1209 -44 
Q 966 3 703 97 
z
M 1959 2075 
Q 2384 2075 2632 2365 
Q 2881 2656 2881 3163 
Q 2881 3666 2632 3958 
Q 2384 4250 1959 4250 
Q 1534 4250 1286 3958 
Q 1038 3666 1038 3163 
Q 1038 2656 1286 2365 
Q 1534 2075 1959 2075 
z
" transform="scale(0.015625)"/>
       </defs>
       <use xlink:href="#DejaVuSans-31"/>
       <use xlink:href="#DejaVuSans-2e" x="63.623047"/>
       <use xlink:href="#DejaVuSans-33" x="95.410156"/>
       <use xlink:href="#DejaVuSans-39" x="159.033203"/>
       <use xlink:href="#DejaVuSans-30" x="222.65625"/>
      </g>
     </g>
    </g>
    <g id="ytick_5">
     <g id="line2d_23">
      <path d="M 90 118.698487 
L 648 118.698487 
" clip-path="url(#p02417d70d9)" style="fill: none; stroke: #b0b0b0; stroke-width: 0.8; stroke-linecap: square"/>
     </g>
     <g id="line2d_24">
      <g>
       <use xlink:href="#mf6ecf2fb0a" x="90" y="118.698487" style="stroke: #000000; stroke-width: 0.8"/>
      </g>
     </g>
     <g id="text_13">
      <!-- 1.395 -->
      <g transform="translate(54.371875 122.497706) scale(0.1 -0.1)">
       <use xlink:href="#DejaVuSans-31"/>
       <use xlink:href="#DejaVuSans-2e" x="63.623047"/>
       <use xlink:href="#DejaVuSans-33" x="95.410156"/>
       <use xlink:href="#DejaVuSans-39" x="159.033203"/>
       <use xlink:href="#DejaVuSans-35" x="222.65625"/>
      </g>
     </g>
    </g>
    <g id="ytick_6">
     <g id="line2d_25">
      <path d="M 90 72.11996 
L 648 72.11996 
" clip-path="url(#p02417d70d9)" style="fill: none; stroke: #b0b0b0; stroke-width: 0.8; stroke-linecap: square"/>
     </g>
     <g id="line2d_26">
      <g>
       <use xlink:href="#mf6ecf2fb0a" x="90" y="72.11996" style="stroke: #000000; stroke-width: 0.8"/>
      </g>
     </g>
     <g id="text_14">
      <!-- 1.400 -->
      <g transform="translate(54.371875 75.919179) scale(0.1 -0.1)">
       <defs>
        <path id="DejaVuSans-34" d="M 2419 4116 
L 825 1625 
L 2419 1625 
L 2419 4116 
z
M 2253 4666 
L 3047 4666 
L 3047 1625 
L 3713 1625 
L 3713 1100 
L 3047 1100 
L 3047 0 
L 2419 0 
L 2419 1100 
L 313 1100 
L 313 1709 
L 2253 4666 
z
" transform="scale(0.015625)"/>
       </defs>
       <use xlink:href="#DejaVuSans-31"/>
       <use xlink:href="#DejaVuSans-2e" x="63.623047"/>
       <use xlink:href="#DejaVuSans-34" x="95.410156"/>
       <use xlink:href="#DejaVuSans-30" x="159.033203"/>
       <use xlink:href="#DejaVuSans-30" x="222.65625"/>
      </g>
     </g>
    </g>
    <g id="text_15">
     <!-- loss -->
     <g transform="translate(48.292188 191.457812) rotate(-90) scale(0.1 -0.1)">
      <defs>
       <path id="DejaVuSans-6c" d="M 603 4863 
L 1178 4863 
L 1178 0 
L 603 0 
L 603 4863 
z
" transform="scale(0.015625)"/>
       <path id="DejaVuSans-73" d="M 2834 3397 
L 2834 2853 
Q 2591 2978 2328 3040 
Q 2066 3103 1784 3103 
Q 1356 3103 1142 2972 
Q 928 2841 928 2578 
Q 928 2378 1081 2264 
Q 1234 2150 1697 2047 
L 1894 2003 
Q 2506 1872 2764 1633 
Q 3022 1394 3022 966 
Q 3022 478 2636 193 
Q 2250 -91 1575 -91 
Q 1294 -91 989 -36 
Q 684 19 347 128 
L 347 722 
Q 666 556 975 473 
Q 1284 391 1588 391 
Q 1994 391 2212 530 
Q 2431 669 2431 922 
Q 2431 1156 2273 1281 
Q 2116 1406 1581 1522 
L 1381 1569 
Q 847 1681 609 1914 
Q 372 2147 372 2553 
Q 372 3047 722 3315 
Q 1072 3584 1716 3584 
Q 2034 3584 2315 3537 
Q 2597 3491 2834 3397 
z
" transform="scale(0.015625)"/>
      </defs>
      <use xlink:href="#DejaVuSans-6c"/>
      <use xlink:href="#DejaVuSans-6f" x="27.783203"/>
      <use xlink:href="#DejaVuSans-73" x="88.964844"/>
      <use xlink:href="#DejaVuSans-73" x="141.064453"/>
     </g>
    </g>
   </g>
   <g id="line2d_27">
    <path d="M 115.363636 55.8 
L 117.060201 84.528007 
L 118.756765 87.692985 
L 120.453329 104.532889 
L 122.149894 108.441915 
L 123.846458 102.420683 
L 125.543022 137.314289 
L 127.239587 113.743531 
L 128.936151 133.058782 
L 130.632715 120.823087 
L 132.329279 143.20448 
L 134.025844 129.274134 
L 135.722408 154.897131 
L 137.418972 161.188219 
L 139.115537 171.111813 
L 140.812101 170.69759 
L 142.508665 197.752045 
L 144.20523 200.819297 
L 145.901794 165.75134 
L 147.598358 211.639081 
L 149.294922 188.438125 
L 150.991487 156.398552 
L 152.688051 199.014705 
L 154.384615 200.078582 
L 156.08118 196.629311 
L 157.777744 201.998668 
L 159.474308 209.632373 
L 161.170873 215.403739 
L 162.867437 212.367581 
L 164.564001 229.818271 
L 166.260566 228.808809 
L 167.95713 238.878992 
L 169.653694 239.595277 
L 171.350258 219.64592 
L 173.046823 220.595413 
L 174.743387 255.044812 
L 176.439951 214.812943 
L 178.136516 254.629478 
L 179.83308 243.796369 
L 181.529644 237.678522 
L 183.226209 176.45674 
L 184.922773 231.547348 
L 186.619337 228.535622 
L 188.315901 221.40165 
L 190.012466 229.493999 
L 191.70903 209.198161 
L 193.405594 225.535 
L 195.102159 228.678879 
L 196.798723 213.159381 
L 198.495287 208.249778 
L 200.191852 242.494841 
L 201.888416 242.452641 
L 203.58498 225.94034 
L 205.281545 236.080485 
L 206.978109 249.526645 
L 208.674673 228.399028 
L 210.371237 251.87095 
L 212.067802 264.511983 
L 213.764366 232.75115 
L 215.46093 240.750216 
L 217.157495 251.197976 
L 218.854059 222.347812 
L 220.550623 237.109936 
L 222.247188 242.589235 
L 223.943752 243.880768 
L 225.640316 247.316713 
L 227.336881 214.490892 
L 229.033445 275.14631 
L 230.730009 283.21867 
L 232.426573 227.35514 
L 234.123138 244.499327 
L 235.819702 233.202021 
L 237.516266 247.191224 
L 239.212831 251.156886 
L 240.909395 245.247817 
L 242.605959 220.135659 
L 244.302524 216.600878 
L 245.999088 228.362381 
L 247.695652 222.049082 
L 249.392216 232.678967 
L 251.088781 258.164259 
L 252.785345 227.560586 
L 254.481909 258.826128 
L 256.178474 248.095186 
L 257.875038 229.47512 
L 259.571602 239.825154 
L 261.268167 238.59581 
L 262.964731 244.907998 
L 264.661295 242.584793 
L 266.35786 247.960814 
L 268.054424 229.124197 
L 269.750988 216.814097 
L 271.447552 248.027445 
L 273.144117 245.550988 
L 274.840681 243.684206 
L 276.537245 224.67768 
L 278.23381 238.931187 
L 279.930374 220.11789 
L 281.626938 246.835858 
L 283.323503 204.365183 
L 285.020067 233.236447 
L 286.716631 255.611177 
L 288.413196 216.140013 
L 290.10976 249.914216 
L 291.806324 255.83217 
L 293.502888 193.554285 
L 295.199453 256.015405 
L 296.896017 225.862603 
L 298.592581 239.307652 
L 300.289146 220.324447 
L 301.98571 217.195005 
L 303.682274 212.287623 
L 305.378839 203.784382 
L 307.075403 217.674749 
L 308.771967 229.789397 
L 310.468531 207.994358 
L 312.165096 231.040952 
L 313.86166 216.194428 
L 317.254789 223.476099 
L 318.951353 248.508299 
L 320.647917 207.531272 
L 322.344482 214.808501 
L 324.041046 232.10705 
L 325.73761 231.405202 
L 327.434175 219.937986 
L 329.130739 200.860387 
L 330.827303 209.760083 
L 332.523867 209.883351 
L 334.220432 210.163201 
L 335.916996 227.16191 
L 337.61356 196.13513 
L 339.310125 230.1592 
L 341.006689 244.309428 
L 342.703253 249.681007 
L 344.399818 218.392144 
L 346.096382 213.424795 
L 347.792946 216.778561 
L 349.48951 223.207353 
L 351.186075 198.417246 
L 352.882639 233.459661 
L 354.579203 193.998492 
L 356.275768 206.821651 
L 357.972332 194.195054 
L 359.668896 214.726322 
L 361.365461 201.227968 
L 363.062025 204.455135 
L 364.758589 215.045041 
L 366.455154 237.714058 
L 368.151718 224.514434 
L 369.848282 223.765944 
L 371.544846 192.394903 
L 373.241411 217.515945 
L 374.937975 222.070182 
L 376.634539 247.797567 
L 378.331104 213.809034 
L 380.027668 227.108605 
L 381.724232 198.262884 
L 383.420797 222.169018 
L 385.117361 213.707977 
L 386.813925 219.095103 
L 388.51049 214.706333 
L 390.207054 220.546551 
L 391.903618 220.878596 
L 393.600182 218.997377 
L 395.296747 201.289047 
L 396.993311 228.717747 
L 398.689875 209.780072 
L 400.38644 212.269855 
L 402.083004 209.275897 
L 403.779568 196.815878 
L 405.476133 192.180573 
L 407.172697 220.110117 
L 408.869261 192.913515 
L 410.565825 201.654407 
L 412.26239 205.615627 
L 413.958954 223.524962 
L 415.655518 232.905512 
L 417.352083 231.505148 
L 419.048647 207.135927 
L 420.745211 213.365937 
L 422.441776 182.875537 
L 424.13834 197.153475 
L 425.834904 204.392946 
L 427.531469 183.589601 
L 429.228033 188.227127 
L 430.924597 165.681377 
L 432.621161 205.309124 
L 434.317726 192.525944 
L 436.01429 215.377086 
L 437.710854 199.110209 
L 439.407419 203.652231 
L 441.103983 187.866208 
L 442.800547 204.478456 
L 444.497112 200.920355 
L 446.193676 208.882773 
L 447.89024 187.003335 
L 449.586804 204.961532 
L 451.283369 189.966199 
L 452.979933 190.688036 
L 454.676497 186.182662 
L 456.373062 164.817394 
L 458.069626 204.912669 
L 459.76619 186.381445 
L 461.462755 197.625446 
L 463.159319 202.77381 
L 464.855883 160.728464 
L 466.552448 196.516038 
L 468.249012 200.115229 
L 469.945576 199.577738 
L 471.64214 214.880684 
L 473.338705 197.699851 
L 475.035269 191.576451 
L 476.731833 198.2118 
L 478.428398 209.192608 
L 481.821526 179.422935 
L 483.518091 195.286694 
L 485.214655 199.90312 
L 486.911219 203.490095 
L 488.607784 185.671823 
L 490.304348 184.640151 
L 492.000912 201.732144 
L 493.697476 172.472199 
L 495.394041 194.118428 
L 497.090605 195.757554 
L 498.787169 186.295935 
L 500.483734 175.885933 
L 502.180298 191.800776 
L 503.876862 185.341999 
L 505.573427 189.012263 
L 507.269991 181.142018 
L 508.966555 163.039453 
L 510.663119 190.947897 
L 512.359684 171.112924 
L 514.056248 189.251025 
L 515.752812 190.01173 
L 517.449377 172.782033 
L 519.145941 188.942301 
L 520.842505 168.997386 
L 522.53907 183.956072 
L 524.235634 189.071121 
L 525.932198 154.280793 
L 527.628763 147.01578 
L 529.325327 180.494585 
L 531.021891 177.068635 
L 532.718455 163.992278 
L 534.41502 145.334455 
L 536.111584 171.711493 
L 537.808148 139.075572 
L 539.504713 167.482638 
L 541.201277 178.42791 
L 542.897841 196.02741 
L 544.594406 183.016573 
L 546.29097 182.164805 
L 547.987534 166.97291 
L 549.684099 189.7341 
L 551.380663 169.784744 
L 553.077227 189.894015 
L 554.773791 167.664764 
L 556.470356 150.396199 
L 558.16692 166.121143 
L 559.863484 162.570815 
L 561.560049 178.317969 
L 563.256613 157.724511 
L 564.953177 158.982729 
L 566.649742 165.905702 
L 568.346306 151.575569 
L 570.04287 163.93231 
L 571.739434 140.480378 
L 573.435999 167.523728 
L 575.132563 166.808554 
L 576.829127 138.988951 
L 578.525692 175.503915 
L 580.222256 171.302823 
L 581.91882 173.852573 
L 583.615385 155.654504 
L 585.311949 166.374341 
L 587.008513 176.232415 
L 588.705078 151.695505 
L 590.401642 172.682087 
L 592.098206 169.223932 
L 593.79477 147.754275 
L 595.491335 174.853151 
L 597.187899 162.505294 
L 598.884463 163.147174 
L 600.581028 166.304378 
L 602.277592 155.620078 
L 603.974156 154.540654 
L 605.670721 164.298782 
L 607.367285 179.392951 
L 609.063849 160.068816 
L 610.760413 182.358036 
L 612.456978 161.011646 
L 614.153542 167.950167 
L 615.850106 145.407749 
L 617.546671 157.903305 
L 619.243235 169.371631 
L 620.939799 178.896549 
L 622.636364 110.91504 
L 622.636364 110.91504 
" clip-path="url(#p02417d70d9)" style="fill: none; stroke: #1f77b4; stroke-width: 1.5; stroke-linecap: square"/>
   </g>
   <g id="line2d_28">
    <path d="M 115.363636 114.338769 
L 117.060201 128.246904 
L 118.756765 140.654729 
L 120.453329 149.34898 
L 122.149894 159.642377 
L 123.846458 170.777547 
L 125.543022 180.365765 
L 127.239587 185.953895 
L 130.632715 203.043666 
L 132.329279 206.343017 
L 134.025844 211.297041 
L 135.722408 208.580712 
L 137.418972 216.298817 
L 139.115537 224.625486 
L 140.812101 228.98094 
L 142.508665 228.807699 
L 144.20523 230.983205 
L 145.901794 242.49262 
L 147.598358 239.865133 
L 150.991487 253.812136 
L 152.688051 244.310539 
L 154.384615 251.081371 
L 156.08118 257.029309 
L 157.777744 261.037171 
L 159.474308 260.034372 
L 161.170873 266.34545 
L 162.867437 270.011272 
L 164.564001 266.168877 
L 167.95713 271.225069 
L 169.653694 277.26518 
L 171.350258 276.081367 
L 173.046823 282.04041 
L 174.743387 280.054802 
L 176.439951 283.30418 
L 178.136516 282.10482 
L 179.83308 285.247587 
L 181.529644 282.492391 
L 183.226209 290.251584 
L 184.922773 280.30578 
L 186.619337 282.653416 
L 188.315901 286.719025 
L 190.012466 286.36588 
L 191.70903 281.876053 
L 193.405594 288.080521 
L 195.102159 289.89844 
L 196.798723 289.137734 
L 198.495287 290.315995 
L 200.191852 288.159367 
L 201.888416 291.178868 
L 203.58498 293.966269 
L 205.281545 290.189395 
L 206.978109 291.438729 
L 208.674673 293.634224 
L 210.371237 291.753006 
L 212.067802 291.328788 
L 213.764366 297.697612 
L 215.46093 294.109526 
L 217.157495 291.584207 
L 218.854059 295.254471 
L 220.550623 292.214981 
L 222.247188 296.758113 
L 223.943752 288.623564 
L 225.640316 295.749762 
L 227.336881 301.870941 
L 229.033445 291.626407 
L 230.730009 297.384446 
L 232.426573 304.723863 
L 235.819702 289.388711 
L 237.516266 291.844068 
L 239.212831 299.252338 
L 240.909395 298.257313 
L 242.605959 290.367078 
L 244.302524 301.071368 
L 245.999088 292.701389 
L 247.695652 299.327853 
L 249.392216 296.725908 
L 251.088781 287.268731 
L 252.785345 307.8 
L 254.481909 294.427135 
L 256.178474 302.410653 
L 257.875038 294.398261 
L 259.571602 288.638001 
L 261.268167 303.724397 
L 262.964731 298.910298 
L 264.661295 300.221821 
L 266.35786 303.693302 
L 268.054424 295.115656 
L 269.750988 300.717112 
L 271.447552 298.790362 
L 273.144117 298.932509 
L 274.840681 297.593223 
L 276.537245 299.649904 
L 278.23381 300.82039 
L 279.930374 299.929754 
L 281.626938 290.69246 
L 283.323503 296.3872 
L 285.020067 300.309552 
L 286.716631 295.192282 
L 288.413196 296.461605 
L 290.10976 295.920782 
L 291.806324 300.586071 
L 293.502888 298.811462 
L 295.199453 293.808576 
L 296.896017 300.366188 
L 298.592581 293.854107 
L 300.289146 298.811462 
L 301.98571 293.633114 
L 303.682274 294.31053 
L 305.378839 299.048003 
L 307.075403 287.142132 
L 308.771967 295.779746 
L 310.468531 291.0134 
L 312.165096 294.615923 
L 313.86166 289.453122 
L 315.558224 293.339937 
L 317.254789 295.421049 
L 318.951353 290.136091 
L 320.647917 295.463248 
L 322.344482 286.000519 
L 324.041046 294.982394 
L 325.73761 288.440329 
L 327.434175 290.15608 
L 329.130739 289.886224 
L 330.827303 292.870187 
L 332.523867 283.923849 
L 334.220432 289.708541 
L 335.916996 289.032235 
L 337.61356 288.543607 
L 339.310125 289.418695 
L 341.006689 285.265356 
L 342.703253 294.317193 
L 344.399818 295.932998 
L 346.096382 291.22662 
L 347.792946 286.06604 
L 349.48951 280.080344 
L 351.186075 286.710141 
L 352.882639 278.369035 
L 354.579203 293.660877 
L 356.275768 285.138757 
L 357.972332 277.670519 
L 359.668896 279.751631 
L 361.365461 282.022641 
L 363.062025 292.799114 
L 364.758589 283.103176 
L 366.455154 278.244657 
L 368.151718 285.064352 
L 369.848282 287.296494 
L 373.241411 270.659815 
L 374.937975 280.775529 
L 378.331104 284.188153 
L 380.027668 280.84216 
L 383.420797 277.987017 
L 385.117361 280.387958 
L 386.813925 272.024642 
L 388.51049 275.540544 
L 390.207054 285.250919 
L 391.903618 276.677715 
L 393.600182 279.154172 
L 395.296747 277.632761 
L 396.993311 271.754786 
L 398.689875 270.17896 
L 400.38644 284.009359 
L 402.083004 272.271177 
L 403.779568 272.658748 
L 405.476133 277.28739 
L 407.172697 269.485996 
L 408.869261 269.453791 
L 410.565825 276.912035 
L 412.26239 265.408172 
L 413.958954 265.59585 
L 415.655518 277.920386 
L 417.352083 273.936955 
L 419.048647 271.57044 
L 420.745211 268.327726 
L 422.441776 273.142934 
L 424.13834 268.450993 
L 425.834904 268.517624 
L 427.531469 271.692597 
L 429.228033 264.306538 
L 430.924597 265.744659 
L 432.621161 266.939577 
L 434.317726 267.015092 
L 436.01429 264.694109 
L 437.710854 267.07395 
L 439.407419 272.092384 
L 441.103983 270.126766 
L 442.800547 258.710634 
L 444.497112 265.728001 
L 446.193676 255.61895 
L 447.89024 271.823638 
L 449.586804 269.358287 
L 451.283369 259.921099 
L 452.979933 264.617483 
L 454.676497 268.404351 
L 456.373062 256.052052 
L 458.069626 255.616729 
L 459.76619 262.077727 
L 461.462755 264.656351 
L 463.159319 259.350293 
L 464.855883 258.642892 
L 466.552448 263.128277 
L 468.249012 262.605223 
L 469.945576 254.370727 
L 471.64214 261.958901 
L 473.338705 261.4203 
L 475.035269 263.764604 
L 476.731833 252.44953 
L 478.428398 260.483022 
L 480.124962 253.069199 
L 481.821526 257.712278 
L 483.518091 258.056539 
L 485.214655 248.471652 
L 486.911219 254.968186 
L 488.607784 260.120993 
L 490.304348 252.64276 
L 492.000912 255.838833 
L 493.697476 251.325685 
L 495.394041 243.731959 
L 497.090605 260.916124 
L 498.787169 251.008077 
L 500.483734 256.747237 
L 502.180298 257.350249 
L 503.876862 242.087281 
L 505.573427 253.275756 
L 507.269991 261.560225 
L 508.966555 245.066802 
L 510.663119 246.058495 
L 512.359684 256.401866 
L 514.056248 244.116198 
L 515.752812 253.205793 
L 517.449377 249.528866 
L 519.145941 236.546903 
L 520.842505 247.538817 
L 522.53907 249.519982 
L 524.235634 240.338214 
L 525.932198 247.67541 
L 527.628763 239.271005 
L 529.325327 239.705218 
L 531.021891 244.280555 
L 532.718455 245.288906 
L 536.111584 235.10545 
L 537.808148 238.421459 
L 539.504713 247.274513 
L 541.201277 235.088792 
L 542.897841 243.214457 
L 544.594406 246.890274 
L 546.29097 243.921857 
L 547.987534 240.256035 
L 549.684099 241.556453 
L 551.380663 228.817693 
L 553.077227 239.896227 
L 554.773791 240.162752 
L 556.470356 240.566981 
L 558.16692 234.706774 
L 559.863484 234.284777 
L 561.560049 232.935496 
L 563.256613 238.741288 
L 564.953177 238.596921 
L 566.649742 230.728896 
L 568.346306 235.98276 
L 570.04287 232.906623 
L 571.739434 235.707351 
L 573.435999 226.036955 
L 575.132563 230.461261 
L 576.829127 237.087726 
L 578.525692 228.389033 
L 580.222256 237.285398 
L 581.91882 228.062541 
L 583.615385 236.415862 
L 585.311949 230.37353 
L 587.008513 233.996042 
L 588.705078 226.606651 
L 590.401642 222.768698 
L 592.098206 239.17328 
L 593.79477 228.823246 
L 597.187899 224.658801 
L 598.884463 222.829777 
L 600.581028 230.09479 
L 602.277592 228.898761 
L 603.974156 214.125532 
L 605.670721 226.122465 
L 607.367285 231.59399 
L 609.063849 232.141476 
L 610.760413 218.7886 
L 612.456978 224.93421 
L 614.153542 223.224011 
L 615.850106 223.409468 
L 617.546671 217.640323 
L 619.243235 233.619576 
L 620.939799 217.046196 
L 622.636364 217.834664 
L 622.636364 217.834664 
" clip-path="url(#p02417d70d9)" style="fill: none; stroke: #ff7f0e; stroke-width: 1.5; stroke-linecap: square"/>
   </g>
   <g id="patch_3">
    <path d="M 90 320.4 
L 90 43.2 
" style="fill: none; stroke: #000000; stroke-width: 0.8; stroke-linejoin: miter; stroke-linecap: square"/>
   </g>
   <g id="patch_4">
    <path d="M 648 320.4 
L 648 43.2 
" style="fill: none; stroke: #000000; stroke-width: 0.8; stroke-linejoin: miter; stroke-linecap: square"/>
   </g>
   <g id="patch_5">
    <path d="M 90 320.4 
L 648 320.4 
" style="fill: none; stroke: #000000; stroke-width: 0.8; stroke-linejoin: miter; stroke-linecap: square"/>
   </g>
   <g id="patch_6">
    <path d="M 90 43.2 
L 648 43.2 
" style="fill: none; stroke: #000000; stroke-width: 0.8; stroke-linejoin: miter; stroke-linecap: square"/>
   </g>
   <g id="text_16">
    <!-- model train and validation loss over time -->
    <g transform="translate(245.555625 37.2) scale(0.12 -0.12)">
     <defs>
      <path id="DejaVuSans-6d" d="M 3328 2828 
Q 3544 3216 3844 3400 
Q 4144 3584 4550 3584 
Q 5097 3584 5394 3201 
Q 5691 2819 5691 2113 
L 5691 0 
L 5113 0 
L 5113 2094 
Q 5113 2597 4934 2840 
Q 4756 3084 4391 3084 
Q 3944 3084 3684 2787 
Q 3425 2491 3425 1978 
L 3425 0 
L 2847 0 
L 2847 2094 
Q 2847 2600 2669 2842 
Q 2491 3084 2119 3084 
Q 1678 3084 1418 2786 
Q 1159 2488 1159 1978 
L 1159 0 
L 581 0 
L 581 3500 
L 1159 3500 
L 1159 2956 
Q 1356 3278 1631 3431 
Q 1906 3584 2284 3584 
Q 2666 3584 2933 3390 
Q 3200 3197 3328 2828 
z
" transform="scale(0.015625)"/>
      <path id="DejaVuSans-64" d="M 2906 2969 
L 2906 4863 
L 3481 4863 
L 3481 0 
L 2906 0 
L 2906 525 
Q 2725 213 2448 61 
Q 2172 -91 1784 -91 
Q 1150 -91 751 415 
Q 353 922 353 1747 
Q 353 2572 751 3078 
Q 1150 3584 1784 3584 
Q 2172 3584 2448 3432 
Q 2725 3281 2906 2969 
z
M 947 1747 
Q 947 1113 1208 752 
Q 1469 391 1925 391 
Q 2381 391 2643 752 
Q 2906 1113 2906 1747 
Q 2906 2381 2643 2742 
Q 2381 3103 1925 3103 
Q 1469 3103 1208 2742 
Q 947 2381 947 1747 
z
" transform="scale(0.015625)"/>
      <path id="DejaVuSans-20" transform="scale(0.015625)"/>
      <path id="DejaVuSans-74" d="M 1172 4494 
L 1172 3500 
L 2356 3500 
L 2356 3053 
L 1172 3053 
L 1172 1153 
Q 1172 725 1289 603 
Q 1406 481 1766 481 
L 2356 481 
L 2356 0 
L 1766 0 
Q 1100 0 847 248 
Q 594 497 594 1153 
L 594 3053 
L 172 3053 
L 172 3500 
L 594 3500 
L 594 4494 
L 1172 4494 
z
" transform="scale(0.015625)"/>
      <path id="DejaVuSans-72" d="M 2631 2963 
Q 2534 3019 2420 3045 
Q 2306 3072 2169 3072 
Q 1681 3072 1420 2755 
Q 1159 2438 1159 1844 
L 1159 0 
L 581 0 
L 581 3500 
L 1159 3500 
L 1159 2956 
Q 1341 3275 1631 3429 
Q 1922 3584 2338 3584 
Q 2397 3584 2469 3576 
Q 2541 3569 2628 3553 
L 2631 2963 
z
" transform="scale(0.015625)"/>
      <path id="DejaVuSans-61" d="M 2194 1759 
Q 1497 1759 1228 1600 
Q 959 1441 959 1056 
Q 959 750 1161 570 
Q 1363 391 1709 391 
Q 2188 391 2477 730 
Q 2766 1069 2766 1631 
L 2766 1759 
L 2194 1759 
z
M 3341 1997 
L 3341 0 
L 2766 0 
L 2766 531 
Q 2569 213 2275 61 
Q 1981 -91 1556 -91 
Q 1019 -91 701 211 
Q 384 513 384 1019 
Q 384 1609 779 1909 
Q 1175 2209 1959 2209 
L 2766 2209 
L 2766 2266 
Q 2766 2663 2505 2880 
Q 2244 3097 1772 3097 
Q 1472 3097 1187 3025 
Q 903 2953 641 2809 
L 641 3341 
Q 956 3463 1253 3523 
Q 1550 3584 1831 3584 
Q 2591 3584 2966 3190 
Q 3341 2797 3341 1997 
z
" transform="scale(0.015625)"/>
      <path id="DejaVuSans-69" d="M 603 3500 
L 1178 3500 
L 1178 0 
L 603 0 
L 603 3500 
z
M 603 4863 
L 1178 4863 
L 1178 4134 
L 603 4134 
L 603 4863 
z
" transform="scale(0.015625)"/>
      <path id="DejaVuSans-6e" d="M 3513 2113 
L 3513 0 
L 2938 0 
L 2938 2094 
Q 2938 2591 2744 2837 
Q 2550 3084 2163 3084 
Q 1697 3084 1428 2787 
Q 1159 2491 1159 1978 
L 1159 0 
L 581 0 
L 581 3500 
L 1159 3500 
L 1159 2956 
Q 1366 3272 1645 3428 
Q 1925 3584 2291 3584 
Q 2894 3584 3203 3211 
Q 3513 2838 3513 2113 
z
" transform="scale(0.015625)"/>
      <path id="DejaVuSans-76" d="M 191 3500 
L 800 3500 
L 1894 563 
L 2988 3500 
L 3597 3500 
L 2284 0 
L 1503 0 
L 191 3500 
z
" transform="scale(0.015625)"/>
     </defs>
     <use xlink:href="#DejaVuSans-6d"/>
     <use xlink:href="#DejaVuSans-6f" x="97.412109"/>
     <use xlink:href="#DejaVuSans-64" x="158.59375"/>
     <use xlink:href="#DejaVuSans-65" x="222.070312"/>
     <use xlink:href="#DejaVuSans-6c" x="283.59375"/>
     <use xlink:href="#DejaVuSans-20" x="311.376953"/>
     <use xlink:href="#DejaVuSans-74" x="343.164062"/>
     <use xlink:href="#DejaVuSans-72" x="382.373047"/>
     <use xlink:href="#DejaVuSans-61" x="423.486328"/>
     <use xlink:href="#DejaVuSans-69" x="484.765625"/>
     <use xlink:href="#DejaVuSans-6e" x="512.548828"/>
     <use xlink:href="#DejaVuSans-20" x="575.927734"/>
     <use xlink:href="#DejaVuSans-61" x="607.714844"/>
     <use xlink:href="#DejaVuSans-6e" x="668.994141"/>
     <use xlink:href="#DejaVuSans-64" x="732.373047"/>
     <use xlink:href="#DejaVuSans-20" x="795.849609"/>
     <use xlink:href="#DejaVuSans-76" x="827.636719"/>
     <use xlink:href="#DejaVuSans-61" x="886.816406"/>
     <use xlink:href="#DejaVuSans-6c" x="948.095703"/>
     <use xlink:href="#DejaVuSans-69" x="975.878906"/>
     <use xlink:href="#DejaVuSans-64" x="1003.662109"/>
     <use xlink:href="#DejaVuSans-61" x="1067.138672"/>
     <use xlink:href="#DejaVuSans-74" x="1128.417969"/>
     <use xlink:href="#DejaVuSans-69" x="1167.626953"/>
     <use xlink:href="#DejaVuSans-6f" x="1195.410156"/>
     <use xlink:href="#DejaVuSans-6e" x="1256.591797"/>
     <use xlink:href="#DejaVuSans-20" x="1319.970703"/>
     <use xlink:href="#DejaVuSans-6c" x="1351.757812"/>
     <use xlink:href="#DejaVuSans-6f" x="1379.541016"/>
     <use xlink:href="#DejaVuSans-73" x="1440.722656"/>
     <use xlink:href="#DejaVuSans-73" x="1492.822266"/>
     <use xlink:href="#DejaVuSans-20" x="1544.921875"/>
     <use xlink:href="#DejaVuSans-6f" x="1576.708984"/>
     <use xlink:href="#DejaVuSans-76" x="1637.890625"/>
     <use xlink:href="#DejaVuSans-65" x="1697.070312"/>
     <use xlink:href="#DejaVuSans-72" x="1758.59375"/>
     <use xlink:href="#DejaVuSans-20" x="1799.707031"/>
     <use xlink:href="#DejaVuSans-74" x="1831.494141"/>
     <use xlink:href="#DejaVuSans-69" x="1870.703125"/>
     <use xlink:href="#DejaVuSans-6d" x="1898.486328"/>
     <use xlink:href="#DejaVuSans-65" x="1995.898438"/>
    </g>
   </g>
   <g id="legend_1">
    <g id="patch_7">
     <path d="M 559.765625 80.55625 
L 641 80.55625 
Q 643 80.55625 643 78.55625 
L 643 50.2 
Q 643 48.2 641 48.2 
L 559.765625 48.2 
Q 557.765625 48.2 557.765625 50.2 
L 557.765625 78.55625 
Q 557.765625 80.55625 559.765625 80.55625 
z
" style="fill: #ffffff; opacity: 0.8; stroke: #cccccc; stroke-linejoin: miter"/>
    </g>
    <g id="line2d_29">
     <path d="M 561.765625 56.298437 
L 571.765625 56.298437 
L 581.765625 56.298437 
" style="fill: none; stroke: #1f77b4; stroke-width: 1.5; stroke-linecap: square"/>
    </g>
    <g id="text_17">
     <!-- train -->
     <g transform="translate(589.765625 59.798437) scale(0.1 -0.1)">
      <use xlink:href="#DejaVuSans-74"/>
      <use xlink:href="#DejaVuSans-72" x="39.208984"/>
      <use xlink:href="#DejaVuSans-61" x="80.322266"/>
      <use xlink:href="#DejaVuSans-69" x="141.601562"/>
      <use xlink:href="#DejaVuSans-6e" x="169.384766"/>
     </g>
    </g>
    <g id="line2d_30">
     <path d="M 561.765625 70.976562 
L 571.765625 70.976562 
L 581.765625 70.976562 
" style="fill: none; stroke: #ff7f0e; stroke-width: 1.5; stroke-linecap: square"/>
    </g>
    <g id="text_18">
     <!-- validation -->
     <g transform="translate(589.765625 74.476562) scale(0.1 -0.1)">
      <use xlink:href="#DejaVuSans-76"/>
      <use xlink:href="#DejaVuSans-61" x="59.179688"/>
      <use xlink:href="#DejaVuSans-6c" x="120.458984"/>
      <use xlink:href="#DejaVuSans-69" x="148.242188"/>
      <use xlink:href="#DejaVuSans-64" x="176.025391"/>
      <use xlink:href="#DejaVuSans-61" x="239.501953"/>
      <use xlink:href="#DejaVuSans-74" x="300.78125"/>
      <use xlink:href="#DejaVuSans-69" x="339.990234"/>
      <use xlink:href="#DejaVuSans-6f" x="367.773438"/>
      <use xlink:href="#DejaVuSans-6e" x="428.955078"/>
     </g>
    </g>
   </g>
  </g>
 </g>
 <defs>
  <clipPath id="p02417d70d9">
   <rect x="90" y="43.2" width="558" height="277.2"/>
  </clipPath>
 </defs>
</svg>
