<?xml version="1.0" encoding="utf-8" standalone="no"?>
<!DOCTYPE svg PUBLIC "-//W3C//DTD SVG 1.1//EN"
  "http://www.w3.org/Graphics/SVG/1.1/DTD/svg11.dtd">
<svg xmlns:xlink="http://www.w3.org/1999/xlink" width="720pt" height="360pt" viewBox="0 0 720 360" xmlns="http://www.w3.org/2000/svg" version="1.1">
 <metadata>
  <rdf:RDF xmlns:dc="http://purl.org/dc/elements/1.1/" xmlns:cc="http://creativecommons.org/ns#" xmlns:rdf="http://www.w3.org/1999/02/22-rdf-syntax-ns#">
   <cc:Work>
    <dc:type rdf:resource="http://purl.org/dc/dcmitype/StillImage"/>
    <dc:date>2023-05-24T11:52:19.134759</dc:date>
    <dc:format>image/svg+xml</dc:format>
    <dc:creator>
     <cc:Agent>
      <dc:title>Matplotlib v3.7.1, https://matplotlib.org/</dc:title>
     </cc:Agent>
    </dc:creator>
   </cc:Work>
  </rdf:RDF>
 </metadata>
 <defs>
  <style type="text/css">*{stroke-linejoin: round; stroke-linecap: butt}</style>
 </defs>
 <g id="figure_1">
  <g id="patch_1">
   <path d="M 0 360 
L 720 360 
L 720 0 
L 0 0 
z
" style="fill: #ffffff"/>
  </g>
  <g id="axes_1">
   <g id="patch_2">
    <path d="M 90 320.4 
L 648 320.4 
L 648 43.2 
L 90 43.2 
z
" style="fill: #ffffff"/>
   </g>
   <g id="matplotlib.axis_1">
    <g id="xtick_1">
     <g id="line2d_1">
      <path d="M 115.363636 320.4 
L 115.363636 43.2 
" clip-path="url(#pea89dff3a5)" style="fill: none; stroke: #b0b0b0; stroke-width: 0.8; stroke-linecap: square"/>
     </g>
     <g id="line2d_2">
      <defs>
       <path id="mb31385f122" d="M 0 0 
L 0 3.5 
" style="stroke: #000000; stroke-width: 0.8"/>
      </defs>
      <g>
       <use xlink:href="#mb31385f122" x="115.363636" y="320.4" style="stroke: #000000; stroke-width: 0.8"/>
      </g>
     </g>
     <g id="text_1">
      <!-- 0 -->
      <g transform="translate(112.182386 334.998438) scale(0.1 -0.1)">
       <defs>
        <path id="DejaVuSans-30" d="M 2034 4250 
Q 1547 4250 1301 3770 
Q 1056 3291 1056 2328 
Q 1056 1369 1301 889 
Q 1547 409 2034 409 
Q 2525 409 2770 889 
Q 3016 1369 3016 2328 
Q 3016 3291 2770 3770 
Q 2525 4250 2034 4250 
z
M 2034 4750 
Q 2819 4750 3233 4129 
Q 3647 3509 3647 2328 
Q 3647 1150 3233 529 
Q 2819 -91 2034 -91 
Q 1250 -91 836 529 
Q 422 1150 422 2328 
Q 422 3509 836 4129 
Q 1250 4750 2034 4750 
z
" transform="scale(0.015625)"/>
       </defs>
       <use xlink:href="#DejaVuSans-30"/>
      </g>
     </g>
    </g>
    <g id="xtick_2">
     <g id="line2d_3">
      <path d="M 217.021498 320.4 
L 217.021498 43.2 
" clip-path="url(#pea89dff3a5)" style="fill: none; stroke: #b0b0b0; stroke-width: 0.8; stroke-linecap: square"/>
     </g>
     <g id="line2d_4">
      <g>
       <use xlink:href="#mb31385f122" x="217.021498" y="320.4" style="stroke: #000000; stroke-width: 0.8"/>
      </g>
     </g>
     <g id="text_2">
      <!-- 100 -->
      <g transform="translate(207.477748 334.998438) scale(0.1 -0.1)">
       <defs>
        <path id="DejaVuSans-31" d="M 794 531 
L 1825 531 
L 1825 4091 
L 703 3866 
L 703 4441 
L 1819 4666 
L 2450 4666 
L 2450 531 
L 3481 531 
L 3481 0 
L 794 0 
L 794 531 
z
" transform="scale(0.015625)"/>
       </defs>
       <use xlink:href="#DejaVuSans-31"/>
       <use xlink:href="#DejaVuSans-30" x="63.623047"/>
       <use xlink:href="#DejaVuSans-30" x="127.246094"/>
      </g>
     </g>
    </g>
    <g id="xtick_3">
     <g id="line2d_5">
      <path d="M 318.679359 320.4 
L 318.679359 43.2 
" clip-path="url(#pea89dff3a5)" style="fill: none; stroke: #b0b0b0; stroke-width: 0.8; stroke-linecap: square"/>
     </g>
     <g id="line2d_6">
      <g>
       <use xlink:href="#mb31385f122" x="318.679359" y="320.4" style="stroke: #000000; stroke-width: 0.8"/>
      </g>
     </g>
     <g id="text_3">
      <!-- 200 -->
      <g transform="translate(309.135609 334.998438) scale(0.1 -0.1)">
       <defs>
        <path id="DejaVuSans-32" d="M 1228 531 
L 3431 531 
L 3431 0 
L 469 0 
L 469 531 
Q 828 903 1448 1529 
Q 2069 2156 2228 2338 
Q 2531 2678 2651 2914 
Q 2772 3150 2772 3378 
Q 2772 3750 2511 3984 
Q 2250 4219 1831 4219 
Q 1534 4219 1204 4116 
Q 875 4013 500 3803 
L 500 4441 
Q 881 4594 1212 4672 
Q 1544 4750 1819 4750 
Q 2544 4750 2975 4387 
Q 3406 4025 3406 3419 
Q 3406 3131 3298 2873 
Q 3191 2616 2906 2266 
Q 2828 2175 2409 1742 
Q 1991 1309 1228 531 
z
" transform="scale(0.015625)"/>
       </defs>
       <use xlink:href="#DejaVuSans-32"/>
       <use xlink:href="#DejaVuSans-30" x="63.623047"/>
       <use xlink:href="#DejaVuSans-30" x="127.246094"/>
      </g>
     </g>
    </g>
    <g id="xtick_4">
     <g id="line2d_7">
      <path d="M 420.33722 320.4 
L 420.33722 43.2 
" clip-path="url(#pea89dff3a5)" style="fill: none; stroke: #b0b0b0; stroke-width: 0.8; stroke-linecap: square"/>
     </g>
     <g id="line2d_8">
      <g>
       <use xlink:href="#mb31385f122" x="420.33722" y="320.4" style="stroke: #000000; stroke-width: 0.8"/>
      </g>
     </g>
     <g id="text_4">
      <!-- 300 -->
      <g transform="translate(410.79347 334.998438) scale(0.1 -0.1)">
       <defs>
        <path id="DejaVuSans-33" d="M 2597 2516 
Q 3050 2419 3304 2112 
Q 3559 1806 3559 1356 
Q 3559 666 3084 287 
Q 2609 -91 1734 -91 
Q 1441 -91 1130 -33 
Q 819 25 488 141 
L 488 750 
Q 750 597 1062 519 
Q 1375 441 1716 441 
Q 2309 441 2620 675 
Q 2931 909 2931 1356 
Q 2931 1769 2642 2001 
Q 2353 2234 1838 2234 
L 1294 2234 
L 1294 2753 
L 1863 2753 
Q 2328 2753 2575 2939 
Q 2822 3125 2822 3475 
Q 2822 3834 2567 4026 
Q 2313 4219 1838 4219 
Q 1578 4219 1281 4162 
Q 984 4106 628 3988 
L 628 4550 
Q 988 4650 1302 4700 
Q 1616 4750 1894 4750 
Q 2613 4750 3031 4423 
Q 3450 4097 3450 3541 
Q 3450 3153 3228 2886 
Q 3006 2619 2597 2516 
z
" transform="scale(0.015625)"/>
       </defs>
       <use xlink:href="#DejaVuSans-33"/>
       <use xlink:href="#DejaVuSans-30" x="63.623047"/>
       <use xlink:href="#DejaVuSans-30" x="127.246094"/>
      </g>
     </g>
    </g>
    <g id="xtick_5">
     <g id="line2d_9">
      <path d="M 521.995081 320.4 
L 521.995081 43.2 
" clip-path="url(#pea89dff3a5)" style="fill: none; stroke: #b0b0b0; stroke-width: 0.8; stroke-linecap: square"/>
     </g>
     <g id="line2d_10">
      <g>
       <use xlink:href="#mb31385f122" x="521.995081" y="320.4" style="stroke: #000000; stroke-width: 0.8"/>
      </g>
     </g>
     <g id="text_5">
      <!-- 400 -->
      <g transform="translate(512.451331 334.998438) scale(0.1 -0.1)">
       <defs>
        <path id="DejaVuSans-34" d="M 2419 4116 
L 825 1625 
L 2419 1625 
L 2419 4116 
z
M 2253 4666 
L 3047 4666 
L 3047 1625 
L 3713 1625 
L 3713 1100 
L 3047 1100 
L 3047 0 
L 2419 0 
L 2419 1100 
L 313 1100 
L 313 1709 
L 2253 4666 
z
" transform="scale(0.015625)"/>
       </defs>
       <use xlink:href="#DejaVuSans-34"/>
       <use xlink:href="#DejaVuSans-30" x="63.623047"/>
       <use xlink:href="#DejaVuSans-30" x="127.246094"/>
      </g>
     </g>
    </g>
    <g id="xtick_6">
     <g id="line2d_11">
      <path d="M 623.652942 320.4 
L 623.652942 43.2 
" clip-path="url(#pea89dff3a5)" style="fill: none; stroke: #b0b0b0; stroke-width: 0.8; stroke-linecap: square"/>
     </g>
     <g id="line2d_12">
      <g>
       <use xlink:href="#mb31385f122" x="623.652942" y="320.4" style="stroke: #000000; stroke-width: 0.8"/>
      </g>
     </g>
     <g id="text_6">
      <!-- 500 -->
      <g transform="translate(614.109192 334.998438) scale(0.1 -0.1)">
       <defs>
        <path id="DejaVuSans-35" d="M 691 4666 
L 3169 4666 
L 3169 4134 
L 1269 4134 
L 1269 2991 
Q 1406 3038 1543 3061 
Q 1681 3084 1819 3084 
Q 2600 3084 3056 2656 
Q 3513 2228 3513 1497 
Q 3513 744 3044 326 
Q 2575 -91 1722 -91 
Q 1428 -91 1123 -41 
Q 819 9 494 109 
L 494 744 
Q 775 591 1075 516 
Q 1375 441 1709 441 
Q 2250 441 2565 725 
Q 2881 1009 2881 1497 
Q 2881 1984 2565 2268 
Q 2250 2553 1709 2553 
Q 1456 2553 1204 2497 
Q 953 2441 691 2322 
L 691 4666 
z
" transform="scale(0.015625)"/>
       </defs>
       <use xlink:href="#DejaVuSans-35"/>
       <use xlink:href="#DejaVuSans-30" x="63.623047"/>
       <use xlink:href="#DejaVuSans-30" x="127.246094"/>
      </g>
     </g>
    </g>
    <g id="text_7">
     <!-- epoch -->
     <g transform="translate(353.771875 348.676562) scale(0.1 -0.1)">
      <defs>
       <path id="DejaVuSans-65" d="M 3597 1894 
L 3597 1613 
L 953 1613 
Q 991 1019 1311 708 
Q 1631 397 2203 397 
Q 2534 397 2845 478 
Q 3156 559 3463 722 
L 3463 178 
Q 3153 47 2828 -22 
Q 2503 -91 2169 -91 
Q 1331 -91 842 396 
Q 353 884 353 1716 
Q 353 2575 817 3079 
Q 1281 3584 2069 3584 
Q 2775 3584 3186 3129 
Q 3597 2675 3597 1894 
z
M 3022 2063 
Q 3016 2534 2758 2815 
Q 2500 3097 2075 3097 
Q 1594 3097 1305 2825 
Q 1016 2553 972 2059 
L 3022 2063 
z
" transform="scale(0.015625)"/>
       <path id="DejaVuSans-70" d="M 1159 525 
L 1159 -1331 
L 581 -1331 
L 581 3500 
L 1159 3500 
L 1159 2969 
Q 1341 3281 1617 3432 
Q 1894 3584 2278 3584 
Q 2916 3584 3314 3078 
Q 3713 2572 3713 1747 
Q 3713 922 3314 415 
Q 2916 -91 2278 -91 
Q 1894 -91 1617 61 
Q 1341 213 1159 525 
z
M 3116 1747 
Q 3116 2381 2855 2742 
Q 2594 3103 2138 3103 
Q 1681 3103 1420 2742 
Q 1159 2381 1159 1747 
Q 1159 1113 1420 752 
Q 1681 391 2138 391 
Q 2594 391 2855 752 
Q 3116 1113 3116 1747 
z
" transform="scale(0.015625)"/>
       <path id="DejaVuSans-6f" d="M 1959 3097 
Q 1497 3097 1228 2736 
Q 959 2375 959 1747 
Q 959 1119 1226 758 
Q 1494 397 1959 397 
Q 2419 397 2687 759 
Q 2956 1122 2956 1747 
Q 2956 2369 2687 2733 
Q 2419 3097 1959 3097 
z
M 1959 3584 
Q 2709 3584 3137 3096 
Q 3566 2609 3566 1747 
Q 3566 888 3137 398 
Q 2709 -91 1959 -91 
Q 1206 -91 779 398 
Q 353 888 353 1747 
Q 353 2609 779 3096 
Q 1206 3584 1959 3584 
z
" transform="scale(0.015625)"/>
       <path id="DejaVuSans-63" d="M 3122 3366 
L 3122 2828 
Q 2878 2963 2633 3030 
Q 2388 3097 2138 3097 
Q 1578 3097 1268 2742 
Q 959 2388 959 1747 
Q 959 1106 1268 751 
Q 1578 397 2138 397 
Q 2388 397 2633 464 
Q 2878 531 3122 666 
L 3122 134 
Q 2881 22 2623 -34 
Q 2366 -91 2075 -91 
Q 1284 -91 818 406 
Q 353 903 353 1747 
Q 353 2603 823 3093 
Q 1294 3584 2113 3584 
Q 2378 3584 2631 3529 
Q 2884 3475 3122 3366 
z
" transform="scale(0.015625)"/>
       <path id="DejaVuSans-68" d="M 3513 2113 
L 3513 0 
L 2938 0 
L 2938 2094 
Q 2938 2591 2744 2837 
Q 2550 3084 2163 3084 
Q 1697 3084 1428 2787 
Q 1159 2491 1159 1978 
L 1159 0 
L 581 0 
L 581 4863 
L 1159 4863 
L 1159 2956 
Q 1366 3272 1645 3428 
Q 1925 3584 2291 3584 
Q 2894 3584 3203 3211 
Q 3513 2838 3513 2113 
z
" transform="scale(0.015625)"/>
      </defs>
      <use xlink:href="#DejaVuSans-65"/>
      <use xlink:href="#DejaVuSans-70" x="61.523438"/>
      <use xlink:href="#DejaVuSans-6f" x="125"/>
      <use xlink:href="#DejaVuSans-63" x="186.181641"/>
      <use xlink:href="#DejaVuSans-68" x="241.162109"/>
     </g>
    </g>
   </g>
   <g id="matplotlib.axis_2">
    <g id="ytick_1">
     <g id="line2d_13">
      <path d="M 90 299.392557 
L 648 299.392557 
" clip-path="url(#pea89dff3a5)" style="fill: none; stroke: #b0b0b0; stroke-width: 0.8; stroke-linecap: square"/>
     </g>
     <g id="line2d_14">
      <defs>
       <path id="m6738e78e07" d="M 0 0 
L -3.5 0 
" style="stroke: #000000; stroke-width: 0.8"/>
      </defs>
      <g>
       <use xlink:href="#m6738e78e07" x="90" y="299.392557" style="stroke: #000000; stroke-width: 0.8"/>
      </g>
     </g>
     <g id="text_8">
      <!-- 1.3800 -->
      <g transform="translate(48.009375 303.191776) scale(0.1 -0.1)">
       <defs>
        <path id="DejaVuSans-2e" d="M 684 794 
L 1344 794 
L 1344 0 
L 684 0 
L 684 794 
z
" transform="scale(0.015625)"/>
        <path id="DejaVuSans-38" d="M 2034 2216 
Q 1584 2216 1326 1975 
Q 1069 1734 1069 1313 
Q 1069 891 1326 650 
Q 1584 409 2034 409 
Q 2484 409 2743 651 
Q 3003 894 3003 1313 
Q 3003 1734 2745 1975 
Q 2488 2216 2034 2216 
z
M 1403 2484 
Q 997 2584 770 2862 
Q 544 3141 544 3541 
Q 544 4100 942 4425 
Q 1341 4750 2034 4750 
Q 2731 4750 3128 4425 
Q 3525 4100 3525 3541 
Q 3525 3141 3298 2862 
Q 3072 2584 2669 2484 
Q 3125 2378 3379 2068 
Q 3634 1759 3634 1313 
Q 3634 634 3220 271 
Q 2806 -91 2034 -91 
Q 1263 -91 848 271 
Q 434 634 434 1313 
Q 434 1759 690 2068 
Q 947 2378 1403 2484 
z
M 1172 3481 
Q 1172 3119 1398 2916 
Q 1625 2713 2034 2713 
Q 2441 2713 2670 2916 
Q 2900 3119 2900 3481 
Q 2900 3844 2670 4047 
Q 2441 4250 2034 4250 
Q 1625 4250 1398 4047 
Q 1172 3844 1172 3481 
z
" transform="scale(0.015625)"/>
       </defs>
       <use xlink:href="#DejaVuSans-31"/>
       <use xlink:href="#DejaVuSans-2e" x="63.623047"/>
       <use xlink:href="#DejaVuSans-33" x="95.410156"/>
       <use xlink:href="#DejaVuSans-38" x="159.033203"/>
       <use xlink:href="#DejaVuSans-30" x="222.65625"/>
       <use xlink:href="#DejaVuSans-30" x="286.279297"/>
      </g>
     </g>
    </g>
    <g id="ytick_2">
     <g id="line2d_15">
      <path d="M 90 266.461002 
L 648 266.461002 
" clip-path="url(#pea89dff3a5)" style="fill: none; stroke: #b0b0b0; stroke-width: 0.8; stroke-linecap: square"/>
     </g>
     <g id="line2d_16">
      <g>
       <use xlink:href="#m6738e78e07" x="90" y="266.461002" style="stroke: #000000; stroke-width: 0.8"/>
      </g>
     </g>
     <g id="text_9">
      <!-- 1.3825 -->
      <g transform="translate(48.009375 270.26022) scale(0.1 -0.1)">
       <use xlink:href="#DejaVuSans-31"/>
       <use xlink:href="#DejaVuSans-2e" x="63.623047"/>
       <use xlink:href="#DejaVuSans-33" x="95.410156"/>
       <use xlink:href="#DejaVuSans-38" x="159.033203"/>
       <use xlink:href="#DejaVuSans-32" x="222.65625"/>
       <use xlink:href="#DejaVuSans-35" x="286.279297"/>
      </g>
     </g>
    </g>
    <g id="ytick_3">
     <g id="line2d_17">
      <path d="M 90 233.529446 
L 648 233.529446 
" clip-path="url(#pea89dff3a5)" style="fill: none; stroke: #b0b0b0; stroke-width: 0.8; stroke-linecap: square"/>
     </g>
     <g id="line2d_18">
      <g>
       <use xlink:href="#m6738e78e07" x="90" y="233.529446" style="stroke: #000000; stroke-width: 0.8"/>
      </g>
     </g>
     <g id="text_10">
      <!-- 1.3850 -->
      <g transform="translate(48.009375 237.328665) scale(0.1 -0.1)">
       <use xlink:href="#DejaVuSans-31"/>
       <use xlink:href="#DejaVuSans-2e" x="63.623047"/>
       <use xlink:href="#DejaVuSans-33" x="95.410156"/>
       <use xlink:href="#DejaVuSans-38" x="159.033203"/>
       <use xlink:href="#DejaVuSans-35" x="222.65625"/>
       <use xlink:href="#DejaVuSans-30" x="286.279297"/>
      </g>
     </g>
    </g>
    <g id="ytick_4">
     <g id="line2d_19">
      <path d="M 90 200.597891 
L 648 200.597891 
" clip-path="url(#pea89dff3a5)" style="fill: none; stroke: #b0b0b0; stroke-width: 0.8; stroke-linecap: square"/>
     </g>
     <g id="line2d_20">
      <g>
       <use xlink:href="#m6738e78e07" x="90" y="200.597891" style="stroke: #000000; stroke-width: 0.8"/>
      </g>
     </g>
     <g id="text_11">
      <!-- 1.3875 -->
      <g transform="translate(48.009375 204.39711) scale(0.1 -0.1)">
       <defs>
        <path id="DejaVuSans-37" d="M 525 4666 
L 3525 4666 
L 3525 4397 
L 1831 0 
L 1172 0 
L 2766 4134 
L 525 4134 
L 525 4666 
z
" transform="scale(0.015625)"/>
       </defs>
       <use xlink:href="#DejaVuSans-31"/>
       <use xlink:href="#DejaVuSans-2e" x="63.623047"/>
       <use xlink:href="#DejaVuSans-33" x="95.410156"/>
       <use xlink:href="#DejaVuSans-38" x="159.033203"/>
       <use xlink:href="#DejaVuSans-37" x="222.65625"/>
       <use xlink:href="#DejaVuSans-35" x="286.279297"/>
      </g>
     </g>
    </g>
    <g id="ytick_5">
     <g id="line2d_21">
      <path d="M 90 167.666336 
L 648 167.666336 
" clip-path="url(#pea89dff3a5)" style="fill: none; stroke: #b0b0b0; stroke-width: 0.8; stroke-linecap: square"/>
     </g>
     <g id="line2d_22">
      <g>
       <use xlink:href="#m6738e78e07" x="90" y="167.666336" style="stroke: #000000; stroke-width: 0.8"/>
      </g>
     </g>
     <g id="text_12">
      <!-- 1.3900 -->
      <g transform="translate(48.009375 171.465555) scale(0.1 -0.1)">
       <defs>
        <path id="DejaVuSans-39" d="M 703 97 
L 703 672 
Q 941 559 1184 500 
Q 1428 441 1663 441 
Q 2288 441 2617 861 
Q 2947 1281 2994 2138 
Q 2813 1869 2534 1725 
Q 2256 1581 1919 1581 
Q 1219 1581 811 2004 
Q 403 2428 403 3163 
Q 403 3881 828 4315 
Q 1253 4750 1959 4750 
Q 2769 4750 3195 4129 
Q 3622 3509 3622 2328 
Q 3622 1225 3098 567 
Q 2575 -91 1691 -91 
Q 1453 -91 1209 -44 
Q 966 3 703 97 
z
M 1959 2075 
Q 2384 2075 2632 2365 
Q 2881 2656 2881 3163 
Q 2881 3666 2632 3958 
Q 2384 4250 1959 4250 
Q 1534 4250 1286 3958 
Q 1038 3666 1038 3163 
Q 1038 2656 1286 2365 
Q 1534 2075 1959 2075 
z
" transform="scale(0.015625)"/>
       </defs>
       <use xlink:href="#DejaVuSans-31"/>
       <use xlink:href="#DejaVuSans-2e" x="63.623047"/>
       <use xlink:href="#DejaVuSans-33" x="95.410156"/>
       <use xlink:href="#DejaVuSans-39" x="159.033203"/>
       <use xlink:href="#DejaVuSans-30" x="222.65625"/>
       <use xlink:href="#DejaVuSans-30" x="286.279297"/>
      </g>
     </g>
    </g>
    <g id="ytick_6">
     <g id="line2d_23">
      <path d="M 90 134.734781 
L 648 134.734781 
" clip-path="url(#pea89dff3a5)" style="fill: none; stroke: #b0b0b0; stroke-width: 0.8; stroke-linecap: square"/>
     </g>
     <g id="line2d_24">
      <g>
       <use xlink:href="#m6738e78e07" x="90" y="134.734781" style="stroke: #000000; stroke-width: 0.8"/>
      </g>
     </g>
     <g id="text_13">
      <!-- 1.3925 -->
      <g transform="translate(48.009375 138.534) scale(0.1 -0.1)">
       <use xlink:href="#DejaVuSans-31"/>
       <use xlink:href="#DejaVuSans-2e" x="63.623047"/>
       <use xlink:href="#DejaVuSans-33" x="95.410156"/>
       <use xlink:href="#DejaVuSans-39" x="159.033203"/>
       <use xlink:href="#DejaVuSans-32" x="222.65625"/>
       <use xlink:href="#DejaVuSans-35" x="286.279297"/>
      </g>
     </g>
    </g>
    <g id="ytick_7">
     <g id="line2d_25">
      <path d="M 90 101.803226 
L 648 101.803226 
" clip-path="url(#pea89dff3a5)" style="fill: none; stroke: #b0b0b0; stroke-width: 0.8; stroke-linecap: square"/>
     </g>
     <g id="line2d_26">
      <g>
       <use xlink:href="#m6738e78e07" x="90" y="101.803226" style="stroke: #000000; stroke-width: 0.8"/>
      </g>
     </g>
     <g id="text_14">
      <!-- 1.3950 -->
      <g transform="translate(48.009375 105.602445) scale(0.1 -0.1)">
       <use xlink:href="#DejaVuSans-31"/>
       <use xlink:href="#DejaVuSans-2e" x="63.623047"/>
       <use xlink:href="#DejaVuSans-33" x="95.410156"/>
       <use xlink:href="#DejaVuSans-39" x="159.033203"/>
       <use xlink:href="#DejaVuSans-35" x="222.65625"/>
       <use xlink:href="#DejaVuSans-30" x="286.279297"/>
      </g>
     </g>
    </g>
    <g id="ytick_8">
     <g id="line2d_27">
      <path d="M 90 68.871671 
L 648 68.871671 
" clip-path="url(#pea89dff3a5)" style="fill: none; stroke: #b0b0b0; stroke-width: 0.8; stroke-linecap: square"/>
     </g>
     <g id="line2d_28">
      <g>
       <use xlink:href="#m6738e78e07" x="90" y="68.871671" style="stroke: #000000; stroke-width: 0.8"/>
      </g>
     </g>
     <g id="text_15">
      <!-- 1.3975 -->
      <g transform="translate(48.009375 72.670889) scale(0.1 -0.1)">
       <use xlink:href="#DejaVuSans-31"/>
       <use xlink:href="#DejaVuSans-2e" x="63.623047"/>
       <use xlink:href="#DejaVuSans-33" x="95.410156"/>
       <use xlink:href="#DejaVuSans-39" x="159.033203"/>
       <use xlink:href="#DejaVuSans-37" x="222.65625"/>
       <use xlink:href="#DejaVuSans-35" x="286.279297"/>
      </g>
     </g>
    </g>
    <g id="text_16">
     <!-- loss -->
     <g transform="translate(41.929688 191.457812) rotate(-90) scale(0.1 -0.1)">
      <defs>
       <path id="DejaVuSans-6c" d="M 603 4863 
L 1178 4863 
L 1178 0 
L 603 0 
L 603 4863 
z
" transform="scale(0.015625)"/>
       <path id="DejaVuSans-73" d="M 2834 3397 
L 2834 2853 
Q 2591 2978 2328 3040 
Q 2066 3103 1784 3103 
Q 1356 3103 1142 2972 
Q 928 2841 928 2578 
Q 928 2378 1081 2264 
Q 1234 2150 1697 2047 
L 1894 2003 
Q 2506 1872 2764 1633 
Q 3022 1394 3022 966 
Q 3022 478 2636 193 
Q 2250 -91 1575 -91 
Q 1294 -91 989 -36 
Q 684 19 347 128 
L 347 722 
Q 666 556 975 473 
Q 1284 391 1588 391 
Q 1994 391 2212 530 
Q 2431 669 2431 922 
Q 2431 1156 2273 1281 
Q 2116 1406 1581 1522 
L 1381 1569 
Q 847 1681 609 1914 
Q 372 2147 372 2553 
Q 372 3047 722 3315 
Q 1072 3584 1716 3584 
Q 2034 3584 2315 3537 
Q 2597 3491 2834 3397 
z
" transform="scale(0.015625)"/>
      </defs>
      <use xlink:href="#DejaVuSans-6c"/>
      <use xlink:href="#DejaVuSans-6f" x="27.783203"/>
      <use xlink:href="#DejaVuSans-73" x="88.964844"/>
      <use xlink:href="#DejaVuSans-73" x="141.064453"/>
     </g>
    </g>
   </g>
   <g id="line2d_29">
    <path d="M 115.363636 230.47063 
L 116.380215 164.464685 
L 117.396794 210.427334 
L 118.413372 159.139801 
L 119.429951 206.691593 
L 120.446529 237.237048 
L 121.463108 82.042836 
L 122.479687 214.916819 
L 123.496265 146.178554 
L 125.529422 229.025955 
L 126.546001 177.722719 
L 127.56258 190.343211 
L 128.579158 192.835276 
L 129.595737 245.361774 
L 130.612316 245.693108 
L 131.628894 188.449431 
L 132.645473 206.174965 
L 133.662051 181.018776 
L 134.67863 219.54292 
L 135.695209 196.64168 
L 136.711787 148.906163 
L 137.728366 205.528002 
L 138.744944 193.80415 
L 139.761523 66.437205 
L 140.778102 227.166721 
L 141.79468 255.411688 
L 142.811259 130.415894 
L 143.827837 120.219943 
L 144.844416 207.505008 
L 145.860995 190.255275 
L 146.877573 237.98451 
L 147.894152 239.014626 
L 148.910731 201.52374 
L 149.927309 212.468723 
L 150.943888 159.71139 
L 151.960466 191.981033 
L 152.977045 135.615153 
L 153.993624 138.162178 
L 155.010202 195.785867 
L 156.026781 212.547238 
L 157.043359 161.327228 
L 158.059938 175.459918 
L 159.076517 185.781493 
L 160.093095 231.458348 
L 161.109674 170.714475 
L 162.126253 97.466311 
L 163.142831 224.340183 
L 164.15941 145.880197 
L 165.175988 108.075251 
L 166.192567 142.84481 
L 167.209146 249.942336 
L 168.225724 193.083383 
L 169.242303 238.264023 
L 170.258881 180.740833 
L 171.27546 222.177881 
L 172.292039 226.146027 
L 173.308617 123.83163 
L 174.325196 233.083607 
L 175.341774 226.105199 
L 176.358353 232.424082 
L 177.374932 177.320722 
L 178.39151 227.136885 
L 179.408089 174.153429 
L 180.424668 189.564343 
L 181.441246 210.480725 
L 182.457825 146.776838 
L 183.474403 156.145241 
L 184.490982 87.494913 
L 185.507561 237.376804 
L 186.524139 233.763547 
L 187.540718 193.672245 
L 188.557296 216.472985 
L 189.573875 245.748068 
L 190.590454 237.185228 
L 191.607032 75.036162 
L 192.623611 201.233234 
L 193.640189 218.139072 
L 194.656768 154.106993 
L 195.673347 180.798934 
L 196.689925 267.319264 
L 197.706504 224.398284 
L 198.723083 197.370299 
L 199.739661 142.976715 
L 201.772818 208.737693 
L 202.789397 161.331939 
L 203.805976 186.247872 
L 204.822554 145.497044 
L 205.839133 212.87072 
L 206.855711 230.327733 
L 207.87229 223.157748 
L 208.888869 230.4722 
L 209.905447 249.081813 
L 210.922026 221.882665 
L 211.938604 162.954058 
L 212.955183 252.019842 
L 213.971762 205.075756 
L 214.98834 127.944243 
L 216.004919 250.471527 
L 217.021498 196.558454 
L 218.038076 164.986024 
L 219.054655 117.481341 
L 220.071233 216.925231 
L 221.087812 211.016197 
L 222.104391 223.600572 
L 223.120969 161.985183 
L 224.137548 211.022478 
L 225.154126 144.397835 
L 226.170705 125.102002 
L 227.187284 185.44859 
L 228.203862 84.126622 
L 229.220441 184.253592 
L 230.237019 195.847109 
L 231.253598 232.720868 
L 232.270177 148.865336 
L 233.286755 195.613134 
L 234.303334 151.759397 
L 235.319913 218.870832 
L 236.336491 200.573709 
L 237.35307 167.160888 
L 238.369648 151.296158 
L 239.386227 169.393853 
L 240.402806 224.198856 
L 241.419384 207.553687 
L 242.435963 157.489417 
L 243.452541 99.066446 
L 244.46912 195.661814 
L 245.485699 249.687948 
L 246.502277 201.390264 
L 247.518856 222.79972 
L 248.535435 152.698435 
L 249.552013 189.656991 
L 250.568592 193.27967 
L 251.58517 102.409612 
L 252.601749 263.591375 
L 253.618328 156.525254 
L 254.634906 62.294756 
L 255.651485 161.744927 
L 256.668063 192.907509 
L 257.684642 203.403387 
L 258.701221 122.56754 
L 259.717799 177.165263 
L 260.734378 89.957142 
L 261.750956 180.976378 
L 262.767535 171.797981 
L 263.784114 121.369402 
L 264.800692 208.04205 
L 265.817271 206.737132 
L 266.83385 173.062072 
L 267.850428 175.519589 
L 268.867007 101.544378 
L 269.883585 174.707745 
L 270.900164 78.749919 
L 271.916743 178.785811 
L 272.933321 224.126622 
L 273.9499 145.47192 
L 274.966478 115.231103 
L 275.983057 223.876945 
L 276.999636 160.862419 
L 278.016214 164.833705 
L 279.032793 157.071718 
L 280.049371 117.044798 
L 281.06595 158.877562 
L 282.082529 162.490819 
L 283.099107 183.76994 
L 284.115686 249.563894 
L 285.132265 173.756144 
L 286.148843 215.486838 
L 287.165422 167.949178 
L 288.182 225.261948 
L 289.198579 206.545555 
L 290.215158 243.486838 
L 291.231736 167.173451 
L 292.248315 69.560529 
L 293.264893 162.731075 
L 294.281472 131.722382 
L 295.298051 209.161673 
L 296.314629 216.870271 
L 297.331208 189.353923 
L 298.347786 152.8272 
L 299.364365 207.272604 
L 300.380944 148.347137 
L 301.397522 239.075868 
L 302.414101 125.50871 
L 303.43068 231.434793 
L 304.447258 188.179339 
L 305.463837 274.531647 
L 307.496994 92.447636 
L 308.513573 162.172049 
L 309.530151 184.204913 
L 310.54673 168.209848 
L 311.563308 167.186013 
L 312.579887 227.169861 
L 313.596466 194.152756 
L 314.613044 228.207829 
L 315.629623 221.609433 
L 317.66278 105.12937 
L 318.679359 171.914183 
L 319.695937 199.312759 
L 320.712516 166.700791 
L 321.729095 90.458067 
L 322.745673 232.694173 
L 323.762252 172.187415 
L 324.77883 212.413763 
L 325.795409 203.357849 
L 326.811988 142.879356 
L 327.828566 174.676339 
L 328.845145 158.561931 
L 329.861723 163.96533 
L 330.878302 156.887993 
L 331.894881 146.285335 
L 332.911459 205.842062 
L 333.928038 202.277483 
L 334.944617 207.991801 
L 335.961195 139.197005 
L 336.977774 228.030385 
L 337.994352 174.048219 
L 339.010931 198.442813 
L 340.02751 168.996568 
L 341.044088 156.974359 
L 342.060667 180.943402 
L 343.077245 217.236151 
L 344.093824 269.209904 
L 345.110403 133.335079 
L 346.126981 59.26879 
L 347.14356 134.826863 
L 348.160138 252.924334 
L 349.176717 150.154551 
L 350.193296 184.712119 
L 351.209874 195.008569 
L 352.226453 129.481566 
L 353.243032 206.677461 
L 354.25961 232.863765 
L 355.276189 175.474051 
L 356.292767 243.70982 
L 357.309346 205.645774 
L 358.325925 117.281914 
L 359.342503 199.074073 
L 360.359082 210.154102 
L 361.37566 208.652897 
L 362.392239 133.70881 
L 363.408818 103.989333 
L 364.425396 169.433111 
L 365.441975 180.871168 
L 366.458553 148.088038 
L 367.475132 128.236319 
L 368.491711 269.330817 
L 369.508289 177.906444 
L 370.524868 230.748573 
L 371.541447 219.43771 
L 372.558025 155.002064 
L 373.574604 115.692771 
L 374.591182 150.917716 
L 375.607761 129.282138 
L 376.62434 176.603096 
L 377.640918 175.478762 
L 378.657497 146.189546 
L 380.690654 202.687331 
L 381.707233 161.459133 
L 382.723811 227.611115 
L 383.74039 186.408042 
L 384.756968 108.414436 
L 385.773547 161.408883 
L 386.790126 268.682284 
L 387.806704 157.753228 
L 388.823283 168.870944 
L 389.839862 129.594627 
L 390.85644 155.231327 
L 391.873019 198.237104 
L 392.889597 201.68548 
L 393.906176 151.652616 
L 394.922755 113.145746 
L 395.939333 176.113162 
L 396.955912 109.879524 
L 397.97249 185.169076 
L 398.989069 152.883731 
L 400.005648 195.093365 
L 401.022226 202.280624 
L 402.038805 238.502709 
L 403.055383 170.778857 
L 404.071962 199.363008 
L 405.088541 197.825686 
L 406.105119 183.977219 
L 407.121698 158.34209 
L 408.138277 161.572194 
L 409.154855 192.043845 
L 410.171434 129.718681 
L 411.188012 153.136549 
L 412.204591 179.572531 
L 413.22117 190.415445 
L 414.237748 223.215849 
L 415.254327 214.191341 
L 416.270905 172.156009 
L 417.287484 108.026572 
L 418.304063 202.555426 
L 419.320641 189.33822 
L 420.33722 203.588683 
L 421.353799 125.734833 
L 422.370377 230.362279 
L 423.386956 176.645494 
L 424.403534 172.429241 
L 426.436692 251.186013 
L 427.45327 213.490988 
L 428.469849 171.144737 
L 429.486427 200.653794 
L 431.519585 163.412585 
L 432.536163 196.833257 
L 433.552742 197.820975 
L 434.56932 164.527497 
L 435.585899 226.653233 
L 436.602478 177.5704 
L 437.619056 201.184555 
L 438.635635 166.881375 
L 439.652214 146.41881 
L 440.668792 166.239123 
L 441.685371 165.904649 
L 442.701949 131.175918 
L 443.718528 141.68907 
L 444.735107 248.408154 
L 445.751685 173.8959 
L 446.768264 235.971387 
L 447.784842 55.8 
L 448.801421 208.550827 
L 449.818 203.125444 
L 450.834578 206.660187 
L 451.851157 212.098132 
L 452.867735 111.704212 
L 453.884314 203.637362 
L 454.900893 217.185901 
L 455.917471 163.814581 
L 456.93405 171.796411 
L 457.950629 275.85855 
L 458.967207 216.567203 
L 459.983786 210.182368 
L 461.000364 178.6225 
L 462.016943 242.571353 
L 463.033522 159.326667 
L 464.0501 199.088206 
L 465.066679 121.857765 
L 466.083257 210.920408 
L 467.099836 227.367719 
L 469.132993 167.741899 
L 470.149572 151.552117 
L 471.16615 203.57612 
L 472.182729 201.453076 
L 473.199308 173.83937 
L 474.215886 162.154775 
L 475.232465 148.295317 
L 476.249044 166.532769 
L 477.265622 223.060389 
L 478.282201 203.290326 
L 479.298779 187.76478 
L 480.315358 269.4533 
L 481.331937 162.70595 
L 482.348515 190.657271 
L 483.365094 163.004307 
L 484.381672 258.421951 
L 485.398251 221.887376 
L 486.41483 232.687892 
L 487.431408 189.639717 
L 488.447987 213.613471 
L 489.464565 195.212708 
L 490.481144 136.133352 
L 491.497723 201.902182 
L 492.514301 194.188873 
L 493.53088 208.299579 
L 494.547459 136.27782 
L 495.564037 154.482295 
L 496.580616 202.319881 
L 497.597194 168.255387 
L 498.613773 236.054613 
L 499.630352 172.416679 
L 501.663509 161.357064 
L 502.680087 188.2343 
L 503.696666 178.99152 
L 504.713245 242.854007 
L 505.729823 217.490539 
L 506.746402 173.228523 
L 507.762981 146.437654 
L 508.779559 190.294532 
L 509.796138 164.871393 
L 510.812716 85.711054 
L 511.829295 210.790073 
L 512.845874 173.531591 
L 513.862452 164.667254 
L 514.879031 169.858662 
L 515.895609 132.608031 
L 516.912188 207.244339 
L 517.928767 205.355269 
L 518.945345 200.404116 
L 519.961924 165.917212 
L 520.978502 125.207212 
L 521.995081 197.739319 
L 523.01166 198.37529 
L 524.028238 167.449823 
L 525.044817 143.369289 
L 526.061396 205.294027 
L 527.077974 146.202109 
L 528.094553 211.961516 
L 529.111131 180.916707 
L 530.12771 78.043284 
L 531.144289 223.016421 
L 532.160867 208.952824 
L 533.177446 168.655813 
L 534.194024 145.566138 
L 535.210603 211.50613 
L 536.227182 235.803365 
L 537.24376 246.566194 
L 538.260339 235.941551 
L 539.276917 203.324872 
L 540.293496 155.215624 
L 541.310075 141.673367 
L 542.326653 246.448421 
L 543.343232 155.600348 
L 544.359811 199.439953 
L 545.376389 219.902518 
L 546.392968 137.650261 
L 547.409546 173.647793 
L 548.426125 153.998643 
L 549.442704 201.583411 
L 550.459282 219.371757 
L 551.475861 209.138119 
L 552.492439 164.12236 
L 553.509018 176.786821 
L 554.525597 215.075419 
L 555.542175 194.617565 
L 556.558754 159.460142 
L 557.575332 193.722495 
L 558.591911 168.987146 
L 559.60849 228.046088 
L 560.625068 192.899658 
L 561.641647 168.596142 
L 562.658226 237.904425 
L 563.674804 113.252526 
L 564.691383 132.141652 
L 565.707961 125.748965 
L 566.72454 155.405631 
L 567.741119 126.031619 
L 568.757697 218.569334 
L 569.774276 153.965667 
L 570.790854 81.537199 
L 571.807433 226.036106 
L 572.824012 108.557333 
L 573.84059 90.027806 
L 574.857169 219.899377 
L 575.873747 171.019113 
L 576.890326 130.990623 
L 577.906905 253.117481 
L 578.923483 150.573821 
L 579.940062 252.06224 
L 580.956641 209.392507 
L 581.973219 172.416679 
L 582.989798 102.875991 
L 584.006376 249.801009 
L 585.022955 213.483136 
L 586.039534 154.146251 
L 587.056112 203.968695 
L 588.072691 219.056127 
L 589.089269 263.925848 
L 590.105848 122.385385 
L 591.122427 197.923044 
L 592.139005 188.135371 
L 593.155584 217.273838 
L 594.172163 261.62536 
L 595.188741 112.27109 
L 596.20532 173.654074 
L 597.221898 221.614144 
L 598.238477 129.809758 
L 599.255056 212.19235 
L 600.271634 210.03633 
L 601.288213 205.556267 
L 602.304791 183.097852 
L 603.32137 94.024216 
L 604.337949 207.558398 
L 605.354527 151.161113 
L 606.371106 152.841333 
L 607.387684 228.437093 
L 608.404263 191.776894 
L 609.420842 232.645494 
L 610.43742 123.465751 
L 611.453999 132.297112 
L 612.470578 193.926633 
L 613.487156 201.785979 
L 614.503735 156.446739 
L 615.520313 190.395031 
L 616.536892 245.881543 
L 617.553471 216.133801 
L 618.570049 209.505569 
L 619.586628 244.91581 
L 620.603206 130.767641 
L 621.619785 170.510336 
L 622.636364 254.285783 
L 622.636364 254.285783 
" clip-path="url(#pea89dff3a5)" style="fill: none; stroke: #1f77b4; stroke-width: 1.5; stroke-linecap: square"/>
   </g>
   <g id="line2d_30">
    <path d="M 115.363636 304.499232 
L 116.380215 304.59345 
L 118.413372 304.621715 
L 119.429951 304.869822 
L 121.463108 304.756761 
L 122.479687 304.854119 
L 124.512844 304.824284 
L 125.529422 304.998587 
L 126.546001 305.036274 
L 127.56258 304.956189 
L 128.579158 305.17446 
L 130.612316 305.312647 
L 132.645473 305.290662 
L 133.662051 305.466536 
L 135.695209 305.375458 
L 138.744944 305.617285 
L 139.761523 305.771174 
L 140.778102 305.667534 
L 141.79468 305.848118 
L 142.811259 305.797869 
L 143.827837 305.978453 
L 144.844416 305.928204 
L 146.877573 306.212428 
L 148.910731 306.162178 
L 149.927309 306.345903 
L 151.960466 306.356895 
L 152.977045 306.162178 
L 159.076517 306.312927 
L 160.093095 306.06796 
L 161.109674 306.323919 
L 162.126253 306.400864 
L 163.142831 306.292513 
L 166.192567 306.526488 
L 168.225724 306.38359 
L 173.308617 306.451113 
L 174.325196 306.350614 
L 175.341774 306.48409 
L 176.358353 306.411856 
L 178.39151 306.653682 
L 180.424668 306.534339 
L 181.441246 306.733767 
L 183.474403 306.798149 
L 184.490982 306.90807 
L 185.507561 306.771454 
L 191.607032 307.049397 
L 192.623611 306.838977 
L 193.640189 306.851539 
L 194.656768 306.999148 
L 196.689925 306.928484 
L 197.706504 307.105928 
L 198.723083 307.014851 
L 200.75624 307.355605 
L 201.772818 307.443542 
L 203.805976 307.322629 
L 206.855711 306.948898 
L 208.888869 307.22213 
L 211.938604 307.354035 
L 212.955183 307.225271 
L 213.971762 307.426269 
L 214.98834 307.317918 
L 216.004919 307.435691 
L 217.021498 307.357176 
L 218.038076 307.405855 
L 219.054655 307.580158 
L 221.087812 307.240974 
L 223.120969 307.237833 
L 224.137548 307.211138 
L 225.154126 307.360316 
L 226.170705 307.071381 
L 227.187284 307.184443 
L 229.220441 306.986585 
L 231.253598 306.838977 
L 236.336491 306.882945 
L 237.35307 306.672525 
L 240.402806 306.848399 
L 241.419384 306.741619 
L 242.435963 306.763603 
L 243.452541 306.915922 
L 244.46912 306.857821 
L 246.502277 307.137334 
L 247.518856 306.978734 
L 249.552013 307.036835 
L 250.568592 306.859391 
L 251.58517 307.06196 
L 254.634906 307.112209 
L 255.651485 307.209568 
L 256.668063 307.046257 
L 258.701221 307.160888 
L 259.717799 306.974023 
L 262.767535 306.795009 
L 264.800692 307.091795 
L 265.817271 306.920633 
L 268.867007 307.248825 
L 269.883585 307.01171 
L 270.900164 307.142045 
L 273.9499 307.016421 
L 276.999636 306.933195 
L 278.016214 306.985015 
L 279.032793 306.691369 
L 280.049371 306.85311 
L 281.06595 306.901789 
L 282.082529 306.798149 
L 283.099107 307.024272 
L 285.132265 307.137334 
L 286.148843 307.234692 
L 287.165422 307.200146 
L 288.182 306.96146 
L 289.198579 307.211138 
L 291.231736 307.247255 
L 293.264893 307.105928 
L 294.281472 307.096506 
L 295.298051 306.936336 
L 303.43068 306.890797 
L 304.447258 306.996007 
L 305.463837 306.985015 
L 306.480415 307.137334 
L 307.496994 307.046257 
L 308.513573 307.121631 
L 309.530151 306.884516 
L 311.563308 306.832696 
L 312.579887 306.882945 
L 313.596466 307.046257 
L 314.613044 306.810712 
L 315.629623 306.80286 
L 317.66278 307.016421 
L 318.679359 306.890797 
L 322.745673 306.980304 
L 323.762252 307.027413 
L 324.77883 306.948898 
L 328.845145 307.146756 
L 329.861723 306.972452 
L 330.878302 307.002288 
L 331.894881 306.835836 
L 332.911459 306.966171 
L 333.928038 306.897078 
L 335.961195 307.093365 
L 336.977774 306.96146 
L 339.010931 307.096506 
L 340.02751 307.049397 
L 342.060667 307.248825 
L 344.093824 307.121631 
L 346.126981 307.448253 
L 348.160138 307.303786 
L 349.176717 307.462386 
L 350.193296 307.330481 
L 351.209874 307.405855 
L 355.276189 307.234692 
L 356.292767 307.288083 
L 357.309346 307.225271 
L 358.325925 307.305356 
L 359.342503 307.237833 
L 360.359082 307.405855 
L 361.37566 307.231552 
L 363.408818 307.209568 
L 364.425396 307.424699 
L 365.441975 307.179732 
L 367.475132 307.335192 
L 368.491711 307.234692 
L 369.508289 307.398003 
L 370.524868 307.3823 
L 371.541447 307.526768 
L 372.558025 307.374449 
L 373.574604 307.53619 
L 374.591182 307.313207 
L 376.62434 307.398003 
L 383.74039 307.267669 
L 384.756968 307.419988 
L 386.790126 307.193865 
L 387.806704 307.423128 
L 391.873019 307.310067 
L 392.889597 307.355605 
L 393.906176 307.179732 
L 394.922755 307.32891 
L 395.939333 307.083944 
L 397.97249 307.350895 
L 402.038805 307.500073 
L 405.088541 307.511065 
L 409.154855 307.372879 
L 410.171434 307.529909 
L 412.204591 307.398003 
L 418.304063 307.237833 
L 419.320641 307.3823 
L 422.370377 307.479659 
L 423.386956 307.284942 
L 428.469849 307.504784 
L 429.486427 307.280231 
L 432.536163 307.109068 
L 433.552742 307.376019 
L 435.585899 307.234692 
L 436.602478 307.234692 
L 437.619056 307.463956 
L 439.652214 307.426269 
L 441.685371 307.361887 
L 442.701949 307.575447 
L 444.735107 307.399574 
L 446.768264 307.498503 
L 447.784842 307.357176 
L 448.801421 307.349324 
L 450.834578 307.529909 
L 452.867735 307.418417 
L 453.884314 307.159318 
L 454.900893 307.468667 
L 455.917471 307.53619 
L 457.950629 307.391722 
L 458.967207 307.551893 
L 459.983786 307.48594 
L 462.016943 307.713634 
L 463.033522 307.544041 
L 464.0501 307.523627 
L 465.066679 307.663384 
L 468.116415 307.550322 
L 469.132993 307.699501 
L 470.149572 307.712063 
L 471.16615 307.544041 
L 472.182729 307.526768 
L 473.199308 307.8 
L 474.215886 307.650822 
L 475.232465 307.636689 
L 477.265622 307.416847 
L 482.348515 307.360316 
L 483.365094 307.27552 
L 488.447987 307.658673 
L 490.481144 307.470237 
L 491.497723 307.269239 
L 492.514301 307.330481 
L 494.547459 307.211138 
L 495.564037 307.445112 
L 497.597194 307.203286 
L 499.630352 307.37916 
L 500.64693 307.313207 
L 501.663509 307.426269 
L 517.928767 307.008569 
L 518.945345 307.175021 
L 526.061396 306.882945 
L 527.077974 306.890797 
L 528.094553 306.782446 
L 529.111131 306.999148 
L 533.177446 306.901789 
L 534.194024 307.068241 
L 535.210603 306.934765 
L 537.24376 307.255106 
L 541.310075 307.206427 
L 543.343232 306.947328 
L 544.359811 307.124771 
L 546.392968 307.074522 
L 547.409546 307.234692 
L 548.426125 306.945757 
L 549.442704 307.071381 
L 550.459282 306.765173 
L 551.475861 306.832696 
L 552.492439 306.666244 
L 554.525597 306.779306 
L 557.575332 306.870383 
L 558.591911 307.058819 
L 559.60849 306.678807 
L 561.641647 307.041546 
L 562.658226 307.01014 
L 563.674804 307.192294 
L 564.691383 307.030554 
L 566.72454 307.142045 
L 567.741119 306.785587 
L 570.790854 306.909641 
L 571.807433 306.735337 
L 572.824012 306.840547 
L 573.84059 306.727486 
L 574.857169 306.782446 
L 575.873747 306.634838 
L 578.923483 306.714923 
L 580.956641 306.615995 
L 581.973219 306.892367 
L 582.989798 306.923773 
L 584.006376 306.834266 
L 585.022955 306.903359 
L 587.056112 306.659963 
L 588.072691 306.664674 
L 589.089269 306.521777 
L 590.105848 306.606573 
L 591.122427 306.480949 
L 592.139005 306.675666 
L 594.172163 306.600292 
L 595.188741 306.835836 
L 596.20532 306.827985 
L 597.221898 306.69765 
L 598.238477 306.758892 
L 600.271634 306.518636 
L 601.288213 306.507644 
L 602.304791 306.777735 
L 603.32137 306.601862 
L 605.354527 306.790298 
L 606.371106 306.752611 
L 607.387684 306.482519 
L 608.404263 306.672525 
L 609.420842 306.714923 
L 610.43742 306.95832 
L 611.453999 306.681947 
L 616.536892 306.520206 
L 618.570049 306.69608 
L 619.586628 306.677236 
L 620.603206 306.776165 
L 621.619785 306.570456 
L 622.636364 306.531198 
L 622.636364 306.531198 
" clip-path="url(#pea89dff3a5)" style="fill: none; stroke: #ff7f0e; stroke-width: 1.5; stroke-linecap: square"/>
   </g>
   <g id="patch_3">
    <path d="M 90 320.4 
L 90 43.2 
" style="fill: none; stroke: #000000; stroke-width: 0.8; stroke-linejoin: miter; stroke-linecap: square"/>
   </g>
   <g id="patch_4">
    <path d="M 648 320.4 
L 648 43.2 
" style="fill: none; stroke: #000000; stroke-width: 0.8; stroke-linejoin: miter; stroke-linecap: square"/>
   </g>
   <g id="patch_5">
    <path d="M 90 320.4 
L 648 320.4 
" style="fill: none; stroke: #000000; stroke-width: 0.8; stroke-linejoin: miter; stroke-linecap: square"/>
   </g>
   <g id="patch_6">
    <path d="M 90 43.2 
L 648 43.2 
" style="fill: none; stroke: #000000; stroke-width: 0.8; stroke-linejoin: miter; stroke-linecap: square"/>
   </g>
   <g id="text_17">
    <!-- model train and validation loss over time -->
    <g transform="translate(245.555625 37.2) scale(0.12 -0.12)">
     <defs>
      <path id="DejaVuSans-6d" d="M 3328 2828 
Q 3544 3216 3844 3400 
Q 4144 3584 4550 3584 
Q 5097 3584 5394 3201 
Q 5691 2819 5691 2113 
L 5691 0 
L 5113 0 
L 5113 2094 
Q 5113 2597 4934 2840 
Q 4756 3084 4391 3084 
Q 3944 3084 3684 2787 
Q 3425 2491 3425 1978 
L 3425 0 
L 2847 0 
L 2847 2094 
Q 2847 2600 2669 2842 
Q 2491 3084 2119 3084 
Q 1678 3084 1418 2786 
Q 1159 2488 1159 1978 
L 1159 0 
L 581 0 
L 581 3500 
L 1159 3500 
L 1159 2956 
Q 1356 3278 1631 3431 
Q 1906 3584 2284 3584 
Q 2666 3584 2933 3390 
Q 3200 3197 3328 2828 
z
" transform="scale(0.015625)"/>
      <path id="DejaVuSans-64" d="M 2906 2969 
L 2906 4863 
L 3481 4863 
L 3481 0 
L 2906 0 
L 2906 525 
Q 2725 213 2448 61 
Q 2172 -91 1784 -91 
Q 1150 -91 751 415 
Q 353 922 353 1747 
Q 353 2572 751 3078 
Q 1150 3584 1784 3584 
Q 2172 3584 2448 3432 
Q 2725 3281 2906 2969 
z
M 947 1747 
Q 947 1113 1208 752 
Q 1469 391 1925 391 
Q 2381 391 2643 752 
Q 2906 1113 2906 1747 
Q 2906 2381 2643 2742 
Q 2381 3103 1925 3103 
Q 1469 3103 1208 2742 
Q 947 2381 947 1747 
z
" transform="scale(0.015625)"/>
      <path id="DejaVuSans-20" transform="scale(0.015625)"/>
      <path id="DejaVuSans-74" d="M 1172 4494 
L 1172 3500 
L 2356 3500 
L 2356 3053 
L 1172 3053 
L 1172 1153 
Q 1172 725 1289 603 
Q 1406 481 1766 481 
L 2356 481 
L 2356 0 
L 1766 0 
Q 1100 0 847 248 
Q 594 497 594 1153 
L 594 3053 
L 172 3053 
L 172 3500 
L 594 3500 
L 594 4494 
L 1172 4494 
z
" transform="scale(0.015625)"/>
      <path id="DejaVuSans-72" d="M 2631 2963 
Q 2534 3019 2420 3045 
Q 2306 3072 2169 3072 
Q 1681 3072 1420 2755 
Q 1159 2438 1159 1844 
L 1159 0 
L 581 0 
L 581 3500 
L 1159 3500 
L 1159 2956 
Q 1341 3275 1631 3429 
Q 1922 3584 2338 3584 
Q 2397 3584 2469 3576 
Q 2541 3569 2628 3553 
L 2631 2963 
z
" transform="scale(0.015625)"/>
      <path id="DejaVuSans-61" d="M 2194 1759 
Q 1497 1759 1228 1600 
Q 959 1441 959 1056 
Q 959 750 1161 570 
Q 1363 391 1709 391 
Q 2188 391 2477 730 
Q 2766 1069 2766 1631 
L 2766 1759 
L 2194 1759 
z
M 3341 1997 
L 3341 0 
L 2766 0 
L 2766 531 
Q 2569 213 2275 61 
Q 1981 -91 1556 -91 
Q 1019 -91 701 211 
Q 384 513 384 1019 
Q 384 1609 779 1909 
Q 1175 2209 1959 2209 
L 2766 2209 
L 2766 2266 
Q 2766 2663 2505 2880 
Q 2244 3097 1772 3097 
Q 1472 3097 1187 3025 
Q 903 2953 641 2809 
L 641 3341 
Q 956 3463 1253 3523 
Q 1550 3584 1831 3584 
Q 2591 3584 2966 3190 
Q 3341 2797 3341 1997 
z
" transform="scale(0.015625)"/>
      <path id="DejaVuSans-69" d="M 603 3500 
L 1178 3500 
L 1178 0 
L 603 0 
L 603 3500 
z
M 603 4863 
L 1178 4863 
L 1178 4134 
L 603 4134 
L 603 4863 
z
" transform="scale(0.015625)"/>
      <path id="DejaVuSans-6e" d="M 3513 2113 
L 3513 0 
L 2938 0 
L 2938 2094 
Q 2938 2591 2744 2837 
Q 2550 3084 2163 3084 
Q 1697 3084 1428 2787 
Q 1159 2491 1159 1978 
L 1159 0 
L 581 0 
L 581 3500 
L 1159 3500 
L 1159 2956 
Q 1366 3272 1645 3428 
Q 1925 3584 2291 3584 
Q 2894 3584 3203 3211 
Q 3513 2838 3513 2113 
z
" transform="scale(0.015625)"/>
      <path id="DejaVuSans-76" d="M 191 3500 
L 800 3500 
L 1894 563 
L 2988 3500 
L 3597 3500 
L 2284 0 
L 1503 0 
L 191 3500 
z
" transform="scale(0.015625)"/>
     </defs>
     <use xlink:href="#DejaVuSans-6d"/>
     <use xlink:href="#DejaVuSans-6f" x="97.412109"/>
     <use xlink:href="#DejaVuSans-64" x="158.59375"/>
     <use xlink:href="#DejaVuSans-65" x="222.070312"/>
     <use xlink:href="#DejaVuSans-6c" x="283.59375"/>
     <use xlink:href="#DejaVuSans-20" x="311.376953"/>
     <use xlink:href="#DejaVuSans-74" x="343.164062"/>
     <use xlink:href="#DejaVuSans-72" x="382.373047"/>
     <use xlink:href="#DejaVuSans-61" x="423.486328"/>
     <use xlink:href="#DejaVuSans-69" x="484.765625"/>
     <use xlink:href="#DejaVuSans-6e" x="512.548828"/>
     <use xlink:href="#DejaVuSans-20" x="575.927734"/>
     <use xlink:href="#DejaVuSans-61" x="607.714844"/>
     <use xlink:href="#DejaVuSans-6e" x="668.994141"/>
     <use xlink:href="#DejaVuSans-64" x="732.373047"/>
     <use xlink:href="#DejaVuSans-20" x="795.849609"/>
     <use xlink:href="#DejaVuSans-76" x="827.636719"/>
     <use xlink:href="#DejaVuSans-61" x="886.816406"/>
     <use xlink:href="#DejaVuSans-6c" x="948.095703"/>
     <use xlink:href="#DejaVuSans-69" x="975.878906"/>
     <use xlink:href="#DejaVuSans-64" x="1003.662109"/>
     <use xlink:href="#DejaVuSans-61" x="1067.138672"/>
     <use xlink:href="#DejaVuSans-74" x="1128.417969"/>
     <use xlink:href="#DejaVuSans-69" x="1167.626953"/>
     <use xlink:href="#DejaVuSans-6f" x="1195.410156"/>
     <use xlink:href="#DejaVuSans-6e" x="1256.591797"/>
     <use xlink:href="#DejaVuSans-20" x="1319.970703"/>
     <use xlink:href="#DejaVuSans-6c" x="1351.757812"/>
     <use xlink:href="#DejaVuSans-6f" x="1379.541016"/>
     <use xlink:href="#DejaVuSans-73" x="1440.722656"/>
     <use xlink:href="#DejaVuSans-73" x="1492.822266"/>
     <use xlink:href="#DejaVuSans-20" x="1544.921875"/>
     <use xlink:href="#DejaVuSans-6f" x="1576.708984"/>
     <use xlink:href="#DejaVuSans-76" x="1637.890625"/>
     <use xlink:href="#DejaVuSans-65" x="1697.070312"/>
     <use xlink:href="#DejaVuSans-72" x="1758.59375"/>
     <use xlink:href="#DejaVuSans-20" x="1799.707031"/>
     <use xlink:href="#DejaVuSans-74" x="1831.494141"/>
     <use xlink:href="#DejaVuSans-69" x="1870.703125"/>
     <use xlink:href="#DejaVuSans-6d" x="1898.486328"/>
     <use xlink:href="#DejaVuSans-65" x="1995.898438"/>
    </g>
   </g>
   <g id="legend_1">
    <g id="patch_7">
     <path d="M 559.765625 80.55625 
L 641 80.55625 
Q 643 80.55625 643 78.55625 
L 643 50.2 
Q 643 48.2 641 48.2 
L 559.765625 48.2 
Q 557.765625 48.2 557.765625 50.2 
L 557.765625 78.55625 
Q 557.765625 80.55625 559.765625 80.55625 
z
" style="fill: #ffffff; opacity: 0.8; stroke: #cccccc; stroke-linejoin: miter"/>
    </g>
    <g id="line2d_31">
     <path d="M 561.765625 56.298437 
L 571.765625 56.298437 
L 581.765625 56.298437 
" style="fill: none; stroke: #1f77b4; stroke-width: 1.5; stroke-linecap: square"/>
    </g>
    <g id="text_18">
     <!-- train -->
     <g transform="translate(589.765625 59.798437) scale(0.1 -0.1)">
      <use xlink:href="#DejaVuSans-74"/>
      <use xlink:href="#DejaVuSans-72" x="39.208984"/>
      <use xlink:href="#DejaVuSans-61" x="80.322266"/>
      <use xlink:href="#DejaVuSans-69" x="141.601562"/>
      <use xlink:href="#DejaVuSans-6e" x="169.384766"/>
     </g>
    </g>
    <g id="line2d_32">
     <path d="M 561.765625 70.976562 
L 571.765625 70.976562 
L 581.765625 70.976562 
" style="fill: none; stroke: #ff7f0e; stroke-width: 1.5; stroke-linecap: square"/>
    </g>
    <g id="text_19">
     <!-- validation -->
     <g transform="translate(589.765625 74.476562) scale(0.1 -0.1)">
      <use xlink:href="#DejaVuSans-76"/>
      <use xlink:href="#DejaVuSans-61" x="59.179688"/>
      <use xlink:href="#DejaVuSans-6c" x="120.458984"/>
      <use xlink:href="#DejaVuSans-69" x="148.242188"/>
      <use xlink:href="#DejaVuSans-64" x="176.025391"/>
      <use xlink:href="#DejaVuSans-61" x="239.501953"/>
      <use xlink:href="#DejaVuSans-74" x="300.78125"/>
      <use xlink:href="#DejaVuSans-69" x="339.990234"/>
      <use xlink:href="#DejaVuSans-6f" x="367.773438"/>
      <use xlink:href="#DejaVuSans-6e" x="428.955078"/>
     </g>
    </g>
   </g>
  </g>
 </g>
 <defs>
  <clipPath id="pea89dff3a5">
   <rect x="90" y="43.2" width="558" height="277.2"/>
  </clipPath>
 </defs>
</svg>
