<?xml version="1.0" encoding="utf-8" standalone="no"?>
<!DOCTYPE svg PUBLIC "-//W3C//DTD SVG 1.1//EN"
  "http://www.w3.org/Graphics/SVG/1.1/DTD/svg11.dtd">
<svg xmlns:xlink="http://www.w3.org/1999/xlink" width="720pt" height="360pt" viewBox="0 0 720 360" xmlns="http://www.w3.org/2000/svg" version="1.1">
 <metadata>
  <rdf:RDF xmlns:dc="http://purl.org/dc/elements/1.1/" xmlns:cc="http://creativecommons.org/ns#" xmlns:rdf="http://www.w3.org/1999/02/22-rdf-syntax-ns#">
   <cc:Work>
    <dc:type rdf:resource="http://purl.org/dc/dcmitype/StillImage"/>
    <dc:date>2023-05-24T11:48:44.064299</dc:date>
    <dc:format>image/svg+xml</dc:format>
    <dc:creator>
     <cc:Agent>
      <dc:title>Matplotlib v3.7.1, https://matplotlib.org/</dc:title>
     </cc:Agent>
    </dc:creator>
   </cc:Work>
  </rdf:RDF>
 </metadata>
 <defs>
  <style type="text/css">*{stroke-linejoin: round; stroke-linecap: butt}</style>
 </defs>
 <g id="figure_1">
  <g id="patch_1">
   <path d="M 0 360 
L 720 360 
L 720 0 
L 0 0 
z
" style="fill: #ffffff"/>
  </g>
  <g id="axes_1">
   <g id="patch_2">
    <path d="M 90 320.4 
L 648 320.4 
L 648 43.2 
L 90 43.2 
z
" style="fill: #ffffff"/>
   </g>
   <g id="matplotlib.axis_1">
    <g id="xtick_1">
     <g id="line2d_1">
      <path d="M 115.363636 320.4 
L 115.363636 43.2 
" clip-path="url(#pc1fb8bbe5c)" style="fill: none; stroke: #b0b0b0; stroke-width: 0.8; stroke-linecap: square"/>
     </g>
     <g id="line2d_2">
      <defs>
       <path id="mbccb503eb2" d="M 0 0 
L 0 3.5 
" style="stroke: #000000; stroke-width: 0.8"/>
      </defs>
      <g>
       <use xlink:href="#mbccb503eb2" x="115.363636" y="320.4" style="stroke: #000000; stroke-width: 0.8"/>
      </g>
     </g>
     <g id="text_1">
      <!-- 0 -->
      <g transform="translate(112.182386 334.998438) scale(0.1 -0.1)">
       <defs>
        <path id="DejaVuSans-30" d="M 2034 4250 
Q 1547 4250 1301 3770 
Q 1056 3291 1056 2328 
Q 1056 1369 1301 889 
Q 1547 409 2034 409 
Q 2525 409 2770 889 
Q 3016 1369 3016 2328 
Q 3016 3291 2770 3770 
Q 2525 4250 2034 4250 
z
M 2034 4750 
Q 2819 4750 3233 4129 
Q 3647 3509 3647 2328 
Q 3647 1150 3233 529 
Q 2819 -91 2034 -91 
Q 1250 -91 836 529 
Q 422 1150 422 2328 
Q 422 3509 836 4129 
Q 1250 4750 2034 4750 
z
" transform="scale(0.015625)"/>
       </defs>
       <use xlink:href="#DejaVuSans-30"/>
      </g>
     </g>
    </g>
    <g id="xtick_2">
     <g id="line2d_3">
      <path d="M 217.021498 320.4 
L 217.021498 43.2 
" clip-path="url(#pc1fb8bbe5c)" style="fill: none; stroke: #b0b0b0; stroke-width: 0.8; stroke-linecap: square"/>
     </g>
     <g id="line2d_4">
      <g>
       <use xlink:href="#mbccb503eb2" x="217.021498" y="320.4" style="stroke: #000000; stroke-width: 0.8"/>
      </g>
     </g>
     <g id="text_2">
      <!-- 100 -->
      <g transform="translate(207.477748 334.998438) scale(0.1 -0.1)">
       <defs>
        <path id="DejaVuSans-31" d="M 794 531 
L 1825 531 
L 1825 4091 
L 703 3866 
L 703 4441 
L 1819 4666 
L 2450 4666 
L 2450 531 
L 3481 531 
L 3481 0 
L 794 0 
L 794 531 
z
" transform="scale(0.015625)"/>
       </defs>
       <use xlink:href="#DejaVuSans-31"/>
       <use xlink:href="#DejaVuSans-30" x="63.623047"/>
       <use xlink:href="#DejaVuSans-30" x="127.246094"/>
      </g>
     </g>
    </g>
    <g id="xtick_3">
     <g id="line2d_5">
      <path d="M 318.679359 320.4 
L 318.679359 43.2 
" clip-path="url(#pc1fb8bbe5c)" style="fill: none; stroke: #b0b0b0; stroke-width: 0.8; stroke-linecap: square"/>
     </g>
     <g id="line2d_6">
      <g>
       <use xlink:href="#mbccb503eb2" x="318.679359" y="320.4" style="stroke: #000000; stroke-width: 0.8"/>
      </g>
     </g>
     <g id="text_3">
      <!-- 200 -->
      <g transform="translate(309.135609 334.998438) scale(0.1 -0.1)">
       <defs>
        <path id="DejaVuSans-32" d="M 1228 531 
L 3431 531 
L 3431 0 
L 469 0 
L 469 531 
Q 828 903 1448 1529 
Q 2069 2156 2228 2338 
Q 2531 2678 2651 2914 
Q 2772 3150 2772 3378 
Q 2772 3750 2511 3984 
Q 2250 4219 1831 4219 
Q 1534 4219 1204 4116 
Q 875 4013 500 3803 
L 500 4441 
Q 881 4594 1212 4672 
Q 1544 4750 1819 4750 
Q 2544 4750 2975 4387 
Q 3406 4025 3406 3419 
Q 3406 3131 3298 2873 
Q 3191 2616 2906 2266 
Q 2828 2175 2409 1742 
Q 1991 1309 1228 531 
z
" transform="scale(0.015625)"/>
       </defs>
       <use xlink:href="#DejaVuSans-32"/>
       <use xlink:href="#DejaVuSans-30" x="63.623047"/>
       <use xlink:href="#DejaVuSans-30" x="127.246094"/>
      </g>
     </g>
    </g>
    <g id="xtick_4">
     <g id="line2d_7">
      <path d="M 420.33722 320.4 
L 420.33722 43.2 
" clip-path="url(#pc1fb8bbe5c)" style="fill: none; stroke: #b0b0b0; stroke-width: 0.8; stroke-linecap: square"/>
     </g>
     <g id="line2d_8">
      <g>
       <use xlink:href="#mbccb503eb2" x="420.33722" y="320.4" style="stroke: #000000; stroke-width: 0.8"/>
      </g>
     </g>
     <g id="text_4">
      <!-- 300 -->
      <g transform="translate(410.79347 334.998438) scale(0.1 -0.1)">
       <defs>
        <path id="DejaVuSans-33" d="M 2597 2516 
Q 3050 2419 3304 2112 
Q 3559 1806 3559 1356 
Q 3559 666 3084 287 
Q 2609 -91 1734 -91 
Q 1441 -91 1130 -33 
Q 819 25 488 141 
L 488 750 
Q 750 597 1062 519 
Q 1375 441 1716 441 
Q 2309 441 2620 675 
Q 2931 909 2931 1356 
Q 2931 1769 2642 2001 
Q 2353 2234 1838 2234 
L 1294 2234 
L 1294 2753 
L 1863 2753 
Q 2328 2753 2575 2939 
Q 2822 3125 2822 3475 
Q 2822 3834 2567 4026 
Q 2313 4219 1838 4219 
Q 1578 4219 1281 4162 
Q 984 4106 628 3988 
L 628 4550 
Q 988 4650 1302 4700 
Q 1616 4750 1894 4750 
Q 2613 4750 3031 4423 
Q 3450 4097 3450 3541 
Q 3450 3153 3228 2886 
Q 3006 2619 2597 2516 
z
" transform="scale(0.015625)"/>
       </defs>
       <use xlink:href="#DejaVuSans-33"/>
       <use xlink:href="#DejaVuSans-30" x="63.623047"/>
       <use xlink:href="#DejaVuSans-30" x="127.246094"/>
      </g>
     </g>
    </g>
    <g id="xtick_5">
     <g id="line2d_9">
      <path d="M 521.995081 320.4 
L 521.995081 43.2 
" clip-path="url(#pc1fb8bbe5c)" style="fill: none; stroke: #b0b0b0; stroke-width: 0.8; stroke-linecap: square"/>
     </g>
     <g id="line2d_10">
      <g>
       <use xlink:href="#mbccb503eb2" x="521.995081" y="320.4" style="stroke: #000000; stroke-width: 0.8"/>
      </g>
     </g>
     <g id="text_5">
      <!-- 400 -->
      <g transform="translate(512.451331 334.998438) scale(0.1 -0.1)">
       <defs>
        <path id="DejaVuSans-34" d="M 2419 4116 
L 825 1625 
L 2419 1625 
L 2419 4116 
z
M 2253 4666 
L 3047 4666 
L 3047 1625 
L 3713 1625 
L 3713 1100 
L 3047 1100 
L 3047 0 
L 2419 0 
L 2419 1100 
L 313 1100 
L 313 1709 
L 2253 4666 
z
" transform="scale(0.015625)"/>
       </defs>
       <use xlink:href="#DejaVuSans-34"/>
       <use xlink:href="#DejaVuSans-30" x="63.623047"/>
       <use xlink:href="#DejaVuSans-30" x="127.246094"/>
      </g>
     </g>
    </g>
    <g id="xtick_6">
     <g id="line2d_11">
      <path d="M 623.652942 320.4 
L 623.652942 43.2 
" clip-path="url(#pc1fb8bbe5c)" style="fill: none; stroke: #b0b0b0; stroke-width: 0.8; stroke-linecap: square"/>
     </g>
     <g id="line2d_12">
      <g>
       <use xlink:href="#mbccb503eb2" x="623.652942" y="320.4" style="stroke: #000000; stroke-width: 0.8"/>
      </g>
     </g>
     <g id="text_6">
      <!-- 500 -->
      <g transform="translate(614.109192 334.998438) scale(0.1 -0.1)">
       <defs>
        <path id="DejaVuSans-35" d="M 691 4666 
L 3169 4666 
L 3169 4134 
L 1269 4134 
L 1269 2991 
Q 1406 3038 1543 3061 
Q 1681 3084 1819 3084 
Q 2600 3084 3056 2656 
Q 3513 2228 3513 1497 
Q 3513 744 3044 326 
Q 2575 -91 1722 -91 
Q 1428 -91 1123 -41 
Q 819 9 494 109 
L 494 744 
Q 775 591 1075 516 
Q 1375 441 1709 441 
Q 2250 441 2565 725 
Q 2881 1009 2881 1497 
Q 2881 1984 2565 2268 
Q 2250 2553 1709 2553 
Q 1456 2553 1204 2497 
Q 953 2441 691 2322 
L 691 4666 
z
" transform="scale(0.015625)"/>
       </defs>
       <use xlink:href="#DejaVuSans-35"/>
       <use xlink:href="#DejaVuSans-30" x="63.623047"/>
       <use xlink:href="#DejaVuSans-30" x="127.246094"/>
      </g>
     </g>
    </g>
    <g id="text_7">
     <!-- epoch -->
     <g transform="translate(353.771875 348.676562) scale(0.1 -0.1)">
      <defs>
       <path id="DejaVuSans-65" d="M 3597 1894 
L 3597 1613 
L 953 1613 
Q 991 1019 1311 708 
Q 1631 397 2203 397 
Q 2534 397 2845 478 
Q 3156 559 3463 722 
L 3463 178 
Q 3153 47 2828 -22 
Q 2503 -91 2169 -91 
Q 1331 -91 842 396 
Q 353 884 353 1716 
Q 353 2575 817 3079 
Q 1281 3584 2069 3584 
Q 2775 3584 3186 3129 
Q 3597 2675 3597 1894 
z
M 3022 2063 
Q 3016 2534 2758 2815 
Q 2500 3097 2075 3097 
Q 1594 3097 1305 2825 
Q 1016 2553 972 2059 
L 3022 2063 
z
" transform="scale(0.015625)"/>
       <path id="DejaVuSans-70" d="M 1159 525 
L 1159 -1331 
L 581 -1331 
L 581 3500 
L 1159 3500 
L 1159 2969 
Q 1341 3281 1617 3432 
Q 1894 3584 2278 3584 
Q 2916 3584 3314 3078 
Q 3713 2572 3713 1747 
Q 3713 922 3314 415 
Q 2916 -91 2278 -91 
Q 1894 -91 1617 61 
Q 1341 213 1159 525 
z
M 3116 1747 
Q 3116 2381 2855 2742 
Q 2594 3103 2138 3103 
Q 1681 3103 1420 2742 
Q 1159 2381 1159 1747 
Q 1159 1113 1420 752 
Q 1681 391 2138 391 
Q 2594 391 2855 752 
Q 3116 1113 3116 1747 
z
" transform="scale(0.015625)"/>
       <path id="DejaVuSans-6f" d="M 1959 3097 
Q 1497 3097 1228 2736 
Q 959 2375 959 1747 
Q 959 1119 1226 758 
Q 1494 397 1959 397 
Q 2419 397 2687 759 
Q 2956 1122 2956 1747 
Q 2956 2369 2687 2733 
Q 2419 3097 1959 3097 
z
M 1959 3584 
Q 2709 3584 3137 3096 
Q 3566 2609 3566 1747 
Q 3566 888 3137 398 
Q 2709 -91 1959 -91 
Q 1206 -91 779 398 
Q 353 888 353 1747 
Q 353 2609 779 3096 
Q 1206 3584 1959 3584 
z
" transform="scale(0.015625)"/>
       <path id="DejaVuSans-63" d="M 3122 3366 
L 3122 2828 
Q 2878 2963 2633 3030 
Q 2388 3097 2138 3097 
Q 1578 3097 1268 2742 
Q 959 2388 959 1747 
Q 959 1106 1268 751 
Q 1578 397 2138 397 
Q 2388 397 2633 464 
Q 2878 531 3122 666 
L 3122 134 
Q 2881 22 2623 -34 
Q 2366 -91 2075 -91 
Q 1284 -91 818 406 
Q 353 903 353 1747 
Q 353 2603 823 3093 
Q 1294 3584 2113 3584 
Q 2378 3584 2631 3529 
Q 2884 3475 3122 3366 
z
" transform="scale(0.015625)"/>
       <path id="DejaVuSans-68" d="M 3513 2113 
L 3513 0 
L 2938 0 
L 2938 2094 
Q 2938 2591 2744 2837 
Q 2550 3084 2163 3084 
Q 1697 3084 1428 2787 
Q 1159 2491 1159 1978 
L 1159 0 
L 581 0 
L 581 4863 
L 1159 4863 
L 1159 2956 
Q 1366 3272 1645 3428 
Q 1925 3584 2291 3584 
Q 2894 3584 3203 3211 
Q 3513 2838 3513 2113 
z
" transform="scale(0.015625)"/>
      </defs>
      <use xlink:href="#DejaVuSans-65"/>
      <use xlink:href="#DejaVuSans-70" x="61.523438"/>
      <use xlink:href="#DejaVuSans-6f" x="125"/>
      <use xlink:href="#DejaVuSans-63" x="186.181641"/>
      <use xlink:href="#DejaVuSans-68" x="241.162109"/>
     </g>
    </g>
   </g>
   <g id="matplotlib.axis_2">
    <g id="ytick_1">
     <g id="line2d_13">
      <path d="M 90 286.240279 
L 648 286.240279 
" clip-path="url(#pc1fb8bbe5c)" style="fill: none; stroke: #b0b0b0; stroke-width: 0.8; stroke-linecap: square"/>
     </g>
     <g id="line2d_14">
      <defs>
       <path id="m9694fa5508" d="M 0 0 
L -3.5 0 
" style="stroke: #000000; stroke-width: 0.8"/>
      </defs>
      <g>
       <use xlink:href="#m9694fa5508" x="90" y="286.240279" style="stroke: #000000; stroke-width: 0.8"/>
      </g>
     </g>
     <g id="text_8">
      <!-- 1.380 -->
      <g transform="translate(54.371875 290.039498) scale(0.1 -0.1)">
       <defs>
        <path id="DejaVuSans-2e" d="M 684 794 
L 1344 794 
L 1344 0 
L 684 0 
L 684 794 
z
" transform="scale(0.015625)"/>
        <path id="DejaVuSans-38" d="M 2034 2216 
Q 1584 2216 1326 1975 
Q 1069 1734 1069 1313 
Q 1069 891 1326 650 
Q 1584 409 2034 409 
Q 2484 409 2743 651 
Q 3003 894 3003 1313 
Q 3003 1734 2745 1975 
Q 2488 2216 2034 2216 
z
M 1403 2484 
Q 997 2584 770 2862 
Q 544 3141 544 3541 
Q 544 4100 942 4425 
Q 1341 4750 2034 4750 
Q 2731 4750 3128 4425 
Q 3525 4100 3525 3541 
Q 3525 3141 3298 2862 
Q 3072 2584 2669 2484 
Q 3125 2378 3379 2068 
Q 3634 1759 3634 1313 
Q 3634 634 3220 271 
Q 2806 -91 2034 -91 
Q 1263 -91 848 271 
Q 434 634 434 1313 
Q 434 1759 690 2068 
Q 947 2378 1403 2484 
z
M 1172 3481 
Q 1172 3119 1398 2916 
Q 1625 2713 2034 2713 
Q 2441 2713 2670 2916 
Q 2900 3119 2900 3481 
Q 2900 3844 2670 4047 
Q 2441 4250 2034 4250 
Q 1625 4250 1398 4047 
Q 1172 3844 1172 3481 
z
" transform="scale(0.015625)"/>
       </defs>
       <use xlink:href="#DejaVuSans-31"/>
       <use xlink:href="#DejaVuSans-2e" x="63.623047"/>
       <use xlink:href="#DejaVuSans-33" x="95.410156"/>
       <use xlink:href="#DejaVuSans-38" x="159.033203"/>
       <use xlink:href="#DejaVuSans-30" x="222.65625"/>
      </g>
     </g>
    </g>
    <g id="ytick_2">
     <g id="line2d_15">
      <path d="M 90 225.003888 
L 648 225.003888 
" clip-path="url(#pc1fb8bbe5c)" style="fill: none; stroke: #b0b0b0; stroke-width: 0.8; stroke-linecap: square"/>
     </g>
     <g id="line2d_16">
      <g>
       <use xlink:href="#m9694fa5508" x="90" y="225.003888" style="stroke: #000000; stroke-width: 0.8"/>
      </g>
     </g>
     <g id="text_9">
      <!-- 1.385 -->
      <g transform="translate(54.371875 228.803106) scale(0.1 -0.1)">
       <use xlink:href="#DejaVuSans-31"/>
       <use xlink:href="#DejaVuSans-2e" x="63.623047"/>
       <use xlink:href="#DejaVuSans-33" x="95.410156"/>
       <use xlink:href="#DejaVuSans-38" x="159.033203"/>
       <use xlink:href="#DejaVuSans-35" x="222.65625"/>
      </g>
     </g>
    </g>
    <g id="ytick_3">
     <g id="line2d_17">
      <path d="M 90 163.767496 
L 648 163.767496 
" clip-path="url(#pc1fb8bbe5c)" style="fill: none; stroke: #b0b0b0; stroke-width: 0.8; stroke-linecap: square"/>
     </g>
     <g id="line2d_18">
      <g>
       <use xlink:href="#m9694fa5508" x="90" y="163.767496" style="stroke: #000000; stroke-width: 0.8"/>
      </g>
     </g>
     <g id="text_10">
      <!-- 1.390 -->
      <g transform="translate(54.371875 167.566715) scale(0.1 -0.1)">
       <defs>
        <path id="DejaVuSans-39" d="M 703 97 
L 703 672 
Q 941 559 1184 500 
Q 1428 441 1663 441 
Q 2288 441 2617 861 
Q 2947 1281 2994 2138 
Q 2813 1869 2534 1725 
Q 2256 1581 1919 1581 
Q 1219 1581 811 2004 
Q 403 2428 403 3163 
Q 403 3881 828 4315 
Q 1253 4750 1959 4750 
Q 2769 4750 3195 4129 
Q 3622 3509 3622 2328 
Q 3622 1225 3098 567 
Q 2575 -91 1691 -91 
Q 1453 -91 1209 -44 
Q 966 3 703 97 
z
M 1959 2075 
Q 2384 2075 2632 2365 
Q 2881 2656 2881 3163 
Q 2881 3666 2632 3958 
Q 2384 4250 1959 4250 
Q 1534 4250 1286 3958 
Q 1038 3666 1038 3163 
Q 1038 2656 1286 2365 
Q 1534 2075 1959 2075 
z
" transform="scale(0.015625)"/>
       </defs>
       <use xlink:href="#DejaVuSans-31"/>
       <use xlink:href="#DejaVuSans-2e" x="63.623047"/>
       <use xlink:href="#DejaVuSans-33" x="95.410156"/>
       <use xlink:href="#DejaVuSans-39" x="159.033203"/>
       <use xlink:href="#DejaVuSans-30" x="222.65625"/>
      </g>
     </g>
    </g>
    <g id="ytick_4">
     <g id="line2d_19">
      <path d="M 90 102.531105 
L 648 102.531105 
" clip-path="url(#pc1fb8bbe5c)" style="fill: none; stroke: #b0b0b0; stroke-width: 0.8; stroke-linecap: square"/>
     </g>
     <g id="line2d_20">
      <g>
       <use xlink:href="#m9694fa5508" x="90" y="102.531105" style="stroke: #000000; stroke-width: 0.8"/>
      </g>
     </g>
     <g id="text_11">
      <!-- 1.395 -->
      <g transform="translate(54.371875 106.330324) scale(0.1 -0.1)">
       <use xlink:href="#DejaVuSans-31"/>
       <use xlink:href="#DejaVuSans-2e" x="63.623047"/>
       <use xlink:href="#DejaVuSans-33" x="95.410156"/>
       <use xlink:href="#DejaVuSans-39" x="159.033203"/>
       <use xlink:href="#DejaVuSans-35" x="222.65625"/>
      </g>
     </g>
    </g>
    <g id="text_12">
     <!-- loss -->
     <g transform="translate(48.292188 191.457812) rotate(-90) scale(0.1 -0.1)">
      <defs>
       <path id="DejaVuSans-6c" d="M 603 4863 
L 1178 4863 
L 1178 0 
L 603 0 
L 603 4863 
z
" transform="scale(0.015625)"/>
       <path id="DejaVuSans-73" d="M 2834 3397 
L 2834 2853 
Q 2591 2978 2328 3040 
Q 2066 3103 1784 3103 
Q 1356 3103 1142 2972 
Q 928 2841 928 2578 
Q 928 2378 1081 2264 
Q 1234 2150 1697 2047 
L 1894 2003 
Q 2506 1872 2764 1633 
Q 3022 1394 3022 966 
Q 3022 478 2636 193 
Q 2250 -91 1575 -91 
Q 1294 -91 989 -36 
Q 684 19 347 128 
L 347 722 
Q 666 556 975 473 
Q 1284 391 1588 391 
Q 1994 391 2212 530 
Q 2431 669 2431 922 
Q 2431 1156 2273 1281 
Q 2116 1406 1581 1522 
L 1381 1569 
Q 847 1681 609 1914 
Q 372 2147 372 2553 
Q 372 3047 722 3315 
Q 1072 3584 1716 3584 
Q 2034 3584 2315 3537 
Q 2597 3491 2834 3397 
z
" transform="scale(0.015625)"/>
      </defs>
      <use xlink:href="#DejaVuSans-6c"/>
      <use xlink:href="#DejaVuSans-6f" x="27.783203"/>
      <use xlink:href="#DejaVuSans-73" x="88.964844"/>
      <use xlink:href="#DejaVuSans-73" x="141.064453"/>
     </g>
    </g>
   </g>
   <g id="line2d_21">
    <path d="M 115.363636 197.779583 
L 116.380215 177.589391 
L 117.396794 195.113643 
L 118.413372 199.876128 
L 119.429951 122.831031 
L 120.446529 153.956543 
L 121.463108 109.23853 
L 122.479687 186.604825 
L 123.496265 178.085787 
L 124.512844 209.608417 
L 125.529422 135.359199 
L 126.546001 228.3211 
L 127.56258 182.132878 
L 128.579158 187.121661 
L 129.595737 175.932303 
L 130.612316 98.097351 
L 131.628894 196.88169 
L 132.645473 143.967296 
L 133.662051 126.308725 
L 134.67863 166.204394 
L 135.695209 192.228704 
L 136.711787 168.222099 
L 137.728366 174.086876 
L 138.744944 146.830335 
L 139.761523 200.614883 
L 140.778102 146.113481 
L 141.79468 158.175912 
L 142.811259 185.289375 
L 143.827837 247.225042 
L 144.844416 169.352131 
L 145.860995 107.280684 
L 146.877573 131.474167 
L 147.894152 166.261333 
L 148.910731 173.735019 
L 149.927309 207.926509 
L 150.943888 124.099761 
L 151.960466 216.207569 
L 152.977045 221.878167 
L 153.993624 196.417413 
L 155.010202 207.011096 
L 156.026781 189.758402 
L 157.043359 187.124581 
L 158.059938 133.204255 
L 159.076517 137.830961 
L 160.093095 169.994526 
L 161.109674 161.19955 
L 163.142831 193.574814 
L 164.15941 177.557271 
L 165.175988 146.536877 
L 166.192567 178.141267 
L 167.209146 190.326338 
L 168.225724 151.531501 
L 169.242303 201.0339 
L 170.258881 143.47382 
L 171.27546 184.035244 
L 172.292039 175.395027 
L 173.308617 145.624384 
L 175.341774 167.039508 
L 176.358353 123.642785 
L 177.374932 175.359987 
L 178.39151 169.54193 
L 179.408089 234.569855 
L 180.424668 158.101453 
L 181.441246 141.892651 
L 182.457825 179.884494 
L 183.474403 150.211671 
L 184.490982 112.622785 
L 185.507561 128.627188 
L 186.524139 221.739468 
L 187.540718 165.39994 
L 188.557296 201.258738 
L 189.573875 126.061987 
L 190.590454 183.14757 
L 191.607032 135.338759 
L 192.623611 174.005117 
L 193.640189 151.381122 
L 194.656768 152.817752 
L 195.673347 227.383787 
L 196.689925 238.571685 
L 197.706504 83.700396 
L 198.723083 188.317392 
L 199.739661 198.124141 
L 200.75624 250.111441 
L 201.772818 151.077444 
L 202.789397 196.750291 
L 203.805976 200.302445 
L 204.822554 149.081639 
L 205.839133 107.952279 
L 206.855711 154.952256 
L 207.87229 163.325295 
L 208.888869 154.492359 
L 209.905447 123.800463 
L 210.922026 123.873463 
L 211.938604 166.274473 
L 212.955183 193.532474 
L 213.971762 204.358295 
L 214.98834 119.567954 
L 216.004919 189.187546 
L 217.021498 188.743709 
L 218.038076 152.803152 
L 219.054655 161.893045 
L 220.071233 148.177905 
L 221.087812 126.151046 
L 222.104391 194.10625 
L 223.120969 180.186712 
L 224.137548 205.335028 
L 225.154126 212.161938 
L 226.170705 145.329466 
L 227.187284 114.322213 
L 228.203862 172.365549 
L 229.220441 113.28562 
L 230.237019 195.056703 
L 232.270177 90.890844 
L 233.286755 117.322491 
L 234.303334 177.018535 
L 235.319913 222.742481 
L 236.336491 154.124442 
L 237.35307 114.763129 
L 238.369648 115.332525 
L 239.386227 124.714417 
L 240.402806 175.911863 
L 241.419384 129.279803 
L 242.435963 165.661278 
L 243.452541 207.82431 
L 244.46912 141.650293 
L 245.485699 229.289073 
L 246.502277 193.506195 
L 247.518856 134.316767 
L 248.535435 195.44798 
L 249.552013 140.7159 
L 250.568592 195.350161 
L 251.58517 154.515719 
L 252.601749 168.425038 
L 253.618328 202.017932 
L 254.634906 123.644245 
L 255.651485 132.326801 
L 256.668063 202.708507 
L 257.684642 227.664105 
L 258.701221 211.88162 
L 259.717799 200.647002 
L 260.734378 147.961827 
L 261.750956 181.055405 
L 262.767535 139.651568 
L 263.784114 137.007527 
L 264.800692 202.37855 
L 265.817271 160.903173 
L 266.83385 161.872606 
L 267.850428 59.007597 
L 268.867007 187.088081 
L 269.883585 219.736363 
L 270.900164 168.032301 
L 271.916743 104.411805 
L 272.933321 145.466705 
L 273.9499 142.977423 
L 274.966478 126.897101 
L 276.999636 193.630294 
L 278.016214 188.972928 
L 279.032793 139.028152 
L 280.049371 144.939649 
L 281.06595 147.916567 
L 282.082529 250.137721 
L 283.099107 159.031466 
L 284.115686 182.524155 
L 285.132265 117.766328 
L 286.148843 157.489718 
L 287.165422 109.17429 
L 288.182 147.899048 
L 289.198579 157.022521 
L 290.215158 139.902686 
L 291.231736 194.690246 
L 292.248315 194.300429 
L 293.264893 223.630155 
L 294.281472 136.738889 
L 295.298051 165.486079 
L 296.314629 229.465732 
L 297.331208 215.800232 
L 298.347786 151.60742 
L 299.364365 189.378805 
L 300.380944 91.263141 
L 301.397522 126.681022 
L 302.414101 197.240847 
L 303.43068 122.664592 
L 304.447258 123.293847 
L 305.463837 224.438989 
L 306.480415 193.557294 
L 307.496994 147.449371 
L 308.513573 116.528257 
L 309.530151 175.187708 
L 310.54673 147.795388 
L 311.563308 142.822665 
L 312.579887 116.531177 
L 313.596466 169.771148 
L 314.613044 135.713977 
L 315.629623 164.356047 
L 316.646201 204.368515 
L 317.66278 183.861505 
L 318.679359 238.520586 
L 319.695937 237.225575 
L 320.712516 145.547005 
L 321.729095 191.822827 
L 322.745673 133.604292 
L 323.762252 135.306639 
L 324.77883 163.065417 
L 325.795409 110.291182 
L 326.811988 151.340242 
L 327.828566 123.022289 
L 328.845145 173.181683 
L 329.861723 118.78978 
L 330.878302 183.030771 
L 331.894881 181.364923 
L 332.911459 72.21028 
L 333.928038 192.408283 
L 334.944617 76.32891 
L 335.961195 155.469092 
L 336.977774 114.64195 
L 337.994352 140.238483 
L 339.010931 149.883173 
L 340.02751 219.847322 
L 341.044088 196.79847 
L 342.060667 184.871818 
L 343.077245 226.909291 
L 344.093824 181.201404 
L 345.110403 185.86315 
L 346.126981 154.885097 
L 347.14356 118.575162 
L 348.160138 217.174082 
L 349.176717 198.642437 
L 350.193296 214.738819 
L 351.209874 186.460286 
L 352.226453 235.23123 
L 353.243032 170.480703 
L 354.25961 180.937146 
L 355.276189 188.60501 
L 356.292767 163.674232 
L 357.309346 195.075683 
L 358.325925 176.052022 
L 359.342503 187.834136 
L 360.359082 227.515186 
L 361.37566 202.648648 
L 362.392239 173.475141 
L 363.408818 150.531408 
L 364.425396 170.612102 
L 365.441975 153.628046 
L 366.458553 232.322931 
L 367.475132 97.368816 
L 368.491711 185.375514 
L 369.508289 130.858052 
L 370.524868 148.448004 
L 371.541447 213.832166 
L 372.558025 143.989196 
L 373.574604 152.962291 
L 374.591182 207.342513 
L 375.607761 135.805956 
L 377.640918 233.474863 
L 378.657497 128.685588 
L 379.674075 93.228287 
L 380.690654 193.462395 
L 381.707233 146.404018 
L 382.723811 131.782225 
L 383.74039 177.917888 
L 384.756968 125.184533 
L 385.773547 245.508095 
L 386.790126 127.0358 
L 387.806704 199.084814 
L 388.823283 187.752377 
L 389.839862 154.36096 
L 390.85644 114.963148 
L 391.873019 228.023262 
L 392.889597 249.242748 
L 393.906176 200.807601 
L 394.922755 160.729434 
L 395.939333 167.334426 
L 396.955912 132.650919 
L 397.97249 176.539658 
L 398.989069 158.167153 
L 400.005648 182.395676 
L 401.022226 219.714463 
L 402.038805 149.651035 
L 403.055383 141.866372 
L 404.071962 204.405015 
L 405.088541 179.999833 
L 406.105119 212.065579 
L 407.121698 127.145299 
L 408.138277 179.783755 
L 409.154855 171.458896 
L 410.171434 89.043957 
L 411.188012 175.541026 
L 412.204591 167.194267 
L 413.22117 129.208264 
L 414.237748 175.647605 
L 415.254327 107.563922 
L 416.270905 151.852699 
L 417.287484 165.496299 
L 418.304063 225.297462 
L 419.320641 126.415304 
L 420.33722 139.36687 
L 421.353799 156.562624 
L 422.370377 209.393799 
L 423.386956 164.123909 
L 424.403534 149.764914 
L 425.420113 141.054618 
L 426.436692 196.188195 
L 427.45327 179.0304 
L 428.469849 177.384992 
L 429.486427 181.582462 
L 430.503006 151.210303 
L 431.519585 106.826627 
L 432.536163 191.914806 
L 433.552742 114.275493 
L 434.56932 208.593724 
L 435.585899 184.987157 
L 436.602478 165.754717 
L 437.619056 143.811077 
L 438.635635 201.441237 
L 439.652214 169.102473 
L 440.668792 207.276814 
L 441.685371 186.755204 
L 442.701949 225.68436 
L 444.735107 166.623411 
L 445.751685 211.758981 
L 446.768264 236.089704 
L 447.784842 249.726004 
L 448.801421 124.965535 
L 449.818 185.209075 
L 450.834578 183.683386 
L 451.851157 133.464133 
L 452.867735 111.440194 
L 453.884314 148.062566 
L 454.900893 88.578221 
L 455.917471 167.670223 
L 456.93405 99.969057 
L 457.950629 189.130606 
L 458.967207 165.132762 
L 459.983786 126.248866 
L 461.000364 223.796593 
L 462.016943 178.034687 
L 463.033522 180.001293 
L 464.0501 179.277138 
L 465.066679 119.865792 
L 466.083257 172.22831 
L 467.099836 167.149007 
L 468.116415 188.480911 
L 469.132993 158.945327 
L 470.149572 153.411967 
L 471.16615 123.616505 
L 472.182729 178.455164 
L 473.199308 55.8 
L 474.215886 173.806558 
L 475.232465 224.533888 
L 476.249044 209.917935 
L 477.265622 139.226711 
L 479.298779 190.716155 
L 480.315358 132.361841 
L 481.331937 171.747973 
L 482.348515 158.035754 
L 483.365094 155.163954 
L 484.381672 146.120781 
L 485.398251 182.026298 
L 486.41483 231.893694 
L 487.431408 215.585613 
L 488.447987 115.366105 
L 489.464565 216.686445 
L 490.481144 174.482533 
L 491.497723 179.729735 
L 492.514301 197.766443 
L 493.53088 193.685773 
L 494.547459 246.724266 
L 495.564037 128.259271 
L 496.580616 196.080156 
L 497.597194 122.426614 
L 498.613773 196.572172 
L 499.630352 176.659378 
L 500.64693 233.432523 
L 501.663509 195.973577 
L 502.680087 202.445709 
L 504.713245 139.874946 
L 505.729823 129.965998 
L 506.746402 165.633538 
L 507.762981 128.555649 
L 508.779559 177.189354 
L 509.796138 187.28956 
L 510.812716 220.606517 
L 511.829295 168.717036 
L 512.845874 180.591129 
L 513.862452 141.840092 
L 514.879031 164.02171 
L 515.895609 207.752771 
L 516.912188 149.167778 
L 517.928767 167.239526 
L 518.945345 111.870891 
L 519.961924 241.103307 
L 521.995081 183.267289 
L 523.01166 222.530783 
L 524.028238 132.52682 
L 525.044817 204.086737 
L 526.061396 210.353012 
L 527.077974 120.405988 
L 528.094553 168.432338 
L 529.111131 191.853487 
L 530.12771 95.143793 
L 531.144289 151.416162 
L 532.160867 149.791194 
L 533.177446 178.747162 
L 534.194024 192.307543 
L 535.210603 180.183792 
L 536.227182 178.621603 
L 537.24376 204.888271 
L 538.260339 209.612797 
L 539.276917 163.500494 
L 540.293496 162.6537 
L 541.310075 205.318968 
L 542.326653 170.255864 
L 543.343232 127.234358 
L 544.359811 213.35767 
L 545.376389 150.503669 
L 546.392968 147.132553 
L 547.409546 178.944261 
L 548.426125 110.421121 
L 549.442704 150.202911 
L 550.459282 209.266779 
L 551.475861 189.754022 
L 552.492439 182.757753 
L 553.509018 185.533193 
L 554.525597 219.841482 
L 555.542175 136.489231 
L 556.558754 155.604871 
L 557.575332 192.440402 
L 558.591911 179.207059 
L 559.60849 132.077143 
L 560.625068 137.263025 
L 561.641647 233.994619 
L 562.658226 110.205043 
L 563.674804 166.68765 
L 564.691383 153.724405 
L 565.707961 163.609993 
L 566.72454 199.481931 
L 567.741119 211.509323 
L 568.757697 154.632518 
L 569.774276 133.80577 
L 570.790854 210.291692 
L 571.807433 137.375444 
L 572.824012 210.369071 
L 574.857169 148.247985 
L 575.873747 103.74167 
L 576.890326 125.932048 
L 577.906905 196.072856 
L 578.923483 161.28861 
L 579.940062 177.71933 
L 580.956641 61.733397 
L 581.973219 101.675785 
L 582.989798 185.84125 
L 584.006376 212.668555 
L 585.022955 185.318574 
L 586.039534 216.264508 
L 587.056112 184.235262 
L 588.072691 193.272596 
L 589.089269 174.472314 
L 590.105848 235.599147 
L 591.122427 189.612403 
L 592.139005 240.70765 
L 593.155584 105.911214 
L 594.172163 195.301981 
L 595.188741 122.795991 
L 596.20532 161.493008 
L 597.221898 195.261102 
L 598.238477 148.772121 
L 599.255056 160.037399 
L 600.271634 165.667118 
L 601.288213 132.335561 
L 602.304791 157.591917 
L 603.32137 191.107432 
L 604.337949 171.501235 
L 605.354527 232.42805 
L 606.371106 109.349489 
L 607.387684 206.711798 
L 608.404263 159.9279 
L 609.420842 197.289027 
L 610.43742 112.397947 
L 611.453999 177.427332 
L 612.470578 130.909152 
L 613.487156 107.982939 
L 614.503735 163.839211 
L 615.520313 169.737568 
L 616.536892 203.549461 
L 617.553471 155.527492 
L 618.570049 179.620236 
L 619.586628 178.850822 
L 620.603206 132.878677 
L 621.619785 148.886 
L 622.636364 128.481189 
L 622.636364 128.481189 
" clip-path="url(#pc1fb8bbe5c)" style="fill: none; stroke: #1f77b4; stroke-width: 1.5; stroke-linecap: square"/>
   </g>
   <g id="line2d_22">
    <path d="M 115.363636 297.934852 
L 116.380215 281.490992 
L 117.396794 293.706723 
L 118.413372 295.40615 
L 119.429951 287.049172 
L 120.446529 285.498663 
L 121.463108 290.302028 
L 122.479687 290.777984 
L 123.496265 299.425501 
L 124.512844 291.664198 
L 125.529422 303.783569 
L 126.546001 295.204672 
L 127.56258 284.813928 
L 128.579158 293.826442 
L 129.595737 296.229584 
L 130.612316 294.13596 
L 131.628894 300.278135 
L 132.645473 292.894969 
L 133.662051 287.142611 
L 134.67863 296.588742 
L 135.695209 307.659841 
L 136.711787 297.879372 
L 137.728366 304.424505 
L 138.744944 287.764566 
L 139.761523 293.842502 
L 140.778102 298.063331 
L 141.79468 294.16808 
L 142.811259 286.273917 
L 143.827837 293.581164 
L 144.844416 296.306964 
L 145.860995 295.213432 
L 146.877573 286.672494 
L 147.894152 288.68436 
L 148.910731 289.900531 
L 149.927309 284.47667 
L 150.943888 295.385711 
L 151.960466 290.386707 
L 152.977045 280.012023 
L 153.993624 289.420194 
L 155.010202 294.912674 
L 156.026781 298.621047 
L 157.043359 288.790939 
L 158.059938 298.393289 
L 159.076517 290.509346 
L 160.093095 290.01149 
L 161.109674 296.505522 
L 162.126253 288.715019 
L 163.142831 292.417552 
L 164.15941 294.695136 
L 165.175988 287.885745 
L 166.192567 295.909847 
L 167.209146 294.010401 
L 168.225724 293.963681 
L 169.242303 283.901434 
L 170.258881 287.25065 
L 171.27546 291.008663 
L 172.292039 299.215263 
L 173.308617 289.726792 
L 174.325196 298.442928 
L 175.341774 286.298737 
L 176.358353 290.304948 
L 177.374932 288.901898 
L 178.39151 297.743593 
L 179.408089 297.077838 
L 180.424668 294.816315 
L 181.441246 282.507145 
L 182.457825 299.313082 
L 183.474403 294.13888 
L 184.490982 302.876916 
L 185.507561 291.564919 
L 186.524139 287.786466 
L 187.540718 297.089518 
L 188.557296 292.965048 
L 189.573875 293.946161 
L 190.590454 288.862478 
L 191.607032 286.003819 
L 192.623611 301.792144 
L 193.640189 302.25642 
L 194.656768 288.323742 
L 195.673347 295.298111 
L 196.689925 297.111418 
L 197.706504 298.421028 
L 198.723083 291.494839 
L 199.739661 291.697778 
L 200.75624 282.788923 
L 201.772818 299.432801 
L 202.789397 294.06442 
L 203.805976 291.726977 
L 204.822554 294.030841 
L 205.839133 286.900253 
L 206.855711 297.556715 
L 207.87229 291.827717 
L 208.888869 288.973437 
L 209.905447 294.775435 
L 210.922026 299.146643 
L 211.938604 290.05237 
L 212.955183 297.026739 
L 213.971762 295.699608 
L 214.98834 296.663201 
L 216.004919 293.791402 
L 217.021498 293.468745 
L 218.038076 290.579426 
L 219.054655 296.685101 
L 220.071233 291.455419 
L 221.087812 290.596946 
L 222.104391 295.214892 
L 223.120969 296.317184 
L 224.137548 293.169447 
L 225.154126 291.078742 
L 226.170705 297.126018 
L 227.187284 286.544015 
L 228.203862 287.453589 
L 229.220441 293.627883 
L 230.237019 286.190698 
L 231.253598 301.165808 
L 232.270177 288.900438 
L 233.286755 287.151371 
L 234.303334 296.460263 
L 235.319913 284.759908 
L 236.336491 290.087409 
L 237.35307 282.453125 
L 238.369648 298.311529 
L 239.386227 292.516832 
L 240.402806 294.11114 
L 241.419384 285.498663 
L 242.435963 291.537179 
L 243.452541 307.094825 
L 244.46912 290.572126 
L 245.485699 288.119344 
L 246.502277 304.525244 
L 247.518856 303.465292 
L 248.535435 282.752423 
L 249.552013 302.732377 
L 250.568592 288.66246 
L 251.58517 293.181127 
L 252.601749 287.32073 
L 253.618328 293.195727 
L 254.634906 289.201196 
L 255.651485 291.728437 
L 256.668063 283.641556 
L 257.684642 298.047271 
L 258.701221 294.04544 
L 259.717799 292.176654 
L 260.734378 292.845329 
L 261.750956 291.096262 
L 262.767535 294.229399 
L 263.784114 284.48105 
L 265.817271 294.632356 
L 266.83385 298.310069 
L 267.850428 299.186063 
L 268.867007 287.091511 
L 269.883585 297.638474 
L 270.900164 295.279131 
L 271.916743 296.174105 
L 272.933321 301.189168 
L 273.9499 287.665287 
L 274.966478 291.39702 
L 275.983057 292.341633 
L 276.999636 302.022822 
L 278.016214 293.052648 
L 279.032793 285.460703 
L 280.049371 276.064212 
L 281.06595 299.61968 
L 282.082529 291.4014 
L 283.099107 300.90885 
L 284.115686 294.868874 
L 285.132265 287.755806 
L 286.148843 290.875804 
L 287.165422 296.749341 
L 288.182 293.189887 
L 289.198579 298.981664 
L 290.215158 288.777799 
L 291.231736 304.668323 
L 292.248315 301.346847 
L 293.264893 292.032115 
L 294.281472 295.594489 
L 295.298051 287.967505 
L 296.314629 291.40724 
L 297.331208 299.145183 
L 298.347786 292.72269 
L 299.364365 287.874065 
L 300.380944 288.126644 
L 301.397522 291.021803 
L 302.414101 284.281032 
L 303.43068 297.899812 
L 304.447258 301.491386 
L 305.463837 293.340266 
L 306.480415 298.713026 
L 307.496994 290.869964 
L 308.513573 305.230419 
L 309.530151 276.096331 
L 310.54673 289.525313 
L 311.563308 288.009844 
L 312.579887 294.895154 
L 313.596466 284.311692 
L 314.613044 286.957192 
L 315.629623 290.623225 
L 316.646201 296.447123 
L 317.66278 282.421005 
L 318.679359 294.623596 
L 319.695937 294.553517 
L 320.712516 289.112136 
L 321.729095 294.630896 
L 322.745673 291.3503 
L 323.762252 290.845144 
L 324.77883 286.103098 
L 325.795409 301.773164 
L 326.811988 285.584802 
L 327.828566 281.393173 
L 328.845145 292.576691 
L 329.861723 289.802711 
L 330.878302 299.916058 
L 331.894881 298.19181 
L 332.911459 299.222563 
L 333.928038 286.471016 
L 334.944617 293.949081 
L 335.961195 285.411063 
L 336.977774 291.721137 
L 337.994352 299.175843 
L 339.010931 293.906741 
L 340.02751 297.089518 
L 341.044088 286.834553 
L 342.060667 298.578707 
L 343.077245 306.788227 
L 344.093824 291.125462 
L 345.110403 289.585173 
L 346.126981 291.668578 
L 347.14356 293.311066 
L 348.160138 291.437899 
L 349.176717 292.72123 
L 350.193296 303.145554 
L 351.209874 288.6683 
L 352.226453 297.476415 
L 353.243032 295.53171 
L 354.25961 297.584455 
L 355.276189 290.483066 
L 356.292767 296.003286 
L 357.309346 303.64341 
L 358.325925 295.133132 
L 359.342503 292.921249 
L 360.359082 295.771148 
L 361.37566 294.608996 
L 362.392239 293.001548 
L 363.408818 294.235239 
L 364.425396 295.701068 
L 366.458553 292.632171 
L 367.475132 292.004375 
L 368.491711 292.861389 
L 369.508289 291.126922 
L 370.524868 290.894783 
L 371.541447 297.231137 
L 372.558025 297.289537 
L 373.574604 286.725054 
L 374.591182 296.384343 
L 375.607761 303.182054 
L 376.62434 291.499219 
L 377.640918 290.947343 
L 378.657497 302.3265 
L 379.674075 298.089611 
L 380.690654 294.665936 
L 381.707233 290.01879 
L 382.723811 291.237881 
L 383.74039 299.308702 
L 384.756968 295.265992 
L 385.773547 288.487261 
L 386.790126 301.196468 
L 387.806704 294.597316 
L 388.823283 289.93119 
L 389.839862 299.219643 
L 390.85644 296.749341 
L 391.873019 291.992695 
L 392.889597 289.458154 
L 393.906176 298.590387 
L 394.922755 292.616111 
L 395.939333 282.710083 
L 396.955912 293.005928 
L 397.97249 282.756803 
L 398.989069 292.884749 
L 400.005648 290.824704 
L 401.022226 290.626145 
L 402.038805 289.379315 
L 403.055383 298.047271 
L 404.071962 293.473125 
L 405.088541 290.158949 
L 406.105119 290.123909 
L 407.121698 302.233061 
L 408.138277 292.462812 
L 409.154855 296.88366 
L 410.171434 295.333151 
L 411.188012 294.274659 
L 412.204591 288.716479 
L 413.22117 294.836755 
L 414.237748 282.612264 
L 415.254327 299.304322 
L 416.270905 287.015592 
L 417.287484 293.071628 
L 418.304063 298.410809 
L 419.320641 291.128382 
L 420.33722 289.99251 
L 421.353799 295.010493 
L 422.370377 290.956103 
L 423.386956 288.240523 
L 424.403534 299.920438 
L 425.420113 287.329489 
L 426.436692 294.760835 
L 427.45327 284.422651 
L 428.469849 296.977099 
L 429.486427 294.378318 
L 430.503006 295.838307 
L 431.519585 292.465732 
L 432.536163 293.706723 
L 433.552742 295.166712 
L 434.56932 293.254126 
L 435.585899 288.271183 
L 436.602478 293.375305 
L 437.619056 288.493101 
L 438.635635 288.282863 
L 439.652214 290.414447 
L 440.668792 295.949267 
L 441.685371 287.758726 
L 442.701949 295.715668 
L 443.718528 299.075104 
L 444.735107 285.469463 
L 445.751685 298.498408 
L 446.768264 287.30175 
L 447.784842 289.694672 
L 448.801421 297.807833 
L 449.818 290.151649 
L 450.834578 284.900067 
L 451.851157 298.23999 
L 452.867735 298.139251 
L 453.884314 288.63764 
L 454.900893 291.833557 
L 455.917471 288.792399 
L 456.93405 294.492197 
L 457.950629 282.216607 
L 458.967207 287.709087 
L 459.983786 304.922361 
L 461.000364 292.68765 
L 462.016943 298.066251 
L 463.033522 287.414169 
L 464.0501 290.595486 
L 465.066679 295.44995 
L 466.083257 291.694858 
L 467.099836 298.572867 
L 468.116415 289.649413 
L 469.132993 289.458154 
L 470.149572 289.621673 
L 471.16615 302.110422 
L 472.182729 296.201845 
L 473.199308 291.928456 
L 474.215886 296.939139 
L 475.232465 297.902732 
L 476.249044 302.409719 
L 477.265622 292.319733 
L 478.282201 289.93411 
L 479.298779 295.385711 
L 480.315358 293.376765 
L 481.331937 290.637825 
L 482.348515 293.032208 
L 483.365094 296.734741 
L 484.381672 299.127663 
L 485.398251 298.559727 
L 487.431408 287.615647 
L 488.447987 298.666307 
L 489.464565 292.576691 
L 490.481144 298.367009 
L 491.497723 297.891052 
L 492.514301 291.957656 
L 493.53088 299.494121 
L 494.547459 297.457436 
L 495.564037 292.76795 
L 496.580616 295.45579 
L 497.597194 296.88366 
L 498.613773 292.69057 
L 499.630352 292.068615 
L 500.64693 303.017075 
L 501.663509 301.294288 
L 502.680087 290.272828 
L 503.696666 280.531779 
L 504.713245 287.863846 
L 506.746402 295.920067 
L 507.762981 293.324206 
L 509.796138 299.663479 
L 510.812716 291.140062 
L 511.829295 291.978096 
L 512.845874 297.234057 
L 513.862452 290.00711 
L 514.879031 298.767046 
L 515.895609 290.928363 
L 516.912188 302.008222 
L 517.928767 299.161243 
L 518.945345 299.209423 
L 519.961924 290.865584 
L 520.978502 284.272272 
L 521.995081 300.399314 
L 523.01166 292.067155 
L 524.028238 292.329953 
L 525.044817 297.096818 
L 526.061396 303.082774 
L 527.077974 299.891238 
L 528.094553 289.100457 
L 529.111131 283.918954 
L 530.12771 287.710547 
L 531.144289 296.942059 
L 532.160867 286.479776 
L 533.177446 291.163421 
L 534.194024 300.704452 
L 535.210603 290.252388 
L 536.227182 291.560539 
L 537.24376 294.13596 
L 538.260339 292.66721 
L 539.276917 298.895525 
L 540.293496 293.708183 
L 541.310075 305.01872 
L 542.326653 288.60844 
L 543.343232 298.134871 
L 544.359811 287.757266 
L 545.376389 292.436532 
L 546.392968 297.657454 
L 547.409546 290.455327 
L 548.426125 289.265435 
L 549.442704 299.845978 
L 550.459282 295.076193 
L 551.475861 307.140085 
L 552.492439 290.231948 
L 553.509018 277.483321 
L 554.525597 297.984492 
L 555.542175 286.961572 
L 556.558754 288.135404 
L 557.575332 288.142704 
L 558.591911 297.315817 
L 559.60849 295.45433 
L 560.625068 289.672772 
L 561.641647 281.658891 
L 562.658226 297.692494 
L 563.674804 286.478316 
L 565.707961 296.81358 
L 566.72454 293.276026 
L 567.741119 298.315909 
L 568.757697 295.53609 
L 569.774276 299.053204 
L 570.790854 295.635369 
L 571.807433 288.456601 
L 572.824012 293.422025 
L 573.84059 286.617015 
L 574.857169 301.708924 
L 575.873747 288.154383 
L 576.890326 292.73729 
L 577.906905 289.455234 
L 578.923483 282.972881 
L 579.940062 292.016055 
L 580.956641 303.67845 
L 581.973219 281.509972 
L 582.989798 289.852351 
L 584.006376 293.315446 
L 585.022955 286.812653 
L 586.039534 292.581071 
L 587.056112 307.8 
L 588.072691 294.246919 
L 589.089269 293.589924 
L 590.105848 297.095358 
L 591.122427 294.375398 
L 592.139005 296.255864 
L 593.155584 301.434446 
L 594.172163 300.597873 
L 595.188741 301.949823 
L 596.20532 280.093782 
L 597.221898 299.292642 
L 598.238477 289.012857 
L 599.255056 294.991514 
L 600.271634 289.579333 
L 601.288213 295.600329 
L 602.304791 293.368005 
L 603.32137 294.413358 
L 604.337949 290.745865 
L 605.354527 284.421191 
L 606.371106 288.814299 
L 607.387684 289.230396 
L 608.404263 302.783477 
L 609.420842 292.620491 
L 610.43742 296.033946 
L 611.453999 293.770962 
L 612.470578 294.719956 
L 613.487156 297.318737 
L 614.503735 292.084675 
L 615.520313 300.581813 
L 617.553471 289.322375 
L 618.570049 294.0834 
L 619.586628 289.322375 
L 620.603206 300.177396 
L 621.619785 287.079831 
L 622.636364 291.948896 
L 622.636364 291.948896 
" clip-path="url(#pc1fb8bbe5c)" style="fill: none; stroke: #ff7f0e; stroke-width: 1.5; stroke-linecap: square"/>
   </g>
   <g id="patch_3">
    <path d="M 90 320.4 
L 90 43.2 
" style="fill: none; stroke: #000000; stroke-width: 0.8; stroke-linejoin: miter; stroke-linecap: square"/>
   </g>
   <g id="patch_4">
    <path d="M 648 320.4 
L 648 43.2 
" style="fill: none; stroke: #000000; stroke-width: 0.8; stroke-linejoin: miter; stroke-linecap: square"/>
   </g>
   <g id="patch_5">
    <path d="M 90 320.4 
L 648 320.4 
" style="fill: none; stroke: #000000; stroke-width: 0.8; stroke-linejoin: miter; stroke-linecap: square"/>
   </g>
   <g id="patch_6">
    <path d="M 90 43.2 
L 648 43.2 
" style="fill: none; stroke: #000000; stroke-width: 0.8; stroke-linejoin: miter; stroke-linecap: square"/>
   </g>
   <g id="text_13">
    <!-- model train and validation loss over time -->
    <g transform="translate(245.555625 37.2) scale(0.12 -0.12)">
     <defs>
      <path id="DejaVuSans-6d" d="M 3328 2828 
Q 3544 3216 3844 3400 
Q 4144 3584 4550 3584 
Q 5097 3584 5394 3201 
Q 5691 2819 5691 2113 
L 5691 0 
L 5113 0 
L 5113 2094 
Q 5113 2597 4934 2840 
Q 4756 3084 4391 3084 
Q 3944 3084 3684 2787 
Q 3425 2491 3425 1978 
L 3425 0 
L 2847 0 
L 2847 2094 
Q 2847 2600 2669 2842 
Q 2491 3084 2119 3084 
Q 1678 3084 1418 2786 
Q 1159 2488 1159 1978 
L 1159 0 
L 581 0 
L 581 3500 
L 1159 3500 
L 1159 2956 
Q 1356 3278 1631 3431 
Q 1906 3584 2284 3584 
Q 2666 3584 2933 3390 
Q 3200 3197 3328 2828 
z
" transform="scale(0.015625)"/>
      <path id="DejaVuSans-64" d="M 2906 2969 
L 2906 4863 
L 3481 4863 
L 3481 0 
L 2906 0 
L 2906 525 
Q 2725 213 2448 61 
Q 2172 -91 1784 -91 
Q 1150 -91 751 415 
Q 353 922 353 1747 
Q 353 2572 751 3078 
Q 1150 3584 1784 3584 
Q 2172 3584 2448 3432 
Q 2725 3281 2906 2969 
z
M 947 1747 
Q 947 1113 1208 752 
Q 1469 391 1925 391 
Q 2381 391 2643 752 
Q 2906 1113 2906 1747 
Q 2906 2381 2643 2742 
Q 2381 3103 1925 3103 
Q 1469 3103 1208 2742 
Q 947 2381 947 1747 
z
" transform="scale(0.015625)"/>
      <path id="DejaVuSans-20" transform="scale(0.015625)"/>
      <path id="DejaVuSans-74" d="M 1172 4494 
L 1172 3500 
L 2356 3500 
L 2356 3053 
L 1172 3053 
L 1172 1153 
Q 1172 725 1289 603 
Q 1406 481 1766 481 
L 2356 481 
L 2356 0 
L 1766 0 
Q 1100 0 847 248 
Q 594 497 594 1153 
L 594 3053 
L 172 3053 
L 172 3500 
L 594 3500 
L 594 4494 
L 1172 4494 
z
" transform="scale(0.015625)"/>
      <path id="DejaVuSans-72" d="M 2631 2963 
Q 2534 3019 2420 3045 
Q 2306 3072 2169 3072 
Q 1681 3072 1420 2755 
Q 1159 2438 1159 1844 
L 1159 0 
L 581 0 
L 581 3500 
L 1159 3500 
L 1159 2956 
Q 1341 3275 1631 3429 
Q 1922 3584 2338 3584 
Q 2397 3584 2469 3576 
Q 2541 3569 2628 3553 
L 2631 2963 
z
" transform="scale(0.015625)"/>
      <path id="DejaVuSans-61" d="M 2194 1759 
Q 1497 1759 1228 1600 
Q 959 1441 959 1056 
Q 959 750 1161 570 
Q 1363 391 1709 391 
Q 2188 391 2477 730 
Q 2766 1069 2766 1631 
L 2766 1759 
L 2194 1759 
z
M 3341 1997 
L 3341 0 
L 2766 0 
L 2766 531 
Q 2569 213 2275 61 
Q 1981 -91 1556 -91 
Q 1019 -91 701 211 
Q 384 513 384 1019 
Q 384 1609 779 1909 
Q 1175 2209 1959 2209 
L 2766 2209 
L 2766 2266 
Q 2766 2663 2505 2880 
Q 2244 3097 1772 3097 
Q 1472 3097 1187 3025 
Q 903 2953 641 2809 
L 641 3341 
Q 956 3463 1253 3523 
Q 1550 3584 1831 3584 
Q 2591 3584 2966 3190 
Q 3341 2797 3341 1997 
z
" transform="scale(0.015625)"/>
      <path id="DejaVuSans-69" d="M 603 3500 
L 1178 3500 
L 1178 0 
L 603 0 
L 603 3500 
z
M 603 4863 
L 1178 4863 
L 1178 4134 
L 603 4134 
L 603 4863 
z
" transform="scale(0.015625)"/>
      <path id="DejaVuSans-6e" d="M 3513 2113 
L 3513 0 
L 2938 0 
L 2938 2094 
Q 2938 2591 2744 2837 
Q 2550 3084 2163 3084 
Q 1697 3084 1428 2787 
Q 1159 2491 1159 1978 
L 1159 0 
L 581 0 
L 581 3500 
L 1159 3500 
L 1159 2956 
Q 1366 3272 1645 3428 
Q 1925 3584 2291 3584 
Q 2894 3584 3203 3211 
Q 3513 2838 3513 2113 
z
" transform="scale(0.015625)"/>
      <path id="DejaVuSans-76" d="M 191 3500 
L 800 3500 
L 1894 563 
L 2988 3500 
L 3597 3500 
L 2284 0 
L 1503 0 
L 191 3500 
z
" transform="scale(0.015625)"/>
     </defs>
     <use xlink:href="#DejaVuSans-6d"/>
     <use xlink:href="#DejaVuSans-6f" x="97.412109"/>
     <use xlink:href="#DejaVuSans-64" x="158.59375"/>
     <use xlink:href="#DejaVuSans-65" x="222.070312"/>
     <use xlink:href="#DejaVuSans-6c" x="283.59375"/>
     <use xlink:href="#DejaVuSans-20" x="311.376953"/>
     <use xlink:href="#DejaVuSans-74" x="343.164062"/>
     <use xlink:href="#DejaVuSans-72" x="382.373047"/>
     <use xlink:href="#DejaVuSans-61" x="423.486328"/>
     <use xlink:href="#DejaVuSans-69" x="484.765625"/>
     <use xlink:href="#DejaVuSans-6e" x="512.548828"/>
     <use xlink:href="#DejaVuSans-20" x="575.927734"/>
     <use xlink:href="#DejaVuSans-61" x="607.714844"/>
     <use xlink:href="#DejaVuSans-6e" x="668.994141"/>
     <use xlink:href="#DejaVuSans-64" x="732.373047"/>
     <use xlink:href="#DejaVuSans-20" x="795.849609"/>
     <use xlink:href="#DejaVuSans-76" x="827.636719"/>
     <use xlink:href="#DejaVuSans-61" x="886.816406"/>
     <use xlink:href="#DejaVuSans-6c" x="948.095703"/>
     <use xlink:href="#DejaVuSans-69" x="975.878906"/>
     <use xlink:href="#DejaVuSans-64" x="1003.662109"/>
     <use xlink:href="#DejaVuSans-61" x="1067.138672"/>
     <use xlink:href="#DejaVuSans-74" x="1128.417969"/>
     <use xlink:href="#DejaVuSans-69" x="1167.626953"/>
     <use xlink:href="#DejaVuSans-6f" x="1195.410156"/>
     <use xlink:href="#DejaVuSans-6e" x="1256.591797"/>
     <use xlink:href="#DejaVuSans-20" x="1319.970703"/>
     <use xlink:href="#DejaVuSans-6c" x="1351.757812"/>
     <use xlink:href="#DejaVuSans-6f" x="1379.541016"/>
     <use xlink:href="#DejaVuSans-73" x="1440.722656"/>
     <use xlink:href="#DejaVuSans-73" x="1492.822266"/>
     <use xlink:href="#DejaVuSans-20" x="1544.921875"/>
     <use xlink:href="#DejaVuSans-6f" x="1576.708984"/>
     <use xlink:href="#DejaVuSans-76" x="1637.890625"/>
     <use xlink:href="#DejaVuSans-65" x="1697.070312"/>
     <use xlink:href="#DejaVuSans-72" x="1758.59375"/>
     <use xlink:href="#DejaVuSans-20" x="1799.707031"/>
     <use xlink:href="#DejaVuSans-74" x="1831.494141"/>
     <use xlink:href="#DejaVuSans-69" x="1870.703125"/>
     <use xlink:href="#DejaVuSans-6d" x="1898.486328"/>
     <use xlink:href="#DejaVuSans-65" x="1995.898438"/>
    </g>
   </g>
   <g id="legend_1">
    <g id="patch_7">
     <path d="M 97 80.55625 
L 178.234375 80.55625 
Q 180.234375 80.55625 180.234375 78.55625 
L 180.234375 50.2 
Q 180.234375 48.2 178.234375 48.2 
L 97 48.2 
Q 95 48.2 95 50.2 
L 95 78.55625 
Q 95 80.55625 97 80.55625 
z
" style="fill: #ffffff; opacity: 0.8; stroke: #cccccc; stroke-linejoin: miter"/>
    </g>
    <g id="line2d_23">
     <path d="M 99 56.298437 
L 109 56.298437 
L 119 56.298437 
" style="fill: none; stroke: #1f77b4; stroke-width: 1.5; stroke-linecap: square"/>
    </g>
    <g id="text_14">
     <!-- train -->
     <g transform="translate(127 59.798437) scale(0.1 -0.1)">
      <use xlink:href="#DejaVuSans-74"/>
      <use xlink:href="#DejaVuSans-72" x="39.208984"/>
      <use xlink:href="#DejaVuSans-61" x="80.322266"/>
      <use xlink:href="#DejaVuSans-69" x="141.601562"/>
      <use xlink:href="#DejaVuSans-6e" x="169.384766"/>
     </g>
    </g>
    <g id="line2d_24">
     <path d="M 99 70.976562 
L 109 70.976562 
L 119 70.976562 
" style="fill: none; stroke: #ff7f0e; stroke-width: 1.5; stroke-linecap: square"/>
    </g>
    <g id="text_15">
     <!-- validation -->
     <g transform="translate(127 74.476562) scale(0.1 -0.1)">
      <use xlink:href="#DejaVuSans-76"/>
      <use xlink:href="#DejaVuSans-61" x="59.179688"/>
      <use xlink:href="#DejaVuSans-6c" x="120.458984"/>
      <use xlink:href="#DejaVuSans-69" x="148.242188"/>
      <use xlink:href="#DejaVuSans-64" x="176.025391"/>
      <use xlink:href="#DejaVuSans-61" x="239.501953"/>
      <use xlink:href="#DejaVuSans-74" x="300.78125"/>
      <use xlink:href="#DejaVuSans-69" x="339.990234"/>
      <use xlink:href="#DejaVuSans-6f" x="367.773438"/>
      <use xlink:href="#DejaVuSans-6e" x="428.955078"/>
     </g>
    </g>
   </g>
  </g>
 </g>
 <defs>
  <clipPath id="pc1fb8bbe5c">
   <rect x="90" y="43.2" width="558" height="277.2"/>
  </clipPath>
 </defs>
</svg>
