<?xml version="1.0" encoding="utf-8" standalone="no"?>
<!DOCTYPE svg PUBLIC "-//W3C//DTD SVG 1.1//EN"
  "http://www.w3.org/Graphics/SVG/1.1/DTD/svg11.dtd">
<svg xmlns:xlink="http://www.w3.org/1999/xlink" width="720pt" height="360pt" viewBox="0 0 720 360" xmlns="http://www.w3.org/2000/svg" version="1.1">
 <metadata>
  <rdf:RDF xmlns:dc="http://purl.org/dc/elements/1.1/" xmlns:cc="http://creativecommons.org/ns#" xmlns:rdf="http://www.w3.org/1999/02/22-rdf-syntax-ns#">
   <cc:Work>
    <dc:type rdf:resource="http://purl.org/dc/dcmitype/StillImage"/>
    <dc:date>2023-05-24T11:45:09.251433</dc:date>
    <dc:format>image/svg+xml</dc:format>
    <dc:creator>
     <cc:Agent>
      <dc:title>Matplotlib v3.7.1, https://matplotlib.org/</dc:title>
     </cc:Agent>
    </dc:creator>
   </cc:Work>
  </rdf:RDF>
 </metadata>
 <defs>
  <style type="text/css">*{stroke-linejoin: round; stroke-linecap: butt}</style>
 </defs>
 <g id="figure_1">
  <g id="patch_1">
   <path d="M 0 360 
L 720 360 
L 720 0 
L 0 0 
z
" style="fill: #ffffff"/>
  </g>
  <g id="axes_1">
   <g id="patch_2">
    <path d="M 90 320.4 
L 648 320.4 
L 648 43.2 
L 90 43.2 
z
" style="fill: #ffffff"/>
   </g>
   <g id="matplotlib.axis_1">
    <g id="xtick_1">
     <g id="line2d_1">
      <path d="M 115.363636 320.4 
L 115.363636 43.2 
" clip-path="url(#p9a8284c3b1)" style="fill: none; stroke: #b0b0b0; stroke-width: 0.8; stroke-linecap: square"/>
     </g>
     <g id="line2d_2">
      <defs>
       <path id="mf0d2601d89" d="M 0 0 
L 0 3.5 
" style="stroke: #000000; stroke-width: 0.8"/>
      </defs>
      <g>
       <use xlink:href="#mf0d2601d89" x="115.363636" y="320.4" style="stroke: #000000; stroke-width: 0.8"/>
      </g>
     </g>
     <g id="text_1">
      <!-- 0 -->
      <g transform="translate(112.182386 334.998438) scale(0.1 -0.1)">
       <defs>
        <path id="DejaVuSans-30" d="M 2034 4250 
Q 1547 4250 1301 3770 
Q 1056 3291 1056 2328 
Q 1056 1369 1301 889 
Q 1547 409 2034 409 
Q 2525 409 2770 889 
Q 3016 1369 3016 2328 
Q 3016 3291 2770 3770 
Q 2525 4250 2034 4250 
z
M 2034 4750 
Q 2819 4750 3233 4129 
Q 3647 3509 3647 2328 
Q 3647 1150 3233 529 
Q 2819 -91 2034 -91 
Q 1250 -91 836 529 
Q 422 1150 422 2328 
Q 422 3509 836 4129 
Q 1250 4750 2034 4750 
z
" transform="scale(0.015625)"/>
       </defs>
       <use xlink:href="#DejaVuSans-30"/>
      </g>
     </g>
    </g>
    <g id="xtick_2">
     <g id="line2d_3">
      <path d="M 217.021498 320.4 
L 217.021498 43.2 
" clip-path="url(#p9a8284c3b1)" style="fill: none; stroke: #b0b0b0; stroke-width: 0.8; stroke-linecap: square"/>
     </g>
     <g id="line2d_4">
      <g>
       <use xlink:href="#mf0d2601d89" x="217.021498" y="320.4" style="stroke: #000000; stroke-width: 0.8"/>
      </g>
     </g>
     <g id="text_2">
      <!-- 100 -->
      <g transform="translate(207.477748 334.998438) scale(0.1 -0.1)">
       <defs>
        <path id="DejaVuSans-31" d="M 794 531 
L 1825 531 
L 1825 4091 
L 703 3866 
L 703 4441 
L 1819 4666 
L 2450 4666 
L 2450 531 
L 3481 531 
L 3481 0 
L 794 0 
L 794 531 
z
" transform="scale(0.015625)"/>
       </defs>
       <use xlink:href="#DejaVuSans-31"/>
       <use xlink:href="#DejaVuSans-30" x="63.623047"/>
       <use xlink:href="#DejaVuSans-30" x="127.246094"/>
      </g>
     </g>
    </g>
    <g id="xtick_3">
     <g id="line2d_5">
      <path d="M 318.679359 320.4 
L 318.679359 43.2 
" clip-path="url(#p9a8284c3b1)" style="fill: none; stroke: #b0b0b0; stroke-width: 0.8; stroke-linecap: square"/>
     </g>
     <g id="line2d_6">
      <g>
       <use xlink:href="#mf0d2601d89" x="318.679359" y="320.4" style="stroke: #000000; stroke-width: 0.8"/>
      </g>
     </g>
     <g id="text_3">
      <!-- 200 -->
      <g transform="translate(309.135609 334.998438) scale(0.1 -0.1)">
       <defs>
        <path id="DejaVuSans-32" d="M 1228 531 
L 3431 531 
L 3431 0 
L 469 0 
L 469 531 
Q 828 903 1448 1529 
Q 2069 2156 2228 2338 
Q 2531 2678 2651 2914 
Q 2772 3150 2772 3378 
Q 2772 3750 2511 3984 
Q 2250 4219 1831 4219 
Q 1534 4219 1204 4116 
Q 875 4013 500 3803 
L 500 4441 
Q 881 4594 1212 4672 
Q 1544 4750 1819 4750 
Q 2544 4750 2975 4387 
Q 3406 4025 3406 3419 
Q 3406 3131 3298 2873 
Q 3191 2616 2906 2266 
Q 2828 2175 2409 1742 
Q 1991 1309 1228 531 
z
" transform="scale(0.015625)"/>
       </defs>
       <use xlink:href="#DejaVuSans-32"/>
       <use xlink:href="#DejaVuSans-30" x="63.623047"/>
       <use xlink:href="#DejaVuSans-30" x="127.246094"/>
      </g>
     </g>
    </g>
    <g id="xtick_4">
     <g id="line2d_7">
      <path d="M 420.33722 320.4 
L 420.33722 43.2 
" clip-path="url(#p9a8284c3b1)" style="fill: none; stroke: #b0b0b0; stroke-width: 0.8; stroke-linecap: square"/>
     </g>
     <g id="line2d_8">
      <g>
       <use xlink:href="#mf0d2601d89" x="420.33722" y="320.4" style="stroke: #000000; stroke-width: 0.8"/>
      </g>
     </g>
     <g id="text_4">
      <!-- 300 -->
      <g transform="translate(410.79347 334.998438) scale(0.1 -0.1)">
       <defs>
        <path id="DejaVuSans-33" d="M 2597 2516 
Q 3050 2419 3304 2112 
Q 3559 1806 3559 1356 
Q 3559 666 3084 287 
Q 2609 -91 1734 -91 
Q 1441 -91 1130 -33 
Q 819 25 488 141 
L 488 750 
Q 750 597 1062 519 
Q 1375 441 1716 441 
Q 2309 441 2620 675 
Q 2931 909 2931 1356 
Q 2931 1769 2642 2001 
Q 2353 2234 1838 2234 
L 1294 2234 
L 1294 2753 
L 1863 2753 
Q 2328 2753 2575 2939 
Q 2822 3125 2822 3475 
Q 2822 3834 2567 4026 
Q 2313 4219 1838 4219 
Q 1578 4219 1281 4162 
Q 984 4106 628 3988 
L 628 4550 
Q 988 4650 1302 4700 
Q 1616 4750 1894 4750 
Q 2613 4750 3031 4423 
Q 3450 4097 3450 3541 
Q 3450 3153 3228 2886 
Q 3006 2619 2597 2516 
z
" transform="scale(0.015625)"/>
       </defs>
       <use xlink:href="#DejaVuSans-33"/>
       <use xlink:href="#DejaVuSans-30" x="63.623047"/>
       <use xlink:href="#DejaVuSans-30" x="127.246094"/>
      </g>
     </g>
    </g>
    <g id="xtick_5">
     <g id="line2d_9">
      <path d="M 521.995081 320.4 
L 521.995081 43.2 
" clip-path="url(#p9a8284c3b1)" style="fill: none; stroke: #b0b0b0; stroke-width: 0.8; stroke-linecap: square"/>
     </g>
     <g id="line2d_10">
      <g>
       <use xlink:href="#mf0d2601d89" x="521.995081" y="320.4" style="stroke: #000000; stroke-width: 0.8"/>
      </g>
     </g>
     <g id="text_5">
      <!-- 400 -->
      <g transform="translate(512.451331 334.998438) scale(0.1 -0.1)">
       <defs>
        <path id="DejaVuSans-34" d="M 2419 4116 
L 825 1625 
L 2419 1625 
L 2419 4116 
z
M 2253 4666 
L 3047 4666 
L 3047 1625 
L 3713 1625 
L 3713 1100 
L 3047 1100 
L 3047 0 
L 2419 0 
L 2419 1100 
L 313 1100 
L 313 1709 
L 2253 4666 
z
" transform="scale(0.015625)"/>
       </defs>
       <use xlink:href="#DejaVuSans-34"/>
       <use xlink:href="#DejaVuSans-30" x="63.623047"/>
       <use xlink:href="#DejaVuSans-30" x="127.246094"/>
      </g>
     </g>
    </g>
    <g id="xtick_6">
     <g id="line2d_11">
      <path d="M 623.652942 320.4 
L 623.652942 43.2 
" clip-path="url(#p9a8284c3b1)" style="fill: none; stroke: #b0b0b0; stroke-width: 0.8; stroke-linecap: square"/>
     </g>
     <g id="line2d_12">
      <g>
       <use xlink:href="#mf0d2601d89" x="623.652942" y="320.4" style="stroke: #000000; stroke-width: 0.8"/>
      </g>
     </g>
     <g id="text_6">
      <!-- 500 -->
      <g transform="translate(614.109192 334.998438) scale(0.1 -0.1)">
       <defs>
        <path id="DejaVuSans-35" d="M 691 4666 
L 3169 4666 
L 3169 4134 
L 1269 4134 
L 1269 2991 
Q 1406 3038 1543 3061 
Q 1681 3084 1819 3084 
Q 2600 3084 3056 2656 
Q 3513 2228 3513 1497 
Q 3513 744 3044 326 
Q 2575 -91 1722 -91 
Q 1428 -91 1123 -41 
Q 819 9 494 109 
L 494 744 
Q 775 591 1075 516 
Q 1375 441 1709 441 
Q 2250 441 2565 725 
Q 2881 1009 2881 1497 
Q 2881 1984 2565 2268 
Q 2250 2553 1709 2553 
Q 1456 2553 1204 2497 
Q 953 2441 691 2322 
L 691 4666 
z
" transform="scale(0.015625)"/>
       </defs>
       <use xlink:href="#DejaVuSans-35"/>
       <use xlink:href="#DejaVuSans-30" x="63.623047"/>
       <use xlink:href="#DejaVuSans-30" x="127.246094"/>
      </g>
     </g>
    </g>
    <g id="text_7">
     <!-- epoch -->
     <g transform="translate(353.771875 348.676562) scale(0.1 -0.1)">
      <defs>
       <path id="DejaVuSans-65" d="M 3597 1894 
L 3597 1613 
L 953 1613 
Q 991 1019 1311 708 
Q 1631 397 2203 397 
Q 2534 397 2845 478 
Q 3156 559 3463 722 
L 3463 178 
Q 3153 47 2828 -22 
Q 2503 -91 2169 -91 
Q 1331 -91 842 396 
Q 353 884 353 1716 
Q 353 2575 817 3079 
Q 1281 3584 2069 3584 
Q 2775 3584 3186 3129 
Q 3597 2675 3597 1894 
z
M 3022 2063 
Q 3016 2534 2758 2815 
Q 2500 3097 2075 3097 
Q 1594 3097 1305 2825 
Q 1016 2553 972 2059 
L 3022 2063 
z
" transform="scale(0.015625)"/>
       <path id="DejaVuSans-70" d="M 1159 525 
L 1159 -1331 
L 581 -1331 
L 581 3500 
L 1159 3500 
L 1159 2969 
Q 1341 3281 1617 3432 
Q 1894 3584 2278 3584 
Q 2916 3584 3314 3078 
Q 3713 2572 3713 1747 
Q 3713 922 3314 415 
Q 2916 -91 2278 -91 
Q 1894 -91 1617 61 
Q 1341 213 1159 525 
z
M 3116 1747 
Q 3116 2381 2855 2742 
Q 2594 3103 2138 3103 
Q 1681 3103 1420 2742 
Q 1159 2381 1159 1747 
Q 1159 1113 1420 752 
Q 1681 391 2138 391 
Q 2594 391 2855 752 
Q 3116 1113 3116 1747 
z
" transform="scale(0.015625)"/>
       <path id="DejaVuSans-6f" d="M 1959 3097 
Q 1497 3097 1228 2736 
Q 959 2375 959 1747 
Q 959 1119 1226 758 
Q 1494 397 1959 397 
Q 2419 397 2687 759 
Q 2956 1122 2956 1747 
Q 2956 2369 2687 2733 
Q 2419 3097 1959 3097 
z
M 1959 3584 
Q 2709 3584 3137 3096 
Q 3566 2609 3566 1747 
Q 3566 888 3137 398 
Q 2709 -91 1959 -91 
Q 1206 -91 779 398 
Q 353 888 353 1747 
Q 353 2609 779 3096 
Q 1206 3584 1959 3584 
z
" transform="scale(0.015625)"/>
       <path id="DejaVuSans-63" d="M 3122 3366 
L 3122 2828 
Q 2878 2963 2633 3030 
Q 2388 3097 2138 3097 
Q 1578 3097 1268 2742 
Q 959 2388 959 1747 
Q 959 1106 1268 751 
Q 1578 397 2138 397 
Q 2388 397 2633 464 
Q 2878 531 3122 666 
L 3122 134 
Q 2881 22 2623 -34 
Q 2366 -91 2075 -91 
Q 1284 -91 818 406 
Q 353 903 353 1747 
Q 353 2603 823 3093 
Q 1294 3584 2113 3584 
Q 2378 3584 2631 3529 
Q 2884 3475 3122 3366 
z
" transform="scale(0.015625)"/>
       <path id="DejaVuSans-68" d="M 3513 2113 
L 3513 0 
L 2938 0 
L 2938 2094 
Q 2938 2591 2744 2837 
Q 2550 3084 2163 3084 
Q 1697 3084 1428 2787 
Q 1159 2491 1159 1978 
L 1159 0 
L 581 0 
L 581 4863 
L 1159 4863 
L 1159 2956 
Q 1366 3272 1645 3428 
Q 1925 3584 2291 3584 
Q 2894 3584 3203 3211 
Q 3513 2838 3513 2113 
z
" transform="scale(0.015625)"/>
      </defs>
      <use xlink:href="#DejaVuSans-65"/>
      <use xlink:href="#DejaVuSans-70" x="61.523438"/>
      <use xlink:href="#DejaVuSans-6f" x="125"/>
      <use xlink:href="#DejaVuSans-63" x="186.181641"/>
      <use xlink:href="#DejaVuSans-68" x="241.162109"/>
     </g>
    </g>
   </g>
   <g id="matplotlib.axis_2">
    <g id="ytick_1">
     <g id="line2d_13">
      <path d="M 90 298.931028 
L 648 298.931028 
" clip-path="url(#p9a8284c3b1)" style="fill: none; stroke: #b0b0b0; stroke-width: 0.8; stroke-linecap: square"/>
     </g>
     <g id="line2d_14">
      <defs>
       <path id="m1a850e79ce" d="M 0 0 
L -3.5 0 
" style="stroke: #000000; stroke-width: 0.8"/>
      </defs>
      <g>
       <use xlink:href="#m1a850e79ce" x="90" y="298.931028" style="stroke: #000000; stroke-width: 0.8"/>
      </g>
     </g>
     <g id="text_8">
      <!-- 1.380 -->
      <g transform="translate(54.371875 302.730247) scale(0.1 -0.1)">
       <defs>
        <path id="DejaVuSans-2e" d="M 684 794 
L 1344 794 
L 1344 0 
L 684 0 
L 684 794 
z
" transform="scale(0.015625)"/>
        <path id="DejaVuSans-38" d="M 2034 2216 
Q 1584 2216 1326 1975 
Q 1069 1734 1069 1313 
Q 1069 891 1326 650 
Q 1584 409 2034 409 
Q 2484 409 2743 651 
Q 3003 894 3003 1313 
Q 3003 1734 2745 1975 
Q 2488 2216 2034 2216 
z
M 1403 2484 
Q 997 2584 770 2862 
Q 544 3141 544 3541 
Q 544 4100 942 4425 
Q 1341 4750 2034 4750 
Q 2731 4750 3128 4425 
Q 3525 4100 3525 3541 
Q 3525 3141 3298 2862 
Q 3072 2584 2669 2484 
Q 3125 2378 3379 2068 
Q 3634 1759 3634 1313 
Q 3634 634 3220 271 
Q 2806 -91 2034 -91 
Q 1263 -91 848 271 
Q 434 634 434 1313 
Q 434 1759 690 2068 
Q 947 2378 1403 2484 
z
M 1172 3481 
Q 1172 3119 1398 2916 
Q 1625 2713 2034 2713 
Q 2441 2713 2670 2916 
Q 2900 3119 2900 3481 
Q 2900 3844 2670 4047 
Q 2441 4250 2034 4250 
Q 1625 4250 1398 4047 
Q 1172 3844 1172 3481 
z
" transform="scale(0.015625)"/>
       </defs>
       <use xlink:href="#DejaVuSans-31"/>
       <use xlink:href="#DejaVuSans-2e" x="63.623047"/>
       <use xlink:href="#DejaVuSans-33" x="95.410156"/>
       <use xlink:href="#DejaVuSans-38" x="159.033203"/>
       <use xlink:href="#DejaVuSans-30" x="222.65625"/>
      </g>
     </g>
    </g>
    <g id="ytick_2">
     <g id="line2d_15">
      <path d="M 90 239.029379 
L 648 239.029379 
" clip-path="url(#p9a8284c3b1)" style="fill: none; stroke: #b0b0b0; stroke-width: 0.8; stroke-linecap: square"/>
     </g>
     <g id="line2d_16">
      <g>
       <use xlink:href="#m1a850e79ce" x="90" y="239.029379" style="stroke: #000000; stroke-width: 0.8"/>
      </g>
     </g>
     <g id="text_9">
      <!-- 1.385 -->
      <g transform="translate(54.371875 242.828597) scale(0.1 -0.1)">
       <use xlink:href="#DejaVuSans-31"/>
       <use xlink:href="#DejaVuSans-2e" x="63.623047"/>
       <use xlink:href="#DejaVuSans-33" x="95.410156"/>
       <use xlink:href="#DejaVuSans-38" x="159.033203"/>
       <use xlink:href="#DejaVuSans-35" x="222.65625"/>
      </g>
     </g>
    </g>
    <g id="ytick_3">
     <g id="line2d_17">
      <path d="M 90 179.127729 
L 648 179.127729 
" clip-path="url(#p9a8284c3b1)" style="fill: none; stroke: #b0b0b0; stroke-width: 0.8; stroke-linecap: square"/>
     </g>
     <g id="line2d_18">
      <g>
       <use xlink:href="#m1a850e79ce" x="90" y="179.127729" style="stroke: #000000; stroke-width: 0.8"/>
      </g>
     </g>
     <g id="text_10">
      <!-- 1.390 -->
      <g transform="translate(54.371875 182.926948) scale(0.1 -0.1)">
       <defs>
        <path id="DejaVuSans-39" d="M 703 97 
L 703 672 
Q 941 559 1184 500 
Q 1428 441 1663 441 
Q 2288 441 2617 861 
Q 2947 1281 2994 2138 
Q 2813 1869 2534 1725 
Q 2256 1581 1919 1581 
Q 1219 1581 811 2004 
Q 403 2428 403 3163 
Q 403 3881 828 4315 
Q 1253 4750 1959 4750 
Q 2769 4750 3195 4129 
Q 3622 3509 3622 2328 
Q 3622 1225 3098 567 
Q 2575 -91 1691 -91 
Q 1453 -91 1209 -44 
Q 966 3 703 97 
z
M 1959 2075 
Q 2384 2075 2632 2365 
Q 2881 2656 2881 3163 
Q 2881 3666 2632 3958 
Q 2384 4250 1959 4250 
Q 1534 4250 1286 3958 
Q 1038 3666 1038 3163 
Q 1038 2656 1286 2365 
Q 1534 2075 1959 2075 
z
" transform="scale(0.015625)"/>
       </defs>
       <use xlink:href="#DejaVuSans-31"/>
       <use xlink:href="#DejaVuSans-2e" x="63.623047"/>
       <use xlink:href="#DejaVuSans-33" x="95.410156"/>
       <use xlink:href="#DejaVuSans-39" x="159.033203"/>
       <use xlink:href="#DejaVuSans-30" x="222.65625"/>
      </g>
     </g>
    </g>
    <g id="ytick_4">
     <g id="line2d_19">
      <path d="M 90 119.226079 
L 648 119.226079 
" clip-path="url(#p9a8284c3b1)" style="fill: none; stroke: #b0b0b0; stroke-width: 0.8; stroke-linecap: square"/>
     </g>
     <g id="line2d_20">
      <g>
       <use xlink:href="#m1a850e79ce" x="90" y="119.226079" style="stroke: #000000; stroke-width: 0.8"/>
      </g>
     </g>
     <g id="text_11">
      <!-- 1.395 -->
      <g transform="translate(54.371875 123.025298) scale(0.1 -0.1)">
       <use xlink:href="#DejaVuSans-31"/>
       <use xlink:href="#DejaVuSans-2e" x="63.623047"/>
       <use xlink:href="#DejaVuSans-33" x="95.410156"/>
       <use xlink:href="#DejaVuSans-39" x="159.033203"/>
       <use xlink:href="#DejaVuSans-35" x="222.65625"/>
      </g>
     </g>
    </g>
    <g id="ytick_5">
     <g id="line2d_21">
      <path d="M 90 59.32443 
L 648 59.32443 
" clip-path="url(#p9a8284c3b1)" style="fill: none; stroke: #b0b0b0; stroke-width: 0.8; stroke-linecap: square"/>
     </g>
     <g id="line2d_22">
      <g>
       <use xlink:href="#m1a850e79ce" x="90" y="59.32443" style="stroke: #000000; stroke-width: 0.8"/>
      </g>
     </g>
     <g id="text_12">
      <!-- 1.400 -->
      <g transform="translate(54.371875 63.123648) scale(0.1 -0.1)">
       <use xlink:href="#DejaVuSans-31"/>
       <use xlink:href="#DejaVuSans-2e" x="63.623047"/>
       <use xlink:href="#DejaVuSans-34" x="95.410156"/>
       <use xlink:href="#DejaVuSans-30" x="159.033203"/>
       <use xlink:href="#DejaVuSans-30" x="222.65625"/>
      </g>
     </g>
    </g>
    <g id="text_13">
     <!-- loss -->
     <g transform="translate(48.292188 191.457812) rotate(-90) scale(0.1 -0.1)">
      <defs>
       <path id="DejaVuSans-6c" d="M 603 4863 
L 1178 4863 
L 1178 0 
L 603 0 
L 603 4863 
z
" transform="scale(0.015625)"/>
       <path id="DejaVuSans-73" d="M 2834 3397 
L 2834 2853 
Q 2591 2978 2328 3040 
Q 2066 3103 1784 3103 
Q 1356 3103 1142 2972 
Q 928 2841 928 2578 
Q 928 2378 1081 2264 
Q 1234 2150 1697 2047 
L 1894 2003 
Q 2506 1872 2764 1633 
Q 3022 1394 3022 966 
Q 3022 478 2636 193 
Q 2250 -91 1575 -91 
Q 1294 -91 989 -36 
Q 684 19 347 128 
L 347 722 
Q 666 556 975 473 
Q 1284 391 1588 391 
Q 1994 391 2212 530 
Q 2431 669 2431 922 
Q 2431 1156 2273 1281 
Q 2116 1406 1581 1522 
L 1381 1569 
Q 847 1681 609 1914 
Q 372 2147 372 2553 
Q 372 3047 722 3315 
Q 1072 3584 1716 3584 
Q 2034 3584 2315 3537 
Q 2597 3491 2834 3397 
z
" transform="scale(0.015625)"/>
      </defs>
      <use xlink:href="#DejaVuSans-6c"/>
      <use xlink:href="#DejaVuSans-6f" x="27.783203"/>
      <use xlink:href="#DejaVuSans-73" x="88.964844"/>
      <use xlink:href="#DejaVuSans-73" x="141.064453"/>
     </g>
    </g>
   </g>
   <g id="line2d_23">
    <path d="M 115.363636 231.807254 
L 116.380215 234.530768 
L 117.396794 238.721009 
L 118.413372 168.016764 
L 119.429951 182.729736 
L 120.446529 227.344233 
L 121.463108 178.018215 
L 122.479687 261.695925 
L 123.496265 153.128127 
L 124.512844 234.899235 
L 126.546001 197.195636 
L 127.56258 116.324273 
L 128.579158 114.736152 
L 129.595737 198.305322 
L 130.612316 164.699133 
L 131.628894 230.10488 
L 132.645473 246.560215 
L 133.662051 241.59448 
L 134.67863 200.391873 
L 135.695209 170.580323 
L 136.711787 238.940946 
L 137.728366 191.93427 
L 138.744944 181.814282 
L 139.761523 183.388121 
L 140.778102 196.462987 
L 141.79468 200.217637 
L 142.811259 214.646404 
L 143.827837 245.242018 
L 144.844416 180.404681 
L 145.860995 218.288229 
L 146.877573 110.203151 
L 147.894152 209.00943 
L 148.910731 163.335234 
L 149.927309 223.409634 
L 150.943888 201.498702 
L 151.960466 185.64034 
L 152.977045 255.173488 
L 153.993624 233.194004 
L 155.010202 145.591692 
L 156.026781 216.453035 
L 157.043359 230.320533 
L 158.059938 218.663837 
L 159.076517 159.127855 
L 160.093095 219.392202 
L 161.109674 177.464086 
L 162.126253 196.531539 
L 163.142831 200.614667 
L 164.15941 178.837982 
L 165.175988 206.248784 
L 166.192567 211.988586 
L 167.209146 220.050587 
L 168.225724 232.422794 
L 169.242303 202.87117 
L 170.258881 247.557076 
L 171.27546 166.278685 
L 172.292039 204.589255 
L 173.308617 188.512383 
L 174.325196 202.978283 
L 175.341774 225.027747 
L 176.358353 241.634469 
L 177.374932 140.723072 
L 178.39151 189.546376 
L 179.408089 193.76518 
L 180.424668 236.731573 
L 181.441246 193.369578 
L 182.457825 194.542103 
L 183.474403 191.494395 
L 184.490982 193.440986 
L 185.507561 195.756044 
L 186.524139 149.124976 
L 187.540718 199.510694 
L 188.557296 141.177229 
L 189.573875 127.773885 
L 190.590454 214.970598 
L 191.607032 254.956407 
L 192.623611 165.714559 
L 193.640189 194.430706 
L 195.673347 269.640816 
L 196.689925 165.471771 
L 197.706504 223.696696 
L 198.723083 197.84688 
L 199.739661 184.48781 
L 200.75624 246.450247 
L 201.772818 136.314321 
L 202.789397 149.153539 
L 203.805976 149.480589 
L 204.822554 191.7786 
L 205.839133 184.716316 
L 206.855711 199.222205 
L 207.87229 188.513811 
L 208.888869 240.926098 
L 209.905447 193.653783 
L 210.922026 194.584948 
L 211.938604 171.721428 
L 212.955183 172.386954 
L 213.971762 168.910796 
L 214.98834 174.887674 
L 216.004919 208.610972 
L 217.021498 121.57707 
L 218.038076 200.286189 
L 219.054655 149.804783 
L 220.071233 155.278946 
L 221.087812 197.51983 
L 222.104391 201.208784 
L 223.120969 152.878198 
L 224.137548 189.126495 
L 225.154126 146.992723 
L 226.170705 186.311578 
L 227.187284 108.327968 
L 228.203862 181.520079 
L 229.220441 132.016968 
L 231.253598 222.371357 
L 232.270177 161.181559 
L 233.286755 228.331097 
L 234.303334 187.025662 
L 235.319913 216.627271 
L 236.336491 187.519807 
L 237.35307 201.708643 
L 238.369648 173.156736 
L 239.386227 224.182273 
L 240.402806 152.211244 
L 241.419384 238.826693 
L 242.435963 210.711805 
L 243.452541 171.604319 
L 244.46912 199.507838 
L 245.485699 147.87533 
L 246.502277 163.700844 
L 247.518856 166.385798 
L 248.535435 193.586659 
L 249.552013 176.028779 
L 250.568592 141.844182 
L 251.58517 229.990626 
L 252.601749 180.820278 
L 253.618328 189.463542 
L 254.634906 159.439195 
L 255.651485 236.061763 
L 256.668063 140.111816 
L 257.684642 211.987158 
L 258.701221 208.68238 
L 259.717799 220.274809 
L 260.734378 239.496503 
L 261.750956 206.353041 
L 262.767535 234.853534 
L 263.784114 191.817161 
L 264.800692 202.37274 
L 265.817271 229.436498 
L 266.83385 177.137036 
L 267.850428 211.878617 
L 268.867007 208.005429 
L 269.883585 189.79202 
L 270.900164 162.516894 
L 271.916743 148.84934 
L 272.933321 159.08501 
L 273.9499 158.472326 
L 274.966478 198.116804 
L 275.983057 182.768297 
L 276.999636 175.648886 
L 278.016214 257.262896 
L 279.032793 132.626795 
L 280.049371 170.071896 
L 281.06595 196.525826 
L 282.082529 199.847742 
L 283.099107 235.064902 
L 284.115686 198.278186 
L 285.132265 204.03227 
L 286.148843 147.869617 
L 287.165422 155.988745 
L 288.182 181.394401 
L 289.198579 166.927073 
L 290.215158 159.407776 
L 291.231736 187.024233 
L 292.248315 182.615483 
L 293.264893 216.950037 
L 294.281472 142.739643 
L 295.298051 162.284103 
L 296.314629 230.981774 
L 297.331208 181.067351 
L 298.347786 180.724591 
L 299.364365 181.922822 
L 300.380944 196.413001 
L 301.397522 221.38021 
L 302.414101 125.116067 
L 303.43068 191.168773 
L 304.447258 179.442097 
L 305.463837 148.486585 
L 306.480415 185.744596 
L 307.496994 233.85953 
L 308.513573 177.309844 
L 309.530151 253.178339 
L 310.54673 142.929589 
L 311.563308 149.477733 
L 312.579887 128.757892 
L 313.596466 161.34437 
L 314.613044 178.008218 
L 315.629623 142.666806 
L 316.646201 174.650598 
L 317.66278 235.520487 
L 318.679359 214.68068 
L 319.695937 181.947101 
L 320.712516 134.019258 
L 321.729095 141.894168 
L 323.762252 255.160635 
L 324.77883 191.601508 
L 325.795409 205.071975 
L 326.811988 184.419258 
L 327.828566 208.572411 
L 328.845145 218.329646 
L 329.861723 168.585174 
L 330.878302 126.035806 
L 331.894881 185.471816 
L 332.911459 199.997699 
L 333.928038 191.48297 
L 334.944617 160.925917 
L 335.961195 217.331357 
L 336.977774 224.349368 
L 337.994352 179.72773 
L 339.010931 222.161417 
L 340.02751 241.794423 
L 341.044088 196.531539 
L 342.060667 185.85885 
L 343.077245 192.446982 
L 344.093824 165.933069 
L 345.110403 142.778203 
L 346.126981 218.432474 
L 347.14356 161.321519 
L 348.160138 199.846313 
L 349.176717 204.180799 
L 350.193296 183.376696 
L 351.209874 141.062975 
L 352.226453 203.149663 
L 353.243032 196.735767 
L 354.25961 101.831238 
L 355.276189 152.951034 
L 356.292767 182.614055 
L 357.309346 245.272009 
L 358.325925 253.28688 
L 359.342503 236.834401 
L 360.359082 253.398277 
L 361.37566 159.542023 
L 362.392239 168.579462 
L 363.408818 211.311635 
L 364.425396 167.588314 
L 365.441975 193.223905 
L 366.458553 170.677438 
L 367.475132 233.068325 
L 368.491711 165.933069 
L 369.508289 198.509549 
L 370.524868 158.198118 
L 371.541447 204.367889 
L 372.558025 183.052502 
L 373.574604 191.160204 
L 374.591182 109.103463 
L 375.607761 222.199977 
L 376.62434 183.827997 
L 377.640918 174.00221 
L 378.657497 186.842856 
L 379.674075 232.751272 
L 380.690654 190.654633 
L 381.707233 215.637552 
L 382.723811 233.856673 
L 383.74039 204.642097 
L 384.756968 184.917688 
L 385.773547 156.772808 
L 386.790126 229.979201 
L 387.806704 247.214316 
L 388.823283 163.510898 
L 389.839862 200.878878 
L 390.85644 127.274027 
L 392.889597 247.429969 
L 393.906176 192.645497 
L 394.922755 179.670604 
L 395.939333 192.913993 
L 396.955912 182.808286 
L 397.97249 158.578011 
L 398.989069 195.42471 
L 400.005648 158.115285 
L 401.022226 211.537285 
L 402.038805 197.232768 
L 404.071962 149.891901 
L 405.088541 169.409226 
L 406.105119 168.149583 
L 407.121698 119.876124 
L 408.138277 261.011833 
L 409.154855 189.492105 
L 410.171434 94.547589 
L 411.188012 175.564625 
L 412.204591 210.203378 
L 413.22117 252.494248 
L 414.237748 262.674219 
L 415.254327 200.490417 
L 416.270905 186.728603 
L 417.287484 237.812695 
L 418.304063 171.817115 
L 419.320641 153.94361 
L 420.33722 221.371641 
L 421.353799 131.707056 
L 422.370377 149.79193 
L 423.386956 188.830864 
L 424.403534 179.079343 
L 425.420113 148.513721 
L 426.436692 176.308699 
L 427.45327 208.932309 
L 428.469849 201.165939 
L 429.486427 158.903633 
L 430.503006 133.890723 
L 431.519585 169.684863 
L 432.536163 211.871476 
L 433.552742 203.960861 
L 434.56932 192.471261 
L 435.585899 202.18565 
L 436.602478 247.532797 
L 437.619056 202.475568 
L 438.635635 126.288592 
L 439.652214 145.57741 
L 440.668792 185.845996 
L 441.685371 164.489192 
L 442.701949 194.749187 
L 443.718528 249.987815 
L 444.735107 159.931913 
L 445.751685 207.334191 
L 446.768264 181.76144 
L 447.784842 164.967628 
L 448.801421 229.103735 
L 449.818 188.825152 
L 450.834578 232.077178 
L 451.851157 208.538135 
L 452.867735 219.627849 
L 453.884314 169.720567 
L 454.900893 146.824199 
L 456.93405 229.103735 
L 457.950629 146.824199 
L 458.967207 173.185299 
L 459.983786 132.933851 
L 461.000364 248.229742 
L 462.016943 157.235534 
L 463.033522 198.229629 
L 464.0501 143.155239 
L 465.066679 181.770009 
L 466.083257 188.113925 
L 467.099836 239.59219 
L 468.116415 214.64212 
L 469.132993 222.454191 
L 470.149572 159.843366 
L 471.16615 223.029742 
L 472.182729 137.808184 
L 473.199308 201.153086 
L 474.215886 187.561224 
L 475.232465 204.629243 
L 476.249044 178.213874 
L 477.265622 236.71015 
L 478.282201 242.57563 
L 479.298779 189.889136 
L 480.315358 232.077178 
L 481.331937 188.996532 
L 482.348515 191.804307 
L 483.365094 226.003185 
L 484.381672 134.7262 
L 485.398251 179.530643 
L 486.41483 169.400657 
L 487.431408 178.288138 
L 488.447987 215.333352 
L 489.464565 228.319671 
L 490.481144 191.507249 
L 491.497723 229.422216 
L 492.514301 195.737478 
L 493.53088 181.771437 
L 494.547459 194.572094 
L 495.564037 158.315228 
L 496.580616 105.945786 
L 497.597194 182.089918 
L 498.613773 238.810983 
L 499.630352 196.511544 
L 500.64693 127.104075 
L 501.663509 219.426478 
L 502.680087 204.987713 
L 503.696666 184.350706 
L 504.713245 180.284715 
L 505.729823 194.969124 
L 506.746402 231.194571 
L 507.762981 125.991533 
L 508.779559 118.473664 
L 509.796138 135.007549 
L 510.812716 177.285565 
L 511.829295 140.845894 
L 512.845874 227.792678 
L 513.862452 185.844568 
L 514.879031 138.359456 
L 515.895609 215.304789 
L 516.912188 174.373534 
L 517.928767 215.267657 
L 518.945345 185.65605 
L 519.961924 236.968648 
L 520.978502 213.518152 
L 521.995081 232.734134 
L 523.01166 192.435557 
L 524.028238 192.268461 
L 525.044817 265.64909 
L 526.061396 169.569181 
L 527.077974 105.264551 
L 528.094553 177.95966 
L 529.111131 222.347078 
L 530.12771 250.617637 
L 531.144289 192.928274 
L 532.160867 159.013602 
L 533.177446 204.255064 
L 534.194024 156.240102 
L 535.210603 234.166585 
L 536.227182 167.438356 
L 537.24376 191.484398 
L 538.260339 164.646291 
L 539.276917 190.106217 
L 540.293496 198.70378 
L 541.310075 167.618305 
L 542.326653 112.698158 
L 543.343232 136.695642 
L 544.359811 202.471284 
L 545.376389 144.711941 
L 546.392968 171.547192 
L 547.409546 213.069708 
L 548.426125 83.106546 
L 549.442704 175.450371 
L 550.459282 213.846631 
L 551.475861 238.806699 
L 552.492439 135.221774 
L 553.509018 229.969204 
L 554.525597 220.583293 
L 555.542175 179.729158 
L 556.558754 240.49622 
L 557.575332 204.130813 
L 558.591911 177.012785 
L 559.60849 138.29376 
L 560.625068 246.417399 
L 561.641647 129.410564 
L 562.658226 161.347226 
L 563.674804 219.263667 
L 564.691383 167.449782 
L 565.707961 214.659258 
L 566.72454 184.02794 
L 567.741119 221.77724 
L 568.757697 228.101162 
L 569.774276 211.978589 
L 570.790854 190.45469 
L 571.807433 186.841428 
L 572.824012 169.136447 
L 573.84059 184.037937 
L 574.857169 163.76654 
L 575.873747 166.801394 
L 576.890326 161.17299 
L 577.906905 183.822284 
L 578.923483 55.8 
L 579.940062 154.744812 
L 580.956641 241.774429 
L 581.973219 191.144494 
L 582.989798 227.846948 
L 584.006376 215.2648 
L 585.022955 158.817943 
L 586.039534 185.017659 
L 587.056112 179.4321 
L 588.072691 185.381842 
L 589.089269 151.174395 
L 590.105848 180.271862 
L 591.122427 225.801814 
L 592.139005 193.248184 
L 593.155584 140.608818 
L 594.172163 222.659847 
L 595.188741 157.515455 
L 596.20532 157.58115 
L 597.221898 201.353029 
L 598.238477 212.761224 
L 599.255056 169.894803 
L 600.271634 163.736549 
L 601.288213 202.969714 
L 602.304791 147.716804 
L 603.32137 188.108212 
L 604.337949 208.099688 
L 605.354527 187.004239 
L 606.371106 170.034763 
L 607.387684 189.997676 
L 608.404263 223.353936 
L 609.420842 202.962573 
L 610.43742 190.988824 
L 611.453999 194.854871 
L 612.470578 190.443264 
L 613.487156 223.343939 
L 614.503735 264.640805 
L 615.520313 200.941717 
L 616.536892 242.775574 
L 617.553471 176.902817 
L 618.570049 187.538373 
L 619.586628 100.534463 
L 620.603206 189.80773 
L 621.619785 254.138067 
L 622.636364 186.358708 
L 622.636364 186.358708 
" clip-path="url(#p9a8284c3b1)" style="fill: none; stroke: #1f77b4; stroke-width: 1.5; stroke-linecap: square"/>
   </g>
   <g id="line2d_24">
    <path d="M 115.363636 307.795716 
L 622.636364 307.688603 
L 622.636364 307.688603 
" clip-path="url(#p9a8284c3b1)" style="fill: none; stroke: #ff7f0e; stroke-width: 1.5; stroke-linecap: square"/>
   </g>
   <g id="patch_3">
    <path d="M 90 320.4 
L 90 43.2 
" style="fill: none; stroke: #000000; stroke-width: 0.8; stroke-linejoin: miter; stroke-linecap: square"/>
   </g>
   <g id="patch_4">
    <path d="M 648 320.4 
L 648 43.2 
" style="fill: none; stroke: #000000; stroke-width: 0.8; stroke-linejoin: miter; stroke-linecap: square"/>
   </g>
   <g id="patch_5">
    <path d="M 90 320.4 
L 648 320.4 
" style="fill: none; stroke: #000000; stroke-width: 0.8; stroke-linejoin: miter; stroke-linecap: square"/>
   </g>
   <g id="patch_6">
    <path d="M 90 43.2 
L 648 43.2 
" style="fill: none; stroke: #000000; stroke-width: 0.8; stroke-linejoin: miter; stroke-linecap: square"/>
   </g>
   <g id="text_14">
    <!-- model train and validation loss over time -->
    <g transform="translate(245.555625 37.2) scale(0.12 -0.12)">
     <defs>
      <path id="DejaVuSans-6d" d="M 3328 2828 
Q 3544 3216 3844 3400 
Q 4144 3584 4550 3584 
Q 5097 3584 5394 3201 
Q 5691 2819 5691 2113 
L 5691 0 
L 5113 0 
L 5113 2094 
Q 5113 2597 4934 2840 
Q 4756 3084 4391 3084 
Q 3944 3084 3684 2787 
Q 3425 2491 3425 1978 
L 3425 0 
L 2847 0 
L 2847 2094 
Q 2847 2600 2669 2842 
Q 2491 3084 2119 3084 
Q 1678 3084 1418 2786 
Q 1159 2488 1159 1978 
L 1159 0 
L 581 0 
L 581 3500 
L 1159 3500 
L 1159 2956 
Q 1356 3278 1631 3431 
Q 1906 3584 2284 3584 
Q 2666 3584 2933 3390 
Q 3200 3197 3328 2828 
z
" transform="scale(0.015625)"/>
      <path id="DejaVuSans-64" d="M 2906 2969 
L 2906 4863 
L 3481 4863 
L 3481 0 
L 2906 0 
L 2906 525 
Q 2725 213 2448 61 
Q 2172 -91 1784 -91 
Q 1150 -91 751 415 
Q 353 922 353 1747 
Q 353 2572 751 3078 
Q 1150 3584 1784 3584 
Q 2172 3584 2448 3432 
Q 2725 3281 2906 2969 
z
M 947 1747 
Q 947 1113 1208 752 
Q 1469 391 1925 391 
Q 2381 391 2643 752 
Q 2906 1113 2906 1747 
Q 2906 2381 2643 2742 
Q 2381 3103 1925 3103 
Q 1469 3103 1208 2742 
Q 947 2381 947 1747 
z
" transform="scale(0.015625)"/>
      <path id="DejaVuSans-20" transform="scale(0.015625)"/>
      <path id="DejaVuSans-74" d="M 1172 4494 
L 1172 3500 
L 2356 3500 
L 2356 3053 
L 1172 3053 
L 1172 1153 
Q 1172 725 1289 603 
Q 1406 481 1766 481 
L 2356 481 
L 2356 0 
L 1766 0 
Q 1100 0 847 248 
Q 594 497 594 1153 
L 594 3053 
L 172 3053 
L 172 3500 
L 594 3500 
L 594 4494 
L 1172 4494 
z
" transform="scale(0.015625)"/>
      <path id="DejaVuSans-72" d="M 2631 2963 
Q 2534 3019 2420 3045 
Q 2306 3072 2169 3072 
Q 1681 3072 1420 2755 
Q 1159 2438 1159 1844 
L 1159 0 
L 581 0 
L 581 3500 
L 1159 3500 
L 1159 2956 
Q 1341 3275 1631 3429 
Q 1922 3584 2338 3584 
Q 2397 3584 2469 3576 
Q 2541 3569 2628 3553 
L 2631 2963 
z
" transform="scale(0.015625)"/>
      <path id="DejaVuSans-61" d="M 2194 1759 
Q 1497 1759 1228 1600 
Q 959 1441 959 1056 
Q 959 750 1161 570 
Q 1363 391 1709 391 
Q 2188 391 2477 730 
Q 2766 1069 2766 1631 
L 2766 1759 
L 2194 1759 
z
M 3341 1997 
L 3341 0 
L 2766 0 
L 2766 531 
Q 2569 213 2275 61 
Q 1981 -91 1556 -91 
Q 1019 -91 701 211 
Q 384 513 384 1019 
Q 384 1609 779 1909 
Q 1175 2209 1959 2209 
L 2766 2209 
L 2766 2266 
Q 2766 2663 2505 2880 
Q 2244 3097 1772 3097 
Q 1472 3097 1187 3025 
Q 903 2953 641 2809 
L 641 3341 
Q 956 3463 1253 3523 
Q 1550 3584 1831 3584 
Q 2591 3584 2966 3190 
Q 3341 2797 3341 1997 
z
" transform="scale(0.015625)"/>
      <path id="DejaVuSans-69" d="M 603 3500 
L 1178 3500 
L 1178 0 
L 603 0 
L 603 3500 
z
M 603 4863 
L 1178 4863 
L 1178 4134 
L 603 4134 
L 603 4863 
z
" transform="scale(0.015625)"/>
      <path id="DejaVuSans-6e" d="M 3513 2113 
L 3513 0 
L 2938 0 
L 2938 2094 
Q 2938 2591 2744 2837 
Q 2550 3084 2163 3084 
Q 1697 3084 1428 2787 
Q 1159 2491 1159 1978 
L 1159 0 
L 581 0 
L 581 3500 
L 1159 3500 
L 1159 2956 
Q 1366 3272 1645 3428 
Q 1925 3584 2291 3584 
Q 2894 3584 3203 3211 
Q 3513 2838 3513 2113 
z
" transform="scale(0.015625)"/>
      <path id="DejaVuSans-76" d="M 191 3500 
L 800 3500 
L 1894 563 
L 2988 3500 
L 3597 3500 
L 2284 0 
L 1503 0 
L 191 3500 
z
" transform="scale(0.015625)"/>
     </defs>
     <use xlink:href="#DejaVuSans-6d"/>
     <use xlink:href="#DejaVuSans-6f" x="97.412109"/>
     <use xlink:href="#DejaVuSans-64" x="158.59375"/>
     <use xlink:href="#DejaVuSans-65" x="222.070312"/>
     <use xlink:href="#DejaVuSans-6c" x="283.59375"/>
     <use xlink:href="#DejaVuSans-20" x="311.376953"/>
     <use xlink:href="#DejaVuSans-74" x="343.164062"/>
     <use xlink:href="#DejaVuSans-72" x="382.373047"/>
     <use xlink:href="#DejaVuSans-61" x="423.486328"/>
     <use xlink:href="#DejaVuSans-69" x="484.765625"/>
     <use xlink:href="#DejaVuSans-6e" x="512.548828"/>
     <use xlink:href="#DejaVuSans-20" x="575.927734"/>
     <use xlink:href="#DejaVuSans-61" x="607.714844"/>
     <use xlink:href="#DejaVuSans-6e" x="668.994141"/>
     <use xlink:href="#DejaVuSans-64" x="732.373047"/>
     <use xlink:href="#DejaVuSans-20" x="795.849609"/>
     <use xlink:href="#DejaVuSans-76" x="827.636719"/>
     <use xlink:href="#DejaVuSans-61" x="886.816406"/>
     <use xlink:href="#DejaVuSans-6c" x="948.095703"/>
     <use xlink:href="#DejaVuSans-69" x="975.878906"/>
     <use xlink:href="#DejaVuSans-64" x="1003.662109"/>
     <use xlink:href="#DejaVuSans-61" x="1067.138672"/>
     <use xlink:href="#DejaVuSans-74" x="1128.417969"/>
     <use xlink:href="#DejaVuSans-69" x="1167.626953"/>
     <use xlink:href="#DejaVuSans-6f" x="1195.410156"/>
     <use xlink:href="#DejaVuSans-6e" x="1256.591797"/>
     <use xlink:href="#DejaVuSans-20" x="1319.970703"/>
     <use xlink:href="#DejaVuSans-6c" x="1351.757812"/>
     <use xlink:href="#DejaVuSans-6f" x="1379.541016"/>
     <use xlink:href="#DejaVuSans-73" x="1440.722656"/>
     <use xlink:href="#DejaVuSans-73" x="1492.822266"/>
     <use xlink:href="#DejaVuSans-20" x="1544.921875"/>
     <use xlink:href="#DejaVuSans-6f" x="1576.708984"/>
     <use xlink:href="#DejaVuSans-76" x="1637.890625"/>
     <use xlink:href="#DejaVuSans-65" x="1697.070312"/>
     <use xlink:href="#DejaVuSans-72" x="1758.59375"/>
     <use xlink:href="#DejaVuSans-20" x="1799.707031"/>
     <use xlink:href="#DejaVuSans-74" x="1831.494141"/>
     <use xlink:href="#DejaVuSans-69" x="1870.703125"/>
     <use xlink:href="#DejaVuSans-6d" x="1898.486328"/>
     <use xlink:href="#DejaVuSans-65" x="1995.898438"/>
    </g>
   </g>
   <g id="legend_1">
    <g id="patch_7">
     <path d="M 97 80.55625 
L 178.234375 80.55625 
Q 180.234375 80.55625 180.234375 78.55625 
L 180.234375 50.2 
Q 180.234375 48.2 178.234375 48.2 
L 97 48.2 
Q 95 48.2 95 50.2 
L 95 78.55625 
Q 95 80.55625 97 80.55625 
z
" style="fill: #ffffff; opacity: 0.8; stroke: #cccccc; stroke-linejoin: miter"/>
    </g>
    <g id="line2d_25">
     <path d="M 99 56.298437 
L 109 56.298437 
L 119 56.298437 
" style="fill: none; stroke: #1f77b4; stroke-width: 1.5; stroke-linecap: square"/>
    </g>
    <g id="text_15">
     <!-- train -->
     <g transform="translate(127 59.798437) scale(0.1 -0.1)">
      <use xlink:href="#DejaVuSans-74"/>
      <use xlink:href="#DejaVuSans-72" x="39.208984"/>
      <use xlink:href="#DejaVuSans-61" x="80.322266"/>
      <use xlink:href="#DejaVuSans-69" x="141.601562"/>
      <use xlink:href="#DejaVuSans-6e" x="169.384766"/>
     </g>
    </g>
    <g id="line2d_26">
     <path d="M 99 70.976562 
L 109 70.976562 
L 119 70.976562 
" style="fill: none; stroke: #ff7f0e; stroke-width: 1.5; stroke-linecap: square"/>
    </g>
    <g id="text_16">
     <!-- validation -->
     <g transform="translate(127 74.476562) scale(0.1 -0.1)">
      <use xlink:href="#DejaVuSans-76"/>
      <use xlink:href="#DejaVuSans-61" x="59.179688"/>
      <use xlink:href="#DejaVuSans-6c" x="120.458984"/>
      <use xlink:href="#DejaVuSans-69" x="148.242188"/>
      <use xlink:href="#DejaVuSans-64" x="176.025391"/>
      <use xlink:href="#DejaVuSans-61" x="239.501953"/>
      <use xlink:href="#DejaVuSans-74" x="300.78125"/>
      <use xlink:href="#DejaVuSans-69" x="339.990234"/>
      <use xlink:href="#DejaVuSans-6f" x="367.773438"/>
      <use xlink:href="#DejaVuSans-6e" x="428.955078"/>
     </g>
    </g>
   </g>
  </g>
 </g>
 <defs>
  <clipPath id="p9a8284c3b1">
   <rect x="90" y="43.2" width="558" height="277.2"/>
  </clipPath>
 </defs>
</svg>
