<?xml version="1.0" encoding="utf-8" standalone="no"?>
<!DOCTYPE svg PUBLIC "-//W3C//DTD SVG 1.1//EN"
  "http://www.w3.org/Graphics/SVG/1.1/DTD/svg11.dtd">
<svg xmlns:xlink="http://www.w3.org/1999/xlink" width="720pt" height="360pt" viewBox="0 0 720 360" xmlns="http://www.w3.org/2000/svg" version="1.1">
 <metadata>
  <rdf:RDF xmlns:dc="http://purl.org/dc/elements/1.1/" xmlns:cc="http://creativecommons.org/ns#" xmlns:rdf="http://www.w3.org/1999/02/22-rdf-syntax-ns#">
   <cc:Work>
    <dc:type rdf:resource="http://purl.org/dc/dcmitype/StillImage"/>
    <dc:date>2023-05-24T11:54:06.847303</dc:date>
    <dc:format>image/svg+xml</dc:format>
    <dc:creator>
     <cc:Agent>
      <dc:title>Matplotlib v3.7.1, https://matplotlib.org/</dc:title>
     </cc:Agent>
    </dc:creator>
   </cc:Work>
  </rdf:RDF>
 </metadata>
 <defs>
  <style type="text/css">*{stroke-linejoin: round; stroke-linecap: butt}</style>
 </defs>
 <g id="figure_1">
  <g id="patch_1">
   <path d="M 0 360 
L 720 360 
L 720 0 
L 0 0 
z
" style="fill: #ffffff"/>
  </g>
  <g id="axes_1">
   <g id="patch_2">
    <path d="M 90 320.4 
L 648 320.4 
L 648 43.2 
L 90 43.2 
z
" style="fill: #ffffff"/>
   </g>
   <g id="matplotlib.axis_1">
    <g id="xtick_1">
     <g id="line2d_1">
      <path d="M 115.363636 320.4 
L 115.363636 43.2 
" clip-path="url(#p8efb46b8ea)" style="fill: none; stroke: #b0b0b0; stroke-width: 0.8; stroke-linecap: square"/>
     </g>
     <g id="line2d_2">
      <defs>
       <path id="m108d78f51d" d="M 0 0 
L 0 3.5 
" style="stroke: #000000; stroke-width: 0.8"/>
      </defs>
      <g>
       <use xlink:href="#m108d78f51d" x="115.363636" y="320.4" style="stroke: #000000; stroke-width: 0.8"/>
      </g>
     </g>
     <g id="text_1">
      <!-- 0 -->
      <g transform="translate(112.182386 334.998438) scale(0.1 -0.1)">
       <defs>
        <path id="DejaVuSans-30" d="M 2034 4250 
Q 1547 4250 1301 3770 
Q 1056 3291 1056 2328 
Q 1056 1369 1301 889 
Q 1547 409 2034 409 
Q 2525 409 2770 889 
Q 3016 1369 3016 2328 
Q 3016 3291 2770 3770 
Q 2525 4250 2034 4250 
z
M 2034 4750 
Q 2819 4750 3233 4129 
Q 3647 3509 3647 2328 
Q 3647 1150 3233 529 
Q 2819 -91 2034 -91 
Q 1250 -91 836 529 
Q 422 1150 422 2328 
Q 422 3509 836 4129 
Q 1250 4750 2034 4750 
z
" transform="scale(0.015625)"/>
       </defs>
       <use xlink:href="#DejaVuSans-30"/>
      </g>
     </g>
    </g>
    <g id="xtick_2">
     <g id="line2d_3">
      <path d="M 217.021498 320.4 
L 217.021498 43.2 
" clip-path="url(#p8efb46b8ea)" style="fill: none; stroke: #b0b0b0; stroke-width: 0.8; stroke-linecap: square"/>
     </g>
     <g id="line2d_4">
      <g>
       <use xlink:href="#m108d78f51d" x="217.021498" y="320.4" style="stroke: #000000; stroke-width: 0.8"/>
      </g>
     </g>
     <g id="text_2">
      <!-- 100 -->
      <g transform="translate(207.477748 334.998438) scale(0.1 -0.1)">
       <defs>
        <path id="DejaVuSans-31" d="M 794 531 
L 1825 531 
L 1825 4091 
L 703 3866 
L 703 4441 
L 1819 4666 
L 2450 4666 
L 2450 531 
L 3481 531 
L 3481 0 
L 794 0 
L 794 531 
z
" transform="scale(0.015625)"/>
       </defs>
       <use xlink:href="#DejaVuSans-31"/>
       <use xlink:href="#DejaVuSans-30" x="63.623047"/>
       <use xlink:href="#DejaVuSans-30" x="127.246094"/>
      </g>
     </g>
    </g>
    <g id="xtick_3">
     <g id="line2d_5">
      <path d="M 318.679359 320.4 
L 318.679359 43.2 
" clip-path="url(#p8efb46b8ea)" style="fill: none; stroke: #b0b0b0; stroke-width: 0.8; stroke-linecap: square"/>
     </g>
     <g id="line2d_6">
      <g>
       <use xlink:href="#m108d78f51d" x="318.679359" y="320.4" style="stroke: #000000; stroke-width: 0.8"/>
      </g>
     </g>
     <g id="text_3">
      <!-- 200 -->
      <g transform="translate(309.135609 334.998438) scale(0.1 -0.1)">
       <defs>
        <path id="DejaVuSans-32" d="M 1228 531 
L 3431 531 
L 3431 0 
L 469 0 
L 469 531 
Q 828 903 1448 1529 
Q 2069 2156 2228 2338 
Q 2531 2678 2651 2914 
Q 2772 3150 2772 3378 
Q 2772 3750 2511 3984 
Q 2250 4219 1831 4219 
Q 1534 4219 1204 4116 
Q 875 4013 500 3803 
L 500 4441 
Q 881 4594 1212 4672 
Q 1544 4750 1819 4750 
Q 2544 4750 2975 4387 
Q 3406 4025 3406 3419 
Q 3406 3131 3298 2873 
Q 3191 2616 2906 2266 
Q 2828 2175 2409 1742 
Q 1991 1309 1228 531 
z
" transform="scale(0.015625)"/>
       </defs>
       <use xlink:href="#DejaVuSans-32"/>
       <use xlink:href="#DejaVuSans-30" x="63.623047"/>
       <use xlink:href="#DejaVuSans-30" x="127.246094"/>
      </g>
     </g>
    </g>
    <g id="xtick_4">
     <g id="line2d_7">
      <path d="M 420.33722 320.4 
L 420.33722 43.2 
" clip-path="url(#p8efb46b8ea)" style="fill: none; stroke: #b0b0b0; stroke-width: 0.8; stroke-linecap: square"/>
     </g>
     <g id="line2d_8">
      <g>
       <use xlink:href="#m108d78f51d" x="420.33722" y="320.4" style="stroke: #000000; stroke-width: 0.8"/>
      </g>
     </g>
     <g id="text_4">
      <!-- 300 -->
      <g transform="translate(410.79347 334.998438) scale(0.1 -0.1)">
       <defs>
        <path id="DejaVuSans-33" d="M 2597 2516 
Q 3050 2419 3304 2112 
Q 3559 1806 3559 1356 
Q 3559 666 3084 287 
Q 2609 -91 1734 -91 
Q 1441 -91 1130 -33 
Q 819 25 488 141 
L 488 750 
Q 750 597 1062 519 
Q 1375 441 1716 441 
Q 2309 441 2620 675 
Q 2931 909 2931 1356 
Q 2931 1769 2642 2001 
Q 2353 2234 1838 2234 
L 1294 2234 
L 1294 2753 
L 1863 2753 
Q 2328 2753 2575 2939 
Q 2822 3125 2822 3475 
Q 2822 3834 2567 4026 
Q 2313 4219 1838 4219 
Q 1578 4219 1281 4162 
Q 984 4106 628 3988 
L 628 4550 
Q 988 4650 1302 4700 
Q 1616 4750 1894 4750 
Q 2613 4750 3031 4423 
Q 3450 4097 3450 3541 
Q 3450 3153 3228 2886 
Q 3006 2619 2597 2516 
z
" transform="scale(0.015625)"/>
       </defs>
       <use xlink:href="#DejaVuSans-33"/>
       <use xlink:href="#DejaVuSans-30" x="63.623047"/>
       <use xlink:href="#DejaVuSans-30" x="127.246094"/>
      </g>
     </g>
    </g>
    <g id="xtick_5">
     <g id="line2d_9">
      <path d="M 521.995081 320.4 
L 521.995081 43.2 
" clip-path="url(#p8efb46b8ea)" style="fill: none; stroke: #b0b0b0; stroke-width: 0.8; stroke-linecap: square"/>
     </g>
     <g id="line2d_10">
      <g>
       <use xlink:href="#m108d78f51d" x="521.995081" y="320.4" style="stroke: #000000; stroke-width: 0.8"/>
      </g>
     </g>
     <g id="text_5">
      <!-- 400 -->
      <g transform="translate(512.451331 334.998438) scale(0.1 -0.1)">
       <defs>
        <path id="DejaVuSans-34" d="M 2419 4116 
L 825 1625 
L 2419 1625 
L 2419 4116 
z
M 2253 4666 
L 3047 4666 
L 3047 1625 
L 3713 1625 
L 3713 1100 
L 3047 1100 
L 3047 0 
L 2419 0 
L 2419 1100 
L 313 1100 
L 313 1709 
L 2253 4666 
z
" transform="scale(0.015625)"/>
       </defs>
       <use xlink:href="#DejaVuSans-34"/>
       <use xlink:href="#DejaVuSans-30" x="63.623047"/>
       <use xlink:href="#DejaVuSans-30" x="127.246094"/>
      </g>
     </g>
    </g>
    <g id="xtick_6">
     <g id="line2d_11">
      <path d="M 623.652942 320.4 
L 623.652942 43.2 
" clip-path="url(#p8efb46b8ea)" style="fill: none; stroke: #b0b0b0; stroke-width: 0.8; stroke-linecap: square"/>
     </g>
     <g id="line2d_12">
      <g>
       <use xlink:href="#m108d78f51d" x="623.652942" y="320.4" style="stroke: #000000; stroke-width: 0.8"/>
      </g>
     </g>
     <g id="text_6">
      <!-- 500 -->
      <g transform="translate(614.109192 334.998438) scale(0.1 -0.1)">
       <defs>
        <path id="DejaVuSans-35" d="M 691 4666 
L 3169 4666 
L 3169 4134 
L 1269 4134 
L 1269 2991 
Q 1406 3038 1543 3061 
Q 1681 3084 1819 3084 
Q 2600 3084 3056 2656 
Q 3513 2228 3513 1497 
Q 3513 744 3044 326 
Q 2575 -91 1722 -91 
Q 1428 -91 1123 -41 
Q 819 9 494 109 
L 494 744 
Q 775 591 1075 516 
Q 1375 441 1709 441 
Q 2250 441 2565 725 
Q 2881 1009 2881 1497 
Q 2881 1984 2565 2268 
Q 2250 2553 1709 2553 
Q 1456 2553 1204 2497 
Q 953 2441 691 2322 
L 691 4666 
z
" transform="scale(0.015625)"/>
       </defs>
       <use xlink:href="#DejaVuSans-35"/>
       <use xlink:href="#DejaVuSans-30" x="63.623047"/>
       <use xlink:href="#DejaVuSans-30" x="127.246094"/>
      </g>
     </g>
    </g>
    <g id="text_7">
     <!-- epoch -->
     <g transform="translate(353.771875 348.676562) scale(0.1 -0.1)">
      <defs>
       <path id="DejaVuSans-65" d="M 3597 1894 
L 3597 1613 
L 953 1613 
Q 991 1019 1311 708 
Q 1631 397 2203 397 
Q 2534 397 2845 478 
Q 3156 559 3463 722 
L 3463 178 
Q 3153 47 2828 -22 
Q 2503 -91 2169 -91 
Q 1331 -91 842 396 
Q 353 884 353 1716 
Q 353 2575 817 3079 
Q 1281 3584 2069 3584 
Q 2775 3584 3186 3129 
Q 3597 2675 3597 1894 
z
M 3022 2063 
Q 3016 2534 2758 2815 
Q 2500 3097 2075 3097 
Q 1594 3097 1305 2825 
Q 1016 2553 972 2059 
L 3022 2063 
z
" transform="scale(0.015625)"/>
       <path id="DejaVuSans-70" d="M 1159 525 
L 1159 -1331 
L 581 -1331 
L 581 3500 
L 1159 3500 
L 1159 2969 
Q 1341 3281 1617 3432 
Q 1894 3584 2278 3584 
Q 2916 3584 3314 3078 
Q 3713 2572 3713 1747 
Q 3713 922 3314 415 
Q 2916 -91 2278 -91 
Q 1894 -91 1617 61 
Q 1341 213 1159 525 
z
M 3116 1747 
Q 3116 2381 2855 2742 
Q 2594 3103 2138 3103 
Q 1681 3103 1420 2742 
Q 1159 2381 1159 1747 
Q 1159 1113 1420 752 
Q 1681 391 2138 391 
Q 2594 391 2855 752 
Q 3116 1113 3116 1747 
z
" transform="scale(0.015625)"/>
       <path id="DejaVuSans-6f" d="M 1959 3097 
Q 1497 3097 1228 2736 
Q 959 2375 959 1747 
Q 959 1119 1226 758 
Q 1494 397 1959 397 
Q 2419 397 2687 759 
Q 2956 1122 2956 1747 
Q 2956 2369 2687 2733 
Q 2419 3097 1959 3097 
z
M 1959 3584 
Q 2709 3584 3137 3096 
Q 3566 2609 3566 1747 
Q 3566 888 3137 398 
Q 2709 -91 1959 -91 
Q 1206 -91 779 398 
Q 353 888 353 1747 
Q 353 2609 779 3096 
Q 1206 3584 1959 3584 
z
" transform="scale(0.015625)"/>
       <path id="DejaVuSans-63" d="M 3122 3366 
L 3122 2828 
Q 2878 2963 2633 3030 
Q 2388 3097 2138 3097 
Q 1578 3097 1268 2742 
Q 959 2388 959 1747 
Q 959 1106 1268 751 
Q 1578 397 2138 397 
Q 2388 397 2633 464 
Q 2878 531 3122 666 
L 3122 134 
Q 2881 22 2623 -34 
Q 2366 -91 2075 -91 
Q 1284 -91 818 406 
Q 353 903 353 1747 
Q 353 2603 823 3093 
Q 1294 3584 2113 3584 
Q 2378 3584 2631 3529 
Q 2884 3475 3122 3366 
z
" transform="scale(0.015625)"/>
       <path id="DejaVuSans-68" d="M 3513 2113 
L 3513 0 
L 2938 0 
L 2938 2094 
Q 2938 2591 2744 2837 
Q 2550 3084 2163 3084 
Q 1697 3084 1428 2787 
Q 1159 2491 1159 1978 
L 1159 0 
L 581 0 
L 581 4863 
L 1159 4863 
L 1159 2956 
Q 1366 3272 1645 3428 
Q 1925 3584 2291 3584 
Q 2894 3584 3203 3211 
Q 3513 2838 3513 2113 
z
" transform="scale(0.015625)"/>
      </defs>
      <use xlink:href="#DejaVuSans-65"/>
      <use xlink:href="#DejaVuSans-70" x="61.523438"/>
      <use xlink:href="#DejaVuSans-6f" x="125"/>
      <use xlink:href="#DejaVuSans-63" x="186.181641"/>
      <use xlink:href="#DejaVuSans-68" x="241.162109"/>
     </g>
    </g>
   </g>
   <g id="matplotlib.axis_2">
    <g id="ytick_1">
     <g id="line2d_13">
      <path d="M 90 300.628223 
L 648 300.628223 
" clip-path="url(#p8efb46b8ea)" style="fill: none; stroke: #b0b0b0; stroke-width: 0.8; stroke-linecap: square"/>
     </g>
     <g id="line2d_14">
      <defs>
       <path id="m973cfc136d" d="M 0 0 
L -3.5 0 
" style="stroke: #000000; stroke-width: 0.8"/>
      </defs>
      <g>
       <use xlink:href="#m973cfc136d" x="90" y="300.628223" style="stroke: #000000; stroke-width: 0.8"/>
      </g>
     </g>
     <g id="text_8">
      <!-- 1.3800 -->
      <g transform="translate(48.009375 304.427442) scale(0.1 -0.1)">
       <defs>
        <path id="DejaVuSans-2e" d="M 684 794 
L 1344 794 
L 1344 0 
L 684 0 
L 684 794 
z
" transform="scale(0.015625)"/>
        <path id="DejaVuSans-38" d="M 2034 2216 
Q 1584 2216 1326 1975 
Q 1069 1734 1069 1313 
Q 1069 891 1326 650 
Q 1584 409 2034 409 
Q 2484 409 2743 651 
Q 3003 894 3003 1313 
Q 3003 1734 2745 1975 
Q 2488 2216 2034 2216 
z
M 1403 2484 
Q 997 2584 770 2862 
Q 544 3141 544 3541 
Q 544 4100 942 4425 
Q 1341 4750 2034 4750 
Q 2731 4750 3128 4425 
Q 3525 4100 3525 3541 
Q 3525 3141 3298 2862 
Q 3072 2584 2669 2484 
Q 3125 2378 3379 2068 
Q 3634 1759 3634 1313 
Q 3634 634 3220 271 
Q 2806 -91 2034 -91 
Q 1263 -91 848 271 
Q 434 634 434 1313 
Q 434 1759 690 2068 
Q 947 2378 1403 2484 
z
M 1172 3481 
Q 1172 3119 1398 2916 
Q 1625 2713 2034 2713 
Q 2441 2713 2670 2916 
Q 2900 3119 2900 3481 
Q 2900 3844 2670 4047 
Q 2441 4250 2034 4250 
Q 1625 4250 1398 4047 
Q 1172 3844 1172 3481 
z
" transform="scale(0.015625)"/>
       </defs>
       <use xlink:href="#DejaVuSans-31"/>
       <use xlink:href="#DejaVuSans-2e" x="63.623047"/>
       <use xlink:href="#DejaVuSans-33" x="95.410156"/>
       <use xlink:href="#DejaVuSans-38" x="159.033203"/>
       <use xlink:href="#DejaVuSans-30" x="222.65625"/>
       <use xlink:href="#DejaVuSans-30" x="286.279297"/>
      </g>
     </g>
    </g>
    <g id="ytick_2">
     <g id="line2d_15">
      <path d="M 90 268.884494 
L 648 268.884494 
" clip-path="url(#p8efb46b8ea)" style="fill: none; stroke: #b0b0b0; stroke-width: 0.8; stroke-linecap: square"/>
     </g>
     <g id="line2d_16">
      <g>
       <use xlink:href="#m973cfc136d" x="90" y="268.884494" style="stroke: #000000; stroke-width: 0.8"/>
      </g>
     </g>
     <g id="text_9">
      <!-- 1.3825 -->
      <g transform="translate(48.009375 272.683713) scale(0.1 -0.1)">
       <use xlink:href="#DejaVuSans-31"/>
       <use xlink:href="#DejaVuSans-2e" x="63.623047"/>
       <use xlink:href="#DejaVuSans-33" x="95.410156"/>
       <use xlink:href="#DejaVuSans-38" x="159.033203"/>
       <use xlink:href="#DejaVuSans-32" x="222.65625"/>
       <use xlink:href="#DejaVuSans-35" x="286.279297"/>
      </g>
     </g>
    </g>
    <g id="ytick_3">
     <g id="line2d_17">
      <path d="M 90 237.140765 
L 648 237.140765 
" clip-path="url(#p8efb46b8ea)" style="fill: none; stroke: #b0b0b0; stroke-width: 0.8; stroke-linecap: square"/>
     </g>
     <g id="line2d_18">
      <g>
       <use xlink:href="#m973cfc136d" x="90" y="237.140765" style="stroke: #000000; stroke-width: 0.8"/>
      </g>
     </g>
     <g id="text_10">
      <!-- 1.3850 -->
      <g transform="translate(48.009375 240.939983) scale(0.1 -0.1)">
       <use xlink:href="#DejaVuSans-31"/>
       <use xlink:href="#DejaVuSans-2e" x="63.623047"/>
       <use xlink:href="#DejaVuSans-33" x="95.410156"/>
       <use xlink:href="#DejaVuSans-38" x="159.033203"/>
       <use xlink:href="#DejaVuSans-35" x="222.65625"/>
       <use xlink:href="#DejaVuSans-30" x="286.279297"/>
      </g>
     </g>
    </g>
    <g id="ytick_4">
     <g id="line2d_19">
      <path d="M 90 205.397035 
L 648 205.397035 
" clip-path="url(#p8efb46b8ea)" style="fill: none; stroke: #b0b0b0; stroke-width: 0.8; stroke-linecap: square"/>
     </g>
     <g id="line2d_20">
      <g>
       <use xlink:href="#m973cfc136d" x="90" y="205.397035" style="stroke: #000000; stroke-width: 0.8"/>
      </g>
     </g>
     <g id="text_11">
      <!-- 1.3875 -->
      <g transform="translate(48.009375 209.196254) scale(0.1 -0.1)">
       <defs>
        <path id="DejaVuSans-37" d="M 525 4666 
L 3525 4666 
L 3525 4397 
L 1831 0 
L 1172 0 
L 2766 4134 
L 525 4134 
L 525 4666 
z
" transform="scale(0.015625)"/>
       </defs>
       <use xlink:href="#DejaVuSans-31"/>
       <use xlink:href="#DejaVuSans-2e" x="63.623047"/>
       <use xlink:href="#DejaVuSans-33" x="95.410156"/>
       <use xlink:href="#DejaVuSans-38" x="159.033203"/>
       <use xlink:href="#DejaVuSans-37" x="222.65625"/>
       <use xlink:href="#DejaVuSans-35" x="286.279297"/>
      </g>
     </g>
    </g>
    <g id="ytick_5">
     <g id="line2d_21">
      <path d="M 90 173.653306 
L 648 173.653306 
" clip-path="url(#p8efb46b8ea)" style="fill: none; stroke: #b0b0b0; stroke-width: 0.8; stroke-linecap: square"/>
     </g>
     <g id="line2d_22">
      <g>
       <use xlink:href="#m973cfc136d" x="90" y="173.653306" style="stroke: #000000; stroke-width: 0.8"/>
      </g>
     </g>
     <g id="text_12">
      <!-- 1.3900 -->
      <g transform="translate(48.009375 177.452525) scale(0.1 -0.1)">
       <defs>
        <path id="DejaVuSans-39" d="M 703 97 
L 703 672 
Q 941 559 1184 500 
Q 1428 441 1663 441 
Q 2288 441 2617 861 
Q 2947 1281 2994 2138 
Q 2813 1869 2534 1725 
Q 2256 1581 1919 1581 
Q 1219 1581 811 2004 
Q 403 2428 403 3163 
Q 403 3881 828 4315 
Q 1253 4750 1959 4750 
Q 2769 4750 3195 4129 
Q 3622 3509 3622 2328 
Q 3622 1225 3098 567 
Q 2575 -91 1691 -91 
Q 1453 -91 1209 -44 
Q 966 3 703 97 
z
M 1959 2075 
Q 2384 2075 2632 2365 
Q 2881 2656 2881 3163 
Q 2881 3666 2632 3958 
Q 2384 4250 1959 4250 
Q 1534 4250 1286 3958 
Q 1038 3666 1038 3163 
Q 1038 2656 1286 2365 
Q 1534 2075 1959 2075 
z
" transform="scale(0.015625)"/>
       </defs>
       <use xlink:href="#DejaVuSans-31"/>
       <use xlink:href="#DejaVuSans-2e" x="63.623047"/>
       <use xlink:href="#DejaVuSans-33" x="95.410156"/>
       <use xlink:href="#DejaVuSans-39" x="159.033203"/>
       <use xlink:href="#DejaVuSans-30" x="222.65625"/>
       <use xlink:href="#DejaVuSans-30" x="286.279297"/>
      </g>
     </g>
    </g>
    <g id="ytick_6">
     <g id="line2d_23">
      <path d="M 90 141.909576 
L 648 141.909576 
" clip-path="url(#p8efb46b8ea)" style="fill: none; stroke: #b0b0b0; stroke-width: 0.8; stroke-linecap: square"/>
     </g>
     <g id="line2d_24">
      <g>
       <use xlink:href="#m973cfc136d" x="90" y="141.909576" style="stroke: #000000; stroke-width: 0.8"/>
      </g>
     </g>
     <g id="text_13">
      <!-- 1.3925 -->
      <g transform="translate(48.009375 145.708795) scale(0.1 -0.1)">
       <use xlink:href="#DejaVuSans-31"/>
       <use xlink:href="#DejaVuSans-2e" x="63.623047"/>
       <use xlink:href="#DejaVuSans-33" x="95.410156"/>
       <use xlink:href="#DejaVuSans-39" x="159.033203"/>
       <use xlink:href="#DejaVuSans-32" x="222.65625"/>
       <use xlink:href="#DejaVuSans-35" x="286.279297"/>
      </g>
     </g>
    </g>
    <g id="ytick_7">
     <g id="line2d_25">
      <path d="M 90 110.165847 
L 648 110.165847 
" clip-path="url(#p8efb46b8ea)" style="fill: none; stroke: #b0b0b0; stroke-width: 0.8; stroke-linecap: square"/>
     </g>
     <g id="line2d_26">
      <g>
       <use xlink:href="#m973cfc136d" x="90" y="110.165847" style="stroke: #000000; stroke-width: 0.8"/>
      </g>
     </g>
     <g id="text_14">
      <!-- 1.3950 -->
      <g transform="translate(48.009375 113.965066) scale(0.1 -0.1)">
       <use xlink:href="#DejaVuSans-31"/>
       <use xlink:href="#DejaVuSans-2e" x="63.623047"/>
       <use xlink:href="#DejaVuSans-33" x="95.410156"/>
       <use xlink:href="#DejaVuSans-39" x="159.033203"/>
       <use xlink:href="#DejaVuSans-35" x="222.65625"/>
       <use xlink:href="#DejaVuSans-30" x="286.279297"/>
      </g>
     </g>
    </g>
    <g id="ytick_8">
     <g id="line2d_27">
      <path d="M 90 78.422118 
L 648 78.422118 
" clip-path="url(#p8efb46b8ea)" style="fill: none; stroke: #b0b0b0; stroke-width: 0.8; stroke-linecap: square"/>
     </g>
     <g id="line2d_28">
      <g>
       <use xlink:href="#m973cfc136d" x="90" y="78.422118" style="stroke: #000000; stroke-width: 0.8"/>
      </g>
     </g>
     <g id="text_15">
      <!-- 1.3975 -->
      <g transform="translate(48.009375 82.221336) scale(0.1 -0.1)">
       <use xlink:href="#DejaVuSans-31"/>
       <use xlink:href="#DejaVuSans-2e" x="63.623047"/>
       <use xlink:href="#DejaVuSans-33" x="95.410156"/>
       <use xlink:href="#DejaVuSans-39" x="159.033203"/>
       <use xlink:href="#DejaVuSans-37" x="222.65625"/>
       <use xlink:href="#DejaVuSans-35" x="286.279297"/>
      </g>
     </g>
    </g>
    <g id="ytick_9">
     <g id="line2d_29">
      <path d="M 90 46.678388 
L 648 46.678388 
" clip-path="url(#p8efb46b8ea)" style="fill: none; stroke: #b0b0b0; stroke-width: 0.8; stroke-linecap: square"/>
     </g>
     <g id="line2d_30">
      <g>
       <use xlink:href="#m973cfc136d" x="90" y="46.678388" style="stroke: #000000; stroke-width: 0.8"/>
      </g>
     </g>
     <g id="text_16">
      <!-- 1.4000 -->
      <g transform="translate(48.009375 50.477607) scale(0.1 -0.1)">
       <use xlink:href="#DejaVuSans-31"/>
       <use xlink:href="#DejaVuSans-2e" x="63.623047"/>
       <use xlink:href="#DejaVuSans-34" x="95.410156"/>
       <use xlink:href="#DejaVuSans-30" x="159.033203"/>
       <use xlink:href="#DejaVuSans-30" x="222.65625"/>
       <use xlink:href="#DejaVuSans-30" x="286.279297"/>
      </g>
     </g>
    </g>
    <g id="text_17">
     <!-- loss -->
     <g transform="translate(41.929688 191.457812) rotate(-90) scale(0.1 -0.1)">
      <defs>
       <path id="DejaVuSans-6c" d="M 603 4863 
L 1178 4863 
L 1178 0 
L 603 0 
L 603 4863 
z
" transform="scale(0.015625)"/>
       <path id="DejaVuSans-73" d="M 2834 3397 
L 2834 2853 
Q 2591 2978 2328 3040 
Q 2066 3103 1784 3103 
Q 1356 3103 1142 2972 
Q 928 2841 928 2578 
Q 928 2378 1081 2264 
Q 1234 2150 1697 2047 
L 1894 2003 
Q 2506 1872 2764 1633 
Q 3022 1394 3022 966 
Q 3022 478 2636 193 
Q 2250 -91 1575 -91 
Q 1294 -91 989 -36 
Q 684 19 347 128 
L 347 722 
Q 666 556 975 473 
Q 1284 391 1588 391 
Q 1994 391 2212 530 
Q 2431 669 2431 922 
Q 2431 1156 2273 1281 
Q 2116 1406 1581 1522 
L 1381 1569 
Q 847 1681 609 1914 
Q 372 2147 372 2553 
Q 372 3047 722 3315 
Q 1072 3584 1716 3584 
Q 2034 3584 2315 3537 
Q 2597 3491 2834 3397 
z
" transform="scale(0.015625)"/>
      </defs>
      <use xlink:href="#DejaVuSans-6c"/>
      <use xlink:href="#DejaVuSans-6f" x="27.783203"/>
      <use xlink:href="#DejaVuSans-73" x="88.964844"/>
      <use xlink:href="#DejaVuSans-73" x="141.064453"/>
     </g>
    </g>
   </g>
   <g id="line2d_31">
    <path d="M 115.363636 190.798703 
L 116.380215 185.989808 
L 117.396794 106.593854 
L 118.413372 172.896658 
L 119.429951 108.570693 
L 120.446529 193.780611 
L 121.463108 172.9678 
L 122.479687 162.768766 
L 123.496265 185.513005 
L 124.512844 262.673285 
L 125.529422 179.927604 
L 126.546001 136.484078 
L 127.56258 158.704591 
L 128.579158 184.501881 
L 129.595737 149.227573 
L 130.612316 188.89452 
L 131.628894 211.843103 
L 132.645473 217.908335 
L 133.662051 212.138267 
L 134.67863 241.20506 
L 135.695209 164.610889 
L 136.711787 197.546594 
L 137.728366 114.867514 
L 138.744944 163.720857 
L 139.761523 192.901175 
L 140.778102 185.272334 
L 141.79468 172.266976 
L 142.811259 188.457072 
L 143.827837 172.71956 
L 144.844416 151.6797 
L 145.860995 193.721578 
L 146.877573 139.086058 
L 147.894152 193.46577 
L 148.910731 93.857927 
L 149.927309 171.585829 
L 150.943888 208.455534 
L 151.960466 119.744523 
L 152.977045 205.24355 
L 153.993624 151.019745 
L 155.010202 197.502698 
L 156.026781 213.217506 
L 157.043359 138.495731 
L 158.059938 106.562067 
L 159.076517 186.389414 
L 160.093095 186.711823 
L 161.109674 216.340184 
L 162.126253 230.653343 
L 163.142831 216.92597 
L 164.15941 206.027625 
L 165.175988 221.486625 
L 166.192567 151.251335 
L 167.209146 244.638038 
L 168.225724 170.804781 
L 169.242303 140.78741 
L 170.258881 209.801177 
L 171.27546 96.24194 
L 172.292039 210.421777 
L 173.308617 259.833661 
L 174.325196 122.116427 
L 175.341774 178.586502 
L 176.358353 176.922991 
L 177.374932 178.54412 
L 178.39151 155.59705 
L 179.408089 194.790221 
L 180.424668 222.205613 
L 181.441246 136.520406 
L 182.457825 239.326609 
L 183.474403 195.887624 
L 184.490982 239.287254 
L 185.507561 165.242085 
L 186.524139 216.527878 
L 187.540718 205.196627 
L 188.557296 190.470239 
L 189.573875 150.022244 
L 190.590454 228.911122 
L 191.607032 161.029572 
L 192.623611 172.630254 
L 193.640189 230.008525 
L 194.656768 114.072843 
L 195.673347 144.405055 
L 196.689925 165.796084 
L 197.706504 162.275313 
L 198.723083 104.804709 
L 199.739661 223.215223 
L 200.75624 164.461036 
L 201.772818 213.176637 
L 202.789397 188.370794 
L 203.805976 218.548612 
L 204.822554 183.903986 
L 205.839133 213.220533 
L 206.855711 177.028947 
L 207.87229 182.033103 
L 208.888869 232.910209 
L 209.905447 211.352678 
L 210.922026 153.258446 
L 211.938604 183.354528 
L 212.955183 158.766651 
L 213.971762 228.870253 
L 214.98834 211.031782 
L 216.004919 187.399025 
L 217.021498 186.493856 
L 218.038076 224.085577 
L 219.054655 172.677177 
L 220.071233 129.842142 
L 221.087812 204.884813 
L 222.104391 181.161236 
L 223.120969 120.888849 
L 224.137548 158.450297 
L 225.154126 187.565527 
L 226.170705 201.940746 
L 227.187284 126.383431 
L 228.203862 217.442128 
L 229.220441 123.720905 
L 230.237019 226.988775 
L 231.253598 195.842214 
L 232.270177 174.790245 
L 233.286755 182.075486 
L 234.303334 193.720064 
L 235.319913 269.424204 
L 236.336491 166.749689 
L 237.35307 162.313154 
L 238.369648 186.256212 
L 239.386227 193.494529 
L 240.402806 194.511708 
L 241.419384 231.481315 
L 242.435963 206.751154 
L 243.452541 187.801658 
L 244.46912 129.72559 
L 245.485699 150.290161 
L 246.502277 239.779193 
L 247.518856 173.582345 
L 248.535435 172.761942 
L 249.552013 184.421657 
L 250.568592 227.482228 
L 251.58517 172.98445 
L 252.601749 228.73251 
L 253.618328 151.861339 
L 254.634906 224.654713 
L 255.651485 158.921045 
L 256.668063 231.517643 
L 257.684642 183.536167 
L 258.701221 213.503587 
L 259.717799 191.342106 
L 260.734378 236.120679 
L 261.750956 94.85997 
L 262.767535 161.441287 
L 263.784114 240.348329 
L 264.800692 250.987838 
L 265.817271 194.18173 
L 266.83385 228.685587 
L 267.850428 112.350299 
L 268.867007 263.50277 
L 269.883585 196.609639 
L 270.900164 218.504716 
L 271.916743 188.682607 
L 272.933321 224.651685 
L 273.9499 219.340256 
L 274.966478 227.226419 
L 275.983057 256.927436 
L 276.999636 174.328579 
L 278.016214 197.125797 
L 279.032793 188.136176 
L 280.049371 170.334033 
L 281.06595 210.788083 
L 282.082529 204.694092 
L 283.099107 130.008645 
L 284.115686 179.048168 
L 285.132265 233.968256 
L 286.148843 268.637101 
L 287.165422 176.076855 
L 288.182 196.408323 
L 289.198579 55.8 
L 290.215158 199.923039 
L 291.231736 216.882074 
L 292.248315 130.614108 
L 293.264893 247.041729 
L 295.298051 136.123827 
L 296.314629 148.685683 
L 297.331208 186.030677 
L 298.347786 175.1066 
L 299.364365 202.862565 
L 300.380944 209.375839 
L 301.397522 172.103501 
L 302.414101 116.487129 
L 303.43068 201.117316 
L 305.463837 228.087691 
L 306.480415 86.204868 
L 307.496994 185.190596 
L 308.513573 210.296144 
L 309.530151 173.816963 
L 310.54673 221.707619 
L 311.563308 225.708219 
L 312.579887 211.040864 
L 313.596466 200.413464 
L 314.613044 154.832652 
L 315.629623 235.064146 
L 316.646201 211.302727 
L 318.679359 197.346791 
L 319.695937 77.855525 
L 320.712516 156.37507 
L 321.729095 151.591908 
L 322.745673 192.863333 
L 323.762252 172.646904 
L 324.77883 146.331943 
L 325.795409 220.881161 
L 326.811988 196.405295 
L 327.828566 186.796588 
L 328.845145 105.623599 
L 329.861723 189.430355 
L 330.878302 201.463944 
L 331.894881 196.972918 
L 332.911459 173.812422 
L 333.928038 96.584027 
L 334.944617 191.800745 
L 335.961195 224.424637 
L 336.977774 192.63023 
L 339.010931 108.281584 
L 340.02751 162.868667 
L 341.044088 235.291194 
L 342.060667 150.284107 
L 343.077245 147.228029 
L 344.093824 209.418222 
L 345.110403 170.760885 
L 346.126981 184.945383 
L 347.14356 176.649019 
L 348.160138 214.790197 
L 349.176717 205.151217 
L 350.193296 134.561731 
L 351.209874 203.943317 
L 352.226453 198.769631 
L 353.243032 216.61567 
L 354.25961 247.32781 
L 355.276189 169.035314 
L 356.292767 117.785848 
L 357.309346 169.227549 
L 358.325925 213.424877 
L 359.342503 233.399121 
L 360.359082 187.096293 
L 361.37566 177.36952 
L 362.392239 130.618649 
L 363.408818 267.774316 
L 364.425396 210.240138 
L 365.441975 266.250061 
L 366.458553 203.041176 
L 367.475132 251.012056 
L 368.491711 211.549453 
L 369.508289 136.700531 
L 370.524868 219.812518 
L 371.541447 167.663939 
L 372.558025 235.062632 
L 374.591182 187.168948 
L 375.607761 182.282857 
L 376.62434 218.966382 
L 377.640918 234.463223 
L 378.657497 191.631215 
L 379.674075 236.341674 
L 380.690654 235.522784 
L 381.707233 118.200591 
L 382.723811 186.004945 
L 383.74039 236.582345 
L 384.756968 178.277716 
L 385.773547 218.73782 
L 387.806704 151.116619 
L 388.823283 200.743442 
L 389.839862 223.831282 
L 390.85644 158.627395 
L 391.873019 240.147012 
L 392.889597 183.284899 
L 393.906176 245.676409 
L 394.922755 188.620547 
L 395.939333 255.036876 
L 396.955912 129.778569 
L 397.97249 110.96076 
L 398.989069 166.814776 
L 400.005648 133.503683 
L 401.022226 180.339319 
L 402.038805 170.190236 
L 403.055383 154.060686 
L 404.071962 179.650604 
L 405.088541 152.657524 
L 406.105119 224.058331 
L 407.121698 184.347488 
L 408.138277 153.431004 
L 409.154855 179.359982 
L 410.171434 183.369664 
L 411.188012 268.366157 
L 412.204591 152.51524 
L 413.22117 215.810403 
L 414.237748 211.540371 
L 415.254327 263.072891 
L 416.270905 183.959991 
L 417.287484 180.190981 
L 418.304063 220.704063 
L 419.320641 119.976113 
L 420.33722 215.050547 
L 421.353799 163.351524 
L 422.370377 180.393811 
L 423.386956 220.651085 
L 424.403534 162.347969 
L 425.420113 192.295711 
L 426.436692 163.637606 
L 427.45327 238.721146 
L 428.469849 236.608078 
L 429.486427 235.522784 
L 430.503006 173.966815 
L 431.519585 255.84517 
L 432.536163 184.137089 
L 433.552742 183.057851 
L 434.56932 142.125485 
L 435.585899 159.76718 
L 436.602478 234.490469 
L 437.619056 143.913116 
L 438.635635 196.717109 
L 439.652214 199.010302 
L 440.668792 216.385594 
L 441.685371 164.464064 
L 442.701949 234.237688 
L 443.718528 99.420624 
L 444.735107 101.303616 
L 445.751685 224.545729 
L 446.768264 156.662665 
L 447.784842 108.71449 
L 448.801421 187.318801 
L 449.818 225.785416 
L 450.834578 209.39703 
L 451.851157 185.591716 
L 452.867735 260.107633 
L 453.884314 102.552385 
L 454.900893 113.311473 
L 455.917471 191.702357 
L 456.93405 147.167483 
L 457.950629 176.238817 
L 458.967207 229.147253 
L 459.983786 212.593878 
L 461.000364 164.698681 
L 462.016943 129.586334 
L 463.033522 167.657884 
L 464.0501 185.25417 
L 465.066679 151.643372 
L 466.083257 126.475765 
L 467.099836 208.92931 
L 468.116415 260.906845 
L 469.132993 107.318897 
L 470.149572 264.594118 
L 471.16615 210.730564 
L 472.182729 211.771961 
L 473.199308 195.345734 
L 474.215886 157.084976 
L 475.232465 185.189082 
L 476.249044 166.599837 
L 477.265622 157.410413 
L 478.282201 195.236751 
L 479.298779 127.894063 
L 480.315358 188.685635 
L 481.331937 154.958285 
L 482.348515 185.255683 
L 483.365094 193.461229 
L 484.381672 258.200423 
L 485.398251 169.194248 
L 486.41483 184.193095 
L 487.431408 85.431388 
L 488.447987 175.103573 
L 489.464565 155.650028 
L 490.481144 144.674486 
L 491.497723 196.202465 
L 492.514301 214.496547 
L 493.53088 156.431076 
L 494.547459 217.209024 
L 495.564037 113.137402 
L 496.580616 207.27488 
L 497.597194 127.780539 
L 498.613773 186.154797 
L 499.630352 88.806848 
L 500.64693 149.336556 
L 501.663509 161.094659 
L 502.680087 159.355465 
L 503.696666 199.682367 
L 504.713245 254.779554 
L 505.729823 270.485279 
L 506.746402 182.475092 
L 507.762981 252.876884 
L 508.779559 163.322765 
L 509.796138 152.536431 
L 510.812716 165.464592 
L 511.829295 186.254698 
L 512.845874 250.17803 
L 513.862452 182.915567 
L 514.879031 187.031205 
L 515.895609 173.272045 
L 516.912188 181.995262 
L 517.928767 216.916888 
L 518.945345 186.563485 
L 519.961924 125.992907 
L 520.978502 144.813743 
L 521.995081 136.971476 
L 523.01166 76.8111 
L 525.044817 203.095668 
L 526.061396 138.280791 
L 527.077974 129.250302 
L 528.094553 198.009774 
L 529.111131 209.483309 
L 530.12771 196.64294 
L 531.144289 221.77422 
L 532.160867 177.87811 
L 533.177446 180.345374 
L 534.194024 246.501353 
L 535.210603 136.979044 
L 536.227182 149.289633 
L 537.24376 253.125124 
L 538.260339 240.357411 
L 539.276917 244.86206 
L 540.293496 211.310295 
L 541.310075 183.184998 
L 542.326653 204.919627 
L 543.343232 199.087499 
L 544.359811 216.695894 
L 545.376389 162.578045 
L 546.392968 151.180193 
L 547.409546 238.781692 
L 548.426125 176.172216 
L 549.442704 132.018784 
L 550.459282 214.325504 
L 551.475861 227.836424 
L 552.492439 127.203835 
L 553.509018 205.158785 
L 554.525597 211.065083 
L 555.542175 162.805094 
L 556.558754 261.162653 
L 557.575332 166.169957 
L 558.591911 144.504957 
L 559.60849 225.134543 
L 560.625068 187.079642 
L 561.641647 228.14521 
L 562.658226 199.011816 
L 563.674804 191.883996 
L 564.691383 196.126782 
L 565.707961 240.124307 
L 566.72454 140.399914 
L 567.741119 127.841085 
L 568.757697 191.337565 
L 569.774276 224.305058 
L 570.790854 95.777247 
L 571.807433 208.460075 
L 572.824012 126.065563 
L 573.84059 213.485423 
L 574.857169 220.634435 
L 575.873747 170.046438 
L 576.890326 195.41839 
L 577.906905 157.257533 
L 578.923483 201.961937 
L 579.940062 207.355104 
L 580.956641 249.696687 
L 581.973219 178.530497 
L 582.989798 122.276875 
L 584.006376 220.395276 
L 585.022955 212.203354 
L 586.039534 194.174162 
L 587.056112 171.843151 
L 588.072691 195.003647 
L 589.089269 239.060205 
L 590.105848 159.543159 
L 591.122427 220.145523 
L 592.139005 179.125365 
L 593.155584 217.198429 
L 594.172163 172.802811 
L 595.188741 147.607958 
L 596.20532 178.574393 
L 597.221898 191.803772 
L 598.238477 171.83861 
L 599.255056 208.584195 
L 600.271634 180.928132 
L 601.288213 226.770808 
L 603.32137 134.101579 
L 604.337949 213.662521 
L 605.354527 165.764297 
L 606.371106 168.411686 
L 607.387684 161.202129 
L 608.404263 218.983033 
L 609.420842 157.021403 
L 611.453999 193.692819 
L 612.470578 208.183076 
L 613.487156 155.061214 
L 614.503735 179.874626 
L 615.520313 153.476413 
L 616.536892 192.392585 
L 617.553471 122.708267 
L 618.570049 208.933851 
L 619.586628 168.366277 
L 620.603206 218.504716 
L 621.619785 167.582201 
L 622.636364 207.757738 
L 622.636364 207.757738 
" clip-path="url(#p8efb46b8ea)" style="fill: none; stroke: #1f77b4; stroke-width: 1.5; stroke-linecap: square"/>
   </g>
   <g id="line2d_32">
    <path d="M 115.363636 307.512405 
L 123.496265 307.512405 
L 132.645473 307.541164 
L 140.778102 307.548733 
L 305.463837 307.650148 
L 317.66278 307.706153 
L 326.811988 307.648634 
L 330.878302 307.654689 
L 336.977774 307.642579 
L 355.276189 307.669825 
L 554.525597 307.7667 
L 559.60849 307.740967 
L 610.43742 307.77124 
L 617.553471 307.778809 
L 622.636364 307.8 
L 622.636364 307.8 
" clip-path="url(#p8efb46b8ea)" style="fill: none; stroke: #ff7f0e; stroke-width: 1.5; stroke-linecap: square"/>
   </g>
   <g id="patch_3">
    <path d="M 90 320.4 
L 90 43.2 
" style="fill: none; stroke: #000000; stroke-width: 0.8; stroke-linejoin: miter; stroke-linecap: square"/>
   </g>
   <g id="patch_4">
    <path d="M 648 320.4 
L 648 43.2 
" style="fill: none; stroke: #000000; stroke-width: 0.8; stroke-linejoin: miter; stroke-linecap: square"/>
   </g>
   <g id="patch_5">
    <path d="M 90 320.4 
L 648 320.4 
" style="fill: none; stroke: #000000; stroke-width: 0.8; stroke-linejoin: miter; stroke-linecap: square"/>
   </g>
   <g id="patch_6">
    <path d="M 90 43.2 
L 648 43.2 
" style="fill: none; stroke: #000000; stroke-width: 0.8; stroke-linejoin: miter; stroke-linecap: square"/>
   </g>
   <g id="text_18">
    <!-- model train and validation loss over time -->
    <g transform="translate(245.555625 37.2) scale(0.12 -0.12)">
     <defs>
      <path id="DejaVuSans-6d" d="M 3328 2828 
Q 3544 3216 3844 3400 
Q 4144 3584 4550 3584 
Q 5097 3584 5394 3201 
Q 5691 2819 5691 2113 
L 5691 0 
L 5113 0 
L 5113 2094 
Q 5113 2597 4934 2840 
Q 4756 3084 4391 3084 
Q 3944 3084 3684 2787 
Q 3425 2491 3425 1978 
L 3425 0 
L 2847 0 
L 2847 2094 
Q 2847 2600 2669 2842 
Q 2491 3084 2119 3084 
Q 1678 3084 1418 2786 
Q 1159 2488 1159 1978 
L 1159 0 
L 581 0 
L 581 3500 
L 1159 3500 
L 1159 2956 
Q 1356 3278 1631 3431 
Q 1906 3584 2284 3584 
Q 2666 3584 2933 3390 
Q 3200 3197 3328 2828 
z
" transform="scale(0.015625)"/>
      <path id="DejaVuSans-64" d="M 2906 2969 
L 2906 4863 
L 3481 4863 
L 3481 0 
L 2906 0 
L 2906 525 
Q 2725 213 2448 61 
Q 2172 -91 1784 -91 
Q 1150 -91 751 415 
Q 353 922 353 1747 
Q 353 2572 751 3078 
Q 1150 3584 1784 3584 
Q 2172 3584 2448 3432 
Q 2725 3281 2906 2969 
z
M 947 1747 
Q 947 1113 1208 752 
Q 1469 391 1925 391 
Q 2381 391 2643 752 
Q 2906 1113 2906 1747 
Q 2906 2381 2643 2742 
Q 2381 3103 1925 3103 
Q 1469 3103 1208 2742 
Q 947 2381 947 1747 
z
" transform="scale(0.015625)"/>
      <path id="DejaVuSans-20" transform="scale(0.015625)"/>
      <path id="DejaVuSans-74" d="M 1172 4494 
L 1172 3500 
L 2356 3500 
L 2356 3053 
L 1172 3053 
L 1172 1153 
Q 1172 725 1289 603 
Q 1406 481 1766 481 
L 2356 481 
L 2356 0 
L 1766 0 
Q 1100 0 847 248 
Q 594 497 594 1153 
L 594 3053 
L 172 3053 
L 172 3500 
L 594 3500 
L 594 4494 
L 1172 4494 
z
" transform="scale(0.015625)"/>
      <path id="DejaVuSans-72" d="M 2631 2963 
Q 2534 3019 2420 3045 
Q 2306 3072 2169 3072 
Q 1681 3072 1420 2755 
Q 1159 2438 1159 1844 
L 1159 0 
L 581 0 
L 581 3500 
L 1159 3500 
L 1159 2956 
Q 1341 3275 1631 3429 
Q 1922 3584 2338 3584 
Q 2397 3584 2469 3576 
Q 2541 3569 2628 3553 
L 2631 2963 
z
" transform="scale(0.015625)"/>
      <path id="DejaVuSans-61" d="M 2194 1759 
Q 1497 1759 1228 1600 
Q 959 1441 959 1056 
Q 959 750 1161 570 
Q 1363 391 1709 391 
Q 2188 391 2477 730 
Q 2766 1069 2766 1631 
L 2766 1759 
L 2194 1759 
z
M 3341 1997 
L 3341 0 
L 2766 0 
L 2766 531 
Q 2569 213 2275 61 
Q 1981 -91 1556 -91 
Q 1019 -91 701 211 
Q 384 513 384 1019 
Q 384 1609 779 1909 
Q 1175 2209 1959 2209 
L 2766 2209 
L 2766 2266 
Q 2766 2663 2505 2880 
Q 2244 3097 1772 3097 
Q 1472 3097 1187 3025 
Q 903 2953 641 2809 
L 641 3341 
Q 956 3463 1253 3523 
Q 1550 3584 1831 3584 
Q 2591 3584 2966 3190 
Q 3341 2797 3341 1997 
z
" transform="scale(0.015625)"/>
      <path id="DejaVuSans-69" d="M 603 3500 
L 1178 3500 
L 1178 0 
L 603 0 
L 603 3500 
z
M 603 4863 
L 1178 4863 
L 1178 4134 
L 603 4134 
L 603 4863 
z
" transform="scale(0.015625)"/>
      <path id="DejaVuSans-6e" d="M 3513 2113 
L 3513 0 
L 2938 0 
L 2938 2094 
Q 2938 2591 2744 2837 
Q 2550 3084 2163 3084 
Q 1697 3084 1428 2787 
Q 1159 2491 1159 1978 
L 1159 0 
L 581 0 
L 581 3500 
L 1159 3500 
L 1159 2956 
Q 1366 3272 1645 3428 
Q 1925 3584 2291 3584 
Q 2894 3584 3203 3211 
Q 3513 2838 3513 2113 
z
" transform="scale(0.015625)"/>
      <path id="DejaVuSans-76" d="M 191 3500 
L 800 3500 
L 1894 563 
L 2988 3500 
L 3597 3500 
L 2284 0 
L 1503 0 
L 191 3500 
z
" transform="scale(0.015625)"/>
     </defs>
     <use xlink:href="#DejaVuSans-6d"/>
     <use xlink:href="#DejaVuSans-6f" x="97.412109"/>
     <use xlink:href="#DejaVuSans-64" x="158.59375"/>
     <use xlink:href="#DejaVuSans-65" x="222.070312"/>
     <use xlink:href="#DejaVuSans-6c" x="283.59375"/>
     <use xlink:href="#DejaVuSans-20" x="311.376953"/>
     <use xlink:href="#DejaVuSans-74" x="343.164062"/>
     <use xlink:href="#DejaVuSans-72" x="382.373047"/>
     <use xlink:href="#DejaVuSans-61" x="423.486328"/>
     <use xlink:href="#DejaVuSans-69" x="484.765625"/>
     <use xlink:href="#DejaVuSans-6e" x="512.548828"/>
     <use xlink:href="#DejaVuSans-20" x="575.927734"/>
     <use xlink:href="#DejaVuSans-61" x="607.714844"/>
     <use xlink:href="#DejaVuSans-6e" x="668.994141"/>
     <use xlink:href="#DejaVuSans-64" x="732.373047"/>
     <use xlink:href="#DejaVuSans-20" x="795.849609"/>
     <use xlink:href="#DejaVuSans-76" x="827.636719"/>
     <use xlink:href="#DejaVuSans-61" x="886.816406"/>
     <use xlink:href="#DejaVuSans-6c" x="948.095703"/>
     <use xlink:href="#DejaVuSans-69" x="975.878906"/>
     <use xlink:href="#DejaVuSans-64" x="1003.662109"/>
     <use xlink:href="#DejaVuSans-61" x="1067.138672"/>
     <use xlink:href="#DejaVuSans-74" x="1128.417969"/>
     <use xlink:href="#DejaVuSans-69" x="1167.626953"/>
     <use xlink:href="#DejaVuSans-6f" x="1195.410156"/>
     <use xlink:href="#DejaVuSans-6e" x="1256.591797"/>
     <use xlink:href="#DejaVuSans-20" x="1319.970703"/>
     <use xlink:href="#DejaVuSans-6c" x="1351.757812"/>
     <use xlink:href="#DejaVuSans-6f" x="1379.541016"/>
     <use xlink:href="#DejaVuSans-73" x="1440.722656"/>
     <use xlink:href="#DejaVuSans-73" x="1492.822266"/>
     <use xlink:href="#DejaVuSans-20" x="1544.921875"/>
     <use xlink:href="#DejaVuSans-6f" x="1576.708984"/>
     <use xlink:href="#DejaVuSans-76" x="1637.890625"/>
     <use xlink:href="#DejaVuSans-65" x="1697.070312"/>
     <use xlink:href="#DejaVuSans-72" x="1758.59375"/>
     <use xlink:href="#DejaVuSans-20" x="1799.707031"/>
     <use xlink:href="#DejaVuSans-74" x="1831.494141"/>
     <use xlink:href="#DejaVuSans-69" x="1870.703125"/>
     <use xlink:href="#DejaVuSans-6d" x="1898.486328"/>
     <use xlink:href="#DejaVuSans-65" x="1995.898438"/>
    </g>
   </g>
   <g id="legend_1">
    <g id="patch_7">
     <path d="M 559.765625 80.55625 
L 641 80.55625 
Q 643 80.55625 643 78.55625 
L 643 50.2 
Q 643 48.2 641 48.2 
L 559.765625 48.2 
Q 557.765625 48.2 557.765625 50.2 
L 557.765625 78.55625 
Q 557.765625 80.55625 559.765625 80.55625 
z
" style="fill: #ffffff; opacity: 0.8; stroke: #cccccc; stroke-linejoin: miter"/>
    </g>
    <g id="line2d_33">
     <path d="M 561.765625 56.298437 
L 571.765625 56.298437 
L 581.765625 56.298437 
" style="fill: none; stroke: #1f77b4; stroke-width: 1.5; stroke-linecap: square"/>
    </g>
    <g id="text_19">
     <!-- train -->
     <g transform="translate(589.765625 59.798437) scale(0.1 -0.1)">
      <use xlink:href="#DejaVuSans-74"/>
      <use xlink:href="#DejaVuSans-72" x="39.208984"/>
      <use xlink:href="#DejaVuSans-61" x="80.322266"/>
      <use xlink:href="#DejaVuSans-69" x="141.601562"/>
      <use xlink:href="#DejaVuSans-6e" x="169.384766"/>
     </g>
    </g>
    <g id="line2d_34">
     <path d="M 561.765625 70.976562 
L 571.765625 70.976562 
L 581.765625 70.976562 
" style="fill: none; stroke: #ff7f0e; stroke-width: 1.5; stroke-linecap: square"/>
    </g>
    <g id="text_20">
     <!-- validation -->
     <g transform="translate(589.765625 74.476562) scale(0.1 -0.1)">
      <use xlink:href="#DejaVuSans-76"/>
      <use xlink:href="#DejaVuSans-61" x="59.179688"/>
      <use xlink:href="#DejaVuSans-6c" x="120.458984"/>
      <use xlink:href="#DejaVuSans-69" x="148.242188"/>
      <use xlink:href="#DejaVuSans-64" x="176.025391"/>
      <use xlink:href="#DejaVuSans-61" x="239.501953"/>
      <use xlink:href="#DejaVuSans-74" x="300.78125"/>
      <use xlink:href="#DejaVuSans-69" x="339.990234"/>
      <use xlink:href="#DejaVuSans-6f" x="367.773438"/>
      <use xlink:href="#DejaVuSans-6e" x="428.955078"/>
     </g>
    </g>
   </g>
  </g>
 </g>
 <defs>
  <clipPath id="p8efb46b8ea">
   <rect x="90" y="43.2" width="558" height="277.2"/>
  </clipPath>
 </defs>
</svg>
