<?xml version="1.0" encoding="utf-8" standalone="no"?>
<!DOCTYPE svg PUBLIC "-//W3C//DTD SVG 1.1//EN"
  "http://www.w3.org/Graphics/SVG/1.1/DTD/svg11.dtd">
<svg xmlns:xlink="http://www.w3.org/1999/xlink" width="720pt" height="360pt" viewBox="0 0 720 360" xmlns="http://www.w3.org/2000/svg" version="1.1">
 <metadata>
  <rdf:RDF xmlns:dc="http://purl.org/dc/elements/1.1/" xmlns:cc="http://creativecommons.org/ns#" xmlns:rdf="http://www.w3.org/1999/02/22-rdf-syntax-ns#">
   <cc:Work>
    <dc:type rdf:resource="http://purl.org/dc/dcmitype/StillImage"/>
    <dc:date>2023-05-24T11:43:21.572016</dc:date>
    <dc:format>image/svg+xml</dc:format>
    <dc:creator>
     <cc:Agent>
      <dc:title>Matplotlib v3.7.1, https://matplotlib.org/</dc:title>
     </cc:Agent>
    </dc:creator>
   </cc:Work>
  </rdf:RDF>
 </metadata>
 <defs>
  <style type="text/css">*{stroke-linejoin: round; stroke-linecap: butt}</style>
 </defs>
 <g id="figure_1">
  <g id="patch_1">
   <path d="M 0 360 
L 720 360 
L 720 0 
L 0 0 
z
" style="fill: #ffffff"/>
  </g>
  <g id="axes_1">
   <g id="patch_2">
    <path d="M 90 320.4 
L 648 320.4 
L 648 43.2 
L 90 43.2 
z
" style="fill: #ffffff"/>
   </g>
   <g id="matplotlib.axis_1">
    <g id="xtick_1">
     <g id="line2d_1">
      <path d="M 115.363636 320.4 
L 115.363636 43.2 
" clip-path="url(#p159f03b474)" style="fill: none; stroke: #b0b0b0; stroke-width: 0.8; stroke-linecap: square"/>
     </g>
     <g id="line2d_2">
      <defs>
       <path id="me53418185b" d="M 0 0 
L 0 3.5 
" style="stroke: #000000; stroke-width: 0.8"/>
      </defs>
      <g>
       <use xlink:href="#me53418185b" x="115.363636" y="320.4" style="stroke: #000000; stroke-width: 0.8"/>
      </g>
     </g>
     <g id="text_1">
      <!-- 0 -->
      <g transform="translate(112.182386 334.998438) scale(0.1 -0.1)">
       <defs>
        <path id="DejaVuSans-30" d="M 2034 4250 
Q 1547 4250 1301 3770 
Q 1056 3291 1056 2328 
Q 1056 1369 1301 889 
Q 1547 409 2034 409 
Q 2525 409 2770 889 
Q 3016 1369 3016 2328 
Q 3016 3291 2770 3770 
Q 2525 4250 2034 4250 
z
M 2034 4750 
Q 2819 4750 3233 4129 
Q 3647 3509 3647 2328 
Q 3647 1150 3233 529 
Q 2819 -91 2034 -91 
Q 1250 -91 836 529 
Q 422 1150 422 2328 
Q 422 3509 836 4129 
Q 1250 4750 2034 4750 
z
" transform="scale(0.015625)"/>
       </defs>
       <use xlink:href="#DejaVuSans-30"/>
      </g>
     </g>
    </g>
    <g id="xtick_2">
     <g id="line2d_3">
      <path d="M 217.021498 320.4 
L 217.021498 43.2 
" clip-path="url(#p159f03b474)" style="fill: none; stroke: #b0b0b0; stroke-width: 0.8; stroke-linecap: square"/>
     </g>
     <g id="line2d_4">
      <g>
       <use xlink:href="#me53418185b" x="217.021498" y="320.4" style="stroke: #000000; stroke-width: 0.8"/>
      </g>
     </g>
     <g id="text_2">
      <!-- 100 -->
      <g transform="translate(207.477748 334.998438) scale(0.1 -0.1)">
       <defs>
        <path id="DejaVuSans-31" d="M 794 531 
L 1825 531 
L 1825 4091 
L 703 3866 
L 703 4441 
L 1819 4666 
L 2450 4666 
L 2450 531 
L 3481 531 
L 3481 0 
L 794 0 
L 794 531 
z
" transform="scale(0.015625)"/>
       </defs>
       <use xlink:href="#DejaVuSans-31"/>
       <use xlink:href="#DejaVuSans-30" x="63.623047"/>
       <use xlink:href="#DejaVuSans-30" x="127.246094"/>
      </g>
     </g>
    </g>
    <g id="xtick_3">
     <g id="line2d_5">
      <path d="M 318.679359 320.4 
L 318.679359 43.2 
" clip-path="url(#p159f03b474)" style="fill: none; stroke: #b0b0b0; stroke-width: 0.8; stroke-linecap: square"/>
     </g>
     <g id="line2d_6">
      <g>
       <use xlink:href="#me53418185b" x="318.679359" y="320.4" style="stroke: #000000; stroke-width: 0.8"/>
      </g>
     </g>
     <g id="text_3">
      <!-- 200 -->
      <g transform="translate(309.135609 334.998438) scale(0.1 -0.1)">
       <defs>
        <path id="DejaVuSans-32" d="M 1228 531 
L 3431 531 
L 3431 0 
L 469 0 
L 469 531 
Q 828 903 1448 1529 
Q 2069 2156 2228 2338 
Q 2531 2678 2651 2914 
Q 2772 3150 2772 3378 
Q 2772 3750 2511 3984 
Q 2250 4219 1831 4219 
Q 1534 4219 1204 4116 
Q 875 4013 500 3803 
L 500 4441 
Q 881 4594 1212 4672 
Q 1544 4750 1819 4750 
Q 2544 4750 2975 4387 
Q 3406 4025 3406 3419 
Q 3406 3131 3298 2873 
Q 3191 2616 2906 2266 
Q 2828 2175 2409 1742 
Q 1991 1309 1228 531 
z
" transform="scale(0.015625)"/>
       </defs>
       <use xlink:href="#DejaVuSans-32"/>
       <use xlink:href="#DejaVuSans-30" x="63.623047"/>
       <use xlink:href="#DejaVuSans-30" x="127.246094"/>
      </g>
     </g>
    </g>
    <g id="xtick_4">
     <g id="line2d_7">
      <path d="M 420.33722 320.4 
L 420.33722 43.2 
" clip-path="url(#p159f03b474)" style="fill: none; stroke: #b0b0b0; stroke-width: 0.8; stroke-linecap: square"/>
     </g>
     <g id="line2d_8">
      <g>
       <use xlink:href="#me53418185b" x="420.33722" y="320.4" style="stroke: #000000; stroke-width: 0.8"/>
      </g>
     </g>
     <g id="text_4">
      <!-- 300 -->
      <g transform="translate(410.79347 334.998438) scale(0.1 -0.1)">
       <defs>
        <path id="DejaVuSans-33" d="M 2597 2516 
Q 3050 2419 3304 2112 
Q 3559 1806 3559 1356 
Q 3559 666 3084 287 
Q 2609 -91 1734 -91 
Q 1441 -91 1130 -33 
Q 819 25 488 141 
L 488 750 
Q 750 597 1062 519 
Q 1375 441 1716 441 
Q 2309 441 2620 675 
Q 2931 909 2931 1356 
Q 2931 1769 2642 2001 
Q 2353 2234 1838 2234 
L 1294 2234 
L 1294 2753 
L 1863 2753 
Q 2328 2753 2575 2939 
Q 2822 3125 2822 3475 
Q 2822 3834 2567 4026 
Q 2313 4219 1838 4219 
Q 1578 4219 1281 4162 
Q 984 4106 628 3988 
L 628 4550 
Q 988 4650 1302 4700 
Q 1616 4750 1894 4750 
Q 2613 4750 3031 4423 
Q 3450 4097 3450 3541 
Q 3450 3153 3228 2886 
Q 3006 2619 2597 2516 
z
" transform="scale(0.015625)"/>
       </defs>
       <use xlink:href="#DejaVuSans-33"/>
       <use xlink:href="#DejaVuSans-30" x="63.623047"/>
       <use xlink:href="#DejaVuSans-30" x="127.246094"/>
      </g>
     </g>
    </g>
    <g id="xtick_5">
     <g id="line2d_9">
      <path d="M 521.995081 320.4 
L 521.995081 43.2 
" clip-path="url(#p159f03b474)" style="fill: none; stroke: #b0b0b0; stroke-width: 0.8; stroke-linecap: square"/>
     </g>
     <g id="line2d_10">
      <g>
       <use xlink:href="#me53418185b" x="521.995081" y="320.4" style="stroke: #000000; stroke-width: 0.8"/>
      </g>
     </g>
     <g id="text_5">
      <!-- 400 -->
      <g transform="translate(512.451331 334.998438) scale(0.1 -0.1)">
       <defs>
        <path id="DejaVuSans-34" d="M 2419 4116 
L 825 1625 
L 2419 1625 
L 2419 4116 
z
M 2253 4666 
L 3047 4666 
L 3047 1625 
L 3713 1625 
L 3713 1100 
L 3047 1100 
L 3047 0 
L 2419 0 
L 2419 1100 
L 313 1100 
L 313 1709 
L 2253 4666 
z
" transform="scale(0.015625)"/>
       </defs>
       <use xlink:href="#DejaVuSans-34"/>
       <use xlink:href="#DejaVuSans-30" x="63.623047"/>
       <use xlink:href="#DejaVuSans-30" x="127.246094"/>
      </g>
     </g>
    </g>
    <g id="xtick_6">
     <g id="line2d_11">
      <path d="M 623.652942 320.4 
L 623.652942 43.2 
" clip-path="url(#p159f03b474)" style="fill: none; stroke: #b0b0b0; stroke-width: 0.8; stroke-linecap: square"/>
     </g>
     <g id="line2d_12">
      <g>
       <use xlink:href="#me53418185b" x="623.652942" y="320.4" style="stroke: #000000; stroke-width: 0.8"/>
      </g>
     </g>
     <g id="text_6">
      <!-- 500 -->
      <g transform="translate(614.109192 334.998438) scale(0.1 -0.1)">
       <defs>
        <path id="DejaVuSans-35" d="M 691 4666 
L 3169 4666 
L 3169 4134 
L 1269 4134 
L 1269 2991 
Q 1406 3038 1543 3061 
Q 1681 3084 1819 3084 
Q 2600 3084 3056 2656 
Q 3513 2228 3513 1497 
Q 3513 744 3044 326 
Q 2575 -91 1722 -91 
Q 1428 -91 1123 -41 
Q 819 9 494 109 
L 494 744 
Q 775 591 1075 516 
Q 1375 441 1709 441 
Q 2250 441 2565 725 
Q 2881 1009 2881 1497 
Q 2881 1984 2565 2268 
Q 2250 2553 1709 2553 
Q 1456 2553 1204 2497 
Q 953 2441 691 2322 
L 691 4666 
z
" transform="scale(0.015625)"/>
       </defs>
       <use xlink:href="#DejaVuSans-35"/>
       <use xlink:href="#DejaVuSans-30" x="63.623047"/>
       <use xlink:href="#DejaVuSans-30" x="127.246094"/>
      </g>
     </g>
    </g>
    <g id="text_7">
     <!-- epoch -->
     <g transform="translate(353.771875 348.676562) scale(0.1 -0.1)">
      <defs>
       <path id="DejaVuSans-65" d="M 3597 1894 
L 3597 1613 
L 953 1613 
Q 991 1019 1311 708 
Q 1631 397 2203 397 
Q 2534 397 2845 478 
Q 3156 559 3463 722 
L 3463 178 
Q 3153 47 2828 -22 
Q 2503 -91 2169 -91 
Q 1331 -91 842 396 
Q 353 884 353 1716 
Q 353 2575 817 3079 
Q 1281 3584 2069 3584 
Q 2775 3584 3186 3129 
Q 3597 2675 3597 1894 
z
M 3022 2063 
Q 3016 2534 2758 2815 
Q 2500 3097 2075 3097 
Q 1594 3097 1305 2825 
Q 1016 2553 972 2059 
L 3022 2063 
z
" transform="scale(0.015625)"/>
       <path id="DejaVuSans-70" d="M 1159 525 
L 1159 -1331 
L 581 -1331 
L 581 3500 
L 1159 3500 
L 1159 2969 
Q 1341 3281 1617 3432 
Q 1894 3584 2278 3584 
Q 2916 3584 3314 3078 
Q 3713 2572 3713 1747 
Q 3713 922 3314 415 
Q 2916 -91 2278 -91 
Q 1894 -91 1617 61 
Q 1341 213 1159 525 
z
M 3116 1747 
Q 3116 2381 2855 2742 
Q 2594 3103 2138 3103 
Q 1681 3103 1420 2742 
Q 1159 2381 1159 1747 
Q 1159 1113 1420 752 
Q 1681 391 2138 391 
Q 2594 391 2855 752 
Q 3116 1113 3116 1747 
z
" transform="scale(0.015625)"/>
       <path id="DejaVuSans-6f" d="M 1959 3097 
Q 1497 3097 1228 2736 
Q 959 2375 959 1747 
Q 959 1119 1226 758 
Q 1494 397 1959 397 
Q 2419 397 2687 759 
Q 2956 1122 2956 1747 
Q 2956 2369 2687 2733 
Q 2419 3097 1959 3097 
z
M 1959 3584 
Q 2709 3584 3137 3096 
Q 3566 2609 3566 1747 
Q 3566 888 3137 398 
Q 2709 -91 1959 -91 
Q 1206 -91 779 398 
Q 353 888 353 1747 
Q 353 2609 779 3096 
Q 1206 3584 1959 3584 
z
" transform="scale(0.015625)"/>
       <path id="DejaVuSans-63" d="M 3122 3366 
L 3122 2828 
Q 2878 2963 2633 3030 
Q 2388 3097 2138 3097 
Q 1578 3097 1268 2742 
Q 959 2388 959 1747 
Q 959 1106 1268 751 
Q 1578 397 2138 397 
Q 2388 397 2633 464 
Q 2878 531 3122 666 
L 3122 134 
Q 2881 22 2623 -34 
Q 2366 -91 2075 -91 
Q 1284 -91 818 406 
Q 353 903 353 1747 
Q 353 2603 823 3093 
Q 1294 3584 2113 3584 
Q 2378 3584 2631 3529 
Q 2884 3475 3122 3366 
z
" transform="scale(0.015625)"/>
       <path id="DejaVuSans-68" d="M 3513 2113 
L 3513 0 
L 2938 0 
L 2938 2094 
Q 2938 2591 2744 2837 
Q 2550 3084 2163 3084 
Q 1697 3084 1428 2787 
Q 1159 2491 1159 1978 
L 1159 0 
L 581 0 
L 581 4863 
L 1159 4863 
L 1159 2956 
Q 1366 3272 1645 3428 
Q 1925 3584 2291 3584 
Q 2894 3584 3203 3211 
Q 3513 2838 3513 2113 
z
" transform="scale(0.015625)"/>
      </defs>
      <use xlink:href="#DejaVuSans-65"/>
      <use xlink:href="#DejaVuSans-70" x="61.523438"/>
      <use xlink:href="#DejaVuSans-6f" x="125"/>
      <use xlink:href="#DejaVuSans-63" x="186.181641"/>
      <use xlink:href="#DejaVuSans-68" x="241.162109"/>
     </g>
    </g>
   </g>
   <g id="matplotlib.axis_2">
    <g id="ytick_1">
     <g id="line2d_13">
      <path d="M 90 297.856676 
L 648 297.856676 
" clip-path="url(#p159f03b474)" style="fill: none; stroke: #b0b0b0; stroke-width: 0.8; stroke-linecap: square"/>
     </g>
     <g id="line2d_14">
      <defs>
       <path id="m60d01da0cd" d="M 0 0 
L -3.5 0 
" style="stroke: #000000; stroke-width: 0.8"/>
      </defs>
      <g>
       <use xlink:href="#m60d01da0cd" x="90" y="297.856676" style="stroke: #000000; stroke-width: 0.8"/>
      </g>
     </g>
     <g id="text_8">
      <!-- 1.3800 -->
      <g transform="translate(48.009375 301.655895) scale(0.1 -0.1)">
       <defs>
        <path id="DejaVuSans-2e" d="M 684 794 
L 1344 794 
L 1344 0 
L 684 0 
L 684 794 
z
" transform="scale(0.015625)"/>
        <path id="DejaVuSans-38" d="M 2034 2216 
Q 1584 2216 1326 1975 
Q 1069 1734 1069 1313 
Q 1069 891 1326 650 
Q 1584 409 2034 409 
Q 2484 409 2743 651 
Q 3003 894 3003 1313 
Q 3003 1734 2745 1975 
Q 2488 2216 2034 2216 
z
M 1403 2484 
Q 997 2584 770 2862 
Q 544 3141 544 3541 
Q 544 4100 942 4425 
Q 1341 4750 2034 4750 
Q 2731 4750 3128 4425 
Q 3525 4100 3525 3541 
Q 3525 3141 3298 2862 
Q 3072 2584 2669 2484 
Q 3125 2378 3379 2068 
Q 3634 1759 3634 1313 
Q 3634 634 3220 271 
Q 2806 -91 2034 -91 
Q 1263 -91 848 271 
Q 434 634 434 1313 
Q 434 1759 690 2068 
Q 947 2378 1403 2484 
z
M 1172 3481 
Q 1172 3119 1398 2916 
Q 1625 2713 2034 2713 
Q 2441 2713 2670 2916 
Q 2900 3119 2900 3481 
Q 2900 3844 2670 4047 
Q 2441 4250 2034 4250 
Q 1625 4250 1398 4047 
Q 1172 3844 1172 3481 
z
" transform="scale(0.015625)"/>
       </defs>
       <use xlink:href="#DejaVuSans-31"/>
       <use xlink:href="#DejaVuSans-2e" x="63.623047"/>
       <use xlink:href="#DejaVuSans-33" x="95.410156"/>
       <use xlink:href="#DejaVuSans-38" x="159.033203"/>
       <use xlink:href="#DejaVuSans-30" x="222.65625"/>
       <use xlink:href="#DejaVuSans-30" x="286.279297"/>
      </g>
     </g>
    </g>
    <g id="ytick_2">
     <g id="line2d_15">
      <path d="M 90 264.620259 
L 648 264.620259 
" clip-path="url(#p159f03b474)" style="fill: none; stroke: #b0b0b0; stroke-width: 0.8; stroke-linecap: square"/>
     </g>
     <g id="line2d_16">
      <g>
       <use xlink:href="#m60d01da0cd" x="90" y="264.620259" style="stroke: #000000; stroke-width: 0.8"/>
      </g>
     </g>
     <g id="text_9">
      <!-- 1.3825 -->
      <g transform="translate(48.009375 268.419477) scale(0.1 -0.1)">
       <use xlink:href="#DejaVuSans-31"/>
       <use xlink:href="#DejaVuSans-2e" x="63.623047"/>
       <use xlink:href="#DejaVuSans-33" x="95.410156"/>
       <use xlink:href="#DejaVuSans-38" x="159.033203"/>
       <use xlink:href="#DejaVuSans-32" x="222.65625"/>
       <use xlink:href="#DejaVuSans-35" x="286.279297"/>
      </g>
     </g>
    </g>
    <g id="ytick_3">
     <g id="line2d_17">
      <path d="M 90 231.383841 
L 648 231.383841 
" clip-path="url(#p159f03b474)" style="fill: none; stroke: #b0b0b0; stroke-width: 0.8; stroke-linecap: square"/>
     </g>
     <g id="line2d_18">
      <g>
       <use xlink:href="#m60d01da0cd" x="90" y="231.383841" style="stroke: #000000; stroke-width: 0.8"/>
      </g>
     </g>
     <g id="text_10">
      <!-- 1.3850 -->
      <g transform="translate(48.009375 235.18306) scale(0.1 -0.1)">
       <use xlink:href="#DejaVuSans-31"/>
       <use xlink:href="#DejaVuSans-2e" x="63.623047"/>
       <use xlink:href="#DejaVuSans-33" x="95.410156"/>
       <use xlink:href="#DejaVuSans-38" x="159.033203"/>
       <use xlink:href="#DejaVuSans-35" x="222.65625"/>
       <use xlink:href="#DejaVuSans-30" x="286.279297"/>
      </g>
     </g>
    </g>
    <g id="ytick_4">
     <g id="line2d_19">
      <path d="M 90 198.147424 
L 648 198.147424 
" clip-path="url(#p159f03b474)" style="fill: none; stroke: #b0b0b0; stroke-width: 0.8; stroke-linecap: square"/>
     </g>
     <g id="line2d_20">
      <g>
       <use xlink:href="#m60d01da0cd" x="90" y="198.147424" style="stroke: #000000; stroke-width: 0.8"/>
      </g>
     </g>
     <g id="text_11">
      <!-- 1.3875 -->
      <g transform="translate(48.009375 201.946642) scale(0.1 -0.1)">
       <defs>
        <path id="DejaVuSans-37" d="M 525 4666 
L 3525 4666 
L 3525 4397 
L 1831 0 
L 1172 0 
L 2766 4134 
L 525 4134 
L 525 4666 
z
" transform="scale(0.015625)"/>
       </defs>
       <use xlink:href="#DejaVuSans-31"/>
       <use xlink:href="#DejaVuSans-2e" x="63.623047"/>
       <use xlink:href="#DejaVuSans-33" x="95.410156"/>
       <use xlink:href="#DejaVuSans-38" x="159.033203"/>
       <use xlink:href="#DejaVuSans-37" x="222.65625"/>
       <use xlink:href="#DejaVuSans-35" x="286.279297"/>
      </g>
     </g>
    </g>
    <g id="ytick_5">
     <g id="line2d_21">
      <path d="M 90 164.911006 
L 648 164.911006 
" clip-path="url(#p159f03b474)" style="fill: none; stroke: #b0b0b0; stroke-width: 0.8; stroke-linecap: square"/>
     </g>
     <g id="line2d_22">
      <g>
       <use xlink:href="#m60d01da0cd" x="90" y="164.911006" style="stroke: #000000; stroke-width: 0.8"/>
      </g>
     </g>
     <g id="text_12">
      <!-- 1.3900 -->
      <g transform="translate(48.009375 168.710225) scale(0.1 -0.1)">
       <defs>
        <path id="DejaVuSans-39" d="M 703 97 
L 703 672 
Q 941 559 1184 500 
Q 1428 441 1663 441 
Q 2288 441 2617 861 
Q 2947 1281 2994 2138 
Q 2813 1869 2534 1725 
Q 2256 1581 1919 1581 
Q 1219 1581 811 2004 
Q 403 2428 403 3163 
Q 403 3881 828 4315 
Q 1253 4750 1959 4750 
Q 2769 4750 3195 4129 
Q 3622 3509 3622 2328 
Q 3622 1225 3098 567 
Q 2575 -91 1691 -91 
Q 1453 -91 1209 -44 
Q 966 3 703 97 
z
M 1959 2075 
Q 2384 2075 2632 2365 
Q 2881 2656 2881 3163 
Q 2881 3666 2632 3958 
Q 2384 4250 1959 4250 
Q 1534 4250 1286 3958 
Q 1038 3666 1038 3163 
Q 1038 2656 1286 2365 
Q 1534 2075 1959 2075 
z
" transform="scale(0.015625)"/>
       </defs>
       <use xlink:href="#DejaVuSans-31"/>
       <use xlink:href="#DejaVuSans-2e" x="63.623047"/>
       <use xlink:href="#DejaVuSans-33" x="95.410156"/>
       <use xlink:href="#DejaVuSans-39" x="159.033203"/>
       <use xlink:href="#DejaVuSans-30" x="222.65625"/>
       <use xlink:href="#DejaVuSans-30" x="286.279297"/>
      </g>
     </g>
    </g>
    <g id="ytick_6">
     <g id="line2d_23">
      <path d="M 90 131.674589 
L 648 131.674589 
" clip-path="url(#p159f03b474)" style="fill: none; stroke: #b0b0b0; stroke-width: 0.8; stroke-linecap: square"/>
     </g>
     <g id="line2d_24">
      <g>
       <use xlink:href="#m60d01da0cd" x="90" y="131.674589" style="stroke: #000000; stroke-width: 0.8"/>
      </g>
     </g>
     <g id="text_13">
      <!-- 1.3925 -->
      <g transform="translate(48.009375 135.473807) scale(0.1 -0.1)">
       <use xlink:href="#DejaVuSans-31"/>
       <use xlink:href="#DejaVuSans-2e" x="63.623047"/>
       <use xlink:href="#DejaVuSans-33" x="95.410156"/>
       <use xlink:href="#DejaVuSans-39" x="159.033203"/>
       <use xlink:href="#DejaVuSans-32" x="222.65625"/>
       <use xlink:href="#DejaVuSans-35" x="286.279297"/>
      </g>
     </g>
    </g>
    <g id="ytick_7">
     <g id="line2d_25">
      <path d="M 90 98.438171 
L 648 98.438171 
" clip-path="url(#p159f03b474)" style="fill: none; stroke: #b0b0b0; stroke-width: 0.8; stroke-linecap: square"/>
     </g>
     <g id="line2d_26">
      <g>
       <use xlink:href="#m60d01da0cd" x="90" y="98.438171" style="stroke: #000000; stroke-width: 0.8"/>
      </g>
     </g>
     <g id="text_14">
      <!-- 1.3950 -->
      <g transform="translate(48.009375 102.23739) scale(0.1 -0.1)">
       <use xlink:href="#DejaVuSans-31"/>
       <use xlink:href="#DejaVuSans-2e" x="63.623047"/>
       <use xlink:href="#DejaVuSans-33" x="95.410156"/>
       <use xlink:href="#DejaVuSans-39" x="159.033203"/>
       <use xlink:href="#DejaVuSans-35" x="222.65625"/>
       <use xlink:href="#DejaVuSans-30" x="286.279297"/>
      </g>
     </g>
    </g>
    <g id="ytick_8">
     <g id="line2d_27">
      <path d="M 90 65.201754 
L 648 65.201754 
" clip-path="url(#p159f03b474)" style="fill: none; stroke: #b0b0b0; stroke-width: 0.8; stroke-linecap: square"/>
     </g>
     <g id="line2d_28">
      <g>
       <use xlink:href="#m60d01da0cd" x="90" y="65.201754" style="stroke: #000000; stroke-width: 0.8"/>
      </g>
     </g>
     <g id="text_15">
      <!-- 1.3975 -->
      <g transform="translate(48.009375 69.000972) scale(0.1 -0.1)">
       <use xlink:href="#DejaVuSans-31"/>
       <use xlink:href="#DejaVuSans-2e" x="63.623047"/>
       <use xlink:href="#DejaVuSans-33" x="95.410156"/>
       <use xlink:href="#DejaVuSans-39" x="159.033203"/>
       <use xlink:href="#DejaVuSans-37" x="222.65625"/>
       <use xlink:href="#DejaVuSans-35" x="286.279297"/>
      </g>
     </g>
    </g>
    <g id="text_16">
     <!-- loss -->
     <g transform="translate(41.929688 191.457812) rotate(-90) scale(0.1 -0.1)">
      <defs>
       <path id="DejaVuSans-6c" d="M 603 4863 
L 1178 4863 
L 1178 0 
L 603 0 
L 603 4863 
z
" transform="scale(0.015625)"/>
       <path id="DejaVuSans-73" d="M 2834 3397 
L 2834 2853 
Q 2591 2978 2328 3040 
Q 2066 3103 1784 3103 
Q 1356 3103 1142 2972 
Q 928 2841 928 2578 
Q 928 2378 1081 2264 
Q 1234 2150 1697 2047 
L 1894 2003 
Q 2506 1872 2764 1633 
Q 3022 1394 3022 966 
Q 3022 478 2636 193 
Q 2250 -91 1575 -91 
Q 1294 -91 989 -36 
Q 684 19 347 128 
L 347 722 
Q 666 556 975 473 
Q 1284 391 1588 391 
Q 1994 391 2212 530 
Q 2431 669 2431 922 
Q 2431 1156 2273 1281 
Q 2116 1406 1581 1522 
L 1381 1569 
Q 847 1681 609 1914 
Q 372 2147 372 2553 
Q 372 3047 722 3315 
Q 1072 3584 1716 3584 
Q 2034 3584 2315 3537 
Q 2597 3491 2834 3397 
z
" transform="scale(0.015625)"/>
      </defs>
      <use xlink:href="#DejaVuSans-6c"/>
      <use xlink:href="#DejaVuSans-6f" x="27.783203"/>
      <use xlink:href="#DejaVuSans-73" x="88.964844"/>
      <use xlink:href="#DejaVuSans-73" x="141.064453"/>
     </g>
    </g>
   </g>
   <g id="line2d_29">
    <path d="M 115.363636 115.694118 
L 116.380215 227.494781 
L 117.396794 103.028109 
L 118.413372 146.455782 
L 119.429951 141.282878 
L 120.446529 164.150475 
L 121.463108 179.879971 
L 122.479687 228.509076 
L 123.496265 218.129985 
L 124.512844 182.64551 
L 125.529422 219.141111 
L 126.546001 218.523025 
L 127.56258 167.072913 
L 128.579158 255.387892 
L 129.595737 159.467285 
L 130.612316 184.056014 
L 131.628894 194.736223 
L 132.645473 207.94266 
L 133.662051 215.930233 
L 134.67863 194.647472 
L 135.695209 191.541194 
L 136.711787 207.598751 
L 137.728366 107.879292 
L 138.744944 199.013695 
L 139.761523 149.563646 
L 140.778102 77.512252 
L 141.79468 196.93756 
L 142.811259 129.391854 
L 143.827837 155.869708 
L 144.844416 68.255225 
L 145.860995 166.938201 
L 146.877573 136.938843 
L 147.894152 224.735581 
L 148.910731 201.33548 
L 149.927309 192.682276 
L 150.943888 252.31648 
L 151.960466 187.174971 
L 152.977045 152.990061 
L 153.993624 190.799491 
L 155.010202 120.019135 
L 156.026781 200.661924 
L 157.043359 208.692288 
L 158.059938 171.20458 
L 159.076517 201.262577 
L 160.093095 135.095679 
L 161.109674 149.880613 
L 162.126253 210.345272 
L 163.142831 205.87128 
L 164.15941 180.802346 
L 165.175988 187.056108 
L 166.192567 144.289312 
L 167.209146 165.301066 
L 168.225724 138.427004 
L 169.242303 198.658692 
L 170.258881 166.296343 
L 171.27546 172.481957 
L 172.292039 188.834294 
L 173.308617 188.010179 
L 174.325196 80.732638 
L 175.341774 196.582557 
L 176.358353 176.531213 
L 177.374932 186.678917 
L 178.39151 127.16833 
L 179.408089 134.314355 
L 180.424668 220.385207 
L 181.441246 158.807993 
L 182.457825 193.384358 
L 183.474403 125.648472 
L 184.490982 160.304078 
L 185.507561 216.337536 
L 186.524139 128.165191 
L 187.540718 187.361982 
L 188.557296 215.62753 
L 189.573875 235.165386 
L 190.590454 199.761738 
L 191.607032 135.672559 
L 192.623611 183.835722 
L 193.640189 143.19419 
L 194.656768 184.548898 
L 195.673347 150.671446 
L 196.689925 162.1203 
L 197.706504 126.780045 
L 198.723083 172.31238 
L 199.739661 103.907693 
L 200.75624 187.918259 
L 201.772818 163.95871 
L 202.789397 219.152205 
L 203.805976 122.43601 
L 204.822554 148.394037 
L 205.839133 202.314908 
L 206.855711 175.879846 
L 207.87229 231.124055 
L 208.888869 124.586632 
L 209.905447 208.33253 
L 210.922026 190.924693 
L 211.938604 224.134929 
L 212.955183 191.178266 
L 213.971762 224.385333 
L 214.98834 145.991426 
L 216.004919 146.972439 
L 217.021498 187.133765 
L 218.038076 140.078403 
L 219.054655 132.954566 
L 220.071233 175.876676 
L 221.087812 177.266577 
L 222.104391 154.845904 
L 224.137548 222.229956 
L 225.154126 177.986092 
L 226.170705 149.929743 
L 227.187284 239.57123 
L 228.203862 168.882795 
L 229.220441 181.865771 
L 230.237019 208.695457 
L 231.253598 188.504648 
L 232.270177 199.25142 
L 233.286755 203.55425 
L 234.303334 168.927171 
L 235.319913 107.484668 
L 236.336491 190.801075 
L 237.35307 190.921523 
L 238.369648 174.561262 
L 239.386227 140.477781 
L 240.402806 144.777441 
L 241.419384 177.456757 
L 242.435963 174.391685 
L 243.452541 195.592034 
L 244.46912 185.425312 
L 245.485699 219.470757 
L 246.502277 117.912888 
L 247.518856 194.969194 
L 248.535435 181.897467 
L 249.552013 200.679358 
L 250.568592 179.477423 
L 251.58517 177.504302 
L 252.601749 158.188323 
L 253.618328 143.908951 
L 254.634906 165.722632 
L 255.651485 154.291211 
L 256.668063 134.783466 
L 257.684642 133.195461 
L 258.701221 216.174298 
L 259.717799 216.175883 
L 260.734378 200.479668 
L 261.750956 205.398999 
L 262.767535 169.055542 
L 263.784114 153.547923 
L 264.800692 156.730274 
L 265.817271 177.417136 
L 266.83385 167.397804 
L 267.850428 201.224541 
L 268.867007 189.935755 
L 269.883585 138.1766 
L 270.900164 139.545898 
L 271.916743 191.415992 
L 272.933321 184.850017 
L 273.9499 163.226516 
L 274.966478 117.152167 
L 275.983057 169.004827 
L 276.999636 191.230566 
L 278.016214 161.285092 
L 279.032793 212.67815 
L 280.049371 209.793749 
L 281.06595 192.029323 
L 282.082529 189.027644 
L 283.099107 167.524591 
L 284.115686 161.885745 
L 285.132265 183.139979 
L 286.148843 99.722142 
L 287.165422 217.045958 
L 288.182 201.224541 
L 289.198579 176.594607 
L 290.215158 114.392968 
L 291.231736 231.482228 
L 292.248315 146.9138 
L 293.264893 168.69103 
L 294.281472 159.990281 
L 295.298051 157.993388 
L 296.314629 104.687433 
L 297.331208 171.638825 
L 298.347786 219.607053 
L 299.364365 245.953364 
L 300.380944 168.927171 
L 301.397522 178.965521 
L 302.414101 175.173009 
L 303.43068 246.084906 
L 304.447258 172.356755 
L 305.463837 145.565105 
L 306.480415 203.427463 
L 307.496994 141.430268 
L 308.513573 197.165776 
L 309.530151 212.91746 
L 310.54673 134.192322 
L 311.563308 145.397112 
L 312.579887 165.851004 
L 313.596466 206.730261 
L 314.613044 219.166468 
L 315.629623 259.812754 
L 316.646201 211.03309 
L 317.66278 95.137212 
L 318.679359 219.608637 
L 319.695937 167.698923 
L 320.712516 221.454971 
L 321.729095 189.702784 
L 322.745673 140.213114 
L 323.762252 149.145249 
L 325.795409 208.701797 
L 326.811988 225.737198 
L 327.828566 197.058008 
L 328.845145 200.129419 
L 329.861723 204.305462 
L 330.878302 203.081969 
L 331.894881 117.206051 
L 332.911459 178.612103 
L 333.928038 150.6762 
L 334.944617 205.643064 
L 335.961195 198.409873 
L 336.977774 205.448129 
L 337.994352 165.992054 
L 339.010931 240.460323 
L 340.02751 180.542433 
L 341.044088 180.081245 
L 342.060667 131.685112 
L 343.077245 151.081918 
L 344.093824 127.830791 
L 345.110403 191.19253 
L 346.126981 133.884864 
L 347.14356 189.396911 
L 348.160138 191.170342 
L 349.176717 234.084528 
L 350.193296 165.630712 
L 351.209874 160.598858 
L 352.226453 193.021431 
L 353.243032 213.991979 
L 354.25961 183.269935 
L 355.276189 142.894656 
L 356.292767 192.786875 
L 357.309346 218.160097 
L 358.325925 166.738512 
L 359.342503 172.41064 
L 360.359082 172.920957 
L 361.37566 177.520151 
L 362.392239 149.390899 
L 363.408818 196.097597 
L 364.425396 205.456053 
L 365.441975 177.452003 
L 366.458553 145.227535 
L 367.475132 254.314958 
L 368.491711 100.035939 
L 369.508289 129.309443 
L 370.524868 133.147916 
L 371.541447 75.726142 
L 372.558025 194.119722 
L 373.574604 197.932837 
L 374.591182 210.174109 
L 375.607761 100.047033 
L 376.62434 237.88338 
L 377.640918 159.865079 
L 378.657497 160.357963 
L 379.674075 171.513623 
L 380.690654 215.09027 
L 381.707233 139.583934 
L 382.723811 140.137042 
L 383.74039 55.8 
L 384.756968 175.610423 
L 385.773547 223.672157 
L 386.790126 222.190335 
L 387.806704 167.099855 
L 388.823283 134.880141 
L 389.839862 129.157299 
L 390.85644 209.800088 
L 391.873019 163.730494 
L 392.889597 229.91641 
L 393.906176 85.277948 
L 394.922755 107.524289 
L 395.939333 146.062743 
L 396.955912 163.644912 
L 397.97249 191.67115 
L 398.989069 173.822729 
L 400.005648 91.357378 
L 401.022226 190.690137 
L 402.038805 207.663729 
L 403.055383 164.738449 
L 404.071962 219.252049 
L 405.088541 166.565765 
L 406.105119 187.393678 
L 407.121698 163.7194 
L 408.138277 125.734053 
L 409.154855 113.147287 
L 410.171434 202.085107 
L 411.188012 178.9782 
L 412.204591 123.274388 
L 413.22117 147.87738 
L 414.237748 199.034298 
L 415.254327 126.770536 
L 416.270905 155.072535 
L 417.287484 188.368352 
L 418.304063 181.499674 
L 419.320641 206.140702 
L 420.33722 139.614046 
L 421.353799 171.933604 
L 422.370377 129.826099 
L 423.386956 156.500472 
L 424.403534 209.546514 
L 425.420113 232.235025 
L 426.436692 206.250056 
L 427.45327 198.09766 
L 428.469849 192.878795 
L 429.486427 189.707539 
L 430.503006 65.423124 
L 431.519585 177.824439 
L 432.536163 68.061875 
L 433.552742 190.12752 
L 434.56932 183.089264 
L 435.585899 195.954962 
L 436.602478 163.229685 
L 437.619056 191.186191 
L 438.635635 187.37466 
L 439.652214 168.878041 
L 440.668792 166.599047 
L 441.685371 177.702407 
L 442.701949 133.881695 
L 443.718528 118.879638 
L 444.735107 159.204202 
L 445.751685 215.076007 
L 446.768264 193.436658 
L 447.784842 180.021022 
L 448.801421 157.364208 
L 449.818 170.14274 
L 450.834578 107.158192 
L 451.851157 194.975533 
L 452.867735 179.898989 
L 453.884314 173.404332 
L 454.900893 194.851916 
L 455.917471 178.797528 
L 456.93405 177.14296 
L 457.950629 142.536483 
L 458.967207 114.003098 
L 459.983786 151.465449 
L 461.000364 121.445487 
L 462.016943 238.243138 
L 463.033522 186.273199 
L 464.0501 186.758159 
L 466.083257 174.553338 
L 467.099836 202.132652 
L 468.116415 191.228981 
L 469.132993 199.026374 
L 470.149572 107.402257 
L 471.16615 197.604776 
L 472.182729 218.381974 
L 473.199308 71.334561 
L 474.215886 152.997985 
L 475.232465 223.293381 
L 476.249044 184.198649 
L 477.265622 127.144557 
L 478.282201 121.247383 
L 479.298779 248.278319 
L 480.315358 181.910146 
L 481.331937 190.447657 
L 482.348515 148.078654 
L 483.365094 172.908278 
L 484.381672 260.709771 
L 485.398251 123.096886 
L 486.41483 95.397125 
L 487.431408 194.23383 
L 488.447987 223.653139 
L 489.464565 161.487951 
L 490.481144 171.570677 
L 491.497723 190.801075 
L 492.514301 164.093421 
L 493.53088 179.705639 
L 494.547459 137.271658 
L 495.564037 221.448632 
L 496.580616 208.701797 
L 497.597194 169.053957 
L 498.613773 208.342039 
L 499.630352 129.740518 
L 500.64693 171.613467 
L 501.663509 178.604178 
L 502.680087 184.816735 
L 503.696666 99.245106 
L 504.713245 167.277356 
L 505.729823 183.914963 
L 506.746402 182.223944 
L 507.762981 187.545823 
L 508.779559 127.303041 
L 509.796138 85.675741 
L 510.812716 138.07517 
L 511.829295 233.087667 
L 512.845874 211.998255 
L 513.862452 236.268432 
L 514.879031 180.886342 
L 515.895609 195.395515 
L 516.912188 162.597336 
L 518.945345 231.868928 
L 519.961924 155.521044 
L 520.978502 155.880801 
L 521.995081 191.910461 
L 523.01166 138.396892 
L 524.028238 182.417294 
L 525.044817 105.681125 
L 526.061396 171.451814 
L 527.077974 174.754612 
L 528.094553 119.29011 
L 529.111131 175.25542 
L 530.12771 182.653434 
L 531.144289 121.871808 
L 532.160867 128.726223 
L 533.177446 222.183996 
L 534.194024 141.629957 
L 535.210603 256.85545 
L 536.227182 248.159456 
L 537.24376 106.346756 
L 538.260339 158.678037 
L 539.276917 135.100433 
L 540.293496 213.112395 
L 541.310075 250.119898 
L 542.326653 180.76431 
L 543.343232 199.812452 
L 544.359811 122.359938 
L 545.376389 198.905926 
L 546.392968 113.11242 
L 547.409546 184.929258 
L 548.426125 206.74294 
L 549.442704 200.371899 
L 550.459282 162.629033 
L 551.475861 213.659163 
L 552.492439 168.508774 
L 553.509018 184.073447 
L 554.525597 226.602518 
L 555.542175 183.342838 
L 556.558754 224.188813 
L 557.575332 202.343435 
L 558.591911 120.461304 
L 559.60849 134.669358 
L 560.625068 137.070384 
L 561.641647 147.723651 
L 562.658226 206.183493 
L 563.674804 208.820659 
L 564.691383 181.922825 
L 565.707961 144.611033 
L 566.72454 152.262621 
L 567.741119 169.247307 
L 568.757697 180.198523 
L 569.774276 157.364208 
L 570.790854 87.108433 
L 571.807433 169.332888 
L 572.824012 179.293582 
L 573.84059 177.14296 
L 574.857169 246.088075 
L 575.873747 154.422752 
L 576.890326 221.451801 
L 577.906905 176.716639 
L 578.923483 201.354498 
L 579.940062 221.336108 
L 580.956641 213.129828 
L 581.973219 184.57267 
L 582.989798 169.370925 
L 584.006376 224.409105 
L 585.022955 177.391779 
L 586.039534 230.035273 
L 588.072691 146.213303 
L 589.089269 148.097672 
L 590.105848 173.306072 
L 591.122427 219.259973 
L 592.139005 194.504837 
L 593.155584 199.040637 
L 594.172163 191.679075 
L 595.188741 161.461009 
L 596.20532 151.782416 
L 597.221898 219.499284 
L 598.238477 175.153991 
L 599.255056 190.143369 
L 600.271634 274.776775 
L 601.288213 204.677898 
L 602.304791 215.101364 
L 603.32137 191.729789 
L 604.337949 115.43262 
L 605.354527 190.211516 
L 606.371106 129.157299 
L 607.387684 157.303984 
L 608.404263 199.524012 
L 609.420842 168.133168 
L 610.43742 206.562268 
L 611.453999 254.68264 
L 613.487156 150.519302 
L 614.503735 158.362654 
L 615.520313 187.884977 
L 616.536892 259.586123 
L 617.553471 193.4113 
L 618.570049 143.698168 
L 619.586628 231.158921 
L 620.603206 130.585236 
L 621.619785 180.596317 
L 622.636364 162.529188 
L 622.636364 162.529188 
" clip-path="url(#p159f03b474)" style="fill: none; stroke: #1f77b4; stroke-width: 1.5; stroke-linecap: square"/>
   </g>
   <g id="line2d_30">
    <path d="M 115.363636 307.549596 
L 122.479687 307.56069 
L 273.9499 307.70491 
L 278.016214 307.692231 
L 298.347786 307.668459 
L 307.496994 307.685892 
L 311.563308 307.668459 
L 317.66278 307.685892 
L 322.745673 307.674798 
L 346.126981 307.727098 
L 353.243032 307.746116 
L 380.690654 307.746116 
L 386.790126 307.793661 
L 394.922755 307.777812 
L 401.022226 307.768303 
L 407.121698 307.761964 
L 500.64693 307.579708 
L 516.912188 307.605065 
L 524.028238 307.617744 
L 534.194024 307.598726 
L 540.293496 307.616159 
L 552.492439 307.60348 
L 557.575332 307.60982 
L 569.774276 307.598726 
L 581.973219 307.630423 
L 595.188741 307.628838 
L 622.636364 307.693816 
L 622.636364 307.693816 
" clip-path="url(#p159f03b474)" style="fill: none; stroke: #ff7f0e; stroke-width: 1.5; stroke-linecap: square"/>
   </g>
   <g id="patch_3">
    <path d="M 90 320.4 
L 90 43.2 
" style="fill: none; stroke: #000000; stroke-width: 0.8; stroke-linejoin: miter; stroke-linecap: square"/>
   </g>
   <g id="patch_4">
    <path d="M 648 320.4 
L 648 43.2 
" style="fill: none; stroke: #000000; stroke-width: 0.8; stroke-linejoin: miter; stroke-linecap: square"/>
   </g>
   <g id="patch_5">
    <path d="M 90 320.4 
L 648 320.4 
" style="fill: none; stroke: #000000; stroke-width: 0.8; stroke-linejoin: miter; stroke-linecap: square"/>
   </g>
   <g id="patch_6">
    <path d="M 90 43.2 
L 648 43.2 
" style="fill: none; stroke: #000000; stroke-width: 0.8; stroke-linejoin: miter; stroke-linecap: square"/>
   </g>
   <g id="text_17">
    <!-- model train and validation loss over time -->
    <g transform="translate(245.555625 37.2) scale(0.12 -0.12)">
     <defs>
      <path id="DejaVuSans-6d" d="M 3328 2828 
Q 3544 3216 3844 3400 
Q 4144 3584 4550 3584 
Q 5097 3584 5394 3201 
Q 5691 2819 5691 2113 
L 5691 0 
L 5113 0 
L 5113 2094 
Q 5113 2597 4934 2840 
Q 4756 3084 4391 3084 
Q 3944 3084 3684 2787 
Q 3425 2491 3425 1978 
L 3425 0 
L 2847 0 
L 2847 2094 
Q 2847 2600 2669 2842 
Q 2491 3084 2119 3084 
Q 1678 3084 1418 2786 
Q 1159 2488 1159 1978 
L 1159 0 
L 581 0 
L 581 3500 
L 1159 3500 
L 1159 2956 
Q 1356 3278 1631 3431 
Q 1906 3584 2284 3584 
Q 2666 3584 2933 3390 
Q 3200 3197 3328 2828 
z
" transform="scale(0.015625)"/>
      <path id="DejaVuSans-64" d="M 2906 2969 
L 2906 4863 
L 3481 4863 
L 3481 0 
L 2906 0 
L 2906 525 
Q 2725 213 2448 61 
Q 2172 -91 1784 -91 
Q 1150 -91 751 415 
Q 353 922 353 1747 
Q 353 2572 751 3078 
Q 1150 3584 1784 3584 
Q 2172 3584 2448 3432 
Q 2725 3281 2906 2969 
z
M 947 1747 
Q 947 1113 1208 752 
Q 1469 391 1925 391 
Q 2381 391 2643 752 
Q 2906 1113 2906 1747 
Q 2906 2381 2643 2742 
Q 2381 3103 1925 3103 
Q 1469 3103 1208 2742 
Q 947 2381 947 1747 
z
" transform="scale(0.015625)"/>
      <path id="DejaVuSans-20" transform="scale(0.015625)"/>
      <path id="DejaVuSans-74" d="M 1172 4494 
L 1172 3500 
L 2356 3500 
L 2356 3053 
L 1172 3053 
L 1172 1153 
Q 1172 725 1289 603 
Q 1406 481 1766 481 
L 2356 481 
L 2356 0 
L 1766 0 
Q 1100 0 847 248 
Q 594 497 594 1153 
L 594 3053 
L 172 3053 
L 172 3500 
L 594 3500 
L 594 4494 
L 1172 4494 
z
" transform="scale(0.015625)"/>
      <path id="DejaVuSans-72" d="M 2631 2963 
Q 2534 3019 2420 3045 
Q 2306 3072 2169 3072 
Q 1681 3072 1420 2755 
Q 1159 2438 1159 1844 
L 1159 0 
L 581 0 
L 581 3500 
L 1159 3500 
L 1159 2956 
Q 1341 3275 1631 3429 
Q 1922 3584 2338 3584 
Q 2397 3584 2469 3576 
Q 2541 3569 2628 3553 
L 2631 2963 
z
" transform="scale(0.015625)"/>
      <path id="DejaVuSans-61" d="M 2194 1759 
Q 1497 1759 1228 1600 
Q 959 1441 959 1056 
Q 959 750 1161 570 
Q 1363 391 1709 391 
Q 2188 391 2477 730 
Q 2766 1069 2766 1631 
L 2766 1759 
L 2194 1759 
z
M 3341 1997 
L 3341 0 
L 2766 0 
L 2766 531 
Q 2569 213 2275 61 
Q 1981 -91 1556 -91 
Q 1019 -91 701 211 
Q 384 513 384 1019 
Q 384 1609 779 1909 
Q 1175 2209 1959 2209 
L 2766 2209 
L 2766 2266 
Q 2766 2663 2505 2880 
Q 2244 3097 1772 3097 
Q 1472 3097 1187 3025 
Q 903 2953 641 2809 
L 641 3341 
Q 956 3463 1253 3523 
Q 1550 3584 1831 3584 
Q 2591 3584 2966 3190 
Q 3341 2797 3341 1997 
z
" transform="scale(0.015625)"/>
      <path id="DejaVuSans-69" d="M 603 3500 
L 1178 3500 
L 1178 0 
L 603 0 
L 603 3500 
z
M 603 4863 
L 1178 4863 
L 1178 4134 
L 603 4134 
L 603 4863 
z
" transform="scale(0.015625)"/>
      <path id="DejaVuSans-6e" d="M 3513 2113 
L 3513 0 
L 2938 0 
L 2938 2094 
Q 2938 2591 2744 2837 
Q 2550 3084 2163 3084 
Q 1697 3084 1428 2787 
Q 1159 2491 1159 1978 
L 1159 0 
L 581 0 
L 581 3500 
L 1159 3500 
L 1159 2956 
Q 1366 3272 1645 3428 
Q 1925 3584 2291 3584 
Q 2894 3584 3203 3211 
Q 3513 2838 3513 2113 
z
" transform="scale(0.015625)"/>
      <path id="DejaVuSans-76" d="M 191 3500 
L 800 3500 
L 1894 563 
L 2988 3500 
L 3597 3500 
L 2284 0 
L 1503 0 
L 191 3500 
z
" transform="scale(0.015625)"/>
     </defs>
     <use xlink:href="#DejaVuSans-6d"/>
     <use xlink:href="#DejaVuSans-6f" x="97.412109"/>
     <use xlink:href="#DejaVuSans-64" x="158.59375"/>
     <use xlink:href="#DejaVuSans-65" x="222.070312"/>
     <use xlink:href="#DejaVuSans-6c" x="283.59375"/>
     <use xlink:href="#DejaVuSans-20" x="311.376953"/>
     <use xlink:href="#DejaVuSans-74" x="343.164062"/>
     <use xlink:href="#DejaVuSans-72" x="382.373047"/>
     <use xlink:href="#DejaVuSans-61" x="423.486328"/>
     <use xlink:href="#DejaVuSans-69" x="484.765625"/>
     <use xlink:href="#DejaVuSans-6e" x="512.548828"/>
     <use xlink:href="#DejaVuSans-20" x="575.927734"/>
     <use xlink:href="#DejaVuSans-61" x="607.714844"/>
     <use xlink:href="#DejaVuSans-6e" x="668.994141"/>
     <use xlink:href="#DejaVuSans-64" x="732.373047"/>
     <use xlink:href="#DejaVuSans-20" x="795.849609"/>
     <use xlink:href="#DejaVuSans-76" x="827.636719"/>
     <use xlink:href="#DejaVuSans-61" x="886.816406"/>
     <use xlink:href="#DejaVuSans-6c" x="948.095703"/>
     <use xlink:href="#DejaVuSans-69" x="975.878906"/>
     <use xlink:href="#DejaVuSans-64" x="1003.662109"/>
     <use xlink:href="#DejaVuSans-61" x="1067.138672"/>
     <use xlink:href="#DejaVuSans-74" x="1128.417969"/>
     <use xlink:href="#DejaVuSans-69" x="1167.626953"/>
     <use xlink:href="#DejaVuSans-6f" x="1195.410156"/>
     <use xlink:href="#DejaVuSans-6e" x="1256.591797"/>
     <use xlink:href="#DejaVuSans-20" x="1319.970703"/>
     <use xlink:href="#DejaVuSans-6c" x="1351.757812"/>
     <use xlink:href="#DejaVuSans-6f" x="1379.541016"/>
     <use xlink:href="#DejaVuSans-73" x="1440.722656"/>
     <use xlink:href="#DejaVuSans-73" x="1492.822266"/>
     <use xlink:href="#DejaVuSans-20" x="1544.921875"/>
     <use xlink:href="#DejaVuSans-6f" x="1576.708984"/>
     <use xlink:href="#DejaVuSans-76" x="1637.890625"/>
     <use xlink:href="#DejaVuSans-65" x="1697.070312"/>
     <use xlink:href="#DejaVuSans-72" x="1758.59375"/>
     <use xlink:href="#DejaVuSans-20" x="1799.707031"/>
     <use xlink:href="#DejaVuSans-74" x="1831.494141"/>
     <use xlink:href="#DejaVuSans-69" x="1870.703125"/>
     <use xlink:href="#DejaVuSans-6d" x="1898.486328"/>
     <use xlink:href="#DejaVuSans-65" x="1995.898438"/>
    </g>
   </g>
   <g id="legend_1">
    <g id="patch_7">
     <path d="M 559.765625 80.55625 
L 641 80.55625 
Q 643 80.55625 643 78.55625 
L 643 50.2 
Q 643 48.2 641 48.2 
L 559.765625 48.2 
Q 557.765625 48.2 557.765625 50.2 
L 557.765625 78.55625 
Q 557.765625 80.55625 559.765625 80.55625 
z
" style="fill: #ffffff; opacity: 0.8; stroke: #cccccc; stroke-linejoin: miter"/>
    </g>
    <g id="line2d_31">
     <path d="M 561.765625 56.298437 
L 571.765625 56.298437 
L 581.765625 56.298437 
" style="fill: none; stroke: #1f77b4; stroke-width: 1.5; stroke-linecap: square"/>
    </g>
    <g id="text_18">
     <!-- train -->
     <g transform="translate(589.765625 59.798437) scale(0.1 -0.1)">
      <use xlink:href="#DejaVuSans-74"/>
      <use xlink:href="#DejaVuSans-72" x="39.208984"/>
      <use xlink:href="#DejaVuSans-61" x="80.322266"/>
      <use xlink:href="#DejaVuSans-69" x="141.601562"/>
      <use xlink:href="#DejaVuSans-6e" x="169.384766"/>
     </g>
    </g>
    <g id="line2d_32">
     <path d="M 561.765625 70.976562 
L 571.765625 70.976562 
L 581.765625 70.976562 
" style="fill: none; stroke: #ff7f0e; stroke-width: 1.5; stroke-linecap: square"/>
    </g>
    <g id="text_19">
     <!-- validation -->
     <g transform="translate(589.765625 74.476562) scale(0.1 -0.1)">
      <use xlink:href="#DejaVuSans-76"/>
      <use xlink:href="#DejaVuSans-61" x="59.179688"/>
      <use xlink:href="#DejaVuSans-6c" x="120.458984"/>
      <use xlink:href="#DejaVuSans-69" x="148.242188"/>
      <use xlink:href="#DejaVuSans-64" x="176.025391"/>
      <use xlink:href="#DejaVuSans-61" x="239.501953"/>
      <use xlink:href="#DejaVuSans-74" x="300.78125"/>
      <use xlink:href="#DejaVuSans-69" x="339.990234"/>
      <use xlink:href="#DejaVuSans-6f" x="367.773438"/>
      <use xlink:href="#DejaVuSans-6e" x="428.955078"/>
     </g>
    </g>
   </g>
  </g>
 </g>
 <defs>
  <clipPath id="p159f03b474">
   <rect x="90" y="43.2" width="558" height="277.2"/>
  </clipPath>
 </defs>
</svg>
