<?xml version="1.0" encoding="utf-8" standalone="no"?>
<!DOCTYPE svg PUBLIC "-//W3C//DTD SVG 1.1//EN"
  "http://www.w3.org/Graphics/SVG/1.1/DTD/svg11.dtd">
<svg xmlns:xlink="http://www.w3.org/1999/xlink" width="720pt" height="360pt" viewBox="0 0 720 360" xmlns="http://www.w3.org/2000/svg" version="1.1">
 <metadata>
  <rdf:RDF xmlns:dc="http://purl.org/dc/elements/1.1/" xmlns:cc="http://creativecommons.org/ns#" xmlns:rdf="http://www.w3.org/1999/02/22-rdf-syntax-ns#">
   <cc:Work>
    <dc:type rdf:resource="http://purl.org/dc/dcmitype/StillImage"/>
    <dc:date>2023-05-24T12:29:34.831003</dc:date>
    <dc:format>image/svg+xml</dc:format>
    <dc:creator>
     <cc:Agent>
      <dc:title>Matplotlib v3.7.1, https://matplotlib.org/</dc:title>
     </cc:Agent>
    </dc:creator>
   </cc:Work>
  </rdf:RDF>
 </metadata>
 <defs>
  <style type="text/css">*{stroke-linejoin: round; stroke-linecap: butt}</style>
 </defs>
 <g id="figure_1">
  <g id="patch_1">
   <path d="M 0 360 
L 720 360 
L 720 0 
L 0 0 
z
" style="fill: #ffffff"/>
  </g>
  <g id="axes_1">
   <g id="patch_2">
    <path d="M 90 320.4 
L 648 320.4 
L 648 43.2 
L 90 43.2 
z
" style="fill: #ffffff"/>
   </g>
   <g id="matplotlib.axis_1">
    <g id="xtick_1">
     <g id="line2d_1">
      <path d="M 115.363636 320.4 
L 115.363636 43.2 
" clip-path="url(#p6fb38ff450)" style="fill: none; stroke: #b0b0b0; stroke-width: 0.8; stroke-linecap: square"/>
     </g>
     <g id="line2d_2">
      <defs>
       <path id="m32a93cc976" d="M 0 0 
L 0 3.5 
" style="stroke: #000000; stroke-width: 0.8"/>
      </defs>
      <g>
       <use xlink:href="#m32a93cc976" x="115.363636" y="320.4" style="stroke: #000000; stroke-width: 0.8"/>
      </g>
     </g>
     <g id="text_1">
      <!-- 0 -->
      <g transform="translate(112.182386 334.998438) scale(0.1 -0.1)">
       <defs>
        <path id="DejaVuSans-30" d="M 2034 4250 
Q 1547 4250 1301 3770 
Q 1056 3291 1056 2328 
Q 1056 1369 1301 889 
Q 1547 409 2034 409 
Q 2525 409 2770 889 
Q 3016 1369 3016 2328 
Q 3016 3291 2770 3770 
Q 2525 4250 2034 4250 
z
M 2034 4750 
Q 2819 4750 3233 4129 
Q 3647 3509 3647 2328 
Q 3647 1150 3233 529 
Q 2819 -91 2034 -91 
Q 1250 -91 836 529 
Q 422 1150 422 2328 
Q 422 3509 836 4129 
Q 1250 4750 2034 4750 
z
" transform="scale(0.015625)"/>
       </defs>
       <use xlink:href="#DejaVuSans-30"/>
      </g>
     </g>
    </g>
    <g id="xtick_2">
     <g id="line2d_3">
      <path d="M 217.021498 320.4 
L 217.021498 43.2 
" clip-path="url(#p6fb38ff450)" style="fill: none; stroke: #b0b0b0; stroke-width: 0.8; stroke-linecap: square"/>
     </g>
     <g id="line2d_4">
      <g>
       <use xlink:href="#m32a93cc976" x="217.021498" y="320.4" style="stroke: #000000; stroke-width: 0.8"/>
      </g>
     </g>
     <g id="text_2">
      <!-- 100 -->
      <g transform="translate(207.477748 334.998438) scale(0.1 -0.1)">
       <defs>
        <path id="DejaVuSans-31" d="M 794 531 
L 1825 531 
L 1825 4091 
L 703 3866 
L 703 4441 
L 1819 4666 
L 2450 4666 
L 2450 531 
L 3481 531 
L 3481 0 
L 794 0 
L 794 531 
z
" transform="scale(0.015625)"/>
       </defs>
       <use xlink:href="#DejaVuSans-31"/>
       <use xlink:href="#DejaVuSans-30" x="63.623047"/>
       <use xlink:href="#DejaVuSans-30" x="127.246094"/>
      </g>
     </g>
    </g>
    <g id="xtick_3">
     <g id="line2d_5">
      <path d="M 318.679359 320.4 
L 318.679359 43.2 
" clip-path="url(#p6fb38ff450)" style="fill: none; stroke: #b0b0b0; stroke-width: 0.8; stroke-linecap: square"/>
     </g>
     <g id="line2d_6">
      <g>
       <use xlink:href="#m32a93cc976" x="318.679359" y="320.4" style="stroke: #000000; stroke-width: 0.8"/>
      </g>
     </g>
     <g id="text_3">
      <!-- 200 -->
      <g transform="translate(309.135609 334.998438) scale(0.1 -0.1)">
       <defs>
        <path id="DejaVuSans-32" d="M 1228 531 
L 3431 531 
L 3431 0 
L 469 0 
L 469 531 
Q 828 903 1448 1529 
Q 2069 2156 2228 2338 
Q 2531 2678 2651 2914 
Q 2772 3150 2772 3378 
Q 2772 3750 2511 3984 
Q 2250 4219 1831 4219 
Q 1534 4219 1204 4116 
Q 875 4013 500 3803 
L 500 4441 
Q 881 4594 1212 4672 
Q 1544 4750 1819 4750 
Q 2544 4750 2975 4387 
Q 3406 4025 3406 3419 
Q 3406 3131 3298 2873 
Q 3191 2616 2906 2266 
Q 2828 2175 2409 1742 
Q 1991 1309 1228 531 
z
" transform="scale(0.015625)"/>
       </defs>
       <use xlink:href="#DejaVuSans-32"/>
       <use xlink:href="#DejaVuSans-30" x="63.623047"/>
       <use xlink:href="#DejaVuSans-30" x="127.246094"/>
      </g>
     </g>
    </g>
    <g id="xtick_4">
     <g id="line2d_7">
      <path d="M 420.33722 320.4 
L 420.33722 43.2 
" clip-path="url(#p6fb38ff450)" style="fill: none; stroke: #b0b0b0; stroke-width: 0.8; stroke-linecap: square"/>
     </g>
     <g id="line2d_8">
      <g>
       <use xlink:href="#m32a93cc976" x="420.33722" y="320.4" style="stroke: #000000; stroke-width: 0.8"/>
      </g>
     </g>
     <g id="text_4">
      <!-- 300 -->
      <g transform="translate(410.79347 334.998438) scale(0.1 -0.1)">
       <defs>
        <path id="DejaVuSans-33" d="M 2597 2516 
Q 3050 2419 3304 2112 
Q 3559 1806 3559 1356 
Q 3559 666 3084 287 
Q 2609 -91 1734 -91 
Q 1441 -91 1130 -33 
Q 819 25 488 141 
L 488 750 
Q 750 597 1062 519 
Q 1375 441 1716 441 
Q 2309 441 2620 675 
Q 2931 909 2931 1356 
Q 2931 1769 2642 2001 
Q 2353 2234 1838 2234 
L 1294 2234 
L 1294 2753 
L 1863 2753 
Q 2328 2753 2575 2939 
Q 2822 3125 2822 3475 
Q 2822 3834 2567 4026 
Q 2313 4219 1838 4219 
Q 1578 4219 1281 4162 
Q 984 4106 628 3988 
L 628 4550 
Q 988 4650 1302 4700 
Q 1616 4750 1894 4750 
Q 2613 4750 3031 4423 
Q 3450 4097 3450 3541 
Q 3450 3153 3228 2886 
Q 3006 2619 2597 2516 
z
" transform="scale(0.015625)"/>
       </defs>
       <use xlink:href="#DejaVuSans-33"/>
       <use xlink:href="#DejaVuSans-30" x="63.623047"/>
       <use xlink:href="#DejaVuSans-30" x="127.246094"/>
      </g>
     </g>
    </g>
    <g id="xtick_5">
     <g id="line2d_9">
      <path d="M 521.995081 320.4 
L 521.995081 43.2 
" clip-path="url(#p6fb38ff450)" style="fill: none; stroke: #b0b0b0; stroke-width: 0.8; stroke-linecap: square"/>
     </g>
     <g id="line2d_10">
      <g>
       <use xlink:href="#m32a93cc976" x="521.995081" y="320.4" style="stroke: #000000; stroke-width: 0.8"/>
      </g>
     </g>
     <g id="text_5">
      <!-- 400 -->
      <g transform="translate(512.451331 334.998438) scale(0.1 -0.1)">
       <defs>
        <path id="DejaVuSans-34" d="M 2419 4116 
L 825 1625 
L 2419 1625 
L 2419 4116 
z
M 2253 4666 
L 3047 4666 
L 3047 1625 
L 3713 1625 
L 3713 1100 
L 3047 1100 
L 3047 0 
L 2419 0 
L 2419 1100 
L 313 1100 
L 313 1709 
L 2253 4666 
z
" transform="scale(0.015625)"/>
       </defs>
       <use xlink:href="#DejaVuSans-34"/>
       <use xlink:href="#DejaVuSans-30" x="63.623047"/>
       <use xlink:href="#DejaVuSans-30" x="127.246094"/>
      </g>
     </g>
    </g>
    <g id="xtick_6">
     <g id="line2d_11">
      <path d="M 623.652942 320.4 
L 623.652942 43.2 
" clip-path="url(#p6fb38ff450)" style="fill: none; stroke: #b0b0b0; stroke-width: 0.8; stroke-linecap: square"/>
     </g>
     <g id="line2d_12">
      <g>
       <use xlink:href="#m32a93cc976" x="623.652942" y="320.4" style="stroke: #000000; stroke-width: 0.8"/>
      </g>
     </g>
     <g id="text_6">
      <!-- 500 -->
      <g transform="translate(614.109192 334.998438) scale(0.1 -0.1)">
       <defs>
        <path id="DejaVuSans-35" d="M 691 4666 
L 3169 4666 
L 3169 4134 
L 1269 4134 
L 1269 2991 
Q 1406 3038 1543 3061 
Q 1681 3084 1819 3084 
Q 2600 3084 3056 2656 
Q 3513 2228 3513 1497 
Q 3513 744 3044 326 
Q 2575 -91 1722 -91 
Q 1428 -91 1123 -41 
Q 819 9 494 109 
L 494 744 
Q 775 591 1075 516 
Q 1375 441 1709 441 
Q 2250 441 2565 725 
Q 2881 1009 2881 1497 
Q 2881 1984 2565 2268 
Q 2250 2553 1709 2553 
Q 1456 2553 1204 2497 
Q 953 2441 691 2322 
L 691 4666 
z
" transform="scale(0.015625)"/>
       </defs>
       <use xlink:href="#DejaVuSans-35"/>
       <use xlink:href="#DejaVuSans-30" x="63.623047"/>
       <use xlink:href="#DejaVuSans-30" x="127.246094"/>
      </g>
     </g>
    </g>
    <g id="text_7">
     <!-- epoch -->
     <g transform="translate(353.771875 348.676562) scale(0.1 -0.1)">
      <defs>
       <path id="DejaVuSans-65" d="M 3597 1894 
L 3597 1613 
L 953 1613 
Q 991 1019 1311 708 
Q 1631 397 2203 397 
Q 2534 397 2845 478 
Q 3156 559 3463 722 
L 3463 178 
Q 3153 47 2828 -22 
Q 2503 -91 2169 -91 
Q 1331 -91 842 396 
Q 353 884 353 1716 
Q 353 2575 817 3079 
Q 1281 3584 2069 3584 
Q 2775 3584 3186 3129 
Q 3597 2675 3597 1894 
z
M 3022 2063 
Q 3016 2534 2758 2815 
Q 2500 3097 2075 3097 
Q 1594 3097 1305 2825 
Q 1016 2553 972 2059 
L 3022 2063 
z
" transform="scale(0.015625)"/>
       <path id="DejaVuSans-70" d="M 1159 525 
L 1159 -1331 
L 581 -1331 
L 581 3500 
L 1159 3500 
L 1159 2969 
Q 1341 3281 1617 3432 
Q 1894 3584 2278 3584 
Q 2916 3584 3314 3078 
Q 3713 2572 3713 1747 
Q 3713 922 3314 415 
Q 2916 -91 2278 -91 
Q 1894 -91 1617 61 
Q 1341 213 1159 525 
z
M 3116 1747 
Q 3116 2381 2855 2742 
Q 2594 3103 2138 3103 
Q 1681 3103 1420 2742 
Q 1159 2381 1159 1747 
Q 1159 1113 1420 752 
Q 1681 391 2138 391 
Q 2594 391 2855 752 
Q 3116 1113 3116 1747 
z
" transform="scale(0.015625)"/>
       <path id="DejaVuSans-6f" d="M 1959 3097 
Q 1497 3097 1228 2736 
Q 959 2375 959 1747 
Q 959 1119 1226 758 
Q 1494 397 1959 397 
Q 2419 397 2687 759 
Q 2956 1122 2956 1747 
Q 2956 2369 2687 2733 
Q 2419 3097 1959 3097 
z
M 1959 3584 
Q 2709 3584 3137 3096 
Q 3566 2609 3566 1747 
Q 3566 888 3137 398 
Q 2709 -91 1959 -91 
Q 1206 -91 779 398 
Q 353 888 353 1747 
Q 353 2609 779 3096 
Q 1206 3584 1959 3584 
z
" transform="scale(0.015625)"/>
       <path id="DejaVuSans-63" d="M 3122 3366 
L 3122 2828 
Q 2878 2963 2633 3030 
Q 2388 3097 2138 3097 
Q 1578 3097 1268 2742 
Q 959 2388 959 1747 
Q 959 1106 1268 751 
Q 1578 397 2138 397 
Q 2388 397 2633 464 
Q 2878 531 3122 666 
L 3122 134 
Q 2881 22 2623 -34 
Q 2366 -91 2075 -91 
Q 1284 -91 818 406 
Q 353 903 353 1747 
Q 353 2603 823 3093 
Q 1294 3584 2113 3584 
Q 2378 3584 2631 3529 
Q 2884 3475 3122 3366 
z
" transform="scale(0.015625)"/>
       <path id="DejaVuSans-68" d="M 3513 2113 
L 3513 0 
L 2938 0 
L 2938 2094 
Q 2938 2591 2744 2837 
Q 2550 3084 2163 3084 
Q 1697 3084 1428 2787 
Q 1159 2491 1159 1978 
L 1159 0 
L 581 0 
L 581 4863 
L 1159 4863 
L 1159 2956 
Q 1366 3272 1645 3428 
Q 1925 3584 2291 3584 
Q 2894 3584 3203 3211 
Q 3513 2838 3513 2113 
z
" transform="scale(0.015625)"/>
      </defs>
      <use xlink:href="#DejaVuSans-65"/>
      <use xlink:href="#DejaVuSans-70" x="61.523438"/>
      <use xlink:href="#DejaVuSans-6f" x="125"/>
      <use xlink:href="#DejaVuSans-63" x="186.181641"/>
      <use xlink:href="#DejaVuSans-68" x="241.162109"/>
     </g>
    </g>
   </g>
   <g id="matplotlib.axis_2">
    <g id="ytick_1">
     <g id="line2d_13">
      <path d="M 90 287.820145 
L 648 287.820145 
" clip-path="url(#p6fb38ff450)" style="fill: none; stroke: #b0b0b0; stroke-width: 0.8; stroke-linecap: square"/>
     </g>
     <g id="line2d_14">
      <defs>
       <path id="mecd8b89119" d="M 0 0 
L -3.5 0 
" style="stroke: #000000; stroke-width: 0.8"/>
      </defs>
      <g>
       <use xlink:href="#mecd8b89119" x="90" y="287.820145" style="stroke: #000000; stroke-width: 0.8"/>
      </g>
     </g>
     <g id="text_8">
      <!-- 1.35 -->
      <g transform="translate(60.734375 291.619364) scale(0.1 -0.1)">
       <defs>
        <path id="DejaVuSans-2e" d="M 684 794 
L 1344 794 
L 1344 0 
L 684 0 
L 684 794 
z
" transform="scale(0.015625)"/>
       </defs>
       <use xlink:href="#DejaVuSans-31"/>
       <use xlink:href="#DejaVuSans-2e" x="63.623047"/>
       <use xlink:href="#DejaVuSans-33" x="95.410156"/>
       <use xlink:href="#DejaVuSans-35" x="159.033203"/>
      </g>
     </g>
    </g>
    <g id="ytick_2">
     <g id="line2d_15">
      <path d="M 90 243.17454 
L 648 243.17454 
" clip-path="url(#p6fb38ff450)" style="fill: none; stroke: #b0b0b0; stroke-width: 0.8; stroke-linecap: square"/>
     </g>
     <g id="line2d_16">
      <g>
       <use xlink:href="#mecd8b89119" x="90" y="243.17454" style="stroke: #000000; stroke-width: 0.8"/>
      </g>
     </g>
     <g id="text_9">
      <!-- 1.36 -->
      <g transform="translate(60.734375 246.973759) scale(0.1 -0.1)">
       <defs>
        <path id="DejaVuSans-36" d="M 2113 2584 
Q 1688 2584 1439 2293 
Q 1191 2003 1191 1497 
Q 1191 994 1439 701 
Q 1688 409 2113 409 
Q 2538 409 2786 701 
Q 3034 994 3034 1497 
Q 3034 2003 2786 2293 
Q 2538 2584 2113 2584 
z
M 3366 4563 
L 3366 3988 
Q 3128 4100 2886 4159 
Q 2644 4219 2406 4219 
Q 1781 4219 1451 3797 
Q 1122 3375 1075 2522 
Q 1259 2794 1537 2939 
Q 1816 3084 2150 3084 
Q 2853 3084 3261 2657 
Q 3669 2231 3669 1497 
Q 3669 778 3244 343 
Q 2819 -91 2113 -91 
Q 1303 -91 875 529 
Q 447 1150 447 2328 
Q 447 3434 972 4092 
Q 1497 4750 2381 4750 
Q 2619 4750 2861 4703 
Q 3103 4656 3366 4563 
z
" transform="scale(0.015625)"/>
       </defs>
       <use xlink:href="#DejaVuSans-31"/>
       <use xlink:href="#DejaVuSans-2e" x="63.623047"/>
       <use xlink:href="#DejaVuSans-33" x="95.410156"/>
       <use xlink:href="#DejaVuSans-36" x="159.033203"/>
      </g>
     </g>
    </g>
    <g id="ytick_3">
     <g id="line2d_17">
      <path d="M 90 198.528935 
L 648 198.528935 
" clip-path="url(#p6fb38ff450)" style="fill: none; stroke: #b0b0b0; stroke-width: 0.8; stroke-linecap: square"/>
     </g>
     <g id="line2d_18">
      <g>
       <use xlink:href="#mecd8b89119" x="90" y="198.528935" style="stroke: #000000; stroke-width: 0.8"/>
      </g>
     </g>
     <g id="text_10">
      <!-- 1.37 -->
      <g transform="translate(60.734375 202.328154) scale(0.1 -0.1)">
       <defs>
        <path id="DejaVuSans-37" d="M 525 4666 
L 3525 4666 
L 3525 4397 
L 1831 0 
L 1172 0 
L 2766 4134 
L 525 4134 
L 525 4666 
z
" transform="scale(0.015625)"/>
       </defs>
       <use xlink:href="#DejaVuSans-31"/>
       <use xlink:href="#DejaVuSans-2e" x="63.623047"/>
       <use xlink:href="#DejaVuSans-33" x="95.410156"/>
       <use xlink:href="#DejaVuSans-37" x="159.033203"/>
      </g>
     </g>
    </g>
    <g id="ytick_4">
     <g id="line2d_19">
      <path d="M 90 153.88333 
L 648 153.88333 
" clip-path="url(#p6fb38ff450)" style="fill: none; stroke: #b0b0b0; stroke-width: 0.8; stroke-linecap: square"/>
     </g>
     <g id="line2d_20">
      <g>
       <use xlink:href="#mecd8b89119" x="90" y="153.88333" style="stroke: #000000; stroke-width: 0.8"/>
      </g>
     </g>
     <g id="text_11">
      <!-- 1.38 -->
      <g transform="translate(60.734375 157.682549) scale(0.1 -0.1)">
       <defs>
        <path id="DejaVuSans-38" d="M 2034 2216 
Q 1584 2216 1326 1975 
Q 1069 1734 1069 1313 
Q 1069 891 1326 650 
Q 1584 409 2034 409 
Q 2484 409 2743 651 
Q 3003 894 3003 1313 
Q 3003 1734 2745 1975 
Q 2488 2216 2034 2216 
z
M 1403 2484 
Q 997 2584 770 2862 
Q 544 3141 544 3541 
Q 544 4100 942 4425 
Q 1341 4750 2034 4750 
Q 2731 4750 3128 4425 
Q 3525 4100 3525 3541 
Q 3525 3141 3298 2862 
Q 3072 2584 2669 2484 
Q 3125 2378 3379 2068 
Q 3634 1759 3634 1313 
Q 3634 634 3220 271 
Q 2806 -91 2034 -91 
Q 1263 -91 848 271 
Q 434 634 434 1313 
Q 434 1759 690 2068 
Q 947 2378 1403 2484 
z
M 1172 3481 
Q 1172 3119 1398 2916 
Q 1625 2713 2034 2713 
Q 2441 2713 2670 2916 
Q 2900 3119 2900 3481 
Q 2900 3844 2670 4047 
Q 2441 4250 2034 4250 
Q 1625 4250 1398 4047 
Q 1172 3844 1172 3481 
z
" transform="scale(0.015625)"/>
       </defs>
       <use xlink:href="#DejaVuSans-31"/>
       <use xlink:href="#DejaVuSans-2e" x="63.623047"/>
       <use xlink:href="#DejaVuSans-33" x="95.410156"/>
       <use xlink:href="#DejaVuSans-38" x="159.033203"/>
      </g>
     </g>
    </g>
    <g id="ytick_5">
     <g id="line2d_21">
      <path d="M 90 109.237725 
L 648 109.237725 
" clip-path="url(#p6fb38ff450)" style="fill: none; stroke: #b0b0b0; stroke-width: 0.8; stroke-linecap: square"/>
     </g>
     <g id="line2d_22">
      <g>
       <use xlink:href="#mecd8b89119" x="90" y="109.237725" style="stroke: #000000; stroke-width: 0.8"/>
      </g>
     </g>
     <g id="text_12">
      <!-- 1.39 -->
      <g transform="translate(60.734375 113.036944) scale(0.1 -0.1)">
       <defs>
        <path id="DejaVuSans-39" d="M 703 97 
L 703 672 
Q 941 559 1184 500 
Q 1428 441 1663 441 
Q 2288 441 2617 861 
Q 2947 1281 2994 2138 
Q 2813 1869 2534 1725 
Q 2256 1581 1919 1581 
Q 1219 1581 811 2004 
Q 403 2428 403 3163 
Q 403 3881 828 4315 
Q 1253 4750 1959 4750 
Q 2769 4750 3195 4129 
Q 3622 3509 3622 2328 
Q 3622 1225 3098 567 
Q 2575 -91 1691 -91 
Q 1453 -91 1209 -44 
Q 966 3 703 97 
z
M 1959 2075 
Q 2384 2075 2632 2365 
Q 2881 2656 2881 3163 
Q 2881 3666 2632 3958 
Q 2384 4250 1959 4250 
Q 1534 4250 1286 3958 
Q 1038 3666 1038 3163 
Q 1038 2656 1286 2365 
Q 1534 2075 1959 2075 
z
" transform="scale(0.015625)"/>
       </defs>
       <use xlink:href="#DejaVuSans-31"/>
       <use xlink:href="#DejaVuSans-2e" x="63.623047"/>
       <use xlink:href="#DejaVuSans-33" x="95.410156"/>
       <use xlink:href="#DejaVuSans-39" x="159.033203"/>
      </g>
     </g>
    </g>
    <g id="ytick_6">
     <g id="line2d_23">
      <path d="M 90 64.59212 
L 648 64.59212 
" clip-path="url(#p6fb38ff450)" style="fill: none; stroke: #b0b0b0; stroke-width: 0.8; stroke-linecap: square"/>
     </g>
     <g id="line2d_24">
      <g>
       <use xlink:href="#mecd8b89119" x="90" y="64.59212" style="stroke: #000000; stroke-width: 0.8"/>
      </g>
     </g>
     <g id="text_13">
      <!-- 1.40 -->
      <g transform="translate(60.734375 68.391339) scale(0.1 -0.1)">
       <use xlink:href="#DejaVuSans-31"/>
       <use xlink:href="#DejaVuSans-2e" x="63.623047"/>
       <use xlink:href="#DejaVuSans-34" x="95.410156"/>
       <use xlink:href="#DejaVuSans-30" x="159.033203"/>
      </g>
     </g>
    </g>
    <g id="text_14">
     <!-- loss -->
     <g transform="translate(54.654688 191.457812) rotate(-90) scale(0.1 -0.1)">
      <defs>
       <path id="DejaVuSans-6c" d="M 603 4863 
L 1178 4863 
L 1178 0 
L 603 0 
L 603 4863 
z
" transform="scale(0.015625)"/>
       <path id="DejaVuSans-73" d="M 2834 3397 
L 2834 2853 
Q 2591 2978 2328 3040 
Q 2066 3103 1784 3103 
Q 1356 3103 1142 2972 
Q 928 2841 928 2578 
Q 928 2378 1081 2264 
Q 1234 2150 1697 2047 
L 1894 2003 
Q 2506 1872 2764 1633 
Q 3022 1394 3022 966 
Q 3022 478 2636 193 
Q 2250 -91 1575 -91 
Q 1294 -91 989 -36 
Q 684 19 347 128 
L 347 722 
Q 666 556 975 473 
Q 1284 391 1588 391 
Q 1994 391 2212 530 
Q 2431 669 2431 922 
Q 2431 1156 2273 1281 
Q 2116 1406 1581 1522 
L 1381 1569 
Q 847 1681 609 1914 
Q 372 2147 372 2553 
Q 372 3047 722 3315 
Q 1072 3584 1716 3584 
Q 2034 3584 2315 3537 
Q 2597 3491 2834 3397 
z
" transform="scale(0.015625)"/>
      </defs>
      <use xlink:href="#DejaVuSans-6c"/>
      <use xlink:href="#DejaVuSans-6f" x="27.783203"/>
      <use xlink:href="#DejaVuSans-73" x="88.964844"/>
      <use xlink:href="#DejaVuSans-73" x="141.064453"/>
     </g>
    </g>
   </g>
   <g id="line2d_25">
    <path d="M 115.363636 87.998069 
L 116.380215 77.871575 
L 117.396794 74.833147 
L 118.413372 104.123715 
L 119.429951 111.226684 
L 120.446529 109.742863 
L 121.463108 86.371082 
L 122.479687 85.356676 
L 123.496265 89.404187 
L 124.512844 110.450711 
L 125.529422 95.27188 
L 126.546001 110.946738 
L 127.56258 81.679588 
L 128.579158 86.620691 
L 129.595737 110.03026 
L 130.612316 80.972804 
L 131.628894 92.592699 
L 132.645473 84.960706 
L 133.662051 105.770927 
L 134.67863 98.153303 
L 135.695209 98.09955 
L 136.711787 88.521239 
L 137.728366 91.547957 
L 138.744944 97.380524 
L 139.761523 88.885807 
L 140.778102 82.922315 
L 141.79468 104.173743 
L 142.811259 97.496548 
L 143.827837 115.730305 
L 144.844416 110.308609 
L 145.860995 117.698976 
L 146.877573 91.183921 
L 147.894152 96.81531 
L 149.927309 87.488205 
L 150.943888 95.638045 
L 151.960466 108.459687 
L 152.977045 71.8522 
L 153.993624 93.86044 
L 155.010202 93.991366 
L 156.026781 90.657558 
L 157.043359 90.712909 
L 158.059938 103.506875 
L 159.076517 104.256237 
L 160.093095 116.089019 
L 161.109674 98.040473 
L 162.126253 96.236258 
L 163.142831 92.311156 
L 164.15941 85.587658 
L 165.175988 93.350576 
L 166.192567 107.410155 
L 167.209146 103.254072 
L 169.242303 84.582832 
L 170.258881 83.944172 
L 171.27546 100.001161 
L 172.292039 109.145715 
L 173.308617 61.248306 
L 174.325196 98.136805 
L 175.341774 101.097528 
L 176.358353 69.369939 
L 177.374932 93.28192 
L 178.39151 95.052607 
L 179.408089 100.018724 
L 180.424668 89.107742 
L 181.441246 90.072119 
L 182.457825 113.416225 
L 183.474403 120.012524 
L 184.490982 117.696315 
L 185.507561 100.390212 
L 186.524139 98.155965 
L 187.540718 95.068041 
L 188.557296 89.885311 
L 189.573875 100.040013 
L 190.590454 111.749321 
L 191.607032 96.53217 
L 192.623611 104.777277 
L 193.640189 99.293312 
L 194.656768 109.155295 
L 195.673347 100.052254 
L 196.689925 98.607817 
L 197.706504 103.777241 
L 198.723083 91.231288 
L 199.739661 90.123744 
L 200.75624 100.945314 
L 201.772818 76.886441 
L 202.789397 89.86828 
L 203.805976 71.14169 
L 204.822554 106.934885 
L 205.839133 109.662498 
L 206.855711 98.562578 
L 207.87229 86.036849 
L 208.888869 117.412643 
L 209.905447 126.879721 
L 210.922026 81.218688 
L 211.938604 90.779436 
L 212.955183 85.773934 
L 213.971762 82.01861 
L 214.98834 125.566741 
L 216.004919 107.767273 
L 217.021498 79.038727 
L 218.038076 87.823502 
L 219.054655 95.308603 
L 220.071233 99.269895 
L 221.087812 80.704566 
L 222.104391 99.349195 
L 223.120969 93.109482 
L 224.137548 114.984669 
L 225.154126 101.500949 
L 226.170705 95.599726 
L 227.187284 115.533917 
L 228.203862 71.98206 
L 229.220441 105.221146 
L 230.237019 117.832562 
L 231.253598 66.722159 
L 232.270177 102.768158 
L 233.286755 99.93357 
L 234.303334 93.078614 
L 235.319913 95.164905 
L 236.336491 114.019759 
L 237.35307 94.584256 
L 238.369648 93.332481 
L 239.386227 97.947868 
L 240.402806 100.838339 
L 241.419384 111.156963 
L 242.435963 102.016667 
L 243.452541 101.544591 
L 244.46912 76.345176 
L 245.485699 92.123284 
L 246.502277 91.506444 
L 247.518856 115.084726 
L 248.535435 82.547102 
L 249.552013 106.95032 
L 250.568592 107.39206 
L 251.58517 124.69018 
L 252.601749 80.955773 
L 253.618328 74.829422 
L 254.634906 84.340141 
L 255.651485 109.234595 
L 256.668063 94.83493 
L 257.684642 88.503143 
L 258.701221 105.844905 
L 259.717799 94.108454 
L 260.734378 100.455142 
L 261.750956 92.499029 
L 262.767535 88.534012 
L 263.784114 90.538341 
L 264.800692 99.059137 
L 265.817271 76.378174 
L 266.83385 91.503783 
L 267.850428 81.426253 
L 268.867007 102.350367 
L 269.883585 80.097839 
L 270.900164 83.430582 
L 271.916743 103.131662 
L 272.933321 96.718978 
L 273.9499 87.536637 
L 274.966478 98.62538 
L 275.983057 107.129677 
L 276.999636 81.431575 
L 278.016214 92.48732 
L 279.032793 105.357394 
L 280.049371 110.502869 
L 281.06595 107.872652 
L 282.082529 108.444785 
L 283.099107 82.406064 
L 284.115686 124.829088 
L 285.132265 98.760031 
L 286.148843 85.95542 
L 287.165422 93.196234 
L 288.182 102.705356 
L 290.215158 87.645742 
L 291.231736 89.451022 
L 292.248315 100.35136 
L 294.281472 111.951564 
L 295.298051 79.890274 
L 296.314629 93.285646 
L 297.331208 89.932146 
L 298.347786 91.782665 
L 299.364365 101.718093 
L 300.380944 102.380172 
L 301.397522 106.035438 
L 302.414101 73.921992 
L 303.43068 73.326973 
L 304.447258 108.585823 
L 305.463837 100.736685 
L 306.480415 107.947162 
L 307.496994 82.313459 
L 308.513573 92.213229 
L 309.530151 111.969127 
L 310.54673 80.566722 
L 311.563308 100.157101 
L 312.579887 94.677926 
L 313.596466 113.081993 
L 314.613044 85.809593 
L 315.629623 72.767613 
L 316.646201 80.697115 
L 317.66278 80.080808 
L 318.679359 87.960814 
L 319.695937 124.864215 
L 320.712516 91.758715 
L 321.729095 104.72512 
L 322.745673 89.69531 
L 323.762252 93.11853 
L 324.77883 86.832514 
L 325.795409 82.369341 
L 326.811988 89.337127 
L 327.828566 98.086244 
L 328.845145 103.420656 
L 329.861723 90.676186 
L 330.878302 99.144824 
L 331.894881 95.300088 
L 332.911459 92.668274 
L 333.928038 101.176296 
L 334.944617 83.335315 
L 335.961195 93.103628 
L 336.977774 80.540643 
L 337.994352 75.285532 
L 339.010931 88.550511 
L 340.02751 93.354302 
L 341.044088 89.413234 
L 342.060667 79.895064 
L 343.077245 76.765628 
L 344.093824 84.355043 
L 345.110403 85.573288 
L 346.126981 102.683535 
L 347.14356 109.910511 
L 348.160138 87.187503 
L 349.176717 105.89653 
L 350.193296 96.509285 
L 351.209874 76.520808 
L 352.226453 91.807147 
L 353.243032 81.994661 
L 354.25961 99.967099 
L 355.276189 113.766956 
L 356.292767 90.213689 
L 357.309346 95.362889 
L 358.325925 97.968624 
L 359.342503 119.091788 
L 360.359082 99.388047 
L 361.37566 101.151282 
L 362.392239 87.82297 
L 363.408818 76.378174 
L 365.441975 104.16576 
L 366.458553 111.383156 
L 367.475132 94.631091 
L 368.491711 105.732607 
L 369.508289 112.073441 
L 370.524868 121.255783 
L 371.541447 80.281454 
L 372.558025 80.449634 
L 373.574604 73.605855 
L 374.591182 105.006131 
L 375.607761 89.404187 
L 376.62434 120.609671 
L 377.640918 106.281855 
L 378.657497 120.947097 
L 379.674075 76.301534 
L 380.690654 101.596748 
L 381.707233 102.700566 
L 382.723811 99.068185 
L 383.74039 76.950307 
L 384.756968 90.498957 
L 385.773547 83.621116 
L 386.790126 120.98861 
L 387.806704 124.727435 
L 388.823283 111.360803 
L 389.839862 111.044666 
L 390.85644 117.014013 
L 391.873019 84.562608 
L 392.889597 92.387264 
L 393.906176 103.362112 
L 394.922755 108.396353 
L 395.939333 101.207165 
L 396.955912 127.111235 
L 398.989069 84.035713 
L 400.005648 114.096398 
L 401.022226 80.432603 
L 402.038805 107.471892 
L 403.055383 78.969006 
L 404.071962 91.235014 
L 405.088541 86.538198 
L 406.105119 99.563147 
L 407.121698 99.893653 
L 408.138277 106.214263 
L 409.154855 107.48094 
L 410.171434 106.546367 
L 411.188012 112.734987 
L 413.22117 85.803738 
L 414.237748 99.662671 
L 415.254327 96.984555 
L 416.270905 68.55405 
L 417.287484 87.875659 
L 418.304063 95.735441 
L 419.320641 92.711916 
L 420.33722 114.838841 
L 421.353799 107.228137 
L 422.370377 95.995163 
L 423.386956 95.954182 
L 424.403534 78.320234 
L 425.420113 96.410292 
L 426.436692 107.418671 
L 427.45327 74.727236 
L 428.469849 104.00024 
L 429.486427 75.690549 
L 430.503006 90.272765 
L 431.519585 114.618503 
L 432.536163 89.189171 
L 433.552742 103.727213 
L 434.56932 104.264752 
L 435.585899 85.43438 
L 436.602478 92.913626 
L 437.619056 80.188848 
L 438.635635 80.64549 
L 439.652214 109.746056 
L 440.668792 87.332266 
L 441.685371 89.963547 
L 442.701949 108.202626 
L 443.718528 73.974149 
L 444.735107 99.88567 
L 445.751685 112.467282 
L 446.768264 89.493599 
L 447.784842 112.851543 
L 448.801421 120.765611 
L 449.818 115.316772 
L 450.834578 77.294119 
L 451.851157 98.167673 
L 452.867735 100.381696 
L 453.884314 94.316018 
L 454.900893 78.800294 
L 455.917471 109.969587 
L 456.93405 105.052966 
L 457.950629 109.808325 
L 458.967207 74.576087 
L 459.983786 99.336954 
L 461.000364 78.244127 
L 462.016943 94.065344 
L 463.033522 70.502497 
L 464.0501 96.044659 
L 465.066679 93.901421 
L 466.083257 87.149183 
L 467.099836 95.269219 
L 468.116415 87.942186 
L 469.132993 112.175627 
L 470.149572 78.937606 
L 471.16615 108.260106 
L 472.182729 108.075959 
L 475.232465 83.717447 
L 476.249044 85.654717 
L 477.265622 109.096751 
L 478.282201 109.489527 
L 479.298779 99.121939 
L 480.315358 91.01095 
L 481.331937 78.82584 
L 482.348515 102.429136 
L 483.365094 95.115408 
L 484.381672 105.386134 
L 485.398251 113.666367 
L 486.41483 89.033764 
L 487.431408 105.794344 
L 488.447987 97.132511 
L 489.464565 84.455632 
L 490.481144 102.958159 
L 491.497723 104.576631 
L 492.514301 95.194709 
L 493.53088 101.162459 
L 494.547459 123.355379 
L 495.564037 69.974538 
L 496.580616 97.364558 
L 497.597194 101.721287 
L 498.613773 100.298138 
L 499.630352 100.813324 
L 500.64693 109.203727 
L 501.663509 110.702982 
L 502.680087 109.364456 
L 503.696666 85.773934 
L 504.713245 91.06364 
L 505.729823 113.077735 
L 506.746402 109.200001 
L 507.762981 97.240019 
L 508.779559 116.719164 
L 509.796138 106.545835 
L 510.812716 91.595325 
L 511.829295 116.063473 
L 512.845874 86.342342 
L 513.862452 122.875851 
L 514.879031 120.395188 
L 515.895609 113.203338 
L 516.912188 108.592742 
L 517.928767 104.6075 
L 518.945345 113.358746 
L 519.961924 83.622713 
L 520.978502 104.760779 
L 521.995081 88.009246 
L 523.01166 104.932152 
L 524.028238 90.036993 
L 525.044817 99.487039 
L 526.061396 88.672388 
L 527.077974 74.746396 
L 528.094553 106.140285 
L 529.111131 91.464931 
L 530.12771 86.977277 
L 531.144289 80.115402 
L 532.160867 101.585039 
L 533.177446 91.596389 
L 534.194024 94.153692 
L 535.210603 85.997997 
L 536.227182 100.080994 
L 537.24376 116.970371 
L 538.260339 62.837507 
L 539.276917 86.02993 
L 540.293496 88.519642 
L 541.310075 107.229734 
L 542.326653 93.861505 
L 543.343232 105.264788 
L 544.359811 106.098772 
L 545.376389 111.851507 
L 546.392968 88.494096 
L 547.409546 115.254503 
L 548.426125 113.268801 
L 549.442704 78.136087 
L 550.459282 110.477854 
L 551.475861 55.8 
L 552.492439 94.988741 
L 553.509018 100.128361 
L 554.525597 92.821553 
L 555.542175 76.02212 
L 556.558754 82.076622 
L 557.575332 73.252995 
L 558.591911 88.953931 
L 559.60849 95.829644 
L 560.625068 82.552956 
L 561.641647 110.974945 
L 562.658226 89.242925 
L 563.674804 82.657803 
L 564.691383 68.956406 
L 565.707961 90.531423 
L 566.72454 119.672437 
L 567.741119 88.708579 
L 568.757697 115.689324 
L 569.774276 89.376511 
L 570.790854 94.928068 
L 571.807433 85.212977 
L 572.824012 98.581206 
L 573.84059 94.490585 
L 574.857169 104.361084 
L 575.873747 95.586953 
L 576.890326 76.06044 
L 577.906905 119.77888 
L 578.923483 103.743179 
L 579.940062 121.385644 
L 580.956641 86.645173 
L 581.973219 114.947946 
L 582.989798 94.283553 
L 584.006376 89.357352 
L 585.022955 92.451662 
L 586.039534 84.905888 
L 587.056112 89.276455 
L 588.072691 104.519684 
L 589.089269 110.43847 
L 590.105848 98.159158 
L 591.122427 104.942797 
L 592.139005 96.583795 
L 593.155584 87.045401 
L 594.172163 98.411961 
L 595.188741 87.278512 
L 596.20532 114.962848 
L 597.221898 94.009993 
L 598.238477 92.541606 
L 599.255056 101.298706 
L 600.271634 106.957238 
L 601.288213 116.750033 
L 602.304791 78.209 
L 603.32137 84.933563 
L 604.337949 111.78019 
L 605.354527 100.62492 
L 606.371106 84.452971 
L 607.387684 92.349476 
L 608.404263 96.860016 
L 609.420842 91.624064 
L 610.43742 93.306935 
L 611.453999 80.142013 
L 612.470578 76.515486 
L 613.487156 105.773588 
L 614.503735 119.350978 
L 615.520313 89.792173 
L 616.536892 105.430308 
L 617.553471 85.345499 
L 618.570049 86.002255 
L 619.586628 88.572864 
L 620.603206 109.585859 
L 621.619785 99.177821 
L 622.636364 91.324426 
L 622.636364 91.324426 
" clip-path="url(#p6fb38ff450)" style="fill: none; stroke: #1f77b4; stroke-width: 1.5; stroke-linecap: square"/>
   </g>
   <g id="line2d_26">
    <path d="M 115.363636 302.130291 
L 116.380215 300.736415 
L 117.396794 299.930106 
L 118.413372 299.520299 
L 119.429951 302.105277 
L 120.446529 302.098358 
L 121.463108 304.782861 
L 122.479687 300.171733 
L 123.496265 298.762422 
L 124.512844 299.113685 
L 125.529422 299.759264 
L 126.546001 301.692809 
L 127.56258 301.562416 
L 128.579158 300.015261 
L 129.595737 298.849705 
L 130.612316 297.889586 
L 131.628894 302.169675 
L 132.645473 303.741845 
L 133.662051 298.750181 
L 134.67863 303.667334 
L 135.695209 301.375608 
L 136.711787 302.165418 
L 137.728366 301.494824 
L 138.744944 297.399946 
L 139.761523 304.462467 
L 140.778102 298.954552 
L 141.79468 297.650088 
L 142.811259 302.861025 
L 143.827837 298.913571 
L 144.844416 302.592788 
L 145.860995 298.652785 
L 146.877573 300.146186 
L 147.894152 299.950862 
L 148.910731 302.938197 
L 149.927309 297.022072 
L 150.943888 301.827992 
L 151.960466 297.916197 
L 152.977045 303.92546 
L 153.993624 299.206291 
L 155.010202 301.037117 
L 156.026781 294.547262 
L 157.043359 304.078738 
L 158.059938 301.034989 
L 159.076517 300.588991 
L 160.093095 299.464948 
L 161.109674 301.490034 
L 162.126253 302.169143 
L 163.142831 300.932271 
L 164.15941 300.090836 
L 165.175988 302.093036 
L 166.192567 297.615494 
L 167.209146 302.3964 
L 168.225724 301.863118 
L 169.242303 298.134938 
L 170.258881 299.711897 
L 171.27546 299.260577 
L 172.292039 298.064153 
L 173.308617 303.330973 
L 174.325196 297.88107 
L 175.341774 296.190749 
L 176.358353 300.418681 
L 177.374932 300.45913 
L 178.39151 298.997662 
L 179.408089 301.160592 
L 180.424668 299.73425 
L 181.441246 301.830653 
L 182.457825 297.206219 
L 183.474403 302.77321 
L 185.507561 300.644341 
L 187.540718 300.664566 
L 188.557296 298.48833 
L 189.573875 300.33193 
L 190.590454 299.254722 
L 191.607032 303.056881 
L 192.623611 300.555461 
L 193.640189 299.446853 
L 194.656768 300.104673 
L 195.673347 302.260685 
L 196.689925 300.352686 
L 197.706504 301.05202 
L 198.723083 301.253198 
L 199.739661 300.160024 
L 200.75624 298.603821 
L 201.772818 303.763666 
L 202.789397 300.837004 
L 203.805976 300.968461 
L 204.822554 296.868793 
L 205.839133 297.843815 
L 206.855711 299.447917 
L 207.87229 305.02981 
L 208.888869 299.100912 
L 209.905447 304.010614 
L 210.922026 304.285238 
L 211.938604 296.296128 
L 212.955183 303.950474 
L 213.971762 298.613401 
L 214.98834 300.215374 
L 216.004919 300.640616 
L 217.021498 300.35588 
L 218.038076 297.3744 
L 219.054655 298.720909 
L 220.071233 302.92702 
L 221.087812 299.775763 
L 222.104391 301.810961 
L 223.120969 299.59747 
L 224.137548 297.793787 
L 225.154126 302.881782 
L 226.170705 302.767355 
L 227.187284 292.685035 
L 228.203862 307.8 
L 229.220441 297.604317 
L 230.237019 295.301946 
L 231.253598 303.597614 
L 232.270177 298.542084 
L 233.286755 300.045065 
L 234.303334 298.528778 
L 235.319913 302.977581 
L 236.336491 300.402715 
L 237.35307 302.275587 
L 238.369648 304.56412 
L 239.386227 297.303082 
L 240.402806 299.802374 
L 241.419384 301.521435 
L 242.435963 304.126105 
L 243.452541 299.283994 
L 244.46912 301.739112 
L 245.485699 299.873691 
L 246.502277 296.933724 
L 247.518856 300.640616 
L 248.535435 301.698663 
L 249.552013 297.034313 
L 250.568592 305.480066 
L 251.58517 303.928121 
L 252.601749 301.473536 
L 253.618328 303.493832 
L 254.634906 297.250925 
L 255.651485 303.027077 
L 256.668063 302.086117 
L 257.684642 300.806667 
L 258.701221 299.903495 
L 259.717799 301.280873 
L 260.734378 303.684365 
L 261.750956 299.080687 
L 262.767535 302.892426 
L 263.784114 298.201465 
L 264.800692 302.565113 
L 265.817271 303.375679 
L 266.83385 300.64647 
L 267.850428 300.495321 
L 268.867007 300.227615 
L 269.883585 304.808408 
L 270.900164 297.311066 
L 271.916743 298.434576 
L 272.933321 303.610387 
L 273.9499 297.418041 
L 274.966478 301.120143 
L 275.983057 301.083953 
L 276.999636 299.419178 
L 278.016214 301.405412 
L 279.032793 299.823663 
L 281.06595 300.489998 
L 282.082529 305.739788 
L 283.099107 302.225026 
L 284.115686 299.316992 
L 285.132265 300.8072 
L 286.148843 305.011715 
L 287.165422 299.452175 
L 288.182 297.770901 
L 289.198579 303.738119 
L 290.215158 301.198379 
L 291.231736 302.926488 
L 292.248315 296.200329 
L 293.264893 303.547053 
L 294.281472 297.078487 
L 295.298051 302.959486 
L 296.314629 303.137778 
L 297.331208 295.874612 
L 298.347786 299.604389 
L 299.364365 302.198947 
L 300.380944 301.760401 
L 301.397522 299.494752 
L 302.414101 304.668435 
L 303.43068 300.372911 
L 304.447258 299.642709 
L 305.463837 297.724066 
L 306.480415 303.895655 
L 307.496994 300.26966 
L 308.513573 301.383591 
L 309.530151 299.393631 
L 310.54673 299.525621 
L 311.563308 294.307232 
L 312.579887 303.597614 
L 313.596466 299.054077 
L 314.613044 302.346372 
L 315.629623 297.942807 
L 316.646201 299.077494 
L 317.66278 302.427269 
L 318.679359 300.315431 
L 319.695937 299.16531 
L 320.712516 299.989714 
L 321.729095 301.109499 
L 322.745673 296.292934 
L 323.762252 297.799109 
L 324.77883 299.744362 
L 325.795409 301.064261 
L 326.811988 299.351054 
L 327.828566 303.150019 
L 328.845145 299.290381 
L 329.861723 304.246387 
L 330.878302 296.328061 
L 331.894881 303.058478 
L 332.911459 301.242553 
L 333.928038 301.066922 
L 334.944617 300.265403 
L 335.961195 300.497982 
L 337.994352 304.35762 
L 339.010931 294.853819 
L 340.02751 299.858789 
L 341.044088 300.238792 
L 342.060667 298.844383 
L 343.077245 300.663501 
L 344.093824 296.204054 
L 345.110403 297.293503 
L 346.126981 299.307412 
L 347.14356 302.017994 
L 348.160138 301.735386 
L 350.193296 300.278708 
L 351.209874 301.079695 
L 352.226453 295.75646 
L 353.243032 304.662048 
L 354.25961 296.555317 
L 355.276189 302.844527 
L 356.292767 304.140475 
L 357.309346 297.250925 
L 358.325925 300.329269 
L 359.342503 298.501635 
L 360.359082 302.929149 
L 361.37566 301.84183 
L 362.392239 298.537826 
L 363.408818 299.209484 
L 364.425396 301.031795 
L 365.441975 294.713846 
L 366.458553 301.262778 
L 367.475132 302.116454 
L 368.491711 299.840161 
L 369.508289 301.292582 
L 370.524868 301.68589 
L 371.541447 300.707143 
L 372.558025 303.611984 
L 373.574604 297.456361 
L 374.591182 297.343531 
L 376.62434 300.033888 
L 377.640918 302.975452 
L 378.657497 303.868512 
L 379.674075 301.591688 
L 380.690654 297.478714 
L 381.707233 302.649735 
L 382.723811 303.205902 
L 383.74039 299.137103 
L 384.756968 295.972007 
L 385.773547 303.929185 
L 386.790126 298.182305 
L 387.806704 302.807272 
L 388.823283 304.984039 
L 389.839862 302.739148 
L 390.85644 302.42035 
L 391.873019 304.161232 
L 392.889597 301.408605 
L 393.906176 296.819829 
L 394.922755 300.278708 
L 395.939333 300.026969 
L 396.955912 302.535841 
L 397.97249 302.693377 
L 398.989069 302.692845 
L 400.005648 298.641076 
L 401.022226 300.610279 
L 402.038805 293.763839 
L 403.055383 299.580972 
L 404.071962 303.32778 
L 405.088541 299.469206 
L 406.105119 303.237303 
L 407.121698 300.573024 
L 408.138277 299.750749 
L 409.154855 301.668327 
L 410.171434 302.375111 
L 411.188012 299.563941 
L 412.204591 305.402362 
L 413.22117 299.517105 
L 414.237748 302.459202 
L 415.254327 297.807624 
L 416.270905 301.755611 
L 417.287484 300.723109 
L 418.304063 294.808049 
L 419.320641 306.974531 
L 420.33722 299.544249 
L 421.353799 298.168467 
L 422.370377 305.866988 
L 423.386956 300.21431 
L 424.403534 303.440078 
L 425.420113 299.897641 
L 426.436692 299.303154 
L 427.45327 303.362906 
L 428.469849 297.249861 
L 429.486427 302.073344 
L 430.503006 302.855171 
L 431.519585 298.935924 
L 432.536163 304.288964 
L 433.552742 300.865744 
L 434.56932 304.212325 
L 435.585899 300.326075 
L 436.602478 299.700188 
L 437.619056 301.379865 
L 438.635635 295.035305 
L 439.652214 303.833386 
L 440.668792 300.208455 
L 441.685371 298.737407 
L 442.701949 295.574441 
L 443.718528 303.638595 
L 444.735107 301.020087 
L 445.751685 298.006673 
L 446.768264 306.564724 
L 447.784842 298.81245 
L 448.801421 301.583704 
L 449.818 302.154773 
L 450.834578 303.696074 
L 451.851157 299.286123 
L 452.867735 298.054041 
L 453.884314 303.652964 
L 454.900893 299.263238 
L 455.917471 303.17184 
L 456.93405 299.353183 
L 457.950629 298.294603 
L 458.967207 301.017425 
L 459.983786 300.042404 
L 461.000364 301.362834 
L 462.016943 299.673577 
L 463.033522 303.523636 
L 464.0501 301.049891 
L 465.066679 300.851374 
L 466.083257 301.279276 
L 467.099836 302.71573 
L 468.116415 300.628375 
L 469.132993 296.63994 
L 470.149572 300.124897 
L 471.16615 299.19884 
L 472.182729 303.657222 
L 473.199308 297.310533 
L 474.215886 300.283498 
L 475.232465 300.91524 
L 476.249044 299.873691 
L 477.265622 292.584978 
L 478.282201 302.888701 
L 479.298779 301.045101 
L 480.315358 301.857796 
L 481.331937 301.656086 
L 482.348515 298.711329 
L 483.365094 302.156902 
L 484.381672 300.451146 
L 485.398251 299.023208 
L 486.41483 300.282966 
L 487.431408 298.731553 
L 488.447987 302.477297 
L 489.464565 302.052588 
L 490.481144 301.256391 
L 491.497723 300.8072 
L 492.514301 299.116346 
L 493.53088 300.637955 
L 494.547459 298.218496 
L 495.564037 301.521435 
L 496.580616 298.778388 
L 497.597194 300.187167 
L 498.613773 297.708632 
L 499.630352 302.843995 
L 500.64693 301.466084 
L 501.663509 298.784775 
L 502.680087 303.17184 
L 503.696666 305.049502 
L 504.713245 298.695362 
L 505.729823 300.470306 
L 506.746402 304.608294 
L 507.762981 302.335195 
L 508.779559 298.523988 
L 509.796138 301.23457 
L 510.812716 301.807768 
L 511.829295 301.536869 
L 512.845874 303.853078 
L 513.862452 300.023776 
L 514.879031 300.167475 
L 515.895609 303.13086 
L 516.912188 304.67695 
L 517.928767 301.334095 
L 518.945345 298.684186 
L 519.961924 302.165418 
L 520.978502 298.391999 
L 521.995081 302.738083 
L 523.01166 296.546802 
L 524.028238 302.135614 
L 525.044817 298.583597 
L 526.061396 302.424607 
L 527.077974 302.296875 
L 528.094553 297.950258 
L 529.111131 301.5539 
L 530.12771 303.327248 
L 531.144289 297.28339 
L 532.160867 301.238296 
L 533.177446 301.177623 
L 534.194024 298.241381 
L 535.210603 302.816851 
L 536.227182 300.520867 
L 537.24376 300.947705 
L 538.260339 303.997841 
L 539.276917 295.387101 
L 540.293496 302.609819 
L 541.310075 293.860702 
L 542.326653 302.369789 
L 543.343232 301.564012 
L 544.359811 296.206183 
L 545.376389 301.623621 
L 546.392968 299.666126 
L 547.409546 300.78325 
L 548.426125 303.472543 
L 549.442704 298.733682 
L 550.459282 298.256283 
L 551.475861 304.357088 
L 552.492439 297.941743 
L 553.509018 297.530339 
L 554.525597 300.016325 
L 555.542175 301.064793 
L 556.558754 298.232333 
L 557.575332 298.816708 
L 559.60849 297.111484 
L 560.625068 302.368725 
L 561.641647 300.769945 
L 562.658226 299.763522 
L 563.674804 299.166907 
L 564.691383 304.162296 
L 565.707961 298.231269 
L 566.72454 299.923187 
L 567.741119 299.320717 
L 568.757697 299.254722 
L 569.774276 300.127558 
L 570.790854 298.677267 
L 571.807433 306.348112 
L 572.824012 298.872058 
L 573.84059 301.057342 
L 574.857169 300.819973 
L 575.873747 301.730064 
L 576.890326 296.793751 
L 578.923483 299.014693 
L 579.940062 306.156514 
L 580.956641 300.020583 
L 581.973219 300.817312 
L 582.989798 305.757883 
L 584.006376 296.670276 
L 585.022955 296.478678 
L 586.039534 300.391538 
L 587.056112 296.420666 
L 588.072691 300.083384 
L 589.089269 301.281405 
L 590.105848 300.132348 
L 591.122427 301.442667 
L 592.139005 304.125041 
L 593.155584 299.829517 
L 594.172163 303.736523 
L 595.188741 300.73056 
L 596.20532 299.103573 
L 597.221898 304.687062 
L 598.238477 301.501211 
L 599.255056 299.588423 
L 600.271634 299.720412 
L 601.288213 300.155234 
L 602.304791 303.938233 
L 603.32137 301.775303 
L 604.337949 300.683725 
L 605.354527 304.961686 
L 606.371106 301.733257 
L 607.387684 301.109499 
L 608.404263 299.27814 
L 609.420842 302.375643 
L 610.43742 298.313763 
L 611.453999 300.455404 
L 612.470578 301.820541 
L 613.487156 298.439898 
L 614.503735 299.046093 
L 615.520313 304.458209 
L 616.536892 297.579835 
L 617.553471 302.32189 
L 618.570049 299.967361 
L 619.586628 296.521788 
L 620.603206 300.334059 
L 621.619785 298.628835 
L 622.636364 300.751849 
L 622.636364 300.751849 
" clip-path="url(#p6fb38ff450)" style="fill: none; stroke: #ff7f0e; stroke-width: 1.5; stroke-linecap: square"/>
   </g>
   <g id="patch_3">
    <path d="M 90 320.4 
L 90 43.2 
" style="fill: none; stroke: #000000; stroke-width: 0.8; stroke-linejoin: miter; stroke-linecap: square"/>
   </g>
   <g id="patch_4">
    <path d="M 648 320.4 
L 648 43.2 
" style="fill: none; stroke: #000000; stroke-width: 0.8; stroke-linejoin: miter; stroke-linecap: square"/>
   </g>
   <g id="patch_5">
    <path d="M 90 320.4 
L 648 320.4 
" style="fill: none; stroke: #000000; stroke-width: 0.8; stroke-linejoin: miter; stroke-linecap: square"/>
   </g>
   <g id="patch_6">
    <path d="M 90 43.2 
L 648 43.2 
" style="fill: none; stroke: #000000; stroke-width: 0.8; stroke-linejoin: miter; stroke-linecap: square"/>
   </g>
   <g id="text_15">
    <!-- model train and validation loss over time -->
    <g transform="translate(245.555625 37.2) scale(0.12 -0.12)">
     <defs>
      <path id="DejaVuSans-6d" d="M 3328 2828 
Q 3544 3216 3844 3400 
Q 4144 3584 4550 3584 
Q 5097 3584 5394 3201 
Q 5691 2819 5691 2113 
L 5691 0 
L 5113 0 
L 5113 2094 
Q 5113 2597 4934 2840 
Q 4756 3084 4391 3084 
Q 3944 3084 3684 2787 
Q 3425 2491 3425 1978 
L 3425 0 
L 2847 0 
L 2847 2094 
Q 2847 2600 2669 2842 
Q 2491 3084 2119 3084 
Q 1678 3084 1418 2786 
Q 1159 2488 1159 1978 
L 1159 0 
L 581 0 
L 581 3500 
L 1159 3500 
L 1159 2956 
Q 1356 3278 1631 3431 
Q 1906 3584 2284 3584 
Q 2666 3584 2933 3390 
Q 3200 3197 3328 2828 
z
" transform="scale(0.015625)"/>
      <path id="DejaVuSans-64" d="M 2906 2969 
L 2906 4863 
L 3481 4863 
L 3481 0 
L 2906 0 
L 2906 525 
Q 2725 213 2448 61 
Q 2172 -91 1784 -91 
Q 1150 -91 751 415 
Q 353 922 353 1747 
Q 353 2572 751 3078 
Q 1150 3584 1784 3584 
Q 2172 3584 2448 3432 
Q 2725 3281 2906 2969 
z
M 947 1747 
Q 947 1113 1208 752 
Q 1469 391 1925 391 
Q 2381 391 2643 752 
Q 2906 1113 2906 1747 
Q 2906 2381 2643 2742 
Q 2381 3103 1925 3103 
Q 1469 3103 1208 2742 
Q 947 2381 947 1747 
z
" transform="scale(0.015625)"/>
      <path id="DejaVuSans-20" transform="scale(0.015625)"/>
      <path id="DejaVuSans-74" d="M 1172 4494 
L 1172 3500 
L 2356 3500 
L 2356 3053 
L 1172 3053 
L 1172 1153 
Q 1172 725 1289 603 
Q 1406 481 1766 481 
L 2356 481 
L 2356 0 
L 1766 0 
Q 1100 0 847 248 
Q 594 497 594 1153 
L 594 3053 
L 172 3053 
L 172 3500 
L 594 3500 
L 594 4494 
L 1172 4494 
z
" transform="scale(0.015625)"/>
      <path id="DejaVuSans-72" d="M 2631 2963 
Q 2534 3019 2420 3045 
Q 2306 3072 2169 3072 
Q 1681 3072 1420 2755 
Q 1159 2438 1159 1844 
L 1159 0 
L 581 0 
L 581 3500 
L 1159 3500 
L 1159 2956 
Q 1341 3275 1631 3429 
Q 1922 3584 2338 3584 
Q 2397 3584 2469 3576 
Q 2541 3569 2628 3553 
L 2631 2963 
z
" transform="scale(0.015625)"/>
      <path id="DejaVuSans-61" d="M 2194 1759 
Q 1497 1759 1228 1600 
Q 959 1441 959 1056 
Q 959 750 1161 570 
Q 1363 391 1709 391 
Q 2188 391 2477 730 
Q 2766 1069 2766 1631 
L 2766 1759 
L 2194 1759 
z
M 3341 1997 
L 3341 0 
L 2766 0 
L 2766 531 
Q 2569 213 2275 61 
Q 1981 -91 1556 -91 
Q 1019 -91 701 211 
Q 384 513 384 1019 
Q 384 1609 779 1909 
Q 1175 2209 1959 2209 
L 2766 2209 
L 2766 2266 
Q 2766 2663 2505 2880 
Q 2244 3097 1772 3097 
Q 1472 3097 1187 3025 
Q 903 2953 641 2809 
L 641 3341 
Q 956 3463 1253 3523 
Q 1550 3584 1831 3584 
Q 2591 3584 2966 3190 
Q 3341 2797 3341 1997 
z
" transform="scale(0.015625)"/>
      <path id="DejaVuSans-69" d="M 603 3500 
L 1178 3500 
L 1178 0 
L 603 0 
L 603 3500 
z
M 603 4863 
L 1178 4863 
L 1178 4134 
L 603 4134 
L 603 4863 
z
" transform="scale(0.015625)"/>
      <path id="DejaVuSans-6e" d="M 3513 2113 
L 3513 0 
L 2938 0 
L 2938 2094 
Q 2938 2591 2744 2837 
Q 2550 3084 2163 3084 
Q 1697 3084 1428 2787 
Q 1159 2491 1159 1978 
L 1159 0 
L 581 0 
L 581 3500 
L 1159 3500 
L 1159 2956 
Q 1366 3272 1645 3428 
Q 1925 3584 2291 3584 
Q 2894 3584 3203 3211 
Q 3513 2838 3513 2113 
z
" transform="scale(0.015625)"/>
      <path id="DejaVuSans-76" d="M 191 3500 
L 800 3500 
L 1894 563 
L 2988 3500 
L 3597 3500 
L 2284 0 
L 1503 0 
L 191 3500 
z
" transform="scale(0.015625)"/>
     </defs>
     <use xlink:href="#DejaVuSans-6d"/>
     <use xlink:href="#DejaVuSans-6f" x="97.412109"/>
     <use xlink:href="#DejaVuSans-64" x="158.59375"/>
     <use xlink:href="#DejaVuSans-65" x="222.070312"/>
     <use xlink:href="#DejaVuSans-6c" x="283.59375"/>
     <use xlink:href="#DejaVuSans-20" x="311.376953"/>
     <use xlink:href="#DejaVuSans-74" x="343.164062"/>
     <use xlink:href="#DejaVuSans-72" x="382.373047"/>
     <use xlink:href="#DejaVuSans-61" x="423.486328"/>
     <use xlink:href="#DejaVuSans-69" x="484.765625"/>
     <use xlink:href="#DejaVuSans-6e" x="512.548828"/>
     <use xlink:href="#DejaVuSans-20" x="575.927734"/>
     <use xlink:href="#DejaVuSans-61" x="607.714844"/>
     <use xlink:href="#DejaVuSans-6e" x="668.994141"/>
     <use xlink:href="#DejaVuSans-64" x="732.373047"/>
     <use xlink:href="#DejaVuSans-20" x="795.849609"/>
     <use xlink:href="#DejaVuSans-76" x="827.636719"/>
     <use xlink:href="#DejaVuSans-61" x="886.816406"/>
     <use xlink:href="#DejaVuSans-6c" x="948.095703"/>
     <use xlink:href="#DejaVuSans-69" x="975.878906"/>
     <use xlink:href="#DejaVuSans-64" x="1003.662109"/>
     <use xlink:href="#DejaVuSans-61" x="1067.138672"/>
     <use xlink:href="#DejaVuSans-74" x="1128.417969"/>
     <use xlink:href="#DejaVuSans-69" x="1167.626953"/>
     <use xlink:href="#DejaVuSans-6f" x="1195.410156"/>
     <use xlink:href="#DejaVuSans-6e" x="1256.591797"/>
     <use xlink:href="#DejaVuSans-20" x="1319.970703"/>
     <use xlink:href="#DejaVuSans-6c" x="1351.757812"/>
     <use xlink:href="#DejaVuSans-6f" x="1379.541016"/>
     <use xlink:href="#DejaVuSans-73" x="1440.722656"/>
     <use xlink:href="#DejaVuSans-73" x="1492.822266"/>
     <use xlink:href="#DejaVuSans-20" x="1544.921875"/>
     <use xlink:href="#DejaVuSans-6f" x="1576.708984"/>
     <use xlink:href="#DejaVuSans-76" x="1637.890625"/>
     <use xlink:href="#DejaVuSans-65" x="1697.070312"/>
     <use xlink:href="#DejaVuSans-72" x="1758.59375"/>
     <use xlink:href="#DejaVuSans-20" x="1799.707031"/>
     <use xlink:href="#DejaVuSans-74" x="1831.494141"/>
     <use xlink:href="#DejaVuSans-69" x="1870.703125"/>
     <use xlink:href="#DejaVuSans-6d" x="1898.486328"/>
     <use xlink:href="#DejaVuSans-65" x="1995.898438"/>
    </g>
   </g>
   <g id="legend_1">
    <g id="patch_7">
     <path d="M 559.765625 197.978125 
L 641 197.978125 
Q 643 197.978125 643 195.978125 
L 643 167.621875 
Q 643 165.621875 641 165.621875 
L 559.765625 165.621875 
Q 557.765625 165.621875 557.765625 167.621875 
L 557.765625 195.978125 
Q 557.765625 197.978125 559.765625 197.978125 
z
" style="fill: #ffffff; opacity: 0.8; stroke: #cccccc; stroke-linejoin: miter"/>
    </g>
    <g id="line2d_27">
     <path d="M 561.765625 173.720312 
L 571.765625 173.720312 
L 581.765625 173.720312 
" style="fill: none; stroke: #1f77b4; stroke-width: 1.5; stroke-linecap: square"/>
    </g>
    <g id="text_16">
     <!-- train -->
     <g transform="translate(589.765625 177.220312) scale(0.1 -0.1)">
      <use xlink:href="#DejaVuSans-74"/>
      <use xlink:href="#DejaVuSans-72" x="39.208984"/>
      <use xlink:href="#DejaVuSans-61" x="80.322266"/>
      <use xlink:href="#DejaVuSans-69" x="141.601562"/>
      <use xlink:href="#DejaVuSans-6e" x="169.384766"/>
     </g>
    </g>
    <g id="line2d_28">
     <path d="M 561.765625 188.398437 
L 571.765625 188.398437 
L 581.765625 188.398437 
" style="fill: none; stroke: #ff7f0e; stroke-width: 1.5; stroke-linecap: square"/>
    </g>
    <g id="text_17">
     <!-- validation -->
     <g transform="translate(589.765625 191.898437) scale(0.1 -0.1)">
      <use xlink:href="#DejaVuSans-76"/>
      <use xlink:href="#DejaVuSans-61" x="59.179688"/>
      <use xlink:href="#DejaVuSans-6c" x="120.458984"/>
      <use xlink:href="#DejaVuSans-69" x="148.242188"/>
      <use xlink:href="#DejaVuSans-64" x="176.025391"/>
      <use xlink:href="#DejaVuSans-61" x="239.501953"/>
      <use xlink:href="#DejaVuSans-74" x="300.78125"/>
      <use xlink:href="#DejaVuSans-69" x="339.990234"/>
      <use xlink:href="#DejaVuSans-6f" x="367.773438"/>
      <use xlink:href="#DejaVuSans-6e" x="428.955078"/>
     </g>
    </g>
   </g>
  </g>
 </g>
 <defs>
  <clipPath id="p6fb38ff450">
   <rect x="90" y="43.2" width="558" height="277.2"/>
  </clipPath>
 </defs>
</svg>
