<?xml version="1.0" encoding="utf-8" standalone="no"?>
<!DOCTYPE svg PUBLIC "-//W3C//DTD SVG 1.1//EN"
  "http://www.w3.org/Graphics/SVG/1.1/DTD/svg11.dtd">
<svg xmlns:xlink="http://www.w3.org/1999/xlink" width="720pt" height="360pt" viewBox="0 0 720 360" xmlns="http://www.w3.org/2000/svg" version="1.1">
 <metadata>
  <rdf:RDF xmlns:dc="http://purl.org/dc/elements/1.1/" xmlns:cc="http://creativecommons.org/ns#" xmlns:rdf="http://www.w3.org/1999/02/22-rdf-syntax-ns#">
   <cc:Work>
    <dc:type rdf:resource="http://purl.org/dc/dcmitype/StillImage"/>
    <dc:date>2023-05-24T12:27:53.056478</dc:date>
    <dc:format>image/svg+xml</dc:format>
    <dc:creator>
     <cc:Agent>
      <dc:title>Matplotlib v3.7.1, https://matplotlib.org/</dc:title>
     </cc:Agent>
    </dc:creator>
   </cc:Work>
  </rdf:RDF>
 </metadata>
 <defs>
  <style type="text/css">*{stroke-linejoin: round; stroke-linecap: butt}</style>
 </defs>
 <g id="figure_1">
  <g id="patch_1">
   <path d="M 0 360 
L 720 360 
L 720 0 
L 0 0 
z
" style="fill: #ffffff"/>
  </g>
  <g id="axes_1">
   <g id="patch_2">
    <path d="M 90 320.4 
L 648 320.4 
L 648 43.2 
L 90 43.2 
z
" style="fill: #ffffff"/>
   </g>
   <g id="matplotlib.axis_1">
    <g id="xtick_1">
     <g id="line2d_1">
      <path d="M 115.363636 320.4 
L 115.363636 43.2 
" clip-path="url(#pc4c9890b66)" style="fill: none; stroke: #b0b0b0; stroke-width: 0.8; stroke-linecap: square"/>
     </g>
     <g id="line2d_2">
      <defs>
       <path id="mfac222ebf3" d="M 0 0 
L 0 3.5 
" style="stroke: #000000; stroke-width: 0.8"/>
      </defs>
      <g>
       <use xlink:href="#mfac222ebf3" x="115.363636" y="320.4" style="stroke: #000000; stroke-width: 0.8"/>
      </g>
     </g>
     <g id="text_1">
      <!-- 0 -->
      <g transform="translate(112.182386 334.998438) scale(0.1 -0.1)">
       <defs>
        <path id="DejaVuSans-30" d="M 2034 4250 
Q 1547 4250 1301 3770 
Q 1056 3291 1056 2328 
Q 1056 1369 1301 889 
Q 1547 409 2034 409 
Q 2525 409 2770 889 
Q 3016 1369 3016 2328 
Q 3016 3291 2770 3770 
Q 2525 4250 2034 4250 
z
M 2034 4750 
Q 2819 4750 3233 4129 
Q 3647 3509 3647 2328 
Q 3647 1150 3233 529 
Q 2819 -91 2034 -91 
Q 1250 -91 836 529 
Q 422 1150 422 2328 
Q 422 3509 836 4129 
Q 1250 4750 2034 4750 
z
" transform="scale(0.015625)"/>
       </defs>
       <use xlink:href="#DejaVuSans-30"/>
      </g>
     </g>
    </g>
    <g id="xtick_2">
     <g id="line2d_3">
      <path d="M 217.021498 320.4 
L 217.021498 43.2 
" clip-path="url(#pc4c9890b66)" style="fill: none; stroke: #b0b0b0; stroke-width: 0.8; stroke-linecap: square"/>
     </g>
     <g id="line2d_4">
      <g>
       <use xlink:href="#mfac222ebf3" x="217.021498" y="320.4" style="stroke: #000000; stroke-width: 0.8"/>
      </g>
     </g>
     <g id="text_2">
      <!-- 100 -->
      <g transform="translate(207.477748 334.998438) scale(0.1 -0.1)">
       <defs>
        <path id="DejaVuSans-31" d="M 794 531 
L 1825 531 
L 1825 4091 
L 703 3866 
L 703 4441 
L 1819 4666 
L 2450 4666 
L 2450 531 
L 3481 531 
L 3481 0 
L 794 0 
L 794 531 
z
" transform="scale(0.015625)"/>
       </defs>
       <use xlink:href="#DejaVuSans-31"/>
       <use xlink:href="#DejaVuSans-30" x="63.623047"/>
       <use xlink:href="#DejaVuSans-30" x="127.246094"/>
      </g>
     </g>
    </g>
    <g id="xtick_3">
     <g id="line2d_5">
      <path d="M 318.679359 320.4 
L 318.679359 43.2 
" clip-path="url(#pc4c9890b66)" style="fill: none; stroke: #b0b0b0; stroke-width: 0.8; stroke-linecap: square"/>
     </g>
     <g id="line2d_6">
      <g>
       <use xlink:href="#mfac222ebf3" x="318.679359" y="320.4" style="stroke: #000000; stroke-width: 0.8"/>
      </g>
     </g>
     <g id="text_3">
      <!-- 200 -->
      <g transform="translate(309.135609 334.998438) scale(0.1 -0.1)">
       <defs>
        <path id="DejaVuSans-32" d="M 1228 531 
L 3431 531 
L 3431 0 
L 469 0 
L 469 531 
Q 828 903 1448 1529 
Q 2069 2156 2228 2338 
Q 2531 2678 2651 2914 
Q 2772 3150 2772 3378 
Q 2772 3750 2511 3984 
Q 2250 4219 1831 4219 
Q 1534 4219 1204 4116 
Q 875 4013 500 3803 
L 500 4441 
Q 881 4594 1212 4672 
Q 1544 4750 1819 4750 
Q 2544 4750 2975 4387 
Q 3406 4025 3406 3419 
Q 3406 3131 3298 2873 
Q 3191 2616 2906 2266 
Q 2828 2175 2409 1742 
Q 1991 1309 1228 531 
z
" transform="scale(0.015625)"/>
       </defs>
       <use xlink:href="#DejaVuSans-32"/>
       <use xlink:href="#DejaVuSans-30" x="63.623047"/>
       <use xlink:href="#DejaVuSans-30" x="127.246094"/>
      </g>
     </g>
    </g>
    <g id="xtick_4">
     <g id="line2d_7">
      <path d="M 420.33722 320.4 
L 420.33722 43.2 
" clip-path="url(#pc4c9890b66)" style="fill: none; stroke: #b0b0b0; stroke-width: 0.8; stroke-linecap: square"/>
     </g>
     <g id="line2d_8">
      <g>
       <use xlink:href="#mfac222ebf3" x="420.33722" y="320.4" style="stroke: #000000; stroke-width: 0.8"/>
      </g>
     </g>
     <g id="text_4">
      <!-- 300 -->
      <g transform="translate(410.79347 334.998438) scale(0.1 -0.1)">
       <defs>
        <path id="DejaVuSans-33" d="M 2597 2516 
Q 3050 2419 3304 2112 
Q 3559 1806 3559 1356 
Q 3559 666 3084 287 
Q 2609 -91 1734 -91 
Q 1441 -91 1130 -33 
Q 819 25 488 141 
L 488 750 
Q 750 597 1062 519 
Q 1375 441 1716 441 
Q 2309 441 2620 675 
Q 2931 909 2931 1356 
Q 2931 1769 2642 2001 
Q 2353 2234 1838 2234 
L 1294 2234 
L 1294 2753 
L 1863 2753 
Q 2328 2753 2575 2939 
Q 2822 3125 2822 3475 
Q 2822 3834 2567 4026 
Q 2313 4219 1838 4219 
Q 1578 4219 1281 4162 
Q 984 4106 628 3988 
L 628 4550 
Q 988 4650 1302 4700 
Q 1616 4750 1894 4750 
Q 2613 4750 3031 4423 
Q 3450 4097 3450 3541 
Q 3450 3153 3228 2886 
Q 3006 2619 2597 2516 
z
" transform="scale(0.015625)"/>
       </defs>
       <use xlink:href="#DejaVuSans-33"/>
       <use xlink:href="#DejaVuSans-30" x="63.623047"/>
       <use xlink:href="#DejaVuSans-30" x="127.246094"/>
      </g>
     </g>
    </g>
    <g id="xtick_5">
     <g id="line2d_9">
      <path d="M 521.995081 320.4 
L 521.995081 43.2 
" clip-path="url(#pc4c9890b66)" style="fill: none; stroke: #b0b0b0; stroke-width: 0.8; stroke-linecap: square"/>
     </g>
     <g id="line2d_10">
      <g>
       <use xlink:href="#mfac222ebf3" x="521.995081" y="320.4" style="stroke: #000000; stroke-width: 0.8"/>
      </g>
     </g>
     <g id="text_5">
      <!-- 400 -->
      <g transform="translate(512.451331 334.998438) scale(0.1 -0.1)">
       <defs>
        <path id="DejaVuSans-34" d="M 2419 4116 
L 825 1625 
L 2419 1625 
L 2419 4116 
z
M 2253 4666 
L 3047 4666 
L 3047 1625 
L 3713 1625 
L 3713 1100 
L 3047 1100 
L 3047 0 
L 2419 0 
L 2419 1100 
L 313 1100 
L 313 1709 
L 2253 4666 
z
" transform="scale(0.015625)"/>
       </defs>
       <use xlink:href="#DejaVuSans-34"/>
       <use xlink:href="#DejaVuSans-30" x="63.623047"/>
       <use xlink:href="#DejaVuSans-30" x="127.246094"/>
      </g>
     </g>
    </g>
    <g id="xtick_6">
     <g id="line2d_11">
      <path d="M 623.652942 320.4 
L 623.652942 43.2 
" clip-path="url(#pc4c9890b66)" style="fill: none; stroke: #b0b0b0; stroke-width: 0.8; stroke-linecap: square"/>
     </g>
     <g id="line2d_12">
      <g>
       <use xlink:href="#mfac222ebf3" x="623.652942" y="320.4" style="stroke: #000000; stroke-width: 0.8"/>
      </g>
     </g>
     <g id="text_6">
      <!-- 500 -->
      <g transform="translate(614.109192 334.998438) scale(0.1 -0.1)">
       <defs>
        <path id="DejaVuSans-35" d="M 691 4666 
L 3169 4666 
L 3169 4134 
L 1269 4134 
L 1269 2991 
Q 1406 3038 1543 3061 
Q 1681 3084 1819 3084 
Q 2600 3084 3056 2656 
Q 3513 2228 3513 1497 
Q 3513 744 3044 326 
Q 2575 -91 1722 -91 
Q 1428 -91 1123 -41 
Q 819 9 494 109 
L 494 744 
Q 775 591 1075 516 
Q 1375 441 1709 441 
Q 2250 441 2565 725 
Q 2881 1009 2881 1497 
Q 2881 1984 2565 2268 
Q 2250 2553 1709 2553 
Q 1456 2553 1204 2497 
Q 953 2441 691 2322 
L 691 4666 
z
" transform="scale(0.015625)"/>
       </defs>
       <use xlink:href="#DejaVuSans-35"/>
       <use xlink:href="#DejaVuSans-30" x="63.623047"/>
       <use xlink:href="#DejaVuSans-30" x="127.246094"/>
      </g>
     </g>
    </g>
    <g id="text_7">
     <!-- epoch -->
     <g transform="translate(353.771875 348.676562) scale(0.1 -0.1)">
      <defs>
       <path id="DejaVuSans-65" d="M 3597 1894 
L 3597 1613 
L 953 1613 
Q 991 1019 1311 708 
Q 1631 397 2203 397 
Q 2534 397 2845 478 
Q 3156 559 3463 722 
L 3463 178 
Q 3153 47 2828 -22 
Q 2503 -91 2169 -91 
Q 1331 -91 842 396 
Q 353 884 353 1716 
Q 353 2575 817 3079 
Q 1281 3584 2069 3584 
Q 2775 3584 3186 3129 
Q 3597 2675 3597 1894 
z
M 3022 2063 
Q 3016 2534 2758 2815 
Q 2500 3097 2075 3097 
Q 1594 3097 1305 2825 
Q 1016 2553 972 2059 
L 3022 2063 
z
" transform="scale(0.015625)"/>
       <path id="DejaVuSans-70" d="M 1159 525 
L 1159 -1331 
L 581 -1331 
L 581 3500 
L 1159 3500 
L 1159 2969 
Q 1341 3281 1617 3432 
Q 1894 3584 2278 3584 
Q 2916 3584 3314 3078 
Q 3713 2572 3713 1747 
Q 3713 922 3314 415 
Q 2916 -91 2278 -91 
Q 1894 -91 1617 61 
Q 1341 213 1159 525 
z
M 3116 1747 
Q 3116 2381 2855 2742 
Q 2594 3103 2138 3103 
Q 1681 3103 1420 2742 
Q 1159 2381 1159 1747 
Q 1159 1113 1420 752 
Q 1681 391 2138 391 
Q 2594 391 2855 752 
Q 3116 1113 3116 1747 
z
" transform="scale(0.015625)"/>
       <path id="DejaVuSans-6f" d="M 1959 3097 
Q 1497 3097 1228 2736 
Q 959 2375 959 1747 
Q 959 1119 1226 758 
Q 1494 397 1959 397 
Q 2419 397 2687 759 
Q 2956 1122 2956 1747 
Q 2956 2369 2687 2733 
Q 2419 3097 1959 3097 
z
M 1959 3584 
Q 2709 3584 3137 3096 
Q 3566 2609 3566 1747 
Q 3566 888 3137 398 
Q 2709 -91 1959 -91 
Q 1206 -91 779 398 
Q 353 888 353 1747 
Q 353 2609 779 3096 
Q 1206 3584 1959 3584 
z
" transform="scale(0.015625)"/>
       <path id="DejaVuSans-63" d="M 3122 3366 
L 3122 2828 
Q 2878 2963 2633 3030 
Q 2388 3097 2138 3097 
Q 1578 3097 1268 2742 
Q 959 2388 959 1747 
Q 959 1106 1268 751 
Q 1578 397 2138 397 
Q 2388 397 2633 464 
Q 2878 531 3122 666 
L 3122 134 
Q 2881 22 2623 -34 
Q 2366 -91 2075 -91 
Q 1284 -91 818 406 
Q 353 903 353 1747 
Q 353 2603 823 3093 
Q 1294 3584 2113 3584 
Q 2378 3584 2631 3529 
Q 2884 3475 3122 3366 
z
" transform="scale(0.015625)"/>
       <path id="DejaVuSans-68" d="M 3513 2113 
L 3513 0 
L 2938 0 
L 2938 2094 
Q 2938 2591 2744 2837 
Q 2550 3084 2163 3084 
Q 1697 3084 1428 2787 
Q 1159 2491 1159 1978 
L 1159 0 
L 581 0 
L 581 4863 
L 1159 4863 
L 1159 2956 
Q 1366 3272 1645 3428 
Q 1925 3584 2291 3584 
Q 2894 3584 3203 3211 
Q 3513 2838 3513 2113 
z
" transform="scale(0.015625)"/>
      </defs>
      <use xlink:href="#DejaVuSans-65"/>
      <use xlink:href="#DejaVuSans-70" x="61.523438"/>
      <use xlink:href="#DejaVuSans-6f" x="125"/>
      <use xlink:href="#DejaVuSans-63" x="186.181641"/>
      <use xlink:href="#DejaVuSans-68" x="241.162109"/>
     </g>
    </g>
   </g>
   <g id="matplotlib.axis_2">
    <g id="ytick_1">
     <g id="line2d_13">
      <path d="M 90 295.641419 
L 648 295.641419 
" clip-path="url(#pc4c9890b66)" style="fill: none; stroke: #b0b0b0; stroke-width: 0.8; stroke-linecap: square"/>
     </g>
     <g id="line2d_14">
      <defs>
       <path id="m11c0457816" d="M 0 0 
L -3.5 0 
" style="stroke: #000000; stroke-width: 0.8"/>
      </defs>
      <g>
       <use xlink:href="#m11c0457816" x="90" y="295.641419" style="stroke: #000000; stroke-width: 0.8"/>
      </g>
     </g>
     <g id="text_8">
      <!-- 1.350 -->
      <g transform="translate(54.371875 299.440638) scale(0.1 -0.1)">
       <defs>
        <path id="DejaVuSans-2e" d="M 684 794 
L 1344 794 
L 1344 0 
L 684 0 
L 684 794 
z
" transform="scale(0.015625)"/>
       </defs>
       <use xlink:href="#DejaVuSans-31"/>
       <use xlink:href="#DejaVuSans-2e" x="63.623047"/>
       <use xlink:href="#DejaVuSans-33" x="95.410156"/>
       <use xlink:href="#DejaVuSans-35" x="159.033203"/>
       <use xlink:href="#DejaVuSans-30" x="222.65625"/>
      </g>
     </g>
    </g>
    <g id="ytick_2">
     <g id="line2d_15">
      <path d="M 90 258.747541 
L 648 258.747541 
" clip-path="url(#pc4c9890b66)" style="fill: none; stroke: #b0b0b0; stroke-width: 0.8; stroke-linecap: square"/>
     </g>
     <g id="line2d_16">
      <g>
       <use xlink:href="#m11c0457816" x="90" y="258.747541" style="stroke: #000000; stroke-width: 0.8"/>
      </g>
     </g>
     <g id="text_9">
      <!-- 1.375 -->
      <g transform="translate(54.371875 262.546759) scale(0.1 -0.1)">
       <defs>
        <path id="DejaVuSans-37" d="M 525 4666 
L 3525 4666 
L 3525 4397 
L 1831 0 
L 1172 0 
L 2766 4134 
L 525 4134 
L 525 4666 
z
" transform="scale(0.015625)"/>
       </defs>
       <use xlink:href="#DejaVuSans-31"/>
       <use xlink:href="#DejaVuSans-2e" x="63.623047"/>
       <use xlink:href="#DejaVuSans-33" x="95.410156"/>
       <use xlink:href="#DejaVuSans-37" x="159.033203"/>
       <use xlink:href="#DejaVuSans-35" x="222.65625"/>
      </g>
     </g>
    </g>
    <g id="ytick_3">
     <g id="line2d_17">
      <path d="M 90 221.853662 
L 648 221.853662 
" clip-path="url(#pc4c9890b66)" style="fill: none; stroke: #b0b0b0; stroke-width: 0.8; stroke-linecap: square"/>
     </g>
     <g id="line2d_18">
      <g>
       <use xlink:href="#m11c0457816" x="90" y="221.853662" style="stroke: #000000; stroke-width: 0.8"/>
      </g>
     </g>
     <g id="text_10">
      <!-- 1.400 -->
      <g transform="translate(54.371875 225.652881) scale(0.1 -0.1)">
       <use xlink:href="#DejaVuSans-31"/>
       <use xlink:href="#DejaVuSans-2e" x="63.623047"/>
       <use xlink:href="#DejaVuSans-34" x="95.410156"/>
       <use xlink:href="#DejaVuSans-30" x="159.033203"/>
       <use xlink:href="#DejaVuSans-30" x="222.65625"/>
      </g>
     </g>
    </g>
    <g id="ytick_4">
     <g id="line2d_19">
      <path d="M 90 184.959784 
L 648 184.959784 
" clip-path="url(#pc4c9890b66)" style="fill: none; stroke: #b0b0b0; stroke-width: 0.8; stroke-linecap: square"/>
     </g>
     <g id="line2d_20">
      <g>
       <use xlink:href="#m11c0457816" x="90" y="184.959784" style="stroke: #000000; stroke-width: 0.8"/>
      </g>
     </g>
     <g id="text_11">
      <!-- 1.425 -->
      <g transform="translate(54.371875 188.759002) scale(0.1 -0.1)">
       <use xlink:href="#DejaVuSans-31"/>
       <use xlink:href="#DejaVuSans-2e" x="63.623047"/>
       <use xlink:href="#DejaVuSans-34" x="95.410156"/>
       <use xlink:href="#DejaVuSans-32" x="159.033203"/>
       <use xlink:href="#DejaVuSans-35" x="222.65625"/>
      </g>
     </g>
    </g>
    <g id="ytick_5">
     <g id="line2d_21">
      <path d="M 90 148.065905 
L 648 148.065905 
" clip-path="url(#pc4c9890b66)" style="fill: none; stroke: #b0b0b0; stroke-width: 0.8; stroke-linecap: square"/>
     </g>
     <g id="line2d_22">
      <g>
       <use xlink:href="#m11c0457816" x="90" y="148.065905" style="stroke: #000000; stroke-width: 0.8"/>
      </g>
     </g>
     <g id="text_12">
      <!-- 1.450 -->
      <g transform="translate(54.371875 151.865124) scale(0.1 -0.1)">
       <use xlink:href="#DejaVuSans-31"/>
       <use xlink:href="#DejaVuSans-2e" x="63.623047"/>
       <use xlink:href="#DejaVuSans-34" x="95.410156"/>
       <use xlink:href="#DejaVuSans-35" x="159.033203"/>
       <use xlink:href="#DejaVuSans-30" x="222.65625"/>
      </g>
     </g>
    </g>
    <g id="ytick_6">
     <g id="line2d_23">
      <path d="M 90 111.172027 
L 648 111.172027 
" clip-path="url(#pc4c9890b66)" style="fill: none; stroke: #b0b0b0; stroke-width: 0.8; stroke-linecap: square"/>
     </g>
     <g id="line2d_24">
      <g>
       <use xlink:href="#m11c0457816" x="90" y="111.172027" style="stroke: #000000; stroke-width: 0.8"/>
      </g>
     </g>
     <g id="text_13">
      <!-- 1.475 -->
      <g transform="translate(54.371875 114.971245) scale(0.1 -0.1)">
       <use xlink:href="#DejaVuSans-31"/>
       <use xlink:href="#DejaVuSans-2e" x="63.623047"/>
       <use xlink:href="#DejaVuSans-34" x="95.410156"/>
       <use xlink:href="#DejaVuSans-37" x="159.033203"/>
       <use xlink:href="#DejaVuSans-35" x="222.65625"/>
      </g>
     </g>
    </g>
    <g id="ytick_7">
     <g id="line2d_25">
      <path d="M 90 74.278148 
L 648 74.278148 
" clip-path="url(#pc4c9890b66)" style="fill: none; stroke: #b0b0b0; stroke-width: 0.8; stroke-linecap: square"/>
     </g>
     <g id="line2d_26">
      <g>
       <use xlink:href="#m11c0457816" x="90" y="74.278148" style="stroke: #000000; stroke-width: 0.8"/>
      </g>
     </g>
     <g id="text_14">
      <!-- 1.500 -->
      <g transform="translate(54.371875 78.077367) scale(0.1 -0.1)">
       <use xlink:href="#DejaVuSans-31"/>
       <use xlink:href="#DejaVuSans-2e" x="63.623047"/>
       <use xlink:href="#DejaVuSans-35" x="95.410156"/>
       <use xlink:href="#DejaVuSans-30" x="159.033203"/>
       <use xlink:href="#DejaVuSans-30" x="222.65625"/>
      </g>
     </g>
    </g>
    <g id="text_15">
     <!-- loss -->
     <g transform="translate(48.292188 191.457812) rotate(-90) scale(0.1 -0.1)">
      <defs>
       <path id="DejaVuSans-6c" d="M 603 4863 
L 1178 4863 
L 1178 0 
L 603 0 
L 603 4863 
z
" transform="scale(0.015625)"/>
       <path id="DejaVuSans-73" d="M 2834 3397 
L 2834 2853 
Q 2591 2978 2328 3040 
Q 2066 3103 1784 3103 
Q 1356 3103 1142 2972 
Q 928 2841 928 2578 
Q 928 2378 1081 2264 
Q 1234 2150 1697 2047 
L 1894 2003 
Q 2506 1872 2764 1633 
Q 3022 1394 3022 966 
Q 3022 478 2636 193 
Q 2250 -91 1575 -91 
Q 1294 -91 989 -36 
Q 684 19 347 128 
L 347 722 
Q 666 556 975 473 
Q 1284 391 1588 391 
Q 1994 391 2212 530 
Q 2431 669 2431 922 
Q 2431 1156 2273 1281 
Q 2116 1406 1581 1522 
L 1381 1569 
Q 847 1681 609 1914 
Q 372 2147 372 2553 
Q 372 3047 722 3315 
Q 1072 3584 1716 3584 
Q 2034 3584 2315 3537 
Q 2597 3491 2834 3397 
z
" transform="scale(0.015625)"/>
      </defs>
      <use xlink:href="#DejaVuSans-6c"/>
      <use xlink:href="#DejaVuSans-6f" x="27.783203"/>
      <use xlink:href="#DejaVuSans-73" x="88.964844"/>
      <use xlink:href="#DejaVuSans-73" x="141.064453"/>
     </g>
    </g>
   </g>
   <g id="line2d_27">
    <path d="M 115.363636 55.8 
L 116.380215 223.445279 
L 117.396794 220.673601 
L 118.413372 227.705096 
L 119.429951 229.022589 
L 120.446529 215.425269 
L 121.463108 219.950378 
L 122.479687 220.52776 
L 123.496265 220.467242 
L 124.512844 223.855533 
L 125.529422 221.449776 
L 126.546001 231.414096 
L 127.56258 210.503978 
L 128.579158 231.143701 
L 129.595737 228.955914 
L 130.612316 225.640807 
L 131.628894 214.678648 
L 132.645473 227.959306 
L 133.662051 232.627442 
L 134.67863 219.671891 
L 135.695209 222.735075 
L 136.711787 234.783739 
L 137.728366 226.175791 
L 138.744944 226.006729 
L 139.761523 223.469908 
L 140.778102 224.188733 
L 141.79468 229.028394 
L 142.811259 222.88936 
L 143.827837 221.210696 
L 144.844416 229.854532 
L 145.860995 236.257276 
L 146.877573 222.926304 
L 147.894152 214.527002 
L 148.910731 226.179486 
L 149.927309 218.334695 
L 150.943888 211.766935 
L 151.960466 219.392348 
L 152.977045 225.459078 
L 153.993624 211.681612 
L 155.010202 222.05126 
L 156.026781 213.609912 
L 157.043359 222.286646 
L 158.059938 233.765668 
L 159.076517 224.115373 
L 160.093095 211.80511 
L 161.109674 228.020527 
L 162.126253 213.658818 
L 163.142831 227.559783 
L 164.15941 230.267953 
L 165.175988 231.133322 
L 166.192567 224.550784 
L 167.209146 236.107389 
L 168.225724 233.406256 
L 169.242303 227.81716 
L 170.258881 234.81822 
L 171.27546 232.402787 
L 172.292039 227.77441 
L 173.308617 227.096048 
L 174.325196 230.304017 
L 175.341774 229.237568 
L 176.358353 226.526935 
L 177.374932 231.159534 
L 178.39151 229.196226 
L 179.408089 215.092773 
L 180.424668 219.964452 
L 181.441246 226.105246 
L 182.457825 230.410979 
L 183.474403 230.564912 
L 184.490982 225.055509 
L 185.507561 226.2203 
L 186.524139 232.622692 
L 187.540718 223.290466 
L 188.557296 222.783454 
L 189.573875 233.465542 
L 190.590454 226.377576 
L 191.607032 233.405201 
L 192.623611 228.813592 
L 193.640189 234.099747 
L 194.656768 228.908942 
L 195.673347 221.798633 
L 196.689925 228.035129 
L 197.706504 229.589415 
L 198.723083 236.081352 
L 199.739661 218.133262 
L 200.75624 233.620004 
L 201.772818 225.797731 
L 202.789397 232.871976 
L 203.805976 228.983006 
L 204.822554 228.13048 
L 205.839133 233.471876 
L 206.855711 225.47368 
L 207.87229 232.015755 
L 208.888869 219.00602 
L 209.905447 222.545429 
L 211.938604 224.754503 
L 212.955183 222.815824 
L 213.971762 224.326833 
L 214.98834 214.035471 
L 216.004919 229.038598 
L 217.021498 238.020384 
L 218.038076 225.375162 
L 219.054655 225.829397 
L 220.071233 226.062144 
L 221.087812 234.014424 
L 222.104391 222.777121 
L 223.120969 226.603814 
L 224.137548 220.673953 
L 225.154126 221.360583 
L 226.170705 227.666569 
L 227.187284 227.808363 
L 228.203862 223.292225 
L 229.220441 215.692321 
L 230.237019 222.387098 
L 231.253598 226.146412 
L 232.270177 224.405119 
L 233.286755 228.090193 
L 234.303334 235.100578 
L 235.319913 226.164004 
L 236.336491 231.348476 
L 237.35307 224.612533 
L 238.369648 224.064179 
L 239.386227 229.723469 
L 240.402806 234.026035 
L 241.419384 227.064206 
L 242.435963 218.861235 
L 243.452541 230.263027 
L 244.46912 220.401975 
L 245.485699 228.320477 
L 246.502277 234.810479 
L 248.535435 217.246607 
L 249.552013 224.949427 
L 250.568592 218.936354 
L 251.58517 230.820002 
L 252.601749 221.185011 
L 254.634906 231.467753 
L 255.651485 230.623319 
L 256.668063 224.678329 
L 257.684642 220.803433 
L 258.701221 222.18936 
L 259.717799 233.408543 
L 260.734378 230.445284 
L 261.750956 231.517715 
L 262.767535 221.680412 
L 263.784114 223.367873 
L 264.800692 230.518292 
L 265.817271 221.662468 
L 266.83385 228.206127 
L 267.850428 226.684563 
L 268.867007 223.697554 
L 269.883585 234.288338 
L 270.900164 222.778176 
L 271.916743 223.250707 
L 272.933321 233.513394 
L 273.9499 223.815247 
L 274.966478 215.539443 
L 275.983057 224.356388 
L 276.999636 231.596529 
L 278.016214 227.470062 
L 279.032793 218.866688 
L 280.049371 233.027316 
L 281.06595 221.588052 
L 282.082529 237.479418 
L 283.099107 224.30062 
L 284.115686 229.309872 
L 285.132265 230.112612 
L 286.148843 236.701307 
L 287.165422 222.383579 
L 288.182 227.884186 
L 289.198579 224.851086 
L 290.215158 224.765587 
L 291.231736 225.538596 
L 292.248315 220.719165 
L 293.264893 232.493036 
L 294.281472 224.680967 
L 295.298051 236.464514 
L 296.314629 230.605023 
L 297.331208 231.793212 
L 298.347786 227.079335 
L 299.364365 227.572626 
L 300.380944 221.691671 
L 301.397522 229.752145 
L 302.414101 230.277629 
L 303.43068 227.186121 
L 304.447258 225.918415 
L 305.463837 227.751364 
L 306.480415 227.845659 
L 307.496994 228.699945 
L 308.513573 228.084388 
L 309.530151 228.941664 
L 310.54673 228.801453 
L 311.563308 230.134955 
L 312.579887 235.935687 
L 313.596466 222.059704 
L 314.613044 219.118963 
L 315.629623 225.072574 
L 316.646201 228.57803 
L 317.66278 229.193235 
L 318.679359 217.134192 
L 319.695937 228.739352 
L 320.712516 229.946364 
L 321.729095 221.222483 
L 322.745673 223.967245 
L 323.762252 228.588937 
L 324.77883 228.611807 
L 325.795409 224.004013 
L 326.811988 230.878584 
L 327.828566 226.439501 
L 328.845145 219.336053 
L 329.861723 225.284738 
L 330.878302 228.151766 
L 331.894881 234.320532 
L 332.911459 231.151794 
L 333.928038 233.115454 
L 334.944617 229.420704 
L 335.961195 219.242461 
L 336.977774 210.238861 
L 337.994352 227.425553 
L 339.010931 230.432793 
L 340.02751 226.888634 
L 341.044088 233.85926 
L 342.060667 222.219267 
L 344.093824 221.211576 
L 345.110403 226.675591 
L 346.126981 230.308064 
L 347.14356 234.958959 
L 348.160138 226.574962 
L 349.176717 217.189256 
L 350.193296 226.792404 
L 351.209874 223.289587 
L 352.226453 226.270614 
L 353.243032 218.105115 
L 354.25961 220.431002 
L 355.276189 229.292632 
L 356.292767 227.965991 
L 357.309346 216.309813 
L 358.325925 231.457021 
L 359.342503 227.717587 
L 360.359082 236.276452 
L 361.37566 228.510827 
L 362.392239 223.592527 
L 363.408818 231.196126 
L 364.425396 234.729378 
L 365.441975 225.99934 
L 366.458553 224.253649 
L 367.475132 227.12877 
L 368.491711 217.499409 
L 369.508289 222.814769 
L 370.524868 227.061215 
L 371.541447 228.545308 
L 372.558025 215.878096 
L 373.574604 228.649103 
L 375.607761 222.552466 
L 376.62434 221.467369 
L 377.640918 217.540927 
L 378.657497 223.454603 
L 379.674075 221.432184 
L 380.690654 239.480023 
L 381.707233 225.927387 
L 382.723811 231.420429 
L 383.74039 236.263961 
L 384.756968 233.941592 
L 385.773547 228.032666 
L 386.790126 230.098714 
L 387.806704 231.39193 
L 388.823283 231.186099 
L 389.839862 230.000901 
L 390.85644 223.116126 
L 391.873019 232.238826 
L 392.889597 220.261236 
L 393.906176 232.195549 
L 394.922755 225.581169 
L 395.939333 221.79705 
L 396.955912 236.434959 
L 397.97249 227.148122 
L 400.005648 232.704848 
L 401.022226 233.062501 
L 402.038805 228.381699 
L 403.055383 232.794393 
L 404.071962 231.601455 
L 405.088541 218.072745 
L 406.105119 224.101475 
L 407.121698 237.054386 
L 408.138277 228.408791 
L 409.154855 228.649982 
L 410.171434 229.497407 
L 411.188012 229.399066 
L 412.204591 223.573879 
L 413.22117 218.808634 
L 414.237748 221.479507 
L 415.254327 230.766521 
L 416.270905 235.430962 
L 417.287484 228.849656 
L 418.304063 225.998812 
L 419.320641 227.735531 
L 420.33722 234.077581 
L 421.353799 233.282582 
L 422.370377 232.860189 
L 423.386956 230.938222 
L 424.403534 237.488742 
L 425.420113 221.315898 
L 426.436692 224.04817 
L 428.469849 230.883334 
L 429.486427 232.151392 
L 430.503006 225.89748 
L 431.519585 221.081216 
L 432.536163 225.967849 
L 433.552742 234.549584 
L 434.56932 238.229381 
L 435.585899 226.044728 
L 436.602478 233.038927 
L 437.619056 229.244077 
L 438.635635 230.802233 
L 439.652214 224.273704 
L 440.668792 231.477077 
L 441.685371 232.802134 
L 442.701949 231.211784 
L 443.718528 233.945286 
L 444.735107 233.428247 
L 445.751685 230.462876 
L 446.768264 220.839145 
L 447.784842 216.304183 
L 448.801421 228.189062 
L 449.818 222.497226 
L 450.834578 228.529651 
L 451.851157 230.889491 
L 452.867735 235.588766 
L 453.884314 224.141761 
L 454.900893 224.103586 
L 455.917471 231.575242 
L 456.93405 226.223642 
L 457.950629 230.757021 
L 458.967207 224.208084 
L 459.983786 224.634348 
L 461.000364 228.44767 
L 462.016943 233.729956 
L 463.033522 228.240784 
L 464.0501 216.244369 
L 465.066679 224.045883 
L 466.083257 227.591801 
L 467.099836 225.830453 
L 468.116415 222.711501 
L 469.132993 230.5387 
L 470.149572 226.991901 
L 471.16615 226.002506 
L 472.182729 224.78142 
L 473.199308 226.842366 
L 474.215886 234.840914 
L 475.232465 227.246463 
L 476.249044 227.983759 
L 477.265622 227.154807 
L 478.282201 228.2582 
L 479.298779 231.62626 
L 480.315358 230.840057 
L 481.331937 230.533246 
L 483.365094 216.4692 
L 484.381672 231.330004 
L 485.398251 228.568354 
L 486.41483 232.96416 
L 487.431408 228.378884 
L 488.447987 223.074608 
L 489.464565 222.038065 
L 490.481144 223.093432 
L 491.497723 227.468127 
L 492.514301 233.617541 
L 493.53088 226.013238 
L 494.547459 232.495675 
L 495.564037 229.193235 
L 496.580616 227.709846 
L 497.597194 229.093134 
L 498.613773 222.650104 
L 499.630352 219.124065 
L 500.64693 226.579536 
L 501.663509 233.042622 
L 502.680087 229.072375 
L 503.696666 229.059005 
L 504.713245 224.259278 
L 505.729823 222.529948 
L 506.746402 229.882856 
L 507.762981 231.701028 
L 508.779559 232.003968 
L 509.796138 221.897678 
L 510.812716 229.926309 
L 511.829295 232.559711 
L 512.845874 224.012105 
L 513.862452 226.012006 
L 514.879031 224.685893 
L 515.895609 232.080143 
L 516.912188 230.385822 
L 517.928767 234.45916 
L 518.945345 225.156137 
L 519.961924 230.26074 
L 520.978502 227.183482 
L 521.995081 226.140782 
L 523.01166 226.998938 
L 524.028238 226.18705 
L 525.044817 218.01381 
L 526.061396 221.626228 
L 527.077974 229.518518 
L 528.094553 231.162877 
L 529.111131 220.647916 
L 530.12771 225.662974 
L 531.144289 226.850635 
L 532.160867 222.532411 
L 533.177446 220.04397 
L 534.194024 218.800189 
L 535.210603 226.697581 
L 536.227182 222.72364 
L 537.24376 230.949657 
L 538.260339 227.17064 
L 539.276917 223.93681 
L 540.293496 233.990499 
L 541.310075 229.85418 
L 542.326653 218.945678 
L 543.343232 216.464098 
L 544.359811 218.808282 
L 545.376389 232.582405 
L 546.392968 219.819139 
L 547.409546 226.562999 
L 548.426125 220.810997 
L 549.442704 223.995569 
L 550.459282 229.591174 
L 551.475861 227.796928 
L 552.492439 222.74264 
L 553.509018 223.950356 
L 554.525597 227.148649 
L 555.542175 213.517024 
L 556.558754 231.462651 
L 557.575332 229.396251 
L 558.591911 231.815906 
L 559.60849 226.922939 
L 560.625068 223.762821 
L 561.641647 233.304045 
L 562.658226 223.299438 
L 563.674804 226.316354 
L 564.691383 233.737521 
L 565.707961 228.085443 
L 566.72454 230.46833 
L 567.741119 222.112305 
L 568.757697 212.313178 
L 569.774276 224.949779 
L 570.790854 219.972721 
L 571.807433 218.362315 
L 572.824012 224.480766 
L 573.84059 231.856896 
L 574.857169 232.706959 
L 575.873747 238.399147 
L 576.890326 231.477077 
L 577.906905 233.250916 
L 578.923483 232.010301 
L 579.940062 221.009439 
L 580.956641 225.645381 
L 581.973219 231.089869 
L 582.989798 222.355959 
L 584.006376 223.001424 
L 585.022955 224.202103 
L 586.039534 230.257573 
L 587.056112 226.51937 
L 588.072691 218.46523 
L 589.089269 218.32713 
L 590.105848 218.806171 
L 591.122427 232.322742 
L 592.139005 230.652346 
L 593.155584 214.685685 
L 594.172163 228.11535 
L 595.188741 230.5197 
L 596.20532 225.87848 
L 597.221898 224.912307 
L 598.238477 231.808165 
L 599.255056 230.720605 
L 600.271634 230.295925 
L 601.288213 229.709395 
L 602.304791 227.458275 
L 603.32137 234.8001 
L 604.337949 229.76745 
L 605.354527 223.157116 
L 606.371106 222.317432 
L 607.387684 226.655007 
L 608.404263 232.291603 
L 609.420842 223.478177 
L 610.43742 227.507534 
L 611.453999 229.621785 
L 612.470578 232.126059 
L 613.487156 224.023364 
L 614.503735 228.296376 
L 615.520313 231.291829 
L 616.536892 229.707284 
L 617.553471 224.825049 
L 618.570049 230.871019 
L 619.586628 220.308031 
L 620.603206 225.529975 
L 621.619785 224.262445 
L 622.636364 222.236683 
L 622.636364 222.236683 
" clip-path="url(#pc4c9890b66)" style="fill: none; stroke: #1f77b4; stroke-width: 1.5; stroke-linecap: square"/>
   </g>
   <g id="line2d_28">
    <path d="M 115.363636 305.241541 
L 116.380215 301.582856 
L 117.396794 296.634473 
L 118.413372 301.89688 
L 119.429951 306.212288 
L 120.446529 286.570405 
L 121.463108 305.718471 
L 122.479687 298.683105 
L 123.496265 288.943968 
L 124.512844 305.17082 
L 125.529422 289.162465 
L 126.546001 292.240426 
L 127.56258 286.148716 
L 128.579158 300.647117 
L 129.595737 295.210019 
L 130.612316 303.166169 
L 131.628894 295.0779 
L 132.645473 301.778659 
L 133.662051 295.724772 
L 134.67863 297.640757 
L 135.695209 291.075987 
L 136.711787 304.872805 
L 137.728366 293.898332 
L 138.744944 290.023963 
L 139.761523 299.83822 
L 140.778102 299.676722 
L 141.79468 276.58216 
L 142.811259 285.53439 
L 143.827837 300.551415 
L 144.844416 300.694969 
L 145.860995 298.214268 
L 146.877573 304.491403 
L 147.894152 299.895219 
L 148.910731 296.686547 
L 149.927309 295.643143 
L 150.943888 298.815224 
L 151.960466 286.223131 
L 152.977045 297.226105 
L 153.993624 304.034001 
L 155.010202 295.834196 
L 156.026781 293.642187 
L 157.043359 302.144932 
L 158.059938 273.640539 
L 159.076517 298.537968 
L 160.093095 305.20706 
L 161.109674 280.607822 
L 162.126253 291.372771 
L 163.142831 281.138584 
L 164.15941 287.984656 
L 165.175988 296.929321 
L 166.192567 302.587732 
L 168.225724 295.289712 
L 169.242303 299.184664 
L 170.258881 296.931432 
L 171.27546 298.70404 
L 172.292039 288.382243 
L 173.308617 299.752369 
L 174.325196 297.833745 
L 175.341774 298.43171 
L 176.358353 300.531536 
L 177.374932 303.90628 
L 178.39151 304.246517 
L 179.408089 290.105592 
L 180.424668 280.669044 
L 181.441246 300.884263 
L 182.457825 299.439225 
L 183.474403 294.936282 
L 184.490982 296.813388 
L 185.507561 299.489187 
L 186.524139 292.016651 
L 187.540718 300.214873 
L 188.557296 295.805345 
L 189.573875 298.064381 
L 190.590454 296.132915 
L 191.607032 286.04668 
L 192.623611 282.040721 
L 193.640189 303.297056 
L 194.656768 288.11783 
L 195.673347 298.957546 
L 196.689925 292.77629 
L 197.706504 292.491821 
L 198.723083 274.493945 
L 199.739661 295.588255 
L 200.75624 304.518495 
L 201.772818 294.720247 
L 202.789397 294.604841 
L 203.805976 296.027009 
L 204.822554 301.214647 
L 205.839133 298.473404 
L 206.855711 300.478055 
L 207.87229 286.863494 
L 209.905447 303.108466 
L 210.922026 283.894781 
L 211.938604 299.92583 
L 212.955183 300.368102 
L 213.971762 301.624901 
L 214.98834 294.274281 
L 216.004919 287.922906 
L 217.021498 300.598387 
L 219.054655 293.234747 
L 220.071233 304.520958 
L 221.087812 297.224697 
L 222.104391 294.793607 
L 223.120969 297.965688 
L 224.137548 300.721533 
L 225.154126 288.34266 
L 226.170705 290.246155 
L 227.187284 302.509622 
L 228.203862 298.21849 
L 229.220441 302.889089 
L 230.237019 296.080841 
L 231.253598 285.466659 
L 232.270177 296.759731 
L 233.286755 300.887077 
L 234.303334 306.649459 
L 235.319913 291.399687 
L 236.336491 299.935682 
L 237.35307 301.875593 
L 238.369648 301.632994 
L 239.386227 304.189869 
L 240.402806 294.529194 
L 241.419384 294.398659 
L 242.435963 290.033991 
L 243.452541 289.750402 
L 244.46912 295.741484 
L 245.485699 288.330346 
L 246.502277 300.01907 
L 247.518856 299.812183 
L 248.535435 284.22499 
L 249.552013 306.303769 
L 250.568592 278.574848 
L 251.58517 287.987998 
L 252.601749 299.870766 
L 253.618328 296.718741 
L 255.651485 304.116685 
L 257.684642 286.53135 
L 258.701221 292.655782 
L 259.717799 294.288354 
L 260.734378 302.002258 
L 261.750956 300.730153 
L 262.767535 289.272417 
L 263.784114 291.219717 
L 264.800692 301.83126 
L 265.817271 301.338498 
L 266.83385 298.546236 
L 267.850428 297.376168 
L 268.867007 304.112639 
L 269.883585 271.166348 
L 270.900164 286.61808 
L 271.916743 298.087075 
L 272.933321 290.403255 
L 273.9499 298.986925 
L 274.966478 302.945209 
L 275.983057 296.294765 
L 276.999636 294.666239 
L 278.016214 292.552867 
L 279.032793 287.490662 
L 280.049371 278.57907 
L 281.06595 268.583084 
L 282.082529 298.091122 
L 283.099107 298.305045 
L 284.115686 301.082001 
L 285.132265 295.614995 
L 286.148843 285.46191 
L 287.165422 295.158297 
L 288.182 300.006403 
L 289.198579 296.961867 
L 290.215158 298.755234 
L 291.231736 292.332962 
L 292.248315 307.135008 
L 293.264893 299.291097 
L 294.281472 299.811128 
L 295.298051 296.971367 
L 296.314629 302.409521 
L 297.331208 298.922889 
L 298.347786 297.279058 
L 299.364365 303.649608 
L 300.380944 301.85026 
L 301.397522 293.616854 
L 302.414101 301.925027 
L 303.43068 290.406598 
L 304.447258 299.692203 
L 305.463837 298.067372 
L 306.480415 295.985667 
L 307.496994 298.102381 
L 308.513573 293.617733 
L 309.530151 291.371539 
L 310.54673 284.917074 
L 311.563308 293.146434 
L 313.596466 284.937833 
L 314.613044 298.131408 
L 316.646201 297.345205 
L 317.66278 295.354452 
L 318.679359 289.937585 
L 319.695937 299.041989 
L 320.712516 296.470336 
L 321.729095 292.943418 
L 322.745673 291.697878 
L 323.762252 288.780359 
L 325.795409 305.007035 
L 326.811988 283.996113 
L 327.828566 297.768829 
L 328.845145 289.509387 
L 329.861723 293.991395 
L 330.878302 300.302131 
L 331.894881 285.844895 
L 332.911459 301.511958 
L 333.928038 291.440677 
L 334.944617 293.088555 
L 335.961195 302.949431 
L 336.977774 307.8 
L 337.994352 296.635001 
L 339.010931 298.115927 
L 340.02751 305.286226 
L 341.044088 303.807939 
L 342.060667 297.958827 
L 343.077245 303.364083 
L 344.093824 288.846682 
L 345.110403 297.441435 
L 346.126981 299.070665 
L 347.14356 303.113216 
L 348.160138 306.549358 
L 349.176717 302.586852 
L 350.193296 293.046861 
L 351.209874 296.067295 
L 352.226453 294.467973 
L 353.243032 288.302726 
L 354.25961 296.122887 
L 355.276189 306.081577 
L 356.292767 287.612225 
L 357.309346 305.172403 
L 358.325925 301.428922 
L 359.342503 298.872751 
L 360.359082 297.710247 
L 361.37566 284.915139 
L 362.392239 275.430211 
L 363.408818 296.655056 
L 365.441975 292.880085 
L 366.458553 299.259431 
L 367.475132 293.188655 
L 368.491711 296.060082 
L 369.508289 293.607354 
L 370.524868 287.236628 
L 371.541447 298.938898 
L 372.558025 276.00513 
L 373.574604 285.154571 
L 374.591182 286.763921 
L 375.607761 277.337576 
L 376.62434 296.885165 
L 377.640918 304.659234 
L 378.657497 298.632791 
L 379.674075 307.044935 
L 380.690654 300.933873 
L 381.707233 289.553368 
L 382.723811 300.90854 
L 383.74039 295.495367 
L 384.756968 294.379131 
L 385.773547 298.447191 
L 386.790126 299.967172 
L 387.806704 302.154784 
L 388.823283 305.54413 
L 389.839862 304.270794 
L 390.85644 295.931306 
L 391.873019 298.481672 
L 392.889597 298.974435 
L 393.906176 302.308893 
L 394.922755 289.11391 
L 395.939333 296.97858 
L 396.955912 294.590416 
L 397.97249 302.533723 
L 398.989069 297.649905 
L 400.005648 301.796955 
L 401.022226 293.268525 
L 402.038805 301.825806 
L 403.055383 298.153926 
L 404.071962 301.941916 
L 405.088541 298.918491 
L 406.105119 295.357971 
L 407.121698 302.404947 
L 408.138277 284.604809 
L 409.154855 302.674814 
L 410.171434 290.251433 
L 411.188012 297.552091 
L 412.204591 303.116383 
L 413.22117 292.671088 
L 414.237748 279.801212 
L 415.254327 302.423595 
L 416.270905 305.259486 
L 417.287484 301.235934 
L 418.304063 296.222636 
L 419.320641 302.466696 
L 420.33722 298.613439 
L 421.353799 298.993083 
L 422.370377 304.931212 
L 423.386956 301.20937 
L 424.403534 303.162827 
L 425.420113 285.043211 
L 426.436692 297.463954 
L 427.45327 301.171898 
L 428.469849 304.057047 
L 429.486427 290.162767 
L 430.503006 304.022742 
L 431.519585 286.212752 
L 432.536163 296.165637 
L 433.552742 303.133271 
L 434.56932 299.023693 
L 435.585899 298.943472 
L 436.602478 292.752364 
L 437.619056 297.901124 
L 438.635635 304.126537 
L 439.652214 293.443393 
L 440.668792 299.933395 
L 441.685371 299.416003 
L 442.701949 298.030604 
L 443.718528 301.711104 
L 444.735107 300.63146 
L 445.751685 292.13927 
L 446.768264 295.903334 
L 447.784842 280.692441 
L 448.801421 300.380417 
L 449.818 303.812689 
L 451.851157 291.529871 
L 452.867735 295.52633 
L 453.884314 298.184889 
L 454.900893 301.990471 
L 455.917471 300.109319 
L 456.93405 287.121046 
L 457.950629 302.364837 
L 458.967207 288.134719 
L 459.983786 281.925843 
L 461.000364 300.171068 
L 462.016943 289.068874 
L 463.033522 291.874153 
L 464.0501 297.842893 
L 465.066679 302.631889 
L 466.083257 290.867518 
L 467.099836 304.156796 
L 468.116415 304.339932 
L 469.132993 291.938189 
L 470.149572 304.486301 
L 471.16615 285.50202 
L 472.182729 295.76629 
L 473.199308 301.602031 
L 474.215886 306.343352 
L 475.232465 282.787693 
L 476.249044 292.899437 
L 477.265622 289.640978 
L 478.282201 306.130132 
L 479.298779 299.767323 
L 480.315358 298.760335 
L 481.331937 292.865659 
L 482.348515 295.112205 
L 483.365094 288.10358 
L 484.381672 285.526825 
L 485.398251 283.928558 
L 486.41483 300.950938 
L 487.431408 295.613588 
L 488.447987 296.416856 
L 489.464565 304.56705 
L 490.481144 300.874411 
L 491.497723 302.848627 
L 492.514301 298.33372 
L 493.53088 292.304815 
L 494.547459 292.537386 
L 495.564037 291.740275 
L 496.580616 295.260157 
L 497.597194 300.154355 
L 498.613773 298.309795 
L 499.630352 285.623583 
L 500.64693 301.128972 
L 501.663509 297.557017 
L 502.680087 295.430979 
L 503.696666 298.919371 
L 504.713245 290.731001 
L 505.729823 288.720193 
L 506.746402 299.491299 
L 507.762981 299.627991 
L 508.779559 295.381017 
L 509.796138 294.967596 
L 510.812716 302.318393 
L 511.829295 275.764114 
L 512.845874 292.641708 
L 513.862452 296.367069 
L 514.879031 304.143601 
L 515.895609 298.686623 
L 516.912188 302.20369 
L 517.928767 295.210195 
L 518.945345 306.44486 
L 519.961924 289.565154 
L 520.978502 306.430434 
L 521.995081 293.528364 
L 523.01166 302.116256 
L 524.028238 275.889724 
L 525.044817 291.160607 
L 526.061396 304.221536 
L 527.077974 295.77878 
L 528.094553 304.180018 
L 529.111131 303.145058 
L 530.12771 296.846461 
L 531.144289 301.636864 
L 532.160867 289.078198 
L 533.177446 294.102579 
L 534.194024 305.633851 
L 535.210603 300.934753 
L 536.227182 297.172624 
L 537.24376 296.03686 
L 538.260339 288.101469 
L 540.293496 295.953824 
L 541.310075 291.70984 
L 542.326653 292.986695 
L 543.343232 299.88009 
L 544.359811 291.352363 
L 545.376389 296.552845 
L 546.392968 298.333193 
L 547.409546 295.938695 
L 548.426125 290.04138 
L 549.442704 301.665892 
L 550.459282 301.355034 
L 551.475861 294.819644 
L 552.492439 300.791199 
L 553.509018 299.108489 
L 554.525597 283.342556 
L 555.542175 289.738791 
L 556.558754 294.597101 
L 557.575332 298.186296 
L 558.591911 300.169836 
L 559.60849 300.765866 
L 560.625068 296.061138 
L 561.641647 293.180739 
L 562.658226 303.203289 
L 563.674804 296.631131 
L 564.691383 290.866286 
L 565.707961 299.086146 
L 566.72454 289.94515 
L 567.741119 271.587157 
L 568.757697 291.664276 
L 569.774276 284.76402 
L 570.790854 285.744971 
L 571.807433 297.231031 
L 572.824012 302.438021 
L 573.84059 302.415854 
L 574.857169 288.25118 
L 575.873747 301.214295 
L 576.890326 302.4674 
L 577.906905 300.806504 
L 578.923483 300.11442 
L 579.940062 305.387558 
L 580.956641 300.205901 
L 581.973219 288.628712 
L 582.989798 293.752843 
L 584.006376 301.063001 
L 585.022955 294.171717 
L 586.039534 296.308838 
L 588.072691 300.023292 
L 589.089269 292.832234 
L 590.105848 300.160688 
L 591.122427 302.249079 
L 592.139005 299.63151 
L 593.155584 294.437538 
L 594.172163 303.059383 
L 595.188741 297.553499 
L 596.20532 299.859507 
L 597.221898 298.503663 
L 598.238477 307.092083 
L 599.255056 295.870085 
L 600.271634 298.63842 
L 601.288213 293.046509 
L 602.304791 291.99343 
L 603.32137 302.458956 
L 604.337949 290.030121 
L 605.354527 283.861707 
L 606.371106 297.7822 
L 607.387684 305.514927 
L 608.404263 291.92693 
L 609.420842 302.51789 
L 610.43742 302.733221 
L 611.453999 295.045002 
L 612.470578 290.434921 
L 613.487156 296.466114 
L 614.503735 292.432007 
L 615.520313 286.42386 
L 616.536892 291.50313 
L 617.553471 299.773832 
L 618.570049 284.402849 
L 619.586628 288.565908 
L 620.603206 290.512504 
L 621.619785 293.809314 
L 622.636364 295.342489 
L 622.636364 295.342489 
" clip-path="url(#pc4c9890b66)" style="fill: none; stroke: #ff7f0e; stroke-width: 1.5; stroke-linecap: square"/>
   </g>
   <g id="patch_3">
    <path d="M 90 320.4 
L 90 43.2 
" style="fill: none; stroke: #000000; stroke-width: 0.8; stroke-linejoin: miter; stroke-linecap: square"/>
   </g>
   <g id="patch_4">
    <path d="M 648 320.4 
L 648 43.2 
" style="fill: none; stroke: #000000; stroke-width: 0.8; stroke-linejoin: miter; stroke-linecap: square"/>
   </g>
   <g id="patch_5">
    <path d="M 90 320.4 
L 648 320.4 
" style="fill: none; stroke: #000000; stroke-width: 0.8; stroke-linejoin: miter; stroke-linecap: square"/>
   </g>
   <g id="patch_6">
    <path d="M 90 43.2 
L 648 43.2 
" style="fill: none; stroke: #000000; stroke-width: 0.8; stroke-linejoin: miter; stroke-linecap: square"/>
   </g>
   <g id="text_16">
    <!-- model train and validation loss over time -->
    <g transform="translate(245.555625 37.2) scale(0.12 -0.12)">
     <defs>
      <path id="DejaVuSans-6d" d="M 3328 2828 
Q 3544 3216 3844 3400 
Q 4144 3584 4550 3584 
Q 5097 3584 5394 3201 
Q 5691 2819 5691 2113 
L 5691 0 
L 5113 0 
L 5113 2094 
Q 5113 2597 4934 2840 
Q 4756 3084 4391 3084 
Q 3944 3084 3684 2787 
Q 3425 2491 3425 1978 
L 3425 0 
L 2847 0 
L 2847 2094 
Q 2847 2600 2669 2842 
Q 2491 3084 2119 3084 
Q 1678 3084 1418 2786 
Q 1159 2488 1159 1978 
L 1159 0 
L 581 0 
L 581 3500 
L 1159 3500 
L 1159 2956 
Q 1356 3278 1631 3431 
Q 1906 3584 2284 3584 
Q 2666 3584 2933 3390 
Q 3200 3197 3328 2828 
z
" transform="scale(0.015625)"/>
      <path id="DejaVuSans-64" d="M 2906 2969 
L 2906 4863 
L 3481 4863 
L 3481 0 
L 2906 0 
L 2906 525 
Q 2725 213 2448 61 
Q 2172 -91 1784 -91 
Q 1150 -91 751 415 
Q 353 922 353 1747 
Q 353 2572 751 3078 
Q 1150 3584 1784 3584 
Q 2172 3584 2448 3432 
Q 2725 3281 2906 2969 
z
M 947 1747 
Q 947 1113 1208 752 
Q 1469 391 1925 391 
Q 2381 391 2643 752 
Q 2906 1113 2906 1747 
Q 2906 2381 2643 2742 
Q 2381 3103 1925 3103 
Q 1469 3103 1208 2742 
Q 947 2381 947 1747 
z
" transform="scale(0.015625)"/>
      <path id="DejaVuSans-20" transform="scale(0.015625)"/>
      <path id="DejaVuSans-74" d="M 1172 4494 
L 1172 3500 
L 2356 3500 
L 2356 3053 
L 1172 3053 
L 1172 1153 
Q 1172 725 1289 603 
Q 1406 481 1766 481 
L 2356 481 
L 2356 0 
L 1766 0 
Q 1100 0 847 248 
Q 594 497 594 1153 
L 594 3053 
L 172 3053 
L 172 3500 
L 594 3500 
L 594 4494 
L 1172 4494 
z
" transform="scale(0.015625)"/>
      <path id="DejaVuSans-72" d="M 2631 2963 
Q 2534 3019 2420 3045 
Q 2306 3072 2169 3072 
Q 1681 3072 1420 2755 
Q 1159 2438 1159 1844 
L 1159 0 
L 581 0 
L 581 3500 
L 1159 3500 
L 1159 2956 
Q 1341 3275 1631 3429 
Q 1922 3584 2338 3584 
Q 2397 3584 2469 3576 
Q 2541 3569 2628 3553 
L 2631 2963 
z
" transform="scale(0.015625)"/>
      <path id="DejaVuSans-61" d="M 2194 1759 
Q 1497 1759 1228 1600 
Q 959 1441 959 1056 
Q 959 750 1161 570 
Q 1363 391 1709 391 
Q 2188 391 2477 730 
Q 2766 1069 2766 1631 
L 2766 1759 
L 2194 1759 
z
M 3341 1997 
L 3341 0 
L 2766 0 
L 2766 531 
Q 2569 213 2275 61 
Q 1981 -91 1556 -91 
Q 1019 -91 701 211 
Q 384 513 384 1019 
Q 384 1609 779 1909 
Q 1175 2209 1959 2209 
L 2766 2209 
L 2766 2266 
Q 2766 2663 2505 2880 
Q 2244 3097 1772 3097 
Q 1472 3097 1187 3025 
Q 903 2953 641 2809 
L 641 3341 
Q 956 3463 1253 3523 
Q 1550 3584 1831 3584 
Q 2591 3584 2966 3190 
Q 3341 2797 3341 1997 
z
" transform="scale(0.015625)"/>
      <path id="DejaVuSans-69" d="M 603 3500 
L 1178 3500 
L 1178 0 
L 603 0 
L 603 3500 
z
M 603 4863 
L 1178 4863 
L 1178 4134 
L 603 4134 
L 603 4863 
z
" transform="scale(0.015625)"/>
      <path id="DejaVuSans-6e" d="M 3513 2113 
L 3513 0 
L 2938 0 
L 2938 2094 
Q 2938 2591 2744 2837 
Q 2550 3084 2163 3084 
Q 1697 3084 1428 2787 
Q 1159 2491 1159 1978 
L 1159 0 
L 581 0 
L 581 3500 
L 1159 3500 
L 1159 2956 
Q 1366 3272 1645 3428 
Q 1925 3584 2291 3584 
Q 2894 3584 3203 3211 
Q 3513 2838 3513 2113 
z
" transform="scale(0.015625)"/>
      <path id="DejaVuSans-76" d="M 191 3500 
L 800 3500 
L 1894 563 
L 2988 3500 
L 3597 3500 
L 2284 0 
L 1503 0 
L 191 3500 
z
" transform="scale(0.015625)"/>
     </defs>
     <use xlink:href="#DejaVuSans-6d"/>
     <use xlink:href="#DejaVuSans-6f" x="97.412109"/>
     <use xlink:href="#DejaVuSans-64" x="158.59375"/>
     <use xlink:href="#DejaVuSans-65" x="222.070312"/>
     <use xlink:href="#DejaVuSans-6c" x="283.59375"/>
     <use xlink:href="#DejaVuSans-20" x="311.376953"/>
     <use xlink:href="#DejaVuSans-74" x="343.164062"/>
     <use xlink:href="#DejaVuSans-72" x="382.373047"/>
     <use xlink:href="#DejaVuSans-61" x="423.486328"/>
     <use xlink:href="#DejaVuSans-69" x="484.765625"/>
     <use xlink:href="#DejaVuSans-6e" x="512.548828"/>
     <use xlink:href="#DejaVuSans-20" x="575.927734"/>
     <use xlink:href="#DejaVuSans-61" x="607.714844"/>
     <use xlink:href="#DejaVuSans-6e" x="668.994141"/>
     <use xlink:href="#DejaVuSans-64" x="732.373047"/>
     <use xlink:href="#DejaVuSans-20" x="795.849609"/>
     <use xlink:href="#DejaVuSans-76" x="827.636719"/>
     <use xlink:href="#DejaVuSans-61" x="886.816406"/>
     <use xlink:href="#DejaVuSans-6c" x="948.095703"/>
     <use xlink:href="#DejaVuSans-69" x="975.878906"/>
     <use xlink:href="#DejaVuSans-64" x="1003.662109"/>
     <use xlink:href="#DejaVuSans-61" x="1067.138672"/>
     <use xlink:href="#DejaVuSans-74" x="1128.417969"/>
     <use xlink:href="#DejaVuSans-69" x="1167.626953"/>
     <use xlink:href="#DejaVuSans-6f" x="1195.410156"/>
     <use xlink:href="#DejaVuSans-6e" x="1256.591797"/>
     <use xlink:href="#DejaVuSans-20" x="1319.970703"/>
     <use xlink:href="#DejaVuSans-6c" x="1351.757812"/>
     <use xlink:href="#DejaVuSans-6f" x="1379.541016"/>
     <use xlink:href="#DejaVuSans-73" x="1440.722656"/>
     <use xlink:href="#DejaVuSans-73" x="1492.822266"/>
     <use xlink:href="#DejaVuSans-20" x="1544.921875"/>
     <use xlink:href="#DejaVuSans-6f" x="1576.708984"/>
     <use xlink:href="#DejaVuSans-76" x="1637.890625"/>
     <use xlink:href="#DejaVuSans-65" x="1697.070312"/>
     <use xlink:href="#DejaVuSans-72" x="1758.59375"/>
     <use xlink:href="#DejaVuSans-20" x="1799.707031"/>
     <use xlink:href="#DejaVuSans-74" x="1831.494141"/>
     <use xlink:href="#DejaVuSans-69" x="1870.703125"/>
     <use xlink:href="#DejaVuSans-6d" x="1898.486328"/>
     <use xlink:href="#DejaVuSans-65" x="1995.898438"/>
    </g>
   </g>
   <g id="legend_1">
    <g id="patch_7">
     <path d="M 559.765625 80.55625 
L 641 80.55625 
Q 643 80.55625 643 78.55625 
L 643 50.2 
Q 643 48.2 641 48.2 
L 559.765625 48.2 
Q 557.765625 48.2 557.765625 50.2 
L 557.765625 78.55625 
Q 557.765625 80.55625 559.765625 80.55625 
z
" style="fill: #ffffff; opacity: 0.8; stroke: #cccccc; stroke-linejoin: miter"/>
    </g>
    <g id="line2d_29">
     <path d="M 561.765625 56.298437 
L 571.765625 56.298437 
L 581.765625 56.298437 
" style="fill: none; stroke: #1f77b4; stroke-width: 1.5; stroke-linecap: square"/>
    </g>
    <g id="text_17">
     <!-- train -->
     <g transform="translate(589.765625 59.798437) scale(0.1 -0.1)">
      <use xlink:href="#DejaVuSans-74"/>
      <use xlink:href="#DejaVuSans-72" x="39.208984"/>
      <use xlink:href="#DejaVuSans-61" x="80.322266"/>
      <use xlink:href="#DejaVuSans-69" x="141.601562"/>
      <use xlink:href="#DejaVuSans-6e" x="169.384766"/>
     </g>
    </g>
    <g id="line2d_30">
     <path d="M 561.765625 70.976562 
L 571.765625 70.976562 
L 581.765625 70.976562 
" style="fill: none; stroke: #ff7f0e; stroke-width: 1.5; stroke-linecap: square"/>
    </g>
    <g id="text_18">
     <!-- validation -->
     <g transform="translate(589.765625 74.476562) scale(0.1 -0.1)">
      <use xlink:href="#DejaVuSans-76"/>
      <use xlink:href="#DejaVuSans-61" x="59.179688"/>
      <use xlink:href="#DejaVuSans-6c" x="120.458984"/>
      <use xlink:href="#DejaVuSans-69" x="148.242188"/>
      <use xlink:href="#DejaVuSans-64" x="176.025391"/>
      <use xlink:href="#DejaVuSans-61" x="239.501953"/>
      <use xlink:href="#DejaVuSans-74" x="300.78125"/>
      <use xlink:href="#DejaVuSans-69" x="339.990234"/>
      <use xlink:href="#DejaVuSans-6f" x="367.773438"/>
      <use xlink:href="#DejaVuSans-6e" x="428.955078"/>
     </g>
    </g>
   </g>
  </g>
 </g>
 <defs>
  <clipPath id="pc4c9890b66">
   <rect x="90" y="43.2" width="558" height="277.2"/>
  </clipPath>
 </defs>
</svg>
