<?xml version="1.0" encoding="utf-8" standalone="no"?>
<!DOCTYPE svg PUBLIC "-//W3C//DTD SVG 1.1//EN"
  "http://www.w3.org/Graphics/SVG/1.1/DTD/svg11.dtd">
<svg xmlns:xlink="http://www.w3.org/1999/xlink" width="720pt" height="360pt" viewBox="0 0 720 360" xmlns="http://www.w3.org/2000/svg" version="1.1">
 <metadata>
  <rdf:RDF xmlns:dc="http://purl.org/dc/elements/1.1/" xmlns:cc="http://creativecommons.org/ns#" xmlns:rdf="http://www.w3.org/1999/02/22-rdf-syntax-ns#">
   <cc:Work>
    <dc:type rdf:resource="http://purl.org/dc/dcmitype/StillImage"/>
    <dc:date>2023-05-24T12:31:13.785041</dc:date>
    <dc:format>image/svg+xml</dc:format>
    <dc:creator>
     <cc:Agent>
      <dc:title>Matplotlib v3.7.1, https://matplotlib.org/</dc:title>
     </cc:Agent>
    </dc:creator>
   </cc:Work>
  </rdf:RDF>
 </metadata>
 <defs>
  <style type="text/css">*{stroke-linejoin: round; stroke-linecap: butt}</style>
 </defs>
 <g id="figure_1">
  <g id="patch_1">
   <path d="M 0 360 
L 720 360 
L 720 0 
L 0 0 
z
" style="fill: #ffffff"/>
  </g>
  <g id="axes_1">
   <g id="patch_2">
    <path d="M 90 320.4 
L 648 320.4 
L 648 43.2 
L 90 43.2 
z
" style="fill: #ffffff"/>
   </g>
   <g id="matplotlib.axis_1">
    <g id="xtick_1">
     <g id="line2d_1">
      <path d="M 115.363636 320.4 
L 115.363636 43.2 
" clip-path="url(#peb3d820adb)" style="fill: none; stroke: #b0b0b0; stroke-width: 0.8; stroke-linecap: square"/>
     </g>
     <g id="line2d_2">
      <defs>
       <path id="m0fba3b656c" d="M 0 0 
L 0 3.5 
" style="stroke: #000000; stroke-width: 0.8"/>
      </defs>
      <g>
       <use xlink:href="#m0fba3b656c" x="115.363636" y="320.4" style="stroke: #000000; stroke-width: 0.8"/>
      </g>
     </g>
     <g id="text_1">
      <!-- 0 -->
      <g transform="translate(112.182386 334.998438) scale(0.1 -0.1)">
       <defs>
        <path id="DejaVuSans-30" d="M 2034 4250 
Q 1547 4250 1301 3770 
Q 1056 3291 1056 2328 
Q 1056 1369 1301 889 
Q 1547 409 2034 409 
Q 2525 409 2770 889 
Q 3016 1369 3016 2328 
Q 3016 3291 2770 3770 
Q 2525 4250 2034 4250 
z
M 2034 4750 
Q 2819 4750 3233 4129 
Q 3647 3509 3647 2328 
Q 3647 1150 3233 529 
Q 2819 -91 2034 -91 
Q 1250 -91 836 529 
Q 422 1150 422 2328 
Q 422 3509 836 4129 
Q 1250 4750 2034 4750 
z
" transform="scale(0.015625)"/>
       </defs>
       <use xlink:href="#DejaVuSans-30"/>
      </g>
     </g>
    </g>
    <g id="xtick_2">
     <g id="line2d_3">
      <path d="M 217.021498 320.4 
L 217.021498 43.2 
" clip-path="url(#peb3d820adb)" style="fill: none; stroke: #b0b0b0; stroke-width: 0.8; stroke-linecap: square"/>
     </g>
     <g id="line2d_4">
      <g>
       <use xlink:href="#m0fba3b656c" x="217.021498" y="320.4" style="stroke: #000000; stroke-width: 0.8"/>
      </g>
     </g>
     <g id="text_2">
      <!-- 100 -->
      <g transform="translate(207.477748 334.998438) scale(0.1 -0.1)">
       <defs>
        <path id="DejaVuSans-31" d="M 794 531 
L 1825 531 
L 1825 4091 
L 703 3866 
L 703 4441 
L 1819 4666 
L 2450 4666 
L 2450 531 
L 3481 531 
L 3481 0 
L 794 0 
L 794 531 
z
" transform="scale(0.015625)"/>
       </defs>
       <use xlink:href="#DejaVuSans-31"/>
       <use xlink:href="#DejaVuSans-30" x="63.623047"/>
       <use xlink:href="#DejaVuSans-30" x="127.246094"/>
      </g>
     </g>
    </g>
    <g id="xtick_3">
     <g id="line2d_5">
      <path d="M 318.679359 320.4 
L 318.679359 43.2 
" clip-path="url(#peb3d820adb)" style="fill: none; stroke: #b0b0b0; stroke-width: 0.8; stroke-linecap: square"/>
     </g>
     <g id="line2d_6">
      <g>
       <use xlink:href="#m0fba3b656c" x="318.679359" y="320.4" style="stroke: #000000; stroke-width: 0.8"/>
      </g>
     </g>
     <g id="text_3">
      <!-- 200 -->
      <g transform="translate(309.135609 334.998438) scale(0.1 -0.1)">
       <defs>
        <path id="DejaVuSans-32" d="M 1228 531 
L 3431 531 
L 3431 0 
L 469 0 
L 469 531 
Q 828 903 1448 1529 
Q 2069 2156 2228 2338 
Q 2531 2678 2651 2914 
Q 2772 3150 2772 3378 
Q 2772 3750 2511 3984 
Q 2250 4219 1831 4219 
Q 1534 4219 1204 4116 
Q 875 4013 500 3803 
L 500 4441 
Q 881 4594 1212 4672 
Q 1544 4750 1819 4750 
Q 2544 4750 2975 4387 
Q 3406 4025 3406 3419 
Q 3406 3131 3298 2873 
Q 3191 2616 2906 2266 
Q 2828 2175 2409 1742 
Q 1991 1309 1228 531 
z
" transform="scale(0.015625)"/>
       </defs>
       <use xlink:href="#DejaVuSans-32"/>
       <use xlink:href="#DejaVuSans-30" x="63.623047"/>
       <use xlink:href="#DejaVuSans-30" x="127.246094"/>
      </g>
     </g>
    </g>
    <g id="xtick_4">
     <g id="line2d_7">
      <path d="M 420.33722 320.4 
L 420.33722 43.2 
" clip-path="url(#peb3d820adb)" style="fill: none; stroke: #b0b0b0; stroke-width: 0.8; stroke-linecap: square"/>
     </g>
     <g id="line2d_8">
      <g>
       <use xlink:href="#m0fba3b656c" x="420.33722" y="320.4" style="stroke: #000000; stroke-width: 0.8"/>
      </g>
     </g>
     <g id="text_4">
      <!-- 300 -->
      <g transform="translate(410.79347 334.998438) scale(0.1 -0.1)">
       <defs>
        <path id="DejaVuSans-33" d="M 2597 2516 
Q 3050 2419 3304 2112 
Q 3559 1806 3559 1356 
Q 3559 666 3084 287 
Q 2609 -91 1734 -91 
Q 1441 -91 1130 -33 
Q 819 25 488 141 
L 488 750 
Q 750 597 1062 519 
Q 1375 441 1716 441 
Q 2309 441 2620 675 
Q 2931 909 2931 1356 
Q 2931 1769 2642 2001 
Q 2353 2234 1838 2234 
L 1294 2234 
L 1294 2753 
L 1863 2753 
Q 2328 2753 2575 2939 
Q 2822 3125 2822 3475 
Q 2822 3834 2567 4026 
Q 2313 4219 1838 4219 
Q 1578 4219 1281 4162 
Q 984 4106 628 3988 
L 628 4550 
Q 988 4650 1302 4700 
Q 1616 4750 1894 4750 
Q 2613 4750 3031 4423 
Q 3450 4097 3450 3541 
Q 3450 3153 3228 2886 
Q 3006 2619 2597 2516 
z
" transform="scale(0.015625)"/>
       </defs>
       <use xlink:href="#DejaVuSans-33"/>
       <use xlink:href="#DejaVuSans-30" x="63.623047"/>
       <use xlink:href="#DejaVuSans-30" x="127.246094"/>
      </g>
     </g>
    </g>
    <g id="xtick_5">
     <g id="line2d_9">
      <path d="M 521.995081 320.4 
L 521.995081 43.2 
" clip-path="url(#peb3d820adb)" style="fill: none; stroke: #b0b0b0; stroke-width: 0.8; stroke-linecap: square"/>
     </g>
     <g id="line2d_10">
      <g>
       <use xlink:href="#m0fba3b656c" x="521.995081" y="320.4" style="stroke: #000000; stroke-width: 0.8"/>
      </g>
     </g>
     <g id="text_5">
      <!-- 400 -->
      <g transform="translate(512.451331 334.998438) scale(0.1 -0.1)">
       <defs>
        <path id="DejaVuSans-34" d="M 2419 4116 
L 825 1625 
L 2419 1625 
L 2419 4116 
z
M 2253 4666 
L 3047 4666 
L 3047 1625 
L 3713 1625 
L 3713 1100 
L 3047 1100 
L 3047 0 
L 2419 0 
L 2419 1100 
L 313 1100 
L 313 1709 
L 2253 4666 
z
" transform="scale(0.015625)"/>
       </defs>
       <use xlink:href="#DejaVuSans-34"/>
       <use xlink:href="#DejaVuSans-30" x="63.623047"/>
       <use xlink:href="#DejaVuSans-30" x="127.246094"/>
      </g>
     </g>
    </g>
    <g id="xtick_6">
     <g id="line2d_11">
      <path d="M 623.652942 320.4 
L 623.652942 43.2 
" clip-path="url(#peb3d820adb)" style="fill: none; stroke: #b0b0b0; stroke-width: 0.8; stroke-linecap: square"/>
     </g>
     <g id="line2d_12">
      <g>
       <use xlink:href="#m0fba3b656c" x="623.652942" y="320.4" style="stroke: #000000; stroke-width: 0.8"/>
      </g>
     </g>
     <g id="text_6">
      <!-- 500 -->
      <g transform="translate(614.109192 334.998438) scale(0.1 -0.1)">
       <defs>
        <path id="DejaVuSans-35" d="M 691 4666 
L 3169 4666 
L 3169 4134 
L 1269 4134 
L 1269 2991 
Q 1406 3038 1543 3061 
Q 1681 3084 1819 3084 
Q 2600 3084 3056 2656 
Q 3513 2228 3513 1497 
Q 3513 744 3044 326 
Q 2575 -91 1722 -91 
Q 1428 -91 1123 -41 
Q 819 9 494 109 
L 494 744 
Q 775 591 1075 516 
Q 1375 441 1709 441 
Q 2250 441 2565 725 
Q 2881 1009 2881 1497 
Q 2881 1984 2565 2268 
Q 2250 2553 1709 2553 
Q 1456 2553 1204 2497 
Q 953 2441 691 2322 
L 691 4666 
z
" transform="scale(0.015625)"/>
       </defs>
       <use xlink:href="#DejaVuSans-35"/>
       <use xlink:href="#DejaVuSans-30" x="63.623047"/>
       <use xlink:href="#DejaVuSans-30" x="127.246094"/>
      </g>
     </g>
    </g>
    <g id="text_7">
     <!-- epoch -->
     <g transform="translate(353.771875 348.676562) scale(0.1 -0.1)">
      <defs>
       <path id="DejaVuSans-65" d="M 3597 1894 
L 3597 1613 
L 953 1613 
Q 991 1019 1311 708 
Q 1631 397 2203 397 
Q 2534 397 2845 478 
Q 3156 559 3463 722 
L 3463 178 
Q 3153 47 2828 -22 
Q 2503 -91 2169 -91 
Q 1331 -91 842 396 
Q 353 884 353 1716 
Q 353 2575 817 3079 
Q 1281 3584 2069 3584 
Q 2775 3584 3186 3129 
Q 3597 2675 3597 1894 
z
M 3022 2063 
Q 3016 2534 2758 2815 
Q 2500 3097 2075 3097 
Q 1594 3097 1305 2825 
Q 1016 2553 972 2059 
L 3022 2063 
z
" transform="scale(0.015625)"/>
       <path id="DejaVuSans-70" d="M 1159 525 
L 1159 -1331 
L 581 -1331 
L 581 3500 
L 1159 3500 
L 1159 2969 
Q 1341 3281 1617 3432 
Q 1894 3584 2278 3584 
Q 2916 3584 3314 3078 
Q 3713 2572 3713 1747 
Q 3713 922 3314 415 
Q 2916 -91 2278 -91 
Q 1894 -91 1617 61 
Q 1341 213 1159 525 
z
M 3116 1747 
Q 3116 2381 2855 2742 
Q 2594 3103 2138 3103 
Q 1681 3103 1420 2742 
Q 1159 2381 1159 1747 
Q 1159 1113 1420 752 
Q 1681 391 2138 391 
Q 2594 391 2855 752 
Q 3116 1113 3116 1747 
z
" transform="scale(0.015625)"/>
       <path id="DejaVuSans-6f" d="M 1959 3097 
Q 1497 3097 1228 2736 
Q 959 2375 959 1747 
Q 959 1119 1226 758 
Q 1494 397 1959 397 
Q 2419 397 2687 759 
Q 2956 1122 2956 1747 
Q 2956 2369 2687 2733 
Q 2419 3097 1959 3097 
z
M 1959 3584 
Q 2709 3584 3137 3096 
Q 3566 2609 3566 1747 
Q 3566 888 3137 398 
Q 2709 -91 1959 -91 
Q 1206 -91 779 398 
Q 353 888 353 1747 
Q 353 2609 779 3096 
Q 1206 3584 1959 3584 
z
" transform="scale(0.015625)"/>
       <path id="DejaVuSans-63" d="M 3122 3366 
L 3122 2828 
Q 2878 2963 2633 3030 
Q 2388 3097 2138 3097 
Q 1578 3097 1268 2742 
Q 959 2388 959 1747 
Q 959 1106 1268 751 
Q 1578 397 2138 397 
Q 2388 397 2633 464 
Q 2878 531 3122 666 
L 3122 134 
Q 2881 22 2623 -34 
Q 2366 -91 2075 -91 
Q 1284 -91 818 406 
Q 353 903 353 1747 
Q 353 2603 823 3093 
Q 1294 3584 2113 3584 
Q 2378 3584 2631 3529 
Q 2884 3475 3122 3366 
z
" transform="scale(0.015625)"/>
       <path id="DejaVuSans-68" d="M 3513 2113 
L 3513 0 
L 2938 0 
L 2938 2094 
Q 2938 2591 2744 2837 
Q 2550 3084 2163 3084 
Q 1697 3084 1428 2787 
Q 1159 2491 1159 1978 
L 1159 0 
L 581 0 
L 581 4863 
L 1159 4863 
L 1159 2956 
Q 1366 3272 1645 3428 
Q 1925 3584 2291 3584 
Q 2894 3584 3203 3211 
Q 3513 2838 3513 2113 
z
" transform="scale(0.015625)"/>
      </defs>
      <use xlink:href="#DejaVuSans-65"/>
      <use xlink:href="#DejaVuSans-70" x="61.523438"/>
      <use xlink:href="#DejaVuSans-6f" x="125"/>
      <use xlink:href="#DejaVuSans-63" x="186.181641"/>
      <use xlink:href="#DejaVuSans-68" x="241.162109"/>
     </g>
    </g>
   </g>
   <g id="matplotlib.axis_2">
    <g id="ytick_1">
     <g id="line2d_13">
      <path d="M 90 293.981044 
L 648 293.981044 
" clip-path="url(#peb3d820adb)" style="fill: none; stroke: #b0b0b0; stroke-width: 0.8; stroke-linecap: square"/>
     </g>
     <g id="line2d_14">
      <defs>
       <path id="m48ed74395c" d="M 0 0 
L -3.5 0 
" style="stroke: #000000; stroke-width: 0.8"/>
      </defs>
      <g>
       <use xlink:href="#m48ed74395c" x="90" y="293.981044" style="stroke: #000000; stroke-width: 0.8"/>
      </g>
     </g>
     <g id="text_8">
      <!-- 1.35 -->
      <g transform="translate(60.734375 297.780263) scale(0.1 -0.1)">
       <defs>
        <path id="DejaVuSans-2e" d="M 684 794 
L 1344 794 
L 1344 0 
L 684 0 
L 684 794 
z
" transform="scale(0.015625)"/>
       </defs>
       <use xlink:href="#DejaVuSans-31"/>
       <use xlink:href="#DejaVuSans-2e" x="63.623047"/>
       <use xlink:href="#DejaVuSans-33" x="95.410156"/>
       <use xlink:href="#DejaVuSans-35" x="159.033203"/>
      </g>
     </g>
    </g>
    <g id="ytick_2">
     <g id="line2d_15">
      <path d="M 90 248.241336 
L 648 248.241336 
" clip-path="url(#peb3d820adb)" style="fill: none; stroke: #b0b0b0; stroke-width: 0.8; stroke-linecap: square"/>
     </g>
     <g id="line2d_16">
      <g>
       <use xlink:href="#m48ed74395c" x="90" y="248.241336" style="stroke: #000000; stroke-width: 0.8"/>
      </g>
     </g>
     <g id="text_9">
      <!-- 1.36 -->
      <g transform="translate(60.734375 252.040555) scale(0.1 -0.1)">
       <defs>
        <path id="DejaVuSans-36" d="M 2113 2584 
Q 1688 2584 1439 2293 
Q 1191 2003 1191 1497 
Q 1191 994 1439 701 
Q 1688 409 2113 409 
Q 2538 409 2786 701 
Q 3034 994 3034 1497 
Q 3034 2003 2786 2293 
Q 2538 2584 2113 2584 
z
M 3366 4563 
L 3366 3988 
Q 3128 4100 2886 4159 
Q 2644 4219 2406 4219 
Q 1781 4219 1451 3797 
Q 1122 3375 1075 2522 
Q 1259 2794 1537 2939 
Q 1816 3084 2150 3084 
Q 2853 3084 3261 2657 
Q 3669 2231 3669 1497 
Q 3669 778 3244 343 
Q 2819 -91 2113 -91 
Q 1303 -91 875 529 
Q 447 1150 447 2328 
Q 447 3434 972 4092 
Q 1497 4750 2381 4750 
Q 2619 4750 2861 4703 
Q 3103 4656 3366 4563 
z
" transform="scale(0.015625)"/>
       </defs>
       <use xlink:href="#DejaVuSans-31"/>
       <use xlink:href="#DejaVuSans-2e" x="63.623047"/>
       <use xlink:href="#DejaVuSans-33" x="95.410156"/>
       <use xlink:href="#DejaVuSans-36" x="159.033203"/>
      </g>
     </g>
    </g>
    <g id="ytick_3">
     <g id="line2d_17">
      <path d="M 90 202.501628 
L 648 202.501628 
" clip-path="url(#peb3d820adb)" style="fill: none; stroke: #b0b0b0; stroke-width: 0.8; stroke-linecap: square"/>
     </g>
     <g id="line2d_18">
      <g>
       <use xlink:href="#m48ed74395c" x="90" y="202.501628" style="stroke: #000000; stroke-width: 0.8"/>
      </g>
     </g>
     <g id="text_10">
      <!-- 1.37 -->
      <g transform="translate(60.734375 206.300847) scale(0.1 -0.1)">
       <defs>
        <path id="DejaVuSans-37" d="M 525 4666 
L 3525 4666 
L 3525 4397 
L 1831 0 
L 1172 0 
L 2766 4134 
L 525 4134 
L 525 4666 
z
" transform="scale(0.015625)"/>
       </defs>
       <use xlink:href="#DejaVuSans-31"/>
       <use xlink:href="#DejaVuSans-2e" x="63.623047"/>
       <use xlink:href="#DejaVuSans-33" x="95.410156"/>
       <use xlink:href="#DejaVuSans-37" x="159.033203"/>
      </g>
     </g>
    </g>
    <g id="ytick_4">
     <g id="line2d_19">
      <path d="M 90 156.76192 
L 648 156.76192 
" clip-path="url(#peb3d820adb)" style="fill: none; stroke: #b0b0b0; stroke-width: 0.8; stroke-linecap: square"/>
     </g>
     <g id="line2d_20">
      <g>
       <use xlink:href="#m48ed74395c" x="90" y="156.76192" style="stroke: #000000; stroke-width: 0.8"/>
      </g>
     </g>
     <g id="text_11">
      <!-- 1.38 -->
      <g transform="translate(60.734375 160.561139) scale(0.1 -0.1)">
       <defs>
        <path id="DejaVuSans-38" d="M 2034 2216 
Q 1584 2216 1326 1975 
Q 1069 1734 1069 1313 
Q 1069 891 1326 650 
Q 1584 409 2034 409 
Q 2484 409 2743 651 
Q 3003 894 3003 1313 
Q 3003 1734 2745 1975 
Q 2488 2216 2034 2216 
z
M 1403 2484 
Q 997 2584 770 2862 
Q 544 3141 544 3541 
Q 544 4100 942 4425 
Q 1341 4750 2034 4750 
Q 2731 4750 3128 4425 
Q 3525 4100 3525 3541 
Q 3525 3141 3298 2862 
Q 3072 2584 2669 2484 
Q 3125 2378 3379 2068 
Q 3634 1759 3634 1313 
Q 3634 634 3220 271 
Q 2806 -91 2034 -91 
Q 1263 -91 848 271 
Q 434 634 434 1313 
Q 434 1759 690 2068 
Q 947 2378 1403 2484 
z
M 1172 3481 
Q 1172 3119 1398 2916 
Q 1625 2713 2034 2713 
Q 2441 2713 2670 2916 
Q 2900 3119 2900 3481 
Q 2900 3844 2670 4047 
Q 2441 4250 2034 4250 
Q 1625 4250 1398 4047 
Q 1172 3844 1172 3481 
z
" transform="scale(0.015625)"/>
       </defs>
       <use xlink:href="#DejaVuSans-31"/>
       <use xlink:href="#DejaVuSans-2e" x="63.623047"/>
       <use xlink:href="#DejaVuSans-33" x="95.410156"/>
       <use xlink:href="#DejaVuSans-38" x="159.033203"/>
      </g>
     </g>
    </g>
    <g id="ytick_5">
     <g id="line2d_21">
      <path d="M 90 111.022212 
L 648 111.022212 
" clip-path="url(#peb3d820adb)" style="fill: none; stroke: #b0b0b0; stroke-width: 0.8; stroke-linecap: square"/>
     </g>
     <g id="line2d_22">
      <g>
       <use xlink:href="#m48ed74395c" x="90" y="111.022212" style="stroke: #000000; stroke-width: 0.8"/>
      </g>
     </g>
     <g id="text_12">
      <!-- 1.39 -->
      <g transform="translate(60.734375 114.821431) scale(0.1 -0.1)">
       <defs>
        <path id="DejaVuSans-39" d="M 703 97 
L 703 672 
Q 941 559 1184 500 
Q 1428 441 1663 441 
Q 2288 441 2617 861 
Q 2947 1281 2994 2138 
Q 2813 1869 2534 1725 
Q 2256 1581 1919 1581 
Q 1219 1581 811 2004 
Q 403 2428 403 3163 
Q 403 3881 828 4315 
Q 1253 4750 1959 4750 
Q 2769 4750 3195 4129 
Q 3622 3509 3622 2328 
Q 3622 1225 3098 567 
Q 2575 -91 1691 -91 
Q 1453 -91 1209 -44 
Q 966 3 703 97 
z
M 1959 2075 
Q 2384 2075 2632 2365 
Q 2881 2656 2881 3163 
Q 2881 3666 2632 3958 
Q 2384 4250 1959 4250 
Q 1534 4250 1286 3958 
Q 1038 3666 1038 3163 
Q 1038 2656 1286 2365 
Q 1534 2075 1959 2075 
z
" transform="scale(0.015625)"/>
       </defs>
       <use xlink:href="#DejaVuSans-31"/>
       <use xlink:href="#DejaVuSans-2e" x="63.623047"/>
       <use xlink:href="#DejaVuSans-33" x="95.410156"/>
       <use xlink:href="#DejaVuSans-39" x="159.033203"/>
      </g>
     </g>
    </g>
    <g id="ytick_6">
     <g id="line2d_23">
      <path d="M 90 65.282504 
L 648 65.282504 
" clip-path="url(#peb3d820adb)" style="fill: none; stroke: #b0b0b0; stroke-width: 0.8; stroke-linecap: square"/>
     </g>
     <g id="line2d_24">
      <g>
       <use xlink:href="#m48ed74395c" x="90" y="65.282504" style="stroke: #000000; stroke-width: 0.8"/>
      </g>
     </g>
     <g id="text_13">
      <!-- 1.40 -->
      <g transform="translate(60.734375 69.081723) scale(0.1 -0.1)">
       <use xlink:href="#DejaVuSans-31"/>
       <use xlink:href="#DejaVuSans-2e" x="63.623047"/>
       <use xlink:href="#DejaVuSans-34" x="95.410156"/>
       <use xlink:href="#DejaVuSans-30" x="159.033203"/>
      </g>
     </g>
    </g>
    <g id="text_14">
     <!-- loss -->
     <g transform="translate(54.654688 191.457812) rotate(-90) scale(0.1 -0.1)">
      <defs>
       <path id="DejaVuSans-6c" d="M 603 4863 
L 1178 4863 
L 1178 0 
L 603 0 
L 603 4863 
z
" transform="scale(0.015625)"/>
       <path id="DejaVuSans-73" d="M 2834 3397 
L 2834 2853 
Q 2591 2978 2328 3040 
Q 2066 3103 1784 3103 
Q 1356 3103 1142 2972 
Q 928 2841 928 2578 
Q 928 2378 1081 2264 
Q 1234 2150 1697 2047 
L 1894 2003 
Q 2506 1872 2764 1633 
Q 3022 1394 3022 966 
Q 3022 478 2636 193 
Q 2250 -91 1575 -91 
Q 1294 -91 989 -36 
Q 684 19 347 128 
L 347 722 
Q 666 556 975 473 
Q 1284 391 1588 391 
Q 1994 391 2212 530 
Q 2431 669 2431 922 
Q 2431 1156 2273 1281 
Q 2116 1406 1581 1522 
L 1381 1569 
Q 847 1681 609 1914 
Q 372 2147 372 2553 
Q 372 3047 722 3315 
Q 1072 3584 1716 3584 
Q 2034 3584 2315 3537 
Q 2597 3491 2834 3397 
z
" transform="scale(0.015625)"/>
      </defs>
      <use xlink:href="#DejaVuSans-6c"/>
      <use xlink:href="#DejaVuSans-6f" x="27.783203"/>
      <use xlink:href="#DejaVuSans-73" x="88.964844"/>
      <use xlink:href="#DejaVuSans-73" x="141.064453"/>
     </g>
    </g>
   </g>
   <g id="line2d_25">
    <path d="M 115.363636 124.906228 
L 116.380215 106.284515 
L 117.396794 106.791062 
L 118.413372 93.402752 
L 119.429951 84.335082 
L 120.446529 88.314933 
L 121.463108 80.64749 
L 122.479687 105.26597 
L 123.496265 116.58829 
L 124.512844 91.581039 
L 125.529422 70.309909 
L 126.546001 106.553328 
L 127.56258 86.676427 
L 128.579158 78.541151 
L 129.595737 108.764902 
L 130.612316 99.619259 
L 131.628894 99.614897 
L 132.645473 114.76167 
L 133.662051 64.494168 
L 134.67863 97.499289 
L 135.695209 99.53747 
L 136.711787 98.412599 
L 137.728366 93.444737 
L 138.744944 84.732576 
L 139.761523 95.71629 
L 140.778102 99.166694 
L 141.79468 115.918166 
L 142.811259 104.837396 
L 143.827837 84.239116 
L 144.844416 90.384194 
L 145.860995 102.834111 
L 146.877573 118.588303 
L 147.894152 87.055928 
L 148.910731 115.279666 
L 149.927309 103.435533 
L 150.943888 109.50482 
L 151.960466 110.278543 
L 152.977045 77.131654 
L 153.993624 94.685749 
L 155.010202 101.167252 
L 156.026781 81.356327 
L 157.043359 99.737035 
L 158.059938 75.035676 
L 159.076517 100.287748 
L 160.093095 106.196728 
L 161.109674 95.522177 
L 162.126253 132.479887 
L 163.142831 102.060388 
L 164.15941 76.60875 
L 165.175988 116.142267 
L 166.192567 88.802395 
L 167.209146 99.080543 
L 168.225724 120.879485 
L 169.242303 110.131323 
L 170.258881 110.433942 
L 171.27546 120.257343 
L 172.292039 116.530492 
L 173.308617 104.852118 
L 174.325196 107.686924 
L 175.341774 104.344481 
L 176.358353 97.215209 
L 177.374932 104.882107 
L 178.39151 133.533874 
L 179.408089 119.724079 
L 180.424668 81.174756 
L 181.441246 90.316582 
L 182.457825 112.646607 
L 183.474403 104.95081 
L 184.490982 82.456116 
L 185.507561 90.388556 
L 186.524139 103.415358 
L 187.540718 76.181812 
L 188.557296 104.236519 
L 189.573875 62.965804 
L 190.590454 106.50371 
L 191.607032 92.709727 
L 192.623611 106.353763 
L 193.640189 60.969063 
L 194.656768 102.325929 
L 195.673347 97.385875 
L 196.689925 126.443316 
L 197.706504 99.165058 
L 198.723083 90.097933 
L 199.739661 84.794736 
L 200.75624 94.553796 
L 201.772818 105.882659 
L 202.789397 108.402304 
L 203.805976 115.174976 
L 204.822554 102.115459 
L 205.839133 94.18411 
L 206.855711 109.61987 
L 207.87229 108.47646 
L 208.888869 111.179858 
L 209.905447 91.952906 
L 210.922026 85.587543 
L 211.938604 97.401688 
L 212.955183 116.475421 
L 213.971762 106.706546 
L 214.98834 99.606173 
L 216.004919 74.423349 
L 217.021498 99.460043 
L 218.038076 96.440395 
L 219.054655 95.05598 
L 220.071233 118.676635 
L 221.087812 108.895219 
L 222.104391 97.610522 
L 223.120969 110.63787 
L 224.137548 111.354341 
L 225.154126 81.600604 
L 226.170705 106.035877 
L 227.187284 102.985148 
L 228.203862 95.944208 
L 229.220441 94.090325 
L 230.237019 107.665658 
L 231.253598 74.919535 
L 232.270177 89.324754 
L 233.286755 88.024309 
L 234.303334 112.54955 
L 235.319913 106.121483 
L 236.336491 100.730499 
L 237.35307 83.784914 
L 238.369648 84.55264 
L 239.386227 104.400097 
L 240.402806 92.540697 
L 241.419384 94.704833 
L 242.435963 98.896245 
L 243.452541 109.551167 
L 244.46912 99.737035 
L 245.485699 124.201753 
L 246.502277 101.109454 
L 247.518856 60.91999 
L 248.535435 84.023193 
L 250.568592 101.018941 
L 251.58517 84.887975 
L 252.601749 111.570809 
L 253.618328 121.420382 
L 254.634906 109.762728 
L 255.651485 122.073058 
L 256.668063 92.804057 
L 257.684642 73.714511 
L 258.701221 110.852702 
L 259.717799 113.788381 
L 260.734378 103.484061 
L 261.750956 113.831456 
L 262.767535 114.570829 
L 263.784114 108.580059 
L 264.800692 94.69829 
L 265.817271 117.241511 
L 266.83385 94.658486 
L 267.850428 93.023251 
L 268.867007 100.163429 
L 269.883585 89.143728 
L 270.900164 99.737035 
L 271.916743 97.497653 
L 272.933321 89.702074 
L 273.9499 110.664587 
L 274.966478 105.806868 
L 275.983057 106.30469 
L 276.999636 91.71899 
L 278.016214 95.479647 
L 279.032793 58.185512 
L 280.049371 104.985161 
L 281.06595 82.611515 
L 282.082529 108.068605 
L 283.099107 111.121515 
L 284.115686 92.288786 
L 285.132265 81.194385 
L 286.148843 109.003726 
L 287.165422 68.284269 
L 288.182 90.759333 
L 289.198579 89.674811 
L 290.215158 108.334147 
L 291.231736 96.618695 
L 292.248315 96.802447 
L 293.264893 104.84612 
L 294.281472 102.629094 
L 295.298051 72.860089 
L 296.314629 113.19841 
L 297.331208 108.264354 
L 298.347786 98.888611 
L 299.364365 109.369595 
L 300.380944 109.661309 
L 301.397522 71.963682 
L 302.414101 78.330135 
L 303.43068 89.687897 
L 304.447258 109.139496 
L 305.463837 103.382097 
L 306.480415 87.451787 
L 307.496994 99.100172 
L 308.513573 98.590354 
L 309.530151 106.422466 
L 310.54673 110.934491 
L 311.563308 86.878719 
L 312.579887 109.695661 
L 313.596466 107.316147 
L 314.613044 122.226822 
L 315.629623 106.947006 
L 316.646201 117.61665 
L 317.66278 93.284976 
L 318.679359 113.519568 
L 319.695937 91.035234 
L 320.712516 107.652027 
L 321.729095 71.361715 
L 322.745673 125.267736 
L 323.762252 111.637876 
L 324.77883 104.144371 
L 325.795409 104.640012 
L 326.811988 109.551167 
L 327.828566 117.675538 
L 328.845145 109.792717 
L 329.861723 104.467164 
L 330.878302 93.914206 
L 331.894881 107.407205 
L 332.911459 93.004713 
L 333.928038 92.519977 
L 334.944617 90.962169 
L 335.961195 94.713012 
L 336.977774 88.3302 
L 337.994352 73.466418 
L 339.010931 113.316186 
L 340.02751 99.64216 
L 341.044088 98.167778 
L 342.060667 102.535854 
L 343.077245 95.84388 
L 344.093824 106.599675 
L 345.110403 96.961663 
L 346.126981 105.232709 
L 347.14356 95.547804 
L 348.160138 104.551134 
L 349.176717 116.895816 
L 350.193296 108.313972 
L 351.209874 105.118205 
L 352.226453 113.046827 
L 353.243032 90.45944 
L 354.25961 87.11318 
L 355.276189 103.283405 
L 356.292767 70.251021 
L 357.309346 88.000863 
L 358.325925 114.710415 
L 359.342503 87.768583 
L 360.359082 103.396819 
L 361.37566 97.649781 
L 362.392239 101.141079 
L 363.408818 114.919795 
L 364.425396 112.824907 
L 365.441975 96.94476 
L 366.458553 75.395547 
L 367.475132 101.300295 
L 368.491711 118.179358 
L 369.508289 118.86584 
L 370.524868 63.337672 
L 371.541447 106.299783 
L 372.558025 103.243601 
L 373.574604 101.137263 
L 374.591182 86.36781 
L 375.607761 113.841816 
L 376.62434 95.245185 
L 377.640918 118.037045 
L 378.657497 101.359729 
L 379.674075 112.658602 
L 380.690654 105.513518 
L 381.707233 89.163357 
L 382.723811 83.793639 
L 383.74039 102.184162 
L 384.756968 93.354769 
L 385.773547 97.452397 
L 386.790126 114.635715 
L 387.806704 99.511298 
L 388.823283 99.424056 
L 389.839862 68.311532 
L 390.85644 84.569543 
L 391.873019 106.831411 
L 392.889597 118.746428 
L 393.906176 88.691162 
L 394.922755 100.629081 
L 395.939333 101.629087 
L 396.955912 99.936055 
L 397.97249 102.696706 
L 398.989069 107.168927 
L 400.005648 111.132965 
L 401.022226 110.73329 
L 402.038805 100.751219 
L 403.055383 104.167271 
L 404.071962 108.142761 
L 405.088541 105.383746 
L 406.105119 103.499328 
L 407.121698 94.463828 
L 408.138277 97.683587 
L 409.154855 93.75499 
L 410.171434 94.870046 
L 411.188012 88.753322 
L 412.204591 77.389562 
L 413.22117 110.658044 
L 414.237748 98.590354 
L 415.254327 64.647931 
L 416.270905 65.232449 
L 417.287484 101.34119 
L 418.304063 71.385161 
L 419.320641 115.751316 
L 420.33722 79.201461 
L 421.353799 85.14043 
L 422.370377 104.322125 
L 423.386956 91.997618 
L 424.403534 71.115258 
L 425.420113 96.102879 
L 426.436692 113.709863 
L 427.45327 94.55325 
L 428.469849 105.11875 
L 429.486427 97.553815 
L 430.503006 117.034858 
L 431.519585 89.444166 
L 432.536163 121.296608 
L 433.552742 110.749103 
L 434.56932 86.807835 
L 435.585899 118.559404 
L 436.602478 92.5058 
L 437.619056 120.976541 
L 438.635635 96.21084 
L 439.652214 103.830301 
L 440.668792 123.5867 
L 441.685371 95.828068 
L 442.701949 110.484652 
L 443.718528 80.023167 
L 444.735107 106.83959 
L 445.751685 107.884853 
L 446.768264 100.928428 
L 447.784842 121.708825 
L 448.801421 93.453461 
L 449.818 120.813508 
L 450.834578 93.937652 
L 451.851157 102.14872 
L 452.867735 88.962156 
L 453.884314 112.751842 
L 454.900893 120.16574 
L 455.917471 102.221784 
L 456.93405 55.8 
L 457.950629 95.533628 
L 458.967207 64.749895 
L 459.983786 112.185317 
L 461.000364 112.392516 
L 462.016943 109.349421 
L 463.033522 94.364045 
L 464.0501 123.043621 
L 465.066679 97.448035 
L 466.083257 86.455052 
L 467.099836 89.560852 
L 468.116415 93.180832 
L 469.132993 101.981325 
L 470.149572 77.015514 
L 471.16615 111.84453 
L 472.182729 115.51849 
L 473.199308 102.46388 
L 474.215886 101.910986 
L 475.232465 103.012411 
L 476.249044 105.07731 
L 477.265622 88.369459 
L 478.282201 104.921366 
L 479.298779 110.655318 
L 480.315358 101.269216 
L 481.331937 86.373263 
L 483.365094 111.539729 
L 484.381672 112.263834 
L 485.398251 96.328616 
L 486.41483 106.864126 
L 487.431408 124.050716 
L 488.447987 108.861958 
L 490.481144 71.889526 
L 491.497723 77.632748 
L 492.514301 90.927818 
L 493.53088 95.635591 
L 494.547459 98.102347 
L 495.564037 98.897881 
L 497.597194 90.089754 
L 498.613773 89.537405 
L 499.630352 109.251274 
L 500.64693 93.090318 
L 501.663509 82.801811 
L 502.680087 111.831443 
L 503.696666 88.970335 
L 504.713245 105.673279 
L 505.729823 109.286171 
L 506.746402 92.210814 
L 507.762981 118.489066 
L 508.779559 78.113667 
L 509.796138 108.847236 
L 510.812716 105.425186 
L 511.829295 111.080075 
L 512.845874 122.702833 
L 513.862452 81.621869 
L 514.879031 91.968174 
L 515.895609 98.337899 
L 516.912188 98.933323 
L 517.928767 113.684781 
L 518.945345 85.826367 
L 519.961924 103.132368 
L 520.978502 88.245685 
L 521.995081 94.038525 
L 523.01166 137.826159 
L 524.028238 97.306813 
L 525.044817 85.218948 
L 526.061396 113.793833 
L 527.077974 88.426711 
L 528.094553 90.667729 
L 529.111131 108.65476 
L 530.12771 98.809003 
L 531.144289 110.830346 
L 532.160867 84.408146 
L 533.177446 86.738042 
L 534.194024 98.196677 
L 535.210603 111.144961 
L 536.227182 116.531038 
L 537.24376 59.045386 
L 539.276917 116.578475 
L 540.293496 95.964383 
L 541.310075 118.726254 
L 542.326653 88.788218 
L 543.343232 108.494453 
L 544.359811 61.832209 
L 545.376389 73.846464 
L 546.392968 96.127961 
L 547.409546 100.913706 
L 548.426125 114.77312 
L 549.442704 114.817831 
L 550.459282 85.637162 
L 551.475861 108.447561 
L 552.492439 102.466061 
L 553.509018 93.623037 
L 554.525597 86.563013 
L 555.542175 90.287138 
L 556.558754 98.240297 
L 557.575332 78.43428 
L 558.591911 125.30863 
L 559.60849 107.143845 
L 560.625068 113.728402 
L 561.641647 114.047379 
L 562.658226 105.791055 
L 563.674804 88.359099 
L 564.691383 113.153153 
L 565.707961 114.269845 
L 566.72454 118.574126 
L 567.741119 107.072961 
L 568.757697 112.32872 
L 569.774276 98.250112 
L 570.790854 79.243991 
L 571.807433 81.564617 
L 572.824012 100.253942 
L 573.84059 121.056694 
L 574.857169 94.219006 
L 575.873747 98.755568 
L 576.890326 110.010276 
L 577.906905 98.4355 
L 578.923483 96.219564 
L 579.940062 101.554386 
L 580.956641 94.16448 
L 581.973219 105.58004 
L 582.989798 80.752179 
L 584.006376 100.603453 
L 585.022955 72.586914 
L 586.039534 95.193931 
L 587.056112 101.32047 
L 588.072691 88.163896 
L 589.089269 120.626484 
L 590.105848 97.906053 
L 591.122427 111.417046 
L 592.139005 105.113842 
L 593.155584 105.573496 
L 594.172163 112.734394 
L 595.188741 107.216364 
L 596.20532 122.134127 
L 597.221898 110.420311 
L 598.238477 107.848866 
L 601.288213 84.032462 
L 603.32137 116.896362 
L 604.337949 117.821668 
L 607.387684 98.163416 
L 608.404263 97.436039 
L 609.420842 102.257226 
L 610.43742 112.051183 
L 611.453999 109.806894 
L 612.470578 102.300847 
L 613.487156 107.005349 
L 614.503735 116.74587 
L 615.520313 77.103301 
L 616.536892 92.889663 
L 617.553471 94.567427 
L 618.570049 104.716893 
L 619.586628 99.854266 
L 620.603206 97.477479 
L 621.619785 92.262069 
L 622.636364 111.678771 
L 622.636364 111.678771 
" clip-path="url(#peb3d820adb)" style="fill: none; stroke: #1f77b4; stroke-width: 1.5; stroke-linecap: square"/>
   </g>
   <g id="line2d_26">
    <path d="M 115.363636 307.200759 
L 135.695209 306.935218 
L 137.728366 306.947759 
L 138.744944 306.869787 
L 140.778102 306.934127 
L 152.977045 306.969569 
L 158.059938 306.869242 
L 162.126253 306.863244 
L 164.15941 306.951576 
L 165.175988 306.841433 
L 166.192567 306.995197 
L 171.27546 306.943397 
L 176.358353 307.039363 
L 178.39151 307.012645 
L 179.408089 307.148415 
L 183.474403 307.075895 
L 193.640189 307.059537 
L 195.673347 307.042089 
L 202.789397 307.104248 
L 203.805976 307.013735 
L 207.87229 307.10752 
L 222.104391 307.292363 
L 225.154126 307.33762 
L 226.170705 307.241654 
L 229.220441 307.293999 
L 233.286755 307.199124 
L 236.336491 307.184947 
L 240.402806 307.15005 
L 241.419384 307.08571 
L 243.452541 307.094434 
L 245.485699 307.136964 
L 247.518856 307.226932 
L 249.552013 307.123878 
L 251.58517 307.1904 
L 253.618328 307.208938 
L 254.634906 307.321262 
L 256.668063 307.290727 
L 260.734378 307.259648 
L 264.800692 307.455396 
L 266.83385 307.413956 
L 281.06595 307.412866 
L 312.579887 307.268917 
L 313.596466 307.300542 
L 314.613044 307.213846 
L 315.629623 307.339801 
L 321.729095 307.273279 
L 335.961195 307.414501 
L 336.977774 307.33871 
L 337.994352 307.377969 
L 340.02751 307.242744 
L 341.044088 307.30763 
L 343.077245 307.240018 
L 359.342503 307.43195 
L 360.359082 307.311447 
L 363.408818 307.351251 
L 369.508289 307.344163 
L 372.558025 307.35943 
L 375.607761 307.309811 
L 378.657497 307.449398 
L 380.690654 307.449398 
L 387.806704 307.574262 
L 389.839862 307.527915 
L 394.922755 307.434676 
L 396.955912 307.427042 
L 398.989069 307.35834 
L 400.005648 307.440674 
L 402.038805 307.405777 
L 405.088541 307.428133 
L 407.121698 307.458122 
L 408.138277 307.525189 
L 410.171434 307.430314 
L 416.270905 307.480478 
L 417.287484 307.368154 
L 419.320641 307.368699 
L 428.469849 307.34907 
L 431.519585 307.441219 
L 433.552742 307.368154 
L 442.701949 307.417228 
L 443.718528 307.46521 
L 444.735107 307.397053 
L 450.834578 307.591165 
L 453.884314 307.560086 
L 455.917471 307.715485 
L 462.016943 307.484295 
L 470.149572 307.676771 
L 472.182729 307.543728 
L 477.265622 307.640784 
L 481.331937 307.662595 
L 483.365094 307.641329 
L 499.630352 307.494655 
L 501.663509 307.571536 
L 507.762981 307.578625 
L 510.812716 307.573717 
L 511.829295 307.506105 
L 513.862452 307.625517 
L 521.995081 307.596073 
L 523.01166 307.529551 
L 525.044817 307.625517 
L 526.061396 307.56881 
L 528.094553 307.629879 
L 532.160867 307.663685 
L 533.177446 307.726935 
L 534.194024 307.579715 
L 537.24376 307.733478 
L 539.276917 307.58026 
L 543.343232 307.628243 
L 546.392968 307.504469 
L 548.426125 307.419409 
L 551.475861 307.52628 
L 568.757697 307.586258 
L 569.774276 307.64351 
L 571.807433 307.55845 
L 573.84059 307.552452 
L 575.873747 307.468482 
L 576.890326 307.597709 
L 578.923483 307.528461 
L 580.956641 307.591711 
L 586.039534 307.470663 
L 588.072691 307.569355 
L 590.105848 307.512648 
L 597.221898 307.713849 
L 599.255056 307.765103 
L 600.271634 307.8 
L 601.288213 307.718211 
L 602.304791 307.761287 
L 604.337949 307.698036 
L 622.636364 307.670228 
L 622.636364 307.670228 
" clip-path="url(#peb3d820adb)" style="fill: none; stroke: #ff7f0e; stroke-width: 1.5; stroke-linecap: square"/>
   </g>
   <g id="patch_3">
    <path d="M 90 320.4 
L 90 43.2 
" style="fill: none; stroke: #000000; stroke-width: 0.8; stroke-linejoin: miter; stroke-linecap: square"/>
   </g>
   <g id="patch_4">
    <path d="M 648 320.4 
L 648 43.2 
" style="fill: none; stroke: #000000; stroke-width: 0.8; stroke-linejoin: miter; stroke-linecap: square"/>
   </g>
   <g id="patch_5">
    <path d="M 90 320.4 
L 648 320.4 
" style="fill: none; stroke: #000000; stroke-width: 0.8; stroke-linejoin: miter; stroke-linecap: square"/>
   </g>
   <g id="patch_6">
    <path d="M 90 43.2 
L 648 43.2 
" style="fill: none; stroke: #000000; stroke-width: 0.8; stroke-linejoin: miter; stroke-linecap: square"/>
   </g>
   <g id="text_15">
    <!-- model train and validation loss over time -->
    <g transform="translate(245.555625 37.2) scale(0.12 -0.12)">
     <defs>
      <path id="DejaVuSans-6d" d="M 3328 2828 
Q 3544 3216 3844 3400 
Q 4144 3584 4550 3584 
Q 5097 3584 5394 3201 
Q 5691 2819 5691 2113 
L 5691 0 
L 5113 0 
L 5113 2094 
Q 5113 2597 4934 2840 
Q 4756 3084 4391 3084 
Q 3944 3084 3684 2787 
Q 3425 2491 3425 1978 
L 3425 0 
L 2847 0 
L 2847 2094 
Q 2847 2600 2669 2842 
Q 2491 3084 2119 3084 
Q 1678 3084 1418 2786 
Q 1159 2488 1159 1978 
L 1159 0 
L 581 0 
L 581 3500 
L 1159 3500 
L 1159 2956 
Q 1356 3278 1631 3431 
Q 1906 3584 2284 3584 
Q 2666 3584 2933 3390 
Q 3200 3197 3328 2828 
z
" transform="scale(0.015625)"/>
      <path id="DejaVuSans-64" d="M 2906 2969 
L 2906 4863 
L 3481 4863 
L 3481 0 
L 2906 0 
L 2906 525 
Q 2725 213 2448 61 
Q 2172 -91 1784 -91 
Q 1150 -91 751 415 
Q 353 922 353 1747 
Q 353 2572 751 3078 
Q 1150 3584 1784 3584 
Q 2172 3584 2448 3432 
Q 2725 3281 2906 2969 
z
M 947 1747 
Q 947 1113 1208 752 
Q 1469 391 1925 391 
Q 2381 391 2643 752 
Q 2906 1113 2906 1747 
Q 2906 2381 2643 2742 
Q 2381 3103 1925 3103 
Q 1469 3103 1208 2742 
Q 947 2381 947 1747 
z
" transform="scale(0.015625)"/>
      <path id="DejaVuSans-20" transform="scale(0.015625)"/>
      <path id="DejaVuSans-74" d="M 1172 4494 
L 1172 3500 
L 2356 3500 
L 2356 3053 
L 1172 3053 
L 1172 1153 
Q 1172 725 1289 603 
Q 1406 481 1766 481 
L 2356 481 
L 2356 0 
L 1766 0 
Q 1100 0 847 248 
Q 594 497 594 1153 
L 594 3053 
L 172 3053 
L 172 3500 
L 594 3500 
L 594 4494 
L 1172 4494 
z
" transform="scale(0.015625)"/>
      <path id="DejaVuSans-72" d="M 2631 2963 
Q 2534 3019 2420 3045 
Q 2306 3072 2169 3072 
Q 1681 3072 1420 2755 
Q 1159 2438 1159 1844 
L 1159 0 
L 581 0 
L 581 3500 
L 1159 3500 
L 1159 2956 
Q 1341 3275 1631 3429 
Q 1922 3584 2338 3584 
Q 2397 3584 2469 3576 
Q 2541 3569 2628 3553 
L 2631 2963 
z
" transform="scale(0.015625)"/>
      <path id="DejaVuSans-61" d="M 2194 1759 
Q 1497 1759 1228 1600 
Q 959 1441 959 1056 
Q 959 750 1161 570 
Q 1363 391 1709 391 
Q 2188 391 2477 730 
Q 2766 1069 2766 1631 
L 2766 1759 
L 2194 1759 
z
M 3341 1997 
L 3341 0 
L 2766 0 
L 2766 531 
Q 2569 213 2275 61 
Q 1981 -91 1556 -91 
Q 1019 -91 701 211 
Q 384 513 384 1019 
Q 384 1609 779 1909 
Q 1175 2209 1959 2209 
L 2766 2209 
L 2766 2266 
Q 2766 2663 2505 2880 
Q 2244 3097 1772 3097 
Q 1472 3097 1187 3025 
Q 903 2953 641 2809 
L 641 3341 
Q 956 3463 1253 3523 
Q 1550 3584 1831 3584 
Q 2591 3584 2966 3190 
Q 3341 2797 3341 1997 
z
" transform="scale(0.015625)"/>
      <path id="DejaVuSans-69" d="M 603 3500 
L 1178 3500 
L 1178 0 
L 603 0 
L 603 3500 
z
M 603 4863 
L 1178 4863 
L 1178 4134 
L 603 4134 
L 603 4863 
z
" transform="scale(0.015625)"/>
      <path id="DejaVuSans-6e" d="M 3513 2113 
L 3513 0 
L 2938 0 
L 2938 2094 
Q 2938 2591 2744 2837 
Q 2550 3084 2163 3084 
Q 1697 3084 1428 2787 
Q 1159 2491 1159 1978 
L 1159 0 
L 581 0 
L 581 3500 
L 1159 3500 
L 1159 2956 
Q 1366 3272 1645 3428 
Q 1925 3584 2291 3584 
Q 2894 3584 3203 3211 
Q 3513 2838 3513 2113 
z
" transform="scale(0.015625)"/>
      <path id="DejaVuSans-76" d="M 191 3500 
L 800 3500 
L 1894 563 
L 2988 3500 
L 3597 3500 
L 2284 0 
L 1503 0 
L 191 3500 
z
" transform="scale(0.015625)"/>
     </defs>
     <use xlink:href="#DejaVuSans-6d"/>
     <use xlink:href="#DejaVuSans-6f" x="97.412109"/>
     <use xlink:href="#DejaVuSans-64" x="158.59375"/>
     <use xlink:href="#DejaVuSans-65" x="222.070312"/>
     <use xlink:href="#DejaVuSans-6c" x="283.59375"/>
     <use xlink:href="#DejaVuSans-20" x="311.376953"/>
     <use xlink:href="#DejaVuSans-74" x="343.164062"/>
     <use xlink:href="#DejaVuSans-72" x="382.373047"/>
     <use xlink:href="#DejaVuSans-61" x="423.486328"/>
     <use xlink:href="#DejaVuSans-69" x="484.765625"/>
     <use xlink:href="#DejaVuSans-6e" x="512.548828"/>
     <use xlink:href="#DejaVuSans-20" x="575.927734"/>
     <use xlink:href="#DejaVuSans-61" x="607.714844"/>
     <use xlink:href="#DejaVuSans-6e" x="668.994141"/>
     <use xlink:href="#DejaVuSans-64" x="732.373047"/>
     <use xlink:href="#DejaVuSans-20" x="795.849609"/>
     <use xlink:href="#DejaVuSans-76" x="827.636719"/>
     <use xlink:href="#DejaVuSans-61" x="886.816406"/>
     <use xlink:href="#DejaVuSans-6c" x="948.095703"/>
     <use xlink:href="#DejaVuSans-69" x="975.878906"/>
     <use xlink:href="#DejaVuSans-64" x="1003.662109"/>
     <use xlink:href="#DejaVuSans-61" x="1067.138672"/>
     <use xlink:href="#DejaVuSans-74" x="1128.417969"/>
     <use xlink:href="#DejaVuSans-69" x="1167.626953"/>
     <use xlink:href="#DejaVuSans-6f" x="1195.410156"/>
     <use xlink:href="#DejaVuSans-6e" x="1256.591797"/>
     <use xlink:href="#DejaVuSans-20" x="1319.970703"/>
     <use xlink:href="#DejaVuSans-6c" x="1351.757812"/>
     <use xlink:href="#DejaVuSans-6f" x="1379.541016"/>
     <use xlink:href="#DejaVuSans-73" x="1440.722656"/>
     <use xlink:href="#DejaVuSans-73" x="1492.822266"/>
     <use xlink:href="#DejaVuSans-20" x="1544.921875"/>
     <use xlink:href="#DejaVuSans-6f" x="1576.708984"/>
     <use xlink:href="#DejaVuSans-76" x="1637.890625"/>
     <use xlink:href="#DejaVuSans-65" x="1697.070312"/>
     <use xlink:href="#DejaVuSans-72" x="1758.59375"/>
     <use xlink:href="#DejaVuSans-20" x="1799.707031"/>
     <use xlink:href="#DejaVuSans-74" x="1831.494141"/>
     <use xlink:href="#DejaVuSans-69" x="1870.703125"/>
     <use xlink:href="#DejaVuSans-6d" x="1898.486328"/>
     <use xlink:href="#DejaVuSans-65" x="1995.898438"/>
    </g>
   </g>
   <g id="legend_1">
    <g id="patch_7">
     <path d="M 559.765625 197.978125 
L 641 197.978125 
Q 643 197.978125 643 195.978125 
L 643 167.621875 
Q 643 165.621875 641 165.621875 
L 559.765625 165.621875 
Q 557.765625 165.621875 557.765625 167.621875 
L 557.765625 195.978125 
Q 557.765625 197.978125 559.765625 197.978125 
z
" style="fill: #ffffff; opacity: 0.8; stroke: #cccccc; stroke-linejoin: miter"/>
    </g>
    <g id="line2d_27">
     <path d="M 561.765625 173.720312 
L 571.765625 173.720312 
L 581.765625 173.720312 
" style="fill: none; stroke: #1f77b4; stroke-width: 1.5; stroke-linecap: square"/>
    </g>
    <g id="text_16">
     <!-- train -->
     <g transform="translate(589.765625 177.220312) scale(0.1 -0.1)">
      <use xlink:href="#DejaVuSans-74"/>
      <use xlink:href="#DejaVuSans-72" x="39.208984"/>
      <use xlink:href="#DejaVuSans-61" x="80.322266"/>
      <use xlink:href="#DejaVuSans-69" x="141.601562"/>
      <use xlink:href="#DejaVuSans-6e" x="169.384766"/>
     </g>
    </g>
    <g id="line2d_28">
     <path d="M 561.765625 188.398437 
L 571.765625 188.398437 
L 581.765625 188.398437 
" style="fill: none; stroke: #ff7f0e; stroke-width: 1.5; stroke-linecap: square"/>
    </g>
    <g id="text_17">
     <!-- validation -->
     <g transform="translate(589.765625 191.898437) scale(0.1 -0.1)">
      <use xlink:href="#DejaVuSans-76"/>
      <use xlink:href="#DejaVuSans-61" x="59.179688"/>
      <use xlink:href="#DejaVuSans-6c" x="120.458984"/>
      <use xlink:href="#DejaVuSans-69" x="148.242188"/>
      <use xlink:href="#DejaVuSans-64" x="176.025391"/>
      <use xlink:href="#DejaVuSans-61" x="239.501953"/>
      <use xlink:href="#DejaVuSans-74" x="300.78125"/>
      <use xlink:href="#DejaVuSans-69" x="339.990234"/>
      <use xlink:href="#DejaVuSans-6f" x="367.773438"/>
      <use xlink:href="#DejaVuSans-6e" x="428.955078"/>
     </g>
    </g>
   </g>
  </g>
 </g>
 <defs>
  <clipPath id="peb3d820adb">
   <rect x="90" y="43.2" width="558" height="277.2"/>
  </clipPath>
 </defs>
</svg>
