<?xml version="1.0" encoding="utf-8" standalone="no"?>
<!DOCTYPE svg PUBLIC "-//W3C//DTD SVG 1.1//EN"
  "http://www.w3.org/Graphics/SVG/1.1/DTD/svg11.dtd">
<svg xmlns:xlink="http://www.w3.org/1999/xlink" width="720pt" height="360pt" viewBox="0 0 720 360" xmlns="http://www.w3.org/2000/svg" version="1.1">
 <metadata>
  <rdf:RDF xmlns:dc="http://purl.org/dc/elements/1.1/" xmlns:cc="http://creativecommons.org/ns#" xmlns:rdf="http://www.w3.org/1999/02/22-rdf-syntax-ns#">
   <cc:Work>
    <dc:type rdf:resource="http://purl.org/dc/dcmitype/StillImage"/>
    <dc:date>2023-05-24T11:50:31.745968</dc:date>
    <dc:format>image/svg+xml</dc:format>
    <dc:creator>
     <cc:Agent>
      <dc:title>Matplotlib v3.7.1, https://matplotlib.org/</dc:title>
     </cc:Agent>
    </dc:creator>
   </cc:Work>
  </rdf:RDF>
 </metadata>
 <defs>
  <style type="text/css">*{stroke-linejoin: round; stroke-linecap: butt}</style>
 </defs>
 <g id="figure_1">
  <g id="patch_1">
   <path d="M 0 360 
L 720 360 
L 720 0 
L 0 0 
z
" style="fill: #ffffff"/>
  </g>
  <g id="axes_1">
   <g id="patch_2">
    <path d="M 90 320.4 
L 648 320.4 
L 648 43.2 
L 90 43.2 
z
" style="fill: #ffffff"/>
   </g>
   <g id="matplotlib.axis_1">
    <g id="xtick_1">
     <g id="line2d_1">
      <path d="M 115.363636 320.4 
L 115.363636 43.2 
" clip-path="url(#p637426f7d4)" style="fill: none; stroke: #b0b0b0; stroke-width: 0.8; stroke-linecap: square"/>
     </g>
     <g id="line2d_2">
      <defs>
       <path id="m335efbc093" d="M 0 0 
L 0 3.5 
" style="stroke: #000000; stroke-width: 0.8"/>
      </defs>
      <g>
       <use xlink:href="#m335efbc093" x="115.363636" y="320.4" style="stroke: #000000; stroke-width: 0.8"/>
      </g>
     </g>
     <g id="text_1">
      <!-- 0 -->
      <g transform="translate(112.182386 334.998438) scale(0.1 -0.1)">
       <defs>
        <path id="DejaVuSans-30" d="M 2034 4250 
Q 1547 4250 1301 3770 
Q 1056 3291 1056 2328 
Q 1056 1369 1301 889 
Q 1547 409 2034 409 
Q 2525 409 2770 889 
Q 3016 1369 3016 2328 
Q 3016 3291 2770 3770 
Q 2525 4250 2034 4250 
z
M 2034 4750 
Q 2819 4750 3233 4129 
Q 3647 3509 3647 2328 
Q 3647 1150 3233 529 
Q 2819 -91 2034 -91 
Q 1250 -91 836 529 
Q 422 1150 422 2328 
Q 422 3509 836 4129 
Q 1250 4750 2034 4750 
z
" transform="scale(0.015625)"/>
       </defs>
       <use xlink:href="#DejaVuSans-30"/>
      </g>
     </g>
    </g>
    <g id="xtick_2">
     <g id="line2d_3">
      <path d="M 217.021498 320.4 
L 217.021498 43.2 
" clip-path="url(#p637426f7d4)" style="fill: none; stroke: #b0b0b0; stroke-width: 0.8; stroke-linecap: square"/>
     </g>
     <g id="line2d_4">
      <g>
       <use xlink:href="#m335efbc093" x="217.021498" y="320.4" style="stroke: #000000; stroke-width: 0.8"/>
      </g>
     </g>
     <g id="text_2">
      <!-- 100 -->
      <g transform="translate(207.477748 334.998438) scale(0.1 -0.1)">
       <defs>
        <path id="DejaVuSans-31" d="M 794 531 
L 1825 531 
L 1825 4091 
L 703 3866 
L 703 4441 
L 1819 4666 
L 2450 4666 
L 2450 531 
L 3481 531 
L 3481 0 
L 794 0 
L 794 531 
z
" transform="scale(0.015625)"/>
       </defs>
       <use xlink:href="#DejaVuSans-31"/>
       <use xlink:href="#DejaVuSans-30" x="63.623047"/>
       <use xlink:href="#DejaVuSans-30" x="127.246094"/>
      </g>
     </g>
    </g>
    <g id="xtick_3">
     <g id="line2d_5">
      <path d="M 318.679359 320.4 
L 318.679359 43.2 
" clip-path="url(#p637426f7d4)" style="fill: none; stroke: #b0b0b0; stroke-width: 0.8; stroke-linecap: square"/>
     </g>
     <g id="line2d_6">
      <g>
       <use xlink:href="#m335efbc093" x="318.679359" y="320.4" style="stroke: #000000; stroke-width: 0.8"/>
      </g>
     </g>
     <g id="text_3">
      <!-- 200 -->
      <g transform="translate(309.135609 334.998438) scale(0.1 -0.1)">
       <defs>
        <path id="DejaVuSans-32" d="M 1228 531 
L 3431 531 
L 3431 0 
L 469 0 
L 469 531 
Q 828 903 1448 1529 
Q 2069 2156 2228 2338 
Q 2531 2678 2651 2914 
Q 2772 3150 2772 3378 
Q 2772 3750 2511 3984 
Q 2250 4219 1831 4219 
Q 1534 4219 1204 4116 
Q 875 4013 500 3803 
L 500 4441 
Q 881 4594 1212 4672 
Q 1544 4750 1819 4750 
Q 2544 4750 2975 4387 
Q 3406 4025 3406 3419 
Q 3406 3131 3298 2873 
Q 3191 2616 2906 2266 
Q 2828 2175 2409 1742 
Q 1991 1309 1228 531 
z
" transform="scale(0.015625)"/>
       </defs>
       <use xlink:href="#DejaVuSans-32"/>
       <use xlink:href="#DejaVuSans-30" x="63.623047"/>
       <use xlink:href="#DejaVuSans-30" x="127.246094"/>
      </g>
     </g>
    </g>
    <g id="xtick_4">
     <g id="line2d_7">
      <path d="M 420.33722 320.4 
L 420.33722 43.2 
" clip-path="url(#p637426f7d4)" style="fill: none; stroke: #b0b0b0; stroke-width: 0.8; stroke-linecap: square"/>
     </g>
     <g id="line2d_8">
      <g>
       <use xlink:href="#m335efbc093" x="420.33722" y="320.4" style="stroke: #000000; stroke-width: 0.8"/>
      </g>
     </g>
     <g id="text_4">
      <!-- 300 -->
      <g transform="translate(410.79347 334.998438) scale(0.1 -0.1)">
       <defs>
        <path id="DejaVuSans-33" d="M 2597 2516 
Q 3050 2419 3304 2112 
Q 3559 1806 3559 1356 
Q 3559 666 3084 287 
Q 2609 -91 1734 -91 
Q 1441 -91 1130 -33 
Q 819 25 488 141 
L 488 750 
Q 750 597 1062 519 
Q 1375 441 1716 441 
Q 2309 441 2620 675 
Q 2931 909 2931 1356 
Q 2931 1769 2642 2001 
Q 2353 2234 1838 2234 
L 1294 2234 
L 1294 2753 
L 1863 2753 
Q 2328 2753 2575 2939 
Q 2822 3125 2822 3475 
Q 2822 3834 2567 4026 
Q 2313 4219 1838 4219 
Q 1578 4219 1281 4162 
Q 984 4106 628 3988 
L 628 4550 
Q 988 4650 1302 4700 
Q 1616 4750 1894 4750 
Q 2613 4750 3031 4423 
Q 3450 4097 3450 3541 
Q 3450 3153 3228 2886 
Q 3006 2619 2597 2516 
z
" transform="scale(0.015625)"/>
       </defs>
       <use xlink:href="#DejaVuSans-33"/>
       <use xlink:href="#DejaVuSans-30" x="63.623047"/>
       <use xlink:href="#DejaVuSans-30" x="127.246094"/>
      </g>
     </g>
    </g>
    <g id="xtick_5">
     <g id="line2d_9">
      <path d="M 521.995081 320.4 
L 521.995081 43.2 
" clip-path="url(#p637426f7d4)" style="fill: none; stroke: #b0b0b0; stroke-width: 0.8; stroke-linecap: square"/>
     </g>
     <g id="line2d_10">
      <g>
       <use xlink:href="#m335efbc093" x="521.995081" y="320.4" style="stroke: #000000; stroke-width: 0.8"/>
      </g>
     </g>
     <g id="text_5">
      <!-- 400 -->
      <g transform="translate(512.451331 334.998438) scale(0.1 -0.1)">
       <defs>
        <path id="DejaVuSans-34" d="M 2419 4116 
L 825 1625 
L 2419 1625 
L 2419 4116 
z
M 2253 4666 
L 3047 4666 
L 3047 1625 
L 3713 1625 
L 3713 1100 
L 3047 1100 
L 3047 0 
L 2419 0 
L 2419 1100 
L 313 1100 
L 313 1709 
L 2253 4666 
z
" transform="scale(0.015625)"/>
       </defs>
       <use xlink:href="#DejaVuSans-34"/>
       <use xlink:href="#DejaVuSans-30" x="63.623047"/>
       <use xlink:href="#DejaVuSans-30" x="127.246094"/>
      </g>
     </g>
    </g>
    <g id="xtick_6">
     <g id="line2d_11">
      <path d="M 623.652942 320.4 
L 623.652942 43.2 
" clip-path="url(#p637426f7d4)" style="fill: none; stroke: #b0b0b0; stroke-width: 0.8; stroke-linecap: square"/>
     </g>
     <g id="line2d_12">
      <g>
       <use xlink:href="#m335efbc093" x="623.652942" y="320.4" style="stroke: #000000; stroke-width: 0.8"/>
      </g>
     </g>
     <g id="text_6">
      <!-- 500 -->
      <g transform="translate(614.109192 334.998438) scale(0.1 -0.1)">
       <defs>
        <path id="DejaVuSans-35" d="M 691 4666 
L 3169 4666 
L 3169 4134 
L 1269 4134 
L 1269 2991 
Q 1406 3038 1543 3061 
Q 1681 3084 1819 3084 
Q 2600 3084 3056 2656 
Q 3513 2228 3513 1497 
Q 3513 744 3044 326 
Q 2575 -91 1722 -91 
Q 1428 -91 1123 -41 
Q 819 9 494 109 
L 494 744 
Q 775 591 1075 516 
Q 1375 441 1709 441 
Q 2250 441 2565 725 
Q 2881 1009 2881 1497 
Q 2881 1984 2565 2268 
Q 2250 2553 1709 2553 
Q 1456 2553 1204 2497 
Q 953 2441 691 2322 
L 691 4666 
z
" transform="scale(0.015625)"/>
       </defs>
       <use xlink:href="#DejaVuSans-35"/>
       <use xlink:href="#DejaVuSans-30" x="63.623047"/>
       <use xlink:href="#DejaVuSans-30" x="127.246094"/>
      </g>
     </g>
    </g>
    <g id="text_7">
     <!-- epoch -->
     <g transform="translate(353.771875 348.676562) scale(0.1 -0.1)">
      <defs>
       <path id="DejaVuSans-65" d="M 3597 1894 
L 3597 1613 
L 953 1613 
Q 991 1019 1311 708 
Q 1631 397 2203 397 
Q 2534 397 2845 478 
Q 3156 559 3463 722 
L 3463 178 
Q 3153 47 2828 -22 
Q 2503 -91 2169 -91 
Q 1331 -91 842 396 
Q 353 884 353 1716 
Q 353 2575 817 3079 
Q 1281 3584 2069 3584 
Q 2775 3584 3186 3129 
Q 3597 2675 3597 1894 
z
M 3022 2063 
Q 3016 2534 2758 2815 
Q 2500 3097 2075 3097 
Q 1594 3097 1305 2825 
Q 1016 2553 972 2059 
L 3022 2063 
z
" transform="scale(0.015625)"/>
       <path id="DejaVuSans-70" d="M 1159 525 
L 1159 -1331 
L 581 -1331 
L 581 3500 
L 1159 3500 
L 1159 2969 
Q 1341 3281 1617 3432 
Q 1894 3584 2278 3584 
Q 2916 3584 3314 3078 
Q 3713 2572 3713 1747 
Q 3713 922 3314 415 
Q 2916 -91 2278 -91 
Q 1894 -91 1617 61 
Q 1341 213 1159 525 
z
M 3116 1747 
Q 3116 2381 2855 2742 
Q 2594 3103 2138 3103 
Q 1681 3103 1420 2742 
Q 1159 2381 1159 1747 
Q 1159 1113 1420 752 
Q 1681 391 2138 391 
Q 2594 391 2855 752 
Q 3116 1113 3116 1747 
z
" transform="scale(0.015625)"/>
       <path id="DejaVuSans-6f" d="M 1959 3097 
Q 1497 3097 1228 2736 
Q 959 2375 959 1747 
Q 959 1119 1226 758 
Q 1494 397 1959 397 
Q 2419 397 2687 759 
Q 2956 1122 2956 1747 
Q 2956 2369 2687 2733 
Q 2419 3097 1959 3097 
z
M 1959 3584 
Q 2709 3584 3137 3096 
Q 3566 2609 3566 1747 
Q 3566 888 3137 398 
Q 2709 -91 1959 -91 
Q 1206 -91 779 398 
Q 353 888 353 1747 
Q 353 2609 779 3096 
Q 1206 3584 1959 3584 
z
" transform="scale(0.015625)"/>
       <path id="DejaVuSans-63" d="M 3122 3366 
L 3122 2828 
Q 2878 2963 2633 3030 
Q 2388 3097 2138 3097 
Q 1578 3097 1268 2742 
Q 959 2388 959 1747 
Q 959 1106 1268 751 
Q 1578 397 2138 397 
Q 2388 397 2633 464 
Q 2878 531 3122 666 
L 3122 134 
Q 2881 22 2623 -34 
Q 2366 -91 2075 -91 
Q 1284 -91 818 406 
Q 353 903 353 1747 
Q 353 2603 823 3093 
Q 1294 3584 2113 3584 
Q 2378 3584 2631 3529 
Q 2884 3475 3122 3366 
z
" transform="scale(0.015625)"/>
       <path id="DejaVuSans-68" d="M 3513 2113 
L 3513 0 
L 2938 0 
L 2938 2094 
Q 2938 2591 2744 2837 
Q 2550 3084 2163 3084 
Q 1697 3084 1428 2787 
Q 1159 2491 1159 1978 
L 1159 0 
L 581 0 
L 581 4863 
L 1159 4863 
L 1159 2956 
Q 1366 3272 1645 3428 
Q 1925 3584 2291 3584 
Q 2894 3584 3203 3211 
Q 3513 2838 3513 2113 
z
" transform="scale(0.015625)"/>
      </defs>
      <use xlink:href="#DejaVuSans-65"/>
      <use xlink:href="#DejaVuSans-70" x="61.523438"/>
      <use xlink:href="#DejaVuSans-6f" x="125"/>
      <use xlink:href="#DejaVuSans-63" x="186.181641"/>
      <use xlink:href="#DejaVuSans-68" x="241.162109"/>
     </g>
    </g>
   </g>
   <g id="matplotlib.axis_2">
    <g id="ytick_1">
     <g id="line2d_13">
      <path d="M 90 296.463919 
L 648 296.463919 
" clip-path="url(#p637426f7d4)" style="fill: none; stroke: #b0b0b0; stroke-width: 0.8; stroke-linecap: square"/>
     </g>
     <g id="line2d_14">
      <defs>
       <path id="m924703cf97" d="M 0 0 
L -3.5 0 
" style="stroke: #000000; stroke-width: 0.8"/>
      </defs>
      <g>
       <use xlink:href="#m924703cf97" x="90" y="296.463919" style="stroke: #000000; stroke-width: 0.8"/>
      </g>
     </g>
     <g id="text_8">
      <!-- 1.3800 -->
      <g transform="translate(48.009375 300.263138) scale(0.1 -0.1)">
       <defs>
        <path id="DejaVuSans-2e" d="M 684 794 
L 1344 794 
L 1344 0 
L 684 0 
L 684 794 
z
" transform="scale(0.015625)"/>
        <path id="DejaVuSans-38" d="M 2034 2216 
Q 1584 2216 1326 1975 
Q 1069 1734 1069 1313 
Q 1069 891 1326 650 
Q 1584 409 2034 409 
Q 2484 409 2743 651 
Q 3003 894 3003 1313 
Q 3003 1734 2745 1975 
Q 2488 2216 2034 2216 
z
M 1403 2484 
Q 997 2584 770 2862 
Q 544 3141 544 3541 
Q 544 4100 942 4425 
Q 1341 4750 2034 4750 
Q 2731 4750 3128 4425 
Q 3525 4100 3525 3541 
Q 3525 3141 3298 2862 
Q 3072 2584 2669 2484 
Q 3125 2378 3379 2068 
Q 3634 1759 3634 1313 
Q 3634 634 3220 271 
Q 2806 -91 2034 -91 
Q 1263 -91 848 271 
Q 434 634 434 1313 
Q 434 1759 690 2068 
Q 947 2378 1403 2484 
z
M 1172 3481 
Q 1172 3119 1398 2916 
Q 1625 2713 2034 2713 
Q 2441 2713 2670 2916 
Q 2900 3119 2900 3481 
Q 2900 3844 2670 4047 
Q 2441 4250 2034 4250 
Q 1625 4250 1398 4047 
Q 1172 3844 1172 3481 
z
" transform="scale(0.015625)"/>
       </defs>
       <use xlink:href="#DejaVuSans-31"/>
       <use xlink:href="#DejaVuSans-2e" x="63.623047"/>
       <use xlink:href="#DejaVuSans-33" x="95.410156"/>
       <use xlink:href="#DejaVuSans-38" x="159.033203"/>
       <use xlink:href="#DejaVuSans-30" x="222.65625"/>
       <use xlink:href="#DejaVuSans-30" x="286.279297"/>
      </g>
     </g>
    </g>
    <g id="ytick_2">
     <g id="line2d_15">
      <path d="M 90 264.484692 
L 648 264.484692 
" clip-path="url(#p637426f7d4)" style="fill: none; stroke: #b0b0b0; stroke-width: 0.8; stroke-linecap: square"/>
     </g>
     <g id="line2d_16">
      <g>
       <use xlink:href="#m924703cf97" x="90" y="264.484692" style="stroke: #000000; stroke-width: 0.8"/>
      </g>
     </g>
     <g id="text_9">
      <!-- 1.3825 -->
      <g transform="translate(48.009375 268.283911) scale(0.1 -0.1)">
       <use xlink:href="#DejaVuSans-31"/>
       <use xlink:href="#DejaVuSans-2e" x="63.623047"/>
       <use xlink:href="#DejaVuSans-33" x="95.410156"/>
       <use xlink:href="#DejaVuSans-38" x="159.033203"/>
       <use xlink:href="#DejaVuSans-32" x="222.65625"/>
       <use xlink:href="#DejaVuSans-35" x="286.279297"/>
      </g>
     </g>
    </g>
    <g id="ytick_3">
     <g id="line2d_17">
      <path d="M 90 232.505466 
L 648 232.505466 
" clip-path="url(#p637426f7d4)" style="fill: none; stroke: #b0b0b0; stroke-width: 0.8; stroke-linecap: square"/>
     </g>
     <g id="line2d_18">
      <g>
       <use xlink:href="#m924703cf97" x="90" y="232.505466" style="stroke: #000000; stroke-width: 0.8"/>
      </g>
     </g>
     <g id="text_10">
      <!-- 1.3850 -->
      <g transform="translate(48.009375 236.304684) scale(0.1 -0.1)">
       <use xlink:href="#DejaVuSans-31"/>
       <use xlink:href="#DejaVuSans-2e" x="63.623047"/>
       <use xlink:href="#DejaVuSans-33" x="95.410156"/>
       <use xlink:href="#DejaVuSans-38" x="159.033203"/>
       <use xlink:href="#DejaVuSans-35" x="222.65625"/>
       <use xlink:href="#DejaVuSans-30" x="286.279297"/>
      </g>
     </g>
    </g>
    <g id="ytick_4">
     <g id="line2d_19">
      <path d="M 90 200.526239 
L 648 200.526239 
" clip-path="url(#p637426f7d4)" style="fill: none; stroke: #b0b0b0; stroke-width: 0.8; stroke-linecap: square"/>
     </g>
     <g id="line2d_20">
      <g>
       <use xlink:href="#m924703cf97" x="90" y="200.526239" style="stroke: #000000; stroke-width: 0.8"/>
      </g>
     </g>
     <g id="text_11">
      <!-- 1.3875 -->
      <g transform="translate(48.009375 204.325458) scale(0.1 -0.1)">
       <defs>
        <path id="DejaVuSans-37" d="M 525 4666 
L 3525 4666 
L 3525 4397 
L 1831 0 
L 1172 0 
L 2766 4134 
L 525 4134 
L 525 4666 
z
" transform="scale(0.015625)"/>
       </defs>
       <use xlink:href="#DejaVuSans-31"/>
       <use xlink:href="#DejaVuSans-2e" x="63.623047"/>
       <use xlink:href="#DejaVuSans-33" x="95.410156"/>
       <use xlink:href="#DejaVuSans-38" x="159.033203"/>
       <use xlink:href="#DejaVuSans-37" x="222.65625"/>
       <use xlink:href="#DejaVuSans-35" x="286.279297"/>
      </g>
     </g>
    </g>
    <g id="ytick_5">
     <g id="line2d_21">
      <path d="M 90 168.547012 
L 648 168.547012 
" clip-path="url(#p637426f7d4)" style="fill: none; stroke: #b0b0b0; stroke-width: 0.8; stroke-linecap: square"/>
     </g>
     <g id="line2d_22">
      <g>
       <use xlink:href="#m924703cf97" x="90" y="168.547012" style="stroke: #000000; stroke-width: 0.8"/>
      </g>
     </g>
     <g id="text_12">
      <!-- 1.3900 -->
      <g transform="translate(48.009375 172.346231) scale(0.1 -0.1)">
       <defs>
        <path id="DejaVuSans-39" d="M 703 97 
L 703 672 
Q 941 559 1184 500 
Q 1428 441 1663 441 
Q 2288 441 2617 861 
Q 2947 1281 2994 2138 
Q 2813 1869 2534 1725 
Q 2256 1581 1919 1581 
Q 1219 1581 811 2004 
Q 403 2428 403 3163 
Q 403 3881 828 4315 
Q 1253 4750 1959 4750 
Q 2769 4750 3195 4129 
Q 3622 3509 3622 2328 
Q 3622 1225 3098 567 
Q 2575 -91 1691 -91 
Q 1453 -91 1209 -44 
Q 966 3 703 97 
z
M 1959 2075 
Q 2384 2075 2632 2365 
Q 2881 2656 2881 3163 
Q 2881 3666 2632 3958 
Q 2384 4250 1959 4250 
Q 1534 4250 1286 3958 
Q 1038 3666 1038 3163 
Q 1038 2656 1286 2365 
Q 1534 2075 1959 2075 
z
" transform="scale(0.015625)"/>
       </defs>
       <use xlink:href="#DejaVuSans-31"/>
       <use xlink:href="#DejaVuSans-2e" x="63.623047"/>
       <use xlink:href="#DejaVuSans-33" x="95.410156"/>
       <use xlink:href="#DejaVuSans-39" x="159.033203"/>
       <use xlink:href="#DejaVuSans-30" x="222.65625"/>
       <use xlink:href="#DejaVuSans-30" x="286.279297"/>
      </g>
     </g>
    </g>
    <g id="ytick_6">
     <g id="line2d_23">
      <path d="M 90 136.567786 
L 648 136.567786 
" clip-path="url(#p637426f7d4)" style="fill: none; stroke: #b0b0b0; stroke-width: 0.8; stroke-linecap: square"/>
     </g>
     <g id="line2d_24">
      <g>
       <use xlink:href="#m924703cf97" x="90" y="136.567786" style="stroke: #000000; stroke-width: 0.8"/>
      </g>
     </g>
     <g id="text_13">
      <!-- 1.3925 -->
      <g transform="translate(48.009375 140.367004) scale(0.1 -0.1)">
       <use xlink:href="#DejaVuSans-31"/>
       <use xlink:href="#DejaVuSans-2e" x="63.623047"/>
       <use xlink:href="#DejaVuSans-33" x="95.410156"/>
       <use xlink:href="#DejaVuSans-39" x="159.033203"/>
       <use xlink:href="#DejaVuSans-32" x="222.65625"/>
       <use xlink:href="#DejaVuSans-35" x="286.279297"/>
      </g>
     </g>
    </g>
    <g id="ytick_7">
     <g id="line2d_25">
      <path d="M 90 104.588559 
L 648 104.588559 
" clip-path="url(#p637426f7d4)" style="fill: none; stroke: #b0b0b0; stroke-width: 0.8; stroke-linecap: square"/>
     </g>
     <g id="line2d_26">
      <g>
       <use xlink:href="#m924703cf97" x="90" y="104.588559" style="stroke: #000000; stroke-width: 0.8"/>
      </g>
     </g>
     <g id="text_14">
      <!-- 1.3950 -->
      <g transform="translate(48.009375 108.387778) scale(0.1 -0.1)">
       <use xlink:href="#DejaVuSans-31"/>
       <use xlink:href="#DejaVuSans-2e" x="63.623047"/>
       <use xlink:href="#DejaVuSans-33" x="95.410156"/>
       <use xlink:href="#DejaVuSans-39" x="159.033203"/>
       <use xlink:href="#DejaVuSans-35" x="222.65625"/>
       <use xlink:href="#DejaVuSans-30" x="286.279297"/>
      </g>
     </g>
    </g>
    <g id="ytick_8">
     <g id="line2d_27">
      <path d="M 90 72.609332 
L 648 72.609332 
" clip-path="url(#p637426f7d4)" style="fill: none; stroke: #b0b0b0; stroke-width: 0.8; stroke-linecap: square"/>
     </g>
     <g id="line2d_28">
      <g>
       <use xlink:href="#m924703cf97" x="90" y="72.609332" style="stroke: #000000; stroke-width: 0.8"/>
      </g>
     </g>
     <g id="text_15">
      <!-- 1.3975 -->
      <g transform="translate(48.009375 76.408551) scale(0.1 -0.1)">
       <use xlink:href="#DejaVuSans-31"/>
       <use xlink:href="#DejaVuSans-2e" x="63.623047"/>
       <use xlink:href="#DejaVuSans-33" x="95.410156"/>
       <use xlink:href="#DejaVuSans-39" x="159.033203"/>
       <use xlink:href="#DejaVuSans-37" x="222.65625"/>
       <use xlink:href="#DejaVuSans-35" x="286.279297"/>
      </g>
     </g>
    </g>
    <g id="text_16">
     <!-- loss -->
     <g transform="translate(41.929688 191.457812) rotate(-90) scale(0.1 -0.1)">
      <defs>
       <path id="DejaVuSans-6c" d="M 603 4863 
L 1178 4863 
L 1178 0 
L 603 0 
L 603 4863 
z
" transform="scale(0.015625)"/>
       <path id="DejaVuSans-73" d="M 2834 3397 
L 2834 2853 
Q 2591 2978 2328 3040 
Q 2066 3103 1784 3103 
Q 1356 3103 1142 2972 
Q 928 2841 928 2578 
Q 928 2378 1081 2264 
Q 1234 2150 1697 2047 
L 1894 2003 
Q 2506 1872 2764 1633 
Q 3022 1394 3022 966 
Q 3022 478 2636 193 
Q 2250 -91 1575 -91 
Q 1294 -91 989 -36 
Q 684 19 347 128 
L 347 722 
Q 666 556 975 473 
Q 1284 391 1588 391 
Q 1994 391 2212 530 
Q 2431 669 2431 922 
Q 2431 1156 2273 1281 
Q 2116 1406 1581 1522 
L 1381 1569 
Q 847 1681 609 1914 
Q 372 2147 372 2553 
Q 372 3047 722 3315 
Q 1072 3584 1716 3584 
Q 2034 3584 2315 3537 
Q 2597 3491 2834 3397 
z
" transform="scale(0.015625)"/>
      </defs>
      <use xlink:href="#DejaVuSans-6c"/>
      <use xlink:href="#DejaVuSans-6f" x="27.783203"/>
      <use xlink:href="#DejaVuSans-73" x="88.964844"/>
      <use xlink:href="#DejaVuSans-73" x="141.064453"/>
     </g>
    </g>
   </g>
   <g id="line2d_29">
    <path d="M 115.363636 219.278706 
L 116.380215 167.12295 
L 117.396794 240.064459 
L 118.413372 231.979501 
L 119.429951 160.799238 
L 120.446529 233.676702 
L 121.463108 210.631064 
L 122.479687 171.362139 
L 123.496265 154.990938 
L 124.512844 214.255724 
L 125.529422 134.795316 
L 126.546001 93.919159 
L 127.56258 192.042675 
L 128.579158 211.265418 
L 129.595737 178.512341 
L 130.612316 200.819932 
L 131.628894 182.827775 
L 132.645473 217.698922 
L 133.662051 211.09158 
L 134.67863 178.751748 
L 135.695209 236.179044 
L 136.711787 178.509291 
L 137.728366 214.057488 
L 138.744944 191.188738 
L 139.761523 182.788128 
L 140.778102 238.879621 
L 141.79468 230.669622 
L 142.811259 147.604379 
L 143.827837 242.132208 
L 144.844416 244.297549 
L 145.860995 218.482714 
L 146.877573 181.458425 
L 147.894152 179.622459 
L 148.910731 200.964797 
L 149.927309 164.840192 
L 150.943888 206.242435 
L 151.960466 207.271735 
L 152.977045 179.158893 
L 153.993624 218.658076 
L 155.010202 271.522906 
L 156.026781 186.072737 
L 157.043359 55.8 
L 158.059938 189.002048 
L 159.076517 198.274894 
L 160.093095 203.605903 
L 161.109674 178.739549 
L 162.126253 240.692713 
L 163.142831 109.75665 
L 164.15941 156.727786 
L 165.175988 114.421283 
L 166.192567 273.281102 
L 167.209146 215.893454 
L 168.225724 209.170221 
L 169.242303 191.556236 
L 170.258881 111.789326 
L 171.27546 127.669513 
L 172.292039 172.481407 
L 173.308617 224.367258 
L 174.325196 251.011633 
L 175.341774 169.553622 
L 176.358353 170.122405 
L 177.374932 193.901514 
L 178.39151 160.593378 
L 179.408089 187.073064 
L 180.424668 178.111295 
L 181.441246 157.192877 
L 182.457825 158.2359 
L 183.474403 120.458316 
L 184.490982 167.269339 
L 185.507561 163.185688 
L 186.524139 178.631282 
L 187.540718 156.836053 
L 188.557296 201.817209 
L 189.573875 186.124583 
L 190.590454 222.561791 
L 191.607032 231.535759 
L 192.623611 148.321076 
L 193.640189 238.528897 
L 194.656768 156.662215 
L 195.673347 214.976996 
L 196.689925 233.737697 
L 197.706504 196.501449 
L 198.723083 105.194184 
L 199.739661 224.827775 
L 200.75624 103.289598 
L 201.772818 219.385448 
L 202.789397 209.45995 
L 203.805976 190.482714 
L 204.822554 185.5497 
L 205.839133 214.434136 
L 206.855711 151.729202 
L 207.87229 208.644135 
L 208.888869 200.760462 
L 209.905447 238.599041 
L 210.922026 197.809803 
L 211.938604 219.582159 
L 212.955183 171.049537 
L 213.971762 130.658294 
L 214.98834 208.438275 
L 216.004919 198.524975 
L 217.021498 195.025357 
L 218.038076 196.434354 
L 219.054655 243.815685 
L 220.071233 197.201372 
L 221.087812 181.267814 
L 223.120969 124.305609 
L 224.137548 111.545344 
L 225.154126 197.146476 
L 226.170705 199.470406 
L 227.187284 150.838667 
L 228.203862 167.821348 
L 229.220441 197.785405 
L 230.237019 223.208343 
L 231.253598 136.285132 
L 232.270177 178.547413 
L 233.286755 169.814378 
L 234.303334 155.260843 
L 235.319913 168.733232 
L 236.336491 123.383052 
L 237.35307 206.704477 
L 238.369648 140.312362 
L 239.386227 214.885503 
L 240.402806 188.718418 
L 241.419384 135.650779 
L 242.435963 139.59719 
L 243.452541 200.934299 
L 244.46912 175.04322 
L 245.485699 100.19255 
L 246.502277 183.57497 
L 247.518856 145.455811 
L 248.535435 226.155953 
L 249.552013 137.177192 
L 250.568592 234.58706 
L 251.58517 197.190698 
L 252.601749 185.749461 
L 253.618328 254.840627 
L 254.634906 241.148655 
L 255.651485 180.898791 
L 256.668063 239.721359 
L 257.684642 166.473347 
L 258.701221 112.181222 
L 259.717799 191.783444 
L 260.734378 220.78987 
L 261.750956 225.947043 
L 262.767535 188.555255 
L 263.784114 215.661671 
L 264.800692 196.426729 
L 265.817271 159.147783 
L 266.83385 247.778869 
L 267.850428 163.214661 
L 268.867007 148.017623 
L 269.883585 179.867966 
L 270.900164 198.421283 
L 271.916743 210.567019 
L 272.933321 201.413114 
L 273.9499 216.466812 
L 274.966478 168.570069 
L 275.983057 165.091798 
L 276.999636 188.90598 
L 278.016214 177.743797 
L 279.032793 172.484457 
L 280.049371 133.808714 
L 281.06595 118.196907 
L 282.082529 135.178063 
L 283.099107 159.866006 
L 284.115686 190.523886 
L 285.132265 225.09158 
L 286.148843 184.454831 
L 287.165422 212.293192 
L 288.182 217.694347 
L 289.198579 205.184163 
L 290.215158 190.3348 
L 291.231736 95.573663 
L 292.248315 102.672018 
L 293.264893 179.393726 
L 294.281472 156.364862 
L 295.298051 149.42357 
L 296.314629 148.493389 
L 297.331208 168.425204 
L 298.347786 185.879076 
L 299.364365 153.339484 
L 300.380944 160.163359 
L 301.397522 152.581614 
L 302.414101 167.499597 
L 303.43068 110.965886 
L 304.447258 152.346781 
L 305.463837 182.567019 
L 306.480415 125.649036 
L 307.496994 218.927982 
L 308.513573 157.784533 
L 309.530151 150.144843 
L 310.54673 243.53358 
L 311.563308 169.277617 
L 312.579887 232.119791 
L 313.596466 156.201699 
L 314.613044 225.221196 
L 315.629623 196.919268 
L 316.646201 260.684 
L 317.66278 146.780939 
L 318.679359 210.847598 
L 319.695937 154.946716 
L 320.712516 162.189936 
L 321.729095 218.665701 
L 322.745673 239.10073 
L 323.762252 159.583902 
L 324.77883 177.353426 
L 325.795409 263.424224 
L 326.811988 200.112384 
L 327.828566 145.094412 
L 328.845145 228.10781 
L 330.878302 124.859144 
L 331.894881 152.377279 
L 332.911459 187.161507 
L 333.928038 201.288073 
L 334.944617 196.42063 
L 335.961195 181.914367 
L 336.977774 233.266507 
L 337.994352 246.992027 
L 339.010931 243.106611 
L 341.044088 162.494913 
L 342.060667 93.551661 
L 343.077245 209.72833 
L 344.093824 153.681059 
L 346.126981 99.817427 
L 347.14356 170.897048 
L 348.160138 173.930051 
L 349.176717 171.55275 
L 350.193296 175.17741 
L 351.209874 149.925259 
L 352.226453 260.392746 
L 353.243032 207.736826 
L 354.25961 173.803485 
L 355.276189 174.851084 
L 356.292767 157.450583 
L 357.309346 167.004008 
L 358.325925 191.332077 
L 359.342503 113.184599 
L 360.359082 172.981571 
L 361.37566 213.628995 
L 362.392239 203.255179 
L 363.408818 155.873848 
L 364.425396 202.347871 
L 365.441975 143.372813 
L 366.458553 174.489685 
L 367.475132 200.533253 
L 368.491711 138.755451 
L 369.508289 87.211175 
L 370.524868 173.550354 
L 371.541447 203.027971 
L 372.558025 215.779087 
L 373.574604 205.740747 
L 374.591182 216.201481 
L 375.607761 239.692386 
L 376.62434 209.899118 
L 377.640918 141.308115 
L 378.657497 213.279795 
L 379.674075 152.566365 
L 380.690654 218.693149 
L 381.707233 209.330334 
L 382.723811 201.631173 
L 383.74039 176.035922 
L 384.756968 249.288509 
L 385.773547 219.842915 
L 386.790126 150.747174 
L 387.806704 165.491319 
L 388.823283 152.882017 
L 389.839862 179.588912 
L 390.85644 215.60525 
L 391.873019 113.655789 
L 392.889597 172.081887 
L 393.906176 148.078619 
L 394.922755 172.923625 
L 395.939333 138.98571 
L 396.955912 215.439037 
L 397.97249 208.023505 
L 398.989069 191.261932 
L 400.005648 181.536194 
L 401.022226 148.676375 
L 402.038805 274.157913 
L 403.055383 141.117504 
L 405.088541 218.784642 
L 406.105119 150.606884 
L 407.121698 170.383161 
L 408.138277 112.8293 
L 409.154855 186.327394 
L 410.171434 196.997037 
L 411.188012 197.963817 
L 412.204591 139.914367 
L 413.22117 166.358981 
L 414.237748 158.777236 
L 415.254327 121.49829 
L 416.270905 199.253872 
L 417.287484 202.094739 
L 418.304063 189.37717 
L 419.320641 180.151596 
L 420.33722 194.291885 
L 421.353799 200.31062 
L 422.370377 240.650016 
L 423.386956 140.502974 
L 424.403534 242.874828 
L 425.420113 154.266616 
L 426.436692 167.687158 
L 427.45327 139.546869 
L 428.469849 193.901514 
L 429.486427 174.84041 
L 430.503006 185.69304 
L 431.519585 107.537937 
L 432.536163 189.502211 
L 433.552742 242.912951 
L 434.56932 165.076549 
L 435.585899 250.400152 
L 436.602478 228.540878 
L 437.619056 167.537719 
L 438.635635 283.583248 
L 439.652214 133.705021 
L 440.668792 176.624529 
L 441.685371 260.644352 
L 442.701949 202.324997 
L 443.718528 221.508093 
L 444.735107 145.220978 
L 445.751685 215.463435 
L 446.768264 154.737806 
L 447.784842 155.735083 
L 448.801421 125.264764 
L 449.818 182.060756 
L 450.834578 218.953905 
L 451.851157 172.052914 
L 452.867735 178.526065 
L 453.884314 151.543165 
L 454.900893 223.691733 
L 455.917471 214.795534 
L 456.93405 145.634223 
L 457.950629 168.089729 
L 458.967207 177.124692 
L 459.983786 214.806208 
L 461.000364 186.79096 
L 462.016943 68.15922 
L 463.033522 158.816883 
L 464.0501 199.82723 
L 465.066679 224.68901 
L 466.083257 185.998018 
L 467.099836 171.601547 
L 468.116415 181.243416 
L 469.132993 251.168696 
L 470.149572 221.105522 
L 471.16615 160.701645 
L 472.182729 212.73846 
L 473.199308 172.060538 
L 474.215886 135.955756 
L 475.232465 231.512885 
L 476.249044 153.571267 
L 477.265622 185.154754 
L 478.282201 185.850103 
L 479.298779 165.178717 
L 480.315358 162.824289 
L 481.331937 192.131119 
L 482.348515 123.938111 
L 483.365094 91.92003 
L 484.381672 143.718963 
L 485.398251 160.065766 
L 486.41483 227.731162 
L 487.431408 110.477922 
L 488.447987 141.271517 
L 489.464565 157.087659 
L 490.481144 194.615162 
L 491.497723 140.556345 
L 492.514301 231.340573 
L 493.53088 174.774839 
L 494.547459 217.456464 
L 495.564037 113.486527 
L 496.580616 136.657205 
L 497.597194 198.229147 
L 498.613773 191.522688 
L 500.64693 162.116741 
L 501.663509 225.112929 
L 502.680087 173.057815 
L 503.696666 151.971659 
L 504.713245 191.536412 
L 505.729823 150.356802 
L 506.746402 157.125782 
L 507.762981 169.840301 
L 508.779559 147.241455 
L 509.796138 247.200937 
L 510.812716 190.26618 
L 511.829295 155.541423 
L 512.845874 138.862194 
L 513.862452 178.289707 
L 514.879031 174.817536 
L 515.895609 159.503082 
L 516.912188 186.193203 
L 517.928767 206.484893 
L 518.945345 151.54774 
L 519.961924 142.592071 
L 520.978502 171.426185 
L 521.995081 178.202788 
L 523.01166 162.554384 
L 524.028238 106.462891 
L 525.044817 237.261714 
L 526.061396 156.851302 
L 528.094553 226.790306 
L 529.111131 191.359525 
L 530.12771 97.491973 
L 531.144289 173.769938 
L 532.160867 203.486962 
L 533.177446 164.208888 
L 534.194024 205.667553 
L 535.210603 171.711339 
L 536.227182 113.495676 
L 538.260339 212.011088 
L 539.276917 224.582268 
L 540.293496 109.651432 
L 541.310075 180.634985 
L 542.326653 168.573118 
L 543.343232 243.80501 
L 544.359811 147.566256 
L 545.376389 109.465396 
L 546.392968 231.810239 
L 547.409546 172.952598 
L 548.426125 172.78181 
L 549.442704 213.395687 
L 550.459282 145.236227 
L 551.475861 181.821348 
L 552.492439 199.998018 
L 553.509018 155.908921 
L 554.525597 160.680296 
L 555.542175 176.555909 
L 556.558754 203.962727 
L 557.575332 245.881908 
L 558.591911 219.818517 
L 559.60849 218.250931 
L 560.625068 184.566147 
L 561.641647 182.272715 
L 562.658226 238.595992 
L 563.674804 162.953905 
L 564.691383 214.359416 
L 565.707961 175.181985 
L 566.72454 74.777236 
L 567.741119 134.424769 
L 568.757697 211.791504 
L 569.774276 91.92003 
L 570.790854 258.947152 
L 571.807433 177.194837 
L 572.824012 163.50134 
L 573.84059 216.733667 
L 574.857169 101.865352 
L 575.873747 192.619083 
L 576.890326 93.42357 
L 577.906905 198.230672 
L 578.923483 130.664394 
L 579.940062 256.9282 
L 580.956641 184.624093 
L 581.973219 153.226642 
L 582.989798 209.098551 
L 584.006376 127.115979 
L 585.022955 229.507657 
L 587.056112 108.722775 
L 588.072691 222.949112 
L 589.089269 162.661126 
L 590.105848 113.439255 
L 591.122427 200.148982 
L 592.139005 221.312907 
L 593.155584 176.029822 
L 594.172163 139.566692 
L 595.188741 176.953905 
L 596.20532 256.336543 
L 597.221898 217.587605 
L 598.238477 72.25812 
L 599.255056 195.557543 
L 600.271634 202.648274 
L 601.288213 247.106394 
L 602.304791 152.467248 
L 603.32137 187.326195 
L 604.337949 229.26825 
L 605.354527 189.58913 
L 606.371106 221.254961 
L 607.387684 185.163904 
L 608.404263 189.299401 
L 609.420842 182.818625 
L 610.43742 215.800436 
L 611.453999 160.919704 
L 612.470578 238.780503 
L 613.487156 227.385013 
L 614.503735 167.828973 
L 615.520313 171.473456 
L 616.536892 198.485328 
L 617.553471 167.211393 
L 618.570049 187.666246 
L 619.586628 169.132752 
L 620.603206 135.088095 
L 621.619785 113.1602 
L 622.636364 218.685524 
L 622.636364 218.685524 
" clip-path="url(#p637426f7d4)" style="fill: none; stroke: #1f77b4; stroke-width: 1.5; stroke-linecap: square"/>
   </g>
   <g id="line2d_30">
    <path d="M 115.363636 301.927655 
L 116.380215 301.348197 
L 117.396794 301.020346 
L 119.429951 303.202462 
L 120.446529 303.789544 
L 121.463108 303.623331 
L 122.479687 304.268359 
L 123.496265 304.465069 
L 124.512844 304.350703 
L 125.529422 305.668206 
L 126.546001 305.014029 
L 127.56258 304.942359 
L 128.579158 302.523886 
L 129.595737 304.298856 
L 130.612316 303.374774 
L 131.628894 302.94628 
L 132.645473 302.249406 
L 133.662051 302.854787 
L 134.67863 302.116741 
L 135.695209 301.72027 
L 136.711787 303.585209 
L 137.728366 304.433047 
L 138.744944 304.274458 
L 139.761523 301.907831 
L 140.778102 302.209759 
L 141.79468 301.439691 
L 142.811259 301.067618 
L 143.827837 301.014247 
L 145.860995 302.81819 
L 146.877573 301.52356 
L 147.894152 301.554057 
L 148.910731 303.386973 
L 149.927309 302.525411 
L 150.943888 302.031347 
L 151.960466 301.740094 
L 152.977045 302.212809 
L 153.993624 301.145387 
L 155.010202 301.569306 
L 156.026781 302.366823 
L 157.043359 301.910881 
L 158.059938 302.389696 
L 159.076517 301.910881 
L 160.093095 300.575079 
L 161.109674 303.475417 
L 162.126253 302.982878 
L 163.142831 302.75262 
L 164.15941 301.621152 
L 166.192567 301.114889 
L 167.209146 302.342425 
L 168.225724 302.196035 
L 169.242303 303.592833 
L 170.258881 304.001503 
L 171.27546 304.067073 
L 172.292039 303.525738 
L 173.308617 303.386973 
L 175.341774 305.032328 
L 176.358353 305.399826 
L 177.374932 304.631282 
L 178.39151 303.0149 
L 179.408089 303.842915 
L 180.424668 302.240257 
L 181.441246 302.420194 
L 182.457825 300.663522 
L 183.474403 301.837687 
L 184.490982 302.786167 
L 185.507561 302.153338 
L 187.540718 302.189936 
L 190.590454 303.393073 
L 191.607032 303.142991 
L 192.623611 302.757194 
L 193.640189 302.685524 
L 194.656768 304.176865 
L 195.673347 303.252783 
L 196.689925 303.440344 
L 197.706504 304.777671 
L 198.723083 305.485219 
L 199.739661 304.350703 
L 200.75624 304.805119 
L 201.772818 304.495567 
L 202.789397 304.794445 
L 203.805976 304.207363 
L 204.822554 302.496438 
L 205.839133 304.567237 
L 206.855711 305.530966 
L 208.888869 304.269883 
L 209.905447 302.854787 
L 210.922026 304.11587 
L 211.938604 303.881037 
L 212.955183 304.555038 
L 213.971762 304.777671 
L 214.98834 302.87766 
L 217.021498 304.896613 
L 218.038076 304.65568 
L 219.054655 306.075351 
L 220.071233 306.002157 
L 221.087812 307.8 
L 222.104391 305.666681 
L 223.120969 304.123494 
L 224.137548 303.28633 
L 225.154126 302.758719 
L 227.187284 303.536412 
L 228.203862 303.428145 
L 229.220441 303.713299 
L 230.237019 304.210413 
L 231.253598 303.225335 
L 232.270177 304.417798 
L 234.303334 301.178935 
L 235.319913 302.025248 
L 236.336491 301.215532 
L 237.35307 301.939854 
L 238.369648 303.036249 
L 239.386227 302.118266 
L 240.402806 303.396122 
L 241.419384 302.987452 
L 242.435963 303.920684 
L 243.452541 302.960004 
L 244.46912 304.259209 
L 245.485699 304.018277 
L 246.502277 301.285677 
L 247.518856 301.300926 
L 248.535435 302.313452 
L 249.552013 302.659601 
L 250.568592 302.318026 
L 251.58517 302.830389 
L 252.601749 301.996275 
L 254.634906 304.208888 
L 255.651485 304.670929 
L 257.684642 304.442196 
L 258.701221 303.867313 
L 259.717799 302.539135 
L 260.734378 303.647729 
L 261.750956 303.826141 
L 262.767535 303.228385 
L 263.784114 302.969154 
L 264.800692 303.405272 
L 265.817271 303.444919 
L 266.83385 303.752946 
L 267.850428 303.890186 
L 268.867007 303.103344 
L 270.900164 306.653284 
L 271.916743 304.013702 
L 272.933321 304.301906 
L 273.9499 304.866115 
L 274.966478 305.232088 
L 275.983057 303.249733 
L 276.999636 303.100294 
L 278.016214 304.365951 
L 279.032793 303.165864 
L 280.049371 304.86154 
L 281.06595 304.329354 
L 282.082529 301.557107 
L 283.099107 301.895632 
L 285.132265 301.72027 
L 286.148843 302.080144 
L 287.165422 304.153992 
L 288.182 303.996928 
L 289.198579 304.814269 
L 290.215158 304.774622 
L 291.231736 303.458643 
L 292.248315 302.438493 
L 293.264893 303.713299 
L 294.281472 302.716022 
L 295.298051 302.6779 
L 296.314629 302.452217 
L 297.331208 300.593378 
L 298.347786 300.382943 
L 299.364365 300.809912 
L 300.380944 301.636401 
L 301.397522 300.945627 
L 302.414101 302.676375 
L 303.43068 302.635203 
L 304.447258 303.977105 
L 305.463837 303.83834 
L 306.480415 304.013702 
L 308.513573 305.668206 
L 309.530151 304.823418 
L 310.54673 303.269557 
L 311.563308 304.091472 
L 312.579887 304.715151 
L 313.596466 305.000305 
L 314.613044 304.332404 
L 316.646201 304.954558 
L 317.66278 305.12992 
L 318.679359 304.054874 
L 320.712516 304.179915 
L 321.729095 302.020673 
L 322.745673 302.921882 
L 323.762252 305.032328 
L 324.77883 306.172944 
L 325.795409 304.423897 
L 326.811988 305.599586 
L 327.828566 305.227513 
L 328.845145 304.65263 
L 329.861723 304.985056 
L 330.878302 304.921011 
L 331.894881 305.707853 
L 332.911459 304.953033 
L 333.928038 306.525193 
L 334.944617 304.021327 
L 335.961195 303.464742 
L 336.977774 304.060974 
L 337.994352 303.891711 
L 339.010931 303.287855 
L 340.02751 305.075025 
L 341.044088 306.002157 
L 343.077245 302.866986 
L 344.093824 304.770047 
L 345.110403 304.001503 
L 346.126981 303.550136 
L 347.14356 304.263784 
L 348.160138 303.679752 
L 349.176717 302.286004 
L 351.209874 303.696525 
L 352.226453 305.155844 
L 353.243032 305.331206 
L 354.25961 304.667879 
L 355.276189 305.668206 
L 356.292767 305.178717 
L 357.309346 303.124692 
L 358.325925 304.92711 
L 359.342503 303.77582 
L 360.359082 304.677029 
L 361.37566 303.338177 
L 362.392239 304.591635 
L 363.408818 305.306808 
L 364.425396 304.440671 
L 365.441975 301.197233 
L 366.458553 303.586733 
L 367.475132 304.262259 
L 368.491711 303.940508 
L 369.508289 304.239386 
L 370.524868 306.509944 
L 371.541447 304.994205 
L 372.558025 303.957281 
L 373.574604 306.058577 
L 374.591182 304.074698 
L 375.607761 305.325106 
L 376.62434 306.384904 
L 377.640918 305.532491 
L 378.657497 305.07045 
L 379.674075 304.074698 
L 380.690654 304.198214 
L 381.707233 304.045725 
L 382.723811 304.265309 
L 383.74039 304.326304 
L 384.756968 305.190916 
L 385.773547 303.688901 
L 386.790126 304.536739 
L 387.806704 303.484566 
L 388.823283 304.728875 
L 389.839862 305.660582 
L 390.85644 305.134495 
L 391.873019 305.043002 
L 392.889597 305.595011 
L 393.906176 304.946934 
L 394.922755 305.190916 
L 395.939333 306.009781 
L 396.955912 304.442196 
L 397.97249 304.362902 
L 398.989069 303.873412 
L 400.005648 303.812417 
L 401.022226 304.423897 
L 402.038805 302.06032 
L 404.071962 304.526065 
L 405.088541 303.490666 
L 406.105119 305.027753 
L 407.121698 303.371724 
L 408.138277 304.160091 
L 409.154855 305.280884 
L 410.171434 305.161943 
L 411.188012 304.623658 
L 412.204591 305.038427 
L 413.22117 302.720597 
L 414.237748 302.258556 
L 415.254327 302.763294 
L 416.270905 302.074044 
L 417.287484 302.757194 
L 418.304063 302.225008 
L 420.33722 301.877334 
L 421.353799 302.891384 
L 422.370377 303.380874 
L 423.386956 304.099096 
L 424.403534 303.993879 
L 425.420113 304.585535 
L 426.436692 303.899336 
L 427.45327 304.574861 
L 428.469849 302.423244 
L 429.486427 303.836815 
L 430.503006 303.347326 
L 431.519585 303.603507 
L 432.536163 303.56996 
L 433.552742 303.197887 
L 434.56932 303.971005 
L 435.585899 305.258011 
L 436.602478 305.878641 
L 437.619056 305.494369 
L 438.635635 303.338177 
L 439.652214 304.855441 
L 440.668792 304.847816 
L 441.685371 304.164666 
L 442.701949 306.610587 
L 443.718528 306.599913 
L 444.735107 305.306808 
L 445.751685 305.611785 
L 446.768264 307.441651 
L 447.784842 305.546215 
L 448.801421 305.128396 
L 449.818 305.710903 
L 450.834578 304.835617 
L 451.851157 303.623331 
L 452.867735 305.994532 
L 453.884314 306.209541 
L 454.900893 304.985056 
L 455.917471 306.333057 
L 456.93405 305.331206 
L 457.950629 304.701427 
L 458.967207 305.326631 
L 459.983786 306.519094 
L 461.000364 305.372378 
L 462.016943 306.721904 
L 464.0501 305.665156 
L 465.066679 305.660582 
L 466.083257 305.814595 
L 467.099836 304.465069 
L 468.116415 305.082649 
L 469.132993 306.23394 
L 470.149572 306.375754 
L 471.16615 307.549918 
L 472.182729 305.375428 
L 473.199308 305.375428 
L 474.215886 305.863392 
L 475.232465 303.996928 
L 476.249044 304.204313 
L 477.265622 302.859362 
L 478.282201 302.391221 
L 479.298779 302.234157 
L 480.315358 302.435443 
L 481.331937 302.493389 
L 482.348515 303.615706 
L 483.365094 302.696199 
L 484.381672 303.562335 
L 485.398251 304.196689 
L 486.41483 303.176539 
L 487.431408 305.430323 
L 488.447987 305.062825 
L 489.464565 304.027426 
L 490.481144 303.196362 
L 491.497723 303.777345 
L 492.514301 302.947805 
L 493.53088 301.825487 
L 495.564037 302.465941 
L 497.597194 304.917961 
L 498.613773 302.712972 
L 499.630352 303.676702 
L 500.64693 303.624856 
L 501.663509 304.103671 
L 502.680087 303.76972 
L 503.696666 303.318353 
L 504.713245 304.481843 
L 505.729823 305.180242 
L 506.746402 302.429343 
L 507.762981 303.957281 
L 508.779559 303.887136 
L 509.796138 302.208234 
L 511.829295 304.599259 
L 512.845874 305.094848 
L 513.862452 303.117068 
L 514.879031 304.526065 
L 515.895609 304.204313 
L 516.912188 305.014029 
L 517.928767 305.396776 
L 518.945345 307.010108 
L 519.961924 304.103671 
L 520.978502 305.788672 
L 521.995081 304.555038 
L 523.01166 301.695872 
L 524.028238 303.409846 
L 525.044817 302.536085 
L 526.061396 303.733123 
L 527.077974 302.06032 
L 528.094553 302.81819 
L 529.111131 304.433047 
L 530.12771 302.786167 
L 531.144289 301.727895 
L 532.160867 303.385448 
L 533.177446 303.365625 
L 534.194024 303.127742 
L 535.210603 304.884413 
L 536.227182 304.204313 
L 537.24376 303.670602 
L 538.260339 302.895959 
L 539.276917 304.481843 
L 540.293496 303.652304 
L 541.310075 305.043002 
L 542.326653 304.672454 
L 543.343232 304.019802 
L 544.359811 304.082322 
L 545.376389 304.365951 
L 546.392968 303.287855 
L 547.409546 302.990502 
L 548.426125 302.33785 
L 549.442704 300.806862 
L 550.459282 303.15214 
L 551.475861 302.915783 
L 552.492439 302.838013 
L 553.509018 304.738024 
L 554.525597 303.066747 
L 555.542175 302.853262 
L 556.558754 305.302233 
L 557.575332 304.914911 
L 558.591911 304.033526 
L 559.60849 305.075025 
L 560.625068 305.355604 
L 562.658226 303.362575 
L 563.674804 303.036249 
L 564.691383 303.371724 
L 566.72454 302.348524 
L 567.741119 301.525084 
L 568.757697 301.10269 
L 569.774276 302.049646 
L 570.790854 301.127089 
L 571.807433 301.581505 
L 572.824012 302.653502 
L 573.84059 301.679098 
L 574.857169 302.88681 
L 575.873747 301.401568 
L 576.890326 302.783117 
L 577.906905 302.554384 
L 578.923483 304.125019 
L 580.956641 304.311055 
L 581.973219 303.470842 
L 582.989798 302.020673 
L 584.006376 304.420847 
L 585.022955 303.710249 
L 586.039534 305.387627 
L 587.056112 303.934408 
L 588.072691 303.306154 
L 589.089269 303.765145 
L 590.105848 302.716022 
L 591.122427 302.798366 
L 592.139005 303.056072 
L 593.155584 303.728548 
L 594.172163 304.10672 
L 595.188741 303.935933 
L 596.20532 303.359525 
L 597.221898 302.94628 
L 598.238477 302.934081 
L 599.255056 304.379675 
L 600.271634 304.428472 
L 601.288213 304.616033 
L 603.32137 303.605032 
L 605.354527 302.154863 
L 606.371106 303.847489 
L 608.404263 302.354624 
L 609.420842 302.093868 
L 610.43742 301.139288 
L 611.453999 301.157586 
L 612.470578 301.063043 
L 613.487156 301.390894 
L 614.503735 302.318026 
L 615.520313 299.829409 
L 616.536892 299.830933 
L 617.553471 301.627252 
L 618.570049 301.538808 
L 619.586628 300.707744 
L 620.603206 303.013375 
L 621.619785 300.895306 
L 622.636364 301.319224 
L 622.636364 301.319224 
" clip-path="url(#p637426f7d4)" style="fill: none; stroke: #ff7f0e; stroke-width: 1.5; stroke-linecap: square"/>
   </g>
   <g id="patch_3">
    <path d="M 90 320.4 
L 90 43.2 
" style="fill: none; stroke: #000000; stroke-width: 0.8; stroke-linejoin: miter; stroke-linecap: square"/>
   </g>
   <g id="patch_4">
    <path d="M 648 320.4 
L 648 43.2 
" style="fill: none; stroke: #000000; stroke-width: 0.8; stroke-linejoin: miter; stroke-linecap: square"/>
   </g>
   <g id="patch_5">
    <path d="M 90 320.4 
L 648 320.4 
" style="fill: none; stroke: #000000; stroke-width: 0.8; stroke-linejoin: miter; stroke-linecap: square"/>
   </g>
   <g id="patch_6">
    <path d="M 90 43.2 
L 648 43.2 
" style="fill: none; stroke: #000000; stroke-width: 0.8; stroke-linejoin: miter; stroke-linecap: square"/>
   </g>
   <g id="text_17">
    <!-- model train and validation loss over time -->
    <g transform="translate(245.555625 37.2) scale(0.12 -0.12)">
     <defs>
      <path id="DejaVuSans-6d" d="M 3328 2828 
Q 3544 3216 3844 3400 
Q 4144 3584 4550 3584 
Q 5097 3584 5394 3201 
Q 5691 2819 5691 2113 
L 5691 0 
L 5113 0 
L 5113 2094 
Q 5113 2597 4934 2840 
Q 4756 3084 4391 3084 
Q 3944 3084 3684 2787 
Q 3425 2491 3425 1978 
L 3425 0 
L 2847 0 
L 2847 2094 
Q 2847 2600 2669 2842 
Q 2491 3084 2119 3084 
Q 1678 3084 1418 2786 
Q 1159 2488 1159 1978 
L 1159 0 
L 581 0 
L 581 3500 
L 1159 3500 
L 1159 2956 
Q 1356 3278 1631 3431 
Q 1906 3584 2284 3584 
Q 2666 3584 2933 3390 
Q 3200 3197 3328 2828 
z
" transform="scale(0.015625)"/>
      <path id="DejaVuSans-64" d="M 2906 2969 
L 2906 4863 
L 3481 4863 
L 3481 0 
L 2906 0 
L 2906 525 
Q 2725 213 2448 61 
Q 2172 -91 1784 -91 
Q 1150 -91 751 415 
Q 353 922 353 1747 
Q 353 2572 751 3078 
Q 1150 3584 1784 3584 
Q 2172 3584 2448 3432 
Q 2725 3281 2906 2969 
z
M 947 1747 
Q 947 1113 1208 752 
Q 1469 391 1925 391 
Q 2381 391 2643 752 
Q 2906 1113 2906 1747 
Q 2906 2381 2643 2742 
Q 2381 3103 1925 3103 
Q 1469 3103 1208 2742 
Q 947 2381 947 1747 
z
" transform="scale(0.015625)"/>
      <path id="DejaVuSans-20" transform="scale(0.015625)"/>
      <path id="DejaVuSans-74" d="M 1172 4494 
L 1172 3500 
L 2356 3500 
L 2356 3053 
L 1172 3053 
L 1172 1153 
Q 1172 725 1289 603 
Q 1406 481 1766 481 
L 2356 481 
L 2356 0 
L 1766 0 
Q 1100 0 847 248 
Q 594 497 594 1153 
L 594 3053 
L 172 3053 
L 172 3500 
L 594 3500 
L 594 4494 
L 1172 4494 
z
" transform="scale(0.015625)"/>
      <path id="DejaVuSans-72" d="M 2631 2963 
Q 2534 3019 2420 3045 
Q 2306 3072 2169 3072 
Q 1681 3072 1420 2755 
Q 1159 2438 1159 1844 
L 1159 0 
L 581 0 
L 581 3500 
L 1159 3500 
L 1159 2956 
Q 1341 3275 1631 3429 
Q 1922 3584 2338 3584 
Q 2397 3584 2469 3576 
Q 2541 3569 2628 3553 
L 2631 2963 
z
" transform="scale(0.015625)"/>
      <path id="DejaVuSans-61" d="M 2194 1759 
Q 1497 1759 1228 1600 
Q 959 1441 959 1056 
Q 959 750 1161 570 
Q 1363 391 1709 391 
Q 2188 391 2477 730 
Q 2766 1069 2766 1631 
L 2766 1759 
L 2194 1759 
z
M 3341 1997 
L 3341 0 
L 2766 0 
L 2766 531 
Q 2569 213 2275 61 
Q 1981 -91 1556 -91 
Q 1019 -91 701 211 
Q 384 513 384 1019 
Q 384 1609 779 1909 
Q 1175 2209 1959 2209 
L 2766 2209 
L 2766 2266 
Q 2766 2663 2505 2880 
Q 2244 3097 1772 3097 
Q 1472 3097 1187 3025 
Q 903 2953 641 2809 
L 641 3341 
Q 956 3463 1253 3523 
Q 1550 3584 1831 3584 
Q 2591 3584 2966 3190 
Q 3341 2797 3341 1997 
z
" transform="scale(0.015625)"/>
      <path id="DejaVuSans-69" d="M 603 3500 
L 1178 3500 
L 1178 0 
L 603 0 
L 603 3500 
z
M 603 4863 
L 1178 4863 
L 1178 4134 
L 603 4134 
L 603 4863 
z
" transform="scale(0.015625)"/>
      <path id="DejaVuSans-6e" d="M 3513 2113 
L 3513 0 
L 2938 0 
L 2938 2094 
Q 2938 2591 2744 2837 
Q 2550 3084 2163 3084 
Q 1697 3084 1428 2787 
Q 1159 2491 1159 1978 
L 1159 0 
L 581 0 
L 581 3500 
L 1159 3500 
L 1159 2956 
Q 1366 3272 1645 3428 
Q 1925 3584 2291 3584 
Q 2894 3584 3203 3211 
Q 3513 2838 3513 2113 
z
" transform="scale(0.015625)"/>
      <path id="DejaVuSans-76" d="M 191 3500 
L 800 3500 
L 1894 563 
L 2988 3500 
L 3597 3500 
L 2284 0 
L 1503 0 
L 191 3500 
z
" transform="scale(0.015625)"/>
     </defs>
     <use xlink:href="#DejaVuSans-6d"/>
     <use xlink:href="#DejaVuSans-6f" x="97.412109"/>
     <use xlink:href="#DejaVuSans-64" x="158.59375"/>
     <use xlink:href="#DejaVuSans-65" x="222.070312"/>
     <use xlink:href="#DejaVuSans-6c" x="283.59375"/>
     <use xlink:href="#DejaVuSans-20" x="311.376953"/>
     <use xlink:href="#DejaVuSans-74" x="343.164062"/>
     <use xlink:href="#DejaVuSans-72" x="382.373047"/>
     <use xlink:href="#DejaVuSans-61" x="423.486328"/>
     <use xlink:href="#DejaVuSans-69" x="484.765625"/>
     <use xlink:href="#DejaVuSans-6e" x="512.548828"/>
     <use xlink:href="#DejaVuSans-20" x="575.927734"/>
     <use xlink:href="#DejaVuSans-61" x="607.714844"/>
     <use xlink:href="#DejaVuSans-6e" x="668.994141"/>
     <use xlink:href="#DejaVuSans-64" x="732.373047"/>
     <use xlink:href="#DejaVuSans-20" x="795.849609"/>
     <use xlink:href="#DejaVuSans-76" x="827.636719"/>
     <use xlink:href="#DejaVuSans-61" x="886.816406"/>
     <use xlink:href="#DejaVuSans-6c" x="948.095703"/>
     <use xlink:href="#DejaVuSans-69" x="975.878906"/>
     <use xlink:href="#DejaVuSans-64" x="1003.662109"/>
     <use xlink:href="#DejaVuSans-61" x="1067.138672"/>
     <use xlink:href="#DejaVuSans-74" x="1128.417969"/>
     <use xlink:href="#DejaVuSans-69" x="1167.626953"/>
     <use xlink:href="#DejaVuSans-6f" x="1195.410156"/>
     <use xlink:href="#DejaVuSans-6e" x="1256.591797"/>
     <use xlink:href="#DejaVuSans-20" x="1319.970703"/>
     <use xlink:href="#DejaVuSans-6c" x="1351.757812"/>
     <use xlink:href="#DejaVuSans-6f" x="1379.541016"/>
     <use xlink:href="#DejaVuSans-73" x="1440.722656"/>
     <use xlink:href="#DejaVuSans-73" x="1492.822266"/>
     <use xlink:href="#DejaVuSans-20" x="1544.921875"/>
     <use xlink:href="#DejaVuSans-6f" x="1576.708984"/>
     <use xlink:href="#DejaVuSans-76" x="1637.890625"/>
     <use xlink:href="#DejaVuSans-65" x="1697.070312"/>
     <use xlink:href="#DejaVuSans-72" x="1758.59375"/>
     <use xlink:href="#DejaVuSans-20" x="1799.707031"/>
     <use xlink:href="#DejaVuSans-74" x="1831.494141"/>
     <use xlink:href="#DejaVuSans-69" x="1870.703125"/>
     <use xlink:href="#DejaVuSans-6d" x="1898.486328"/>
     <use xlink:href="#DejaVuSans-65" x="1995.898438"/>
    </g>
   </g>
   <g id="legend_1">
    <g id="patch_7">
     <path d="M 328.382812 80.55625 
L 409.617188 80.55625 
Q 411.617188 80.55625 411.617188 78.55625 
L 411.617188 50.2 
Q 411.617188 48.2 409.617188 48.2 
L 328.382812 48.2 
Q 326.382812 48.2 326.382812 50.2 
L 326.382812 78.55625 
Q 326.382812 80.55625 328.382812 80.55625 
z
" style="fill: #ffffff; opacity: 0.8; stroke: #cccccc; stroke-linejoin: miter"/>
    </g>
    <g id="line2d_31">
     <path d="M 330.382812 56.298437 
L 340.382812 56.298437 
L 350.382812 56.298437 
" style="fill: none; stroke: #1f77b4; stroke-width: 1.5; stroke-linecap: square"/>
    </g>
    <g id="text_18">
     <!-- train -->
     <g transform="translate(358.382812 59.798437) scale(0.1 -0.1)">
      <use xlink:href="#DejaVuSans-74"/>
      <use xlink:href="#DejaVuSans-72" x="39.208984"/>
      <use xlink:href="#DejaVuSans-61" x="80.322266"/>
      <use xlink:href="#DejaVuSans-69" x="141.601562"/>
      <use xlink:href="#DejaVuSans-6e" x="169.384766"/>
     </g>
    </g>
    <g id="line2d_32">
     <path d="M 330.382812 70.976562 
L 340.382812 70.976562 
L 350.382812 70.976562 
" style="fill: none; stroke: #ff7f0e; stroke-width: 1.5; stroke-linecap: square"/>
    </g>
    <g id="text_19">
     <!-- validation -->
     <g transform="translate(358.382812 74.476562) scale(0.1 -0.1)">
      <use xlink:href="#DejaVuSans-76"/>
      <use xlink:href="#DejaVuSans-61" x="59.179688"/>
      <use xlink:href="#DejaVuSans-6c" x="120.458984"/>
      <use xlink:href="#DejaVuSans-69" x="148.242188"/>
      <use xlink:href="#DejaVuSans-64" x="176.025391"/>
      <use xlink:href="#DejaVuSans-61" x="239.501953"/>
      <use xlink:href="#DejaVuSans-74" x="300.78125"/>
      <use xlink:href="#DejaVuSans-69" x="339.990234"/>
      <use xlink:href="#DejaVuSans-6f" x="367.773438"/>
      <use xlink:href="#DejaVuSans-6e" x="428.955078"/>
     </g>
    </g>
   </g>
  </g>
 </g>
 <defs>
  <clipPath id="p637426f7d4">
   <rect x="90" y="43.2" width="558" height="277.2"/>
  </clipPath>
 </defs>
</svg>
