<?xml version="1.0" encoding="utf-8" standalone="no"?>
<!DOCTYPE svg PUBLIC "-//W3C//DTD SVG 1.1//EN"
  "http://www.w3.org/Graphics/SVG/1.1/DTD/svg11.dtd">
<svg xmlns:xlink="http://www.w3.org/1999/xlink" width="720pt" height="360pt" viewBox="0 0 720 360" xmlns="http://www.w3.org/2000/svg" version="1.1">
 <metadata>
  <rdf:RDF xmlns:dc="http://purl.org/dc/elements/1.1/" xmlns:cc="http://creativecommons.org/ns#" xmlns:rdf="http://www.w3.org/1999/02/22-rdf-syntax-ns#">
   <cc:Work>
    <dc:type rdf:resource="http://purl.org/dc/dcmitype/StillImage"/>
    <dc:date>2023-05-24T11:46:56.579041</dc:date>
    <dc:format>image/svg+xml</dc:format>
    <dc:creator>
     <cc:Agent>
      <dc:title>Matplotlib v3.7.1, https://matplotlib.org/</dc:title>
     </cc:Agent>
    </dc:creator>
   </cc:Work>
  </rdf:RDF>
 </metadata>
 <defs>
  <style type="text/css">*{stroke-linejoin: round; stroke-linecap: butt}</style>
 </defs>
 <g id="figure_1">
  <g id="patch_1">
   <path d="M 0 360 
L 720 360 
L 720 0 
L 0 0 
z
" style="fill: #ffffff"/>
  </g>
  <g id="axes_1">
   <g id="patch_2">
    <path d="M 90 320.4 
L 648 320.4 
L 648 43.2 
L 90 43.2 
z
" style="fill: #ffffff"/>
   </g>
   <g id="matplotlib.axis_1">
    <g id="xtick_1">
     <g id="line2d_1">
      <path d="M 115.363636 320.4 
L 115.363636 43.2 
" clip-path="url(#pe3d002afcc)" style="fill: none; stroke: #b0b0b0; stroke-width: 0.8; stroke-linecap: square"/>
     </g>
     <g id="line2d_2">
      <defs>
       <path id="me0f34c3ed1" d="M 0 0 
L 0 3.5 
" style="stroke: #000000; stroke-width: 0.8"/>
      </defs>
      <g>
       <use xlink:href="#me0f34c3ed1" x="115.363636" y="320.4" style="stroke: #000000; stroke-width: 0.8"/>
      </g>
     </g>
     <g id="text_1">
      <!-- 0 -->
      <g transform="translate(112.182386 334.998438) scale(0.1 -0.1)">
       <defs>
        <path id="DejaVuSans-30" d="M 2034 4250 
Q 1547 4250 1301 3770 
Q 1056 3291 1056 2328 
Q 1056 1369 1301 889 
Q 1547 409 2034 409 
Q 2525 409 2770 889 
Q 3016 1369 3016 2328 
Q 3016 3291 2770 3770 
Q 2525 4250 2034 4250 
z
M 2034 4750 
Q 2819 4750 3233 4129 
Q 3647 3509 3647 2328 
Q 3647 1150 3233 529 
Q 2819 -91 2034 -91 
Q 1250 -91 836 529 
Q 422 1150 422 2328 
Q 422 3509 836 4129 
Q 1250 4750 2034 4750 
z
" transform="scale(0.015625)"/>
       </defs>
       <use xlink:href="#DejaVuSans-30"/>
      </g>
     </g>
    </g>
    <g id="xtick_2">
     <g id="line2d_3">
      <path d="M 217.021498 320.4 
L 217.021498 43.2 
" clip-path="url(#pe3d002afcc)" style="fill: none; stroke: #b0b0b0; stroke-width: 0.8; stroke-linecap: square"/>
     </g>
     <g id="line2d_4">
      <g>
       <use xlink:href="#me0f34c3ed1" x="217.021498" y="320.4" style="stroke: #000000; stroke-width: 0.8"/>
      </g>
     </g>
     <g id="text_2">
      <!-- 100 -->
      <g transform="translate(207.477748 334.998438) scale(0.1 -0.1)">
       <defs>
        <path id="DejaVuSans-31" d="M 794 531 
L 1825 531 
L 1825 4091 
L 703 3866 
L 703 4441 
L 1819 4666 
L 2450 4666 
L 2450 531 
L 3481 531 
L 3481 0 
L 794 0 
L 794 531 
z
" transform="scale(0.015625)"/>
       </defs>
       <use xlink:href="#DejaVuSans-31"/>
       <use xlink:href="#DejaVuSans-30" x="63.623047"/>
       <use xlink:href="#DejaVuSans-30" x="127.246094"/>
      </g>
     </g>
    </g>
    <g id="xtick_3">
     <g id="line2d_5">
      <path d="M 318.679359 320.4 
L 318.679359 43.2 
" clip-path="url(#pe3d002afcc)" style="fill: none; stroke: #b0b0b0; stroke-width: 0.8; stroke-linecap: square"/>
     </g>
     <g id="line2d_6">
      <g>
       <use xlink:href="#me0f34c3ed1" x="318.679359" y="320.4" style="stroke: #000000; stroke-width: 0.8"/>
      </g>
     </g>
     <g id="text_3">
      <!-- 200 -->
      <g transform="translate(309.135609 334.998438) scale(0.1 -0.1)">
       <defs>
        <path id="DejaVuSans-32" d="M 1228 531 
L 3431 531 
L 3431 0 
L 469 0 
L 469 531 
Q 828 903 1448 1529 
Q 2069 2156 2228 2338 
Q 2531 2678 2651 2914 
Q 2772 3150 2772 3378 
Q 2772 3750 2511 3984 
Q 2250 4219 1831 4219 
Q 1534 4219 1204 4116 
Q 875 4013 500 3803 
L 500 4441 
Q 881 4594 1212 4672 
Q 1544 4750 1819 4750 
Q 2544 4750 2975 4387 
Q 3406 4025 3406 3419 
Q 3406 3131 3298 2873 
Q 3191 2616 2906 2266 
Q 2828 2175 2409 1742 
Q 1991 1309 1228 531 
z
" transform="scale(0.015625)"/>
       </defs>
       <use xlink:href="#DejaVuSans-32"/>
       <use xlink:href="#DejaVuSans-30" x="63.623047"/>
       <use xlink:href="#DejaVuSans-30" x="127.246094"/>
      </g>
     </g>
    </g>
    <g id="xtick_4">
     <g id="line2d_7">
      <path d="M 420.33722 320.4 
L 420.33722 43.2 
" clip-path="url(#pe3d002afcc)" style="fill: none; stroke: #b0b0b0; stroke-width: 0.8; stroke-linecap: square"/>
     </g>
     <g id="line2d_8">
      <g>
       <use xlink:href="#me0f34c3ed1" x="420.33722" y="320.4" style="stroke: #000000; stroke-width: 0.8"/>
      </g>
     </g>
     <g id="text_4">
      <!-- 300 -->
      <g transform="translate(410.79347 334.998438) scale(0.1 -0.1)">
       <defs>
        <path id="DejaVuSans-33" d="M 2597 2516 
Q 3050 2419 3304 2112 
Q 3559 1806 3559 1356 
Q 3559 666 3084 287 
Q 2609 -91 1734 -91 
Q 1441 -91 1130 -33 
Q 819 25 488 141 
L 488 750 
Q 750 597 1062 519 
Q 1375 441 1716 441 
Q 2309 441 2620 675 
Q 2931 909 2931 1356 
Q 2931 1769 2642 2001 
Q 2353 2234 1838 2234 
L 1294 2234 
L 1294 2753 
L 1863 2753 
Q 2328 2753 2575 2939 
Q 2822 3125 2822 3475 
Q 2822 3834 2567 4026 
Q 2313 4219 1838 4219 
Q 1578 4219 1281 4162 
Q 984 4106 628 3988 
L 628 4550 
Q 988 4650 1302 4700 
Q 1616 4750 1894 4750 
Q 2613 4750 3031 4423 
Q 3450 4097 3450 3541 
Q 3450 3153 3228 2886 
Q 3006 2619 2597 2516 
z
" transform="scale(0.015625)"/>
       </defs>
       <use xlink:href="#DejaVuSans-33"/>
       <use xlink:href="#DejaVuSans-30" x="63.623047"/>
       <use xlink:href="#DejaVuSans-30" x="127.246094"/>
      </g>
     </g>
    </g>
    <g id="xtick_5">
     <g id="line2d_9">
      <path d="M 521.995081 320.4 
L 521.995081 43.2 
" clip-path="url(#pe3d002afcc)" style="fill: none; stroke: #b0b0b0; stroke-width: 0.8; stroke-linecap: square"/>
     </g>
     <g id="line2d_10">
      <g>
       <use xlink:href="#me0f34c3ed1" x="521.995081" y="320.4" style="stroke: #000000; stroke-width: 0.8"/>
      </g>
     </g>
     <g id="text_5">
      <!-- 400 -->
      <g transform="translate(512.451331 334.998438) scale(0.1 -0.1)">
       <defs>
        <path id="DejaVuSans-34" d="M 2419 4116 
L 825 1625 
L 2419 1625 
L 2419 4116 
z
M 2253 4666 
L 3047 4666 
L 3047 1625 
L 3713 1625 
L 3713 1100 
L 3047 1100 
L 3047 0 
L 2419 0 
L 2419 1100 
L 313 1100 
L 313 1709 
L 2253 4666 
z
" transform="scale(0.015625)"/>
       </defs>
       <use xlink:href="#DejaVuSans-34"/>
       <use xlink:href="#DejaVuSans-30" x="63.623047"/>
       <use xlink:href="#DejaVuSans-30" x="127.246094"/>
      </g>
     </g>
    </g>
    <g id="xtick_6">
     <g id="line2d_11">
      <path d="M 623.652942 320.4 
L 623.652942 43.2 
" clip-path="url(#pe3d002afcc)" style="fill: none; stroke: #b0b0b0; stroke-width: 0.8; stroke-linecap: square"/>
     </g>
     <g id="line2d_12">
      <g>
       <use xlink:href="#me0f34c3ed1" x="623.652942" y="320.4" style="stroke: #000000; stroke-width: 0.8"/>
      </g>
     </g>
     <g id="text_6">
      <!-- 500 -->
      <g transform="translate(614.109192 334.998438) scale(0.1 -0.1)">
       <defs>
        <path id="DejaVuSans-35" d="M 691 4666 
L 3169 4666 
L 3169 4134 
L 1269 4134 
L 1269 2991 
Q 1406 3038 1543 3061 
Q 1681 3084 1819 3084 
Q 2600 3084 3056 2656 
Q 3513 2228 3513 1497 
Q 3513 744 3044 326 
Q 2575 -91 1722 -91 
Q 1428 -91 1123 -41 
Q 819 9 494 109 
L 494 744 
Q 775 591 1075 516 
Q 1375 441 1709 441 
Q 2250 441 2565 725 
Q 2881 1009 2881 1497 
Q 2881 1984 2565 2268 
Q 2250 2553 1709 2553 
Q 1456 2553 1204 2497 
Q 953 2441 691 2322 
L 691 4666 
z
" transform="scale(0.015625)"/>
       </defs>
       <use xlink:href="#DejaVuSans-35"/>
       <use xlink:href="#DejaVuSans-30" x="63.623047"/>
       <use xlink:href="#DejaVuSans-30" x="127.246094"/>
      </g>
     </g>
    </g>
    <g id="text_7">
     <!-- epoch -->
     <g transform="translate(353.771875 348.676562) scale(0.1 -0.1)">
      <defs>
       <path id="DejaVuSans-65" d="M 3597 1894 
L 3597 1613 
L 953 1613 
Q 991 1019 1311 708 
Q 1631 397 2203 397 
Q 2534 397 2845 478 
Q 3156 559 3463 722 
L 3463 178 
Q 3153 47 2828 -22 
Q 2503 -91 2169 -91 
Q 1331 -91 842 396 
Q 353 884 353 1716 
Q 353 2575 817 3079 
Q 1281 3584 2069 3584 
Q 2775 3584 3186 3129 
Q 3597 2675 3597 1894 
z
M 3022 2063 
Q 3016 2534 2758 2815 
Q 2500 3097 2075 3097 
Q 1594 3097 1305 2825 
Q 1016 2553 972 2059 
L 3022 2063 
z
" transform="scale(0.015625)"/>
       <path id="DejaVuSans-70" d="M 1159 525 
L 1159 -1331 
L 581 -1331 
L 581 3500 
L 1159 3500 
L 1159 2969 
Q 1341 3281 1617 3432 
Q 1894 3584 2278 3584 
Q 2916 3584 3314 3078 
Q 3713 2572 3713 1747 
Q 3713 922 3314 415 
Q 2916 -91 2278 -91 
Q 1894 -91 1617 61 
Q 1341 213 1159 525 
z
M 3116 1747 
Q 3116 2381 2855 2742 
Q 2594 3103 2138 3103 
Q 1681 3103 1420 2742 
Q 1159 2381 1159 1747 
Q 1159 1113 1420 752 
Q 1681 391 2138 391 
Q 2594 391 2855 752 
Q 3116 1113 3116 1747 
z
" transform="scale(0.015625)"/>
       <path id="DejaVuSans-6f" d="M 1959 3097 
Q 1497 3097 1228 2736 
Q 959 2375 959 1747 
Q 959 1119 1226 758 
Q 1494 397 1959 397 
Q 2419 397 2687 759 
Q 2956 1122 2956 1747 
Q 2956 2369 2687 2733 
Q 2419 3097 1959 3097 
z
M 1959 3584 
Q 2709 3584 3137 3096 
Q 3566 2609 3566 1747 
Q 3566 888 3137 398 
Q 2709 -91 1959 -91 
Q 1206 -91 779 398 
Q 353 888 353 1747 
Q 353 2609 779 3096 
Q 1206 3584 1959 3584 
z
" transform="scale(0.015625)"/>
       <path id="DejaVuSans-63" d="M 3122 3366 
L 3122 2828 
Q 2878 2963 2633 3030 
Q 2388 3097 2138 3097 
Q 1578 3097 1268 2742 
Q 959 2388 959 1747 
Q 959 1106 1268 751 
Q 1578 397 2138 397 
Q 2388 397 2633 464 
Q 2878 531 3122 666 
L 3122 134 
Q 2881 22 2623 -34 
Q 2366 -91 2075 -91 
Q 1284 -91 818 406 
Q 353 903 353 1747 
Q 353 2603 823 3093 
Q 1294 3584 2113 3584 
Q 2378 3584 2631 3529 
Q 2884 3475 3122 3366 
z
" transform="scale(0.015625)"/>
       <path id="DejaVuSans-68" d="M 3513 2113 
L 3513 0 
L 2938 0 
L 2938 2094 
Q 2938 2591 2744 2837 
Q 2550 3084 2163 3084 
Q 1697 3084 1428 2787 
Q 1159 2491 1159 1978 
L 1159 0 
L 581 0 
L 581 4863 
L 1159 4863 
L 1159 2956 
Q 1366 3272 1645 3428 
Q 1925 3584 2291 3584 
Q 2894 3584 3203 3211 
Q 3513 2838 3513 2113 
z
" transform="scale(0.015625)"/>
      </defs>
      <use xlink:href="#DejaVuSans-65"/>
      <use xlink:href="#DejaVuSans-70" x="61.523438"/>
      <use xlink:href="#DejaVuSans-6f" x="125"/>
      <use xlink:href="#DejaVuSans-63" x="186.181641"/>
      <use xlink:href="#DejaVuSans-68" x="241.162109"/>
     </g>
    </g>
   </g>
   <g id="matplotlib.axis_2">
    <g id="ytick_1">
     <g id="line2d_13">
      <path d="M 90 310.138372 
L 648 310.138372 
" clip-path="url(#pe3d002afcc)" style="fill: none; stroke: #b0b0b0; stroke-width: 0.8; stroke-linecap: square"/>
     </g>
     <g id="line2d_14">
      <defs>
       <path id="m4815a3b7f3" d="M 0 0 
L -3.5 0 
" style="stroke: #000000; stroke-width: 0.8"/>
      </defs>
      <g>
       <use xlink:href="#m4815a3b7f3" x="90" y="310.138372" style="stroke: #000000; stroke-width: 0.8"/>
      </g>
     </g>
     <g id="text_8">
      <!-- 1.375 -->
      <g transform="translate(54.371875 313.937591) scale(0.1 -0.1)">
       <defs>
        <path id="DejaVuSans-2e" d="M 684 794 
L 1344 794 
L 1344 0 
L 684 0 
L 684 794 
z
" transform="scale(0.015625)"/>
        <path id="DejaVuSans-37" d="M 525 4666 
L 3525 4666 
L 3525 4397 
L 1831 0 
L 1172 0 
L 2766 4134 
L 525 4134 
L 525 4666 
z
" transform="scale(0.015625)"/>
       </defs>
       <use xlink:href="#DejaVuSans-31"/>
       <use xlink:href="#DejaVuSans-2e" x="63.623047"/>
       <use xlink:href="#DejaVuSans-33" x="95.410156"/>
       <use xlink:href="#DejaVuSans-37" x="159.033203"/>
       <use xlink:href="#DejaVuSans-35" x="222.65625"/>
      </g>
     </g>
    </g>
    <g id="ytick_2">
     <g id="line2d_15">
      <path d="M 90 271.387511 
L 648 271.387511 
" clip-path="url(#pe3d002afcc)" style="fill: none; stroke: #b0b0b0; stroke-width: 0.8; stroke-linecap: square"/>
     </g>
     <g id="line2d_16">
      <g>
       <use xlink:href="#m4815a3b7f3" x="90" y="271.387511" style="stroke: #000000; stroke-width: 0.8"/>
      </g>
     </g>
     <g id="text_9">
      <!-- 1.380 -->
      <g transform="translate(54.371875 275.18673) scale(0.1 -0.1)">
       <defs>
        <path id="DejaVuSans-38" d="M 2034 2216 
Q 1584 2216 1326 1975 
Q 1069 1734 1069 1313 
Q 1069 891 1326 650 
Q 1584 409 2034 409 
Q 2484 409 2743 651 
Q 3003 894 3003 1313 
Q 3003 1734 2745 1975 
Q 2488 2216 2034 2216 
z
M 1403 2484 
Q 997 2584 770 2862 
Q 544 3141 544 3541 
Q 544 4100 942 4425 
Q 1341 4750 2034 4750 
Q 2731 4750 3128 4425 
Q 3525 4100 3525 3541 
Q 3525 3141 3298 2862 
Q 3072 2584 2669 2484 
Q 3125 2378 3379 2068 
Q 3634 1759 3634 1313 
Q 3634 634 3220 271 
Q 2806 -91 2034 -91 
Q 1263 -91 848 271 
Q 434 634 434 1313 
Q 434 1759 690 2068 
Q 947 2378 1403 2484 
z
M 1172 3481 
Q 1172 3119 1398 2916 
Q 1625 2713 2034 2713 
Q 2441 2713 2670 2916 
Q 2900 3119 2900 3481 
Q 2900 3844 2670 4047 
Q 2441 4250 2034 4250 
Q 1625 4250 1398 4047 
Q 1172 3844 1172 3481 
z
" transform="scale(0.015625)"/>
       </defs>
       <use xlink:href="#DejaVuSans-31"/>
       <use xlink:href="#DejaVuSans-2e" x="63.623047"/>
       <use xlink:href="#DejaVuSans-33" x="95.410156"/>
       <use xlink:href="#DejaVuSans-38" x="159.033203"/>
       <use xlink:href="#DejaVuSans-30" x="222.65625"/>
      </g>
     </g>
    </g>
    <g id="ytick_3">
     <g id="line2d_17">
      <path d="M 90 232.63665 
L 648 232.63665 
" clip-path="url(#pe3d002afcc)" style="fill: none; stroke: #b0b0b0; stroke-width: 0.8; stroke-linecap: square"/>
     </g>
     <g id="line2d_18">
      <g>
       <use xlink:href="#m4815a3b7f3" x="90" y="232.63665" style="stroke: #000000; stroke-width: 0.8"/>
      </g>
     </g>
     <g id="text_10">
      <!-- 1.385 -->
      <g transform="translate(54.371875 236.435869) scale(0.1 -0.1)">
       <use xlink:href="#DejaVuSans-31"/>
       <use xlink:href="#DejaVuSans-2e" x="63.623047"/>
       <use xlink:href="#DejaVuSans-33" x="95.410156"/>
       <use xlink:href="#DejaVuSans-38" x="159.033203"/>
       <use xlink:href="#DejaVuSans-35" x="222.65625"/>
      </g>
     </g>
    </g>
    <g id="ytick_4">
     <g id="line2d_19">
      <path d="M 90 193.885789 
L 648 193.885789 
" clip-path="url(#pe3d002afcc)" style="fill: none; stroke: #b0b0b0; stroke-width: 0.8; stroke-linecap: square"/>
     </g>
     <g id="line2d_20">
      <g>
       <use xlink:href="#m4815a3b7f3" x="90" y="193.885789" style="stroke: #000000; stroke-width: 0.8"/>
      </g>
     </g>
     <g id="text_11">
      <!-- 1.390 -->
      <g transform="translate(54.371875 197.685008) scale(0.1 -0.1)">
       <defs>
        <path id="DejaVuSans-39" d="M 703 97 
L 703 672 
Q 941 559 1184 500 
Q 1428 441 1663 441 
Q 2288 441 2617 861 
Q 2947 1281 2994 2138 
Q 2813 1869 2534 1725 
Q 2256 1581 1919 1581 
Q 1219 1581 811 2004 
Q 403 2428 403 3163 
Q 403 3881 828 4315 
Q 1253 4750 1959 4750 
Q 2769 4750 3195 4129 
Q 3622 3509 3622 2328 
Q 3622 1225 3098 567 
Q 2575 -91 1691 -91 
Q 1453 -91 1209 -44 
Q 966 3 703 97 
z
M 1959 2075 
Q 2384 2075 2632 2365 
Q 2881 2656 2881 3163 
Q 2881 3666 2632 3958 
Q 2384 4250 1959 4250 
Q 1534 4250 1286 3958 
Q 1038 3666 1038 3163 
Q 1038 2656 1286 2365 
Q 1534 2075 1959 2075 
z
" transform="scale(0.015625)"/>
       </defs>
       <use xlink:href="#DejaVuSans-31"/>
       <use xlink:href="#DejaVuSans-2e" x="63.623047"/>
       <use xlink:href="#DejaVuSans-33" x="95.410156"/>
       <use xlink:href="#DejaVuSans-39" x="159.033203"/>
       <use xlink:href="#DejaVuSans-30" x="222.65625"/>
      </g>
     </g>
    </g>
    <g id="ytick_5">
     <g id="line2d_21">
      <path d="M 90 155.134928 
L 648 155.134928 
" clip-path="url(#pe3d002afcc)" style="fill: none; stroke: #b0b0b0; stroke-width: 0.8; stroke-linecap: square"/>
     </g>
     <g id="line2d_22">
      <g>
       <use xlink:href="#m4815a3b7f3" x="90" y="155.134928" style="stroke: #000000; stroke-width: 0.8"/>
      </g>
     </g>
     <g id="text_12">
      <!-- 1.395 -->
      <g transform="translate(54.371875 158.934147) scale(0.1 -0.1)">
       <use xlink:href="#DejaVuSans-31"/>
       <use xlink:href="#DejaVuSans-2e" x="63.623047"/>
       <use xlink:href="#DejaVuSans-33" x="95.410156"/>
       <use xlink:href="#DejaVuSans-39" x="159.033203"/>
       <use xlink:href="#DejaVuSans-35" x="222.65625"/>
      </g>
     </g>
    </g>
    <g id="ytick_6">
     <g id="line2d_23">
      <path d="M 90 116.384067 
L 648 116.384067 
" clip-path="url(#pe3d002afcc)" style="fill: none; stroke: #b0b0b0; stroke-width: 0.8; stroke-linecap: square"/>
     </g>
     <g id="line2d_24">
      <g>
       <use xlink:href="#m4815a3b7f3" x="90" y="116.384067" style="stroke: #000000; stroke-width: 0.8"/>
      </g>
     </g>
     <g id="text_13">
      <!-- 1.400 -->
      <g transform="translate(54.371875 120.183286) scale(0.1 -0.1)">
       <use xlink:href="#DejaVuSans-31"/>
       <use xlink:href="#DejaVuSans-2e" x="63.623047"/>
       <use xlink:href="#DejaVuSans-34" x="95.410156"/>
       <use xlink:href="#DejaVuSans-30" x="159.033203"/>
       <use xlink:href="#DejaVuSans-30" x="222.65625"/>
      </g>
     </g>
    </g>
    <g id="ytick_7">
     <g id="line2d_25">
      <path d="M 90 77.633206 
L 648 77.633206 
" clip-path="url(#pe3d002afcc)" style="fill: none; stroke: #b0b0b0; stroke-width: 0.8; stroke-linecap: square"/>
     </g>
     <g id="line2d_26">
      <g>
       <use xlink:href="#m4815a3b7f3" x="90" y="77.633206" style="stroke: #000000; stroke-width: 0.8"/>
      </g>
     </g>
     <g id="text_14">
      <!-- 1.405 -->
      <g transform="translate(54.371875 81.432425) scale(0.1 -0.1)">
       <use xlink:href="#DejaVuSans-31"/>
       <use xlink:href="#DejaVuSans-2e" x="63.623047"/>
       <use xlink:href="#DejaVuSans-34" x="95.410156"/>
       <use xlink:href="#DejaVuSans-30" x="159.033203"/>
       <use xlink:href="#DejaVuSans-35" x="222.65625"/>
      </g>
     </g>
    </g>
    <g id="text_15">
     <!-- loss -->
     <g transform="translate(48.292188 191.457812) rotate(-90) scale(0.1 -0.1)">
      <defs>
       <path id="DejaVuSans-6c" d="M 603 4863 
L 1178 4863 
L 1178 0 
L 603 0 
L 603 4863 
z
" transform="scale(0.015625)"/>
       <path id="DejaVuSans-73" d="M 2834 3397 
L 2834 2853 
Q 2591 2978 2328 3040 
Q 2066 3103 1784 3103 
Q 1356 3103 1142 2972 
Q 928 2841 928 2578 
Q 928 2378 1081 2264 
Q 1234 2150 1697 2047 
L 1894 2003 
Q 2506 1872 2764 1633 
Q 3022 1394 3022 966 
Q 3022 478 2636 193 
Q 2250 -91 1575 -91 
Q 1294 -91 989 -36 
Q 684 19 347 128 
L 347 722 
Q 666 556 975 473 
Q 1284 391 1588 391 
Q 1994 391 2212 530 
Q 2431 669 2431 922 
Q 2431 1156 2273 1281 
Q 2116 1406 1581 1522 
L 1381 1569 
Q 847 1681 609 1914 
Q 372 2147 372 2553 
Q 372 3047 722 3315 
Q 1072 3584 1716 3584 
Q 2034 3584 2315 3537 
Q 2597 3491 2834 3397 
z
" transform="scale(0.015625)"/>
      </defs>
      <use xlink:href="#DejaVuSans-6c"/>
      <use xlink:href="#DejaVuSans-6f" x="27.783203"/>
      <use xlink:href="#DejaVuSans-73" x="88.964844"/>
      <use xlink:href="#DejaVuSans-73" x="141.064453"/>
     </g>
    </g>
   </g>
   <g id="line2d_27">
    <path d="M 115.363636 185.715918 
L 116.380215 147.473235 
L 117.396794 183.262984 
L 118.413372 125.957626 
L 119.429951 178.934547 
L 120.446529 190.370489 
L 122.479687 152.656272 
L 123.496265 149.429116 
L 124.512844 143.255666 
L 125.529422 130.52997 
L 127.56258 185.06365 
L 128.579158 174.671707 
L 129.595737 139.915795 
L 131.628894 194.859683 
L 133.662051 175.92081 
L 134.67863 205.681236 
L 135.695209 166.869435 
L 136.711787 168.553691 
L 137.728366 168.562006 
L 138.744944 125.228675 
L 139.761523 158.409351 
L 140.778102 137.664268 
L 141.79468 196.276934 
L 142.811259 206.861047 
L 143.827837 177.003612 
L 144.844416 183.138258 
L 145.860995 135.732409 
L 146.877573 149.29238 
L 147.894152 186.237918 
L 148.910731 179.173836 
L 149.927309 199.165946 
L 150.943888 208.422425 
L 151.960466 195.845476 
L 153.993624 145.031387 
L 155.010202 196.373019 
L 156.026781 127.780466 
L 157.043359 121.616255 
L 158.059938 197.279357 
L 159.076517 129.982102 
L 160.093095 160.097303 
L 161.109674 176.940787 
L 162.126253 196.72225 
L 163.142831 220.830301 
L 164.15941 168.716296 
L 165.175988 197.040993 
L 166.192567 170.530821 
L 167.209146 163.334622 
L 168.225724 135.484806 
L 169.242303 151.247336 
L 170.258881 125.712795 
L 171.27546 163.531411 
L 172.292039 131.137892 
L 173.308617 144.416075 
L 174.325196 138.121595 
L 175.341774 137.845351 
L 176.358353 113.978436 
L 177.374932 156.966231 
L 178.39151 136.405927 
L 179.408089 208.411338 
L 180.424668 217.093156 
L 181.441246 200.636783 
L 182.457825 186.778395 
L 183.474403 178.943786 
L 184.490982 135.081989 
L 185.507561 188.770307 
L 186.524139 151.208533 
L 187.540718 174.659697 
L 188.557296 126.232022 
L 189.573875 170.607504 
L 190.590454 144.547268 
L 192.623611 206.311331 
L 193.640189 162.530836 
L 194.656768 162.316493 
L 195.673347 189.721916 
L 196.689925 145.761263 
L 197.706504 189.757024 
L 198.723083 183.864438 
L 199.739661 158.950752 
L 200.75624 182.374199 
L 201.772818 109.04485 
L 202.789397 196.798009 
L 203.805976 178.587164 
L 204.822554 212.384076 
L 206.855711 178.097501 
L 207.87229 182.565445 
L 208.888869 122.506888 
L 209.905447 150.263391 
L 210.922026 197.572231 
L 211.938604 177.116327 
L 212.955183 165.448488 
L 213.971762 183.434828 
L 214.98834 152.616545 
L 216.004919 171.861226 
L 217.021498 122.89677 
L 218.038076 202.440221 
L 219.054655 132.402701 
L 220.071233 210.832861 
L 221.087812 179.659803 
L 222.104391 144.359718 
L 223.120969 141.738634 
L 224.137548 164.361067 
L 225.154126 156.27054 
L 226.170705 195.258804 
L 227.187284 153.889669 
L 228.203862 218.407855 
L 229.220441 214.668862 
L 230.237019 135.550402 
L 231.253598 191.822848 
L 232.270177 128.0022 
L 233.286755 119.362882 
L 234.303334 169.63095 
L 235.319913 183.396024 
L 236.336491 195.010277 
L 237.35307 153.94695 
L 238.369648 190.815805 
L 239.386227 159.531881 
L 240.402806 161.3926 
L 241.419384 153.433266 
L 242.435963 151.923626 
L 243.452541 91.832732 
L 244.46912 96.499313 
L 245.485699 189.199917 
L 246.502277 191.731383 
L 247.518856 154.855137 
L 248.535435 133.657347 
L 249.552013 183.522598 
L 250.568592 169.525626 
L 251.58517 148.775924 
L 252.601749 176.318084 
L 253.618328 124.093211 
L 254.634906 143.006215 
L 255.651485 191.436661 
L 256.668063 172.61697 
L 257.684642 143.837718 
L 258.701221 220.401615 
L 259.717799 176.981439 
L 260.734378 191.371065 
L 261.750956 164.645626 
L 262.767535 178.970579 
L 263.784114 184.106498 
L 264.800692 163.118431 
L 265.817271 135.29818 
L 266.83385 170.79413 
L 267.850428 101.678655 
L 268.867007 158.991403 
L 269.883585 128.868812 
L 270.900164 206.361221 
L 271.916743 160.055728 
L 273.9499 195.601568 
L 274.966478 147.608124 
L 275.983057 176.324551 
L 276.999636 189.913162 
L 278.016214 177.389799 
L 279.032793 170.62783 
L 280.049371 164.874751 
L 281.06595 194.081765 
L 282.082529 115.200746 
L 283.099107 210.985303 
L 284.115686 92.384296 
L 285.132265 100.800957 
L 286.148843 155.026057 
L 287.165422 163.951782 
L 288.182 170.598265 
L 289.198579 165.707178 
L 290.215158 193.182818 
L 291.231736 162.257363 
L 292.248315 197.265499 
L 293.264893 189.691428 
L 294.281472 208.511119 
L 295.298051 156.5126 
L 296.314629 165.315448 
L 297.331208 181.988936 
L 298.347786 175.105937 
L 299.364365 151.294455 
L 300.380944 169.761219 
L 301.397522 148.611471 
L 302.414101 180.393374 
L 303.43068 169.795403 
L 304.447258 188.173473 
L 305.463837 127.191947 
L 306.480415 130.547524 
L 307.496994 153.853637 
L 308.513573 182.816744 
L 309.530151 186.310905 
L 310.54673 140.850774 
L 311.563308 143.103224 
L 312.579887 136.398536 
L 313.596466 181.809701 
L 314.613044 195.67086 
L 315.629623 249.707486 
L 316.646201 137.841656 
L 317.66278 164.518128 
L 318.679359 149.025375 
L 319.695937 186.533563 
L 320.712516 161.336243 
L 321.729095 127.531939 
L 322.745673 142.558127 
L 323.762252 160.126867 
L 324.77883 79.323227 
L 325.795409 131.965699 
L 326.811988 203.3752 
L 327.828566 208.587802 
L 328.845145 191.394162 
L 329.861723 204.671421 
L 330.878302 146.583527 
L 331.894881 174.267966 
L 332.911459 163.123975 
L 333.928038 141.882762 
L 334.944617 210.747862 
L 335.961195 137.684594 
L 336.977774 134.785419 
L 337.994352 228.194649 
L 339.010931 200.238585 
L 340.02751 197.526037 
L 341.044088 194.195404 
L 342.060667 162.004217 
L 343.077245 138.627888 
L 344.093824 194.544635 
L 345.110403 167.712025 
L 346.126981 151.93656 
L 347.14356 139.109236 
L 348.160138 130.548448 
L 349.176717 168.759719 
L 350.193296 193.626286 
L 351.209874 132.677097 
L 352.226453 148.425769 
L 353.243032 200.112012 
L 354.25961 189.405945 
L 355.276189 196.470951 
L 356.292767 164.068193 
L 357.309346 197.11398 
L 358.325925 196.862682 
L 359.342503 128.263662 
L 360.359082 186.095638 
L 361.37566 177.079371 
L 362.392239 200.984166 
L 363.408818 174.167262 
L 364.425396 126.068493 
L 365.441975 203.307756 
L 366.458553 157.568609 
L 367.475132 119.962488 
L 368.491711 195.786347 
L 369.508289 146.367336 
L 370.524868 154.584436 
L 371.541447 152.820725 
L 372.558025 126.127623 
L 373.574604 168.670101 
L 374.591182 199.198282 
L 375.607761 212.521736 
L 376.62434 153.331638 
L 377.640918 204.310179 
L 378.657497 146.95216 
L 379.674075 173.320053 
L 380.690654 161.355644 
L 381.707233 193.392541 
L 382.723811 120.881761 
L 383.74039 187.899076 
L 384.756968 202.27392 
L 385.773547 148.595765 
L 386.790126 216.87327 
L 387.806704 221.765281 
L 388.823283 199.324855 
L 389.839862 179.688444 
L 390.85644 143.132788 
L 391.873019 206.456382 
L 392.889597 105.846334 
L 394.922755 195.555374 
L 395.939333 162.824633 
L 396.955912 55.8 
L 397.97249 187.062954 
L 398.989069 157.080794 
L 400.005648 183.617759 
L 401.022226 138.899513 
L 402.038805 178.293366 
L 403.055383 194.906801 
L 404.071962 220.345258 
L 405.088541 193.758403 
L 406.105119 195.193208 
L 407.121698 173.972321 
L 408.138277 156.434069 
L 409.154855 177.63925 
L 410.171434 167.110571 
L 411.188012 142.040747 
L 412.204591 208.763341 
L 413.22117 151.948571 
L 414.237748 227.279995 
L 415.254327 186.35248 
L 416.270905 130.698119 
L 417.287484 181.053957 
L 418.304063 149.500256 
L 419.320641 204.722235 
L 420.33722 190.710481 
L 421.353799 193.47292 
L 422.370377 144.058529 
L 423.386956 166.682809 
L 424.403534 174.949799 
L 425.420113 186.830133 
L 426.436692 164.444217 
L 427.45327 192.723643 
L 428.469849 151.463527 
L 429.486427 173.209185 
L 430.503006 150.707783 
L 431.519585 138.410774 
L 432.536163 198.163522 
L 433.552742 147.002974 
L 434.56932 227.961828 
L 435.585899 169.199492 
L 436.602478 207.21305 
L 437.619056 209.331535 
L 438.635635 208.844644 
L 439.652214 192.299577 
L 440.668792 110.497209 
L 442.701949 203.279115 
L 443.718528 153.260498 
L 444.735107 194.455942 
L 445.751685 165.784785 
L 446.768264 185.914555 
L 447.784842 149.539059 
L 448.801421 199.538274 
L 449.818 195.037994 
L 450.834578 180.087565 
L 451.851157 206.614367 
L 452.867735 183.208474 
L 453.884314 205.416079 
L 454.900893 181.901166 
L 455.917471 197.244249 
L 456.93405 180.897819 
L 457.950629 194.442083 
L 458.967207 169.617091 
L 459.983786 211.125734 
L 461.000364 216.004811 
L 462.016943 180.693639 
L 463.033522 141.222179 
L 464.0501 196.870073 
L 465.066679 187.400175 
L 466.083257 185.100606 
L 467.099836 169.701165 
L 468.116415 171.701393 
L 469.132993 194.196328 
L 470.149572 135.5735 
L 471.16615 135.200247 
L 472.182729 176.428027 
L 473.199308 112.478958 
L 474.215886 141.535378 
L 475.232465 123.474203 
L 476.249044 211.007476 
L 477.265622 189.14356 
L 478.282201 142.091561 
L 479.298779 152.09547 
L 480.315358 166.024073 
L 481.331937 164.733395 
L 482.348515 154.270313 
L 483.365094 204.370232 
L 484.381672 145.153341 
L 485.398251 129.016634 
L 486.41483 184.666377 
L 487.431408 163.600703 
L 488.447987 101.68697 
L 489.464565 157.649911 
L 490.481144 156.696454 
L 491.497723 149.005049 
L 492.514301 210.87536 
L 493.53088 154.436613 
L 494.547459 168.059408 
L 495.564037 200.869604 
L 496.580616 173.949223 
L 497.597194 187.436206 
L 498.613773 205.479827 
L 499.630352 187.3161 
L 500.64693 134.691182 
L 501.663509 137.230963 
L 502.680087 101.822782 
L 503.696666 175.40805 
L 504.713245 186.424544 
L 505.729823 173.259076 
L 506.746402 202.548316 
L 507.762981 150.340998 
L 508.779559 228.13552 
L 509.796138 184.377198 
L 510.812716 193.181894 
L 511.829295 151.393311 
L 512.845874 168.101908 
L 513.862452 189.156494 
L 514.879031 205.789331 
L 515.895609 122.198308 
L 516.912188 195.820531 
L 517.928767 184.015956 
L 518.945345 166.113691 
L 519.961924 206.791755 
L 520.978502 193.007278 
L 521.995081 131.592447 
L 523.01166 117.304449 
L 524.028238 157.312691 
L 525.044817 174.931321 
L 526.061396 137.240202 
L 527.077974 141.954825 
L 528.094553 158.061968 
L 529.111131 184.223832 
L 530.12771 192.915813 
L 531.144289 124.959822 
L 532.160867 191.338728 
L 533.177446 164.944967 
L 534.194024 168.89276 
L 535.210603 165.096485 
L 536.227182 216.954572 
L 537.24376 204.458002 
L 538.260339 202.652716 
L 539.276917 202.160281 
L 540.293496 177.934896 
L 541.310075 192.903802 
L 542.326653 200.222879 
L 543.343232 208.917631 
L 544.359811 107.493634 
L 545.376389 160.847503 
L 546.392968 173.652654 
L 547.409546 149.60096 
L 548.426125 93.336829 
L 549.442704 116.410121 
L 550.459282 95.04603 
L 551.475861 170.358053 
L 552.492439 192.682992 
L 553.509018 184.207202 
L 554.525597 186.161235 
L 555.542175 175.277781 
L 556.558754 125.104874 
L 557.575332 207.948468 
L 558.591911 166.616288 
L 559.60849 161.720582 
L 560.625068 192.328217 
L 561.641647 211.417684 
L 562.658226 212.048703 
L 563.674804 177.220727 
L 564.691383 161.363036 
L 565.707961 180.037675 
L 566.72454 167.731427 
L 567.741119 87.590218 
L 568.757697 219.031483 
L 569.774276 167.06992 
L 570.790854 150.73088 
L 571.807433 191.824696 
L 572.824012 202.103 
L 573.84059 156.775909 
L 574.857169 161.384285 
L 575.873747 197.045612 
L 576.890326 172.391541 
L 577.906905 131.245063 
L 578.923483 181.842037 
L 579.940062 178.143695 
L 580.956641 162.523445 
L 581.973219 167.722188 
L 582.989798 189.063181 
L 584.006376 203.088793 
L 585.022955 175.364627 
L 586.039534 87.297344 
L 587.056112 189.045627 
L 588.072691 192.571201 
L 589.089269 156.219726 
L 590.105848 141.40049 
L 591.122427 100.904433 
L 592.139005 164.891381 
L 593.155584 175.178 
L 594.172163 195.146089 
L 595.188741 177.712238 
L 596.20532 147.060255 
L 598.238477 193.019289 
L 599.255056 132.744541 
L 600.271634 187.594192 
L 601.288213 234.231362 
L 602.304791 153.599567 
L 603.32137 150.996961 
L 604.337949 166.630147 
L 605.354527 151.881127 
L 606.371106 201.59024 
L 607.387684 145.402792 
L 608.404263 157.846701 
L 609.420842 179.774366 
L 610.43742 141.227722 
L 611.453999 156.968079 
L 612.470578 175.674131 
L 613.487156 177.569034 
L 614.503735 183.082825 
L 615.520313 133.253606 
L 616.536892 122.915248 
L 617.553471 177.402734 
L 618.570049 167.386815 
L 619.586628 170.139091 
L 620.603206 144.3745 
L 621.619785 129.469342 
L 622.636364 202.352451 
L 622.636364 202.352451 
" clip-path="url(#pe3d002afcc)" style="fill: none; stroke: #1f77b4; stroke-width: 1.5; stroke-linecap: square"/>
   </g>
   <g id="line2d_28">
    <path d="M 115.363636 265.01269 
L 116.380215 133.479959 
L 117.396794 307.8 
L 118.413372 285.312456 
L 119.429951 284.407041 
L 120.446529 225.94959 
L 121.463108 252.409872 
L 122.479687 267.893386 
L 123.496265 259.619005 
L 124.512844 252.917089 
L 125.529422 234.949227 
L 126.546001 284.981703 
L 127.56258 213.136125 
L 128.579158 276.134508 
L 129.595737 249.32869 
L 130.612316 263.774674 
L 131.628894 213.850293 
L 132.645473 247.638891 
L 133.662051 265.836802 
L 134.67863 277.743005 
L 135.695209 301.500901 
L 136.711787 289.887572 
L 137.728366 265.655719 
L 138.744944 175.734184 
L 139.761523 261.88439 
L 140.778102 267.13949 
L 141.79468 230.19118 
L 142.811259 266.769933 
L 143.827837 296.715138 
L 144.844416 213.217427 
L 145.860995 245.751378 
L 146.877573 213.267317 
L 147.894152 236.789621 
L 148.910731 276.247223 
L 149.927309 294.417417 
L 150.943888 279.258188 
L 152.977045 233.533824 
L 153.993624 239.178807 
L 155.010202 254.726994 
L 156.026781 249.387819 
L 157.043359 280.285557 
L 158.059938 233.105138 
L 159.076517 247.040208 
L 160.093095 236.736035 
L 161.109674 270.308442 
L 162.126253 270.103337 
L 163.142831 292.267519 
L 164.15941 202.195389 
L 165.175988 270.207737 
L 166.192567 217.801782 
L 167.209146 278.604996 
L 168.225724 255.41899 
L 169.242303 229.051097 
L 170.258881 295.199954 
L 171.27546 279.017052 
L 172.292039 236.645494 
L 173.308617 245.930613 
L 174.325196 211.757677 
L 175.341774 282.461324 
L 176.358353 283.191199 
L 177.374932 248.826093 
L 178.39151 282.078832 
L 179.408089 245.134218 
L 180.424668 280.096159 
L 181.441246 265.916256 
L 182.457825 279.746004 
L 183.474403 248.705987 
L 184.490982 205.668301 
L 185.507561 248.022306 
L 186.524139 280.792774 
L 187.540718 231.211158 
L 188.557296 284.047647 
L 189.573875 291.168087 
L 190.590454 238.827728 
L 191.607032 275.424958 
L 192.623611 210.704439 
L 193.640189 271.552001 
L 194.656768 291.36118 
L 195.673347 278.278862 
L 196.689925 229.60728 
L 197.706504 265.328661 
L 198.723083 275.371373 
L 199.739661 265.20024 
L 200.75624 241.230772 
L 201.772818 282.012312 
L 202.789397 288.228261 
L 203.805976 273.381308 
L 204.822554 253.999891 
L 205.839133 240.402965 
L 206.855711 230.33346 
L 207.87229 296.323407 
L 208.888869 295.969556 
L 209.905447 303.885467 
L 210.922026 199.784954 
L 211.938604 195.117449 
L 212.955183 234.450325 
L 213.971762 256.958195 
L 214.98834 192.010398 
L 216.004919 264.372432 
L 217.021498 267.147805 
L 218.038076 265.895931 
L 219.054655 223.089219 
L 220.071233 295.778311 
L 221.087812 264.543352 
L 222.104391 283.88227 
L 223.120969 290.389245 
L 224.137548 276.331297 
L 225.154126 269.011296 
L 226.170705 268.744291 
L 227.187284 248.05649 
L 228.203862 275.259582 
L 229.220441 278.403588 
L 230.237019 246.086751 
L 231.253598 296.351124 
L 232.270177 269.040861 
L 233.286755 257.41275 
L 234.303334 267.599589 
L 235.319913 287.842998 
L 236.336491 260.939247 
L 237.35307 212.840479 
L 238.369648 284.460627 
L 239.386227 203.41308 
L 240.402806 257.13743 
L 241.419384 258.090887 
L 242.435963 246.126479 
L 243.452541 216.6811 
L 244.46912 265.451539 
L 245.485699 286.76112 
L 246.502277 297.277788 
L 247.518856 275.34458 
L 248.535435 202.452231 
L 249.552013 263.896627 
L 250.568592 259.369554 
L 251.58517 233.347197 
L 252.601749 194.367248 
L 253.618328 232.985031 
L 254.634906 266.468744 
L 255.651485 254.565313 
L 256.668063 174.212533 
L 257.684642 282.690449 
L 258.701221 280.011161 
L 259.717799 247.420852 
L 260.734378 241.756467 
L 261.750956 276.245375 
L 262.767535 251.442556 
L 263.784114 256.2237 
L 264.800692 215.109559 
L 265.817271 270.546806 
L 266.83385 269.484329 
L 267.850428 269.398407 
L 268.867007 272.945231 
L 269.883585 275.382459 
L 270.900164 262.848933 
L 271.916743 268.788638 
L 272.933321 270.073773 
L 273.9499 264.619111 
L 274.966478 219.222728 
L 275.983057 219.902713 
L 276.999636 292.443982 
L 278.016214 266.360649 
L 279.032793 274.295962 
L 280.049371 290.780976 
L 281.06595 287.813433 
L 282.082529 250.950122 
L 283.099107 259.905412 
L 284.115686 267.509047 
L 285.132265 283.778794 
L 286.148843 209.944076 
L 287.165422 230.528401 
L 288.182 210.697048 
L 289.198579 221.868757 
L 290.215158 273.079195 
L 291.231736 234.213809 
L 292.248315 272.693932 
L 293.264893 276.086465 
L 294.281472 222.664228 
L 295.298051 264.039831 
L 296.314629 212.870967 
L 297.331208 262.476605 
L 298.347786 259.332598 
L 299.364365 279.280362 
L 300.380944 273.584564 
L 301.397522 292.677727 
L 302.414101 250.683117 
L 303.43068 299.99126 
L 305.463837 232.247765 
L 306.480415 197.223924 
L 307.496994 264.033364 
L 308.513573 298.249723 
L 309.530151 220.601176 
L 310.54673 282.250676 
L 311.563308 236.246372 
L 312.579887 248.619141 
L 313.596466 199.501319 
L 314.613044 270.969949 
L 315.629623 268.44957 
L 316.646201 290.525058 
L 317.66278 183.217713 
L 318.679359 244.841344 
L 319.695937 225.513513 
L 320.712516 237.264502 
L 322.745673 163.051911 
L 323.762252 260.159482 
L 324.77883 229.319026 
L 325.795409 296.824157 
L 326.811988 301.552639 
L 327.828566 207.821895 
L 328.845145 275.289146 
L 329.861723 297.850601 
L 330.878302 257.313893 
L 331.894881 251.01387 
L 332.911459 280.460173 
L 333.928038 279.00227 
L 334.944617 235.054551 
L 335.961195 244.847811 
L 336.977774 214.254035 
L 337.994352 234.268318 
L 339.010931 245.054763 
L 340.02751 300.06702 
L 341.044088 292.232411 
L 342.060667 265.931963 
L 343.077245 289.100415 
L 344.093824 278.212342 
L 345.110403 259.01016 
L 346.126981 290.817932 
L 347.14356 287.901203 
L 348.160138 196.773064 
L 349.176717 189.626755 
L 350.193296 279.116833 
L 351.209874 267.89431 
L 352.226453 272.617249 
L 353.243032 298.567542 
L 354.25961 143.154962 
L 355.276189 264.416779 
L 356.292767 277.326329 
L 357.309346 277.494478 
L 358.325925 262.460898 
L 359.342503 261.660808 
L 360.359082 210.619441 
L 361.37566 227.18853 
L 362.392239 200.413201 
L 363.408818 295.577826 
L 364.425396 260.875499 
L 365.441975 168.454834 
L 366.458553 133.642564 
L 367.475132 198.550633 
L 368.491711 221.278389 
L 369.508289 171.113797 
L 370.524868 268.796029 
L 371.541447 278.911729 
L 372.558025 191.794207 
L 373.574604 267.432364 
L 374.591182 229.23218 
L 375.607761 196.341606 
L 376.62434 280.969237 
L 377.640918 224.050991 
L 378.657497 252.006131 
L 379.674075 293.989655 
L 380.690654 278.599453 
L 381.707233 268.85793 
L 382.723811 260.543821 
L 383.74039 260.110516 
L 384.756968 280.439847 
L 385.773547 281.834925 
L 386.790126 242.632317 
L 387.806704 267.826866 
L 388.823283 272.632955 
L 389.839862 273.968904 
L 390.85644 276.422762 
L 391.873019 265.215022 
L 392.889597 249.254779 
L 393.906176 282.53154 
L 394.922755 277.054705 
L 395.939333 215.136352 
L 396.955912 208.894534 
L 397.97249 240.287478 
L 398.989069 203.495306 
L 400.005648 269.161891 
L 401.022226 281.568844 
L 402.038805 247.403298 
L 403.055383 209.453489 
L 404.071962 266.136143 
L 405.088541 223.21764 
L 406.105119 264.425094 
L 407.121698 291.661445 
L 408.138277 286.358302 
L 409.154855 258.0798 
L 410.171434 159.333244 
L 411.188012 273.431198 
L 412.204591 251.848145 
L 413.22117 294.665944 
L 414.237748 280.035182 
L 415.254327 297.420991 
L 416.270905 234.448477 
L 417.287484 268.104034 
L 418.304063 269.99709 
L 419.320641 289.296281 
L 420.33722 209.914511 
L 421.353799 276.102172 
L 422.370377 242.127872 
L 423.386956 271.268366 
L 424.403534 290.046481 
L 425.420113 207.34609 
L 427.45327 251.341852 
L 428.469849 266.412387 
L 429.486427 284.306337 
L 430.503006 263.655491 
L 431.519585 210.971444 
L 432.536163 243.94794 
L 433.552742 256.259732 
L 434.56932 270.162466 
L 435.585899 280.133115 
L 436.602478 265.709305 
L 437.619056 278.315818 
L 438.635635 237.336565 
L 439.652214 241.127296 
L 440.668792 199.655609 
L 441.685371 223.351604 
L 442.701949 215.730415 
L 443.718528 260.844087 
L 444.735107 251.667062 
L 445.751685 256.021368 
L 446.768264 274.283027 
L 447.784842 255.08916 
L 448.801421 278.732494 
L 449.818 223.477254 
L 450.834578 276.169616 
L 451.851157 255.816263 
L 452.867735 242.19162 
L 453.884314 265.433985 
L 454.900893 254.940413 
L 455.917471 287.616644 
L 456.93405 287.367193 
L 457.950629 289.857083 
L 458.967207 271.672107 
L 459.983786 281.046844 
L 461.000364 265.631698 
L 462.016943 256.503639 
L 463.033522 216.05932 
L 464.0501 296.118303 
L 465.066679 277.794743 
L 466.083257 246.290008 
L 467.099836 284.147428 
L 468.116415 242.161132 
L 469.132993 254.905305 
L 470.149572 293.85569 
L 471.16615 275.550608 
L 472.182729 288.999711 
L 473.199308 119.912598 
L 474.215886 259.476726 
L 475.232465 285.548049 
L 476.249044 283.559832 
L 477.265622 267.72339 
L 478.282201 210.015216 
L 479.298779 241.66223 
L 480.315358 256.381686 
L 481.331937 292.121544 
L 482.348515 267.459157 
L 483.365094 287.036439 
L 484.381672 285.317999 
L 485.398251 283.915531 
L 486.41483 253.185941 
L 488.447987 293.56836 
L 489.464565 259.804707 
L 490.481144 249.770311 
L 491.497723 270.177249 
L 492.514301 212.591028 
L 493.53088 260.038452 
L 494.547459 263.724783 
L 495.564037 257.377642 
L 496.580616 234.290492 
L 497.597194 274.695083 
L 498.613773 246.163434 
L 499.630352 273.257506 
L 500.64693 267.370463 
L 501.663509 219.052732 
L 502.680087 260.467138 
L 503.696666 275.997772 
L 504.713245 266.086253 
L 505.729823 289.007102 
L 506.746402 269.66726 
L 507.762981 275.125617 
L 508.779559 293.999817 
L 509.796138 285.493539 
L 510.812716 264.723511 
L 511.829295 280.806632 
L 512.845874 277.695886 
L 513.862452 277.812297 
L 514.879031 246.334355 
L 515.895609 234.258155 
L 516.912188 272.09525 
L 517.928767 269.760573 
L 518.945345 223.637087 
L 519.961924 201.96996 
L 520.978502 268.921679 
L 521.995081 288.063808 
L 523.01166 288.92118 
L 524.028238 286.258522 
L 525.044817 270.692781 
L 526.061396 260.580777 
L 527.077974 206.437904 
L 528.094553 283.641134 
L 529.111131 262.882193 
L 530.12771 199.695336 
L 531.144289 232.128583 
L 532.160867 249.076468 
L 533.177446 291.925679 
L 534.194024 216.582244 
L 535.210603 216.569309 
L 536.227182 267.708608 
L 537.24376 238.674362 
L 538.260339 283.015659 
L 539.276917 274.828124 
L 540.293496 224.642282 
L 541.310075 273.919013 
L 542.326653 275.817613 
L 543.343232 275.766799 
L 544.359811 289.340627 
L 545.376389 299.026717 
L 546.392968 289.143838 
L 547.409546 265.960603 
L 548.426125 286.851661 
L 549.442704 284.347912 
L 550.459282 264.136839 
L 551.475861 260.820065 
L 552.492439 295.566739 
L 553.509018 264.176567 
L 554.525597 274.384655 
L 555.542175 277.856643 
L 556.558754 228.858927 
L 557.575332 243.958103 
L 558.591911 274.579597 
L 559.60849 285.991517 
L 560.625068 294.81931 
L 561.641647 263.18985 
L 562.658226 245.980504 
L 563.674804 225.048795 
L 564.691383 261.494507 
L 565.707961 281.245481 
L 566.72454 285.268109 
L 567.741119 251.157073 
L 568.757697 283.28174 
L 569.774276 268.153 
L 570.790854 274.499218 
L 571.807433 295.974176 
L 572.824012 264.729978 
L 573.84059 291.602316 
L 574.857169 293.594229 
L 575.873747 242.93443 
L 576.890326 256.503639 
L 577.906905 260.429259 
L 578.923483 257.364707 
L 579.940062 290.02246 
L 580.956641 215.743349 
L 581.973219 188.17994 
L 582.989798 235.450901 
L 584.006376 291.635576 
L 585.022955 229.549075 
L 586.039534 295.611086 
L 587.056112 281.106897 
L 588.072691 252.481011 
L 589.089269 260.274969 
L 590.105848 281.228851 
L 591.122427 266.678468 
L 592.139005 249.6539 
L 593.155584 222.439722 
L 594.172163 292.563165 
L 595.188741 183.274071 
L 596.20532 239.531734 
L 597.221898 280.012085 
L 598.238477 234.790317 
L 599.255056 221.303334 
L 600.271634 276.171463 
L 601.288213 269.578566 
L 602.304791 246.518209 
L 603.32137 256.876892 
L 604.337949 278.095008 
L 605.354527 219.601524 
L 606.371106 245.225683 
L 607.387684 215.136352 
L 608.404263 274.562043 
L 610.43742 275.729843 
L 611.453999 144.934379 
L 612.470578 250.73855 
L 613.487156 280.044421 
L 614.503735 298.223854 
L 615.520313 277.262581 
L 616.536892 236.615929 
L 617.553471 273.675106 
L 618.570049 227.528522 
L 619.586628 163.242233 
L 620.603206 223.97246 
L 621.619785 294.457144 
L 622.636364 272.694856 
L 622.636364 272.694856 
" clip-path="url(#pe3d002afcc)" style="fill: none; stroke: #ff7f0e; stroke-width: 1.5; stroke-linecap: square"/>
   </g>
   <g id="patch_3">
    <path d="M 90 320.4 
L 90 43.2 
" style="fill: none; stroke: #000000; stroke-width: 0.8; stroke-linejoin: miter; stroke-linecap: square"/>
   </g>
   <g id="patch_4">
    <path d="M 648 320.4 
L 648 43.2 
" style="fill: none; stroke: #000000; stroke-width: 0.8; stroke-linejoin: miter; stroke-linecap: square"/>
   </g>
   <g id="patch_5">
    <path d="M 90 320.4 
L 648 320.4 
" style="fill: none; stroke: #000000; stroke-width: 0.8; stroke-linejoin: miter; stroke-linecap: square"/>
   </g>
   <g id="patch_6">
    <path d="M 90 43.2 
L 648 43.2 
" style="fill: none; stroke: #000000; stroke-width: 0.8; stroke-linejoin: miter; stroke-linecap: square"/>
   </g>
   <g id="text_16">
    <!-- model train and validation loss over time -->
    <g transform="translate(245.555625 37.2) scale(0.12 -0.12)">
     <defs>
      <path id="DejaVuSans-6d" d="M 3328 2828 
Q 3544 3216 3844 3400 
Q 4144 3584 4550 3584 
Q 5097 3584 5394 3201 
Q 5691 2819 5691 2113 
L 5691 0 
L 5113 0 
L 5113 2094 
Q 5113 2597 4934 2840 
Q 4756 3084 4391 3084 
Q 3944 3084 3684 2787 
Q 3425 2491 3425 1978 
L 3425 0 
L 2847 0 
L 2847 2094 
Q 2847 2600 2669 2842 
Q 2491 3084 2119 3084 
Q 1678 3084 1418 2786 
Q 1159 2488 1159 1978 
L 1159 0 
L 581 0 
L 581 3500 
L 1159 3500 
L 1159 2956 
Q 1356 3278 1631 3431 
Q 1906 3584 2284 3584 
Q 2666 3584 2933 3390 
Q 3200 3197 3328 2828 
z
" transform="scale(0.015625)"/>
      <path id="DejaVuSans-64" d="M 2906 2969 
L 2906 4863 
L 3481 4863 
L 3481 0 
L 2906 0 
L 2906 525 
Q 2725 213 2448 61 
Q 2172 -91 1784 -91 
Q 1150 -91 751 415 
Q 353 922 353 1747 
Q 353 2572 751 3078 
Q 1150 3584 1784 3584 
Q 2172 3584 2448 3432 
Q 2725 3281 2906 2969 
z
M 947 1747 
Q 947 1113 1208 752 
Q 1469 391 1925 391 
Q 2381 391 2643 752 
Q 2906 1113 2906 1747 
Q 2906 2381 2643 2742 
Q 2381 3103 1925 3103 
Q 1469 3103 1208 2742 
Q 947 2381 947 1747 
z
" transform="scale(0.015625)"/>
      <path id="DejaVuSans-20" transform="scale(0.015625)"/>
      <path id="DejaVuSans-74" d="M 1172 4494 
L 1172 3500 
L 2356 3500 
L 2356 3053 
L 1172 3053 
L 1172 1153 
Q 1172 725 1289 603 
Q 1406 481 1766 481 
L 2356 481 
L 2356 0 
L 1766 0 
Q 1100 0 847 248 
Q 594 497 594 1153 
L 594 3053 
L 172 3053 
L 172 3500 
L 594 3500 
L 594 4494 
L 1172 4494 
z
" transform="scale(0.015625)"/>
      <path id="DejaVuSans-72" d="M 2631 2963 
Q 2534 3019 2420 3045 
Q 2306 3072 2169 3072 
Q 1681 3072 1420 2755 
Q 1159 2438 1159 1844 
L 1159 0 
L 581 0 
L 581 3500 
L 1159 3500 
L 1159 2956 
Q 1341 3275 1631 3429 
Q 1922 3584 2338 3584 
Q 2397 3584 2469 3576 
Q 2541 3569 2628 3553 
L 2631 2963 
z
" transform="scale(0.015625)"/>
      <path id="DejaVuSans-61" d="M 2194 1759 
Q 1497 1759 1228 1600 
Q 959 1441 959 1056 
Q 959 750 1161 570 
Q 1363 391 1709 391 
Q 2188 391 2477 730 
Q 2766 1069 2766 1631 
L 2766 1759 
L 2194 1759 
z
M 3341 1997 
L 3341 0 
L 2766 0 
L 2766 531 
Q 2569 213 2275 61 
Q 1981 -91 1556 -91 
Q 1019 -91 701 211 
Q 384 513 384 1019 
Q 384 1609 779 1909 
Q 1175 2209 1959 2209 
L 2766 2209 
L 2766 2266 
Q 2766 2663 2505 2880 
Q 2244 3097 1772 3097 
Q 1472 3097 1187 3025 
Q 903 2953 641 2809 
L 641 3341 
Q 956 3463 1253 3523 
Q 1550 3584 1831 3584 
Q 2591 3584 2966 3190 
Q 3341 2797 3341 1997 
z
" transform="scale(0.015625)"/>
      <path id="DejaVuSans-69" d="M 603 3500 
L 1178 3500 
L 1178 0 
L 603 0 
L 603 3500 
z
M 603 4863 
L 1178 4863 
L 1178 4134 
L 603 4134 
L 603 4863 
z
" transform="scale(0.015625)"/>
      <path id="DejaVuSans-6e" d="M 3513 2113 
L 3513 0 
L 2938 0 
L 2938 2094 
Q 2938 2591 2744 2837 
Q 2550 3084 2163 3084 
Q 1697 3084 1428 2787 
Q 1159 2491 1159 1978 
L 1159 0 
L 581 0 
L 581 3500 
L 1159 3500 
L 1159 2956 
Q 1366 3272 1645 3428 
Q 1925 3584 2291 3584 
Q 2894 3584 3203 3211 
Q 3513 2838 3513 2113 
z
" transform="scale(0.015625)"/>
      <path id="DejaVuSans-76" d="M 191 3500 
L 800 3500 
L 1894 563 
L 2988 3500 
L 3597 3500 
L 2284 0 
L 1503 0 
L 191 3500 
z
" transform="scale(0.015625)"/>
     </defs>
     <use xlink:href="#DejaVuSans-6d"/>
     <use xlink:href="#DejaVuSans-6f" x="97.412109"/>
     <use xlink:href="#DejaVuSans-64" x="158.59375"/>
     <use xlink:href="#DejaVuSans-65" x="222.070312"/>
     <use xlink:href="#DejaVuSans-6c" x="283.59375"/>
     <use xlink:href="#DejaVuSans-20" x="311.376953"/>
     <use xlink:href="#DejaVuSans-74" x="343.164062"/>
     <use xlink:href="#DejaVuSans-72" x="382.373047"/>
     <use xlink:href="#DejaVuSans-61" x="423.486328"/>
     <use xlink:href="#DejaVuSans-69" x="484.765625"/>
     <use xlink:href="#DejaVuSans-6e" x="512.548828"/>
     <use xlink:href="#DejaVuSans-20" x="575.927734"/>
     <use xlink:href="#DejaVuSans-61" x="607.714844"/>
     <use xlink:href="#DejaVuSans-6e" x="668.994141"/>
     <use xlink:href="#DejaVuSans-64" x="732.373047"/>
     <use xlink:href="#DejaVuSans-20" x="795.849609"/>
     <use xlink:href="#DejaVuSans-76" x="827.636719"/>
     <use xlink:href="#DejaVuSans-61" x="886.816406"/>
     <use xlink:href="#DejaVuSans-6c" x="948.095703"/>
     <use xlink:href="#DejaVuSans-69" x="975.878906"/>
     <use xlink:href="#DejaVuSans-64" x="1003.662109"/>
     <use xlink:href="#DejaVuSans-61" x="1067.138672"/>
     <use xlink:href="#DejaVuSans-74" x="1128.417969"/>
     <use xlink:href="#DejaVuSans-69" x="1167.626953"/>
     <use xlink:href="#DejaVuSans-6f" x="1195.410156"/>
     <use xlink:href="#DejaVuSans-6e" x="1256.591797"/>
     <use xlink:href="#DejaVuSans-20" x="1319.970703"/>
     <use xlink:href="#DejaVuSans-6c" x="1351.757812"/>
     <use xlink:href="#DejaVuSans-6f" x="1379.541016"/>
     <use xlink:href="#DejaVuSans-73" x="1440.722656"/>
     <use xlink:href="#DejaVuSans-73" x="1492.822266"/>
     <use xlink:href="#DejaVuSans-20" x="1544.921875"/>
     <use xlink:href="#DejaVuSans-6f" x="1576.708984"/>
     <use xlink:href="#DejaVuSans-76" x="1637.890625"/>
     <use xlink:href="#DejaVuSans-65" x="1697.070312"/>
     <use xlink:href="#DejaVuSans-72" x="1758.59375"/>
     <use xlink:href="#DejaVuSans-20" x="1799.707031"/>
     <use xlink:href="#DejaVuSans-74" x="1831.494141"/>
     <use xlink:href="#DejaVuSans-69" x="1870.703125"/>
     <use xlink:href="#DejaVuSans-6d" x="1898.486328"/>
     <use xlink:href="#DejaVuSans-65" x="1995.898438"/>
    </g>
   </g>
   <g id="legend_1">
    <g id="patch_7">
     <path d="M 559.765625 80.55625 
L 641 80.55625 
Q 643 80.55625 643 78.55625 
L 643 50.2 
Q 643 48.2 641 48.2 
L 559.765625 48.2 
Q 557.765625 48.2 557.765625 50.2 
L 557.765625 78.55625 
Q 557.765625 80.55625 559.765625 80.55625 
z
" style="fill: #ffffff; opacity: 0.8; stroke: #cccccc; stroke-linejoin: miter"/>
    </g>
    <g id="line2d_29">
     <path d="M 561.765625 56.298437 
L 571.765625 56.298437 
L 581.765625 56.298437 
" style="fill: none; stroke: #1f77b4; stroke-width: 1.5; stroke-linecap: square"/>
    </g>
    <g id="text_17">
     <!-- train -->
     <g transform="translate(589.765625 59.798437) scale(0.1 -0.1)">
      <use xlink:href="#DejaVuSans-74"/>
      <use xlink:href="#DejaVuSans-72" x="39.208984"/>
      <use xlink:href="#DejaVuSans-61" x="80.322266"/>
      <use xlink:href="#DejaVuSans-69" x="141.601562"/>
      <use xlink:href="#DejaVuSans-6e" x="169.384766"/>
     </g>
    </g>
    <g id="line2d_30">
     <path d="M 561.765625 70.976562 
L 571.765625 70.976562 
L 581.765625 70.976562 
" style="fill: none; stroke: #ff7f0e; stroke-width: 1.5; stroke-linecap: square"/>
    </g>
    <g id="text_18">
     <!-- validation -->
     <g transform="translate(589.765625 74.476562) scale(0.1 -0.1)">
      <use xlink:href="#DejaVuSans-76"/>
      <use xlink:href="#DejaVuSans-61" x="59.179688"/>
      <use xlink:href="#DejaVuSans-6c" x="120.458984"/>
      <use xlink:href="#DejaVuSans-69" x="148.242188"/>
      <use xlink:href="#DejaVuSans-64" x="176.025391"/>
      <use xlink:href="#DejaVuSans-61" x="239.501953"/>
      <use xlink:href="#DejaVuSans-74" x="300.78125"/>
      <use xlink:href="#DejaVuSans-69" x="339.990234"/>
      <use xlink:href="#DejaVuSans-6f" x="367.773438"/>
      <use xlink:href="#DejaVuSans-6e" x="428.955078"/>
     </g>
    </g>
   </g>
  </g>
 </g>
 <defs>
  <clipPath id="pe3d002afcc">
   <rect x="90" y="43.2" width="558" height="277.2"/>
  </clipPath>
 </defs>
</svg>
