<?xml version="1.0" encoding="utf-8" standalone="no"?>
<!DOCTYPE svg PUBLIC "-//W3C//DTD SVG 1.1//EN"
  "http://www.w3.org/Graphics/SVG/1.1/DTD/svg11.dtd">
<svg xmlns:xlink="http://www.w3.org/1999/xlink" width="720pt" height="360pt" viewBox="0 0 720 360" xmlns="http://www.w3.org/2000/svg" version="1.1">
 <metadata>
  <rdf:RDF xmlns:dc="http://purl.org/dc/elements/1.1/" xmlns:cc="http://creativecommons.org/ns#" xmlns:rdf="http://www.w3.org/1999/02/22-rdf-syntax-ns#">
   <cc:Work>
    <dc:type rdf:resource="http://purl.org/dc/dcmitype/StillImage"/>
    <dc:date>2023-05-24T11:46:56.452321</dc:date>
    <dc:format>image/svg+xml</dc:format>
    <dc:creator>
     <cc:Agent>
      <dc:title>Matplotlib v3.7.1, https://matplotlib.org/</dc:title>
     </cc:Agent>
    </dc:creator>
   </cc:Work>
  </rdf:RDF>
 </metadata>
 <defs>
  <style type="text/css">*{stroke-linejoin: round; stroke-linecap: butt}</style>
 </defs>
 <g id="figure_1">
  <g id="patch_1">
   <path d="M 0 360 
L 720 360 
L 720 0 
L 0 0 
z
" style="fill: #ffffff"/>
  </g>
  <g id="axes_1">
   <g id="patch_2">
    <path d="M 90 320.4 
L 648 320.4 
L 648 43.2 
L 90 43.2 
z
" style="fill: #ffffff"/>
   </g>
   <g id="matplotlib.axis_1">
    <g id="xtick_1">
     <g id="line2d_1">
      <path d="M 115.363636 320.4 
L 115.363636 43.2 
" clip-path="url(#p3638f09381)" style="fill: none; stroke: #b0b0b0; stroke-width: 0.8; stroke-linecap: square"/>
     </g>
     <g id="line2d_2">
      <defs>
       <path id="m44c1c3e4a7" d="M 0 0 
L 0 3.5 
" style="stroke: #000000; stroke-width: 0.8"/>
      </defs>
      <g>
       <use xlink:href="#m44c1c3e4a7" x="115.363636" y="320.4" style="stroke: #000000; stroke-width: 0.8"/>
      </g>
     </g>
     <g id="text_1">
      <!-- 0 -->
      <g transform="translate(112.182386 334.998438) scale(0.1 -0.1)">
       <defs>
        <path id="DejaVuSans-30" d="M 2034 4250 
Q 1547 4250 1301 3770 
Q 1056 3291 1056 2328 
Q 1056 1369 1301 889 
Q 1547 409 2034 409 
Q 2525 409 2770 889 
Q 3016 1369 3016 2328 
Q 3016 3291 2770 3770 
Q 2525 4250 2034 4250 
z
M 2034 4750 
Q 2819 4750 3233 4129 
Q 3647 3509 3647 2328 
Q 3647 1150 3233 529 
Q 2819 -91 2034 -91 
Q 1250 -91 836 529 
Q 422 1150 422 2328 
Q 422 3509 836 4129 
Q 1250 4750 2034 4750 
z
" transform="scale(0.015625)"/>
       </defs>
       <use xlink:href="#DejaVuSans-30"/>
      </g>
     </g>
    </g>
    <g id="xtick_2">
     <g id="line2d_3">
      <path d="M 217.021498 320.4 
L 217.021498 43.2 
" clip-path="url(#p3638f09381)" style="fill: none; stroke: #b0b0b0; stroke-width: 0.8; stroke-linecap: square"/>
     </g>
     <g id="line2d_4">
      <g>
       <use xlink:href="#m44c1c3e4a7" x="217.021498" y="320.4" style="stroke: #000000; stroke-width: 0.8"/>
      </g>
     </g>
     <g id="text_2">
      <!-- 100 -->
      <g transform="translate(207.477748 334.998438) scale(0.1 -0.1)">
       <defs>
        <path id="DejaVuSans-31" d="M 794 531 
L 1825 531 
L 1825 4091 
L 703 3866 
L 703 4441 
L 1819 4666 
L 2450 4666 
L 2450 531 
L 3481 531 
L 3481 0 
L 794 0 
L 794 531 
z
" transform="scale(0.015625)"/>
       </defs>
       <use xlink:href="#DejaVuSans-31"/>
       <use xlink:href="#DejaVuSans-30" x="63.623047"/>
       <use xlink:href="#DejaVuSans-30" x="127.246094"/>
      </g>
     </g>
    </g>
    <g id="xtick_3">
     <g id="line2d_5">
      <path d="M 318.679359 320.4 
L 318.679359 43.2 
" clip-path="url(#p3638f09381)" style="fill: none; stroke: #b0b0b0; stroke-width: 0.8; stroke-linecap: square"/>
     </g>
     <g id="line2d_6">
      <g>
       <use xlink:href="#m44c1c3e4a7" x="318.679359" y="320.4" style="stroke: #000000; stroke-width: 0.8"/>
      </g>
     </g>
     <g id="text_3">
      <!-- 200 -->
      <g transform="translate(309.135609 334.998438) scale(0.1 -0.1)">
       <defs>
        <path id="DejaVuSans-32" d="M 1228 531 
L 3431 531 
L 3431 0 
L 469 0 
L 469 531 
Q 828 903 1448 1529 
Q 2069 2156 2228 2338 
Q 2531 2678 2651 2914 
Q 2772 3150 2772 3378 
Q 2772 3750 2511 3984 
Q 2250 4219 1831 4219 
Q 1534 4219 1204 4116 
Q 875 4013 500 3803 
L 500 4441 
Q 881 4594 1212 4672 
Q 1544 4750 1819 4750 
Q 2544 4750 2975 4387 
Q 3406 4025 3406 3419 
Q 3406 3131 3298 2873 
Q 3191 2616 2906 2266 
Q 2828 2175 2409 1742 
Q 1991 1309 1228 531 
z
" transform="scale(0.015625)"/>
       </defs>
       <use xlink:href="#DejaVuSans-32"/>
       <use xlink:href="#DejaVuSans-30" x="63.623047"/>
       <use xlink:href="#DejaVuSans-30" x="127.246094"/>
      </g>
     </g>
    </g>
    <g id="xtick_4">
     <g id="line2d_7">
      <path d="M 420.33722 320.4 
L 420.33722 43.2 
" clip-path="url(#p3638f09381)" style="fill: none; stroke: #b0b0b0; stroke-width: 0.8; stroke-linecap: square"/>
     </g>
     <g id="line2d_8">
      <g>
       <use xlink:href="#m44c1c3e4a7" x="420.33722" y="320.4" style="stroke: #000000; stroke-width: 0.8"/>
      </g>
     </g>
     <g id="text_4">
      <!-- 300 -->
      <g transform="translate(410.79347 334.998438) scale(0.1 -0.1)">
       <defs>
        <path id="DejaVuSans-33" d="M 2597 2516 
Q 3050 2419 3304 2112 
Q 3559 1806 3559 1356 
Q 3559 666 3084 287 
Q 2609 -91 1734 -91 
Q 1441 -91 1130 -33 
Q 819 25 488 141 
L 488 750 
Q 750 597 1062 519 
Q 1375 441 1716 441 
Q 2309 441 2620 675 
Q 2931 909 2931 1356 
Q 2931 1769 2642 2001 
Q 2353 2234 1838 2234 
L 1294 2234 
L 1294 2753 
L 1863 2753 
Q 2328 2753 2575 2939 
Q 2822 3125 2822 3475 
Q 2822 3834 2567 4026 
Q 2313 4219 1838 4219 
Q 1578 4219 1281 4162 
Q 984 4106 628 3988 
L 628 4550 
Q 988 4650 1302 4700 
Q 1616 4750 1894 4750 
Q 2613 4750 3031 4423 
Q 3450 4097 3450 3541 
Q 3450 3153 3228 2886 
Q 3006 2619 2597 2516 
z
" transform="scale(0.015625)"/>
       </defs>
       <use xlink:href="#DejaVuSans-33"/>
       <use xlink:href="#DejaVuSans-30" x="63.623047"/>
       <use xlink:href="#DejaVuSans-30" x="127.246094"/>
      </g>
     </g>
    </g>
    <g id="xtick_5">
     <g id="line2d_9">
      <path d="M 521.995081 320.4 
L 521.995081 43.2 
" clip-path="url(#p3638f09381)" style="fill: none; stroke: #b0b0b0; stroke-width: 0.8; stroke-linecap: square"/>
     </g>
     <g id="line2d_10">
      <g>
       <use xlink:href="#m44c1c3e4a7" x="521.995081" y="320.4" style="stroke: #000000; stroke-width: 0.8"/>
      </g>
     </g>
     <g id="text_5">
      <!-- 400 -->
      <g transform="translate(512.451331 334.998438) scale(0.1 -0.1)">
       <defs>
        <path id="DejaVuSans-34" d="M 2419 4116 
L 825 1625 
L 2419 1625 
L 2419 4116 
z
M 2253 4666 
L 3047 4666 
L 3047 1625 
L 3713 1625 
L 3713 1100 
L 3047 1100 
L 3047 0 
L 2419 0 
L 2419 1100 
L 313 1100 
L 313 1709 
L 2253 4666 
z
" transform="scale(0.015625)"/>
       </defs>
       <use xlink:href="#DejaVuSans-34"/>
       <use xlink:href="#DejaVuSans-30" x="63.623047"/>
       <use xlink:href="#DejaVuSans-30" x="127.246094"/>
      </g>
     </g>
    </g>
    <g id="xtick_6">
     <g id="line2d_11">
      <path d="M 623.652942 320.4 
L 623.652942 43.2 
" clip-path="url(#p3638f09381)" style="fill: none; stroke: #b0b0b0; stroke-width: 0.8; stroke-linecap: square"/>
     </g>
     <g id="line2d_12">
      <g>
       <use xlink:href="#m44c1c3e4a7" x="623.652942" y="320.4" style="stroke: #000000; stroke-width: 0.8"/>
      </g>
     </g>
     <g id="text_6">
      <!-- 500 -->
      <g transform="translate(614.109192 334.998438) scale(0.1 -0.1)">
       <defs>
        <path id="DejaVuSans-35" d="M 691 4666 
L 3169 4666 
L 3169 4134 
L 1269 4134 
L 1269 2991 
Q 1406 3038 1543 3061 
Q 1681 3084 1819 3084 
Q 2600 3084 3056 2656 
Q 3513 2228 3513 1497 
Q 3513 744 3044 326 
Q 2575 -91 1722 -91 
Q 1428 -91 1123 -41 
Q 819 9 494 109 
L 494 744 
Q 775 591 1075 516 
Q 1375 441 1709 441 
Q 2250 441 2565 725 
Q 2881 1009 2881 1497 
Q 2881 1984 2565 2268 
Q 2250 2553 1709 2553 
Q 1456 2553 1204 2497 
Q 953 2441 691 2322 
L 691 4666 
z
" transform="scale(0.015625)"/>
       </defs>
       <use xlink:href="#DejaVuSans-35"/>
       <use xlink:href="#DejaVuSans-30" x="63.623047"/>
       <use xlink:href="#DejaVuSans-30" x="127.246094"/>
      </g>
     </g>
    </g>
    <g id="text_7">
     <!-- epoch -->
     <g transform="translate(353.771875 348.676562) scale(0.1 -0.1)">
      <defs>
       <path id="DejaVuSans-65" d="M 3597 1894 
L 3597 1613 
L 953 1613 
Q 991 1019 1311 708 
Q 1631 397 2203 397 
Q 2534 397 2845 478 
Q 3156 559 3463 722 
L 3463 178 
Q 3153 47 2828 -22 
Q 2503 -91 2169 -91 
Q 1331 -91 842 396 
Q 353 884 353 1716 
Q 353 2575 817 3079 
Q 1281 3584 2069 3584 
Q 2775 3584 3186 3129 
Q 3597 2675 3597 1894 
z
M 3022 2063 
Q 3016 2534 2758 2815 
Q 2500 3097 2075 3097 
Q 1594 3097 1305 2825 
Q 1016 2553 972 2059 
L 3022 2063 
z
" transform="scale(0.015625)"/>
       <path id="DejaVuSans-70" d="M 1159 525 
L 1159 -1331 
L 581 -1331 
L 581 3500 
L 1159 3500 
L 1159 2969 
Q 1341 3281 1617 3432 
Q 1894 3584 2278 3584 
Q 2916 3584 3314 3078 
Q 3713 2572 3713 1747 
Q 3713 922 3314 415 
Q 2916 -91 2278 -91 
Q 1894 -91 1617 61 
Q 1341 213 1159 525 
z
M 3116 1747 
Q 3116 2381 2855 2742 
Q 2594 3103 2138 3103 
Q 1681 3103 1420 2742 
Q 1159 2381 1159 1747 
Q 1159 1113 1420 752 
Q 1681 391 2138 391 
Q 2594 391 2855 752 
Q 3116 1113 3116 1747 
z
" transform="scale(0.015625)"/>
       <path id="DejaVuSans-6f" d="M 1959 3097 
Q 1497 3097 1228 2736 
Q 959 2375 959 1747 
Q 959 1119 1226 758 
Q 1494 397 1959 397 
Q 2419 397 2687 759 
Q 2956 1122 2956 1747 
Q 2956 2369 2687 2733 
Q 2419 3097 1959 3097 
z
M 1959 3584 
Q 2709 3584 3137 3096 
Q 3566 2609 3566 1747 
Q 3566 888 3137 398 
Q 2709 -91 1959 -91 
Q 1206 -91 779 398 
Q 353 888 353 1747 
Q 353 2609 779 3096 
Q 1206 3584 1959 3584 
z
" transform="scale(0.015625)"/>
       <path id="DejaVuSans-63" d="M 3122 3366 
L 3122 2828 
Q 2878 2963 2633 3030 
Q 2388 3097 2138 3097 
Q 1578 3097 1268 2742 
Q 959 2388 959 1747 
Q 959 1106 1268 751 
Q 1578 397 2138 397 
Q 2388 397 2633 464 
Q 2878 531 3122 666 
L 3122 134 
Q 2881 22 2623 -34 
Q 2366 -91 2075 -91 
Q 1284 -91 818 406 
Q 353 903 353 1747 
Q 353 2603 823 3093 
Q 1294 3584 2113 3584 
Q 2378 3584 2631 3529 
Q 2884 3475 3122 3366 
z
" transform="scale(0.015625)"/>
       <path id="DejaVuSans-68" d="M 3513 2113 
L 3513 0 
L 2938 0 
L 2938 2094 
Q 2938 2591 2744 2837 
Q 2550 3084 2163 3084 
Q 1697 3084 1428 2787 
Q 1159 2491 1159 1978 
L 1159 0 
L 581 0 
L 581 4863 
L 1159 4863 
L 1159 2956 
Q 1366 3272 1645 3428 
Q 1925 3584 2291 3584 
Q 2894 3584 3203 3211 
Q 3513 2838 3513 2113 
z
" transform="scale(0.015625)"/>
      </defs>
      <use xlink:href="#DejaVuSans-65"/>
      <use xlink:href="#DejaVuSans-70" x="61.523438"/>
      <use xlink:href="#DejaVuSans-6f" x="125"/>
      <use xlink:href="#DejaVuSans-63" x="186.181641"/>
      <use xlink:href="#DejaVuSans-68" x="241.162109"/>
     </g>
    </g>
   </g>
   <g id="matplotlib.axis_2">
    <g id="ytick_1">
     <g id="line2d_13">
      <path d="M 90 298.671489 
L 648 298.671489 
" clip-path="url(#p3638f09381)" style="fill: none; stroke: #b0b0b0; stroke-width: 0.8; stroke-linecap: square"/>
     </g>
     <g id="line2d_14">
      <defs>
       <path id="m0bbe4de459" d="M 0 0 
L -3.5 0 
" style="stroke: #000000; stroke-width: 0.8"/>
      </defs>
      <g>
       <use xlink:href="#m0bbe4de459" x="90" y="298.671489" style="stroke: #000000; stroke-width: 0.8"/>
      </g>
     </g>
     <g id="text_8">
      <!-- 0.34 -->
      <g transform="translate(60.734375 302.470708) scale(0.1 -0.1)">
       <defs>
        <path id="DejaVuSans-2e" d="M 684 794 
L 1344 794 
L 1344 0 
L 684 0 
L 684 794 
z
" transform="scale(0.015625)"/>
       </defs>
       <use xlink:href="#DejaVuSans-30"/>
       <use xlink:href="#DejaVuSans-2e" x="63.623047"/>
       <use xlink:href="#DejaVuSans-33" x="95.410156"/>
       <use xlink:href="#DejaVuSans-34" x="159.033203"/>
      </g>
     </g>
    </g>
    <g id="ytick_2">
     <g id="line2d_15">
      <path d="M 90 261.562811 
L 648 261.562811 
" clip-path="url(#p3638f09381)" style="fill: none; stroke: #b0b0b0; stroke-width: 0.8; stroke-linecap: square"/>
     </g>
     <g id="line2d_16">
      <g>
       <use xlink:href="#m0bbe4de459" x="90" y="261.562811" style="stroke: #000000; stroke-width: 0.8"/>
      </g>
     </g>
     <g id="text_9">
      <!-- 0.35 -->
      <g transform="translate(60.734375 265.36203) scale(0.1 -0.1)">
       <use xlink:href="#DejaVuSans-30"/>
       <use xlink:href="#DejaVuSans-2e" x="63.623047"/>
       <use xlink:href="#DejaVuSans-33" x="95.410156"/>
       <use xlink:href="#DejaVuSans-35" x="159.033203"/>
      </g>
     </g>
    </g>
    <g id="ytick_3">
     <g id="line2d_17">
      <path d="M 90 224.454134 
L 648 224.454134 
" clip-path="url(#p3638f09381)" style="fill: none; stroke: #b0b0b0; stroke-width: 0.8; stroke-linecap: square"/>
     </g>
     <g id="line2d_18">
      <g>
       <use xlink:href="#m0bbe4de459" x="90" y="224.454134" style="stroke: #000000; stroke-width: 0.8"/>
      </g>
     </g>
     <g id="text_10">
      <!-- 0.36 -->
      <g transform="translate(60.734375 228.253353) scale(0.1 -0.1)">
       <defs>
        <path id="DejaVuSans-36" d="M 2113 2584 
Q 1688 2584 1439 2293 
Q 1191 2003 1191 1497 
Q 1191 994 1439 701 
Q 1688 409 2113 409 
Q 2538 409 2786 701 
Q 3034 994 3034 1497 
Q 3034 2003 2786 2293 
Q 2538 2584 2113 2584 
z
M 3366 4563 
L 3366 3988 
Q 3128 4100 2886 4159 
Q 2644 4219 2406 4219 
Q 1781 4219 1451 3797 
Q 1122 3375 1075 2522 
Q 1259 2794 1537 2939 
Q 1816 3084 2150 3084 
Q 2853 3084 3261 2657 
Q 3669 2231 3669 1497 
Q 3669 778 3244 343 
Q 2819 -91 2113 -91 
Q 1303 -91 875 529 
Q 447 1150 447 2328 
Q 447 3434 972 4092 
Q 1497 4750 2381 4750 
Q 2619 4750 2861 4703 
Q 3103 4656 3366 4563 
z
" transform="scale(0.015625)"/>
       </defs>
       <use xlink:href="#DejaVuSans-30"/>
       <use xlink:href="#DejaVuSans-2e" x="63.623047"/>
       <use xlink:href="#DejaVuSans-33" x="95.410156"/>
       <use xlink:href="#DejaVuSans-36" x="159.033203"/>
      </g>
     </g>
    </g>
    <g id="ytick_4">
     <g id="line2d_19">
      <path d="M 90 187.345456 
L 648 187.345456 
" clip-path="url(#p3638f09381)" style="fill: none; stroke: #b0b0b0; stroke-width: 0.8; stroke-linecap: square"/>
     </g>
     <g id="line2d_20">
      <g>
       <use xlink:href="#m0bbe4de459" x="90" y="187.345456" style="stroke: #000000; stroke-width: 0.8"/>
      </g>
     </g>
     <g id="text_11">
      <!-- 0.37 -->
      <g transform="translate(60.734375 191.144675) scale(0.1 -0.1)">
       <defs>
        <path id="DejaVuSans-37" d="M 525 4666 
L 3525 4666 
L 3525 4397 
L 1831 0 
L 1172 0 
L 2766 4134 
L 525 4134 
L 525 4666 
z
" transform="scale(0.015625)"/>
       </defs>
       <use xlink:href="#DejaVuSans-30"/>
       <use xlink:href="#DejaVuSans-2e" x="63.623047"/>
       <use xlink:href="#DejaVuSans-33" x="95.410156"/>
       <use xlink:href="#DejaVuSans-37" x="159.033203"/>
      </g>
     </g>
    </g>
    <g id="ytick_5">
     <g id="line2d_21">
      <path d="M 90 150.236779 
L 648 150.236779 
" clip-path="url(#p3638f09381)" style="fill: none; stroke: #b0b0b0; stroke-width: 0.8; stroke-linecap: square"/>
     </g>
     <g id="line2d_22">
      <g>
       <use xlink:href="#m0bbe4de459" x="90" y="150.236779" style="stroke: #000000; stroke-width: 0.8"/>
      </g>
     </g>
     <g id="text_12">
      <!-- 0.38 -->
      <g transform="translate(60.734375 154.035997) scale(0.1 -0.1)">
       <defs>
        <path id="DejaVuSans-38" d="M 2034 2216 
Q 1584 2216 1326 1975 
Q 1069 1734 1069 1313 
Q 1069 891 1326 650 
Q 1584 409 2034 409 
Q 2484 409 2743 651 
Q 3003 894 3003 1313 
Q 3003 1734 2745 1975 
Q 2488 2216 2034 2216 
z
M 1403 2484 
Q 997 2584 770 2862 
Q 544 3141 544 3541 
Q 544 4100 942 4425 
Q 1341 4750 2034 4750 
Q 2731 4750 3128 4425 
Q 3525 4100 3525 3541 
Q 3525 3141 3298 2862 
Q 3072 2584 2669 2484 
Q 3125 2378 3379 2068 
Q 3634 1759 3634 1313 
Q 3634 634 3220 271 
Q 2806 -91 2034 -91 
Q 1263 -91 848 271 
Q 434 634 434 1313 
Q 434 1759 690 2068 
Q 947 2378 1403 2484 
z
M 1172 3481 
Q 1172 3119 1398 2916 
Q 1625 2713 2034 2713 
Q 2441 2713 2670 2916 
Q 2900 3119 2900 3481 
Q 2900 3844 2670 4047 
Q 2441 4250 2034 4250 
Q 1625 4250 1398 4047 
Q 1172 3844 1172 3481 
z
" transform="scale(0.015625)"/>
       </defs>
       <use xlink:href="#DejaVuSans-30"/>
       <use xlink:href="#DejaVuSans-2e" x="63.623047"/>
       <use xlink:href="#DejaVuSans-33" x="95.410156"/>
       <use xlink:href="#DejaVuSans-38" x="159.033203"/>
      </g>
     </g>
    </g>
    <g id="ytick_6">
     <g id="line2d_23">
      <path d="M 90 113.128101 
L 648 113.128101 
" clip-path="url(#p3638f09381)" style="fill: none; stroke: #b0b0b0; stroke-width: 0.8; stroke-linecap: square"/>
     </g>
     <g id="line2d_24">
      <g>
       <use xlink:href="#m0bbe4de459" x="90" y="113.128101" style="stroke: #000000; stroke-width: 0.8"/>
      </g>
     </g>
     <g id="text_13">
      <!-- 0.39 -->
      <g transform="translate(60.734375 116.92732) scale(0.1 -0.1)">
       <defs>
        <path id="DejaVuSans-39" d="M 703 97 
L 703 672 
Q 941 559 1184 500 
Q 1428 441 1663 441 
Q 2288 441 2617 861 
Q 2947 1281 2994 2138 
Q 2813 1869 2534 1725 
Q 2256 1581 1919 1581 
Q 1219 1581 811 2004 
Q 403 2428 403 3163 
Q 403 3881 828 4315 
Q 1253 4750 1959 4750 
Q 2769 4750 3195 4129 
Q 3622 3509 3622 2328 
Q 3622 1225 3098 567 
Q 2575 -91 1691 -91 
Q 1453 -91 1209 -44 
Q 966 3 703 97 
z
M 1959 2075 
Q 2384 2075 2632 2365 
Q 2881 2656 2881 3163 
Q 2881 3666 2632 3958 
Q 2384 4250 1959 4250 
Q 1534 4250 1286 3958 
Q 1038 3666 1038 3163 
Q 1038 2656 1286 2365 
Q 1534 2075 1959 2075 
z
" transform="scale(0.015625)"/>
       </defs>
       <use xlink:href="#DejaVuSans-30"/>
       <use xlink:href="#DejaVuSans-2e" x="63.623047"/>
       <use xlink:href="#DejaVuSans-33" x="95.410156"/>
       <use xlink:href="#DejaVuSans-39" x="159.033203"/>
      </g>
     </g>
    </g>
    <g id="ytick_7">
     <g id="line2d_25">
      <path d="M 90 76.019424 
L 648 76.019424 
" clip-path="url(#p3638f09381)" style="fill: none; stroke: #b0b0b0; stroke-width: 0.8; stroke-linecap: square"/>
     </g>
     <g id="line2d_26">
      <g>
       <use xlink:href="#m0bbe4de459" x="90" y="76.019424" style="stroke: #000000; stroke-width: 0.8"/>
      </g>
     </g>
     <g id="text_14">
      <!-- 0.40 -->
      <g transform="translate(60.734375 79.818642) scale(0.1 -0.1)">
       <use xlink:href="#DejaVuSans-30"/>
       <use xlink:href="#DejaVuSans-2e" x="63.623047"/>
       <use xlink:href="#DejaVuSans-34" x="95.410156"/>
       <use xlink:href="#DejaVuSans-30" x="159.033203"/>
      </g>
     </g>
    </g>
    <g id="text_15">
     <!-- accruacy -->
     <g transform="translate(54.654687 204.359375) rotate(-90) scale(0.1 -0.1)">
      <defs>
       <path id="DejaVuSans-61" d="M 2194 1759 
Q 1497 1759 1228 1600 
Q 959 1441 959 1056 
Q 959 750 1161 570 
Q 1363 391 1709 391 
Q 2188 391 2477 730 
Q 2766 1069 2766 1631 
L 2766 1759 
L 2194 1759 
z
M 3341 1997 
L 3341 0 
L 2766 0 
L 2766 531 
Q 2569 213 2275 61 
Q 1981 -91 1556 -91 
Q 1019 -91 701 211 
Q 384 513 384 1019 
Q 384 1609 779 1909 
Q 1175 2209 1959 2209 
L 2766 2209 
L 2766 2266 
Q 2766 2663 2505 2880 
Q 2244 3097 1772 3097 
Q 1472 3097 1187 3025 
Q 903 2953 641 2809 
L 641 3341 
Q 956 3463 1253 3523 
Q 1550 3584 1831 3584 
Q 2591 3584 2966 3190 
Q 3341 2797 3341 1997 
z
" transform="scale(0.015625)"/>
       <path id="DejaVuSans-72" d="M 2631 2963 
Q 2534 3019 2420 3045 
Q 2306 3072 2169 3072 
Q 1681 3072 1420 2755 
Q 1159 2438 1159 1844 
L 1159 0 
L 581 0 
L 581 3500 
L 1159 3500 
L 1159 2956 
Q 1341 3275 1631 3429 
Q 1922 3584 2338 3584 
Q 2397 3584 2469 3576 
Q 2541 3569 2628 3553 
L 2631 2963 
z
" transform="scale(0.015625)"/>
       <path id="DejaVuSans-75" d="M 544 1381 
L 544 3500 
L 1119 3500 
L 1119 1403 
Q 1119 906 1312 657 
Q 1506 409 1894 409 
Q 2359 409 2629 706 
Q 2900 1003 2900 1516 
L 2900 3500 
L 3475 3500 
L 3475 0 
L 2900 0 
L 2900 538 
Q 2691 219 2414 64 
Q 2138 -91 1772 -91 
Q 1169 -91 856 284 
Q 544 659 544 1381 
z
M 1991 3584 
L 1991 3584 
z
" transform="scale(0.015625)"/>
       <path id="DejaVuSans-79" d="M 2059 -325 
Q 1816 -950 1584 -1140 
Q 1353 -1331 966 -1331 
L 506 -1331 
L 506 -850 
L 844 -850 
Q 1081 -850 1212 -737 
Q 1344 -625 1503 -206 
L 1606 56 
L 191 3500 
L 800 3500 
L 1894 763 
L 2988 3500 
L 3597 3500 
L 2059 -325 
z
" transform="scale(0.015625)"/>
      </defs>
      <use xlink:href="#DejaVuSans-61"/>
      <use xlink:href="#DejaVuSans-63" x="61.279297"/>
      <use xlink:href="#DejaVuSans-63" x="116.259766"/>
      <use xlink:href="#DejaVuSans-72" x="171.240234"/>
      <use xlink:href="#DejaVuSans-75" x="212.353516"/>
      <use xlink:href="#DejaVuSans-61" x="275.732422"/>
      <use xlink:href="#DejaVuSans-63" x="337.011719"/>
      <use xlink:href="#DejaVuSans-79" x="391.992188"/>
     </g>
    </g>
   </g>
   <g id="line2d_27">
    <path d="M 115.363636 144.377496 
L 116.380215 174.307691 
L 117.396794 172.370996 
L 118.413372 167.089099 
L 119.429951 200.833961 
L 120.446529 144.377496 
L 121.463108 141.736548 
L 122.479687 184.812539 
L 123.496265 202.183742 
L 124.512844 193.556865 
L 125.529422 197.606319 
L 126.546001 189.331348 
L 127.56258 219.613669 
L 128.579158 194.55452 
L 129.595737 194.085055 
L 130.612316 227.125553 
L 131.628894 185.75158 
L 132.645473 221.433026 
L 133.662051 139.09571 
L 134.67863 190.094325 
L 135.695209 172.370996 
L 136.711787 144.377496 
L 137.728366 202.887995 
L 138.744944 156.466913 
L 139.761523 186.044871 
L 140.778102 157.582017 
L 141.79468 219.731008 
L 142.811259 165.739429 
L 143.827837 149.659393 
L 144.844416 157.582017 
L 145.860995 191.561445 
L 146.877573 245.259733 
L 147.894152 163.039866 
L 148.910731 191.62017 
L 149.927309 152.300231 
L 150.943888 186.866573 
L 151.960466 180.880645 
L 152.977045 164.683049 
L 153.993624 198.838651 
L 155.010202 191.796233 
L 156.026781 175.305346 
L 157.043359 154.941179 
L 158.059938 147.018334 
L 159.076517 188.392418 
L 160.093095 154.941179 
L 161.109674 187.159975 
L 162.126253 195.082709 
L 163.142831 147.018334 
L 164.15941 179.178627 
L 165.175988 164.330923 
L 166.192567 190.094325 
L 167.209146 194.378457 
L 168.225724 181.408724 
L 169.242303 141.736548 
L 170.258881 201.773001 
L 171.27546 141.736548 
L 172.292039 147.018334 
L 173.308617 183.932334 
L 174.325196 188.099016 
L 175.341774 215.036025 
L 176.358353 157.582017 
L 177.374932 180.000218 
L 178.39151 209.989138 
L 179.408089 141.736548 
L 180.424668 136.454872 
L 181.441246 139.09571 
L 182.457825 149.659393 
L 183.474403 169.319197 
L 184.490982 223.369611 
L 185.507561 166.385068 
L 186.524139 206.82 
L 187.540718 178.767886 
L 188.557296 226.83204 
L 189.573875 136.454872 
L 190.590454 182.112977 
L 191.607032 200.95141 
L 192.623611 168.028251 
L 193.640189 181.995638 
L 194.656768 147.018334 
L 195.673347 180.997983 
L 196.689925 200.775236 
L 197.706504 211.514982 
L 198.723083 152.300231 
L 199.739661 148.544289 
L 200.75624 190.094325 
L 201.772818 242.03187 
L 202.789397 190.211774 
L 203.805976 189.62486 
L 204.822554 144.377496 
L 205.839133 168.673779 
L 206.855711 209.578287 
L 207.87229 212.923488 
L 208.888869 213.334228 
L 209.905447 207.348189 
L 210.922026 127.827885 
L 211.938604 197.195358 
L 212.955183 152.300231 
L 213.971762 184.636586 
L 214.98834 186.455833 
L 216.004919 178.239586 
L 217.021498 165.504641 
L 218.038076 155.821385 
L 219.054655 251.773851 
L 220.071233 181.173936 
L 221.087812 191.209319 
L 222.104391 149.659393 
L 223.120969 180.997983 
L 224.137548 172.664398 
L 225.154126 160.222855 
L 226.170705 177.828845 
L 227.187284 200.95141 
L 228.203862 136.454872 
L 229.220441 202.770546 
L 230.237019 163.157205 
L 231.253598 191.444106 
L 232.270177 209.871799 
L 233.286755 201.655552 
L 234.303334 186.866573 
L 235.319913 144.377496 
L 236.336491 168.086865 
L 237.35307 219.320267 
L 238.369648 168.380377 
L 239.386227 196.02164 
L 240.402806 175.422685 
L 241.419384 196.491215 
L 242.435963 160.222855 
L 243.452541 174.307691 
L 244.46912 213.921032 
L 245.485699 165.563365 
L 246.502277 144.377496 
L 247.518856 210.693391 
L 249.552013 174.483644 
L 250.568592 175.716197 
L 251.58517 205.998408 
L 252.601749 178.650547 
L 253.618328 160.222855 
L 254.634906 152.300231 
L 255.651485 176.42045 
L 256.668063 157.582017 
L 257.684642 189.683474 
L 258.701221 166.15028 
L 259.717799 172.723122 
L 260.734378 136.454872 
L 261.750956 194.261118 
L 262.767535 189.976987 
L 263.784114 193.967716 
L 264.800692 144.377496 
L 265.817271 199.425455 
L 266.83385 144.377496 
L 267.850428 157.582017 
L 268.867007 185.634131 
L 269.883585 157.582017 
L 270.900164 144.377496 
L 271.916743 176.303001 
L 273.9499 139.09571 
L 274.966478 176.713741 
L 275.983057 244.02718 
L 276.999636 227.419065 
L 278.016214 230.235855 
L 279.032793 202.477254 
L 280.049371 235.635091 
L 281.06595 144.377496 
L 282.082529 154.941179 
L 283.099107 145.49249 
L 284.115686 182.230315 
L 285.132265 188.392418 
L 286.148843 186.338383 
L 287.165422 157.582017 
L 288.182 185.516792 
L 289.198579 227.301505 
L 290.215158 148.720352 
L 291.231736 196.197813 
L 292.248315 157.464678 
L 293.264893 152.300231 
L 294.281472 149.659393 
L 295.298051 160.222855 
L 296.314629 227.536293 
L 297.331208 171.842806 
L 298.347786 182.69978 
L 299.364365 198.897265 
L 300.380944 191.737619 
L 301.397522 163.333268 
L 302.414101 210.693391 
L 303.43068 149.659393 
L 304.447258 144.377496 
L 305.463837 160.222855 
L 306.480415 206.643936 
L 307.496994 234.520097 
L 308.513573 166.385068 
L 309.530151 196.080254 
L 310.54673 141.736548 
L 311.563308 195.200048 
L 312.579887 191.444106 
L 313.596466 159.577326 
L 314.613044 152.476294 
L 315.629623 159.342649 
L 316.646201 204.120437 
L 317.66278 189.390072 
L 318.679359 195.786962 
L 319.695937 163.744009 
L 320.712516 144.377496 
L 321.729095 176.537789 
L 322.745673 154.941179 
L 323.762252 202.183742 
L 324.77883 192.852612 
L 325.795409 206.643936 
L 326.811988 149.659393 
L 327.828566 157.582017 
L 328.845145 195.786962 
L 329.861723 182.582442 
L 330.878302 208.052442 
L 331.894881 168.086865 
L 332.911459 215.270813 
L 333.928038 191.209319 
L 334.944617 144.377496 
L 335.961195 231.879149 
L 336.977774 177.535443 
L 337.994352 157.640631 
L 339.010931 187.042636 
L 340.02751 147.018334 
L 341.044088 128.532138 
L 342.060667 211.984337 
L 343.077245 227.419065 
L 344.093824 180.763196 
L 345.110403 152.300231 
L 346.126981 157.582017 
L 347.14356 147.018334 
L 348.160138 164.565711 
L 349.176717 209.578287 
L 350.193296 148.250887 
L 351.209874 203.709586 
L 352.226453 184.519027 
L 353.243032 139.09571 
L 354.25961 124.189393 
L 355.276189 162.511677 
L 356.292767 194.96526 
L 357.309346 195.258773 
L 358.325925 185.458067 
L 359.342503 228.240546 
L 360.359082 154.941179 
L 361.37566 158.28627 
L 362.392239 185.340839 
L 363.408818 195.786962 
L 364.425396 188.274968 
L 365.441975 150.363535 
L 366.458553 195.141434 
L 367.475132 193.732928 
L 368.491711 211.573596 
L 369.508289 177.652782 
L 370.524868 171.842806 
L 371.541447 147.018334 
L 372.558025 147.018334 
L 373.574604 177.535443 
L 375.607761 203.298846 
L 376.62434 157.582017 
L 377.640918 139.09571 
L 378.657497 157.582017 
L 379.674075 193.556865 
L 380.690654 154.941179 
L 381.707233 178.8265 
L 382.723811 160.222855 
L 383.74039 182.993182 
L 384.756968 199.014604 
L 385.773547 205.000643 
L 386.790126 149.659393 
L 387.806704 147.018334 
L 388.823283 133.813924 
L 389.839862 152.300231 
L 390.85644 147.018334 
L 391.873019 180.176392 
L 392.889597 174.072904 
L 393.906176 206.702661 
L 394.922755 187.453377 
L 395.939333 174.072904 
L 396.955912 184.753814 
L 397.97249 131.173086 
L 398.989069 149.659393 
L 400.005648 190.916027 
L 401.022226 227.008214 
L 402.038805 147.018334 
L 403.055383 191.209319 
L 404.071962 136.454872 
L 405.088541 154.412879 
L 406.105119 205.587557 
L 407.121698 149.659393 
L 408.138277 185.868918 
L 409.154855 212.101896 
L 410.171434 176.009488 
L 411.188012 152.300231 
L 412.204591 199.132164 
L 413.22117 152.300231 
L 414.237748 197.078019 
L 415.254327 167.089099 
L 416.270905 165.504641 
L 417.287484 152.300231 
L 418.304063 220.846112 
L 419.320641 157.640631 
L 420.33722 149.424605 
L 421.353799 180.058943 
L 422.370377 214.860073 
L 423.386956 179.882879 
L 424.403534 176.009488 
L 425.420113 139.09571 
L 426.436692 160.281579 
L 427.45327 157.582017 
L 428.469849 228.123318 
L 429.486427 207.23074 
L 430.503006 214.449222 
L 431.519585 214.038481 
L 432.536163 164.15497 
L 433.552742 241.093051 
L 434.56932 156.525638 
L 435.585899 141.736548 
L 436.602478 157.582017 
L 437.619056 211.280084 
L 438.635635 197.89961 
L 439.652214 182.288929 
L 440.668792 163.039866 
L 441.685371 180.587132 
L 442.701949 204.472564 
L 443.718528 187.981677 
L 444.735107 208.345844 
L 445.751685 195.376222 
L 446.768264 208.639246 
L 447.784842 184.401688 
L 448.801421 152.300231 
L 449.818 195.493561 
L 450.834578 184.636586 
L 451.851157 153.591287 
L 452.867735 167.500061 
L 453.884314 136.454872 
L 454.900893 168.908456 
L 455.917471 144.377496 
L 456.93405 206.526598 
L 457.950629 199.132164 
L 458.967207 193.146125 
L 459.983786 177.828845 
L 461.000364 189.272734 
L 462.016943 185.22328 
L 463.033522 208.463293 
L 464.0501 193.732928 
L 465.066679 149.659393 
L 466.083257 152.300231 
L 467.099836 214.860073 
L 468.116415 194.96526 
L 469.132993 177.828845 
L 470.149572 225.188968 
L 471.16615 190.916027 
L 472.182729 188.274968 
L 473.199308 178.767886 
L 474.215886 273.253122 
L 475.232465 189.09667 
L 476.249044 189.800923 
L 477.265622 144.377496 
L 478.282201 157.582017 
L 479.298779 184.519027 
L 480.315358 194.847922 
L 481.331937 190.505066 
L 483.365094 142.147399 
L 484.381672 210.575831 
L 485.398251 154.941179 
L 486.41483 172.547059 
L 487.431408 200.540448 
L 488.447987 187.453377 
L 489.464565 151.185237 
L 490.481144 195.376222 
L 491.497723 157.582017 
L 492.514301 181.702236 
L 493.53088 196.080254 
L 494.547459 163.861458 
L 495.564037 152.593522 
L 496.580616 199.953645 
L 497.597194 198.134398 
L 498.613773 142.147399 
L 499.630352 171.549294 
L 500.64693 189.390072 
L 501.663509 196.197813 
L 502.680087 244.144629 
L 503.696666 188.099016 
L 504.713245 195.376222 
L 505.729823 182.934568 
L 506.746402 149.835346 
L 507.762981 195.904301 
L 508.779559 125.8913 
L 509.796138 175.89215 
L 510.812716 200.129708 
L 511.829295 139.09571 
L 512.845874 147.018334 
L 513.862452 190.857192 
L 514.879031 182.875954 
L 515.895609 221.550365 
L 516.912188 144.377496 
L 517.928767 178.063633 
L 518.945345 219.202929 
L 519.961924 170.023449 
L 520.978502 210.927957 
L 521.995081 180.352344 
L 523.01166 154.941179 
L 524.028238 159.283814 
L 525.044817 199.425455 
L 526.061396 146.314192 
L 527.077974 199.542904 
L 528.094553 168.204203 
L 529.111131 154.941179 
L 530.12771 137.276464 
L 531.144289 279.708626 
L 532.160867 160.222855 
L 533.177446 152.476294 
L 534.194024 194.261118 
L 535.210603 186.983912 
L 536.227182 133.813924 
L 537.24376 154.941179 
L 538.260339 150.833111 
L 539.276917 192.207084 
L 540.293496 177.828845 
L 541.310075 158.051482 
L 542.326653 149.659393 
L 543.343232 159.870728 
L 544.359811 195.493561 
L 545.376389 191.62017 
L 546.392968 147.018334 
L 547.409546 213.627741 
L 548.426125 219.907182 
L 549.442704 210.575831 
L 550.459282 191.033366 
L 551.475861 149.659393 
L 552.492439 152.300231 
L 553.509018 152.300231 
L 554.525597 180.058943 
L 555.542175 147.018334 
L 556.558754 157.582017 
L 557.575332 141.736548 
L 558.591911 154.941179 
L 559.60849 139.09571 
L 560.625068 206.233196 
L 561.641647 136.454872 
L 562.658226 149.659393 
L 563.674804 200.247157 
L 564.691383 227.008214 
L 566.72454 149.659393 
L 567.741119 239.508371 
L 568.757697 168.497605 
L 569.774276 149.659393 
L 570.790854 167.910912 
L 571.807433 136.454872 
L 572.824012 212.219235 
L 573.84059 152.300231 
L 574.857169 160.222855 
L 575.873747 146.490255 
L 576.890326 206.115747 
L 577.906905 167.793352 
L 578.923483 144.377496 
L 579.940062 167.089099 
L 580.956641 209.167546 
L 581.973219 199.132164 
L 582.989798 182.523828 
L 584.006376 139.09571 
L 585.022955 152.300231 
L 586.039534 168.145479 
L 587.056112 139.09571 
L 588.072691 185.868918 
L 589.089269 192.207084 
L 590.105848 183.521483 
L 591.122427 222.665358 
L 592.139005 154.941179 
L 593.155584 179.35469 
L 594.172163 180.058943 
L 595.188741 141.736548 
L 596.20532 133.813924 
L 597.221898 157.582017 
L 598.238477 178.650547 
L 599.255056 179.178627 
L 600.271634 177.652782 
L 601.288213 136.454872 
L 602.304791 139.09571 
L 603.32137 195.082709 
L 604.337949 152.300231 
L 605.354527 166.913147 
L 606.371106 240.388798 
L 607.387684 147.018334 
L 608.404263 206.526598 
L 609.420842 218.205163 
L 610.43742 136.454872 
L 611.453999 173.4861 
L 612.470578 151.067788 
L 613.487156 152.300231 
L 614.503735 195.552175 
L 615.520313 152.300231 
L 616.536892 202.594593 
L 617.553471 149.659393 
L 618.570049 162.863803 
L 619.586628 150.774386 
L 620.603206 197.430145 
L 621.619785 212.923488 
L 622.636364 216.56198 
L 622.636364 216.56198 
" clip-path="url(#p3638f09381)" style="fill: none; stroke: #1f77b4; stroke-width: 1.5; stroke-linecap: square"/>
   </g>
   <g id="line2d_28">
    <path d="M 115.363636 55.8 
L 116.380215 307.8 
L 117.396794 55.8 
L 129.595737 55.8 
L 130.612316 307.8 
L 131.628894 307.8 
L 132.645473 55.8 
L 137.728366 55.8 
L 138.744944 307.8 
L 139.761523 55.8 
L 145.860995 55.8 
L 146.877573 307.8 
L 147.894152 55.8 
L 151.960466 55.8 
L 152.977045 307.8 
L 153.993624 55.8 
L 163.142831 55.8 
L 164.15941 307.8 
L 165.175988 55.8 
L 186.524139 55.8 
L 187.540718 307.8 
L 188.557296 55.8 
L 198.723083 55.8 
L 199.739661 307.8 
L 200.75624 307.8 
L 201.772818 55.8 
L 203.805976 55.8 
L 204.822554 307.8 
L 205.839133 55.8 
L 218.038076 55.8 
L 219.054655 307.8 
L 220.071233 55.8 
L 229.220441 55.8 
L 230.237019 307.8 
L 231.253598 55.8 
L 239.386227 55.8 
L 240.402806 307.8 
L 241.419384 55.8 
L 242.435963 55.8 
L 243.452541 307.8 
L 244.46912 55.8 
L 247.518856 55.8 
L 248.535435 307.8 
L 249.552013 307.8 
L 250.568592 55.8 
L 272.933321 55.8 
L 273.9499 307.8 
L 275.983057 307.8 
L 276.999636 55.8 
L 282.082529 55.8 
L 283.099107 307.8 
L 284.115686 55.8 
L 286.148843 55.8 
L 287.165422 307.8 
L 289.198579 307.8 
L 290.215158 55.8 
L 291.231736 307.8 
L 292.248315 55.8 
L 312.579887 55.8 
L 313.596466 307.8 
L 314.613044 55.8 
L 326.811988 55.8 
L 327.828566 307.8 
L 328.845145 55.8 
L 333.928038 55.8 
L 334.944617 307.8 
L 335.961195 55.8 
L 336.977774 307.8 
L 337.994352 307.8 
L 339.010931 55.8 
L 347.14356 55.8 
L 348.160138 307.8 
L 349.176717 307.8 
L 350.193296 55.8 
L 353.243032 55.8 
L 354.25961 307.8 
L 355.276189 55.8 
L 360.359082 55.8 
L 361.37566 307.8 
L 362.392239 55.8 
L 364.425396 55.8 
L 365.441975 307.8 
L 369.508289 307.8 
L 370.524868 55.8 
L 404.071962 55.8 
L 405.088541 307.8 
L 406.105119 55.8 
L 416.270905 55.8 
L 417.287484 307.8 
L 418.304063 55.8 
L 431.519585 55.8 
L 432.536163 307.8 
L 433.552742 55.8 
L 472.182729 55.8 
L 473.199308 307.8 
L 474.215886 55.8 
L 481.331937 55.8 
L 482.348515 307.8 
L 483.365094 55.8 
L 488.447987 55.8 
L 489.464565 307.8 
L 490.481144 55.8 
L 491.497723 55.8 
L 492.514301 307.8 
L 493.53088 55.8 
L 494.547459 307.8 
L 496.580616 307.8 
L 497.597194 55.8 
L 498.613773 307.8 
L 499.630352 55.8 
L 502.680087 55.8 
L 503.696666 307.8 
L 504.713245 55.8 
L 517.928767 55.8 
L 518.945345 307.8 
L 519.961924 307.8 
L 520.978502 55.8 
L 525.044817 55.8 
L 526.061396 307.8 
L 527.077974 307.8 
L 528.094553 55.8 
L 529.111131 55.8 
L 530.12771 307.8 
L 531.144289 55.8 
L 532.160867 307.8 
L 533.177446 55.8 
L 579.940062 55.8 
L 580.956641 307.8 
L 581.973219 307.8 
L 582.989798 55.8 
L 587.056112 55.8 
L 588.072691 307.8 
L 589.089269 55.8 
L 592.139005 55.8 
L 593.155584 307.8 
L 594.172163 55.8 
L 604.337949 55.8 
L 605.354527 307.8 
L 606.371106 55.8 
L 610.43742 55.8 
L 611.453999 307.8 
L 612.470578 55.8 
L 618.570049 55.8 
L 619.586628 307.8 
L 620.603206 307.8 
L 621.619785 55.8 
L 622.636364 55.8 
L 622.636364 55.8 
" clip-path="url(#p3638f09381)" style="fill: none; stroke: #ff7f0e; stroke-width: 1.5; stroke-linecap: square"/>
   </g>
   <g id="patch_3">
    <path d="M 90 320.4 
L 90 43.2 
" style="fill: none; stroke: #000000; stroke-width: 0.8; stroke-linejoin: miter; stroke-linecap: square"/>
   </g>
   <g id="patch_4">
    <path d="M 648 320.4 
L 648 43.2 
" style="fill: none; stroke: #000000; stroke-width: 0.8; stroke-linejoin: miter; stroke-linecap: square"/>
   </g>
   <g id="patch_5">
    <path d="M 90 320.4 
L 648 320.4 
" style="fill: none; stroke: #000000; stroke-width: 0.8; stroke-linejoin: miter; stroke-linecap: square"/>
   </g>
   <g id="patch_6">
    <path d="M 90 43.2 
L 648 43.2 
" style="fill: none; stroke: #000000; stroke-width: 0.8; stroke-linejoin: miter; stroke-linecap: square"/>
   </g>
   <g id="text_16">
    <!-- model train and validation accracy over time -->
    <g transform="translate(233.87625 37.2) scale(0.12 -0.12)">
     <defs>
      <path id="DejaVuSans-6d" d="M 3328 2828 
Q 3544 3216 3844 3400 
Q 4144 3584 4550 3584 
Q 5097 3584 5394 3201 
Q 5691 2819 5691 2113 
L 5691 0 
L 5113 0 
L 5113 2094 
Q 5113 2597 4934 2840 
Q 4756 3084 4391 3084 
Q 3944 3084 3684 2787 
Q 3425 2491 3425 1978 
L 3425 0 
L 2847 0 
L 2847 2094 
Q 2847 2600 2669 2842 
Q 2491 3084 2119 3084 
Q 1678 3084 1418 2786 
Q 1159 2488 1159 1978 
L 1159 0 
L 581 0 
L 581 3500 
L 1159 3500 
L 1159 2956 
Q 1356 3278 1631 3431 
Q 1906 3584 2284 3584 
Q 2666 3584 2933 3390 
Q 3200 3197 3328 2828 
z
" transform="scale(0.015625)"/>
      <path id="DejaVuSans-64" d="M 2906 2969 
L 2906 4863 
L 3481 4863 
L 3481 0 
L 2906 0 
L 2906 525 
Q 2725 213 2448 61 
Q 2172 -91 1784 -91 
Q 1150 -91 751 415 
Q 353 922 353 1747 
Q 353 2572 751 3078 
Q 1150 3584 1784 3584 
Q 2172 3584 2448 3432 
Q 2725 3281 2906 2969 
z
M 947 1747 
Q 947 1113 1208 752 
Q 1469 391 1925 391 
Q 2381 391 2643 752 
Q 2906 1113 2906 1747 
Q 2906 2381 2643 2742 
Q 2381 3103 1925 3103 
Q 1469 3103 1208 2742 
Q 947 2381 947 1747 
z
" transform="scale(0.015625)"/>
      <path id="DejaVuSans-6c" d="M 603 4863 
L 1178 4863 
L 1178 0 
L 603 0 
L 603 4863 
z
" transform="scale(0.015625)"/>
      <path id="DejaVuSans-20" transform="scale(0.015625)"/>
      <path id="DejaVuSans-74" d="M 1172 4494 
L 1172 3500 
L 2356 3500 
L 2356 3053 
L 1172 3053 
L 1172 1153 
Q 1172 725 1289 603 
Q 1406 481 1766 481 
L 2356 481 
L 2356 0 
L 1766 0 
Q 1100 0 847 248 
Q 594 497 594 1153 
L 594 3053 
L 172 3053 
L 172 3500 
L 594 3500 
L 594 4494 
L 1172 4494 
z
" transform="scale(0.015625)"/>
      <path id="DejaVuSans-69" d="M 603 3500 
L 1178 3500 
L 1178 0 
L 603 0 
L 603 3500 
z
M 603 4863 
L 1178 4863 
L 1178 4134 
L 603 4134 
L 603 4863 
z
" transform="scale(0.015625)"/>
      <path id="DejaVuSans-6e" d="M 3513 2113 
L 3513 0 
L 2938 0 
L 2938 2094 
Q 2938 2591 2744 2837 
Q 2550 3084 2163 3084 
Q 1697 3084 1428 2787 
Q 1159 2491 1159 1978 
L 1159 0 
L 581 0 
L 581 3500 
L 1159 3500 
L 1159 2956 
Q 1366 3272 1645 3428 
Q 1925 3584 2291 3584 
Q 2894 3584 3203 3211 
Q 3513 2838 3513 2113 
z
" transform="scale(0.015625)"/>
      <path id="DejaVuSans-76" d="M 191 3500 
L 800 3500 
L 1894 563 
L 2988 3500 
L 3597 3500 
L 2284 0 
L 1503 0 
L 191 3500 
z
" transform="scale(0.015625)"/>
     </defs>
     <use xlink:href="#DejaVuSans-6d"/>
     <use xlink:href="#DejaVuSans-6f" x="97.412109"/>
     <use xlink:href="#DejaVuSans-64" x="158.59375"/>
     <use xlink:href="#DejaVuSans-65" x="222.070312"/>
     <use xlink:href="#DejaVuSans-6c" x="283.59375"/>
     <use xlink:href="#DejaVuSans-20" x="311.376953"/>
     <use xlink:href="#DejaVuSans-74" x="343.164062"/>
     <use xlink:href="#DejaVuSans-72" x="382.373047"/>
     <use xlink:href="#DejaVuSans-61" x="423.486328"/>
     <use xlink:href="#DejaVuSans-69" x="484.765625"/>
     <use xlink:href="#DejaVuSans-6e" x="512.548828"/>
     <use xlink:href="#DejaVuSans-20" x="575.927734"/>
     <use xlink:href="#DejaVuSans-61" x="607.714844"/>
     <use xlink:href="#DejaVuSans-6e" x="668.994141"/>
     <use xlink:href="#DejaVuSans-64" x="732.373047"/>
     <use xlink:href="#DejaVuSans-20" x="795.849609"/>
     <use xlink:href="#DejaVuSans-76" x="827.636719"/>
     <use xlink:href="#DejaVuSans-61" x="886.816406"/>
     <use xlink:href="#DejaVuSans-6c" x="948.095703"/>
     <use xlink:href="#DejaVuSans-69" x="975.878906"/>
     <use xlink:href="#DejaVuSans-64" x="1003.662109"/>
     <use xlink:href="#DejaVuSans-61" x="1067.138672"/>
     <use xlink:href="#DejaVuSans-74" x="1128.417969"/>
     <use xlink:href="#DejaVuSans-69" x="1167.626953"/>
     <use xlink:href="#DejaVuSans-6f" x="1195.410156"/>
     <use xlink:href="#DejaVuSans-6e" x="1256.591797"/>
     <use xlink:href="#DejaVuSans-20" x="1319.970703"/>
     <use xlink:href="#DejaVuSans-61" x="1351.757812"/>
     <use xlink:href="#DejaVuSans-63" x="1413.037109"/>
     <use xlink:href="#DejaVuSans-63" x="1468.017578"/>
     <use xlink:href="#DejaVuSans-72" x="1522.998047"/>
     <use xlink:href="#DejaVuSans-61" x="1564.111328"/>
     <use xlink:href="#DejaVuSans-63" x="1625.390625"/>
     <use xlink:href="#DejaVuSans-79" x="1680.371094"/>
     <use xlink:href="#DejaVuSans-20" x="1739.550781"/>
     <use xlink:href="#DejaVuSans-6f" x="1771.337891"/>
     <use xlink:href="#DejaVuSans-76" x="1832.519531"/>
     <use xlink:href="#DejaVuSans-65" x="1891.699219"/>
     <use xlink:href="#DejaVuSans-72" x="1953.222656"/>
     <use xlink:href="#DejaVuSans-20" x="1994.335938"/>
     <use xlink:href="#DejaVuSans-74" x="2026.123047"/>
     <use xlink:href="#DejaVuSans-69" x="2065.332031"/>
     <use xlink:href="#DejaVuSans-6d" x="2093.115234"/>
     <use xlink:href="#DejaVuSans-65" x="2190.527344"/>
    </g>
   </g>
   <g id="legend_1">
    <g id="patch_7">
     <path d="M 97 315.4 
L 178.234375 315.4 
Q 180.234375 315.4 180.234375 313.4 
L 180.234375 285.04375 
Q 180.234375 283.04375 178.234375 283.04375 
L 97 283.04375 
Q 95 283.04375 95 285.04375 
L 95 313.4 
Q 95 315.4 97 315.4 
z
" style="fill: #ffffff; opacity: 0.8; stroke: #cccccc; stroke-linejoin: miter"/>
    </g>
    <g id="line2d_29">
     <path d="M 99 291.142187 
L 109 291.142187 
L 119 291.142187 
" style="fill: none; stroke: #1f77b4; stroke-width: 1.5; stroke-linecap: square"/>
    </g>
    <g id="text_17">
     <!-- train -->
     <g transform="translate(127 294.642187) scale(0.1 -0.1)">
      <use xlink:href="#DejaVuSans-74"/>
      <use xlink:href="#DejaVuSans-72" x="39.208984"/>
      <use xlink:href="#DejaVuSans-61" x="80.322266"/>
      <use xlink:href="#DejaVuSans-69" x="141.601562"/>
      <use xlink:href="#DejaVuSans-6e" x="169.384766"/>
     </g>
    </g>
    <g id="line2d_30">
     <path d="M 99 305.820312 
L 109 305.820312 
L 119 305.820312 
" style="fill: none; stroke: #ff7f0e; stroke-width: 1.5; stroke-linecap: square"/>
    </g>
    <g id="text_18">
     <!-- validation -->
     <g transform="translate(127 309.320312) scale(0.1 -0.1)">
      <use xlink:href="#DejaVuSans-76"/>
      <use xlink:href="#DejaVuSans-61" x="59.179688"/>
      <use xlink:href="#DejaVuSans-6c" x="120.458984"/>
      <use xlink:href="#DejaVuSans-69" x="148.242188"/>
      <use xlink:href="#DejaVuSans-64" x="176.025391"/>
      <use xlink:href="#DejaVuSans-61" x="239.501953"/>
      <use xlink:href="#DejaVuSans-74" x="300.78125"/>
      <use xlink:href="#DejaVuSans-69" x="339.990234"/>
      <use xlink:href="#DejaVuSans-6f" x="367.773438"/>
      <use xlink:href="#DejaVuSans-6e" x="428.955078"/>
     </g>
    </g>
   </g>
  </g>
 </g>
 <defs>
  <clipPath id="p3638f09381">
   <rect x="90" y="43.2" width="558" height="277.2"/>
  </clipPath>
 </defs>
</svg>
