<?xml version="1.0" encoding="utf-8" standalone="no"?>
<!DOCTYPE svg PUBLIC "-//W3C//DTD SVG 1.1//EN"
  "http://www.w3.org/Graphics/SVG/1.1/DTD/svg11.dtd">
<svg xmlns:xlink="http://www.w3.org/1999/xlink" width="720pt" height="360pt" viewBox="0 0 720 360" xmlns="http://www.w3.org/2000/svg" version="1.1">
 <metadata>
  <rdf:RDF xmlns:dc="http://purl.org/dc/elements/1.1/" xmlns:cc="http://creativecommons.org/ns#" xmlns:rdf="http://www.w3.org/1999/02/22-rdf-syntax-ns#">
   <cc:Work>
    <dc:type rdf:resource="http://purl.org/dc/dcmitype/StillImage"/>
    <dc:date>2023-05-24T12:27:52.926478</dc:date>
    <dc:format>image/svg+xml</dc:format>
    <dc:creator>
     <cc:Agent>
      <dc:title>Matplotlib v3.7.1, https://matplotlib.org/</dc:title>
     </cc:Agent>
    </dc:creator>
   </cc:Work>
  </rdf:RDF>
 </metadata>
 <defs>
  <style type="text/css">*{stroke-linejoin: round; stroke-linecap: butt}</style>
 </defs>
 <g id="figure_1">
  <g id="patch_1">
   <path d="M 0 360 
L 720 360 
L 720 0 
L 0 0 
z
" style="fill: #ffffff"/>
  </g>
  <g id="axes_1">
   <g id="patch_2">
    <path d="M 90 320.4 
L 648 320.4 
L 648 43.2 
L 90 43.2 
z
" style="fill: #ffffff"/>
   </g>
   <g id="matplotlib.axis_1">
    <g id="xtick_1">
     <g id="line2d_1">
      <path d="M 115.363636 320.4 
L 115.363636 43.2 
" clip-path="url(#p9cd0a87284)" style="fill: none; stroke: #b0b0b0; stroke-width: 0.8; stroke-linecap: square"/>
     </g>
     <g id="line2d_2">
      <defs>
       <path id="m4eecdfac25" d="M 0 0 
L 0 3.5 
" style="stroke: #000000; stroke-width: 0.8"/>
      </defs>
      <g>
       <use xlink:href="#m4eecdfac25" x="115.363636" y="320.4" style="stroke: #000000; stroke-width: 0.8"/>
      </g>
     </g>
     <g id="text_1">
      <!-- 0 -->
      <g transform="translate(112.182386 334.998438) scale(0.1 -0.1)">
       <defs>
        <path id="DejaVuSans-30" d="M 2034 4250 
Q 1547 4250 1301 3770 
Q 1056 3291 1056 2328 
Q 1056 1369 1301 889 
Q 1547 409 2034 409 
Q 2525 409 2770 889 
Q 3016 1369 3016 2328 
Q 3016 3291 2770 3770 
Q 2525 4250 2034 4250 
z
M 2034 4750 
Q 2819 4750 3233 4129 
Q 3647 3509 3647 2328 
Q 3647 1150 3233 529 
Q 2819 -91 2034 -91 
Q 1250 -91 836 529 
Q 422 1150 422 2328 
Q 422 3509 836 4129 
Q 1250 4750 2034 4750 
z
" transform="scale(0.015625)"/>
       </defs>
       <use xlink:href="#DejaVuSans-30"/>
      </g>
     </g>
    </g>
    <g id="xtick_2">
     <g id="line2d_3">
      <path d="M 217.021498 320.4 
L 217.021498 43.2 
" clip-path="url(#p9cd0a87284)" style="fill: none; stroke: #b0b0b0; stroke-width: 0.8; stroke-linecap: square"/>
     </g>
     <g id="line2d_4">
      <g>
       <use xlink:href="#m4eecdfac25" x="217.021498" y="320.4" style="stroke: #000000; stroke-width: 0.8"/>
      </g>
     </g>
     <g id="text_2">
      <!-- 100 -->
      <g transform="translate(207.477748 334.998438) scale(0.1 -0.1)">
       <defs>
        <path id="DejaVuSans-31" d="M 794 531 
L 1825 531 
L 1825 4091 
L 703 3866 
L 703 4441 
L 1819 4666 
L 2450 4666 
L 2450 531 
L 3481 531 
L 3481 0 
L 794 0 
L 794 531 
z
" transform="scale(0.015625)"/>
       </defs>
       <use xlink:href="#DejaVuSans-31"/>
       <use xlink:href="#DejaVuSans-30" x="63.623047"/>
       <use xlink:href="#DejaVuSans-30" x="127.246094"/>
      </g>
     </g>
    </g>
    <g id="xtick_3">
     <g id="line2d_5">
      <path d="M 318.679359 320.4 
L 318.679359 43.2 
" clip-path="url(#p9cd0a87284)" style="fill: none; stroke: #b0b0b0; stroke-width: 0.8; stroke-linecap: square"/>
     </g>
     <g id="line2d_6">
      <g>
       <use xlink:href="#m4eecdfac25" x="318.679359" y="320.4" style="stroke: #000000; stroke-width: 0.8"/>
      </g>
     </g>
     <g id="text_3">
      <!-- 200 -->
      <g transform="translate(309.135609 334.998438) scale(0.1 -0.1)">
       <defs>
        <path id="DejaVuSans-32" d="M 1228 531 
L 3431 531 
L 3431 0 
L 469 0 
L 469 531 
Q 828 903 1448 1529 
Q 2069 2156 2228 2338 
Q 2531 2678 2651 2914 
Q 2772 3150 2772 3378 
Q 2772 3750 2511 3984 
Q 2250 4219 1831 4219 
Q 1534 4219 1204 4116 
Q 875 4013 500 3803 
L 500 4441 
Q 881 4594 1212 4672 
Q 1544 4750 1819 4750 
Q 2544 4750 2975 4387 
Q 3406 4025 3406 3419 
Q 3406 3131 3298 2873 
Q 3191 2616 2906 2266 
Q 2828 2175 2409 1742 
Q 1991 1309 1228 531 
z
" transform="scale(0.015625)"/>
       </defs>
       <use xlink:href="#DejaVuSans-32"/>
       <use xlink:href="#DejaVuSans-30" x="63.623047"/>
       <use xlink:href="#DejaVuSans-30" x="127.246094"/>
      </g>
     </g>
    </g>
    <g id="xtick_4">
     <g id="line2d_7">
      <path d="M 420.33722 320.4 
L 420.33722 43.2 
" clip-path="url(#p9cd0a87284)" style="fill: none; stroke: #b0b0b0; stroke-width: 0.8; stroke-linecap: square"/>
     </g>
     <g id="line2d_8">
      <g>
       <use xlink:href="#m4eecdfac25" x="420.33722" y="320.4" style="stroke: #000000; stroke-width: 0.8"/>
      </g>
     </g>
     <g id="text_4">
      <!-- 300 -->
      <g transform="translate(410.79347 334.998438) scale(0.1 -0.1)">
       <defs>
        <path id="DejaVuSans-33" d="M 2597 2516 
Q 3050 2419 3304 2112 
Q 3559 1806 3559 1356 
Q 3559 666 3084 287 
Q 2609 -91 1734 -91 
Q 1441 -91 1130 -33 
Q 819 25 488 141 
L 488 750 
Q 750 597 1062 519 
Q 1375 441 1716 441 
Q 2309 441 2620 675 
Q 2931 909 2931 1356 
Q 2931 1769 2642 2001 
Q 2353 2234 1838 2234 
L 1294 2234 
L 1294 2753 
L 1863 2753 
Q 2328 2753 2575 2939 
Q 2822 3125 2822 3475 
Q 2822 3834 2567 4026 
Q 2313 4219 1838 4219 
Q 1578 4219 1281 4162 
Q 984 4106 628 3988 
L 628 4550 
Q 988 4650 1302 4700 
Q 1616 4750 1894 4750 
Q 2613 4750 3031 4423 
Q 3450 4097 3450 3541 
Q 3450 3153 3228 2886 
Q 3006 2619 2597 2516 
z
" transform="scale(0.015625)"/>
       </defs>
       <use xlink:href="#DejaVuSans-33"/>
       <use xlink:href="#DejaVuSans-30" x="63.623047"/>
       <use xlink:href="#DejaVuSans-30" x="127.246094"/>
      </g>
     </g>
    </g>
    <g id="xtick_5">
     <g id="line2d_9">
      <path d="M 521.995081 320.4 
L 521.995081 43.2 
" clip-path="url(#p9cd0a87284)" style="fill: none; stroke: #b0b0b0; stroke-width: 0.8; stroke-linecap: square"/>
     </g>
     <g id="line2d_10">
      <g>
       <use xlink:href="#m4eecdfac25" x="521.995081" y="320.4" style="stroke: #000000; stroke-width: 0.8"/>
      </g>
     </g>
     <g id="text_5">
      <!-- 400 -->
      <g transform="translate(512.451331 334.998438) scale(0.1 -0.1)">
       <defs>
        <path id="DejaVuSans-34" d="M 2419 4116 
L 825 1625 
L 2419 1625 
L 2419 4116 
z
M 2253 4666 
L 3047 4666 
L 3047 1625 
L 3713 1625 
L 3713 1100 
L 3047 1100 
L 3047 0 
L 2419 0 
L 2419 1100 
L 313 1100 
L 313 1709 
L 2253 4666 
z
" transform="scale(0.015625)"/>
       </defs>
       <use xlink:href="#DejaVuSans-34"/>
       <use xlink:href="#DejaVuSans-30" x="63.623047"/>
       <use xlink:href="#DejaVuSans-30" x="127.246094"/>
      </g>
     </g>
    </g>
    <g id="xtick_6">
     <g id="line2d_11">
      <path d="M 623.652942 320.4 
L 623.652942 43.2 
" clip-path="url(#p9cd0a87284)" style="fill: none; stroke: #b0b0b0; stroke-width: 0.8; stroke-linecap: square"/>
     </g>
     <g id="line2d_12">
      <g>
       <use xlink:href="#m4eecdfac25" x="623.652942" y="320.4" style="stroke: #000000; stroke-width: 0.8"/>
      </g>
     </g>
     <g id="text_6">
      <!-- 500 -->
      <g transform="translate(614.109192 334.998438) scale(0.1 -0.1)">
       <defs>
        <path id="DejaVuSans-35" d="M 691 4666 
L 3169 4666 
L 3169 4134 
L 1269 4134 
L 1269 2991 
Q 1406 3038 1543 3061 
Q 1681 3084 1819 3084 
Q 2600 3084 3056 2656 
Q 3513 2228 3513 1497 
Q 3513 744 3044 326 
Q 2575 -91 1722 -91 
Q 1428 -91 1123 -41 
Q 819 9 494 109 
L 494 744 
Q 775 591 1075 516 
Q 1375 441 1709 441 
Q 2250 441 2565 725 
Q 2881 1009 2881 1497 
Q 2881 1984 2565 2268 
Q 2250 2553 1709 2553 
Q 1456 2553 1204 2497 
Q 953 2441 691 2322 
L 691 4666 
z
" transform="scale(0.015625)"/>
       </defs>
       <use xlink:href="#DejaVuSans-35"/>
       <use xlink:href="#DejaVuSans-30" x="63.623047"/>
       <use xlink:href="#DejaVuSans-30" x="127.246094"/>
      </g>
     </g>
    </g>
    <g id="text_7">
     <!-- epoch -->
     <g transform="translate(353.771875 348.676562) scale(0.1 -0.1)">
      <defs>
       <path id="DejaVuSans-65" d="M 3597 1894 
L 3597 1613 
L 953 1613 
Q 991 1019 1311 708 
Q 1631 397 2203 397 
Q 2534 397 2845 478 
Q 3156 559 3463 722 
L 3463 178 
Q 3153 47 2828 -22 
Q 2503 -91 2169 -91 
Q 1331 -91 842 396 
Q 353 884 353 1716 
Q 353 2575 817 3079 
Q 1281 3584 2069 3584 
Q 2775 3584 3186 3129 
Q 3597 2675 3597 1894 
z
M 3022 2063 
Q 3016 2534 2758 2815 
Q 2500 3097 2075 3097 
Q 1594 3097 1305 2825 
Q 1016 2553 972 2059 
L 3022 2063 
z
" transform="scale(0.015625)"/>
       <path id="DejaVuSans-70" d="M 1159 525 
L 1159 -1331 
L 581 -1331 
L 581 3500 
L 1159 3500 
L 1159 2969 
Q 1341 3281 1617 3432 
Q 1894 3584 2278 3584 
Q 2916 3584 3314 3078 
Q 3713 2572 3713 1747 
Q 3713 922 3314 415 
Q 2916 -91 2278 -91 
Q 1894 -91 1617 61 
Q 1341 213 1159 525 
z
M 3116 1747 
Q 3116 2381 2855 2742 
Q 2594 3103 2138 3103 
Q 1681 3103 1420 2742 
Q 1159 2381 1159 1747 
Q 1159 1113 1420 752 
Q 1681 391 2138 391 
Q 2594 391 2855 752 
Q 3116 1113 3116 1747 
z
" transform="scale(0.015625)"/>
       <path id="DejaVuSans-6f" d="M 1959 3097 
Q 1497 3097 1228 2736 
Q 959 2375 959 1747 
Q 959 1119 1226 758 
Q 1494 397 1959 397 
Q 2419 397 2687 759 
Q 2956 1122 2956 1747 
Q 2956 2369 2687 2733 
Q 2419 3097 1959 3097 
z
M 1959 3584 
Q 2709 3584 3137 3096 
Q 3566 2609 3566 1747 
Q 3566 888 3137 398 
Q 2709 -91 1959 -91 
Q 1206 -91 779 398 
Q 353 888 353 1747 
Q 353 2609 779 3096 
Q 1206 3584 1959 3584 
z
" transform="scale(0.015625)"/>
       <path id="DejaVuSans-63" d="M 3122 3366 
L 3122 2828 
Q 2878 2963 2633 3030 
Q 2388 3097 2138 3097 
Q 1578 3097 1268 2742 
Q 959 2388 959 1747 
Q 959 1106 1268 751 
Q 1578 397 2138 397 
Q 2388 397 2633 464 
Q 2878 531 3122 666 
L 3122 134 
Q 2881 22 2623 -34 
Q 2366 -91 2075 -91 
Q 1284 -91 818 406 
Q 353 903 353 1747 
Q 353 2603 823 3093 
Q 1294 3584 2113 3584 
Q 2378 3584 2631 3529 
Q 2884 3475 3122 3366 
z
" transform="scale(0.015625)"/>
       <path id="DejaVuSans-68" d="M 3513 2113 
L 3513 0 
L 2938 0 
L 2938 2094 
Q 2938 2591 2744 2837 
Q 2550 3084 2163 3084 
Q 1697 3084 1428 2787 
Q 1159 2491 1159 1978 
L 1159 0 
L 581 0 
L 581 4863 
L 1159 4863 
L 1159 2956 
Q 1366 3272 1645 3428 
Q 1925 3584 2291 3584 
Q 2894 3584 3203 3211 
Q 3513 2838 3513 2113 
z
" transform="scale(0.015625)"/>
      </defs>
      <use xlink:href="#DejaVuSans-65"/>
      <use xlink:href="#DejaVuSans-70" x="61.523438"/>
      <use xlink:href="#DejaVuSans-6f" x="125"/>
      <use xlink:href="#DejaVuSans-63" x="186.181641"/>
      <use xlink:href="#DejaVuSans-68" x="241.162109"/>
     </g>
    </g>
   </g>
   <g id="matplotlib.axis_2">
    <g id="ytick_1">
     <g id="line2d_13">
      <path d="M 90 270.700317 
L 648 270.700317 
" clip-path="url(#p9cd0a87284)" style="fill: none; stroke: #b0b0b0; stroke-width: 0.8; stroke-linecap: square"/>
     </g>
     <g id="line2d_14">
      <defs>
       <path id="m92b1f3469b" d="M 0 0 
L -3.5 0 
" style="stroke: #000000; stroke-width: 0.8"/>
      </defs>
      <g>
       <use xlink:href="#m92b1f3469b" x="90" y="270.700317" style="stroke: #000000; stroke-width: 0.8"/>
      </g>
     </g>
     <g id="text_8">
      <!-- 0.34 -->
      <g transform="translate(60.734375 274.499536) scale(0.1 -0.1)">
       <defs>
        <path id="DejaVuSans-2e" d="M 684 794 
L 1344 794 
L 1344 0 
L 684 0 
L 684 794 
z
" transform="scale(0.015625)"/>
       </defs>
       <use xlink:href="#DejaVuSans-30"/>
       <use xlink:href="#DejaVuSans-2e" x="63.623047"/>
       <use xlink:href="#DejaVuSans-33" x="95.410156"/>
       <use xlink:href="#DejaVuSans-34" x="159.033203"/>
      </g>
     </g>
    </g>
    <g id="ytick_2">
     <g id="line2d_15">
      <path d="M 90 215.646314 
L 648 215.646314 
" clip-path="url(#p9cd0a87284)" style="fill: none; stroke: #b0b0b0; stroke-width: 0.8; stroke-linecap: square"/>
     </g>
     <g id="line2d_16">
      <g>
       <use xlink:href="#m92b1f3469b" x="90" y="215.646314" style="stroke: #000000; stroke-width: 0.8"/>
      </g>
     </g>
     <g id="text_9">
      <!-- 0.36 -->
      <g transform="translate(60.734375 219.445533) scale(0.1 -0.1)">
       <defs>
        <path id="DejaVuSans-36" d="M 2113 2584 
Q 1688 2584 1439 2293 
Q 1191 2003 1191 1497 
Q 1191 994 1439 701 
Q 1688 409 2113 409 
Q 2538 409 2786 701 
Q 3034 994 3034 1497 
Q 3034 2003 2786 2293 
Q 2538 2584 2113 2584 
z
M 3366 4563 
L 3366 3988 
Q 3128 4100 2886 4159 
Q 2644 4219 2406 4219 
Q 1781 4219 1451 3797 
Q 1122 3375 1075 2522 
Q 1259 2794 1537 2939 
Q 1816 3084 2150 3084 
Q 2853 3084 3261 2657 
Q 3669 2231 3669 1497 
Q 3669 778 3244 343 
Q 2819 -91 2113 -91 
Q 1303 -91 875 529 
Q 447 1150 447 2328 
Q 447 3434 972 4092 
Q 1497 4750 2381 4750 
Q 2619 4750 2861 4703 
Q 3103 4656 3366 4563 
z
" transform="scale(0.015625)"/>
       </defs>
       <use xlink:href="#DejaVuSans-30"/>
       <use xlink:href="#DejaVuSans-2e" x="63.623047"/>
       <use xlink:href="#DejaVuSans-33" x="95.410156"/>
       <use xlink:href="#DejaVuSans-36" x="159.033203"/>
      </g>
     </g>
    </g>
    <g id="ytick_3">
     <g id="line2d_17">
      <path d="M 90 160.592311 
L 648 160.592311 
" clip-path="url(#p9cd0a87284)" style="fill: none; stroke: #b0b0b0; stroke-width: 0.8; stroke-linecap: square"/>
     </g>
     <g id="line2d_18">
      <g>
       <use xlink:href="#m92b1f3469b" x="90" y="160.592311" style="stroke: #000000; stroke-width: 0.8"/>
      </g>
     </g>
     <g id="text_10">
      <!-- 0.38 -->
      <g transform="translate(60.734375 164.391529) scale(0.1 -0.1)">
       <defs>
        <path id="DejaVuSans-38" d="M 2034 2216 
Q 1584 2216 1326 1975 
Q 1069 1734 1069 1313 
Q 1069 891 1326 650 
Q 1584 409 2034 409 
Q 2484 409 2743 651 
Q 3003 894 3003 1313 
Q 3003 1734 2745 1975 
Q 2488 2216 2034 2216 
z
M 1403 2484 
Q 997 2584 770 2862 
Q 544 3141 544 3541 
Q 544 4100 942 4425 
Q 1341 4750 2034 4750 
Q 2731 4750 3128 4425 
Q 3525 4100 3525 3541 
Q 3525 3141 3298 2862 
Q 3072 2584 2669 2484 
Q 3125 2378 3379 2068 
Q 3634 1759 3634 1313 
Q 3634 634 3220 271 
Q 2806 -91 2034 -91 
Q 1263 -91 848 271 
Q 434 634 434 1313 
Q 434 1759 690 2068 
Q 947 2378 1403 2484 
z
M 1172 3481 
Q 1172 3119 1398 2916 
Q 1625 2713 2034 2713 
Q 2441 2713 2670 2916 
Q 2900 3119 2900 3481 
Q 2900 3844 2670 4047 
Q 2441 4250 2034 4250 
Q 1625 4250 1398 4047 
Q 1172 3844 1172 3481 
z
" transform="scale(0.015625)"/>
       </defs>
       <use xlink:href="#DejaVuSans-30"/>
       <use xlink:href="#DejaVuSans-2e" x="63.623047"/>
       <use xlink:href="#DejaVuSans-33" x="95.410156"/>
       <use xlink:href="#DejaVuSans-38" x="159.033203"/>
      </g>
     </g>
    </g>
    <g id="ytick_4">
     <g id="line2d_19">
      <path d="M 90 105.538307 
L 648 105.538307 
" clip-path="url(#p9cd0a87284)" style="fill: none; stroke: #b0b0b0; stroke-width: 0.8; stroke-linecap: square"/>
     </g>
     <g id="line2d_20">
      <g>
       <use xlink:href="#m92b1f3469b" x="90" y="105.538307" style="stroke: #000000; stroke-width: 0.8"/>
      </g>
     </g>
     <g id="text_11">
      <!-- 0.40 -->
      <g transform="translate(60.734375 109.337526) scale(0.1 -0.1)">
       <use xlink:href="#DejaVuSans-30"/>
       <use xlink:href="#DejaVuSans-2e" x="63.623047"/>
       <use xlink:href="#DejaVuSans-34" x="95.410156"/>
       <use xlink:href="#DejaVuSans-30" x="159.033203"/>
      </g>
     </g>
    </g>
    <g id="ytick_5">
     <g id="line2d_21">
      <path d="M 90 50.484304 
L 648 50.484304 
" clip-path="url(#p9cd0a87284)" style="fill: none; stroke: #b0b0b0; stroke-width: 0.8; stroke-linecap: square"/>
     </g>
     <g id="line2d_22">
      <g>
       <use xlink:href="#m92b1f3469b" x="90" y="50.484304" style="stroke: #000000; stroke-width: 0.8"/>
      </g>
     </g>
     <g id="text_12">
      <!-- 0.42 -->
      <g transform="translate(60.734375 54.283522) scale(0.1 -0.1)">
       <use xlink:href="#DejaVuSans-30"/>
       <use xlink:href="#DejaVuSans-2e" x="63.623047"/>
       <use xlink:href="#DejaVuSans-34" x="95.410156"/>
       <use xlink:href="#DejaVuSans-32" x="159.033203"/>
      </g>
     </g>
    </g>
    <g id="text_13">
     <!-- accruacy -->
     <g transform="translate(54.654687 204.359375) rotate(-90) scale(0.1 -0.1)">
      <defs>
       <path id="DejaVuSans-61" d="M 2194 1759 
Q 1497 1759 1228 1600 
Q 959 1441 959 1056 
Q 959 750 1161 570 
Q 1363 391 1709 391 
Q 2188 391 2477 730 
Q 2766 1069 2766 1631 
L 2766 1759 
L 2194 1759 
z
M 3341 1997 
L 3341 0 
L 2766 0 
L 2766 531 
Q 2569 213 2275 61 
Q 1981 -91 1556 -91 
Q 1019 -91 701 211 
Q 384 513 384 1019 
Q 384 1609 779 1909 
Q 1175 2209 1959 2209 
L 2766 2209 
L 2766 2266 
Q 2766 2663 2505 2880 
Q 2244 3097 1772 3097 
Q 1472 3097 1187 3025 
Q 903 2953 641 2809 
L 641 3341 
Q 956 3463 1253 3523 
Q 1550 3584 1831 3584 
Q 2591 3584 2966 3190 
Q 3341 2797 3341 1997 
z
" transform="scale(0.015625)"/>
       <path id="DejaVuSans-72" d="M 2631 2963 
Q 2534 3019 2420 3045 
Q 2306 3072 2169 3072 
Q 1681 3072 1420 2755 
Q 1159 2438 1159 1844 
L 1159 0 
L 581 0 
L 581 3500 
L 1159 3500 
L 1159 2956 
Q 1341 3275 1631 3429 
Q 1922 3584 2338 3584 
Q 2397 3584 2469 3576 
Q 2541 3569 2628 3553 
L 2631 2963 
z
" transform="scale(0.015625)"/>
       <path id="DejaVuSans-75" d="M 544 1381 
L 544 3500 
L 1119 3500 
L 1119 1403 
Q 1119 906 1312 657 
Q 1506 409 1894 409 
Q 2359 409 2629 706 
Q 2900 1003 2900 1516 
L 2900 3500 
L 3475 3500 
L 3475 0 
L 2900 0 
L 2900 538 
Q 2691 219 2414 64 
Q 2138 -91 1772 -91 
Q 1169 -91 856 284 
Q 544 659 544 1381 
z
M 1991 3584 
L 1991 3584 
z
" transform="scale(0.015625)"/>
       <path id="DejaVuSans-79" d="M 2059 -325 
Q 1816 -950 1584 -1140 
Q 1353 -1331 966 -1331 
L 506 -1331 
L 506 -850 
L 844 -850 
Q 1081 -850 1212 -737 
Q 1344 -625 1503 -206 
L 1606 56 
L 191 3500 
L 800 3500 
L 1894 763 
L 2988 3500 
L 3597 3500 
L 2059 -325 
z
" transform="scale(0.015625)"/>
      </defs>
      <use xlink:href="#DejaVuSans-61"/>
      <use xlink:href="#DejaVuSans-63" x="61.279297"/>
      <use xlink:href="#DejaVuSans-63" x="116.259766"/>
      <use xlink:href="#DejaVuSans-72" x="171.240234"/>
      <use xlink:href="#DejaVuSans-75" x="212.353516"/>
      <use xlink:href="#DejaVuSans-61" x="275.732422"/>
      <use xlink:href="#DejaVuSans-63" x="337.011719"/>
      <use xlink:href="#DejaVuSans-79" x="391.992188"/>
     </g>
    </g>
   </g>
   <g id="line2d_23">
    <path d="M 115.363636 218.280888 
L 117.396794 164.604418 
L 118.413372 203.784401 
L 119.429951 173.615675 
L 120.446529 204.393853 
L 121.463108 215.886643 
L 122.479687 187.546436 
L 123.496265 200.171088 
L 124.512844 157.377791 
L 125.529422 203.784401 
L 126.546001 148.932343 
L 127.56258 222.198969 
L 128.579158 168.34817 
L 129.595737 157.073025 
L 130.612316 192.422214 
L 131.628894 180.624658 
L 132.645473 196.775418 
L 133.662051 168.957622 
L 134.67863 173.006305 
L 135.695209 172.483894 
L 136.711787 158.727298 
L 137.728366 190.550215 
L 138.744944 173.31099 
L 139.761523 196.557856 
L 140.778102 192.422214 
L 141.79468 203.697278 
L 142.811259 185.108546 
L 143.827837 190.550215 
L 144.844416 176.010085 
L 145.860995 182.409452 
L 146.877573 194.163529 
L 147.894152 213.709959 
L 148.910731 181.23411 
L 149.927309 212.752178 
L 150.943888 203.479634 
L 151.960466 168.522335 
L 152.977045 196.035446 
L 153.993624 172.658059 
L 155.010202 191.899804 
L 156.026781 197.385034 
L 157.043359 214.232369 
L 158.059938 159.85916 
L 159.076517 207.092948 
L 160.093095 215.886643 
L 161.109674 204.611497 
L 162.126253 215.886643 
L 163.142831 193.771639 
L 164.15941 191.29027 
L 165.175988 177.316111 
L 166.192567 215.451273 
L 167.209146 199.561554 
L 168.225724 156.76834 
L 169.242303 188.28649 
L 170.258881 185.369752 
L 171.27546 174.442853 
L 172.292039 177.751399 
L 173.308617 197.080185 
L 174.325196 152.850341 
L 175.341774 164.604418 
L 176.358353 166.563376 
L 177.374932 186.32745 
L 178.39151 185.805121 
L 179.408089 241.005344 
L 180.424668 210.183768 
L 182.457825 158.727298 
L 183.474403 168.522335 
L 184.490982 202.652539 
L 185.507561 154.809299 
L 186.524139 208.137769 
L 187.540718 189.940764 
L 188.557296 196.035446 
L 189.573875 158.727298 
L 190.590454 204.306812 
L 191.607032 180.102247 
L 192.623611 224.462694 
L 193.640189 225.507515 
L 194.656768 162.645378 
L 195.673347 216.496094 
L 196.689925 158.727298 
L 197.706504 192.639776 
L 198.723083 138.35369 
L 199.739661 248.014245 
L 200.75624 183.323753 
L 201.772818 180.972904 
L 202.789397 190.24553 
L 203.805976 150.891383 
L 204.822554 158.727298 
L 205.839133 184.978026 
L 206.855711 168.522335 
L 207.87229 165.126829 
L 208.888869 181.974164 
L 209.905447 172.440333 
L 210.922026 218.890504 
L 211.938604 226.639378 
L 212.955183 193.24931 
L 213.971762 178.317289 
L 214.98834 254.631256 
L 216.004919 184.542656 
L 217.021498 184.673177 
L 218.038076 196.862623 
L 219.054655 164.604418 
L 220.071233 196.557856 
L 221.087812 170.481375 
L 222.104391 196.035446 
L 223.120969 226.421734 
L 224.137548 211.838042 
L 225.154126 176.358331 
L 226.170705 201.389992 
L 227.187284 180.668137 
L 228.203862 189.026545 
L 229.220441 188.982983 
L 230.237019 216.583136 
L 231.253598 233.561156 
L 232.270177 227.37935 
L 233.286755 205.133908 
L 234.303334 186.32745 
L 235.319913 208.224728 
L 236.336491 160.686338 
L 237.35307 185.630957 
L 238.369648 195.948323 
L 239.386227 158.727298 
L 240.402806 183.236629 
L 241.419384 170.481375 
L 242.435963 209.879001 
L 243.452541 167.82576 
L 244.46912 171.134306 
L 245.485699 210.183768 
L 246.502277 193.031666 
L 247.518856 185.282711 
L 248.535435 226.204008 
L 249.552013 178.970385 
L 250.568592 198.603856 
L 251.58517 156.245929 
L 252.601749 191.986845 
L 254.634906 174.747537 
L 255.651485 172.396853 
L 256.668063 177.838522 
L 257.684642 190.637256 
L 258.701221 167.303349 
L 259.717799 158.727298 
L 260.734378 166.563376 
L 261.750956 162.645378 
L 262.767535 166.563376 
L 263.784114 192.639776 
L 264.800692 177.141947 
L 265.817271 193.031666 
L 266.83385 194.903583 
L 267.850428 162.645378 
L 268.867007 207.310592 
L 269.883585 153.764478 
L 270.900164 207.092948 
L 271.916743 185.892163 
L 272.933321 156.158888 
L 273.9499 238.654496 
L 274.966478 205.525716 
L 275.983057 166.563376 
L 276.999636 162.645378 
L 278.016214 161.513434 
L 279.032793 211.315631 
L 281.06595 167.912883 
L 282.082529 156.76834 
L 283.099107 171.874443 
L 284.115686 193.989365 
L 285.132265 176.924221 
L 286.148843 186.109888 
L 287.165422 164.604418 
L 288.182 193.466954 
L 289.198579 171.961484 
L 290.215158 196.557856 
L 291.231736 156.76834 
L 292.248315 193.989365 
L 293.264893 191.377393 
L 294.281472 189.72312 
L 295.298051 154.809299 
L 296.314629 176.401811 
L 297.331208 170.481375 
L 298.347786 184.978026 
L 299.364365 174.399291 
L 300.380944 197.907281 
L 301.397522 158.727298 
L 302.414101 201.738238 
L 303.43068 159.423873 
L 304.447258 213.927685 
L 305.463837 160.686338 
L 306.480415 197.167308 
L 307.496994 158.727298 
L 308.513573 189.810161 
L 309.530151 149.846562 
L 310.54673 218.890504 
L 311.563308 184.455615 
L 312.579887 181.712959 
L 313.596466 187.241669 
L 314.613044 176.31477 
L 315.629623 197.602596 
L 316.646201 188.808819 
L 317.66278 192.944543 
L 318.679359 170.78606 
L 319.695937 166.389212 
L 320.712516 177.751399 
L 321.729095 192.204489 
L 322.745673 164.604418 
L 323.762252 193.641118 
L 324.77883 162.558255 
L 325.795409 209.400152 
L 326.811988 165.866801 
L 327.828566 185.587478 
L 328.845145 185.587478 
L 329.861723 184.237889 
L 330.878302 168.522335 
L 331.894881 160.686338 
L 332.911459 193.466954 
L 333.928038 156.76834 
L 334.944617 173.398113 
L 335.961195 179.188028 
L 336.977774 168.522335 
L 337.994352 162.645378 
L 339.010931 184.978026 
L 340.02751 166.563376 
L 341.044088 156.76834 
L 342.060667 190.463092 
L 343.077245 174.355811 
L 344.093824 211.446234 
L 345.110403 236.477894 
L 346.126981 203.914922 
L 347.14356 186.849861 
L 348.160138 196.775418 
L 349.176717 184.586136 
L 350.193296 162.645378 
L 351.209874 172.440333 
L 352.226453 194.468214 
L 353.243032 250.016683 
L 354.25961 231.602197 
L 356.292767 166.563376 
L 357.309346 206.178647 
L 358.325925 175.879564 
L 359.342503 188.199367 
L 360.359082 195.904761 
L 361.37566 200.998266 
L 362.392239 192.944543 
L 363.408818 219.7176 
L 364.425396 178.447974 
L 365.441975 213.709959 
L 366.458553 206.26577 
L 367.475132 168.522335 
L 368.491711 202.130128 
L 369.508289 183.933204 
L 370.524868 170.699018 
L 371.541447 176.097126 
L 372.558025 200.475855 
L 373.574604 189.940764 
L 374.591182 197.471993 
L 375.607761 170.78606 
L 376.62434 220.022285 
L 377.640918 170.481375 
L 378.657497 184.7603 
L 379.674075 195.948323 
L 380.690654 185.108546 
L 381.707233 164.604418 
L 382.723811 154.809299 
L 383.74039 173.180469 
L 384.756968 158.640257 
L 385.773547 154.809299 
L 386.790126 158.727298 
L 387.806704 164.604418 
L 388.823283 181.887041 
L 389.839862 186.022683 
L 391.873019 172.701538 
L 392.889597 162.645378 
L 393.906176 156.76834 
L 394.922755 194.598734 
L 395.939333 200.475855 
L 396.955912 154.809299 
L 397.97249 213.013384 
L 398.989069 184.36841 
L 400.005648 215.712478 
L 401.022226 160.686338 
L 402.038805 187.32871 
L 403.055383 158.727298 
L 404.071962 171.656717 
L 405.088541 191.377393 
L 407.121698 171.961484 
L 408.138277 167.912883 
L 409.154855 208.877742 
L 410.171434 156.76834 
L 411.188012 186.109888 
L 412.204591 176.358331 
L 413.22117 208.83418 
L 414.237748 219.804641 
L 415.254327 172.179127 
L 416.270905 210.401412 
L 417.287484 184.281451 
L 418.304063 150.891383 
L 419.320641 189.505394 
L 420.33722 185.195588 
L 421.353799 176.227728 
L 422.370377 194.511775 
L 423.386956 179.710357 
L 424.403534 172.919264 
L 425.420113 221.458914 
L 426.436692 199.648677 
L 427.45327 241.527755 
L 428.469849 209.182427 
L 429.486427 193.945803 
L 430.503006 209.182427 
L 431.519585 158.727298 
L 432.536163 203.174949 
L 433.552742 158.727298 
L 434.56932 160.512256 
L 435.585899 188.068847 
L 436.602478 186.936984 
L 437.619056 176.097126 
L 438.635635 183.75904 
L 439.652214 180.624658 
L 440.668792 156.76834 
L 441.685371 184.890821 
L 442.701949 216.800861 
L 443.718528 179.536275 
L 444.735107 164.604418 
L 445.751685 159.989845 
L 446.768264 194.990624 
L 447.784842 172.353292 
L 448.801421 164.430172 
L 449.818 164.604418 
L 450.834578 193.989365 
L 451.851157 160.686338 
L 452.867735 183.323753 
L 453.884314 164.604418 
L 454.900893 207.83292 
L 455.917471 181.059946 
L 456.93405 168.522335 
L 457.950629 179.710357 
L 458.967207 182.496575 
L 459.983786 178.143207 
L 461.000364 192.944543 
L 462.016943 170.220169 
L 463.033522 165.77976 
L 464.0501 174.399291 
L 465.066679 197.82024 
L 466.083257 182.104767 
L 467.099836 196.035446 
L 468.116415 175.052386 
L 469.132993 171.439073 
L 470.149572 193.554077 
L 471.16615 155.810641 
L 472.182729 214.101767 
L 473.199308 205.961085 
L 474.215886 192.857502 
L 475.232465 158.727298 
L 476.249044 164.604418 
L 477.265622 158.727298 
L 478.282201 177.925563 
L 479.298779 183.976684 
L 480.315358 160.686338 
L 481.331937 168.522335 
L 482.348515 183.323753 
L 483.365094 222.155407 
L 484.381672 183.323753 
L 485.398251 193.858762 
L 486.41483 160.076886 
L 487.431408 196.165966 
L 488.447987 182.931863 
L 489.464565 195.20835 
L 490.481144 175.792359 
L 491.497723 175.269948 
L 492.514301 160.686338 
L 493.53088 164.604418 
L 494.547459 156.76834 
L 495.564037 196.165966 
L 496.580616 204.393853 
L 497.597194 148.932343 
L 498.613773 191.899804 
L 499.630352 170.481375 
L 500.64693 208.224728 
L 501.663509 160.686338 
L 502.680087 191.595037 
L 503.696666 194.381173 
L 504.713245 162.645378 
L 505.729823 194.598734 
L 506.746402 194.685939 
L 507.762981 152.850341 
L 508.779559 179.188028 
L 509.796138 162.645378 
L 510.812716 164.604418 
L 511.829295 158.640257 
L 512.845874 237.392113 
L 513.862452 176.358331 
L 514.879031 195.034186 
L 515.895609 160.686338 
L 516.912188 179.405672 
L 517.928767 174.051127 
L 518.945345 204.393853 
L 519.961924 200.083965 
L 520.978502 187.154546 
L 521.995081 160.686338 
L 523.01166 158.727298 
L 524.028238 160.164009 
L 525.044817 242.746658 
L 526.061396 217.758478 
L 527.077974 160.686338 
L 528.094553 158.727298 
L 529.111131 207.005743 
L 530.12771 182.496575 
L 531.144289 206.396291 
L 532.160867 185.892163 
L 533.177446 178.970385 
L 534.194024 196.775418 
L 535.210603 211.751001 
L 536.227182 189.940764 
L 537.24376 160.686338 
L 538.260339 197.471993 
L 539.276917 189.418353 
L 540.293496 177.054906 
L 541.310075 187.676956 
L 542.326653 184.7603 
L 544.359811 241.005344 
L 545.376389 174.138086 
L 546.392968 211.533275 
L 547.409546 165.77976 
L 548.426125 162.645378 
L 549.442704 181.669479 
L 550.459282 176.097126 
L 551.475861 185.935642 
L 552.492439 192.509256 
L 553.509018 172.440333 
L 554.525597 227.161788 
L 555.542175 188.373531 
L 556.558754 195.948323 
L 557.575332 167.434034 
L 558.591911 192.030324 
L 559.60849 189.157147 
L 560.625068 217.758478 
L 562.658226 160.686338 
L 563.674804 184.36841 
L 564.691383 180.319891 
L 565.707961 166.693897 
L 566.72454 166.606856 
L 567.741119 177.620796 
L 568.757697 182.670657 
L 569.774276 214.667657 
L 570.790854 239.960523 
L 571.807433 218.672778 
L 572.824012 186.545094 
L 573.84059 184.063725 
L 574.857169 148.932343 
L 575.873747 156.76834 
L 576.890326 154.809299 
L 577.906905 211.35911 
L 578.923483 191.725639 
L 579.940062 202.8701 
L 580.956641 187.851121 
L 581.973219 227.858281 
L 582.989798 218.977463 
L 584.006376 176.358331 
L 585.022955 199.953444 
L 586.039534 197.602596 
L 587.056112 184.673177 
L 588.072691 193.510433 
L 589.089269 208.747139 
L 590.105848 184.455615 
L 591.122427 191.203229 
L 592.139005 181.190548 
L 593.155584 228.380692 
L 594.172163 219.804641 
L 595.188741 164.604418 
L 596.20532 184.803862 
L 597.221898 221.241188 
L 598.238477 177.228988 
L 599.255056 245.532794 
L 600.271634 169.088307 
L 601.288213 171.134306 
L 602.304791 162.645378 
L 603.32137 156.76834 
L 604.337949 164.604418 
L 605.354527 175.966523 
L 606.371106 176.184249 
L 607.387684 160.686338 
L 608.404263 166.563376 
L 609.420842 197.385034 
L 610.43742 203.261991 
L 612.470578 156.76834 
L 613.487156 156.76834 
L 614.503735 168.522335 
L 615.520313 156.76834 
L 616.536892 168.522335 
L 617.553471 211.446234 
L 618.570049 152.850341 
L 619.586628 160.686338 
L 620.603206 162.645378 
L 621.619785 184.803862 
L 622.636364 215.886643 
L 622.636364 215.886643 
" clip-path="url(#p9cd0a87284)" style="fill: none; stroke: #1f77b4; stroke-width: 1.5; stroke-linecap: square"/>
   </g>
   <g id="line2d_24">
    <path d="M 115.363636 55.8 
L 116.380215 55.8 
L 117.396794 307.8 
L 118.413372 307.8 
L 119.429951 55.8 
L 120.446529 307.8 
L 121.463108 55.8 
L 122.479687 55.8 
L 123.496265 307.8 
L 124.512844 55.8 
L 140.778102 55.8 
L 141.79468 307.8 
L 142.811259 55.8 
L 155.010202 55.8 
L 156.026781 307.8 
L 157.043359 55.8 
L 158.059938 307.8 
L 159.076517 55.8 
L 163.142831 55.8 
L 164.15941 307.8 
L 165.175988 55.8 
L 179.408089 55.8 
L 180.424668 307.8 
L 181.441246 55.8 
L 185.507561 55.8 
L 186.524139 307.8 
L 187.540718 55.8 
L 190.590454 55.8 
L 191.607032 307.8 
L 192.623611 307.8 
L 193.640189 55.8 
L 197.706504 55.8 
L 198.723083 307.8 
L 199.739661 55.8 
L 206.855711 55.8 
L 207.87229 307.8 
L 208.888869 55.8 
L 209.905447 55.8 
L 210.922026 307.8 
L 211.938604 55.8 
L 213.971762 55.8 
L 214.98834 307.8 
L 216.004919 307.8 
L 217.021498 55.8 
L 224.137548 55.8 
L 225.154126 307.8 
L 226.170705 55.8 
L 230.237019 55.8 
L 231.253598 307.8 
L 232.270177 55.8 
L 241.419384 55.8 
L 242.435963 307.8 
L 243.452541 307.8 
L 244.46912 55.8 
L 245.485699 307.8 
L 246.502277 55.8 
L 247.518856 55.8 
L 248.535435 307.8 
L 249.552013 55.8 
L 250.568592 307.8 
L 251.58517 307.8 
L 252.601749 55.8 
L 255.651485 55.8 
L 256.668063 307.8 
L 257.684642 307.8 
L 258.701221 55.8 
L 261.750956 55.8 
L 262.767535 307.8 
L 263.784114 307.8 
L 264.800692 55.8 
L 268.867007 55.8 
L 269.883585 307.8 
L 270.900164 307.8 
L 271.916743 55.8 
L 272.933321 307.8 
L 273.9499 55.8 
L 276.999636 55.8 
L 278.016214 307.8 
L 280.049371 307.8 
L 281.06595 55.8 
L 302.414101 55.8 
L 303.43068 307.8 
L 304.447258 55.8 
L 308.513573 55.8 
L 309.530151 307.8 
L 310.54673 307.8 
L 311.563308 55.8 
L 317.66278 55.8 
L 318.679359 307.8 
L 319.695937 55.8 
L 322.745673 55.8 
L 323.762252 307.8 
L 324.77883 55.8 
L 325.795409 55.8 
L 326.811988 307.8 
L 327.828566 55.8 
L 330.878302 55.8 
L 331.894881 307.8 
L 332.911459 55.8 
L 333.928038 55.8 
L 334.944617 307.8 
L 335.961195 55.8 
L 352.226453 55.8 
L 353.243032 307.8 
L 354.25961 55.8 
L 360.359082 55.8 
L 361.37566 307.8 
L 362.392239 307.8 
L 363.408818 55.8 
L 364.425396 55.8 
L 365.441975 307.8 
L 366.458553 55.8 
L 368.491711 55.8 
L 369.508289 307.8 
L 370.524868 55.8 
L 371.541447 55.8 
L 372.558025 307.8 
L 375.607761 307.8 
L 376.62434 55.8 
L 382.723811 55.8 
L 383.74039 307.8 
L 384.756968 55.8 
L 404.071962 55.8 
L 405.088541 307.8 
L 406.105119 55.8 
L 407.121698 55.8 
L 408.138277 307.8 
L 409.154855 55.8 
L 410.171434 307.8 
L 411.188012 55.8 
L 413.22117 55.8 
L 414.237748 307.8 
L 415.254327 55.8 
L 428.469849 55.8 
L 429.486427 307.8 
L 430.503006 55.8 
L 435.585899 55.8 
L 436.602478 307.8 
L 437.619056 55.8 
L 446.768264 55.8 
L 447.784842 307.8 
L 448.801421 55.8 
L 457.950629 55.8 
L 458.967207 307.8 
L 459.983786 307.8 
L 461.000364 55.8 
L 462.016943 307.8 
L 463.033522 55.8 
L 470.149572 55.8 
L 471.16615 307.8 
L 472.182729 55.8 
L 480.315358 55.8 
L 481.331937 307.8 
L 482.348515 55.8 
L 483.365094 307.8 
L 485.398251 307.8 
L 486.41483 55.8 
L 510.812716 55.8 
L 511.829295 307.8 
L 512.845874 55.8 
L 518.945345 55.8 
L 519.961924 307.8 
L 520.978502 55.8 
L 523.01166 55.8 
L 524.028238 307.8 
L 525.044817 307.8 
L 526.061396 55.8 
L 537.24376 55.8 
L 538.260339 307.8 
L 539.276917 55.8 
L 543.343232 55.8 
L 544.359811 307.8 
L 545.376389 55.8 
L 553.509018 55.8 
L 554.525597 307.8 
L 556.558754 307.8 
L 557.575332 55.8 
L 563.674804 55.8 
L 564.691383 307.8 
L 565.707961 55.8 
L 566.72454 55.8 
L 567.741119 307.8 
L 568.757697 55.8 
L 569.774276 307.8 
L 570.790854 307.8 
L 571.807433 55.8 
L 580.956641 55.8 
L 581.973219 307.8 
L 582.989798 55.8 
L 585.022955 55.8 
L 586.039534 307.8 
L 587.056112 55.8 
L 604.337949 55.8 
L 605.354527 307.8 
L 606.371106 55.8 
L 615.520313 55.8 
L 616.536892 307.8 
L 617.553471 55.8 
L 622.636364 55.8 
L 622.636364 55.8 
" clip-path="url(#p9cd0a87284)" style="fill: none; stroke: #ff7f0e; stroke-width: 1.5; stroke-linecap: square"/>
   </g>
   <g id="patch_3">
    <path d="M 90 320.4 
L 90 43.2 
" style="fill: none; stroke: #000000; stroke-width: 0.8; stroke-linejoin: miter; stroke-linecap: square"/>
   </g>
   <g id="patch_4">
    <path d="M 648 320.4 
L 648 43.2 
" style="fill: none; stroke: #000000; stroke-width: 0.8; stroke-linejoin: miter; stroke-linecap: square"/>
   </g>
   <g id="patch_5">
    <path d="M 90 320.4 
L 648 320.4 
" style="fill: none; stroke: #000000; stroke-width: 0.8; stroke-linejoin: miter; stroke-linecap: square"/>
   </g>
   <g id="patch_6">
    <path d="M 90 43.2 
L 648 43.2 
" style="fill: none; stroke: #000000; stroke-width: 0.8; stroke-linejoin: miter; stroke-linecap: square"/>
   </g>
   <g id="text_14">
    <!-- model train and validation accracy over time -->
    <g transform="translate(233.87625 37.2) scale(0.12 -0.12)">
     <defs>
      <path id="DejaVuSans-6d" d="M 3328 2828 
Q 3544 3216 3844 3400 
Q 4144 3584 4550 3584 
Q 5097 3584 5394 3201 
Q 5691 2819 5691 2113 
L 5691 0 
L 5113 0 
L 5113 2094 
Q 5113 2597 4934 2840 
Q 4756 3084 4391 3084 
Q 3944 3084 3684 2787 
Q 3425 2491 3425 1978 
L 3425 0 
L 2847 0 
L 2847 2094 
Q 2847 2600 2669 2842 
Q 2491 3084 2119 3084 
Q 1678 3084 1418 2786 
Q 1159 2488 1159 1978 
L 1159 0 
L 581 0 
L 581 3500 
L 1159 3500 
L 1159 2956 
Q 1356 3278 1631 3431 
Q 1906 3584 2284 3584 
Q 2666 3584 2933 3390 
Q 3200 3197 3328 2828 
z
" transform="scale(0.015625)"/>
      <path id="DejaVuSans-64" d="M 2906 2969 
L 2906 4863 
L 3481 4863 
L 3481 0 
L 2906 0 
L 2906 525 
Q 2725 213 2448 61 
Q 2172 -91 1784 -91 
Q 1150 -91 751 415 
Q 353 922 353 1747 
Q 353 2572 751 3078 
Q 1150 3584 1784 3584 
Q 2172 3584 2448 3432 
Q 2725 3281 2906 2969 
z
M 947 1747 
Q 947 1113 1208 752 
Q 1469 391 1925 391 
Q 2381 391 2643 752 
Q 2906 1113 2906 1747 
Q 2906 2381 2643 2742 
Q 2381 3103 1925 3103 
Q 1469 3103 1208 2742 
Q 947 2381 947 1747 
z
" transform="scale(0.015625)"/>
      <path id="DejaVuSans-6c" d="M 603 4863 
L 1178 4863 
L 1178 0 
L 603 0 
L 603 4863 
z
" transform="scale(0.015625)"/>
      <path id="DejaVuSans-20" transform="scale(0.015625)"/>
      <path id="DejaVuSans-74" d="M 1172 4494 
L 1172 3500 
L 2356 3500 
L 2356 3053 
L 1172 3053 
L 1172 1153 
Q 1172 725 1289 603 
Q 1406 481 1766 481 
L 2356 481 
L 2356 0 
L 1766 0 
Q 1100 0 847 248 
Q 594 497 594 1153 
L 594 3053 
L 172 3053 
L 172 3500 
L 594 3500 
L 594 4494 
L 1172 4494 
z
" transform="scale(0.015625)"/>
      <path id="DejaVuSans-69" d="M 603 3500 
L 1178 3500 
L 1178 0 
L 603 0 
L 603 3500 
z
M 603 4863 
L 1178 4863 
L 1178 4134 
L 603 4134 
L 603 4863 
z
" transform="scale(0.015625)"/>
      <path id="DejaVuSans-6e" d="M 3513 2113 
L 3513 0 
L 2938 0 
L 2938 2094 
Q 2938 2591 2744 2837 
Q 2550 3084 2163 3084 
Q 1697 3084 1428 2787 
Q 1159 2491 1159 1978 
L 1159 0 
L 581 0 
L 581 3500 
L 1159 3500 
L 1159 2956 
Q 1366 3272 1645 3428 
Q 1925 3584 2291 3584 
Q 2894 3584 3203 3211 
Q 3513 2838 3513 2113 
z
" transform="scale(0.015625)"/>
      <path id="DejaVuSans-76" d="M 191 3500 
L 800 3500 
L 1894 563 
L 2988 3500 
L 3597 3500 
L 2284 0 
L 1503 0 
L 191 3500 
z
" transform="scale(0.015625)"/>
     </defs>
     <use xlink:href="#DejaVuSans-6d"/>
     <use xlink:href="#DejaVuSans-6f" x="97.412109"/>
     <use xlink:href="#DejaVuSans-64" x="158.59375"/>
     <use xlink:href="#DejaVuSans-65" x="222.070312"/>
     <use xlink:href="#DejaVuSans-6c" x="283.59375"/>
     <use xlink:href="#DejaVuSans-20" x="311.376953"/>
     <use xlink:href="#DejaVuSans-74" x="343.164062"/>
     <use xlink:href="#DejaVuSans-72" x="382.373047"/>
     <use xlink:href="#DejaVuSans-61" x="423.486328"/>
     <use xlink:href="#DejaVuSans-69" x="484.765625"/>
     <use xlink:href="#DejaVuSans-6e" x="512.548828"/>
     <use xlink:href="#DejaVuSans-20" x="575.927734"/>
     <use xlink:href="#DejaVuSans-61" x="607.714844"/>
     <use xlink:href="#DejaVuSans-6e" x="668.994141"/>
     <use xlink:href="#DejaVuSans-64" x="732.373047"/>
     <use xlink:href="#DejaVuSans-20" x="795.849609"/>
     <use xlink:href="#DejaVuSans-76" x="827.636719"/>
     <use xlink:href="#DejaVuSans-61" x="886.816406"/>
     <use xlink:href="#DejaVuSans-6c" x="948.095703"/>
     <use xlink:href="#DejaVuSans-69" x="975.878906"/>
     <use xlink:href="#DejaVuSans-64" x="1003.662109"/>
     <use xlink:href="#DejaVuSans-61" x="1067.138672"/>
     <use xlink:href="#DejaVuSans-74" x="1128.417969"/>
     <use xlink:href="#DejaVuSans-69" x="1167.626953"/>
     <use xlink:href="#DejaVuSans-6f" x="1195.410156"/>
     <use xlink:href="#DejaVuSans-6e" x="1256.591797"/>
     <use xlink:href="#DejaVuSans-20" x="1319.970703"/>
     <use xlink:href="#DejaVuSans-61" x="1351.757812"/>
     <use xlink:href="#DejaVuSans-63" x="1413.037109"/>
     <use xlink:href="#DejaVuSans-63" x="1468.017578"/>
     <use xlink:href="#DejaVuSans-72" x="1522.998047"/>
     <use xlink:href="#DejaVuSans-61" x="1564.111328"/>
     <use xlink:href="#DejaVuSans-63" x="1625.390625"/>
     <use xlink:href="#DejaVuSans-79" x="1680.371094"/>
     <use xlink:href="#DejaVuSans-20" x="1739.550781"/>
     <use xlink:href="#DejaVuSans-6f" x="1771.337891"/>
     <use xlink:href="#DejaVuSans-76" x="1832.519531"/>
     <use xlink:href="#DejaVuSans-65" x="1891.699219"/>
     <use xlink:href="#DejaVuSans-72" x="1953.222656"/>
     <use xlink:href="#DejaVuSans-20" x="1994.335938"/>
     <use xlink:href="#DejaVuSans-74" x="2026.123047"/>
     <use xlink:href="#DejaVuSans-69" x="2065.332031"/>
     <use xlink:href="#DejaVuSans-6d" x="2093.115234"/>
     <use xlink:href="#DejaVuSans-65" x="2190.527344"/>
    </g>
   </g>
   <g id="legend_1">
    <g id="patch_7">
     <path d="M 97 315.4 
L 178.234375 315.4 
Q 180.234375 315.4 180.234375 313.4 
L 180.234375 285.04375 
Q 180.234375 283.04375 178.234375 283.04375 
L 97 283.04375 
Q 95 283.04375 95 285.04375 
L 95 313.4 
Q 95 315.4 97 315.4 
z
" style="fill: #ffffff; opacity: 0.8; stroke: #cccccc; stroke-linejoin: miter"/>
    </g>
    <g id="line2d_25">
     <path d="M 99 291.142187 
L 109 291.142187 
L 119 291.142187 
" style="fill: none; stroke: #1f77b4; stroke-width: 1.5; stroke-linecap: square"/>
    </g>
    <g id="text_15">
     <!-- train -->
     <g transform="translate(127 294.642187) scale(0.1 -0.1)">
      <use xlink:href="#DejaVuSans-74"/>
      <use xlink:href="#DejaVuSans-72" x="39.208984"/>
      <use xlink:href="#DejaVuSans-61" x="80.322266"/>
      <use xlink:href="#DejaVuSans-69" x="141.601562"/>
      <use xlink:href="#DejaVuSans-6e" x="169.384766"/>
     </g>
    </g>
    <g id="line2d_26">
     <path d="M 99 305.820312 
L 109 305.820312 
L 119 305.820312 
" style="fill: none; stroke: #ff7f0e; stroke-width: 1.5; stroke-linecap: square"/>
    </g>
    <g id="text_16">
     <!-- validation -->
     <g transform="translate(127 309.320312) scale(0.1 -0.1)">
      <use xlink:href="#DejaVuSans-76"/>
      <use xlink:href="#DejaVuSans-61" x="59.179688"/>
      <use xlink:href="#DejaVuSans-6c" x="120.458984"/>
      <use xlink:href="#DejaVuSans-69" x="148.242188"/>
      <use xlink:href="#DejaVuSans-64" x="176.025391"/>
      <use xlink:href="#DejaVuSans-61" x="239.501953"/>
      <use xlink:href="#DejaVuSans-74" x="300.78125"/>
      <use xlink:href="#DejaVuSans-69" x="339.990234"/>
      <use xlink:href="#DejaVuSans-6f" x="367.773438"/>
      <use xlink:href="#DejaVuSans-6e" x="428.955078"/>
     </g>
    </g>
   </g>
  </g>
 </g>
 <defs>
  <clipPath id="p9cd0a87284">
   <rect x="90" y="43.2" width="558" height="277.2"/>
  </clipPath>
 </defs>
</svg>
